<svg version="1.1" xmlns="http://www.w3.org/2000/svg" xmlns:xlink="http://www.w3.org/1999/xlink" width="34.67311" height="34.67311" viewBox="0,0,34.67311,34.67311"><defs><linearGradient x1="239.99998" y1="162.91345" x2="239.99998" y2="197.08656" gradientUnits="userSpaceOnUse" id="color-1"><stop offset="0" stop-color="#000000"/><stop offset="1" stop-color="#552222"/></linearGradient><linearGradient x1="249.97772" y1="182.77546" x2="249.97772" y2="187.40181" gradientUnits="userSpaceOnUse" id="color-2"><stop offset="0" stop-color="#c74f4e"/><stop offset="1" stop-color="#602626"/></linearGradient><linearGradient x1="236.03862" y1="172.5981" x2="236.03862" y2="185.38065" gradientUnits="userSpaceOnUse" id="color-3"><stop offset="0" stop-color="#c74f4e"/><stop offset="1" stop-color="#602626"/></linearGradient><linearGradient x1="227.86185" y1="176.0689" x2="227.86185" y2="179.89466" gradientUnits="userSpaceOnUse" id="color-4"><stop offset="0" stop-color="#c74f4e"/><stop offset="1" stop-color="#602626"/></linearGradient></defs><g transform="translate(-222.66344,-162.66344)"><g data-paper-data="{&quot;isPaintingLayer&quot;:true}" stroke-linecap="round" stroke-miterlimit="10" stroke-dasharray="" stroke-dashoffset="0" style="mix-blend-mode: normal"><path d="M229.98311,162.91345h20.03379c3.9166,0 7.06966,3.15307 7.06966,7.06966v20.03379c0,3.91659 -3.15306,7.06966 -7.06966,7.06966h-20.03379c-3.91659,0 -7.06966,-3.15307 -7.06966,-7.06966v-20.03379c0,-3.91659 3.15307,-7.06966 7.06966,-7.06966z" fill="url(#color-1)" fill-rule="evenodd" stroke="#bb4a49" stroke-width="0.5" stroke-linejoin="round"/><g fill-rule="nonzero" stroke-linejoin="miter"><path d="M254.22018,185.1641l-0.57747,2.23771l-7.65152,-2.09334l-0.25593,-2.53301z" fill="url(#color-2)" stroke="#000000" stroke-width="0"/><path d="M225.77964,179.46155c0,0 1.69726,-4.86433 6.54907,-6.24721c5.00442,-1.42638 9.55077,-0.43369 12.29099,3.5764c2.74022,4.01008 1.29931,8.58991 1.29931,8.58991z" fill="url(#color-3)" stroke="#000000" stroke-width="0"/><path d="M228.16171,176.0689c0,0 0.46165,0.68824 0.30698,1.1832c-0.19625,0.62801 -1.24537,2.64256 -1.24537,2.64256" fill="url(#color-4)" stroke-opacity="0.06391" stroke="#000000" stroke-width="0.5"/></g></g></g></svg>