<svg version="1.1" xmlns="http://www.w3.org/2000/svg" xmlns:xlink="http://www.w3.org/1999/xlink" width="139.92516" height="267.22501" viewBox="0,0,139.92516,267.22501"><defs><linearGradient x1="240.00004" y1="175.50001" x2="240.00004" y2="307.50001" gradientUnits="userSpaceOnUse" id="color-1"><stop offset="0" stop-color="#1a110e"/><stop offset="1" stop-color="#5d3d27"/></linearGradient><linearGradient x1="238.44578" y1="87.58464" x2="230.13844" y2="214.55369" gradientUnits="userSpaceOnUse" id="color-2"><stop offset="0" stop-color="#19110c"/><stop offset="1" stop-color="#714a2f"/></linearGradient><radialGradient cx="294.64436" cy="164.32285" r="11.00094" gradientUnits="userSpaceOnUse" id="color-3"><stop offset="0" stop-color="#ffe902"/><stop offset="1" stop-color="#6a6101"/></radialGradient></defs><g transform="translate(-165.51289,-46.38751)"><g data-paper-data="{&quot;isPaintingLayer&quot;:true}" fill-rule="nonzero" stroke-linejoin="miter" stroke-miterlimit="10" stroke-dasharray="" stroke-dashoffset="0" style="mix-blend-mode: normal"><path d="M179.28374,313.61252v-267.22501h123.18203v267.22501z" fill-opacity="0.01" fill="#000000" stroke="none" stroke-width="0" stroke-linecap="butt"/><path d="M206.75005,307.5l15.14285,-131.8421l37.78325,-0.15789l13.57389,132z" fill="url(#color-1)" stroke="#000000" stroke-width="0" stroke-linecap="butt"/><g><g><path d="M166.66076,146.64418c2.294,-35.06154 34.43326,-61.5034 71.785,-59.05956c37.35176,2.44386 65.77169,32.84799 63.47768,67.90951c-2.294,35.06154 -34.43326,61.5034 -71.785,59.05956c-37.35176,-2.44386 -65.77169,-32.84799 -63.47768,-67.90951z" fill="url(#color-2)" stroke="#000000" stroke-width="0" stroke-linecap="butt"/><path d="M197.18871,121.29263c0,0 5.155,-0.93266 10.64602,-1.53628c7.46936,-0.82112 11.34716,0.61909 11.34716,0.61909l-0.88233,60.41719c0,0 -5.44776,1.21435 -8.40142,1.0211c-3.81313,-0.24949 -13.00148,-2.42144 -13.00148,-2.42144z" fill="none" stroke="#36251c" stroke-width="2.5" stroke-linecap="round"/><path d="M266.41641,122.35151c5.80792,0.87508 7.33911,1.98728 7.33911,1.98728l-4.68557,58.20487c0,0 -6.95362,0.33044 -10.09742,0.12475c-2.78116,-0.18196 -7.81112,-1.29646 -7.81112,-1.29646l6.99744,-60.01709c0,0 4.36585,0.41029 8.25754,0.99665z" fill="none" stroke="#36251c" stroke-width="2.5" stroke-linecap="round"/><path d="M175.42776,128.07161l0.73487,-2.5904" fill="none" stroke="#000000" stroke-width="1.5" stroke-linecap="round"/><path d="M176.06441,126.9825l2.8061,3.199" fill="none" stroke="#000000" stroke-width="1.5" stroke-linecap="round"/><path d="M172.61985,133.54178l2.45186,-0.02805l1.42761,1.22418" fill="none" stroke="#000000" stroke-width="1.5" stroke-linecap="round"/><path d="M168.46497,142.31613l2.76228,-1.89236l-0.74714,2.77805l1.11368,0.26133l-0.17189,2.62723l2.03969,0.51037" fill="none" stroke="#000000" stroke-width="1.5" stroke-linecap="round"/><path d="M168.02295,149.07186l1.53811,-0.46474l1.54159,2.36241" fill="none" stroke="#000000" stroke-width="1.5" stroke-linecap="round"/><path d="M168.53501,158.5285l-0.53494,2.41501l-1.33817,0.28936" fill="none" stroke="#000000" stroke-width="1.5" stroke-linecap="round"/><path d="M168.06844,165.65956l1.72576,-0.45249l1.02774,1.57495" fill="none" stroke="#000000" stroke-width="1.5" stroke-linecap="round"/><path d="M176.1763,177.12088l-1.23995,-1.21191l-3.90401,-0.82082l1.9871,-1.56615l0.87341,-1.82747l0.35955,-2.61494l0.13506,-2.06425l2.99906,-2.63073" fill="none" stroke="#000000" stroke-width="1.5" stroke-linecap="round"/><path d="M172.52483,178.20119l1.06108,-1.81521" fill="none" stroke="#000000" stroke-width="1.5" stroke-linecap="round"/><path d="M283.45925,166.38105c0.39667,-6.06268 5.63301,-10.65591 11.69569,-10.25923c6.06269,0.39667 10.65591,5.63301 10.25923,11.69569c-0.39667,6.06268 -5.63301,10.65591 -11.69569,10.25923c-6.06269,-0.39667 -10.65591,-5.63301 -10.25923,-11.69569z" fill="url(#color-3)" stroke="#f6c002" stroke-width="0" stroke-linecap="butt"/><path d="M171.68969,169.60638c0,0 1.13021,3.32581 1.86833,4.77492c0.60785,1.19339 2.24589,3.30242 2.24589,3.30242l-3.48584,1.67121c0,0 -1.54451,-2.78657 -2.0691,-4.11594c-0.50002,-1.26713 -1.00821,-3.68252 -1.00821,-3.68252z" fill="#b4b3b4" stroke="#b6b4b2" stroke-width="0.5" stroke-linecap="round"/><path d="M167.11789,165.29768c0,0 -0.92668,-2.91505 -1.15603,-4.3231c-0.22208,-1.36347 -0.19898,-3.99579 -0.19898,-3.99579l3.69948,-0.33125c0,0 -0.2903,2.80098 -0.1469,4.19076c0.13941,1.35113 0.99563,4.03521 0.99563,4.03521l-3.19322,0.42416z" fill="#b4b3b4" stroke="#b6b4b2" stroke-width="0.5" stroke-linecap="round"/><path d="M169.88632,139.31092c0,0 -0.66341,3.12648 -0.79954,4.63974c-0.11968,1.33031 0.02572,3.96192 0.02572,3.96192l-3.36211,-0.21998c0,0 -0.19777,-0.18317 0.11067,-4.65047c0.20779,-3.0096 0.64939,-3.74105 0.64939,-3.74105z" fill="#b4b3b4" stroke="#b6b4b2" stroke-width="0.5" stroke-linecap="round"/><path d="M232.4594,94.1369c1.2057,-0.43037 3.51223,-2.42639 4.81656,-2.39213c1.73212,-0.65783 3.76868,-1.93519 5.21642,-2.69453c0.11422,-0.1002 0.21706,-0.2136 0.3114,-0.33347c0.03148,-0.19986 0.24171,-0.1861 0.24171,-0.1861c1.10079,0.07202 3.60329,0.1232 4.1939,1.2489c0.01597,0.01921 0.0269,0.03923 0.03403,0.05923l0.07112,0.06516c0,0 0.15189,0.17315 -0.02127,0.32505c-0.08377,0.07347 -0.16256,0.07088 -0.22157,0.04862c-1.05525,1.6105 -2.50666,1.91822 -4.24053,2.64785c-1.27484,0.50937 -5.2488,0.93584 -5.98222,2.13755c-1.92596,0.57898 -3.83917,2.33769 -5.55719,2.38193c-0.35542,-0.03412 -0.62705,0.15496 -0.88513,0.38536c0.58942,0.81357 3.57626,1.37788 4.47937,1.43697c1.91719,0.16395 4.97055,0.66599 6.64202,1.60462c2.20981,0.89805 5.09919,0.53421 7.14998,1.73692c1.43245,0.07595 6.24152,0.87434 6.1492,2.67582c-0.14476,1.69287 -4.68628,1.98096 -5.95158,1.88726c-0.68025,0.17835 -1.65058,0.13411 -2.39031,0.09878c-0.04848,0.08421 -0.14837,0.1104 -0.14837,0.1104c-1.77959,0.46375 -3.71193,1.14055 -5.3898,1.8299c-1.50931,-0.09875 -3.20129,1.32833 -4.56861,1.86656c-0.38987,0.15347 -0.48559,0.69797 -1.01363,0.54793c-0.12682,0.31107 -2.07919,1.69885 -1.13595,2.13623l0.092,0.19994c1.58197,0.19474 3.20389,1.38173 4.66936,1.97659c2.29297,0.93842 4.13304,1.7658 6.63817,1.96527c0.42973,0.25119 1.05106,0.12076 1.26484,0.73127c0.41881,1.19608 -0.89825,1.08613 -0.99759,1.81579c-0.14337,1.05321 0.63083,2.07254 -1.00984,2.65818c-0.9343,1.59829 -2.45111,2.85779 -3.45768,4.57974c-1.08414,1.85467 -1.67147,3.80483 -2.6705,5.58759c-0.27645,0.44545 -0.4834,1.45062 -0.25589,1.95368l0.00561,0.14138c0.52661,1.27617 0.74377,4.35014 0.69829,5.12997c-0.07681,1.17411 0.68664,3.87048 -0.37827,4.74831c-0.61017,0.50298 -1.12884,0.23262 -1.60516,1.04744c-2.11025,0.92236 -3.5043,-1.05802 -5.59126,-1.19458c-0.17278,-0.0113 -0.34553,-0.0226 -0.51831,-0.03391c0.38324,0.3219 0.86427,1.03244 1.24613,1.42547c0.19335,-0.06191 0.27525,0.13274 0.27525,0.13274c0.00736,0.03777 0.01704,0.07533 0.0289,0.1127c0.05122,0.02459 0.09809,0.03462 0.13967,0.02684l0.27728,0.21381c0,0 0.15189,0.17315 -0.02127,0.32505c-0.01096,0.00961 -0.02185,0.01795 -0.03261,0.02507c0.88316,0.99537 2.92848,1.91383 3.41548,3.07111c1.578,0.80857 3.32341,2.9868 3.19775,4.90728c-1.45213,2.40756 -4.76875,-0.17993 -5.38514,-1.90682c-0.1139,-0.06658 -0.19218,-0.13269 -0.2517,-0.20651c0.30817,1.25151 1.5288,2.36682 1.41612,4.08904c-0.04983,0.76158 0.65685,2.12896 0.30094,2.70207c-1.18246,1.90402 -2.50646,-1.3829 -2.7289,-1.91153c0.10854,-2.02318 -1.99668,-3.483 -1.79361,-5.85768c0.38309,-0.68359 1.12901,-1.00421 1.01911,-1.87608c-0.14801,-1.17422 -1.95952,-1.66726 -2.2814,-2.69503c-1.39902,-0.09153 -3.65778,-4.11676 -2.85339,-5.31729c2.30467,-0.05933 4.59532,0.0101 6.89755,0.16072c0.5596,0.03661 1.11919,0.07323 1.67879,0.10985c-0.00378,-0.10643 0.08355,-0.18304 0.08355,-0.18304l0.05789,0.03895c0.08621,-1.31756 0.17241,-2.63512 0.25862,-3.95266c0.14649,-2.23907 0.97264,-4.59427 1.08505,-6.75272c0.89462,-2.22162 0.77237,-4.62585 1.99782,-6.72226c0.34573,-0.55707 2.63031,-3.89298 1.49901,-3.92219c-0.0073,0.00009 -0.01152,-0.00018 -0.01152,-0.00018c-1.26124,-0.08252 -1.64299,-0.79268 -2.67162,-1.07734c-0.78709,-0.21782 -1.33323,0.42497 -2.09534,0.37512c-0.19764,0.03002 0.26084,2.12889 0.13438,2.52626c-0.33671,1.05803 -1.23933,2.4653 -1.25363,3.50341c-0.65535,1.16943 -0.18432,3.08988 -1.07457,4.10928c-0.81108,0.92876 -1.73427,1.06053 -2.19823,-0.09772c0.10995,-2.1452 0.99016,-4.7839 1.98381,-6.55708c1.26998,-2.1726 -0.33287,-3.92636 1.80749,-5.80383c0.07089,-0.12468 -4.10743,-2.0427 -5.02517,-2.43044c-0.72508,-0.81266 -2.17241,-2.32574 -1.37549,-3.60898c0.32608,-0.52507 1.81359,-0.59841 2.32427,-0.82939c1.99404,-0.8391 3.04003,-1.92362 5.01258,-2.72607c0.65001,-0.57017 2.13623,-1.20199 2.98924,-1.24523c1.40066,-0.51792 2.92287,-0.87015 4.39248,-1.49227c0.44212,-0.1852 0.76599,-0.50583 1.1976,-0.68996c0.00932,-0.00399 0.01954,-0.00836 0.0305,-0.01309c-0.49162,0.00861 -1.16012,-0.10729 -1.3505,-0.15348c-0.88575,-0.21495 -1.73461,-1.01072 -2.64653,-1.07039c-2.08921,-1.17882 -4.66238,-0.86657 -6.64933,-2.09972c-2.05668,-0.11666 -3.86668,-1.89386 -5.88431,-2.04967c-3.03303,-1.69971 -0.35737,-3.45635 1.51178,-4.30179c0.8359,-0.35176 1.6823,-0.61216 2.51648,-0.93996c-0.08298,-0.20805 0.12538,-0.29574 0.12538,-0.29574z" fill="#000000" stroke="none" stroke-width="0.5" stroke-linecap="butt"/><path d="M168.27915,131.81967c0,0 1.20793,-5.11196 3.43679,-7.37227c2.22886,-2.2603 2.14011,-0.47325 3.79611,0.03734c1.65602,0.51059 0.84713,0.60544 0.54791,1.30203c-0.29922,0.69661 -4.78006,8.55056 -4.78006,8.55056z" fill="#b4b3b4" stroke="#b6b4b2" stroke-width="0.5" stroke-linecap="round"/><path d="M251.5107,88.71453c0.02096,-0.02991 0.04065,-0.05951 0.05887,-0.08871c-0.00229,0.02816 -0.02316,0.05787 -0.05887,0.08871z" fill-opacity="0.43044" fill="#9966ff" stroke="none" stroke-width="0.5" stroke-linecap="butt"/></g><path d="M180.92034,147.6788c0.8933,-13.65323 12.68562,-23.99722 26.33885,-23.10391c13.65323,0.8933 23.99722,12.68562 23.10391,26.33885c-0.8933,13.65323 -12.68562,23.99722 -26.33885,23.10391c-13.65323,-0.8933 -23.99722,-12.68562 -23.10391,-26.33885z" fill="#b6b6b6" stroke="#000000" stroke-width="0" stroke-linecap="butt"/><path d="M261.14977,177.75525c-13.65323,-0.8933 -23.99722,-12.68562 -23.10391,-26.33885c0.8933,-13.65323 12.68562,-23.99722 26.33885,-23.10391c13.65323,0.8933 23.99722,12.68562 23.10391,26.33885c-0.8933,13.65323 -12.68562,23.99722 -26.33885,23.10391z" data-paper-data="{&quot;index&quot;:null}" fill="#b6b6b6" stroke="#000000" stroke-width="0" stroke-linecap="butt"/><path d="M195.05036,148.60331c0.38271,-5.84945 5.43488,-10.28111 11.28433,-9.89839c5.84945,0.38271 10.28111,5.43488 9.8984,11.28433c-0.38271,5.84945 -5.43489,10.28111 -11.28434,9.89838c-5.84945,-0.38271 -10.2811,-5.43488 -9.89839,-11.28433z" fill="none" stroke="#ffffff" stroke-width="2" stroke-linecap="butt"/><path d="M262.07427,163.62524c-5.84945,-0.38271 -10.28111,-5.43488 -9.8984,-11.28433c0.38271,-5.84945 5.4349,-10.28111 11.28434,-9.89838c5.84945,0.38271 10.2811,5.43488 9.89839,11.28433c-0.38271,5.84945 -5.43489,10.28111 -11.28433,9.89839z" data-paper-data="{&quot;index&quot;:null}" fill="none" stroke="#ffffff" stroke-width="2" stroke-linecap="butt"/><path d="M221.18542,211.59012c0,0 -0.14104,-3.82753 9.60321,-3.39222c9.41644,0.42066 8.41211,4.57093 8.41211,4.57093l-18.01529,-1.1787z" fill="#000000" stroke="#000000" stroke-width="1.5" stroke-linecap="round"/></g></g></g></svg>