<svg version="1.1" xmlns="http://www.w3.org/2000/svg" xmlns:xlink="http://www.w3.org/1999/xlink" width="167.81905" height="267.22501" viewBox="0,0,167.81905,267.22501"><defs><linearGradient x1="223.51802" y1="105.0947" x2="221.31509" y2="184.90898" gradientUnits="userSpaceOnUse" id="color-1"><stop offset="0" stop-color="#ffffff" stop-opacity="0.06754"/><stop offset="1" stop-color="#666666" stop-opacity="0.33367"/></linearGradient></defs><g transform="translate(-171.9085,-46.3875)"><g data-paper-data="{&quot;isPaintingLayer&quot;:true}" fill-rule="nonzero" stroke-linejoin="miter" stroke-miterlimit="10" stroke-dasharray="" stroke-dashoffset="0" style="mix-blend-mode: normal"><g><path d="M179.14715,313.61251v-267.22501h123.18203v267.22501z" fill-opacity="0.01" fill="#000000" stroke="none" stroke-width="0" stroke-linecap="butt"/><path d="M174.18001,144.95522l143.80992,10.00417c0,0 -10.09411,42.39996 -11.87995,46.26928c-1.78584,3.86932 -10.62943,2.50104 -10.62943,2.50104c0,0 1.22278,10.99558 -0.62526,15.00625c-1.84804,4.01068 -5.17444,5.97702 -9.17043,6.25261c-3.996,0.27559 -8.96213,-5.00208 -8.96213,-5.00208l-8.75365,10.62943l-53.14714,0.62526l-10.00417,-10.62943l-3.1263,3.1263c0,0 -3.08747,4.306 -8.545,1.66748c-3.77966,-1.82733 -4.58548,-7.92008 -4.58548,-7.92008l-0.62526,-14.38099c0,0 -8.14888,-0.39257 -10.62943,-2.50104c-2.48055,-2.10847 -1.87578,-8.12839 -1.87578,-8.12839z" fill="#874e8b" stroke="#000000" stroke-width="2" stroke-linecap="round"/><path d="M206.75006,307.50001l15.14285,-131.8421l37.78325,-0.15789l13.57389,132z" fill="#d477dc" stroke="#000000" stroke-width="2" stroke-linecap="butt"/><path d="M219.70029,204.11264l3.12142,-26.32765l35.83075,-0.14203l2.76735,26.1059c0,0 -7.51543,4.19603 -21.55904,4.50964c-12.48458,0.27879 -20.16049,-4.14586 -20.16049,-4.14586z" fill="#9c58a0" stroke="#000000" stroke-width="0" stroke-linecap="butt"/></g><path d="M219.47388,204.11272l3.12142,-26.32765l35.83075,-0.14203l2.76735,26.1059c0,0 -7.51543,4.19603 -21.55904,4.50964c-12.48458,0.27879 -20.16049,-4.14586 -20.16049,-4.14586z" fill="#9c58a0" stroke="#000000" stroke-width="0" stroke-linecap="butt"/><path d="M175.19725,123.66598c2.48873,-11.57711 8.22001,-22.00916 16.2478,-30.45463c13.18398,-13.86996 29.77703,5.41729 51.15859,5.99058c22.37064,0.5998 44.80315,-16.7862 57.16413,-1.07946c8.93824,11.35755 14.06652,25.483 13.65942,40.66735c-0.67245,25.07992 -16.2695,46.4659 -38.61488,56.88529c-1.36132,-0.90034 -2.60532,-1.64519 -3.6082,-2.17067c-5.32692,-2.79124 -11.28431,-4.49579 -17.52761,-4.70963c-6.66415,-0.22825 -13.33018,-0.407 -19.99697,-0.53617c-6.13213,-0.11881 -12.6988,1.47326 -18.795,1.99749c-3.44216,0.29598 -6.8909,0.54484 -10.33176,0.86058c-13.68338,-8.73627 -23.88563,-21.57472 -28.31324,-36.88306c-1.7368,-6.00493 3.62452,-11.55229 3.79967,-18.08538z" fill="#d477dc" stroke="#000000" stroke-width="2" stroke-linecap="butt"/><path d="M312.48253,138.46062c-0.67042,25.00463 -16.43878,46.28081 -38.93437,56.40167c-0.8071,-0.50343 -1.55121,-0.93625 -2.20088,-1.28223c34.40679,-14.55817 41.15922,-56.01372 41.13526,-55.11945z" fill="#9c58a0" stroke="#000000" stroke-width="0" stroke-linecap="butt"/><path d="M174.63045,134.7645c0.01694,-0.63186 2.57743,38.61626 35.80385,55.85694c-1.31325,0.1054 -2.62656,0.21112 -3.9391,0.3234c-19.68209,-11.83579 -32.49361,-32.72612 -31.86476,-56.18035z" fill="#9c58a0" stroke="#000000" stroke-width="0" stroke-linecap="butt"/><path d="M188.55655,135.54634c0.37777,-14.09008 12.10632,-25.20611 26.19641,-24.82833c14.09008,0.37777 25.20611,12.10631 24.82832,26.1964c-0.37777,14.09008 -12.10632,25.20612 -26.1964,24.82832c-14.09008,-0.37777 -25.20611,-12.10632 -24.82832,-26.1964z" fill="#ffffff" stroke="#000000" stroke-width="2" stroke-linecap="butt"/><path d="M272.33814,163.32336c-14.09008,-0.37777 -25.20611,-12.10632 -24.82831,-26.1964c0.37777,-14.09008 12.10631,-25.20611 26.1964,-24.82832c14.09008,0.37777 25.20612,12.10632 24.82833,26.19641c-0.37778,14.09008 -12.10632,25.20611 -26.19641,24.82833z" data-paper-data="{&quot;index&quot;:null}" fill="#ffffff" stroke="#000000" stroke-width="2" stroke-linecap="butt"/><path d="M235.92017,166.6065c1.15643,-1.56127 4.60841,-1.76447 7.66363,-1.38907c2.37608,0.29195 4.50436,0.6312 5.17662,2.90347c1.53665,5.19402 2.46677,18.9764 2.46677,18.9764c-7.5062,-0.08432 -13.49076,-1.03473 -20.9947,-0.90739z" data-paper-data="{&quot;index&quot;:null}" fill="#000000" stroke="none" stroke-width="0" stroke-linecap="butt"/><path d="M177.52745,99.92647l130.08746,1.01599c0,0 4.55274,14.38241 -1.78579,17.74983c-6.33852,3.36743 -12.42183,-7.25437 -17.7034,-7.39599c-5.28155,-0.14161 -1.5324,4.9283 -12.75904,3.61295c-11.22664,-1.31536 -14.6875,-8.00943 -25.54376,-8.10058c-10.85626,-0.09117 -7.13449,5.90497 -20.25584,6.37824c-7.46384,0.2692 -25.2664,-2.16059 -25.2664,-2.16059c0,0 -7.30595,6.06525 -21.9746,5.34338c-3.77777,-0.18591 -5.43365,-9.04455 -5.43365,-9.04455z" fill="#874d8a" stroke="#000000" stroke-width="2" stroke-linecap="round"/><path d="M315.8592,112.43853c0,0 2.12498,-0.48205 3.2597,-0.49998c1.24176,-0.01961 3.89873,0.38691 3.89873,0.38691c0,0 -2.41525,8.50989 -3.94758,8.50209c-1.42401,-0.00725 -3.21084,-8.38902 -3.21084,-8.38902z" fill="#ffdeff" stroke="none" stroke-width="0" stroke-linecap="butt"/><path d="M317.7576,122.9888c0.00274,-0.53671 0.53905,-0.96909 1.19789,-0.96572c0.65884,0.00335 1.19073,0.44116 1.188,0.97788c-0.00274,0.53671 -0.53905,0.96909 -1.19789,0.96572c-0.65884,-0.00335 -1.19073,-0.44116 -1.188,-0.97788z" fill="#ffdeff" stroke="none" stroke-width="0" stroke-linecap="butt"/><g><path d="M172.93494,196.15054l2.94567,-109.8643l162.82049,4.36555l-2.94567,109.8643zM180.77247,183.63265l117.78671,2.36978l0.91498,-78.27776l-116.57993,-3.12838z" fill="#9d829c" stroke="#725771" stroke-width="2" stroke-linecap="butt"/><path d="M303.28332,122.88527c0.05096,-1.90054 0.20791,-7.75443 0.29278,-10.92031c0.03358,-1.25233 1.22004,-2.05284 2.47136,-2.0193c3.62183,0.0971 21.46448,0.57551 27.41303,0.735c1.21506,0.03259 1.89073,1.6602 1.85546,2.97593c-0.04954,1.84767 -0.18669,6.9626 -0.27029,10.08029c-0.04001,1.49213 -1.10084,2.49905 -2.78484,2.4539c-6.66837,-0.17879 -23.543,-0.63123 -26.89087,-0.72099c-1.13114,-0.03032 -2.118,-1.41535 -2.08666,-2.58451z" fill="#725771" stroke="#725771" stroke-width="0" stroke-linecap="butt"/><path d="M303.48944,189.26138c0.06797,-2.53547 0.16872,-6.29249 0.20564,-7.66969c0.02704,-1.00901 1.12061,-2.19324 2.24959,-2.16297c3.16307,0.08482 18.31995,0.4912 23.63056,0.63359c1.15403,0.03095 1.80105,1.61775 1.76884,2.81894c-0.03732,1.39174 -0.12788,4.76917 -0.19096,7.12185c-0.03829,1.4278 -0.9399,2.45478 -1.90954,2.42879c-2.76618,-0.07417 -16.31495,-0.43745 -22.60316,-0.60604c-1.96223,-0.05261 -3.18947,-1.12982 -3.151,-2.56448z" fill="none" stroke="#725771" stroke-width="2" stroke-linecap="butt"/><path d="M304.02309,174.52191c0.20892,-7.7919 1.02765,-38.32859 1.16386,-43.40833c0.0375,-1.39885 1.1939,-2.57144 2.3783,-2.5397c3.15015,0.08446 17.61374,0.47225 23.37371,0.62669c1.47286,0.03949 2.34794,1.13457 2.31377,2.40847c-0.12844,4.79026 -0.92649,34.55485 -1.15698,43.15146c-0.03944,1.4712 -0.80931,2.30241 -1.66835,2.27936c-2.84761,-0.07634 -18.69122,-0.50115 -24.40113,-0.65425c-1.28076,-0.03434 -2.03411,-0.71007 -2.00318,-1.86372z" fill="#ffdeff" stroke="#725771" stroke-width="2" stroke-linecap="butt"/><path d="M330.68518,196.18546c0.02092,-0.78022 0.67036,-1.39575 1.45058,-1.37483c0.78021,0.02093 1.39575,0.67037 1.37483,1.45058c-0.02092,0.78022 -0.67036,1.39575 -1.45058,1.37483c-0.78021,-0.02093 -1.39575,-0.67037 -1.37483,-1.45058z" fill="#725771" stroke="none" stroke-width="0" stroke-linecap="butt"/><path d="M176.86885,191.03317c0.02852,-1.06393 0.91413,-1.90328 1.97806,-1.87475c1.06393,0.02852 1.90328,0.91413 1.87475,1.97807c-0.02852,1.06393 -0.91413,1.90327 -1.97806,1.87474c-1.06393,-0.02852 -1.90327,-0.91412 -1.87473,-1.97805z" fill="#725771" stroke="none" stroke-width="0" stroke-linecap="butt"/><path d="M177.76706,90.42663c0.01901,-0.70929 0.60943,-1.26885 1.3187,-1.24984c0.70928,0.01902 1.26885,0.60943 1.24984,1.3187c-0.01901,0.70929 -0.60943,1.26885 -1.3187,1.24984c-0.70928,-0.01902 -1.26884,-0.60943 -1.24984,-1.3187z" fill="#725771" stroke="none" stroke-width="0" stroke-linecap="butt"/><path d="M333.43575,93.74923c0.02536,-0.94578 0.81261,-1.6919 1.75835,-1.66654c0.94578,0.02536 1.6919,0.81261 1.66654,1.75835c-0.02536,0.94578 -0.81261,1.69191 -1.75835,1.66655c-0.94578,-0.02536 -1.69189,-0.81262 -1.66653,-1.75836z" fill="#725771" stroke="none" stroke-width="0" stroke-linecap="butt"/><path d="M318.96829,129.35915l-1.23273,45.97685" fill="none" stroke="#725771" stroke-width="2" stroke-linecap="round"/><path d="M304.95969,162.91261l26.1991,0.70246" fill="none" stroke="#725771" stroke-width="2" stroke-linecap="round"/><path d="M332.22547,152.59101l-26.71281,-0.71623" fill="none" stroke="#725771" stroke-width="2" stroke-linecap="round"/><path d="M305.30198,140.55945l26.96965,0.7231" fill="none" stroke="#725771" stroke-width="2" stroke-linecap="round"/></g><g fill="#000000" stroke="none" stroke-width="0" stroke-linecap="butt"><path d="M208.93855,137.77098c0.18553,-6.91953 5.9453,-12.37849 12.86481,-12.19297c6.91953,0.18553 12.37849,5.9453 12.19297,12.86482c-0.18553,6.91953 -5.94531,12.3785 -12.86482,12.19297c-6.91953,-0.18553 -12.37849,-5.94531 -12.19296,-12.86482z"/><path d="M281.74368,152.94441c-6.91951,-0.18553 -12.37848,-5.94531 -12.19295,-12.86482c0.18553,-6.91953 5.9453,-12.37849 12.86481,-12.19297c6.91951,0.18553 12.37849,5.94531 12.19296,12.86482c-0.18553,6.91953 -5.94531,12.3785 -12.86481,12.19296z" data-paper-data="{&quot;index&quot;:null}"/></g><g stroke-linecap="butt"><path d="M180.19152,183.79025l2.20289,-79.81428l82.68031,-8.9777l-0.94454,97.94839z" fill="url(#color-1)" stroke="#725771" stroke-width="2"/><path d="M195.60438,185.91219l-11.74782,-81.0055l11.07837,-2.33697l11.24662,84.79357z" fill-opacity="0.11593" fill="#ffffff" stroke="none" stroke-width="0"/><path d="M215.62983,187.10477l-11.46938,-84.90746l12.39973,-2.2547l10.75121,88.48827z" fill-opacity="0.11593" fill="#ffffff" stroke="none" stroke-width="0"/></g></g></g></svg>