<svg version="1.1" xmlns="http://www.w3.org/2000/svg" xmlns:xlink="http://www.w3.org/1999/xlink" width="35.89903" height="35.89871" viewBox="0,0,35.89903,35.89871"><g transform="translate(-221.66347,-161.66346)"><g data-paper-data="{&quot;isPaintingLayer&quot;:true}" stroke-miterlimit="10" stroke-dasharray="" stroke-dashoffset="0" style="mix-blend-mode: normal"><path d="M257.56248,169.83171v20.49804c0,4.00745 -3.22497,7.23243 -7.23242,7.23243h-20.5c-3.66107,0 -6.66147,-2.69385 -7.1543,-6.21484c0.7952,3.03475 3.54108,5.26367 6.83204,5.26367h20.0332c3.9166,0 7.07032,-3.15372 7.07032,-7.07031v-20.03321c0,-3.2976 -2.23906,-6.0451 -5.28321,-6.83398c3.52994,0.48496 6.23438,3.49081 6.23438,7.15821z" fill-opacity="0.29839" fill="#000000" fill-rule="evenodd" stroke="none" stroke-width="4.54219" stroke-linecap="round" stroke-linejoin="round"/><path d="M229.23313,162.16346h20.03379c3.9166,0 7.06966,3.15307 7.06966,7.06966v20.03379c0,3.91659 -3.15306,7.06966 -7.06966,7.06966h-20.03379c-3.91659,0 -7.06966,-3.15307 -7.06966,-7.06966v-20.03379c0,-3.91659 3.15307,-7.06966 7.06966,-7.06966z" fill="#000000" fill-rule="evenodd" stroke="#710000" stroke-width="1" stroke-linecap="round" stroke-linejoin="round"/><path d="M230.17348,179.9722c0.62053,0 1.12356,0.50304 1.12356,1.12356c0,0.62053 -0.50304,1.12356 -1.12356,1.12356c-0.62053,0 -1.12356,-0.50304 -1.12356,-1.12356c0,-0.62053 0.50304,-1.12356 1.12356,-1.12356z" fill="#710000" fill-rule="nonzero" stroke="#710000" stroke-width="2.5" stroke-linecap="butt" stroke-linejoin="miter"/><path d="M248.52636,179.32702c0.62053,0 1.12356,0.50304 1.12356,1.12356c0,0.62053 -0.50304,1.12356 -1.12356,1.12356c-0.62053,0 -1.12356,-0.50304 -1.12356,-1.12356c0,-0.62053 0.50304,-1.12356 1.12356,-1.12356z" fill="#710000" fill-rule="nonzero" stroke="#710000" stroke-width="2.5" stroke-linecap="butt" stroke-linejoin="miter"/></g></g></svg>