<svg version="1.1" xmlns="http://www.w3.org/2000/svg" xmlns:xlink="http://www.w3.org/1999/xlink" width="168" height="258.16221" viewBox="0,0,168,258.16221"><defs><linearGradient x1="319.92305" y1="175.45919" x2="319.92305" y2="307.45913" gradientUnits="userSpaceOnUse" id="color-1"><stop offset="0" stop-color="#4c7b64"/><stop offset="1" stop-color="#2b2b2b"/></linearGradient><linearGradient x1="320.08155" y1="221.49564" x2="320.08155" y2="308.14565" gradientUnits="userSpaceOnUse" id="color-2"><stop offset="0" stop-color="#6b6dd3"/><stop offset="1" stop-color="#000000"/></linearGradient><linearGradient x1="355.96012" y1="194.55739" x2="355.96012" y2="302.11987" gradientUnits="userSpaceOnUse" id="color-3"><stop offset="0" stop-color="#4b7b64"/><stop offset="1" stop-color="#000000"/></linearGradient><linearGradient x1="284.13221" y1="194.46851" x2="284.13221" y2="302.02621" gradientUnits="userSpaceOnUse" id="color-4"><stop offset="0" stop-color="#4b7b64"/><stop offset="1" stop-color="#000000"/></linearGradient><linearGradient x1="320.00014" y1="76.99005" x2="320.00014" y2="197.10367" gradientUnits="userSpaceOnUse" id="color-5"><stop offset="0" stop-color="#000000"/><stop offset="1" stop-color="#ffdac9"/></linearGradient><linearGradient x1="319.92305" y1="136.84609" x2="319.92305" y2="196.25755" gradientUnits="userSpaceOnUse" id="color-6"><stop offset="0" stop-color="#000000"/><stop offset="1" stop-color="#7e647b"/></linearGradient><linearGradient x1="302.99388" y1="113.75418" x2="302.99388" y2="160.71545" gradientUnits="userSpaceOnUse" id="color-7"><stop offset="0" stop-color="#1a1a1a"/><stop offset="1" stop-color="#ffffff"/></linearGradient><linearGradient x1="336.75243" y1="113.75414" x2="336.75243" y2="160.71536" gradientUnits="userSpaceOnUse" id="color-8"><stop offset="0" stop-color="#1a1a1a"/><stop offset="1" stop-color="#ffffff"/></linearGradient><linearGradient x1="319.46461" y1="50.98963" x2="319.46461" y2="110.33915" gradientUnits="userSpaceOnUse" id="color-9"><stop offset="0" stop-color="#4c7b64"/><stop offset="1" stop-color="#000000"/></linearGradient><linearGradient x1="319.45887" y1="55.3163" x2="319.45887" y2="88.41538" gradientUnits="userSpaceOnUse" id="color-10"><stop offset="0" stop-color="#daffed"/><stop offset="1" stop-color="#161a18"/></linearGradient><linearGradient x1="320.08099" y1="60.32456" x2="320.08099" y2="80.96068" gradientUnits="userSpaceOnUse" id="color-11"><stop offset="0" stop-color="#49705e"/><stop offset="1" stop-color="#13160e"/></linearGradient><linearGradient x1="319.47355" y1="146.06582" x2="319.47355" y2="181.77496" gradientUnits="userSpaceOnUse" id="color-12"><stop offset="0" stop-color="#000000"/><stop offset="1" stop-color="#ffdac9"/></linearGradient></defs><g transform="translate(-236.25,-50.48963)"><g data-paper-data="{&quot;isPaintingLayer&quot;:true}" stroke-linecap="butt" stroke-linejoin="miter" stroke-miterlimit="10" stroke-dasharray="" stroke-dashoffset="0" style="mix-blend-mode: normal"><path d="M286.67305,307.45913l15.14285,-131.8421l37.78325,-0.15789l13.57389,132z" fill="url(#color-1)" fill-rule="nonzero" stroke="#000000" stroke-width="2"/><path d="M299.53999,204.07183l3.12142,-26.32765l35.83075,-0.14203l2.76735,26.1059c0,0 -7.51543,4.19603 -21.55904,4.50964c-12.48458,0.27879 -20.16049,-4.14586 -20.16049,-4.14586z" fill="#2f4b3d" fill-rule="nonzero" stroke="#000000" stroke-width="0"/><path d="M286.20349,307.39565l9.625,-85.15c0,0 16.14032,5.36651 24.41538,5.23987c8.05433,-0.12327 24.59071,-5.98987 24.59071,-5.98987l9.125,86.65z" fill="url(#color-2)" fill-rule="nonzero" stroke="#000000" stroke-width="1"/><path d="M330.77702,225.84333l-2.72223,-31.57302l7.33053,-1.11111l3.5,30.46191c0,0 1.97994,9.94622 -2.77415,10.47275c-4.71963,0.52271 -5.33415,-8.25053 -5.33415,-8.25053z" data-paper-data="{&quot;index&quot;:null}" fill="#6b6dd3" fill-rule="nonzero" stroke="#000000" stroke-width="1"/><path d="M301.66589,224.12113l3.5,-30.4619l8.21942,0.55556l-2.61111,32.12857c0,0 -1.38805,9.70344 -6.18894,8.77837c-5.22617,-1.00701 -2.91937,-11.0006 -2.91937,-11.0006z" fill="#6b6dd3" fill-rule="nonzero" stroke="#000000" stroke-width="1"/><path d="M338.78521,228.05327c0,1.99603 -1.54283,3.61412 -3.44602,3.61412c-1.90319,0 -3.44603,-1.6181 -3.44603,-3.61412c0,-1.99603 1.54284,-3.61412 3.44603,-3.61412c1.90319,0 3.44602,1.61809 3.44602,3.61412z" fill="#c6a438" fill-rule="nonzero" stroke="none" stroke-width="0"/><path d="M309.37397,228.76995c0,1.99603 -1.54283,3.61412 -3.44602,3.61412c-1.90319,0 -3.44603,-1.6181 -3.44603,-3.61412c0,-1.99603 1.54284,-3.61412 3.44603,-3.61412c1.90319,0 3.44602,1.61809 3.44602,3.61412z" fill="#c6a438" fill-rule="nonzero" stroke="none" stroke-width="0"/><path d="M308.84899,229.41994c0,1.99602 -1.54284,3.61412 -3.44602,3.61412c-1.90319,0 -3.44602,-1.6181 -3.44602,-3.61412c0,-1.99602 1.54284,-3.61412 3.44602,-3.61412c1.90319,0 3.44602,1.6181 3.44602,3.61412z" fill="#edd459" fill-rule="nonzero" stroke="none" stroke-width="0"/><path d="M338.53662,228.70119c0,1.87521 -1.44945,3.39537 -3.23744,3.39537c-1.78799,0 -3.23745,-1.52016 -3.23745,-3.39537c0,-1.87521 1.44946,-3.39537 3.23745,-3.39537c1.78799,0 3.23744,1.52016 3.23744,3.39537z" fill="#edd459" fill-rule="nonzero" stroke="none" stroke-width="0"/><path d="M341.61097,194.55739c0.90641,1.442 13.27591,-0.94411 14.53458,0.88889c0.31862,-0.594 9.30076,33.378 9.72787,35c-0.5926,-0.963 19.86551,-5.61934 20.27339,-6.08334c-0.88787,-0.49 -6.93842,17.67633 -7.88122,17.83333c0.29237,-8.60634 -15.75245,6.67683 -25.17337,5.02581c-7.68298,-1.34645 -8.6161,-19.64914 -11.93903,-24.60914c2.25366,-15.345 -5.00951,-26.28055 0.45778,-28.05555z" fill="url(#color-3)" fill-rule="evenodd" stroke="none" stroke-width="1"/><path d="M341.52131,194.59509c0.91572,1.34757 13.41232,-0.88229 14.68393,0.83068c0.10385,-0.17908 1.11865,3.00386 2.46032,7.4491c-6.17155,-0.51975 -13.01437,-2.82677 -18.35267,1.21834c-0.00693,0.00525 -0.01384,0.01053 -0.02073,0.01584c-0.98219,-5.21007 -1.76061,-8.6161 1.22914,-9.51396z" fill="#2f4b3d" fill-rule="nonzero" stroke="none" stroke-width="1"/><path d="M387.45587,301.10947c0.01927,0.00566 0.03664,0.01141 0.05206,0.01725c-0.01724,0.01347 -0.0346,0.00734 -0.05206,-0.01725z" fill="#2f4b3d" fill-rule="nonzero" stroke="none" stroke-width="1"/><path d="M298.93917,222.52407c-2.70861,4.04303 -5.92873,15.86262 -11.74892,18.57967c-2.51235,1.17284 -5.22982,1.76698 -7.8887,2.15165c-8.00419,1.15799 -20.22734,-4.58231 -19.97479,2.85201c-0.9428,-0.157 -5.74335,-20.57333 -6.63122,-20.08333c0.40788,0.464 22.11599,3.37034 21.52339,4.33334c0.42711,-1.622 9.40925,-35.594 9.72787,-35c1.25867,-1.833 13.62817,0.55311 14.53458,-0.88889c5.46729,1.775 -1.79588,12.71055 0.45778,28.05555z" data-paper-data="{&quot;index&quot;:null}" fill="url(#color-4)" fill-rule="evenodd" stroke="none" stroke-width="1"/><path d="M298.57106,194.5062c2.98975,0.89786 2.21133,4.30389 1.22914,9.51396c-0.00689,-0.00531 -0.0138,-0.01059 -0.02073,-0.01584c-5.3383,-4.04511 -12.18112,-1.73809 -18.35267,-1.21834c1.34167,-4.44524 2.35647,-7.62818 2.46032,-7.4491c1.27161,-1.71297 13.76821,0.51689 14.68393,-0.83068z" data-paper-data="{&quot;index&quot;:null}" fill="#2f4b3d" fill-rule="nonzero" stroke="none" stroke-width="1"/><g><path d="M261.69795,104.84055c0.37225,-1.95627 0.79829,-15.31507 14.96087,-28.03661c7.64679,-6.86874 16.3225,-16.66898 37.90299,-17.32053c32.05868,-0.51111 43.95019,11.08935 52.16133,19.80672c11.26206,11.95638 11.89977,22.71882 14.37822,27.96833c0.25164,0.53297 -119.41455,-2.35933 -119.40341,-2.4179z" fill="#a8530c" fill-rule="nonzero" stroke="none" stroke-width="1.5"/><path d="M255.76313,136.80526c0,-21.15086 11.60129,-39.75822 29.15655,-50.52104c1.08536,-1.75458 19.78544,-9.18722 33.30904,-9.29157c13.5236,-0.10435 26.06266,2.90177 35.96422,8.75705c18.0508,10.67434 30.04423,29.55022 30.04423,51.05556c0,33.30185 -28.7599,60.29833 -64.23702,60.29833c-35.47712,0 -64.23702,-26.99649 -64.23702,-60.29833z" fill="url(#color-5)" fill-rule="nonzero" stroke="#000000" stroke-width="2"/><path d="M256.486,136.85916c0,-0.72799 5.20666,55.91939 63.36046,56.93429c55.56352,0.9697 63.51358,-57.95314 63.51358,-56.93429c0,32.80479 -28.40173,59.39833 -63.43702,59.39833c-35.03529,0 -63.43702,-26.59354 -63.43702,-59.39833z" fill="url(#color-6)" fill-rule="nonzero" stroke="#000000" stroke-width="0"/><path d="M259.42026,148.51371c0,0 -3.17497,-7.83911 -3.17497,-11.77764c0,-6.02949 9.41909,-42.46903 9.41909,-42.46903h9.52492c0,0 -3.70913,8.16542 -4.33994,12.81431c-0.56023,4.12878 0.74163,13.70427 0.74163,13.70427l-2.07085,2.75646l-3.0049,-1.80454z" fill="#3a2f2b" fill-rule="nonzero" stroke="#000000" stroke-width="0"/><path d="M289.71317,137.23479c0,-12.968 5.94595,-23.48065 13.28065,-23.48065c7.3347,0 13.28065,10.51265 13.28065,23.48065c0,12.968 -5.94595,23.48065 -13.28065,23.48065c-7.3347,0 -13.28065,-10.51265 -13.28065,-23.48065z" fill="url(#color-7)" fill-rule="nonzero" stroke="#000000" stroke-width="2"/><path d="M258.52306,144.00198c0,0 -3,-7.4071 -3,-11.12857c0,-5.6972 8.9,-40.12857 8.9,-40.12857h9c0,0 -3.50472,7.71542 -4.10076,12.10811c-0.52936,3.90124 0.70076,12.94903 0.70076,12.94903l-1.95673,2.60455l-2.8393,-1.70509z" fill="#766058" fill-rule="nonzero" stroke="#000000" stroke-width="1.5"/><path d="M336.75243,160.71536c-7.27947,0 -13.18065,-10.51265 -13.18065,-23.48065c0,-12.968 5.90118,-23.48065 13.18065,-23.48065c7.27947,0 13.18065,10.51265 13.18065,23.48065c0,12.968 -5.90118,23.48065 -13.18065,23.48065z" data-paper-data="{&quot;index&quot;:null}" fill="url(#color-8)" fill-rule="nonzero" stroke="#000000" stroke-width="2"/><path d="M279.70187,109.81344c0,0 11.49953,-4.26418 16.5281,-2.83931c5.02858,1.42488 11.69518,5.97183 11.69518,5.97183c0,0 -8.24902,-3.32832 -12.13243,-4.4287c-4.05831,-1.14994 -16.09085,1.29618 -16.09085,1.29618z" fill="#000000" fill-rule="nonzero" stroke="none" stroke-width="0"/><path d="M343.17753,108.87055c-3.85442,1.19798 -10.7515,5.32659 -10.7515,5.32659c0,0 5.28441,-5.30693 10.27546,-6.85819c4.99104,-1.55125 13.39479,-0.49871 13.39479,-0.49871c0,0 -8.89074,0.77838 -12.91875,2.03032z" data-paper-data="{&quot;index&quot;:null}" fill="#000000" fill-rule="nonzero" stroke="none" stroke-width="0"/><path d="M372.11944,122.73765l-3.0049,1.80454l-2.07085,-2.75646c0,0 1.30186,-9.57549 0.74163,-13.70427c-0.63081,-4.64889 -4.33994,-12.81431 -4.33994,-12.81431h9.52492c0,0 9.41909,36.43954 9.41909,42.46903c0,3.93853 -3.17497,11.77764 -3.17497,11.77764z" data-paper-data="{&quot;index&quot;:null}" fill="#3a2f2b" fill-rule="nonzero" stroke="#000000" stroke-width="0"/><path d="M373.71917,121.03488l-2.8393,1.70509l-1.95673,-2.60455c0,0 1.23012,-9.04779 0.70076,-12.94903c-0.59604,-4.39269 -4.10076,-12.10811 -4.10076,-12.10811h9c0,0 8.9,34.43137 8.9,40.12857c0,3.72147 -3,11.12857 -3,11.12857z" data-paper-data="{&quot;index&quot;:null}" fill="#766058" fill-rule="nonzero" stroke="#000000" stroke-width="1.5"/><path d="M258.29805,92.23963c16.52144,-23.64275 37.27087,-41.25 60.25,-41.25c22.93746,0 43.93743,11.90491 59.75,35.25c2.19899,3.24651 5.88227,22.83784 3.89123,23.94724c-2.97694,1.65874 -55.28548,-10.78057 -63.39123,-10.78057c-8.43856,0 -57.31213,11.19019 -60.9229,10.52524c-2.6,-0.4788 -2.04397,-14.16171 0.42291,-17.69191z" fill="url(#color-9)" fill-rule="nonzero" stroke="#000000" stroke-width="1"/><path d="M337.87557,71.86581c0,9.14006 -8.24543,16.54954 -18.41667,16.54954c-10.17124,0 -18.41667,-7.40948 -18.41667,-16.54954c0,-9.14006 8.24543,-16.54954 18.41667,-16.54954c10.17124,0 18.41667,7.40948 18.41667,16.54954z" fill="url(#color-10)" fill-rule="nonzero" stroke="none" stroke-width="0"/><path d="M270.57187,107.23896l2.83334,-8.78572c0,0 8.38245,-3.22377 9.03638,-3.40847c4.87995,-1.37836 25.70344,-8.21057 37.13028,-8.21057c11.03631,0 32.30917,6.51103 38.01657,8.0849c0.95074,0.26217 7.62628,4.74844 7.62628,4.74844l1.82143,8.83333c0,0 -8.71824,-2.99878 -9.5178,-2.99654c-1.88852,0.0053 -5.82465,-0.9574 -10.94539,-2.09485c-7.41256,-1.64651 -17.47406,3.50751 -27.23352,3.53491c-9.94581,0.02792 -19.58437,-5.30103 -26.47853,-3.80424c-4.75314,1.03195 -8.12256,1.90186 -9.20032,1.90488c-0.72784,0.00204 -13.08872,2.19393 -13.08872,2.19393z" fill="#141d18" fill-rule="nonzero" stroke="#000000" stroke-width="0"/><path d="M329.40612,80.96068l-18.24951,-0.72108l-0.40074,-19.91504l5.4799,0.05106l-0.23111,13.48928l13.12073,0.23107z" data-paper-data="{&quot;index&quot;:null}" fill="url(#color-11)" fill-rule="evenodd" stroke="none" stroke-width="1"/><path d="M321.58806,168.62073c0,0 -25.15395,22.08602 -40.05509,15.24439c-14.90114,-6.84162 -14.22695,-40.16713 -14.22695,-40.16713c0,0 14.33284,15.22937 23.38537,19.38569c9.04147,4.15125 30.89668,5.53705 30.89668,5.53705z" fill="#000000" fill-rule="nonzero" stroke="none" stroke-width="0"/><path d="M350.09954,162.9966c8.93403,-4.10191 23.07925,-19.13193 23.07925,-19.13193c0,0 0.66537,32.88928 -14.04072,39.64135c-14.70608,6.75207 -39.53078,-15.04484 -39.53078,-15.04484c0,0 21.56913,-1.36767 30.49224,-5.46458z" data-paper-data="{&quot;index&quot;:null}" fill="#000000" fill-rule="nonzero" stroke="none" stroke-width="0"/><path d="M306.08961,172.46586c-3.03893,-9.31228 9.44444,-26.4 9.44444,-26.4c0,0 2.91771,0.38215 4.39081,0.43071c1.55573,0.05129 4.48697,-0.35293 4.48697,-0.35293c0,0 10.6936,19.54451 8.66667,26.1c-4.78824,15.48611 -23.94996,9.5345 -26.98889,0.22222z" fill="url(#color-12)" fill-rule="nonzero" stroke="#000000" stroke-width="2"/><g stroke="none" stroke-width="1"><path d="M327.79616,151.12259c1.52338,-0.83587 3.18137,-1.20669 4.97595,-1.11349c-0.74533,0.78516 -1.7337,1.30778 -2.9651,1.56786c0.03756,0.03471 0.0751,0.0692 0.11263,0.10348c-0.42771,0.09392 -0.84493,0.21511 -1.24981,0.36165c-0.29017,-0.29495 -0.5814,-0.60144 -0.87367,-0.91949z" fill="#2f2d2e" fill-rule="nonzero"/><path d="M335.22533,125.94709c-0.66683,0.01517 -0.99216,0.35597 -0.97699,1.02249c-1.35246,-1.4114 -3.03319,-2.04003 -5.0442,-1.88574c-0.35566,-0.99216 -1.03766,-1.64352 -2.04498,-1.95398c0.10231,-0.13988 0.20532,-0.27743 0.30903,-0.41266c0.94609,0.27093 1.94853,0.40567 2.98416,0.3821c0.22853,-0.0052 0.45511,-0.01804 0.67948,-0.03824c1.63049,0.56687 2.99498,1.5289 4.0935,2.88603z" fill="#7c82e2" fill-rule="nonzero"/><path d="M329.20421,125.08384c2.01101,-0.15429 3.69174,0.47434 5.0442,1.88574c1.91692,3.05148 2.49262,6.37264 1.7271,9.96329c-1.34428,-4.39275 -4.22962,-6.66101 -8.65704,-6.80482c-0.42991,-2.18878 0.19901,-3.87013 1.88574,-5.0442z" fill="#4c4ebf" fill-rule="evenodd"/><path d="M327.15918,123.12986c1.00732,0.31046 1.68932,0.96182 2.04498,1.95398c-1.68673,1.17408 -2.31564,2.85542 -1.88574,5.0442c4.42742,0.14381 7.31276,2.41207 8.65704,6.80482c0.76551,-3.59064 0.18981,-6.91181 -1.7271,-9.96329c-0.01517,-0.66652 0.31017,-1.00732 0.97699,-1.02249c2.9023,4.55165 3.84983,9.53138 2.84059,14.93924c-0.2331,3.99834 -1.99738,7.03926 -5.29384,9.12279c-1.79458,-0.0932 -3.45258,0.27762 -4.97595,1.11349c-5.49643,-9.27536 -5.70876,-18.60665 -0.63698,-27.99276z" fill="#0e0e12" fill-rule="evenodd"/><path d="M328.91677,134.68984c3.65664,-0.23325 4.6905,1.24362 3.10159,4.43059c-1.28152,0.51929 -2.61138,0.71659 -3.98759,0.59087c-0.17473,-1.78849 0.12028,-3.46163 0.886,-5.02146z" fill="#fbf9f9" fill-rule="evenodd"/></g><g data-paper-data="{&quot;index&quot;:null}" stroke="none" stroke-width="1"><path d="M310.74816,152.3494c-0.40442,-0.1478 -0.82126,-0.27029 -1.24867,-0.36554c0.03764,-0.03416 0.07527,-0.06853 0.11294,-0.10312c-1.23059,-0.26392 -2.21731,-0.78962 -2.96019,-1.5771c1.79487,-0.0876 3.4517,0.28839 4.97246,1.129c-0.29326,0.31714 -0.58544,0.62272 -0.87653,0.91676z" fill="#2f2d2e" fill-rule="nonzero"/><path d="M304.27405,126.23411c1.10275,-1.3537 2.47024,-2.31147 4.10249,-2.87324c0.22431,0.0209 0.45084,0.03444 0.67935,0.04036c1.03555,0.0268 2.33253,-0.22247 3.27946,-0.49045c0.10329,0.13556 0.32352,0.62637 0.42539,0.76657c-1.00829,0.30732 -2.10407,0.72125 -2.46283,1.7123c-2.01052,-0.16056 -3.69321,0.46282 -5.05006,1.86999c0.01725,-0.66648 -0.30703,-1.00827 -0.9738,-1.02553z" fill="#7c82e2" fill-rule="nonzero"/><path d="M312.16787,130.43966c-4.42784,0.13001 -7.32025,2.38925 -8.67822,6.77779c-0.75432,-3.59302 -0.16825,-6.91237 1.75817,-9.95785c1.35685,-1.40717 3.03954,-2.03055 5.05006,-1.86999c1.68306,1.17933 2.30672,2.86263 1.86999,5.05006z" fill="#4c4ebf" fill-rule="evenodd"/><path d="M311.62469,151.43266c-1.52076,-0.84062 -3.17759,-1.21661 -4.97246,-1.129c-3.28994,-2.0938 -5.04472,-5.14021 -5.26535,-9.13926c-0.99237,-5.41098 -0.02931,-10.38773 2.88717,-14.93031c0.66677,0.01726 0.99105,0.35905 0.9738,1.02553c-1.92642,3.04549 -2.51249,6.36484 -1.75817,9.95785c1.35798,-4.38854 4.25038,-6.64778 8.67822,-6.77779c0.43673,-2.18743 -0.18694,-3.87073 -1.86999,-5.05006c0.35876,-0.99105 1.34278,-1.64028 2.35107,-1.9476c5.04248,9.40188 4.50105,18.73246 -1.02428,27.99063z" fill="#0e0e12" fill-rule="evenodd"/><path d="M311.42573,140.02069c-1.3766,0.12143 -2.70583,-0.08002 -3.98573,-0.60331c-1.57896,-3.19191 -0.5405,-4.66554 3.1154,-4.42089c0.76085,1.56221 1.05063,3.23626 0.87033,5.02419z" fill="#fbf9f9" fill-rule="evenodd"/></g><path d="M315.96137,147.1807l1.26667,-4.92821l5.46667,0.2l1.12308,4.84103c0,0 -2.83871,0.7961 -4.25828,0.75031c-1.33016,-0.04291 -3.59813,-0.86313 -3.59813,-0.86313z" fill="#907b72" fill-rule="nonzero" stroke="#000000" stroke-width="0"/></g><g fill-rule="evenodd" stroke="none" stroke-width="1"><path d="M362.25,179.26001c1.21324,0 2.42676,0 3.64,0c1.64696,0.85178 3.0002,2.06512 4.06,3.64c1.9194,3.75665 3.41264,7.67665 4.48,11.76c1.14576,2.99326 2.68576,5.74658 4.62,8.26c2.26016,0.04289 4.50016,-0.19045 6.72,-0.7c4.26076,0.57386 6.54724,3.00054 6.86,7.28c1.92752,0.87052 3.60752,2.08376 5.04,3.64c0.86044,1.88188 0.9072,3.79512 0.14,5.74c0.16184,0.50708 0.30184,1.0206 0.42,1.54c1.30676,1.12 2.61324,2.24 3.92,3.36c0.868,1.32972 0.91476,2.68324 0.14,4.06c0.76748,0.93548 1.42072,1.91548 1.96,2.94c0,0.09324 0,0.18676 0,0.28c-0.65912,1.13232 -0.65912,2.25232 0,3.36c0,1.02676 0,2.05324 0,3.08c-1.55008,3.13152 -3.79008,5.69828 -6.72,7.7c-4.04572,2.86328 -8.43248,4.96328 -13.16,6.3c-1.58676,0 -3.17324,0 -4.76,0c-1.35268,-0.65632 -2.61268,-1.49632 -3.78,-2.52c-0.7672,-1.19784 -1.28044,-2.50432 -1.54,-3.92c-1.91212,-0.83916 -3.31212,-2.1924 -4.2,-4.06c-2.65944,-0.88312 -4.75944,-2.51636 -6.3,-4.9c-1.5638,-2.1714 -2.4038,-4.59816 -2.52,-7.28c-3.60752,-4.71828 -4.16752,-9.75828 -1.68,-15.12c0.94332,-0.97412 1.9698,-1.62764 3.08,-1.96c0.51772,-0.70952 0.9842,-1.456 1.4,-2.24c0.43204,-0.52584 0.94528,-0.94584 1.54,-1.26c-1.88412,-2.16384 -4.03088,-4.03049 -6.44,-5.6c-0.98,-0.98 -1.96,-1.96 -2.94,-2.94c-2.47828,-6.07782 -1.91828,-11.86447 1.68,-17.36c1.15556,-1.48344 2.60232,-2.5101 4.34,-3.08z" fill="#040404" opacity="0.971"/><path d="M260.05,251.50001c-1.02668,0 -2.05332,0 -3.08,0c-6.89251,-1.8844 -12.91251,-5.33764 -18.06,-10.36c-0.89355,-1.41792 -1.78022,-2.81792 -2.66,-4.2c0,-1.02676 0,-2.05324 0,-3.08c0.39133,-0.35756 0.578,-0.82404 0.56,-1.4c-0.62256,-1.94404 -0.20256,-3.62404 1.26,-5.04c0.15483,-0.80052 0.10817,-1.59376 -0.14,-2.38c0.08289,-0.52864 0.22289,-1.04216 0.42,-1.54c1.49332,-1.30676 2.98668,-2.61324 4.48,-3.92c0.13065,-1.449 0.08397,-2.89576 -0.14,-4.34c0.00565,-1.78416 0.75233,-3.18416 2.24,-4.2c1.17989,-0.56672 2.34657,-1.17348 3.5,-1.82c0.3171,-4.28375 2.60377,-6.7104 6.86,-7.28c2.32705,0.46653 4.66038,0.79318 7,0.98c2.04543,-2.82842 3.77216,-5.86174 5.18,-9.1c1.1116,-3.80794 2.60484,-7.44794 4.48,-10.92c2.0762,-3.15 4.92268,-4.13001 8.54,-2.94c1.05784,0.59135 2.03784,1.29135 2.94,2.1c3.87184,5.6131 4.52508,11.58646 1.96,17.92c-2.76052,2.61492 -5.70052,4.99492 -8.82,7.14c-0.24528,0.44408 -0.52528,0.86408 -0.84,1.26c0.791,0.8386 1.53776,1.72536 2.24,2.66c-0.1974,0.43596 -0.01092,0.76244 0.56,0.98c3.11696,1.40224 4.6102,3.969 4.48,7.7c-0.06188,3.54676 -1.22864,6.67324 -3.5,9.38c-0.51128,4.42904 -2.51776,8.02256 -6.02,10.78c-0.99344,0.54348 -2.01992,1.00996 -3.08,1.4c-1.07492,1.93368 -2.66168,3.19368 -4.76,3.78c0.0574,2.26548 -0.87612,3.99224 -2.8,5.18c-0.95009,0.4536 -1.88342,0.8736 -2.8,1.26z" fill="#040404" opacity="0.971"/><path d="M363.93,200.54001c-0.18676,0.56 -0.37324,1.12 -0.56,1.68c-5.27184,-3.44744 -6.90536,-8.20745 -4.9,-14.28c0.8218,-2.07091 2.0818,-3.79758 3.78,-5.18c2.0454,-0.62381 3.67864,-0.01713 4.9,1.82c0.46676,0.84 0.93324,1.68 1.4,2.52c1.02788,3.31674 2.19436,6.58342 3.5,9.8c-1.11552,-0.12871 -2.23552,0.01128 -3.36,0.42c-1.62988,1.02572 -3.21664,2.09905 -4.76,3.22z" fill="#fbfbfb"/><path d="M277.13,182.62001c1.83876,-0.03721 3.28524,0.70947 4.34,2.24c2.61128,4.1463 3.07804,8.53297 1.4,13.16c-1.5358,1.93385 -3.30904,3.61385 -5.32,5.04c0.11816,-0.72735 0.11816,-1.47403 0,-2.24c-1.75056,-1.28576 -3.57056,-2.45241 -5.46,-3.5c-0.98056,-0.07896 -1.9138,-0.12563 -2.8,-0.14c1.55148,-3.95405 3.18472,-7.87405 4.9,-11.76c0.76664,-1.18734 1.74664,-2.12066 2.94,-2.8z" fill="#fbfbfb"/><path d="M372.61,198.58001c1.10152,1.96627 2.31476,3.87959 3.64,5.74c-2.82856,0.8962 -5.62856,1.87619 -8.4,2.94c-0.85596,-1.55733 -1.97596,-2.91065 -3.36,-4.06c2.408,-1.34339 4.928,-2.46338 7.56,-3.36c0.21476,-0.41174 0.40124,-0.83174 0.56,-1.26z" fill="#fafafa"/><path d="M268.45,198.58001c0.4956,0.37965 0.86884,0.89297 1.12,1.54c2.55444,0.88242 4.9812,2.00242 7.28,3.36c-1.38628,1.15116 -2.50628,2.50449 -3.36,4.06c-2.72552,-1.11062 -5.47876,-2.13727 -8.26,-3.08c1.19952,-1.83489 2.27276,-3.79489 3.22,-5.88z" fill="#f8f8f8"/><path d="M363.93,200.54001c0.08624,0.67872 -0.00728,1.33205 -0.28,1.96c-0.16996,-0.03461 -0.2632,-0.12793 -0.28,-0.28c0.18676,-0.56 0.37324,-1.12 0.56,-1.68z" fill="#6d6d6d"/><path d="M275.45,224.34001c-0.8708,0.16464 -1.7108,0.3514 -2.52,0.56c-1.26364,1.21856 -2.38364,2.5718 -3.36,4.06c-1.41204,0.03304 -1.92556,0.73304 -1.54,2.1c2.14312,1.02536 3.91636,0.5586 5.32,-1.4c0.85232,-1.38936 1.45908,-2.88288 1.82,-4.48c0.18676,0 0.37324,0 0.56,0c1.52292,4.35064 0.49616,8.0374 -3.08,11.06c-0.48076,0.43652 -1.04076,0.66976 -1.68,0.7c0.01204,-0.9548 -0.12796,-1.88804 -0.42,-2.8c-0.4284,-0.79884 -1.03516,-0.9856 -1.82,-0.56c-0.7266,-2.23468 -1.94012,-4.14792 -3.64,-5.74c-2.34859,-1.36108 -4.77526,-2.57432 -7.28,-3.64c-1.41095,-0.98728 -2.71763,-2.10728 -3.92,-3.36c-1.99758,-1.0738 -2.7909,-0.46704 -2.38,1.82c0.0334,1.23368 0.54676,2.21368 1.54,2.94c3.91026,1.8648 7.83025,3.73128 11.76,5.6c0.74676,0.56 1.49324,1.12 2.24,1.68c-0.40068,0.1302 -0.72716,0.36372 -0.98,0.7c-0.56,1.30676 -1.12,2.61324 -1.68,3.92c-1.02211,0.72828 -1.25543,1.6618 -0.7,2.8c1.28772,-0.1848 2.50096,-0.51156 3.64,-0.98c-0.79492,1.14576 -1.82168,2.03252 -3.08,2.66c-1.13369,-0.33964 -1.97369,-1.03964 -2.52,-2.1c-0.70263,-0.39788 -1.35599,-0.86464 -1.96,-1.4c-2.00261,-0.86156 -3.96261,-1.7948 -5.88,-2.8c-0.88667,-1.07324 -1.77332,-2.14676 -2.66,-3.22c-1.41868,-1.64836 -2.39867,-1.46188 -2.94,0.56c0.23366,2.38336 1.35366,4.20336 3.36,5.46c3.32548,1.52852 6.68548,2.975 10.08,4.34c1.46656,3.38856 0.34655,5.06856 -3.36,5.04c-1.35483,0.03472 -2.66149,-0.1988 -3.92,-0.7c0.74668,-0.56 1.49332,-1.12 2.24,-1.68c-6.3716,-0.00728 -11.92492,-2.10728 -16.66,-6.3c-0.09332,-0.93324 -0.18668,-1.86676 -0.28,-2.8c-1.08358,-1.66992 -1.27025,-3.44316 -0.56,-5.32c0.75768,-0.66388 1.41103,-1.41036 1.96,-2.24c0.09332,-1.49324 0.18668,-2.98676 0.28,-4.48c1.76131,-1.10768 3.25463,-2.50768 4.48,-4.2c0.26824,-0.721 0.40824,-1.46748 0.42,-2.24c-0.23324,-1.39692 -0.27989,-2.79692 -0.14,-4.2c1.47837,-0.80528 3.01837,-1.50528 4.62,-2.1c0.32667,-0.32676 0.65332,-0.65324 0.98,-0.98c0.32497,-1.37648 0.51162,-2.77648 0.56,-4.2c0.44221,-0.43153 0.95556,-0.75818 1.54,-0.98c6.80588,0.53494 13.3392,2.21508 19.6,5.04c1.12252,1.45012 2.52252,2.57012 4.2,3.36c-0.44856,0.5418 -0.77532,1.14828 -0.98,1.82c0.00924,2.02664 -0.64428,3.80016 -1.96,5.32c-3.49552,-2.56564 -7.27552,-4.66564 -11.34,-6.3c-1.68,-1.12 -3.36,-2.24 -5.04,-3.36c-1.6345,-0.4144 -2.42782,0.19236 -2.38,1.82c0.33538,1.18888 1.03538,2.07564 2.1,2.66c3.46374,2.05856 7.1036,3.73856 10.92,5.04c2.25344,1.03236 4.4002,2.19884 6.44,3.5z" fill="#fbfbfb"/><path d="M365.61,224.62001c-0.18788,-0.37716 -0.18788,-0.70392 0,-0.98c3.69068,-1.91464 7.51744,-3.5014 11.48,-4.76c2.44636,-1.15304 4.82636,-2.41304 7.14,-3.78c0.28,-0.56 0.56,-1.12 0.84,-1.68c0.21364,-1.83484 -0.5796,-2.44132 -2.38,-1.82c-4.23332,2.77032 -8.71332,5.10356 -13.44,7c-1.06512,0.6454 -2.0916,1.3454 -3.08,2.1c-1.29388,-1.62456 -1.90064,-3.49132 -1.82,-5.6c-0.23324,-0.46676 -0.46676,-0.93324 -0.7,-1.4c1.59572,-0.89684 2.99572,-2.0636 4.2,-3.5c6.19052,-2.66364 12.63052,-4.15707 19.32,-4.48c0.58436,0.22181 1.09788,0.54846 1.54,0.98c0.04844,1.42352 0.23492,2.82352 0.56,4.2c0.42,0.42 0.84,0.84 1.26,1.26c1.4854,0.64904 2.93216,1.34904 4.34,2.1c0.04788,1.3034 0.00112,2.61016 -0.14,3.92c-0.01344,2.28144 0.92008,4.10144 2.8,5.46c0.63112,0.38556 1.2376,0.80556 1.82,1.26c-0.68684,2.64936 -0.0336,4.88936 1.96,6.72c0.69412,1.8732 0.50736,3.64672 -0.56,5.32c-0.09324,0.93324 -0.18676,1.86676 -0.28,2.8c-1.8508,1.88328 -4.04404,3.2368 -6.58,4.06c-3.22784,1.33616 -6.58784,1.98968 -10.08,1.96c0.60116,0.62636 1.2544,1.18636 1.96,1.68c-1.47756,0.3248 -2.97108,0.55804 -4.48,0.7c-3.10296,-0.50792 -4.12972,-2.28144 -3.08,-5.32c4.30948,-1.26476 8.41596,-2.99152 12.32,-5.18c1.34764,-1.61392 1.8144,-3.43392 1.4,-5.46c-0.53788,-0.31948 -1.09788,-0.36624 -1.68,-0.14c-1.14828,1.35996 -2.36152,2.66672 -3.64,3.92c-2.04372,0.93128 -4.09696,1.86452 -6.16,2.8c-1.12504,0.84588 -2.15152,1.77912 -3.08,2.8c-0.38416,0.11256 -0.7574,0.25256 -1.12,0.42c-1.52936,-0.58184 -2.50936,-1.60832 -2.94,-3.08c0.99008,0.89124 2.15684,1.358 3.5,1.4c0.55552,-1.1382 0.322,-2.07172 -0.7,-2.8c-0.38892,-1.24432 -0.85568,-2.45756 -1.4,-3.64c-0.33992,-0.43372 -0.75992,-0.7602 -1.26,-0.98c1.23144,-0.95032 2.5382,-1.79032 3.92,-2.52c3.5322,-1.33224 6.98544,-2.82548 10.36,-4.48c1.3972,-1.33868 1.91044,-2.97192 1.54,-4.9c-0.57344,-0.64036 -1.1802,-0.68712 -1.82,-0.14c-1.31908,1.2264 -2.71908,2.3464 -4.2,3.36c-2.56284,1.14156 -5.08284,2.3548 -7.56,3.64c-1.7164,1.61252 -2.9764,3.52576 -3.78,5.74c-0.4774,-0.35364 -0.94416,-0.44716 -1.4,-0.28c-0.61544,1.14632 -1.03544,2.35956 -1.26,3.64c-3.50896,-2.4444 -5.1422,-5.8044 -4.9,-10.08c0.34636,-0.82544 0.76636,-1.5722 1.26,-2.24z" fill="#fbfbfb"/><path d="M361.41,215.94001c0.18564,1.12504 0.5124,2.24504 0.98,3.36c1.00156,0.80444 2.07508,1.50444 3.22,2.1c-0.89012,1.28548 -1.91688,2.45224 -3.08,3.5c-1.34568,-2.8532 -1.71892,-5.83996 -1.12,-8.96z" fill="#f1f1f1"/><path d="M279.37,216.22001c0.80836,3.15392 0.4816,6.23392 -0.98,9.24c-0.91644,-1.27904 -1.89644,-2.49256 -2.94,-3.64c1.08724,-0.70868 2.16076,-1.45516 3.22,-2.24c0.55692,-1.05084 0.79016,-2.17084 0.7,-3.36z" fill="#f1f1f1"/><path d="M253.61,223.22001c0.31545,0.17416 0.59545,0.4074 0.84,0.7c-0.55703,0.14532 -0.83703,-0.08792 -0.84,-0.7z" fill="#b0b0b0"/><path d="M386.89,223.50001c0.20692,-0.03668 0.39368,0.01008 0.56,0.14c-0.35448,0.55524 -0.82096,0.83524 -1.4,0.84c0.3388,-0.29092 0.6188,-0.61768 0.84,-0.98z" fill="#9f9f9f"/><path d="M275.45,224.34001c0.01596,0.31052 0.1092,0.59052 0.28,0.84c-0.18676,0 -0.37324,0 -0.56,0c-0.68544,-0.27244 -1.4322,-0.36568 -2.24,-0.28c0.8092,-0.2086 1.6492,-0.39536 2.52,-0.56z" fill="#7b7b7b"/><path d="M365.61,224.62001c0.97384,-0.08848 1.90736,0.05152 2.8,0.42c0.95928,1.35744 1.98576,2.6642 3.08,3.92c0.427,0.28252 0.89376,0.42252 1.4,0.42c0,0.56 0,1.12 0,1.68c-3.04192,0.88228 -5.14192,-0.1442 -6.3,-3.08c-0.41356,-1.1004 -0.74032,-2.2204 -0.98,-3.36z" fill="#080808"/><path d="M272.93,224.90001c0.8078,-0.08568 1.55456,0.00756 2.24,0.28c-0.36092,1.59712 -0.96768,3.09064 -1.82,4.48c-1.40364,1.9586 -3.17688,2.42536 -5.32,1.4c-0.38556,-1.36696 0.12796,-2.06696 1.54,-2.1c0.97636,-1.4882 2.09636,-2.84144 3.36,-4.06z" fill="#060606"/><path d="M249.69,246.74001c0.37767,-0.36316 0.75099,-0.3164 1.12,0.14c-0.39998,0.16212 -0.7733,0.11536 -1.12,-0.14z" fill="#8c8c8c"/></g></g></g></svg>