<svg version="1.1" xmlns="http://www.w3.org/2000/svg" xmlns:xlink="http://www.w3.org/1999/xlink" width="157.23483" height="286.36569" viewBox="0,0,157.23483,286.36569"><defs><linearGradient x1="320.00004" y1="175.50001" x2="320.00004" y2="307.50001" gradientUnits="userSpaceOnUse" id="color-1"><stop offset="0" stop-color="#000000"/><stop offset="1" stop-color="#470066"/></linearGradient><linearGradient x1="369.49665" y1="135.1632" x2="398.0648" y2="135.1632" gradientUnits="userSpaceOnUse" id="color-2"><stop offset="0" stop-color="#000000"/><stop offset="1" stop-color="#240033"/></linearGradient><linearGradient x1="240.82998" y1="135.16319" x2="269.39814" y2="135.16319" gradientUnits="userSpaceOnUse" id="color-3"><stop offset="0" stop-color="#240033"/><stop offset="1" stop-color="#000000"/></linearGradient><linearGradient x1="319.77698" y1="81.94783" x2="319.77698" y2="202.54449" gradientUnits="userSpaceOnUse" id="color-4"><stop offset="0" stop-color="#12001a"/><stop offset="1" stop-color="#590080"/></linearGradient><linearGradient x1="292.85177" y1="27.24683" x2="292.85177" y2="100.43528" gradientUnits="userSpaceOnUse" id="color-5"><stop offset="0" stop-color="#240033"/><stop offset="1" stop-color="#09000d"/></linearGradient><linearGradient x1="346.51842" y1="27.24684" x2="346.51842" y2="100.4353" gradientUnits="userSpaceOnUse" id="color-6"><stop offset="0" stop-color="#240033"/><stop offset="1" stop-color="#09000d"/></linearGradient></defs><g transform="translate(-240.82997,-27.24683)"><g data-paper-data="{&quot;isPaintingLayer&quot;:true}" fill-rule="nonzero" stroke-width="0" stroke-linecap="butt" stroke-linejoin="miter" stroke-miterlimit="10" stroke-dasharray="" stroke-dashoffset="0" style="mix-blend-mode: normal"><path d="M259.28373,313.61252v-267.22501h123.18203v267.22501z" fill-opacity="0.01" fill="#000000" stroke="none"/><path d="M286.75005,307.5l15.14285,-131.8421l37.78325,-0.15789l13.57389,132z" fill="url(#color-1)" stroke="#000000"/><path d="M383.85839,163.95619c-4.14017,-1.52046 -12.93069,-0.62633 -12.93069,-0.62633l-1.43105,-39l22.18129,-26.33333c0,0 3.95267,3.19116 5.89355,33.33501c1.85954,28.88061 -2.13703,40.99833 -2.13703,40.99833c0,0 -7.55053,-6.89531 -11.57606,-8.37367z" data-paper-data="{&quot;index&quot;:null}" fill="url(#color-2)" stroke="#000000"/><path d="M243.46033,172.32986c0,0 -3.99658,-12.11771 -2.13703,-40.99833c1.94088,-30.14385 5.89354,-33.33501 5.89354,-33.33501l22.18129,26.33333l-1.43105,39c0,0 -8.79053,-0.89413 -12.9307,0.62633c-4.02553,1.47836 -11.57605,8.37367 -11.57605,8.37367z" fill="url(#color-3)" stroke="#000000"/><path d="M283.11416,188.79258l-20,-34.56666c0,0 41.45682,-37.99444 53.80227,-37.99444c12.43173,0 62.73107,30.59444 62.73107,30.59444l-22.2,41.96666c0,0 -23.49548,49.12222 -35.85329,49.12222c-12.41967,0 -38.48005,-49.12222 -38.48005,-49.12222z" fill="#000000" stroke="none"/><g fill="#191919" stroke="none"><g><path d="M348.52368,178.59088c0,0 -0.58522,-6.83333 2.21862,-6.83333c2.80383,0 2.04112,6.83333 2.04112,6.83333z"/><path d="M345.38158,179.25755c0,0 -0.69941,-8.16667 2.65152,-8.16667c3.35092,0 2.43939,8.16667 2.43939,8.16667z"/><path d="M341.06667,179.75755c0,0 -0.78505,-9.16667 2.97619,-9.16667c3.76124,0 2.73809,9.16667 2.73809,9.16667z"/><path d="M335.04185,180.59088c0,0 -0.92778,-10.83333 3.51732,-10.83333c4.4451,0 3.23593,10.83333 3.23593,10.83333z"/><path d="M320.91204,181.75755c0,0 -1.09907,-12.83333 4.16667,-12.83333c5.26574,0 3.83333,12.83333 3.83333,12.83333z"/><path d="M328.23309,181.25755c0,0 -1.04197,-12.16667 3.95022,-12.16667c4.99219,0 3.6342,12.16667 3.6342,12.16667z"/></g><g data-paper-data="{&quot;index&quot;:null}"><path d="M289.4114,178.42421c0,0 -0.76271,-6.83333 2.04112,-6.83333c2.80384,0 2.21862,6.83333 2.21862,6.83333z"/><path d="M291.72233,179.09088c0,0 -0.91153,-8.16667 2.43939,-8.16667c3.35093,0 2.65152,8.16667 2.65152,8.16667z"/><path d="M295.41387,179.59088c0,0 -1.02315,-9.16667 2.73809,-9.16667c3.76124,0 2.97619,9.16667 2.97619,9.16667z"/><path d="M300.39972,180.42421c0,0 -1.20917,-10.83333 3.23593,-10.83333c4.4451,0 3.51732,10.83333 3.51732,10.83333z"/><path d="M313.28278,181.59088c0,0 -1.43241,-12.83333 3.83333,-12.83333c5.26574,0 4.16667,12.83333 4.16667,12.83333z"/><path d="M306.3773,181.09088c0,0 -1.35799,-12.16667 3.6342,-12.16667c4.99219,0 3.95022,12.16667 3.95022,12.16667z"/></g></g><g fill="#191919" stroke="none"><g><path d="M349.7363,182.56588c0,0 0.68468,6.1342 -1.83229,6.1342c-2.51697,0 -1.99162,-6.1342 -1.99162,-6.1342z"/><path d="M347.66182,183.42617c0,0 0.81827,7.33112 -2.18981,7.33112c-3.00808,0 -2.38024,-7.33112 -2.38024,-7.33112z"/><path d="M344.34797,183.98722c0,0 0.91846,8.22881 -2.45795,8.22881c-3.37642,0 -2.67169,-8.22881 -2.67169,-8.22881z"/><path d="M339.87222,184.24904c0,0 1.08546,9.72495 -2.90485,9.72495c-3.99031,0 -3.15746,-9.72495 -3.15746,-9.72495z"/><path d="M328.30726,185.22154c0,0 1.28585,11.52033 -3.44114,11.52033c-4.72699,0 -3.74036,-11.52033 -3.74036,-11.52033z"/><path d="M334.5062,184.7727c0,0 1.21906,10.92187 -3.26237,10.92187c-4.48143,0 -3.54606,-10.92187 -3.54606,-10.92187z"/></g><g data-paper-data="{&quot;index&quot;:null}"><path d="M296.4491,182.56588c0,0 0.52535,6.1342 -1.99162,6.1342c-2.51697,0 -1.83229,-6.1342 -1.83229,-6.1342z"/><path d="M299.26972,183.42617c0,0 0.62784,7.33112 -2.38024,7.33112c-3.00808,0 -2.18981,-7.33112 -2.18981,-7.33112z"/><path d="M303.14315,183.98722c0,0 0.70473,8.22881 -2.67169,8.22881c-3.37641,0 -2.45795,-8.22881 -2.45795,-8.22881z"/><path d="M308.55158,184.24904c0,0 0.83285,9.72495 -3.15746,9.72495c-3.99031,0 -2.90485,-9.72495 -2.90485,-9.72495z"/><path d="M321.23573,185.22154c0,0 0.98663,11.52033 -3.74036,11.52033c-4.72699,0 -3.44114,-11.52033 -3.44114,-11.52033z"/><path d="M314.66372,184.7727c0,0 0.93537,10.92187 -3.54606,10.92187c-4.48143,0 -3.26237,-10.92187 -3.26237,-10.92187z"/></g></g><path d="M255.53996,142.24616c0,-33.30185 28.7599,-60.29833 64.23702,-60.29833c35.47712,0 64.23702,26.99649 64.23702,60.29833c0,15.82225 -6.53728,30.26631 -17.20485,41.07013c-11.78497,11.93549 -26.94414,56.94487 -45.5655,56.94487c-19.17529,0 -37.99648,-45.46179 -49.71284,-58.02173c-9.96064,-10.67781 -15.99085,-24.69099 -15.99085,-39.99327zM320.14748,234.95924c19.56717,0.27676 40.63333,-59.3 40.63333,-59.3c0,0 -16.92485,-8.72828 -40.88333,-10.75c-26.04508,-2.1978 -41.1,11.09999 -41.1,11.09999c0,0 25.58223,58.72698 41.35,58.95z" fill="url(#color-4)" stroke="#000000"/><path d="M268.89017,141.9423c0,-12.968 10.51265,-23.48065 23.48065,-23.48065c12.968,0 23.48065,10.51265 23.48065,23.48065c0,12.968 -10.51265,23.48065 -23.48065,23.48065c-12.968,0 -23.48065,-10.51265 -23.48065,-23.48065z" fill="#808080" stroke="#000000"/><path d="M273.62222,142c0,-10.41675 8.44443,-18.86117 18.86116,-18.86117c10.41675,0 18.86117,8.44444 18.86117,18.86117c0,10.41675 -8.44444,18.86117 -18.86117,18.86117c-10.41675,0 -18.86116,-8.44444 -18.86116,-18.86117z" fill="#000000" stroke="none"/><path d="M346.62926,165.75627c-12.968,0 -23.48065,-10.51265 -23.48065,-23.48065c0,-12.968 10.51265,-23.48065 23.48065,-23.48065c12.968,0 23.48065,10.51265 23.48065,23.48065c0,12.968 -10.51265,23.48065 -23.48065,23.48065z" data-paper-data="{&quot;index&quot;:null}" fill="#808080" stroke="#000000"/><path d="M346.51669,161.52784c-10.78492,0 -19.52783,-8.74292 -19.52783,-19.52784c0,-10.78494 8.74292,-19.52784 19.52783,-19.52784c10.78492,0 19.52783,8.74292 19.52783,19.52784c0,10.78494 -8.74292,19.52784 -19.52783,19.52784z" data-paper-data="{&quot;index&quot;:null}" fill="#000000" stroke="none"/><path d="M282.77834,91.74659c-0.90917,-5.63406 0.05873,-64.49976 0.05873,-64.49976c0,0 19.43483,55.57334 20.344,61.20739c0.90917,5.63406 -2.92113,10.93838 -8.55518,11.84754c-5.63405,0.90917 -10.93838,-2.92112 -11.84754,-8.55518z" fill="url(#color-5)" stroke="#000000"/><path d="M344.74431,100.30177c-5.63405,-0.90917 -9.46435,-6.21349 -8.55518,-11.84754c0.90916,-5.63406 20.344,-61.20739 20.344,-61.20739c0,0 0.96789,58.8657 0.05873,64.49976c-0.90916,5.63406 -6.21349,9.46434 -11.84755,8.55518z" data-paper-data="{&quot;index&quot;:null}" fill="url(#color-6)" stroke="#000000"/></g></g></svg>