<svg version="1.1" xmlns="http://www.w3.org/2000/svg" xmlns:xlink="http://www.w3.org/1999/xlink" width="34.17311" height="34.17311" viewBox="0,0,34.17311,34.17311"><g transform="translate(-222.91344,-162.91344)"><g data-paper-data="{&quot;isPaintingLayer&quot;:true}" stroke-linecap="round" stroke-miterlimit="10" stroke-dasharray="" stroke-dashoffset="0" style="mix-blend-mode: normal"><path d="M229.98312,162.91345h20.03378c3.9166,0 7.06966,3.15307 7.06966,7.06966v20.03379c0,3.91659 -3.15307,7.06966 -7.06966,7.06966h-20.03378c-3.91659,0 -7.06967,-3.15307 -7.06967,-7.06966c0,0 0,-7.18141 0,-10.61384c0,-3.23363 0,-9.41995 0,-9.41995c0,-3.91659 3.15308,-7.06966 7.06967,-7.06966z" fill="#c8b8b2" fill-rule="evenodd" stroke="none" stroke-width="4.43922" stroke-linejoin="round"/><g fill-rule="nonzero" stroke="#000000" stroke-width="1" stroke-linejoin="miter"><path d="M231.6696,182.02613l4.87533,-14.8001l2.08943,15.14834l2.26354,0.87059l0.95765,-1.21883l1.30589,-14.36481l6.0071,14.36481l-14.88716,6.96475z" fill="#584941"/><path d="M249.44303,182.23337l-0.34824,11.49185h-17.49895l-0.08706,-12.0142z" fill="#c8b8b2"/></g></g></g></svg>