<svg version="1.1" xmlns="http://www.w3.org/2000/svg" xmlns:xlink="http://www.w3.org/1999/xlink" width="135.69459" height="258.16221" viewBox="0,0,135.69459,258.16221"><defs><linearGradient x1="319.92305" y1="175.45922" x2="319.92305" y2="307.45912" gradientUnits="userSpaceOnUse" id="color-1"><stop offset="0" stop-color="#4c7b64"/><stop offset="1" stop-color="#2b2b2b"/></linearGradient><linearGradient x1="320.08155" y1="221.49566" x2="320.08155" y2="308.14563" gradientUnits="userSpaceOnUse" id="color-2"><stop offset="0" stop-color="#6b6dd3"/><stop offset="1" stop-color="#000000"/></linearGradient><linearGradient x1="355.96012" y1="194.55737" x2="355.96012" y2="302.11987" gradientUnits="userSpaceOnUse" id="color-3"><stop offset="0" stop-color="#4b7b64"/><stop offset="1" stop-color="#000000"/></linearGradient><linearGradient x1="284.13221" y1="194.46853" x2="284.13221" y2="302.02621" gradientUnits="userSpaceOnUse" id="color-4"><stop offset="0" stop-color="#4b7b64"/><stop offset="1" stop-color="#000000"/></linearGradient><linearGradient x1="320.00014" y1="76.99004" x2="320.00014" y2="197.10365" gradientUnits="userSpaceOnUse" id="color-5"><stop offset="0" stop-color="#000000"/><stop offset="1" stop-color="#ffdac9"/></linearGradient><linearGradient x1="319.92305" y1="136.84608" x2="319.92305" y2="196.25757" gradientUnits="userSpaceOnUse" id="color-6"><stop offset="0" stop-color="#000000"/><stop offset="1" stop-color="#7e647b"/></linearGradient><linearGradient x1="302.99388" y1="113.75416" x2="302.99388" y2="160.71544" gradientUnits="userSpaceOnUse" id="color-7"><stop offset="0" stop-color="#1a1a1a"/><stop offset="1" stop-color="#ffffff"/></linearGradient><linearGradient x1="336.75242" y1="113.75412" x2="336.75242" y2="160.71535" gradientUnits="userSpaceOnUse" id="color-8"><stop offset="0" stop-color="#1a1a1a"/><stop offset="1" stop-color="#ffffff"/></linearGradient><linearGradient x1="319.46461" y1="50.98961" x2="319.46461" y2="110.33913" gradientUnits="userSpaceOnUse" id="color-9"><stop offset="0" stop-color="#4c7b64"/><stop offset="1" stop-color="#000000"/></linearGradient><linearGradient x1="319.45887" y1="55.31628" x2="319.45887" y2="88.41537" gradientUnits="userSpaceOnUse" id="color-10"><stop offset="0" stop-color="#daffed"/><stop offset="1" stop-color="#161a18"/></linearGradient><linearGradient x1="320.08099" y1="60.32454" x2="320.08099" y2="80.96067" gradientUnits="userSpaceOnUse" id="color-11"><stop offset="0" stop-color="#49705e"/><stop offset="1" stop-color="#13160e"/></linearGradient><linearGradient x1="319.47355" y1="146.06581" x2="319.47355" y2="181.77494" gradientUnits="userSpaceOnUse" id="color-12"><stop offset="0" stop-color="#000000"/><stop offset="1" stop-color="#ffdac9"/></linearGradient></defs><g transform="translate(-251.81333,-50.48961)"><g data-paper-data="{&quot;isPaintingLayer&quot;:true}" stroke-linecap="butt" stroke-linejoin="miter" stroke-miterlimit="10" stroke-dasharray="" stroke-dashoffset="0" style="mix-blend-mode: normal"><path d="M286.67305,307.45912l15.14285,-131.8421l37.78325,-0.15789l13.57389,132z" fill="url(#color-1)" fill-rule="nonzero" stroke="#000000" stroke-width="2"/><path d="M299.53999,204.07186l3.12142,-26.32765l35.83075,-0.14203l2.76735,26.1059c0,0 -7.51543,4.19603 -21.55904,4.50964c-12.48458,0.27879 -20.16049,-4.14586 -20.16049,-4.14586z" fill="#2f4b3d" fill-rule="nonzero" stroke="#000000" stroke-width="0"/><path d="M286.20349,307.39563l9.625,-85.15c0,0 16.14032,5.36651 24.41538,5.23987c8.05433,-0.12327 24.59071,-5.98987 24.59071,-5.98987l9.125,86.65z" fill="url(#color-2)" fill-rule="nonzero" stroke="#000000" stroke-width="1"/><path d="M330.77702,225.84335l-2.72223,-31.57302l7.33053,-1.11111l3.5,30.46191c0,0 1.97994,9.94622 -2.77415,10.47275c-4.71963,0.52271 -5.33415,-8.25053 -5.33415,-8.25053z" data-paper-data="{&quot;index&quot;:null}" fill="#6b6dd3" fill-rule="nonzero" stroke="#000000" stroke-width="1"/><path d="M301.66589,224.12111l3.5,-30.4619l8.21942,0.55556l-2.61111,32.12857c0,0 -1.38805,9.70344 -6.18894,8.77837c-5.22617,-1.00701 -2.91937,-11.0006 -2.91937,-11.0006z" fill="#6b6dd3" fill-rule="nonzero" stroke="#000000" stroke-width="1"/><path d="M338.7852,228.05325c0,1.99603 -1.54283,3.61412 -3.44602,3.61412c-1.90319,0 -3.44603,-1.6181 -3.44603,-3.61412c0,-1.99603 1.54284,-3.61412 3.44603,-3.61412c1.90319,0 3.44602,1.61809 3.44602,3.61412z" fill="#c6a438" fill-rule="nonzero" stroke="none" stroke-width="0"/><path d="M309.37397,228.76993c0,1.99603 -1.54283,3.61412 -3.44602,3.61412c-1.90319,0 -3.44603,-1.6181 -3.44603,-3.61412c0,-1.99603 1.54284,-3.61412 3.44603,-3.61412c1.90319,0 3.44602,1.61809 3.44602,3.61412z" fill="#c6a438" fill-rule="nonzero" stroke="none" stroke-width="0"/><path d="M308.84898,229.41992c0,1.99602 -1.54284,3.61412 -3.44602,3.61412c-1.90319,0 -3.44602,-1.6181 -3.44602,-3.61412c0,-1.99602 1.54284,-3.61412 3.44602,-3.61412c1.90319,0 3.44602,1.6181 3.44602,3.61412z" fill="#edd459" fill-rule="nonzero" stroke="none" stroke-width="0"/><path d="M338.53662,228.70117c0,1.87521 -1.44945,3.39537 -3.23744,3.39537c-1.78799,0 -3.23745,-1.52016 -3.23745,-3.39537c0,-1.87521 1.44946,-3.39537 3.23745,-3.39537c1.78799,0 3.23744,1.52016 3.23744,3.39537z" fill="#edd459" fill-rule="nonzero" stroke="none" stroke-width="0"/><path d="M341.61097,194.55737c0.90641,1.442 13.27591,-0.94411 14.53458,0.88889c0.31862,-0.594 9.30076,33.378 9.72787,35c-0.5926,-0.963 5.60783,49.33333 5.60783,49.33333c0,0 0.50768,22.79733 0.91556,22.33333c-0.88787,-0.49 -11.18842,-0.32367 -12.13122,-0.16667c0.5308,-15.625 -11.71487,-68.29133 -19.1124,-79.33333c2.25366,-15.345 -5.00951,-26.28055 0.45778,-28.05555z" fill="url(#color-3)" fill-rule="evenodd" stroke="none" stroke-width="1"/><path d="M341.52131,194.59507c0.91572,1.34757 13.41232,-0.88229 14.68393,0.83068c0.10385,-0.17908 1.11865,3.00386 2.46032,7.4491c-6.17155,-0.51975 -13.01437,-2.82677 -18.35267,1.21834c-0.00693,0.00525 -0.01384,0.01053 -0.02073,0.01584c-0.98219,-5.21007 -1.76061,-8.6161 1.22914,-9.51396z" fill="#2f4b3d" fill-rule="nonzero" stroke="none" stroke-width="1"/><path d="M387.45586,301.10947c0.01927,0.00566 0.03664,0.01141 0.05206,0.01725c-0.01724,0.01347 -0.0346,0.00734 -0.05206,-0.01725z" fill="#2f4b3d" fill-rule="nonzero" stroke="none" stroke-width="1"/><path d="M298.93917,222.52405c-7.39753,11.042 -16.3932,24.95833 -15.8624,40.58333c-0.9428,-0.157 -10.24335,-1.57333 -11.13122,-1.08333c0.40788,0.464 2.86599,-32.62966 2.27339,-31.66666c0.42711,-1.622 9.40925,-35.594 9.72787,-35c1.25867,-1.833 13.62817,0.55311 14.53458,-0.88889c5.46729,1.775 -1.79588,12.71055 0.45778,28.05555z" data-paper-data="{&quot;index&quot;:null}" fill="url(#color-4)" fill-rule="evenodd" stroke="none" stroke-width="1"/><path d="M298.57106,194.50623c2.98975,0.89786 2.21133,4.30389 1.22914,9.51396c-0.00689,-0.00531 -0.0138,-0.01059 -0.02073,-0.01584c-5.3383,-4.04511 -12.18112,-1.73809 -18.35267,-1.21834c1.34167,-4.44524 2.35647,-7.62818 2.46032,-7.4491c1.27161,-1.71297 13.76821,0.51689 14.68393,-0.83068z" data-paper-data="{&quot;index&quot;:null}" fill="#2f4b3d" fill-rule="nonzero" stroke="none" stroke-width="1"/><g><path d="M261.69795,104.84053c0.37225,-1.95627 0.79829,-15.31507 14.96087,-28.03661c7.64679,-6.86874 16.3225,-16.66898 37.90299,-17.32053c32.05868,-0.51111 43.95019,11.08935 52.16133,19.80672c11.26206,11.95638 11.89977,22.71882 14.37822,27.96833c0.25164,0.53297 -119.41455,-2.35933 -119.40341,-2.4179z" fill="#a8530c" fill-rule="nonzero" stroke="none" stroke-width="1.5"/><path d="M255.76312,136.80525c0,-21.15086 11.60129,-39.75822 29.15655,-50.52104c1.08536,-1.75458 19.78544,-9.18722 33.30904,-9.29157c13.5236,-0.10435 26.06266,2.90177 35.96422,8.75705c18.0508,10.67434 30.04423,29.55022 30.04423,51.05556c0,33.30185 -28.7599,60.29833 -64.23702,60.29833c-35.47712,0 -64.23702,-26.99649 -64.23702,-60.29833z" fill="url(#color-5)" fill-rule="nonzero" stroke="#000000" stroke-width="2"/><path d="M256.486,136.85915c0,-0.72799 5.20666,55.91939 63.36046,56.93429c55.56352,0.9697 63.51358,-57.95314 63.51358,-56.93429c0,32.80479 -28.40173,59.39833 -63.43702,59.39833c-35.03529,0 -63.43702,-26.59354 -63.43702,-59.39833z" fill="url(#color-6)" fill-rule="nonzero" stroke="#000000" stroke-width="0"/><path d="M259.42026,148.5137c0,0 -3.17497,-7.83911 -3.17497,-11.77764c0,-6.02949 9.41909,-42.46903 9.41909,-42.46903h9.52492c0,0 -3.70913,8.16542 -4.33994,12.81431c-0.56023,4.12878 0.74163,13.70427 0.74163,13.70427l-2.07085,2.75646l-3.0049,-1.80454z" fill="#3a2f2b" fill-rule="nonzero" stroke="#000000" stroke-width="0"/><path d="M289.71317,137.23478c0,-12.968 5.94595,-23.48065 13.28065,-23.48065c7.3347,0 13.28065,10.51265 13.28065,23.48065c0,12.968 -5.94595,23.48065 -13.28065,23.48065c-7.3347,0 -13.28065,-10.51265 -13.28065,-23.48065z" fill="url(#color-7)" fill-rule="nonzero" stroke="#000000" stroke-width="2"/><path d="M258.52306,144.00197c0,0 -3,-7.4071 -3,-11.12857c0,-5.6972 8.9,-40.12857 8.9,-40.12857h9c0,0 -3.50472,7.71542 -4.10076,12.10811c-0.52936,3.90124 0.70076,12.94903 0.70076,12.94903l-1.95673,2.60455l-2.8393,-1.70509z" fill="#766058" fill-rule="nonzero" stroke="#000000" stroke-width="1.5"/><path d="M336.75242,160.71535c-7.27947,0 -13.18065,-10.51265 -13.18065,-23.48065c0,-12.968 5.90118,-23.48065 13.18065,-23.48065c7.27947,0 13.18065,10.51265 13.18065,23.48065c0,12.968 -5.90118,23.48065 -13.18065,23.48065z" data-paper-data="{&quot;index&quot;:null}" fill="url(#color-8)" fill-rule="nonzero" stroke="#000000" stroke-width="2"/><path d="M279.70187,109.81342c0,0 11.49953,-4.26418 16.5281,-2.83931c5.02858,1.42488 11.69518,5.97183 11.69518,5.97183c0,0 -8.24902,-3.32832 -12.13243,-4.4287c-4.05831,-1.14994 -16.09085,1.29618 -16.09085,1.29618z" fill="#000000" fill-rule="nonzero" stroke="none" stroke-width="0"/><path d="M343.17753,108.87053c-3.85442,1.19798 -10.7515,5.32659 -10.7515,5.32659c0,0 5.28441,-5.30693 10.27546,-6.85819c4.99104,-1.55125 13.39479,-0.49871 13.39479,-0.49871c0,0 -8.89074,0.77838 -12.91875,2.03032z" data-paper-data="{&quot;index&quot;:null}" fill="#000000" fill-rule="nonzero" stroke="none" stroke-width="0"/><path d="M372.11944,122.73763l-3.0049,1.80454l-2.07085,-2.75646c0,0 1.30186,-9.57549 0.74163,-13.70427c-0.63081,-4.64889 -4.33994,-12.81431 -4.33994,-12.81431h9.52492c0,0 9.41909,36.43954 9.41909,42.46903c0,3.93853 -3.17497,11.77764 -3.17497,11.77764z" data-paper-data="{&quot;index&quot;:null}" fill="#3a2f2b" fill-rule="nonzero" stroke="#000000" stroke-width="0"/><path d="M373.71917,121.03486l-2.8393,1.70509l-1.95673,-2.60455c0,0 1.23012,-9.04779 0.70076,-12.94903c-0.59604,-4.39269 -4.10076,-12.10811 -4.10076,-12.10811h9c0,0 8.9,34.43137 8.9,40.12857c0,3.72147 -3,11.12857 -3,11.12857z" data-paper-data="{&quot;index&quot;:null}" fill="#766058" fill-rule="nonzero" stroke="#000000" stroke-width="1.5"/><path d="M258.29805,92.23961c16.52144,-23.64275 37.27087,-41.25 60.25,-41.25c22.93746,0 43.93743,11.90491 59.75,35.25c2.19899,3.24651 5.88227,22.83784 3.89123,23.94724c-2.97694,1.65874 -55.28548,-10.78057 -63.39123,-10.78057c-8.43856,0 -57.31213,11.19019 -60.9229,10.52524c-2.6,-0.4788 -2.04397,-14.16171 0.42291,-17.69191z" fill="url(#color-9)" fill-rule="nonzero" stroke="#000000" stroke-width="1"/><path d="M337.87557,71.8658c0,9.14006 -8.24543,16.54954 -18.41667,16.54954c-10.17124,0 -18.41667,-7.40948 -18.41667,-16.54954c0,-9.14006 8.24543,-16.54954 18.41667,-16.54954c10.17124,0 18.41667,7.40948 18.41667,16.54954z" fill="url(#color-10)" fill-rule="nonzero" stroke="none" stroke-width="0"/><path d="M270.57187,107.23894l2.83334,-8.78572c0,0 8.38245,-3.22377 9.03638,-3.40847c4.87995,-1.37836 25.70344,-8.21057 37.13028,-8.21057c11.03631,0 32.30917,6.51103 38.01657,8.0849c0.95074,0.26217 7.62628,4.74844 7.62628,4.74844l1.82143,8.83333c0,0 -8.71824,-2.99878 -9.5178,-2.99654c-1.88852,0.0053 -5.82465,-0.9574 -10.94539,-2.09485c-7.41256,-1.64651 -17.47406,3.50751 -27.23352,3.53491c-9.94581,0.02792 -19.58437,-5.30103 -26.47853,-3.80424c-4.75314,1.03195 -8.12256,1.90186 -9.20032,1.90488c-0.72784,0.00204 -13.08872,2.19393 -13.08872,2.19393z" fill="#141d18" fill-rule="nonzero" stroke="#000000" stroke-width="0"/><path d="M329.40612,80.96067l-18.24951,-0.72108l-0.40074,-19.91504l5.4799,0.05106l-0.23111,13.48928l13.12073,0.23107z" data-paper-data="{&quot;index&quot;:null}" fill="url(#color-11)" fill-rule="evenodd" stroke="none" stroke-width="1"/><path d="M321.58806,168.62075c0,0 -25.15395,22.08602 -40.05509,15.24439c-14.90114,-6.84162 -14.22695,-40.16713 -14.22695,-40.16713c0,0 14.33284,15.22937 23.38537,19.38569c9.04147,4.15125 30.89668,5.53705 30.89668,5.53705z" fill="#000000" fill-rule="nonzero" stroke="none" stroke-width="0"/><path d="M350.09954,162.99658c8.93403,-4.10191 23.07925,-19.13193 23.07925,-19.13193c0,0 0.66537,32.88928 -14.04072,39.64135c-14.70608,6.75207 -39.53078,-15.04484 -39.53078,-15.04484c0,0 21.56913,-1.36767 30.49224,-5.46458z" data-paper-data="{&quot;index&quot;:null}" fill="#000000" fill-rule="nonzero" stroke="none" stroke-width="0"/><path d="M306.08961,172.46584c-3.03893,-9.31228 9.44444,-26.4 9.44444,-26.4c0,0 2.91771,0.38215 4.39081,0.43071c1.55573,0.05129 4.48697,-0.35293 4.48697,-0.35293c0,0 10.6936,19.54451 8.66667,26.1c-4.78824,15.48611 -23.94996,9.5345 -26.98889,0.22222z" fill="url(#color-12)" fill-rule="nonzero" stroke="#000000" stroke-width="2"/><g stroke="none" stroke-width="1"><path d="M327.79616,151.12257c1.52338,-0.83587 3.18137,-1.20669 4.97595,-1.11349c-0.74533,0.78516 -1.7337,1.30778 -2.9651,1.56786c0.03756,0.03471 0.0751,0.0692 0.11263,0.10348c-0.42771,0.09392 -0.84493,0.21511 -1.24981,0.36165c-0.29017,-0.29495 -0.5814,-0.60144 -0.87367,-0.91949z" fill="#2f2d2e" fill-rule="nonzero"/><path d="M335.22533,125.94707c-0.66683,0.01517 -0.99216,0.35597 -0.97699,1.02249c-1.35246,-1.4114 -3.03319,-2.04003 -5.0442,-1.88574c-0.35566,-0.99216 -1.03766,-1.64352 -2.04498,-1.95398c0.10231,-0.13988 0.20532,-0.27743 0.30903,-0.41266c0.94609,0.27093 1.94853,0.40567 2.98416,0.3821c0.22853,-0.0052 0.45511,-0.01804 0.67948,-0.03824c1.63049,0.56687 2.99498,1.5289 4.0935,2.88603z" fill="#7c82e2" fill-rule="nonzero"/><path d="M329.20421,125.08382c2.01101,-0.15429 3.69174,0.47434 5.0442,1.88574c1.91692,3.05148 2.49262,6.37264 1.7271,9.96329c-1.34428,-4.39275 -4.22962,-6.66101 -8.65704,-6.80482c-0.42991,-2.18878 0.19901,-3.87013 1.88574,-5.0442z" fill="#4c4ebf" fill-rule="evenodd"/><path d="M327.15918,123.12984c1.00732,0.31046 1.68932,0.96182 2.04498,1.95398c-1.68673,1.17408 -2.31564,2.85542 -1.88574,5.0442c4.42742,0.14381 7.31276,2.41207 8.65704,6.80482c0.76551,-3.59064 0.18981,-6.91181 -1.7271,-9.96329c-0.01517,-0.66652 0.31017,-1.00732 0.97699,-1.02249c2.9023,4.55165 3.84983,9.53138 2.84059,14.93924c-0.2331,3.99834 -1.99738,7.03926 -5.29384,9.12279c-1.79458,-0.0932 -3.45258,0.27762 -4.97595,1.11349c-5.49643,-9.27536 -5.70876,-18.60665 -0.63698,-27.99276z" fill="#0e0e12" fill-rule="evenodd"/><path d="M328.91677,134.68983c3.65664,-0.23325 4.6905,1.24362 3.10159,4.43059c-1.28152,0.51929 -2.61138,0.71659 -3.98759,0.59087c-0.17473,-1.78849 0.12028,-3.46163 0.886,-5.02146z" fill="#fbf9f9" fill-rule="evenodd"/></g><g data-paper-data="{&quot;index&quot;:null}" stroke="none" stroke-width="1"><path d="M310.74816,152.34939c-0.40442,-0.1478 -0.82126,-0.27029 -1.24867,-0.36554c0.03764,-0.03416 0.07527,-0.06853 0.11294,-0.10312c-1.23059,-0.26392 -2.21731,-0.78962 -2.96019,-1.5771c1.79487,-0.0876 3.4517,0.28839 4.97246,1.129c-0.29326,0.31714 -0.58544,0.62272 -0.87653,0.91676z" fill="#2f2d2e" fill-rule="nonzero"/><path d="M304.27405,126.23409c1.10275,-1.3537 2.47024,-2.31147 4.10249,-2.87324c0.22431,0.0209 0.45084,0.03444 0.67935,0.04036c1.03555,0.0268 2.33253,-0.22247 3.27946,-0.49045c0.10329,0.13556 0.32352,0.62637 0.42539,0.76657c-1.00829,0.30732 -2.10407,0.72125 -2.46283,1.7123c-2.01052,-0.16056 -3.69321,0.46282 -5.05006,1.86999c0.01725,-0.66648 -0.30703,-1.00827 -0.9738,-1.02553z" fill="#7c82e2" fill-rule="nonzero"/><path d="M312.16787,130.43965c-4.42784,0.13001 -7.32025,2.38925 -8.67822,6.77779c-0.75432,-3.59302 -0.16825,-6.91237 1.75817,-9.95785c1.35685,-1.40717 3.03954,-2.03055 5.05006,-1.86999c1.68306,1.17933 2.30672,2.86263 1.86999,5.05006z" fill="#4c4ebf" fill-rule="evenodd"/><path d="M311.62469,151.43264c-1.52076,-0.84062 -3.17759,-1.21661 -4.97246,-1.129c-3.28994,-2.0938 -5.04472,-5.14021 -5.26535,-9.13926c-0.99237,-5.41098 -0.02931,-10.38773 2.88717,-14.93031c0.66677,0.01726 0.99105,0.35905 0.9738,1.02553c-1.92642,3.04549 -2.51249,6.36484 -1.75817,9.95785c1.35798,-4.38854 4.25038,-6.64778 8.67822,-6.77779c0.43673,-2.18743 -0.18694,-3.87073 -1.86999,-5.05006c0.35876,-0.99105 1.34278,-1.64028 2.35107,-1.9476c5.04248,9.40188 4.50105,18.73246 -1.02428,27.99063z" fill="#0e0e12" fill-rule="evenodd"/><path d="M311.42573,140.02068c-1.3766,0.12143 -2.70583,-0.08002 -3.98573,-0.60331c-1.57896,-3.19191 -0.5405,-4.66554 3.1154,-4.42089c0.76085,1.56221 1.05063,3.23626 0.87033,5.02419z" fill="#fbf9f9" fill-rule="evenodd"/></g><path d="M315.96137,147.18068l1.26667,-4.92821l5.46667,0.2l1.12308,4.84103c0,0 -2.83871,0.7961 -4.25828,0.75031c-1.33016,-0.04291 -3.59813,-0.86313 -3.59813,-0.86313z" fill="#907b72" fill-rule="nonzero" stroke="#000000" stroke-width="0"/></g><g fill-rule="evenodd" stroke="none" stroke-width="1"><path d="M298.49588,245.06914c-0.3479,0.36572 -0.39716,0.75957 -0.14802,1.18132c-0.70109,0.76837 -1.02697,1.6505 -0.97769,2.64643c0.04517,0.6497 -0.06481,1.28199 -0.32999,1.8969c-0.3479,0.36572 -0.39716,0.75957 -0.14802,1.18132c-0.04709,0.98422 -0.2898,1.93827 -0.72785,2.86233c-0.3479,0.36572 -0.39716,0.75957 -0.14802,1.18132c-0.52233,3.00881 -0.34345,6.00008 0.53689,8.97401c0.27566,2.16114 0.31495,4.30441 0.11735,6.4294c-0.3479,0.36572 -0.39716,0.75957 -0.14802,1.18132c-0.3479,0.36572 -0.39716,0.75957 -0.14802,1.18132c0.07445,0.50673 -0.04701,0.98363 -0.36392,1.43116c-1.43344,2.09207 -3.00551,4.07944 -4.71589,5.96223c-1.14583,0.16239 -2.30476,0.3248 -3.47609,0.48741c-0.59713,-0.40691 -1.22951,-0.51698 -1.8969,-0.32999c-0.26637,0.13553 -0.50488,0.07518 -0.71558,-0.18196c-0.60025,-0.726 -1.31583,-0.90797 -2.14675,-0.54589c-1.43116,-0.36392 -2.82839,-0.26211 -4.19167,0.30545c-0.89744,-0.16848 -1.74572,-0.0287 -2.54461,0.41954c-0.14401,0.16664 -0.2991,0.17795 -0.46574,0.03394c-1.57733,-0.60283 -2.97054,-1.51569 -4.17941,-2.73884c-0.29782,-1.0992 -0.68743,-2.16339 -1.16906,-3.19231c-0.36572,-0.3479 -0.75957,-0.39716 -1.18132,-0.14802c-1.1583,-0.45151 -2.25443,-1.03477 -3.288,-1.75031c-0.76149,0.48885 -1.55108,0.89755 -2.36878,1.2261c-0.78394,-0.25194 -1.57141,-0.35071 -2.36265,-0.29605c-0.2663,0.13559 -0.50498,0.0751 -0.71558,-0.18196c-1.33247,-1.15147 -2.66497,-2.30295 -3.99744,-3.45442c-0.55829,-0.59897 -0.99723,-1.26937 -1.31708,-2.01099c0.08617,-0.67311 -0.18621,-1.19958 -0.8174,-1.57919c-2.27498,-4.9641 -3.08356,-10.17273 -2.42623,-15.62544c1.03634,-4.62332 3.8997,-7.0951 8.58984,-7.41506c2.38555,-3.50085 5.57786,-4.66991 9.57694,-3.50717c3.16918,-3.1924 6.91616,-4.24579 11.24097,-3.16021c1.03884,0.44259 1.97959,1.03733 2.82225,1.78425c2.39445,-2.31947 5.19093,-3.03047 8.38948,-2.13305c2.70404,1.23554 4.6421,3.20127 5.8142,5.89721c0.08906,0.67537 0.0984,1.33806 0.02781,1.98789z" fill="#1a1a1a"/><path d="M292.89758,238.82131c4.28585,3.14037 5.7092,7.50609 2.25425,11.48445c-1.72912,2.27998 -9.84295,0.40864 -9.71835,-1.7316c0.01621,-0.27844 -0.44497,-3.03334 -0.37009,-3.21223c-0.30172,-0.4761 -0.68213,-0.87759 -1.14125,-1.20443c-0.78065,1.11779 -1.19753,2.35773 -1.25063,3.7198c1.58761,6.79106 1.93003,13.63316 1.02757,20.52656c-0.91039,3.44474 -3.08235,4.6956 -6.51568,3.75231c-0.64369,-0.26516 -1.14337,-0.69696 -1.49904,-1.29541c-1.44944,-5.42727 -2.04804,-10.96308 -1.7955,-16.60783c-0.29111,-0.83391 -0.85146,-1.02718 -1.681,-0.57983c-0.20014,5.8251 0.37369,11.55794 1.72148,17.1985c-1.36707,2.33307 -3.31544,2.90431 -5.84487,1.71351c-0.64369,-0.26516 -1.14337,-0.69696 -1.49904,-1.29541c-1.01953,-1.78222 -1.70432,-3.68323 -2.05433,-5.70298c-0.61195,-3.57979 -0.83625,-7.19203 -0.67265,-10.83697c-0.69551,-0.22746 -1.27479,-0.14632 -1.73805,0.24371c-0.27434,5.91722 0.53235,11.63307 2.4201,17.14759c-1.13812,0.63121 -2.30804,0.63837 -3.51003,0.02167c-1.9747,-1.36736 -3.50768,-3.12851 -4.59894,-5.28345c-1.79976,-4.1275 -2.66004,-8.43465 -2.58039,-12.92198c0.10448,-2.62376 1.03283,-4.87641 2.78504,-6.75795c3.39128,-0.6393 6.23914,-2.25147 8.54364,-4.83651c0.6873,-0.20614 1.3746,-0.41233 2.0619,-0.61847c1.39172,0.37937 2.80591,0.51042 4.24258,0.39316c3.83182,-4.25903 8.01783,-4.64212 12.55805,-1.14922c0.49501,0.0339 0.95512,-0.07765 1.38025,-0.33469c2.10984,-2.22 4.60149,-2.83076 7.47497,-1.8323z" fill="#fbfbfb"/><path d="M298.49588,245.06914c0.24913,0.42176 0.19987,0.8156 -0.14802,1.18132c-0.24913,-0.42176 -0.19987,-0.8156 0.14802,-1.18132z" fill="#b7b7b7" opacity="0.745"/><path d="M298.34786,246.25047c-0.05329,0.95403 -0.37917,1.83616 -0.97769,2.64643c-0.04928,-0.99593 0.2766,-1.87806 0.97769,-2.64643z" fill="#777777"/><path d="M297.04018,250.79381c0.24913,0.42176 0.19987,0.8156 -0.14802,1.18132c-0.24913,-0.42176 -0.19987,-0.8156 0.14802,-1.18132z" fill="#d1d1d1" opacity="0.416"/><path d="M293.46595,275.63552c-0.86361,0.99936 -1.72721,1.99872 -2.59082,2.99808c-0.70844,0.74809 -1.58148,1.08468 -2.61862,1.0102c-3.89605,-1.44614 -7.84707,-1.58735 -11.8533,-0.42383c-3.05486,-0.36617 -3.99151,-1.97553 -2.80999,-4.82854c0.6498,-0.3545 1.20086,-0.82401 1.6532,-1.40806c2.44482,1.91851 4.99295,2.08375 7.64466,0.49641c1.10213,-0.86481 1.84082,-1.97212 2.21605,-3.32193c1.54988,0.01242 2.69318,0.70946 3.42989,2.09113c0.80893,0.3315 1.29943,0.10074 1.47124,-0.69248c-1.00194,-1.74237 -2.45378,-2.92424 -4.35523,-3.5454c0.72359,-0.56917 1.50743,-1.05555 2.35181,-1.45897c1.06183,-0.76767 1.77028,-1.75565 2.12507,-2.96414c-0.39378,-0.04933 -0.78754,-0.09869 -1.18132,-0.14802c-0.78553,0.89589 -1.71333,1.54886 -2.78361,1.95865c0.10087,-3.97151 -0.31148,-4.91217 -0.83416,-8.86964c3.32989,1.62971 5.7181,1.85306 8.57535,-0.53977c-0.60696,2.38458 -0.10957,1.16595 -0.32184,3.60134c0.94907,4.45691 1.27723,8.95916 0.98423,13.5065c-0.27675,0.89395 -0.64435,1.74002 -1.10261,2.53848z" fill="#f9f9f9"/><path d="M296.16431,254.83744c0.24913,0.42176 0.19987,0.8156 -0.14802,1.18132c-0.24913,-0.42176 -0.19987,-0.8156 0.14802,-1.18132z" fill="#acacac" opacity="0.804"/><path d="M296.67053,271.4222c0.24913,0.42176 0.19987,0.8156 -0.14802,1.18132c-0.24913,-0.42176 -0.19987,-0.8156 0.14802,-1.18132z" fill="#8a8a8a" opacity="0.945"/><path d="M296.52251,272.60353c0.24913,0.42176 0.19987,0.8156 -0.14802,1.18132c-0.24913,-0.42176 -0.19987,-0.8156 0.14802,-1.18132z" fill="#c6c6c6" opacity="0.592"/><path d="M296.01056,275.21599c-0.77882,2.62639 -2.35088,4.61373 -4.71589,5.96223c1.71038,-1.88278 3.28245,-3.87015 4.71589,-5.96223z" fill="#959595"/><path d="M293.46595,275.63552c-0.25514,1.24417 -0.9219,2.26826 -2.00015,3.07209c-0.21573,0.05622 -0.41255,0.03147 -0.59066,-0.07401c0.86361,-0.99936 1.72721,-1.99872 2.59082,-2.99808z" fill="#aeaeae" opacity="0.682"/><path d="M291.29467,281.17821c-1.08088,0.78062 -2.23935,0.94299 -3.47609,0.48741c1.17133,-0.16261 2.33026,-0.32502 3.47609,-0.48741z" fill="#d8d8d8" opacity="0.678"/><path d="M287.81858,281.66562c-0.66739,0.18699 -1.29978,0.07692 -1.8969,-0.32999c0.66739,-0.18699 1.29978,-0.07692 1.8969,0.32999z" fill="#c5c5c5" opacity="0.973"/><path d="M285.20609,281.15367c-0.74556,0.01383 -1.46114,-0.16813 -2.14675,-0.54589c0.83092,-0.36208 1.5465,-0.18012 2.14675,0.54589z" fill="#d0d0d0" opacity="0.835"/><path d="M283.05935,280.60778c-1.38592,0.25691 -2.78315,0.35873 -4.19167,0.30545c1.36329,-0.56756 2.76051,-0.66938 4.19167,-0.30545z" fill="#e3e3e3" opacity="0.059"/><path d="M278.86767,280.91324c-0.81199,0.44826 -1.66028,0.58803 -2.54461,0.41954c0.79889,-0.44824 1.64717,-0.58801 2.54461,-0.41954z" fill="#dddddd" opacity="0.086"/><path d="M270.50886,275.43555c-0.42176,0.24913 -0.8156,0.19987 -1.18132,-0.14802c0.42176,-0.24913 0.8156,-0.19987 1.18132,0.14802z" fill="#e2e2e2" opacity="0.349"/><path d="M269.32754,275.28754c-0.16087,0.13025 -0.35209,0.18321 -0.57369,0.15886c-0.92937,-0.43959 -1.85895,-0.87892 -2.78832,-1.31851c-0.68686,0.57647 -1.45178,0.78829 -2.29477,0.63544c0.8177,-0.32855 1.60729,-0.73725 2.36878,-1.2261c1.03357,0.71554 2.12969,1.2988 3.288,1.75031z" fill="#d5d5d5" opacity="0.698"/><path d="M275.85732,281.3667c-2.0277,0.02439 -3.42091,-0.88848 -4.17941,-2.73884c1.20887,1.22314 2.60207,2.13601 4.17941,2.73884z" fill="#c3c3c3" opacity="0.294"/><path d="M254.46061,267.24071c0.63119,0.37961 0.90357,0.90608 0.8174,1.57919c-0.53406,-0.41874 -0.80646,-0.94523 -0.8174,-1.57919z" fill="#a2a2a2"/><path d="M263.67076,274.76331c-0.82636,0.36908 -1.61405,0.27056 -2.36265,-0.29605c0.79123,-0.05466 1.57871,0.0441 2.36265,0.29605z" fill="#e9e9e9" opacity="0.369"/><path d="M256.59509,270.8309c1.33247,1.15147 2.66497,2.30295 3.99744,3.45442c-1.87733,-0.51469 -3.20981,-1.66616 -3.99744,-3.45442z" fill="#b5b5b5"/></g></g></g></svg>