<svg version="1.1" xmlns="http://www.w3.org/2000/svg" xmlns:xlink="http://www.w3.org/1999/xlink" width="128.47404" height="267.22501" viewBox="0,0,128.47404,267.22501"><defs><linearGradient x1="240.00012" y1="175.50005" x2="240.00012" y2="307.50005" gradientUnits="userSpaceOnUse" id="color-1"><stop offset="0" stop-color="#1a1a1a"/><stop offset="1" stop-color="#b7b7b7"/></linearGradient><linearGradient x1="240.07706" y1="74.67241" x2="240.07706" y2="195.26907" gradientUnits="userSpaceOnUse" id="color-2"><stop offset="0" stop-color="#1a1a1a"/><stop offset="1" stop-color="#ababab"/></linearGradient></defs><g transform="translate(-175.84003,-46.55423)"><g data-paper-data="{&quot;isPaintingLayer&quot;:true}" fill-rule="nonzero" stroke-linecap="butt" stroke-linejoin="miter" stroke-miterlimit="10" stroke-dasharray="" stroke-dashoffset="0" style="mix-blend-mode: normal"><path d="M179.07569,313.77925v-267.22501h123.18203v267.22501z" fill-opacity="0.01" fill="#000000" stroke="none" stroke-width="0"/><path d="M206.75013,307.50004l15.14285,-131.8421l37.78325,-0.15789l3.15646,30.69516l-14.20019,13.8515l12.65505,6.61153l-6.92997,6.53781l10.54035,5.24649l8.35219,69.05752z" fill="url(#color-1)" stroke="#000000" stroke-width="0"/><path d="M175.84004,134.97074c0,-33.30185 28.7599,-60.29833 64.23702,-60.29833c35.47712,0 64.23702,26.99649 64.23702,60.29833c0,33.30185 -28.7599,60.29833 -64.23702,60.29833c-35.47712,0 -64.23702,-26.99649 -64.23702,-60.29833z" fill="url(#color-2)" stroke="#000000" stroke-width="0"/><path d="M214.1879,183.77879c0.00035,-0.01015 0.00088,-0.02009 0.00159,-0.02982c-0.2161,-0.08574 -0.42702,-0.18037 -0.6316,-0.28528c-0.76241,-0.39097 -1.51845,-0.85874 -2.27341,-1.36443c-1.43849,-0.46098 -2.86029,-1.0473 -4.26985,-1.79141c-1.29024,-1.19873 -2.69681,-2.20998 -4.05843,-3.31895c-0.21598,-0.07337 -0.43321,-0.13961 -0.65179,-0.19798c-5.4698,-3.69085 -10.71303,-7.23479 -13.85436,-13.41334c-0.79619,-1.61752 -2.82304,-3.02597 -3.29404,-4.72557c-0.61613,-2.2233 -0.54035,-4.53556 -0.54035,-6.96626v-0.11111c0,0 0,-0.35984 0.2876,-0.46899c0.03617,-0.10669 0.11634,-0.2119 0.27976,-0.27695c0.44107,-0.17556 0.60646,0.2926 0.60646,0.2926c0.07478,0.21165 0.15077,0.42244 0.22801,0.63236c-0.06082,-0.43365 -0.09334,-0.86406 -0.09334,-1.29013c0,0 0,-0.5 0.47106,-0.5c0.47106,0 0.47106,0.5 0.47106,0.5c0,0.47783 0.05094,0.91046 0.13982,1.31635c0.12187,0.1473 0.12188,0.35032 0.12188,0.35032v0.11787c0.31668,1.05146 0.87492,1.95976 1.41576,3.09349c0.47491,0.99552 0.96629,1.98012 1.46459,2.96196c1.29524,1.45437 2.80325,2.78409 4.02235,3.94814c4.56649,4.36236 8.83837,9.05394 13.35756,13.34346c1.13204,1.08075 2.31193,2.05388 3.53846,2.90891c5.03093,2.11328 10.03322,3.94733 15.55124,4.22717c0.01689,0.00339 0.03377,0.00676 0.05066,0.01012c5.6913,0 11.3826,0 17.0739,0c2.8293,0 5.64781,-0.02549 8.4635,-0.07691c1.37494,-0.30437 2.75595,-0.52639 4.20801,-0.4293c1.71462,-2.44477 5.27156,-1.75534 7.67579,-2.79349c3.15295,-1.36144 6.68618,-2.5319 9.73721,-4.00779c5.93183,-2.79835 8.08519,-8.55642 10.84513,-14.42166c1.46069,-3.09894 3.51329,-6.64007 4.53291,-9.8956c0.42342,-1.35195 0.75761,-2.93811 1.33372,-4.33184c0.20314,-1.33563 0.57868,-2.62344 1.33069,-3.82076c0,0 0.2613,-0.41602 0.65324,-0.13867c0.39194,0.27735 0.13065,0.69337 0.13065,0.69337c-0.18226,0.29019 -0.34069,0.58768 -0.47862,0.89149c0.06787,-0.01747 0.14556,-0.01995 0.22749,0.01028c0.03639,-0.00803 0.07655,-0.01246 0.12089,-0.01246c0.04842,0 0.09187,0.00528 0.13085,0.01477c0.03898,-0.00948 0.08243,-0.01476 0.13085,-0.01476c0.47106,0 0.47106,0.5 0.47106,0.5v0.83334c0,1.85721 -0.37903,3.64365 -0.92762,5.40284c-0.75988,3.69087 -2.08373,7.25083 -3.51433,10.79367c-0.38931,1.03047 -0.81889,2.07418 -1.28772,3.11705c-0.82413,2.88207 -1.91253,5.83416 -3.49376,7.27106c-0.35245,0.32028 -0.75062,0.62813 -1.17443,0.92599c-1.55791,2.15862 -3.31046,4.10909 -5.24513,5.67816c-2.26275,1.50293 -4.78633,2.41247 -7.40536,3.05786c-2.46434,0.78994 -5.13924,1.1664 -7.696,1.50292c-2.32743,0.72986 -4.75417,1.02805 -7.20844,1.13279c-0.77255,0.12521 -1.54437,0.2422 -2.31593,0.35072c-0.67261,0.15026 -1.33576,0.29489 -1.98499,0.42458c-1.15637,0.231 -2.42482,0.25929 -3.71072,0.21906c-2.68221,0.2271 -5.37613,0.34552 -8.10245,0.34552c-5.33905,0 -10.50815,0.15616 -15.72315,-0.55506c-0.85467,-0.00023 -1.70934,-0.00055 -2.564,-0.00098c-1.88298,-0.17438 -3.45082,-0.60231 -5.25124,-1.08032l-0.86893,-0.03064c0,0 -0.47075,-0.01807 -0.45372,-0.51775zM276.93631,178.10809c0.50512,-0.41097 0.99739,-0.84907 1.4766,-1.31096c-0.72906,0.63795 -1.47869,1.17508 -2.24131,1.57196c-0.1634,0.17372 -0.33116,0.341 -0.50303,0.50215c0.43108,-0.23536 0.85403,-0.48904 1.26775,-0.76315zM285.37478,161.45938c-2.87,6.08595 -5.14475,11.98207 -11.30516,14.88825c-3.11715,1.4397 -6.5863,2.65951 -9.78012,4.0267c-2.25042,0.96335 -5.11074,0.51401 -7.03281,2.16576c1.55534,-0.04611 3.11131,-0.10022 4.66926,-0.16239c3.37757,-1.64919 7.06904,-3.69009 10.66415,-4.73787c0.23311,-0.06794 0.54166,-0.11038 0.88633,-0.14557c1.41738,-0.6731 2.81462,-1.39042 4.17511,-2.20328c0.28989,-0.18824 0.57603,-0.37985 0.8581,-0.57503c0.31979,-0.20367 0.65645,-0.40896 1.00112,-0.61698c0.05761,-0.03971 0.11512,-0.07964 0.17256,-0.11981c0.2899,-0.42616 0.52385,-0.88694 0.98709,-1.42245c0.36882,-0.42636 0.74591,-0.8248 1.12356,-1.21911c1.30279,-1.87702 2.44393,-3.85262 3.3677,-5.55057c0.51244,-0.9419 0.55953,-2.10878 1.11275,-3.05917c0.38264,-0.64983 0.74747,-1.34226 1.09129,-2.0672c0.57481,-1.73114 1.0756,-3.53111 1.55088,-5.42294c0.23869,-0.95007 0.49522,-1.91564 0.72396,-2.8912c-1.12395,3.04631 -2.91013,6.23324 -4.26577,9.11286zM291.54535,146.91307c-0.00848,1.36686 -0.12857,2.80157 -0.34711,4.25614c0.02207,-0.06805 0.04389,-0.13614 0.06544,-0.20427c0.33998,-1.64687 0.56411,-3.321 0.62893,-5.03415c-0.14572,0.2106 -0.27777,0.43678 -0.39865,0.67471c0.06154,0.10638 0.06675,0.2156 0.0514,0.30757zM223.97512,183.74131c-0.24945,0 -0.49784,-0.004 -0.74514,-0.01193c-2.73607,-0.04139 -5.38438,-0.20208 -7.96887,-0.65767c1.59884,0.47239 3.42321,0.5526 4.97274,0.78788c1.05603,0.22385 2.10823,0.40363 3.15844,0.54783c1.81969,-0.00052 3.63938,-0.00063 5.45907,-0.00055c-1.30268,-0.31204 -2.59568,-0.66557 -3.93412,-0.66557c-0.31404,0 -0.62807,0 -0.94211,0zM206.75821,176.33863c-4.4973,-4.32183 -8.79047,-8.98053 -13.35778,-13.34368c-0.60204,-0.57539 -1.25899,-1.18204 -1.92332,-1.81895c0.57104,1.11813 1.13897,2.24304 1.68976,3.38671c0.37492,0.46891 0.76062,0.93149 1.15729,1.38775c2.2602,2.39858 4.13182,5.0669 6.31828,7.50189c2.09848,1.40498 4.42807,2.52376 6.88392,3.59691c-0.25848,-0.23161 -0.51453,-0.46852 -0.76814,-0.71063zM207.53713,179.47573c0.02199,0.01137 0.04399,0.02269 0.06599,0.03398c-0.03783,-0.02602 -0.07567,-0.05198 -0.11353,-0.07787c0.01587,0.0146 0.03171,0.02923 0.04754,0.04389zM186.06423,158.38616c0.33251,1.46502 2.51266,3.1054 3.2198,4.52623c1.87249,3.91182 4.77819,6.69117 8.00364,9.14484c-1.82198,-1.67706 -3.38885,-3.71304 -4.61169,-6.30899c-0.10257,-0.21774 -0.21105,-0.43832 -0.32462,-0.66153c-2.84618,-3.58697 -5.08504,-7.54022 -6.78687,-11.85523c0.02176,1.7818 0.11365,3.45355 0.49974,5.15469zM207.98851,178.32934c-0.37728,-0.16202 -0.75193,-0.3247 -1.12362,-0.4888c1.63333,1.03746 3.2228,2.27266 4.8131,3.34161c1.2606,0.39774 2.53114,0.69689 3.81733,0.9209c-1.73934,-0.69681 -3.40616,-1.60484 -4.99573,-2.70267c-0.83631,-0.35199 -1.67264,-0.71097 -2.51108,-1.07103zM275.11875,178.05669c-1.15985,0.54316 -2.35691,1.04709 -3.57263,1.53357c-1.45261,0.70374 -2.93444,1.38087 -4.43742,2.03088c0.83352,-0.1554 1.66305,-0.32615 2.48313,-0.52281c2.05519,-0.64603 3.96335,-1.58403 5.52692,-3.04164z" fill="#000000" stroke="none" stroke-width="0.5"/><path d="M215.30334,140.72542c0.18133,1.42477 0.38188,2.92069 0.55556,4.44425c0,1.73499 0,3.46998 0,5.20497c0.11086,1.71368 0.17875,3.42932 0.21964,5.1525c-0.05967,0.44721 -0.13241,0.88732 -0.21964,1.31898c0,0.18729 0,0.37457 0,0.56186l-0.14637,0.09758c-0.00464,0.01911 -0.0093,0.0382 -0.014,0.05727c0.16413,1.36668 0.3942,2.63082 0.1938,3.98216l-0.25565,0.08522c-0.20279,-0.19151 -0.36718,-0.45197 -0.50035,-0.76056c-0.00112,-0.92365 -0.00511,-1.84347 -0.01443,-2.76033l-0.263,-0.70134c0,-0.21317 0,-0.42633 0,-0.6395c-0.34179,-1.34857 0,-3.36496 0,-4.52717c0,-0.7558 -0.00901,-1.50733 -0.0262,-2.25585c-0.04607,-0.66575 -0.09895,-1.33128 -0.15961,-1.99694c0.04331,0.29755 0.08616,0.59495 0.12832,0.89233c-0.02979,-0.8863 -0.07056,-1.76923 -0.12095,-2.65089c-0.08203,-0.01617 -0.14621,-0.04843 -0.19644,-0.089c-0.05546,-0.48687 -0.11556,-0.97398 -0.18068,-1.46145c0,-0.41669 0,-0.83337 0,-1.25006c-0.0116,0.32779 -0.02366,0.65549 -0.03616,0.98312c-0.12569,-0.91527 -0.26929,-1.83193 -0.43332,-2.75086c-0.00814,0.10764 -0.01635,0.21527 -0.02462,0.3229c0.01776,0.13395 0.03559,0.26791 0.0535,0.40188c0.12039,0.90032 0.2486,1.7926 0.37894,2.68004c-0.05924,1.48808 -0.12666,2.97533 -0.19812,4.4649c-0.03543,-0.2217 -0.07187,-0.44335 -0.10906,-0.66496c0.02478,0.5051 0.04788,1.01179 0.06771,1.51877c-0.07741,1.58415 -0.15848,3.17161 -0.23821,4.76621c-0.03328,0.66551 -0.06213,1.32816 -0.08392,1.99065c-0.00229,0.32984 -0.01013,0.65882 -0.02689,0.98646c-0.00894,0.41977 -0.01453,0.84002 -0.01608,1.26144c-0.01685,0.09772 -0.03429,0.19509 -0.05232,0.2921l-0.1128,0.1128c-0.07915,0.44526 -0.18648,0.8864 -0.33096,1.32219l-0.01477,-0.01805l-0.4896,-1.46881c0,-0.0855 0.00017,-0.17095 0.0005,-0.25636c-0.08191,-0.32401 -0.12529,-0.68472 -0.14375,-1.06277c-0.05332,0.18909 -0.11234,0.36788 -0.17792,0.53151c-0.10712,-0.66674 -0.19453,-1.341 -0.26517,-2.02131c-0.14407,0.93724 -0.27554,1.8782 -0.3581,2.83003c0,0.01858 0,0.03717 0,0.05575c-0.00166,0.00093 -0.00331,0.00186 -0.00498,0.00278c-0.08746,1.05618 -0.0479,2.14745 0.00498,3.24509c0,1.4909 0,2.98179 0,4.47269c-0.04241,0.36301 -0.10149,0.72217 -0.18179,1.07631l-0.31821,0.07071c-0.25103,-0.16735 -0.40702,-0.44593 -0.5,-0.78757c0,-1.14488 0,-2.28977 0,-3.43465c0,-1.56574 0.11805,-3.11525 0.27718,-4.65785c-0.08828,-0.0431 -0.1806,-0.10068 -0.27718,-0.17392c0,-5.87089 0,-11.74178 0,-17.61267c0,-6.0241 0,-12.0482 0,-18.0723c-0.07226,-0.65705 -0.14478,-1.31416 -0.2178,-1.97136c-0.14527,-1.30739 -0.27113,-2.61292 -0.37879,-3.9179c-0.03826,-2.5242 -0.10806,-5.04666 -0.22856,-7.577c-0.03116,-0.65445 -0.18333,-1.57387 -0.26131,-2.4962c-0.00893,-0.53043 -0.01538,-1.06133 -0.01944,-1.59279c0.05505,-0.57934 0.20208,-1.08477 0.50669,-1.42815l0.32659,0.03727c0.0571,0.19041 0.11118,0.38307 0.16238,0.57781c0.00584,1.88565 0.04138,3.76338 0.11025,5.63737c0,-1.36188 0,-2.72376 0,-4.08564c0,-0.39734 -0.03995,-0.89452 -0.07888,-1.43072c0.05084,0.19886 0.09874,0.39986 0.14383,0.60284c-0.03636,-1.22607 -0.05692,-2.45949 -0.06301,-3.7069c0.09994,-0.39062 0.2576,-0.72476 0.49806,-0.96522l0.29112,0.09704c0.11095,0.5451 0.17804,1.09833 0.21666,1.65642c0.00748,0.75341 0.02041,1.50204 0.03911,2.24742c-0.01471,0.83551 -0.0469,1.67208 -0.0469,2.49912c0,3.47073 0,6.94147 0,10.4122c-0.03727,-0.31487 -0.07446,-0.62974 -0.11154,-0.94464c-0.06678,-0.56714 -0.12941,-1.13156 -0.18801,-1.69391c-0.03265,1.31125 -0.08841,2.6139 -0.13957,3.8785c0.06633,0.69378 0.138,1.38792 0.2152,2.08264c0.07508,0.67576 0.14964,1.35143 0.22392,2.02703c0,3.03209 0,6.06418 0,9.09627c-0.189,-1.66273 -0.37294,-3.32539 -0.55556,-4.98825c0,5.71005 0,11.4201 0,17.13015c0,3.11109 0.00624,6.22225 0,9.33333c-0.00145,0.72356 0.12143,1.39318 0.20374,2.08555c0.13628,-1.17169 0.2649,-2.3432 0.35182,-3.51865c0,1.56209 0,3.12418 0,4.68627c0.0867,-0.72207 0.14955,-1.46773 0.23521,-2.19593c-0.09979,-1.40206 -0.1383,-2.825 -0.14039,-4.25628c0.01059,-0.34053 0.0163,-0.68156 0.0163,-1.02318c0,-0.29053 0,-0.58106 0,-0.8716c0.06187,-3.53229 0.27778,-7.08168 0.27778,-10.46174c0,-0.85618 0,-1.71237 0,-2.56855c-0.09418,-0.79303 -0.18664,-1.58601 -0.27778,-2.37895c0,-1.44343 0,-2.88685 0,-4.33028c0,-1.47649 0.01271,-2.95241 0.03267,-4.42795c0.08173,0.74578 0.16332,1.49149 0.2451,2.23715c0,-1.87765 0,-3.75531 0,-5.63296c-0.0542,-0.45278 -0.10833,-0.90556 -0.16235,-1.35836c0.0548,-2.75925 0.11455,-5.51784 0.14362,-8.27696c0.00616,0.08228 0.0124,0.16458 0.01873,0.2469c0,-3.08222 0,-6.16444 0,-9.24666c-0.00332,-0.18306 -0.01635,-0.43434 0,-0.68928c0,-0.54322 0,-1.08644 0,-1.62965c0,0 0,-0.5 0.5,-0.5c0.26568,0 0.39019,0.14117 0.44854,0.27349l0.10702,-0.27349c0.12831,0.38494 0.22826,0.77529 0.30566,1.16981l0.19434,0.10797c0,0.01638 0,0.03276 0,0.04915c0.68101,0.5732 0.82805,2.05174 0.83333,2.67308c0.02031,2.38791 0.01034,4.77662 0.00395,7.16498c0.08069,0.8531 0.10715,1.72779 0.19007,2.59842c0.0195,0.20476 0.03853,0.40929 0.05709,0.61361c-0.0404,-2.50985 -0.01547,-5.01712 0.25467,-7.4567c0.08036,-0.72574 0.01713,-2.68798 0.43854,-3.55498c0.00008,-0.02918 0.00013,-0.05836 0.00013,-0.08756l0.5,-1.33333c0.18588,0.40332 0.29567,0.81574 0.35219,1.23479l0.14781,0.09854c0,3.28516 -0.54489,6.50011 -0.56368,9.74134c-0.00573,0.79631 -0.03239,1.59091 -0.07505,2.38419c0.03227,2.05697 0.08317,4.11306 0.08317,6.15224c0,6.98148 0,13.96296 0,20.94444c0,0.80945 0,1.61891 0,2.42836c0.39685,3.48131 0.65337,7.10689 0.21964,10.35747c0.04665,1.96622 0.05814,3.94226 0.05814,5.9364l-0.24435,0.08145c-0.05259,0.35459 -0.13481,0.71519 -0.25565,1.08522l-0.5,-1.16667c0,-0.19815 -0.00011,-0.39611 -0.00035,-0.59389c-0.65577,-1.51958 -0.55466,-4.2062 -0.55521,-5.57277c-0.00078,-1.93429 -0.23174,-3.85196 -0.53754,-5.76546c-0.01365,0.28451 -0.02744,0.56911 -0.04135,0.85381c0.12087,3.09069 0.11997,6.19177 -0.3651,9.00475c-0.0003,0.08003 -0.00045,0.16011 -0.00045,0.24023l-0.05187,0.05187c-0.09813,0.52784 -0.214,1.04502 -0.35007,1.54953l-0.09369,-0.11454c-0.00145,0.00438 -0.00291,0.00876 -0.00437,0.01314l-0.0104,-0.03119l-0.75767,-0.9263c-0.00267,-0.35227 -0.00534,-0.70455 -0.00801,-1.05682c-0.01541,-0.09096 -0.03043,-0.18206 -0.04509,-0.2733c-0.16298,0.40667 -0.36642,0.7197 -0.62328,0.86447c0,0.91883 0,1.83765 0,2.75648c0,0.1638 0,0.3276 0,0.49139c0.07243,1.50354 0.16984,3.01904 0,4.47269c0,0.34531 0,0.69061 0,1.03592l-0.18179,0.0404c-0.0822,0.36256 -0.18665,0.71988 -0.31821,1.07071l-0.5,-1.11111c0,-0.22549 0,-0.45097 0,-0.67646c-0.27441,-1.00827 0,-2.56583 0,-3.43465c0,-0.62963 0,-1.25926 0,-1.88889c0,-0.98096 0,-1.96192 0,-2.94288c-0.05939,-0.04504 -0.12039,-0.096 -0.18304,-0.15316c-0.37955,-0.34626 -0.07336,-2.45167 -0.14616,-2.9713c-0.51948,-3.70827 -0.22635,-7.61961 -0.22635,-11.3771c0,-7 0,-14 0,-21c0,-2.02864 -0.0104,-4.05121 -0.04104,-6.07267c-0.27669,-3.35376 -0.43318,-6.70395 -0.48987,-10.0732c-0.04636,-0.54825 -0.0665,-1.09753 -0.01944,-1.59279c-0.00349,-0.45705 -0.00521,-0.91451 -0.00521,-1.37245l0.48811,-1.05541c0.12781,0.3373 0.24431,0.68327 0.35038,1.03698l0.14883,0.01698c-0.04709,-0.84629 -0.0528,-1.72439 0.12573,-2.42223c-0.0013,-0.26553 -0.00194,-0.53169 -0.00194,-0.79855l0.5,-1.16667c0.12042,0.36125 0.21586,0.72728 0.29112,1.09704l0.20888,0.06963c0,0.53162 0.00256,1.06037 0.00778,1.58679c0.05142,0.74311 0.05236,1.49484 0.03911,2.24742c0.05508,2.19495 0.16018,4.36179 0.32326,6.54003c0.01105,-1.04825 0.01766,-2.09658 0.0179,-3.14506c0.00043,-1.90668 -0.05423,-3.82334 0.00083,-5.72919c0.00106,-0.0367 0.00085,-0.0789 0,-0.12551c0,-0.22976 0,-0.45952 0,-0.68928c0.03004,-0.4683 0.15922,-0.94895 0.6299,-1.04185l0.31864,-0.81431c0.05146,0.1167 0.05146,0.22651 0.05146,0.22651c0,0.18628 0,0.37256 0,0.55884c0.01801,-0.02019 0.03652,-0.03981 0.05556,-0.05884l0.30566,0.16981c0.00197,0.01002 0.00392,0.02005 0.00586,0.03008c0.06697,0.03485 0.12971,0.07757 0.18848,0.12703c0,2.05769 0,4.11538 0,6.17308v0.05564c0.02293,0.04211 0.04524,0.52404 0.06695,0.56649c0.02686,-0.89963 0.02727,-1.79677 -0.02959,-2.66218c-0.01588,0.68253 -0.03736,1.36447 -0.03736,2.04005v13c0,0.96059 -0.0012,1.9197 0,2.87751c0,0.88286 0,1.8134 0,2.69626c0.00446,0.03731 0.00891,0.03406 0.01336,0.07137c0.00047,0.04867 0.00095,0.09734 0.00144,0.146c0.00253,-0.02334 0.00508,-0.04668 0.00762,-0.07002c0.04673,0.39161 0.09337,0.78322 0.1399,1.17485c-0.00768,1.28946 -0.01535,2.57891 -0.02303,3.86837c0.0742,1.69813 0.18746,3.39388 0.36015,5.08839c-0.02516,0.67139 -0.05782,1.34179 -0.09603,2.01143c-0.00936,-0.08854 -0.01878,-0.17713 -0.02825,-0.26577c-0.08582,-0.80327 -0.17332,-1.60634 -0.26222,-2.40926c-0.00988,1.66025 -0.01976,3.32051 -0.02965,4.98076c-0.00019,0.03184 -0.00038,0.06367 -0.00057,0.09551c-0.02832,-0.16755 -0.0559,-0.33511 -0.08275,-0.50267c0,0.05329 0,0.10901 0,0.1623c0.02685,0.20826 0.05387,0.41454 0.08107,0.62282c-0.00399,0.67068 -0.00798,1.34137 -0.01198,2.01205c-0.00873,0.10915 -0.01748,0.21829 -0.02624,0.32743c0.00643,0.18439 0.01346,0.36972 0.02099,0.55591c-0.0064,1.07475 -0.01279,2.1495 -0.01919,3.22426c-0.06965,-0.3918 -0.14003,-0.78361 -0.2098,-1.17555c-0.21252,2.73493 -0.3922,5.47245 -0.4035,8.22906c-0.03687,0.22341 -0.07193,0.59896 -0.11837,1.05053c-0.06274,0.61005 -0.14624,1.35884 -0.28305,2.05873c0.02284,-0.82242 0.05735,-1.64413 0.09865,-2.47008c0.02601,-0.52023 0.05217,-1.03968 0.07829,-1.5585c0.14496,-2.87858 -0.03729,-1.03319 0,0c0.14496,-2.87858 0.28901,-5.7375 0.40237,-8.59983c-0.09019,-0.52944 -0.1766,-1.05931 -0.25595,-1.58989c-0.04156,-0.27788 -0.18819,-1.35912 -0.18896,-1.36499c0.00078,-0.00995 0.00155,-0.01991 0.00233,-0.02986c0.10815,-1.38714 0.20686,-2.77579 0.27778,-4.16803c0,0.33549 0,0.67098 0,1.00647c0,1.49313 -0.0407,3.01692 -0.09114,4.55641c-0.04156,-0.27788 -0.08118,-0.55596 -0.1184,-0.83426c-0.02287,-0.17104 -0.04562,-0.34208 -0.06823,-0.51311c0,2.7007 0,5.40139 0,8.10209c-0.00092,0.10562 -0.00168,0.21122 -0.00227,0.31679c-0.01197,0.78089 -0.07034,1.55349 -0.15539,2.32167c0.01535,-3.18702 0.03906,-6.37406 0.05999,-9.56105c0.03226,-0.39895 0.06419,-0.79797 0.09534,-1.19711c-0.02809,-0.21247 -0.05598,-0.42492 -0.08368,-0.63737c0.00091,-0.14855 0.0018,-0.29711 0.00269,-0.44566c0.01479,-2.48409 0.02957,-4.96819 0.04436,-7.45228c0.01296,0.11316 0.02595,0.22632 0.03897,0.33947c0.09113,0.79228 0.31092,2.65535 0.32758,2.79455c-0.01719,-0.17144 -0.03378,-0.34289 -0.0498,-0.51435c-0.12374,-1.32446 -0.21317,-2.64976 -0.27778,-3.97644c0,0.56541 0,1.13083 0,1.69624c0.09113,0.79228 0.18359,1.58458 0.27778,2.37695c0,0.54034 0,1.08067 0,1.62101c0.01992,-0.39102 0.03764,-0.78232 0.05276,-1.17395c-0.00099,-0.00982 -0.00198,-0.01964 -0.00296,-0.02946c0.00103,0.00863 0.00207,0.01726 0.0031,0.02589c0.03684,-0.955 0.05821,-1.91196 0.05821,-2.87156c0,-0.75005 0.01922,-1.49874 0.05353,-2.2464c-0.05459,-0.47022 -0.10949,-0.9404 -0.16464,-1.41056c-0.09014,-0.76836 -0.05386,-8.8985 0,-8.4486c0,2.8162 0,5.6324 0,8.4486c-0.09014,-0.76836 -0.18096,-1.53664 -0.27223,-2.30486c-0.00359,0.57979 -0.00555,1.15965 -0.00555,1.7396c0,0.85904 0,1.71807 0,2.57711c-0.00966,-0.19839 -0.01877,-0.3968 -0.02735,-0.59525c0.00755,-1.2692 0.01511,-2.5384 0.02266,-3.80759c-0.04897,-0.41201 -0.09806,-0.82401 -0.14724,-1.236c-0.18949,-1.58741 -0.38029,-3.17467 -0.5703,-4.76203c0,-1.09578 0,-2.19156 0,-3.28735c0,-2.03369 0,-4.06739 0,-6.10108c0.12865,1.67403 0.29169,3.35566 0.49271,5.06281c0.02092,0.17762 0.04186,0.35523 0.06284,0.53284c0,-1.67762 0,-14.51647 0,-16.19409c0.08866,-0.34981 0.22331,-0.149 0.42185,-0.38238c0.00747,0.00107 0.01501,0.0022 0.02259,0.0034c0,0.39502 0,0.79005 0,1.18507c-0.02125,-0.05949 -0.04315,-0.11852 -0.06571,-0.17707c-0.22169,-0.57524 0.06571,1.23179 0.06571,1.84826c0,1.41913 -0.00039,2.83825 -0.00073,4.25738l0.00073,-0.00197c0,3.32227 0,6.64455 0,9.96682c0,1.07593 0,2.15185 0,3.22778c0.1295,1.08173 0.25935,2.16342 0.38889,3.24513c0,-3.67616 0,-7.35231 0,-11.02847c0,-0.31075 0.00623,-0.63102 0.01674,-0.95895c-0.24927,-1.43865 -0.57677,-3.26778 0.00633,-4.15838l0.19489,0.0825c0.00587,-0.15136 0.01114,-0.30279 0.01566,-0.45415c0.48455,0.94747 0.66965,1.97836 0.77033,3.04286c-0.00218,0.81543 -0.00395,1.63082 -0.00395,2.44613c0,1.85627 0,3.71254 0,5.56881c0.11432,-1.11333 0.21245,-2.22814 0.28061,-3.34546c-0.01141,-0.4856 -0.02168,-0.97157 -0.0295,-1.45745c0.02328,0.25623 0.04582,0.51214 0.06763,0.76777c0.03507,-0.70976 0.05692,-1.42063 0.06205,-2.13286c0.02734,-3.21609 0.55417,-6.39018 0.56353,-9.64659c0.12145,-0.24986 0.28314,-0.40876 0.50013,-0.42089l0.35219,0.23479c0.20997,1.55686 -0.3153,3.2052 -0.40512,4.81799c-0.13651,2.45132 -0.12466,4.92934 -0.0858,7.40609c-0.11279,2.09735 -0.33742,4.1854 -0.58289,6.27095c0.07465,1.93017 0.11051,3.86569 0.11051,5.82574c0,4.32804 0,8.65607 0,12.98411zM211.69223,152.91932c0.04344,-0.58749 0.07646,-1.17596 0.09481,-1.76594c-0.00092,-0.63033 0.00522,-1.26228 0.0163,-1.89478c0,-5.13641 0,-10.27282 0,-15.40924c-0.03725,-0.32406 -0.07428,-0.64812 -0.11111,-0.97218c0,3.01026 0,6.02053 0,9.03079c0,3.67045 0,7.3409 0,11.01135zM211.69223,123.78091c0.04802,0.43677 0.09593,0.87351 0.14379,1.31022c0.02145,-1.58509 0.05128,-3.16975 0.08275,-4.75418c-0.07578,-0.63519 -0.15134,-1.27041 -0.22654,-1.90567c0,0.82556 0,1.65112 0,2.47669c0,0.95765 0,1.91529 0,2.87294zM214.30334,144.67949c-0.01188,-0.08897 -0.02394,-0.17795 -0.03616,-0.26694c-0.00831,0.21801 -0.01681,0.43599 -0.02549,0.65395c0.0205,0.13959 0.04106,0.27906 0.06165,0.41843c0,-0.20579 0,-0.59965 0,-0.80544zM210.58125,105.12138c0.00014,0.11536 0.00038,0.23069 0.00074,0.34598c0.01058,0.04025 0.02104,0.08058 0.03137,0.121c-0.0111,-0.15296 -0.02212,-0.30909 -0.03211,-0.46699zM214.38298,146.02277c0.09741,0.65685 0.19489,1.31166 0.29011,1.96574c-0.05611,-0.61566 -0.11887,-1.23142 -0.18906,-1.84757c-0.04318,-0.03488 -0.07604,-0.07592 -0.10105,-0.11817z" fill="#000000" stroke="none" stroke-width="0.5"/><path d="M262.20533,128.88714c0,-1.96005 0.03586,-3.89557 0.11051,-5.82574c-0.24547,-2.08555 -0.4701,-4.1736 -0.58289,-6.27095c0.03886,-2.47674 0.05072,-4.95477 -0.0858,-7.40609c-0.08982,-1.61279 -0.61509,-3.26113 -0.40512,-4.81799l0.35218,-0.23479c0.21699,0.01213 0.37868,0.17103 0.50013,0.42089c0.00936,3.25641 0.53619,6.4305 0.56353,9.64659c0.00513,0.71223 0.02698,1.42309 0.06205,2.13286c0.02181,-0.25562 0.04435,-0.51153 0.06763,-0.76776c-0.00782,0.48588 -0.01809,0.97185 -0.0295,1.45745c0.06816,1.11732 0.16629,2.23213 0.28061,3.34546c0,-1.85627 0,-3.71255 0,-5.56882c0,-0.8153 -0.00177,-1.63069 -0.00394,-2.44612c0.10068,-1.0645 0.28578,-2.09539 0.77033,-3.04286c0.00452,0.15136 0.00979,0.30279 0.01566,0.45415l0.19489,-0.08249c0.58311,0.8906 0.25561,2.71974 0.00633,4.15838c0.0105,0.32792 0.01673,0.6482 0.01673,0.95895c0,3.67615 0,7.35231 0,11.02847c0.12954,-1.08172 0.25939,-2.16341 0.38889,-3.24514c0,-1.07593 0,-2.15185 0,-3.22778c0,-3.32228 0,-6.64454 0,-9.96682l0.00072,0.00198c-0.00034,-1.41912 -0.00072,-2.83825 -0.00072,-4.25737c0,-0.61647 0.2874,-2.4235 0.06571,-1.84826c-0.02256,0.05854 -0.04446,0.11758 -0.06571,0.17707c0,-0.39503 0,-0.79005 0,-1.18507c0.00758,-0.0012 0.01511,-0.00234 0.02259,-0.00341c0.19854,0.23337 0.33319,0.03257 0.42185,0.38238c0,1.67762 0,14.51647 0,16.19409c0.02098,-0.17761 0.04192,-0.35522 0.06284,-0.53284c0.20103,-1.70714 0.36407,-3.38878 0.49272,-5.06281c0,2.03369 0,4.06739 0,6.10108c0,1.09578 0,2.19156 0,3.28735c-0.19001,1.58736 -0.38081,3.17462 -0.57031,4.76203c-0.04918,0.41199 -0.09827,0.82399 -0.14723,1.236c0.00755,1.2692 0.01511,2.53839 0.02266,3.80759c-0.00858,0.19845 -0.01769,0.39686 -0.02735,0.59525c0,-0.85904 0,-1.71807 0,-2.57711c0,-0.57995 -0.00196,-1.15982 -0.00555,-1.7396c-0.09126,0.76823 -0.18209,1.53651 -0.27222,2.30487c0,-2.8162 0,-5.6324 0,-8.4486c0.05386,-0.4499 0.09014,7.68024 0,8.4486c-0.05516,0.47016 -0.11005,0.94033 -0.16465,1.41055c0.03431,0.74766 0.05353,1.49636 0.05353,2.24641c0,0.95961 0.02138,1.91656 0.05822,2.87156c0.00104,-0.00863 0.00207,-0.01725 0.0031,-0.02588c-0.00099,0.00982 -0.00197,0.01964 -0.00296,0.02946c0.01513,0.39163 0.03285,0.78293 0.05277,1.17395c0,-0.54033 0,-1.08067 0,-1.621c0.09419,-0.79237 0.18664,-1.58468 0.27778,-2.37696c0,-0.56542 0,-1.13082 0,-1.69624c-0.06461,1.32668 -0.15404,2.65198 -0.27778,3.97644c-0.01602,0.17147 -0.03262,0.34292 -0.0498,0.51435c0.01665,-0.1392 0.23645,-2.00228 0.32758,-2.79455c0.01301,-0.11316 0.026,-0.22631 0.03897,-0.33947c0.01478,2.48409 0.02957,4.96819 0.04435,7.45228c0.00089,0.14855 0.00179,0.29711 0.00269,0.44566c-0.0277,0.21245 -0.0556,0.4249 -0.08369,0.63737c0.03116,0.39915 0.06308,0.79816 0.09535,1.19711c0.02093,3.187 0.04463,6.37404 0.05999,9.56106c-0.08505,-0.76818 -0.14342,-1.54078 -0.15539,-2.32167c-0.00059,-0.10557 -0.00135,-0.21116 -0.00227,-0.31679c0,-2.70069 0,-5.40139 0,-8.10209c-0.02262,0.17103 -0.04536,0.34207 -0.06823,0.51311c-0.03722,0.2783 -0.07684,0.55638 -0.1184,0.83426c-0.05044,-1.53949 -0.09114,-3.06328 -0.09114,-4.55641c0,-0.33549 0,-0.67098 0,-1.00647c0.07092,1.39224 0.16963,2.78088 0.27778,4.16803c0.00077,0.00995 0.00155,0.01991 0.00233,0.02986c-0.00078,0.00588 -0.1474,1.08711 -0.18896,1.36499c-0.07935,0.53058 -0.16576,1.06045 -0.25595,1.58989c0.11336,2.86232 0.2574,5.72125 0.40236,8.59983c0.03729,-1.03319 -0.14496,-2.87858 0,0c0.02613,0.51881 0.05228,1.03827 0.07829,1.55849c0.0413,0.82595 0.07581,1.64767 0.09865,2.47009c-0.1368,-0.69989 -0.22031,-1.44869 -0.28305,-2.05873c-0.04644,-0.45157 -0.08149,-0.82711 -0.11836,-1.05052c-0.0113,-2.75661 -0.19099,-5.49413 -0.4035,-8.22906c-0.06977,0.39194 -0.14015,0.78376 -0.2098,1.17555c-0.00639,-1.07475 -0.0128,-2.14951 -0.01919,-3.22426c0.00753,-0.18618 0.01455,-0.37151 0.02099,-0.5559c-0.00876,-0.10914 -0.01752,-0.21828 -0.02625,-0.32743c-0.00399,-0.67068 -0.00799,-1.34136 -0.01198,-2.01205c0.0272,-0.20828 0.05423,-0.41456 0.08107,-0.62283c0,-0.05329 0,-0.10901 0,-0.16231c-0.02686,0.16756 -0.05444,0.33512 -0.08276,0.50268c-0.00019,-0.03184 -0.00038,-0.06367 -0.00057,-0.09551c-0.00988,-1.66026 -0.01976,-3.3205 -0.02965,-4.98076c-0.0889,0.80292 -0.1764,1.60599 -0.26222,2.40926c-0.00947,0.08864 -0.01889,0.17723 -0.02825,0.26577c-0.03821,-0.66964 -0.07087,-1.34004 -0.09602,-2.01144c0.17269,-1.69451 0.28595,-3.39026 0.36015,-5.08839c-0.00767,-1.28946 -0.01535,-2.57891 -0.02302,-3.86837c0.04653,-0.39163 0.09317,-0.78324 0.1399,-1.17485c0.00254,0.02334 0.00509,0.04668 0.00762,0.07002c0.0005,-0.04866 0.00098,-0.09733 0.00144,-0.146c0.00446,-0.03732 0.00891,-0.03405 0.01337,-0.07137c0,-0.88286 0,-1.8134 0,-2.69626c0.00119,-0.95782 0,-1.91692 0,-2.87751v-13c0,-0.67558 -0.02148,-1.35753 -0.03737,-2.04006c-0.05686,0.8654 -0.05644,1.76255 -0.02958,2.66218c0.02171,-0.04245 0.04402,-0.52438 0.06695,-0.56649v-0.05564c0,-2.05769 0,-4.11539 0,-6.17307c0.05876,-0.04946 0.12151,-0.09219 0.18848,-0.12704c0.00194,-0.01003 0.00389,-0.02005 0.00585,-0.03008l0.30566,-0.16981c0.01904,0.01904 0.03755,0.03865 0.05556,0.05884c0,-0.18628 0,-0.37256 0,-0.55884c0,0 0,-0.10981 0.05146,-0.22651l0.31864,0.81431c0.47067,0.09291 0.59986,0.57356 0.6299,1.04185c0,0.22976 0,0.45952 0,0.68928c-0.00085,0.04662 -0.00106,0.08881 0,0.12552c0.05507,1.90585 0.00041,3.82251 0.00083,5.72919c0.00023,1.04847 0.00685,2.09681 0.0179,3.14506c0.16308,-2.17824 0.26818,-4.34508 0.32326,-6.54004c-0.01325,-0.75258 -0.01231,-1.50431 0.03911,-2.24742c0.00522,-0.52642 0.00778,-1.05517 0.00778,-1.58679l0.20889,-0.06963c0.07526,-0.36977 0.1707,-0.73579 0.29111,-1.09704l0.5,1.16667c0,0.26686 -0.00064,0.53301 -0.00194,0.79854c0.17854,0.69783 0.17282,1.57594 0.12573,2.42223l0.14884,-0.01698c0.10607,-0.35371 0.22257,-0.69969 0.35038,-1.03699l0.48811,1.05541c0,0.45794 -0.00172,0.9154 -0.00521,1.37245c0.04706,0.49526 0.02692,1.04454 -0.01944,1.59279c-0.05669,3.36925 -0.21318,6.71944 -0.48987,10.0732c-0.03064,2.02146 -0.04104,4.04403 -0.04104,6.07267c0,7 0,14 0,21c0,3.75749 0.29313,7.66883 -0.22636,11.3771c-0.0728,0.51963 0.23338,2.62505 -0.14616,2.97131c-0.06265,0.05716 -0.12365,0.10812 -0.18304,0.15315c0,0.98096 0,1.96192 0,2.94288c0,0.62963 0,1.25926 0,1.88889c0,0.86882 0.27441,2.42638 0,3.43465c0,0.22548 0,0.45097 0,0.67646l-0.5,1.11111c-0.13157,-0.35083 -0.236,-0.70815 -0.31821,-1.07071l-0.18179,-0.0404c0,-0.3453 0,-0.69061 0,-1.03591c-0.16984,-1.45365 -0.07243,-2.96916 0,-4.47269c0,-0.1638 0,-0.3276 0,-0.4914c0,-0.91882 0,-1.83765 0,-2.75648c-0.25685,-0.14477 -0.4603,-0.45781 -0.62328,-0.86447c-0.01466,0.09124 -0.02969,0.18234 -0.04509,0.2733c-0.00267,0.35227 -0.00534,0.70454 -0.00801,1.05682l-0.75767,0.92631l-0.0104,0.03119c-0.00146,-0.00438 -0.00292,-0.00876 -0.00437,-0.01314l-0.09369,0.11454c-0.13607,-0.5045 -0.25194,-1.02168 -0.35007,-1.54953l-0.05187,-0.05188c0,-0.08012 -0.00015,-0.16019 -0.00045,-0.24022c-0.48507,-2.81298 -0.48597,-5.91407 -0.3651,-9.00476c-0.01391,-0.28471 -0.0277,-0.5693 -0.04136,-0.85381c-0.3058,1.9135 -0.53676,3.83117 -0.53754,5.76546c-0.00055,1.36658 0.10056,4.05319 -0.55521,5.57278c-0.00024,0.19779 -0.00035,0.39574 -0.00035,0.59389l-0.5,1.16666c-0.12083,-0.37003 -0.20307,-0.73062 -0.25565,-1.08521l-0.24435,-0.08145c0,-1.99413 0.01148,-3.97017 0.05813,-5.9364c-0.43372,-3.25058 -0.1772,-6.87615 0.21964,-10.35746c0,-0.80946 0,-1.6189 0,-2.42836c0,-6.98148 0,-13.96296 0,-20.94445c0,-2.03919 0.0509,-4.09528 0.08317,-6.15225c-0.04266,-0.79327 -0.06932,-1.58788 -0.07505,-2.38419c-0.01879,-3.24124 -0.56368,-6.45618 -0.56368,-9.74135l0.14782,-0.09854c0.05651,-0.41905 0.1663,-0.83147 0.35218,-1.23479l0.5,1.33333c0,0.02919 0.00004,0.05838 0.00013,0.08756c0.42141,0.86701 0.35818,2.82925 0.43854,3.55499c0.27014,2.43957 0.29506,4.94684 0.25467,7.45669c0.01856,-0.20432 0.0376,-0.40885 0.0571,-0.61361c0.08292,-0.87064 0.10938,-1.74532 0.19007,-2.59842c-0.00639,-2.38836 -0.01636,-4.77707 0.00394,-7.16499c0.00529,-0.62134 0.15232,-2.09988 0.83333,-2.67307c0,-0.01638 0,-0.03277 0,-0.04915l0.19434,-0.10796c0.0774,-0.39453 0.17735,-0.78487 0.30566,-1.16981l0.10702,0.27349c0.05835,-0.13232 0.18286,-0.27349 0.44854,-0.27349c0.5,0 0.5,0.5 0.5,0.5c0,0.54322 0,1.08643 0,1.62965c0.01635,0.25494 0.00332,0.50622 0,0.68928c0,3.08222 0,6.16443 0,9.24666c0.00632,-0.08231 0.01257,-0.16461 0.01873,-0.24689c0.02907,2.75911 0.08882,5.5177 0.14362,8.27695c-0.05402,0.4528 -0.10815,0.90559 -0.16235,1.35837c0,1.87766 0,3.75531 0,5.63296c0.08178,-0.74566 0.16337,-1.49137 0.2451,-2.23715c0.01997,1.47554 0.03268,2.95146 0.03268,4.42795c0,1.44342 0,2.88686 0,4.33028c-0.09114,0.79295 -0.1836,1.58592 -0.27778,2.37895c0,0.85619 0,1.71236 0,2.56855c0,3.38005 0.2159,6.92944 0.27778,10.46174c0,0.29053 0,0.58106 0,0.87159c0,0.34163 0.00571,0.68266 0.0163,1.02319c-0.0021,1.43128 -0.04061,2.85422 -0.1404,4.25628c0.08565,0.72821 0.14851,1.47386 0.2352,2.19593c0,-1.56209 0,-3.12418 0,-4.68627c0.08691,1.17545 0.21555,2.34696 0.35182,3.51865c0.08231,-0.69237 0.20519,-1.36199 0.20374,-2.08555c-0.00624,-3.11108 0,-6.22225 0,-9.33334c0,-5.71005 0,-11.4201 0,-17.13015c-0.18262,1.66286 -0.36655,3.32551 -0.55556,4.98825c0,-3.03209 0,-6.06418 0,-9.09627c0.07428,-0.67559 0.14884,-1.35126 0.22393,-2.02703c0.07719,-0.69472 0.14886,-1.38886 0.21519,-2.08264c-0.05116,-1.2646 -0.10691,-2.56724 -0.13957,-3.8785c-0.0586,0.56234 -0.12123,1.12678 -0.18801,1.69391c-0.03708,0.31489 -0.07427,0.62977 -0.11154,0.94463c0,-3.47074 0,-6.94147 0,-10.4122c0,-0.82704 -0.03219,-1.66361 -0.04689,-2.49912c0.0187,-0.74538 0.03164,-1.49401 0.03911,-2.24742c0.03862,-0.55809 0.10572,-1.11132 0.21667,-1.65642l0.29111,-0.09704c0.24046,0.24046 0.39813,0.5746 0.49806,0.96522c-0.00609,1.24741 -0.02665,2.48084 -0.06301,3.70691c0.04509,-0.20297 0.09298,-0.40398 0.14383,-0.60284c-0.03893,0.5362 -0.07888,1.03338 -0.07888,1.43072c0,1.36188 0,2.72377 0,4.08564c0.06887,-1.87399 0.10442,-3.75172 0.11025,-5.63737c0.0512,-0.19475 0.10528,-0.38741 0.16238,-0.57782l0.32659,-0.03727c0.30461,0.34338 0.45163,0.8488 0.50668,1.42815c-0.00406,0.53146 -0.01051,1.06236 -0.01944,1.59279c-0.07799,0.92233 -0.23015,1.84175 -0.26131,2.4962c-0.1205,2.53034 -0.1903,5.05281 -0.22856,7.57701c-0.10766,1.30498 -0.23353,2.6105 -0.37879,3.91789c-0.07302,0.6572 -0.14554,1.31431 -0.2178,1.97137c0,6.0241 0,12.0482 0,18.0723c0,5.87089 0,11.74178 0,17.61267c-0.09658,0.07324 -0.1889,0.13081 -0.27718,0.17392c0.15914,1.54261 0.27718,3.09212 0.27718,4.65786c0,1.14488 0,2.28977 0,3.43465c-0.09298,0.34164 -0.24897,0.62022 -0.5,0.78757l-0.31821,-0.07071c-0.08029,-0.35415 -0.13937,-0.7133 -0.18179,-1.07631c0,-1.49089 0,-2.9818 0,-4.47269c0.05287,-1.09764 0.09244,-2.18892 0.00498,-3.2451c-0.00166,-0.00092 -0.00333,-0.00184 -0.00498,-0.00278c0,-0.01859 0,-0.03717 0,-0.05575c-0.08256,-0.95183 -0.21403,-1.89279 -0.3581,-2.83003c-0.07064,0.68031 -0.15805,1.35457 -0.26517,2.02131c-0.06557,-0.16363 -0.1246,-0.34242 -0.17791,-0.53151c-0.01845,0.37804 -0.06184,0.73875 -0.14375,1.06277c0.00033,0.08541 0.0005,0.17085 0.0005,0.25635l-0.4896,1.46881l-0.01477,0.01805c-0.14447,-0.43579 -0.25181,-0.87693 -0.33096,-1.32218l-0.1128,-0.1128c-0.01803,-0.09701 -0.03547,-0.19438 -0.05232,-0.2921c-0.00155,-0.42141 -0.00714,-0.84167 -0.01608,-1.26144c-0.01677,-0.32764 -0.02461,-0.65662 -0.02689,-0.98646c-0.02179,-0.6625 -0.05065,-1.32513 -0.08392,-1.99065c-0.07973,-1.59459 -0.1608,-3.18206 -0.2382,-4.76621c0.01982,-0.50698 0.04293,-1.01367 0.06771,-1.51877c-0.0372,0.22161 -0.07364,0.44326 -0.10907,0.66496c-0.07145,-1.48958 -0.13888,-2.97681 -0.19811,-4.4649c0.13035,-0.88745 0.25854,-1.77973 0.37894,-2.68004c0.01792,-0.13396 0.03575,-0.26792 0.05351,-0.40187c-0.00826,-0.10763 -0.01647,-0.21526 -0.02461,-0.3229c-0.16403,0.91894 -0.30764,1.8356 -0.43333,2.75087c-0.0125,-0.32763 -0.02456,-0.65533 -0.03615,-0.98312c0,0.41669 0,0.83338 0,1.25006c-0.06511,0.48748 -0.12522,0.97458 -0.18068,1.46146c-0.05022,0.04057 -0.11441,0.07283 -0.19643,0.089c-0.05039,0.88166 -0.09116,1.76459 -0.12095,2.65089c0.04216,-0.29737 0.085,-0.59478 0.12832,-0.89233c-0.06067,0.66566 -0.11354,1.3312 -0.15961,1.99694c-0.0172,0.74852 -0.02621,1.50006 -0.02621,2.25585c0,1.16221 0.34179,3.1786 0,4.52716c0,0.21317 0,0.42633 0,0.6395l-0.263,0.70134c-0.00932,0.91685 -0.01331,1.83668 -0.01443,2.76033c-0.13317,0.30859 -0.29756,0.56905 -0.50035,0.76055l-0.25565,-0.08521c-0.20041,-1.35134 0.02967,-2.61548 0.1938,-3.98216c-0.0047,-0.01907 -0.00937,-0.03816 -0.014,-0.05727l-0.14637,-0.09758c0,-0.18729 0,-0.37457 0,-0.56186c-0.08723,-0.43166 -0.15997,-0.87177 -0.21964,-1.31898c0.04089,-1.72318 0.10879,-3.43881 0.21964,-5.15249c0,-1.73499 0,-3.46998 0,-5.20497c0.17368,-1.52355 0.37423,-3.01949 0.55556,-4.44425c0,-4.32803 0,-8.65607 0,-12.9841zM265.81642,143.05381c0,-3.01027 0,-6.02053 0,-9.03079c-0.03683,0.32405 -0.07386,0.64812 -0.11111,0.97218c0,5.13641 0,10.27282 0,15.40923c0.01108,0.6325 0.01722,1.26445 0.0163,1.89478c0.01835,0.58998 0.05137,1.17845 0.09481,1.76594c0,-3.67045 0,-7.3409 0,-11.01135zM265.81642,122.05381c0,-0.82556 0,-1.65113 0,-2.47669c-0.0752,0.63526 -0.15076,1.27048 -0.22654,1.90566c0.03147,1.58444 0.0613,3.16909 0.08275,4.75418c0.04786,-0.43671 0.09577,-0.87345 0.14378,-1.31023c0,-0.95764 0,-1.91529 0,-2.87293zM263.20533,146.63077c0.02058,-0.13936 0.04114,-0.27884 0.06165,-0.41843c-0.00868,-0.21796 -0.01718,-0.43594 -0.0255,-0.65395c-0.01222,0.08899 -0.02427,0.17798 -0.03615,0.26694c0,0.20579 0,0.59965 0,0.80544zM266.89532,106.7342c0.01033,-0.04042 0.02079,-0.08076 0.03137,-0.121c0.00036,-0.1153 0.0006,-0.23063 0.00074,-0.34598c-0.00999,0.15789 -0.02101,0.31403 -0.03211,0.46699zM263.02465,147.28678c-0.07019,0.61614 -0.13295,1.23191 -0.18906,1.84757c0.09521,-0.65409 0.19269,-1.3089 0.2901,-1.96574c-0.025,0.04226 -0.05786,0.08329 -0.10104,0.11818z" data-paper-data="{&quot;index&quot;:null}" fill="#000000" stroke="none" stroke-width="0.5"/></g></g></svg>