<svg version="1.1" xmlns="http://www.w3.org/2000/svg" xmlns:xlink="http://www.w3.org/1999/xlink" width="170.53659" height="267.22501" viewBox="0,0,170.53659,267.22501"><defs><linearGradient x1="227.05562" y1="105.19003" x2="222.79318" y2="184.92086" gradientUnits="userSpaceOnUse" id="color-1"><stop offset="0" stop-color="#ffffff" stop-opacity="0.06754"/><stop offset="1" stop-color="#666666" stop-opacity="0.33367"/></linearGradient></defs><g transform="translate(-173.08776,-46.3875)"><g data-paper-data="{&quot;isPaintingLayer&quot;:true}" fill-rule="nonzero" stroke-linejoin="miter" stroke-miterlimit="10" stroke-dasharray="" stroke-dashoffset="0" style="mix-blend-mode: normal"><g><path d="M179.14715,313.61252v-267.22501h123.18203v267.22501z" fill-opacity="0.01" fill="#000000" stroke="none" stroke-width="0" stroke-linecap="butt"/><path d="M179.15133,144.95522l138.8386,10.00417c0,0 -10.09411,42.39996 -11.87995,46.26928c-1.78584,3.86932 -10.62943,2.50104 -10.62943,2.50104c0,0 1.22278,10.99558 -0.62526,15.00625c-1.84804,4.01068 -5.17444,5.97702 -9.17043,6.25261c-3.996,0.27559 -8.96213,-5.00208 -8.96213,-5.00208l-8.75365,10.62943l-53.14714,0.62526l-10.00417,-10.62943l-3.1263,3.1263c0,0 -3.08747,4.306 -8.545,1.66748c-3.77966,-1.82733 -4.58548,-7.92008 -4.58548,-7.92008l-0.62526,-14.38099c0,0 -8.14888,-0.39257 -10.62943,-2.50104c-2.48055,-2.10847 -1.87578,-8.12839 -1.87578,-8.12839z" fill="#874e8b" stroke="#000000" stroke-width="2" stroke-linecap="round"/><path d="M206.75006,307.50001l15.14285,-131.8421l37.78325,-0.15789l13.57389,132z" fill="#d477dc" stroke="#000000" stroke-width="2" stroke-linecap="butt"/><path d="M219.70029,204.11265l3.12142,-26.32765l35.83075,-0.14203l2.76735,26.1059c0,0 -7.51543,4.19603 -21.55904,4.50964c-12.48458,0.27879 -20.16049,-4.14586 -20.16049,-4.14586z" fill="#9c58a0" stroke="#000000" stroke-width="0" stroke-linecap="butt"/></g><path d="M178.27157,122.50782c2.78674,-11.50901 8.78539,-21.78964 17.02851,-30.02508c13.53761,-13.52502 29.62727,6.18412 50.98691,7.30914c22.3477,1.17705 45.22152,-15.62411 57.17295,0.39647c8.64209,11.58449 13.40404,25.83761 12.60512,41.00639c-1.31961,25.05421 -17.4635,46.03045 -40.07039,55.86957c-1.33763,-0.93518 -2.56198,-1.71189 -3.55097,-2.26309c-5.25309,-2.92781 -11.1645,-4.78557 -17.4002,-5.1605c-6.65604,-0.4002 -13.31523,-0.75096 -19.97647,-1.05217c-6.12702,-0.27706 -12.7326,1.14498 -18.8403,1.51167c-3.44865,0.20703 -6.90267,0.36678 -10.35053,0.5936c-13.45331,-9.08657 -23.32076,-22.18409 -27.35175,-37.60162c-1.58122,-6.04776 3.92151,-11.45488 4.26524,-17.98127z" fill="#d477dc" stroke="#000000" stroke-width="2" stroke-linecap="butt"/><path d="M315.12921,140.84128c-1.31564,24.97899 -17.62795,45.84106 -40.37729,55.37787c-0.79384,-0.5241 -1.52653,-0.97598 -2.16705,-1.33861c34.77111,-13.66518 42.59138,-54.93262 42.54435,-54.03926z" fill="#9c58a0" stroke="#000000" stroke-width="0" stroke-linecap="butt"/><path d="M177.41847,133.58801c0.03324,-0.63121 1.57977,38.66992 34.35009,56.76253c-1.31553,0.07147 -2.63113,0.14325 -3.94614,0.22161c-19.37002,-12.3399 -31.63803,-33.55397 -30.40396,-56.98415z" fill="#9c58a0" stroke="#000000" stroke-width="0" stroke-linecap="butt"/><path d="M191.31975,134.72908c0.74135,-14.07563 12.75293,-24.88521 26.82857,-24.14385c14.07563,0.74135 24.88521,12.75292 24.14384,26.82856c-0.74135,14.07563 -12.75293,24.88522 -26.82856,24.14384c-14.07563,-0.74135 -24.88521,-12.75293 -24.14384,-26.82856z" fill="#ffffff" stroke="#000000" stroke-width="2" stroke-linecap="butt"/><path d="M274.35642,164.65947c-14.07563,-0.74135 -24.88521,-12.75293 -24.14383,-26.82856c0.74135,-14.07563 12.75292,-24.88521 26.82856,-24.14384c14.07563,0.74135 24.88522,12.75293 24.14385,26.82857c-0.74136,14.07563 -12.75293,24.88521 -26.82857,24.14385z" data-paper-data="{&quot;index&quot;:null}" fill="#ffffff" stroke="#000000" stroke-width="2" stroke-linecap="butt"/><path d="M242.07977,167.38457c2.12677,-2.7215 7.18086,-3.7697 8.58294,1.46225c1.40207,5.23195 -0.70549,17.88449 -0.70549,17.88449c-7.50152,-0.27805 -6.18094,0.53281 -13.68566,0.46641c0,0 3.68145,-17.09166 5.80823,-19.81318z" data-paper-data="{&quot;index&quot;:null}" fill="#000000" stroke="none" stroke-width="0" stroke-linecap="butt"/><path d="M181.21378,98.83638l130.01789,4.37359c0,0 4.17997,14.49514 -2.24337,17.69782c-6.42333,3.20269 -12.23043,-7.5726 -17.50659,-7.8505c-5.27613,-0.2779 -1.6591,4.8871 -12.84805,3.2824c-11.18895,-1.60471 -14.47586,-8.38589 -25.32615,-8.75724c-10.85029,-0.37137 -7.28454,5.71884 -20.41373,5.85325c-7.4683,0.07645 -25.20221,-2.81207 -25.20221,-2.81207c0,0 -7.46008,5.87464 -22.10521,4.77437c-3.77171,-0.28336 -5.19837,-9.18179 -5.19837,-9.18179z" fill="#874d8a" stroke="#000000" stroke-width="2" stroke-linecap="round"/><path d="M319.17646,114.91502c0,0 2.13672,-0.42704 3.27152,-0.41567c1.24185,0.01245 3.88744,0.48742 3.88744,0.48742c0,0 -2.63411,8.44471 -4.16573,8.39736c-1.42335,-0.04401 -2.99322,-8.46911 -2.99322,-8.46911z" fill="#ffdeff" stroke="none" stroke-width="0" stroke-linecap="butt"/><path d="M320.8019,125.51077c0.01659,-0.53646 0.56389,-0.95485 1.22242,-0.93448c0.65853,0.02036 1.17895,0.47175 1.16236,1.00822c-0.01659,0.53646 -0.56389,0.95485 -1.22242,0.93448c-0.65853,-0.02036 -1.17895,-0.47175 -1.16236,-1.00822z" fill="#ffdeff" stroke="none" stroke-width="0" stroke-linecap="butt"/><g><path d="M174.13897,194.90984l5.78061,-109.75166l162.65355,8.56697l-5.78061,109.75166zM182.29701,182.59844l117.68629,5.40941l2.93525,-78.22806l-116.46033,-6.13661z" fill="#9d829c" stroke="#725771" stroke-width="2" stroke-linecap="butt"/><path d="M306.33511,125.03366c0.1,-1.89859 0.40801,-7.74648 0.57457,-10.90911c0.0659,-1.25105 1.27262,-2.02066 2.52266,-1.95483c3.61812,0.19056 21.44247,1.12938 27.38492,1.44237c1.21381,0.06394 1.84725,1.70845 1.77802,3.02283c-0.09722,1.84578 -0.36635,6.95546 -0.5304,10.06995c-0.07851,1.4906 -1.16498,2.4698 -2.84725,2.3812c-6.66153,-0.35086 -23.51886,-1.23873 -26.8633,-1.41488c-1.12998,-0.05951 -2.08076,-1.46955 -2.01925,-2.63751z" fill="#725771" stroke="#725771" stroke-width="0" stroke-linecap="butt"/><path d="M304.8278,191.39298c0.1334,-2.53287 0.33109,-6.28604 0.40355,-7.66183c0.05308,-1.00798 1.17685,-2.16358 2.30467,-2.10418c3.15983,0.16644 18.30117,0.96393 23.60633,1.24335c1.15285,0.06073 1.75869,1.6637 1.69549,2.86366c-0.07323,1.39031 -0.25094,4.76428 -0.37473,7.11455c-0.07513,1.42634 -1.00295,2.4297 -1.9716,2.37869c-2.76334,-0.14555 -16.29822,-0.85844 -22.57998,-1.18929c-1.96022,-0.10324 -3.15924,-1.21177 -3.08375,-2.64496z" fill="none" stroke="#725771" stroke-width="2" stroke-linecap="butt"/><path d="M305.74174,176.67219c0.40998,-7.78391 2.01668,-38.28929 2.28397,-43.36382c0.0736,-1.39742 1.25988,-2.53977 2.44306,-2.47746c3.14692,0.16575 17.59568,0.92676 23.34974,1.22983c1.47135,0.0775 2.31787,1.1948 2.25083,2.46739c-0.25205,4.78535 -1.81814,34.51942 -2.27046,43.10722c-0.0774,1.46969 -0.86847,2.28075 -1.72663,2.23554c-2.84469,-0.14982 -18.67206,-0.98346 -24.37611,-1.2839c-1.27945,-0.06739 -2.0151,-0.76234 -1.9544,-1.91481z" fill="#ffdeff" stroke="#725771" stroke-width="2" stroke-linecap="butt"/><path d="M331.83575,199.01675c0.04105,-0.77942 0.70617,-1.37798 1.48559,-1.33693c0.77941,0.04106 1.37798,0.70618 1.33693,1.48559c-0.04105,0.77942 -0.70617,1.37798 -1.48559,1.33693c-0.77941,-0.04106 -1.37798,-0.70618 -1.33693,-1.48559z" fill="#725771" stroke="none" stroke-width="0" stroke-linecap="butt"/><path d="M178.20367,189.89573c0.05597,-1.06284 0.96295,-1.87905 2.02579,-1.82307c1.06284,0.05597 1.87905,0.96295 1.82307,2.0258c-0.05597,1.06284 -0.96295,1.87904 -2.02579,1.82306c-1.06284,-0.05597 -1.87904,-0.96294 -1.82305,-2.02578z" fill="#725771" stroke="none" stroke-width="0" stroke-linecap="butt"/><path d="M181.69853,89.34589c0.03731,-0.70856 0.64198,-1.2527 1.35052,-1.21538c0.70855,0.03732 1.2527,0.64198 1.21538,1.35052c-0.03731,0.70856 -0.64198,1.2527 -1.35052,1.21538c-0.70855,-0.03732 -1.25269,-0.64198 -1.21538,-1.35052z" fill="#725771" stroke="none" stroke-width="0" stroke-linecap="butt"/><path d="M337.22958,96.68564c0.04976,-0.94481 0.85601,-1.67036 1.80078,-1.6206c0.94481,0.04976 1.67036,0.85601 1.6206,1.80078c-0.04976,0.94481 -0.85601,1.67037 -1.80078,1.62061c-0.94481,-0.04976 -1.67035,-0.85602 -1.62059,-1.80079z" fill="#725771" stroke="none" stroke-width="0" stroke-linecap="butt"/><path d="M319.42863,177.83996l2.41912,-45.92971" fill="none" stroke="#725771" stroke-width="2" stroke-linecap="round"/><path d="M333.14994,166.46943l-26.17224,-1.3785" fill="none" stroke="#725771" stroke-width="2" stroke-linecap="round"/><path d="M307.81541,154.07106l26.68542,1.40553" fill="none" stroke="#725771" stroke-width="2" stroke-linecap="round"/><path d="M307.89688,142.75406l26.942,1.41903" fill="none" stroke="#725771" stroke-width="2" stroke-linecap="round"/></g><g fill="#000000" stroke="none" stroke-width="0" stroke-linecap="butt"><path d="M215.46838,139.01144c0.36408,-6.91244 6.26284,-12.2209 13.17526,-11.85683c6.91244,0.36408 12.2209,6.26284 11.85683,13.17527c-0.36408,6.91244 -6.26285,12.22091 -13.17527,11.85683c-6.91244,-0.36408 -12.2209,-6.26285 -11.85682,-13.17527z"/><path d="M287.85758,156.05914c-6.91242,-0.36408 -12.22089,-6.26285 -11.85681,-13.17527c0.36408,-6.91244 6.26284,-12.2209 13.17526,-11.85683c6.91242,0.36408 12.2209,6.26285 11.85682,13.17527c-0.36408,6.91244 -6.26285,12.22091 -13.17526,11.85682z" data-paper-data="{&quot;index&quot;:null}"/></g><g stroke-linecap="butt"><path d="M181.71219,182.74099l4.2624,-79.73082l82.8845,-6.84049l-3.47256,97.89137z" fill="url(#color-1)" stroke="#725771" stroke-width="2"/><path d="M197.06514,185.26007l-9.65291,-81.28175l11.135,-2.05023l9.0541,85.05562z" fill-opacity="0.11593" fill="#ffffff" stroke="none" stroke-width="0"/><path d="M217.05313,186.96917l-9.27385,-85.17523l12.4538,-1.93388l8.46348,88.73631z" fill-opacity="0.11593" fill="#ffffff" stroke="none" stroke-width="0"/></g></g></g></svg>