<svg version="1.1" xmlns="http://www.w3.org/2000/svg" xmlns:xlink="http://www.w3.org/1999/xlink" width="34.67311" height="34.67311" viewBox="0,0,34.67311,34.67311"><defs><linearGradient x1="239.99999" y1="162.91345" x2="239.99999" y2="197.08655" gradientUnits="userSpaceOnUse" id="color-1"><stop offset="0" stop-color="#000000"/><stop offset="1" stop-color="#673131"/></linearGradient></defs><g transform="translate(-222.66344,-162.66344)"><g data-paper-data="{&quot;isPaintingLayer&quot;:true}" stroke-miterlimit="10" stroke-dasharray="" stroke-dashoffset="0" style="mix-blend-mode: normal"><path d="M229.98312,162.91345h20.03378c3.9166,0 7.06966,3.15307 7.06966,7.06966v20.03379c0,3.91659 -3.15306,7.06966 -7.06966,7.06966h-20.03378c-3.91659,0 -7.06967,-3.15307 -7.06967,-7.06966v-20.03379c0,-3.91659 3.15308,-7.06966 7.06967,-7.06966z" fill="url(#color-1)" fill-rule="evenodd" stroke="#6c3333" stroke-width="0.5" stroke-linecap="round" stroke-linejoin="round"/><path d="M240.9089,176.95401c4.45234,1.03031 9.87899,5.39177 9.87899,5.39177c0,0 -3.29403,2.80363 -10.71231,1.34845c-5.93149,-1.16353 -10.86348,-6.53638 -10.86348,-6.53638c0,0 4.75715,-1.80975 11.6968,-0.20384z" fill="none" fill-rule="nonzero" stroke="#6c3333" stroke-width="2" stroke-linecap="round" stroke-linejoin="miter"/><path d="M235.61245,178.93233c0.58967,-2.47744 2.99272,-3.17445 5.47015,-2.58478c2.47744,0.58967 4.09111,2.24271 3.50144,4.72015c-0.58967,2.47744 -3.07604,4.00778 -5.55348,3.41811c-2.47744,-0.58967 -4.00778,-3.07604 -3.41811,-5.55348z" fill="#6c3333" fill-rule="nonzero" stroke="none" stroke-width="0" stroke-linecap="butt" stroke-linejoin="miter"/></g></g></svg>