<svg version="1.1" xmlns="http://www.w3.org/2000/svg" xmlns:xlink="http://www.w3.org/1999/xlink" width="34.67311" height="34.67311" viewBox="0,0,34.67311,34.67311"><g transform="translate(-222.66346,-162.66346)"><g data-paper-data="{&quot;isPaintingLayer&quot;:true}" stroke-miterlimit="10" stroke-dasharray="" stroke-dashoffset="0" style="mix-blend-mode: normal"><g><path d="M229.98313,162.91346h20.03378c3.9166,0 7.06966,3.15307 7.06966,7.06966v20.03379c0,3.91659 -3.15306,7.06966 -7.06966,7.06966h-20.03378c-3.91659,0 -7.06967,-3.15307 -7.06967,-7.06966v-20.03379c0,-3.91659 3.15308,-7.06966 7.06967,-7.06966z" fill="#000000" fill-rule="evenodd" stroke="#808080" stroke-width="0.5" stroke-linecap="round" stroke-linejoin="round"/><path d="M231.35034,164.27163h17.87126c-0.76953,1.19289 -1.52964,2.38245 -2.27209,3.54309c-5.83433,9.12049 -11.15564,18.5093 -16.46697,27.91367c-3.35527,-0.40605 -5.93366,-3.13703 -5.93366,-6.46639v-18.47188c0,-3.61123 3.03346,-6.51848 6.80146,-6.51848z" fill="#808080" fill-rule="evenodd" stroke="none" stroke-width="4.43922" stroke-linecap="round" stroke-linejoin="round"/><path d="M236.34102,166.31992c5.5593,-1.50277 4.61364,3.57735 6.38714,5.27706c0.70802,0.67856 2.88989,0.9729 3.96622,2.10029c1.38951,1.45544 1.74401,3.80678 3.14916,5.01645c1.66358,1.43215 6.86028,2.88823 5.32853,5.86483c-1.53175,2.97662 -13.33715,3.31914 -18.61079,-1.7942c-3.49851,-3.39218 -2.09154,-15.9586 -0.22026,-16.46444z" fill="#000000" fill-rule="nonzero" stroke="none" stroke-width="0" stroke-linecap="butt" stroke-linejoin="miter"/><path d="M236.67136,173.60229c0,0 -11.4718,11.22167 -10.0212,5.38262c1.05823,-4.25968 6.14013,-9.10074 8.81184,-11.40794c0.9906,-0.85545 2.64097,-0.62377 2.64097,-0.62377" fill="none" fill-rule="nonzero" stroke="#000000" stroke-width="0.5" stroke-linecap="round" stroke-linejoin="miter"/><path d="M254.18093,182.78436c0,0 0.72249,2.02704 0.24721,2.72435c-1.81549,2.66359 -6.64638,9.02437 -11.03926,8.46302c-5.5429,-0.70831 6.16689,-11.39846 6.16689,-11.39846" fill="none" fill-rule="nonzero" stroke="#808080" stroke-width="0.5" stroke-linecap="round" stroke-linejoin="miter"/><text transform="translate(234.88187,176.16167) rotate(43.78299) scale(0.32294,0.21713) skewX(-1.63672)" font-size="40" xml:space="preserve" fill="#ffffff" fill-rule="nonzero" stroke="none" stroke-width="1" stroke-linecap="butt" stroke-linejoin="miter" stroke-miterlimit="10" stroke-dasharray="" stroke-dashoffset="0" font-family="Handwriting" font-weight="normal" text-anchor="start" style="mix-blend-mode: normal"><tspan x="0" dy="0">W</tspan></text><path d="M244.31801,172.38051c0.83838,0.32092 1.77812,0.69017 2.37634,1.31678c1.38951,1.45544 1.74402,3.80678 3.14917,5.01646c1.66358,1.43215 6.86029,2.88822 5.32852,5.86483c-1.45129,2.82022 -12.12507,3.27588 -17.72797,-1.03305c-0.18222,-0.14014 6.59689,-11.27105 6.87393,-11.16501z" fill="#808080" fill-rule="nonzero" stroke="none" stroke-width="0" stroke-linecap="butt" stroke-linejoin="miter"/><text transform="translate(234.88187,176.16167) rotate(43.78297) scale(0.32293,0.21713) skewX(-1.63677)" font-size="40" xml:space="preserve" fill="#000000" fill-rule="nonzero" stroke="#808080" stroke-width="0" stroke-linecap="butt" stroke-linejoin="miter" stroke-miterlimit="10" stroke-dasharray="" stroke-dashoffset="0" font-family="Handwriting" font-weight="normal" text-anchor="start" style="mix-blend-mode: normal"><tspan x="0" dy="0">W</tspan></text><path d="M237.32294,178.77252c-3.7214,-2.60867 2.75253,-5.79351 3.09287,-5.79351c0.34034,0 0.68558,0.7118 0.68558,0.7118c0,0 -4.3423,2.12819 -3.97958,3.68181c0.05981,0.25621 0.0626,2.15416 3.34501,0.86039c-0.20753,0.30702 -0.60092,1.07543 -0.60092,1.07543c0,0 -1.10827,0.46976 -2.54296,-0.53593z" fill="#808080" fill-rule="nonzero" stroke="none" stroke-width="0" stroke-linecap="butt" stroke-linejoin="miter"/></g></g></g></svg>