<svg version="1.1" xmlns="http://www.w3.org/2000/svg" xmlns:xlink="http://www.w3.org/1999/xlink" width="37.55332" height="35.0262" viewBox="0,0,37.55332,35.0262"><g transform="translate(-221.22334,-162.4869)"><g data-paper-data="{&quot;isPaintingLayer&quot;:true}" stroke-miterlimit="10" stroke-dasharray="" stroke-dashoffset="0" style="mix-blend-mode: normal"><path d="M257.72594,169.78263v20.49804c0,4.00745 -3.22497,7.23243 -7.23242,7.23243h-20.5c-3.66107,0 -6.66147,-2.69385 -7.1543,-6.21484c0.7952,3.03475 3.54108,5.26367 6.83204,5.26367h20.0332c3.9166,0 7.07032,-3.15372 7.07032,-7.07031v-20.03321c0,-3.2976 -2.23906,-6.0451 -5.28321,-6.83398c3.52994,0.48496 6.23438,3.49081 6.23438,7.15821z" fill-opacity="0.29839" fill="#000000" fill-rule="evenodd" stroke="none" stroke-width="4.54219" stroke-linecap="round" stroke-linejoin="round"/><path d="M229.77155,162.48938h20.03378c3.9166,0 7.06966,3.15307 7.06966,7.06966v20.03379c0,3.91659 -3.15307,7.06966 -7.06966,7.06966h-20.03378c-3.91659,0 -7.06967,-3.15307 -7.06967,-7.06966v-20.03379c0,-3.91659 3.15308,-7.06966 7.06967,-7.06966z" fill="#934dff" fill-rule="evenodd" stroke="none" stroke-width="4.43922" stroke-linecap="round" stroke-linejoin="round"/><path d="M229.77154,162.48938h20.03379c3.9166,0 7.06966,3.15307 7.06966,7.06966v20.03379c0,3.91659 -3.15306,7.06966 -7.06966,7.06966h-20.03379c-3.91659,0 -7.06966,-3.15307 -7.06966,-7.06966v-20.03379c0,-3.91659 3.15307,-7.06966 7.06966,-7.06966z" fill="#8c4cff" fill-rule="evenodd" stroke="none" stroke-width="4.43922" stroke-linecap="round" stroke-linejoin="round"/><path d="M240.1448,181.01678c-1.3192,-0.01459 -2.3768,-1.09583 -2.36222,-2.41502c0.01459,-1.3192 2.55133,-14.69059 2.55133,-14.69059c0,0 2.24051,13.4242 2.22592,14.7434c-0.01459,1.3192 -1.09583,2.3768 -2.41502,2.36221z" data-paper-data="{&quot;index&quot;:null}" fill="#8d4cff" fill-rule="nonzero" stroke="#000000" stroke-width="0.5" stroke-linecap="butt" stroke-linejoin="miter"/><path d="M245.97427,182.43896c-0.7826,-0.90426 -0.68396,-2.27175 0.2203,-3.05435c0.90426,-0.7826 11.50507,-7.09332 11.50507,-7.09332c0,0 -7.76676,9.58538 -8.67104,10.36797c-0.90426,0.7826 -2.27176,0.68396 -3.05435,-0.2203z" data-paper-data="{&quot;index&quot;:null}" fill="#8d4cff" fill-rule="nonzero" stroke="#000000" stroke-width="0.5" stroke-linecap="butt" stroke-linejoin="miter"/><path d="M230.69853,182.30334c-0.87582,-0.75796 -8.39817,-10.04171 -8.39817,-10.04171c0,0 10.26722,6.11212 11.14303,6.8701c0.87581,0.75797 0.97134,2.08242 0.21337,2.95823c-0.75796,0.87581 -2.08241,0.97134 -2.95822,0.21337z" data-paper-data="{&quot;index&quot;:null}" fill="#8d4cff" fill-rule="nonzero" stroke="#000000" stroke-width="0.5" stroke-linecap="butt" stroke-linejoin="miter"/><path d="M226.7037,187.71214c0,-6.83792 5.90532,-12.38115 13.18989,-12.38115c7.28457,0 13.18989,5.54323 13.18989,12.38115" fill="#934dff" fill-rule="nonzero" stroke="#000000" stroke-width="0.5" stroke-linecap="butt" stroke-linejoin="miter"/></g></g></svg>