<svg version="1.1" xmlns="http://www.w3.org/2000/svg" xmlns:xlink="http://www.w3.org/1999/xlink" width="36.88886" height="34.17311" viewBox="0,0,36.88886,34.17311"><g transform="translate(-221.55557,-162.91345)"><g data-paper-data="{&quot;isPaintingLayer&quot;:true}" stroke="none" stroke-miterlimit="10" stroke-dasharray="" stroke-dashoffset="0" style="mix-blend-mode: normal"><path d="M229.98311,162.91345h20.03378c3.9166,0 7.06966,3.15307 7.06966,7.06966v20.03379c0,3.91659 -3.15306,7.06966 -7.06966,7.06966h-20.03378c-3.91659,0 -7.06967,-3.15307 -7.06967,-7.06966v-20.03379c0,-3.91659 3.15308,-7.06966 7.06967,-7.06966z" fill-opacity="0.09677" fill="#191919" fill-rule="evenodd" stroke-width="4.43922" stroke-linecap="round" stroke-linejoin="round"/><path d="M254.63747,181.97101l0.01224,0.01264l0.02747,-0.04723c0.13264,-0.08208 0.25449,-0.16451 0.36753,-0.24632c0.33022,-0.52194 0.87589,-1.01971 1.4377,-1.15804c0.20858,-0.1183 0.43528,-0.19188 0.71959,-0.20157l0.03536,-0.24749l0.7705,0.11007c0.24619,0.03117 0.43657,0.24136 0.43657,0.49601c0,0.16566 -0.08057,0.31251 -0.20466,0.40349l-0.13201,0.09901c-0.01213,0.10489 -0.05671,0.19988 -0.12345,0.27469l-0.0522,0.05909c0.0085,0.38958 -0.3657,0.68539 -0.88518,0.90661c-0.14198,0.12979 -0.29033,0.2492 -0.46405,0.32724c-0.48453,0.21766 -0.85964,0.32442 -1.14175,0.34789l0.00977,0.07813l-0.4155,0.05194c-0.14362,0.06732 -0.28963,0.12934 -0.43868,0.1852c-0.06799,0.0548 -0.16152,0.09436 -0.29017,0.09949c-0.03042,0.00946 -0.06097,0.01865 -0.09166,0.02757c-0.25559,1.46197 -0.68119,2.8408 -1.26768,4.02994c-0.02099,0.04116 -0.04209,0.08206 -0.06333,0.12268c0.07249,0.08676 0.11611,0.19848 0.11611,0.32038c0,0.2755 -0.22281,0.49895 -0.49806,0.5l-0.08566,0.00038c-0.02409,0.0388 -0.0483,0.07733 -0.07265,0.11557c0.02506,0.32491 0.02009,0.64508 -0.26376,0.95569c-0.12414,0.13584 -0.35234,0.21205 -0.62302,0.25273c-0.43695,0.51626 -0.90443,0.96635 -1.39858,1.35872c0.32801,0.27324 0.08153,0.64748 0.08153,0.64748l-0.595,0.56744c-0.53086,0.05276 -1.05403,0.06858 -1.57243,0.05587c-3.35868,1.53407 -7.50021,1.37945 -11.58347,1.37945c-3.16663,0 -6.47352,-0.57116 -9.56497,-1.34808c-0.73945,-0.18583 -2.7598,-0.72536 -3.10447,-1.48387c-0.4679,-1.02972 0.76183,-1.95859 1.29171,-2.66232c2.0599,-2.06469 5.27458,-4.41895 8.29764,-4.83261c1.0457,-0.14309 2.20009,0.2125 3.20135,0.11203c0.21991,-0.02207 -0.25642,-0.36083 -0.40058,-0.52836c-0.44725,-0.51977 -0.71373,-0.86359 -1.30668,-1.21422c-3.43499,-1.96552 -6.40405,-3.3759 -10.41399,-3.3759h-0.77778c-0.27614,0 -0.5,-0.22386 -0.5,-0.5c0,-0.15574 0.07121,-0.29486 0.18284,-0.38656l0.66373,-0.55311l0.11876,0.14251c2.13239,-1.77238 5.69007,-2.57939 8.26742,-2.81192c1.28692,-0.11611 2.76016,-0.02704 4.02742,0.22954c0.47992,0.09717 1.60148,0.80778 1.42656,0.35043c-0.27244,-0.71235 -0.52149,-1.41851 -0.95252,-2.05326c-0.56833,-1.21983 -2.09148,-1.67607 -3.29392,-2.11438c-3.62448,-1.32119 -6.94846,-1.02399 -10.64598,-0.65261l-0.76343,0.11969c-0.02808,0.00489 -0.05696,0.00744 -0.08643,0.00744c-0.27614,0 -0.5,-0.22386 -0.5,-0.5c0,-0.09343 0.02563,-0.18088 0.07023,-0.25569l0.44009,-0.77015l0.30718,0.17553c1.19763,-1.23997 3.38756,-1.93435 5.15843,-2.06791c3.24335,-1.20284 8.32101,-0.58177 11.63518,-0.58177c4.94536,0 11.45647,1.03574 13.44792,6.0556c1.57442,2.69522 2.13312,6.40362 1.78552,9.84511zM252.94443,183.74464c0,0 -0.1838,0 -0.32853,-0.11144c-3.36171,0.65325 -6.74009,-0.00748 -10.11592,0.00033c0,0 -0.18217,0 -0.3266,-0.10996c-2.66936,0.06789 -4.16401,3.07639 -2.88485,5.37391c0.59281,1.06477 2.82805,1.53443 3.89216,1.86308c1.56952,0.32956 3.09626,0.65924 4.66509,0.71369c0.82001,-0.40695 1.58303,-0.93091 2.27087,-1.60493c-0.15665,-0.00715 -0.29297,-0.01357 -0.39444,-0.01357c-2.41675,0 -5.03338,-0.07324 -7.09477,-1.44666c-0.08036,-0.07995 -0.21212,-0.19236 -0.36856,-0.32839c-0.24579,-0.00097 -0.4917,-0.00158 -0.73775,-0.00188l-0.68835,-0.00085c-0.00003,0 -0.00005,0 -0.00008,0c-0.27586,-0.00033 -0.49939,-0.22406 -0.49939,-0.5c0,-0.27614 0.22386,-0.5 0.5,-0.5h0.42433c-0.41489,-0.53513 -0.62102,-1.11781 -0.06181,-1.56353c0.45058,-0.35912 3.45055,1.25481 4.0509,1.34776c2.67468,0.41411 4.90943,-1.13723 7.42939,-1.22513c0.20401,-0.60132 0.37204,-1.24018 0.50285,-1.90309c-0.07719,0.00532 -0.15535,0.0089 -0.23456,0.01065zM251.65548,186.71852c0.18426,0.06417 0.33927,0.16098 0.45497,0.29823c0.05905,-0.12007 0.11632,-0.24262 0.17178,-0.36748c-0.21054,0.01453 -0.41933,0.03827 -0.62675,0.06925zM250.31499,188.96239c0.17856,0.04704 0.35721,0.09537 0.52031,0.11178c0.02844,-0.0355 0.05671,-0.07132 0.08482,-0.10748zM245.12354,188.11985c-0.02888,0.00193 -0.05792,0.00389 -0.0871,0.00587l-0.05548,0.13871l-0.2891,-0.11564c-0.13538,0.00877 -0.27268,0.01708 -0.41078,0.02406c1.4783,0.60447 3.20979,0.67389 4.81068,0.68186c-0.72717,-0.06408 -1.47842,-0.11654 -2.20116,-0.23481l-0.06139,-0.0008c-0.0729,-0.00081 -0.14205,-0.01722 -0.20428,-0.04605c-0.01946,-0.00369 -0.0389,-0.00744 -0.05831,-0.01125l-0.62238,-0.03845c-0.1669,-0.00895 -0.31206,-0.09976 -0.39605,-0.23299c-0.14468,-0.0511 -0.28642,-0.10767 -0.42465,-0.17052zM242.93038,191.72872c-1.37042,-0.42021 -3.67658,-0.95269 -4.47617,-2.27997c-1.5662,-2.5998 -0.1234,-5.93283 2.57417,-6.74298c-0.7191,-0.59825 -0.90887,-1.67512 -1.10589,-2.79977c-0.60396,-3.44769 1.33934,-7.67377 5.37198,-6.32281c0.7043,0.55228 2.24393,2.29249 3.21356,2.27261c1.38934,-0.02849 2.99582,-1.51066 4.02337,-1.40716c-0.22937,-0.58969 -0.49988,-1.14342 -0.81269,-1.6485c-1.86971,-4.64145 -7.94707,-5.49996 -12.55208,-5.49996c-2.6962,0 -5.295,0.10934 -7.96456,0.33208c-0.71401,0.05957 -1.45788,-0.01549 -2.17764,0.01318c-0.10183,0.06901 -0.20419,0.08948 -0.20419,0.08948l-0.60434,0.11839c-0.16024,-0.00059 -0.32135,0.00619 -0.48311,0.01949c-0.116,0.04285 -0.23028,0.09323 -0.34255,0.15238c0,0 -0.28443,0.14221 -0.51304,-0.02702c-1.11093,0.22767 -2.23473,0.68639 -3.30406,1.10416c4.34764,-0.42403 11.87447,-0.96287 14.13705,3.33579c0.3727,0.56817 1.21365,2.15081 1.04748,2.83563c-0.32191,1.32664 -5.19835,0.034 -6.3238,0.13552c-1.74881,0.15775 -3.7713,0.71036 -5.42756,1.30447c-0.55669,0.19969 -1.08856,0.57057 -1.64009,0.83587c3.71399,0.20894 6.64053,1.60165 9.94196,3.48579c0.80528,0.48889 3.04575,2.2409 1.84829,3.36852c-0.57027,0.53701 -2.96754,0.01911 -3.68754,0.11203c-2.78347,0.35922 -5.80798,2.61091 -7.70236,4.50072c-0.16679,0.22333 -1.31033,1.34381 -1.15274,1.5599c0.43606,0.59792 2.41153,0.94283 3.08737,1.06513c2.92956,0.53016 5.707,1.21403 8.68764,1.21403c3.13937,0 6.4422,0.15937 9.31823,-0.59388c-0.92153,-0.14155 -1.84141,-0.33575 -2.77672,-0.53315zM253.36262,182.43054l0.02212,-0.00073c0.25817,-2.1544 0.14391,-4.4595 -0.38071,-6.50141l-0.5889,0.24144c0,0 -0.48076,0.13736 -0.61812,-0.3434c-0.00532,-0.01862 -0.00971,-0.03672 -0.01324,-0.05431c-0.78368,0.38354 -1.66321,0.74503 -2.49658,0.95777c-1.77258,0.45249 -3.21189,-1.23587 -4.47058,-2.26827c-3.20272,-1.05886 -4.35608,2.75838 -3.90914,5.27159c0.19052,1.07133 0.20088,2.51309 1.59253,2.45587c0,0 0.46642,0 0.49829,0.45049c3.44131,0.07444 6.95551,0.78854 10.36435,-0.20903z" fill="#ffffff" fill-rule="nonzero" stroke-width="0.5" stroke-linecap="butt" stroke-linejoin="miter"/></g></g></svg>