<svg version="1.1" xmlns="http://www.w3.org/2000/svg" xmlns:xlink="http://www.w3.org/1999/xlink" width="246.36459" height="308.72957" viewBox="0,0,246.36459,308.72957"><g transform="translate(-111.34059,-6.53102)"><g data-paper-data="{&quot;isPaintingLayer&quot;:true}" fill-rule="nonzero" stroke-linejoin="miter" stroke-miterlimit="10" stroke-dasharray="" stroke-dashoffset="0" style="mix-blend-mode: normal"><path d="" fill-opacity="0.01" fill="#000000" stroke="none" stroke-width="0" stroke-linecap="butt"/><path d="" fill="#4df6ff" stroke="#000000" stroke-width="2" stroke-linecap="butt"/><path d="" fill="#ccfcff" stroke="#000000" stroke-width="2" stroke-linecap="butt"/><path d="" fill="#4df6ff" stroke="#000000" stroke-width="2" stroke-linecap="butt"/><path d="" fill="#45dde6" stroke="#000000" stroke-width="0" stroke-linecap="butt"/><path d="" fill="#4df6ff" stroke="#000000" stroke-width="2" stroke-linecap="butt"/><path d="" fill="#45dde6" stroke="#000000" stroke-width="0" stroke-linecap="butt"/><path d="" fill="#ffffff" stroke="#000000" stroke-width="2" stroke-linecap="butt"/><path d="" fill="#000000" stroke="none" stroke-width="0" stroke-linecap="butt"/><path d="" fill="#000000" stroke="#000000" stroke-width="2" stroke-linecap="round"/><path d="" data-paper-data="{&quot;index&quot;:null}" fill="#ffffff" stroke="#000000" stroke-width="2" stroke-linecap="butt"/><path d="" data-paper-data="{&quot;index&quot;:null}" fill="#000000" stroke="none" stroke-width="0" stroke-linecap="butt"/><path d="" fill="#4df6ff" stroke="#000000" stroke-width="2" stroke-linecap="butt"/><path d="" data-paper-data="{&quot;index&quot;:null}" fill="#4df6ff" stroke="#000000" stroke-width="2" stroke-linecap="butt"/><path d="" fill="#000000" stroke="none" stroke-width="0" stroke-linecap="butt"/><path d="" data-paper-data="{&quot;index&quot;:null}" fill="#000000" stroke="none" stroke-width="0" stroke-linecap="butt"/><path d="" fill="#4df6ff" stroke="#000000" stroke-width="2" stroke-linecap="round"/><path d="M241.43237,86.19225c-5.70434,-0.17202 -10.1892,-4.93573 -10.01719,-10.64008c0.17201,-5.70435 12.24758,-63.32629 12.24758,-63.32629c0,0 8.58171,58.24485 8.4097,63.9492c-0.17201,5.70435 -4.93573,10.18919 -10.64008,10.01718z" data-paper-data="{&quot;index&quot;:null}" fill="#8d4cff" stroke="#000000" stroke-width="2" stroke-linecap="butt"/><path d="M179.28376,306.85192v-267.22501h123.18203v267.22501z" fill-opacity="0.01" fill="#000000" stroke="none" stroke-width="0" stroke-linecap="butt"/><path d="M282.82078,102.54286c-4.79723,-3.09123 -6.18023,-9.48609 -3.089,-14.28332c3.09123,-4.79723 43.17194,-47.92083 43.17194,-47.92083c0,0 -22.70838,54.31794 -25.7996,59.11517c-3.09123,4.79723 -9.48609,6.18023 -14.28332,3.089z" data-paper-data="{&quot;index&quot;:null}" fill="#914dff" stroke="#000000" stroke-width="2" stroke-linecap="butt"/><path d="M278.05001,131.78042c-0.18585,-5.70391 4.28741,-10.47852 9.99132,-10.66437c5.70391,-0.18585 63.96942,8.25447 63.96942,8.25447c0,0 -57.59247,12.21537 -63.29638,12.40123c-5.70391,0.18586 -10.47851,-4.28741 -10.66436,-9.99132z" data-paper-data="{&quot;index&quot;:null}" fill="#914dff" stroke="#000000" stroke-width="2" stroke-linecap="butt"/><path d="M272.26117,155.89519c4.43963,-3.58591 10.94563,-2.89386 14.53154,1.54577c3.58592,4.43963 31.9659,56.02146 31.9659,56.02146c0,0 -44.45731,-38.59606 -48.04323,-43.03568c-3.58591,-4.43963 -2.89386,-10.94563 1.54577,-14.53154z" data-paper-data="{&quot;index&quot;:null}" fill="#914dff" stroke="#000000" stroke-width="2" stroke-linecap="butt"/><path d="M197.72034,104.53816c-4.79723,3.09123 -11.19209,1.70823 -14.28332,-3.089c-3.09123,-4.79723 -25.7996,-59.11516 -25.7996,-59.11516c0,0 40.08071,43.12361 43.17194,47.92084c3.09123,4.79723 1.70823,11.19209 -3.089,14.28332z" data-paper-data="{&quot;index&quot;:null}" fill="#914dff" stroke="#000000" stroke-width="2" stroke-linecap="butt"/><path d="M190.99577,130.01986c-0.18585,5.70391 -4.96046,10.17718 -10.66436,9.99132c-5.7039,-0.18586 -63.29638,-12.40123 -63.29638,-12.40123c0,0 58.26551,-8.44032 63.96942,-8.25447c5.70391,0.18585 10.17717,4.96045 9.99132,10.66436z" data-paper-data="{&quot;index&quot;:null}" fill="#914dff" stroke="#000000" stroke-width="2" stroke-linecap="butt"/><path d="M205.73943,159.39284c4.43963,3.58592 5.13169,10.09192 1.54577,14.53155c-3.58591,4.43963 -48.04323,43.03569 -48.04323,43.03569c0,0 28.37999,-51.58183 31.9659,-56.02146c3.58592,-4.43963 10.09192,-5.13169 14.53154,-1.54577z" data-paper-data="{&quot;index&quot;:null}" fill="#914dff" stroke="#000000" stroke-width="2" stroke-linecap="butt"/><path d="M206.75007,314.26058l15.14285,-131.8421l37.78325,-0.15789l13.57389,132z" fill="#934dff" stroke="#000000" stroke-width="2" stroke-linecap="butt"/><path d="M219.7003,210.87322l3.12142,-26.32765l35.83075,-0.14203l2.76735,26.1059c0,0 -7.51543,4.19603 -21.55904,4.50964c-12.48458,0.27879 -20.16049,-4.14586 -20.16049,-4.14586z" fill="#8445e6" stroke="#000000" stroke-width="0" stroke-linecap="butt"/><path d="M175.83998,130.08557c0,-33.30185 28.7599,-60.29833 64.23702,-60.29833c35.47712,0 64.23702,26.99649 64.23702,60.29833c0,33.30185 -28.7599,60.29833 -64.23702,60.29833c-35.47712,0 -64.23702,-26.99649 -64.23702,-60.29833z" fill="#8c4dff" stroke="#000000" stroke-width="2" stroke-linecap="butt"/><path d="M176.56304,130.1394c0,-0.72799 5.20666,55.91939 63.36046,56.93429c55.56352,0.9697 63.51358,-57.95314 63.51358,-56.93429c0,32.80479 -28.40173,59.39833 -63.43702,59.39833c-35.03529,0 -63.43702,-26.59354 -63.43702,-59.39833z" fill="#8445e6" stroke="#000000" stroke-width="0" stroke-linecap="butt"/><path d="M189.39019,130.51504c0,-12.968 10.51265,-23.48065 23.48065,-23.48065c12.968,0 23.48065,10.51265 23.48065,23.48065c0,12.968 -10.51265,23.48065 -23.48065,23.48065c-12.968,0 -23.48065,-10.51265 -23.48065,-23.48065z" fill="#ffffff" stroke="#000000" stroke-width="2" stroke-linecap="butt"/><path d="M196.45558,130.23941c0,-9.12808 7.39976,-16.52784 16.52783,-16.52784c9.12808,0 16.52784,7.39977 16.52784,16.52784c0,9.12808 -7.39977,16.52784 -16.52784,16.52784c-9.12808,0 -16.52783,-7.39977 -16.52783,-16.52784z" fill="#000000" stroke="none" stroke-width="0" stroke-linecap="butt"/><path d="M267.12926,153.99568c-12.968,0 -23.48065,-10.51265 -23.48065,-23.48065c0,-12.968 10.51265,-23.48065 23.48065,-23.48065c12.968,0 23.48065,10.51265 23.48065,23.48065c0,12.968 -10.51265,23.48065 -23.48065,23.48065z" data-paper-data="{&quot;index&quot;:null}" fill="#ffffff" stroke="#000000" stroke-width="2" stroke-linecap="butt"/><path d="M267.01671,146.76725c-9.12807,0 -16.52783,-7.39977 -16.52783,-16.52784c0,-9.12808 7.39977,-16.52784 16.52783,-16.52784c9.12807,0 16.52783,7.39977 16.52783,16.52784c0,9.12808 -7.39977,16.52784 -16.52783,16.52784z" data-paper-data="{&quot;index&quot;:null}" fill="#000000" stroke="none" stroke-width="0" stroke-linecap="butt"/><path d="M189.39019,130.51504c0,-12.968 10.51265,-23.48065 23.48065,-23.48065c12.968,0 23.48065,10.51265 23.48065,23.48065c0,0 -46.96131,1.23155 -46.96131,0z" fill="#8c4dff" stroke="#000000" stroke-width="2" stroke-linecap="butt"/><path d="M243.64864,130.51504c0,-12.968 10.51265,-23.48065 23.48065,-23.48065c12.968,0 23.48065,10.51265 23.48065,23.48065c0,1.2138 -46.96131,0 -46.96131,0z" data-paper-data="{&quot;index&quot;:null}" fill="#8c4dff" stroke="#000000" stroke-width="2" stroke-linecap="butt"/><path d="M202.02786,101.70657c0,0 6.70895,-5.16922 11.79721,-6.36355c5.08827,-1.19433 12.33413,0.69937 12.33413,0.69937c0,0 -8.03812,-0.06028 -11.96762,0.86207c-4.10648,0.96389 -12.16372,4.80211 -12.16372,4.80211z" fill="#000000" stroke="none" stroke-width="0" stroke-linecap="butt"/><path d="M265.96236,96.90447c-3.9295,-0.92235 -11.96762,-0.86207 -11.96762,-0.86207c0,0 7.24586,-1.8937 12.33413,-0.69937c5.08826,1.19433 11.79721,6.36355 11.79721,6.36355c0,0 -8.05724,-3.83822 -12.16372,-4.80211z" data-paper-data="{&quot;index&quot;:null}" fill="#000000" stroke="none" stroke-width="0" stroke-linecap="butt"/><path d="M246.625,168.73236c0,4.9894 -2.96612,9.03409 -6.625,9.03409c-3.65889,0 -6.625,-4.04469 -6.625,-9.03409c0,-4.9894 2.96612,-9.03409 6.625,-9.03409c3.65889,0 6.625,4.04471 6.625,9.03409z" fill="#000000" stroke="none" stroke-width="0" stroke-linecap="butt"/></g></g></svg>