<svg version="1.1" xmlns="http://www.w3.org/2000/svg" xmlns:xlink="http://www.w3.org/1999/xlink" width="167.74668" height="373.16344" viewBox="0,0,167.74668,373.16344"><defs><linearGradient x1="239.98966" y1="184.34852" x2="239.98966" y2="316.34846" gradientUnits="userSpaceOnUse" id="color-1"><stop offset="0" stop-color="#000000"/><stop offset="1" stop-color="#3f2222"/></linearGradient><linearGradient x1="249.05754" y1="276.64358" x2="249.05754" y2="304.29044" gradientUnits="userSpaceOnUse" id="color-2"><stop offset="0" stop-color="#1a0c12"/><stop offset="1" stop-color="#4d2637"/></linearGradient><linearGradient x1="245.70968" y1="269.56989" x2="245.70968" y2="282.7453" gradientUnits="userSpaceOnUse" id="color-3"><stop offset="0" stop-color="#1a0c12"/><stop offset="1" stop-color="#4d2637"/></linearGradient><linearGradient x1="233.83019" y1="267.84193" x2="233.83019" y2="281.01743" gradientUnits="userSpaceOnUse" id="color-4"><stop offset="0" stop-color="#1a0c12"/><stop offset="1" stop-color="#4d2637"/></linearGradient><linearGradient x1="230.15834" y1="266.33002" x2="230.15834" y2="279.50543" gradientUnits="userSpaceOnUse" id="color-5"><stop offset="0" stop-color="#1a0c12"/><stop offset="1" stop-color="#4d2637"/></linearGradient><linearGradient x1="233.07421" y1="262.65819" x2="233.07421" y2="274.96961" gradientUnits="userSpaceOnUse" id="color-6"><stop offset="0" stop-color="#1a0c12"/><stop offset="1" stop-color="#4d2637"/></linearGradient><linearGradient x1="252.94539" y1="247.10687" x2="252.94539" y2="277.99352" gradientUnits="userSpaceOnUse" id="color-7"><stop offset="0" stop-color="#1a0c12"/><stop offset="1" stop-color="#4d2637"/></linearGradient><linearGradient x1="242.14331" y1="183.01695" x2="242.14331" y2="250.25159" gradientUnits="userSpaceOnUse" id="color-8"><stop offset="0" stop-color="#000000"/><stop offset="1" stop-color="#3a213e"/></linearGradient><linearGradient x1="240.00005" y1="175.50006" x2="240.00005" y2="307.50005" gradientUnits="userSpaceOnUse" id="color-9"><stop offset="0" stop-color="#000000"/><stop offset="1" stop-color="#935399"/></linearGradient><radialGradient cx="245.94613" cy="164.44098" r="64.40652" gradientUnits="userSpaceOnUse" id="color-10"><stop offset="0" stop-color="#000000"/><stop offset="1" stop-color="#270000"/></radialGradient><linearGradient x1="238.76029" y1="262.27727" x2="238.76029" y2="419.55096" gradientUnits="userSpaceOnUse" id="color-11"><stop offset="0" stop-color="#4d4948"/><stop offset="1" stop-color="#1a1716"/></linearGradient><radialGradient cx="242.45679" cy="236.64493" r="1.98299" gradientUnits="userSpaceOnUse" id="color-12"><stop offset="0" stop-color="#000000"/><stop offset="1" stop-color="#7c0000"/></radialGradient><radialGradient cx="242.45679" cy="236.64493" r="1.98299" gradientUnits="userSpaceOnUse" id="color-13"><stop offset="0" stop-color="#000000" stop-opacity="0"/><stop offset="1" stop-color="#000000" stop-opacity="0"/></radialGradient><radialGradient cx="250.21629" cy="231.64431" r="1.12082" gradientUnits="userSpaceOnUse" id="color-14"><stop offset="0" stop-color="#000000"/><stop offset="1" stop-color="#7c0000"/></radialGradient><radialGradient cx="226.50668" cy="223.97104" r="1.72434" gradientUnits="userSpaceOnUse" id="color-15"><stop offset="0" stop-color="#000000"/><stop offset="1" stop-color="#7c0000"/></radialGradient><radialGradient cx="223.66151" cy="243.54223" r="1.29325" gradientUnits="userSpaceOnUse" id="color-16"><stop offset="0" stop-color="#000000"/><stop offset="1" stop-color="#7c0000"/></radialGradient><radialGradient cx="250.64738" cy="224.31587" r="8.44925" gradientUnits="userSpaceOnUse" id="color-17"><stop offset="0" stop-color="#000000"/><stop offset="1" stop-color="#7c0000"/></radialGradient><radialGradient cx="215.81578" cy="235.86896" r="9.7425" gradientUnits="userSpaceOnUse" id="color-18"><stop offset="0" stop-color="#000000"/><stop offset="1" stop-color="#7c0000"/></radialGradient><linearGradient x1="273.68125" y1="152.42266" x2="274.18845" y2="175.72338" gradientUnits="userSpaceOnUse" id="color-19"><stop offset="0" stop-color="#553f34"/><stop offset="1" stop-color="#4a2722"/></linearGradient><linearGradient x1="253.83984" y1="146.35199" x2="254.64149" y2="183.18045" gradientUnits="userSpaceOnUse" id="color-20"><stop offset="0" stop-color="#7f6d5d"/><stop offset="1" stop-color="#3e342d"/></linearGradient><linearGradient x1="217.00465" y1="149.01491" x2="217.39957" y2="167.15746" gradientUnits="userSpaceOnUse" id="color-21"><stop offset="0" stop-color="#000000"/><stop offset="1" stop-color="#5f302c"/></linearGradient><linearGradient x1="277.86412" y1="144.1015" x2="278.35528" y2="166.6659" gradientUnits="userSpaceOnUse" id="color-22"><stop offset="0" stop-color="#000000"/><stop offset="1" stop-color="#5f302c"/></linearGradient><linearGradient x1="256.72754" y1="165.1045" x2="257.23359" y2="188.35284" gradientUnits="userSpaceOnUse" id="color-23"><stop offset="0" stop-color="#553f34"/><stop offset="1" stop-color="#4a2722"/></linearGradient><linearGradient x1="249.68419" y1="158.60791" x2="250.26962" y2="185.50331" gradientUnits="userSpaceOnUse" id="color-24"><stop offset="0" stop-color="#7f6d5d"/><stop offset="1" stop-color="#3e342d"/></linearGradient><linearGradient x1="246.34319" y1="166.32835" x2="246.76645" y2="185.77353" gradientUnits="userSpaceOnUse" id="color-25"><stop offset="0" stop-color="#5d2f2b"/><stop offset="1" stop-color="#000000"/></linearGradient><linearGradient x1="258.10754" y1="103.31426" x2="260.56729" y2="216.31672" gradientUnits="userSpaceOnUse" id="color-26"><stop offset="0" stop-color="#221c21"/><stop offset="1" stop-color="#4d404c"/></linearGradient><radialGradient cx="323.00622" cy="132.70172" r="15.88689" gradientUnits="userSpaceOnUse" id="color-27"><stop offset="0" stop-color="#3c2d3b"/><stop offset="1" stop-color="#191319"/></radialGradient><radialGradient cx="324.42416" cy="200.82965" r="13.83682" gradientUnits="userSpaceOnUse" id="color-28"><stop offset="0" stop-color="#000000" stop-opacity="0"/><stop offset="1" stop-color="#000000" stop-opacity="0.19657"/></radialGradient><radialGradient cx="324.03874" cy="167.68106" r="23.91791" gradientUnits="userSpaceOnUse" id="color-29"><stop offset="0" stop-color="#605460"/><stop offset="1" stop-color="#332a32"/></radialGradient><linearGradient x1="323.51825" y1="143.76887" x2="324.55924" y2="191.59336" gradientUnits="userSpaceOnUse" id="color-30"><stop offset="0" stop-color="#806a7f"/><stop offset="1" stop-color="#5d4d5c"/></linearGradient><linearGradient x1="246.01618" y1="202.81483" x2="246.28693" y2="215.25233" gradientUnits="userSpaceOnUse" id="color-31"><stop offset="0" stop-color="#000000"/><stop offset="1" stop-color="#630000"/></linearGradient><radialGradient cx="197.26694" cy="215.34662" r="1.57732" gradientUnits="userSpaceOnUse" id="color-32"><stop offset="0" stop-color="#000000"/><stop offset="1" stop-color="#630000"/></radialGradient><linearGradient x1="323.51825" y1="143.76887" x2="324.55924" y2="191.59336" gradientUnits="userSpaceOnUse" id="color-33"><stop offset="0" stop-color="#322931"/><stop offset="1" stop-color="#453944"/></linearGradient></defs><g transform="translate(-175.69901,-46.38752)"><g data-paper-data="{&quot;isPaintingLayer&quot;:true}" fill-rule="nonzero" stroke-linejoin="miter" stroke-miterlimit="10" stroke-dasharray="" stroke-dashoffset="0" style="mix-blend-mode: normal"><path d="M180.1931,313.61253v-267.22501h123.18203v267.22501z" fill-opacity="0.01" fill="#000000" stroke="none" stroke-width="0" stroke-linecap="butt"/><path d="M221.65255,184.50641l38.26309,-0.15789l11.57983,111.19652c-1.79994,-0.81338 -3.51553,-1.59229 -4.85732,-2.45196c-1.18727,-0.76067 -1.43337,-8.87639 -1.83874,-10.18216c-1.8957,-6.10631 -7.55414,-3.04021 -11.03343,-5.32934c-1.6778,-1.10388 -2.57948,-3.08938 -4.59716,-3.61621c-1.68197,-0.43918 -3.5478,-1.90359 -5.09504,-1.11803c-2.7486,1.39551 -5.58247,3.18991 -8.29501,5.0623c-2.27706,1.57179 -0.23206,6.53578 -3.70594,8.08028c-5.65423,2.51389 -5.53911,-2.86544 -8.47262,-4.52071c-5.15365,-2.90801 -9.87069,-1.30998 -13.46001,2.01324z" fill="url(#color-1)" stroke="#000000" stroke-width="0" stroke-linecap="butt"/><path d="M246.03368,304.29044v-27.64684h6.04775v27.64684z" fill="url(#color-2)" stroke="none" stroke-width="0" stroke-linecap="butt"/><path d="M245.70968,269.56989c8.70806,0 15.76734,2.94942 15.76734,6.58772c0,3.6383 -7.05928,6.58772 -15.76734,6.58772c-8.70806,0 -15.76734,-2.94942 -15.76734,-6.58772c0,-3.6383 7.05928,-6.58772 15.76734,-6.58772z" fill="url(#color-3)" stroke="none" stroke-width="0" stroke-linecap="butt"/><path d="M233.83019,267.84191c7.03802,0 12.74347,-1.15441 12.74347,2.4839c0,3.6383 -5.92144,13.28344 -12.95946,13.28344c-11.57383,0 -12.52747,-5.54131 -12.52747,-9.17962c0,-3.6383 5.70544,-6.58772 12.74347,-6.58772z" fill="url(#color-4)" stroke="none" stroke-width="0" stroke-linecap="butt"/><path d="M230.15834,266.33002c8.70806,0 15.76734,2.94943 15.76734,6.58772c0,3.63829 -7.05928,6.58772 -15.76734,6.58772c-8.70806,0 -15.76734,-2.94943 -15.76734,-6.58772c0,-3.63829 7.05928,-6.58772 15.76734,-6.58772z" fill="url(#color-5)" stroke="none" stroke-width="0" stroke-linecap="butt"/><path d="M233.07421,262.65819c6.61133,0 11.97088,2.75602 11.97088,6.15574c0,3.39973 -5.35955,6.15574 -11.97088,6.15574c-6.61134,0 -11.97089,-2.75602 -11.97089,-6.15574c0,-3.39972 5.35956,-6.15574 11.97089,-6.15574z" fill="url(#color-6)" stroke="none" stroke-width="0" stroke-linecap="butt"/><path d="M252.94539,247.10687c7.21696,0 13.06745,6.91423 13.06745,15.44335c0,8.52913 -5.85049,15.44335 -13.06745,15.44335c-7.21696,0 -13.06745,-6.91423 -13.06745,-15.44335c0,-8.52913 5.85049,-15.44335 13.06745,-15.44335z" fill="url(#color-7)" stroke="none" stroke-width="0" stroke-linecap="butt"/><path d="M296.59783,196.07491c0,0 -0.33942,7.5719 -3.88961,8.89054c-3.55019,1.31864 -5.83441,-5.27875 -5.83441,-5.27875l-3.33395,4.16744v5.00092l-1.9448,1.66698c0,0 2.34568,9.2973 -0.58088,8.46114c-2.92656,-0.83616 -3.30873,-9.57246 -3.30873,-9.57246c0,0 2.17241,9.97794 -2.07107,12.22449c-4.24348,2.24654 -7.37512,-7.22356 -7.37512,-7.22356l0.55566,23.61548l-31.11688,12.22449l-22.22633,-10.27968l-2.22264,-2.77829l0.83349,-23.33766c0,0 -3.53924,8.70391 -6.94573,6.94573c-3.40649,-1.75818 -1.66698,-11.391 -1.66698,-11.391c0,0 0.02799,8.80427 -3.61178,8.61271c-3.63977,-0.19156 -1.66698,-8.89053 -1.66698,-8.89053l-1.66697,-1.38914v-5.00093l-3.05612,-3.05612c0,0 -2.88219,5.52811 -5.83441,5.00092c-2.95222,-0.52719 -1.94481,-6.39007 -1.94481,-6.39007l12.22448,-15.28061z" fill="url(#color-8)" stroke="#000000" stroke-width="0" stroke-linecap="round"/><path d="M221.89291,175.65798l37.78325,-0.15789l11.43462,111.19652c-1.77737,-0.81337 -3.47144,-1.5923 -4.7964,-2.45196c-1.17238,-0.76067 -1.4154,-8.87639 -1.81569,-10.18216c-1.87193,-6.10631 -7.4594,-3.0402 -10.89506,-5.32934c-1.65676,-1.10388 -2.54713,-3.08938 -4.53951,-3.61621c-1.66088,-0.43918 -3.50331,-1.90359 -5.03115,-1.11803c-2.71413,1.3955 -5.51246,3.18992 -8.19098,5.06231c-2.2485,1.57179 -0.22915,6.53577 -3.65947,8.08028c-5.58333,2.51389 -5.46965,-2.86544 -8.36637,-4.52071c-5.08902,-2.90801 -9.7469,-1.30998 -13.29121,2.01325z" fill="url(#color-9)" stroke="#000000" stroke-width="0" stroke-linecap="butt"/><path d="M182.44611,206.78752l-1.78249,-81.88973l128.78252,-2.80323l1.7825,81.88973z" fill="url(#color-10)" stroke="none" stroke-width="0" stroke-linecap="butt"/><path d="M233.76029,419.55096c0,0 -0.28483,-36.20281 -0.02387,-72.15242c0.08799,-12.12082 0.86954,-24.63388 0.89684,-35.15544c0.00754,-2.90811 -0.93352,-7.82757 -0.92296,-10.45149c0.03131,-7.78053 0.76251,-14.62955 0.76251,-18.76319c0,-9.9535 -0.71252,-20.75109 -0.71252,-20.75109h10c0,0 -0.47502,11.60541 -0.47502,21.93863c0,2.46206 0.71684,6.39707 0.72465,10.21264c0.01165,5.69044 -0.93656,15.05748 -0.94177,22.80137c-0.00549,8.16664 0.73047,18.02775 0.77166,27.07476c0.16828,36.96355 -0.07953,75.24624 -0.07953,75.24624z" fill="url(#color-11)" stroke="#000000" stroke-width="0" stroke-linecap="butt"/><path d="M210.73705,274.43584l2.3217,-18.57364c0,0 -0.01784,8.18509 8.21526,8.03667c7.51718,-0.13551 11.07275,-9.10823 11.07275,-9.10823c0,0 -0.15395,6.04961 8.57245,5.71497c8.00637,-0.30703 6.25074,-7.3223 6.25074,-7.3223c0,0 1.50582,10.01365 11.07275,10.17978c8.85171,0.15371 9.46541,-9.28682 9.46541,-9.28682l3.21467,32.50387l-5.0006,-2.5003c0,0 -0.11912,-6.91945 -3.57185,-11.07275c-3.45274,-4.15329 -5.45718,-2.45393 -8.75104,-3.75045c-3.29386,-1.29652 -4.69432,-5.11246 -8.57245,-5.0006c-3.87813,0.11187 -5.82939,2.41788 -8.92963,5.71497c-3.10025,3.29709 -0.82867,3.96142 -2.3217,6.25074c-1.49304,2.28933 -2.26912,1.58717 -4.10763,1.78593c-1.83851,0.19876 -2.5003,-1.07156 -2.5003,-1.07156c0,0 -4.59741,-5.11007 -8.57245,-5.71497c-3.97504,-0.6049 -7.85808,3.21467 -7.85808,3.21467z" fill="#000000" stroke="#000000" stroke-width="0.5" stroke-linecap="round"/><path d="M240.4738,236.64493c0,-1.09517 0.88781,-1.98299 1.98299,-1.98299c1.09517,0 1.98299,0.88781 1.98299,1.98299c0,1.09517 -0.88781,1.98299 -1.98299,1.98299c-1.09517,0 -1.98299,-0.88781 -1.98299,-1.98299z" fill="url(#color-12)" stroke="url(#color-13)" stroke-width="0" stroke-linecap="butt"/><path d="M249.09548,231.64431c0,-0.61901 0.50181,-1.12082 1.12082,-1.12082c0.61901,0 1.12082,0.50181 1.12082,1.12082c0,0.61901 -0.50181,1.12082 -1.12082,1.12082c-0.61901,0 -1.12082,-0.50181 -1.12082,-1.12082z" fill="url(#color-14)" stroke="none" stroke-width="0" stroke-linecap="butt"/><path d="M224.78234,223.97104c0,-0.95232 0.77201,-1.72434 1.72434,-1.72434c0.95232,0 1.72434,0.77201 1.72434,1.72434c0,0.95232 -0.77201,1.72434 -1.72434,1.72434c-0.95232,0 -1.72434,-0.77201 -1.72434,-1.72434z" fill="url(#color-15)" stroke="none" stroke-width="0" stroke-linecap="butt"/><path d="M222.36826,243.54223c0,-0.71424 0.57901,-1.29325 1.29325,-1.29325c0.71424,0 1.29325,0.57901 1.29325,1.29325c0,0.71424 -0.57901,1.29325 -1.29325,1.29325c-0.71424,0 -1.29325,-0.57901 -1.29325,-1.29325z" fill="url(#color-16)" stroke="none" stroke-width="0" stroke-linecap="butt"/><path d="M250.64738,219.83262c1.25028,-0.37955 3.7596,-1.92718 6.38004,-2.24164c2.62044,-0.31445 2.35313,0.03636 2.24164,1.20704c-0.11149,1.17067 -2.07597,1.08669 -2.5865,2.41407c-0.51053,1.32738 1.13063,1.14875 0.86217,2.0692c-0.26847,0.92046 -1.33343,1.17348 -2.0692,2.0692c-0.73577,0.89572 -0.69331,2.24838 -1.89677,2.75894c-1.20346,0.51056 -2.34183,-0.75964 -3.79354,-0.34487c-1.45171,0.41478 -2.53901,2.66691 -4.65571,2.75894c-2.1167,0.09203 1.48611,-1.39195 0.68973,-2.5865c-0.79637,-1.19456 -1.89384,0.2757 -2.75894,-0.5173c-0.86509,-0.793 0.84577,-0.63831 0.68973,-1.37947c-0.15603,-0.74116 -1.76708,-1.05695 -1.37947,-1.89677c0.38761,-0.83982 2.07594,-1.59246 3.44867,-2.5865c1.37273,-0.99405 0.86572,-0.78954 1.5519,-1.0346c0.68618,-0.24506 2.02596,-0.31018 3.27624,-0.68973z" fill="url(#color-17)" stroke="#000000" stroke-width="0" stroke-linecap="round"/><path d="M216.16067,228.4543c0,0 3.11089,-1.65756 3.96597,-1.67935c0.85508,-0.02179 0.71982,-0.63789 1.0346,1.5519c0.31478,2.18979 -0.46368,4.01506 0,5.64532c0.46367,1.63026 2.29474,2.28163 2.5865,3.44867c0.29176,1.16705 0.35902,1.54514 -1.0346,2.75894c-1.39362,1.2138 -3.53754,1.09373 -4.31084,1.89677c-0.7733,0.80304 0.57555,1.74696 -0.17243,2.75894c-0.74799,1.01198 -1.75742,1.89558 -2.75894,1.20704c-1.00152,-0.68855 0.21802,-2.42249 0,-3.10381c-0.21802,-0.68132 -1.37947,-1.20704 -1.37947,-1.20704l2.0692,-13.27739z" fill="url(#color-18)" stroke="#000000" stroke-width="0" stroke-linecap="round"/><path d="M218.37485,248.74504c0,-0.71807 0.58211,-1.30017 1.30017,-1.30017c0.71807,0 1.30017,0.58211 1.30017,1.30017c0,0.71807 -0.58211,1.30017 -1.30017,1.30017c-0.71807,0 -1.30017,-0.58211 -1.30017,-1.30017z" fill="#000000" stroke="none" stroke-width="0" stroke-linecap="butt"/><path d="M262.58074,255.94597c0,-0.71807 0.58211,-1.30017 1.30017,-1.30017c0.71807,0 1.30017,0.58211 1.30017,1.30017c0,0.71807 -0.58211,1.30017 -1.30017,1.30017c-0.71807,0 -1.30017,-0.58211 -1.30017,-1.30017z" fill="#000000" stroke="none" stroke-width="0" stroke-linecap="butt"/><g stroke-width="0"><path d="M222.42,159.29079l97.86797,-7.88263l5.9754,20.35965c-1.55181,-0.06888 -3.34244,0.15109 -5.44548,0.70077c-0.91949,0.24034 -1.22058,1.28655 -1.5956,2.27454l-2.99902,-14.74306l-43.26874,-0.05858l-13.54227,9.79861l-5.14656,-6.64071l-23.23205,1.25601l-4.63539,5.35302l-3.00524,-0.1847l-1.60329,-4.71701z" fill="url(#color-19)" stroke="#57372f" stroke-linecap="butt"/><path d="M304.53396,163.00568l-4.70068,2.35324l-0.14661,4.75509l-5.21698,1.61416l2.17911,-3.29875l-3.30418,-2.42909l-0.07074,-3.24978l-6.54307,-1.85838l2.60322,4.69526l-4.72789,1.10332l-3.35859,-4.92891l-2.27162,-0.95097l-5.62446,5.87476l-4.59764,-4.40174l-14.29253,-1.6897l-4.5701,8.35281l-3.22801,1.07067l-0.17957,-8.24942l-8.68409,3.19023l1.07067,3.228l3.28786,1.67915l-4.40174,4.59764l-2.74981,0.05986l-0.8098,-2.73348l-2.02706,-1.20639l0.08129,-7.7549l-5.04316,-1.89101l-7.38521,5.41289l-3.11373,6.32029l-1.99443,0.29352l-5.75537,-11.62948l3.76637,12.17295l-7.52123,-0.83669l-2.98923,-10.93935l-2.96169,1.81518l0.04353,1.99985l1.28256,1.47269l-4.61906,6.10296l-0.03841,-13.2545l-6.64615,4.89659l0.61967,5.48873l2.04884,2.20633l-1.94002,2.79334l-4.80408,-2.39644l5.95539,-25.13973l122.13837,4.09413l10.5314,29.86395c-0.24663,-0.05896 -0.48268,-0.13515 -0.70287,-0.23781c-1.38363,-0.645 -2.5657,-2.14492 -3.94852,-2.79911c-1.55073,-0.73362 -3.35582,-1.12296 -5.21586,-1.17325z" fill="url(#color-20)" stroke="#57372f" stroke-linecap="butt"/><path d="M187.06035,167.40262c-4.41324,-1.14414 -3.08786,-8.81756 -3.14085,-11.25209c-0.05299,-2.43455 1.20025,-30.88812 1.20025,-30.88812l65.80069,-3.36376c0,0 0.15827,33.0381 -0.62621,35.70302c-0.78448,2.66491 -1.1159,3.90441 -3.82112,5.87504c-2.70522,1.97062 -6.6387,2.48346 -8.10011,2.80898c-1.46141,0.32552 -0.79847,0.90118 -3.68972,-0.18294c-2.89124,-1.08413 -5.64952,-3.48949 -6.92761,-3.7982c-1.27809,-0.30873 1.55941,0.79945 -2.07076,1.62468c-3.63016,0.82523 -6.24758,1.3689 -9.45591,0.99563c-3.20833,-0.37327 -5.72332,-2.69926 -7.69985,-2.9916c-1.97651,-0.29232 -1.18994,1.89988 -4.71364,1.15567c-3.52368,-0.7442 -2.85461,-5.03287 -7.71703,-3.78102c-4.86241,1.25186 -4.62487,9.23884 -9.03813,8.09472z" fill="url(#color-21)" stroke="#61352d" stroke-linecap="round"/><path d="M308.72196,118.85685c0,0 -0.11467,41.30742 -2.99617,45.43621c-2.88151,4.12879 -11.65218,0.15911 -12.89966,0.01752c-1.24751,-0.14159 -2.00508,-1.51027 -2.67151,-1.78472c-0.66643,-0.27446 0.80903,-0.01762 -1.57885,0.03437c-2.38787,0.05197 -2.14955,0.90301 -6.05226,0.13175c-3.90271,-0.77126 -5.91922,-3.51062 -9.54757,-3.21464c-3.62835,0.29599 -5.57876,3.88325 -8.06004,4.65097c-2.48126,0.76773 -3.11203,0.87104 -6.58427,-0.11994c-3.47224,-0.99099 -6.11157,-0.60843 -7.98588,-4.03844c-1.87434,-3.43001 -2.58919,-38.1411 -2.58919,-38.1411z" fill="url(#color-22)" stroke="#61352d" stroke-linecap="round"/></g><g stroke-width="0"><path d="M310.14926,187.20101l-86.3038,-0.87253l-35.45431,-8.73209l11.50976,-11.25497l2.04339,1.95633l-6.05911,8.88542l39.56795,2.39004l9.61328,-6.46178l4.49968,-0.09795l1.1523,6.97776l57.28953,0.75378l13.3432,-16.55191c1.26751,0.8548 2.62376,1.54948 4.00924,2.03785z" fill="url(#color-23)" stroke="#57372f" stroke-linecap="butt"/><path d="M188.30481,169.14738l2.69959,-4.66046l-1.68689,-3.96476l3.58657,-0.6783l1.48257,3.76913l-1.44311,7.23407l-2.92135,3.66493l12.09452,4.13838l0.11728,-3.80396l6.24263,-7.33855l6.59496,-0.34362l0.05224,2.39975l-5.3298,3.31719l3.30413,4.72985l3.0258,1.13457l3.26034,-6.47334l2.99099,-0.46526l0.48266,3.7909l0.06529,2.99968l11.62466,-8.256l5.36053,7.28606l14.26383,2.69063l0.66933,-6.01679l3.52128,-3.67799l7.10809,4.84713l6.48179,-5.54309l2.23895,1.75194l-1.38245,0.83038l1.68252,3.76479l4.61693,0.6998l4.06026,-6.49074l6.90377,4.65151l5.14723,-2.51293l-2.06074,-2.75617l2.71265,-4.06053l2.61715,0.74333l0.87392,3.38222l0.32161,-3.60833l3.59093,-0.47831l0.45655,2.59103l-1.50842,4.23439l10.30553,-8.92409c0.0565,2.28243 0.61153,4.35447 2.39766,5.81405c0.32641,0.26673 0.64983,0.5171 0.97023,0.75156l-12.56258,14.03674l-112.31831,-1.05658l-6.88012,-5.85266z" fill="url(#color-24)" stroke="#57372f" stroke-linecap="butt"/><path d="M308.437,169.7371c0.32612,1.66743 -0.92226,37.40636 -0.92226,37.40636l-122.83621,1.42323c0,0 -2.03239,-32.08805 -0.33451,-37.69164c1.69788,-5.60358 2.63646,-2.47441 5.28514,-1.3656c2.64869,1.10881 4.53882,6.19622 8.913,7.30932c4.37418,1.11312 8.3354,-2.2514 13.7224,-1.54926c5.387,0.70215 2.25226,3.01411 4.7758,3.96035c2.52354,0.94625 2.79024,-0.51497 4.68057,-0.41452c1.89033,0.10048 4.76205,1.3491 7.83949,1.07992c3.07743,-0.26916 6.6953,-2.5718 11.19526,-2.7448c4.49997,-0.17301 4.47108,1.6679 7.5474,2.0242c3.07631,0.35629 6.53958,0.78331 10.6315,0.08123c4.09192,-0.70208 5.99412,-3.3647 10.23739,-3.66187c4.24326,-0.29718 9.63349,3.1061 15.67217,1.84735c6.03869,-1.25877 11.48013,-6.56054 19.49647,-9.17828c8.01637,-2.61774 3.77028,-0.1934 4.0964,1.47404z" fill="url(#color-25)" stroke="#61352d" stroke-linecap="round"/></g><g><path d="M195.7212,106.35651c0,0 1.81441,13.81472 -0.71142,17.5463c-0.88617,1.30919 -7.00783,0.52054 -9.18258,1.36067c-4.47828,1.72999 -5.85563,4.36113 -5.85563,4.36113c0,0 -1.15981,-7.91775 -0.83352,-9.5688c0.32629,-1.65106 1.99956,-1.21879 3.27406,-2.78062c1.2745,-1.56184 1.37159,-3.13702 2.61286,-4.43352c1.24126,-1.29651 2.60125,-1.05669 3.90808,-2.3776c1.30681,-1.32092 0.95262,-3.1283 2.41359,-4.01237c1.46099,-0.88407 4.37457,-0.09522 4.37457,-0.09522z" fill="#44221f" stroke="#a87469" stroke-width="0" stroke-linecap="round"/><path d="M180.60526,218.05726c0,0 -1.47484,-67.75533 -1.94697,-89.44612c-0.01718,-0.78916 -2.95928,-1.90729 -2.95928,-1.90729c0,0 5.07341,-2.61544 5.63325,-4.05076c0.6626,-1.6987 -0.28685,-3.80773 -0.28685,-3.80773c0,0 4.02113,0.71336 5.44149,0.96453c1.22462,0.21655 0.04905,-6.48369 0.04905,-6.48369c0,0 5.93908,2.02407 7.01051,1.36807c2.10321,-1.28774 2.11683,-10.02079 2.11683,-10.02079c0,0 1.79176,3.08718 2.79736,3.06528c29.93488,-0.6516 142.59334,-3.10384 142.59334,-3.10384l2.3917,109.87777zM187.82577,205.17368l117.76287,-3.35158l-2.88649,-78.22988l-116.59433,2.53526z" fill="url(#color-26)" stroke="#725771" stroke-width="0" stroke-linecap="butt"/><path d="M307.23714,138.28691c-0.04138,-1.90077 -0.16881,-7.75538 -0.23774,-10.92165c-0.02726,-1.2525 1.11893,-2.10966 2.37041,-2.1369c3.62228,-0.07885 21.4671,-0.46728 27.41639,-0.59676c1.21521,-0.02645 1.9691,1.56645 1.99774,2.88235c0.04023,1.84792 0.15157,6.96347 0.21945,10.08151c0.03248,1.49231 -0.9782,2.54955 -2.66241,2.5862c-6.66919,0.14517 -23.54587,0.51253 -26.89419,0.58539c-1.13128,0.02462 -2.18423,-1.31087 -2.20968,-2.48016z" fill="url(#color-27)" stroke="#725771" stroke-width="0" stroke-linecap="butt"/><path d="M310.67132,204.8378c-0.0552,-2.53577 -0.13698,-6.29327 -0.16697,-7.67061c-0.02197,-1.00915 1.0128,-2.24506 2.14191,-2.26963c3.16344,-0.06885 18.32221,-0.39882 23.63347,-0.51442c1.15418,-0.02513 1.87747,1.5284 1.90361,2.72973c0.03029,1.39189 0.10382,4.76975 0.15504,7.12272c0.03108,1.42799 -0.81959,2.49753 -1.78938,2.51863c-2.76653,0.06021 -16.31695,0.35518 -22.6059,0.49206c-1.96246,0.04271 -3.24057,-0.97365 -3.27178,-2.40848z" fill="url(#color-28)" stroke="#332733" stroke-width="0" stroke-linecap="butt"/><path d="M310.48872,190.08983c-0.16963,-7.79283 -0.8344,-38.3333 -0.94499,-43.41364c-0.03045,-1.39905 1.06764,-2.62638 2.25218,-2.65217c3.15053,-0.06858 17.61588,-0.38345 23.37656,-0.50884c1.47304,-0.03206 2.40022,1.01924 2.42797,2.29329c0.10428,4.79084 0.75225,34.55906 0.9394,43.15674c0.03202,1.47139 -0.69656,2.33899 -1.55572,2.35768c-2.84793,0.06199 -18.69353,0.40689 -24.40413,0.5312c-1.28093,0.02788 -2.06618,-0.61047 -2.0913,-1.76427z" fill="url(#color-29)" stroke="url(#color-30)" stroke-width="2" stroke-linecap="butt"/><path d="M338.17114,210.43334c-0.01698,-0.78032 0.60181,-1.42664 1.38212,-1.44362c0.78031,-0.01698 1.42663,0.6018 1.44362,1.38212c0.01698,0.78032 -0.60181,1.42664 -1.38213,1.44362c-0.78031,0.01698 -1.42662,-0.60181 -1.44361,-1.38212z" fill="#2e232e" stroke="none" stroke-width="0" stroke-linecap="butt"/><path d="M184.28607,212.75493c-0.02316,-1.06405 0.82065,-1.94542 1.88469,-1.96859c1.06405,-0.02316 1.94542,0.82064 1.96858,1.88471c0.02316,1.06405 -0.82064,1.94542 -1.88471,1.96858c-1.06405,0.02316 -1.94542,-0.82064 -1.96858,-1.8847z" fill="#2e232e" stroke="none" stroke-width="0" stroke-linecap="butt"/><path d="M335.94519,107.98439c-0.02058,-0.94587 0.72949,-1.72933 1.67539,-1.74994c0.94587,-0.02058 1.72933,0.72948 1.74994,1.67538c0.02058,0.94587 -0.72949,1.72936 -1.67538,1.74996c-0.94587,0.02058 -1.72934,-0.72951 -1.74995,-1.6754z" fill="#2e232e" stroke="none" stroke-width="0" stroke-linecap="butt"/><path d="M324.22452,190.23719l-1.00089,-45.98249" fill="none" stroke-opacity="0.16069" stroke="#40303f" stroke-width="2" stroke-linecap="round"/><path d="M310.86059,178.44874l26.2023,-0.57036" fill="none" stroke-opacity="0.16069" stroke="#40303f" stroke-width="2" stroke-linecap="round"/><path d="M337.59309,166.81552l-26.71607,0.58152" fill="none" stroke-opacity="0.16069" stroke="#40303f" stroke-width="2" stroke-linecap="round"/><path d="M337.0902,155.51817l-26.97296,0.58713" fill="none" stroke-opacity="0.16069" stroke="#40303f" stroke-width="2" stroke-linecap="round"/><path d="M307.71946,105.8953c0,0 -7.61361,4.83726 -11.41528,5.65787c-2.91328,0.62885 -9.44734,-1.15453 -9.44734,-1.15453l7.04384,-4.67893" fill="#44221f" stroke="#725771" stroke-width="0" stroke-linecap="round"/><path d="M305.21688,201.5262l0.03996,7.89012l-2.4894,1.82456l-3.80837,-0.67584l-4.0997,-2.43989l-12.76031,6.34764l-7.97411,-6.1492l-4.81954,-0.65382l-1.52775,-0.47256l-3.03351,0.06603l-2.26961,0.30231l-10.62275,-0.02169l-2.56644,-1.71451l-6.81438,0.65415l-2.00582,0.8024l-5.07029,0.11038l-0.55103,3.81651l-2.50755,1.32276l-2.85894,-0.25482l-3.2586,-4.05064l-3.03097,6.40684l-2.86584,-0.57172l-1.67414,-4.08512l-3.86479,-2.76927l-7.29544,-0.15824l-2.19066,1.31587l-5.70408,0.12416l-2.81067,1.96344l-2.23893,-0.9024l-4.75341,0.10347l-2.87963,-1.2055l-0.08277,-3.80271z" fill="url(#color-31)" stroke="#9e4138" stroke-width="0" stroke-linecap="round"/><path d="M195.68999,215.38095c-0.01896,-0.87093 0.67169,-1.59232 1.54263,-1.61127c0.87093,-0.01896 1.59232,0.67169 1.61127,1.54263c0.01896,0.87093 -0.67169,1.59232 -1.54263,1.61127c-0.87093,0.01896 -1.59232,-0.67169 -1.61127,-1.54263z" fill="url(#color-32)" stroke="none" stroke-width="0" stroke-linecap="butt"/><path d="M310.48872,190.08983c-0.16963,-7.79283 -0.8344,-38.3333 -0.94499,-43.41364c-0.03045,-1.39905 1.06764,-2.62638 2.25218,-2.65217c3.15053,-0.06858 17.61588,-0.38345 23.37656,-0.50884c1.47304,-0.03206 2.40022,1.01924 2.42797,2.29329c0.10428,4.79084 0.75225,34.55906 0.9394,43.15674c0.03202,1.47139 -0.69656,2.33899 -1.55572,2.35768c-2.84793,0.06199 -18.69353,0.40689 -24.40413,0.5312c-1.28093,0.02788 -2.06618,-0.61047 -2.0913,-1.76427z" fill="none" stroke="url(#color-33)" stroke-width="2.5" stroke-linecap="butt"/></g></g></g></svg>