<svg version="1.1" xmlns="http://www.w3.org/2000/svg" xmlns:xlink="http://www.w3.org/1999/xlink" width="35.14904" height="35.14869" viewBox="0,0,35.14904,35.14869"><defs><linearGradient x1="239.51203" y1="162.42566" x2="239.51203" y2="196.5988" gradientUnits="userSpaceOnUse" id="color-1"><stop offset="0" stop-color="#361a1a"/><stop offset="1" stop-color="#1d3047"/></linearGradient><linearGradient x1="239.33704" y1="174.75351" x2="239.33704" y2="185.74977" gradientUnits="userSpaceOnUse" id="color-2"><stop offset="0" stop-color="#700909"/><stop offset="1" stop-color="#2a0000"/></linearGradient></defs><g transform="translate(-222.42548,-162.42565)"><g data-paper-data="{&quot;isPaintingLayer&quot;:true}" stroke-miterlimit="10" stroke-dasharray="" stroke-dashoffset="0" style="mix-blend-mode: normal"><path d="M257.57451,169.84388v20.49804c0,4.00745 -3.22497,7.23243 -7.23242,7.23243h-20.5c-3.66107,0 -6.66147,-2.69385 -7.1543,-6.21484c0.7952,3.03475 3.54108,5.26367 6.83204,5.26367h20.0332c3.9166,0 7.07032,-3.15372 7.07032,-7.07031v-20.03321c0,-3.2976 -2.23906,-6.0451 -5.28321,-6.83398c3.52994,0.48496 6.23438,3.49081 6.23438,7.15821z" fill-opacity="0.29839" fill="#000000" fill-rule="evenodd" stroke="none" stroke-width="4.54219" stroke-linecap="round" stroke-linejoin="round"/><path d="M229.49514,162.42566h20.03379c3.9166,0 7.06966,3.15307 7.06966,7.06966v20.03379c0,3.91659 -3.15306,7.06966 -7.06966,7.06966h-20.03379c-3.91659,0 -7.06966,-3.15307 -7.06966,-7.06966v-20.03379c0,-3.91659 3.15307,-7.06966 7.06966,-7.06966z" fill="url(#color-1)" fill-rule="evenodd" stroke="none" stroke-width="4.43922" stroke-linecap="round" stroke-linejoin="round"/><path d="M223.96204,185.74975v-6.125h3.25v-4.75l24.37426,-0.12126l0.12574,4.74626l3,0.125v6.125z" fill="#ff4b4b" fill-rule="nonzero" stroke="#000000" stroke-width="2.5" stroke-linecap="butt" stroke-linejoin="miter"/><path d="M223.96204,185.74977v-6.125h3.25v-4.75l24.37426,-0.12126l0.12574,4.74626l3,0.125v6.125z" fill="url(#color-2)" fill-rule="nonzero" stroke="none" stroke-width="0" stroke-linecap="butt" stroke-linejoin="miter"/><path d="M244.17488,179.18166l-8.30557,0.17326c0,0 0.3541,-4.0038 0.4101,-4.52527l7.63151,-0.03797c-0.0008,1.60838 0.26396,4.38998 0.26396,4.38998z" fill="#595959" fill-rule="nonzero" stroke="none" stroke-width="0" stroke-linecap="butt" stroke-linejoin="miter"/></g></g></svg>