<svg version="1.1" xmlns="http://www.w3.org/2000/svg" xmlns:xlink="http://www.w3.org/1999/xlink" width="35.61338" height="35.51299" viewBox="0,0,35.61338,35.51299"><defs><linearGradient x1="239.52987" y1="162.49352" x2="239.52987" y2="196.66663" gradientUnits="userSpaceOnUse" id="color-1"><stop offset="0" stop-color="#000000"/><stop offset="1" stop-color="#7c0000"/></linearGradient></defs><g transform="translate(-222.19332,-162.24351)"><g data-paper-data="{&quot;isPaintingLayer&quot;:true}" stroke-linecap="round" stroke-miterlimit="10" stroke-dasharray="" stroke-dashoffset="0" style="mix-blend-mode: normal"><path d="M229.513,162.49352h20.03378c3.9166,0 7.06966,3.15307 7.06966,7.06966v20.03379c0,3.91659 -3.15306,7.06966 -7.06966,7.06966h-20.03378c-3.91659,0 -7.06967,-3.15307 -7.06967,-7.06966v-20.03379c0,-3.91659 3.15308,-7.06966 7.06967,-7.06966z" fill="url(#color-1)" fill-rule="evenodd" stroke="#ff0000" stroke-width="0.5" stroke-linejoin="round"/><path d="M233.24349,169.07831c1.31801,0.00169 15.22223,12.88888 15.22223,12.88888c0,0 1.75269,-1.69312 2,-1.44444c0.4553,0.45782 -0.44445,3 -0.44445,3c0,0 -1.04415,1.86628 -1.55555,1.88889c-0.51604,0.02282 -0.88889,-2.22222 -0.88889,-2.22222l-3.88889,-3l-2.22222,4.77777c0,0 -0.3542,1.73343 -0.86325,2.66667c-0.50904,0.93324 -0.60229,2.18217 -1.80342,2.22222c-2.1882,0.07297 -3.55555,0.11111 -3.55555,0.11111c0,0 -1.65843,0.25792 -2.66666,0c-1.00823,-0.25792 -2.10951,-0.26318 -2.11111,-1.22222c-0.003,-1.8003 -0.20894,-1.27464 0,-3.55555c-0.02726,0.00279 0.3211,-0.58556 0.88888,-0.66667c0.56779,-0.08111 4.55556,-0.11111 4.55556,-0.11111c0,0 1.04341,-3.40941 0.11111,-5.22222c-0.9323,-1.81281 -4.11111,-2.55555 -4.11111,-2.55555c0,0 -3.4813,0.17591 -3.44444,-0.11111c0.24012,-1.86993 4.27306,-7.4451 4.77776,-7.44445z" fill="#000000" fill-rule="nonzero" stroke="#ff0000" stroke-width="0.5" stroke-linejoin="miter"/><path d="M257.8067,170.02604v20.49804c0,4.00745 -3.22497,7.23243 -7.23242,7.23243h-20.5c-3.66107,0 -6.66147,-2.69385 -7.1543,-6.21484c0.7952,3.03475 3.54108,5.26367 6.83204,5.26367h20.0332c3.9166,0 7.07032,-3.15372 7.07032,-7.07031v-20.03321c0,-3.2976 -2.23906,-6.0451 -5.28321,-6.83398c3.52994,0.48496 6.23438,3.49081 6.23438,7.15821z" fill-opacity="0.29839" fill="#000000" fill-rule="evenodd" stroke="none" stroke-width="4.54219" stroke-linejoin="round"/></g></g></svg>