<svg version="1.1" xmlns="http://www.w3.org/2000/svg" xmlns:xlink="http://www.w3.org/1999/xlink" width="131.17135" height="267.22501" viewBox="0,0,131.17135,267.22501"><defs><linearGradient x1="239.29616" y1="163.54576" x2="239.29616" y2="234.63581" gradientUnits="userSpaceOnUse" id="color-1"><stop offset="0" stop-color="#000000"/><stop offset="1" stop-color="#833828"/></linearGradient><linearGradient x1="239.6092" y1="175.50004" x2="239.6092" y2="307.50003" gradientUnits="userSpaceOnUse" id="color-2"><stop offset="0" stop-color="#000000"/><stop offset="1" stop-color="#c99489"/></linearGradient><linearGradient x1="240.47538" y1="178.352" x2="240.47538" y2="234.19992" gradientUnits="userSpaceOnUse" id="color-3"><stop offset="0" stop-color="#1a1a1a"/><stop offset="1" stop-color="#6e6e6e"/></linearGradient><radialGradient cx="267.13636" cy="196.71838" r="59.60885" gradientUnits="userSpaceOnUse" id="color-4"><stop offset="0" stop-color="#72544d"/><stop offset="1" stop-color="#000000"/></radialGradient><linearGradient x1="240.00001" y1="91.44921" x2="240.00001" y2="262.79534" gradientUnits="userSpaceOnUse" id="color-5"><stop offset="0" stop-color="#000000"/><stop offset="1" stop-color="#9b5548"/></linearGradient></defs><g transform="translate(-174.41433,-46.3875)"><g data-paper-data="{&quot;isPaintingLayer&quot;:true}" fill-rule="nonzero" stroke-linejoin="miter" stroke-miterlimit="10" stroke-dasharray="" stroke-dashoffset="0" style="mix-blend-mode: normal"><path d="M179.19907,313.61251v-267.22501h123.18203c0,0 0,100.78169 0,147.27808c0,42.15174 0,119.94693 0,119.94693z" fill-opacity="0.01" fill="#000000" stroke="none" stroke-width="0" stroke-linecap="butt"/><path d="M194.27247,234.6358v-71.09004h90.04739v71.09005z" fill="url(#color-1)" stroke="#000000" stroke-width="0" stroke-linecap="butt"/><g stroke="#000000"><g stroke-width="0" stroke-linecap="butt"><path d="M206.3592,307.50002l15.14285,-131.8421l37.78325,-0.15789l13.57389,132z" fill="url(#color-2)"/><path d="M218.41514,215.02576l4.32191,-36.53173l35.83075,-0.14203l3.96783,35.70974c0,0 -9.9164,19.82083 -23.96,20.13444c-14.04361,0.31361 -20.16048,-19.17042 -20.16048,-19.17042z" fill="url(#color-3)"/></g><path d="M259.36212,195.76128c0,0 -12.61935,19.2201 -19.14806,19.13246c-6.31094,-0.08471 -19.39307,-19.64979 -19.39307,-19.64979" fill="none" stroke-width="2" stroke-linecap="round"/><path d="M240.10624,228.65316l0.32971,-17.3096" fill="none" stroke-width="2" stroke-linecap="round"/><path d="M235.82006,214.80548l8.90208,0.49456" fill="none" stroke-width="2" stroke-linecap="round"/></g><g stroke-width="0"><path d="M201.94319,119.80461c0,0 6.70895,-5.16922 11.79721,-6.36355c5.08827,-1.19433 12.33413,0.69937 12.33413,0.69937c0,0 -8.03812,-0.06028 -11.96762,0.86207c-4.10648,0.96389 -12.16372,4.80211 -12.16372,4.80211z" fill="#000000" stroke="none" stroke-linecap="butt"/><path d="M265.87768,115.00251c-3.9295,-0.92235 -11.96762,-0.86207 -11.96762,-0.86207c0,0 7.24586,-1.8937 12.33413,-0.69937c5.08826,1.19433 11.79721,6.36355 11.79721,6.36355c0,0 -8.05724,-3.83822 -12.16372,-4.80211z" data-paper-data="{&quot;index&quot;:null}" fill="#000000" stroke="none" stroke-linecap="butt"/><path d="M185.65424,150.70405l3.6,2.6" fill="none" stroke="#000000" stroke-linecap="round"/><path d="M290.05424,153.10403l4.2,-3.4" fill="none" stroke="#000000" stroke-linecap="round"/><path d="M185.65425,155.39559l3.6,2.6" fill="none" stroke="#000000" stroke-linecap="round"/><path d="M294.25425,154.39558l-4.2,3.4" fill="none" stroke="#000000" stroke-linecap="round"/><path d="M181.28453,157.51888c0,-30.90251 26.6878,-55.95393 59.60885,-55.95393c32.92105,0 59.60885,25.05143 59.60885,55.95393c0,30.90251 -26.6878,55.95394 -59.60885,55.95394c-32.92106,0 -59.60885,-25.05144 -59.60885,-55.95394z" fill="url(#color-4)" stroke="#000000" stroke-linecap="butt"/><path d="M181.28453,157.51888c0,-30.90251 26.6878,-55.95393 59.60885,-55.95393c32.92105,0 59.60885,25.05143 59.60885,55.95393c0,4.39914 -6.35174,22.45054 -13.31614,27.00613c-15.69028,10.26341 -39.88606,5.98506 -39.88606,5.98506l0.47515,6.30541c0,0 15.13782,4.29893 15.39076,7.4856c0.05499,0.69275 -0.76261,4.66469 -2.13948,5.60778c-4.40603,3.0179 -14.53919,3.56396 -20.13308,3.56396c-32.92106,0 -59.60885,-25.05144 -59.60885,-55.95394z" fill="#000000" stroke="#000000" stroke-linecap="butt"/><path d="M199.59496,126.24937c0,0 22.79558,-10.09274 39.55264,-10.09274c16.75705,0 41.73486,10.09274 41.73486,10.09274l0.27277,21.27659c0,0 -26.87765,-11.29883 -42.55319,-11.45663c-15.67554,-0.15781 -38.73431,10.63829 -38.73431,10.63829l-0.27278,-20.45826z" fill="#979797" stroke="#000000" stroke-linecap="round"/><path d="M242.05115,171.5505c0,-14.96633 9.12563,-27.09892 20.38269,-27.09892c11.25706,0 20.3827,12.13259 20.3827,27.09892c0,3.95087 -0.63594,7.70427 -1.77916,11.08912c-8.8735,0 -17.74701,0 -26.62051,0c-3.58383,0 -6.53034,0.11943 -9.94292,0.90517c-0.1026,0.02362 -0.20209,0.04482 -0.29877,0.06389c-1.35948,-3.63165 -2.12403,-7.72621 -2.12403,-12.05818z" data-paper-data="{&quot;index&quot;:null}" fill="#ffffff" stroke="#000000" stroke-linecap="butt"/><path d="M263.14843,151.52017c14.69165,0.2226 17.69201,9.46087 17.69201,21.13142c0,2.85166 2.41235,8.51569 1.73656,11.82513c-8.67228,0 -18.87549,1.83711 -27.54777,1.83711c-4.05454,0 -5.65748,-3.43093 -9.64322,-2.68716c-5.43796,-14.63924 4.85697,-32.30204 17.76241,-32.1065z" data-paper-data="{&quot;index&quot;:null}" fill="#000000" stroke="none" stroke-linecap="butt"/><path d="M195.71398,171.55047c0,-14.96633 9.12564,-27.09892 20.38269,-27.09892c11.25706,0 20.38269,12.13259 20.38269,27.09892c0,14.96633 -9.12563,27.09891 -20.38269,27.09891c-11.25706,0 -20.38269,-12.13259 -20.38269,-27.09891z" data-paper-data="{&quot;index&quot;:null}" fill="#ffffff" stroke="#000000" stroke-linecap="butt"/><path d="M194.17739,172.65162c0,-11.67055 10.8399,-23.4973 21.646,-21.13142c12.94859,2.83496 20.68739,18.48623 18.93425,31.84103c-0.6121,4.66276 -2.65668,10.30447 -6.61033,13.88695c-4.03768,3.65863 -10.01383,5.20903 -13.37759,5.20903c-3.65081,0 -9.97007,-2.83066 -13.60288,-7.33471c-5.10203,-6.32561 -6.98944,-15.65409 -6.98944,-22.47089z" data-paper-data="{&quot;index&quot;:null}" fill="#000000" stroke="none" stroke-linecap="butt"/><path d="M180.22265,122.42748c0,0 27.39256,-31.12756 63.89158,-30.97773c33.59504,0.13791 55.17909,31.94579 55.17909,31.94579l6.29236,123.42691l-23.71733,15.48887l-1.93611,-136.01162c0,0 -23.46259,-8.71249 -39.69022,-8.71249c-16.22763,0 -40.65828,8.71249 -40.65828,8.71249l-2.90416,136.49564l-22.26525,-15.48887l5.80833,-124.87899z" fill="url(#color-5)" stroke="#000000" stroke-linecap="round"/></g></g></g></svg>