<svg version="1.1" xmlns="http://www.w3.org/2000/svg" xmlns:xlink="http://www.w3.org/1999/xlink" width="35.04902" height="35.04871" viewBox="0,0,35.04902,35.04871"><g transform="translate(-222.51347,-162.51346)"><g data-paper-data="{&quot;isPaintingLayer&quot;:true}" stroke-miterlimit="10" stroke-dasharray="" stroke-dashoffset="0" style="mix-blend-mode: normal"><path d="M257.56248,169.8317v20.49804c0,4.00745 -3.22497,7.23243 -7.23242,7.23243h-20.5c-3.66107,0 -6.66147,-2.69385 -7.1543,-6.21484c0.7952,3.03475 3.54108,5.26367 6.83204,5.26367h20.0332c3.9166,0 7.07032,-3.15372 7.07032,-7.07031v-20.03321c0,-3.2976 -2.23906,-6.0451 -5.28321,-6.83398c3.52994,0.48496 6.23438,3.49081 6.23438,7.15821z" fill-opacity="0.29839" fill="#000000" fill-rule="evenodd" stroke="none" stroke-width="4.54219" stroke-linecap="round" stroke-linejoin="round"/><g><path d="M229.58313,162.51347h20.03379c3.9166,0 7.06966,3.15307 7.06966,7.06966v20.03379c0,3.91659 -3.15306,7.06966 -7.06966,7.06966h-20.03379c-3.91659,0 -7.06966,-3.15307 -7.06966,-7.06966v-20.03379c0,-3.91659 3.15307,-7.06966 7.06966,-7.06966z" fill="#9f4848" fill-rule="evenodd" stroke="none" stroke-width="4.43922" stroke-linecap="round" stroke-linejoin="round"/><g data-paper-data="{&quot;index&quot;:null}" fill-rule="nonzero" stroke="none" stroke-width="0" stroke-linecap="butt" stroke-linejoin="miter"><path d="M247.53353,185.46318l3.35156,3.35156l-2.01901,2.01901l-3.35156,-3.35156z" fill="#6f3332"/><path d="M251.09447,186.82864l1.53445,1.53445l-4.21451,4.21451l-1.53445,-1.53445z" fill="#c74f4f"/></g><g data-paper-data="{&quot;index&quot;:null}" fill-rule="nonzero" stroke="none" stroke-width="0" stroke-linecap="butt" stroke-linejoin="miter"><path d="M248.95919,178.00994h4.73982v2.85532h-4.73982z" fill="#6f3332"/><path d="M252.44267,176.4575l2.17004,-0.00001v5.96021h-2.17004z" fill="#c74f4f"/></g><g data-paper-data="{&quot;index&quot;:null}" fill-rule="nonzero" stroke="none" stroke-width="0" stroke-linecap="butt" stroke-linejoin="miter"><path d="M241.03883,189.13682v4.73982h-2.85532v-4.73982z" fill="#6f3332"/><path d="M242.59128,192.62031v2.17004h-5.96021v-2.17004z" fill="#c74f4f"/></g><g fill-rule="nonzero" stroke="none" stroke-width="0" stroke-linecap="butt" stroke-linejoin="miter"><path d="M233.09023,187.40721l-3.35156,3.35156l-2.01901,-2.01902l3.35156,-3.35156z" fill="#6f3332"/><path d="M231.72477,190.96815l-1.53445,1.53445l-4.21451,-4.21451l1.53445,-1.53445z" fill="#c74f4f"/></g><g fill-rule="nonzero" stroke="none" stroke-width="0" stroke-linecap="butt" stroke-linejoin="miter"><path d="M231.9167,173.61173l-3.35156,-3.35156l2.01902,-2.01902l3.35156,3.35156z" fill="#6f3332"/><path d="M228.35576,172.24627l-1.53445,-1.53445l4.21451,-4.21451l1.53445,1.53445z" fill="#c74f4f"/></g><g data-paper-data="{&quot;index&quot;:null}" fill-rule="nonzero" stroke="none" stroke-width="0" stroke-linecap="butt" stroke-linejoin="miter"><path d="M244.45792,171.21738l3.35156,-3.35156l2.01902,2.01901l-3.35156,3.35156z" fill="#6f3332"/><path d="M245.82337,167.65643l1.53445,-1.53445l4.21451,4.21451l-1.53445,1.53445z" fill="#c74f4f"/></g><g fill-rule="nonzero" stroke="none" stroke-width="0" stroke-linecap="butt" stroke-linejoin="miter"><path d="M230.24081,181.19008h-4.73982v-2.85532h4.73982z" fill="#6f3332"/><path d="M226.75733,182.74252l-2.17004,0.00001v-5.96021h2.17004z" fill="#c74f4f"/></g><g fill-rule="nonzero" stroke="none" stroke-width="0" stroke-linecap="butt" stroke-linejoin="miter"><path d="M238.16117,170.0632v-4.73982h2.85532v4.73982z" fill="#6f3332"/><path d="M236.60872,166.57969v-2.17004h5.96021v2.17004z" fill="#c74f4f"/></g><path d="M229.68381,179.8292c0,-5.56018 4.50742,-10.06761 10.06761,-10.06761c5.56018,0 10.06761,4.50742 10.06761,10.06761c0,5.56018 -4.50742,10.06761 -10.06761,10.06761c-5.56018,0 -10.06761,-4.50742 -10.06761,-10.06761z" fill="#6f3332" fill-rule="nonzero" stroke="#c74f4f" stroke-width="3" stroke-linecap="butt" stroke-linejoin="miter"/></g></g></g></svg>