<svg version="1.1" xmlns="http://www.w3.org/2000/svg" xmlns:xlink="http://www.w3.org/1999/xlink" width="217.59042" height="267.22501" viewBox="0,0,217.59042,267.22501"><defs><linearGradient x1="116.12413" y1="167.70056" x2="148.61508" y2="165.38271" gradientUnits="userSpaceOnUse" id="color-1"><stop offset="0" stop-color="#050409"/><stop offset="1" stop-color="#131313"/></linearGradient><linearGradient x1="171.82581" y1="167.15503" x2="170.92443" y2="154.51966" gradientUnits="userSpaceOnUse" id="color-2"><stop offset="0" stop-color="#ededed"/><stop offset="1" stop-color="#a1a1a1"/></linearGradient><linearGradient x1="168.76122" y1="48.88275" x2="183.72557" y2="77.81547" gradientUnits="userSpaceOnUse" id="color-3"><stop offset="0" stop-color="#050409"/><stop offset="1" stop-color="#131313"/></linearGradient><linearGradient x1="191.2664" y1="99.83852" x2="202.51803" y2="94.01906" gradientUnits="userSpaceOnUse" id="color-4"><stop offset="0" stop-color="#ededed"/><stop offset="1" stop-color="#a1a1a1"/></linearGradient><linearGradient x1="331.45698" y1="215.86491" x2="302.94026" y2="200.12227" gradientUnits="userSpaceOnUse" id="color-5"><stop offset="0" stop-color="#050409"/><stop offset="1" stop-color="#131313"/></linearGradient><linearGradient x1="284.43477" y1="186.00044" x2="278.31266" y2="197.09027" gradientUnits="userSpaceOnUse" id="color-6"><stop offset="0" stop-color="#ededed"/><stop offset="1" stop-color="#a1a1a1"/></linearGradient><linearGradient x1="240.00007" y1="175.50005" x2="240.00007" y2="307.50004" gradientUnits="userSpaceOnUse" id="color-7"><stop offset="0" stop-color="#000000"/><stop offset="1" stop-color="#9d5148"/></linearGradient><linearGradient x1="236.99039" y1="80.83828" x2="236.99039" y2="201.48187" gradientUnits="userSpaceOnUse" id="color-8"><stop offset="0" stop-color="#000000"/><stop offset="1" stop-color="#9d5148"/></linearGradient><linearGradient x1="209.83152" y1="119.00649" x2="209.83152" y2="145.07046" gradientUnits="userSpaceOnUse" id="color-9"><stop offset="0" stop-color="#000000"/><stop offset="1" stop-color="#9d5148"/></linearGradient><linearGradient x1="263.9525" y1="115.1456" x2="263.9525" y2="141.05228" gradientUnits="userSpaceOnUse" id="color-10"><stop offset="0" stop-color="#000000"/><stop offset="1" stop-color="#9d5148"/></linearGradient><radialGradient cx="273.414" cy="188.29571" r="19.6296" gradientUnits="userSpaceOnUse" id="color-11"><stop offset="0" stop-color="#4a0000"/><stop offset="1" stop-color="#be0000"/></radialGradient><radialGradient cx="178.19371" cy="160.42066" r="26.37529" gradientUnits="userSpaceOnUse" id="color-12"><stop offset="0" stop-color="#4a0000"/><stop offset="1" stop-color="#be0000"/></radialGradient><radialGradient cx="204.99808" cy="96.8249" r="21.65502" gradientUnits="userSpaceOnUse" id="color-13"><stop offset="0" stop-color="#4a0000"/><stop offset="1" stop-color="#be0000"/></radialGradient><linearGradient x1="310.60373" y1="104.65709" x2="310.60373" y2="123.36825" gradientUnits="userSpaceOnUse" id="color-14"><stop offset="0" stop-color="#000000"/><stop offset="1" stop-color="#9d5148"/></linearGradient><linearGradient x1="245.4793" y1="60.68453" x2="245.4793" y2="116.59653" gradientUnits="userSpaceOnUse" id="color-15"><stop offset="0" stop-color="#000000"/><stop offset="1" stop-color="#9d5148"/></linearGradient></defs><g transform="translate(-115.8344,-46.38752)"><g data-paper-data="{&quot;isPaintingLayer&quot;:true}" fill-rule="nonzero" stroke-linejoin="miter" stroke-miterlimit="10" stroke-dasharray="" stroke-dashoffset="0" style="mix-blend-mode: normal"><g stroke="none" stroke-width="0" stroke-linecap="butt"><path d="M116.41386,171.76191l-0.57946,-8.12274l32.49095,-2.31785l0.57946,8.12274z" fill="url(#color-1)"/><path d="M178.01908,154.39837c7.69507,0.55739 18.18976,10.56365 18.18976,10.56365l-47.80171,3.86365l-0.90139,-12.63537c0,0 22.45202,-2.37586 30.51333,-1.79193z" data-paper-data="{&quot;index&quot;:null}" fill="url(#color-2)"/></g><g stroke="none" stroke-width="0" stroke-linecap="butt"><path d="M165.14463,50.75329l7.23318,-3.74109l14.96434,28.93273l-7.23318,3.74108z" fill="url(#color-3)"/><path d="M205.43207,100.48877c2.52775,7.28939 -2.51891,20.88333 -2.51891,20.88333l-22.43267,-42.38757l11.25161,-5.81946c0,0 11.05192,19.68738 13.69997,27.32371z" data-paper-data="{&quot;index&quot;:null}" fill="url(#color-4)"/></g><g stroke="none" stroke-width="0" stroke-linecap="butt"><path d="M333.42482,212.30032l-3.93565,7.12918l-28.51672,-15.74264l3.93566,-7.12918z" fill="url(#color-5)"/><path d="M272.2953,193.32992c-6.15156,-4.6565 -9.50796,-18.76317 -9.50796,-18.76317l42.2016,22.7806l-6.12213,11.08984c0,0 -20.12716,-10.22914 -26.57151,-15.10727z" data-paper-data="{&quot;index&quot;:null}" fill="url(#color-6)"/></g><path d="M179.28377,313.61253v-267.22501h123.18203v267.22501z" fill-opacity="0.01" fill="#000000" stroke="none" stroke-width="0" stroke-linecap="butt"/><path d="M206.75007,307.50001l15.14285,-131.8421l37.78325,-0.15789l13.57389,132z" fill="url(#color-7)" stroke="#000000" stroke-width="0" stroke-linecap="butt"/><path d="M172.9162,145.73102c-2.36967,-33.21743 24.39632,-62.19196 59.78351,-64.71642c35.38719,-2.52446 65.99519,22.35712 68.36486,55.57454c2.36967,33.21743 -24.39632,62.19196 -59.78351,64.71642c-35.38719,2.52446 -65.99519,-22.35712 -68.36486,-55.57454z" fill="url(#color-8)" stroke="#000000" stroke-width="0" stroke-linecap="butt"/><path d="M186.4389,144.86272c-0.92277,-12.93513 8.81518,-24.16918 21.75031,-25.09195c12.93513,-0.92277 24.16918,8.81518 25.09195,21.75031c0.92277,12.93513 -8.81518,24.16918 -21.75031,25.09195c-12.93513,0.92277 -24.16918,-8.81518 -25.09195,-21.75031z" fill="#959595" stroke="#000000" stroke-width="0" stroke-linecap="butt"/><path d="M193.9713,151.15731c-0.64953,-9.10494 6.20492,-17.01249 15.30986,-17.66202c9.10494,-0.64953 17.01249,6.20493 17.66202,15.30987c0.64953,9.10494 -6.20493,17.01249 -15.30987,17.66202c-9.10494,0.64953 -17.01248,-6.20493 -17.66201,-15.30987z" fill="#000000" stroke="#000000" stroke-width="2" stroke-linecap="butt"/><path d="M265.65174,162.75211c-12.93513,0.92277 -24.16918,-8.81518 -25.09195,-21.75031c-0.92277,-12.93513 8.81518,-24.16918 21.75031,-25.09195c12.93513,-0.92277 24.16918,8.81518 25.09195,21.75031c0.92277,12.93513 -8.81518,24.16918 -21.75031,25.09195z" data-paper-data="{&quot;index&quot;:null}" fill="#959595" stroke="#000000" stroke-width="0" stroke-linecap="butt"/><path d="M265.52965,162.62231c-9.10493,0.64953 -17.01248,-6.20493 -17.66201,-15.30987c-0.64953,-9.10494 6.20493,-17.01249 15.30986,-17.66202c9.10493,-0.64953 17.01248,6.20493 17.66201,15.30987c0.64953,9.10494 -6.20493,17.01249 -15.30986,17.66202z" data-paper-data="{&quot;index&quot;:null}" fill="#000000" stroke="#000000" stroke-width="2" stroke-linecap="butt"/><path d="M185.73168,144.91317c-0.92277,-12.93513 9.47196,-24.92687 22.40708,-25.84964c12.93513,-0.92277 24.92686,9.47196 25.84963,22.40709c0,0 -47.46186,4.62053 -47.54949,3.3921z" fill="url(#color-9)" stroke="#000000" stroke-width="0" stroke-linecap="butt"/><path d="M239.8526,141.05228c-0.92277,-12.93513 9.47196,-24.92687 22.40708,-25.84964c12.93513,-0.92277 24.92686,9.47196 25.84963,22.40709c0.08637,1.21072 -47.54949,3.3921 -47.54949,3.3921z" data-paper-data="{&quot;index&quot;:null}" fill="url(#color-10)" stroke="#000000" stroke-width="0" stroke-linecap="butt"/><path d="M196.99461,115.22801c0,0 6.32412,-5.63351 11.3145,-7.18688c4.99039,-1.55337 12.35263,-0.18007 12.35263,-0.18007c0,0 -8.02203,0.51184 -11.87594,1.71147c-4.02748,1.25364 -11.79118,5.65548 -11.79118,5.65548z" fill="#000000" stroke="none" stroke-width="0" stroke-linecap="butt"/><path d="M260.42534,105.88867c-3.98517,-0.6404 -11.99863,-0.0083 -11.99863,-0.0083c0,0 7.09274,-2.4045 12.2531,-1.57526c5.16035,0.82924 12.22012,5.50796 12.22012,5.50796c0,0 -8.30993,-3.25516 -12.47459,-3.9244z" data-paper-data="{&quot;index&quot;:null}" fill="#000000" stroke="none" stroke-width="0" stroke-linecap="butt"/><path d="M222.15681,234.43789c0,0 16.09555,12.12494 23.49385,18.26012c6.91591,5.73514 19.54642,17.43182 19.54642,17.43182" fill="none" stroke="#810000" stroke-width="2" stroke-linecap="round"/><path d="M218.48264,247.03504l35.69194,-2.88684l0.52489,5.24882" fill="none" stroke="#810000" stroke-width="2" stroke-linecap="round"/><path d="M251.02529,244.67308v2.09953" fill="none" stroke="#810000" stroke-width="2" stroke-linecap="round"/><path d="M252.59991,244.93552l0.52489,8.92299" fill="none" stroke="#810000" stroke-width="2" stroke-linecap="round"/><path d="M223.99388,246.51016l-0.26244,3.14929" fill="none" stroke="#810000" stroke-width="2" stroke-linecap="round"/><path d="M225.83098,247.55993v4.19905" fill="none" stroke="#810000" stroke-width="2" stroke-linecap="round"/><path d="M227.66805,246.24772l1.04976,11.80983" fill="none" stroke="#810000" stroke-width="2" stroke-linecap="round"/><path d="M228.98027,254.12094l1.3122,-7.61078" fill="none" stroke="#810000" stroke-width="2" stroke-linecap="round"/><path d="M263.35999,268.29269v2.36196" fill="none" stroke="#810000" stroke-width="2" stroke-linecap="round"/><path d="M239.2493,178.34145c16.01702,-1.21127 14.01626,14.73525 14.01626,14.73525c0,0 -15.88693,5.13887 -25.14345,1.23978c-0.43166,-2.75417 -1.62459,-15.01069 11.12718,-15.97504z" fill="#000000" stroke="#000000" stroke-width="2" stroke-linecap="round"/><path d="M246.02783,200.04166l-0.97064,-4.00568l3.60414,-0.67347l0.7107,9.50626" fill="none" stroke="#810000" stroke-width="2" stroke-linecap="round"/><path d="M282.32583,183.24739c0,0 -7.11699,6.67765 -11.01597,9.00466c-3.7592,2.24359 -12.72233,5.08483 -12.72233,5.08483l6.46122,-4.13044l-6.11779,-0.4579l1.36926,-2.26606l-8.36928,-1.61076l9.13098,-3.22313l-7.70751,-4.69877l7.48908,1.4526l-5.81804,-5.69548l9.52416,2.62001l-0.7095,-4.08271l1.93314,-0.34748l2.63862,-2.78625l3.30645,3.90796l1.02381,-0.93846l1.37129,0.99468l4.12235,-6.58176l0.22045,6.50693l1.29847,-0.08737l1.90604,2.48045l8.5671,-5.14172l-7.90199,9.99618z" fill="url(#color-11)" stroke="none" stroke-width="0" stroke-linecap="round"/><path d="M175.18508,149.3264l0.4682,-8.18974l1.90745,-2.76715l-1.01042,7.96531l1.81376,-0.3925l5.72304,-15.66851l-3.42309,14.71512l4.2631,0.74831l-2.76781,5.45961l2.7488,-2.03785l0.89738,1.51463l2.03817,-0.93473l-1.34656,3.25335l1.66403,1.19684l-5.27319,3.53346l6.24525,-0.97174l-2.5994,4.13205l1.92581,1.17816l-1.19684,1.66403l2.11287,0.11238l0.16807,2.35597l-2.09421,0.1494l6.30063,7.18065l-0.67328,1.62668l-2.46802,-1.40259l-4.52455,-4.41316l6.26295,10.34063l0.46719,2.86085l-1.608,-0.4115l-8.3198,-9.66768l-2.39333,-0.35548l-8.59892,-24.64491z" fill="url(#color-12)" stroke="#000000" stroke-width="0" stroke-linecap="round"/><path d="M229.54168,95.87436l-5.90163,4.22277l4.08075,3.91084l-3.49822,1.45011l2.64459,3.413l-7.0956,-1.29465l-1.03825,2.27509l-3.93873,-1.92004l-0.72532,1.05221l-1.59263,0.11362l0.79606,2.74451l-2.16147,0.55438l-2.55938,-2.21853l-0.45522,2.03341l-1.60683,-0.08546l-3.51167,-7.15291l0.16992,7.99159l-1.57844,0.3127l-1.43566,-6.10046l-3.56998,8.85866l-6.18541,-2.56013l1.97685,-3.14241l-2.14701,-2.04786l3.92529,-6.68299l-7.19577,5.71574l-0.28404,-3.98159l6.65535,-4.87682l16.01233,-8.34562z" fill="url(#color-13)" stroke="#000000" stroke-width="0" stroke-linecap="round"/><g stroke="#000000" stroke-width="0" stroke-linecap="round"><path d="M330.53742,112.87136l-1.92461,10.49689l-35.93163,-7.12794l-2.01115,-11.58322z" fill="url(#color-14)"/><path d="M197.66321,95.95012c0,0 6.21937,-22.96335 28.11298,-30.92732c22.58223,-8.21447 43.84942,-5.13591 57.78887,12.43456c13.93945,17.57047 8.80737,39.13917 8.80737,39.13917z" fill="url(#color-15)"/></g></g></g></svg>