<svg version="1.1" xmlns="http://www.w3.org/2000/svg" xmlns:xlink="http://www.w3.org/1999/xlink" width="34.17312" height="34.17312" viewBox="0,0,34.17312,34.17312"><defs><radialGradient cx="237.23856" cy="175.08673" r="12.58494" gradientUnits="userSpaceOnUse" id="color-1"><stop offset="0" stop-color="#e4e4e4"/><stop offset="1" stop-color="#b1b1b1"/></radialGradient></defs><g transform="translate(-222.91345,-162.91345)"><g data-paper-data="{&quot;isPaintingLayer&quot;:true}" stroke-miterlimit="10" stroke-dasharray="" stroke-dashoffset="0" style="mix-blend-mode: normal"><path d="M229.98314,162.91347h20.03378c3.9166,0 7.06966,3.15307 7.06966,7.06966v20.03379c0,3.91659 -3.15306,7.06966 -7.06966,7.06966h-20.03378c-3.91659,0 -7.06967,-3.15307 -7.06967,-7.06966v-20.03379c0,-3.91659 3.15308,-7.06966 7.06967,-7.06966z" fill-opacity="0.09677" fill="#191919" fill-rule="evenodd" stroke="none" stroke-width="4.43922" stroke-linecap="round" stroke-linejoin="round"/><path d="M229.98312,162.91346h20.03379c3.9166,0 7.06966,3.15307 7.06966,7.06966v20.03379c0,3.91659 -3.15306,7.06966 -7.06966,7.06966h-20.03379c-3.91659,0 -7.06966,-3.15307 -7.06966,-7.06966v-20.03379c0,-3.91659 3.15307,-7.06966 7.06966,-7.06966z" fill-opacity="0.09677" fill="#e6e6e6" fill-rule="evenodd" stroke="#ffffff" stroke-width="0" stroke-linecap="round" stroke-linejoin="round"/><path d="M227.41507,180.00003c0,-6.95048 5.63447,-12.58494 12.58495,-12.58494c6.95048,0 12.58495,5.63447 12.58495,12.58494c0,6.95048 -5.63447,12.58496 -12.58495,12.58496c-6.95048,0 -12.58495,-5.63448 -12.58495,-12.58496z" fill="url(#color-1)" fill-rule="nonzero" stroke="#000000" stroke-width="1" stroke-linecap="butt" stroke-linejoin="miter"/></g></g></svg>