<svg version="1.1" xmlns="http://www.w3.org/2000/svg" xmlns:xlink="http://www.w3.org/1999/xlink" width="154.20985" height="286.91505" viewBox="0,0,154.20985,286.91505"><defs><linearGradient x1="214.01523" y1="133.73321" x2="214.01523" y2="149.88897" gradientUnits="userSpaceOnUse" id="color-1"><stop offset="0" stop-color="#4d00ff"/><stop offset="1" stop-color="#4d00ff" stop-opacity="0"/></linearGradient></defs><g transform="translate(-156.68795,-24.38686)"><g data-paper-data="{&quot;isPaintingLayer&quot;:true}" fill-rule="nonzero" stroke-linejoin="miter" stroke-miterlimit="10" stroke-dasharray="" stroke-dashoffset="0" style="mix-blend-mode: normal"><path d="M207.00642,310.3019l15.14285,-131.8421l37.78325,-0.15789l13.57389,132z" fill="#4d00ff" stroke="#000000" stroke-width="2" stroke-linecap="butt"/><path d="M219.95663,206.91455l3.12142,-26.32765l35.83075,-0.14203l2.76735,26.1059c0,0 -7.51543,4.19603 -21.55904,4.50964c-12.48458,0.27879 -20.16049,-4.14586 -20.16049,-4.14586z" fill="#26007e" stroke="#000000" stroke-width="0" stroke-linecap="butt"/><path d="M175.76299,139.64808c0,-33.30185 28.7599,-60.29833 64.23702,-60.29833c35.47712,0 64.23702,26.99649 64.23702,60.29833c0,33.30185 -28.7599,60.29833 -64.23702,60.29833c-35.47712,0 -64.23702,-26.99649 -64.23702,-60.29833z" fill="#4d00ff" stroke="#000000" stroke-width="2" stroke-linecap="butt"/><path d="M189.64654,140.07754c0,-12.968 10.51265,-23.48065 23.48065,-23.48065c12.968,0 23.48065,10.51265 23.48065,23.48065c0,12.968 -10.51265,23.48065 -23.48065,23.48065c-12.968,0 -23.48065,-10.51265 -23.48065,-23.48065z" fill="#ffffff" stroke="#000000" stroke-width="2" stroke-linecap="butt"/><path d="M196.71192,139.80191c0,-9.12808 7.39976,-16.52784 16.52783,-16.52784c9.12808,0 16.52784,7.39977 16.52784,16.52784c0,9.12808 -7.39977,16.52784 -16.52784,16.52784c-9.12808,0 -16.52783,-7.39977 -16.52783,-16.52784z" fill="#000000" stroke="none" stroke-width="0" stroke-linecap="butt"/><path d="M267.38561,163.55818c-12.968,0 -23.48065,-10.51265 -23.48065,-23.48065c0,-12.968 10.51265,-23.48065 23.48065,-23.48065c12.968,0 23.48065,10.51265 23.48065,23.48065c0,12.968 -10.51265,23.48065 -23.48065,23.48065z" data-paper-data="{&quot;index&quot;:null}" fill="#ffffff" stroke="#000000" stroke-width="2" stroke-linecap="butt"/><path d="M267.27306,156.32976c-9.12807,0 -16.52783,-7.39977 -16.52783,-16.52784c0,-9.12808 7.39977,-16.52784 16.52783,-16.52784c9.12807,0 16.52783,7.39977 16.52783,16.52784c0,9.12808 -7.39977,16.52784 -16.52783,16.52784z" data-paper-data="{&quot;index&quot;:null}" fill="#000000" stroke="none" stroke-width="0" stroke-linecap="butt"/><path d="M202.28422,111.26908c0,0 6.70895,-5.16922 11.79721,-6.36355c5.08827,-1.19433 12.33413,0.69937 12.33413,0.69937c0,0 -8.03812,-0.06028 -11.96762,0.86207c-4.10648,0.96389 -12.16372,4.80211 -12.16372,4.80211z" fill="#000000" stroke="none" stroke-width="0" stroke-linecap="butt"/><path d="M266.21871,106.46698c-3.9295,-0.92235 -11.96762,-0.86207 -11.96762,-0.86207c0,0 7.24586,-1.8937 12.33413,-0.69937c5.08826,1.19433 11.79721,6.36355 11.79721,6.36355c0,0 -8.05724,-3.83822 -12.16372,-4.80211z" data-paper-data="{&quot;index&quot;:null}" fill="#000000" stroke="none" stroke-width="0" stroke-linecap="butt"/><path d="M176.81938,139.70191c0,-0.72799 5.20666,55.91939 63.36046,56.93429c55.56352,0.9697 63.51358,-57.95314 63.51358,-56.93429c0,32.80479 -28.40173,59.39833 -63.43702,59.39833c-35.03529,0 -63.43702,-26.59354 -63.43702,-59.39833z" fill="#26007e" stroke="#000000" stroke-width="0" stroke-linecap="butt"/><path d="M189.77156,140.06692c0,-12.968 10.51265,-23.48065 23.48065,-23.48065c12.968,0 23.48065,10.51265 23.48065,23.48065c0,0 -46.96131,1.23155 -46.96131,0z" fill="#4d00ff" stroke="#000000" stroke-width="2" stroke-linecap="butt"/><path d="M244.07002,140.06692c0,-12.968 10.51265,-23.48065 23.48065,-23.48065c12.968,0 23.48065,10.51265 23.48065,23.48065c0,1.2138 -46.96131,0 -46.96131,0z" data-paper-data="{&quot;index&quot;:null}" fill="#4d00ff" stroke="#000000" stroke-width="2" stroke-linecap="butt"/><path d="M243.74409,173.95439c0,0 -10.16552,2.13667 -14.71932,1.49159c-4.43666,-0.64527 -10.31044,-4.17723 -10.31044,-4.17723" data-paper-data="{&quot;index&quot;:null}" fill="none" stroke="#000000" stroke-width="2" stroke-linecap="round"/><g><g stroke-linecap="butt"><path d="M190.10998,150.29271v-16.8901h4.16133v16.8901z" data-paper-data="{&quot;origPos&quot;:null}" fill="#d1d1d1" stroke="#000000" stroke-width="1"/><path d="M191.48399,134.87427c0,0.15308 -0.10638,0.27718 -0.23758,0.27718c-0.13121,0 -0.23758,-0.1241 -0.23758,-0.27718c0,-0.15308 0.10638,-0.27718 0.23758,-0.27718c0.13121,0 0.23758,0.12411 0.23758,0.27718z" data-paper-data="{&quot;origPos&quot;:null}" fill="#bcbcbc" stroke="none" stroke-width="0"/><path d="M193.38468,134.87426c0,0.15308 -0.10638,0.27719 -0.23758,0.27719c-0.13121,0 -0.2376,-0.1241 -0.2376,-0.27719c0,-0.15308 0.10638,-0.27718 0.2376,-0.27718c0.13121,0 0.23758,0.12409 0.23758,0.27718z" data-paper-data="{&quot;origPos&quot;:null}" fill="#bcbcbc" stroke="none" stroke-width="0"/><path d="M191.4048,149.20852c0,0.15308 -0.10638,0.27718 -0.23758,0.27718c-0.13121,0 -0.23758,-0.12411 -0.23758,-0.27718c0,-0.15309 0.10638,-0.27718 0.23758,-0.27718c0.13121,0 0.23758,0.12409 0.23758,0.27718z" data-paper-data="{&quot;origPos&quot;:null}" fill="#bcbcbc" stroke="none" stroke-width="0"/><path d="M193.46386,149.20852c0,0.15308 -0.10638,0.27718 -0.23758,0.27718c-0.13121,0 -0.23758,-0.12411 -0.23758,-0.27718c0,-0.15309 0.10638,-0.27718 0.23758,-0.27718c0.13121,0 0.23758,0.12409 0.23758,0.27718z" data-paper-data="{&quot;origPos&quot;:null}" fill="#bcbcbc" stroke="none" stroke-width="0"/></g><g stroke-linecap="butt"><path d="M174.99168,149.91947v-16.15575l-14.96998,-9.89532l15.14887,0.02235l14.31235,9.87296v16.15575z" fill="#282828" stroke="#000000" stroke-width="2"/><path d="M176.87646,146.45751v-9.23187h10.65985v9.23187z" fill="#000000" stroke="none" stroke-width="0"/><path d="M178.81461,146.49246v-4.40612h1.76962v4.40612z" data-paper-data="{&quot;origPos&quot;:null}" fill="#ff0000" stroke="none" stroke-width="0"/><path d="M180.48591,146.49246v-7.95548h1.76964v7.95548z" data-paper-data="{&quot;origPos&quot;:null}" fill="#21ff00" stroke="none" stroke-width="0"/><path d="M182.25554,146.49246v-3.0598h1.76962v3.0598z" data-paper-data="{&quot;origPos&quot;:null}" fill="#edff00" stroke="none" stroke-width="0"/><path d="M184.02516,146.49246v-6.36439h1.76962v6.36439z" data-paper-data="{&quot;origPos&quot;:null}" fill="#0017ff" stroke="none" stroke-width="0"/></g><g><path d="M194.62832,149.88897v-16.15575h18.04059l20.73322,7.53935l-20.73322,8.6164z" data-paper-data="{&quot;origPos&quot;:null}" fill="url(#color-1)" stroke="#000000" stroke-width="2" stroke-linecap="butt"/><path d="M201.90891,138.20053c0,1.45329 -1.15073,2.63144 -2.57023,2.63144c-1.4195,0 -2.57023,-1.17813 -2.57023,-2.63144c0,-1.45329 1.15073,-2.63142 2.57023,-2.63142c1.4195,0 2.57023,1.17813 2.57023,2.63142z" data-paper-data="{&quot;origPos&quot;:null}" fill="none" stroke="#4200d6" stroke-width="1" stroke-linecap="butt"/><path d="M202.76566,140.70962l-4.89569,-3.42699" data-paper-data="{&quot;origPos&quot;:null}" fill="none" stroke="#4200d6" stroke-width="1" stroke-linecap="round"/><path d="M213.53617,146.08462c0,1.21108 -0.95895,2.19285 -2.14186,2.19285c-1.18292,0 -2.14185,-0.98178 -2.14185,-2.19285c0,-1.21108 0.95894,-2.19285 2.14185,-2.19285c1.18292,0 2.14186,0.98177 2.14186,2.19285z" data-paper-data="{&quot;origPos&quot;:null}" fill="none" stroke="#4200d6" stroke-width="1" stroke-linecap="butt"/><path d="M208.15091,143.89175l3.30458,2.31321" data-paper-data="{&quot;origPos&quot;:null}" fill="none" stroke="#4200d6" stroke-width="1" stroke-linecap="round"/><path d="M226.02016,141.13797c0,0.84495 -0.68496,1.52991 -1.52989,1.52991c-0.84495,0 -1.52991,-0.68496 -1.52991,-1.52991c0,-0.84494 0.68496,-1.52989 1.52991,-1.52989c0.84495,0 1.52989,0.68496 1.52989,1.52989z" fill="none" stroke="#4200d6" stroke-width="1" stroke-linecap="butt"/><path d="M224.91864,141.19914l-5.63004,-0.12239" fill="none" stroke="#4200d6" stroke-width="1" stroke-linecap="round"/></g></g><path d="M180.09095,109.70835c-3.56634,-4.90613 -15.03283,-12.30773 -15.03283,-12.30773l12.54189,-15.01237l-17.57831,-14.38058l38.49612,-0.81149l10.68733,-11.41797l-23.18148,-29.28006l39.67561,14.13274l-8.99319,-13.91752l34.46625,15.24265l25.42217,10.61584c0,0 33.77556,20.23113 28.91208,36.79676c-0.03147,4.81722 4.12225,35.17822 -0.06948,38.50469c-10.14431,8.05031 -8.15598,-14.10218 -10.77834,-15.67335c-0.87411,-0.52372 -7.4446,-13.83529 -8.52153,-13.89679c-9.89032,-0.56462 -15.02633,-5.41531 -30.11079,-4.23865c-27.52856,2.14738 -29.31255,10.70833 -44.31862,8.39385c-5.67499,-0.87528 -28.59817,11.55211 -31.60832,7.41114z" data-paper-data="{&quot;index&quot;:null}" fill="#5922e0" stroke="#000000" stroke-width="2" stroke-linecap="butt"/><g stroke="#000000" stroke-linecap="butt"><g stroke-width="2"><path d="M171.76853,106.93198l-9.68841,-10.42631l3.39269,-4.56429l142.74613,-7.22113l1.56847,14.09317z" data-paper-data="{&quot;origPos&quot;:null}" fill="#cdb3ff"/><path d="M167.26697,101.75324l-5.18469,-5.3026l3.52654,-4.51615l142.61009,-7.21424l0.95912,9.24853z" data-paper-data="{&quot;origPos&quot;:null}" fill="#5500f7"/></g><path d="M250.47307,92.02263c0.11883,2.24776 -2.75306,4.23683 -6.41462,4.44272c-3.66154,0.20589 -6.72611,-1.44938 -6.84494,-3.69714c-0.11883,-2.24776 2.75306,-4.23684 6.41462,-4.44273c3.66155,-0.20589 6.72611,1.44939 6.84495,3.69715z" data-paper-data="{&quot;origPos&quot;:null}" fill="#ffffff" stroke-width="2"/><text transform="translate(240.43528,93.27153) rotate(-3.22042) scale(0.06186,0.05695) skewX(-0.1802)" font-size="40" xml:space="preserve" fill="#4b00ff" fill-rule="nonzero" stroke="#000000" stroke-width="0" stroke-linecap="butt" stroke-linejoin="miter" stroke-miterlimit="10" stroke-dasharray="" stroke-dashoffset="0" font-family="Sans Serif" font-weight="normal" text-anchor="start" style="mix-blend-mode: normal"><tspan x="0" dy="0">MHS2</tspan></text></g></g></g></svg>