<svg version="1.1" xmlns="http://www.w3.org/2000/svg" xmlns:xlink="http://www.w3.org/1999/xlink" width="232.36214" height="295.1504" viewBox="0,0,232.36214,295.1504"><defs><linearGradient x1="255.36849" y1="221.33517" x2="255.36849" y2="309.8213" gradientUnits="userSpaceOnUse" id="color-1"><stop offset="0" stop-color="#ff0000"/><stop offset="1" stop-color="#ff2d2d"/></linearGradient></defs><g transform="translate(-128.3061,-20.0662)"><g data-paper-data="{&quot;isPaintingLayer&quot;:true}" fill-rule="nonzero" stroke-width="2" stroke-linejoin="miter" stroke-miterlimit="10" stroke-dasharray="" stroke-dashoffset="0" style="mix-blend-mode: normal"><path d="M264.48152,56.77694c8.47072,0.64565 20.09616,4.66824 28.02065,7.7736c5.2556,2.05951 8.88335,3.71559 8.88335,3.71559c0,0 16.23816,11.80439 21.32018,19.77081c5.40778,8.47705 10.20997,29.65484 10.20997,29.65484c0,0 3.17621,21.08349 7.49606,28.66618c4.56683,8.01624 19.20516,18.20297 19.20516,18.20297c0,0 -1.01031,10.5164 -12.28768,19.8605c-5.99312,4.96573 -20.66275,10.24936 -20.66275,10.24936c0,0 14.04269,4.14409 20.03068,19.53402c4.4275,7.93112 6.10242,29.03946 6.10242,29.03946l-28.97365,-3.97677c0,0 19.85446,18.51969 20.58294,34.03235c1.17395,24.99919 -12.62938,26.75551 -12.62938,26.75551l-12.49844,-12.39666c0,0 4.25416,11.17546 4.79112,15.8128c0.50225,4.33771 -32.70653,3.92722 -32.70653,3.92722l-104.3453,2.16335c0,0 -32.81155,3.31489 -36.23849,-8.3301c-6.52416,-22.16956 6.01952,-42.26287 6.01952,-42.26287l-16.19115,22.44038c0,0 -13.0666,-18.0377 -6.45006,-35.58576c7.21611,-19.13821 20.65283,-32.3035 20.65283,-32.3035c0,0 -8.98933,0.53815 -13.11463,1.49752c-4.01461,0.93362 -11.31413,4.18358 -11.31413,4.18358c0,0 -4.92728,-10.65482 6.28554,-30.05657c7.12769,-12.33316 20.98379,-18.80096 20.98379,-18.80096c0,0 -9.88378,-1.29672 -15.35917,-7.36985c-8.60785,-9.54758 -5.945,-20.18351 -5.945,-20.18351c0,0 7.55055,1.02257 13.86073,-4.21428c0.5529,-0.45885 4.24481,-1.37088 6.05469,-11.6873c2.60461,-14.84631 -1.59127,-37.03882 16.0697,-53.47123c20.75857,-19.31452 58.60535,-9.12826 58.60535,-9.12826c0,0 18.25339,-8.67773 33.54171,-7.51243z" fill="#644c2b" stroke="#000000" stroke-linecap="round"/><path d="M316.63048,176.45975c2.18068,-6.96604 -5.30833,-14.64728 -5.30833,-14.64728c0,0 21.33191,-8.4458 19.08562,18.33894c-1.59784,19.05271 -23.46347,10.27874 -23.46347,10.27874c0,0 7.50551,-7.00434 9.68619,-13.97039z" data-paper-data="{&quot;index&quot;:null}" fill="#fecab9" stroke="#000000" stroke-linecap="round"/><path d="M173.78455,174.88526c2.18068,6.96604 9.68619,13.97039 9.68619,13.97039c0,0 -21.86563,8.77397 -23.46347,-10.27874c-2.24629,-26.78474 19.08562,-18.33894 19.08562,-18.33894c0,0 -7.48901,7.68124 -5.30833,14.64728z" fill="#fecab9" stroke="#000000" stroke-linecap="round"/><path d="M214.77247,225.78264c0,0 3.44872,26.49507 2.97509,41.59169c-0.35034,11.16715 -4.19172,45.40126 -4.19172,45.40126l-25.75201,0.08813c0,0 -1.47841,-38.77922 -0.95821,-49.9301c0.94045,-20.15912 5.8111,-32.07857 5.8111,-32.07857c0,0 3.43062,-8.21816 10.92821,-8.19003c4.96215,0.01862 11.18754,3.11759 11.18754,3.11759z" fill="#ffeee3" stroke="#000000" stroke-linecap="round"/><path d="M265.66757,227.1322c0,0 6.22539,-3.09898 11.18754,-3.11759c7.49758,-0.02814 10.92821,8.19003 10.92821,8.19003c0,0 4.87066,11.91945 5.8111,32.07857c0.5202,11.15088 -0.95821,49.9301 -0.95821,49.9301l-25.75201,-0.08813c0,0 -3.84138,-34.23411 -4.19172,-45.40126c-0.47362,-15.09663 2.97509,-41.59169 2.97509,-41.59169z" data-paper-data="{&quot;index&quot;:null}" fill="#ffeee3" stroke="#000000" stroke-linecap="round"/><g><g stroke-linecap="round"><g fill="url(#color-1)" stroke="#000000"><path d="M208.19921,310.1587l4.4051,-21.46999c0,0 -20.47884,-1.76843 -20.23987,-21.88134c-0.07392,-18.71921 18.28719,-31.11485 18.28719,-31.11485l4.18276,-13.00778l-0.48207,-18.64765c0,0 19.93455,2.98289 26.90025,3.62512c7.39247,0.68157 27.44411,0.93069 27.44411,0.93069l-1.33297,15.92955l4.6876,12.44816c0,0 20.87334,17.48653 20.47213,32.43159c-0.61241,22.81183 -19.72281,23.6594 -19.72281,23.6594l3.71187,17.20919"/></g><path d="M215.43464,204.83164c0,0 17.78592,2.70498 26.27317,3.63794c7.97873,0.87706 26.18612,0.75274 26.18612,0.75274l-1.20789,12.63187c-2.57251,-0.29238 -13.31776,-3.42029 -25.97519,-4.71695c-12.21366,-1.2512 -23.56375,0.40686 -25.179,-0.24927z" fill="#cc1f1f" stroke="none"/></g><path d="M288.23591,281.16766c0.13496,1.52221 -6.63361,16.29891 -39.92468,13.04581c-28.8067,-2.8149 -50.92364,-8.66702 -51.19356,-15.04767c-0.21263,-5.02658 17.84931,-10.909 45.90775,-9.69439c22.77381,0.98584 44.76617,6.68481 45.21048,11.69624z" fill="#cc1f1f" stroke="none" stroke-linecap="butt"/></g><g><path d="M177.2517,158.63752c0,0 5.53422,-50.53466 68.72862,-47.68535c80.54091,3.63144 69.93677,45.4952 69.93677,45.4952l-0.38627,7.43114c0,0 2.29577,7.63842 2.2197,15.07992c-1.25488,22.18458 -31.78258,41.93799 -93.69623,33.53457c-47.61919,-5.20469 -53.65563,-35.32016 -49.83908,-44.29608c3.28132,-7.71714 3.03651,-9.5594 3.03651,-9.5594z" fill="#feeddd" stroke="#000000" stroke-linecap="round"/><path d="M314.69777,164.79186c0,0 -40.59201,8.1738 -67.81579,7.26418c-27.22378,-0.90962 -69.01079,-10.41643 -69.01079,-10.41643c0,0 2.74762,-50.83677 68.16564,-49.5907c85.36943,1.62611 68.66095,52.74295 68.66095,52.74295z" fill="#fecab9" stroke="none" stroke-linecap="butt"/></g><path d="M170.12014,107.33174l75.27469,-31.53015l48.28942,24.14471c0,0 13.37246,19.92225 16.72738,29.55573c3.2709,9.39214 9.5305,28.2893 9.5305,28.2893c0,0 -23.75206,2.14366 -28.69474,-1.82627c-9.57147,-7.68772 -31.0817,-41.81599 -31.0817,-41.81599l5.68111,38.34748l-8.80572,18.74766l-5.96516,-17.32738l-47.15319,-28.12148l-6.53328,45.16481c0,0 -19.36451,-5.32146 -23.43946,-14.82966c-1.41306,-3.29717 -5.16917,-0.54949 -5.75693,-13.5001c-0.68374,-15.06535 1.92707,-35.29865 1.92707,-35.29865z" fill="#644c2b" stroke="#000000" stroke-linecap="round"/><path d="M165.04247,154.51554l2.84056,-58.58643l88.41226,-26.98526c0,0 29.68227,21.84184 37.58767,28.17898c3.86891,3.1014 7.14378,7.67874 7.14378,7.67874l18.82501,29.12564l1.68947,23.27802l-5.54741,-0.76573c0,0 -4.58033,-8.02391 -7.21917,-10.06625c-23.38802,-18.10119 -67.71423,-51.48248 -67.71423,-51.48248l-38.68822,29.17003l-27.74283,31.1649z" fill="#644c2b" stroke="none" stroke-linecap="butt"/><path d="M226.36312,63.01911c0,0 -4.83874,0.21384 -12.30337,-13.78802c-4.11531,-7.71933 1.2252,-26.83191 1.2252,-26.83191c0,0 10.07273,-2.29979 17.10976,-0.85778c5.28986,1.08398 13.85227,7.95917 13.85227,7.95917c0,0 -9.79845,12.49002 -12.51719,18.43095c-2.33596,5.10448 -2.82181,15.08759 -2.82181,15.08759z" fill="#664e2c" stroke="#000000" stroke-linecap="round"/><path d="M231.20347,62.14412c0,0 4.35143,-11.12531 9.35831,-16.64496c5.00688,-5.51965 9.94606,-4.63639 9.94606,-4.63639" fill="none" stroke="#000000" stroke-linecap="round"/><g fill="#000000" stroke="#000000"><path d="M235.41039,160.22876c-5.89737,13.84259 -17.06827,24.89893 -27.16065,22.85356c-10.09238,-2.04537 -15.28447,-16.41789 -9.3871,-30.2605c5.89737,-13.84259 11.29461,-32.40528 25.96643,-30.01897c10.6911,1.73887 16.4787,23.5833 10.58134,37.42591z" stroke-linecap="butt"/><path d="M198.02876,153.98754c0,0 -6.68344,-3.86006 -6.77847,-12.14411c-0.14495,-12.63727 10.36118,-24.28004 10.36118,-24.28004l2.98559,21.79478z" stroke-linecap="round"/></g><g fill="#000000" stroke="#000000"><path d="M293.86606,164.48466c0,14.26294 -7.21815,25.82532 -16.12216,25.82532c-8.90402,0 -16.12216,-11.56238 -16.12216,-25.82532c0,-14.26294 7.21814,-25.82532 16.12216,-25.82532c8.90403,0 16.12216,11.56238 16.12216,25.82532z" stroke-linecap="butt"/><path d="M291.77615,158.06566l13.73369,-3.58271c0,0 1.50996,7.24205 -4.56197,12.25285c-2.52524,2.08393 -7.97748,4.46644 -7.97748,4.46644z" stroke-linecap="round"/></g><path d="M256.5676,197.80052c0,0 -3.84645,3.32275 -11.56682,1.45427c-6.19468,-1.61914 -12.21603,-7.19617 -12.21603,-7.19617c0,0 -7.59481,4.65035 -14.11593,3.46038c-7.26843,-1.12781 -10.75136,-7.67307 -10.75136,-7.67307" fill="none" stroke="#000000" stroke-linecap="round"/></g></g></svg>