<svg version="1.1" xmlns="http://www.w3.org/2000/svg" xmlns:xlink="http://www.w3.org/1999/xlink" width="165.79606" height="373.16342" viewBox="0,0,165.79606,373.16342"><defs><linearGradient x1="239.98965" y1="184.3485" x2="239.98965" y2="316.34846" gradientUnits="userSpaceOnUse" id="color-1"><stop offset="0" stop-color="#000000"/><stop offset="1" stop-color="#3f2222"/></linearGradient><linearGradient x1="249.05754" y1="276.64358" x2="249.05754" y2="304.29044" gradientUnits="userSpaceOnUse" id="color-2"><stop offset="0" stop-color="#1a0c12"/><stop offset="1" stop-color="#4d2637"/></linearGradient><linearGradient x1="245.70968" y1="269.56989" x2="245.70968" y2="282.7453" gradientUnits="userSpaceOnUse" id="color-3"><stop offset="0" stop-color="#1a0c12"/><stop offset="1" stop-color="#4d2637"/></linearGradient><linearGradient x1="233.83018" y1="267.84193" x2="233.83018" y2="281.01743" gradientUnits="userSpaceOnUse" id="color-4"><stop offset="0" stop-color="#1a0c12"/><stop offset="1" stop-color="#4d2637"/></linearGradient><linearGradient x1="230.15833" y1="266.33002" x2="230.15833" y2="279.50543" gradientUnits="userSpaceOnUse" id="color-5"><stop offset="0" stop-color="#1a0c12"/><stop offset="1" stop-color="#4d2637"/></linearGradient><linearGradient x1="233.07421" y1="262.65819" x2="233.07421" y2="274.96961" gradientUnits="userSpaceOnUse" id="color-6"><stop offset="0" stop-color="#1a0c12"/><stop offset="1" stop-color="#4d2637"/></linearGradient><linearGradient x1="252.94538" y1="247.10687" x2="252.94538" y2="277.99352" gradientUnits="userSpaceOnUse" id="color-7"><stop offset="0" stop-color="#1a0c12"/><stop offset="1" stop-color="#4d2637"/></linearGradient><linearGradient x1="242.1433" y1="183.01693" x2="242.1433" y2="250.25159" gradientUnits="userSpaceOnUse" id="color-8"><stop offset="0" stop-color="#000000"/><stop offset="1" stop-color="#3a213e"/></linearGradient><linearGradient x1="240.00004" y1="175.50006" x2="240.00004" y2="307.50005" gradientUnits="userSpaceOnUse" id="color-9"><stop offset="0" stop-color="#000000"/><stop offset="1" stop-color="#935399"/></linearGradient><radialGradient cx="226.13862" cy="151.29024" r="64.40652" gradientUnits="userSpaceOnUse" id="color-10"><stop offset="0" stop-color="#000000"/><stop offset="1" stop-color="#270000"/></radialGradient><linearGradient x1="238.76028" y1="262.27727" x2="238.76028" y2="419.55094" gradientUnits="userSpaceOnUse" id="color-11"><stop offset="0" stop-color="#4d4948"/><stop offset="1" stop-color="#1a1716"/></linearGradient><radialGradient cx="242.45678" cy="236.64491" r="1.98299" gradientUnits="userSpaceOnUse" id="color-12"><stop offset="0" stop-color="#000000"/><stop offset="1" stop-color="#7c0000"/></radialGradient><radialGradient cx="242.45678" cy="236.64491" r="1.98299" gradientUnits="userSpaceOnUse" id="color-13"><stop offset="0" stop-color="#000000" stop-opacity="0"/><stop offset="1" stop-color="#000000" stop-opacity="0"/></radialGradient><radialGradient cx="250.21629" cy="231.64431" r="1.12082" gradientUnits="userSpaceOnUse" id="color-14"><stop offset="0" stop-color="#000000"/><stop offset="1" stop-color="#7c0000"/></radialGradient><radialGradient cx="226.50667" cy="223.97103" r="1.72434" gradientUnits="userSpaceOnUse" id="color-15"><stop offset="0" stop-color="#000000"/><stop offset="1" stop-color="#7c0000"/></radialGradient><radialGradient cx="223.66151" cy="243.54223" r="1.29325" gradientUnits="userSpaceOnUse" id="color-16"><stop offset="0" stop-color="#000000"/><stop offset="1" stop-color="#7c0000"/></radialGradient><radialGradient cx="250.64737" cy="224.31587" r="8.44925" gradientUnits="userSpaceOnUse" id="color-17"><stop offset="0" stop-color="#000000"/><stop offset="1" stop-color="#7c0000"/></radialGradient><radialGradient cx="215.81578" cy="235.86895" r="9.7425" gradientUnits="userSpaceOnUse" id="color-18"><stop offset="0" stop-color="#000000"/><stop offset="1" stop-color="#7c0000"/></radialGradient><linearGradient x1="255.19784" y1="114.77157" x2="255.19784" y2="138.07781" gradientUnits="userSpaceOnUse" id="color-19"><stop offset="0" stop-color="#553f34"/><stop offset="1" stop-color="#4a2722"/></linearGradient><linearGradient x1="235.49323" y1="108.27055" x2="235.49323" y2="145.10775" gradientUnits="userSpaceOnUse" id="color-20"><stop offset="0" stop-color="#7f6d5d"/><stop offset="1" stop-color="#3e342d"/></linearGradient><linearGradient x1="198.60881" y1="110.13124" x2="198.60881" y2="128.2781" gradientUnits="userSpaceOnUse" id="color-21"><stop offset="0" stop-color="#000000"/><stop offset="1" stop-color="#5f302c"/></linearGradient><linearGradient x1="259.5608" y1="106.5434" x2="259.5608" y2="129.11315" gradientUnits="userSpaceOnUse" id="color-22"><stop offset="0" stop-color="#000000"/><stop offset="1" stop-color="#5f302c"/></linearGradient><linearGradient x1="236.38532" y1="175.78176" x2="236.38532" y2="199.03561" gradientUnits="userSpaceOnUse" id="color-23"><stop offset="0" stop-color="#553f34"/><stop offset="1" stop-color="#4a2722"/></linearGradient><linearGradient x1="229.48501" y1="169.13345" x2="229.48501" y2="196.03523" gradientUnits="userSpaceOnUse" id="color-24"><stop offset="0" stop-color="#7f6d5d"/><stop offset="1" stop-color="#3e342d"/></linearGradient><linearGradient x1="225.9768" y1="176.77934" x2="225.9768" y2="196.22914" gradientUnits="userSpaceOnUse" id="color-25"><stop offset="0" stop-color="#5d2f2b"/><stop offset="1" stop-color="#000000"/></linearGradient><linearGradient x1="239.6274" y1="90.44261" x2="239.6274" y2="203.47185" gradientUnits="userSpaceOnUse" id="color-26"><stop offset="0" stop-color="#221c21"/><stop offset="1" stop-color="#4d404c"/></linearGradient><radialGradient cx="303.87118" cy="121.23544" r="15.88689" gradientUnits="userSpaceOnUse" id="color-27"><stop offset="0" stop-color="#3c2d3b"/><stop offset="1" stop-color="#191319"/></radialGradient><radialGradient cx="303.80619" cy="189.3781" r="13.83682" gradientUnits="userSpaceOnUse" id="color-28"><stop offset="0" stop-color="#000000" stop-opacity="0"/><stop offset="1" stop-color="#000000" stop-opacity="0.19657"/></radialGradient><radialGradient cx="304.14224" cy="156.22899" r="23.91791" gradientUnits="userSpaceOnUse" id="color-29"><stop offset="0" stop-color="#605460"/><stop offset="1" stop-color="#332a32"/></radialGradient><linearGradient x1="304.14224" y1="132.31112" x2="304.14224" y2="180.14695" gradientUnits="userSpaceOnUse" id="color-30"><stop offset="0" stop-color="#806a7f"/><stop offset="1" stop-color="#5d4d5c"/></linearGradient><linearGradient x1="225.37359" y1="189.65649" x2="225.37359" y2="202.09695" gradientUnits="userSpaceOnUse" id="color-31"><stop offset="0" stop-color="#000000"/><stop offset="1" stop-color="#630000"/></linearGradient><radialGradient cx="176.36317" cy="201.12444" r="1.57732" gradientUnits="userSpaceOnUse" id="color-32"><stop offset="0" stop-color="#000000"/><stop offset="1" stop-color="#630000"/></radialGradient><linearGradient x1="304.14224" y1="132.31112" x2="304.14224" y2="180.14695" gradientUnits="userSpaceOnUse" id="color-33"><stop offset="0" stop-color="#322931"/><stop offset="1" stop-color="#453944"/></linearGradient><radialGradient cx="302.62555" cy="121.46075" r="9.92424" gradientUnits="userSpaceOnUse" id="color-34"><stop offset="0" stop-color="#ffffff"/><stop offset="1" stop-color="#ffffff" stop-opacity="0"/></radialGradient><radialGradient cx="300.65586" cy="121.46075" r="4.77273" gradientUnits="userSpaceOnUse" id="color-35"><stop offset="0" stop-color="#000000"/><stop offset="1" stop-color="#000000" stop-opacity="0"/></radialGradient><radialGradient cx="300.65585" cy="121.46076" r="4.77273" gradientUnits="userSpaceOnUse" id="color-36"><stop offset="0" stop-color="#000000"/><stop offset="1" stop-color="#000000" stop-opacity="0"/></radialGradient><radialGradient cx="300.65585" cy="121.46076" r="4.77273" gradientUnits="userSpaceOnUse" id="color-37"><stop offset="0" stop-color="#000000"/><stop offset="1" stop-color="#000000" stop-opacity="0"/></radialGradient></defs><g transform="translate(-156.72937,-46.38752)"><g data-paper-data="{&quot;isPaintingLayer&quot;:true}" fill-rule="nonzero" stroke-linejoin="miter" stroke-miterlimit="10" stroke-dasharray="" stroke-dashoffset="0" style="mix-blend-mode: normal"><path d="M180.1931,313.61253v-267.22501h123.18203v267.22501z" fill-opacity="0.01" fill="#000000" stroke="none" stroke-width="0" stroke-linecap="butt"/><path d="M221.65255,184.5064l38.26309,-0.15789l11.57983,111.19652c-1.79994,-0.81338 -3.51553,-1.59229 -4.85732,-2.45196c-1.18727,-0.76067 -1.43337,-8.87639 -1.83874,-10.18216c-1.8957,-6.10631 -7.55414,-3.04021 -11.03343,-5.32934c-1.6778,-1.10388 -2.57948,-3.08938 -4.59716,-3.61621c-1.68197,-0.43918 -3.5478,-1.90359 -5.09504,-1.11803c-2.7486,1.39551 -5.58247,3.18991 -8.29501,5.0623c-2.27706,1.57179 -0.23206,6.53578 -3.70594,8.08028c-5.65423,2.51389 -5.53911,-2.86544 -8.47262,-4.52071c-5.15365,-2.90801 -9.87069,-1.30998 -13.46001,2.01324z" fill="url(#color-1)" stroke="#000000" stroke-width="0" stroke-linecap="butt"/><path d="M246.03367,304.29044v-27.64684h6.04775v27.64684z" fill="url(#color-2)" stroke="none" stroke-width="0" stroke-linecap="butt"/><path d="M245.70968,269.56989c8.70806,0 15.76734,2.94942 15.76734,6.58772c0,3.6383 -7.05928,6.58772 -15.76734,6.58772c-8.70806,0 -15.76734,-2.94942 -15.76734,-6.58772c0,-3.6383 7.05928,-6.58772 15.76734,-6.58772z" fill="url(#color-3)" stroke="none" stroke-width="0" stroke-linecap="butt"/><path d="M233.83018,267.84191c7.03802,0 12.74347,-1.15441 12.74347,2.4839c0,3.6383 -5.92144,13.28344 -12.95946,13.28344c-11.57383,0 -12.52747,-5.54131 -12.52747,-9.17962c0,-3.6383 5.70544,-6.58772 12.74347,-6.58772z" fill="url(#color-4)" stroke="none" stroke-width="0" stroke-linecap="butt"/><path d="M230.15833,266.33002c8.70806,0 15.76734,2.94943 15.76734,6.58772c0,3.63829 -7.05928,6.58772 -15.76734,6.58772c-8.70806,0 -15.76734,-2.94943 -15.76734,-6.58772c0,-3.63829 7.05928,-6.58772 15.76734,-6.58772z" fill="url(#color-5)" stroke="none" stroke-width="0" stroke-linecap="butt"/><path d="M233.07421,262.65819c6.61133,0 11.97088,2.75602 11.97088,6.15574c0,3.39973 -5.35955,6.15574 -11.97088,6.15574c-6.61134,0 -11.97089,-2.75602 -11.97089,-6.15574c0,-3.39972 5.35956,-6.15574 11.97089,-6.15574z" fill="url(#color-6)" stroke="none" stroke-width="0" stroke-linecap="butt"/><path d="M252.94538,247.10687c7.21696,0 13.06745,6.91423 13.06745,15.44335c0,8.52913 -5.85049,15.44335 -13.06745,15.44335c-7.21696,0 -13.06745,-6.91423 -13.06745,-15.44335c0,-8.52913 5.85049,-15.44335 13.06745,-15.44335z" fill="url(#color-7)" stroke="none" stroke-width="0" stroke-linecap="butt"/><path d="M296.59783,196.07491c0,0 -0.33942,7.5719 -3.88961,8.89054c-3.55019,1.31864 -5.83441,-5.27875 -5.83441,-5.27875l-3.33395,4.16744v5.00092l-1.9448,1.66698c0,0 2.34568,9.2973 -0.58088,8.46114c-2.92656,-0.83616 -3.30873,-9.57246 -3.30873,-9.57246c0,0 2.17241,9.97794 -2.07107,12.22449c-4.24348,2.24654 -7.37512,-7.22356 -7.37512,-7.22356l0.55566,23.61548l-31.11688,12.22449l-22.22633,-10.27968l-2.22264,-2.77829l0.83349,-23.33766c0,0 -3.53924,8.70391 -6.94573,6.94573c-3.40649,-1.75818 -1.66698,-11.391 -1.66698,-11.391c0,0 0.02799,8.80427 -3.61178,8.61271c-3.63977,-0.19156 -1.66698,-8.89053 -1.66698,-8.89053l-1.66697,-1.38914v-5.00093l-3.05612,-3.05612c0,0 -2.88219,5.52811 -5.83441,5.00092c-2.95222,-0.52719 -1.94481,-6.39007 -1.94481,-6.39007l12.22448,-15.28061z" fill="url(#color-8)" stroke="#000000" stroke-width="0" stroke-linecap="round"/><path d="M221.8929,175.65796l37.78325,-0.15789l11.43462,111.19652c-1.77737,-0.81337 -3.47144,-1.5923 -4.7964,-2.45196c-1.17238,-0.76067 -1.4154,-8.87639 -1.81569,-10.18216c-1.87193,-6.10631 -7.4594,-3.0402 -10.89506,-5.32934c-1.65676,-1.10388 -2.54713,-3.08938 -4.53951,-3.61621c-1.66088,-0.43918 -3.50331,-1.90359 -5.03115,-1.11803c-2.71413,1.3955 -5.51246,3.18992 -8.19098,5.06231c-2.2485,1.57179 -0.22915,6.53577 -3.65947,8.08028c-5.58333,2.51389 -5.46965,-2.86544 -8.36637,-4.52071c-5.08902,-2.90801 -9.7469,-1.30998 -13.29121,2.01325z" fill="url(#color-9)" stroke="#000000" stroke-width="0" stroke-linecap="butt"/><path d="M161.7321,192.24485v-81.90913h128.81304v81.90913z" fill="url(#color-10)" stroke="none" stroke-width="0" stroke-linecap="butt"/><path d="M233.76028,419.55094c0,0 -0.28483,-36.20281 -0.02387,-72.15242c0.08799,-12.12082 0.86954,-24.63388 0.89684,-35.15544c0.00754,-2.90811 -0.93352,-7.82757 -0.92296,-10.45149c0.03131,-7.78053 0.76251,-14.62955 0.76251,-18.76319c0,-9.9535 -0.71252,-20.75109 -0.71252,-20.75109h10c0,0 -0.47502,11.60541 -0.47502,21.93863c0,2.46206 0.71684,6.39707 0.72465,10.21264c0.01165,5.69044 -0.93656,15.05748 -0.94177,22.80137c-0.00549,8.16664 0.73047,18.02775 0.77166,27.07476c0.16828,36.96355 -0.07953,75.24624 -0.07953,75.24624z" fill="url(#color-11)" stroke="#000000" stroke-width="0" stroke-linecap="butt"/><path d="M210.73704,274.43584l2.3217,-18.57364c0,0 -0.01784,8.18509 8.21526,8.03667c7.51718,-0.13551 11.07275,-9.10823 11.07275,-9.10823c0,0 -0.15395,6.04961 8.57245,5.71497c8.00637,-0.30703 6.25074,-7.3223 6.25074,-7.3223c0,0 1.50582,10.01365 11.07275,10.17978c8.85171,0.15371 9.46541,-9.28682 9.46541,-9.28682l3.21467,32.50387l-5.0006,-2.5003c0,0 -0.11912,-6.91945 -3.57185,-11.07275c-3.45274,-4.15329 -5.45718,-2.45393 -8.75104,-3.75045c-3.29386,-1.29652 -4.69432,-5.11246 -8.57245,-5.0006c-3.87813,0.11187 -5.82939,2.41788 -8.92963,5.71497c-3.10025,3.29709 -0.82867,3.96142 -2.3217,6.25074c-1.49304,2.28933 -2.26912,1.58717 -4.10763,1.78593c-1.83851,0.19876 -2.5003,-1.07156 -2.5003,-1.07156c0,0 -4.59741,-5.11007 -8.57245,-5.71497c-3.97504,-0.6049 -7.85808,3.21467 -7.85808,3.21467z" fill="#000000" stroke="#000000" stroke-width="0.5" stroke-linecap="round"/><path d="M240.47379,236.64491c0,-1.09517 0.88781,-1.98299 1.98299,-1.98299c1.09517,0 1.98299,0.88781 1.98299,1.98299c0,1.09517 -0.88781,1.98299 -1.98299,1.98299c-1.09517,0 -1.98299,-0.88781 -1.98299,-1.98299z" fill="url(#color-12)" stroke="url(#color-13)" stroke-width="0" stroke-linecap="butt"/><path d="M249.09547,231.64431c0,-0.61901 0.50181,-1.12082 1.12082,-1.12082c0.61901,0 1.12082,0.50181 1.12082,1.12082c0,0.61901 -0.50181,1.12082 -1.12082,1.12082c-0.61901,0 -1.12082,-0.50181 -1.12082,-1.12082z" fill="url(#color-14)" stroke="none" stroke-width="0" stroke-linecap="butt"/><path d="M224.78233,223.97103c0,-0.95232 0.77201,-1.72434 1.72434,-1.72434c0.95232,0 1.72434,0.77201 1.72434,1.72434c0,0.95232 -0.77201,1.72434 -1.72434,1.72434c-0.95232,0 -1.72434,-0.77201 -1.72434,-1.72434z" fill="url(#color-15)" stroke="none" stroke-width="0" stroke-linecap="butt"/><path d="M222.36826,243.54223c0,-0.71424 0.57901,-1.29325 1.29325,-1.29325c0.71424,0 1.29325,0.57901 1.29325,1.29325c0,0.71424 -0.57901,1.29325 -1.29325,1.29325c-0.71424,0 -1.29325,-0.57901 -1.29325,-1.29325z" fill="url(#color-16)" stroke="none" stroke-width="0" stroke-linecap="butt"/><path d="M250.64737,219.83262c1.25028,-0.37955 3.7596,-1.92718 6.38004,-2.24164c2.62044,-0.31445 2.35313,0.03636 2.24164,1.20704c-0.11149,1.17067 -2.07597,1.08669 -2.5865,2.41407c-0.51053,1.32738 1.13063,1.14875 0.86217,2.0692c-0.26847,0.92046 -1.33343,1.17348 -2.0692,2.0692c-0.73577,0.89572 -0.69331,2.24838 -1.89677,2.75894c-1.20346,0.51056 -2.34183,-0.75964 -3.79354,-0.34487c-1.45171,0.41478 -2.53901,2.66691 -4.65571,2.75894c-2.1167,0.09203 1.48611,-1.39195 0.68973,-2.5865c-0.79637,-1.19456 -1.89384,0.2757 -2.75894,-0.5173c-0.86509,-0.793 0.84577,-0.63831 0.68973,-1.37947c-0.15603,-0.74116 -1.76708,-1.05695 -1.37947,-1.89677c0.38761,-0.83982 2.07594,-1.59246 3.44867,-2.5865c1.37273,-0.99405 0.86572,-0.78954 1.5519,-1.0346c0.68618,-0.24506 2.02596,-0.31018 3.27624,-0.68973z" fill="url(#color-17)" stroke="#000000" stroke-width="0" stroke-linecap="round"/><path d="M216.16066,228.4543c0,0 3.11089,-1.65756 3.96597,-1.67935c0.85508,-0.02179 0.71982,-0.63789 1.0346,1.5519c0.31478,2.18979 -0.46368,4.01506 0,5.64532c0.46367,1.63026 2.29474,2.28163 2.5865,3.44867c0.29176,1.16705 0.35902,1.54514 -1.0346,2.75894c-1.39362,1.2138 -3.53754,1.09373 -4.31084,1.89677c-0.7733,0.80304 0.57555,1.74696 -0.17243,2.75894c-0.74799,1.01198 -1.75742,1.89558 -2.75894,1.20704c-1.00152,-0.68855 0.21802,-2.42249 0,-3.10381c-0.21802,-0.68132 -1.37947,-1.20704 -1.37947,-1.20704l2.0692,-13.27739z" fill="url(#color-18)" stroke="#000000" stroke-width="0" stroke-linecap="round"/><path d="M218.37484,248.74503c0,-0.71807 0.58211,-1.30017 1.30017,-1.30017c0.71807,0 1.30017,0.58211 1.30017,1.30017c0,0.71807 -0.58211,1.30017 -1.30017,1.30017c-0.71807,0 -1.30017,-0.58211 -1.30017,-1.30017z" fill="#000000" stroke="none" stroke-width="0" stroke-linecap="butt"/><path d="M262.58074,255.94597c0,-0.71807 0.58211,-1.30017 1.30017,-1.30017c0.71807,0 1.30017,0.58211 1.30017,1.30017c0,0.71807 -0.58211,1.30017 -1.30017,1.30017c-0.71807,0 -1.30017,-0.58211 -1.30017,-1.30017z" fill="#000000" stroke="none" stroke-width="0" stroke-linecap="butt"/><g stroke-width="0"><path d="M203.79927,120.52253l98.01634,-5.75096l5.53092,20.48487c-1.54994,-0.10263 -3.34495,0.07831 -5.45944,0.5821c-0.9245,0.22027 -1.2483,1.25968 -1.64472,2.23927l-2.67747,-14.80482l-43.25721,-1.00017l-13.75229,9.50158l-5.00083,-6.75113l-23.25388,0.75013l-4.75079,5.25088l-3.0005,-0.25004l-1.50025,-4.75079z" fill="url(#color-19)" stroke="#57372f" stroke-linecap="butt"/><path d="M285.81293,126.0235l-4.75079,2.25038l-0.25004,4.75079l-5.25088,1.50025l2.25038,-3.25054l-3.25054,-2.50042v-3.25054l-6.50108,-2.00033l2.50042,4.75079l-4.75079,1.00017l-3.25054,-5.00083l-2.25038,-1.00017l-5.75096,5.75096l-4.50075,-4.50075l-14.25238,-2.00033l-4.75079,8.25138l-3.25054,1.00017v-8.25138l-8.75146,3.0005l1.00017,3.25054l3.25054,1.75029l-4.50075,4.50075h-2.75046l-0.75013,-2.75046l-2.00033,-1.25021l0.25004,-7.75129l-5.00083,-2.00033l-7.50125,5.25088l-3.25054,6.25104l-2.00033,0.25004l-5.50092,-11.75196l3.50058,12.25204l-7.50125,-1.00017l-2.75046,-11.00183l-3.0005,1.75029v2.00033l1.25021,1.50025l-4.75079,6.001l0.25004,-13.25221l-6.75113,4.75079l0.50008,5.50092l2.00033,2.25038l-2.00033,2.75046l-4.75079,-2.50042l6.50108,-25.00417l122.02034,6.75113l9.87901,30.08606c-0.24529,-0.06432 -0.47961,-0.14562 -0.69754,-0.25304c-1.36927,-0.67496 -2.51841,-2.20024 -3.88667,-2.88438c-1.5344,-0.7672 -3.3306,-1.19571 -5.1891,-1.28647z" fill="url(#color-20)" stroke="#57372f" stroke-linecap="butt"/><path d="M168.27145,127.86296c-4.3873,-1.2399 -2.89524,-8.88267 -2.89524,-11.31778c0,-2.43511 1.82381,-5.88444 1.82381,-5.88444l64.53363,-0.52948c0,0 0.81227,6.66195 -0.03002,9.30916c-0.84229,2.64721 -1.2006,3.87921 -3.94806,5.79049c-2.74747,1.91128 -6.69118,2.33841 -8.15933,2.63204c-1.46816,0.29363 -0.81789,0.88359 -3.68486,-0.2632c-2.86697,-1.14679 -5.57224,-3.6116 -6.84331,-3.94806c-1.27107,-0.33647 1.54163,0.83319 -2.10563,1.57922c-3.64726,0.74603 -6.2759,1.23261 -9.47535,0.78961c-3.19945,-0.443 -5.66324,-2.82318 -7.63292,-3.15845c-1.96968,-0.33526 -1.23101,1.87353 -4.73767,1.05282c-3.50666,-0.82071 -2.7444,-5.09381 -7.63292,-3.94806c-4.88851,1.14574 -4.82484,9.13601 -9.21214,7.89612z" fill="url(#color-21)" stroke="#61352d" stroke-linecap="round"/><path d="M289.0821,106.5434c0,0 0.86503,16.72801 -2.10563,20.79312c-2.97066,4.06511 -11.65287,-0.0945 -12.897,-0.2632c-1.24413,-0.1687 -1.97173,-1.55354 -2.63204,-1.84243c-0.66031,-0.28889 0.80922,0 -1.57922,0c-2.38843,0 -2.1687,0.85602 -6.05369,0c-3.885,-0.85601 -5.84143,-3.6386 -9.47535,-3.42165c-3.63393,0.21695 -5.66194,3.76093 -8.15933,4.47447c-2.49739,0.71354 -3.13025,0.80312 -6.5801,-0.2632c-3.44985,-1.06632 -6.09687,-0.74129 -7.89612,-4.21127c-1.79925,-3.46998 -1.78128,-12.30944 -1.78128,-12.30944z" fill="url(#color-22)" stroke="#61352d" stroke-linecap="round"/></g><g stroke-width="0"><path d="M289.31353,199.03561l-86.26438,-2.75046l-35.25588,-9.50158l11.75196,-11.00183l2.00033,2.00033l-6.25104,8.75146l39.50658,3.25054l9.75163,-6.25104h4.50075l1.00017,7.00117l57.25954,2.00033l13.70025,-16.25762c1.2486,0.88219 2.58942,1.6062 3.96393,2.12461z" fill="url(#color-23)" stroke="#57372f" stroke-linecap="butt"/><path d="M167.89082,178.33467l2.80037,-4.60061l-1.60021,-4.00053l3.60048,-0.60008l1.40019,3.80051l-1.60021,7.20096l-3.0004,3.60048l12.0016,4.40059l0.20003,-3.80051l6.40085,-7.20096l6.60088,-0.20003v2.40032l-5.40072,3.20043l3.20043,4.80064l3.0004,1.20016l3.40045,-6.40085l3.0004,-0.40005l0.40005,3.80051v3.0004l11.80157,-8.00107l5.20069,7.40099l14.20189,3.0004l0.80011,-6.0008l3.60048,-3.60048l7.00093,5.00067l6.60088,-5.40072l2.20029,1.80024l-1.40019,0.80011l1.60021,3.80051l4.60061,0.80011l4.20056,-6.40085l6.80091,4.80064l5.20069,-2.40032l-2.00027,-2.80037l2.80037,-4.00053l2.60035,0.80011l0.80011,3.40045l0.40005,-3.60048l3.60048,-0.40005l0.40005,2.60035l-1.60021,4.20056l10.49728,-8.69771c0.00683,2.28311 0.51662,4.36674 2.27056,5.86486c0.32052,0.27377 0.63842,0.53112 0.95364,0.7725l-12.86507,13.76003l-112.26871,-3.50058l-6.75113,-6.001z" fill="url(#color-24)" stroke="#57372f" stroke-linecap="butt"/><path d="M287.98173,181.53856c0.28975,1.67413 -1.25026,14.69056 -1.25026,14.69056l-122.83809,-1.25026c0,0 -1.81943,-9.43782 0,-15.00313c1.81943,-5.5653 2.68968,-2.41645 5.31361,-1.25026c2.62393,1.16619 4.40289,6.29353 8.75182,7.50156c4.34893,1.20804 8.38242,-2.06948 13.75287,-1.25026c5.37044,0.81922 2.18613,3.06241 4.68848,4.06335c2.50234,1.00094 2.80078,-0.45414 4.68848,-0.31257c1.8877,0.14158 4.73157,1.4524 7.81413,1.25026c3.08255,-0.20213 6.74968,-2.42548 11.25234,-2.50052c4.50267,-0.07504 4.43373,1.76481 7.50156,2.18796c3.06783,0.42315 6.52099,0.92543 10.62721,0.31257c4.10623,-0.61287 6.06592,-3.23346 10.31465,-3.43822c4.24873,-0.20476 9.56361,3.31501 15.62826,2.18796c6.06465,-1.12706 11.62018,-6.30915 19.6916,-8.75182c8.07143,-2.44267 3.77359,-0.11131 4.06335,1.56283z" fill="url(#color-25)" stroke="#61352d" stroke-linecap="round"/></g><g><path d="M177.18962,92.1265c0,0 1.51334,13.85093 -1.0931,17.52667c-0.91444,1.28959 -7.0175,0.36791 -9.21002,1.16051c-4.51486,1.63212 -5.94914,4.23266 -5.94914,4.23266c0,0 -0.98723,-7.94111 -0.62509,-9.58467c0.36215,-1.64356 2.02562,-1.17499 3.3338,-2.70871c1.30818,-1.53372 1.43953,-3.10643 2.70871,-4.37561c1.26919,-1.26919 2.62365,-0.99982 3.95889,-2.29199c1.33524,-1.29217 1.02047,-3.10683 2.50034,-3.95888c1.47987,-0.85205 4.37561,0 4.37561,0z" fill="#44221f" stroke="#a87469" stroke-width="0" stroke-linecap="round"/><path d="M159.64644,203.47185c0,0 0,-67.77138 0,-89.4673c0,-0.78935 -2.91707,-1.97123 -2.91707,-1.97123c0,0 5.12911,-2.50441 5.72007,-3.92721c0.69941,-1.68389 -0.20392,-3.81307 -0.20392,-3.81307c0,0 4.00466,0.80071 5.41921,1.08272c1.21961,0.24315 0.19013,-6.48108 0.19013,-6.48108c0,0 5.89362,2.15284 6.97907,1.5203c2.13073,-1.24166 2.3344,-9.97235 2.3344,-9.97235c0,0 1.72415,3.12543 2.72999,3.12543c29.94198,0 142.62711,0 142.62711,0v109.90379zM167.14561,190.74845l117.80791,-0.78804l-1.18338,-78.27416l-116.62189,-0.00265z" fill="url(#color-26)" stroke="#725771" stroke-width="0" stroke-linecap="butt"/><path d="M287.98429,126.47614c0,-1.90123 0,-7.75722 0,-10.92423c0,-1.2528 1.16458,-2.08481 2.41635,-2.08481c3.62314,0 21.47219,0 27.42288,0c1.21549,0 1.93455,1.60893 1.93455,2.92514c0,1.84835 0,6.96511 0,10.0839c0,1.49267 -1.03347,2.52766 -2.71806,2.52766c-6.67077,0 -23.55146,0 -26.90054,0c-1.13155,0 -2.15518,-1.35809 -2.15518,-2.52766z" fill="url(#color-27)" stroke="#725771" stroke-width="0" stroke-linecap="butt"/><path d="M289.96938,193.08601c0,-2.53637 0,-6.29476 0,-7.67244c0,-1.00938 1.06141,-2.22248 2.1908,-2.22248c3.1642,0 18.32654,0 23.63906,0c1.15444,0 1.84376,1.5689 1.84376,2.77051c0,1.39223 0,4.77089 0,7.12441c0,1.42833 -0.87375,2.4791 -1.84376,2.4791c-2.76718,0 -16.32082,0 -22.61127,0c-1.96292,0 -3.2186,-1.04393 -3.2186,-2.4791z" fill="url(#color-28)" stroke="#332733" stroke-width="0" stroke-linecap="butt"/><path d="M290.10778,178.33755c0,-7.79468 0,-38.34238 0,-43.42392c0,-1.39937 1.12454,-2.60253 2.30936,-2.60253c3.15128,0 17.62006,0 23.3821,0c1.47339,0 2.37748,1.07124 2.37748,2.34559c0,4.79198 0,34.56725 0,43.16697c0,1.47173 -0.7473,2.32327 -1.60665,2.32327c-2.84861,0 -18.69795,0 -24.4099,0c-1.28123,0 -2.05241,-0.65529 -2.05241,-1.80937z" fill="url(#color-29)" stroke="url(#color-30)" stroke-width="2" stroke-linecap="butt"/><path d="M317.34092,199.2787c0,-0.7805 0.63271,-1.41321 1.4132,-1.41321c0.78049,0 1.41321,0.63271 1.41321,1.41321c0,0.7805 -0.63271,1.41321 -1.41321,1.41321c-0.78049,0 -1.4132,-0.63271 -1.4132,-1.41321z" fill="#2e232e" stroke="none" stroke-width="0" stroke-linecap="butt"/><path d="M163.44177,198.2509c0,-1.06431 0.8628,-1.9271 1.9271,-1.9271c1.06431,0 1.9271,0.86279 1.9271,1.9271c0,1.06431 -0.86279,1.9271 -1.9271,1.9271c-1.06431,0 -1.9271,-0.86279 -1.9271,-1.9271z" fill="#2e232e" stroke="none" stroke-width="0" stroke-linecap="butt"/><path d="M317.34499,96.80555c0,-0.94611 0.76696,-1.71306 1.71307,-1.71306c0.9461,0 1.71306,0.76695 1.71306,1.71306c0,0.94611 -0.76695,1.71308 -1.71306,1.71308c-0.9461,0 -1.71307,-0.76697 -1.71307,-1.71308z" fill="#2e232e" stroke="none" stroke-width="0" stroke-linecap="butt"/><path d="M303.83713,132.79043v45.99338" fill="none" stroke-opacity="0.16069" stroke="#40303f" stroke-width="2" stroke-linecap="round"/><path d="M290.73288,166.70732h26.20851" fill="none" stroke-opacity="0.16069" stroke="#40303f" stroke-width="2" stroke-linecap="round"/><path d="M290.98982,155.65862h26.72241" fill="none" stroke-opacity="0.16069" stroke="#40303f" stroke-width="2" stroke-linecap="round"/><path d="M290.47594,144.35298h26.97935" fill="none" stroke-opacity="0.16069" stroke="#40303f" stroke-width="2" stroke-linecap="round"/><path d="M289.1714,94.1027c0,0 -7.71708,4.67042 -11.53571,5.40811c-2.92627,0.5653 -9.41999,-1.35985 -9.41999,-1.35985l7.14399,-4.52453" fill="#44221f" stroke="#725771" stroke-width="0" stroke-linecap="round"/><path d="M284.5883,189.65649l-0.13176,7.88911l-2.52852,1.76996l-3.79277,-0.75855l-4.04563,-2.52852l-12.89543,6.06844l-7.8384,-6.32129l-4.80418,-0.75855l-1.51711,-0.5057h-3.03422l-2.27566,0.25285l-10.61977,-0.25285l-2.52852,-1.76996l-6.82699,0.5057l-2.02281,0.75855h-5.07149l-0.63394,3.80362l-2.53575,1.26787l-2.85272,-0.31697l-3.16968,-4.12059l-3.16968,6.33937l-2.85272,-0.63394l-1.58484,-4.12059l-3.80362,-2.85272l-7.29027,-0.31697l-2.21878,1.26787h-5.70543l-2.85272,1.90181l-2.21878,-0.95091h-4.75453l-2.85272,-1.26787v-3.80362z" fill="url(#color-31)" stroke="#9e4138" stroke-width="0" stroke-linecap="round"/><path d="M174.78585,201.12444c0,-0.87113 0.70619,-1.57732 1.57732,-1.57732c0.87113,0 1.57732,0.70619 1.57732,1.57732c0,0.87113 -0.70619,1.57732 -1.57732,1.57732c-0.87113,0 -1.57732,-0.70619 -1.57732,-1.57732z" fill="url(#color-32)" stroke="none" stroke-width="0" stroke-linecap="butt"/><path d="M290.10778,178.33755c0,-7.79468 0,-38.34238 0,-43.42392c0,-1.39937 1.12454,-2.60253 2.30936,-2.60253c3.15128,0 17.62006,0 23.3821,0c1.47339,0 2.37748,1.07124 2.37748,2.34559c0,4.79198 0,34.56725 0,43.16697c0,1.47173 -0.7473,2.32327 -1.60665,2.32327c-2.84861,0 -18.69795,0 -24.4099,0c-1.28123,0 -2.05241,-0.65529 -2.05241,-1.80937z" fill="none" stroke="url(#color-33)" stroke-width="2.5" stroke-linecap="butt"/></g><g stroke="none" stroke-width="0" stroke-linecap="butt"><path d="M292.70131,121.46075c0,0 4.44323,-4.92424 9.92424,-4.92424c5.48101,0 9.92424,4.92424 9.92424,4.92424c0,0 -4.44323,4.92424 -9.92424,4.92424c-5.48101,0 -9.92424,-4.92424 -9.92424,-4.92424z" fill="url(#color-34)"/><path d="M295.88313,121.46075c0,-2.6359 2.13682,-4.77273 4.77273,-4.77273c2.6359,0 4.77273,2.13682 4.77273,4.77273c0,2.6359 -2.13682,4.77273 -4.77273,4.77273c-2.6359,0 -4.77273,-2.13682 -4.77273,-4.77273z" fill="url(#color-35)"/><path d="M295.88313,121.46076c0,-2.6359 2.13682,-4.77273 4.77272,-4.77273c2.6359,0 4.77273,2.13683 4.77273,4.77273c0,2.6359 -2.13683,4.77272 -4.77273,4.77272c-2.6359,0 -4.77272,-2.13682 -4.77272,-4.77272z" fill="url(#color-36)"/><path d="M295.88313,121.46076c0,-2.6359 2.13682,-4.77273 4.77272,-4.77273c2.6359,0 4.77273,2.13683 4.77273,4.77273c0,2.6359 -2.13683,4.77272 -4.77273,4.77272c-2.6359,0 -4.77272,-2.13682 -4.77272,-4.77272z" fill="url(#color-37)"/></g></g></g></svg>