<svg version="1.1" xmlns="http://www.w3.org/2000/svg" xmlns:xlink="http://www.w3.org/1999/xlink" width="34.17311" height="34.17311" viewBox="0,0,34.17311,34.17311"><g transform="translate(-222.91345,-162.91345)"><g data-paper-data="{&quot;isPaintingLayer&quot;:true}" stroke-miterlimit="10" stroke-dasharray="" stroke-dashoffset="0" style="mix-blend-mode: normal"><path d="M229.98313,162.91346h20.03378c3.9166,0 7.06966,3.15307 7.06966,7.06966v20.03379c0,3.91659 -3.15306,7.06966 -7.06966,7.06966h-20.03378c-3.91659,0 -7.06967,-3.15307 -7.06967,-7.06966v-20.03379c0,-3.91659 3.15308,-7.06966 7.06967,-7.06966z" fill-opacity="0.09677" fill="#191919" fill-rule="evenodd" stroke="none" stroke-width="4.43922" stroke-linecap="round" stroke-linejoin="round"/><path d="M230.82356,179.19903c0.62053,0 1.12356,0.50304 1.12356,1.12356c0,0.62053 -0.50304,1.12356 -1.12356,1.12356c-0.62053,0 -1.12356,-0.50304 -1.12356,-1.12356c0,-0.62053 0.50304,-1.12356 1.12356,-1.12356z" fill="#707070" fill-rule="nonzero" stroke="#707070" stroke-width="2.5" stroke-linecap="butt" stroke-linejoin="miter"/><path d="M249.17644,178.55385c0.62053,0 1.12356,0.50304 1.12356,1.12356c0,0.62053 -0.50304,1.12356 -1.12356,1.12356c-0.62053,0 -1.12356,-0.50304 -1.12356,-1.12356c0,-0.62053 0.50304,-1.12356 1.12356,-1.12356z" fill="#707070" fill-rule="nonzero" stroke="#707070" stroke-width="2.5" stroke-linecap="butt" stroke-linejoin="miter"/></g></g></svg>