<svg version="1.1" xmlns="http://www.w3.org/2000/svg" xmlns:xlink="http://www.w3.org/1999/xlink" width="143.07849" height="246.25315" viewBox="0,0,143.07849,246.25315"><defs><linearGradient x1="319.92305" y1="175.45919" x2="319.92305" y2="307.45912" gradientUnits="userSpaceOnUse" id="color-1"><stop offset="0" stop-color="#4c7b64"/><stop offset="1" stop-color="#2b2b2b"/></linearGradient><linearGradient x1="320.08155" y1="221.49564" x2="320.08155" y2="308.14565" gradientUnits="userSpaceOnUse" id="color-2"><stop offset="0" stop-color="#6b6dd3"/><stop offset="1" stop-color="#000000"/></linearGradient><linearGradient x1="355.96014" y1="194.55739" x2="355.96014" y2="302.11987" gradientUnits="userSpaceOnUse" id="color-3"><stop offset="0" stop-color="#4b7b64"/><stop offset="1" stop-color="#000000"/></linearGradient><linearGradient x1="284.13221" y1="194.46851" x2="284.13221" y2="302.02621" gradientUnits="userSpaceOnUse" id="color-4"><stop offset="0" stop-color="#4b7b64"/><stop offset="1" stop-color="#000000"/></linearGradient><linearGradient x1="301.42246" y1="89.7233" x2="330.93465" y2="206.15489" gradientUnits="userSpaceOnUse" id="color-5"><stop offset="0" stop-color="#000000"/><stop offset="1" stop-color="#ffdac9"/></linearGradient><linearGradient x1="316.05449" y1="147.76342" x2="330.65202" y2="205.35364" gradientUnits="userSpaceOnUse" id="color-6"><stop offset="0" stop-color="#000000"/><stop offset="1" stop-color="#7e647b"/></linearGradient><linearGradient x1="341.4266" y1="118.12439" x2="341.4266" y2="170.35709" gradientUnits="userSpaceOnUse" id="color-7"><stop offset="0" stop-color="#c7c7c7"/><stop offset="1" stop-color="#c79797"/></linearGradient><linearGradient x1="294.515" y1="64.6515" x2="309.09729" y2="122.18168" gradientUnits="userSpaceOnUse" id="color-8"><stop offset="0" stop-color="#4c7b64"/><stop offset="1" stop-color="#000000"/></linearGradient><linearGradient x1="295.5725" y1="68.84695" x2="303.70502" y2="100.93138" gradientUnits="userSpaceOnUse" id="color-9"><stop offset="0" stop-color="#daffed"/><stop offset="1" stop-color="#161a18"/></linearGradient><linearGradient x1="293.06619" y1="96.21288" x2="293.06619" y2="170.54423" gradientUnits="userSpaceOnUse" id="color-10"><stop offset="0" stop-color="#1a1a1a"/><stop offset="1" stop-color="#ffffff"/></linearGradient><linearGradient x1="297.4061" y1="73.54882" x2="302.47643" y2="93.55235" gradientUnits="userSpaceOnUse" id="color-11"><stop offset="0" stop-color="#49705e"/><stop offset="1" stop-color="#13160e"/></linearGradient><linearGradient x1="323.56559" y1="189.68936" x2="347.31829" y2="269.28145" gradientUnits="userSpaceOnUse" id="color-12"><stop offset="0" stop-color="#000000"/><stop offset="1" stop-color="#426600"/></linearGradient><linearGradient x1="306.67066" y1="135.29627" x2="327.47167" y2="204.99765" gradientUnits="userSpaceOnUse" id="color-13"><stop offset="0" stop-color="#000000"/><stop offset="1" stop-color="#1a0000"/></linearGradient><linearGradient x1="343.29349" y1="183.29034" x2="344.50715" y2="187.35715" gradientUnits="userSpaceOnUse" id="color-14"><stop offset="0" stop-color="#4d4d4d"/><stop offset="1" stop-color="#808080"/></linearGradient><linearGradient x1="341.34966" y1="183.33271" x2="342.80013" y2="188.19305" gradientUnits="userSpaceOnUse" id="color-15"><stop offset="0" stop-color="#4d4d4d"/><stop offset="1" stop-color="#808080"/></linearGradient><linearGradient x1="338.57953" y1="183.67618" x2="340.2076" y2="189.13164" gradientUnits="userSpaceOnUse" id="color-16"><stop offset="0" stop-color="#4d4d4d"/><stop offset="1" stop-color="#808080"/></linearGradient><linearGradient x1="334.7444" y1="184.06292" x2="336.66848" y2="190.51028" gradientUnits="userSpaceOnUse" id="color-17"><stop offset="0" stop-color="#4d4d4d"/><stop offset="1" stop-color="#808080"/></linearGradient><linearGradient x1="325.54865" y1="185.72564" x2="327.82795" y2="193.36327" gradientUnits="userSpaceOnUse" id="color-18"><stop offset="0" stop-color="#4d4d4d"/><stop offset="1" stop-color="#808080"/></linearGradient><linearGradient x1="330.34358" y1="184.68885" x2="332.50448" y2="191.92972" gradientUnits="userSpaceOnUse" id="color-19"><stop offset="0" stop-color="#4d4d4d"/><stop offset="1" stop-color="#808080"/></linearGradient><linearGradient x1="303.65318" y1="192.59747" x2="304.86683" y2="196.66426" gradientUnits="userSpaceOnUse" id="color-20"><stop offset="0" stop-color="#4d4d4d"/><stop offset="1" stop-color="#808080"/></linearGradient><linearGradient x1="305.36332" y1="191.77202" x2="306.81379" y2="196.63234" gradientUnits="userSpaceOnUse" id="color-21"><stop offset="0" stop-color="#4d4d4d"/><stop offset="1" stop-color="#808080"/></linearGradient><linearGradient x1="307.95819" y1="190.84125" x2="309.58626" y2="196.29672" gradientUnits="userSpaceOnUse" id="color-22"><stop offset="0" stop-color="#4d4d4d"/><stop offset="1" stop-color="#808080"/></linearGradient><linearGradient x1="311.5012" y1="189.47565" x2="313.42528" y2="195.92301" gradientUnits="userSpaceOnUse" id="color-23"><stop offset="0" stop-color="#4d4d4d"/><stop offset="1" stop-color="#808080"/></linearGradient><linearGradient x1="320.40639" y1="186.83932" x2="322.68569" y2="194.47696" gradientUnits="userSpaceOnUse" id="color-24"><stop offset="0" stop-color="#4d4d4d"/><stop offset="1" stop-color="#808080"/></linearGradient><linearGradient x1="315.66832" y1="188.06666" x2="317.82922" y2="195.30754" gradientUnits="userSpaceOnUse" id="color-25"><stop offset="0" stop-color="#4d4d4d"/><stop offset="1" stop-color="#808080"/></linearGradient><linearGradient x1="351.86812" y1="218.82564" x2="350.77864" y2="215.17492" gradientUnits="userSpaceOnUse" id="color-26"><stop offset="0" stop-color="#4d4d4d"/><stop offset="1" stop-color="#808080"/></linearGradient><linearGradient x1="350.59545" y1="220.44622" x2="349.29338" y2="216.08317" gradientUnits="userSpaceOnUse" id="color-27"><stop offset="0" stop-color="#4d4d4d"/><stop offset="1" stop-color="#808080"/></linearGradient><linearGradient x1="348.44779" y1="221.89069" x2="346.98629" y2="216.9934" gradientUnits="userSpaceOnUse" id="color-28"><stop offset="0" stop-color="#4d4d4d"/><stop offset="1" stop-color="#808080"/></linearGradient><linearGradient x1="345.44901" y1="223.7255" x2="343.72178" y2="217.93779" gradientUnits="userSpaceOnUse" id="color-29"><stop offset="0" stop-color="#4d4d4d"/><stop offset="1" stop-color="#808080"/></linearGradient><linearGradient x1="337.81837" y1="227.30999" x2="335.77228" y2="220.45379" gradientUnits="userSpaceOnUse" id="color-30"><stop offset="0" stop-color="#4d4d4d"/><stop offset="1" stop-color="#808080"/></linearGradient><linearGradient x1="341.91014" y1="225.66693" x2="339.97033" y2="219.1669" gradientUnits="userSpaceOnUse" id="color-31"><stop offset="0" stop-color="#4d4d4d"/><stop offset="1" stop-color="#808080"/></linearGradient><linearGradient x1="316.1611" y1="227.3062" x2="315.07162" y2="223.65549" gradientUnits="userSpaceOnUse" id="color-32"><stop offset="0" stop-color="#4d4d4d"/><stop offset="1" stop-color="#808080"/></linearGradient><linearGradient x1="318.16854" y1="228.14774" x2="316.86647" y2="223.7847" gradientUnits="userSpaceOnUse" id="color-33"><stop offset="0" stop-color="#4d4d4d"/><stop offset="1" stop-color="#808080"/></linearGradient><linearGradient x1="320.837" y1="228.44837" x2="319.3755" y2="223.55108" gradientUnits="userSpaceOnUse" id="color-34"><stop offset="0" stop-color="#4d4d4d"/><stop offset="1" stop-color="#808080"/></linearGradient><linearGradient x1="324.46147" y1="228.71013" x2="322.73424" y2="222.92242" gradientUnits="userSpaceOnUse" id="color-35"><stop offset="0" stop-color="#4d4d4d"/><stop offset="1" stop-color="#808080"/></linearGradient><linearGradient x1="333.07984" y1="228.43541" x2="331.03374" y2="221.57921" gradientUnits="userSpaceOnUse" id="color-36"><stop offset="0" stop-color="#4d4d4d"/><stop offset="1" stop-color="#808080"/></linearGradient><linearGradient x1="328.61393" y1="228.82483" x2="326.67413" y2="222.3248" gradientUnits="userSpaceOnUse" id="color-37"><stop offset="0" stop-color="#4d4d4d"/><stop offset="1" stop-color="#808080"/></linearGradient><linearGradient x1="297.25733" y1="88.59756" x2="297.25733" y2="175.23483" gradientUnits="userSpaceOnUse" id="color-38"><stop offset="0" stop-color="#c7c7c7"/><stop offset="1" stop-color="#c79797"/></linearGradient><linearGradient x1="317.8841" y1="156.81096" x2="326.65791" y2="191.42545" gradientUnits="userSpaceOnUse" id="color-39"><stop offset="0" stop-color="#000000"/><stop offset="1" stop-color="#ffdac9"/></linearGradient></defs><g transform="translate(-244.42946,-62.39868)"><g data-paper-data="{&quot;isPaintingLayer&quot;:true}" stroke-linecap="butt" stroke-linejoin="miter" stroke-miterlimit="10" stroke-dasharray="" stroke-dashoffset="0" style="mix-blend-mode: normal"><path d="M286.67305,307.45912l15.14285,-131.8421l37.78325,-0.15789l13.57389,132z" fill="url(#color-1)" fill-rule="nonzero" stroke="#000000" stroke-width="2"/><path d="M299.53999,204.07183l3.12142,-26.32765l35.83075,-0.14203l2.76735,26.1059c0,0 -7.51543,4.19603 -21.55904,4.50964c-12.48458,0.27879 -20.16049,-4.14586 -20.16049,-4.14586z" fill="#2f4b3d" fill-rule="nonzero" stroke="#000000" stroke-width="0"/><path d="M286.20349,307.39565l9.625,-85.15c0,0 16.14032,5.36651 24.41538,5.23987c8.05433,-0.12327 24.59071,-5.98987 24.59071,-5.98987l9.125,86.65z" fill="url(#color-2)" fill-rule="nonzero" stroke="#000000" stroke-width="1"/><path d="M330.77702,225.84333l-2.72223,-31.57302l7.33053,-1.11111l3.5,30.46191c0,0 1.97994,9.94622 -2.77415,10.47275c-4.71963,0.52271 -5.33415,-8.25053 -5.33415,-8.25053z" data-paper-data="{&quot;index&quot;:null}" fill="#6b6dd3" fill-rule="nonzero" stroke="#000000" stroke-width="1"/><path d="M301.66589,224.12113l3.5,-30.4619l8.21942,0.55556l-2.61111,32.12857c0,0 -1.38805,9.70344 -6.18894,8.77837c-5.22617,-1.00701 -2.91937,-11.0006 -2.91937,-11.0006z" fill="#6b6dd3" fill-rule="nonzero" stroke="#000000" stroke-width="1"/><path d="M338.78523,228.05327c0,1.99603 -1.54283,3.61412 -3.44602,3.61412c-1.90319,0 -3.44603,-1.6181 -3.44603,-3.61412c0,-1.99603 1.54284,-3.61412 3.44603,-3.61412c1.90319,0 3.44602,1.61809 3.44602,3.61412z" fill="#c6a438" fill-rule="nonzero" stroke="none" stroke-width="0"/><path d="M309.37397,228.76995c0,1.99603 -1.54283,3.61412 -3.44602,3.61412c-1.90319,0 -3.44603,-1.6181 -3.44603,-3.61412c0,-1.99603 1.54284,-3.61412 3.44603,-3.61412c1.90319,0 3.44602,1.61809 3.44602,3.61412z" fill="#c6a438" fill-rule="nonzero" stroke="none" stroke-width="0"/><path d="M308.849,229.41994c0,1.99602 -1.54284,3.61412 -3.44602,3.61412c-1.90319,0 -3.44602,-1.6181 -3.44602,-3.61412c0,-1.99602 1.54284,-3.61412 3.44602,-3.61412c1.90319,0 3.44602,1.6181 3.44602,3.61412z" fill="#edd459" fill-rule="nonzero" stroke="none" stroke-width="0"/><path d="M338.53664,228.70119c0,1.87521 -1.44945,3.39537 -3.23744,3.39537c-1.78799,0 -3.23745,-1.52016 -3.23745,-3.39537c0,-1.87521 1.44946,-3.39537 3.23745,-3.39537c1.78799,0 3.23744,1.52016 3.23744,3.39537z" fill="#edd459" fill-rule="nonzero" stroke="none" stroke-width="0"/><path d="M341.61099,194.55739c0.90641,1.442 13.27591,-0.94411 14.53458,0.88889c0.31862,-0.594 9.30076,33.378 9.72787,35c-0.5926,-0.963 5.60783,49.33333 5.60783,49.33333c0,0 0.50768,22.79733 0.91556,22.33333c-0.88787,-0.49 -11.18842,-0.32367 -12.13122,-0.16667c0.5308,-15.625 -11.71487,-68.29133 -19.1124,-79.33333c2.25366,-15.345 -5.00951,-26.28055 0.45778,-28.05555z" fill="url(#color-3)" fill-rule="evenodd" stroke="none" stroke-width="1"/><path d="M341.52133,194.59509c0.91572,1.34757 13.41232,-0.88229 14.68393,0.83068c0.10385,-0.17908 1.11865,3.00386 2.46032,7.4491c-6.17155,-0.51975 -13.01437,-2.82677 -18.35267,1.21834c-0.00693,0.00525 -0.01384,0.01053 -0.02073,0.01584c-0.98219,-5.21007 -1.76061,-8.6161 1.22914,-9.51396z" fill="#2f4b3d" fill-rule="nonzero" stroke="none" stroke-width="1"/><path d="M387.45589,301.10947c0.01927,0.00566 0.03664,0.01141 0.05206,0.01725c-0.01724,0.01347 -0.0346,0.00734 -0.05206,-0.01725z" fill="#2f4b3d" fill-rule="nonzero" stroke="none" stroke-width="1"/><path d="M298.93917,222.52407c-7.39753,11.042 -19.6432,63.70833 -19.1124,79.33333c-0.9428,-0.157 -11.24335,-0.32333 -12.13122,0.16667c0.40788,0.464 7.11599,-72.62966 6.52339,-71.66666c0.42711,-1.622 9.40925,-35.594 9.72787,-35c1.25867,-1.833 13.62817,0.55311 14.53458,-0.88889c5.46729,1.775 -1.79588,12.71055 0.45778,28.05555z" data-paper-data="{&quot;index&quot;:null}" fill="url(#color-4)" fill-rule="evenodd" stroke="none" stroke-width="1"/><path d="M298.57106,194.5062c2.98975,0.89786 2.21133,4.30389 1.22914,9.51396c-0.00689,-0.00531 -0.0138,-0.01059 -0.02073,-0.01584c-5.3383,-4.04511 -12.18112,-1.73809 -18.35267,-1.21834c1.34167,-4.44524 2.35647,-7.62818 2.46032,-7.4491c1.27161,-1.71297 13.76821,0.51689 14.68393,-0.83068z" data-paper-data="{&quot;index&quot;:null}" fill="#2f4b3d" fill-rule="nonzero" stroke="none" stroke-width="1"/><path d="M251.75043,131.04504c-0.11982,-1.98776 -2.98913,-15.04173 7.6136,-30.85308c5.72472,-8.53701 11.72653,-20.16848 32.4854,-26.10243c30.95035,-8.37233 45.32759,-0.04925 55.4289,6.3834c13.85453,8.82275 17.11705,19.09859 20.80934,23.57821c0.37487,0.45481 -116.33364,27.05341 -116.33722,26.99391z" fill="#a8530c" fill-rule="nonzero" stroke="none" stroke-width="1.5"/><path d="M253.85136,163.48807c-5.19681,-20.50249 1.47698,-41.38991 15.84964,-56.13617c0.62098,-1.96746 16.92161,-13.76691 30.005,-17.19085c13.0834,-3.42393 25.97669,-3.59083 37.01337,-0.34789c20.12017,5.912 36.38379,21.26244 41.6677,42.10854c8.18234,32.281 -13.06284,65.51628 -47.45242,74.23309c-34.38958,8.71681 -68.90095,-10.38575 -77.08329,-42.66672z" fill="url(#color-5)" fill-rule="nonzero" stroke="#000000" stroke-width="2"/><path d="M254.5653,163.36271c-0.17887,-0.70567 18.78657,52.92591 75.40705,39.62118c54.0985,-12.7121 47.32738,-71.78204 47.57771,-70.79441c8.06021,31.79918 -12.93678,64.55586 -46.89808,73.16411c-33.9613,8.60825 -68.02647,-10.19171 -76.08668,-41.99088z" fill="url(#color-6)" fill-rule="nonzero" stroke="#000000" stroke-width="0"/><path d="M260.27315,173.93905c0,0 -5.00373,-6.8187 -5.97143,-10.6365c-1.48146,-5.84466 -1.30438,-43.48145 -1.30438,-43.48145l9.23294,-2.34029c0,0 -1.58917,8.82645 -1.05839,13.48782c0.47139,4.13986 4.08607,13.10195 4.08607,13.10195l-1.3301,3.18078l-3.35617,-1.01092z" fill="#3a2f2b" fill-rule="nonzero" stroke="#000000" stroke-width="0"/><path d="M258.29492,169.78607c0,0 -4.72797,-6.44293 -5.64235,-10.05032c-1.39982,-5.52255 -1.23251,-41.08519 -1.23251,-41.08519l8.72411,-2.21132c0,0 -1.50159,8.34003 -1.00007,12.74451c0.44541,3.91171 3.86089,12.37991 3.86089,12.37991l-1.2568,3.00548l-3.1712,-0.9552z" fill="#766058" fill-rule="nonzero" stroke="#000000" stroke-width="1.5"/><path d="M339.09268,170.15868c-7.05632,1.78858 -15.30489,-8.77108 -18.49116,-21.34154c-3.18626,-12.57047 9.63776,-28.72936 16.69408,-30.51794c7.05632,-1.78858 21.91949,10.44724 25.10576,23.01771c3.18626,12.57047 -16.25236,27.0532 -23.30868,28.84178z" data-paper-data="{&quot;index&quot;:null}" fill="url(#color-7)" fill-rule="nonzero" stroke="#000000" stroke-width="2"/><path d="M270.42429,131.44188c0,0 10.0993,-6.95892 15.32381,-6.81327c5.22453,0.14567 12.80396,2.91523 12.80396,2.91523c0,0 -8.81392,-1.19949 -12.84865,-1.31198c-4.21645,-0.11755 -15.27912,5.21001 -15.27912,5.21001z" fill="#000000" fill-rule="nonzero" stroke="none" stroke-width="0"/><path d="M331.72247,114.93178c-3.44192,2.1083 -9.11316,7.80497 -9.11316,7.80497c0,0 3.8185,-6.44264 8.2754,-9.17265c4.4569,-2.73 12.86164,-3.77455 12.86164,-3.77455c0,0 -8.42694,2.93899 -12.02387,5.14225z" data-paper-data="{&quot;index&quot;:null}" fill="#000000" fill-rule="nonzero" stroke="none" stroke-width="0"/><path d="M363.18436,121.2627l-2.46941,2.48754l-2.68464,-2.16315c0,0 -1.09076,-9.60183 -2.64827,-13.46639c-1.75371,-4.35139 -7.35541,-11.35516 -7.35541,-11.35516l9.23294,-2.34029c0,0 18.08362,33.00821 19.56508,38.85287c0.96771,3.8178 -0.18385,12.1967 -0.18385,12.1967z" data-paper-data="{&quot;index&quot;:null}" fill="#3a2f2b" fill-rule="nonzero" stroke="#000000" stroke-width="0"/><path d="M364.31668,119.21907l-2.33332,2.35045l-2.53669,-2.04393c0,0 -1.03065,-9.07268 -2.50233,-12.72426c-1.65706,-4.11159 -6.95004,-10.72937 -6.95004,-10.72937l8.72411,-2.21132c0,0 17.08704,31.18914 18.48685,36.7117c0.91438,3.60739 -0.17372,11.52453 -0.17372,11.52453z" data-paper-data="{&quot;index&quot;:null}" fill="#766058" fill-rule="nonzero" stroke="#000000" stroke-width="1.5"/><path d="M245.35868,119.66576c10.2059,-26.97734 25.99313,-49.14303 48.26784,-54.78906c22.23432,-5.63578 45.5156,0.74444 66.57939,19.48872c2.92925,2.60669 11.31325,20.69247 9.65583,22.25706c-2.47813,2.33934 -56.23953,3.13367 -64.09681,5.12527c-8.17988,2.07338 -52.80579,24.92887 -56.46926,25.17148c-2.63794,0.1747 -5.46088,-13.22538 -3.937,-17.25348z" fill="url(#color-8)" fill-rule="nonzero" stroke="#000000" stroke-width="1"/><path d="M317.4909,80.3641c2.24574,8.85988 -3.92641,18.06814 -13.78585,20.56723c-9.85945,2.49909 -19.67264,-2.65732 -21.91837,-11.5172c-2.24574,-8.85988 3.92641,-18.06814 13.78585,-20.56723c9.85945,-2.49909 19.67264,2.65732 21.91837,11.5172z" fill="url(#color-9)" fill-rule="nonzero" stroke="none" stroke-width="0"/><path d="M260.94163,131.18958l0.58781,-9.21256c0,0 7.3334,-5.18454 7.9219,-5.52424c4.39169,-2.53512 22.89815,-14.27427 33.97471,-17.08187c10.69799,-2.71164 32.91852,-1.627 38.83766,-1.50369c0.98601,0.02054 8.5592,2.72908 8.5592,2.72908l3.93597,8.11501c0,0 -9.18779,-0.76476 -9.96229,-0.56614c-1.82933,0.46915 -5.88133,0.50308 -11.12457,0.65868c-7.58989,0.22525 -16.07659,7.6934 -25.53015,10.11789c-9.63407,2.47077 -20.2865,-0.32661 -26.60155,2.81821c-4.35388,2.16817 -7.40628,3.83929 -8.45025,4.10703c-0.70503,0.18081 -12.14844,5.34261 -12.14844,5.34261z" fill="#141d18" fill-rule="nonzero" stroke="#000000" stroke-width="0"/><path d="M282.01757,150.09363c-2.63635,-12.6972 -8.49832,-52.3461 -1.31679,-53.83722c7.18153,-1.49112 24.68706,35.74021 27.32342,48.43739c2.63635,12.6972 -1.04823,24.1991 -8.22977,25.69022c-7.18153,1.49112 -15.14049,-7.5932 -17.77686,-20.29039z" fill="url(#color-10)" fill-rule="nonzero" stroke="#000000" stroke-width="2"/><path d="M311.5157,91.26115l-17.86725,3.78497l-5.28163,-19.20609l5.32446,-1.29693l3.09032,13.13256l12.77529,-2.99981z" data-paper-data="{&quot;index&quot;:null}" fill="url(#color-11)" fill-rule="evenodd" stroke="none" stroke-width="1"/><g fill-rule="nonzero" stroke-width="0"><path d="M336.75027,186.55795l-25.28964,6.10834z" fill="url(#color-12)" stroke="#000000"/><path d="M333.46706,236.96896c-9.05827,2.11895 -14.66086,-2.16047 -18.93468,-9.33592c-6.59786,-11.07735 -9.65805,-27.81406 -15.86096,-33.48721c-4.18756,-3.82993 49.89786,-13.04898 49.89786,-13.04898c0,0 7.79495,27.64863 3.421,45.58913c-1.87654,7.69694 -11.39114,8.6146 -18.52322,10.28297z" fill="url(#color-13)" stroke="#000000"/><path d="M319.37115,231.563c0,0 -5.3053,-5.66167 -8.45903,-13.75829c-2.25694,-5.7943 -2.53079,-14.4718 -3.02499,-15.68392c-1.13313,-2.77925 -3.95943,-7.87631 -3.95943,-7.87631l40.47324,-9.61256c0,0 2.85869,7.1262 3.3971,10.06461c0.29154,1.59107 3.59491,9.33121 4.05438,16.42163c0.48127,7.42691 -1.88759,14.18015 -1.88759,14.18015z" fill="#000000" stroke="none"/><g stroke="none"><g><path d="M343.07997,187.69611c0,0 -1.62177,-4.02715 0.25705,-4.47338c1.87881,-0.44623 2.59735,3.79545 2.59735,3.79545z" fill="url(#color-14)"/><path d="M341.09445,188.59815c0,0 -1.93822,-4.81295 0.3072,-5.34625c2.24541,-0.53329 3.10415,4.53604 3.10415,4.53604z" fill="url(#color-15)"/><path d="M338.29306,189.58635c0,0 -2.17554,-5.40229 0.34481,-6.00088c2.52036,-0.59859 3.48426,5.09146 3.48426,5.09146z" fill="url(#color-16)"/><path d="M334.40587,191.04766c0,0 -2.57109,-6.38452 0.40751,-7.09195c2.9786,-0.70743 4.11775,6.01718 4.11775,6.01718z" fill="url(#color-17)"/><path d="M325.1476,193.99987c0,0 -3.04576,-7.5632 0.48274,-8.40124c3.52851,-0.83804 4.87795,7.12805 4.87795,7.12805z" fill="url(#color-18)"/><path d="M329.96337,192.53325c0,0 -2.88754,-7.17031 0.45767,-7.96481c3.3452,-0.7945 4.62455,6.75776 4.62455,6.75776z" fill="url(#color-19)"/></g><g data-paper-data="{&quot;index&quot;:null}"><path d="M303.43962,197.00322c0,0 -1.7407,-3.99891 0.13811,-4.44513c1.87882,-0.44623 2.71629,3.7672 2.71629,3.7672z" fill="url(#color-20)"/><path d="M305.10812,197.03744c0,0 -2.08035,-4.77919 0.16505,-5.31249c2.24542,-0.5333 3.2463,4.50228 3.2463,4.50228z" fill="url(#color-21)"/><path d="M307.67174,196.75143c0,0 -2.33509,-5.3644 0.18527,-5.96299c2.52036,-0.59859 3.6438,5.05357 3.6438,5.05357z" fill="url(#color-22)"/><path d="M311.16264,196.46039c0,0 -2.75965,-6.33974 0.21895,-7.04717c2.9786,-0.70743 4.30631,5.9724 4.30631,5.9724z" fill="url(#color-23)"/><path d="M320.00535,195.11355c0,0 -3.26912,-7.51015 0.25937,-8.34819c3.52851,-0.83804 5.10132,7.075 5.10132,7.075z" fill="url(#color-24)"/><path d="M315.28811,195.91107c0,0 -3.0993,-7.12001 0.2459,-7.91451c3.3452,-0.7945 4.83632,6.70747 4.83632,6.70747z" fill="url(#color-25)"/></g></g><g stroke="none"><g><path d="M352.05982,214.87063c0,0 1.56261,3.58977 -0.12397,3.99035c-1.68659,0.40057 -2.43837,-3.38178 -2.43837,-3.38178z" fill="url(#color-26)"/><path d="M350.82455,215.71952c0,0 1.86751,4.29022 -0.14817,4.76895c-2.01568,0.47873 -2.91416,-4.04164 -2.91416,-4.04164z" fill="url(#color-27)"/><path d="M348.70495,216.58522c0,0 2.09618,4.81555 -0.16631,5.3529c-2.26249,0.53735 -3.27099,-4.53653 -3.27099,-4.53653z" fill="url(#color-28)"/><path d="M345.75292,217.45539c0,0 2.47731,5.69111 -0.19655,6.32616c-2.67385,0.63505 -3.86573,-5.36135 -3.86573,-5.36135z" fill="url(#color-29)"/><path d="M338.17838,219.88233c0,0 2.93465,6.74178 -0.23284,7.49407c-3.16749,0.75229 -4.57938,-6.35115 -4.57938,-6.35115z" fill="url(#color-30)"/><path d="M342.25144,218.62512c0,0 2.78221,6.39155 -0.22074,7.10476c-3.00295,0.71321 -4.3415,-6.02121 -4.3415,-6.02121z" fill="url(#color-31)"/></g><g data-paper-data="{&quot;index&quot;:null}"><path d="M316.35278,223.3512c0,0 1.45585,3.61513 -0.23074,4.0157c-1.68659,0.40057 -2.33161,-3.40714 -2.33161,-3.40714z" fill="url(#color-32)"/><path d="M318.39765,223.42104c0,0 1.7399,4.32053 -0.27577,4.79926c-2.01568,0.47873 -2.78656,-4.07194 -2.78656,-4.07194z" fill="url(#color-33)"/><path d="M321.09415,223.1429c0,0 1.95296,4.84957 -0.30953,5.38692c-2.26249,0.53735 -3.12777,-4.57055 -3.12777,-4.57055z" fill="url(#color-34)"/><path d="M324.76537,222.44002c0,0 2.30804,5.73131 -0.36582,6.36636c-2.67385,0.63505 -3.69645,-5.40156 -3.69645,-5.40156z" fill="url(#color-35)"/><path d="M333.43985,221.00775c0,0 2.73415,6.7894 -0.43334,7.54169c-3.16749,0.75229 -4.37889,-6.39877 -4.37889,-6.39877z" fill="url(#color-36)"/><path d="M328.95526,221.78302c0,0 2.59211,6.4367 -0.41084,7.14991c-3.00295,0.71321 -4.1514,-6.06636 -4.1514,-6.06636z" fill="url(#color-37)"/></g></g></g><path d="M287.10853,155.50141c-3.18626,-12.57047 -10.87116,-65.05379 -3.7613,-66.85593c7.10986,-1.80216 26.32211,47.75929 29.50838,60.32976c3.18626,12.57047 0.00557,24.22179 -7.10429,26.02394c-7.10986,1.80216 -15.45652,-6.9273 -18.64278,-19.49777z" fill="url(#color-38)" fill-rule="nonzero" stroke="#000000" stroke-width="2"/><path d="M325.47558,178.15492c0,0 -18.95628,27.58936 -35.08164,24.6187c-16.12535,-2.97064 -23.65999,-35.44022 -23.65999,-35.44022c0,0 17.63536,11.24091 27.43161,13.04559c9.78428,1.80249 31.31002,-2.22407 31.31002,-2.22407z" fill="#000000" fill-rule="nonzero" stroke="none" stroke-width="0"/><path d="M351.73119,165.69786c7.65231,-6.17128 17.67101,-24.21607 17.67101,-24.21607c0,0 8.72594,31.71759 -3.87034,41.876c-12.59628,10.1584 -42.01553,-4.87085 -42.01553,-4.87085c0,0 20.5719,-6.62533 28.21485,-12.78908z" data-paper-data="{&quot;index&quot;:null}" fill="#000000" fill-rule="nonzero" stroke="none" stroke-width="0"/><path d="M311.39698,185.69019c-5.23382,-8.28014 2.66838,-27.91124 2.66838,-27.91124c0,0 2.92217,-0.34645 4.36204,-0.66132c1.52064,-0.33253 4.26271,-1.44457 4.26271,-1.44457c0,0 15.16792,16.31794 14.81382,23.17049c-0.83649,16.18787 -20.87314,15.12679 -26.10695,6.84664z" fill="url(#color-39)" fill-rule="nonzero" stroke="#000000" stroke-width="2"/><path d="M314.75351,158.75462l0.01696,-5.08836l5.34824,-1.1493l2.2781,4.41668c0,0 -2.55608,1.46918 -3.94339,1.77358c-1.29992,0.28522 -3.6999,0.04739 -3.6999,0.04739z" fill="#907b72" fill-rule="nonzero" stroke="#000000" stroke-width="0"/></g></g></svg>