<svg version="1.1" xmlns="http://www.w3.org/2000/svg" xmlns:xlink="http://www.w3.org/1999/xlink" width="130.38079" height="267.22501" viewBox="0,0,130.38079,267.22501"><defs><linearGradient x1="240.00003" y1="175.50001" x2="240.00003" y2="307.50001" gradientUnits="userSpaceOnUse" id="color-1"><stop offset="0" stop-color="#1a110e"/><stop offset="1" stop-color="#5d3d27"/></linearGradient><radialGradient cx="269.32203" cy="139.97184" r="17.5665" gradientUnits="userSpaceOnUse" id="color-2"><stop offset="0" stop-color="#808080"/><stop offset="1" stop-color="#404040"/></radialGradient><radialGradient cx="214.49223" cy="139.67385" r="17.5665" gradientUnits="userSpaceOnUse" id="color-3"><stop offset="0" stop-color="#808080"/><stop offset="1" stop-color="#404040"/></radialGradient><linearGradient x1="208.49203" y1="76.38374" x2="208.49203" y2="196.9804" gradientUnits="userSpaceOnUse" id="color-4"><stop offset="0" stop-color="#19110c"/><stop offset="1" stop-color="#714a2f"/></linearGradient><radialGradient cx="238.3503" cy="145.48235" r="5.37691" gradientUnits="userSpaceOnUse" id="color-5"><stop offset="0" stop-color="#ffe902"/><stop offset="1" stop-color="#6a6101"/></radialGradient></defs><g transform="translate(-174.61032,-46.38751)"><g data-paper-data="{&quot;isPaintingLayer&quot;:true}" fill-rule="nonzero" stroke-linejoin="miter" stroke-miterlimit="10" stroke-dasharray="" stroke-dashoffset="0" style="mix-blend-mode: normal"><path d="M179.28373,313.61252v-267.22501h123.18203v267.22501z" fill-opacity="0.01" fill="#000000" stroke="none" stroke-width="0" stroke-linecap="butt"/><path d="M206.75004,307.5l15.14285,-131.8421l37.78325,-0.15789l13.57389,132z" fill="url(#color-1)" stroke="#000000" stroke-width="0" stroke-linecap="butt"/><path d="M175.75385,136.68207c0,-33.30185 28.93074,-60.29833 64.61863,-60.29833c35.68788,0 64.61863,26.99648 64.61863,60.29833c0,33.30185 -28.93074,60.29833 -64.61863,60.29833c-35.68788,0 -64.61863,-26.99648 -64.61863,-60.29833z" fill="#000000" stroke="none" stroke-width="NaN" stroke-linecap="butt"/><g stroke-width="0" stroke-linecap="butt"><g><path d="M251.75554,139.97184c0,0 7.86478,-10.97906 17.56649,-10.97906c9.70171,0 17.5665,10.97906 17.5665,10.97906c0,0 -7.86479,10.97906 -17.5665,10.97906c-9.70171,0 -17.56649,-10.97906 -17.56649,-10.97906z" fill="url(#color-2)" stroke="#000000"/><g stroke="none"><path d="M260.1186,140.10528c0,-5.06645 4.10717,-9.17361 9.17361,-9.17361c5.06645,0 9.17361,4.10716 9.17361,9.17361c0,5.06645 -4.10717,9.17362 -9.17361,9.17362c-5.06645,0 -9.17361,-4.10717 -9.17361,-9.17362z" fill="#000000"/><path d="M264.98774,136.66868c0,0.76446 -0.17514,1.38417 -0.39118,1.38417c-0.21604,0 -0.39118,-0.61971 -0.39118,-1.38417c0,-0.76446 0.17514,-1.38417 0.39118,-1.38417c0.21604,0 0.39118,0.61971 0.39118,1.38417z" fill="#808080"/><path d="M267.83872,136.78579c0,1.04672 -0.2398,1.89526 -0.53562,1.89526c-0.29581,0 -0.53562,-0.84854 -0.53562,-1.89526c0,-1.04672 0.2398,-1.89525 0.53562,-1.89525c0.29581,0 0.53562,0.84853 0.53562,1.89525z" fill="#808080"/><path d="M274.40859,136.55158c0,0.76446 -0.17513,1.38417 -0.39117,1.38417c-0.21604,0 -0.39118,-0.61971 -0.39118,-1.38417c0,-0.76446 0.17514,-1.38418 0.39118,-1.38418c0.21604,0 0.39117,0.61972 0.39117,1.38418z" fill="#808080"/></g></g><g><path d="M196.92573,139.67385c0,0 7.86479,-10.97906 17.5665,-10.97906c9.70171,0 17.5665,10.97906 17.5665,10.97906c0,0 -7.86479,10.97906 -17.5665,10.97906c-9.70171,0 -17.5665,-10.97906 -17.5665,-10.97906z" fill="url(#color-3)" stroke="#000000"/><g stroke="none"><path d="M205.28879,139.80729c0,-5.06645 4.10716,-9.17361 9.17361,-9.17361c5.06645,0 9.17362,4.10716 9.17362,9.17361c0,5.06645 -4.10717,9.17362 -9.17362,9.17362c-5.06645,0 -9.17361,-4.10717 -9.17361,-9.17362z" fill="#000000"/><path d="M210.15794,136.37069c0,0.76446 -0.17514,1.38417 -0.39118,1.38417c-0.21604,0 -0.39118,-0.61971 -0.39118,-1.38417c0,-0.76446 0.17514,-1.38417 0.39118,-1.38417c0.21604,0 0.39118,0.61971 0.39118,1.38417z" fill="#808080"/><path d="M213.00892,136.4878c0,1.04672 -0.23981,1.89526 -0.53562,1.89526c-0.29581,0 -0.53562,-0.84854 -0.53562,-1.89526c0,-1.04672 0.23981,-1.89525 0.53562,-1.89525c0.29581,0 0.53562,0.84853 0.53562,1.89525z" fill="#808080"/><path d="M219.57879,136.25358c0,0.76446 -0.17514,1.38417 -0.39118,1.38417c-0.21604,0 -0.39118,-0.61971 -0.39118,-1.38417c0,-0.76446 0.17514,-1.38417 0.39118,-1.38417c0.21604,0 0.39118,0.61971 0.39118,1.38417z" fill="#808080"/></g></g></g><g><g><path d="M175.3653,136.68207c0,-33.30185 14.83135,-60.29833 33.12674,-60.29833c18.29539,0 33.12674,26.99649 33.12674,60.29833c0,33.30185 -14.83135,60.29833 -33.12674,60.29833c-18.29539,0 -33.12674,-26.99649 -33.12674,-60.29833z" fill="url(#color-4)" stroke="#000000" stroke-width="0" stroke-linecap="butt"/><path d="M189.44556,110.81647c0,0 2.48446,-1.20107 5.14331,-2.11173c3.61679,-1.23878 5.55405,-0.11664 5.55405,-0.11664l1.49763,57.19493c0,0 -2.61826,1.48559 -4.065,1.48559c-1.86772,0 -6.41842,-1.48559 -6.41842,-1.48559z" fill="none" stroke="#36251c" stroke-width="2.5" stroke-linecap="round"/><path d="M223.24346,107.53415c2.86059,0.46823 3.64289,1.42535 3.64289,1.42535l-0.4279,55.33794c0,0 -3.38091,0.7428 -4.92079,0.7428c-1.36225,0 -3.85105,-0.7428 -3.85105,-0.7428l1.49763,-57.19492c0,0 2.14244,0.11788 4.05922,0.43162z" fill="none" stroke="#36251c" stroke-width="2.5" stroke-linecap="round"/><path d="M179.04852,118.57433l0.27575,-2.49537" fill="none" stroke="#000000" stroke-width="1.5" stroke-linecap="round"/><path d="M179.32428,117.50489l1.47069,2.85185" fill="none" stroke="#000000" stroke-width="1.5" stroke-linecap="round"/><path d="M177.85359,123.92156l1.19494,-0.17825l0.73535,1.06945" fill="none" stroke="#000000" stroke-width="1.5" stroke-linecap="round"/><path d="M176.10715,132.47712l1.28685,-1.96065l-0.27575,2.67361l0.55151,0.17824v2.49537l1.0111,0.35648" fill="none" stroke="#000000" stroke-width="1.5" stroke-linecap="round"/><path d="M176.10715,138.89379l0.73535,-0.53472l0.82726,2.13889" fill="none" stroke="#000000" stroke-width="1.5" stroke-linecap="round"/><path d="M176.65866,147.80584l-0.18384,2.31713l-0.64342,0.35648" fill="none" stroke="#000000" stroke-width="1.5" stroke-linecap="round"/><path d="M176.65866,154.579l0.82726,-0.53473l0.55151,1.42593" fill="none" stroke="#000000" stroke-width="1.5" stroke-linecap="round"/><path d="M180.97881,164.91698l-0.64343,-1.06945l-1.93028,-0.53473l0.91918,-1.60416l0.36767,-1.78241l0.09192,-2.49537v-1.96065l1.37877,-2.67362" fill="none" stroke="#000000" stroke-width="1.5" stroke-linecap="round"/><path d="M179.69195,164.38224l-0.45959,1.78241" fill="none" stroke="#000000" stroke-width="1.5" stroke-linecap="round"/><path d="M232.96072,148.12105c0,-5.7584 2.40732,-10.42652 5.37691,-10.42652c2.96959,0 5.37691,4.66811 5.37691,10.42652c0,5.7584 -2.40732,10.42652 -5.37691,10.42652c-2.96959,0 -5.37691,-4.66811 -5.37691,-10.42652z" fill="url(#color-5)" stroke="#f6c002" stroke-width="0" stroke-linecap="butt"/><path d="M178.55077,158.08768c0,0 0.65736,3.07549 1.0636,4.40033c0.33455,1.09105 1.20076,2.98433 1.20076,2.98433l-1.6468,1.79627c0,0 -0.84222,-2.53986 -1.1405,-3.76467c-0.28431,-1.16746 -0.60924,-3.4204 -0.60924,-3.4204z" fill="#b4b3b4" stroke="#b6b4b2" stroke-width="0.5" stroke-linecap="round"/><path d="M176.1835,154.29556c0,0 -0.54499,-2.6996 -0.70177,-4.01709c-0.15183,-1.27578 -0.22455,-3.76675 -0.22455,-3.76675l1.79376,-0.5422c0,0 -0.0522,2.66703 0.06208,3.97255c0.11111,1.26922 0.61436,3.75473 0.61436,3.75473l-1.54388,0.59875z" fill="#b4b3b4" stroke="#b6b4b2" stroke-width="0.5" stroke-linecap="round"/><path d="M176.70448,129.54695c0,0 -0.22379,2.99796 -0.2419,4.43757c-0.01592,1.26557 0.13897,3.74544 0.13897,3.74544h-1.64681c0,0 -0.1023,-0.161 -0.09442,-4.40509c0.00531,-2.85922 0.19735,-3.57833 0.19735,-3.57833z" fill="#b4b3b4" stroke="#b6b4b2" stroke-width="0.5" stroke-linecap="round"/><path d="M205.78142,82.95107c0.57432,-0.48163 1.63557,-2.51212 2.27282,-2.56044c0.8238,-0.72933 1.77633,-2.06343 2.4582,-2.87118c0.05251,-0.10183 0.09904,-0.21545 0.14123,-0.33465c0.00898,-0.19097 0.11196,-0.19097 0.11196,-0.19097c0.53919,0 1.76135,-0.10645 2.08533,0.92166c0.0084,0.01718 0.01437,0.03543 0.01849,0.05391l0.03677,0.05722c0,0 0.07961,0.15436 0,0.30873c-0.03851,0.07467 -0.07702,0.0771 -0.10652,0.0597c-0.46329,1.58845 -1.16135,1.96929 -1.98372,2.76663c-0.60552,0.56063 -2.53011,1.20988 -2.84946,2.39179c-0.92086,0.66675 -1.79787,2.44847 -2.63437,2.59662c-0.17444,-0.01028 -0.30088,0.18536 -0.4194,0.41924c0.31344,0.73297 1.7882,1.08185 2.23056,1.08185c0.94029,0.03642 2.44552,0.3223 3.29069,1.10658c1.10644,0.7126 2.50405,0.1897 3.54265,1.20028c0.70107,-0.01682 3.07205,0.4407 3.0845,2.15017c-0.01658,1.61001 -2.2224,2.1635 -2.84252,2.15318c-0.32608,0.21077 -0.80075,0.22897 -1.16266,0.24133c-0.02095,0.08264 -0.06885,0.1136 -0.06885,0.1136c-0.85316,0.54872 -1.77401,1.30838 -2.57035,2.06417c-0.73928,0 -1.51897,1.45438 -2.16866,2.04802c-0.18525,0.16927 -0.21457,0.69016 -0.47689,0.58094c-0.05192,0.30205 -0.95986,1.73537 -0.48586,2.09066l0.05125,0.18341c0.77778,0.08628 1.60671,1.10854 2.34044,1.58044c1.14829,0.74563 2.07214,1.41428 3.30032,1.44791c0.2176,0.21098 0.51648,0.04917 0.64023,0.61334c0.24243,1.10529 -0.40344,1.08281 -0.4286,1.77903c-0.03632,1.00496 0.37381,1.9211 -0.4077,2.57649c-0.40467,1.56941 -1.10427,2.85446 -1.54026,4.5453c-0.46958,1.82116 -0.6938,3.7019 -1.12417,5.44978c-0.12062,0.43839 -0.18948,1.40185 -0.06246,1.86355l0.00725,0.13336c0.29756,1.17437 0.50157,4.06818 0.50427,4.80852c0,1.11518 0.4584,3.61807 -0.03297,4.51418c-0.28154,0.51345 -0.54314,0.28985 -0.74945,1.08996c-0.99978,1.00291 -1.7429,-0.7838 -2.76512,-0.7838c-0.08463,0 -0.16925,0 -0.25387,0c0.19719,0.28072 0.45447,0.92296 0.65326,1.27104c0.09232,-0.07052 0.13848,0.10851 0.13848,0.10851c0.00479,0.03526 0.01071,0.07018 0.01769,0.1048c0.02576,0.02008 0.04894,0.02668 0.06897,0.01674l0.14206,0.18505c0,0 0.07961,0.15436 0,0.30873c-0.00504,0.00977 -0.01008,0.01832 -0.0151,0.02573c0.46251,0.88673 1.48937,1.62882 1.76381,2.69319c0.79543,0.66707 1.71622,2.61915 1.71622,4.44324c-0.63141,2.36684 -2.33158,0.12492 -2.68732,-1.47017c-0.05768,-0.05592 -0.09797,-0.11361 -0.12935,-0.17972c0.19023,1.16457 0.82116,2.14385 0.82116,3.77964c0,0.72335 0.3883,1.97284 0.233,2.53689c-0.51596,1.87393 -1.26659,-1.1528 -1.39195,-1.63899c-0.01162,-1.92016 -1.08498,-3.17054 -1.06171,-5.42899c0.16503,-0.67022 0.5186,-1.01961 0.43718,-1.83738c-0.10966,-1.10137 -1.00891,-1.45558 -1.1987,-2.40769c-0.68526,0 -1.91536,-3.66714 -1.56135,-4.85233c1.12215,-0.19873 2.24158,-0.27481 3.36924,-0.27481c0.2741,0 0.5482,0 0.8223,0c-0.00524,-0.10042 0.03491,-0.17828 0.03491,-0.17828l0.02948,0.03326c0,-1.25143 0,-2.50286 0,-3.75429c0,-2.1267 0.32778,-4.40528 0.31372,-6.4536c0.36543,-2.15649 0.22909,-4.42275 0.75988,-6.48129c0.15085,-0.54825 1.15864,-3.84459 0.60594,-3.80222c-0.00356,0.00054 -0.00562,0.00055 -0.00562,0.00055c-0.61778,0 -0.82662,-0.64802 -1.33739,-0.85359c-0.39084,-0.1573 -0.63669,0.48443 -1.00998,0.48443c-0.09543,0.04062 0.19515,1.99729 0.14615,2.38092c-0.13046,1.02149 -0.52578,2.40828 -0.49963,3.39097c-0.28231,1.14655 0.0087,2.9337 -0.39296,3.95289c-0.36595,0.92857 -0.812,1.11033 -1.07525,0.04361c-0.01483,-2.03566 0.33026,-4.58571 0.75832,-6.3242c0.55008,-2.13335 -0.28764,-3.69281 0.69636,-5.6009c0.0306,-0.12231 -2.06848,-1.67774 -2.52846,-1.98767c-0.37957,-0.72372 -1.13376,-2.06518 -0.78603,-3.32812c0.14228,-0.51676 0.86544,-0.67818 1.10714,-0.92823c0.94577,-0.91698 1.42132,-2.00741 2.35777,-2.88839c0.29883,-0.57947 1.00354,-1.26899 1.41819,-1.36267c0.66661,-0.5765 1.39779,-1.00381 2.0947,-1.68314c0.20972,-0.20251 0.35745,-0.5258 0.56209,-0.72664c0.00442,-0.00434 0.00926,-0.00912 0.01446,-0.01427c-0.2395,0.03857 -0.56924,-0.02968 -0.66357,-0.06159c-0.43886,-0.14849 -0.87827,-0.84857 -1.32493,-0.84857c-1.05657,-0.98561 -2.30162,-0.53107 -3.31005,-1.57438c-1.00682,0.01694 -1.94631,-1.55187 -2.93533,-1.57438c-1.53353,-1.41984 -0.28459,-3.24677 0.60006,-4.16202c0.39647,-0.38441 0.80096,-0.68306 1.19736,-1.0447c-0.04711,-0.19164 0.05171,-0.28746 0.05171,-0.28746z" fill="#000000" stroke="none" stroke-width="0.5" stroke-linecap="butt"/><path d="M175.68156,122.56146c0,0 0.42601,-4.90945 1.44096,-7.18508c1.01495,-2.27563 1.02868,-0.58001 1.85265,-0.19958c0.82397,0.38043 0.43248,0.52018 0.30878,1.19751c-0.12371,0.67733 -2.05851,8.38259 -2.05851,8.38259z" fill="#b4b3b4" stroke="#b6b4b2" stroke-width="0.5" stroke-linecap="round"/><path d="M214.90019,76.64391c0.00927,-0.02958 0.01793,-0.05879 0.02588,-0.08754c-0.00022,0.02678 -0.00945,0.05617 -0.02588,0.08754z" fill-opacity="0.43044" fill="#9966ff" stroke="none" stroke-width="0.5" stroke-linecap="butt"/></g><path d="M182.35307,136.77821c0,-12.968 5.42133,-23.48065 12.10886,-23.48065c6.68754,0 12.10886,10.51265 12.10886,23.48065c0,12.968 -5.42133,23.48065 -12.10886,23.48065c-6.68754,0 -12.10886,-10.51265 -12.10886,-23.48065z" fill="#b6b6b6" stroke="#000000" stroke-width="0" stroke-linecap="butt"/><path d="M222.44277,160.25885c-6.68754,0 -12.10886,-10.51265 -12.10886,-23.48065c0,-12.968 5.42133,-23.48065 12.10886,-23.48065c6.68754,0 12.10886,10.51265 12.10886,23.48065c0,12.968 -5.42133,23.48065 -12.10886,23.48065z" data-paper-data="{&quot;index&quot;:null}" fill="#b6b6b6" stroke="#000000" stroke-width="0" stroke-linecap="butt"/><path d="M191.20398,136.77821c0,-3.48911 1.45863,-6.3176 3.25796,-6.3176c1.79932,0 3.25796,2.82849 3.25796,6.3176c0,3.48911 -1.45864,6.3176 -3.25796,6.3176c-1.79932,0 -3.25796,-2.82849 -3.25796,-6.3176z" fill="none" stroke="#ffffff" stroke-width="2" stroke-linecap="butt"/><path d="M222.44277,143.0958c-1.79932,0 -3.25796,-2.82849 -3.25796,-6.3176c0,-3.48911 1.45864,-6.3176 3.25796,-6.3176c1.79932,0 3.25796,2.82849 3.25796,6.3176c0,3.48911 -1.45864,6.3176 -3.25796,6.3176z" data-paper-data="{&quot;index&quot;:null}" fill="none" stroke="#ffffff" stroke-width="2" stroke-linecap="butt"/><path d="M202.64546,190.13747c0,0 4.8254,-3.293 7.19718,-3.60938c3.85165,-0.51379 6.08038,0.72188 6.08038,0.72188l-0.49636,6.25626c0,0 -3.65477,-0.91499 -6.08038,-0.9625c-2.4256,-0.0475 -6.20447,0.72188 -6.20447,0.72188z" fill="#000000" stroke="#000000" stroke-width="1.5" stroke-linecap="round"/><path d="M188.49927,160.7812l-1.11681,-1.20313" fill="none" stroke="#ffffff" stroke-width="2" stroke-linecap="round"/></g></g></g></svg>