<svg version="1.1" xmlns="http://www.w3.org/2000/svg" xmlns:xlink="http://www.w3.org/1999/xlink" width="211.47149" height="263.0134" viewBox="0,0,211.47149,263.0134"><defs><linearGradient x1="239.62567" y1="186.70345" x2="239.62567" y2="303.61003" gradientUnits="userSpaceOnUse" id="color-1"><stop offset="0" stop-color="#000000"/><stop offset="1" stop-color="#0f175d"/></linearGradient><linearGradient x1="239.73111" y1="203.9109" x2="239.73111" y2="289.89504" gradientUnits="userSpaceOnUse" id="color-2"><stop offset="0" stop-color="#000000"/><stop offset="1" stop-color="#e6caad"/></linearGradient><radialGradient cx="238.42693" cy="236.17769" r="8.50413" gradientUnits="userSpaceOnUse" id="color-3"><stop offset="0" stop-color="#5f0000"/><stop offset="1" stop-color="#5f0000" stop-opacity="0"/></radialGradient><radialGradient cx="240.00107" cy="223.00461" r="17.22688" gradientUnits="userSpaceOnUse" id="color-4"><stop offset="0" stop-color="#5f0000"/><stop offset="1" stop-color="#5f0000" stop-opacity="0"/></radialGradient><radialGradient cx="247.17123" cy="237.51168" r="20.39802" gradientUnits="userSpaceOnUse" id="color-5"><stop offset="0" stop-color="#5f0000"/><stop offset="1" stop-color="#5f0000" stop-opacity="0"/></radialGradient><radialGradient cx="240.83481" cy="255.52045" r="20.39802" gradientUnits="userSpaceOnUse" id="color-6"><stop offset="0" stop-color="#5f0000"/><stop offset="1" stop-color="#5f0000" stop-opacity="0"/></radialGradient><radialGradient cx="246.96988" cy="234.60836" r="8.50414" gradientUnits="userSpaceOnUse" id="color-7"><stop offset="0" stop-color="#5f0000"/><stop offset="1" stop-color="#5f0000" stop-opacity="0"/></radialGradient><radialGradient cx="239.06386" cy="230.64139" r="20.39802" gradientUnits="userSpaceOnUse" id="color-8"><stop offset="0" stop-color="#5f0000"/><stop offset="1" stop-color="#5f0000" stop-opacity="0"/></radialGradient><radialGradient cx="233.82239" cy="248.99877" r="20.39802" gradientUnits="userSpaceOnUse" id="color-9"><stop offset="0" stop-color="#5f0000"/><stop offset="1" stop-color="#5f0000" stop-opacity="0"/></radialGradient><linearGradient x1="259.44835" y1="190.08966" x2="259.44835" y2="305.25903" gradientUnits="userSpaceOnUse" id="color-10"><stop offset="0" stop-color="#000000"/><stop offset="1" stop-color="#6b6d91"/></linearGradient><linearGradient x1="260.12655" y1="238.07409" x2="260.12655" y2="251.09349" gradientUnits="userSpaceOnUse" id="color-11"><stop offset="0" stop-color="#000000"/><stop offset="1" stop-color="#919191"/></linearGradient><linearGradient x1="255.06725" y1="193.60392" x2="255.06725" y2="304.33963" gradientUnits="userSpaceOnUse" id="color-12"><stop offset="0" stop-color="#000000"/><stop offset="1" stop-color="#919191"/></linearGradient><linearGradient x1="222.43057" y1="188.03631" x2="222.43057" y2="303.20569" gradientUnits="userSpaceOnUse" id="color-13"><stop offset="0" stop-color="#000000"/><stop offset="1" stop-color="#6b6d91"/></linearGradient><linearGradient x1="221.75238" y1="236.02077" x2="221.75238" y2="249.04018" gradientUnits="userSpaceOnUse" id="color-14"><stop offset="0" stop-color="#000000"/><stop offset="1" stop-color="#919191"/></linearGradient><linearGradient x1="226.20865" y1="193.0582" x2="226.20865" y2="302.28632" gradientUnits="userSpaceOnUse" id="color-15"><stop offset="0" stop-color="#000000"/><stop offset="1" stop-color="#919191"/></linearGradient><linearGradient x1="151.28811" y1="93.84139" x2="217.60567" y2="243.50839" gradientUnits="userSpaceOnUse" id="color-16"><stop offset="0" stop-color="#000000"/><stop offset="1" stop-color="#0f175d"/></linearGradient><linearGradient x1="152.72902" y1="97.83498" x2="197.3721" y2="198.5865" gradientUnits="userSpaceOnUse" id="color-17"><stop offset="0" stop-color="#000000"/><stop offset="1" stop-color="#0f175d"/></linearGradient><linearGradient x1="168.23309" y1="66.22468" x2="205.6926" y2="150.76416" gradientUnits="userSpaceOnUse" id="color-18"><stop offset="0" stop-color="#000000"/><stop offset="1" stop-color="#0f175d"/></linearGradient><linearGradient x1="181.1016" y1="57.81267" x2="185.89942" y2="103.91095" gradientUnits="userSpaceOnUse" id="color-19"><stop offset="0" stop-color="#000000"/><stop offset="1" stop-color="#0f175d"/></linearGradient><linearGradient x1="184.0573" y1="67.83147" x2="187.38912" y2="99.84416" gradientUnits="userSpaceOnUse" id="color-20"><stop offset="0" stop-color="#000000"/><stop offset="1" stop-color="#e6caad"/></linearGradient><linearGradient x1="278.51974" y1="47.69109" x2="283.31756" y2="93.78936" gradientUnits="userSpaceOnUse" id="color-21"><stop offset="0" stop-color="#000000"/><stop offset="1" stop-color="#0f175d"/></linearGradient><linearGradient x1="277.6905" y1="58.10388" x2="281.02232" y2="90.11657" gradientUnits="userSpaceOnUse" id="color-22"><stop offset="0" stop-color="#000000"/><stop offset="1" stop-color="#e6caad"/></linearGradient><linearGradient x1="230.7028" y1="64.17474" x2="243.18684" y2="184.12349" gradientUnits="userSpaceOnUse" id="color-23"><stop offset="0" stop-color="#000000"/><stop offset="1" stop-color="#0f175d"/></linearGradient><linearGradient x1="238.05746" y1="141.27981" x2="242.40526" y2="183.05417" gradientUnits="userSpaceOnUse" id="color-24"><stop offset="0" stop-color="#000000"/><stop offset="1" stop-color="#e6caad"/></linearGradient><radialGradient cx="264.25557" cy="124.21842" r="3.95041" gradientUnits="userSpaceOnUse" id="color-25"><stop offset="0" stop-color="#c71c1b"/><stop offset="1" stop-color="#c71c1b" stop-opacity="0"/></radialGradient><radialGradient cx="264.30807" cy="124.41878" r="1.01373" gradientUnits="userSpaceOnUse" id="color-26"><stop offset="0" stop-color="#ffffff"/><stop offset="1" stop-color="#ffffff" stop-opacity="0"/></radialGradient><radialGradient cx="214.56244" cy="130.35259" r="3.95041" gradientUnits="userSpaceOnUse" id="color-27"><stop offset="0" stop-color="#c71c1b"/><stop offset="1" stop-color="#c71c1b" stop-opacity="0"/></radialGradient><radialGradient cx="214.61495" cy="130.55296" r="1.01373" gradientUnits="userSpaceOnUse" id="color-28"><stop offset="0" stop-color="#ffffff"/><stop offset="1" stop-color="#ffffff" stop-opacity="0"/></radialGradient></defs><g transform="translate(-91.63202,-43.25598)"><g data-paper-data="{&quot;isPaintingLayer&quot;:true}" fill-rule="nonzero" stroke-linejoin="miter" stroke-miterlimit="10" stroke-dasharray="" stroke-dashoffset="0" style="mix-blend-mode: normal"><g stroke-width="2"><path d="M220.72848,186.70345l40.56644,0.22537l11.12198,116.68122h-65.58245z" fill="url(#color-1)" stroke="#000000" stroke-linecap="round"/><path d="M226.69035,206.58181c0,0 8.42256,-2.69554 12.88609,-2.67074c4.82728,0.02681 15.07191,2.82604 15.07191,2.82604c0,0 5.4712,21.43641 6.62611,33.55266c1.36489,14.31922 1.03905,46.86297 1.03905,46.86297c0,0 -15.18032,2.74232 -22.73611,2.74232c-7.51022,0 -22.46271,-2.74232 -22.46271,-2.74232c0,0 0.14621,-30.07298 1.8099,-44.07168c1.51406,-12.73943 7.76572,-36.49925 7.76572,-36.49925z" fill="url(#color-2)" stroke="#000000" stroke-linecap="round"/><g stroke="none" stroke-linecap="butt"><path d="M246.26409,236.17769c0,4.6967 -3.50881,8.50414 -7.83716,8.50414c-4.32834,0 -7.83716,-3.80744 -7.83716,-8.50414c0,-4.6967 3.50881,-8.50414 7.83716,-8.50414c4.32834,0 7.83716,3.80744 7.83716,8.50414z" fill="url(#color-3)"/><path d="M244.76833,207.86154c3.79266,1.19398 4.73283,8.94168 2.09994,17.30497c-2.63288,8.36329 -7.84182,14.17517 -11.63447,12.98119c-3.79266,-1.19398 -4.73283,-8.94169 -2.09995,-17.30498c2.63288,-8.36329 7.84182,-14.17516 11.63448,-12.98117z" fill="url(#color-4)"/><path d="M235.60542,238.33676c-1.37539,-10.29042 2.6878,-19.00189 9.07541,-19.45757c6.3876,-0.45568 12.68078,7.51699 14.05619,17.80741c1.37539,10.29042 -2.6878,19.0019 -9.0754,19.45757c-6.3876,0.45567 -12.68079,-7.51698 -14.05618,-17.80742z" data-paper-data="{&quot;index&quot;:null}" fill="url(#color-5)"/><path d="M243.32519,236.88796c6.3876,0.45567 10.45081,9.16714 9.07541,19.45757c-1.37539,10.29044 -7.66859,18.26308 -14.05618,17.80741c-6.3876,-0.45567 -10.45082,-9.16714 -9.0754,-19.45757c1.37539,-10.29044 7.66858,-18.26308 14.05619,-17.80741z" data-paper-data="{&quot;index&quot;:null}" fill="url(#color-6)"/><path d="M251.88647,227.6695c3.53164,2.5024 4.1934,7.63759 1.47805,11.46982c-2.71535,3.83221 -7.77956,4.91029 -11.31121,2.40789c-3.53164,-2.50239 -4.1934,-7.63761 -1.47805,-11.46982c2.71535,-3.83221 7.77957,-4.91028 11.31121,-2.40789z" data-paper-data="{&quot;index&quot;:null}" fill="url(#color-7)"/><path d="M226.25968,244.40456c-4.94843,-4.06472 -3.22733,-13.52182 3.84421,-21.12301c7.07155,-7.60118 16.81569,-10.46805 21.76414,-6.40333c4.94845,4.06472 3.22735,13.52184 -3.84421,21.12302c-7.07155,7.60119 -16.81571,10.46804 -21.76416,6.40332z" data-paper-data="{&quot;index&quot;:null}" fill="url(#color-8)"/><path d="M243.73639,255.01218c-4.82704,9.19153 -13.17882,13.95047 -18.65415,10.62934c-5.47533,-3.32113 -6.00087,-13.46466 -1.17382,-22.65619c4.82704,-9.19153 13.17882,-13.95045 18.65417,-10.62933c5.47533,3.32111 6.00086,13.46464 1.1738,22.65617z" data-paper-data="{&quot;index&quot;:null}" fill="url(#color-9)"/></g><g data-paper-data="{&quot;index&quot;:null}"><path d="M273.13737,305.09904l-13.79128,0.15999l-13.58676,-114.34165l14.36159,-0.82773l1.04955,8.19084l10.98607,88.31813z" data-paper-data="{&quot;index&quot;:null}" fill="url(#color-10)" stroke="#000000" stroke-linecap="round"/><path d="M253.91491,251.09349l-1.21375,-11.59145l13.63702,-1.42795l1.21376,11.59144z" fill="url(#color-11)" stroke="none" stroke-linecap="butt"/><path d="M260.39186,304.33963l-14.04892,-110.29671l3.39966,-0.43901l14.04894,110.59821z" fill="url(#color-12)" stroke="none" stroke-linecap="butt"/></g><path d="M209.72239,284.54526l10.98608,-88.31812l3.16016,-8.19084l12.25098,0.82773l-13.58679,114.34166l-13.79128,-0.15994z" data-paper-data="{&quot;index&quot;:null}" fill="url(#color-13)" stroke="#000000" stroke-linecap="round"/><path d="M214.327,247.61222l1.21376,-11.59145l13.63701,1.42795l-1.21375,11.59146z" fill="url(#color-14)" stroke="none" stroke-linecap="butt"/><path d="M217.48436,301.84731l14.04894,-108.78911l3.39964,0.43902l-14.04892,108.78911z" fill="url(#color-15)" stroke="none" stroke-linecap="butt"/><path d="M220.06709,223.02872l6.7999,-8.33246" fill="none" stroke="#ff0000" stroke-linecap="round"/><path d="M225.97414,223.44174l-4.05542,-10.1436" fill="none" stroke="#ff0000" stroke-linecap="round"/></g><path d="M174.5992,249.07785c0,0 -31.73138,-47.12413 -35.02502,-79.71667c-1.53517,-15.19143 55.75557,-92.95704 55.75557,-92.95704l46.23293,105.59701c0,0 -36.99856,13.38149 -50.19639,27.19034c-13.50596,14.13124 -16.76711,39.88635 -16.76711,39.88635z" data-paper-data="{&quot;index&quot;:null}" fill="url(#color-16)" stroke="#000000" stroke-width="2" stroke-linecap="butt"/><path d="M121.30046,217.24732c0,0 -6.28113,-55.60544 6.03839,-86.48579c5.74216,-14.39338 98.46822,-61.86005 98.46822,-61.86005l-8.1445,114.49749c0,0 -28.08543,-29.61811 -48.68556,-11.82847c-14.44009,12.47002 -47.67656,45.67682 -47.67656,45.67682z" data-paper-data="{&quot;index&quot;:null}" fill="url(#color-17)" stroke="#000000" stroke-width="2" stroke-linecap="butt"/><path d="M92.63202,133.27852c0,0 30.21467,-40.0382 58.47358,-59.97624c13.17153,-9.29315 124.15483,-5.39289 124.15483,-5.39289l-76.27064,85.50858c0,0 -8.43297,-40.78808 -35.93822,-36.13748c-19.28036,3.25993 -70.41954,15.99802 -70.41954,15.99802z" data-paper-data="{&quot;index&quot;:null}" fill="url(#color-18)" stroke="#000000" stroke-width="2" stroke-linecap="butt"/><g stroke="#000000" stroke-width="2" stroke-linecap="round"><g><path d="M179.49689,104.57732l-21.44442,-44.36573l48.23062,15.6903z" fill="url(#color-19)"/><path d="M182.94292,100.30691l-14.89197,-30.80953l33.49351,10.89606z" fill="url(#color-20)"/></g><g data-paper-data="{&quot;index&quot;:null}"><path d="M257.60298,70.57813l43.96589,-25.28595l-11.84878,47.83082z" fill="url(#color-21)"/><path d="M263.16497,73.99765l30.53186,-17.55969l-8.22831,33.21585z" fill="url(#color-22)"/></g></g><path d="M173.05291,130.79887c-3.44737,-33.12294 22.36337,-62.95157 57.64989,-66.62412c35.28652,-3.67255 66.68655,20.2017 70.13393,53.32463c3.44737,33.12294 -22.36337,62.95157 -57.64989,66.62412c-35.28652,3.67255 -66.68655,-20.2017 -70.13393,-53.32463z" fill="url(#color-23)" stroke="#000000" stroke-width="2" stroke-linecap="butt"/><path d="M295.66192,147.34927c1.20061,11.53567 -24.50903,32.7129 -53.25666,35.7049c-28.74762,2.992 -58.19817,-11.77399 -59.39878,-23.30966c-0.90006,-8.64794 19.29795,-6.18609 37.63684,-11.30234c6.12376,-1.70842 10.21773,-6.41335 17.41415,-7.16234c10.90881,-1.13537 19.46078,2.0168 28.06557,3.44768c14.07115,2.33987 28.79386,-4.53647 29.53888,2.62177z" fill="url(#color-24)" stroke="#000000" stroke-width="2" stroke-linecap="butt"/><path d="M243.36891,142.40269c0.22869,2.19727 -1.36716,4.1639 -3.56443,4.39259c-2.19727,0.22869 -4.1639,-1.36716 -4.39259,-3.56443c-0.22869,-2.19727 1.36716,-4.1639 3.56443,-4.39259c2.19727,-0.22869 4.1639,1.36716 4.39259,3.56443z" fill="#000000" stroke="#000000" stroke-width="2" stroke-linecap="butt"/><g stroke-width="2"><g data-paper-data="{&quot;index&quot;:null}" fill="#000000" stroke="#000000" stroke-linecap="butt"><path d="M242.32684,123.05673c-1.86311,-12.68412 6.80921,-24.4623 19.37017,-26.30731c12.56097,-1.84501 24.25397,6.94185 26.11707,19.62593c1.8631,12.6841 -6.80922,24.46229 -19.37018,26.3073c-12.56097,1.845 -24.25396,-6.94184 -26.11705,-19.62594z"/><path d="M250.78356,121.70066c-1.13052,-7.69667 4.29222,-14.86715 12.11205,-16.01576c7.81982,-1.14861 15.07549,4.15961 16.20601,11.85628c1.13052,7.69664 -4.29219,14.8672 -12.11202,16.0158c-7.81982,1.14861 -15.07551,-4.15964 -16.20603,-11.85632z"/></g><path d="M279.20799,145.36605l-1.58076,-6.17222" data-paper-data="{&quot;index&quot;:null}" fill="none" stroke="#000000" stroke-linecap="round"/><path d="M270.7025,141.48545l1.34773,6.8806" data-paper-data="{&quot;index&quot;:null}" fill="none" stroke="#000000" stroke-linecap="round"/><path d="M255.85585,141.07632l2.75321,16.44931" data-paper-data="{&quot;index&quot;:null}" fill="none" stroke="#000000" stroke-linecap="round"/><path d="M264.73224,149.71952l-0.82391,-5.60925" data-paper-data="{&quot;index&quot;:null}" fill="none" stroke="#000000" stroke-linecap="round"/><g stroke="none" stroke-linecap="butt"><path d="M260.31492,124.49627c-0.15345,-2.17637 1.48643,-4.06503 3.66279,-4.21847c2.17637,-0.15345 4.06503,1.48642 4.21847,3.6628c0.15345,2.17637 -1.48643,4.06504 -3.6628,4.21848c-2.17637,0.15345 -4.06501,-1.48644 -4.21846,-3.66281z" fill="url(#color-25)"/><path d="M265.84571,124.30428c0.06138,0.87054 -0.59457,1.62602 -1.46511,1.6874c-0.87054,0.06138 -1.62604,-0.59458 -1.68741,-1.46513c-0.06138,-0.87054 0.59458,-1.62601 1.46514,-1.68738c0.87054,-0.06138 1.626,0.59457 1.68738,1.46511z" fill="#c71c1b"/><path d="M263.29684,124.49009c-0.03938,-0.55849 0.38145,-1.04314 0.93993,-1.08252c0.55849,-0.03938 1.04313,0.38146 1.08252,0.93993c0.03938,0.55849 -0.38145,1.04313 -0.93993,1.08251c-0.55849,0.03938 -1.04314,-0.38144 -1.08252,-0.93991z" fill="url(#color-26)"/></g></g><g data-paper-data="{&quot;index&quot;:null}" fill="none" stroke="none" stroke-width="1" stroke-linecap="butt" font-family="sans-serif" font-weight="normal" font-size="12" text-anchor="start"><g/><g data-paper-data="{&quot;index&quot;:null}"/></g><g data-paper-data="{&quot;index&quot;:null}" stroke-width="2" stroke-linecap="round"><path d="M279.07449,160.34632l9.07516,-9.32718c0,0 18.30462,20.29279 9.18585,23.29862c-14.6484,4.82858 -90.98215,2.72092 -90.98215,2.72092z" fill="#7d714d" stroke="#000000"/><path d="M287.8574,153.52434l6.81219,17.09819l-17.52213,-7.3638l-3.23878,11.30048l-18.52015,-6.47632l-8.73269,7.76562l-17.12662,-3.2948l-4.50996,3.79999" fill="none" stroke="#4e4528"/></g><g stroke-width="2"><path d="M190.80345,129.55491c-1.86311,-12.68412 6.80923,-24.46231 19.37018,-26.30732c12.56096,-1.84501 24.25396,6.94184 26.11707,19.62592c1.86311,12.68411 -6.80922,24.46228 -19.37019,26.30729c-12.56096,1.84501 -24.25397,-6.94181 -26.11706,-19.62591z" data-paper-data="{&quot;index&quot;:null}" fill="#000000" stroke="#000000" stroke-linecap="butt"/><path d="M200.9696,151.45984l-0.11554,-5.37621" data-paper-data="{&quot;index&quot;:null}" fill="none" stroke="#000000" stroke-linecap="round"/><path d="M207.99934,149.60222l0.12483,7.73438" data-paper-data="{&quot;index&quot;:null}" fill="none" stroke="#000000" stroke-linecap="round"/><path d="M218.39521,149.75924l0.87238,5.9392" data-paper-data="{&quot;index&quot;:null}" fill="none" stroke="#000000" stroke-linecap="round"/><path d="M228.59516,156.70884l-1.19107,-14.99338" data-paper-data="{&quot;index&quot;:null}" fill="none" stroke="#000000" stroke-linecap="round"/><g stroke="none" stroke-linecap="butt"><path d="M210.62179,130.63044c-0.15345,-2.17637 1.48643,-4.06503 3.66279,-4.21847c2.17637,-0.15345 4.06503,1.48642 4.21847,3.6628c0.15345,2.17637 -1.48643,4.06504 -3.6628,4.21848c-2.17637,0.15345 -4.06501,-1.48644 -4.21846,-3.66281z" fill="url(#color-27)"/><path d="M216.15258,130.43845c0.06138,0.87054 -0.59457,1.62602 -1.46511,1.6874c-0.87054,0.06138 -1.62604,-0.59458 -1.68741,-1.46513c-0.06138,-0.87054 0.59458,-1.62601 1.46514,-1.68738c0.87054,-0.06138 1.626,0.59457 1.68738,1.46511z" fill="#c71c1b"/><path d="M213.60372,130.62426c-0.03938,-0.55849 0.38145,-1.04314 0.93993,-1.08252c0.55849,-0.03938 1.04313,0.38146 1.08252,0.93993c0.03938,0.55849 -0.38145,1.04313 -0.93993,1.08251c-0.55849,0.03938 -1.04314,-0.38144 -1.08252,-0.93991z" fill="url(#color-28)"/></g></g></g></g></svg>