<svg version="1.1" xmlns="http://www.w3.org/2000/svg" xmlns:xlink="http://www.w3.org/1999/xlink" width="34.67311" height="34.67311" viewBox="0,0,34.67311,34.67311"><defs><linearGradient x1="239.99998" y1="175.21033" x2="239.99998" y2="184.78962" gradientUnits="userSpaceOnUse" id="color-1"><stop offset="0" stop-color="#1f020d"/><stop offset="1" stop-color="#6b062b"/></linearGradient></defs><g transform="translate(-222.66345,-162.66346)"><g data-paper-data="{&quot;isPaintingLayer&quot;:true}" stroke-miterlimit="10" stroke-dasharray="" stroke-dashoffset="0" style="mix-blend-mode: normal"><path d="M229.98313,162.91347h20.03378c3.9166,0 7.06966,3.15307 7.06966,7.06966v20.03379c0,3.91659 -3.15306,7.06966 -7.06966,7.06966h-20.03378c-3.91659,0 -7.06967,-3.15307 -7.06967,-7.06966v-20.03379c0,-3.91659 3.15308,-7.06966 7.06967,-7.06966z" fill="#000000" fill-rule="evenodd" stroke="#520422" stroke-width="0.5" stroke-linecap="round" stroke-linejoin="round"/><path d="M226.44885,184.78962c0,0 0.73922,-1.81617 1.92582,-3.60808c0.85872,-1.29677 2.02997,-2.58084 2.95014,-3.15468c0.1012,-0.06311 1.40652,-0.99837 1.50686,-1.05389c2.56021,-1.4169 5.60089,-1.74604 7.35895,-1.7624c0.83918,-0.00781 2.87386,0.17389 5.08617,1.00108c1.45985,0.54585 3.02795,1.4655 4.27086,2.46709c2.8084,2.26311 4.00347,6.11088 4.00347,6.11088l-4.76373,-0.28308l-1.15367,-3.82213l-0.04697,3.71046l-4.1212,0.15458l0.28445,-3.44293l-1.51502,3.35084l-10.85485,0.08449l-0.4416,-2.27083l-0.46187,2.30956z" fill="url(#color-1)" fill-rule="nonzero" stroke="#000000" stroke-width="0" stroke-linecap="butt" stroke-linejoin="miter"/></g></g></svg>