<svg version="1.1" xmlns="http://www.w3.org/2000/svg" xmlns:xlink="http://www.w3.org/1999/xlink" width="138.81445" height="251.21037" viewBox="0,0,138.81445,251.21037"><defs><linearGradient x1="319.92305" y1="175.45921" x2="319.92305" y2="307.45912" gradientUnits="userSpaceOnUse" id="color-1"><stop offset="0" stop-color="#4c7b64"/><stop offset="1" stop-color="#2b2b2b"/></linearGradient><linearGradient x1="320.08155" y1="221.49566" x2="320.08155" y2="308.14565" gradientUnits="userSpaceOnUse" id="color-2"><stop offset="0" stop-color="#6b6dd3"/><stop offset="1" stop-color="#000000"/></linearGradient><linearGradient x1="355.96013" y1="194.55739" x2="355.96013" y2="302.11987" gradientUnits="userSpaceOnUse" id="color-3"><stop offset="0" stop-color="#4b7b64"/><stop offset="1" stop-color="#000000"/></linearGradient><linearGradient x1="284.13221" y1="194.46853" x2="284.13221" y2="302.02621" gradientUnits="userSpaceOnUse" id="color-4"><stop offset="0" stop-color="#4b7b64"/><stop offset="1" stop-color="#000000"/></linearGradient></defs><g transform="translate(-250.97468,-57.44146)"><g data-paper-data="{&quot;isPaintingLayer&quot;:true}" stroke-linecap="butt" stroke-linejoin="miter" stroke-miterlimit="10" stroke-dasharray="" stroke-dashoffset="0" style="mix-blend-mode: normal"><path d="M286.67305,307.45912l15.14285,-131.8421l37.78325,-0.15789l13.57389,132z" fill="url(#color-1)" fill-rule="nonzero" stroke="#000000" stroke-width="2"/><path d="M299.53999,204.07185l3.12142,-26.32765l35.83075,-0.14203l2.76735,26.1059c0,0 -7.51543,4.19603 -21.55904,4.50964c-12.48458,0.27879 -20.16049,-4.14586 -20.16049,-4.14586z" fill="#2f4b3d" fill-rule="nonzero" stroke="#000000" stroke-width="0"/><path d="M286.20349,307.39565l9.625,-85.15c0,0 16.14032,5.36651 24.41538,5.23987c8.05433,-0.12327 24.59071,-5.98987 24.59071,-5.98987l9.125,86.65z" fill="url(#color-2)" fill-rule="nonzero" stroke="#000000" stroke-width="1"/><path d="M330.77702,225.84335l-2.72223,-31.57302l7.33053,-1.11111l3.5,30.46191c0,0 1.97994,9.94622 -2.77415,10.47275c-4.71963,0.52271 -5.33415,-8.25053 -5.33415,-8.25053z" data-paper-data="{&quot;index&quot;:null}" fill="#6b6dd3" fill-rule="nonzero" stroke="#000000" stroke-width="1"/><path d="M301.66589,224.12113l3.5,-30.4619l8.21942,0.55556l-2.61111,32.12857c0,0 -1.38805,9.70344 -6.18894,8.77837c-5.22617,-1.00701 -2.91937,-11.0006 -2.91937,-11.0006z" fill="#6b6dd3" fill-rule="nonzero" stroke="#000000" stroke-width="1"/><path d="M338.78521,228.05327c0,1.99603 -1.54283,3.61412 -3.44602,3.61412c-1.90319,0 -3.44603,-1.6181 -3.44603,-3.61412c0,-1.99603 1.54284,-3.61412 3.44603,-3.61412c1.90319,0 3.44602,1.61809 3.44602,3.61412z" fill="#c6a438" fill-rule="nonzero" stroke="none" stroke-width="0"/><path d="M309.37397,228.76995c0,1.99603 -1.54283,3.61412 -3.44602,3.61412c-1.90319,0 -3.44603,-1.6181 -3.44603,-3.61412c0,-1.99603 1.54284,-3.61412 3.44603,-3.61412c1.90319,0 3.44602,1.61809 3.44602,3.61412z" fill="#c6a438" fill-rule="nonzero" stroke="none" stroke-width="0"/><path d="M308.84898,229.41994c0,1.99602 -1.54284,3.61412 -3.44602,3.61412c-1.90319,0 -3.44602,-1.6181 -3.44602,-3.61412c0,-1.99602 1.54284,-3.61412 3.44602,-3.61412c1.90319,0 3.44602,1.6181 3.44602,3.61412z" fill="#edd459" fill-rule="nonzero" stroke="none" stroke-width="0"/><path d="M338.53663,228.70119c0,1.87521 -1.44945,3.39537 -3.23744,3.39537c-1.78799,0 -3.23745,-1.52016 -3.23745,-3.39537c0,-1.87521 1.44946,-3.39537 3.23745,-3.39537c1.78799,0 3.23744,1.52016 3.23744,3.39537z" fill="#edd459" fill-rule="nonzero" stroke="none" stroke-width="0"/><path d="M341.61098,194.55739c0.90641,1.442 13.27591,-0.94411 14.53458,0.88889c0.31862,-0.594 9.30076,33.378 9.72787,35c-0.5926,-0.963 5.60783,49.33333 5.60783,49.33333c0,0 0.50768,22.79733 0.91556,22.33333c-0.88787,-0.49 -11.18842,-0.32367 -12.13122,-0.16667c0.5308,-15.625 -11.71487,-68.29133 -19.1124,-79.33333c2.25366,-15.345 -5.00951,-26.28055 0.45778,-28.05555z" fill="url(#color-3)" fill-rule="evenodd" stroke="none" stroke-width="1"/><path d="M341.52132,194.59509c0.91572,1.34757 13.41232,-0.88229 14.68393,0.83068c0.10385,-0.17908 1.11865,3.00386 2.46032,7.4491c-6.17155,-0.51975 -13.01437,-2.82677 -18.35267,1.21834c-0.00693,0.00525 -0.01384,0.01053 -0.02073,0.01584c-0.98219,-5.21007 -1.76061,-8.6161 1.22914,-9.51396z" fill="#2f4b3d" fill-rule="nonzero" stroke="none" stroke-width="1"/><path d="M387.45587,301.10947c0.01927,0.00566 0.03664,0.01141 0.05206,0.01725c-0.01724,0.01347 -0.0346,0.00734 -0.05206,-0.01725z" fill="#2f4b3d" fill-rule="nonzero" stroke="none" stroke-width="1"/><path d="M298.93917,222.52407c-7.39753,11.042 -19.6432,63.70833 -19.1124,79.33333c-0.9428,-0.157 -11.24335,-0.32333 -12.13122,0.16667c0.40788,0.464 7.11599,-72.62966 6.52339,-71.66666c0.42711,-1.622 9.40925,-35.594 9.72787,-35c1.25867,-1.833 13.62817,0.55311 14.53458,-0.88889c5.46729,1.775 -1.79588,12.71055 0.45778,28.05555z" data-paper-data="{&quot;index&quot;:null}" fill="url(#color-4)" fill-rule="evenodd" stroke="none" stroke-width="1"/><path d="M298.57106,194.50622c2.98975,0.89786 2.21133,4.30389 1.22914,9.51396c-0.00689,-0.00531 -0.0138,-0.01059 -0.02073,-0.01584c-5.3383,-4.04511 -12.18112,-1.73809 -18.35267,-1.21834c1.34167,-4.44524 2.35647,-7.62818 2.46032,-7.4491c1.27161,-1.71297 13.76821,0.51689 14.68393,-0.83068z" data-paper-data="{&quot;index&quot;:null}" fill="#2f4b3d" fill-rule="nonzero" stroke="none" stroke-width="1"/><g stroke="none" stroke-width="1"><path d="M338.27465,60.87892c4.86649,1.96984 9.40085,4.56941 13.60306,7.79871c2.02969,2.45648 4.39152,4.47837 7.08492,6.06567c4.27929,7.24119 10.41937,12.15149 18.42081,14.7309c8.78645,5.27649 12.09256,13.07521 9.9189,23.39614c-0.86719,3.11486 -2.18953,6.00328 -3.96756,8.66524c-2.71324,2.85433 -5.07508,5.93569 -7.08492,9.24292c-0.5668,0 -1.13359,0 -1.70038,0c-1.16533,-3.32572 -3.05445,-6.21414 -5.66794,-8.66524c2.89121,-2.05597 3.5521,-4.75201 1.98378,-8.08755c-1.09562,-2.55163 -2.5126,-4.86236 -4.25096,-6.93219c-1.39544,-1.71225 -2.90708,-3.34882 -4.53435,-4.9103c-6.08907,-4.08595 -12.32381,-7.93718 -18.70421,-11.55365c-2.17252,-0.59721 -4.25039,-1.27119 -6.23473,-2.02188c1.24581,0.05268 1.43455,-0.33246 0.56679,-1.15537c0.67618,-0.27174 1.05424,-0.84943 1.13359,-1.73305c-1.45666,-7.35303 -5.61296,-12.26333 -12.46947,-14.7309c-15.4423,-3.69514 -24.32227,2.37052 -26.63933,18.197c-5.28875,2.73215 -10.57864,5.52426 -15.87023,8.37639c-7.24079,4.29542 -12.43603,10.36132 -15.58684,18.197c-0.81732,2.75959 0.03287,4.68501 2.55057,5.77683c-2.34879,2.85202 -4.42723,5.93337 -6.23474,9.24292c-3.2296,-3.19631 -6.15827,-6.66242 -8.7853,-10.39829c-0.55387,-0.73596 -1.02624,-0.73596 -1.41699,0c-0.37788,0 -0.56679,-0.19237 -0.56679,-0.57768c0,-0.19237 0,-0.38531 0,-0.57768c0.3382,-0.13576 0.52717,-0.4246 0.56679,-0.86653c-0.39466,-1.09355 -0.86697,-2.15245 -1.41699,-3.17726c-0.09704,-4.33898 -0.38043,-8.57569 -0.85019,-12.70901c0,-0.38514 0,-0.77022 0,-1.15537c-0.15178,-0.92372 0.03713,-1.69399 0.5668,-2.31073c0.89712,-1.2493 1.65283,-2.59721 2.26718,-4.04378c1.13359,-0.77022 2.07826,-1.73304 2.83397,-2.88841c3.03121,-2.12338 6.24324,-3.95268 9.63551,-5.48798c0.49935,-0.40917 0.87682,-0.89056 1.13358,-1.44421c0.18874,0 0.37806,0 0.5668,0c0.77764,-0.58438 1.53318,-1.16207 2.26718,-1.73305c0.53052,-0.85174 1.28663,-1.42942 2.26718,-1.73305c1.67487,-0.93717 3.18652,-2.09254 4.53435,-3.46609c1.36541,-0.69362 2.49899,-1.65645 3.40076,-2.88842c1.44533,-0.91112 2.57891,-2.06648 3.40076,-3.46609c1.36824,-0.81499 2.31309,-1.97036 2.83398,-3.46609c0.75554,-0.38514 1.32233,-0.96283 1.70038,-1.73305c-0.07425,-0.42685 0.02041,-0.81199 0.2834,-1.15537c1.1795,-1.49447 2.59648,-2.64983 4.25095,-3.46609c-0.25676,0.55365 -0.63424,1.03503 -1.13359,1.4442c0.18874,0.0963 0.37806,0.19255 0.5668,0.28885c14.57228,-7.32599 29.49767,-8.28882 44.77674,-2.88842z" fill="#4c7c65" fill-rule="evenodd"/><path d="M289.53034,66.65574c-0.37805,0.77022 -0.94484,1.34791 -1.70038,1.73305c0,-1.15537 0.56679,-1.73305 1.70038,-1.73305z" fill="#fafbfb" fill-rule="evenodd" opacity="0.063"/><path d="M349.04374,64.92269c1.4833,0.74284 2.80563,1.70561 3.96756,2.88841c-1.79901,-0.29474 -3.1219,-1.25756 -3.96756,-2.88841z" fill="#e2e6e7" fill-rule="evenodd" opacity="0.102"/><path d="M287.82997,68.38879c-0.52089,1.49573 -1.46573,2.6511 -2.83398,3.46609c0.52089,-1.49573 1.46573,-2.6511 2.83398,-3.46609z" fill="#e7eaea" fill-rule="evenodd" opacity="0.361"/><path d="M353.01129,67.81111c1.57512,1.36368 3.08677,2.71165 4.53436,4.04378c-2.21787,-0.54874 -3.72951,-1.89671 -4.53436,-4.04378z" fill="#dee1e3" fill-rule="evenodd" opacity="0.051"/><path d="M337.70785,87.45231c0.86776,0.82291 0.67902,1.20805 -0.56679,1.15537c-4.53662,-0.57792 -9.07098,-1.1556 -13.60306,-1.73305c0,-2.69587 0,-5.39168 0,-8.08755c-2.26718,0 -4.53436,0 -6.80153,0c-0.55886,2.58224 -0.7476,5.27811 -0.56679,8.08755c-0.9063,-0.15471 -1.66184,0.03784 -2.26718,0.57769c-4.02537,-0.14373 -7.99294,0.24135 -11.90268,1.15537c0.23919,-11.50859 6.00179,-17.28541 17.28723,-17.33048c10.85638,-0.02484 16.99645,5.36684 18.42081,16.17511z" fill="#f7f4f7" fill-rule="evenodd"/><path d="M357.54565,71.85489c1.27756,0.3603 2.2224,1.13053 2.83397,2.31073c-1.30079,-0.36711 -2.24507,-1.1374 -2.83397,-2.31073z" fill="#ccd0d3" fill-rule="evenodd" opacity="0.498"/><path d="M284.99599,71.85489c-0.82185,1.39961 -1.95544,2.55497 -3.40076,3.46609c0.60194,-1.66257 1.73552,-2.81793 3.40076,-3.46609z" fill="#eceeed" fill-rule="evenodd" opacity="0.029"/><path d="M281.59523,75.32097c-0.90177,1.23197 -2.03536,2.19479 -3.40076,2.88842c0.64501,-1.494 1.7786,-2.45683 3.40076,-2.88842z" fill="#eeefef" fill-rule="evenodd" opacity="0.231"/><path d="M360.37962,74.16562c1.96848,1.23434 3.29081,2.96738 3.96756,5.19914c-1.53544,-1.56466 -2.85778,-3.2977 -3.96756,-5.19914z" fill="#e1e4e8" fill-rule="evenodd" opacity="0.22"/><path d="M278.19446,78.20939c-1.34783,1.37355 -2.85948,2.52892 -4.53435,3.46609c1.00209,-1.78498 2.51373,-2.94034 4.53435,-3.46609z" fill="#e2e4e3" fill-rule="evenodd" opacity="0.306"/><path d="M364.34718,79.36476c1.04347,0.52124 1.79901,1.29146 2.26718,2.31073c-1.32233,-0.19254 -2.07844,-0.96282 -2.26718,-2.31073z" fill="#d5dada" fill-rule="evenodd" opacity="0.065"/><path d="M338.27465,59.72355c3.71647,1.48118 7.30598,3.21423 10.76909,5.19914c0.84566,1.63085 2.16855,2.59368 3.96756,2.88841c0.80485,2.14707 2.31649,3.49504 4.53436,4.04378c0.5889,1.17333 1.53318,1.94362 2.83397,2.31073c1.10978,1.90144 2.43212,3.63448 3.96756,5.19914c0.18874,1.3479 0.94484,2.11819 2.26718,2.31073c1.2169,1.59972 2.72855,2.94763 4.53435,4.04377c4.10983,1.32422 7.88864,3.24981 11.33589,5.77683c1.83131,1.99428 3.53169,4.11247 5.10115,6.35451c0,0.19254 0,0.38514 0,0.57768c1.39941,4.96287 1.77747,9.96965 1.13359,15.01975c-2.0518,4.13851 -4.31897,8.18229 -6.80153,12.13133c-0.54299,0.84457 -1.20387,1.61463 -1.98378,2.31073c-0.27773,0.74695 -0.37238,1.51757 -0.2834,2.31073c-1.20217,-0.10109 -2.33576,0.09186 -3.40076,0.57769c2.00985,-3.30723 4.37168,-6.38859 7.08492,-9.24292c1.77803,-2.66196 3.10037,-5.55038 3.96756,-8.66524c2.17365,-10.32093 -1.13245,-18.11965 -9.9189,-23.39614c-8.00144,-2.57941 -14.14151,-7.48971 -18.42081,-14.7309c-2.6934,-1.5873 -5.05523,-3.60919 -7.08492,-6.06567c-4.20221,-3.2293 -8.73657,-5.82887 -13.60306,-7.79871c0,-0.38514 0,-0.77023 0,-1.15537z" fill="#16231f" fill-rule="evenodd" opacity="0.986"/><path d="M271.39293,83.40853c-0.734,0.57098 -1.48953,1.14866 -2.26718,1.73305c0.10996,-1.39325 0.8655,-1.97094 2.26718,-1.73305z" fill="#f3f3f3" fill-rule="evenodd" opacity="0.071"/><path d="M337.70785,87.45231c-1.42435,-10.80827 -7.56443,-16.19995 -18.42081,-16.17511c-11.28544,0.04506 -17.04804,5.82189 -17.28723,17.33048c3.90974,-0.91401 7.87731,-1.29909 11.90268,-1.15537c0.94484,0 1.88912,0 2.83397,0c0,-2.88841 0,-5.77683 0,-8.66524c2.26718,0 4.53436,0 6.80153,0c0,2.69587 0,5.39168 0,8.08755c4.53208,0.57745 9.06644,1.15514 13.60306,1.73305c1.98435,0.7507 4.06221,1.42467 6.23474,2.02188c6.3804,3.61647 12.61514,7.4677 18.70421,11.55365c1.62727,1.56148 3.13891,3.19805 4.53435,4.9103c-0.37805,0 -0.75554,0 -1.13359,0c-19.5527,-18.48931 -42.22446,-23.78468 -68.0153,-15.88626c-3.02101,2.50038 -6.42178,4.23343 -10.20229,5.19914c-7.88014,4.56646 -13.83148,11.01698 -17.85402,19.35236c-0.57813,2.28011 0.08331,4.01316 1.98377,5.19914c-0.37805,0 -0.56679,0.19237 -0.56679,0.57769c-2.5177,-1.09182 -3.36789,-3.01723 -2.55057,-5.77683c3.15081,-7.83568 8.34605,-13.90158 15.58684,-18.197c5.29159,-2.85214 10.58148,-5.64424 15.87023,-8.37639c2.31705,-15.82648 11.19702,-21.89214 26.63933,-18.19699c6.85651,2.46757 11.01281,7.37787 12.46947,14.7309c-0.07935,0.88362 -0.45741,1.46131 -1.13359,1.73305z" fill="#19261f" fill-rule="evenodd"/><path d="M317.87005,79.94244c1.51164,0 3.02271,0 4.53435,0c0,2.31073 0,4.62146 0,6.93219c-1.51164,0 -3.02271,0 -4.53435,0c0,-2.31073 0,-4.62146 0,-6.93219z" fill="#49705e" fill-rule="evenodd"/><path d="M268.55895,85.14158c-0.25676,0.55365 -0.63424,1.03504 -1.13358,1.44421c-3.39227,1.5353 -6.60429,3.3646 -9.63551,5.48798c0.00601,-0.87658 0.38384,-1.55056 1.13359,-2.02189c3.08393,-1.95673 6.29595,-3.59348 9.6355,-4.9103z" fill="#dee0e0" fill-rule="evenodd" opacity="0.259"/><path d="M316.73645,78.78707c0,2.88841 0,5.77683 0,8.66524c-0.94484,0 -1.88912,0 -2.83397,0c0.60534,-0.53984 1.36087,-0.73239 2.26718,-0.57769c-0.18081,-2.80944 0.00793,-5.50531 0.56679,-8.08755z" fill="#989999" fill-rule="evenodd"/><path d="M366.61435,81.67549c4.95038,3.06311 10.05153,5.85522 15.30344,8.3764c0.42623,0.38751 0.61554,0.86889 0.5668,1.4442c-3.44724,-2.52702 -7.22606,-4.45261 -11.33589,-5.77683c-1.80581,-1.09615 -3.31745,-2.44405 -4.53435,-4.04377z" fill="#dfe2e3" fill-rule="evenodd" opacity="0.061"/><path d="M365.48077,107.09351c2.04726,3.15761 3.74764,6.52724 5.10115,10.10945c-0.38826,1.65217 -1.3331,2.90401 -2.83397,3.75493c-3.93525,-3.14202 -7.14727,-6.89695 -9.6355,-11.2648c-3.05446,-2.53545 -6.26648,-4.84618 -9.6355,-6.93219c-19.91148,-5.1587 -39.74927,-4.96617 -59.51339,0.57768c-5.42082,2.25181 -9.10498,6.19911 -11.05249,11.84249c-1.94353,2.27549 -4.11663,4.20091 -6.51813,5.77683c-1.90046,-1.18598 -2.5619,-2.91903 -1.98377,-5.19914c4.02254,-8.33538 9.97388,-14.7859 17.85402,-19.35236c3.78051,-0.96571 7.18128,-2.69876 10.20229,-5.19914c25.79084,-7.89842 48.4626,-2.60304 68.0153,15.88626z" fill="#4b7a64" fill-rule="evenodd"/><path d="M257.78986,92.07377c-0.7557,1.15537 -1.70038,2.11818 -2.83397,2.88841c0.37788,-1.5405 1.3225,-2.50327 2.83397,-2.88841z" fill="#e2e4e3" fill-rule="evenodd" opacity="0.22"/><path d="M382.48459,91.49609c2.6356,1.32388 4.33598,3.44206 5.10115,6.35451c-1.56946,-2.24205 -3.26984,-4.36024 -5.10115,-6.35451z" fill="#e4e7ea" fill-rule="evenodd" opacity="0.271"/><path d="M254.9559,94.96218c-0.61435,1.44657 -1.37006,2.79449 -2.26718,4.04378c0.03106,-1.79919 0.78677,-3.1471 2.26718,-4.04378z" fill="#e3e4e4" fill-rule="evenodd" opacity="0.008"/><path d="M365.48077,107.09351c0.37805,0 0.75554,0 1.13359,0c1.73836,2.06983 3.15534,4.38057 4.25096,6.93219c1.56832,3.33554 0.90744,6.03158 -1.98378,8.08755c2.61349,2.4511 4.50261,5.33952 5.66794,8.66524c0.5668,0 1.13359,0 1.70038,0c1.065,-0.48583 2.19859,-0.67878 3.40076,-0.57769c0.37805,0.19237 0.75554,0.38531 1.13359,0.57769c-1.51164,0.38531 -3.02271,0.77005 -4.53435,1.15536c-4.18011,3.11948 -6.63659,7.35621 -7.36832,12.70901c-0.36048,-4.37133 1.0565,-8.22273 4.25095,-11.55365c0.37805,-1.15536 0.37805,-2.31073 0,-3.46609c-3.46085,-4.99175 -7.52306,-9.42085 -12.18608,-13.2867c-0.66088,7.31 -0.75554,14.62692 -0.28339,21.95193c1.49973,3.44183 3.29421,6.71498 5.38455,9.8206c-0.07028,0.35065 -0.25903,0.54303 -0.5668,0.57769c-2.70927,-3.01782 -4.69306,-6.48391 -5.95134,-10.39829c-0.33781,-8.30361 -0.33781,-16.58353 0,-24.84034c-0.91821,-1.00575 -1.7684,-2.06522 -2.55057,-3.17726c-2.57551,-1.80814 -5.03143,-3.73414 -7.36832,-5.77683c-3.49202,-1.3229 -7.08209,-2.18971 -10.76909,-2.59957c-1.38751,-0.56215 -2.89916,-0.75468 -4.53436,-0.57768c-9.8044,-1.41769 -19.62865,-1.51393 -29.4733,-0.28884c-0.51918,0.16083 -0.89667,0.44967 -1.13359,0.86652c-1.61026,0.03449 -3.12133,0.41963 -4.53436,1.15537c0.07425,-0.50628 -0.1145,-0.89142 -0.5668,-1.15537c-4.54342,0.90408 -8.88903,2.34828 -13.03627,4.33262c-3.11624,2.03229 -5.1941,4.8248 -6.23473,8.3764c0.07425,0.42691 -0.0204,0.81222 -0.28339,1.15536c-4.84099,4.0016 -8.99786,8.62306 -12.46947,13.86438c-0.27433,1.39395 -0.08502,2.74168 0.5668,4.04378c2.22863,2.39334 3.26813,5.08939 3.11737,8.08756c-1.02306,-4.49495 -3.47955,-7.76868 -7.36833,-9.8206c-1.20784,-0.47024 -2.53017,-0.75907 -3.96756,-0.86652c0.53732,-0.27902 1.10412,-0.37491 1.70038,-0.28884c0.25279,-1.44998 -0.12469,-2.60535 -1.13359,-3.4661c-0.74267,-1.71745 -1.87626,-3.06576 -3.40077,-4.04378c0.04138,-0.88212 -0.3365,-1.4598 -1.13359,-1.73305c-0.47509,-0.19756 -0.66406,-0.58231 -0.5668,-1.15537c0.39075,-0.73596 0.86312,-0.73596 1.41699,0c2.62703,3.73587 5.55571,7.20197 8.7853,10.39829c1.8075,-3.30955 3.88594,-6.3909 6.23474,-9.24292c0,-0.38532 0.18874,-0.57769 0.56679,-0.57769c2.4015,-1.57592 4.5746,-3.50133 6.51813,-5.77683c1.9475,-5.64338 5.63167,-9.59068 11.05249,-11.84249c19.76412,-5.54385 39.60191,-5.73638 59.51339,-0.57768c3.36903,2.08601 6.58105,4.39674 9.6355,6.93219c2.48823,4.36786 5.70025,8.12279 9.6355,11.2648c1.50087,-0.85093 2.44572,-2.10276 2.83397,-3.75493c-1.3535,-3.58221 -3.05389,-6.95184 -5.10115,-10.10945z" fill="#21251e" fill-rule="evenodd"/><path d="M334.30709,101.31669c0.18874,0.38514 0.37806,0.77022 0.5668,1.15537c-4.62901,2.76883 -7.08493,6.81261 -7.36833,12.13133c3.86611,-7.24645 9.3453,-8.8836 16.43703,-4.9103c2.07844,1.63657 4.1563,3.27373 6.23474,4.9103c0.63141,-0.70651 0.72607,-1.47656 0.2834,-2.31073c-3.08506,-4.39674 -6.95797,-7.86284 -11.61928,-10.39829c3.687,0.40986 7.27706,1.27667 10.76909,2.59957c2.33689,2.04269 4.79281,3.96868 7.36832,5.77683c0.78217,1.11204 1.63237,2.17151 2.55057,3.17726c-0.33781,8.25682 -0.33781,16.53673 0,24.84034c1.25829,3.91438 3.24207,7.38047 5.95134,10.39829c0.83206,1.77002 1.39884,3.69544 1.70038,5.77683c0.34404,-0.07163 0.53278,-0.264 0.5668,-0.57769c0.00284,-2.33037 0.19158,-4.6411 0.5668,-6.93219c0.52938,-0.61696 0.7187,-1.38702 0.5668,-2.31073c0.73173,-5.3528 3.18822,-9.58953 7.36832,-12.70901c4.18351,-0.65509 7.77358,0.50027 10.76909,3.46609c1.88459,11.88409 -1.70492,21.60822 -10.76909,29.17297c-2.06993,0.28826 -4.14781,0.38416 -6.23474,0.28884c-1.19254,-0.81569 -2.51486,-1.39337 -3.96756,-1.73305c-0.53278,1.85667 -1.38298,3.58972 -2.55057,5.19914c-2.64523,3.46609 -5.66795,6.54688 -9.06871,9.24292c-2.60442,4.35168 -5.3443,8.5884 -8.21852,12.70901c-3.99023,3.33207 -7.01294,7.37585 -9.0687,12.13133c0,0.38531 0,0.77005 0,1.15536c-1.03496,0.95145 -1.79107,2.10681 -2.26718,3.46609c-0.66541,0.58577 -1.04291,1.35582 -1.13359,2.31073c-1.07521,1.76713 -2.58685,3.01897 -4.53436,3.75493c-6.92169,2.83989 -13.72322,2.64752 -20.40459,-0.57768c-3.06466,-3.07789 -5.33184,-6.64046 -6.80153,-10.68713c-5.0405,-6.98996 -9.6695,-14.30746 -13.88645,-21.95193c-3.96756,-4.81383 -8.31317,-9.24292 -13.03627,-13.2867c-1.07861,-1.12128 -1.55075,-2.46902 -1.41699,-4.04378c-1.36597,0.5101 -2.68831,1.18425 -3.96756,2.02189c-2.06993,0.28826 -4.1478,0.38416 -6.23473,0.28884c-4.07768,-3.57528 -7.28948,-7.81199 -9.6355,-12.70901c-0.79487,-2.8214 -1.1727,-5.70982 -1.13359,-8.66524c-1.15609,-8.06387 2.24468,-11.9147 10.20229,-11.55365c3.88878,2.05193 6.34526,5.32566 7.36833,9.82061c-0.1519,0.92371 0.03741,1.69376 0.56679,2.31073c0.66825,3.63536 1.23504,7.29381 1.70038,10.97597c0.39222,-1.88902 0.39222,-3.81444 0,-5.77683c0.18874,0 0.37806,0 0.5668,0c0.85983,-0.00636 1.52128,-0.39109 1.98378,-1.15536c4.3031,-5.83112 6.09757,-12.378 5.38455,-19.6412c0.7476,-4.14602 0.7476,-8.38218 0,-12.70902c-0.38655,-0.42922 -0.76461,-0.81395 -1.13359,-1.15536c1.04064,-3.55159 3.1185,-6.34411 6.23474,-8.3764c4.14724,-1.98434 8.49284,-3.42854 13.03627,-4.33262c0.4523,0.26395 0.64105,0.64908 0.5668,1.15537c-4.27363,1.94679 -7.5803,5.02757 -9.9189,9.24292c-0.44266,0.83418 -0.34802,1.60422 0.28339,2.31073c2.54377,-2.16227 5.18844,-4.18416 7.93512,-6.06567c6.44615,-2.02709 11.35855,-0.0052 14.73664,6.06567c0.63141,-0.70651 0.72607,-1.47656 0.2834,-2.31073c-1.48784,-4.78726 -4.41589,-8.25335 -8.78531,-10.39829c0.23692,-0.41685 0.6144,-0.7057 1.13359,-0.86652c9.84465,-1.22509 19.66889,-1.12884 29.4733,0.28884zM331.30553,124.92264l-0.01283,-0.12094c0.35667,-1.07001 1.40112,-1.74565 1.41283,-2.97906c0,0 0,-0.25 -0.25,-0.25c-0.25,0 -0.25,0.25 -0.25,0.25c0.00016,0.01327 0.00018,0.02648 0.00004,0.03964c-0.04911,0.04569 -0.07101,0.10043 -0.07101,0.10043c-0.45016,1.1817 -1.91145,1.89642 -2.27548,3.15945c-0.24529,0.85106 0.13043,0.78821 0.50141,0.45389l-0.01742,0.03438c0,0 -0.1118,0.2236 0.11181,0.33541c0.22361,0.11181 0.33541,-0.11181 0.33541,-0.11181l0.144,-0.29122c0.03082,-0.11988 0.05565,-0.24576 0.07155,-0.37378c0.01535,0.00235 0.03189,0.00362 0.04969,0.00362c0.25,0 0.25,-0.25 0.25,-0.25zM333.45552,143.27264l-0.20433,0.01903c-0.3472,-0.4258 -0.77618,-0.68262 -1.17933,-1.02584c-0.17644,-0.26841 -0.3534,-0.51296 -0.54902,-0.67216c0,0 -0.19521,-0.15617 -0.35139,0.03904c-0.15618,0.19521 0.03904,0.35139 0.03904,0.35139c0.06945,0.05439 0.13486,0.11382 0.19709,0.1772c-0.03602,0.13091 0.07117,0.2381 0.07117,0.2381c0.13257,0.13257 0.26654,0.25476 0.40162,0.3715c0.39972,0.60058 0.75878,1.2563 1.49233,1.46052l0.26666,0.06667c0,0 0.24254,0.06063 0.30317,-0.1819c0.06063,-0.24254 -0.1819,-0.30317 -0.1819,-0.30317l-0.22077,-0.05519c0.07257,-0.02318 0.16566,-0.08265 0.16566,-0.2352c0,-0.25 -0.25,-0.25 -0.25,-0.25z" fill="#fae9db" fill-rule="nonzero"/><path d="M334.30709,101.31669c1.6352,-0.177 3.14684,0.01553 4.53436,0.57768c-1.38864,-0.11669 -2.71098,0.07591 -3.96756,0.57769c-0.18874,-0.38514 -0.37806,-0.77022 -0.5668,-1.15537z" fill="#807c78" fill-rule="evenodd"/><path d="M303.7002,101.89437c4.36942,2.14494 7.29747,5.61103 8.78531,10.39829c0.44266,0.83418 0.34801,1.60422 -0.2834,2.31073c-3.37809,-6.07086 -8.29049,-8.09276 -14.73664,-6.06567c-2.74669,1.88151 -5.39135,3.9034 -7.93512,6.06567c-0.63141,-0.70651 -0.72606,-1.47656 -0.28339,-2.31073c2.33859,-4.21535 5.64526,-7.29613 9.9189,-9.24292c1.41302,-0.73574 2.9241,-1.12087 4.53436,-1.15537z" fill="#151312" fill-rule="evenodd"/><path d="M387.58574,98.42828c0.73287,0.77525 1.205,1.73807 1.41698,2.88841c0.80145,4.20842 0.99019,8.44456 0.5668,12.70901c-0.05611,1.24375 -0.52882,2.20617 -1.41699,2.88841c0.18874,-1.15537 0.37806,-2.31073 0.5668,-3.46609c0.64388,-5.0501 0.26583,-10.05688 -1.13359,-15.01974z" fill="#e8ebef" fill-rule="evenodd" opacity="0.019"/><path d="M338.84144,101.89437c4.66132,2.53545 8.53422,6.00155 11.61928,10.39829c0.44266,0.83418 0.34801,1.60422 -0.2834,2.31073c-2.07844,-1.63657 -4.1563,-3.27373 -6.23473,-4.9103c-7.09173,-3.9733 -12.57092,-2.33615 -16.43703,4.9103c0.28339,-5.31872 2.73932,-9.3625 7.36833,-12.13133c1.25658,-0.50177 2.57891,-0.69438 3.96756,-0.57769z" fill="#141211" fill-rule="evenodd"/><path d="M252.12193,101.31669c0,0.38514 0,0.77022 0,1.15537c-0.75571,4.62146 -0.75571,9.24291 0,13.86437c-0.84832,-2.15071 -1.22615,-4.46144 -1.13359,-6.93219c-0.04477,-2.83758 0.3331,-5.53362 1.13359,-8.08755z" fill="#e8e9e9" fill-rule="evenodd" opacity="0.258"/><path d="M252.12193,102.47206c0.46976,4.13332 0.75315,8.37003 0.85019,12.70901c0.55002,1.02481 1.02233,2.0837 1.41699,3.17726c-0.03962,0.44192 -0.22859,0.73077 -0.56679,0.86653c-0.43258,-1.07911 -0.99938,-2.04211 -1.70039,-2.88842c-0.75571,-4.62146 -0.75571,-9.24291 0,-13.86437z" fill="#32463c" fill-rule="evenodd"/><path d="M368.88153,144.64287c0.1519,0.92371 -0.03741,1.69377 -0.5668,2.31073c-0.10939,-2.28127 -0.39279,-2.28127 -0.85019,0c-0.46024,2.41991 -0.36559,4.73064 0.28339,6.93219c-0.03401,0.31368 -0.22275,0.50605 -0.5668,0.57769c-0.30154,-2.08139 -0.86832,-4.00681 -1.70038,-5.77683c0.30777,-0.03466 0.49651,-0.22703 0.5668,-0.57769c-2.09033,-3.10562 -3.88481,-6.37877 -5.38455,-9.8206c-0.47214,-7.32502 -0.37749,-14.64194 0.28339,-21.95193c4.66301,3.86585 8.72523,8.29494 12.18608,13.2867c0.37805,1.15536 0.37805,2.31073 0,3.46609c-3.19445,3.33092 -4.61143,7.18232 -4.25095,11.55365z" fill="#755f58" fill-rule="evenodd"/><path d="M294.91489,122.11327c-3.24207,5.60987 -3.99817,11.57965 -2.26718,17.90815c0.95335,2.51407 2.37033,4.72891 4.25096,6.64335c2.28361,1.56668 4.73953,1.85551 7.36832,0.86652c-0.76517,0.66433 -0.67108,1.04965 0.2834,1.15537c0.64501,-0.28249 1.30646,-0.47486 1.98378,-0.57769c-3.233,5.07032 -5.12268,10.65478 -5.66794,16.75279c-0.37805,-0.57768 -0.75554,-1.15537 -1.13359,-1.73305c0.79634,-4.88777 2.49673,-9.41276 5.10115,-13.57554c-4.87103,0.9318 -8.55519,-0.70477 -11.05249,-4.9103c-3.18992,-6.02176 -3.94545,-12.37627 -2.26718,-19.06352c1.86022,-4.69367 5.16633,-7.58208 9.9189,-8.66523c2.22798,0.40691 4.10531,1.25587 5.63206,2.54695c1.32763,1.1227 2.39017,2.57973 3.18766,4.37113c-0.64479,-0.76537 -1.77386,-1.68843 -2.48906,-2.16522c0,0 -0.14147,-0.09431 -0.26885,-0.01071c-4.21594,-4.04267 -8.40924,-3.8907 -12.57995,0.457z" fill="#312d2d" fill-rule="nonzero"/><path d="M308.80134,123.26862c-0.34404,0.07164 -0.53278,0.264 -0.56679,0.57769c-0.18874,0 -0.37806,0 -0.5668,0c-1.48104,-0.86248 -2.61462,-0.47717 -3.40077,1.15536c-0.92388,0.88155 -1.39601,2.03691 -1.41698,3.4661c-0.37805,2.31073 -0.37805,4.62145 0,6.93219c0.10826,-1.27552 0.39166,-2.43089 0.85019,-3.46609c-0.51691,3.36443 0.23918,6.34873 2.26717,8.95408c0.81505,0.12651 1.57059,0.41536 2.26718,0.86653c-0.21198,0.7221 -0.21198,1.29978 0,1.73304c-3.35712,0.23569 -5.43556,-1.30498 -6.23474,-4.62146c-0.75554,-4.04378 -0.75554,-8.08755 0,-12.13133c0.56345,-3.09249 2.35503,-4.72504 5.37369,-4.89815c-0.03013,0.15112 0.11284,0.24643 0.11284,0.24643c0.55415,0.36944 1.4386,1.05931 2.05851,1.69678c-0.24592,-0.16753 -0.49376,-0.33789 -0.74349,-0.51117z" fill="#ff0000" fill-rule="nonzero"/><path d="M252.12193,116.33643c0.70101,0.84631 1.26781,1.80931 1.70039,2.88842c0,0.19237 0,0.38531 0,0.57768c-1.1557,-0.81511 -1.72249,-1.97048 -1.70039,-3.4661z" fill="#e6e8ea" fill-rule="evenodd" opacity="0.141"/><path d="M388.71933,113.44802c-0.18874,1.15537 -0.37806,2.31073 -0.5668,3.46609c0.13433,0.74579 -0.05441,1.32347 -0.56679,1.73305c-1.27245,1.62906 -2.40604,3.36212 -3.40077,5.19915c-0.75554,0.57768 -1.51164,1.15536 -2.26718,1.73304c2.48256,-3.94903 4.74973,-7.99281 6.80153,-12.13133z" fill="#223955" fill-rule="evenodd" opacity="0.996"/><path d="M301.99981,126.73472c-0.86719,1.8457 -1.24467,3.86758 -1.13358,6.06566c-0.11109,2.19808 0.26639,4.21997 1.13358,6.06566c0.79918,3.31647 2.87762,4.85715 6.23474,4.62146c-1.13359,1.54068 -2.45592,2.88842 -3.96756,4.04378c-2.62879,0.98899 -5.08471,0.70015 -7.36832,-0.86652c-1.88063,-1.91444 -3.29761,-4.12928 -4.25096,-6.64335c-1.73099,-6.32851 -0.97489,-12.29828 2.26718,-17.90815c4.22772,-4.40714 8.47868,-4.50303 12.75287,-0.28884c-1.03296,0.02651 -1.92944,0.21533 -2.68942,0.56649c-1.59195,0.73557 -2.58491,2.18346 -2.97853,4.34382z" fill="#ececf0" fill-rule="evenodd"/><path d="M332.07187,142.26583c-0.07826,-0.11904 -0.15662,-0.23339 -0.23666,-0.33769c4.20142,-2.42998 5.40314,-6.33896 3.60548,-11.72732c0.70736,-0.48179 1.0854,-1.25184 1.13358,-2.31073c-0.09465,-0.77005 -0.18874,-1.54068 -0.28339,-2.31073c-0.21708,-0.32119 -0.50048,-0.51355 -0.85019,-0.57768c-0.80485,-1.64581 -1.93844,-2.03113 -3.40077,-1.15536c-0.20341,0.20732 -0.40666,0.41447 -0.60992,0.62164c0.35607,-0.73115 0.98275,-1.30514 1.19941,-2.09862c0.13369,-0.19764 0.24765,-0.40088 0.32464,-0.61623l0.08337,0.03573l0.09783,-0.22826c0.01438,-0.03155 0.02239,-0.06662 0.02239,-0.10356c0,-0.13807 -0.11193,-0.25 -0.25,-0.25c-0.06147,0 -0.11777,0.02219 -0.16131,0.05899l-0.19874,0.16562l0.00286,0.00343l-0.0114,0.00402c-0.04607,0.046 -0.09214,0.09199 -0.13821,0.13799c-0.19529,0.03351 -0.19529,0.24556 -0.19529,0.24556c0.00016,0.01327 0.00018,0.02648 0.00004,0.03963c-0.04912,0.04569 -0.07103,0.10044 -0.07103,0.10044c-0.0052,0.01364 -0.01052,0.02721 -0.01599,0.04072c-0.22259,0.25687 -0.4581,0.61974 -0.67232,0.99984c-0.59693,0.66454 -1.34165,1.26699 -1.58718,2.11888c-0.24529,0.85106 0.13043,0.78821 0.50141,0.45389l-0.01742,0.03438c0,0 -0.10613,0.21227 0.09525,0.32658c-0.59848,1.20236 -1.19811,2.43117 -1.79917,3.68614c-0.56226,2.47421 -0.75157,4.97731 -0.5668,7.50987c-2.28872,-8.66754 0.35651,-15.31089 7.93511,-19.93004c6.90355,0.09127 11.15451,3.65384 12.75287,10.68712c0.73977,3.2038 0.86965,6.19006 0.38962,8.95871c-0.61499,3.54709 -2.23109,6.737 -4.84835,9.5696c-0.07124,-0.10102 -0.20789,-0.10102 -0.20789,-0.10102l-0.1036,0.0034c-1.68433,0.28483 -3.57605,0.68428 -5.28584,0.43876c-0.71697,-0.17766 -1.35173,-0.48143 -1.94691,-0.84813c2.04824,0.65236 4.43011,1.0649 6.32135,0.46911c0.04694,-0.00042 0.09361,-0.00064 0.14001,-0.00064h0.25c0.13807,0 0.25,-0.11193 0.25,-0.25c0,-0.13807 -0.11193,-0.25 -0.25,-0.25h-0.3125v0.00016c-1.52377,0.00754 -3.43162,0.28207 -4.85151,-0.2974c-1.18221,-0.39423 -2.20467,-0.98729 -3.20215,-1.63547c0.72061,0.15082 1.33306,0.25148 1.63359,0.30362c1.71529,0.34037 4.19761,0.62367 5.74577,1.4152l0.1743,0.02639c0,0 0.25,0 0.25,-0.25c0,-0.25 -0.25,-0.25 -0.25,-0.25l0.0493,0.02639c-1.63124,-0.80125 -4.08864,-1.0992 -5.87923,-1.4598c-0.87882,-0.13933 -1.95331,-0.34751 -2.95734,-0.63369c-0.45494,-0.30449 -0.91625,-0.6081 -1.3966,-0.89728c0,0 -0.21437,-0.12862 -0.343,0.08575c-0.00004,0.00007 -0.00009,0.00014 -0.00013,0.00022c-0.01917,-0.01587 -0.03829,-0.03191 -0.05735,-0.04814zM342.17611,128.43954c0.13807,0 0.25,-0.11193 0.25,-0.25c0,-0.13807 -0.11193,-0.25 -0.25,-0.25c-0.13807,0 -0.25,0.11193 -0.25,0.25c0,0.13807 0.11193,0.25 0.25,0.25z" fill="#2d2a29" fill-rule="nonzero"/><path d="M333.66051,143.67565c0.01347,-0.01815 0.0248,-0.03969 0.03273,-0.06527c0.00603,0.00166 0.01206,0.00331 0.01809,0.00496c0.81389,0.5438 1.60946,1.0889 2.45835,1.55917c-0.31633,-0.1084 -0.63195,-0.22682 -0.94756,-0.35493c-0.51081,-0.39214 -1.02047,-0.78957 -1.5616,-1.14392z" fill="#2d2a29" fill-rule="nonzero"/><path d="M345.07618,161.97335c-1.30759,2.12009 -3.10206,2.89014 -5.38455,2.31073c-0.15757,0.52916 -0.44097,0.9139 -0.85019,1.15537c-0.78897,-3.8595 -1.63917,-7.71033 -2.55057,-11.55365c-2.07277,-3.74281 -4.24529,-7.40126 -6.51814,-10.97597c0.35614,-0.13941 0.69759,-0.28606 1.02435,-0.43996c0.9284,1.23345 2.55146,2.11705 3.89886,2.67212c0.11863,0.0507 0.24036,0.10159 0.3649,0.15241c1.07488,0.81514 2.15097,1.60433 3.54733,1.9558c1.72193,0.24489 3.5824,-0.12194 5.29137,-0.40758c-0.51632,0.53128 -1.06876,1.04968 -1.65733,1.55517c-2.40831,0.65047 -4.86423,1.03521 -7.36832,1.15537c2.30629,4.06284 4.00666,8.39546 5.10114,12.99785c0.28339,0.19237 0.5668,0.38531 0.85019,0.57769c1.41528,-0.43268 2.83228,-0.818 4.25096,-1.15536z" fill="#2d2a29" fill-rule="nonzero"/><path d="M331.96667,142.99883c0.02998,0.01438 0.06039,0.02864 0.09121,0.04277c0.01619,0.02472 0.03242,0.0494 0.04871,0.07402c-0.04735,-0.03845 -0.09401,-0.07738 -0.13992,-0.11679z" fill="#2d2a29" fill-rule="nonzero"/><path d="M345.07618,123.26862c0.03684,2.3269 0.69829,4.44527 1.98378,6.35451c0.28283,2.30264 0.37748,4.61337 0.28339,6.93219c-0.47384,4.33551 -2.36296,7.8975 -5.66794,10.68713c-2.02459,0.81164 -4.10302,1.00402 -6.23473,0.57769c-1.32233,-1.34773 -2.64523,-2.69604 -3.96756,-4.04378c0.33074,-0.05613 0.66149,-0.11231 0.99223,-0.1685c0.23909,0.28365 0.52139,0.51611 0.90735,0.62357l0.26666,0.06667c0,0 0.24254,0.06063 0.30317,-0.1819c0.06063,-0.24254 -0.1819,-0.30317 -0.1819,-0.30317l-0.22076,-0.05519c0.07256,-0.02319 0.16564,-0.08265 0.16564,-0.23519c0,-0.04958 -0.00983,-0.08932 -0.02559,-0.12119c0.39799,-0.06763 0.79597,-0.13524 1.19396,-0.20278c1.61026,-1.74691 2.74385,-3.7688 3.40076,-6.06566c0.37635,-1.33444 0.56509,-2.77865 0.5668,-4.33262c0.11109,-2.19808 -0.2664,-4.21997 -1.13359,-6.06566c-0.70384,-2.76526 -2.37246,-4.37286 -5.00499,-4.82323c0.00148,-0.0293 0.00237,-0.05891 0.00265,-0.08886c0,0 0,-0.25 -0.25,-0.25c-0.25,0 -0.25,0.25 -0.25,0.25c0.00008,0.00629 0.00012,0.01257 0.00013,0.01883c-0.05486,-0.00614 -0.11011,-0.01182 -0.16574,-0.01704c3.09186,-3.51808 6.68137,-4.09577 10.76909,-1.73305c1.09902,0.82724 1.85456,1.88613 2.26718,3.17726z" fill="#edecf1" fill-rule="evenodd"/><path d="M280.46164,128.46777c0.71303,7.2632 -1.08145,13.81008 -5.38455,19.6412c-0.46251,0.76427 -1.12396,1.14901 -1.98378,1.15536c2.31138,-3.43028 4.29516,-7.08874 5.95134,-10.97597c0.09465,-7.32502 0.37805,-14.64194 0.85019,-21.95193c0.56509,4.02529 0.75384,8.06907 0.5668,12.13134z" fill="#362b25" fill-rule="evenodd"/><path d="M387.58574,118.64716c-0.43246,2.23563 -1.56605,3.96868 -3.40077,5.19915c0.99473,-1.83703 2.12831,-3.57008 3.40077,-5.19915z" fill="#e5eaee" fill-rule="evenodd" opacity="0.059"/><path d="M254.9559,121.53558c0.79709,0.27325 1.17496,0.85093 1.13359,1.73305c-0.79709,-0.27325 -1.17496,-0.85093 -1.13359,-1.73305z" fill="#e8eaec" fill-rule="evenodd" opacity="0.149"/><path d="M256.08948,123.26862c1.5245,0.97801 2.6581,2.32633 3.40077,4.04378c-1.5245,-0.97801 -2.6581,-2.32633 -3.40077,-4.04378z" fill="#cacdd0" fill-rule="evenodd" opacity="0.051"/><path d="M307.66776,123.84631c0.04138,0.88212 -0.33668,1.4598 -1.13359,1.73304c-0.75554,0 -1.51164,0 -2.26718,0c0,-0.19237 0,-0.38531 0,-0.57768c0.78614,-1.63253 1.91973,-2.01784 3.40077,-1.15536z" fill="#ff0000" fill-rule="evenodd"/><path d="M335.44068,125.00167c0,0.19237 0,0.38531 0,0.57768c-0.75554,0 -1.51164,0 -2.26718,0c-0.79692,-0.27325 -1.17496,-0.85092 -1.13359,-1.73304c1.46233,-0.87577 2.59592,-0.49045 3.40077,1.15536z" fill="#ffffff" fill-rule="evenodd"/><path d="M310.50172,124.42399c2.57608,7.05235 2.10394,13.98454 -1.41698,20.79657c-0.98395,0.90292 -1.83415,1.86591 -2.55058,2.88841c-0.67732,0.10282 -1.33877,0.2952 -1.98378,0.57769c-0.95448,-0.10572 -1.04857,-0.49103 -0.2834,-1.15537c1.51164,-1.15536 2.83397,-2.5031 3.96756,-4.04378c-0.21198,-0.43326 -0.21198,-1.01094 0,-1.73304c-0.69659,-0.45117 -1.45213,-0.74002 -2.26718,-0.86653c-2.02799,-2.60535 -2.78409,-5.58965 -2.26717,-8.95408c0.22275,-1.03059 0.60023,-1.993 1.13359,-2.88841c0.56226,0.09936 0.93974,-0.09358 1.13358,-0.57768c0.93181,0.12363 1.782,-0.06932 2.55058,-0.57769c0.18931,-1.35582 0.09465,-2.70413 -0.28339,-4.04377c0.03401,-0.31368 0.22274,-0.50605 0.56679,-0.57769c0.577,0.40033 1.14379,0.78507 1.70038,1.15537z" fill="#ff0000" fill-rule="evenodd"/><path d="M333.1735,125.57935c0,0.19237 0,0.38531 0,0.57769c-0.56453,0.04968 -1.03667,-0.14327 -1.41699,-0.57769c-0.25279,1.8405 0.5974,2.80349 2.55057,2.88842c0,0.19237 0,0.38531 0,0.57768c-2.48483,0.06014 -3.65267,-1.01916 -3.50349,-3.23832l0.1307,-0.26433c0.03082,-0.11988 0.05565,-0.24576 0.07155,-0.37378c0.01535,0.00235 0.03189,0.00362 0.04968,0.00362c0.25,0 0.25,-0.25 0.25,-0.25l-0.01283,-0.12094c0.03848,-0.11544 0.08497,-0.2263 0.1373,-0.33375c0.20326,-0.20716 0.4065,-0.41431 0.60991,-0.62162c-0.04138,0.88211 0.33667,1.45979 1.13359,1.73303z" fill="#ffffff" fill-rule="evenodd"/><path d="M279.32804,114.60339c0.36899,0.34141 0.74704,0.72614 1.13359,1.15536c0.7476,4.32684 0.7476,8.56299 0,12.70902c0.18704,-4.06226 -0.0017,-8.10605 -0.5668,-12.13134c-0.47214,7.31 -0.75554,14.62692 -0.85019,21.95193c-1.65618,3.88723 -3.63996,7.54568 -5.95134,10.97597c-0.18874,0 -0.37806,0 -0.5668,0c-0.14736,-2.19635 -0.62007,-4.31471 -1.41698,-6.3545c-0.26299,0.34314 -0.35765,0.72846 -0.2834,1.15536c-0.52938,-0.61696 -0.71869,-1.38701 -0.56679,-2.31073c0.15076,-2.99817 -0.88873,-5.69422 -3.11737,-8.08756c-0.65181,-1.3021 -0.84113,-2.64983 -0.5668,-4.04378c3.47161,-5.24131 7.62849,-9.86277 12.46947,-13.86438c0.26299,-0.34315 0.35764,-0.72846 0.28339,-1.15536z" fill="#766058" fill-rule="evenodd"/><path d="M304.26698,125.57935c0.75554,0 1.51164,0 2.26718,0c-1.09505,0.85266 -1.28379,1.81566 -0.5668,2.88842c-0.19385,0.4841 -0.57133,0.67704 -1.13358,0.57768c-1.32913,-0.85959 -1.51844,-2.01495 -0.5668,-3.46609z" fill="#ff0000" fill-rule="evenodd"/><path d="M307.66776,123.84631c0.18874,0 0.37806,0 0.5668,0c0.37805,1.33965 0.4727,2.68796 0.28339,4.04377c-0.76857,0.50836 -1.61877,0.70131 -2.55058,0.57769c-0.71699,-1.07276 -0.52825,-2.03576 0.5668,-2.88842c0.79692,-0.27325 1.17497,-0.85092 1.13359,-1.73304z" fill="#ff0000" fill-rule="evenodd"/><path d="M333.1735,126.15704c0.5668,0 1.13359,0 1.70038,0c0.1519,0.92371 -0.03741,1.69377 -0.5668,2.31073c-1.95317,-0.08492 -2.80336,-1.04792 -2.55057,-2.88842c0.38032,0.43442 0.85246,0.62736 1.41699,0.57769z" fill="#ffffff" fill-rule="evenodd"/><path d="M333.1735,126.15704c0,-0.19237 0,-0.38532 0,-0.57769c0.75554,0 1.51164,0 2.26718,0c0.47668,1.08546 0.66598,2.24083 0.56679,3.46609c-0.5668,0 -1.13358,0 -1.70038,0c0,-0.19237 0,-0.38531 0,-0.57768c0.52938,-0.61696 0.7187,-1.38702 0.5668,-2.31073c-0.5668,0 -1.13359,0 -1.70038,0z" fill="#ffffff" fill-rule="evenodd"/><path d="M384.18497,123.84631c-1.18516,1.8896 -2.5075,3.71854 -3.96756,5.48798c1.09448,0.52107 2.03877,1.19522 2.83398,2.02189c-0.82695,0.0387 -1.58249,-0.15366 -2.26718,-0.57768c-0.37805,-0.19237 -0.75554,-0.38531 -1.13359,-0.57769c-0.08898,-0.79316 0.00567,-1.56378 0.2834,-2.31073c0.77991,-0.6961 1.44079,-1.46616 1.98378,-2.31073c0.75554,-0.57768 1.51164,-1.15536 2.26718,-1.73304z" fill="#dee3e8" fill-rule="evenodd" opacity="0.102"/><path d="M345.07618,123.26862c2.70587,4.08884 3.46197,8.51793 2.26718,13.28669c0.09409,-2.31882 -0.00056,-4.62955 -0.28339,-6.93219c-1.28549,-1.90924 -1.94694,-4.0276 -1.98378,-6.35451z" fill="#bfbec1" fill-rule="evenodd"/><path d="M335.44068,125.00167c0.34971,0.06413 0.63311,0.25649 0.85019,0.57768c0.09465,0.77005 0.18874,1.54068 0.28339,2.31073c-0.04818,1.05889 -0.42622,1.82895 -1.13358,2.31073c-0.5668,-0.19237 -0.94485,-0.57769 -1.13359,-1.15537c0.5668,0 1.13358,0 1.70038,0c0.09919,-1.22527 -0.09011,-2.38063 -0.56679,-3.46609c0,-0.19237 0,-0.38531 0,-0.57768z" fill="#ffffff" fill-rule="evenodd"/><path d="M337.70785,126.73472c0.86719,1.8457 1.24468,3.86758 1.13359,6.06566c-0.0017,1.55397 -0.19045,2.99818 -0.5668,4.33262c0.07935,-3.48689 -0.10939,-6.95298 -0.5668,-10.39828z" fill="#98989b" fill-rule="evenodd"/><path d="M259.49026,127.3124c1.00889,0.86075 1.38638,2.01611 1.13359,3.4661c-0.59627,-0.08607 -1.16306,0.00982 -1.70038,0.28884c1.43739,0.10745 2.75972,0.39629 3.96756,0.86652c-7.95762,-0.36105 -11.35838,3.48978 -10.20229,11.55365c-0.4586,-1.0352 -0.74199,-2.19057 -0.85019,-3.46609c-0.01247,3.07211 0.08201,6.1529 0.28339,9.24292c-1.59654,-4.58738 -1.50212,-9.20883 0.2834,-13.86438c1.81006,-2.75497 4.26614,-4.68038 7.36832,-5.77682c0.11052,-0.76197 0.01587,-1.53259 -0.28339,-2.31073z" fill="#ccc6c3" fill-rule="evenodd"/><path d="M304.26698,125.00167c0,0.19237 0,0.38531 0,0.57768c-0.95164,1.45114 -0.76234,2.6065 0.5668,3.46609c-0.53335,0.89541 -0.91084,1.85783 -1.13359,2.88841c-0.45853,1.0352 -0.74193,2.19057 -0.85019,3.46609c-0.37805,-2.31073 -0.37805,-4.62145 0,-6.93219c0.02097,-1.42918 0.49311,-2.58455 1.41698,-3.4661z" fill="#ff0000" fill-rule="evenodd"/><path d="M307.10096,130.20081c1.93277,-0.06701 2.68887,0.8954 2.26718,2.88841c-2.51373,0.3339 -3.26927,-0.6291 -2.26718,-2.88841z" fill="#ff0000" fill-rule="evenodd"/><path d="M301.99981,126.73472c-0.75554,4.04378 -0.75554,8.08755 0,12.13133c-0.86719,-1.8457 -1.24467,-3.86758 -1.13358,-6.06566c-0.11109,-2.19808 0.26639,-4.21997 1.13358,-6.06566z" fill="#ff0000" fill-rule="evenodd"/><path d="M384.75177,131.93386c1.52411,0.39802 2.46895,1.36102 2.83397,2.88841c-1.16136,-0.79835 -2.10564,-1.76078 -2.83397,-2.88841z" fill="#ebebec" fill-rule="evenodd" opacity="0.043"/><path d="M380.78421,130.7785c0.68469,0.42402 1.44022,0.61638 2.26718,0.57768c0.73173,-0.13691 1.29852,0.05546 1.70038,0.57768c0.72833,1.12763 1.67261,2.09006 2.83397,2.88841c0.47497,0.19756 0.66428,0.58231 0.56679,1.15537c-0.37805,-0.19237 -0.75554,-0.38531 -1.13359,-0.57769c-2.9955,-2.96582 -6.58558,-4.12118 -10.76909,-3.46609c1.51164,-0.38531 3.02271,-0.77005 4.53435,-1.15536z" fill="#807875" fill-rule="evenodd" opacity="0.82"/><path d="M334.30708,129.04544c0.18874,0.57768 0.5668,0.963 1.13359,1.15537c1.79766,5.38836 0.59595,9.29735 -3.60546,11.72732c-0.10042,-0.13085 -0.2035,-0.24587 -0.31236,-0.33446c0,0 -0.19521,-0.15617 -0.35139,0.03904c-0.15618,0.19521 0.03904,0.35139 0.03904,0.35139c0.06944,0.05439 0.13485,0.11382 0.19708,0.1772c-0.00038,0.00138 -0.00074,0.00276 -0.0011,0.00413c-0.50508,0.26761 -1.04967,0.51574 -1.63377,0.74438c-1.0072,-1.73594 -1.57398,-3.66135 -1.70038,-5.77683c-0.18478,-2.53256 0.00454,-5.03566 0.5668,-7.50987c0.60105,-1.25498 1.20067,-2.48377 1.79915,-3.68613c0.00531,0.00302 0.01084,0.00596 0.01658,0.00884c0.22361,0.11181 0.33541,-0.11181 0.33541,-0.11181l0.0133,-0.02689c-0.14916,2.21916 1.01866,3.29847 3.50349,3.23831z" fill="#ffffff" fill-rule="evenodd"/><path d="M330.90632,130.20081c2.07504,-0.08665 2.64182,0.77987 1.70038,2.59957c-0.73287,0.28306 -1.48897,0.37954 -2.26718,0.28884c-0.07595,-1.0352 0.1128,-1.99762 0.5668,-2.88841z" fill="#ffffff" fill-rule="evenodd"/><path d="M388.15253,135.97764c1.99455,4.79072 1.99455,9.60455 0,14.44206c0.7289,-4.81614 0.7289,-9.62996 0,-14.44206z" fill="#e1e6eb" fill-rule="evenodd" opacity="0.278"/><path d="M257.78986,143.4875c0.56447,-0.04968 1.03679,0.14327 1.41699,0.57769c0.4506,1.38701 1.11205,2.63886 1.98378,3.75494c2.10338,0.10109 4.18181,0.38994 6.23474,0.86652c-5.26835,2.41702 -8.48032,0.68397 -9.63551,-5.19915z" fill="#443d38" fill-rule="evenodd"/><path d="M272.52652,149.26433c0.39222,1.96239 0.39222,3.88781 0,5.77683c-0.46534,-3.68215 -1.03213,-7.34061 -1.70038,-10.97597c-0.07425,-0.42691 0.02041,-0.81222 0.2834,-1.15536c0.79692,2.03979 1.26962,4.15815 1.41698,6.3545z" fill="#3d322b" fill-rule="evenodd"/><path d="M368.31474,146.9536c-0.37522,2.29109 -0.56396,4.60182 -0.5668,6.93219c-0.64898,-2.20155 -0.74363,-4.51228 -0.28339,-6.93219c0.4574,-2.28127 0.7408,-2.28127 0.85019,0z" fill="#342b25" fill-rule="evenodd"/><path d="M380.21741,144.06519c0.5668,0 1.13359,0 1.70038,0c-1.4714,4.89182 -4.68342,6.62486 -9.6355,5.19914c2.38621,-0.30213 4.65338,-0.97628 6.80153,-2.02189c0.54639,-0.9965 0.92444,-2.05597 1.13358,-3.17725z" fill="#38312c" fill-rule="evenodd"/><path d="M252.68873,143.4875c-0.03911,2.95542 0.33872,5.84384 1.13359,8.66524c-0.37788,-0.38531 -0.75571,-0.77005 -1.13359,-1.15536c-0.34563,-0.51471 -0.53455,-1.0924 -0.5668,-1.73305c-0.20138,-3.09002 -0.29586,-6.17081 -0.28339,-9.24292c0.1082,1.27552 0.39159,2.43089 0.85019,3.46609z" fill="#716c68" fill-rule="evenodd" opacity="0.788"/><path d="M252.68873,150.99738c0.37788,0.38531 0.75571,0.77005 1.13359,1.15536c0,0.57768 0,1.15537 0,1.73305c-0.81125,-0.73943 -1.18908,-1.70243 -1.13359,-2.88841z" fill="#e5e5e6" fill-rule="evenodd" opacity="0.076"/><path d="M253.82232,153.88579c0.66524,0.58577 1.04313,1.35582 1.13359,2.31073c-0.90925,-0.45463 -1.28713,-1.22468 -1.13359,-2.31073z" fill="#e4e6e7" fill-rule="evenodd" opacity="0.157"/><path d="M387.58574,152.15275c-0.16663,1.87978 -0.92217,3.42046 -2.26718,4.62146c0.45571,-1.69954 1.21181,-3.24022 2.26718,-4.62146z" fill="#d6dce3" fill-rule="evenodd" opacity="0.204"/><path d="M255.5227,157.35189c0.78768,0.80818 1.35447,1.77117 1.70039,2.88841c-1.2623,-0.52049 -1.8291,-1.48291 -1.70039,-2.88841z" fill="#f0f1f2" fill-rule="evenodd" opacity="0.051"/><path d="M387.01894,135.39995c0.37805,0.19237 0.75554,0.38531 1.13359,0.57769c0.7289,4.81209 0.7289,9.62592 0,14.44206c0.13433,0.74579 -0.05441,1.32348 -0.56679,1.73305c-1.05537,1.38124 -1.81147,2.92192 -2.26718,4.62146c0,0.19237 0,0.38531 0,0.57768c-1.6488,2.01092 -3.15988,4.12927 -4.53436,6.3545c-0.18874,0 -0.37806,0 -0.5668,0c-3.24547,2.46439 -6.64623,2.84971 -10.20229,1.15537c2.08693,0.09532 4.16481,-0.00057 6.23474,-0.28884c9.06417,-7.56475 12.65368,-17.28888 10.76909,-29.17297z" fill="#252a35" fill-rule="evenodd"/><path d="M326.37197,181.03687c-0.5668,-0.38531 -1.13358,-0.77005 -1.70038,-1.15536c2.68491,-1.46904 5.32956,-3.1062 7.93511,-4.9103c2.46272,-2.97737 4.54059,-6.15463 6.23474,-9.53176c0.40922,-0.24147 0.69262,-0.62621 0.85019,-1.15537c2.28248,0.57942 4.07695,-0.19063 5.38455,-2.31073c5.93717,-2.47594 11.03832,-6.23089 15.30344,-11.26481c0.55716,-0.34141 0.93521,-0.14846 1.13359,0.57769c-2.57324,10.06207 -7.48565,18.72731 -14.73665,25.99571c-6.26931,4.74104 -13.07084,5.99287 -20.40459,3.75493z" fill="#131111" fill-rule="evenodd"/><path d="M253.82232,152.15275c2.34602,4.89702 5.55782,9.13374 9.6355,12.70901c-1.6352,-0.50951 -3.14684,-1.28015 -4.53436,-2.31073c-0.13467,-1.09991 -0.70146,-1.87054 -1.70038,-2.31073c-0.34591,-1.11724 -0.91271,-2.08023 -1.70039,-2.88841c-0.47509,-0.19756 -0.66405,-0.5823 -0.56679,-1.15536c-0.09046,-0.95491 -0.46834,-1.72496 -1.13359,-2.31073c0,-0.57768 0,-1.15537 0,-1.73305z" fill="#3c3b3a" fill-rule="evenodd" opacity="0.945"/><path d="M385.31856,157.35189c-0.81959,2.63481 -2.33123,4.75317 -4.53436,6.3545c1.37448,-2.22523 2.88555,-4.34359 4.53436,-6.3545z" fill="#e7ebef" fill-rule="evenodd" opacity="0.055"/><path d="M257.22308,160.2403c0.99892,0.44019 1.56571,1.21082 1.70038,2.31073c-1.10276,-0.30906 -1.66954,-1.07911 -1.70038,-2.31073z" fill="#f0f1f3" fill-rule="evenodd" opacity="0.057"/><path d="M258.92346,162.55103c1.38751,1.03059 2.89916,1.80122 4.53436,2.31073c2.84758,0.74059 5.7762,0.74059 8.78531,0c1.17553,0.33043 1.83642,1.10049 1.98378,2.31073c-0.62007,-0.62505 -1.37561,-1.00979 -2.26718,-1.15537c-3.23469,0.79432 -6.44672,0.69842 -9.6355,-0.28884c-1.60006,-0.57306 -2.73359,-1.63196 -3.40076,-3.17726z" fill="#c8cfd7" fill-rule="evenodd" opacity="0.137"/><path d="M299.73263,163.12871c0.37805,0.57768 0.75554,1.15537 1.13359,1.73305c2.43892,7.29902 7.16201,12.30522 14.16985,15.01975c-0.5668,0.38531 -1.13359,0.77005 -1.70038,1.15536c-8.94571,2.26971 -16.78618,0.15136 -23.52195,-6.3545c-5.6141,-7.28342 -9.29826,-15.37097 -11.05249,-24.26266c4.78827,5.42155 10.45622,9.5618 17.00383,12.42018c1.3093,0.28711 2.63162,0.383 3.96756,0.28884z" fill="#11100f" fill-rule="evenodd"/><path d="M380.21741,163.70639c-0.40753,1.3795 -1.35181,2.24604 -2.83397,2.59958c-3.233,0.26343 -6.44445,0.26343 -9.6355,0c-0.82866,1.51931 -1.96224,2.77114 -3.40076,3.75493c0.65861,-3.17667 2.54774,-4.90972 5.66794,-5.19914c3.55606,1.69434 6.95683,1.30903 10.20229,-1.15537z" fill="#dbe1e6" fill-rule="evenodd" opacity="0.165"/><path d="M274.22691,167.17249c1.98378,1.92426 4.06164,3.75378 6.23474,5.48798c1.48386,1.2166 2.61746,2.66081 3.40076,4.33262c-2.26831,-1.93177 -4.53548,-3.85719 -6.80153,-5.77683c-1.1931,-1.20851 -2.13794,-2.55625 -2.83397,-4.04378z" fill="#dadee1" fill-rule="evenodd" opacity="0.046"/><path d="M364.34718,170.0609c-0.52089,1.49562 -1.46573,2.65098 -2.83397,3.46609c0.52089,-1.49562 1.46573,-2.65098 2.83397,-3.46609z" fill="#edf0f4" fill-rule="evenodd" opacity="0.055"/><path d="M361.51321,173.527c-0.5668,1.73305 -1.70038,2.88842 -3.40076,3.4661c0.94484,-1.34773 2.07843,-2.5031 3.40076,-3.4661z" fill="#eaeef1" fill-rule="evenodd" opacity="0.008"/><path d="M283.8624,176.99309c1.36824,0.81511 2.31309,1.97047 2.83397,3.46609c-1.36824,-0.81511 -2.31309,-1.97047 -2.83397,-3.46609z" fill="#eaebed" fill-rule="evenodd" opacity="0.027"/><path d="M370.01512,164.86176c-3.1202,0.28942 -5.00932,2.02247 -5.66794,5.19914c-1.36824,0.81511 -2.31309,1.97047 -2.83397,3.46609c-1.32233,0.963 -2.45592,2.11836 -3.40076,3.4661c-1.36824,0.81511 -2.31309,1.97047 -2.83397,3.46609c-1.3229,0.9682 -1.88969,2.31592 -1.70038,4.04377c-0.94484,0.38531 -1.88913,0.77005 -2.83397,1.15537c-1.17893,1.81508 -2.50183,3.54812 -3.96756,5.19914c-0.37805,0 -0.5668,-0.19237 -0.5668,-0.57768c2.87421,-4.12061 5.6141,-8.35734 8.21852,-12.70901c3.40076,-2.69604 6.42348,-5.77683 9.06871,-9.24292c1.1676,-1.60942 2.01779,-3.34247 2.55057,-5.19914c1.4527,0.33967 2.77502,0.91736 3.96756,1.73305z" fill="#1d212d" fill-rule="evenodd"/><path d="M358.11244,176.99309c-0.52089,1.49562 -1.46573,2.65098 -2.83397,3.46609c0.52089,-1.49562 1.46573,-2.65098 2.83397,-3.46609z" fill="#e7ebef" fill-rule="evenodd" opacity="0.051"/><path d="M315.03609,179.8815c3.20409,0.73943 6.41611,0.73943 9.6355,0c0.5668,0.38531 1.13358,0.77005 1.70038,1.15536c-4.34788,0.73828 -8.69292,0.73828 -13.03627,0c0.5668,-0.38531 1.13359,-0.77005 1.70038,-1.15536z" fill="#514841" fill-rule="evenodd"/><path d="M355.27847,180.45919c-0.37805,1.34774 -0.75554,2.69604 -1.13359,4.04377c-0.18874,0 -0.37806,0 -0.5668,0c-0.18931,-1.72785 0.37748,-3.07558 1.70038,-4.04377z" fill="#b4bfc9" fill-rule="evenodd" opacity="0.62"/><path d="M301.99981,201.83344c0,0.83001 0,1.66003 0,2.49006c-0.35582,-0.52866 -0.7918,-0.98692 -1.30585,-1.34181c-0.03292,-0.02273 -0.0662,-0.04617 -0.09981,-0.07024c-0.00403,-0.35919 -0.00781,-0.71853 -0.01133,-1.078c-0.39506,-1.20389 -1.05651,-2.16689 -1.98378,-2.88842c-2.8385,-4.24424 -5.38908,-8.67332 -7.65172,-13.28669c-0.62914,-0.8879 -1.47933,-1.27264 -2.55057,-1.15537c0.09069,-0.98148 -0.0034,-1.94447 -0.28339,-2.88841c-0.23636,-0.72557 -0.70849,-1.11088 -1.41699,-1.15536c-0.52089,-1.49562 -1.46573,-2.65098 -2.83397,-3.46609c-0.78331,-1.67182 -1.9169,-3.11602 -3.40076,-4.33262c-2.17309,-1.73421 -4.25095,-3.56372 -6.23473,-5.48798c-0.14736,-1.21024 -0.80825,-1.9803 -1.98378,-2.31073c-3.00911,0.74059 -5.93773,0.74059 -8.78531,0c2.08693,0.09532 4.16481,-0.00057 6.23474,-0.28884c1.27925,-0.83764 2.60159,-1.5118 3.96756,-2.02189c-0.13376,1.57476 0.33837,2.9225 1.41699,4.04378c4.7231,4.04378 9.06871,8.47287 13.03627,13.2867c4.21695,7.64447 8.84595,14.96197 13.88645,21.95193z" fill="#272737" fill-rule="nonzero"/><path d="M346.20976,190.27979c0,0.38531 0.18875,0.57768 0.5668,0.57768c-1.28379,2.36908 -3.07882,4.29449 -5.38455,5.77683c-0.734,1.61289 -1.58418,3.15299 -2.55057,4.62146c-0.37805,0 -0.5668,0.19237 -0.5668,0.57769c-0.37805,0.19237 -0.75554,0.38531 -1.13359,0.57768c2.05576,-4.75548 5.07847,-8.79926 9.0687,-12.13133z" fill="#544d68" fill-rule="evenodd"/><path d="M337.14106,203.56648c0,1.25836 0,2.51675 0,3.77515c-0.26878,0.37034 -0.54509,0.75984 -0.81553,1.16234c-0.01342,-0.48944 -0.02497,-0.97991 -0.03466,-1.4714c-0.78897,1.35293 -1.26112,1.35293 -1.41699,0c0.47611,-1.35928 1.23221,-2.51465 2.26718,-3.46609z" fill="#33453c" fill-rule="nonzero"/><path d="M301.99981,201.83344c1.4697,4.04666 3.73687,7.60924 6.80153,10.68713c6.68137,3.2252 13.4829,3.41756 20.40459,0.57768c1.9475,-0.73596 3.45914,-1.9878 4.53436,-3.75493c0.34971,-0.06412 0.63311,-0.25649 0.85019,-0.57768c-0.28226,2.23274 -1.5105,3.86932 -3.68416,4.9103c-3.53283,1.37604 -7.21699,2.24256 -11.05249,2.59957c-4.02084,-0.28075 -7.89374,-1.14728 -11.61928,-2.59957c-2.08276,-1.75958 -3.78936,-3.81431 -5.12076,-6.16464c-0.12654,-1.15912 -0.50149,-2.27776 -1.11399,-3.18779c0,-0.83003 0,-1.66005 0,-2.49006z" fill="#2d352d" fill-rule="nonzero"/><path d="M338.84144,201.25575c-0.10591,1.37579 -0.19806,2.75233 -0.27643,4.1296c-0.00671,0.00992 -0.0134,0.0197 -0.02007,0.02938c-0.16916,0.24543 -0.36649,0.51679 -0.58193,0.80942c0.08609,-1.46503 0.18996,-2.9286 0.31164,-4.39072c0,-0.38531 0.18875,-0.57769 0.5668,-0.57769z" fill="#323569" fill-rule="nonzero"/><path d="M338.27465,201.83344c-0.12167,1.46212 -0.22556,2.92569 -0.31165,4.39072c-0.25428,0.34538 -0.53377,0.72041 -0.82194,1.11748c0,-1.25841 0,-2.51679 0,-3.77515c0,-0.38531 0,-0.77005 0,-1.15536c0.37805,-0.19237 0.75554,-0.38531 1.13359,-0.57768z" fill="#152327" fill-rule="nonzero"/></g><g data-paper-data="{&quot;index&quot;:null}" fill="#ff0000" stroke="none" stroke-width="1"><path d="M331.84708,123.10195c-0.24973,0.17328 -0.49757,0.34364 -0.74349,0.51117c0.61991,-0.63747 1.50436,-1.32734 2.05851,-1.69678c0,0 0.14297,-0.09531 0.11284,-0.24643c3.01866,0.17311 4.81024,1.80566 5.37369,4.89815c0.75554,4.04378 0.75554,8.08755 0,12.13133c-0.79918,3.31648 -2.87762,4.85715 -6.23474,4.62146c0.21198,-0.43326 0.21198,-1.01094 0,-1.73304c0.69659,-0.45117 1.45213,-0.74002 2.26718,-0.86653c2.02799,-2.60535 2.78408,-5.58965 2.26717,-8.95408c0.45853,1.0352 0.74193,2.19057 0.85019,3.46609c0.37805,-2.31074 0.37805,-4.62146 0,-6.93219c-0.02097,-1.42919 -0.4931,-2.58455 -1.41698,-3.4661c-0.78615,-1.63253 -1.91973,-2.01784 -3.40077,-1.15536c-0.18874,0 -0.37806,0 -0.5668,0c-0.03401,-0.31369 -0.22275,-0.50605 -0.56679,-0.57769z" fill-rule="nonzero"/><path d="M336.38145,124.835c0,0.19237 0,0.38531 0,0.57768c-0.75554,0 -1.51164,0 -2.26718,0c-0.79691,-0.27324 -1.17497,-0.85092 -1.13359,-1.73304c1.48104,-0.86248 2.61463,-0.47717 3.40077,1.15536z" fill-rule="evenodd"/><path d="M331.84709,123.10195c0.34405,0.07164 0.53278,0.26401 0.56679,0.57769c-0.37804,1.33964 -0.4727,2.68795 -0.28339,4.04377c0.76858,0.50837 1.61877,0.70132 2.55058,0.57769c0.19384,0.4841 0.57132,0.67704 1.13358,0.57768c0.53336,0.89541 0.91084,1.85782 1.13359,2.88841c0.51692,3.36443 -0.23918,6.34873 -2.26717,8.95408c-0.81505,0.12651 -1.57059,0.41536 -2.26718,0.86653c0.21198,0.7221 0.21198,1.29978 0,1.73304c1.13359,1.54068 2.45592,2.88842 3.96756,4.04378c0.76517,0.66434 0.67108,1.04965 -0.2834,1.15537c-0.64501,-0.28249 -1.30646,-0.47487 -1.98378,-0.57769c-0.71643,-1.0225 -1.56663,-1.98549 -2.55058,-2.88841c-3.52092,-6.81203 -3.99306,-13.74422 -1.41698,-20.79657c0.55659,-0.3703 1.12338,-0.75504 1.70038,-1.15537z" fill-rule="evenodd"/><path d="M336.38145,125.41269c0.95164,1.45114 0.76233,2.6065 -0.5668,3.46609c-0.56225,0.09936 -0.93973,-0.09358 -1.13358,-0.57768c0.71699,-1.07276 0.52825,-2.03576 -0.5668,-2.88842c0.75554,0 1.51164,0 2.26718,0z" fill-rule="evenodd"/><path d="M334.11427,125.41268c1.09505,0.85266 1.28379,1.81566 0.5668,2.88842c-0.93181,0.12362 -1.78201,-0.06933 -2.55058,-0.57769c-0.18931,-1.35581 -0.09466,-2.70412 0.28339,-4.04377c0.18874,0 0.37806,0 0.5668,0c-0.04138,0.88212 0.33667,1.45979 1.13359,1.73304z" fill-rule="evenodd"/><path d="M336.38145,124.83498c0.92387,0.88155 1.39601,2.03692 1.41698,3.4661c0.37805,2.31074 0.37805,4.62146 0,6.93219c-0.10826,-1.27552 -0.39166,-2.43089 -0.85019,-3.46609c-0.22275,-1.03058 -0.60024,-1.993 -1.13359,-2.88841c1.32914,-0.85959 1.51844,-2.01495 0.5668,-3.46609c0,-0.19237 0,-0.38531 0,-0.57768z" fill-rule="evenodd"/><path d="M331.28029,132.92255c-0.42169,-1.99301 0.33441,-2.95542 2.26718,-2.88841c1.00209,2.25931 0.24655,3.22231 -2.26718,2.88841z" fill-rule="evenodd"/><path d="M338.64863,126.56806c0.86719,1.84569 1.24467,3.86758 1.13358,6.06566c0.11109,2.19808 -0.26639,4.21996 -1.13358,6.06566c0.75554,-4.04378 0.75554,-8.08755 0,-12.13133z" fill-rule="evenodd"/></g><path d="M301.70086,151.9306c-9.61951,-2.085 -9.49185,-11.63371 -10.13641,-21.45546c0,0 -1.11938,14.81105 9.596,14.49868c11.18202,-0.32597 10.76079,-13.45354 10.79144,-12.98653c0,0 1.658,22.52456 -10.25103,19.94332z" data-paper-data="{&quot;index&quot;:null}" fill="#fae9db" fill-rule="nonzero" stroke="#312d2d" stroke-width="1"/><path d="M338.6607,153.33059c-11.90903,2.58124 -10.25103,-19.94332 -10.25103,-19.94332c0.03065,-0.46701 -0.39058,12.66055 10.79144,12.98653c10.71537,0.31238 9.59599,-14.49868 9.59599,-14.49868c-0.64456,9.82174 -0.51689,19.37047 -10.1364,21.45546z" data-paper-data="{&quot;index&quot;:null}" fill="#fae9db" fill-rule="nonzero" stroke="#312d2d" stroke-width="1"/></g></g></svg>