<svg version="1.1" xmlns="http://www.w3.org/2000/svg" xmlns:xlink="http://www.w3.org/1999/xlink" width="153.07144" height="277.57269" viewBox="0,0,153.07144,277.57269"><g transform="translate(-163.46428,-36.03984)"><g data-paper-data="{&quot;isPaintingLayer&quot;:true}" fill-rule="nonzero" stroke-linejoin="miter" stroke-miterlimit="10" stroke-dasharray="" stroke-dashoffset="0" style="mix-blend-mode: normal"><path d="M206.29232,307.6391l15.14285,-131.8421l37.78325,-0.15789l13.57389,132z" fill="#000000" stroke="#000000" stroke-width="2" stroke-linecap="butt"/><path d="M242.64683,215.79845l5.67771,27.72055l-7.51461,10.85443l-7.68159,-10.52045l5.60621,-27.98305z" fill="#ffffff" stroke="#ffffff" stroke-width="2" stroke-linecap="round"/><path d="M250.16144,203.29927l-7.44708,8.88771l-4.27948,-0.01859l-8.31239,-9.03612z" fill="#ffffff" stroke="#ffffff" stroke-width="2" stroke-linecap="round"/><path d="M175.38223,147.74771c0,-33.30185 28.7599,-60.29833 64.23702,-60.29833c35.47712,0 64.23702,26.99649 64.23702,60.29833c0,33.30185 -28.7599,60.29833 -64.23702,60.29833c-35.47712,0 -64.23702,-26.99649 -64.23702,-60.29833z" fill="#000000" stroke="#000000" stroke-width="2" stroke-linecap="butt"/><path d="M188.93244,148.17717c0,-12.968 10.51265,-23.48065 23.48065,-23.48065c12.968,0 23.48065,10.51265 23.48065,23.48065c0,12.968 -10.51265,23.48065 -23.48065,23.48065c-12.968,0 -23.48065,-10.51265 -23.48065,-23.48065z" fill="#ffffff" stroke="#000000" stroke-width="2" stroke-linecap="butt"/><path d="M195.99783,148.81752c0,-9.12808 7.39976,-16.52784 16.52783,-16.52784c9.12808,0 16.52784,7.39977 16.52784,16.52784c0,9.12808 -7.39977,16.52784 -16.52784,16.52784c-9.12808,0 -16.52783,-7.39977 -16.52783,-16.52784z" fill="#000000" stroke="none" stroke-width="0" stroke-linecap="butt"/><path d="M227.04932,176.79559h25.10959" fill="none" stroke="#000000" stroke-width="2" stroke-linecap="round"/><path d="M266.67152,171.65783c-12.968,0 -23.48065,-10.51265 -23.48065,-23.48065c0,-12.968 10.51265,-23.48065 23.48065,-23.48065c12.968,0 23.48065,10.51265 23.48065,23.48065c0,12.968 -10.51265,23.48065 -23.48065,23.48065z" data-paper-data="{&quot;index&quot;:null}" fill="#ffffff" stroke="#000000" stroke-width="2" stroke-linecap="butt"/><path d="M266.55896,165.39095c-9.12807,0 -16.52783,-7.39977 -16.52783,-16.52784c0,-9.12808 7.39977,-16.52784 16.52783,-16.52784c9.12807,0 16.52783,7.39977 16.52783,16.52784c0,9.12808 -7.39977,16.52784 -16.52783,16.52784z" data-paper-data="{&quot;index&quot;:null}" fill="#000000" stroke="none" stroke-width="0" stroke-linecap="butt"/><path d="M315.53572,107.58934c0,11.69732 -33.8185,21.17989 -75.53572,21.17989c-41.71723,0 -75.53572,-9.48255 -75.53572,-21.17988c0,-11.69732 33.8185,-21.17988 75.53572,-21.17988c41.71723,0 75.53572,9.48255 75.53572,21.17989z" fill="#000000" stroke="#000000" stroke-width="2" stroke-linecap="butt"/><path d="M193.52759,97.62617l0.57654,-38.57998c0,0 11.1085,-9.89048 45.6775,-10.08224c34.91573,-0.19369 47.14524,9.2785 47.14524,9.2785l-0.57654,38.17811z" fill="#000000" stroke="#000000" stroke-width="2" stroke-linecap="round"/><path d="M227.50713,176.65647h25.10959" fill="none" stroke="#000000" stroke-width="2" stroke-linecap="round"/><path d="M179.28375,313.61253v-277.57269h123.18203v277.57269z" fill="none" stroke="none" stroke-width="0" stroke-linecap="butt"/><path d="M189.34743,150.77927c0,-12.96801 10.21991,-26.11531 23.18792,-26.11531c12.96801,0 23.77339,13.1473 23.77339,26.11531c0,0 -5.87479,4.03809 -24.09973,4.6478c-16.46595,0.55086 -22.86157,-4.03119 -22.86157,-4.6478z" fill="#000000" stroke="#000000" stroke-width="2" stroke-linecap="butt"/><path d="M242.94228,151.09543c0,-12.96801 10.21991,-27.28627 23.18792,-27.28627c12.96801,0 23.77339,14.31826 23.77339,27.28627c0,0 -4.54373,3.29499 -22.76867,3.9047c-16.46595,0.55086 -24.19263,-3.28809 -24.19263,-3.9047z" fill="#000000" stroke="#000000" stroke-width="2" stroke-linecap="butt"/></g></g></svg>