<svg version="1.1" xmlns="http://www.w3.org/2000/svg" xmlns:xlink="http://www.w3.org/1999/xlink" width="164.59034" height="291.99225" viewBox="0,0,164.59034,291.99225"><defs><linearGradient x1="240.00007" y1="175.50003" x2="240.00007" y2="307.50003" gradientUnits="userSpaceOnUse" id="color-1"><stop offset="0" stop-color="#000000"/><stop offset="1" stop-color="#1a9138"/></linearGradient><linearGradient x1="240.07699" y1="76.54784" x2="240.07699" y2="192.36341" gradientUnits="userSpaceOnUse" id="color-2"><stop offset="0" stop-color="#000000"/><stop offset="1" stop-color="#1a9138"/></linearGradient><linearGradient x1="212.87084" y1="113.79501" x2="212.87084" y2="160.75631" gradientUnits="userSpaceOnUse" id="color-3"><stop offset="0" stop-color="#ffffff"/><stop offset="1" stop-color="#8c1906"/></linearGradient><linearGradient x1="221.07311" y1="127.23242" x2="204.66857" y2="147.3189" gradientUnits="userSpaceOnUse" id="color-4"><stop offset="0" stop-color="#8c1906"/><stop offset="1" stop-color="#ffffff"/></linearGradient><linearGradient x1="212.87084" y1="106.8698" x2="212.87084" y2="130.89781" gradientUnits="userSpaceOnUse" id="color-5"><stop offset="0" stop-color="#000000"/><stop offset="1" stop-color="#1a9138"/></linearGradient><linearGradient x1="267.12928" y1="113.79501" x2="267.12928" y2="137.81513" gradientUnits="userSpaceOnUse" id="color-6"><stop offset="0" stop-color="#000000"/><stop offset="1" stop-color="#1a9138"/></linearGradient><linearGradient x1="168.70236" y1="114.66321" x2="168.70236" y2="159.99654" gradientUnits="userSpaceOnUse" id="color-7"><stop offset="0" stop-color="#000000"/><stop offset="1" stop-color="#1a9138"/></linearGradient><linearGradient x1="312.18426" y1="114.66322" x2="312.18426" y2="159.99655" gradientUnits="userSpaceOnUse" id="color-8"><stop offset="0" stop-color="#000000"/><stop offset="1" stop-color="#1a9138"/></linearGradient><radialGradient cx="262.66568" cy="154.21723" r="30.77202" gradientUnits="userSpaceOnUse" id="color-9"><stop offset="0" stop-color="#5f0000"/><stop offset="1" stop-color="#4a0000"/></radialGradient></defs><g transform="translate(-158.14814,-21.62026)"><g data-paper-data="{&quot;isPaintingLayer&quot;:true}" fill-rule="nonzero" stroke-linejoin="miter" stroke-miterlimit="10" stroke-dasharray="" stroke-dashoffset="0" style="mix-blend-mode: normal"><path d="M180.54718,313.61251v-267.22501h123.18203v267.22501z" fill-opacity="0.01" fill="#000000" stroke="none" stroke-width="0" stroke-linecap="butt"/><path d="M250.30584,107.02924c0,0 -11.1315,-26.72252 -15.95197,-38.29463c-3.99659,-9.5943 9.12315,-24.64356 9.12315,-24.64356l9.90256,5.61982c0,0 -16.68393,5.57461 -12.8171,14.85739c4.87146,11.69452 16.51286,39.64109 16.51286,39.64109z" fill="#8bd19c" stroke="#000000" stroke-width="0" stroke-linecap="butt"/><path d="M257.47413,56.9536c-9.75703,0 -17.66667,-7.90964 -17.66667,-17.66667c0,-9.75703 7.90964,-17.66667 17.66667,-17.66667c9.75703,0 17.66667,7.90964 17.66667,17.66667c0,9.75703 -7.90964,17.66667 -17.66667,17.66667z" fill="#116025" stroke="#000000" stroke-width="0" stroke-linecap="butt"/><path d="M206.75007,307.50002l15.14285,-131.8421l37.78325,-0.15789l13.57389,132z" fill="url(#color-1)" stroke="#000000" stroke-width="0" stroke-linecap="butt"/><path d="M175.83997,134.45563c0,-31.98158 28.7599,-57.90778 64.23702,-57.90778c35.47712,0 64.23702,25.92621 64.23702,57.90778c0,31.98158 -28.7599,57.90778 -64.23702,57.90778c-35.47712,0 -64.23702,-25.92619 -64.23702,-57.90778z" fill="url(#color-2)" stroke="#000000" stroke-width="0" stroke-linecap="butt"/><path d="M176.56303,131.21418c0,-0.74945 5.20666,57.56773 63.36046,58.61256c55.56352,0.99828 63.51358,-59.66143 63.51358,-58.61255c0,33.77179 -28.40173,61.14924 -63.43702,61.14924c-35.03529,0 -63.43702,-27.37745 -63.43702,-61.14924z" fill="#8e0000" stroke-opacity="0.59608" stroke="#8f0000" stroke-width="14.5" stroke-linecap="butt"/><path d="M189.39019,137.27566c0,-12.968 10.51265,-23.48065 23.48065,-23.48065c12.968,0 23.48065,10.51265 23.48065,23.48065c0,12.968 -10.51265,23.48065 -23.48065,23.48065c-12.968,0 -23.48065,-10.51265 -23.48065,-23.48065z" fill="url(#color-3)" stroke="#000000" stroke-width="0" stroke-linecap="butt"/><path d="M239.30602,160.7563c-12.968,0 4.34259,-10.51265 4.34259,-23.48065c0,-12.968 10.51265,-23.48065 23.48065,-23.48065c12.968,0 23.48065,10.51265 23.48065,23.48065c0,12.968 -38.33589,23.48065 -51.30389,23.48065z" fill="#696969" stroke="#000000" stroke-width="0" stroke-linecap="butt"/><path d="M202.8276,129.07339c4.52999,-5.54672 12.69878,-6.37095 18.24551,-1.84097c5.54672,4.52999 6.37095,12.69878 1.84097,18.24551c-4.52999,5.54672 -12.69878,6.37095 -18.24551,1.84097c-5.54672,-4.52999 -6.37095,-12.69878 -1.84097,-18.24551z" fill="url(#color-4)" stroke="#000000" stroke-width="0" stroke-linecap="butt"/><path d="M189.39019,130.35045c0,-12.968 10.51265,-23.48065 23.48065,-23.48065c12.968,0 23.48065,10.51265 23.48065,23.48065c0,0 -46.96131,1.23155 -46.96131,0z" fill="url(#color-5)" stroke="#000000" stroke-width="0" stroke-linecap="butt"/><path d="M243.64863,137.27566c0,-12.968 10.51265,-23.48065 23.48065,-23.48065c12.968,0 23.48065,10.51265 23.48065,23.48065c0,1.2138 -46.96131,0 -46.96131,0z" fill="url(#color-6)" stroke="#000000" stroke-width="0" stroke-linecap="butt"/><path d="M240.7128,278.60105c63.85944,-3.21783 63.85494,-145.04336 63.85494,-145.04336l8.66374,-8.74633c0,0 1.21627,169.31487 -72.51868,169.09576c-74.10115,-0.22021 -73.48132,-167.63802 -73.48132,-167.63802l7.38022,6.55975c0,0 4.25744,148.88844 66.1011,145.77221z" fill="#8bd19c" stroke="#000000" stroke-width="0" stroke-linecap="butt"/><path d="M158.14814,137.32987c0,-12.51846 9.08054,-22.66667 20.28196,-22.66667c1.01424,0 1.18635,45.33333 0,45.33333c-11.20142,0 -20.28196,-10.14821 -20.28196,-22.66666z" fill="url(#color-7)" stroke="#000000" stroke-width="0" stroke-linecap="butt"/><path d="M173.21877,161.32987v-48.33334h10.14098v48.33334z" fill="#8bd19c" stroke="#000000" stroke-width="0" stroke-linecap="butt"/><path d="M302.45651,159.99655c-1.18635,0 -1.01423,-45.33333 0,-45.33333c11.20142,0 20.28197,10.14821 20.28197,22.66667c0,12.51845 -9.08055,22.66666 -20.28197,22.66666z" fill="url(#color-8)" stroke="#000000" stroke-width="0" stroke-linecap="butt"/><path d="M297.16436,161.32987v-48.33334h10.14098v48.33334z" fill="#8bd19c" stroke="#000000" stroke-width="0" stroke-linecap="butt"/><path d="M257.61574,83.94273l4.83333,21.33333l-23.83333,-11.5l1.33333,11.33334l-23,-18" fill="none" stroke="#000000" stroke-width="0" stroke-linecap="round"/><path d="M202.02786,108.46718c0,0 6.70895,-5.16922 11.79721,-6.36355c5.08827,-1.19433 12.33413,0.69937 12.33413,0.69937c0,0 -8.03812,-0.06028 -11.96762,0.86207c-4.10648,0.96389 -12.16372,4.80211 -12.16372,4.80211z" fill="#000000" stroke="none" stroke-width="0" stroke-linecap="butt"/><path d="M265.96236,103.66508c-3.9295,-0.92235 -11.96762,-0.86207 -11.96762,-0.86207c0,0 7.24586,-1.8937 12.33413,-0.69937c5.08826,1.19433 11.79721,6.36355 11.79721,6.36355c0,0 -8.05724,-3.83822 -12.16372,-4.80211z" fill="#000000" stroke="none" stroke-width="0" stroke-linecap="butt"/><path d="M247.36744,156.3845c0.6941,-0.01327 1.3879,-0.02433 2.08029,-0.02293c0.6689,0.00135 3.72905,0.16887 4.63413,-0.29339c1.73723,-0.88727 3.19968,-2.39731 5.08579,-2.89514c3.13227,-0.82674 7.45445,-0.67011 11.02157,-1.62291c0.34017,-0.24409 0.77868,-0.43263 1.31552,-0.41983c0.77485,-0.29365 1.49595,-0.66108 2.13911,-1.12831c1.5142,-1.1 2.37639,-3.01128 4.00277,-3.93739c1.73429,-0.98756 3.91147,-1.76987 6.00119,-2.41858c0.34742,-0.47264 0.73017,-0.89917 1.16796,-1.25281c0.05626,-0.07461 0.12234,-0.14249 0.20056,-0.20212c0.17901,-0.13646 0.36458,-0.26155 0.55559,-0.37723l-0.10795,-0.12593l1.89886,-1.62759c0.43867,-0.38059 1.01121,-0.61093 1.63756,-0.61093c1.32657,0 2.41181,1.03322 2.49489,2.33882c1.11503,0.79888 1.73755,2.29537 1.91426,4.48774c0.39139,4.85602 -3.37908,5.46212 -6.09277,7.69565c-1.91992,1.58021 -2.57965,5.56053 -3.19974,7.69752c-2.92643,3.54649 -6.14006,8.77702 -11.98828,6.93333c-1.44204,-0.45461 -3.69149,-3.15714 -4.91051,-5.05893c-0.00574,-0.00163 -0.01148,-0.00327 -0.01722,-0.0049c-0.9323,0.15013 -1.85853,0.31271 -2.77322,0.4954c-2.6862,0.53649 -5.18448,2.38935 -7.67598,3.48389c-3.53151,0.7097 -8.94859,1.56746 -12.54589,0.64094c-0.91211,-0.23493 -1.88921,-0.49451 -2.77039,-0.8355c-0.14406,0.02581 -0.29239,0.03929 -0.44388,0.03929h-2.72776v-0.15254c-0.28733,0.02285 -0.5763,0.02393 -0.86737,-0.00275c-1.21416,-0.11128 -2.02537,-1.38942 -2.86646,-2.2721c-3.08834,-3.24111 -4.26886,-8.61776 0.98391,-10.88318c1.25346,-0.54059 2.74218,-0.02662 4.09112,0.18256c2.60088,0.40332 5.14287,1.566 7.76235,2.14985z" fill="url(#color-9)" stroke="none" stroke-width="0" stroke-linecap="butt"/><path d="M243.01713,44.99805c-0.04668,-0.03507 -0.09357,-0.07574 -0.14046,-0.12263c-0.70711,-0.7071 0,-1.41422 0,-1.41422c1.92697,-1.75715 1.70011,-5.55527 3.37028,-7.774c0.68632,-0.91174 1.93255,-1.2589 3.01355,-1.62459c4.89173,-1.65481 10.07037,-1.21978 14.94261,0.03136c2.089,1.39267 4.37947,2.22312 6.43829,3.85413c0.58598,0.46422 1.62712,0.68058 1.73576,1.42022c0.19617,1.3356 -2.98098,2.49237 -3.72686,2.86021c-1.94786,0.96061 -3.3191,2.4588 -5.56957,2.91302c-3.68567,0.7439 -7.82549,0.34261 -11.60057,0.34261c-2.21099,0 -4.42198,0 -6.63297,0h-0.94757c0,0 -0.61825,0 -0.8825,-0.48612zM245.27461,43.48417c2.06852,0 4.13704,0 6.20557,0c4.46654,0 9.69012,0.61508 13.80535,-1.17633c1.15897,-0.50451 2.61926,-1.55442 3.70574,-2.16828c0.18289,-0.10334 0.49337,-0.30588 0.77791,-0.47783c-0.49121,-0.15944 -1.11695,-0.71108 -1.51692,-1.01053c-1.58664,-1.18788 -3.2772,-1.67416 -4.85825,-2.72819c-4.40467,-1.0684 -9.06126,-1.41827 -13.48443,0.03136c-0.7066,0.23158 -1.63274,0.28021 -2.04014,0.90226c-1.34396,2.05209 -1.50856,4.58081 -2.59483,6.62754z" fill="#000000" stroke="none" stroke-width="0" stroke-linecap="butt"/><path d="M247.82095,36.84441c0.4074,-0.62205 1.33622,-0.67853 2.04282,-0.91011c4.42317,-1.44963 9.16894,-1.10456 13.57361,-0.03616c1.58105,1.05403 3.27814,1.56221 4.86478,2.75009c0.39997,0.29945 1.02577,0.85557 1.51698,1.01501c-0.28454,0.17195 -0.59512,0.37667 -0.77801,0.48001c-1.08648,0.61386 -2.55003,1.6782 -3.70901,2.18271c-4.11523,1.79141 -9.42648,1.18672 -13.89302,1.18672c-2.06852,0 -4.14327,-0.01231 -6.2118,-0.01231c1.08627,-2.04673 1.24968,-4.60388 2.59364,-6.65597z" fill="#ff0000" stroke="none" stroke-width="0" stroke-linecap="butt"/><path d="M263.94734,39.28693c0,2.53713 -2.89815,4.59389 -6.4732,4.59389c-3.57505,0 -6.47321,-2.05676 -6.47321,-4.59389c0,-2.53713 2.89816,-4.59388 6.47321,-4.59388c3.57505,0 6.4732,2.05675 6.4732,4.59388z" fill="#000000" stroke="#000000" stroke-width="0" stroke-linecap="butt"/></g></g></svg>