<svg version="1.1" xmlns="http://www.w3.org/2000/svg" xmlns:xlink="http://www.w3.org/1999/xlink" width="435.34021" height="362.30974" viewBox="0,0,435.34021,362.30974"><defs><linearGradient x1="143.19311" y1="295.79463" x2="326.53703" y2="238.90128" gradientUnits="userSpaceOnUse" id="color-1"><stop offset="0" stop-color="#0e0000"/><stop offset="1" stop-color="#000000"/></linearGradient><linearGradient x1="142.62452" y1="295.59183" x2="291.14462" y2="249.50464" gradientUnits="userSpaceOnUse" id="color-2"><stop offset="0" stop-color="#710000"/><stop offset="1" stop-color="#0d0000"/></linearGradient><linearGradient x1="130.99485" y1="299.57986" x2="145.75461" y2="294.99977" gradientUnits="userSpaceOnUse" id="color-3"><stop offset="0" stop-color="#0e0000"/><stop offset="1" stop-color="#000000"/></linearGradient><linearGradient x1="90.35428" y1="227.4676" x2="119.11428" y2="321.94835" gradientUnits="userSpaceOnUse" id="color-4"><stop offset="0" stop-color="#0e0000"/><stop offset="1" stop-color="#000000"/></linearGradient><linearGradient x1="97.60132" y1="247.37252" x2="41.69863" y2="63.72413" gradientUnits="userSpaceOnUse" id="color-5"><stop offset="0" stop-color="#0e0000"/><stop offset="1" stop-color="#000000"/></linearGradient><linearGradient x1="98.08847" y1="247.72905" x2="52.80378" y2="98.9623" gradientUnits="userSpaceOnUse" id="color-6"><stop offset="0" stop-color="#710000"/><stop offset="1" stop-color="#0d0000"/></linearGradient><linearGradient x1="86.85597" y1="263.054" x2="-52.70221" y2="131.23837" gradientUnits="userSpaceOnUse" id="color-7"><stop offset="0" stop-color="#0e0000"/><stop offset="1" stop-color="#000000"/></linearGradient><linearGradient x1="87.45576" y1="263.1223" x2="-25.59514" y2="156.34335" gradientUnits="userSpaceOnUse" id="color-8"><stop offset="0" stop-color="#710000"/><stop offset="1" stop-color="#0d0000"/></linearGradient><linearGradient x1="113.28986" y1="254.93344" x2="155.73421" y2="67.71612" gradientUnits="userSpaceOnUse" id="color-9"><stop offset="0" stop-color="#0e0000"/><stop offset="1" stop-color="#000000"/></linearGradient><linearGradient x1="112.82985" y1="255.32434" x2="147.21244" y2="103.66654" gradientUnits="userSpaceOnUse" id="color-10"><stop offset="0" stop-color="#710000"/><stop offset="1" stop-color="#0d0000"/></linearGradient></defs><g transform="translate(59.36353,-54.99165)"><g data-paper-data="{&quot;isPaintingLayer&quot;:true}" fill-rule="nonzero" stroke-width="4" stroke-linejoin="miter" stroke-miterlimit="10" stroke-dasharray="" stroke-dashoffset="0" style="mix-blend-mode: normal"><path d="M155.89571,336.72991l-24.94396,-82.01368l195.62106,-15.69963z" fill="url(#color-1)" stroke="url(#color-2)" stroke-linecap="round"/><path d="M156.84287,336.436c0,0 6.71411,7.6981 4.49684,8.69648c-1.96767,0.886 -17.14131,-3.00299 -17.14131,-3.00299l-26.4071,-85.09925c0,0 10.25826,-8.92052 12.52293,-9.2032c2.27872,-0.28444 1.1075,7.50182 1.1075,7.50182z" fill="url(#color-3)" stroke="#710000" stroke-linecap="butt"/><path d="M57.49391,289.08797c-7.94185,-26.09013 6.77024,-53.67851 32.86037,-61.62037c26.09014,-7.94186 53.67852,6.77024 61.62038,32.86037c7.94186,26.09014 -1.07617,51.71584 -32.86038,61.62038c-31.82149,9.91615 -53.67852,-6.77025 -61.62037,-32.86038z" fill="url(#color-4)" stroke="#710000" stroke-linecap="butt"/><path d="M41.58314,63.75929l96.88081,170.66982l-81.86589,25.42485z" data-paper-data="{&quot;index&quot;:null}" fill="url(#color-5)" stroke="url(#color-6)" stroke-linecap="round"/><path d="M-52.7851,131.32614l87.30214,64.16073l61.98436,51.836l-39.07597,46.89037l-58.59106,-74.30442z" data-paper-data="{&quot;index&quot;:null}" fill="url(#color-7)" stroke="url(#color-8)" stroke-linecap="round"/><path d="M162.34328,170.06252l-7.25331,94.34749l-57.25889,-17.81837c0,0 8.38072,-32.50351 12.42454,-46.43634c3.26446,-11.2476 8.84966,-30.49119 8.84966,-30.49119l36.74667,-101.92127z" data-paper-data="{&quot;index&quot;:null}" fill="url(#color-9)" stroke="url(#color-10)" stroke-linecap="round"/><g fill="#060000" stroke="#710000"><path d="M93.66838,394.28706c0.13808,-11.59078 9.2103,-20.97471 20.26338,-20.95961c11.05307,0.01511 19.90143,9.42355 19.76335,21.01433c-0.13808,11.59078 -6.34769,20.05302 -20.26338,20.95961c-12.95208,0.84381 -19.90143,-9.42355 -19.76335,-21.01433z" stroke-linecap="butt"/><path d="M130.67625,334.7951c2.14963,19.69862 3.43279,54.89598 3.43279,54.89598l-40.66121,-0.33166c0,0 4.9353,-34.13641 8.87202,-53.37469c4.74372,-23.18201 17.62338,-76.1052 17.62338,-76.1052c0,0 8.21824,51.8708 10.73302,74.91557z" stroke-linecap="round"/></g><g data-paper-data="{&quot;index&quot;:null}" fill="#060000" stroke="#710000"><path d="M373.97667,331.98766c-3.77227,13.42529 -13.33816,17.74531 -24.70567,15.47706c-11.36751,-2.26825 -18.73678,-12.87513 -16.45973,-23.69112c2.27705,-10.81599 13.33816,-17.74531 24.70567,-15.47706c11.36751,2.26825 19.9708,11.19548 16.45973,23.69112z" stroke-linecap="butt"/><path d="M220.58242,306.13119c0,0 54.44359,-1.62621 78.1054,-1.46009c19.63646,0.13786 54.05431,2.38795 54.05431,2.38795l-8.10658,39.8463c0,0 -34.16636,-8.55339 -52.99115,-14.74078c-22.0225,-7.23842 -71.06197,-26.03338 -71.06197,-26.03338z" stroke-linecap="round"/></g><path d="M85.66169,305.44461c-0.30558,-1.00386 0.2605,-2.06537 1.26436,-2.37095c1.00386,-0.30558 2.06537,0.2605 2.37095,1.26436c0.30558,1.00386 -0.2605,2.06537 -1.26436,2.37095c-1.00386,0.30558 -2.06537,-0.2605 -2.37095,-1.26436z" fill="#710000" stroke="#710000" stroke-linecap="butt"/><path d="M112.6487,272.86295c-0.30558,-1.00386 0.2605,-2.06537 1.26436,-2.37095c1.00386,-0.30558 2.06537,0.2605 2.37095,1.26436c0.30558,1.00386 -0.2605,2.06537 -1.26436,2.37095c-1.00386,0.30558 -2.06537,-0.2605 -2.37095,-1.26436z" fill="#710000" stroke="#710000" stroke-linecap="butt"/></g></g></svg>