<svg viewBox="0,0,344.38783,437.43647" height="437.43647" width="344.38783" xmlns:xlink="http://www.w3.org/1999/xlink" xmlns="http://www.w3.org/2000/svg" version="1.1"><defs><linearGradient id="color-1" gradientUnits="userSpaceOnUse" y2="393.96139" x2="256.45854" y1="262.8287" x1="256.45854"><stop stop-color="#ff0000" offset="0"></stop><stop stop-color="#ff2d2d" offset="1"></stop></linearGradient></defs><g transform="translate(-68.13943,35.46138)"><g style="mix-blend-mode: normal" stroke-dashoffset="0" stroke-dasharray="" stroke-miterlimit="10" stroke-linejoin="miter" fill-rule="nonzero" data-paper-data="{&quot;isPaintingLayer&quot;:true}"><path stroke-linecap="round" stroke-width="3" stroke="#000000" fill="#644c2b" d="M269.96366,18.96041c12.55324,0.95682 29.78165,6.91813 41.52541,11.52015c7.78858,3.05211 13.16474,5.50635 13.16474,5.50635c0,0 24.06426,17.49361 31.5956,29.2995c8.0141,12.56262 15.13074,43.94721 15.13074,43.94721c0,0 4.70701,31.24483 11.10884,42.48206c6.76785,11.87973 28.46123,26.97602 28.46123,26.97602c0,0 -1.49724,15.58485 -18.20982,29.43241c-8.88155,7.359 -30.62131,15.18912 -30.62131,15.18912c0,0 20.81067,6.14136 29.68462,28.94859c6.56137,11.75358 9.04353,43.03524 9.04353,43.03524l-42.93771,-5.89341c0,0 29.42347,27.44539 30.50304,50.43449c1.73974,37.04774 -18.71621,39.65052 -18.71621,39.65052l-18.52215,-18.37132c0,0 6.30448,16.56156 7.10023,23.4339c0.74432,6.4283 -48.46969,5.81997 -48.46969,5.81997l-154.6353,3.20599c0,0 -48.62532,4.91253 -53.7039,-12.34485c-9.66853,-32.85435 8.92067,-62.63177 8.92067,-62.63177l-23.9946,33.25569c0,0 -19.36414,-26.73111 -9.55871,-52.73658c10.69397,-28.36202 30.60661,-47.87241 30.60661,-47.87241c0,0 -13.32181,0.79751 -19.43533,2.21926c-5.94948,1.38358 -16.76706,6.19989 -16.76706,6.19989c0,0 -7.30202,-15.78999 9.3149,-44.54256c10.56293,-18.27722 31.09708,-27.86222 31.09708,-27.86222c0,0 -14.64734,-1.92168 -22.76163,-10.9218c-12.75646,-14.14911 -8.81023,-29.91111 -8.81023,-29.91111c0,0 11.18959,1.51541 20.54101,-6.24538c0.81937,-0.67999 6.29063,-2.03159 8.97279,-17.32008c3.85992,-22.0016 -2.3582,-54.88996 23.81461,-79.24208c30.76331,-28.6233 86.85064,-13.52769 86.85064,-13.52769c0,0 27.05075,-12.86003 49.70738,-11.1331z"></path><path stroke-linecap="round" stroke-width="3" stroke="#000000" fill="#fecab9" data-paper-data="{&quot;index&quot;:null}" d="M347.2462,196.32524c3.23167,-10.32338 -7.86672,-21.70665 -7.86672,-21.70665c0,0 31.61298,-12.51632 28.28407,27.17753c-2.36793,28.2353 -34.77187,15.23265 -34.77187,15.23265c0,0 11.12285,-10.38014 14.35452,-20.70352z"></path><path stroke-linecap="round" stroke-width="3" stroke="#000000" fill="#fecab9" d="M135.55462,193.99191c3.23167,10.32338 14.35452,20.70352 14.35452,20.70352c0,0 -32.40394,13.00265 -34.77187,-15.23265c-3.32891,-39.69385 28.28407,-27.17753 28.28407,-27.17753c0,0 -11.09839,11.38327 -7.86672,21.70665z"></path><path stroke-linecap="round" stroke-width="3" stroke="#000000" fill="#ffeee3" d="M196.29697,269.41967c0,0 5.11085,39.26456 4.40896,61.63712c-0.51919,16.54924 -6.21195,67.28274 -6.21195,67.28274l-38.16338,0.13061c0,0 -2.19094,-57.46915 -1.42002,-73.99428c1.3937,-29.87496 8.61181,-47.53908 8.61181,-47.53908c0,0 5.08404,-12.17897 16.19514,-12.13727c7.3537,0.02759 16.57946,4.62014 16.57946,4.62014z"></path><path stroke-linecap="round" stroke-width="3" stroke="#000000" fill="#ffeee3" data-paper-data="{&quot;index&quot;:null}" d="M271.72134,271.41965c0,0 9.22576,-4.59255 16.57946,-4.62014c11.1111,-0.0417 16.19514,12.13727 16.19514,12.13727c0,0 7.21811,17.66412 8.61181,47.53908c0.77092,16.52513 -1.42002,73.99428 -1.42002,73.99428l-38.16338,-0.13061c0,0 -5.69276,-50.7335 -6.21195,-67.28274c-0.70189,-22.37256 4.40896,-61.63712 4.40896,-61.63712z"></path><g><g stroke-linecap="round"><g stroke-width="3" stroke="#000000" fill="url(#color-1)"><path d="M186.55568,394.46139l6.52817,-31.81761c0,0 -30.34877,-2.62074 -29.99462,-32.42721c-0.10954,-27.74107 27.10084,-46.11089 27.10084,-46.11089l6.19867,-19.27697l-0.7144,-27.63502c0,0 29.54215,4.42052 39.86503,5.37228c10.95533,1.01006 40.671,1.37924 40.671,1.37924l-1.9754,23.60691l6.94682,18.44764c0,0 30.9334,25.9143 30.33883,48.06223c-0.90756,33.80616 -29.22836,35.06223 -29.22836,35.06223l5.50083,25.50329"></path></g><path stroke-width="0" stroke="none" fill="#cc1f1f" d="M197.27827,238.37117c0,0 26.35797,4.00867 38.93572,5.39127c11.82414,1.29976 38.80671,1.11553 38.80671,1.11553l-1.79004,18.71989c-3.81235,-0.4333 -19.73635,-5.06873 -38.49413,-6.99032c-18.10012,-1.85422 -34.92047,0.60295 -37.3142,-0.36941z"></path></g><path stroke-linecap="butt" stroke-width="NaN" stroke="none" fill="#cc1f1f" d="M305.16667,351.49791c0.2,2.25585 -9.83073,24.15429 -59.16667,19.33334c-42.6903,-4.17156 -75.46667,-12.84415 -75.86667,-22.3c-0.31511,-7.44918 26.45192,-16.16667 68.03333,-14.36667c33.74981,1.46098 66.34156,9.90661 67,17.33333z"></path></g><g><path stroke-linecap="round" stroke-width="3" stroke="#000000" fill="#feeddd" d="M140.69279,169.91345c0,0 8.20148,-74.89022 101.85289,-70.66766c119.3582,5.38164 103.64331,67.42195 103.64331,67.42195l-0.57244,11.01263c0,0 3.40224,11.31982 3.2895,22.3478c-1.85968,32.8766 -47.10043,62.15031 -138.85383,49.69681c-70.56961,-7.71313 -79.51536,-52.34298 -73.8594,-65.6449c4.86277,-11.43647 4.49998,-14.16663 4.49998,-14.16663z"></path><path stroke-linecap="butt" stroke-width="0" stroke="none" fill="#fecab9" d="M344.38201,179.03393c0,0 -60.15563,12.11323 -100.50012,10.7652c-40.34449,-1.34802 -102.27106,-15.4367 -102.27106,-15.4367c0,0 4.07186,-75.33793 101.01858,-73.4913c126.51386,2.40982 101.7526,78.1628 101.7526,78.1628z"></path></g><path stroke-linecap="round" stroke-width="3" stroke="#000000" fill="#644c2b" d="M130.12411,93.88047l111.55389,-46.72634l71.56287,35.78143c0,0 19.81741,29.52393 24.78927,43.80033c4.84733,13.91875 14.1238,41.92354 14.1238,41.92354c0,0 -35.19954,3.17681 -42.52438,-2.70645c-14.18451,-11.39288 -46.06176,-61.96951 -46.06176,-61.96951l8.41916,56.82934l-13.0497,27.78323l-8.84011,-25.67844l-69.87902,-41.67484l-9.68204,66.93233c0,0 -28.69738,-7.88617 -34.73628,-21.97692c-2.0941,-4.88626 -7.66049,-0.81432 -8.53153,-20.00657c-1.01327,-22.32621 2.85584,-52.3111 2.85584,-52.3111z"></path><path stroke-linecap="butt" stroke-width="0" stroke="none" fill="#644c2b" d="M122.59923,163.80486l4.20959,-86.82259l131.0232,-39.99101c0,0 43.98786,32.36867 55.70333,41.76005c5.73356,4.59615 10.58678,11.37957 10.58678,11.37957l27.89786,43.16296l2.50373,34.49703l-8.22102,-1.13478c0,0 -6.78785,-11.8911 -10.69851,-14.91776c-34.66005,-26.82519 -100.34961,-76.29484 -100.34961,-76.29484l-57.33429,43.22875l-41.11369,46.18505z"></path><path stroke-linecap="round" stroke-width="3" stroke="#000000" fill="#664e2c" d="M213.47382,28.21104c0,0 -7.17081,0.3169 -18.23307,-20.43326c-6.09871,-11.43972 1.8157,-39.76375 1.8157,-39.76375c0,0 14.92736,-3.40819 25.35594,-1.27119c7.83934,1.60641 20.52848,11.79515 20.52848,11.79515c0,0 -14.52089,18.50968 -18.54994,27.31389c-3.46179,7.56462 -4.1818,22.35916 -4.1818,22.35916z"></path><path stroke-linecap="round" stroke-width="3" stroke="#000000" fill="none" d="M220.64701,26.91435c0,0 6.44863,-16.48724 13.86862,-24.66712c7.41998,-8.17988 14.73964,-6.87094 14.73964,-6.87094"></path><g stroke-width="1" stroke="#000000" fill="#000000"><path stroke-linecap="butt" d="M226.88149,172.2716c-8.73965,20.51413 -25.29445,36.89915 -40.25093,33.868c-14.95648,-3.03115 -22.65093,-24.33062 -13.91128,-44.84477c8.73965,-20.51413 16.73813,-48.02325 38.48115,-44.48683c15.84375,2.57693 24.42073,34.94945 15.68109,55.4636z"></path><path stroke-linecap="round" d="M171.4835,163.02239c0,0 -9.90458,-5.72045 -10.04541,-17.99705c-0.21481,-18.7279 15.35483,-35.98199 15.35483,-35.98199l4.42451,32.29893z"></path></g><g stroke-width="1" stroke="#000000" fill="#000000"><path stroke-linecap="butt" d="M313.51031,178.57867c0,21.13707 -10.69699,38.27202 -23.89236,38.27202c-13.19538,0 -23.89236,-17.13496 -23.89236,-38.27202c0,-21.13707 10.69698,-38.27203 23.89236,-38.27203c13.1954,0 23.89236,17.13496 23.89236,38.27203z"></path><path stroke-linecap="round" d="M310.41315,169.06598l20.35274,-5.30942c0,0 2.2377,10.73241 -6.76065,18.1582c-3.7423,3.08829 -11.82229,6.61907 -11.82229,6.61907z"></path></g><path stroke-linecap="round" stroke-width="3" stroke="#000000" fill="none" d="M258.23558,227.95136c0,0 -5.70028,4.92417 -17.14153,2.15516c-9.18025,-2.3995 -18.10364,-10.66442 -18.10364,-10.66442c0,0 -11.25518,6.89162 -20.91921,5.12814c-10.7715,-1.67136 -15.93306,-11.37116 -15.93306,-11.37116"></path></g></g></svg>