<svg version="1.1" xmlns="http://www.w3.org/2000/svg" xmlns:xlink="http://www.w3.org/1999/xlink" width="141.51623" height="267.22501" viewBox="0,0,141.51623,267.22501"><defs><linearGradient x1="240.00003" y1="175.50001" x2="240.00003" y2="307.50001" gradientUnits="userSpaceOnUse" id="color-1"><stop offset="0" stop-color="#1a110e"/><stop offset="1" stop-color="#5d3d27"/></linearGradient><linearGradient x1="241.01904" y1="84.00003" x2="247.49826" y2="211.07549" gradientUnits="userSpaceOnUse" id="color-2"><stop offset="0" stop-color="#19110c"/><stop offset="1" stop-color="#714a2f"/></linearGradient><radialGradient cx="305.741" cy="153.70011" r="11.00094" gradientUnits="userSpaceOnUse" id="color-3"><stop offset="0" stop-color="#ffe902"/><stop offset="1" stop-color="#6a6101"/></radialGradient></defs><g transform="translate(-175.34183,-46.38751)"><g data-paper-data="{&quot;isPaintingLayer&quot;:true}" fill-rule="nonzero" stroke-linejoin="miter" stroke-miterlimit="10" stroke-dasharray="" stroke-dashoffset="0" style="mix-blend-mode: normal"><path d="M179.28373,313.61252v-267.22501h123.18203v267.22501z" fill-opacity="0.01" fill="#000000" stroke="none" stroke-width="0" stroke-linecap="butt"/><path d="M206.75004,307.5l15.14285,-131.8421l37.78325,-0.15789l13.57389,132z" fill="url(#color-1)" stroke="#000000" stroke-width="0" stroke-linecap="butt"/><g><g><path d="M176.57062,150.98899c-1.7892,-35.09092 27.06535,-65.0829 64.4484,-66.98897c37.38306,-1.90605 69.13845,24.9956 70.92764,60.0865c1.7892,35.09092 -27.06535,65.0829 -64.4484,66.98897c-37.38306,1.90605 -69.13845,-24.9956 -70.92764,-60.0865z" fill="url(#color-2)" stroke="#000000" stroke-width="0" stroke-linecap="butt"/><path d="M203.95124,122.26689c0,0 5.01199,-1.52443 10.3959,-2.76102c7.32366,-1.68214 11.34236,-0.70154 11.34236,-0.70154l6.133,60.11158c0,0 -5.27009,1.83818 -8.22622,1.98891c-3.81633,0.19458 -13.19461,-0.89671 -13.19461,-0.89671z" fill="none" stroke="#36251c" stroke-width="2.5" stroke-linecap="round"/><path d="M272.83431,115.28709c5.87022,0.19536 7.52011,1.1224 7.52011,1.1224l2.09878,58.35543c0,0 -6.86833,1.13494 -10.01476,1.29537c-2.78349,0.14193 -7.90878,-0.38149 -7.90878,-0.38149l-0.01276,-60.42363c0,0 4.38397,-0.09899 8.31741,0.03191z" fill="none" stroke="#36251c" stroke-width="2.5" stroke-linecap="round"/><path d="M183.12371,131.52472l0.42938,-2.65816" fill="none" stroke="#000000" stroke-width="1.5" stroke-linecap="round"/><path d="M186.78799,133.22094l-3.15829,-2.85184" fill="none" stroke="#000000" stroke-width="1.5" stroke-linecap="round"/><path d="M180.96938,137.28371l2.43205,-0.31232l1.55999,1.05029" fill="none" stroke="#000000" stroke-width="1.5" stroke-linecap="round"/><path d="M177.86053,146.48084l2.52408,-2.20005l-0.4198,2.84597l1.13648,0.13036l0.13407,2.62943l2.08513,0.27029" fill="none" stroke="#000000" stroke-width="1.5" stroke-linecap="round"/><path d="M178.20527,153.24224l1.47381,-0.64005l1.80526,2.16761" fill="none" stroke="#000000" stroke-width="1.5" stroke-linecap="round"/><path d="M179.81099,162.57561l-0.25115,2.46076l-1.29556,0.44266" fill="none" stroke="#000000" stroke-width="1.5" stroke-linecap="round"/><path d="M180.17489,169.71265l1.66161,-0.64965l1.20352,1.44508" fill="none" stroke="#000000" stroke-width="1.5" stroke-linecap="round"/><path d="M189.5577,180.15593l-1.37218,-1.05987l-3.97288,-0.36235l1.79198,-1.78611l0.6555,-1.91646l0.05375,-2.639l-0.10534,-2.06598l2.6736,-2.9609" fill="none" stroke="#000000" stroke-width="1.5" stroke-linecap="round"/><path d="M186.05622,181.65257l0.84332,-1.92605" fill="none" stroke="#000000" stroke-width="1.5" stroke-linecap="round"/><path d="M294.87021,157.04206c-0.30938,-6.06776 4.35871,-11.23747 10.42648,-11.54684c6.06777,-0.30938 11.23747,4.35871 11.54684,10.42648c0.30938,6.06776 -4.35871,11.23747 -10.42648,11.54684c-6.06777,0.30938 -11.23747,-4.35871 -11.54684,-10.42648z" fill="url(#color-3)" stroke="#f6c002" stroke-width="0" stroke-linecap="butt"/><path d="M184.22958,173.21269c0,0 1.50843,3.17223 2.40968,4.52592c0.7422,1.11481 2.61386,3.01956 2.61386,3.01956l-3.26841,2.06434c0,0 -1.85737,-2.58856 -2.53264,-3.8481c-0.64365,-1.20056 -1.42863,-3.54068 -1.42863,-3.54068z" fill="#b4b3b4" stroke="#b6b4b2" stroke-width="0.5" stroke-linecap="round"/><path d="M179.18877,169.46349c0,0 -1.25862,-2.78786 -1.64977,-4.15979c-0.37877,-1.3285 -0.66121,-3.94572 -0.66121,-3.94572l3.63607,-0.75821c0,0 0.03662,2.81575 0.34029,4.1795c0.29522,1.32583 1.45706,3.89245 1.45706,3.89245l-3.12245,0.79176z" fill="#b4b3b4" stroke="#b6b4b2" stroke-width="0.5" stroke-linecap="round"/><path d="M178.92363,143.33103c0,0 -0.29621,3.18233 -0.25586,4.70117c0.03547,1.33521 0.48519,3.93218 0.48519,3.93218l-3.36493,0.17156c0,0 -0.21769,-0.15899 -0.42961,-4.63191c-0.14277,-3.01338 0.21098,-3.79113 0.21098,-3.79113z" fill="#b4b3b4" stroke="#b6b4b2" stroke-width="0.5" stroke-linecap="round"/><path d="M235.83325,91.20256c1.14763,-0.56734 3.20701,-2.81748 4.50651,-2.93478c1.6441,-0.85434 3.51872,-2.35935 4.86859,-3.28152c0.10182,-0.11277 0.19081,-0.23734 0.27061,-0.36735c0.00808,-0.20216 0.21849,-0.21289 0.21849,-0.21289c1.10171,-0.05618 3.59325,-0.29567 4.31047,0.75391c0.01809,0.01723 0.03127,0.03584 0.04067,0.05488l0.0782,0.05647c0,0 0.17095,0.15436 0.01658,0.32532c-0.07468,0.08269 -0.15324,0.08926 -0.21443,0.074c-0.86128,1.72205 -2.26719,2.19608 -3.9047,3.12194c-1.20714,0.65383 -5.10478,1.53847 -5.69383,2.81715c-1.84578,0.79851 -3.54204,2.76731 -5.24332,3.01057c-0.35698,0.00735 -0.60484,0.22666 -0.83444,0.48545c0.67983,0.73969 3.71197,0.95367 4.61583,0.90759c1.92326,-0.05958 5.01425,0.08483 6.78333,0.8232c2.29908,0.63561 5.12673,-0.06099 7.30321,0.89568c1.43159,-0.09075 6.30081,0.14432 6.41811,1.94434c0.05262,1.69823 -4.42481,2.51127 -5.69244,2.565c-0.65496,0.25607 -1.62388,0.3247 -2.36271,0.37543c-0.03838,0.08927 -0.13456,0.12687 -0.13456,0.12687c-1.71377,0.66708 -3.55454,1.56349 -5.14111,2.44285c-1.51057,0.07702 -3.02557,1.69076 -4.32121,2.38399c-0.36943,0.19766 -0.40134,0.74959 -0.94322,0.66183c-0.08987,0.32368 -1.86806,1.9286 -0.88044,2.25359l0.11458,0.18792c1.59388,0.00989 3.34256,1.0007 4.86715,1.42152c2.38636,0.66606 4.30999,1.27438 6.82135,1.18186c0.45597,0.19964 1.05797,-0.002 1.34114,0.57959c0.55475,1.13941 -0.76618,1.18301 -0.78019,1.91926c-0.02021,1.06273 0.86702,1.98536 -0.69463,2.75739c-0.74256,1.69589 -2.10301,3.12286 -2.90301,4.94996c-0.86165,1.96792 -1.21876,3.97305 -2.00422,5.85968c-0.2229,0.47451 -0.31184,1.49691 -0.0275,1.97017l0.02197,0.13977c0.67111,1.20646 1.24343,4.23448 1.28873,5.01432c0.05992,1.17509 1.13104,3.76468 0.17516,4.76013c-0.5477,0.57037 -1.09423,0.36201 -1.4728,1.22659c-1.98899,1.16095 -3.60338,-0.64432 -5.69209,-0.53784c-0.17292,0.00882 -0.34582,0.01764 -0.51874,0.02645c0.418,0.27526 0.97821,0.9252 1.40309,1.27127c0.18486,-0.08392 0.28879,0.09991 0.28879,0.09991c0.01169,0.03666 0.02566,0.07284 0.04178,0.10859c0.05373,0.01848 0.10144,0.02301 0.14184,0.01045l0.30021,0.1802c0,0 0.17095,0.15436 0.01658,0.32532c-0.00977,0.01082 -0.01962,0.02036 -0.02948,0.02868c0.99268,0.88619 3.13074,1.56116 3.74871,2.65412c1.66115,0.62004 3.64748,2.58106 3.74548,4.50315c-1.16301,2.55977 -4.75742,0.37454 -5.57,-1.26918c-0.12086,-0.05292 -0.20628,-0.1095 -0.27396,-0.17591c0.45128,1.20731 1.79307,2.17347 1.88095,3.89714c0.03886,0.76222 0.89941,2.03838 0.61239,2.64891c-0.95358,2.02835 -2.64997,-1.08277 -2.93224,-1.58203c-0.12691,-2.02211 -2.38728,-3.22783 -2.46108,-5.61004c0.3012,-0.72342 1.00488,-1.12841 0.79457,-1.98164c-0.28324,-1.14912 -2.13972,-1.42867 -2.57866,-2.41215c-1.40019,0.0714 -4.11069,-3.6646 -3.45101,-4.95035c2.28222,-0.32631 4.56546,-0.5231 6.86962,-0.64059c0.56007,-0.02856 1.12013,-0.05711 1.6802,-0.08566c-0.0161,-0.10527 0.06175,-0.1915 0.06175,-0.1915l0.06202,0.03197c-0.06723,-1.31866 -0.13447,-2.63733 -0.2017,-3.95597c-0.11427,-2.24095 0.43306,-4.67609 0.2943,-6.833c0.63083,-2.31041 0.23048,-4.68422 1.20444,-6.90865c0.27877,-0.59342 2.1609,-4.17185 1.03385,-4.06961c-0.00724,0.00094 -0.01146,0.00116 -0.01146,0.00116c-1.2623,0.06436 -1.72386,-0.59671 -2.77857,-0.76011c-0.80705,-0.12503 -1.27492,0.57678 -2.03767,0.61568c-0.19282,0.05275 0.50606,2.08425 0.42656,2.49361c-0.21169,1.08995 -0.94495,2.59244 -0.83871,3.62519c-0.51525,1.23756 0.1754,3.0904 -0.59057,4.2062c-0.69785,1.01659 -1.59952,1.25457 -2.19472,0.15797c-0.13967,-2.14347 0.42846,-4.86647 1.20969,-6.74296c1.00935,-2.30527 -0.78614,-3.86123 1.12195,-5.97434c0.05595,-0.13206 -4.31668,-1.55238 -5.27321,-1.83103c-0.81447,-0.72305 -2.42756,-2.058 -1.7849,-3.42503c0.26296,-0.55935 1.73192,-0.80478 2.21235,-1.09344c1.88323,-1.06478 2.79633,-2.26332 4.66246,-3.2892c0.57947,-0.64173 1.98235,-1.44171 2.82459,-1.58362c1.33111,-0.67692 2.80218,-1.20337 4.18969,-1.99179c0.41765,-0.23524 0.70213,-0.59128 1.10947,-0.82424c0.00879,-0.00504 0.01844,-0.01057 0.02878,-0.01654c-0.4873,0.06559 -1.16473,0.02803 -1.35919,0.00424c-0.90471,-0.11074 -1.84016,-0.80265 -2.75284,-0.75612c-2.21186,-0.92848 -4.73143,-0.31981 -6.84803,-1.31411c-2.05633,0.12274 -4.06029,-1.43247 -6.08237,-1.35315c-3.20974,-1.33635 -0.75595,-3.39155 1.00249,-4.44813c0.78945,-0.44636 1.59992,-0.8032 2.39044,-1.22557c-0.10656,-0.19702 0.09022,-0.30829 0.09022,-0.30829z" fill="#000000" stroke="none" stroke-width="0.5" stroke-linecap="butt"/><path d="M176.4582,136.07682c0,0 0.6067,-5.21758 2.55828,-7.72121c1.95158,-2.50362 2.07075,-0.71834 3.77481,-0.40332c1.70407,0.31502 0.91165,0.50307 0.69527,1.22967c-0.21638,0.72662 -3.75578,9.04739 -3.75578,9.04739z" fill="#b4b3b4" stroke="#b6b4b2" stroke-width="0.5" stroke-linecap="round"/><path d="M254.12682,83.60655c0.01735,-0.03214 0.03347,-0.06382 0.04818,-0.09494c0.00099,0.02824 -0.01629,0.06017 -0.04818,0.09494z" fill-opacity="0.43044" fill="#9966ff" stroke="none" stroke-width="0.5" stroke-linecap="butt"/></g><path d="M190.85395,150.36228c-0.69673,-13.66467 9.81589,-25.30691 23.48057,-26.00363c13.66467,-0.69673 25.30691,9.81589 26.00363,23.48057c0.69673,13.66467 -9.81589,25.30691 -23.48057,26.00363c-13.66467,0.69673 -25.30691,-9.81589 -26.00363,-23.48057z" fill="#b6b6b6" stroke="#000000" stroke-width="0" stroke-linecap="butt"/><path d="M274.03097,170.92772c-13.66467,0.69673 -25.30691,-9.81589 -26.00363,-23.48057c-0.69673,-13.66467 9.81589,-25.30691 23.48057,-26.00363c13.66467,-0.69673 25.30691,9.81589 26.00363,23.48057c0.69673,13.66467 -9.81589,25.30691 -23.48057,26.00363z" data-paper-data="{&quot;index&quot;:null}" fill="#b6b6b6" stroke="#000000" stroke-width="0" stroke-linecap="butt"/><path d="M204.99581,149.64123c-0.2985,-5.85435 4.2054,-10.84222 10.05976,-11.14071c5.85435,-0.2985 10.84222,4.2054 11.14072,10.05976c0.2985,5.85435 -4.20541,10.84222 -10.05977,11.14071c-5.85435,0.2985 -10.84221,-4.20541 -11.14071,-10.05976z" fill="none" stroke="#ffffff" stroke-width="2" stroke-linecap="butt"/><path d="M273.30992,156.78587c-5.85435,0.2985 -10.84222,-4.2054 -11.14072,-10.05976c-0.2985,-5.85435 4.20542,-10.84222 10.05977,-11.14071c5.85435,-0.2985 10.84221,4.20541 11.14071,10.05976c0.2985,5.85435 -4.20541,10.84222 -10.05976,11.14071z" data-paper-data="{&quot;index&quot;:null}" fill="none" stroke="#ffffff" stroke-width="2" stroke-linecap="butt"/><path d="M238.26188,209.17062c0,0 -0.58414,-3.78532 9.14481,-4.48344c9.40166,-0.67464 8.88561,3.56412 8.88561,3.56412l-18.03039,0.91932z" fill="#000000" stroke="#000000" stroke-width="1.5" stroke-linecap="round"/></g></g></g></svg>