<svg version="1.1" xmlns="http://www.w3.org/2000/svg" xmlns:xlink="http://www.w3.org/1999/xlink" width="34.67311" height="34.17311" viewBox="0,0,34.67311,34.17311"><g transform="translate(-222.66348,-162.91346)"><g data-paper-data="{&quot;isPaintingLayer&quot;:true}" stroke-miterlimit="10" stroke-dasharray="" stroke-dashoffset="0" style="mix-blend-mode: normal"><path d="M229.98314,162.91347h20.03378c3.9166,0 7.06966,3.15307 7.06966,7.06966v20.03379c0,3.91659 -3.15306,7.06966 -7.06966,7.06966h-20.03378c-3.91659,0 -7.06967,-3.15307 -7.06967,-7.06966v-20.03379c0,-3.91659 3.15308,-7.06966 7.06967,-7.06966z" fill-opacity="0.09677" fill="#191919" fill-rule="evenodd" stroke="none" stroke-width="4.43922" stroke-linecap="round" stroke-linejoin="round"/><path d="M230.40391,183.85893c-2.82715,-3.3707 0,-10.29111 0,-10.29111c0,0 1.28775,4.06417 2.98648,6.50916c1.69873,2.44499 4.82931,2.80932 4.82931,2.80932c0,0 -4.98864,4.34334 -7.81579,0.97263z" data-paper-data="{&quot;index&quot;:null}" fill="#000000" fill-rule="nonzero" stroke="#ffffff" stroke-width="0.5" stroke-linecap="butt" stroke-linejoin="miter"/><g fill="#000000" fill-rule="nonzero" stroke="#ffffff" stroke-width="0.5" stroke-linecap="butt" stroke-linejoin="miter"><path d="M234.35468,183.94801c0,1.16923 -2.13769,2.11707 -4.77467,2.11707c-2.63698,0 -4.77468,-0.94784 -4.77468,-2.11707c0,-1.16923 2.1377,-2.11707 4.77468,-2.11707c2.63698,0 4.77468,0.94785 4.77468,2.11707z"/><path d="M228.49895,184.91646c0,0.53486 -1.11926,0.96845 -2.49994,0.96845c-1.38068,0 -2.49994,-0.43358 -2.49994,-0.96845c0,-0.53486 1.11926,-0.96845 2.49994,-0.96845c1.38068,0 2.49994,0.43359 2.49994,0.96845z"/><path d="M233.79163,184.48853c1.23142,0 2.22969,0.363 2.22969,0.81079c0,0.44779 -0.99827,0.8108 -2.22969,0.8108c-1.23142,0 -2.22968,-0.36301 -2.22968,-0.8108c0,-0.44779 0.99826,-0.81079 2.22968,-0.81079z"/><path d="M229.58001,186.42542c-3.68182,0 -6.66653,-0.22183 -6.66653,-0.49549c0,-0.27365 2.98471,-0.49549 6.66653,-0.49549c3.68182,0 6.66652,0.22183 6.66652,0.49549c0,0.27365 -2.9847,0.49549 -6.66652,0.49549z"/></g><path d="M241.61854,183.17458c0,0 3.13058,-0.36434 4.82931,-2.80933c1.69873,-2.44499 2.98648,-6.50915 2.98648,-6.50915c0,0 2.82715,6.92041 0,10.29112c-2.82715,3.3707 -7.81579,-0.97264 -7.81579,-0.97264z" data-paper-data="{&quot;index&quot;:null}" fill="#000000" fill-rule="nonzero" stroke="#ffffff" stroke-width="0.5" stroke-linecap="butt" stroke-linejoin="miter"/><g fill="#000000" fill-rule="nonzero" stroke="#ffffff" stroke-width="0.5" stroke-linecap="butt" stroke-linejoin="miter"><path d="M255.19475,183.95483c0,1.16923 -2.1377,2.11707 -4.77468,2.11707c-2.63698,0 -4.77467,-0.94784 -4.77467,-2.11707c0,-1.16923 2.1377,-2.11707 4.77468,-2.11707c2.63698,0 4.77467,0.94785 4.77467,2.11707z"/><path d="M249.33902,184.92328c0,0.53486 -1.11927,0.96845 -2.49995,0.96845c-1.38068,0 -2.49994,-0.43359 -2.49994,-0.96845c0,-0.53486 1.11926,-0.96845 2.49994,-0.96845c1.38068,0 2.49995,0.43359 2.49995,0.96845z"/><path d="M254.6317,184.49537c1.23142,0 2.22968,0.36301 2.22968,0.8108c0,0.44779 -0.99826,0.81079 -2.22968,0.81079c-1.23142,0 -2.22968,-0.363 -2.22968,-0.81079c0,-0.44779 0.99827,-0.8108 2.22968,-0.8108z"/><path d="M250.42007,186.43226c-3.68182,0 -6.66653,-0.22183 -6.66653,-0.49548c0,-0.27365 2.98471,-0.49549 6.66653,-0.49549c3.68182,0 6.66652,0.22184 6.66652,0.49549c0,0.27365 -2.9847,0.49548 -6.66652,0.49548z"/></g></g></g></svg>