<svg version="1.1" xmlns="http://www.w3.org/2000/svg" xmlns:xlink="http://www.w3.org/1999/xlink" width="137.3726" height="253.24605" viewBox="0,0,137.3726,253.24605"><defs><linearGradient x1="319.92305" y1="175.45919" x2="319.92305" y2="307.45913" gradientUnits="userSpaceOnUse" id="color-1"><stop offset="0" stop-color="#4c7b64"/><stop offset="1" stop-color="#2b2b2b"/></linearGradient><linearGradient x1="320.08155" y1="221.49564" x2="320.08155" y2="308.14565" gradientUnits="userSpaceOnUse" id="color-2"><stop offset="0" stop-color="#6b6dd3"/><stop offset="1" stop-color="#000000"/></linearGradient><linearGradient x1="355.96014" y1="194.55739" x2="355.96014" y2="302.11987" gradientUnits="userSpaceOnUse" id="color-3"><stop offset="0" stop-color="#4b7b64"/><stop offset="1" stop-color="#000000"/></linearGradient><linearGradient x1="284.13221" y1="194.46851" x2="284.13221" y2="302.02621" gradientUnits="userSpaceOnUse" id="color-4"><stop offset="0" stop-color="#4b7b64"/><stop offset="1" stop-color="#000000"/></linearGradient><linearGradient x1="310.69678" y1="82.06457" x2="326.78359" y2="201.09607" gradientUnits="userSpaceOnUse" id="color-5"><stop offset="0" stop-color="#000000"/><stop offset="1" stop-color="#ffdac9"/></linearGradient><linearGradient x1="318.6369" y1="141.39168" x2="326.59387" y2="200.26789" gradientUnits="userSpaceOnUse" id="color-6"><stop offset="0" stop-color="#000000"/><stop offset="1" stop-color="#7e647b"/></linearGradient><linearGradient x1="344.20508" y1="114.48408" x2="344.20508" y2="166.31857" gradientUnits="userSpaceOnUse" id="color-7"><stop offset="0" stop-color="#c7c7c7"/><stop offset="1" stop-color="#c79797"/></linearGradient><linearGradient x1="306.68385" y1="56.37012" x2="314.63252" y2="115.18495" gradientUnits="userSpaceOnUse" id="color-8"><stop offset="0" stop-color="#4c7b64"/><stop offset="1" stop-color="#000000"/></linearGradient><linearGradient x1="307.25764" y1="60.65858" x2="311.69059" y2="93.45946" gradientUnits="userSpaceOnUse" id="color-9"><stop offset="0" stop-color="#daffed"/><stop offset="1" stop-color="#161a18"/></linearGradient><linearGradient x1="296.96999" y1="91.05049" x2="296.96999" y2="166.95838" gradientUnits="userSpaceOnUse" id="color-10"><stop offset="0" stop-color="#1a1a1a"/><stop offset="1" stop-color="#ffffff"/></linearGradient><linearGradient x1="308.54491" y1="65.5384" x2="311.3087" y2="85.9886" gradientUnits="userSpaceOnUse" id="color-11"><stop offset="0" stop-color="#49705e"/><stop offset="1" stop-color="#13160e"/></linearGradient><linearGradient x1="323.63421" y1="180.64712" x2="338.19161" y2="265.20338" gradientUnits="userSpaceOnUse" id="color-12"><stop offset="0" stop-color="#000000"/><stop offset="1" stop-color="#426600"/></linearGradient><linearGradient x1="313.0265" y1="122.80064" x2="325.77489" y2="196.84931" gradientUnits="userSpaceOnUse" id="color-13"><stop offset="0" stop-color="#000000"/><stop offset="1" stop-color="#1a0000"/></linearGradient><linearGradient x1="343.99768" y1="175.83755" x2="344.7415" y2="180.15801" gradientUnits="userSpaceOnUse" id="color-14"><stop offset="0" stop-color="#4d4d4d"/><stop offset="1" stop-color="#808080"/></linearGradient><linearGradient x1="342.05833" y1="175.70276" x2="342.94729" y2="180.86623" gradientUnits="userSpaceOnUse" id="color-15"><stop offset="0" stop-color="#4d4d4d"/><stop offset="1" stop-color="#808080"/></linearGradient><linearGradient x1="339.26229" y1="175.80365" x2="340.26009" y2="181.59936" gradientUnits="userSpaceOnUse" id="color-16"><stop offset="0" stop-color="#4d4d4d"/><stop offset="1" stop-color="#808080"/></linearGradient><linearGradient x1="335.40141" y1="175.85144" x2="336.58063" y2="182.70093" gradientUnits="userSpaceOnUse" id="color-17"><stop offset="0" stop-color="#4d4d4d"/><stop offset="1" stop-color="#808080"/></linearGradient><linearGradient x1="326.06002" y1="176.72715" x2="327.45695" y2="184.84114" gradientUnits="userSpaceOnUse" id="color-18"><stop offset="0" stop-color="#4d4d4d"/><stop offset="1" stop-color="#808080"/></linearGradient><linearGradient x1="330.95027" y1="176.09479" x2="332.27462" y2="183.78728" gradientUnits="userSpaceOnUse" id="color-19"><stop offset="0" stop-color="#4d4d4d"/><stop offset="1" stop-color="#808080"/></linearGradient><linearGradient x1="303.48542" y1="181.82683" x2="304.22924" y2="186.14726" gradientUnits="userSpaceOnUse" id="color-20"><stop offset="0" stop-color="#4d4d4d"/><stop offset="1" stop-color="#808080"/></linearGradient><linearGradient x1="305.28155" y1="181.1297" x2="306.1705" y2="186.29316" gradientUnits="userSpaceOnUse" id="color-21"><stop offset="0" stop-color="#4d4d4d"/><stop offset="1" stop-color="#808080"/></linearGradient><linearGradient x1="307.97018" y1="180.40489" x2="308.96799" y2="186.20061" gradientUnits="userSpaceOnUse" id="color-22"><stop offset="0" stop-color="#4d4d4d"/><stop offset="1" stop-color="#808080"/></linearGradient><linearGradient x1="311.65203" y1="179.31719" x2="312.83125" y2="186.16666" gradientUnits="userSpaceOnUse" id="color-23"><stop offset="0" stop-color="#4d4d4d"/><stop offset="1" stop-color="#808080"/></linearGradient><linearGradient x1="320.81534" y1="177.40715" x2="322.21226" y2="185.52114" gradientUnits="userSpaceOnUse" id="color-24"><stop offset="0" stop-color="#4d4d4d"/><stop offset="1" stop-color="#808080"/></linearGradient><linearGradient x1="315.95994" y1="178.24193" x2="317.2843" y2="185.93443" gradientUnits="userSpaceOnUse" id="color-25"><stop offset="0" stop-color="#4d4d4d"/><stop offset="1" stop-color="#808080"/></linearGradient><linearGradient x1="344.95718" y1="192.95996" x2="344.28946" y2="189.08155" gradientUnits="userSpaceOnUse" id="color-26"><stop offset="0" stop-color="#4d4d4d"/><stop offset="1" stop-color="#808080"/></linearGradient><linearGradient x1="343.5057" y1="194.52021" x2="342.7077" y2="189.88504" gradientUnits="userSpaceOnUse" id="color-27"><stop offset="0" stop-color="#4d4d4d"/><stop offset="1" stop-color="#808080"/></linearGradient><linearGradient x1="341.20352" y1="195.81778" x2="340.3078" y2="190.61505" gradientUnits="userSpaceOnUse" id="color-28"><stop offset="0" stop-color="#4d4d4d"/><stop offset="1" stop-color="#808080"/></linearGradient><linearGradient x1="338.00976" y1="197.4411" x2="336.95119" y2="191.29242" gradientUnits="userSpaceOnUse" id="color-29"><stop offset="0" stop-color="#4d4d4d"/><stop offset="1" stop-color="#808080"/></linearGradient><linearGradient x1="330.00671" y1="200.44956" x2="328.75271" y2="193.16575" gradientUnits="userSpaceOnUse" id="color-30"><stop offset="0" stop-color="#4d4d4d"/><stop offset="1" stop-color="#808080"/></linearGradient><linearGradient x1="334.26633" y1="199.12514" x2="333.07748" y2="192.2197" gradientUnits="userSpaceOnUse" id="color-31"><stop offset="0" stop-color="#4d4d4d"/><stop offset="1" stop-color="#808080"/></linearGradient><linearGradient x1="308.45368" y1="198.45528" x2="307.78596" y2="194.57686" gradientUnits="userSpaceOnUse" id="color-32"><stop offset="0" stop-color="#4d4d4d"/><stop offset="1" stop-color="#808080"/></linearGradient><linearGradient x1="310.35547" y1="199.51071" x2="309.55747" y2="194.87554" gradientUnits="userSpaceOnUse" id="color-33"><stop offset="0" stop-color="#4d4d4d"/><stop offset="1" stop-color="#808080"/></linearGradient><linearGradient x1="312.97684" y1="200.06708" x2="312.08113" y2="194.86435" gradientUnits="userSpaceOnUse" id="color-34"><stop offset="0" stop-color="#4d4d4d"/><stop offset="1" stop-color="#808080"/></linearGradient><linearGradient x1="316.55407" y1="200.67109" x2="315.4955" y2="194.5224" gradientUnits="userSpaceOnUse" id="color-35"><stop offset="0" stop-color="#4d4d4d"/><stop offset="1" stop-color="#808080"/></linearGradient><linearGradient x1="325.16248" y1="201.17882" x2="323.90848" y2="193.89501" gradientUnits="userSpaceOnUse" id="color-36"><stop offset="0" stop-color="#4d4d4d"/><stop offset="1" stop-color="#808080"/></linearGradient><linearGradient x1="320.67354" y1="201.17143" x2="319.48469" y2="194.26598" gradientUnits="userSpaceOnUse" id="color-37"><stop offset="0" stop-color="#4d4d4d"/><stop offset="1" stop-color="#808080"/></linearGradient><linearGradient x1="301.5977" y1="78.92533" x2="301.5977" y2="167.34883" gradientUnits="userSpaceOnUse" id="color-38"><stop offset="0" stop-color="#c7c7c7"/><stop offset="1" stop-color="#c79797"/></linearGradient><linearGradient x1="319.42626" y1="150.58855" x2="324.20878" y2="185.97598" gradientUnits="userSpaceOnUse" id="color-39"><stop offset="0" stop-color="#000000"/><stop offset="1" stop-color="#ffdac9"/></linearGradient></defs><g transform="translate(-250.13535,-55.40578)"><g data-paper-data="{&quot;isPaintingLayer&quot;:true}" stroke-linecap="butt" stroke-linejoin="miter" stroke-miterlimit="10" stroke-dasharray="" stroke-dashoffset="0" style="mix-blend-mode: normal"><path d="M286.67305,307.45913l15.14285,-131.8421l37.78325,-0.15789l13.57389,132z" fill="url(#color-1)" fill-rule="nonzero" stroke="#000000" stroke-width="2"/><path d="M299.53999,204.07183l3.12142,-26.32765l35.83075,-0.14203l2.76735,26.1059c0,0 -7.51543,4.19603 -21.55904,4.50964c-12.48458,0.27879 -20.16049,-4.14586 -20.16049,-4.14586z" fill="#2f4b3d" fill-rule="nonzero" stroke="#000000" stroke-width="0"/><path d="M286.20349,307.39565l9.625,-85.15c0,0 16.14032,5.36651 24.41538,5.23987c8.05433,-0.12327 24.59071,-5.98987 24.59071,-5.98987l9.125,86.65z" fill="url(#color-2)" fill-rule="nonzero" stroke="#000000" stroke-width="1"/><path d="M330.77702,225.84333l-2.72223,-31.57302l7.33053,-1.11111l3.5,30.46191c0,0 1.97994,9.94622 -2.77415,10.47275c-4.71963,0.52271 -5.33415,-8.25053 -5.33415,-8.25053z" data-paper-data="{&quot;index&quot;:null}" fill="#6b6dd3" fill-rule="nonzero" stroke="#000000" stroke-width="1"/><path d="M301.66589,224.12113l3.5,-30.4619l8.21942,0.55556l-2.61111,32.12857c0,0 -1.38805,9.70344 -6.18894,8.77837c-5.22617,-1.00701 -2.91937,-11.0006 -2.91937,-11.0006z" fill="#6b6dd3" fill-rule="nonzero" stroke="#000000" stroke-width="1"/><path d="M338.78523,228.05327c0,1.99603 -1.54283,3.61412 -3.44602,3.61412c-1.90319,0 -3.44603,-1.6181 -3.44603,-3.61412c0,-1.99603 1.54284,-3.61412 3.44603,-3.61412c1.90319,0 3.44602,1.61809 3.44602,3.61412z" fill="#c6a438" fill-rule="nonzero" stroke="none" stroke-width="0"/><path d="M309.37397,228.76995c0,1.99603 -1.54283,3.61412 -3.44602,3.61412c-1.90319,0 -3.44603,-1.6181 -3.44603,-3.61412c0,-1.99603 1.54284,-3.61412 3.44603,-3.61412c1.90319,0 3.44602,1.61809 3.44602,3.61412z" fill="#c6a438" fill-rule="nonzero" stroke="none" stroke-width="0"/><path d="M308.84901,229.41994c0,1.99602 -1.54284,3.61412 -3.44602,3.61412c-1.90319,0 -3.44602,-1.6181 -3.44602,-3.61412c0,-1.99602 1.54284,-3.61412 3.44602,-3.61412c1.90319,0 3.44602,1.6181 3.44602,3.61412z" fill="#edd459" fill-rule="nonzero" stroke="none" stroke-width="0"/><path d="M338.53664,228.70119c0,1.87521 -1.44945,3.39537 -3.23744,3.39537c-1.78799,0 -3.23745,-1.52016 -3.23745,-3.39537c0,-1.87521 1.44946,-3.39537 3.23745,-3.39537c1.78799,0 3.23744,1.52016 3.23744,3.39537z" fill="#edd459" fill-rule="nonzero" stroke="none" stroke-width="0"/><path d="M341.61099,194.55739c0.90641,1.442 13.27591,-0.94411 14.53458,0.88889c0.31862,-0.594 9.30076,33.378 9.72787,35c-0.5926,-0.963 5.60783,49.33333 5.60783,49.33333c0,0 0.50768,22.79733 0.91556,22.33333c-0.88787,-0.49 -11.18842,-0.32367 -12.13122,-0.16667c0.5308,-15.625 -11.71487,-68.29133 -19.1124,-79.33333c2.25366,-15.345 -5.00951,-26.28055 0.45778,-28.05555z" fill="url(#color-3)" fill-rule="evenodd" stroke="none" stroke-width="1"/><path d="M341.52133,194.59509c0.91572,1.34757 13.41232,-0.88229 14.68393,0.83068c0.10385,-0.17908 1.11865,3.00386 2.46032,7.4491c-6.17155,-0.51975 -13.01437,-2.82677 -18.35267,1.21834c-0.00693,0.00525 -0.01384,0.01053 -0.02073,0.01584c-0.98219,-5.21007 -1.76061,-8.6161 1.22914,-9.51396z" fill="#2f4b3d" fill-rule="nonzero" stroke="none" stroke-width="1"/><path d="M387.45589,301.10947c0.01927,0.00566 0.03664,0.01141 0.05206,0.01725c-0.01724,0.01347 -0.0346,0.00734 -0.05206,-0.01725z" fill="#2f4b3d" fill-rule="nonzero" stroke="none" stroke-width="1"/><path d="M298.93917,222.52407c-7.39753,11.042 -19.6432,63.70833 -19.1124,79.33333c-0.9428,-0.157 -11.24335,-0.32333 -12.13122,0.16667c0.40788,0.464 7.11599,-72.62966 6.52339,-71.66666c0.42711,-1.622 9.40925,-35.594 9.72787,-35c1.25867,-1.833 13.62817,0.55311 14.53458,-0.88889c5.46729,1.775 -1.79588,12.71055 0.45778,28.05555z" data-paper-data="{&quot;index&quot;:null}" fill="url(#color-4)" fill-rule="evenodd" stroke="none" stroke-width="1"/><path d="M298.57106,194.5062c2.98975,0.89786 2.21133,4.30389 1.22914,9.51396c-0.00689,-0.00531 -0.0138,-0.01059 -0.02073,-0.01584c-5.3383,-4.04511 -12.18112,-1.73809 -18.35267,-1.21834c1.34167,-4.44524 2.35647,-7.62818 2.46032,-7.4491c1.27161,-1.71297 13.76821,0.51689 14.68393,-0.83068z" data-paper-data="{&quot;index&quot;:null}" fill="#2f4b3d" fill-rule="nonzero" stroke="none" stroke-width="1"/><path d="M256.64986,117.47257c0.10689,-1.9885 -1.26005,-15.28401 11.07115,-29.78773c6.65797,-7.83099 13.94297,-18.70488 35.24178,-22.24083c31.7014,-4.80012 45.03943,5.1032 54.34411,12.64232c12.76191,10.34034 14.83529,20.92041 17.99448,25.79068c0.32075,0.49447 -118.65471,13.6551 -118.65151,13.59557z" fill="#a8530c" fill-rule="nonzero" stroke="none" stroke-width="1.5"/><path d="M255.04955,149.94415c-2.83273,-20.96031 6.17196,-40.95379 22.1276,-53.97082c0.84059,-1.88413 18.37675,-11.75431 31.76453,-13.66894c13.38779,-1.91462 26.21649,-0.61494 36.81304,3.86147c19.31779,8.16063 33.73121,25.26018 36.61142,46.57177c4.46011,33.00183 -20.42505,63.6069 -55.58255,68.35835c-35.1575,4.75145 -67.27393,-18.15002 -71.73404,-51.15183z" fill="url(#color-5)" fill-rule="nonzero" stroke="#000000" stroke-width="2"/><path d="M255.77312,149.90075c-0.0975,-0.72143 12.64903,54.71827 70.41484,47.9355c55.19281,-6.48065 55.17972,-65.9374 55.31617,-64.92772c4.39354,32.50925 -20.19064,62.66704 -54.91029,67.35931c-34.71965,4.69227 -66.42717,-17.85784 -70.82071,-50.36709z" fill="url(#color-6)" fill-rule="nonzero" stroke="#000000" stroke-width="0"/><path d="M260.24183,161.05732c0,0 -4.19626,-7.34326 -4.72374,-11.24631c-0.80753,-5.97517 3.64636,-43.34792 3.64636,-43.34792l9.43911,-1.27567c0,0 -2.58212,8.58862 -2.58462,13.28011c-0.00222,4.16661 2.57036,13.48148 2.57036,13.48148l-1.68302,3.00898l-3.21951,-1.38584z" fill="#3a2f2b" fill-rule="nonzero" stroke="#000000" stroke-width="0"/><path d="M258.74846,156.7064c0,0 -3.965,-6.93858 -4.46342,-10.62652c-0.76303,-5.64587 3.4454,-40.95902 3.4454,-40.95902l8.91892,-1.20537c0,0 -2.43982,8.1153 -2.44218,12.54824c-0.0021,3.93699 2.42871,12.73852 2.42871,12.73852l-1.59027,2.84315l-3.04208,-1.30946z" fill="#766058" fill-rule="nonzero" stroke="#000000" stroke-width="1.5"/><path d="M338.98023,166.26042c-7.21389,0.97494 -14.20874,-10.45386 -15.94555,-23.30502c-1.7368,-12.85117 12.8408,-27.4477 20.05469,-28.42264c7.21389,-0.97494 20.58996,12.871 22.32676,25.72217c1.7368,12.85117 -19.22202,25.03056 -26.4359,26.0055z" data-paper-data="{&quot;index&quot;:null}" fill="url(#color-7)" fill-rule="nonzero" stroke="#000000" stroke-width="2"/><path d="M275.1576,119.98939c0,0 10.82483,-5.76589 15.99893,-5.02734c5.17411,0.73857 12.38962,4.35169 12.38962,4.35169c0,0 -8.62046,-2.19354 -12.61626,-2.76391c-4.17576,-0.59605 -15.77229,3.43955 -15.77229,3.43955z" fill="#000000" fill-rule="nonzero" stroke="none" stroke-width="0"/><path d="M337.93513,110.55371c-3.65925,1.70341 -9.94125,6.71855 -9.94125,6.71855c0,0 4.52605,-5.96686 9.26437,-8.17259c4.73832,-2.20572 13.20732,-2.28818 13.20732,-2.28818c0,0 -8.70639,1.9621 -12.53044,3.74224z" data-paper-data="{&quot;index&quot;:null}" fill="#000000" fill-rule="nonzero" stroke="none" stroke-width="0"/><path d="M368.47351,120.41969l-2.73615,2.19073l-2.42137,-2.45428c0,0 0.00769,-9.66358 -1.10046,-13.68013c-1.24775,-4.52252 -6.01706,-12.11762 -6.01706,-12.11762l9.43911,-1.27567c0,0 14.21457,34.84975 15.0221,40.82492c0.52749,3.90305 -1.56899,12.09676 -1.56899,12.09676z" data-paper-data="{&quot;index&quot;:null}" fill="#3a2f2b" fill-rule="nonzero" stroke="#000000" stroke-width="0"/><path d="M369.83078,118.51801l-2.58536,2.07l-2.28793,-2.31902c0,0 0.00727,-9.13103 -1.03982,-12.92622c-1.17898,-4.27329 -5.68545,-11.44981 -5.68545,-11.44981l8.91892,-1.20537c0,0 13.43121,32.9292 14.19423,38.57507c0.49842,3.68794 -1.48252,11.4301 -1.48252,11.4301z" data-paper-data="{&quot;index&quot;:null}" fill="#766058" fill-rule="nonzero" stroke="#000000" stroke-width="1.5"/><path d="M251.59295,105.44052c13.20612,-25.64246 31.41048,-45.87005 54.18259,-48.94765c22.73081,-3.07201 45.13601,5.91312 63.93273,26.93012c2.61398,2.92275 8.88794,21.84428 7.06342,23.21034c-2.72797,2.0425 -56.23124,-3.27907 -64.26397,-2.19347c-8.36254,1.13018 -55.29709,18.76518 -58.96439,18.58981c-2.6407,-0.12627 -3.92223,-13.76038 -1.95038,-17.58916z" fill="url(#color-8)" fill-rule="nonzero" stroke="#000000" stroke-width="1"/><path d="M327.72489,74.59244c1.22413,9.05772 -5.95467,17.50475 -16.03427,18.86698c-10.07961,1.36223 -19.2431,-4.87618 -20.46723,-13.9339c-1.22413,-9.05772 5.95467,-17.50475 16.03427,-18.86698c10.07961,-1.36223 19.2431,4.87618 20.46723,13.9339z" fill="url(#color-9)" fill-rule="nonzero" stroke="none" stroke-width="0"/><path d="M265.76506,118.66089l1.63114,-9.08604c0,0 7.87517,-4.31739 8.49847,-4.588c4.65138,-2.01951 24.37223,-11.57906 35.69613,-13.10945c10.93688,-1.47809 32.89011,2.12521 38.75688,2.92051c0.97729,0.13248 8.19353,3.68427 8.19353,3.68427l2.98807,8.5098c0,0 -9.04132,-1.80413 -9.83338,-1.69483c-1.8708,0.25818 -5.9004,-0.16868 -11.12734,-0.61006c-7.5663,-0.63891 -16.84687,5.81621 -26.51474,7.15045c-9.85247,1.35971 -20.1179,-2.63034 -26.74948,-0.2237c-4.57211,1.65924 -7.79467,2.97258 -8.86231,3.11992c-0.72101,0.0995 -12.67697,3.92714 -12.67697,3.92714z" fill="#141d18" fill-rule="nonzero" stroke="#000000" stroke-width="0"/><path d="M284.06265,144.66959c-1.10737,-12.92064 -2.21171,-52.98532 5.0962,-53.61165c7.30791,-0.62633 20.2607,38.42288 21.36808,51.3435c1.10737,12.92064 -3.91914,23.90263 -11.22706,24.52896c-7.30791,0.62633 -14.12984,-9.34017 -15.23723,-22.26081z" fill="url(#color-10)" fill-rule="nonzero" stroke="#000000" stroke-width="2"/><path d="M320.54981,84.73969l-18.18167,1.72957l-3.06435,-19.68195l5.43737,-0.68332l1.57759,13.39871l13.03347,-1.52827z" data-paper-data="{&quot;index&quot;:null}" fill="url(#color-11)" fill-rule="evenodd" stroke="none" stroke-width="1"/><g fill-rule="nonzero" stroke-width="0"><path d="M311.24761,182.61559l25.86538,-3.99759z" fill="url(#color-12)" stroke="#000000"/><path d="M326.94192,203.62798c-23.54686,3.46086 -19.48574,-10.04257 -28.59104,-20.65653c-3.73049,-4.34861 51.14758,-8.91917 51.14758,-8.91917c0,0 1.71962,26.00765 -22.55653,29.5757z" fill="url(#color-13)" stroke="#000000"/><path d="M307.77067,196.90114c0,0 -0.31068,-1.71279 -1.15821,-4.82911c-0.81059,-2.9805 -3.04176,-8.51542 -3.04176,-8.51542l41.37604,-6.22883c0,0 -0.56536,5.99934 -0.3648,9.08991c0.22235,3.42634 0.72493,5.17536 0.72493,5.17536z" fill="#000000" stroke="none"/><g stroke="none"><g><path d="M343.28248,180.37765c0,0 -1.1545,-4.31693 0.76623,-4.60607c1.92072,-0.28915 2.15184,4.16679 2.15184,4.16679z" fill="url(#color-14)"/><path d="M341.20356,181.12874c0,0 -1.37977,-5.15926 0.91573,-5.50483c2.29549,-0.34557 2.57171,4.97982 2.57171,4.97982z" fill="url(#color-15)"/><path d="M338.30284,181.89402c0,0 -1.54872,-5.79101 1.02786,-6.17889c2.57657,-0.38788 2.88662,5.58959 2.88662,5.58959z" fill="url(#color-16)"/><path d="M334.26754,183.04914c0,0 -1.83029,-6.84391 1.21475,-7.30232c3.04504,-0.45841 3.41145,6.60588 3.41145,6.60588z" fill="url(#color-17)"/><path d="M324.71681,185.25364c0,0 -2.1682,-8.10741 1.43901,-8.65044c3.60721,-0.54303 4.04126,7.82543 4.04126,7.82543z" fill="url(#color-18)"/><path d="M329.67683,184.17836c0,0 -2.05557,-7.68624 1.36426,-8.20107c3.41982,-0.51482 3.83132,7.41891 3.83132,7.41891z" fill="url(#color-19)"/></g><g data-paper-data="{&quot;index&quot;:null}"><path d="M302.77019,186.36691c0,0 -1.27608,-4.29862 0.64463,-4.58777c1.92073,-0.28915 2.27343,4.14848 2.27343,4.14848z" fill="url(#color-20)"/><path d="M304.42679,186.55566c0,0 -1.52508,-5.13739 0.77042,-5.48295c2.2955,-0.34557 2.71703,4.95795 2.71703,4.95795z" fill="url(#color-21)"/><path d="M307.01076,186.49526c0,0 -1.71183,-5.76645 0.86476,-6.15433c2.57657,-0.38788 3.04972,5.56504 3.04972,5.56504z" fill="url(#color-22)"/><path d="M310.51813,186.51488c0,0 -2.02306,-6.81489 1.02198,-7.27329c3.04504,-0.45841 3.60422,6.57686 3.60422,6.57686z" fill="url(#color-23)"/><path d="M319.47213,185.93365c0,0 -2.39655,-8.07302 1.21066,-8.61607c3.60721,-0.54303 4.26961,7.79105 4.26961,7.79105z" fill="url(#color-24)"/><path d="M314.68651,186.3255c0,0 -2.27205,-7.65365 1.14777,-8.16848c3.41982,-0.51482 4.04782,7.38632 4.04782,7.38632z" fill="url(#color-25)"/></g></g><g stroke="none"><g><path d="M345.59923,188.88438c0,0 1.14553,3.85882 -0.57868,4.11838c-1.72421,0.25957 -2.04082,-3.72404 -2.04082,-3.72404z" fill="url(#color-26)"/><path d="M344.27301,189.64939c0,0 1.36904,4.61176 -0.69159,4.92199c-2.06064,0.31021 -2.43905,-4.45069 -2.43905,-4.45069z" fill="url(#color-27)"/><path d="M342.0648,190.35054c0,0 1.53668,5.17647 -0.77628,5.52467c-2.31296,0.3482 -2.73769,-4.99567 -2.73769,-4.99567z" fill="url(#color-28)"/><path d="M339.02763,190.97982c0,0 1.81608,6.11765 -0.91742,6.52916c-2.73349,0.4115 -3.23547,-5.90398 -3.23547,-5.90398z" fill="url(#color-29)"/><path d="M331.21249,192.79545c0,0 2.15135,7.24707 -1.0868,7.73454c-3.23815,0.48748 -3.83277,-6.99394 -3.83277,-6.99394z" fill="url(#color-30)"/><path d="M335.40947,191.86864c0,0 2.0396,6.87058 -1.03034,7.33274c-3.06993,0.46216 -3.63367,-6.63061 -3.63367,-6.63061z" fill="url(#color-31)"/></g><g data-paper-data="{&quot;index&quot;:null}"><path d="M309.09571,194.37968c0,0 1.03639,3.87526 -0.68782,4.13482c-1.72421,0.25957 -1.93168,-3.74047 -1.93168,-3.74047z" fill="url(#color-32)"/><path d="M311.1228,194.63989c0,0 1.23859,4.63141 -0.82204,4.94162c-2.06064,0.31021 -2.3086,-4.47033 -2.3086,-4.47033z" fill="url(#color-33)"/><path d="M313.83812,194.59984c0,0 1.39026,5.19851 -0.92269,5.54671c-2.31296,0.3482 -2.59128,-5.01771 -2.59128,-5.01771z" fill="url(#color-34)"/><path d="M317.57193,194.20981c0,0 1.64303,6.1437 -1.09047,6.55521c-2.73349,0.4115 -3.06242,-5.93003 -3.06242,-5.93003z" fill="url(#color-35)"/><path d="M326.36826,193.52471c0,0 1.94638,7.27792 -1.29177,7.76539c-3.23815,0.48748 -3.6278,-7.0248 -3.6278,-7.0248z" fill="url(#color-36)"/><path d="M321.81671,193.91492c0,0 1.84526,6.89984 -1.22467,7.362c-3.06993,0.46216 -3.43933,-6.65987 -3.43933,-6.65987z" fill="url(#color-37)"/></g></g></g><path d="M288.99899,145.7894c-1.7368,-12.85117 -3.40641,-65.86785 3.86221,-66.85018c7.26862,-0.98234 20.72299,50.44166 22.4598,63.29283c1.7368,12.85117 -2.74762,24.06545 -10.01624,25.04778c-7.26862,0.98234 -14.56896,-8.63926 -16.30576,-21.49043z" fill="url(#color-38)" fill-rule="nonzero" stroke="#000000" stroke-width="2"/><path d="M324.54249,172.65706c0,0 -21.96936,25.25591 -37.65255,20.47162c-15.68319,-4.78427 -19.47836,-37.89984 -19.47836,-37.89984c0,0 16.24338,13.17257 25.77101,16.07904c9.51599,2.90293 31.3599,1.34918 31.3599,1.34918z" fill="#000000" fill-rule="nonzero" stroke="none" stroke-width="0"/><path d="M352.04387,163.26506c8.30417,-5.26149 20.30899,-22.05057 20.30899,-22.05057c0,0 5.06423,32.50386 -8.60506,41.16469c-13.66929,8.66082 -41.18959,-9.61495 -41.18959,-9.61495c0,0 21.19164,-4.2441 29.48566,-9.49917z" data-paper-data="{&quot;index&quot;:null}" fill="#000000" fill-rule="nonzero" stroke="none" stroke-width="0"/><path d="M309.69864,178.54326c-4.25874,-8.82138 5.8236,-27.42705 5.8236,-27.42705c0,0 2.94261,-0.01206 4.40894,-0.16123c1.54858,-0.15753 4.39928,-0.95069 4.39928,-0.95069c0,0 13.21485,17.93624 12.08416,24.70413c-2.67105,15.98788 -22.45724,12.65622 -26.71598,3.83484z" fill="url(#color-39)" fill-rule="nonzero" stroke="#000000" stroke-width="2"/><path d="M316.09503,152.16377l0.59522,-5.05346l5.44421,-0.53395l1.76132,4.647c0,0 -2.70651,1.16912 -4.11943,1.31386c-1.32392,0.13562 -3.68131,-0.37346 -3.68131,-0.37346z" fill="#907b72" fill-rule="nonzero" stroke="#000000" stroke-width="0"/></g></g></svg>