<svg version="1.1" xmlns="http://www.w3.org/2000/svg" xmlns:xlink="http://www.w3.org/1999/xlink" width="160.60694" height="292.24893" viewBox="0,0,160.60694,292.24893"><defs><linearGradient x1="186.3849" y1="89.57444" x2="207.32952" y2="82.84224" gradientUnits="userSpaceOnUse" id="color-1"><stop offset="0" stop-color="#ffffff"/><stop offset="1" stop-color="#e2e2e2"/></linearGradient></defs><g transform="translate(-159.7056,-19.05298)"><g data-paper-data="{&quot;isPaintingLayer&quot;:true}" fill-rule="nonzero" stroke-linejoin="miter" stroke-miterlimit="10" stroke-dasharray="" stroke-dashoffset="0" style="mix-blend-mode: normal"><path d="M301.31469,121.40192l17.6387,26.37528l-16.20026,12.09022z" data-paper-data="{&quot;index&quot;:null}" fill="#fff1a4" stroke="#000000" stroke-width="2" stroke-linecap="butt"/><path d="M177.26499,159.86741l-16.20025,-12.09021l17.63869,-26.37527z" data-paper-data="{&quot;index&quot;:null}" fill="#fff1a4" stroke="#000000" stroke-width="2" stroke-linecap="butt"/><path d="M170.44485,24.92591c0,0 20.27702,13.41937 29.57737,22.46481c10.3742,10.0898 29.79911,35.28392 29.79911,35.28392c0,0 -45.54617,48.76298 -52.73836,51.20641c0,0 1.80934,-24.78348 0.95928,-38.73609c-1.22358,-20.0832 -7.59736,-70.21901 -7.59736,-70.21901z" data-paper-data="{&quot;index&quot;:null}" fill="#fff1a4" stroke="#000000" stroke-width="2" stroke-linecap="butt"/><path d="M303.98186,22.94044c0,0 -3.94826,50.38489 -4.20177,70.50373c-0.17611,13.97738 2.82647,38.64473 2.82647,38.64473c-7.30167,-2.09369 -55.14674,-48.60317 -55.14674,-48.60317c0,0 18.18715,-26.10169 28.06263,-36.68011c8.85326,-9.48349 28.45944,-23.86522 28.45944,-23.86522z" data-paper-data="{&quot;index&quot;:null}" fill="#fff1a4" stroke="#000000" stroke-width="2" stroke-linecap="butt"/><path d="M175.4342,34.81943c0,0 19.08559,13.58968 27.8663,22.7094c9.79454,10.17267 28.19255,35.51358 28.19255,35.51358c0,0 -42.13798,48.27579 -48.84075,50.64926c0,0 1.46199,-24.73382 0.53768,-38.67582c-1.33048,-20.06792 -7.75573,-70.19637 -7.75573,-70.19637z" data-paper-data="{&quot;index&quot;:null}" fill="#caaa81" stroke="#000000" stroke-width="2" stroke-linecap="butt"/><path d="M299.47542,33.06308c0,0 -4.00001,50.38002 -4.36104,70.48876c-0.25081,13.97037 2.40244,38.60488 2.40244,38.60488c-6.80944,-2.04742 -51.2268,-48.23465 -51.2268,-48.23465c0,0 17.15437,-26.19878 26.44687,-36.83201c8.33062,-9.53262 26.73855,-24.02701 26.73855,-24.02701z" data-paper-data="{&quot;index&quot;:null}" fill="#caaa81" stroke="#000000" stroke-width="2" stroke-linecap="butt"/><path d="M207.00651,310.3019l15.14285,-131.8421l37.78325,-0.15789l13.57389,132z" fill="#fff1a4" stroke="#000000" stroke-width="2" stroke-linecap="butt"/><path d="M219.95672,206.91457l3.12142,-26.32765l35.83075,-0.14203l2.76735,26.1059c0,0 -7.51543,4.19603 -21.55904,4.50964c-12.48458,0.27879 -20.16049,-4.14586 -20.16049,-4.14586z" fill="#caaa81" stroke="#000000" stroke-width="0" stroke-linecap="butt"/><path d="M175.76308,139.6481c0,-33.30185 28.7599,-60.29833 64.23702,-60.29833c35.47712,0 64.23702,26.99649 64.23702,60.29833c0,33.30185 -28.7599,60.29833 -64.23702,60.29833c-35.47712,0 -64.23702,-26.99649 -64.23702,-60.29833z" data-paper-data="{&quot;index&quot;:null}" fill="#fff1a4" stroke="#000000" stroke-width="2" stroke-linecap="butt"/><path d="M189.64663,140.07754c0,-12.968 10.51265,-23.48065 23.48065,-23.48065c12.968,0 23.48065,10.51265 23.48065,23.48065c0,12.968 -10.51265,23.48065 -23.48065,23.48065c-12.968,0 -23.48065,-10.51265 -23.48065,-23.48065z" fill="#ffffff" stroke="#000000" stroke-width="2" stroke-linecap="butt"/><path d="M196.71201,139.80193c0,-9.12808 7.39976,-16.52784 16.52783,-16.52784c9.12808,0 16.52784,7.39977 16.52784,16.52784c0,9.12808 -7.39977,16.52784 -16.52784,16.52784c-9.12808,0 -16.52783,-7.39977 -16.52783,-16.52784z" fill="#000000" stroke="none" stroke-width="0" stroke-linecap="butt"/><path d="M267.38561,163.5582c-12.968,0 -23.48065,-10.51265 -23.48065,-23.48065c0,-12.968 10.51265,-23.48065 23.48065,-23.48065c12.968,0 23.48065,10.51265 23.48065,23.48065c0,12.968 -10.51265,23.48065 -23.48065,23.48065z" data-paper-data="{&quot;index&quot;:null}" fill="#ffffff" stroke="#000000" stroke-width="2" stroke-linecap="butt"/><path d="M267.27306,156.32978c-9.12807,0 -16.52783,-7.39977 -16.52783,-16.52784c0,-9.12808 7.39977,-16.52784 16.52783,-16.52784c9.12807,0 16.52783,7.39977 16.52783,16.52784c0,9.12808 -7.39977,16.52784 -16.52783,16.52784z" data-paper-data="{&quot;index&quot;:null}" fill="#000000" stroke="none" stroke-width="0" stroke-linecap="butt"/><path d="M202.28431,111.2691c0,0 6.70895,-5.16922 11.79721,-6.36355c5.08827,-1.19433 12.33413,0.69937 12.33413,0.69937c0,0 -8.03812,-0.06028 -11.96762,0.86207c-4.10648,0.96389 -12.16372,4.80211 -12.16372,4.80211z" fill="#000000" stroke="none" stroke-width="0" stroke-linecap="butt"/><path d="M266.21871,106.467c-3.9295,-0.92235 -11.96762,-0.86207 -11.96762,-0.86207c0,0 7.24586,-1.8937 12.33413,-0.69937c5.08826,1.19433 11.79721,6.36355 11.79721,6.36355c0,0 -8.05724,-3.83822 -12.16372,-4.80211z" data-paper-data="{&quot;index&quot;:null}" fill="#000000" stroke="none" stroke-width="0" stroke-linecap="butt"/><path d="M187.46425,98.63031c2.2676,-2.89337 -0.5999,-4.74567 -0.28802,-8.14974c0.68418,-7.46741 2.13908,-16.04352 4.04799,-14.54746c0.07709,0.06042 0.73903,-5.09059 2.46491,-5.77659c1.27026,-0.5049 3.75617,3.47122 5.35774,3.19808c1.07009,-0.1825 1.94182,-0.25308 3.08536,-0.13128c5.02084,0.53476 9.62839,4.99025 12.40008,6.80224c1.84622,1.20695 1.35495,-1.06871 5.12261,-0.70826c5.69794,0.54512 -2.43296,13.64553 -2.19377,14.35071c1.56109,4.60231 -9.35252,7.32376 -12.85215,12.75853c-1.77827,2.76158 -0.26187,-0.54553 -4.61522,1.0539c-2.09809,0.77085 -7.66944,9.63808 -10.25714,12.06526c-2.35626,2.2101 -1.80173,-2.01184 -2.43762,-1.20048c-4.09657,5.22705 3.0326,-7.29317 -0.50125,-5.10999c-2.71336,1.67629 -10.3629,16.28636 -11.56994,15.34036c-2.77909,-2.17804 4.99442,-20.70479 12.23642,-29.94527z" fill="#000000" stroke="#000000" stroke-width="2" stroke-linecap="butt"/><path d="M207.32952,82.84224c0.63377,1.97172 -4.54108,4.32717 -10.32478,6.18621c-5.7837,1.85904 -8.98608,2.01771 -9.61985,0.04599c-0.63377,-1.97172 1.54108,-6.82717 7.32478,-8.68621c5.7837,-1.85904 11.98608,0.48229 12.61984,2.45401z" fill="url(#color-1)" stroke="none" stroke-width="0" stroke-linecap="butt"/><path d="" fill="#000000" stroke="none" stroke-width="0" stroke-linecap="butt"/><path d="M275.61573,189.94066c0,0 -0.1044,-18.02592 -37.20825,-15.97699c-22.05206,1.21774 -30.46553,16.73614 -30.46553,16.73614" fill="none" stroke="#000000" stroke-width="2" stroke-linecap="round"/><path d="M195.06377,90.44589c-1.16784,-5.25523 -0.69962,-9.82988 1.04578,-10.21775c1.7454,-0.38787 4.10703,3.55792 5.27486,8.81316c1.16783,5.25525 0.69962,9.82988 -1.04577,10.21775c-1.74538,0.38787 -4.10703,-3.55791 -5.27487,-8.81315z" fill="#000000" stroke="none" stroke-width="0" stroke-linecap="butt"/><path d="M195.67234,84.35137c0.19116,-0.86021 0.11452,-1.60901 -0.17118,-1.6725c-0.2857,-0.06349 -0.67226,0.58238 -0.86342,1.44259c-0.19116,0.86021 -0.11451,1.60901 0.17118,1.67251c0.2857,0.06349 0.67226,-0.58238 0.86342,-1.44259z" fill="#ffffff" stroke="none" stroke-width="0" stroke-linecap="butt"/></g></g></svg>