<svg version="1.1" xmlns="http://www.w3.org/2000/svg" xmlns:xlink="http://www.w3.org/1999/xlink" width="177.68995" height="276.16388" viewBox="0,0,177.68995,276.16388"><g transform="translate(-135.82169,-36.51806)"><g data-paper-data="{&quot;isPaintingLayer&quot;:true}" fill-rule="nonzero" stroke-linejoin="miter" stroke-miterlimit="10" stroke-dasharray="" stroke-dashoffset="0" style="mix-blend-mode: normal"><g stroke="#000000" stroke-width="2" stroke-linecap="butt"><path d="M160.95062,130.16487l-3.06761,-70.00363l7.31929,-0.3114l3.06761,70.00363z" fill="#fff480"/><path d="M143.90978,60.75576c-0.42758,-9.75752 7.1203,-18.00347 16.85866,-18.41782c9.73836,-0.41434 17.9795,7.15981 18.40708,16.91735c0.42758,9.75752 -7.1203,18.00347 -16.85867,18.41782c-9.73836,0.41434 -17.97949,-7.15981 -18.40707,-16.91735z" fill="#ffe900"/></g><g stroke="#000000" stroke-width="2" stroke-linecap="butt"><path d="M274.23353,125.34497l-3.06761,-70.00363l7.3193,-0.3114l3.06761,70.00363z" fill="#fff480"/><path d="M257.1927,55.93588c-0.42758,-9.75752 7.1203,-18.00347 16.85866,-18.41782c9.73836,-0.41434 17.9795,7.15981 18.40708,16.91735c0.42758,9.75752 -7.12031,18.00347 -16.85867,18.41782c-9.73836,0.41434 -17.97949,-7.15981 -18.40707,-16.91735z" fill="#ffe900"/></g><path d="M238.4916,133.9092c3.63242,-11.44983 15.85898,-17.78706 27.30881,-14.15464c11.44982,3.63242 45.60967,37.28783 45.60967,37.28783c0,0 -47.31404,7.80803 -58.76384,4.17561c-11.44983,-3.63242 -17.78706,-15.85899 -14.15464,-27.30881z" data-paper-data="{&quot;index&quot;:null}" fill="#fce600" stroke="#000000" stroke-width="2" stroke-linecap="butt"/><path d="M195.52455,158.01191c-10.12122,6.46944 -57.84516,11.16076 -57.84516,11.16076c0,0 24.29603,-41.34351 34.41725,-47.81295c10.12123,-6.46944 23.57061,-3.50908 30.04005,6.61214c6.46944,10.12123 3.50909,23.5706 -6.61214,30.04005z" data-paper-data="{&quot;index&quot;:null}" fill="#fce600" stroke="#000000" stroke-width="2" stroke-linecap="butt"/><path d="M206.16757,311.56255l0.27104,-132.7086l37.5275,-4.39151l28.28247,129.64703z" fill="#ffe900" stroke="#000000" stroke-width="2" stroke-linecap="butt"/><path d="M207.4489,207.37517l0.15104,-26.51161l35.58908,-4.15692l5.67577,25.63127c0,0 -6.9978,5.0119 -20.91778,6.89749c-12.37468,1.67626 -20.49812,-1.86022 -20.49812,-1.86022z" fill="#e6d200" stroke="#000000" stroke-width="0" stroke-linecap="butt"/><path d="M157.96676,140.83822c-1.41281,-33.27187 26.1759,-61.46417 61.62107,-62.96926c35.44518,-1.5051 65.3245,24.24696 66.73731,57.51882c1.41281,33.27187 -26.1759,61.46417 -61.62107,62.96926c-35.44518,1.5051 -65.3245,-24.24696 -66.73731,-57.51882z" fill="#ffe900" stroke="#000000" stroke-width="2" stroke-linecap="butt"/><path d="M158.69146,140.86133c-0.03088,-0.72733 7.57432,55.64816 65.71882,54.19501c55.55464,-1.38842 60.99777,-60.59549 61.041,-59.57756c1.39172,32.77525 -25.85622,60.54978 -60.85997,62.03612c-35.00375,1.48635 -64.50812,-23.87832 -65.89984,-56.65357z" fill="#e6d200" stroke="#000000" stroke-width="0" stroke-linecap="butt"/><path d="M193.96649,115.76881c12.95632,-0.55017 23.90551,9.50703 24.45566,22.46335c0.55017,12.95632 -9.50703,23.90551 -22.46335,24.45566c-12.95632,0.55017 -23.90551,-9.50703 -24.45566,-22.46335c-0.55017,-12.95632 9.50703,-23.90551 22.46335,-24.45566z" data-paper-data="{&quot;index&quot;:null}" fill="none" stroke="#000000" stroke-width="2" stroke-linecap="butt"/><path d="M272.63172,135.93031c0.55017,12.95632 -9.50703,23.90551 -22.46335,24.45566c-12.95632,0.55017 -23.90551,-9.50703 -24.45566,-22.46335c-0.55017,-12.95632 9.50703,-23.90551 22.46335,-24.45566c12.95632,-0.55017 23.90551,9.50703 24.45566,22.46335z" data-paper-data="{&quot;index&quot;:null}" fill="none" stroke="#000000" stroke-width="2" stroke-linecap="butt"/><path d="M182.92711,111.37376c0,0 6.48361,-5.44919 11.51662,-6.8583c5.03302,-1.40912 12.35269,0.17547 12.35269,0.17547c0,0 -8.03345,0.28079 -11.92027,1.36902c-4.06189,1.13723 -11.94904,5.31383 -11.94904,5.31383z" fill="#000000" stroke="none" stroke-width="0" stroke-linecap="butt"/><path d="M246.60032,103.8636c-3.96509,-0.75482 -11.99342,-0.35358 -11.99342,-0.35358c0,0 7.15899,-2.1994 12.29335,-1.22201c5.13435,0.97739 12.05656,5.85733 12.05656,5.85733c0,0 -8.21282,-3.49294 -12.35649,-4.28175z" data-paper-data="{&quot;index&quot;:null}" fill="#000000" stroke="none" stroke-width="0" stroke-linecap="butt"/><path d="M171.40533,139.88589c-0.02616,-0.61605 5.29506,18.64694 24.30893,17.88625c16.84207,-0.99549 21.53053,-14.54061 22.55689,-18.57417c0.18073,-0.71023 0.25584,-0.93879 0.25584,-0.93879c1.49194,13.10345 -9.68587,24.10021 -22.6422,24.65037c-12.95633,0.55017 -23.9293,-10.06734 -24.47946,-23.02368z" data-paper-data="{&quot;index&quot;:null}" fill="#ffe900" stroke="#000000" stroke-width="2" stroke-linecap="butt"/><path d="M225.56876,137.58597c-0.02616,-0.61605 5.29506,18.64694 24.30893,17.88625c16.84207,-0.99549 21.53053,-14.54061 22.55689,-18.57417c0.18073,-0.71023 0.25584,-0.93879 0.25584,-0.93879c1.49194,13.10345 -9.68587,24.10021 -22.6422,24.65037c-12.95633,0.55017 -23.9293,-10.06734 -24.47946,-23.02368z" data-paper-data="{&quot;index&quot;:null}" fill="#ffe900" stroke="#000000" stroke-width="2" stroke-linecap="butt"/><path d="M181.8565,182.27455c0,0 -7.93222,6.19444 -11.38011,1.39985c-2.72498,-3.78932 2.24244,-6.62232 2.10503,-6.62804c-13.6613,-0.5684 -7.09719,-14.3113 2.14454,-7.98141" fill="#ffe900" stroke="#000000" stroke-width="2" stroke-linecap="round"/><path d="M199.45076,89.2479l33.05192,-20.90228l-3.10998,13.88175l22.43926,-6.95214l-14.34235,16.10837" fill="#ffea00" stroke="#000000" stroke-width="2" stroke-linecap="round"/></g></g></svg>