<svg version="1.1" xmlns="http://www.w3.org/2000/svg" xmlns:xlink="http://www.w3.org/1999/xlink" width="130.47404" height="267.22501" viewBox="0,0,130.47404,267.22501"><g transform="translate(-174.84004,-46.38751)"><g data-paper-data="{&quot;isPaintingLayer&quot;:true}" fill-rule="nonzero" stroke-linejoin="miter" stroke-miterlimit="10" stroke-dasharray="" stroke-dashoffset="0" style="mix-blend-mode: normal"><path d="M176.2643,210.59174v-72.74893h128v72.22555l-3.33303,0.01561l-2.00387,-9.40666l-1.98358,9.74314l-113.04346,0.47173l-1.63605,-9.98287l-2.29125,9.64241z" fill="#b70a4d" stroke="#000000" stroke-width="2" stroke-linecap="butt"/><g stroke-linecap="butt"><path d="M179.28381,313.61252c0,0 0,-60.00062 0,-96.80001c0,-48.82807 0,-170.425 0,-170.425h123.18203v267.22501z" fill-opacity="0.01" fill="#000000" stroke="none" stroke-width="0"/><path d="M206.75014,307.5l15.14285,-131.8421l37.78325,-0.15789l13.57389,132z" fill="#b70a4d" stroke="#000000" stroke-width="2"/><path d="M219.70035,204.11263l3.12142,-26.32765l35.83075,-0.14203l2.76735,26.1059c0,0 -7.51543,4.19603 -21.55904,4.50964c-12.48458,0.27879 -20.16049,-4.14586 -20.16049,-4.14586z" fill="#8a0739" stroke="#000000" stroke-width="0"/></g><path d="M175.84004,135.67949c0,-33.30185 28.7599,-60.29833 64.23702,-60.29833c35.47712,0 64.23702,26.99649 64.23702,60.29833c0,33.30185 -28.7599,60.29833 -64.23702,60.29833c-35.47712,0 -64.23702,-26.99649 -64.23702,-60.29833z" fill="#b70a4d" stroke="#000000" stroke-width="2" stroke-linecap="butt"/><path d="M176.5631,135.4c0,-0.72799 5.20666,55.91939 63.36046,56.93429c55.56352,0.9697 63.51358,-57.95314 63.51358,-56.93429c0,32.80479 -28.40173,59.39833 -63.43702,59.39833c-35.03529,0 -63.43702,-26.59354 -63.43702,-59.39833z" fill="#8a0739" stroke="#000000" stroke-width="0" stroke-linecap="butt"/><path d="M189.39027,135.77563c0,-12.968 10.51265,-23.48065 23.48065,-23.48065c12.968,0 23.48065,10.51265 23.48065,23.48065c0,12.968 -10.51265,23.48065 -23.48065,23.48065c-12.968,0 -23.48065,-10.51265 -23.48065,-23.48065z" fill="#ffffff" stroke="#000000" stroke-width="2" stroke-linecap="butt"/><path d="M196.45564,135.5c0,-9.12808 7.39976,-16.52784 16.52783,-16.52784c9.12808,0 16.52784,7.39977 16.52784,16.52784c0,9.12808 -7.39977,16.52784 -16.52784,16.52784c-9.12808,0 -16.52783,-7.39977 -16.52783,-16.52784z" fill="#000000" stroke="none" stroke-width="0" stroke-linecap="butt"/><path d="M267.12933,159.25627c-12.968,0 -23.48065,-10.51265 -23.48065,-23.48065c0,-12.968 10.51265,-23.48065 23.48065,-23.48065c12.968,0 23.48065,10.51265 23.48065,23.48065c0,12.968 -10.51265,23.48065 -23.48065,23.48065z" data-paper-data="{&quot;index&quot;:null}" fill="#ffffff" stroke="#000000" stroke-width="2" stroke-linecap="butt"/><path d="M267.01671,152.02784c-9.12807,0 -16.52783,-7.39977 -16.52783,-16.52784c0,-9.12808 7.39977,-16.52784 16.52783,-16.52784c9.12807,0 16.52783,7.39977 16.52783,16.52784c0,9.12808 -7.39977,16.52784 -16.52783,16.52784z" data-paper-data="{&quot;index&quot;:null}" fill="#000000" stroke="none" stroke-width="0" stroke-linecap="butt"/><path d="M189.39027,135.77563c0,-12.968 10.51265,-23.48065 23.48065,-23.48065c12.968,0 23.48065,10.51265 23.48065,23.48065c0,0 -12.70203,-9.34955 -23.46437,-9.37431c-10.09626,-0.02323 -23.49694,9.99328 -23.49694,9.37431z" fill="#b70a4d" stroke="#000000" stroke-width="2" stroke-linecap="butt"/><path d="M243.6487,135.77563c0,-12.968 10.51265,-23.48065 23.48065,-23.48065c12.968,0 23.48065,10.51265 23.48065,23.48065c0,0.29462 -11.46137,-8.87064 -23.14514,-8.94358c-11.79634,-0.07365 -23.81617,8.94358 -23.81617,8.94358z" data-paper-data="{&quot;index&quot;:null}" fill="#b70a4d" stroke="#000000" stroke-width="2" stroke-linecap="butt"/><path d="M202.02791,106.96716c0,0 6.70895,-5.16922 11.79722,-6.36355c5.08827,-1.19433 12.33413,0.69937 12.33413,0.69937c0,0 -8.03812,-0.06028 -11.96762,0.86207c-4.10648,0.96388 -12.16372,4.80211 -12.16372,4.80211z" fill="#000000" stroke="none" stroke-width="0" stroke-linecap="butt"/><path d="M265.96236,102.16506c-3.9295,-0.92235 -11.96762,-0.86207 -11.96762,-0.86207c0,0 7.24586,-1.8937 12.33413,-0.69937c5.08826,1.19433 11.79721,6.36355 11.79721,6.36355c0,0 -8.05724,-3.83822 -12.16372,-4.80211z" data-paper-data="{&quot;index&quot;:null}" fill="#000000" stroke="none" stroke-width="0" stroke-linecap="butt"/><path d="M185.73905,132.87572l3.6,2.6" fill="none" stroke="#000000" stroke-width="2" stroke-linecap="round"/><path d="M294.33894,131.8757l-4.2,3.4" fill="none" stroke="#000000" stroke-width="2" stroke-linecap="round"/><path d="M178.19829,118.42756c0,0 3.37529,-8.2927 8.79336,-16.47464c3.92095,-5.9211 9.26894,-11.7842 13.47046,-14.40439c0.4621,-0.28818 6.42225,-4.55857 6.88039,-4.81212c11.69001,-6.4696 25.5739,-7.97251 33.60124,-8.04718c3.83172,-0.03564 13.12217,0.79398 23.22364,4.57099c6.66572,2.49236 13.82572,6.69154 19.50091,11.26481c12.82325,10.33344 18.28,27.90253 18.28,27.90253l-21.75137,-1.29257l-5.2677,-17.45201l-0.21445,16.94212l-18.81757,0.70583l1.2988,-15.72055l-6.91764,15.30009l-49.5637,0.38577l-2.01636,-10.36868l-2.10892,10.54556l-18.39108,0.95444z" fill="#b70a4d" stroke="#000000" stroke-width="2" stroke-linecap="butt"/><path d="M250.53767,168.08251c0,0 -4.54107,16.72106 -10.44414,16.72106c-5.90307,0 -10.93275,-16.72106 -10.93275,-16.72106l10.93275,3.65638z" fill="#000000" stroke="#000000" stroke-width="2" stroke-linecap="butt"/></g></g></svg>