<svg version="1.1" xmlns="http://www.w3.org/2000/svg" xmlns:xlink="http://www.w3.org/1999/xlink" width="128.47404" height="230.20094" viewBox="0,0,128.47404,230.20094"><defs><linearGradient x1="231.02888" y1="206.73333" x2="231.02888" y2="291.31114" gradientUnits="userSpaceOnUse" id="color-1"><stop offset="0" stop-color="#000000"/><stop offset="1" stop-color="#1f0707"/></linearGradient><linearGradient x1="240.45565" y1="210.25688" x2="240.45565" y2="243.57636" gradientUnits="userSpaceOnUse" id="color-2"><stop offset="0" stop-color="#3b0202"/><stop offset="1" stop-color="#a10505"/></linearGradient><linearGradient x1="240.00013" y1="175.50001" x2="240.00013" y2="307.50001" gradientUnits="userSpaceOnUse" id="color-3"><stop offset="0" stop-color="#300b0b"/><stop offset="1" stop-color="#b42b2b"/></linearGradient><linearGradient x1="243.08201" y1="77.29907" x2="243.08201" y2="197.89573" gradientUnits="userSpaceOnUse" id="color-4"><stop offset="0" stop-color="#270909"/><stop offset="1" stop-color="#b72c2c"/></linearGradient><linearGradient x1="243.43462" y1="106.41347" x2="243.43462" y2="177.1827" gradientUnits="userSpaceOnUse" id="color-5"><stop offset="0" stop-color="#000000"/><stop offset="1" stop-color="#942424"/></linearGradient><linearGradient x1="243.43463" y1="111.79809" x2="243.43463" y2="171.41347" gradientUnits="userSpaceOnUse" id="color-6"><stop offset="0" stop-color="#000000"/><stop offset="1" stop-color="#0a0a0a"/></linearGradient><linearGradient x1="190.03539" y1="141.55497" x2="210.21244" y2="141.55497" gradientUnits="userSpaceOnUse" id="color-7"><stop offset="0" stop-color="#000000"/><stop offset="1" stop-color="#000000" stop-opacity="0"/></linearGradient><linearGradient x1="297.06723" y1="141.20767" x2="276.89018" y2="141.20767" gradientUnits="userSpaceOnUse" id="color-8"><stop offset="0" stop-color="#000000"/><stop offset="1" stop-color="#000000" stop-opacity="0"/></linearGradient></defs><g transform="translate(-178.84499,-77.29907)"><g data-paper-data="{&quot;isPaintingLayer&quot;:true}" fill-rule="nonzero" stroke-linejoin="miter" stroke-miterlimit="10" stroke-dasharray="" stroke-dashoffset="0" style="mix-blend-mode: normal"><path d="M248.00976,206.73333l-0.65311,74.78115l-33.30864,9.79666l8.49044,-81.96537z" fill="url(#color-1)" stroke="#000000" stroke-width="0.5" stroke-linecap="round"/><path d="M250.61626,210.25687l-1.46459,33.31949l-16.11052,-9.886l-2.74611,-19.772z" fill="url(#color-2)" stroke="#000000" stroke-width="0.5" stroke-linecap="round"/><path d="M206.75014,307.5l3.1471,-17.87644l17.66562,-8.998l0.98203,-23.02131l12.86076,-8.13192l1.60245,-32.35158l-25.54742,-2.87273l4.43231,-38.59012l37.78325,-0.15789l13.57389,132z" fill="url(#color-3)" stroke="#000000" stroke-width="0" stroke-linecap="butt"/><path d="M178.84499,137.5974c0,-33.30185 28.7599,-60.29833 64.23702,-60.29833c35.47712,0 64.23702,26.99649 64.23702,60.29833c0,33.30185 -28.7599,60.29833 -64.23702,60.29833c-35.47712,0 -64.23702,-26.99649 -64.23702,-60.29833z" fill="url(#color-4)" stroke="#000000" stroke-width="0" stroke-linecap="butt"/><path d="M184.78078,177.1827v-70.76923h117.30769v70.76923z" fill="url(#color-5)" stroke="#000000" stroke-width="0" stroke-linecap="butt"/><path d="M190.16539,171.41347v-59.61538h106.53846v59.61538z" fill="url(#color-6)" stroke="#000000" stroke-width="0" stroke-linecap="butt"/><path d="M192.81959,145.57483l24.25808,0.2241l11.97966,-28.63252l8.66431,47.7254l9.8181,-20.63298l46.06025,-0.08949" fill="none" stroke-opacity="0.46769" stroke="#ff0000" stroke-width="2" stroke-linecap="round"/><path d="M190.03539,171.56372v-60.01751h20.17705v60.01751z" fill="url(#color-7)" stroke-opacity="0.90317" stroke="#00ff09" stroke-width="0" stroke-linecap="butt"/><path d="M276.89018,171.21643v-60.01751h20.17705v60.01751z" data-paper-data="{&quot;index&quot;:null}" fill="url(#color-8)" stroke-opacity="0.90317" stroke="#00ff09" stroke-width="0" stroke-linecap="butt"/></g></g></svg>