<svg version="1.1" xmlns="http://www.w3.org/2000/svg" xmlns:xlink="http://www.w3.org/1999/xlink" width="132.7448" height="258.1622" viewBox="0,0,132.7448,258.1622"><defs><linearGradient x1="319.92305" y1="175.45922" x2="319.92305" y2="307.45912" gradientUnits="userSpaceOnUse" id="color-1"><stop offset="0" stop-color="#4c7b64"/><stop offset="1" stop-color="#2b2b2b"/></linearGradient><linearGradient x1="320.08155" y1="221.49566" x2="320.08155" y2="308.14567" gradientUnits="userSpaceOnUse" id="color-2"><stop offset="0" stop-color="#6b6dd3"/><stop offset="1" stop-color="#000000"/></linearGradient><linearGradient x1="355.96016" y1="194.55742" x2="355.96016" y2="302.11987" gradientUnits="userSpaceOnUse" id="color-3"><stop offset="0" stop-color="#4b7b64"/><stop offset="1" stop-color="#000000"/></linearGradient><linearGradient x1="284.13221" y1="194.46853" x2="284.13221" y2="302.02621" gradientUnits="userSpaceOnUse" id="color-4"><stop offset="0" stop-color="#4b7b64"/><stop offset="1" stop-color="#000000"/></linearGradient><linearGradient x1="320.00014" y1="76.99004" x2="320.00014" y2="197.10367" gradientUnits="userSpaceOnUse" id="color-5"><stop offset="0" stop-color="#000000"/><stop offset="1" stop-color="#ffdac9"/></linearGradient><linearGradient x1="319.92305" y1="136.84608" x2="319.92305" y2="196.25757" gradientUnits="userSpaceOnUse" id="color-6"><stop offset="0" stop-color="#000000"/><stop offset="1" stop-color="#7e647b"/></linearGradient><linearGradient x1="345.25248" y1="113.50406" x2="345.25248" y2="164.21535" gradientUnits="userSpaceOnUse" id="color-7"><stop offset="0" stop-color="#c7c7c7"/><stop offset="1" stop-color="#c79797"/></linearGradient><linearGradient x1="319.46461" y1="50.98963" x2="319.46461" y2="110.33917" gradientUnits="userSpaceOnUse" id="color-8"><stop offset="0" stop-color="#4c7b64"/><stop offset="1" stop-color="#000000"/></linearGradient><linearGradient x1="319.45892" y1="55.3163" x2="319.45892" y2="88.41538" gradientUnits="userSpaceOnUse" id="color-9"><stop offset="0" stop-color="#daffed"/><stop offset="1" stop-color="#161a18"/></linearGradient><linearGradient x1="299.86883" y1="83.25413" x2="299.86883" y2="159.71543" gradientUnits="userSpaceOnUse" id="color-10"><stop offset="0" stop-color="#1a1a1a"/><stop offset="1" stop-color="#ffffff"/></linearGradient><linearGradient x1="320.08101" y1="60.32456" x2="320.08101" y2="80.96067" gradientUnits="userSpaceOnUse" id="color-11"><stop offset="0" stop-color="#49705e"/><stop offset="1" stop-color="#13160e"/></linearGradient><linearGradient x1="319.21988" y1="175.57938" x2="319.21988" y2="267.16812" gradientUnits="userSpaceOnUse" id="color-12"><stop offset="0" stop-color="#000000"/><stop offset="1" stop-color="#426600"/></linearGradient><linearGradient x1="318.57943" y1="112.81874" x2="318.57943" y2="193.02599" gradientUnits="userSpaceOnUse" id="color-13"><stop offset="0" stop-color="#000000"/><stop offset="1" stop-color="#1a0000"/></linearGradient><linearGradient x1="340.14201" y1="173.73805" x2="340.14201" y2="178.41784" gradientUnits="userSpaceOnUse" id="color-14"><stop offset="0" stop-color="#4d4d4d"/><stop offset="1" stop-color="#808080"/></linearGradient><linearGradient x1="338.25023" y1="173.28748" x2="338.25023" y2="178.88041" gradientUnits="userSpaceOnUse" id="color-15"><stop offset="0" stop-color="#4d4d4d"/><stop offset="1" stop-color="#808080"/></linearGradient><linearGradient x1="335.47258" y1="172.9496" x2="335.47258" y2="179.22731" gradientUnits="userSpaceOnUse" id="color-16"><stop offset="0" stop-color="#4d4d4d"/><stop offset="1" stop-color="#808080"/></linearGradient><linearGradient x1="331.65266" y1="172.3864" x2="331.65266" y2="179.80555" gradientUnits="userSpaceOnUse" id="color-17"><stop offset="0" stop-color="#4d4d4d"/><stop offset="1" stop-color="#808080"/></linearGradient><linearGradient x1="322.28117" y1="171.82622" x2="322.28117" y2="180.61502" gradientUnits="userSpaceOnUse" id="color-18"><stop offset="0" stop-color="#4d4d4d"/><stop offset="1" stop-color="#808080"/></linearGradient><linearGradient x1="327.21673" y1="171.93585" x2="327.21673" y2="180.26812" gradientUnits="userSpaceOnUse" id="color-19"><stop offset="0" stop-color="#4d4d4d"/><stop offset="1" stop-color="#808080"/></linearGradient><linearGradient x1="299.12672" y1="173.62242" x2="299.12672" y2="178.30216" gradientUnits="userSpaceOnUse" id="color-20"><stop offset="0" stop-color="#4d4d4d"/><stop offset="1" stop-color="#808080"/></linearGradient><linearGradient x1="301.01851" y1="173.17187" x2="301.01851" y2="178.76474" gradientUnits="userSpaceOnUse" id="color-21"><stop offset="0" stop-color="#4d4d4d"/><stop offset="1" stop-color="#808080"/></linearGradient><linearGradient x1="303.79616" y1="172.83395" x2="303.79616" y2="179.1117" gradientUnits="userSpaceOnUse" id="color-22"><stop offset="0" stop-color="#4d4d4d"/><stop offset="1" stop-color="#808080"/></linearGradient><linearGradient x1="307.61609" y1="172.27073" x2="307.61609" y2="179.68988" gradientUnits="userSpaceOnUse" id="color-23"><stop offset="0" stop-color="#4d4d4d"/><stop offset="1" stop-color="#808080"/></linearGradient><linearGradient x1="316.98758" y1="171.71056" x2="316.98758" y2="180.4994" gradientUnits="userSpaceOnUse" id="color-24"><stop offset="0" stop-color="#4d4d4d"/><stop offset="1" stop-color="#808080"/></linearGradient><linearGradient x1="312.05202" y1="171.82017" x2="312.05202" y2="180.15245" gradientUnits="userSpaceOnUse" id="color-25"><stop offset="0" stop-color="#4d4d4d"/><stop offset="1" stop-color="#808080"/></linearGradient><linearGradient x1="338.17896" y1="183.09346" x2="338.17896" y2="178.89251" gradientUnits="userSpaceOnUse" id="color-26"><stop offset="0" stop-color="#4d4d4d"/><stop offset="1" stop-color="#808080"/></linearGradient><linearGradient x1="336.48073" y1="184.51008" x2="336.48073" y2="179.4894" gradientUnits="userSpaceOnUse" id="color-27"><stop offset="0" stop-color="#4d4d4d"/><stop offset="1" stop-color="#808080"/></linearGradient><linearGradient x1="333.98726" y1="185.51417" x2="333.98726" y2="179.87872" gradientUnits="userSpaceOnUse" id="color-28"><stop offset="0" stop-color="#4d4d4d"/><stop offset="1" stop-color="#808080"/></linearGradient><linearGradient x1="330.55818" y1="186.72043" x2="330.55818" y2="180.06039" gradientUnits="userSpaceOnUse" id="color-29"><stop offset="0" stop-color="#4d4d4d"/><stop offset="1" stop-color="#808080"/></linearGradient><linearGradient x1="322.14551" y1="188.62478" x2="322.14551" y2="180.73517" gradientUnits="userSpaceOnUse" id="color-30"><stop offset="0" stop-color="#4d4d4d"/><stop offset="1" stop-color="#808080"/></linearGradient><linearGradient x1="326.5761" y1="187.90345" x2="326.5761" y2="180.42369" gradientUnits="userSpaceOnUse" id="color-31"><stop offset="0" stop-color="#4d4d4d"/><stop offset="1" stop-color="#808080"/></linearGradient><linearGradient x1="301.20543" y1="183.09346" x2="301.20543" y2="178.89251" gradientUnits="userSpaceOnUse" id="color-32"><stop offset="0" stop-color="#4d4d4d"/><stop offset="1" stop-color="#808080"/></linearGradient><linearGradient x1="302.90367" y1="184.51008" x2="302.90367" y2="179.4894" gradientUnits="userSpaceOnUse" id="color-33"><stop offset="0" stop-color="#4d4d4d"/><stop offset="1" stop-color="#808080"/></linearGradient><linearGradient x1="305.39712" y1="185.51417" x2="305.39712" y2="179.87872" gradientUnits="userSpaceOnUse" id="color-34"><stop offset="0" stop-color="#4d4d4d"/><stop offset="1" stop-color="#808080"/></linearGradient><linearGradient x1="308.8262" y1="186.72043" x2="308.8262" y2="180.06039" gradientUnits="userSpaceOnUse" id="color-35"><stop offset="0" stop-color="#4d4d4d"/><stop offset="1" stop-color="#808080"/></linearGradient><linearGradient x1="317.2389" y1="188.62478" x2="317.2389" y2="180.73517" gradientUnits="userSpaceOnUse" id="color-36"><stop offset="0" stop-color="#4d4d4d"/><stop offset="1" stop-color="#808080"/></linearGradient><linearGradient x1="312.80827" y1="187.90345" x2="312.80827" y2="180.42369" gradientUnits="userSpaceOnUse" id="color-37"><stop offset="0" stop-color="#4d4d4d"/><stop offset="1" stop-color="#808080"/></linearGradient><linearGradient x1="303.24382" y1="71.50413" x2="303.24382" y2="160.71543" gradientUnits="userSpaceOnUse" id="color-38"><stop offset="0" stop-color="#c7c7c7"/><stop offset="1" stop-color="#c79797"/></linearGradient><linearGradient x1="319.4736" y1="146.06581" x2="319.4736" y2="181.77496" gradientUnits="userSpaceOnUse" id="color-39"><stop offset="0" stop-color="#000000"/><stop offset="1" stop-color="#ffdac9"/></linearGradient></defs><g transform="translate(-254.76317,-50.48965)"><g data-paper-data="{&quot;isPaintingLayer&quot;:true}" stroke-linecap="butt" stroke-linejoin="miter" stroke-miterlimit="10" stroke-dasharray="" stroke-dashoffset="0" style="mix-blend-mode: normal"><path d="M286.67305,307.45912l15.14285,-131.8421l37.78325,-0.15789l13.57389,132z" fill="url(#color-1)" fill-rule="nonzero" stroke="#000000" stroke-width="2"/><path d="M299.53999,204.07186l3.12142,-26.32765l35.83075,-0.14203l2.76735,26.1059c0,0 -7.51543,4.19603 -21.55904,4.50964c-12.48458,0.27879 -20.16049,-4.14586 -20.16049,-4.14586z" fill="#2f4b3d" fill-rule="nonzero" stroke="#000000" stroke-width="0"/><path d="M286.20349,307.39567l9.625,-85.15c0,0 16.14032,5.36651 24.41538,5.23987c8.05433,-0.12327 24.59071,-5.98987 24.59071,-5.98987l9.125,86.65z" fill="url(#color-2)" fill-rule="nonzero" stroke="#000000" stroke-width="1"/><path d="M330.77702,225.84335l-2.72223,-31.57302l7.33053,-1.11111l3.5,30.46191c0,0 1.97994,9.94622 -2.77415,10.47275c-4.71963,0.52271 -5.33415,-8.25053 -5.33415,-8.25053z" data-paper-data="{&quot;index&quot;:null}" fill="#6b6dd3" fill-rule="nonzero" stroke="#000000" stroke-width="1"/><path d="M301.66589,224.12113l3.5,-30.4619l8.21942,0.55556l-2.61111,32.12857c0,0 -1.38805,9.70344 -6.18894,8.77837c-5.22617,-1.00701 -2.91937,-11.0006 -2.91937,-11.0006z" fill="#6b6dd3" fill-rule="nonzero" stroke="#000000" stroke-width="1"/><path d="M338.78526,228.0533c0,1.99603 -1.54283,3.61412 -3.44602,3.61412c-1.90319,0 -3.44603,-1.6181 -3.44603,-3.61412c0,-1.99603 1.54284,-3.61412 3.44603,-3.61412c1.90319,0 3.44602,1.61809 3.44602,3.61412z" fill="#c6a438" fill-rule="nonzero" stroke="none" stroke-width="0"/><path d="M309.37397,228.76998c0,1.99603 -1.54283,3.61412 -3.44602,3.61412c-1.90319,0 -3.44603,-1.6181 -3.44603,-3.61412c0,-1.99603 1.54284,-3.61412 3.44603,-3.61412c1.90319,0 3.44602,1.61809 3.44602,3.61412z" fill="#c6a438" fill-rule="nonzero" stroke="none" stroke-width="0"/><path d="M308.84903,229.41997c0,1.99602 -1.54284,3.61412 -3.44602,3.61412c-1.90319,0 -3.44602,-1.6181 -3.44602,-3.61412c0,-1.99602 1.54284,-3.61412 3.44602,-3.61412c1.90319,0 3.44602,1.6181 3.44602,3.61412z" fill="#edd459" fill-rule="nonzero" stroke="none" stroke-width="0"/><path d="M338.53667,228.70122c0,1.87521 -1.44945,3.39537 -3.23744,3.39537c-1.78799,0 -3.23745,-1.52016 -3.23745,-3.39537c0,-1.87521 1.44946,-3.39537 3.23745,-3.39537c1.78799,0 3.23744,1.52016 3.23744,3.39537z" fill="#edd459" fill-rule="nonzero" stroke="none" stroke-width="0"/><path d="M341.61102,194.55742c0.90641,1.442 13.27591,-0.94411 14.53458,0.88889c0.31862,-0.594 9.30076,33.378 9.72787,35c-0.5926,-0.963 5.60783,49.33333 5.60783,49.33333c0,0 0.50768,22.79733 0.91556,22.33333c-0.88787,-0.49 -11.18842,-0.32367 -12.13122,-0.16667c0.5308,-15.625 -11.71487,-68.29133 -19.1124,-79.33333c2.25366,-15.345 -5.00951,-26.28055 0.45778,-28.05555z" fill="url(#color-3)" fill-rule="evenodd" stroke="none" stroke-width="1"/><path d="M341.52136,194.59512c0.91572,1.34757 13.41232,-0.88229 14.68393,0.83068c0.10385,-0.17908 1.11865,3.00386 2.46032,7.4491c-6.17155,-0.51975 -13.01437,-2.82677 -18.35267,1.21834c-0.00693,0.00525 -0.01384,0.01053 -0.02073,0.01584c-0.98219,-5.21007 -1.76061,-8.6161 1.22914,-9.51396z" fill="#2f4b3d" fill-rule="nonzero" stroke="none" stroke-width="1"/><path d="M387.45592,301.10947c0.01927,0.00566 0.03664,0.01141 0.05206,0.01725c-0.01724,0.01347 -0.0346,0.00734 -0.05206,-0.01725z" fill="#2f4b3d" fill-rule="nonzero" stroke="none" stroke-width="1"/><path d="M298.93917,222.5241c-7.39753,11.042 -19.6432,63.70833 -19.1124,79.33333c-0.9428,-0.157 -11.24335,-0.32333 -12.13122,0.16667c0.40788,0.464 7.11599,-72.62966 6.52339,-71.66666c0.42711,-1.622 9.40925,-35.594 9.72787,-35c1.25867,-1.833 13.62817,0.55311 14.53458,-0.88889c5.46729,1.775 -1.79588,12.71055 0.45778,28.05555z" data-paper-data="{&quot;index&quot;:null}" fill="url(#color-4)" fill-rule="evenodd" stroke="none" stroke-width="1"/><path d="M298.57106,194.50623c2.98975,0.89786 2.21133,4.30389 1.22914,9.51396c-0.00689,-0.00531 -0.0138,-0.01059 -0.02073,-0.01584c-5.3383,-4.04511 -12.18112,-1.73809 -18.35267,-1.21834c1.34167,-4.44524 2.35647,-7.62818 2.46032,-7.4491c1.27161,-1.71297 13.76821,0.51689 14.68393,-0.83068z" data-paper-data="{&quot;index&quot;:null}" fill="#2f4b3d" fill-rule="nonzero" stroke="none" stroke-width="1"/><path d="M261.69795,104.84057c0.37225,-1.95627 0.79829,-15.31507 14.96087,-28.03661c7.64679,-6.86874 16.3225,-16.66898 37.90299,-17.32053c32.05868,-0.51111 43.95019,11.08935 52.16133,19.80672c11.26206,11.95638 11.89977,22.71882 14.37822,27.96833c0.25164,0.53297 -119.41455,-2.35933 -119.40341,-2.4179z" fill="#a8530c" fill-rule="nonzero" stroke="none" stroke-width="1.5"/><path d="M255.76318,136.80525c0,-21.15086 11.60129,-39.75822 29.15655,-50.52104c1.08536,-1.75458 19.78544,-9.18722 33.30904,-9.29157c13.5236,-0.10435 26.06266,2.90177 35.96422,8.75705c18.0508,10.67434 30.04423,29.55022 30.04423,51.05556c0,33.30185 -28.7599,60.29833 -64.23702,60.29833c-35.47712,0 -64.23702,-26.99649 -64.23702,-60.29833z" fill="url(#color-5)" fill-rule="nonzero" stroke="#000000" stroke-width="2"/><path d="M256.486,136.85915c0,-0.72799 5.20666,55.91939 63.36046,56.93429c55.56352,0.9697 63.51358,-57.95314 63.51358,-56.93429c0,32.80479 -28.40173,59.39833 -63.43702,59.39833c-35.03529,0 -63.43702,-26.59354 -63.43702,-59.39833z" fill="url(#color-6)" fill-rule="nonzero" stroke="#000000" stroke-width="0"/><path d="M259.42026,148.5137c0,0 -3.17497,-7.83911 -3.17497,-11.77764c0,-6.02949 9.41909,-42.46903 9.41909,-42.46903h9.52492c0,0 -3.70913,8.16542 -4.33994,12.81431c-0.56023,4.12878 0.74163,13.70427 0.74163,13.70427l-2.07085,2.75646l-3.0049,-1.80454z" fill="#3a2f2b" fill-rule="nonzero" stroke="#000000" stroke-width="0"/><path d="M258.52306,144.00197c0,0 -3,-7.4071 -3,-11.12857c0,-5.6972 8.9,-40.12857 8.9,-40.12857h9c0,0 -3.50472,7.71542 -4.10076,12.10811c-0.52936,3.90124 0.70076,12.94903 0.70076,12.94903l-1.95673,2.60455l-2.8393,-1.70509z" fill="#766058" fill-rule="nonzero" stroke="#000000" stroke-width="1.5"/><path d="M336.75248,164.21535c-7.27947,0 -12.68065,-12.26265 -12.68065,-25.23065c0,-12.968 16.40118,-25.48065 23.68065,-25.48065c7.27947,0 18.68065,15.51265 18.68065,28.48065c0,12.968 -22.40118,22.23065 -29.68065,22.23065z" data-paper-data="{&quot;index&quot;:null}" fill="url(#color-7)" fill-rule="nonzero" stroke="#000000" stroke-width="2"/><path d="M279.70187,109.81346c0,0 11.49953,-4.26418 16.5281,-2.83931c5.02858,1.42488 11.69518,5.97183 11.69518,5.97183c0,0 -8.24902,-3.32832 -12.13243,-4.4287c-4.05831,-1.14994 -16.09085,1.29618 -16.09085,1.29618z" fill="#000000" fill-rule="nonzero" stroke="none" stroke-width="0"/><path d="M343.17758,108.87057c-3.85442,1.19798 -10.7515,5.32659 -10.7515,5.32659c0,0 5.28441,-5.30693 10.27546,-6.85819c4.99104,-1.55125 13.39479,-0.49871 13.39479,-0.49871c0,0 -8.89074,0.77838 -12.91875,2.03032z" data-paper-data="{&quot;index&quot;:null}" fill="#000000" fill-rule="nonzero" stroke="none" stroke-width="0"/><path d="M372.11949,122.73765l-3.0049,1.80454l-2.07085,-2.75646c0,0 1.30186,-9.57549 0.74163,-13.70427c-0.63081,-4.64889 -4.33994,-12.81431 -4.33994,-12.81431h9.52492c0,0 9.41909,36.43954 9.41909,42.46903c0,3.93853 -3.17497,11.77764 -3.17497,11.77764z" data-paper-data="{&quot;index&quot;:null}" fill="#3a2f2b" fill-rule="nonzero" stroke="#000000" stroke-width="0"/><path d="M373.71922,121.0349l-2.8393,1.70509l-1.95673,-2.60455c0,0 1.23012,-9.04779 0.70076,-12.94903c-0.59604,-4.39269 -4.10076,-12.10811 -4.10076,-12.10811h9c0,0 8.9,34.43137 8.9,40.12857c0,3.72147 -3,11.12857 -3,11.12857z" data-paper-data="{&quot;index&quot;:null}" fill="#766058" fill-rule="nonzero" stroke="#000000" stroke-width="1.5"/><path d="M258.29805,92.23966c16.52144,-23.64275 37.27087,-41.25 60.25,-41.25c22.93746,0 43.93743,11.90491 59.75,35.25c2.19899,3.24651 5.88227,22.83784 3.89123,23.94724c-2.97694,1.65874 -55.28548,-10.78057 -63.39123,-10.78057c-8.43856,0 -57.31213,11.19019 -60.9229,10.52524c-2.6,-0.4788 -2.04397,-14.16171 0.42291,-17.69191z" fill="url(#color-8)" fill-rule="nonzero" stroke="#000000" stroke-width="1"/><path d="M337.87562,71.8658c0,9.14006 -8.24543,16.54954 -18.41667,16.54954c-10.17124,0 -18.41667,-7.40948 -18.41667,-16.54954c0,-9.14006 8.24543,-16.54954 18.41667,-16.54954c10.17124,0 18.41667,7.40948 18.41667,16.54954z" fill="url(#color-9)" fill-rule="nonzero" stroke="none" stroke-width="0"/><path d="M270.57187,107.23897l2.83334,-8.78572c0,0 8.38245,-3.22377 9.03638,-3.40847c4.87995,-1.37836 25.70344,-8.21057 37.13028,-8.21057c11.03631,0 32.30917,6.51103 38.01657,8.0849c0.95074,0.26217 7.62628,4.74844 7.62628,4.74844l1.82143,8.83333c0,0 -8.71824,-2.99878 -9.5178,-2.99654c-1.88852,0.0053 -5.82465,-0.9574 -10.94539,-2.09485c-7.41256,-1.64651 -17.47406,3.50751 -27.23352,3.53491c-9.94581,0.02792 -19.58437,-5.30103 -26.47853,-3.80424c-4.75314,1.03195 -8.12256,1.90186 -9.20032,1.90488c-0.72784,0.00204 -13.08872,2.19393 -13.08872,2.19393z" fill="#141d18" fill-rule="nonzero" stroke="#000000" stroke-width="0"/><path d="M286.58817,136.23478c0,-12.968 2.32095,-52.98065 9.65565,-52.98065c7.3347,0 16.90565,40.01265 16.90565,52.98065c0,12.968 -5.94595,23.48065 -13.28065,23.48065c-7.3347,0 -13.28065,-10.51265 -13.28065,-23.48065z" fill="url(#color-10)" fill-rule="nonzero" stroke="#000000" stroke-width="2"/><path d="M329.40612,80.96067l-18.24951,-0.72108l-0.40074,-19.91504l5.4799,0.05106l-0.23111,13.48928l13.12073,0.23107z" data-paper-data="{&quot;index&quot;:null}" fill="url(#color-11)" fill-rule="evenodd" stroke="none" stroke-width="1"/><g fill-rule="nonzero" stroke-width="0"><path d="M332.87225,175.57938l-26.21606,0.10955z" fill="url(#color-12)" stroke="#000000"/><path d="M319.57943,190.11842c-23.83578,-0.08862 -18.53106,-3.45012 -25.71652,-16.10362c-2.94392,-5.18422 52.0134,-1.28736 52.0134,-1.28736c0,0 -1.72286,17.48234 -26.29688,17.39098z" fill="url(#color-13)" stroke="#000000"/><path d="M302.29526,185.21907c0,0 -1.5156,3.14224 -1.82266,-0.28269c-0.29368,-3.27567 -1.5557,-9.47409 -1.5557,-9.47409h41.90879c0,0 -1.5779,6.24427 -1.90521,9.53919c-0.36286,3.65289 -0.78896,-1.4206 -0.78896,-1.4206z" fill="#000000" stroke="none"/><g stroke="none"><g><path d="M338.66421,178.41784c0,0 -0.40606,-4.74133 1.5394,-4.74133c1.94545,0 1.41624,4.74133 1.41624,4.74133z" fill="url(#color-14)"/><path d="M336.48405,178.88041c0,0 -0.48529,-5.66648 1.83977,-5.66648c2.32505,0 1.69258,5.66648 1.69258,5.66648z" fill="url(#color-15)"/><path d="M333.4901,179.22731c0,0 -0.54471,-6.36033 2.06504,-6.36033c2.60975,0 1.89984,6.36033 1.89984,6.36033z" fill="url(#color-16)"/><path d="M329.30976,179.80555c0,0 -0.64374,-7.51675 2.44051,-7.51675c3.08425,0 2.24526,7.51675 2.24526,7.51675z" fill="url(#color-17)"/><path d="M319.50576,180.61502c0,0 -0.76259,-8.90446 2.89106,-8.90446c3.65366,0 2.65977,8.90446 2.65977,8.90446z" fill="url(#color-18)"/><path d="M324.58547,180.26812c0,0 -0.72298,-8.44189 2.74088,-8.44189c3.46385,0 2.5216,8.44189 2.5216,8.44189z" fill="url(#color-19)"/></g><g data-paper-data="{&quot;index&quot;:null}"><path d="M297.64891,178.30216c0,0 -0.52921,-4.74133 1.41624,-4.74133c1.94546,0 1.5394,4.74133 1.5394,4.74133z" fill="url(#color-20)"/><path d="M299.25235,178.76474c0,0 -0.63247,-5.66648 1.69258,-5.66648c2.32506,0 1.83977,5.66648 1.83977,5.66648z" fill="url(#color-21)"/><path d="M301.81372,179.1117c0,0 -0.70992,-6.36033 1.89984,-6.36033c2.60975,0 2.06504,6.36033 2.06504,6.36033z" fill="url(#color-22)"/><path d="M305.2732,179.68988c0,0 -0.83899,-7.51675 2.24526,-7.51675c3.08425,0 2.44051,7.51675 2.44051,7.51675z" fill="url(#color-23)"/><path d="M314.21214,180.4994c0,0 -0.99388,-8.90446 2.65977,-8.90446c3.65366,0 2.89106,8.90446 2.89106,8.90446z" fill="url(#color-24)"/><path d="M309.42076,180.15245c0,0 -0.94225,-8.44189 2.5216,-8.44189c3.46385,0 2.74088,8.44189 2.74088,8.44189z" fill="url(#color-25)"/></g></g><g stroke="none"><g><path d="M339.50559,178.89251c0,0 0.47507,4.25624 -1.27134,4.25624c-1.74641,0 -1.38189,-4.25624 -1.38189,-4.25624z" fill="url(#color-26)"/><path d="M338.0662,179.4894c0,0 0.56776,5.08673 -1.51941,5.08673c-2.08717,0 -1.65154,-5.08673 -1.65154,-5.08673z" fill="url(#color-27)"/><path d="M335.76688,179.87872c0,0 0.63728,5.70959 -1.70546,5.70959c-2.34274,0 -1.85376,-5.70959 -1.85376,-5.70959z" fill="url(#color-28)"/><path d="M332.66136,180.06039c0,0 0.75315,6.7477 -2.01554,6.7477c-2.76869,0 -2.19082,-6.7477 -2.19082,-6.7477z" fill="url(#color-29)"/><path d="M324.63694,180.73517c0,0 0.89219,7.99343 -2.38765,7.99343c-3.27984,0 -2.59526,-7.99343 -2.59526,-7.99343z" fill="url(#color-30)"/><path d="M328.93809,180.42369c0,0 0.84585,7.57818 -2.26361,7.57818c-3.10946,0 -2.46045,-7.57818 -2.46045,-7.57818z" fill="url(#color-31)"/></g><g data-paper-data="{&quot;index&quot;:null}"><path d="M302.53202,178.89251c0,0 0.36452,4.25624 -1.38189,4.25624c-1.74641,0 -1.27134,-4.25624 -1.27134,-4.25624z" fill="url(#color-32)"/><path d="M304.48915,179.4894c0,0 0.43563,5.08673 -1.65154,5.08673c-2.08717,0 -1.51941,-5.08673 -1.51941,-5.08673z" fill="url(#color-33)"/><path d="M307.17675,179.87872c0,0 0.48898,5.70959 -1.85376,5.70959c-2.34274,0 -1.70546,-5.70959 -1.70546,-5.70959z" fill="url(#color-34)"/><path d="M310.9294,180.06039c0,0 0.57788,6.7477 -2.19082,6.7477c-2.76869,0 -2.01554,-6.7477 -2.01554,-6.7477z" fill="url(#color-35)"/><path d="M319.73033,180.73517c0,0 0.68458,7.99343 -2.59526,7.99343c-3.27984,0 -2.38765,-7.99343 -2.38765,-7.99343z" fill="url(#color-36)"/><path d="M315.17031,180.42369c0,0 0.64901,7.57818 -2.46045,7.57818c-3.10946,0 -2.26361,-7.57818 -2.26361,-7.57818z" fill="url(#color-37)"/></g></g></g><path d="M289.96317,137.23478c0,-12.968 5.44595,-65.73065 12.78065,-65.73065c7.3347,0 13.78065,52.76265 13.78065,65.73065c0,12.968 -5.94595,23.48065 -13.28065,23.48065c-7.3347,0 -13.28065,-10.51265 -13.28065,-23.48065z" fill="url(#color-38)" fill-rule="nonzero" stroke="#000000" stroke-width="2"/><path d="M321.58808,168.62075c0,0 -25.15395,22.08602 -40.05509,15.24439c-14.90114,-6.84162 -14.22695,-40.16713 -14.22695,-40.16713c0,0 14.33284,15.22937 23.38537,19.38569c9.04147,4.15125 30.89668,5.53705 30.89668,5.53705z" fill="#000000" fill-rule="nonzero" stroke="none" stroke-width="0"/><path d="M350.09959,162.9966c8.93403,-4.10191 23.07925,-19.13193 23.07925,-19.13193c0,0 0.66537,32.88928 -14.04072,39.64135c-14.70608,6.75207 -39.53078,-15.04484 -39.53078,-15.04484c0,0 21.56913,-1.36767 30.49224,-5.46458z" data-paper-data="{&quot;index&quot;:null}" fill="#000000" fill-rule="nonzero" stroke="none" stroke-width="0"/><path d="M306.08961,172.46586c-3.03893,-9.31228 9.44444,-26.4 9.44444,-26.4c0,0 2.91771,0.38215 4.39081,0.43071c1.55573,0.05129 4.48697,-0.35293 4.48697,-0.35293c0,0 10.6936,19.54451 8.66667,26.1c-4.78824,15.48611 -23.94996,9.5345 -26.98889,0.22222z" fill="url(#color-39)" fill-rule="nonzero" stroke="#000000" stroke-width="2"/><path d="M315.96137,147.18069l1.26667,-4.92821l5.46667,0.2l1.12308,4.84103c0,0 -2.83871,0.7961 -4.25828,0.75031c-1.33016,-0.04291 -3.59813,-0.86313 -3.59813,-0.86313z" fill="#907b72" fill-rule="nonzero" stroke="#000000" stroke-width="0"/></g></g></svg>