<svg version="1.1" xmlns="http://www.w3.org/2000/svg" xmlns:xlink="http://www.w3.org/1999/xlink" width="128.47404" height="267.22501" viewBox="0,0,128.47404,267.22501"><defs><linearGradient x1="239.01195" y1="204.50004" x2="239.01195" y2="307.50004" gradientUnits="userSpaceOnUse" id="color-1"><stop offset="0" stop-color="#964b32"/><stop offset="1" stop-color="#000000"/></linearGradient><linearGradient x1="240.79785" y1="166.96675" x2="240.79785" y2="192.00459" gradientUnits="userSpaceOnUse" id="color-2"><stop offset="0" stop-color="#000000"/><stop offset="1" stop-color="#a17a3c"/></linearGradient><linearGradient x1="240.18506" y1="191.02797" x2="240.18506" y2="198.69463" gradientUnits="userSpaceOnUse" id="color-3"><stop offset="0" stop-color="#000000"/><stop offset="1" stop-color="#585c7e"/></linearGradient><linearGradient x1="240" y1="141.53803" x2="240" y2="192.36128" gradientUnits="userSpaceOnUse" id="color-4"><stop offset="0" stop-color="#000000"/><stop offset="1" stop-color="#9e4e33"/></linearGradient><linearGradient x1="266.09447" y1="116.24245" x2="266.09447" y2="167.0657" gradientUnits="userSpaceOnUse" id="color-5"><stop offset="0" stop-color="#000000"/><stop offset="1" stop-color="#4d4242"/></linearGradient><linearGradient x1="212.08328" y1="116.21183" x2="212.08328" y2="167.03508" gradientUnits="userSpaceOnUse" id="color-6"><stop offset="0" stop-color="#000000"/><stop offset="1" stop-color="#4d4242"/></linearGradient><linearGradient x1="239.80972" y1="166.96678" x2="239.80972" y2="192.00466" gradientUnits="userSpaceOnUse" id="color-7"><stop offset="0" stop-color="#000000"/><stop offset="1" stop-color="#a14f34"/></linearGradient><linearGradient x1="219.30332" y1="250.83924" x2="260.46999" y2="250.83924" gradientUnits="userSpaceOnUse" id="color-8"><stop offset="0" stop-color="#151619"/><stop offset="1" stop-color="#505155"/></linearGradient><linearGradient x1="239.88666" y1="230.25591" x2="239.88666" y2="271.42258" gradientUnits="userSpaceOnUse" id="color-9"><stop offset="0" stop-color="#812505"/><stop offset="1" stop-color="#000000"/></linearGradient><radialGradient cx="240.50959" cy="250.23619" r="1.87123" gradientUnits="userSpaceOnUse" id="color-10"><stop offset="0" stop-color="#808080"/><stop offset="1" stop-color="#636363"/></radialGradient><linearGradient x1="240.18506" y1="200.66677" x2="240.18506" y2="208.33343" gradientUnits="userSpaceOnUse" id="color-11"><stop offset="0" stop-color="#000000"/><stop offset="1" stop-color="#585c7e"/></linearGradient><radialGradient cx="253.42667" cy="228.38465" r="1.87123" gradientUnits="userSpaceOnUse" id="color-12"><stop offset="0" stop-color="#252525"/><stop offset="1" stop-color="#050505"/></radialGradient><radialGradient cx="253.42667" cy="228.38465" r="1.87123" gradientUnits="userSpaceOnUse" id="color-13"><stop offset="0" stop-color="#7c7d81"/><stop offset="1" stop-color="#37383a"/></radialGradient><radialGradient cx="255.25552" cy="254.50364" r="4.91667" gradientUnits="userSpaceOnUse" id="color-14"><stop offset="0" stop-color="#acaeb4"/><stop offset="1" stop-color="#696a6e"/></radialGradient></defs><g transform="translate(-175.76298,-46.38749)"><g data-paper-data="{&quot;isPaintingLayer&quot;:true}" fill-rule="nonzero" stroke-linejoin="miter" stroke-miterlimit="10" stroke-dasharray="" stroke-dashoffset="0" style="mix-blend-mode: normal"><path d="M178.29564,313.61251v-267.22501h123.18203v267.22501z" fill-opacity="0.01" fill="#000000" stroke="none" stroke-width="0" stroke-linecap="butt"/><path d="M205.76195,307.50003l14.14285,-102.8421l39.28325,-0.15789l13.07389,103z" fill="url(#color-1)" stroke="#000000" stroke-width="0" stroke-linecap="butt"/><path d="" fill="url(#color-2)" stroke="#000000" stroke-width="0" stroke-linecap="butt"/><path d="M230.35172,198.69463v-7.66667h19.66667v7.66667z" fill="url(#color-3)" stroke="#000000" stroke-width="0" stroke-linecap="butt"/><path d="M250.7406,208.09057c0.34203,19.95645 -23.38153,17.88935 -23.46096,0.13765z" fill="#535353" stroke="#000000" stroke-width="0" stroke-linecap="butt"/><path d="M175.76298,166.94966c0,-14.03446 28.7599,-25.41163 64.23702,-25.41163c35.47712,0 64.23702,11.37718 64.23702,25.41163c0,14.03446 -28.7599,25.41163 -64.23702,25.41163c-35.47712,0 -64.23702,-11.37718 -64.23702,-25.41163z" fill="url(#color-4)" stroke="#000000" stroke-width="0" stroke-linecap="butt"/><g stroke="#000000" stroke-width="0" stroke-linecap="butt"><path d="M240,141.65407c0,-14.03446 11.68289,-25.41163 26.09447,-25.41163c14.41158,0 26.09447,11.37717 26.09447,25.41163c0,14.03446 -11.68289,25.41163 -26.09447,25.41163c-14.41158,0 -26.09447,-11.37717 -26.09447,-25.41163z" fill="url(#color-5)"/><path d="M185.98881,141.62345c0,-14.03446 11.68289,-25.41163 26.09447,-25.41163c14.41158,0 26.09447,11.37717 26.09447,25.41163c0,14.03446 -11.68289,25.41163 -26.09447,25.41163c-14.41158,0 -26.09447,-11.37717 -26.09447,-25.41163z" fill="url(#color-6)"/></g><path d="M260.39305,207.00015c0,3.31371 -9.21547,6 -20.58334,6c-11.36786,0 -20.58333,-2.68629 -20.58333,-6c0,-3.31371 9.21547,-6 20.58333,-6c11.36786,0 20.58334,2.68629 20.58334,6z" fill="#6d1b00" stroke="#000000" stroke-width="0" stroke-linecap="butt"/><path d="M176.3727,166.97231c0,-0.3068 5.20666,23.56621 63.36046,23.99392c55.56352,0.40866 63.51358,-24.42329 63.51358,-23.99392c0,13.82498 -28.40173,25.03234 -63.43702,25.03234c-35.03529,0 -63.43702,-11.20736 -63.43702,-25.03234z" fill="url(#color-7)" stroke="#000000" stroke-width="0" stroke-linecap="butt"/><path d="M219.30332,250.83924c0,-11.36786 9.21547,-20.58333 20.58334,-20.58333c11.36786,0 20.58333,9.21547 20.58333,20.58333c0,11.36786 -9.21547,20.58334 -20.58333,20.58334c-11.36786,0 -20.58334,-9.21547 -20.58334,-20.58334z" fill="url(#color-8)" stroke="url(#color-9)" stroke-width="1" stroke-linecap="butt"/><path d="M230.05332,250.83924c0,-5.4308 4.40253,-9.83333 9.83333,-9.83333c5.4308,0 9.83334,4.40253 9.83334,9.83333c0,5.4308 -4.40253,9.83334 -9.83334,9.83334c-5.4308,0 -9.83333,-4.40253 -9.83333,-9.83334z" fill="#963832" stroke="#000000" stroke-width="1" stroke-linecap="butt"/><path d="M238.01543,250.83924c0,-1.03345 0.83778,-1.87123 1.87123,-1.87123c1.03345,0 1.87123,0.83778 1.87123,1.87123c0,1.03345 -0.83778,1.87123 -1.87123,1.87123c-1.03345,0 -1.87123,-0.83778 -1.87123,-1.87123z" fill="url(#color-10)" stroke="#000000" stroke-width="0" stroke-linecap="butt"/><path d="M231.99691,250.83924c0,-4.35738 3.53236,-7.88974 7.88974,-7.88974c4.35738,0 7.88974,3.53236 7.88974,7.88974c0,4.35738 -3.53236,7.88974 -7.88974,7.88974c-4.35738,0 -7.88974,-3.53236 -7.88974,-7.88974z" fill="none" stroke="#772e27" stroke-width="1" stroke-linecap="butt"/><text transform="translate(234.89818,248.05961) scale(0.06663,0.06663)" font-size="40" xml:space="preserve" fill="#7e8000" fill-rule="nonzero" stroke="none" stroke-width="0" stroke-linecap="butt" stroke-linejoin="miter" stroke-miterlimit="10" stroke-dasharray="" stroke-dashoffset="0" font-family="Sans Serif" font-weight="normal" text-anchor="start" style="mix-blend-mode: normal"><tspan x="0" dy="0">Sprunki</tspan></text><path d="M188.40207,137.27576c0,-12.968 10.51265,-23.48065 23.48065,-23.48065c12.968,0 23.48065,10.51265 23.48065,23.48065c0,12.968 -10.51265,23.48065 -23.48065,23.48065c-12.968,0 -23.48065,-10.51265 -23.48065,-23.48065z" fill="#808080" stroke="#000000" stroke-width="0" stroke-linecap="butt"/><path d="M195.46746,137.00007c0,-9.12808 7.39976,-16.52784 16.52783,-16.52784c9.12808,0 16.52784,7.39977 16.52784,16.52784c0,9.12808 -7.39977,16.52784 -16.52784,16.52784c-9.12808,0 -16.52783,-7.39977 -16.52783,-16.52784z" fill="#000000" stroke="none" stroke-width="0" stroke-linecap="butt"/><path d="M266.14116,160.75633c-12.968,0 -23.48065,-10.51265 -23.48065,-23.48065c0,-12.968 10.51265,-23.48065 23.48065,-23.48065c12.968,0 23.48065,10.51265 23.48065,23.48065c0,12.968 -10.51265,23.48065 -23.48065,23.48065z" data-paper-data="{&quot;index&quot;:null}" fill="#808080" stroke="#000000" stroke-width="0" stroke-linecap="butt"/><path d="M266.02858,153.52792c-9.12807,0 -16.52783,-7.39977 -16.52783,-16.52784c0,-9.12808 7.39977,-16.52784 16.52783,-16.52784c9.12807,0 16.52783,7.39977 16.52783,16.52784c0,9.12808 -7.39977,16.52784 -16.52783,16.52784z" data-paper-data="{&quot;index&quot;:null}" fill="#000000" stroke="none" stroke-width="0" stroke-linecap="butt"/><path d="M188.40208,136.94713c0,-12.968 10.51265,-23.48065 23.48065,-23.48065c12.968,0 23.48065,10.51265 23.48065,23.48065c0,0 -46.96131,1.23155 -46.96131,0z" fill="#30538d" stroke="#000000" stroke-width="0" stroke-linecap="butt"/><path d="M242.66053,137.27576c0,-12.968 10.51265,-23.48065 23.48065,-23.48065c12.968,0 23.48065,10.51265 23.48065,23.48065c0,1.2138 -46.96131,0 -46.96131,0z" data-paper-data="{&quot;index&quot;:null}" fill="#30538d" stroke="#000000" stroke-width="0" stroke-linecap="butt"/><path d="M201.03975,108.46729c0,0 6.70895,-5.16922 11.79721,-6.36355c5.08827,-1.19433 12.33413,0.69937 12.33413,0.69937c0,0 -8.03812,-0.06028 -11.96762,0.86207c-4.10648,0.96389 -12.16372,4.80211 -12.16372,4.80211z" fill="#806f00" stroke="#000000" stroke-width="0" stroke-linecap="butt"/><path d="M264.97423,103.66518c-3.9295,-0.92235 -11.96762,-0.86207 -11.96762,-0.86207c0,0 7.24586,-1.8937 12.33413,-0.69937c5.08826,1.19433 11.79721,6.36355 11.79721,6.36355c0,0 -8.05724,-3.83822 -12.16372,-4.80211z" data-paper-data="{&quot;index&quot;:null}" fill="#806f00" stroke="#000000" stroke-width="0" stroke-linecap="butt"/><path d="M230.35172,208.33343v-7.66667h19.66667v7.66667z" fill="url(#color-11)" stroke="#000000" stroke-width="0" stroke-linecap="butt"/><path d="M254.26611,230.21147l4.66667,12.16667l-3.83333,12.5" fill="none" stroke="#616266" stroke-width="1.5" stroke-linecap="round"/><path d="M251.55544,228.38465c0,-1.03345 0.83778,-1.87123 1.87123,-1.87123c1.03345,0 1.87123,0.83778 1.87123,1.87123c0,1.03345 -0.83778,1.87123 -1.87123,1.87123c-1.03345,0 -1.87123,-0.83778 -1.87123,-1.87123z" fill="url(#color-12)" stroke="url(#color-13)" stroke-width="0.5" stroke-linecap="butt"/><path d="M252.02984,258.64243l2.95406,-9.37913l3.4973,1.10151l-2.95406,9.37913z" fill="#8d6e40" stroke="url(#color-14)" stroke-width="0" stroke-linecap="butt"/><path d="M267.99189,172.65641c0,0 -11.85428,4.17064 -18.37102,4.80089c-7.20129,0.69646 -22.98857,-0.80089 -22.98857,-0.80089" fill="none" stroke="#000000" stroke-width="2" stroke-linecap="round"/></g></g></svg>