<svg version="1.1" xmlns="http://www.w3.org/2000/svg" xmlns:xlink="http://www.w3.org/1999/xlink" width="35.5121" height="35.5117" viewBox="0,0,35.5121,35.5117"><defs><linearGradient x1="239.83046" y1="162.74413" x2="239.83046" y2="196.91723" gradientUnits="userSpaceOnUse" id="color-1"><stop offset="0" stop-color="#000000"/><stop offset="1" stop-color="#5e5e5e"/></linearGradient><linearGradient x1="239.83052" y1="167.02262" x2="239.83052" y2="193.1247" gradientUnits="userSpaceOnUse" id="color-2"><stop offset="0" stop-color="#121200"/><stop offset="1" stop-color="#4c4c00"/></linearGradient><linearGradient x1="239.83052" y1="167.02262" x2="239.83052" y2="193.1247" gradientUnits="userSpaceOnUse" id="color-3"><stop offset="0" stop-color="#434300"/><stop offset="1" stop-color="#0e0c05" stop-opacity="0.47451"/></linearGradient><linearGradient x1="240.59071" y1="166.53662" x2="240.59071" y2="172.57965" gradientUnits="userSpaceOnUse" id="color-4"><stop offset="0" stop-color="#303436"/><stop offset="1" stop-color="#a0aeb1"/></linearGradient></defs><g transform="translate(-222.24396,-162.24413)"><g data-paper-data="{&quot;isPaintingLayer&quot;:true}" stroke-miterlimit="10" stroke-dasharray="" stroke-dashoffset="0" style="mix-blend-mode: normal"><path d="M257.75606,170.02543v20.498c0,4.0075 -3.225,7.2324 -7.2324,7.2324h-20.5c-3.6611,0 -6.6615,-2.6938 -7.1543,-6.2148c0.7952,3.0347 3.541,5.2637 6.832,5.2637h20.0332c3.9166,0 7.0703,-3.1538 7.0703,-7.0703v-20.0333c0,-3.2976 -2.239,-6.0451 -5.2832,-6.8339c3.5299,0.4849 6.2344,3.4908 6.2344,7.1582z" fill-opacity="0.29839" fill="#000000" fill-rule="evenodd" stroke="none" stroke-width="4.54219" stroke-linecap="round" stroke-linejoin="round"/><path d="M229.81366,162.74413h20.0338c3.9166,0 7.0696,3.1531 7.0696,7.0697v20.0338c0,3.9165 -3.153,7.0696 -7.0696,7.0696h-20.0338c-3.9166,0 -7.0697,-3.1531 -7.0697,-7.0696v-20.0338c0,-3.9166 3.1531,-7.0697 7.0697,-7.0697z" fill="url(#color-1)" fill-rule="evenodd" stroke="#fffff3" stroke-width="1" stroke-linecap="round" stroke-linejoin="round"/><g fill-rule="nonzero" stroke-width="0" stroke-linejoin="miter"><path d="M248.27464,180.91748c-0.69664,6.94191 -4.77535,12.26312 -9.2371,12.20678c-0.09438,-1.43106 -0.30666,-2.80202 -0.94383,-3.70113c-0.5417,-0.76439 -1.26966,-1.46417 -2.09668,-1.96538v-0.75757h-0.51191l0.39246,-0.68085c-1.18907,-1.10635 -1.94699,-3.20601 -3.56721,-3.31905c-0.33196,-0.02316 -0.63335,0.01191 -0.90764,0.09559c-0.09164,-1.14489 -0.082,-2.34188 0.04099,-3.56743c0.3014,-3.00332 2.32874,-5.59361 3.65334,-7.686c1.8478,-2.91887 3.36199,-4.76507 6.06912,-4.4934c2.69403,0.27036 3.97758,2.8196 5.212,6.02208c0.89521,2.32244 2.19989,4.82276 1.89647,7.84635z" fill="url(#color-2)" stroke="url(#color-3)" stroke-linecap="butt"/><path d="M244.14046,167.00148l4.14136,5.57817l-15.38221,-1.14484l4.733,-4.89818z" fill="url(#color-4)" stroke="#474e4f" stroke-linecap="round"/></g></g></g></svg>