<svg version="1.1" xmlns="http://www.w3.org/2000/svg" xmlns:xlink="http://www.w3.org/1999/xlink" width="166.59034" height="322.95118" viewBox="0,0,166.59034,322.95118"><g transform="translate(-157.14814,9.33865)"><g stroke-miterlimit="10"><path d="M179.28375,313.61253v-267.22501h123.18203v267.22501z" fill-opacity="0.01" fill="#000000" stroke="none" stroke-width="0" stroke-linecap="butt"/><g stroke="#000000" stroke-width="2" stroke-linecap="butt"><path d="M236.33333,94.41269l0.00001,-82.04479h7.33332l0.00001,82.04479z" fill="#8bd19c"/><path d="M240,33.07445c-9.75703,0 -17.66667,-9.27064 -17.66667,-20.70655c0,-11.43591 7.90964,-20.70655 17.66667,-20.70655c9.75703,0 17.66667,9.27064 17.66667,20.70655c0,11.43591 -7.90964,20.70655 -17.66667,20.70655z" fill="#1a9138"/></g><path d="M206.75007,307.50001l15.14285,-131.8421l37.78325,-0.15789l13.57389,132z" fill="#1a9138" stroke="#000000" stroke-width="2" stroke-linecap="butt"/><path d="M219.70029,208.49417l3.12142,-26.32765l35.83075,-0.14203l2.76735,26.1059c0,0 -7.51543,4.19603 -21.55904,4.50964c-12.48458,0.27879 -20.16049,-4.14586 -20.16049,-4.14586z" fill="#15722c" stroke="#000000" stroke-width="0" stroke-linecap="butt"/><path d="M175.83997,141.22769c0,-33.30185 28.7599,-60.29833 64.23702,-60.29833c35.47712,0 64.23702,26.99649 64.23702,60.29833c0,33.30185 -28.7599,60.29833 -64.23702,60.29833c-35.47712,0 -64.23702,-26.99649 -64.23702,-60.29833z" fill="#1a9138" stroke="#000000" stroke-width="2" stroke-linecap="butt"/><path d="M176.56303,141.28154c0,-0.72799 5.20666,55.91939 63.36046,56.93429c55.56352,0.9697 63.51358,-57.95314 63.51358,-56.93429c0,32.80479 -28.40173,59.39833 -63.43702,59.39833c-35.03529,0 -63.43702,-26.59354 -63.43702,-59.39833z" fill="#15722c" stroke="#000000" stroke-width="0" stroke-linecap="butt"/><path d="M189.39019,141.65717c0,-12.968 10.51265,-23.48065 23.48065,-23.48065c12.968,0 23.48065,10.51265 23.48065,23.48065c0,12.968 -10.51265,23.48065 -23.48065,23.48065c-12.968,0 -23.48065,-10.51265 -23.48065,-23.48065z" fill="#ffffff" stroke="#000000" stroke-width="2" stroke-linecap="butt"/><path d="M196.45557,141.38153c0,-9.12808 7.39976,-16.52784 16.52783,-16.52784c9.12808,0 16.52784,7.39977 16.52784,16.52784c0,9.12808 -7.39977,16.52784 -16.52784,16.52784c-9.12808,0 -16.52783,-7.39977 -16.52783,-16.52784z" fill="#000000" stroke="none" stroke-width="0" stroke-linecap="butt"/><path d="M267.12926,165.13781c-12.968,0 -23.48065,-10.51265 -23.48065,-23.48065c0,-12.968 10.51265,-23.48065 23.48065,-23.48065c12.968,0 23.48065,10.51265 23.48065,23.48065c0,12.968 -10.51265,23.48065 -23.48065,23.48065z" fill="#ffffff" stroke="#000000" stroke-width="2" stroke-linecap="butt"/><path d="M267.01671,157.90937c-9.12807,0 -16.52783,-7.39977 -16.52783,-16.52784c0,-9.12808 7.39977,-16.52784 16.52783,-16.52784c9.12807,0 16.52783,7.39977 16.52783,16.52784c0,9.12808 -7.39977,16.52784 -16.52783,16.52784z" fill="#000000" stroke="none" stroke-width="0" stroke-linecap="butt"/><path d="M189.39019,141.65717c0,-12.968 10.51265,-23.48065 23.48065,-23.48065c12.968,0 23.48065,10.51265 23.48065,23.48065c0,0 -46.96131,1.23155 -46.96131,0z" fill="#1a9138" stroke="#000000" stroke-width="2" stroke-linecap="butt"/><path d="M243.64863,141.65717c0,-12.968 10.51265,-23.48065 23.48065,-23.48065c12.968,0 23.48065,10.51265 23.48065,23.48065c0,1.2138 -46.96131,0 -46.96131,0z" fill="#1a9138" stroke="#000000" stroke-width="2" stroke-linecap="butt"/><path d="M240.7128,241.83334c63.85944,-2.35684 63.85494,-106.23438 63.85494,-106.23438l8.66374,-6.40609c0,0 1.21627,124.01161 -72.51868,123.85112c-74.10115,-0.16129 -73.48132,-122.78343 -73.48132,-122.78343l7.38022,4.80457c0,0 4.25744,109.05064 66.1011,106.76821z" fill="#8bd19c" stroke="#000000" stroke-width="2" stroke-linecap="butt"/><path d="M158.14814,141.71139c0,-12.51846 9.08054,-22.66667 20.28196,-22.66667c1.01424,0 1.18635,45.33333 0,45.33333c-11.20142,0 -20.28196,-10.14821 -20.28196,-22.66666z" fill="#1a9138" stroke="#000000" stroke-width="2" stroke-linecap="butt"/><path d="M173.21877,165.71139v-48.33334h10.14098v48.33334z" fill="#8bd19c" stroke="#000000" stroke-width="2" stroke-linecap="butt"/><path d="M302.45651,164.37806c-1.18635,0 -1.01423,-45.33333 0,-45.33333c11.20142,0 20.28197,10.14821 20.28197,22.66667c0,12.51845 -9.08055,22.66666 -20.28197,22.66666z" fill="#1a9138" stroke="#000000" stroke-width="2" stroke-linecap="butt"/><path d="M297.16436,165.71139v-48.33334h10.14098v48.33334z" fill="#8bd19c" stroke="#000000" stroke-width="2" stroke-linecap="butt"/><path d="M257.61574,88.32424l4.83333,21.33333l-23.83333,-11.5l1.33333,11.33334l-23,-18" fill="none" stroke="#000000" stroke-width="2" stroke-linecap="round"/><path d="M202.02786,112.84869c0,0 6.70895,-5.16922 11.79721,-6.36355c5.08827,-1.19433 12.33413,0.69937 12.33413,0.69937c0,0 -8.03812,-0.06028 -11.96762,0.86207c-4.10648,0.96389 -12.16372,4.80211 -12.16372,4.80211z" fill="#000000" stroke="none" stroke-width="0" stroke-linecap="butt"/><path d="M265.96236,108.04659c-3.9295,-0.92235 -11.96762,-0.86207 -11.96762,-0.86207c0,0 7.24586,-1.8937 12.33413,-0.69937c5.08826,1.19433 11.79721,6.36355 11.79721,6.36355c0,0 -8.05724,-3.83822 -12.16372,-4.80211z" fill="#000000" stroke="none" stroke-width="0" stroke-linecap="butt"/><path d="M263.34381,175.41607c0,0 -9.23495,4.53774 -16.84599,6.83631c-6.39461,1.9312 -24.64084,-1.89898 -24.64084,-1.89898" fill="none" stroke="#000000" stroke-width="2" stroke-linecap="round"/></g></g></svg>