<svg version="1.1" xmlns="http://www.w3.org/2000/svg" xmlns:xlink="http://www.w3.org/1999/xlink" width="34.17311" height="34.17311" viewBox="0,0,34.17311,34.17311"><g transform="translate(-222.91346,-162.91346)"><g data-paper-data="{&quot;isPaintingLayer&quot;:true}" stroke-miterlimit="10" stroke-dasharray="" stroke-dashoffset="0" style="mix-blend-mode: normal"><path d="M229.98314,162.91347h20.03378c3.9166,0 7.06966,3.15307 7.06966,7.06966v20.03379c0,3.91659 -3.15306,7.06966 -7.06966,7.06966h-20.03378c-3.91659,0 -7.06967,-3.15307 -7.06967,-7.06966v-20.03379c0,-3.91659 3.15308,-7.06966 7.06967,-7.06966z" fill-opacity="0.09677" fill="#191919" fill-rule="evenodd" stroke="none" stroke-width="4.43922" stroke-linecap="round" stroke-linejoin="round"/><path d="M225.9714,189.46591v-18.93181h28.05721v18.93181zM227.26319,187.2742l20.29335,-0.13574l-0.20385,-13.48335l-20.08905,-0.00046z" fill="#000000" fill-rule="nonzero" stroke="#ffffff" stroke-width="0.25" stroke-linecap="butt" stroke-linejoin="miter"/><path d="M248.07859,176.24809c0,-0.3275 0,-1.33624 0,-1.88179c0,-0.2158 0.20061,-0.35913 0.41624,-0.35913c0.62411,0 3.69875,0 4.72381,0c0.20938,0 0.33324,0.27715 0.33324,0.50388c0,0.3184 0,1.1998 0,1.73703c0,0.25713 -0.17802,0.43541 -0.46821,0.43541c-1.14909,0 -4.05693,0 -4.63383,0c-0.19492,0 -0.37125,-0.23394 -0.37125,-0.43541z" fill="#ffffff" fill-rule="nonzero" stroke="#725771" stroke-width="0" stroke-linecap="butt" stroke-linejoin="miter"/><path d="M248.42054,187.67684c0,-0.43691 0,-1.08433 0,-1.32164c0,-0.17387 0.18284,-0.38284 0.37738,-0.38284c0.54506,0 3.15689,0 4.07202,0c0.19886,0 0.3176,0.27026 0.3176,0.47725c0,0.23982 0,0.82182 0,1.22724c0,0.24604 -0.15051,0.42704 -0.3176,0.42704c-0.47667,0 -2.81139,0 -3.89497,0c-0.33813,0 -0.55443,-0.17982 -0.55443,-0.42704z" fill="none" fill-rule="nonzero" stroke="#ffffff" stroke-width="0.25" stroke-linecap="butt" stroke-linejoin="miter"/><path d="M248.44438,185.1363c0,-1.3427 0,-6.60478 0,-7.48012c0,-0.24105 0.19371,-0.44831 0.39781,-0.44831c0.54283,0 3.0352,0 4.02776,0c0.2538,0 0.40954,0.18453 0.40954,0.40405c0,0.82546 0,5.95449 0,7.43586c0,0.25351 -0.12873,0.4002 -0.27676,0.4002c-0.4907,0 -3.22087,0 -4.2048,0c-0.2207,0 -0.35354,-0.11288 -0.35354,-0.31168z" fill="#000000" fill-rule="nonzero" stroke="#ffffff" stroke-width="0.25" stroke-linecap="butt" stroke-linejoin="miter"/><path d="M253.1355,188.74358c0,-0.13444 0.109,-0.24344 0.24344,-0.24344c0.13444,0 0.24343,0.10899 0.24343,0.24344c0,0.13444 -0.10899,0.24344 -0.24343,0.24344c-0.13444,0 -0.24344,-0.10899 -0.24344,-0.24344z" fill="#ffffff" fill-rule="nonzero" stroke="none" stroke-width="0.25" stroke-linecap="butt" stroke-linejoin="miter"/><path d="M226.62515,188.56654c0,-0.18333 0.14862,-0.33196 0.33195,-0.33196c0.18333,0 0.33196,0.14862 0.33196,0.33196c0,0.18333 -0.14862,0.33195 -0.33196,0.33195c-0.18333,0 -0.33195,-0.14862 -0.33195,-0.33195z" fill="#ffffff" fill-rule="nonzero" stroke="none" stroke-width="0.25" stroke-linecap="butt" stroke-linejoin="miter"/><path d="M226.31532,171.23834c0,-0.12222 0.09909,-0.22131 0.22131,-0.22131c0.12222,0 0.22131,0.09909 0.22131,0.22131c0,0.12222 -0.09909,0.22131 -0.22131,0.22131c-0.12222,0 -0.22131,-0.09909 -0.22131,-0.22131z" fill="#ffffff" fill-rule="nonzero" stroke="none" stroke-width="0.25" stroke-linecap="butt" stroke-linejoin="miter"/><path d="M253.1362,171.09177c0,-0.16297 0.13211,-0.29509 0.29509,-0.29509c0.16297,0 0.29509,0.13211 0.29509,0.29509c0,0.16297 -0.13211,0.29509 -0.29509,0.29509c-0.16297,0 -0.29509,-0.13212 -0.29509,-0.29509z" fill="#ffffff" fill-rule="nonzero" stroke="none" stroke-width="0.25" stroke-linecap="butt" stroke-linejoin="miter"/><path d="M250.80937,177.29045v7.92273" fill="none" fill-rule="nonzero" stroke="#ffffff" stroke-width="0.25" stroke-linecap="round" stroke-linejoin="miter"/><path d="M253.06668,183.13291h-4.51462" fill="none" fill-rule="nonzero" stroke="#ffffff" stroke-width="0.25" stroke-linecap="round" stroke-linejoin="miter"/><path d="M253.19946,181.22968h-4.60314" fill="none" fill-rule="nonzero" stroke="#ffffff" stroke-width="0.25" stroke-linecap="round" stroke-linejoin="miter"/><path d="M253.1552,179.28219h-4.64741" fill="none" fill-rule="nonzero" stroke="#ffffff" stroke-width="0.25" stroke-linecap="round" stroke-linejoin="miter"/></g></g></svg>