<svg version="1.1" xmlns="http://www.w3.org/2000/svg" xmlns:xlink="http://www.w3.org/1999/xlink" width="200.09194" height="259.92113" viewBox="0,0,200.09194,259.92113"><g transform="translate(-105.14509,-48.1592)"><g data-paper-data="{&quot;isPaintingLayer&quot;:true}" fill-rule="nonzero" stroke-linejoin="miter" stroke-miterlimit="10" stroke-dasharray="" stroke-dashoffset="0" style="mix-blend-mode: normal"><g stroke-width="2"><path d="M218.89412,187.72072l41.41765,0.2301l11.35535,119.12951h-66.95856z" fill="#1700ff" stroke="#000000" stroke-linecap="round"/><path d="M224.98107,208.01619c0,0 8.59931,-2.75209 13.15649,-2.72677c4.92858,0.02738 15.38818,2.88535 15.38818,2.88535c0,0 5.58598,21.88621 6.76513,34.2567c1.39353,14.61968 1.06086,47.84628 1.06086,47.84628c0,0 -15.49885,2.79985 -23.21318,2.79985c-7.66781,0 -22.93404,-2.79985 -22.93404,-2.79985c0,0 0.14928,-30.704 1.84788,-44.99643c1.54583,-13.00673 7.92867,-37.26512 7.92867,-37.26512z" fill="#fddfbd" stroke="#000000" stroke-linecap="round"/><g data-paper-data="{&quot;index&quot;:null}"><path d="M272.4027,306.75354l-14.08066,0.16331l-13.87186,-116.74087l14.04726,-0.84509l1.68723,8.3627l11.21659,90.17129z" data-paper-data="{&quot;index&quot;:null}" fill="#ef2a2e" stroke="#000000" stroke-linecap="round"/><path d="M253.39258,253.46184l-1.23923,-11.83468l13.92315,-1.45792l1.23923,11.83468z" fill="#ffffff" stroke="none" stroke-linecap="butt"/><path d="M259.38973,306.90173l-14.34371,-111.07183l3.47099,-0.44824l14.34371,111.07183z" fill="#ffffff" stroke="none" stroke-linecap="butt"/></g><path d="M207.65709,287.61555l11.21659,-90.17129l1.07154,-8.36271l14.66295,0.8451l-13.87187,116.74088l-14.08066,-0.16331z" data-paper-data="{&quot;index&quot;:null}" fill="#ef2a2e" stroke="#000000" stroke-linecap="round"/><path d="M212.35831,249.90754l1.23922,-11.83468l13.92316,1.45792l-1.23923,11.83468z" fill="#ffffff" stroke="none" stroke-linecap="butt"/><path d="M215.58192,305.28067l14.34371,-111.07182l3.47099,0.44824l-14.34372,111.07182z" fill="#ffffff" stroke="none" stroke-linecap="butt"/><path d="M230.00205,210.50741c-0.43413,3.26352 -3.06035,5.60658 -5.86584,5.23338c-2.80548,-0.3732 -4.72786,-3.32133 -4.29372,-6.58485c0.43413,-3.26352 3.06034,-5.60659 5.86585,-5.2334c2.80548,0.3732 4.72783,3.32134 4.29371,6.58486z" fill="none" stroke="#ffea00" stroke-linecap="butt"/></g><path d="M159.46916,253.00173c0,0 -17.97581,-52.99297 -13.56042,-85.45256c2.05802,-15.12946 71.06427,-88.60642 71.06427,-88.60642l17.81554,113.15843c0,0 -24.26773,-5.41221 -39.11041,15.8755c-10.40428,14.92206 -36.20898,45.02506 -36.20898,45.02506z" data-paper-data="{&quot;index&quot;:null}" fill="#1700ff" stroke="#000000" stroke-width="2" stroke-linecap="butt"/><path d="M116.84472,205.95717c0,0 6.93511,-55.52736 25.06476,-82.81174c8.45027,-12.71728 102.59299,-48.74328 102.59299,-48.74328l-33.31873,109.59966c0,0 -19.47788,-15.45405 -42.11863,-2.77068c-15.8705,8.89067 -52.22039,24.72603 -52.22039,24.72603z" data-paper-data="{&quot;index&quot;:null}" fill="#1700ff" stroke="#000000" stroke-width="2" stroke-linecap="butt"/><path d="M106.14509,119.69657c0,0 35.99526,-42.84537 66.0409,-55.89834c14.00432,-6.08401 112.61129,14.8299 112.61129,14.8299l-87.52638,73.90098c0,0 -7.95352,-23.55752 -33.852,-25.21305c-18.15406,-1.16048 -57.27381,-7.61948 -57.27381,-7.61948z" data-paper-data="{&quot;index&quot;:null}" fill="#1700ff" stroke="#000000" stroke-width="2" stroke-linecap="butt"/><g stroke="#000000" stroke-width="2" stroke-linecap="round"><path d="M186.58854,100.80626l-11.07438,-48.01603l43.55158,25.99304z" fill="#1700ff"/><path d="M190.8956,97.40616l-7.69055,-33.34447l30.24418,18.05074z" fill="#ffebb5"/></g><g data-paper-data="{&quot;index&quot;:null}" stroke="#000000" stroke-width="2" stroke-linecap="round"><path d="M257.95576,81.82734l39.80634,-31.42983l-4.74368,49.04771z" fill="#1700ff"/><path d="M263.95713,84.3988l27.64328,-21.82627l-3.29421,34.06091z" fill="#ffebb5"/></g><path d="M175.76299,131.58246c0,-33.30185 28.7599,-60.29833 64.23702,-60.29833c35.47712,0 64.23702,26.99649 64.23702,60.29833c0,33.30185 -28.7599,60.29833 -64.23702,60.29833c-35.47712,0 -64.23702,-26.99649 -64.23702,-60.29833z" fill="#1700ff" stroke="#000000" stroke-width="2" stroke-linecap="butt"/><path d="M176.48606,131.63628c0,-0.72799 5.20666,55.91939 63.36046,56.93429c55.56352,0.9697 63.51358,-57.95314 63.51358,-56.93429c0,32.80479 -28.40173,59.39833 -63.43702,59.39833c-35.03529,0 -63.43702,-26.59354 -63.43702,-59.39833z" fill="#0f00b5" stroke="#000000" stroke-width="0" stroke-linecap="butt"/><path d="M296.47852,160.7363c0,11.59798 -27.76376,30 -56.66667,30c-28.9029,0 -56.66667,-17.73535 -56.66667,-29.33333c0,-8.69465 19.83465,-4.15515 38.60464,-7.34549c6.26771,-1.06532 10.82674,-5.32117 18.06203,-5.32117c10.96773,0 19.14745,4.02052 27.55789,6.33448c13.75333,3.78393 29.10878,-1.53139 29.10878,5.66552z" fill="#fddfbd" stroke="#000000" stroke-width="2" stroke-linecap="butt"/><g><path d="M237.28789,129.59084c0,13.0892 -10.50787,23.70013 -23.47001,23.70013c-12.96214,0 -23.47001,-10.61092 -23.47001,-23.70013c0,-13.0892 10.50787,-23.70012 23.47001,-23.70012c12.96214,0 23.47001,10.61091 23.47001,23.70013z" fill="#ffffff" stroke="#000000" stroke-width="2" stroke-linecap="butt"/><path d="M291.88155,128.88739c0,13.0892 -10.50787,23.70012 -23.47001,23.70012c-12.96214,0 -23.47001,-10.61092 -23.47001,-23.70012c0,-13.0892 10.50787,-23.70012 23.47001,-23.70012c12.96214,0 23.47001,10.61091 23.47001,23.70013z" fill="#ffffff" stroke="#000000" stroke-width="2" stroke-linecap="butt"/><path d="M245.04347,152.89595c0,2.20914 -1.79086,4 -4,4c-2.20914,0 -4,-1.79086 -4,-4c0,-2.20914 1.79086,-4 4,-4c2.20914,0 4,1.79086 4,4z" fill="#000000" stroke="#000000" stroke-width="2" stroke-linecap="butt"/><path d="M226.89437,176.17735c0,0 -24.22724,10.13953 -28.08314,7.25562c-3.105,-2.3223 2.37542,-23.24205 2.37542,-23.24205z" data-paper-data="{&quot;index&quot;:null}" fill="#000000" stroke="#000000" stroke-width="2" stroke-linecap="round"/><path d="M200.76581,122.28289l9.52408,-0.83087l20.26567,9.44806l-17.2049,11.08553l-11.40577,-0.02461l13.83162,-10.17947z" fill="#000000" stroke="none" stroke-width="0" stroke-linecap="butt"/><path d="M262.87819,130.11486l13.83162,10.17947l-11.40578,0.02461l-17.2049,-11.08553l20.26566,-9.44806l9.52409,0.83087z" data-paper-data="{&quot;index&quot;:null}" fill="#000000" stroke="none" stroke-width="0" stroke-linecap="butt"/></g></g></g></svg>