<svg version="1.1" xmlns="http://www.w3.org/2000/svg" xmlns:xlink="http://www.w3.org/1999/xlink" width="35.41104" height="35.40589" viewBox="0,0,35.41104,35.40589"><defs><linearGradient x1="239.37502" y1="162.28846" x2="239.37502" y2="196.46156" gradientUnits="userSpaceOnUse" id="color-1"><stop offset="0" stop-color="#000000"/><stop offset="1" stop-color="#1f8893"/></linearGradient></defs><g transform="translate(-222.03847,-162.03845)"><g data-paper-data="{&quot;isPaintingLayer&quot;:true}" stroke-miterlimit="10" stroke-dasharray="" stroke-dashoffset="0" style="mix-blend-mode: normal"><path d="M257.4495,169.71388v20.49804c0,4.00745 -3.22497,7.23243 -7.23242,7.23243h-20.5c-3.66107,0 -6.66147,-2.69385 -7.1543,-6.21484c0.7952,3.03475 3.54108,5.26367 6.83204,5.26367h20.0332c3.9166,0 7.07032,-3.15372 7.07032,-7.07031v-20.03321c0,-3.2976 -2.23906,-6.0451 -5.28321,-6.83398c3.52994,0.48496 6.23438,3.49081 6.23438,7.15821z" fill-opacity="0.29839" fill="#000000" fill-rule="evenodd" stroke="none" stroke-width="4.54219" stroke-linecap="round" stroke-linejoin="round"/><path d="M229.35813,162.28846h20.03379c3.9166,0 7.06966,3.15307 7.06966,7.06966v20.03379c0,3.91659 -3.15306,7.06966 -7.06966,7.06966h-20.03379c-3.91659,0 -7.06966,-3.15307 -7.06966,-7.06966v-20.03379c0,-3.91659 3.15307,-7.06966 7.06966,-7.06966z" fill="url(#color-1)" fill-rule="evenodd" stroke="#34e4f6" stroke-width="0.5" stroke-linecap="round" stroke-linejoin="round"/><path d="M228.91812,189.38692v-17.86607l21.63597,-2.45864l-3.44208,20.32471z" fill="#36ebff" fill-rule="nonzero" stroke="#ffffff" stroke-width="0" stroke-linecap="butt" stroke-linejoin="miter"/><path d="M241.30657,172.8498h4.15533v2.85679l-15.45264,10.90775v-5.45387z" fill="#ffffff" fill-rule="nonzero" stroke="#ffffff" stroke-width="0.5" stroke-linecap="round" stroke-linejoin="miter"/><path d="M245.46191,177.00514v2.85679l-12.07643,8.44052h-3.50606z" fill="#ffffff" fill-rule="nonzero" stroke="#ffffff" stroke-width="0.5" stroke-linecap="round" stroke-linejoin="miter"/><path d="M232.86606,168.69448h17.2706l-4.15533,2.8568h-16.62133v17.5303h16.75118l0.51942,-0.90897l0.38956,-16.36162l3.66838,-2.59709v16.52394l-4.31765,4.31765h-17.72509l-0.58434,-0.58435v-18.43928z" fill="#001aff" fill-rule="nonzero" stroke="#001aff" stroke-width="0.5" stroke-linecap="round" stroke-linejoin="miter"/></g></g></svg>