<svg version="1.1" xmlns="http://www.w3.org/2000/svg" xmlns:xlink="http://www.w3.org/1999/xlink" width="151.85547" height="310.44439" viewBox="0,0,151.85547,310.44439"><g transform="translate(-164.07227,5.2222)"><g data-paper-data="{&quot;isPaintingLayer&quot;:true}" fill-rule="nonzero" stroke-linejoin="miter" stroke-miterlimit="10" stroke-dasharray="" stroke-dashoffset="0" style="mix-blend-mode: normal"><path d="M206.09977,94.8818l35.21691,-97.31203l39.35832,97.06043" fill="#015baf" stroke="#000000" stroke-width="2" stroke-linecap="round"/><path d="M176.90107,131.37929l-11.56543,-108.98528l62.49542,54.509" fill="#015baf" stroke="#000000" stroke-width="2" stroke-linecap="round"/><path d="M252.16897,76.90301l62.49542,-54.509l-11.56544,108.98528" fill="#015baf" stroke="#000000" stroke-width="2" stroke-linecap="round"/><path d="M207.02645,304.22218l15.14285,-131.8421l37.78325,-0.15789l13.57389,132z" fill="#015baf" stroke="#000000" stroke-width="2" stroke-linecap="butt"/><path d="M219.97669,200.83481l3.12142,-26.32765l35.83075,-0.14203l2.76735,26.1059c0,0 -7.51543,4.19603 -21.55904,4.50964c-12.48458,0.27879 -20.16049,-4.14586 -20.16049,-4.14586z" fill="#003a70" stroke="#000000" stroke-width="0" stroke-linecap="butt"/><path d="M176.03943,133.72218c0,-33.30185 28.7599,-60.29833 64.23702,-60.29833c35.47713,0 64.23702,26.99648 64.23702,60.29833c0,33.30185 -28.75989,60.29834 -64.23702,60.29834c-35.47712,0 -64.23702,-26.99649 -64.23702,-60.29834z" fill="#015baf" stroke="#000000" stroke-width="2" stroke-linecap="butt"/><path d="M240.1999,190.55647c22.75803,0.39718 39.31767,-10.24678 38.34372,-9.55603c-10.63726,7.54427 -23.89398,12.02007 -38.26716,12.02007c-14.23449,0 -27.37396,-4.38984 -37.9585,-11.80253c-0.40164,-0.28128 15.12391,8.94132 37.88194,9.33849z" fill="#003a70" stroke="#000000" stroke-width="0" stroke-linecap="butt"/><path d="M292.64333,168.65287c-11.64402,15.35359 -30.75961,25.36765 -52.36688,25.36765c-21.20282,0 -40.00637,-9.64268 -51.7052,-24.51113c-5.37024,-6.82522 27.38421,-15.54111 51.35791,-15.50631c29.8625,0.04334 56.89456,9.1376 52.71417,14.64979z" fill="#ffe190" stroke="#000000" stroke-width="2" stroke-linecap="butt"/><path d="M233.38195,147.53519c0,0.30319 -4.36406,-1.42976 -5.2374,5.85906c-1.38916,11.59392 0.16141,34.22962 -2.43354,35.01569c-1.27629,0.38662 -1.88083,-17.03116 -3.26665,-23.9184c-2.06513,-10.26327 -5.03572,-11.5199 -7.86348,-11.5199c-2.81126,0 -7.97831,29.75389 -10.40382,29.51265c-2.35609,-0.23434 0.78345,-16.33442 -0.62802,-21.12506c-2.82573,-9.59077 -8.90182,-11.32852 -8.90182,-12.01189c0,-1.37613 8.9246,-1.35911 19.93366,-1.35911c11.00906,0 18.80107,-1.82917 18.80107,-0.45304z" fill="#3a0000" stroke="none" stroke-width="0" stroke-linecap="butt"/><path d="M189.89309,133.99781c0,-12.96801 10.51265,-25.51932 23.48066,-25.51932c12.96801,0 23.48065,12.55131 23.48065,25.51932c0,12.96801 -10.51264,23.48066 -23.48065,23.48066c-12.96801,0 -23.48066,-10.51265 -23.48066,-23.48066z" fill="#000000" stroke="#000000" stroke-width="2" stroke-linecap="butt"/><path d="M266.47029,148.23133c11.00905,0 19.93366,-0.01701 19.93366,1.35912c0,0.68338 -6.07609,2.42112 -8.90181,12.01189c-1.41147,4.79065 1.72807,20.89073 -0.62802,21.12506c-2.42552,0.24124 -7.59257,-29.51265 -10.40382,-29.51265c-2.82776,0 -5.79835,1.25664 -7.86348,11.5199c-1.38582,6.88724 -1.99036,24.30502 -3.26665,23.9184c-2.59495,-0.78607 -1.04437,-23.42177 -2.43354,-35.01569c-0.87333,-7.28883 -5.2374,-5.55587 -5.2374,-5.85906c0,-1.37613 7.79201,0.45303 18.80107,0.45303z" fill="#3a0000" stroke="none" stroke-width="0" stroke-linecap="butt"/><path d="M267.40566,157.47847c-12.96801,0 -23.48065,-10.51265 -23.48065,-23.48066c0,-12.96801 10.73916,-26.4254 23.70717,-26.4254c12.96801,0 23.25414,13.45739 23.25414,26.4254c0,12.96801 -10.51265,23.48066 -23.48066,23.48066z" fill="#000000" stroke="#000000" stroke-width="2" stroke-linecap="butt"/><path d="M259.98711,148.99657c1.09985,3.99158 -3.78849,4.30412 -9.14671,6.56913c-5.35823,2.26501 -12.09405,1.58659 -12.77599,-0.02663c-0.68194,-1.61323 6.30736,-1.73822 11.66558,-4.00323c5.35823,-2.26501 9.15727,-6.53084 10.25712,-2.53927z" fill="#292929" stroke="#000000" stroke-width="2" stroke-linecap="butt"/><path d="M215.25726,134.63219c0.12527,1.58141 -0.73522,2.89376 -1.92194,2.93121c-1.18672,0.03745 -2.2503,-1.21417 -2.37556,-2.79558c-0.12527,-1.58141 0.73522,-2.89375 1.92194,-2.93121c1.18672,-0.03745 2.2503,1.21416 2.37556,2.79557z" fill="#ffffff" stroke="#ff0000" stroke-width="2" stroke-linecap="butt"/><path d="M268.16947,130.72061c1.18672,0.03745 2.0472,1.3498 1.92194,2.93121c-0.12527,1.58141 -1.18885,2.83303 -2.37556,2.79557c-1.18672,-0.03745 -2.04721,-1.3498 -1.92194,-2.93121c0.12527,-1.58141 1.18885,-2.83303 2.37557,-2.79557z" fill="#ffffff" stroke="#ff0000" stroke-width="2" stroke-linecap="butt"/><path d="M190.56988,165.65671l2.94475,-2.94475c0,0 26.1013,11.60329 46.88941,12.45854c23.3326,0.95994 46.20985,-12.45854 46.20985,-12.45854l3.6243,2.71823c0,0 -20.14345,22.75523 -49.15689,23.00094c-32.41271,0.03609 -50.51141,-22.77442 -50.51141,-22.77442z" fill="#000000" stroke="#000000" stroke-width="2" stroke-linecap="butt"/><path d="M259.32066,148.02888c0.30704,1.01808 -0.56066,2.18016 -1.93807,2.59556c-1.37741,0.41541 -2.74292,-0.07316 -3.04996,-1.09124c-0.30704,-1.01808 0.56066,-2.18016 1.93807,-2.59556c1.37741,-0.41541 2.74292,0.07316 3.04996,1.09124z" fill="#ffffff" stroke="#000000" stroke-width="2" stroke-linecap="butt"/></g></g></svg>