<svg version="1.1" xmlns="http://www.w3.org/2000/svg" xmlns:xlink="http://www.w3.org/1999/xlink" width="35.0658" height="35.0653" viewBox="0,0,35.0658,35.0653"><g transform="translate(-222.46713,-162.46733)"><g data-paper-data="{&quot;isPaintingLayer&quot;:true}" stroke-miterlimit="10" stroke-dasharray="" stroke-dashoffset="0" style="mix-blend-mode: normal"><path d="M229.53683,162.46733h20.0338c3.9166,0 7.0696,3.1531 7.0696,7.0697v20.0338c0,3.9165 -3.153,7.0696 -7.0696,7.0696h-20.0338c-3.9166,0 -7.0697,-3.1531 -7.0697,-7.0696v-20.0338c0,-3.9166 3.1531,-7.0697 7.0697,-7.0697z" fill="#5e5e5e" fill-rule="evenodd" stroke="none" stroke-width="4.43922" stroke-linecap="round" stroke-linejoin="round"/><path d="M257.53283,169.80223v20.498c0,4.0075 -3.2249,7.2324 -7.2324,7.2324h-20.5c-3.661,0 -6.6614,-2.6938 -7.1543,-6.2148c0.7952,3.0347 3.5411,5.2637 6.8321,5.2637h20.0332c3.9166,0 7.0703,-3.1538 7.0703,-7.0703v-20.0333c0,-3.2976 -2.2391,-6.0451 -5.2832,-6.8339c3.5299,0.4849 6.2344,3.4908 6.2344,7.1582z" fill-opacity="0.29839" fill="#000000" fill-rule="evenodd" stroke="none" stroke-width="4.54219" stroke-linecap="round" stroke-linejoin="round"/><g fill-rule="nonzero" stroke-width="2" stroke-linejoin="miter"><path d="M247.99773,180.64063c-0.7218,7.1929 -5.0747,12.6458 -9.7224,12.1794c-4.6478,-0.4664 -7.8303,-6.6755 -7.1085,-13.8684c0.3014,-3.0033 2.3287,-5.5936 3.6533,-7.686c1.8478,-2.9189 3.362,-4.7651 6.0692,-4.4934c2.694,0.2703 3.9775,2.8196 5.212,6.022c0.8952,2.3225 2.1998,4.8228 1.8964,7.8464z" fill="#fffff3" stroke-opacity="0.47451" stroke="#ffdb57" stroke-linecap="butt"/><path d="M243.86363,166.72463l4.1413,5.5782l-15.3822,-1.1449l4.733,-4.8981z" fill="#a0aeb1" stroke="#474e4f" stroke-linecap="round"/></g></g></g></svg>