<svg version="1.1" xmlns="http://www.w3.org/2000/svg" xmlns:xlink="http://www.w3.org/1999/xlink" width="210.99549" height="245.92103" viewBox="0,0,210.99549,245.92103"><g transform="translate(-107.53032,-62.1593)"><g data-paper-data="{&quot;isPaintingLayer&quot;:true}" fill-rule="nonzero" stroke-linejoin="miter" stroke-miterlimit="10" stroke-dasharray="" stroke-dashoffset="0" style="mix-blend-mode: normal"><path d="M143.75696,248.69422c0,0 -9.9215,-55.07221 -0.74308,-86.51862c4.27807,-14.65722 83.41415,-77.09285 83.41415,-77.09285l0.84406,114.54916c0,0 -23.1973,-8.94987 -41.03168,9.90236c-12.50138,13.21486 -42.48345,39.15996 -42.48345,39.15996z" data-paper-data="{&quot;index&quot;:null}" fill="#1700ff" stroke="#000000" stroke-width="2" stroke-linecap="butt"/><path d="M108.57736,195.85077c0,0 15.08988,-53.8858 37.06387,-78.18117c10.24211,-11.3241 108.68519,-32.99631 108.68519,-32.99631l-49.19769,103.44955c0,0 -16.97176,-18.17071 -41.24255,-8.98375c-17.0131,6.43979 -55.30882,16.71168 -55.30882,16.71168z" data-paper-data="{&quot;index&quot;:null}" fill="#1700ff" stroke="#000000" stroke-width="2" stroke-linecap="butt"/><path d="M110.78324,108.95712c0,0 41.94898,-37.03603 73.59763,-45.49082c14.75149,-3.94079 109.1687,31.35958 109.1687,31.35958l-97.51443,60.10954c0,0 -4.37347,-24.47627 -29.7404,-29.95271c-17.78146,-3.83883 -55.5115,-16.02558 -55.5115,-16.02558z" data-paper-data="{&quot;index&quot;:null}" fill="#1700ff" stroke="#000000" stroke-width="2" stroke-linecap="butt"/><g stroke="#000000" stroke-width="2" stroke-linecap="round"><path d="M185.61011,117.15534l-25.23288,-42.32592l49.41549,11.42314z" fill="#1700ff"/><path d="M188.67047,112.60061l-17.52284,-29.393l34.31634,7.93274z" fill="#ffebb5"/></g><g data-paper-data="{&quot;index&quot;:null}" stroke="#000000" stroke-width="2" stroke-linecap="round"><path d="M267.89929,89.48796l48.65844,-14.30858l-22.70084,43.73617z" fill="#1700ff"/><path d="M272.50789,94.11284l33.79057,-9.93651l-15.76446,30.37235z" fill="#ffebb5"/></g><g stroke-width="2"><path d="M218.89412,187.72072l41.41765,0.2301l11.35535,119.12951h-66.95856z" fill="#1700ff" stroke="#000000" stroke-linecap="round"/><path d="M224.98107,208.01619c0,0 8.59931,-2.75209 13.15649,-2.72677c4.92858,0.02738 15.38818,2.88535 15.38818,2.88535c0,0 5.58598,21.88621 6.76513,34.2567c1.39353,14.61968 1.06086,47.84628 1.06086,47.84628c0,0 -15.49885,2.79985 -23.21318,2.79985c-7.66781,0 -22.93404,-2.79985 -22.93404,-2.79985c0,0 0.14928,-30.704 1.84788,-44.99643c1.54583,-13.00673 7.92867,-37.26512 7.92867,-37.26512z" fill="#fddfbd" stroke="#000000" stroke-linecap="round"/><g data-paper-data="{&quot;index&quot;:null}"><path d="M272.4027,306.75354l-14.08066,0.16331l-13.87186,-116.74087l14.04726,-0.84509l1.68723,8.3627l11.21659,90.17129z" data-paper-data="{&quot;index&quot;:null}" fill="#ef2a2e" stroke="#000000" stroke-linecap="round"/><path d="M253.39258,253.46184l-1.23923,-11.83468l13.92315,-1.45792l1.23923,11.83468z" fill="#ffffff" stroke="none" stroke-linecap="butt"/><path d="M259.38973,306.90173l-14.34371,-111.07183l3.47099,-0.44824l14.34371,111.07183z" fill="#ffffff" stroke="none" stroke-linecap="butt"/></g><path d="M207.65709,287.61555l11.21659,-90.17129l1.07154,-8.36271l14.66295,0.8451l-13.87187,116.74088l-14.08066,-0.16331z" data-paper-data="{&quot;index&quot;:null}" fill="#ef2a2e" stroke="#000000" stroke-linecap="round"/><path d="M212.35831,249.90754l1.23922,-11.83468l13.92316,1.45792l-1.23923,11.83468z" fill="#ffffff" stroke="none" stroke-linecap="butt"/><path d="M215.58192,305.28067l14.34371,-111.07182l3.47099,0.44824l-14.34372,111.07182z" fill="#ffffff" stroke="none" stroke-linecap="butt"/><path d="M230.00205,210.50741c-0.43413,3.26352 -3.06035,5.60658 -5.86584,5.23338c-2.80548,-0.3732 -4.72786,-3.32133 -4.29372,-6.58485c0.43413,-3.26352 3.06034,-5.60659 5.86585,-5.2334c2.80548,0.3732 4.72783,3.32134 4.29371,6.58486z" fill="none" stroke="#ffea00" stroke-linecap="butt"/></g><path d="M175.76299,139.23875c0,-33.30185 28.7599,-60.29833 64.23702,-60.29833c35.47712,0 64.23702,26.99649 64.23702,60.29833c0,33.30185 -28.7599,60.29833 -64.23702,60.29833c-35.47712,0 -64.23702,-26.99649 -64.23702,-60.29833z" fill="#1700ff" stroke="#000000" stroke-width="2" stroke-linecap="butt"/><path d="M176.48606,139.29257c0,-0.72799 5.20666,55.91939 63.36046,56.93429c55.56352,0.9697 63.51358,-57.95314 63.51358,-56.93429c0,32.80479 -28.40173,59.39833 -63.43702,59.39833c-35.03529,0 -63.43702,-26.59354 -63.43702,-59.39833z" fill="#0f00b5" stroke="#000000" stroke-width="0" stroke-linecap="butt"/><path d="M189.3132,139.6682c0,-12.968 10.51265,-23.48065 23.48065,-23.48065c12.968,0 23.48065,10.51265 23.48065,23.48065c0,12.968 -10.51265,23.48065 -23.48065,23.48065c-12.968,0 -23.48065,-10.51265 -23.48065,-23.48065z" fill="#ffffff" stroke="#000000" stroke-width="2" stroke-linecap="butt"/><path d="M196.37859,139.39259c0,-9.12808 7.39976,-16.52784 16.52783,-16.52784c9.12808,0 16.52784,7.39977 16.52784,16.52784c0,9.12808 -7.39977,16.52784 -16.52784,16.52784c-9.12808,0 -16.52783,-7.39977 -16.52783,-16.52784z" fill="#000000" stroke="none" stroke-width="0" stroke-linecap="butt"/><path d="M296,168.39259c0,11.59798 -27.76376,30 -56.66667,30c-28.9029,0 -56.66667,-17.73535 -56.66667,-29.33333c0,-8.69465 19.83465,-4.15515 38.60464,-7.34549c6.26771,-1.06532 10.82674,-5.32117 18.06203,-5.32117c10.96773,0 19.14745,4.02052 27.55789,6.33448c13.75333,3.78393 29.10878,-1.53139 29.10878,5.66552z" fill="#fddfbd" stroke="#000000" stroke-width="2" stroke-linecap="butt"/><path d="M201.95088,110.85975c0,0 6.70895,-5.16922 11.79721,-6.36355c5.08827,-1.19433 12.33413,0.69937 12.33413,0.69937c0,0 -8.03812,-0.06028 -11.96762,0.86207c-4.10648,0.96389 -12.16372,4.80211 -12.16372,4.80211z" fill="#000000" stroke="none" stroke-width="0" stroke-linecap="butt"/><path d="M267.05231,163.14886c-12.968,0 -23.48065,-10.51265 -23.48065,-23.48065c0,-12.968 10.51265,-23.48065 23.48065,-23.48065c12.968,0 23.48065,10.51265 23.48065,23.48065c0,12.968 -10.51265,23.48065 -23.48065,23.48065z" data-paper-data="{&quot;index&quot;:null}" fill="#ffffff" stroke="#000000" stroke-width="2" stroke-linecap="butt"/><path d="M265.88541,106.05765c-3.9295,-0.92235 -11.96762,-0.86207 -11.96762,-0.86207c0,0 7.24586,-1.8937 12.33413,-0.69937c5.08826,1.19433 11.79721,6.36355 11.79721,6.36355c0,0 -8.05724,-3.83822 -12.16372,-4.80211z" data-paper-data="{&quot;index&quot;:null}" fill="#000000" stroke="none" stroke-width="0" stroke-linecap="butt"/><path d="M266.93973,155.92043c-9.12807,0 -16.52783,-7.39977 -16.52783,-16.52784c0,-9.12808 7.39977,-16.52784 16.52783,-16.52784c9.12807,0 16.52783,7.39977 16.52783,16.52784c0,9.12808 -7.39977,16.52784 -16.52783,16.52784z" data-paper-data="{&quot;index&quot;:null}" fill="#000000" stroke="none" stroke-width="0" stroke-linecap="butt"/><path d="M244.5,158.05927c0,2.20914 -1.79086,4 -4,4c-2.20914,0 -4,-1.79086 -4,-4c0,-2.20914 1.79086,-4 4,-4c2.20914,0 4,1.79086 4,4z" fill="#000000" stroke="#000000" stroke-width="2" stroke-linecap="butt"/><path d="M189.3132,139.6682c0,-12.968 10.51265,-23.48065 23.48065,-23.48065c12.968,0 23.48065,10.51265 23.48065,23.48065c0,0 -46.96131,1.23155 -46.96131,0z" fill="#1700ff" stroke="#000000" stroke-width="2" stroke-linecap="butt"/><path d="M244.89814,198.40739c0,6.53087 -2.8488,11.82519 -6.36296,11.82519c-3.51416,0 -6.36296,-5.29432 -6.36296,-11.82519c0,-6.53087 2.8488,-11.82519 6.36296,-11.82519c3.51416,0 6.36296,5.29432 6.36296,11.82519z" fill="#000000" stroke="none" stroke-width="NaN" stroke-linecap="butt"/><path d="M243.57166,139.6682c0,-12.968 10.51265,-23.48065 23.48065,-23.48065c12.968,0 23.48065,10.51265 23.48065,23.48065c0,1.2138 -46.96131,0 -46.96131,0z" data-paper-data="{&quot;index&quot;:null}" fill="#1700ff" stroke="#000000" stroke-width="2" stroke-linecap="butt"/></g></g></svg>