<svg version="1.1" xmlns="http://www.w3.org/2000/svg" xmlns:xlink="http://www.w3.org/1999/xlink" width="165.346" height="255.8814" viewBox="0,0,165.346,255.8814"><defs><linearGradient x1="319.92305" y1="175.4592" x2="319.92305" y2="307.45914" gradientUnits="userSpaceOnUse" id="color-1"><stop offset="0" stop-color="#4c7b64"/><stop offset="1" stop-color="#2b2b2b"/></linearGradient><linearGradient x1="320.08155" y1="221.49565" x2="320.08155" y2="308.14565" gradientUnits="userSpaceOnUse" id="color-2"><stop offset="0" stop-color="#6b6dd3"/><stop offset="1" stop-color="#000000"/></linearGradient><linearGradient x1="355.96021" y1="194.5574" x2="355.96021" y2="302.11987" gradientUnits="userSpaceOnUse" id="color-3"><stop offset="0" stop-color="#4b7b64"/><stop offset="1" stop-color="#000000"/></linearGradient><linearGradient x1="284.13221" y1="194.46852" x2="284.13221" y2="302.02621" gradientUnits="userSpaceOnUse" id="color-4"><stop offset="0" stop-color="#4b7b64"/><stop offset="1" stop-color="#000000"/></linearGradient><linearGradient x1="290.70367" y1="85.20522" x2="324.1063" y2="224.81098" gradientUnits="userSpaceOnUse" id="color-5"><stop offset="0" stop-color="#000000"/><stop offset="1" stop-color="#ffdac9"/></linearGradient><linearGradient x1="307.25955" y1="154.79619" x2="323.7814" y2="223.84899" gradientUnits="userSpaceOnUse" id="color-6"><stop offset="0" stop-color="#000000"/><stop offset="1" stop-color="#7e647b"/></linearGradient><linearGradient x1="282.85073" y1="55.13437" x2="299.35535" y2="124.11516" gradientUnits="userSpaceOnUse" id="color-7"><stop offset="0" stop-color="#4c7b64"/><stop offset="1" stop-color="#000000"/></linearGradient><linearGradient x1="284.0474" y1="60.16474" x2="293.25198" y2="98.63515" gradientUnits="userSpaceOnUse" id="color-8"><stop offset="0" stop-color="#daffed"/><stop offset="1" stop-color="#161a18"/></linearGradient><linearGradient x1="286.16313" y1="65.81276" x2="291.90186" y2="89.79772" gradientUnits="userSpaceOnUse" id="color-9"><stop offset="0" stop-color="#49705e"/><stop offset="1" stop-color="#13160e"/></linearGradient><linearGradient x1="309.30117" y1="165.63708" x2="319.23159" y2="207.14113" gradientUnits="userSpaceOnUse" id="color-10"><stop offset="0" stop-color="#000000"/><stop offset="1" stop-color="#ffdac9"/></linearGradient></defs><g transform="translate(-222.16205,-52.77044)"><g data-paper-data="{&quot;isPaintingLayer&quot;:true}" stroke-linecap="butt" stroke-linejoin="miter" stroke-miterlimit="10" stroke-dasharray="" stroke-dashoffset="0" style="mix-blend-mode: normal"><path d="M286.67305,307.45914l15.14285,-131.8421l37.78325,-0.15789l13.57389,132z" fill="url(#color-1)" fill-rule="nonzero" stroke="#000000" stroke-width="2"/><path d="M299.53999,204.07184l3.12142,-26.32765l35.83075,-0.14203l2.76735,26.1059c0,0 -7.51543,4.19603 -21.55904,4.50964c-12.48458,0.27879 -20.16049,-4.14586 -20.16049,-4.14586z" fill="#2f4b3d" fill-rule="nonzero" stroke="#000000" stroke-width="0"/><path d="M286.20349,307.39565l9.625,-85.15c0,0 16.14032,5.36651 24.41538,5.23987c8.05433,-0.12327 24.59071,-5.98987 24.59071,-5.98987l9.125,86.65z" fill="url(#color-2)" fill-rule="nonzero" stroke="#000000" stroke-width="1"/><path d="M330.77702,225.84334l-2.72223,-31.57302l7.33053,-1.11111l3.5,30.46191c0,0 1.97994,9.94622 -2.77415,10.47275c-4.71963,0.52271 -5.33415,-8.25053 -5.33415,-8.25053z" data-paper-data="{&quot;index&quot;:null}" fill="#6b6dd3" fill-rule="nonzero" stroke="#000000" stroke-width="1"/><path d="M301.66589,224.12113l3.5,-30.4619l8.21942,0.55556l-2.61111,32.12857c0,0 -1.38805,9.70344 -6.18894,8.77837c-5.22617,-1.00701 -2.91937,-11.0006 -2.91937,-11.0006z" fill="#6b6dd3" fill-rule="nonzero" stroke="#000000" stroke-width="1"/><path d="M338.78534,228.05328c0,1.99603 -1.54283,3.61412 -3.44602,3.61412c-1.90319,0 -3.44603,-1.6181 -3.44603,-3.61412c0,-1.99603 1.54284,-3.61412 3.44603,-3.61412c1.90319,0 3.44602,1.61809 3.44602,3.61412z" fill="#c6a438" fill-rule="nonzero" stroke="none" stroke-width="0"/><path d="M309.37397,228.76996c0,1.99603 -1.54283,3.61412 -3.44602,3.61412c-1.90319,0 -3.44603,-1.6181 -3.44603,-3.61412c0,-1.99603 1.54284,-3.61412 3.44603,-3.61412c1.90319,0 3.44602,1.61809 3.44602,3.61412z" fill="#c6a438" fill-rule="nonzero" stroke="none" stroke-width="0"/><path d="M308.84907,229.41995c0,1.99602 -1.54284,3.61412 -3.44602,3.61412c-1.90319,0 -3.44602,-1.6181 -3.44602,-3.61412c0,-1.99602 1.54284,-3.61412 3.44602,-3.61412c1.90319,0 3.44602,1.6181 3.44602,3.61412z" fill="#edd459" fill-rule="nonzero" stroke="none" stroke-width="0"/><path d="M338.53678,228.7012c0,1.87521 -1.44945,3.39537 -3.23744,3.39537c-1.78799,0 -3.23745,-1.52016 -3.23745,-3.39537c0,-1.87521 1.44946,-3.39537 3.23745,-3.39537c1.78799,0 3.23744,1.52016 3.23744,3.39537z" fill="#edd459" fill-rule="nonzero" stroke="none" stroke-width="0"/><path d="M341.61113,194.5574c0.90641,1.442 13.27591,-0.94411 14.53458,0.88889c0.31862,-0.594 9.30076,33.378 9.72787,35c-0.5926,-0.963 5.60783,49.33333 5.60783,49.33333c0,0 0.50768,22.79733 0.91556,22.33333c-0.88787,-0.49 -11.18842,-0.32367 -12.13122,-0.16667c0.5308,-15.625 -11.71487,-68.29133 -19.1124,-79.33333c2.25366,-15.345 -5.00951,-26.28055 0.45778,-28.05555z" fill="url(#color-3)" fill-rule="evenodd" stroke="none" stroke-width="1"/><path d="M341.52147,194.5951c0.91572,1.34757 13.41232,-0.88229 14.68393,0.83068c0.10385,-0.17908 1.11865,3.00386 2.46032,7.4491c-6.17155,-0.51975 -13.01437,-2.82677 -18.35267,1.21834c-0.00693,0.00525 -0.01384,0.01053 -0.02073,0.01584c-0.98219,-5.21007 -1.76061,-8.6161 1.22914,-9.51396z" fill="#2f4b3d" fill-rule="nonzero" stroke="none" stroke-width="1"/><path d="M387.456,301.10947c0.01927,0.00566 0.03664,0.01141 0.05206,0.01725c-0.01724,0.01347 -0.0346,0.00734 -0.05206,-0.01725z" fill="#2f4b3d" fill-rule="nonzero" stroke="none" stroke-width="1"/><path d="M298.93917,222.52408c-7.39753,11.042 -19.6432,63.70833 -19.1124,79.33333c-0.9428,-0.157 -11.24335,-0.32333 -12.13122,0.16667c0.40788,0.464 7.11599,-72.62966 6.52339,-71.66666c0.42711,-1.622 9.40925,-35.594 9.72787,-35c1.25867,-1.833 13.62817,0.55311 14.53458,-0.88889c5.46729,1.775 -1.79588,12.71055 0.45778,28.05555z" data-paper-data="{&quot;index&quot;:null}" fill="url(#color-4)" fill-rule="evenodd" stroke="none" stroke-width="1"/><path d="M298.57106,194.50621c2.98975,0.89786 2.21133,4.30389 1.22914,9.51396c-0.00689,-0.00531 -0.0138,-0.01059 -0.02073,-0.01584c-5.3383,-4.04511 -12.18112,-1.73809 -18.35267,-1.21834c1.34167,-4.44524 2.35647,-7.62818 2.46032,-7.4491c1.27161,-1.71297 13.76821,0.51689 14.68393,-0.83068z" data-paper-data="{&quot;index&quot;:null}" fill="#2f4b3d" fill-rule="nonzero" stroke="none" stroke-width="1"/><g><path d="M230.68515,133.78869c-0.11136,-2.37725 -3.33116,-18.02241 9.59198,-36.74691c6.97758,-10.10991 14.33582,-23.91319 39.23722,-30.67183c37.11905,-9.50931 54.16632,0.66675 66.1342,8.51533c16.41465,10.76478 20.14879,23.09642 24.48929,28.50859c0.44069,0.54948 -139.44935,30.46601 -139.45269,30.39484z" fill="#a8530c" fill-rule="nonzero" stroke="none" stroke-width="1.5"/><path d="M232.67649,172.59106c-5.88188,-24.58324 2.42752,-49.43644 19.83861,-66.82783c0.77356,-2.34114 20.44135,-16.1803 36.13055,-20.06239c15.6892,-3.88209 31.09909,-3.87514 44.23579,0.17679c23.94855,7.3868 43.13751,25.9906 49.11797,50.98584c9.26097,38.7061 -16.6586,78.08148 -57.89298,87.94738c-41.23437,9.8659 -82.16896,-13.51371 -91.42993,-52.2198z" fill="url(#color-5)" fill-rule="nonzero" stroke="#000000" stroke-width="2"/><path d="M233.53152,172.45271c-0.20245,-0.84613 21.60233,63.5461 89.47561,48.5536c64.85008,-14.3247 57.70432,-85.02043 57.98765,-83.83624c9.12275,38.12838 -16.49259,76.93583 -57.21344,86.67886c-40.72084,9.74303 -81.12708,-13.26784 -90.24982,-51.39622z" fill="url(#color-6)" fill-rule="nonzero" stroke="#000000" stroke-width="0"/><path d="M240.18299,185.18258c0,0 -5.8702,-8.22831 -6.96547,-12.80599c-1.67675,-7.00796 -0.86267,-51.98031 -0.86267,-51.98031l11.07063,-2.6488c0,0 -2.04031,10.52199 -1.48067,16.10073c0.49704,4.9546 4.67303,15.72197 4.67303,15.72197l-1.64036,3.77967l-3.99437,-1.26174z" fill="#3a2f2b" fill-rule="nonzero" stroke="#000000" stroke-width="0"/><path d="M272.25528,163.6491c-3.6063,-15.07246 0.38109,-28.94463 8.90607,-30.98435c8.52498,-2.03972 18.35933,8.52541 21.96562,23.59787c3.6063,15.07246 -0.38109,28.94463 -8.90607,30.98435c-8.52498,2.03972 -18.35933,-8.52541 -21.96562,-23.59787z" fill="#c62020" fill-rule="nonzero" stroke="#000000" stroke-width="2"/><path d="M237.88552,180.18819c0,0 -5.5467,-7.77485 -6.58161,-12.10025c-1.58435,-6.62175 -0.81513,-49.11568 -0.81513,-49.11568l10.46053,-2.50283c0,0 -1.92787,9.94212 -1.39907,15.21341c0.46964,4.68155 4.4155,14.85553 4.4155,14.85553l-1.54997,3.57137l-3.77424,-1.19221z" fill="#766058" fill-rule="nonzero" stroke="#000000" stroke-width="1.5"/><path d="M333.45801,177.85884c-8.46079,2.02436 -18.2431,-8.55322 -21.84939,-23.62568c-3.6063,-15.07246 0.32905,-28.93218 8.78984,-30.95654c8.46079,-2.02436 18.2431,8.55322 21.84939,23.62568c3.6063,15.07246 -0.32905,28.93218 -8.78984,30.95654z" data-paper-data="{&quot;index&quot;:null}" fill="#c62020" fill-rule="nonzero" stroke="#000000" stroke-width="2"/><path d="M257.23815,130.47424c0,0 12.17985,-8.1541 18.4207,-7.89641c6.24087,0.2577 15.2538,3.68861 15.2538,3.68861c0,0 -10.51326,-1.57446 -15.33288,-1.77346c-5.03668,-0.20797 -18.34163,5.98126 -18.34163,5.98126z" fill="#000000" fill-rule="nonzero" stroke="none" stroke-width="0"/><path d="M321.81165,111.59218c-4.14677,2.46427 -11.01498,9.1809 -11.01498,9.1809c0,0 4.66615,-7.63769 10.03576,-10.82866c5.3696,-3.19096 15.42982,-4.30462 15.42982,-4.30462c0,0 -10.11708,3.37714 -14.4506,5.9524z" data-paper-data="{&quot;index&quot;:null}" fill="#000000" fill-rule="nonzero" stroke="none" stroke-width="0"/><path d="M364.00313,123.88278l-2.99071,2.93302l-3.17346,-2.62789c0,0 -1.14974,-11.49144 -2.94906,-16.13445c-2.026,-5.22789 -8.60778,-13.68692 -8.60778,-13.68692l11.07063,-2.6488c0,0 21.08117,39.7336 22.75792,46.74157c1.09527,4.57768 -0.41494,14.57186 -0.41494,14.57186z" data-paper-data="{&quot;index&quot;:null}" fill="#3a2f2b" fill-rule="nonzero" stroke="#000000" stroke-width="0"/><path d="M365.38895,121.45881l-2.82589,2.77138l-2.99857,-2.48307c0,0 -1.08637,-10.85816 -2.78654,-15.24528c-1.91434,-4.93979 -8.1334,-12.93264 -8.1334,-12.93264l10.46053,-2.50283c0,0 19.91938,37.5439 21.50373,44.16565c1.03491,4.32539 -0.39208,13.7688 -0.39208,13.7688z" data-paper-data="{&quot;index&quot;:null}" fill="#766058" fill-rule="nonzero" stroke="#000000" stroke-width="1.5"/><path d="M223.2293,120.08836c12.6277,-32.07399 31.84793,-58.30881 58.55613,-64.69912c26.65977,-6.37872 54.37829,1.61821 79.24902,24.35441c3.45867,3.16183 13.18787,24.90817 11.18223,26.7513c-2.99876,2.75578 -67.25524,2.84439 -76.6764,5.09854c-9.80798,2.3467 -63.50089,28.94418 -67.88253,29.17545c-3.15508,0.16654 -6.31392,-15.89147 -4.42844,-20.68057z" fill="url(#color-7)" fill-rule="nonzero" stroke="#000000" stroke-width="1"/><path d="M310.0551,74.27836c2.54178,10.62332 -4.98121,21.5282 -16.80305,24.35674c-11.82184,2.82854 -23.46586,-3.49037 -26.00763,-14.11369c-2.54178,-10.62332 4.98121,-21.5282 16.80305,-24.35674c11.82184,-2.82854 23.46586,3.49037 26.00763,14.11369z" fill="url(#color-8)" fill-rule="nonzero" stroke="none" stroke-width="0"/><path d="M241.66612,134.10855l0.8499,-10.9994c0,0 8.84626,-6.07802 9.55494,-6.47454c5.28856,-2.95912 27.59132,-16.69091 40.87252,-19.86862c12.82729,-3.06911 39.36299,-1.41727 46.43427,-1.17518c1.17793,0.04032 10.18438,3.39821 10.18438,3.39821l4.57349,9.76028c0,0 -10.96698,-1.06095 -11.89567,-0.836c-2.19352,0.53134 -7.03612,0.50702 -13.30418,0.60902c-9.07336,0.14767 -19.33435,8.93611 -30.66997,11.68198c-11.55206,2.7983 -24.23671,-0.71503 -31.83341,2.94187c-5.23751,2.52123 -8.9118,4.46931 -10.16362,4.77254c-0.84539,0.20478 -14.60265,6.18983 -14.60265,6.18983z" fill="#141d18" fill-rule="nonzero" stroke="#000000" stroke-width="0"/><path d="M302.74026,87.20448l-21.41158,4.23694l-6.00398,-23.03543l6.38338,-1.46457l3.48264,15.7426l15.31423,-3.3802z" data-paper-data="{&quot;index&quot;:null}" fill="url(#color-9)" fill-rule="evenodd" stroke="none" stroke-width="1"/><path d="M318.03105,191.26422c0,0 -23.09401,32.66527 -42.31592,28.85726c-19.22191,-3.808 -27.70586,-42.72908 -27.70586,-42.72908c0,0 20.89395,13.71496 32.57137,16.02833c11.66316,2.31056 37.45043,-2.15651 37.45043,-2.15651z" fill="#000000" fill-rule="nonzero" stroke="none" stroke-width="0"/><path d="M349.60553,176.79855c9.24314,-7.25205 21.50413,-28.65483 21.50413,-28.65483c0,0 9.91959,38.04154 -5.29532,49.97899c-15.2149,11.93744 -50.12971,-6.49314 -50.12971,-6.49314c0,0 24.68905,-7.58782 33.92089,-14.83102z" data-paper-data="{&quot;index&quot;:null}" fill="#000000" fill-rule="nonzero" stroke="none" stroke-width="0"/><path d="M301.08678,200.04334c-6.12176,-9.97838 3.63547,-33.31063 3.63547,-33.31063c0,0 3.49747,-0.36723 5.22313,-0.72044c1.82246,-0.37302 5.11697,-1.65799 5.11697,-1.65799c0,0 17.86414,19.74241 17.3313,27.9254c-1.25872,19.33078 -25.18511,17.74206 -31.30687,7.76367z" fill="url(#color-10)" fill-rule="nonzero" stroke="#000000" stroke-width="2"/><g fill="#000000" fill-rule="nonzero" stroke="none" stroke-width="1" font-family="Inter, -apple-system, BlinkMacSystemFont, &quot;Segoe UI&quot;, Roboto, Oxygen, Ubuntu, Cantarell, &quot;Fira Sans&quot;, &quot;Droid Sans&quot;, &quot;Helvetica Neue&quot;, sans-serif, emoji" font-weight="400" font-size="16" text-anchor="start"/><g data-paper-data="{&quot;index&quot;:null}" fill="#000000" fill-rule="nonzero" stroke="none" stroke-width="1" font-family="Inter, -apple-system, BlinkMacSystemFont, &quot;Segoe UI&quot;, Roboto, Oxygen, Ubuntu, Cantarell, &quot;Fira Sans&quot;, &quot;Droid Sans&quot;, &quot;Helvetica Neue&quot;, sans-serif, emoji" font-weight="400" font-size="16" text-anchor="start"/><path d="M305.52894,167.90962l0.10173,-6.08021l6.40942,-1.28778l2.65159,5.31432c0,0 -3.07799,1.71471 -4.74066,2.05626c-1.55795,0.32003 -4.42207,-0.00259 -4.42207,-0.00259z" fill="#907b72" fill-rule="nonzero" stroke="#000000" stroke-width="0"/></g></g></g></svg>