<svg version="1.1" xmlns="http://www.w3.org/2000/svg" xmlns:xlink="http://www.w3.org/1999/xlink" width="35.52407" height="35.64867" viewBox="0,0,35.52407,35.64867"><defs><linearGradient x1="239.26203" y1="162.05067" x2="239.26203" y2="196.22378" gradientUnits="userSpaceOnUse" id="color-1"><stop offset="0" stop-color="#000000"/><stop offset="1" stop-color="#261213"/></linearGradient><linearGradient x1="222.17548" y1="179.13722" x2="256.34859" y2="179.13722" gradientUnits="userSpaceOnUse" id="color-2"><stop offset="0" stop-color="#5c2c2d"/><stop offset="1" stop-color="#99494b"/></linearGradient><linearGradient x1="238.91032" y1="167.48823" x2="238.91032" y2="174.52162" gradientUnits="userSpaceOnUse" id="color-3"><stop offset="0" stop-color="#d5d5d5"/><stop offset="1" stop-color="#7a7a7a"/></linearGradient><linearGradient x1="239.26199" y1="164.14716" x2="239.26199" y2="194.12719" gradientUnits="userSpaceOnUse" id="color-4"><stop offset="0" stop-color="#8f4445"/><stop offset="1" stop-color="#482323"/></linearGradient></defs><g transform="translate(-221.92547,-161.80066)"><g data-paper-data="{&quot;isPaintingLayer&quot;:true}" stroke-linecap="round" stroke-miterlimit="10" stroke-dasharray="" stroke-dashoffset="0" style="mix-blend-mode: normal"><path d="M257.44954,169.71887v20.49804c0,4.00745 -3.22497,7.23243 -7.23242,7.23243h-20.5c-3.66107,0 -6.66147,-2.69385 -7.1543,-6.21484c0.7952,3.03475 3.54108,5.26367 6.83204,5.26367h20.0332c3.9166,0 7.07032,-3.15372 7.07032,-7.07031v-20.03321c0,-3.2976 -2.23906,-6.0451 -5.28321,-6.83398c3.52994,0.48496 6.23438,3.49081 6.23438,7.15821z" fill-opacity="0.29839" fill="#000000" fill-rule="evenodd" stroke="none" stroke-width="4.54219" stroke-linejoin="round"/><path d="M229.24514,162.05067h20.03379c3.9166,0 7.06966,3.15307 7.06966,7.06966v20.03379c0,3.91659 -3.15306,7.06966 -7.06966,7.06966h-20.03379c-3.91659,0 -7.06966,-3.15307 -7.06966,-7.06966v-20.03379c0,-3.91659 3.15307,-7.06966 7.06966,-7.06966z" fill="url(#color-1)" fill-rule="evenodd" stroke="url(#color-2)" stroke-width="0.5" stroke-linejoin="round"/><g fill-rule="nonzero" stroke="#000000" stroke-width="0" stroke-linejoin="miter"><path d="M238.2949,167.48823l8.96757,1.05501l-0.26375,5.97838c0,0 -4.52378,-2.58364 -7.64881,-2.63752c-3.12503,-0.05388 -7.64881,2.37377 -7.64881,2.37377l-1.14293,-4.13212z" fill="url(#color-3)"/><path d="M228.79984,168.807c0,0 6.23338,-4.69679 10.638,-4.65962c4.40461,0.03717 10.19841,4.83545 10.19841,4.83545l1.49459,23.12226l-4.5717,2.0221l-0.26375,-23.64977c0,0 -4.15761,-2.19793 -7.03339,-2.19793c-2.87578,0 -7.03339,2.19793 -7.03339,2.19793l-0.08792,23.64977l-4.74754,-2.11002l1.40668,-23.21018z" fill="url(#color-4)"/></g></g></g></svg>