<svg version="1.1" xmlns="http://www.w3.org/2000/svg" xmlns:xlink="http://www.w3.org/1999/xlink" width="181.79616" height="285.24214" viewBox="0,0,181.79616,285.24214"><g transform="translate(-170.21608,-24.29979)"><g data-paper-data="{&quot;isPaintingLayer&quot;:true}" fill-rule="nonzero" stroke-linejoin="miter" stroke-miterlimit="10" stroke-dasharray="" stroke-dashoffset="0" style="mix-blend-mode: normal"><g fill="#302b87" stroke-linecap="butt"><path d="M314.61042,172.79365c0.90155,-0.54586 1.05398,7.80015 -5.89751,9.76199c-1.80644,12.36422 11.04212,18.81263 16.05172,21.21387c2.12376,1.01799 -9.59389,2.97566 -13.26905,1.64468c-1.10357,-0.39966 -5.7604,-5.2862 -5.92826,-5.23016c-0.4735,0.0487 -0.90434,1.82528 -0.47278,3.2255c0.54443,1.76641 2.0163,3.23659 1.53497,3.26449c-14.893,0.86345 -9.98547,-84.10013 -10.14399,-84.1316c-0.92852,-0.18439 -2.94794,50.40881 18.12488,50.25119z" data-paper-data="{&quot;index&quot;:null}" stroke="none" stroke-width="0"/><path d="M204.35083,121.68226c-0.15402,0.04895 14.19991,83.93493 -0.69647,84.73807c-0.48142,0.02596 0.81727,-1.59922 1.16126,-3.41533c0.27269,-1.43963 -0.35363,-3.15708 -0.8296,-3.15264c-0.17307,-0.03697 -4.25579,5.33851 -5.30788,5.85877c-3.50374,1.7326 -15.36665,1.09416 -13.36968,-0.15437c4.71053,-2.94506 16.75962,-10.78637 13.58533,-22.87193c-7.12696,-1.17422 -7.90639,-9.48513 -6.94957,-9.04325c20.9589,-2.19388 13.30877,-52.24611 12.40663,-51.95931z" data-paper-data="{&quot;index&quot;:null}" stroke="none" stroke-width="0"/><path d="M283.15176,138.40882c-0.15402,0.04895 14.19993,83.93492 -0.69647,84.73807c-0.48142,0.02596 0.81727,-1.59922 1.16126,-3.41533c0.27269,-1.43963 -0.35363,-3.15708 -0.82959,-3.15263c-0.17307,-0.03697 -4.25579,5.33851 -5.30788,5.85877c-3.50374,1.7326 -15.36665,1.09416 -13.36968,-0.15437c4.71053,-2.94506 16.75962,-10.78637 13.58533,-22.87193c-7.12696,-1.17422 -7.90639,-9.48513 -6.94957,-9.04324c20.9589,-2.19388 13.30877,-52.24611 12.40662,-51.95932z" data-paper-data="{&quot;index&quot;:null}" stroke="none" stroke-width="0"/><path d="M303.19595,178.90017c0.90155,-0.54586 1.05398,7.80015 -5.89751,9.76199c-1.80644,12.36422 11.04212,18.81263 16.05172,21.21387c2.12376,1.01799 -9.59389,2.97566 -13.26905,1.64468c-1.10357,-0.39966 -5.76041,-5.2862 -5.92827,-5.23017c-0.47349,0.0487 -0.90433,1.82528 -0.47278,3.2255c0.54443,1.76641 2.0163,3.23659 1.53497,3.26449c-14.89301,0.86345 -9.98547,-84.10013 -10.14399,-84.1316c-0.92851,-0.18439 -2.94794,50.40881 18.12488,50.25119z" data-paper-data="{&quot;index&quot;:null}" stroke="none" stroke-width="0"/><path d="M236.94802,189.52498c0.90155,-0.54586 1.05398,7.80014 -5.89751,9.76198c-1.80644,12.36422 11.04213,18.81263 16.05172,21.21387c2.12376,1.01799 -9.59389,2.97566 -13.26905,1.64468c-1.10358,-0.39966 -5.7604,-5.2862 -5.92827,-5.23017c-0.47349,0.0487 -0.90433,1.82528 -0.47277,3.2255c0.54443,1.76641 2.0163,3.23659 1.53497,3.26449c-14.893,0.86345 -9.98547,-84.10013 -10.14399,-84.1316c-0.92852,-0.18439 -2.94794,50.40882 18.12488,50.2512z" data-paper-data="{&quot;index&quot;:null}" stroke="none" stroke-width="0"/><path d="M216.19252,127.58131c-0.15402,0.04895 14.19991,83.93493 -0.69647,84.73807c-0.48142,0.02596 0.81727,-1.59922 1.16126,-3.41533c0.27269,-1.43963 -0.35363,-3.15708 -0.82959,-3.15263c-0.17307,-0.03697 -4.25579,5.33851 -5.30788,5.85877c-3.50374,1.7326 -15.36665,1.09416 -13.36968,-0.15437c4.71053,-2.94506 16.75962,-10.78637 13.58533,-22.87193c-7.12696,-1.17422 -7.90639,-9.48513 -6.94957,-9.04325c20.9589,-2.19388 13.30878,-52.24611 12.40663,-51.95931z" data-paper-data="{&quot;index&quot;:null}" stroke="none" stroke-width="0"/><path d="M211.23886,176.19984c0.90155,-0.54586 1.05398,7.80014 -5.89751,9.76198c-1.80644,12.36422 11.04213,18.81263 16.05172,21.21387c2.12376,1.01799 -9.59389,2.97566 -13.26905,1.64468c-1.10358,-0.39966 -5.7604,-5.2862 -5.92826,-5.23016c-0.47349,0.0487 -0.90434,1.82528 -0.47278,3.2255c0.54443,1.76641 2.0163,3.23659 1.53497,3.26449c-14.893,0.86345 -9.98547,-84.10013 -10.14399,-84.1316c-0.92852,-0.18439 -2.94794,50.40882 18.12488,50.2512z" data-paper-data="{&quot;index&quot;:null}" stroke="none" stroke-width="0"/><path d="M307.30531,119.56011c-0.15402,0.04895 14.19993,83.93492 -0.69647,84.73807c-0.48142,0.02596 0.81727,-1.59922 1.16126,-3.41533c0.27269,-1.43963 -0.35363,-3.15708 -0.8296,-3.15264c-0.17307,-0.03697 -4.25579,5.33851 -5.30788,5.85877c-3.50374,1.7326 -15.36665,1.09416 -13.36968,-0.15437c4.71053,-2.94506 16.75961,-10.78637 13.58533,-22.87193c-7.12696,-1.17422 -7.90639,-9.48513 -6.94957,-9.04324c20.9589,-2.19388 13.30878,-52.24611 12.40662,-51.95932z" data-paper-data="{&quot;index&quot;:null}" stroke="none" stroke-width="0"/><path d="M327.34949,160.05145c0.90155,-0.54586 1.05398,7.80015 -5.89751,9.76199c-1.80644,12.36422 11.04213,18.81263 16.05172,21.21387c2.12376,1.01799 -9.59389,2.97566 -13.26905,1.64468c-1.10357,-0.39966 -5.76041,-5.2862 -5.92827,-5.23017c-0.47349,0.0487 -0.90433,1.82528 -0.47277,3.2255c0.54443,1.76641 2.0163,3.23659 1.53497,3.26449c-14.89301,0.86345 -9.98547,-84.10013 -10.14399,-84.1316c-0.92851,-0.18439 -2.94794,50.40881 18.12488,50.25119z" data-paper-data="{&quot;index&quot;:null}" stroke="#000000" stroke-width="2"/><path d="M190.48337,114.25616c-0.15402,0.04895 14.19991,83.93493 -0.69647,84.73807c-0.48142,0.02596 0.81727,-1.59922 1.16126,-3.41533c0.27269,-1.43963 -0.35363,-3.15708 -0.8296,-3.15264c-0.17307,-0.03697 -4.25579,5.33851 -5.30788,5.85877c-3.50374,1.7326 -15.36665,1.09416 -13.36968,-0.15437c4.71053,-2.94506 16.75962,-10.78637 13.58533,-22.87193c-7.12696,-1.17422 -7.90639,-9.48513 -6.94957,-9.04325c20.9589,-2.19388 13.30877,-52.24611 12.40663,-51.95931z" data-paper-data="{&quot;index&quot;:null}" stroke="#000000" stroke-width="2"/></g><path d="M174.54296,122.47898c0,0 11.19584,12.62254 13.35214,-3.21771c4.67523,-20.23318 7.34823,-34.03227 28.06475,-43.32359c6.17414,-2.76909 9.95134,-6.7433 29.6321,-3.35764c0.24144,0.04154 0.35692,0.05342 0.36286,0.03777c0.06961,-0.18337 -14.88819,-4.14551 -18.46139,-8.50348c-3.91011,-4.76888 -5.41845,-10.51999 -4.61095,-13.84526c6.53248,-18.81072 34.14034,-19.08391 36.01807,-19.48342c19.30974,-2.10832 45.48468,17.06325 4.92227,27.1663c-2.05566,0.51201 27.50938,-11.40873 -11.40892,-14.0594c-19.78575,2.60711 -27.68716,8.81808 -4.274,22.39772c6.74771,-0.59946 15.65379,-0.92751 16.56562,-1.61709c22.08812,2.63953 24.51248,6.58172 32.18506,11.3592c6.17518,3.8451 14.06649,10.52308 18.44144,19.63532c3.37192,7.0231 2.06955,16.50787 5.69805,23.52708c6.92091,13.38824 15.05593,2.03251 15.05593,2.03251c0,0 1.44682,8.76553 -1.41643,14.63621c-2.05695,4.21747 -7.30611,6.21507 -12.39886,5.78189c-0.11182,0.59282 -0.36027,10.08548 4.33635,12.21282c3.96083,1.79406 12.64871,-1.42264 12.64871,-1.42264c0,0 -14.65164,6.37914 -15.62705,10.57541c-1.7558,7.55362 19.13588,-1.13314 16.3392,1.26495c-1.37818,1.18175 -7.26428,5.56839 -12.77969,6.82385c-5.31453,1.20974 -10.28488,-0.70231 -10.54628,-0.03679c-3.49395,8.89536 -10.36285,18.18124 -10.36285,18.18124c0,0 -2.29192,-5.28642 -3.77673,-3.14158c-6.07718,8.77862 -11.2964,15.30957 -11.2964,15.30957c0,0 -2.40974,-4.97718 -4.47106,-3.86765c-9.32569,5.01966 -20.06286,7.91078 -31.65348,7.91078c-12.60656,0 -24.772,-3.56633 -35.27102,-9.52744c-2.72845,-1.54916 -0.82623,4.38789 -0.82623,4.38789c0,0 -7.93843,-5.19677 -13.15685,-11.00681c-6.08759,-6.77777 -9.73663,-14.57056 -12.13914,-18.68944c-0.34082,-0.58431 -4.01999,1.58785 -5.934,2.01254c-2.96082,0.65696 -4.48364,-0.08182 -4.48364,-0.08182c0,0 2.67098,-3.37669 3.55098,-5.15497c0.94364,-1.90688 1.93325,-5.92746 1.93325,-5.92746c0,0 -2.66402,1.90888 -4.05965,2.38502c-1.48595,0.50696 -4.60208,0.57008 -4.60208,0.57008c0,0 4.39229,-5.64339 5.74307,-11.5602c0.39327,-1.72262 4.12301,-9.97893 -0.21176,-9.96905c-17.00132,0.5205 -11.08139,-20.4147 -11.08139,-20.4147z" fill="#4e45f0" stroke="#000000" stroke-width="2" stroke-linecap="butt"/><g stroke="#000000"><path d="M201.90843,303.92075l24.12371,-130.49786l37.70559,2.42636l4.51501,132.61925z" fill="#ffffff" stroke-width="2" stroke-linecap="butt"/><path d="M221.89871,201.66108l4.91459,-26.05254l35.75658,2.30866l0.97556,26.23403c0,0 -7.78479,3.67225 -21.81696,3.02472c-12.47442,-0.57566 -19.82977,-5.51488 -19.82977,-5.51488z" fill="#e6e6e6" stroke-width="0" stroke-linecap="butt"/><path d="M260.83287,191.18654l-4.90781,27.72928" fill="none" stroke-width="2" stroke-linecap="round"/><path d="M201.90843,303.92075l24.12371,-130.49786c0,0 3.50465,36.56868 20.35403,38.36505c28.76704,3.06698 19.74917,-19.73679 19.74917,-19.73679l2.1174,116.41734z" fill="#94869a" stroke-width="2" stroke-linecap="butt"/><path d="M263.6569,219.4458c0,0 -13.58334,1.30469 -18.95079,-0.51709c-5.71266,-1.93894 -15.919,-9.89192 -15.919,-9.89192" fill="none" stroke-width="0.5" stroke-linecap="round"/><path d="M254.80068,224.35163c0,0 -4.7654,0.77178 -6.96512,0.19031c-2.05688,-0.54371 -5.83348,-3.57349 -5.83348,-3.57349" fill="none" stroke-width="1" stroke-linecap="round"/><path d="M244.80198,253.23547c0,0 -11.16005,-5.85815 -14.90808,-8.23343c-0.7789,-0.49361 -10.55839,-15.06269 -10.55839,-15.06269" fill="none" stroke-width="0.5" stroke-linecap="round"/><path d="M237.74999,253.75443c0,0 -8.20961,-3.19613 -11.46046,-5.1977c-3.15818,-1.94452 -7.77467,-6.64548 -7.77467,-6.64548" fill="none" stroke-width="1" stroke-linecap="round"/><path d="M262.40185,303.55688l-55.33586,-4.29431" fill="none" stroke-width="1" stroke-linecap="round"/><path d="M262.8202,275.51987c0,0 -8.27593,1.17497 -12.06449,0.76561c-4.53411,-0.48991 -13.30743,-3.50714 -13.30743,-3.50714" fill="none" stroke-width="0.5" stroke-linecap="round"/><path d="M266.21746,255.20464l-9.61453,1.34564" fill="none" stroke-width="1" stroke-linecap="round"/><path d="M222.85953,266.26541l5.48713,0.37613" fill="none" stroke-width="1" stroke-linecap="round"/><path d="M248.91334,295.61586c0,0 -14.94187,-5.22039 -21.26469,-9.34253c-5.97009,-3.89219 -15.67484,-14.74005 -15.67484,-14.74005" fill="none" stroke-width="1" stroke-linecap="round"/><path d="M252.69277,284.34795c0,0 -12.39375,-1.14445 -17.8559,-3.13051c-5.29002,-1.92345 -14.41716,-8.60404 -14.41716,-8.60404" fill="none" stroke-width="1" stroke-linecap="round"/><path d="M219.91285,294.63029c0,0 -3.5804,-1.86086 -4.70189,-3.39432c-1.29683,-1.77321 -2.6297,-6.63053 -2.6297,-6.63053" fill="none" stroke-width="1" stroke-linecap="round"/></g><path d="M190.32745,136.90227c0,-33.30185 28.7599,-60.29833 64.23702,-60.29833c35.47712,0 64.23702,26.99649 64.23702,60.29833c0,33.30185 -28.7599,60.29833 -64.23702,60.29833c-35.47712,0 -64.23702,-26.99649 -64.23702,-60.29833z" fill="#ffffff" stroke="#000000" stroke-width="2" stroke-linecap="butt"/><path d="M191.05052,136.95608c0,-0.72799 5.20666,55.91939 63.36046,56.93429c55.56352,0.9697 63.51358,-57.95314 63.51358,-56.93429c0,32.80479 -28.40173,59.39833 -63.43702,59.39833c-35.03529,0 -63.43702,-26.59354 -63.43702,-59.39833z" fill="#e6e6e6" stroke="#000000" stroke-width="0" stroke-linecap="butt"/><path d="M203.87767,137.33175c0,-12.968 10.51265,-23.48065 23.48065,-23.48065c12.968,0 23.48065,10.51265 23.48065,23.48065c0,12.968 -10.51265,23.48065 -23.48065,23.48065c-12.968,0 -23.48065,-10.51265 -23.48065,-23.48065z" fill="#ffffff" stroke="#000000" stroke-width="2" stroke-linecap="butt"/><path d="M217.34091,137.0561c0,-9.12808 7.39976,-16.52784 16.52783,-16.52784c9.12808,0 16.52784,7.39977 16.52784,16.52784c0,9.12808 -7.39977,16.52784 -16.52784,16.52784c-9.12808,0 -16.52783,-7.39977 -16.52783,-16.52784z" fill="#005a00" stroke="none" stroke-width="0" stroke-linecap="butt"/><path d="M260.71258,186.45742c-16.57734,0.52251 -17.80332,-9.19264 -17.80332,-9.19264l40.68696,-6.74255c0,0 -4.80202,15.36526 -22.88364,15.93519z" data-paper-data="{&quot;index&quot;:null}" fill="#2a2580" stroke="#000000" stroke-width="2" stroke-linecap="round"/><path d="M281.61678,160.81237c-12.968,0 -23.48065,-10.51265 -23.48065,-23.48065c0,-12.968 10.51265,-23.48065 23.48065,-23.48065c12.968,0 23.48065,10.51265 23.48065,23.48065c0,12.968 -10.51265,23.48065 -23.48065,23.48065z" data-paper-data="{&quot;index&quot;:null}" fill="#ffffff" stroke="#000000" stroke-width="2" stroke-linecap="butt"/><path d="M287.40352,153.58395c-9.12807,0 -16.52783,-7.39977 -16.52783,-16.52784c0,-9.12808 7.39977,-16.52784 16.52783,-16.52784c9.12807,0 16.52783,7.39977 16.52783,16.52784c0,9.12808 -7.39977,16.52784 -16.52783,16.52784z" data-paper-data="{&quot;index&quot;:null}" fill="#005a00" stroke="none" stroke-width="0" stroke-linecap="butt"/><path d="M203.87767,137.33175c0,-12.968 10.51265,-23.48065 23.48065,-23.48065c12.968,0 23.48065,10.51265 23.48065,23.48065c0,0 -12.04444,-4.1588 -23.93388,-4.00696c-11.58733,0.14798 -23.02743,4.61481 -23.02743,4.00696z" fill="#000000" stroke="#000000" stroke-width="2" stroke-linecap="butt"/><path d="M258.13612,137.3361c0,-12.968 10.51265,-23.48065 23.48065,-23.48065c12.968,0 23.48065,10.51265 23.48065,23.48065c0,0 -11.01671,-4.18575 -22.37833,-4.02772c-12.09602,0.16824 -24.58298,4.66278 -24.58298,4.02772z" fill="#000000" stroke="#000000" stroke-width="2" stroke-linecap="butt"/><path d="M216.51534,108.52328c0,0 6.70895,-5.16922 11.79721,-6.36355c5.08827,-1.19433 12.33413,0.69937 12.33413,0.69937c0,0 -8.03812,-0.06028 -11.96762,0.86207c-4.10648,0.96389 -12.16372,4.80211 -12.16372,4.80211z" fill="#000000" stroke="none" stroke-width="0" stroke-linecap="butt"/><path d="M280.44988,103.72118c-3.9295,-0.92235 -11.96762,-0.86207 -11.96762,-0.86207c0,0 7.24586,-1.8937 12.33413,-0.69937c5.08826,1.19433 11.79721,6.36355 11.79721,6.36355c0,0 -8.05724,-3.83822 -12.16372,-4.80211z" data-paper-data="{&quot;index&quot;:null}" fill="#000000" stroke="none" stroke-width="0" stroke-linecap="butt"/><g fill="none" stroke="#000000" stroke-width="2" stroke-linecap="round"><path d="M200.26448,136.10226l3.6,2.6"/><path d="M308.86447,135.10226l-4.2,3.4"/></g><path d="" fill="#4e45f0" stroke="#4e45f0" stroke-width="3" stroke-linecap="butt"/><g stroke-linecap="butt"><path d="M302.81963,92.39204c1.87519,3.35235 12.84361,21.8911 14.18729,29.36246c3.4028,18.92088 0.78664,29.69614 -0.02422,30.00264c-0.13844,0.05232 11.51754,38.78644 -2.06559,40.25863c-0.43899,0.04757 0.66853,-1.50001 0.89357,-3.17449c0.17838,-1.32734 -0.47907,-2.86362 -0.91413,-2.83598c-0.16009,-0.02514 -3.62868,5.08316 -4.56517,5.61017c-3.11875,1.75504 -13.99882,1.7611 -12.23417,0.52258c4.16255,-2.92144 14.7948,-10.67543 11.29599,-21.54732c-6.57548,-0.71794 -7.69809,-8.26389 -6.80128,-7.90809c19.05871,-3.04222 3.54774,-40.93103 0.77898,-44.88784c-0.4533,-0.64782 -1.14249,-24.70571 -0.55127,-25.40276z" data-paper-data="{&quot;index&quot;:null}" fill="#4e45f0" stroke="#000000" stroke-width="2"/><path d="M191.34529,113.21678c8.86633,-23.79928 27.59006,-36.31914 56.59292,-39.30175c24.03713,-2.47195 39.92576,4.9226 49.25049,11.90246c18.53826,13.43727 6.07533,33.30783 6.07533,33.30783c0,0 -2.44575,-9.43422 -14.27833,-17.23873c-15.2844,-10.08126 -15.11407,-8.86322 -15.11407,-8.86322c0,0 4.70822,1.41491 -2.77844,20.80742c-2.55975,5.82394 -13.30803,15.26345 -18.19962,16.81246c-1.64911,-4.51443 2.76125,-22.43472 -24.61346,-33.18708c-6.92905,12.95669 -20.05249,10.99693 -27.96327,30.20943c-2.72904,14.62469 -5.84594,57.08572 16.57608,38.94706c0.79755,-0.5429 0.46122,12.69759 -10.93361,13.8908c-0.05152,0.56219 -0.07101,1.10939 -0.06094,1.64197c0.19363,10.24207 11.31887,15.07471 15.78626,16.92149c1.99237,0.82363 -8.62687,3.19168 -12.05341,2.15942c-1.02892,-0.30996 -5.52852,-4.53838 -5.6793,-4.47891c-0.43061,0.06793 -0.73701,1.71064 -0.2733,2.9671c0.58497,1.58505 2.00349,2.85368 1.56471,2.90306c-13.57705,1.52702 -10.65344,-38.81705 -10.79997,-38.83792c-0.85822,-0.12221 -5.76242,-10.06701 -6.57,-29.2745c-0.43521,-10.3511 3.47196,-21.28841 3.47196,-21.28841z" fill="#4e45f0" stroke="#000000" stroke-width="2"/><path d="M191.34529,113.21678c8.86633,-23.79928 27.59006,-36.31914 56.59292,-39.30175c24.03713,-2.47195 39.92576,4.9226 49.25049,11.90246c1.62816,1.18014 3.49071,3.28021 5.42375,5.92703c-2.52909,1.75729 -4.94845,3.59823 -7.3435,5.33859l-0.71668,-0.32907l-0.7298,-0.49783l-0.02473,-0.02441l-0.08219,-0.04855l-0.49125,-0.3351l-0.20295,-0.07493l-0.16773,-0.09907l-0.17339,-0.5462l-1.15319,-0.56668l-0.93823,-0.87791l-0.76354,0.04165l-1.61651,-0.79436l-0.25677,-0.15167l-0.59171,-0.47403l-0.03399,-0.10706l-0.25778,-0.12666l-0.21746,-0.17421l-2.08814,-0.95877l-2.0622,-1.01337l-0.27242,-0.05857l-0.31493,-0.14461l-0.26151,-0.12849l-1.41911,-1.32783l-0.49816,0.02717l-0.67447,-0.46009l-0.43675,-0.16125l-0.06609,-0.09082l-0.2846,-0.03866l-0.2614,-0.0965l-2.28418,-0.24925l-1.19747,-0.16265l-0.41962,-0.20621l-1.54582,-0.33234l-1.60663,0.05336l-1.09126,-0.14821l-0.33887,-0.07286l-0.15869,0.00528l-0.00403,-0.00056l-0.00883,0.00097l-0.45997,0.01528l-0.59731,-0.20618l-2.53979,-0.22258l-0.89843,0.14274l-0.09555,-0.03299l-0.93661,-0.08208l-0.04007,-0.00544l-0.00976,0.00107l-1.55335,-0.13614l-0.98368,0.15628l-0.98695,-0.13405l-11.44027,1.26331l-1.55335,-0.13614l-0.98368,0.15628l-0.98695,-0.13405l-18.73366,2.0687l-0.09974,-0.05167l-0.27183,0.09269l-0.27695,0.03059l-2.15447,0.79858l-1.19096,0.40614l-0.19883,-0.03132l-0.23613,0.17965l-0.54882,0.18714l-0.23404,0.15121l-0.26932,0.09982l-0.04468,0.10307l-0.39104,0.25265l-1.09832,1.17379l-0.59497,0.45265l-0.13001,0.084l-0.04844,0.05178l-0.50591,0.3849l-0.14696,0.18345l-0.34862,0.05822l-1.11705,1.63754l-0.51136,0.54652l-0.13998,0.02338l-0.31775,0.46581l-0.38525,0.41172l0.00773,0.14171l-0.7625,1.1178l-1.51954,2.09361l0.02728,0.15084l-0.22855,0.6191c-1.12386,0.79022 -2.14056,1.56285 -2.95478,2.15682c-2.10809,1.53785 -12.51705,14.1801 -13.2333,15.44306c-2.92934,5.16522 -3.48063,7.86844 -5.87211,13.74558c-0.47831,1.17546 -1.71551,4.30604 -2.74986,7.5427c-0.1446,-1.66372 -0.25897,-3.41229 -0.33603,-5.24521c-0.43521,-10.3511 3.47196,-21.28841 3.47196,-21.28841z" fill="#4e45f0" stroke="#4e45f0" stroke-width="4"/><path d="M252.42988,67.82486l7.61171,10.26664l17.1783,0.29799l-11.22606,10.85002l5.6741,13.93036l-16.04143,-6.39717l-14.25909,9.74317l2.49789,-14.83277l-13.32298,-8.13914l16.69936,-4.03899z" fill="#ffe938" stroke="#000000" stroke-width="2"/></g><g stroke-width="0" stroke-linecap="butt"><path d="M337.42373,64.7254l-11.69235,4.11154l-6.1093,-8.05825l7.63574,-5.97254l-17.75427,-0.43619l-1.31039,-12.19246l19.02962,-0.2725l-8.11597,-7.7604l6.45418,-7.71749l7.57271,1.71415l16.69627,16.55079l0.34596,6.51476z" fill="#ffffff" stroke="none"/><path d="M328.71662,66.81441c-1.93047,0.86893 -3.35028,-0.83762 -4.3839,-2.09384c-1.06993,-1.30034 -2.91522,-4.87789 -2.91522,-4.87789c0,0 7.6224,-3.41981 6.83125,-5.11296c-0.3914,-0.83762 -9.57779,-0.79994 -15.45509,-1.11196c-1.65685,-0.08796 -2.93723,-3.6821 -3.00703,-5.28803c-0.17685,-4.06921 0.70609,-5.29479 2.71258,-5.57823c2.42008,-0.34187 15.90526,1.19191 16.68495,-0.10704c0.47882,-0.7977 -8.41186,-8.25276 -8.41186,-8.25276c0,0 3.07246,-3.45038 4.40818,-4.55109c1.04592,-0.8619 2.60767,-1.68364 3.51273,-1.27178c1.35865,0.61826 19.69431,11.42745 19.48757,19.96738c-0.20262,8.36955 -17.9208,17.58353 -19.46415,18.27821z" fill="#f9393f" stroke="#ffffff"/><path d="M327.79652,71.07809c-2.37757,1.05867 -4.29353,-2.75504 -5.56675,-4.28601c-1.31791,-1.58474 -4.89392,-6.30837 -3.45242,-7.58781c2.58067,-2.29054 3.67668,-3.18425 3.67668,-3.18425c0,0 -4.42374,0.28155 -11.66505,0.14511c-3.58934,-0.06765 -4.78217,-4.71042 -4.95233,-6.66192c-0.47763,-5.47811 0.55688,-8.87872 2.96691,-9.51159c2.77096,-0.72766 14.41844,-0.33777 14.41844,-0.33777c0,0 -3.62516,-2.61735 -5.13988,-5.17561c-1.4126,-2.38574 3.9502,-7.15772 5.5952,-8.4989c1.28809,-1.0502 3.63364,-2.04772 4.74841,-1.54574c1.67347,0.75358 23.83802,13.65942 23.58435,24.06617c-0.24862,10.19913 -22.31277,21.73192 -24.21355,22.57828zM349.16769,48.51934c0.04525,-9.58377 -19.80481,-21.48981 -21.13038,-21.44971c-2.51221,0.076 -7.54901,6.35569 -7.54901,6.35569c0,0 9.30576,7.79372 8.20753,8.54973c-1.69744,1.16849 -15.70061,0.21633 -18.20994,0.50776c-2.67848,0.3111 -1.74868,9.84533 0.11163,11.01008c1.27925,0.80095 17.1292,-0.05588 17.95493,1.01683c1.1958,1.55349 -8.03224,6.13192 -8.03224,6.13192c0,0 4.6436,7.13971 6.41184,7.60529c1.92547,0.50697 22.19272,-10.62976 22.23568,-19.72761z" fill="#651038" stroke="#1542b7"/></g></g></g></svg>