<svg version="1.1" xmlns="http://www.w3.org/2000/svg" xmlns:xlink="http://www.w3.org/1999/xlink" width="34.17311" height="34.17311" viewBox="0,0,34.17311,34.17311"><g transform="translate(-222.91345,-162.91346)"><g data-paper-data="{&quot;isPaintingLayer&quot;:true}" stroke="none" stroke-miterlimit="10" stroke-dasharray="" stroke-dashoffset="0" style="mix-blend-mode: normal"><path d="M229.98313,162.91347h20.03378c3.9166,0 7.06966,3.15307 7.06966,7.06966v20.03379c0,3.91659 -3.15306,7.06966 -7.06966,7.06966h-20.03378c-3.91659,0 -7.06967,-3.15307 -7.06967,-7.06966v-20.03379c0,-3.91659 3.15308,-7.06966 7.06967,-7.06966z" fill-opacity="0.09677" fill="#191919" fill-rule="evenodd" stroke-width="4.43922" stroke-linecap="round" stroke-linejoin="round"/><path d="M233.57517,186.2451c-0.85486,0.40156 -2.50473,-1.02438 -2.50473,-1.02438c0,0 -1.33487,0.87225 -2.01569,0.83061c-1.06303,-0.06501 -2.18573,-1.44352 -2.18573,-1.44352c0,0 -2.0628,1.23904 -2.55288,0.48648c-0.67895,-1.04258 -0.36606,-4.11121 -0.11874,-5.41407c0.6101,-3.21392 3.0794,-5.88575 6.42152,-5.68136c3.34212,0.20438 5.66438,4.57623 5.71286,5.90649c0.05319,1.45932 -1.16513,5.5922 -2.7566,6.33977z" data-paper-data="{&quot;index&quot;:null}" fill="#626262" fill-rule="nonzero" stroke-width="0.5" stroke-linecap="butt" stroke-linejoin="miter"/><path d="M233.32289,189.08158c-2.39726,-4.85966 -0.98835,-10.45287 3.14688,-12.49278c4.13523,-2.03991 9.43088,0.24595 11.82814,5.10562c2.39726,4.85966 0.98835,10.45287 -3.14688,12.49278c-4.13523,2.03991 -9.43088,-0.24595 -11.82814,-5.10561z" fill="#a0a0a0" fill-rule="nonzero" stroke-width="0.5" stroke-linecap="butt" stroke-linejoin="miter"/><path d="M228.83548,173.38284c-0.27796,-4.30587 2.9873,-8.02179 7.29316,-8.29976c4.30587,-0.27796 8.02179,2.98729 8.29976,7.29316c0.27796,4.30587 -2.98729,8.0218 -7.29315,8.29977c-4.30587,0.27796 -8.0218,-2.9873 -8.29976,-7.29317z" fill="#a0a0a0" fill-rule="nonzero" stroke-width="0.5" stroke-linecap="butt" stroke-linejoin="miter"/><path d="M243.31585,179.60104c-0.12295,-1.32545 1.61793,-5.95959 4.90602,-6.59199c3.2881,-0.63241 6.08043,1.69977 7.09869,4.80857c0.41279,1.26025 1.11762,4.26317 0.57836,5.3844c-0.38924,0.80932 -2.59425,-0.1542 -2.59425,-0.1542c0,0 -0.93614,1.51142 -1.98198,1.71257c-0.66983,0.12883 -2.10576,-0.56455 -2.10576,-0.56455c0,0 -1.45283,1.62624 -2.35223,1.33793c-1.67438,-0.53673 -3.41396,-4.47867 -3.54886,-5.93272z" fill="#626262" fill-rule="nonzero" stroke-width="0.5" stroke-linecap="butt" stroke-linejoin="miter"/><path d="M229.77055,179.18056l0.06675,-2.91014c0,0 1.29456,-0.89382 2.60865,-0.59092c1.31409,0.30292 1.47404,1.79033 1.47404,1.79033z" fill="#d4d4d4" fill-rule="nonzero" stroke-width="0" stroke-linecap="butt" stroke-linejoin="miter"/><path d="M235.60706,174.07481c0,0 -0.33712,-0.5257 -0.85095,-0.61587c-0.51384,-0.09016 -1.0098,0.28937 -1.0098,0.28937c0,0 0.60086,-0.97734 1.11468,-0.88718c0.51384,0.09016 0.74606,1.21368 0.74606,1.21368z" fill="#000000" fill-rule="nonzero" stroke-width="0" stroke-linecap="butt" stroke-linejoin="miter"/><path d="M230.77602,173.87957c0,0 -0.31477,-0.49878 -0.70293,-0.55451c-0.38816,-0.05573 -0.70274,0.35271 -0.70274,0.35271c0,0 0.31446,-1.00754 0.70262,-0.95181c0.38816,0.05573 0.70306,1.15362 0.70306,1.15362z" fill="#000000" fill-rule="nonzero" stroke-width="0" stroke-linecap="butt" stroke-linejoin="miter"/></g></g></svg>