<svg version="1.1" xmlns="http://www.w3.org/2000/svg" xmlns:xlink="http://www.w3.org/1999/xlink" width="149.86663" height="255.8814" viewBox="0,0,149.86663,255.8814"><defs><linearGradient x1="319.92305" y1="175.4592" x2="319.92305" y2="307.45914" gradientUnits="userSpaceOnUse" id="color-1"><stop offset="0" stop-color="#4c7b64"/><stop offset="1" stop-color="#2b2b2b"/></linearGradient><linearGradient x1="320.08155" y1="221.49565" x2="320.08155" y2="308.14565" gradientUnits="userSpaceOnUse" id="color-2"><stop offset="0" stop-color="#6b6dd3"/><stop offset="1" stop-color="#000000"/></linearGradient><linearGradient x1="355.96021" y1="194.5574" x2="355.96021" y2="302.11987" gradientUnits="userSpaceOnUse" id="color-3"><stop offset="0" stop-color="#4b7b64"/><stop offset="1" stop-color="#000000"/></linearGradient><linearGradient x1="284.13221" y1="194.46852" x2="284.13221" y2="302.02621" gradientUnits="userSpaceOnUse" id="color-4"><stop offset="0" stop-color="#4b7b64"/><stop offset="1" stop-color="#000000"/></linearGradient><linearGradient x1="297.96162" y1="81.34656" x2="327.32823" y2="204.08382" gradientUnits="userSpaceOnUse" id="color-5"><stop offset="0" stop-color="#000000"/><stop offset="1" stop-color="#ffdac9"/></linearGradient><linearGradient x1="312.51706" y1="142.52888" x2="327.04258" y2="203.23807" gradientUnits="userSpaceOnUse" id="color-6"><stop offset="0" stop-color="#000000"/><stop offset="1" stop-color="#7e647b"/></linearGradient><linearGradient x1="291.05754" y1="54.90915" x2="305.56792" y2="115.55503" gradientUnits="userSpaceOnUse" id="color-7"><stop offset="0" stop-color="#4c7b64"/><stop offset="1" stop-color="#000000"/></linearGradient><linearGradient x1="292.10962" y1="59.33171" x2="300.20202" y2="93.15376" gradientUnits="userSpaceOnUse" id="color-8"><stop offset="0" stop-color="#daffed"/><stop offset="1" stop-color="#161a18"/></linearGradient><linearGradient x1="293.96971" y1="64.29728" x2="299.01503" y2="85.38415" gradientUnits="userSpaceOnUse" id="color-9"><stop offset="0" stop-color="#49705e"/><stop offset="1" stop-color="#13160e"/></linearGradient><linearGradient x1="314.31199" y1="152.05987" x2="323.04253" y2="188.54901" gradientUnits="userSpaceOnUse" id="color-10"><stop offset="0" stop-color="#000000"/><stop offset="1" stop-color="#ffdac9"/></linearGradient></defs><g transform="translate(-237.64143,-52.77043)"><g data-paper-data="{&quot;isPaintingLayer&quot;:true}" stroke-linecap="butt" stroke-linejoin="miter" stroke-miterlimit="10" stroke-dasharray="" stroke-dashoffset="0" style="mix-blend-mode: normal"><path d="M286.67305,307.45914l15.14285,-131.8421l37.78325,-0.15789l13.57389,132z" fill="url(#color-1)" fill-rule="nonzero" stroke="#000000" stroke-width="2"/><path d="M299.53999,204.07184l3.12142,-26.32765l35.83075,-0.14203l2.76735,26.1059c0,0 -7.51543,4.19603 -21.55904,4.50964c-12.48458,0.27879 -20.16049,-4.14586 -20.16049,-4.14586z" fill="#2f4b3d" fill-rule="nonzero" stroke="#000000" stroke-width="0"/><path d="M286.20349,307.39565l9.625,-85.15c0,0 16.14032,5.36651 24.41538,5.23987c8.05433,-0.12327 24.59071,-5.98987 24.59071,-5.98987l9.125,86.65z" fill="url(#color-2)" fill-rule="nonzero" stroke="#000000" stroke-width="1"/><path d="M330.77702,225.84334l-2.72223,-31.57302l7.33053,-1.11111l3.5,30.46191c0,0 1.97994,9.94622 -2.77415,10.47275c-4.71963,0.52271 -5.33415,-8.25053 -5.33415,-8.25053z" data-paper-data="{&quot;index&quot;:null}" fill="#6b6dd3" fill-rule="nonzero" stroke="#000000" stroke-width="1"/><path d="M301.66589,224.12113l3.5,-30.4619l8.21942,0.55556l-2.61111,32.12857c0,0 -1.38805,9.70344 -6.18894,8.77837c-5.22617,-1.00701 -2.91937,-11.0006 -2.91937,-11.0006z" fill="#6b6dd3" fill-rule="nonzero" stroke="#000000" stroke-width="1"/><path d="M338.78534,228.05328c0,1.99603 -1.54283,3.61412 -3.44602,3.61412c-1.90319,0 -3.44603,-1.6181 -3.44603,-3.61412c0,-1.99603 1.54284,-3.61412 3.44603,-3.61412c1.90319,0 3.44602,1.61809 3.44602,3.61412z" fill="#c6a438" fill-rule="nonzero" stroke="none" stroke-width="0"/><path d="M309.37397,228.76996c0,1.99603 -1.54283,3.61412 -3.44602,3.61412c-1.90319,0 -3.44603,-1.6181 -3.44603,-3.61412c0,-1.99603 1.54284,-3.61412 3.44603,-3.61412c1.90319,0 3.44602,1.61809 3.44602,3.61412z" fill="#c6a438" fill-rule="nonzero" stroke="none" stroke-width="0"/><path d="M308.84907,229.41995c0,1.99602 -1.54284,3.61412 -3.44602,3.61412c-1.90319,0 -3.44602,-1.6181 -3.44602,-3.61412c0,-1.99602 1.54284,-3.61412 3.44602,-3.61412c1.90319,0 3.44602,1.6181 3.44602,3.61412z" fill="#edd459" fill-rule="nonzero" stroke="none" stroke-width="0"/><path d="M338.53678,228.7012c0,1.87521 -1.44945,3.39537 -3.23744,3.39537c-1.78799,0 -3.23745,-1.52016 -3.23745,-3.39537c0,-1.87521 1.44946,-3.39537 3.23745,-3.39537c1.78799,0 3.23744,1.52016 3.23744,3.39537z" fill="#edd459" fill-rule="nonzero" stroke="none" stroke-width="0"/><path d="M341.61113,194.5574c0.90641,1.442 13.27591,-0.94411 14.53458,0.88889c0.31862,-0.594 9.30076,33.378 9.72787,35c-0.5926,-0.963 5.60783,49.33333 5.60783,49.33333c0,0 0.50768,22.79733 0.91556,22.33333c-0.88787,-0.49 -11.18842,-0.32367 -12.13122,-0.16667c0.5308,-15.625 -11.71487,-68.29133 -19.1124,-79.33333c2.25366,-15.345 -5.00951,-26.28055 0.45778,-28.05555z" fill="url(#color-3)" fill-rule="evenodd" stroke="none" stroke-width="1"/><path d="M341.52147,194.5951c0.91572,1.34757 13.41232,-0.88229 14.68393,0.83068c0.10385,-0.17908 1.11865,3.00386 2.46032,7.4491c-6.17155,-0.51975 -13.01437,-2.82677 -18.35267,1.21834c-0.00693,0.00525 -0.01384,0.01053 -0.02073,0.01584c-0.98219,-5.21007 -1.76061,-8.6161 1.22914,-9.51396z" fill="#2f4b3d" fill-rule="nonzero" stroke="none" stroke-width="1"/><path d="M387.456,301.10947c0.01927,0.00566 0.03664,0.01141 0.05206,0.01725c-0.01724,0.01347 -0.0346,0.00734 -0.05206,-0.01725z" fill="#2f4b3d" fill-rule="nonzero" stroke="none" stroke-width="1"/><path d="M298.93917,222.52408c-7.39753,11.042 -19.6432,63.70833 -19.1124,79.33333c-0.9428,-0.157 -11.24335,-0.32333 -12.13122,0.16667c0.40788,0.464 7.11599,-72.62966 6.52339,-71.66666c0.42711,-1.622 9.40925,-35.594 9.72787,-35c1.25867,-1.833 13.62817,0.55311 14.53458,-0.88889c5.46729,1.775 -1.79588,12.71055 0.45778,28.05555z" data-paper-data="{&quot;index&quot;:null}" fill="url(#color-4)" fill-rule="evenodd" stroke="none" stroke-width="1"/><path d="M298.57106,194.50621c2.98975,0.89786 2.21133,4.30389 1.22914,9.51396c-0.00689,-0.00531 -0.0138,-0.01059 -0.02073,-0.01584c-5.3383,-4.04511 -12.18112,-1.73809 -18.35267,-1.21834c1.34167,-4.44524 2.35647,-7.62818 2.46032,-7.4491c1.27161,-1.71297 13.76821,0.51689 14.68393,-0.83068z" data-paper-data="{&quot;index&quot;:null}" fill="#2f4b3d" fill-rule="nonzero" stroke="none" stroke-width="1"/><g><path d="M245.1951,124.05971c-0.0979,-2.09001 -2.92866,-15.84477 8.43298,-32.3068c6.13449,-8.88833 12.60363,-21.02377 34.49621,-26.96577c32.63397,-8.36031 47.62143,0.58619 58.14323,7.48643c14.43128,9.46407 17.71422,20.30569 21.53026,25.06392c0.38744,0.48309 -122.59976,26.78481 -122.60269,26.72224z" fill="#a8530c" fill-rule="nonzero" stroke="none" stroke-width="1.5"/><path d="M246.94583,158.17361c-5.17117,-21.61286 2.13421,-43.46306 17.44152,-58.75306c0.68009,-2.05826 17.97143,-14.22525 31.76492,-17.63827c13.79349,-3.41302 27.3414,-3.40691 38.8908,0.15543c21.05485,6.49425 37.92523,22.85017 43.18307,44.82525c8.14197,34.02926 -14.64575,68.64694 -50.8978,77.32074c-36.25204,8.67381 -72.24053,-11.88085 -80.3825,-45.91011z" fill="url(#color-5)" fill-rule="nonzero" stroke="#000000" stroke-width="2"/><path d="M247.69755,158.05198c-0.17799,-0.74389 18.99213,55.86786 78.66432,42.68689c57.01428,-12.59385 50.73193,-74.74745 50.98103,-73.70635c8.02045,33.52135 -14.49979,67.63972 -50.30037,76.2055c-35.80056,8.56579 -71.32453,-11.6647 -79.34498,-45.18604z" fill="url(#color-6)" fill-rule="nonzero" stroke="#000000" stroke-width="0"/><path d="M253.54533,169.2437c0,0 -5.16091,-7.23409 -6.12384,-11.25865c-1.47414,-6.16119 -0.75843,-45.69956 -0.75843,-45.69956l9.73297,-2.32874c0,0 -1.79378,9.25062 -1.30176,14.15529c0.43698,4.35593 4.10839,13.82229 4.10839,13.82229l-1.44215,3.32298l-3.51174,-1.10928z" fill="#3a2f2b" fill-rule="nonzero" stroke="#000000" stroke-width="0"/><path d="M281.74234,150.3121c-3.17056,-13.25126 0.33504,-25.44726 7.82995,-27.24052c7.49491,-1.79326 16.14098,7.49529 19.31152,20.74655c3.17056,13.25126 -0.33504,25.44726 -7.82995,27.24052c-7.49491,1.79326 -16.14098,-7.49529 -19.31152,-20.74655z" fill="#c62020" fill-rule="nonzero" stroke="#000000" stroke-width="2"/><path d="M251.52545,164.85278c0,0 -4.8765,-6.83542 -5.78636,-10.63818c-1.39291,-5.82165 -0.71663,-43.18106 -0.71663,-43.18106l9.19658,-2.20041c0,0 -1.69492,8.74082 -1.23003,13.37519c0.41289,4.11588 3.88198,13.06055 3.88198,13.06055l-1.36269,3.13984l-3.3182,-1.04815z" fill="#766058" fill-rule="nonzero" stroke="#000000" stroke-width="1.5"/><path d="M335.54997,162.80489c-7.43848,1.77975 -16.03879,-7.51974 -19.20934,-20.771c-3.17056,-13.25126 0.28929,-25.43632 7.72776,-27.21607c7.43848,-1.77975 16.03879,7.51974 19.20934,20.771c3.17056,13.25126 -0.28929,25.43632 -7.72776,27.21607z" data-paper-data="{&quot;index&quot;:null}" fill="#c62020" fill-rule="nonzero" stroke="#000000" stroke-width="2"/><path d="M268.53972,121.14575c0,0 10.70817,-7.16885 16.19494,-6.94229c5.48679,0.22657 13.41069,3.24292 13.41069,3.24292c0,0 -9.24295,-1.38422 -13.48021,-1.55918c-4.4281,-0.18284 -16.12542,5.25854 -16.12542,5.25854z" fill="#000000" fill-rule="nonzero" stroke="none" stroke-width="0"/><path d="M325.31083,104.5452c-3.64571,2.16651 -9.68405,8.07158 -9.68405,8.07158c0,0 4.10234,-6.71483 8.82314,-9.52024c4.7208,-2.8054 13.56544,-3.78449 13.56544,-3.78449c0,0 -8.89464,2.96908 -12.70454,5.23317z" data-paper-data="{&quot;index&quot;:null}" fill="#000000" fill-rule="nonzero" stroke="none" stroke-width="0"/><path d="M362.40434,115.35073l-2.62934,2.57862l-2.79002,-2.31037c0,0 -1.01082,-10.10294 -2.59273,-14.18493c-1.7812,-4.59621 -7.56771,-12.03314 -7.56771,-12.03314l9.73297,-2.32874c0,0 18.53394,34.93261 20.00809,41.09381c0.96293,4.02456 -0.36481,12.81115 -0.36481,12.81115z" data-paper-data="{&quot;index&quot;:null}" fill="#3a2f2b" fill-rule="nonzero" stroke="#000000" stroke-width="0"/><path d="M363.62271,113.21965l-2.48444,2.43652l-2.63626,-2.18304c0,0 -0.95511,-9.54618 -2.44985,-13.4032c-1.68304,-4.34292 -7.15065,-11.36999 -7.15065,-11.36999l9.19658,-2.20041c0,0 17.51253,33.00749 18.90544,38.82913c0.90987,3.80276 -0.3447,12.10513 -0.3447,12.10513z" data-paper-data="{&quot;index&quot;:null}" fill="#766058" fill-rule="nonzero" stroke="#000000" stroke-width="1.5"/><path d="M238.64014,112.01478c11.1019,-28.1985 27.99976,-51.26338 51.48082,-56.88156c23.43849,-5.60798 47.80779,1.42268 69.6734,21.41167c3.04076,2.77978 11.59439,21.89853 9.83109,23.51895c-2.63642,2.4228 -59.12883,2.5007 -67.41163,4.48248c-8.62289,2.06315 -55.82811,25.44687 -59.68032,25.65019c-2.77385,0.14641 -5.55101,-13.97131 -3.89336,-18.18175z" fill="url(#color-7)" fill-rule="nonzero" stroke="#000000" stroke-width="1"/><path d="M314.97482,71.73998c2.23466,9.33971 -4.37933,18.92696 -14.77275,21.41373c-10.39342,2.48677 -20.63049,-3.06863 -22.86514,-12.40834c-2.23466,-9.33971 4.37933,-18.92696 14.77275,-21.41373c10.39342,-2.48677 20.63049,3.06863 22.86514,12.40834z" fill="url(#color-8)" fill-rule="nonzero" stroke="none" stroke-width="0"/><path d="M254.84925,124.34092l0.7472,-9.67035c0,0 7.77737,-5.34361 8.40042,-5.69223c4.64954,-2.60157 24.25748,-14.67415 35.93391,-17.4679c11.27737,-2.69827 34.60678,-1.24603 40.82364,-1.03319c1.0356,0.03545 8.95381,2.9876 8.95381,2.9876l4.02087,8.58095c0,0 -9.64185,-0.93275 -10.45833,-0.73498c-1.92848,0.46714 -6.18595,0.44575 -11.69664,0.53543c-7.97703,0.12983 -16.99819,7.85636 -26.96413,10.27045c-10.15623,2.46018 -21.3082,-0.62863 -27.987,2.5864c-4.60467,2.21659 -7.83499,3.92929 -8.93556,4.19588c-0.74324,0.18003 -12.83822,5.44191 -12.83822,5.44191z" fill="#141d18" fill-rule="nonzero" stroke="#000000" stroke-width="0"/><path d="M308.54383,83.10425l-18.82443,3.72499l-5.27852,-20.25207l5.61208,-1.2876l3.06183,13.84043l13.46382,-2.97177z" data-paper-data="{&quot;index&quot;:null}" fill="url(#color-9)" fill-rule="evenodd" stroke="none" stroke-width="1"/><path d="M321.98704,174.5905c0,0 -20.30357,28.71834 -37.20291,25.37045c-16.89934,-3.34788 -24.35817,-37.56615 -24.35817,-37.56615c0,0 18.36935,12.05779 28.63579,14.09164c10.25391,2.03138 32.92532,-1.89594 32.92532,-1.89594z" fill="#000000" fill-rule="nonzero" stroke="none" stroke-width="0"/><path d="M349.74639,161.87271c8.12629,-6.37579 18.90579,-25.19248 18.90579,-25.19248c0,0 8.72101,33.445 -4.65549,43.94005c-13.37649,10.49504 -44.07256,-5.70858 -44.07256,-5.70858c0,0 21.70589,-6.67099 29.82224,-13.039z" data-paper-data="{&quot;index&quot;:null}" fill="#000000" fill-rule="nonzero" stroke="none" stroke-width="0"/><path d="M307.09014,182.30884c-5.38207,-8.7727 3.1962,-29.28572 3.1962,-29.28572c0,0 3.07487,-0.32286 4.59202,-0.63339c1.60225,-0.32795 4.49869,-1.45765 4.49869,-1.45765c0,0 15.70563,17.35694 15.23717,24.55119c-1.10663,16.99506 -22.14201,15.5983 -27.52408,6.82559z" fill="url(#color-10)" fill-rule="nonzero" stroke="#000000" stroke-width="2"/><g fill="#000000" fill-rule="nonzero" stroke="none" stroke-width="1" font-family="Inter, -apple-system, BlinkMacSystemFont, &quot;Segoe UI&quot;, Roboto, Oxygen, Ubuntu, Cantarell, &quot;Fira Sans&quot;, &quot;Droid Sans&quot;, &quot;Helvetica Neue&quot;, sans-serif, emoji" font-weight="400" font-size="16" text-anchor="start"/><g data-paper-data="{&quot;index&quot;:null}" fill="#000000" fill-rule="nonzero" stroke="none" stroke-width="1" font-family="Inter, -apple-system, BlinkMacSystemFont, &quot;Segoe UI&quot;, Roboto, Oxygen, Ubuntu, Cantarell, &quot;Fira Sans&quot;, &quot;Droid Sans&quot;, &quot;Helvetica Neue&quot;, sans-serif, emoji" font-weight="400" font-size="16" text-anchor="start"/><path d="M310.99556,154.05783l0.08943,-5.34554l5.63497,-1.13218l2.3312,4.67219c0,0 -2.70607,1.50752 -4.16785,1.8078c-1.36971,0.28136 -3.88775,-0.00227 -3.88775,-0.00227z" fill="#907b72" fill-rule="nonzero" stroke="#000000" stroke-width="0"/></g></g></g></svg>