<svg version="1.1" xmlns="http://www.w3.org/2000/svg" xmlns:xlink="http://www.w3.org/1999/xlink" width="34.1731" height="34.1731" viewBox="0,0,34.1731,34.1731"><g transform="translate(-222.91344,-162.91344)"><g data-paper-data="{&quot;isPaintingLayer&quot;:true}" stroke-miterlimit="10" stroke-dasharray="" stroke-dashoffset="0" style="mix-blend-mode: normal"><path d="M229.98315,162.91345h20.0338c3.9166,0 7.0696,3.1531 7.0696,7.0697v20.0338c0,3.9165 -3.153,7.0696 -7.0696,7.0696h-20.0338c-3.9166,0 -7.0697,-3.1531 -7.0697,-7.0696v-20.0338c0,-3.9166 3.1531,-7.0697 7.0697,-7.0697z" fill-opacity="0.09677" fill="#191919" fill-rule="evenodd" stroke="none" stroke-width="4.43922" stroke-linecap="round" stroke-linejoin="round"/><g fill="#000000" fill-rule="nonzero" stroke="#ffffff" stroke-width="0.5" stroke-linejoin="miter"><path d="M248.44405,181.08675c-0.6966,6.9419 -4.7754,12.2631 -9.2371,12.2068c-0.0944,-1.4311 -0.3067,-2.802 -0.9438,-3.7011c-0.5417,-0.7644 -1.2697,-1.4642 -2.0967,-1.9654v-0.7576h-0.5119l0.3924,-0.6808c-1.189,-1.1064 -1.9469,-3.206 -3.5672,-3.3191c-0.3319,-0.0231 -0.6333,0.0119 -0.9076,0.0956c-0.0916,-1.1449 -0.082,-2.3419 0.041,-3.5674c0.3014,-3.0033 2.3287,-5.5936 3.6533,-7.686c1.8478,-2.9189 3.362,-4.7651 6.0691,-4.4934c2.6941,0.2703 3.9776,2.8196 5.212,6.022c0.8953,2.3225 2.1999,4.8228 1.8965,7.8464z" stroke-linecap="butt"/><path d="M244.30985,167.17075l4.1414,5.5782l-15.3822,-1.1449l4.733,-4.8981z" stroke-linecap="round"/></g></g></g></svg>