<svg version="1.1" xmlns="http://www.w3.org/2000/svg" xmlns:xlink="http://www.w3.org/1999/xlink" width="34.17311" height="34.17311" viewBox="0,0,34.17311,34.17311"><g transform="translate(-222.91345,-162.91345)"><g data-paper-data="{&quot;isPaintingLayer&quot;:true}" stroke-linecap="round" stroke-miterlimit="10" stroke-dasharray="" stroke-dashoffset="0" style="mix-blend-mode: normal"><path d="M229.98312,162.91346h20.03379c3.9166,0 7.06966,3.15307 7.06966,7.06966v20.03379c0,3.91659 -3.15306,7.06966 -7.06966,7.06966h-20.03379c-3.91659,0 -7.06966,-3.15307 -7.06966,-7.06966v-20.03379c0,-3.91659 3.15307,-7.06966 7.06966,-7.06966z" fill="#345756" fill-rule="evenodd" stroke="none" stroke-width="4.43922" stroke-linejoin="round"/><g fill-rule="nonzero" stroke="#000000" stroke-width="1" stroke-linejoin="miter"><path d="M239.59765,168.84117l5.22682,4.48013l1.65931,1.9082l0.33186,6.72019l-2.07413,5.72461l-5.47571,3.48455l-5.89054,-3.48455l-2.48896,-6.4713l0.99559,-5.9735l2.32303,-3.65048z" fill="#345756"/><path d="M244.16074,186.42982l-12.52777,-10.12177l9.29212,-5.80757" fill="none"/><path d="M234.61973,171.49606l12.02997,10.20474l-9.45805,7.54985" fill="none"/><path d="M241.17399,189.16767l-9.87288,-7.88171l11.11735,-9.54101" fill="none"/><path d="M237.10868,170.16861l9.20915,6.05647l-12.85962,10.70253" fill="none"/></g></g></g></svg>