<svg version="1.1" xmlns="http://www.w3.org/2000/svg" xmlns:xlink="http://www.w3.org/1999/xlink" width="322.17381" height="293.0025" viewBox="0,0,322.17381,293.0025"><defs><linearGradient x1="246.76746" y1="176.43898" x2="240.73069" y2="308.30087" gradientUnits="userSpaceOnUse" id="color-1"><stop offset="0" stop-color="#12201e"/><stop offset="1" stop-color="#345756"/></linearGradient><linearGradient x1="246.25179" y1="197.03744" x2="244.75493" y2="229.73355" gradientUnits="userSpaceOnUse" id="color-2"><stop offset="0" stop-color="#203535"/><stop offset="1" stop-color="#274746"/></linearGradient><linearGradient x1="245.93252" y1="185.34152" x2="244.87822" y2="208.37096" gradientUnits="userSpaceOnUse" id="color-3"><stop offset="0" stop-color="#203535"/><stop offset="1" stop-color="#274746"/></linearGradient><linearGradient x1="333.56426" y1="77.6152" x2="332.59749" y2="121.62277" gradientUnits="userSpaceOnUse" id="color-4"><stop offset="0" stop-color="#1d1c17"/><stop offset="1" stop-color="#616051"/></linearGradient><linearGradient x1="319.38581" y1="60.22204" x2="317.61929" y2="140.6378" gradientUnits="userSpaceOnUse" id="color-5"><stop offset="0" stop-color="#0e1411"/><stop offset="1" stop-color="#244343"/></linearGradient><radialGradient cx="238.55111" cy="170.66608" r="71.31655" gradientUnits="userSpaceOnUse" id="color-6"><stop offset="0" stop-color="#000000"/><stop offset="1" stop-color="#345756"/></radialGradient><linearGradient x1="242.78271" y1="76.38292" x2="240.13409" y2="196.95051" gradientUnits="userSpaceOnUse" id="color-7"><stop offset="0" stop-color="#0f1b1b"/><stop offset="1" stop-color="#345756"/></linearGradient><linearGradient x1="214.77057" y1="112.77363" x2="213.73918" y2="159.72362" gradientUnits="userSpaceOnUse" id="color-8"><stop offset="0" stop-color="#784752"/><stop offset="1" stop-color="#4c1e20"/></linearGradient><linearGradient x1="269.01587" y1="113.96527" x2="267.98447" y2="160.91525" gradientUnits="userSpaceOnUse" id="color-9"><stop offset="0" stop-color="#190505"/><stop offset="1" stop-color="#000000"/></linearGradient><linearGradient x1="237.83234" y1="82.10632" x2="237.13031" y2="114.06411" gradientUnits="userSpaceOnUse" id="color-10"><stop offset="0" stop-color="#141e20"/><stop offset="1" stop-color="#0e1717"/></linearGradient><linearGradient x1="284.47612" y1="55.76573" x2="284.11446" y2="72.22984" gradientUnits="userSpaceOnUse" id="color-11"><stop offset="0" stop-color="#3b5456"/><stop offset="1" stop-color="#253e3d"/></linearGradient><linearGradient x1="335.14703" y1="20.44599" x2="334.89468" y2="31.93258" gradientUnits="userSpaceOnUse" id="color-12"><stop offset="0" stop-color="#3b5456"/><stop offset="1" stop-color="#253e3d"/></linearGradient><linearGradient x1="279.15939" y1="66.73816" x2="278.96172" y2="75.73601" gradientUnits="userSpaceOnUse" id="color-13"><stop offset="0" stop-color="#3b5456"/><stop offset="1" stop-color="#253e3d"/></linearGradient><linearGradient x1="344.96714" y1="79.12116" x2="344.7737" y2="87.92755" gradientUnits="userSpaceOnUse" id="color-14"><stop offset="0" stop-color="#3b5456"/><stop offset="1" stop-color="#253e3d"/></linearGradient><linearGradient x1="307.56715" y1="29.99153" x2="305.87514" y2="107.01217" gradientUnits="userSpaceOnUse" id="color-15"><stop offset="0" stop-color="#404135"/><stop offset="1" stop-color="#1b1816"/></linearGradient><radialGradient cx="228.25958" cy="194.15918" r="2.15987" gradientUnits="userSpaceOnUse" id="color-16"><stop offset="0" stop-color="#000000"/><stop offset="1" stop-color="#350604"/></radialGradient><radialGradient cx="249.5938" cy="195.14104" r="4.21522" gradientUnits="userSpaceOnUse" id="color-17"><stop offset="0" stop-color="#000000"/><stop offset="1" stop-color="#350604"/></radialGradient><radialGradient cx="210.18793" cy="176.07486" r="16.49954" gradientUnits="userSpaceOnUse" id="color-18"><stop offset="0" stop-color="#000000"/><stop offset="1" stop-color="#350604"/></radialGradient><linearGradient x1="246.10664" y1="129.4469" x2="245.87897" y2="139.81048" gradientUnits="userSpaceOnUse" id="color-19"><stop offset="0" stop-color="#3b5456"/><stop offset="1" stop-color="#253e3d"/></linearGradient><linearGradient x1="273.58288" y1="104.49129" x2="270.37298" y2="161.4479" gradientUnits="userSpaceOnUse" id="color-20"><stop offset="0" stop-color="#1b1816"/><stop offset="1" stop-color="#404135"/></linearGradient><linearGradient x1="288.28846" y1="129.55188" x2="287.84059" y2="149.93963" gradientUnits="userSpaceOnUse" id="color-21"><stop offset="0" stop-color="#3b5456"/><stop offset="1" stop-color="#253e3d"/></linearGradient><linearGradient x1="279.09558" y1="133.29971" x2="278.73482" y2="149.72113" gradientUnits="userSpaceOnUse" id="color-22"><stop offset="0" stop-color="#3b5456"/><stop offset="1" stop-color="#253e3d"/></linearGradient><linearGradient x1="202.89808" y1="40.60704" x2="202.64575" y2="52.09363" gradientUnits="userSpaceOnUse" id="color-23"><stop offset="0" stop-color="#3b5456"/><stop offset="1" stop-color="#253e3d"/></linearGradient><linearGradient x1="193.92806" y1="56.56307" x2="309.49289" y2="59.10177" gradientUnits="userSpaceOnUse" id="color-24"><stop offset="0" stop-color="#213331"/><stop offset="1" stop-color="#172322"/></linearGradient><linearGradient x1="216.82767" y1="66.78316" x2="295.756" y2="68.51706" gradientUnits="userSpaceOnUse" id="color-25"><stop offset="0" stop-color="#213331"/><stop offset="1" stop-color="#121b1b"/></linearGradient><linearGradient x1="191.71046" y1="46.96856" x2="190.45573" y2="104.08588" gradientUnits="userSpaceOnUse" id="color-26"><stop offset="0" stop-color="#404135"/><stop offset="1" stop-color="#1b1816"/></linearGradient></defs><g transform="translate(-31.44413,-20.61001)"><g data-paper-data="{&quot;isPaintingLayer&quot;:true}" fill-rule="nonzero" stroke-linejoin="miter" stroke-miterlimit="10" stroke-dasharray="" stroke-dashoffset="0" style="mix-blend-mode: normal"><path d="M178.409,313.61251v-267.22501h123.18203v267.22501z" fill-opacity="0.01" fill="#000000" stroke="none" stroke-width="0" stroke-linecap="butt"/><path d="M31.44413,65.22436l2.64784,3.53045" fill="none" stroke="none" stroke-width="0" stroke-linecap="round"/><g stroke="#000000" stroke-width="0"><path d="M207.5155,306.78023l21.15655,-131.01162l37.75094,1.57022l7.52292,132.48267z" fill="url(#color-1)" stroke-linecap="butt"/><g stroke-linecap="round"><path d="M268.28612,198.0462l5.26364,28.16215l-29.50562,3.49267l-27.6415,-6.10892l5.83558,-21.6709z" fill="url(#color-2)"/><path d="M272.80019,186.57154l0.92491,17.13694l-29.27337,4.64295l-25.63828,-6.30212l-1.58465,-15.17278z" fill="url(#color-3)"/></g></g><g><path d="M335.03662,77.64755l10.11253,9.06064l3.18928,3.83459l0.36328,13.26573l-4.33789,11.19833l-10.94834,6.63388l-11.46443,-7.12623l-4.62759,-12.86838l2.22193,-11.73585l4.73884,-7.09764z" fill="url(#color-4)" stroke="#000000" stroke-width="0" stroke-linecap="round"/><path d="M294.424,51.7621c0,0 7.37895,8.70011 9.11124,5.64004c4.70671,-8.31444 3.51054,-23.27128 3.51054,-23.27128l6.01761,-0.68633c0,0 -2.05665,26.66376 -5.16949,30.1928c-3.11284,3.52905 -16.13396,-2.38425 -16.13396,-2.38425z" fill="#101b1b" stroke="#000000" stroke-width="0" stroke-linecap="round"/><path d="M303.5277,86.67541c0,0 13.06471,48.09919 18.17089,44.16041c5.25005,-4.04976 12.90977,-68.13526 12.90977,-68.13526l7.01218,-1.99011c0,0 -9.66228,79.51448 -19.77927,80.01418c-8.91908,0.44053 -25.3493,-50.98758 -25.3493,-50.98758z" fill="url(#color-5)" stroke="#000000" stroke-width="0" stroke-linecap="round"/><path d="M300.33669,156.0931l9.46115,18.5347l-25.09399,0.01266l15.44118,15.84655l-59.55918,-9.76693l-65.54837,6.17274l13.86765,-15.20269l-21.706,-0.19488l12.57621,-20.58815z" fill="url(#color-6)" stroke="#000000" stroke-width="0" stroke-linecap="round"/><path d="M177.23688,135.25591c0.73139,-33.29382 30.07726,-59.65215 65.54583,-58.87299c35.46857,0.77917 63.6286,28.40079 62.89721,61.6946c-0.73139,33.29382 -30.07725,59.65215 -65.54582,58.87299c-35.46857,-0.77917 -63.6286,-28.40079 -62.89721,-61.69459z" fill="url(#color-7)" stroke="#000000" stroke-width="0" stroke-linecap="butt"/><path d="M190.77989,135.73293c0.28482,-12.96488 11.02581,-23.24412 23.99068,-22.9593c12.96488,0.28482 23.24412,11.02581 22.9593,23.99068c-0.28482,12.96488 -11.02581,23.24412 -23.99068,22.9593c-12.96488,-0.28482 -23.24412,-11.02581 -22.9593,-23.99068z" fill="url(#color-8)" stroke="#000000" stroke-width="0" stroke-linecap="butt"/><path d="M198.17371,120.85924c0.07703,-3.50665 2.52767,-3.88319 4.49735,-5.15164c3.15629,-2.03264 7.03407,-3.62398 12.65328,-3.50053c5.42839,0.11925 8.34281,1.86237 11.19063,3.81753c1.93975,1.33173 4.78766,1.86317 4.70644,5.56063c-0.20046,9.12589 -7.76097,16.36133 -16.88683,16.16086c-9.12588,-0.20046 -16.36132,-7.76096 -16.16084,-16.88684z" fill="#000000" stroke="none" stroke-width="0" stroke-linecap="butt"/><path d="M267.98447,160.91525c-12.96488,-0.28482 -23.24412,-11.02581 -22.95928,-23.99067c0.28482,-12.96488 11.02581,-23.24412 23.99067,-22.95928c12.96488,0.28482 23.24411,11.0258 22.9593,23.99068c-0.28482,12.96488 -11.02581,23.24412 -23.99068,22.9593z" data-paper-data="{&quot;index&quot;:null}" fill="url(#color-9)" stroke="#000000" stroke-width="0" stroke-linecap="butt"/><path d="M251.29501,83.95414l-11.52742,30.16789l-3.5632,-21.49722l-12.18232,3.45742l6.8292,-14.12927" fill="url(#color-10)" stroke="#000000" stroke-width="0" stroke-linecap="round"/><path d="M280.30341,66.97465l-1.28341,-11.32878l9.25457,5.94937l-0.42696,10.71663z" fill="url(#color-11)" stroke="#000000" stroke-width="0" stroke-linecap="round"/><path d="M327.42841,31.76857l5.74951,-8.87588l9.4354,-2.28268l-5.79578,10.98173z" fill="url(#color-12)" stroke="#000000" stroke-width="0" stroke-linecap="round"/><path d="M288.1663,71.42521l-8.63023,4.32343l-8.88426,-5.36662l9.65626,-3.6186z" fill="url(#color-13)" stroke="#000000" stroke-width="0" stroke-linecap="round"/><path d="M347.06882,79.35887l6.54912,7.03915l-9.61,1.5127l-7.84716,-8.98302z" fill="url(#color-14)" stroke="#000000" stroke-width="0" stroke-linecap="round"/><path d="M303.347,81.59699l-13.67907,-9.55987l4.08482,-22.0299l4.71805,19.39402l18.89409,6.33077l12.5432,-8.98383l-1.70085,-16.24129l-12.2807,-14.67325l-9.31137,2.3675l4.55109,-8.13057l15.90513,1.89263l15.55162,17.98515l-0.38967,17.73858l-6.40714,10.66186l-50.26043,28.21724l-10.39349,-6.91564l-4.36202,-12.18447z" fill="url(#color-15)" stroke="#000000" stroke-width="0" stroke-linecap="round"/><g stroke="#000000" stroke-width="0" stroke-linecap="round"><path d="M220.55806,186.14157c0,0 2.8979,-13.01272 19.89972,-12.07244c19.353,1.07032 18.92748,16.05834 18.92748,16.05834c0,0 -4.80043,4.28436 -19.70528,3.97007c-20.8265,-0.43917 -19.12193,-7.95598 -19.12193,-7.95598z" fill="#000000"/><path d="M223.48849,187.85488c0,0 2.35148,1.71253 4.15521,2.22454c4.69163,1.33179 8.71081,1.6617 12.57907,1.78822c3.6417,0.11911 7.12966,0.11376 11.54352,-1.15047c1.71945,-0.4925 5.67016,-1.95162 5.67016,-1.95162l0.11412,2.31101c0,0 -3.89722,1.35903 -5.77724,1.81446c-4.95618,1.20061 -9.01723,0.95257 -13.07269,0.78963c-3.92241,-0.15761 -7.84082,-0.18244 -12.49104,-1.82616c-1.69188,-0.59803 -3.07609,-2.85314 -3.07609,-2.85314l0.35496,-1.14645z" fill="#9d9d9d"/></g><path d="M227.71647,192.48026c1.23337,-0.33024 2.63832,2.40099 2.18375,3.2793c-0.48761,0.94214 -2.35636,0.55965 -2.97816,-0.03648c-0.79998,-0.76692 -0.22285,-2.32507 -0.20533,-3.25807c0,0 0.01098,-0.49989 0.51087,-0.48889c0.46564,0.01022 0.48799,0.44469 0.48888,0.50416z" fill="url(#color-16)" stroke="none" stroke-width="0.5" stroke-linecap="butt"/><path d="M247.54823,194.47245l0.75752,-0.05729c1.18123,2.50338 2.46958,0.65235 3.22886,-0.96191l0.01042,-0.4746c0.00606,-0.27607 0.23478,-0.49496 0.51086,-0.48888c0.19956,0.00437 0.36923,0.12509 0.44568,0.29593l0.21596,0.45675l-0.02536,0.01199l0.04975,0.04989c0.27219,1.47746 1.8252,2.13175 0.5748,3.28942c-2.03133,0.29286 -3.68594,1.22898 -5.87833,1.18082c-0.66179,-0.01454 -1.9533,0.20136 -2.09593,-0.85697c-0.07047,-0.52278 1.19464,-1.72453 1.20893,-2.54817c0,0 0.01097,-0.49988 0.51086,-0.48888c0.49989,0.01098 0.48889,0.51086 0.48889,0.51086c-0.00068,0.02599 -0.00163,0.05304 -0.0029,0.08106z" fill="url(#color-17)" stroke="none" stroke-width="0.5" stroke-linecap="butt"/><path d="M213.08502,156.44113c1.6986,0.3529 2.65445,3.6068 1.43093,4.87436c-0.60252,0.62422 -1.70263,0.83293 -2.46723,1.18017c-0.62864,-0.00117 -1.25274,-0.01488 -1.88083,-0.04131l-0.48974,-0.24711c-0.50764,0.12284 -1.11011,0.11721 -1.78976,-0.06866c-2.47908,-0.07689 -3.876,-3.85242 -2.10897,-5.69945c1.24887,-1.30541 3.31047,-0.21995 4.17628,1.07347c0.80538,-0.77147 1.98938,-1.30832 3.1293,-1.07148z" fill="#350604" stroke="none" stroke-width="0.5" stroke-linecap="butt"/><path d="M212.0002,188.50192c-0.12219,-0.32955 -0.3831,-0.71057 -0.37623,-1.03513c0.04068,-1.92635 0.08464,-3.85264 0.12693,-5.77895c0.1497,-6.81487 0.71164,-13.59543 0.86013,-20.35486c0,0 0.02195,-0.99976 1.0217,-0.97779c0.99975,0.02197 0.97779,1.0217 0.97779,1.0217c-0.14848,6.75955 -0.71039,13.53874 -0.86012,20.35486c-0.04988,2.27 -0.043,4.54957 -0.15171,6.81755c-0.00413,0.08597 0.01807,0.29418 0.03313,0.54414c1.53612,0.66424 2.71965,1.64433 1.13985,3.2332c-1.03163,1.03755 -2.95266,-0.55371 -3.73989,-1.85918c-0.15279,-0.07515 -0.30183,-0.15201 -0.44478,-0.22652c-1.01152,0.26846 -2.73826,-0.38345 -3.93006,-1.37624c-0.74458,-0.62026 -0.62297,-3.90077 -0.9062,-5.12245c-0.97826,-4.31354 -1.22535,-8.12491 -1.11266,-12.58446c0.65119,-2.92081 1.15171,-6.21207 1.29045,-9.22013c-0.26651,-0.27697 -0.02919,-0.61655 -0.02919,-0.61655l0.05481,-0.07696c0.00179,-0.06515 0.0034,-0.13014 0.00482,-0.19494c0,0 0.00975,-0.44423 0.42964,-0.48595c1.83309,-2.80941 4.05317,0.67683 3.38758,3.169c-0.85479,3.03717 -1.08276,8.55965 -0.38237,11.64801c-0.04023,2.54029 0.15371,5.34447 0.64873,7.82742c0.27956,1.40228 0.9446,2.68652 0.86857,4.12856c0.16275,0.34422 0.28246,0.65401 0.3639,0.93163c0.21809,0.07252 0.4641,0.15001 0.72505,0.23406z" fill="url(#color-18)" stroke="none" stroke-width="0.5" stroke-linecap="butt"/><g stroke="#000000" stroke-width="0" stroke-linecap="round"><path d="M255.98125,131.18946l-6.81495,8.69324l-13.15186,-2.2735l10.11282,-8.16182z" fill="url(#color-19)"/><path d="M267.84565,158.93297l-9.22099,-11.78901l-3.39171,-16.9963l11.84196,-20.68504l14.88393,-4.4993l8.08577,7.37545l-0.26373,1.17139l-10.02895,-0.96063l-8.66359,16.91l2.26475,15.94425l15.36452,5.81236c0,0 -3.52645,3.10238 -7.60008,6.55739c-2.40617,2.04075 -8.87228,3.77985 -8.87228,3.77985z" fill="url(#color-20)"/><path d="M283.12306,139.40306l7.94751,-9.79006l1.88045,12.97803l-9.0216,7.6117z" fill="url(#color-21)"/><path d="M284.17992,149.84076l-8.45483,-4.46409l-2.07459,-12.19656l9.64091,6.06649z" fill="url(#color-22)"/></g><path d="M195.86567,48.57585l8.54484,-10.65203l10.91216,0.19983l-5.76216,9.45116z" fill="url(#color-23)" stroke="#000000" stroke-width="0" stroke-linecap="round"/><path d="M309.96011,37.83292c0,0 -22.25497,16.79672 -46.28255,27.29822c-10.40479,4.54753 -21.58637,-0.88436 -30.24349,1.9062c-5.39894,1.74031 -10.58031,8.61343 -13.86466,9.74108c-10.35879,3.5566 -26.10859,1.0535 -26.10859,1.0535" fill="none" stroke="url(#color-24)" stroke-width="2.5" stroke-linecap="round"/><path d="M296.15031,50.56761c0,0 -5.97477,1.43427 -18.40943,7.63659c-2.61603,1.30486 -10.02656,8.88906 -13.61135,10.24538c-8.63799,3.26827 -19.66687,1.63474 -26.6693,4.83575c-4.12703,1.88657 -3.45813,4.07925 -9.59926,7.8647c-5.56569,3.43074 -11.42762,3.58257 -11.42762,3.58257" fill="none" stroke="url(#color-25)" stroke-width="2.5" stroke-linecap="round"/><path d="M164.07831,81.92294c0,0 -0.67848,-0.36197 -0.37321,-2.01317c0.57922,-3.13295 1.0979,-2.90427 1.0979,-2.90427l3.27378,0.68858l-0.76766,-2.48355l3.26927,0.89405l-0.57125,-2.06813l5.98536,-1.10185l-3.01418,-3.14958l18.40763,-5.14568l5.52461,-17.55654l3.83167,22.07879l-1.10402,3.47023l-11.41304,4.88821l29.85245,7.23362c0,0 1.19251,4.13308 -4.02994,13.49657c-1.89785,3.40273 -12.02267,6.08984 -12.02267,6.08984l-37.94674,-22.4171z" fill="url(#color-26)" stroke="#000000" stroke-width="0" stroke-linecap="round"/></g></g></g></svg>