<svg version="1.1" xmlns="http://www.w3.org/2000/svg" xmlns:xlink="http://www.w3.org/1999/xlink" width="139.67778" height="267.22501" viewBox="0,0,139.67778,267.22501"><defs><linearGradient x1="240.00003" y1="175.50001" x2="240.00003" y2="307.50001" gradientUnits="userSpaceOnUse" id="color-1"><stop offset="0" stop-color="#1a110e"/><stop offset="1" stop-color="#5d3d27"/></linearGradient><linearGradient x1="239.26126" y1="73.07257" x2="239.26126" y2="199.26436" gradientUnits="userSpaceOnUse" id="color-2"><stop offset="0" stop-color="#19110c"/><stop offset="1" stop-color="#714a2f"/></linearGradient><radialGradient cx="299.84654" cy="145.37704" r="10.91027" gradientUnits="userSpaceOnUse" id="color-3"><stop offset="0" stop-color="#ffe902"/><stop offset="1" stop-color="#6a6101"/></radialGradient></defs><g transform="translate(-171.05333,-46.38751)"><g data-paper-data="{&quot;isPaintingLayer&quot;:true}" fill-rule="nonzero" stroke-linejoin="miter" stroke-miterlimit="10" stroke-dasharray="" stroke-dashoffset="0" style="mix-blend-mode: normal"><path d="M179.28373,313.61252v-267.22501h123.18203v267.22501z" fill-opacity="0.01" fill="#000000" stroke="none" stroke-width="0" stroke-linecap="butt"/><path d="M206.75004,307.5l15.14285,-131.8421l37.78325,-0.15789l13.57389,132z" fill="url(#color-1)" stroke="#000000" stroke-width="0" stroke-linecap="butt"/><g><g><g><path d="M172.04394,136.16845c0,-34.8469 30.09423,-63.0959 67.21732,-63.0959c37.12309,0 67.21732,28.249 67.21732,63.0959c0,34.8469 -30.09423,63.0959 -67.21732,63.0959c-37.12309,0 -67.21732,-28.24901 -67.21732,-63.0959z" fill="url(#color-2)" stroke="#000000" stroke-width="0" stroke-linecap="butt"/><path d="M200.61414,109.1028c0,0 5.04121,-1.25679 10.43627,-2.20971c7.33883,-1.29625 11.26971,-0.12206 11.26971,-0.12206l3.03884,59.84853c0,0 -5.3127,1.55452 -8.24828,1.55452c-3.78979,0 -13.02359,-1.55452 -13.02359,-1.55452z" fill="none" stroke="#36251c" stroke-width="2.5" stroke-linecap="round"/><path d="M269.19333,105.66821c5.80442,0.48995 7.39178,1.49148 7.39178,1.49148l-0.86825,57.90537c0,0 -6.8602,0.77726 -9.98474,0.77726c-2.76414,0 -7.81415,-0.77726 -7.81415,-0.77726l3.03883,-59.84851c0,0 4.34721,0.12335 8.23655,0.45164z" fill="none" stroke="#36251c" stroke-width="2.5" stroke-linecap="round"/><path d="M180.07707,114.60945l-0.55953,2.61115" fill="none" stroke="#000000" stroke-width="1.5" stroke-linecap="round"/><path d="M180.07707,116.10153l2.98419,2.98418" fill="none" stroke="#000000" stroke-width="1.5" stroke-linecap="round"/><path d="M177.09293,122.81591l2.42464,-0.18652l1.49209,1.11906" fill="none" stroke="#000000" stroke-width="1.5" stroke-linecap="round"/><path d="M173.54922,131.7684l2.61114,-2.0516l-0.55953,2.79765l1.11906,0.18651v2.61115l2.05161,0.37301" fill="none" stroke="#000000" stroke-width="1.5" stroke-linecap="round"/><path d="M173.54922,138.48278l1.49209,-0.55953l1.67859,2.23813" fill="none" stroke="#000000" stroke-width="1.5" stroke-linecap="round"/><path d="M174.66829,147.80831l-0.37302,2.42463l-1.30557,0.37302" fill="none" stroke="#000000" stroke-width="1.5" stroke-linecap="round"/><path d="M174.66829,154.89572l1.67858,-0.55955l1.11906,1.49209" fill="none" stroke="#000000" stroke-width="1.5" stroke-linecap="round"/><path d="M183.43428,165.71333l-1.30558,-1.11906l-3.91673,-0.55955l1.86511,-1.67858l0.74604,-1.86511l0.18651,-2.61115v-2.0516l2.79765,-2.79766" fill="none" stroke="#000000" stroke-width="1.5" stroke-linecap="round"/><path d="M180.82313,165.15378l-0.93255,1.86511" fill="none" stroke="#000000" stroke-width="1.5" stroke-linecap="round"/><path d="M288.91057,148.13815c0,-6.02556 4.88468,-10.91027 10.91027,-10.91027c6.02557,0 10.91027,4.88468 10.91027,10.91027c0,6.02556 -4.88468,10.91027 -10.91027,10.91027c-6.02557,0 -10.91027,-4.88468 -10.91027,-10.91027z" fill="url(#color-3)" stroke="#f6c002" stroke-width="0" stroke-linecap="butt"/><path d="M178.50757,158.56719c0,0 1.33385,3.21818 2.15814,4.60449c0.67883,1.14166 2.43646,3.12279 2.43646,3.12279l-3.34152,1.87961c0,0 -1.70895,-2.6577 -2.31418,-3.93933c-0.57689,-1.22162 -1.2362,-3.5791 -1.2362,-3.5791z" fill="#b4b3b4" stroke="#b6b4b2" stroke-width="0.5" stroke-linecap="round"/><path d="M173.70414,154.59912c0,0 -1.10583,-2.82484 -1.42397,-4.20346c-0.30807,-1.33497 -0.45564,-3.94151 -0.45564,-3.94151l3.63972,-0.56736c0,0 -0.10593,2.79077 0.12596,4.15686c0.22544,1.3281 1.2466,3.92892 1.2466,3.92892l-3.13267,0.62653z" fill="#b4b3b4" stroke="#b6b4b2" stroke-width="0.5" stroke-linecap="round"/><path d="M174.76126,128.70229c0,0 -0.45409,3.13705 -0.49084,4.64345c-0.0323,1.3243 0.28198,3.91922 0.28198,3.91922h-3.34153c0,0 -0.20759,-0.16847 -0.1916,-4.60947c0.01076,-2.99187 0.40044,-3.74435 0.40044,-3.74435z" fill="#b4b3b4" stroke="#b6b4b2" stroke-width="0.5" stroke-linecap="round"/><path d="M233.76116,79.94458c1.16534,-0.50397 3.31874,-2.62867 4.61177,-2.67922c1.67157,-0.76316 3.60435,-2.15917 4.98792,-3.0044c0.10655,-0.10655 0.20096,-0.22544 0.28658,-0.35017c0.01822,-0.19983 0.22717,-0.19983 0.22717,-0.19983c1.09405,0 3.57393,-0.11139 4.23132,0.96441c0.01706,0.01797 0.02916,0.03707 0.03751,0.0564l0.07462,0.05987c0,0 0.16154,0.16153 0,0.32305c-0.07814,0.07813 -0.15628,0.08068 -0.21613,0.06246c-0.94005,1.66215 -2.35649,2.06066 -4.02516,2.89499c-1.22865,0.58664 -5.13384,1.26601 -5.78184,2.50276c-1.86851,0.69768 -3.64805,2.56207 -5.34539,2.71708c-0.35395,-0.01075 -0.61051,0.19396 -0.851,0.43869c0.636,0.76698 3.62843,1.13204 4.52601,1.13204c1.90793,0.03811 4.9622,0.33726 6.67711,1.15792c2.24507,0.74566 5.08096,0.19849 7.18838,1.25596c1.42254,-0.0176 6.23348,0.46114 6.25876,2.24992c-0.03366,1.68471 -4.50947,2.26388 -5.76775,2.25307c-0.66165,0.22055 -1.6248,0.2396 -2.35915,0.25254c-0.04252,0.08647 -0.13968,0.11886 -0.13968,0.11886c-1.73114,0.57417 -3.59964,1.36909 -5.21549,2.15994c-1.50008,0 -3.08212,1.52184 -4.40043,2.14303c-0.3759,0.17713 -0.43537,0.72218 -0.96765,0.6079c-0.10535,0.31606 -1.94766,1.81588 -0.98585,2.18766l0.104,0.19193c1.57819,0.09028 3.26017,1.15998 4.74898,1.65376c2.32999,0.78023 4.20457,1.4799 6.69665,1.51509c0.44154,0.22077 1.04799,0.05145 1.29909,0.6418c0.49193,1.15657 -0.81863,1.13304 -0.86968,1.86157c-0.07369,1.05158 0.75849,2.01023 -0.82726,2.69601c-0.82112,1.64222 -2.24067,2.98689 -3.12533,4.75619c-0.95282,1.90566 -1.40779,3.87365 -2.28105,5.70263c-0.24475,0.45873 -0.38447,1.46688 -0.12673,1.95002l0.0147,0.13955c0.60378,1.22885 1.01774,4.25693 1.02321,5.03161c0,1.16692 0.93014,3.78592 -0.06691,4.72361c-0.57128,0.53727 -1.10208,0.30331 -1.52071,1.14053c-2.02866,1.04944 -3.53651,-0.82016 -5.6107,-0.82016c-0.17172,0 -0.34341,0 -0.51512,0c0.40012,0.29374 0.92215,0.96579 1.32552,1.33001c0.18734,-0.07379 0.281,0.11354 0.281,0.11354c0.00972,0.0369 0.02173,0.07344 0.0359,0.10966c0.05228,0.02101 0.0993,0.02792 0.13996,0.01751l0.28825,0.19363c0,0 0.16154,0.16153 0,0.32305c-0.01022,0.01022 -0.02046,0.01917 -0.03065,0.02692c0.93847,0.92787 3.02207,1.70438 3.57894,2.81814c1.61401,0.69801 3.48237,2.74067 3.48237,4.64938c-1.2812,2.47666 -4.73101,0.13072 -5.45284,-1.53837c-0.11702,-0.05852 -0.19878,-0.11888 -0.26246,-0.18805c0.386,1.21859 1.66622,2.24332 1.66622,3.95499c0,0.75691 0.78791,2.06436 0.47278,2.65459c-1.04693,1.96087 -2.57004,-1.20628 -2.82441,-1.71503c-0.02358,-2.00924 -2.20152,-3.31765 -2.15432,-5.68087c0.33486,-0.70132 1.05229,-1.06692 0.88708,-1.92263c-0.22251,-1.15247 -2.04718,-1.52311 -2.43228,-2.51938c-1.39046,0 -3.88645,-3.83728 -3.16813,-5.07746c2.27695,-0.20795 4.54838,-0.28755 6.83653,-0.28755c0.55617,0 1.11235,0 1.66851,0c-0.01063,-0.10508 0.07083,-0.18655 0.07083,-0.18655l0.05981,0.03481c0,-1.30949 0,-2.61899 0,-3.92847c0,-2.22537 0.66509,-4.60967 0.63657,-6.75302c0.74149,-2.25654 0.46484,-4.62794 1.54186,-6.78199c0.30608,-0.57369 2.351,-4.02297 1.22951,-3.97863c-0.00723,0.00056 -0.01141,0.00057 -0.01141,0.00057c-1.25353,0 -1.67729,-0.67809 -2.7137,-0.8932c-0.79304,-0.1646 -1.29191,0.5069 -2.04935,0.5069c-0.19366,0.0425 0.39597,2.08997 0.29656,2.49139c-0.26472,1.06887 -1.06687,2.52001 -1.01379,3.54829c-0.57284,1.19975 0.01765,3.0698 -0.79735,4.13629c-0.74254,0.97165 -1.64763,1.16184 -2.18179,0.04563c-0.03008,-2.13011 0.67013,-4.79846 1.5387,-6.61761c1.11616,-2.23233 -0.58365,-3.86414 1.41298,-5.86077c0.06209,-0.12799 -4.19715,-1.75558 -5.1305,-2.07989c-0.77019,-0.7573 -2.3005,-2.161 -1.59493,-3.48253c0.28869,-0.54073 1.75605,-0.70965 2.24648,-0.97129c1.91905,-0.95952 2.88399,-2.10054 4.78415,-3.0224c0.60636,-0.60636 2.03627,-1.32786 2.87766,-1.42589c1.35261,-0.60324 2.83625,-1.05038 4.25034,-1.76123c0.42554,-0.21191 0.72531,-0.5502 1.14053,-0.76035c0.00897,-0.00454 0.01879,-0.00954 0.02934,-0.01493c-0.48596,0.04036 -1.15505,-0.03105 -1.34645,-0.06446c-0.89049,-0.15538 -1.78209,-0.88793 -2.68841,-0.88793c-2.14388,-1.03134 -4.67021,-0.5557 -6.71642,-1.64742c-2.04293,0.01772 -3.94925,-1.62387 -5.95607,-1.64742c-3.11168,-1.48572 -0.57746,-3.3974 1.21758,-4.35512c0.80447,-0.40225 1.62523,-0.71475 2.42956,-1.09317c-0.0956,-0.20053 0.10494,-0.3008 0.10494,-0.3008z" fill="#000000" stroke="none" stroke-width="0.5" stroke-linecap="butt"/><path d="M172.68568,121.39271c0,0 0.86442,-5.13722 2.92384,-7.51843c2.05943,-2.38121 2.08728,-0.60692 3.75921,-0.20884c1.67193,0.39808 0.87754,0.54432 0.62654,1.25307c-0.25102,0.70876 -4.17691,8.77151 -4.17691,8.77151z" fill="#b4b3b4" stroke="#b6b4b2" stroke-width="0.5" stroke-linecap="round"/><path d="M252.26402,73.3448c0.0188,-0.03096 0.03638,-0.06152 0.05252,-0.0916c-0.00043,0.02802 -0.01917,0.05877 -0.05252,0.0916z" fill-opacity="0.43044" fill="#9966ff" stroke="none" stroke-width="0.5" stroke-linecap="butt"/></g><path d="M239.49316,192.93228c9.34613,-0.19341 8.62094,3.9789 8.62094,3.9789h-17.90502c0,0 -0.38741,-3.77876 9.28408,-3.9789z" fill="#000000" stroke="#000000" stroke-width="1.5" stroke-linecap="round"/></g><path d="M197.63455,127.54783l33.50986,14.14861l-34.25451,9.68062" fill="none" stroke="#000000" stroke-width="2" stroke-linecap="round"/><path d="M284.01551,151.37707l-34.25451,-9.68063l33.50985,-14.14861" data-paper-data="{&quot;index&quot;:null}" fill="none" stroke="#000000" stroke-width="2" stroke-linecap="round"/></g></g></g></svg>