<svg version="1.1" xmlns="http://www.w3.org/2000/svg" xmlns:xlink="http://www.w3.org/1999/xlink" width="219.7772" height="247.19544" viewBox="0,0,219.7772,247.19544"><g transform="translate(-104.69656,-60.88489)"><g data-paper-data="{&quot;isPaintingLayer&quot;:true}" fill-rule="nonzero" stroke-linejoin="miter" stroke-miterlimit="10" stroke-dasharray="" stroke-dashoffset="0" style="mix-blend-mode: normal"><path d="M137.64964,244.51129c0,0 -6.60687,-55.56738 4.4376,-86.40794c5.14784,-14.37483 87.87963,-71.96109 87.87963,-71.96109l-6.01482,114.39425c0,0 -22.61992,-10.3225 -41.55089,7.42828c-13.27005,12.44278 -44.75153,36.5465 -44.75153,36.5465z" data-paper-data="{&quot;index&quot;:null}" fill="#1700ff" stroke="#000000" stroke-width="2" stroke-linecap="butt"/><path d="M105.69656,189.65663c0,0 18.28863,-52.88582 41.67763,-75.82217c10.90165,-10.69066 110.46556,-26.43081 110.46556,-26.43081l-55.30236,100.31885c0,0 -15.85355,-19.15412 -40.63078,-11.43658c-17.3681,5.40977 -56.21005,13.3707 -56.21005,13.3707z" data-paper-data="{&quot;index&quot;:null}" fill="#1700ff" stroke="#000000" stroke-width="2" stroke-linecap="butt"/><path d="M113.10028,103.05087c0,0 44.09087,-34.45838 76.1889,-41.00339c14.96095,-3.05064 107.0956,37.83861 107.0956,37.83861l-100.93794,54.16414c0,0 -2.90038,-24.69419 -27.89397,-31.67937c-17.51976,-4.89641 -54.45259,-19.31998 -54.45259,-19.31998z" data-paper-data="{&quot;index&quot;:null}" fill="#1700ff" stroke="#000000" stroke-width="2" stroke-linecap="butt"/><g stroke="#000000" stroke-width="2" stroke-linecap="round"><path d="M187.6917,128.00316l-29.84196,-39.21274l50.38801,5.78161z" fill="#1700ff"/><path d="M190.21928,123.13256l-20.72359,-27.23107l34.9917,4.01501z" fill="#ffebb5"/></g><g data-paper-data="{&quot;index&quot;:null}" stroke="#000000" stroke-width="2" stroke-linecap="round"><path d="M272.09257,99.63044l50.20198,-7.22082l-28.70789,40.05044z" fill="#1700ff"/><path d="M275.99427,104.86548l34.86248,-5.01446l-19.93603,27.81281z" fill="#ffebb5"/></g><g stroke-width="2"><path d="M218.89412,187.72072l41.41765,0.2301l11.35535,119.12951h-66.95856z" fill="#1700ff" stroke="#000000" stroke-linecap="round"/><path d="M224.98107,208.01619c0,0 8.59931,-2.75209 13.15649,-2.72677c4.92858,0.02738 15.38818,2.88535 15.38818,2.88535c0,0 5.58598,21.88621 6.76513,34.2567c1.39353,14.61968 1.06086,47.84628 1.06086,47.84628c0,0 -15.49885,2.79985 -23.21318,2.79985c-7.66781,0 -22.93404,-2.79985 -22.93404,-2.79985c0,0 0.14928,-30.704 1.84788,-44.99643c1.54583,-13.00673 7.92867,-37.26512 7.92867,-37.26512z" fill="#fddfbd" stroke="#000000" stroke-linecap="round"/><g data-paper-data="{&quot;index&quot;:null}"><path d="M272.4027,306.75354l-14.08066,0.16331l-13.87186,-116.74087l14.04726,-0.84509l1.68723,8.3627l11.21659,90.17129z" data-paper-data="{&quot;index&quot;:null}" fill="#ef2a2e" stroke="#000000" stroke-linecap="round"/><path d="M253.39258,253.46184l-1.23923,-11.83468l13.92315,-1.45792l1.23923,11.83468z" fill="#ffffff" stroke="none" stroke-linecap="butt"/><path d="M259.38973,306.90173l-14.34371,-111.07183l3.47099,-0.44824l14.34371,111.07183z" fill="#ffffff" stroke="none" stroke-linecap="butt"/></g><path d="M207.65709,287.61555l11.21659,-90.17129l1.07154,-8.36271l14.66295,0.8451l-13.87187,116.74088l-14.08066,-0.16331z" data-paper-data="{&quot;index&quot;:null}" fill="#ef2a2e" stroke="#000000" stroke-linecap="round"/><path d="M212.35831,249.90754l1.23922,-11.83468l13.92316,1.45792l-1.23923,11.83468z" fill="#ffffff" stroke="none" stroke-linecap="butt"/><path d="M215.58192,305.28067l14.34371,-111.07182l3.47099,0.44824l-14.34372,111.07182z" fill="#ffffff" stroke="none" stroke-linecap="butt"/><path d="M230.00205,210.50741c-0.43413,3.26352 -3.06035,5.60658 -5.86584,5.23338c-2.80548,-0.3732 -4.72786,-3.32133 -4.29372,-6.58485c0.43413,-3.26352 3.06034,-5.60659 5.86585,-5.2334c2.80548,0.3732 4.72783,3.32134 4.29371,6.58486z" fill="none" stroke="#ffea00" stroke-linecap="butt"/></g><path d="M175.76299,143.54541c0,-33.30185 28.7599,-60.29833 64.23702,-60.29833c35.47712,0 64.23702,26.99649 64.23702,60.29833c0,33.30185 -28.7599,60.29833 -64.23702,60.29833c-35.47712,0 -64.23702,-26.99649 -64.23702,-60.29833z" fill="#1700ff" stroke="#000000" stroke-width="2" stroke-linecap="butt"/><path d="M176.48606,143.12071c0,-0.72799 5.20666,55.91939 63.36046,56.93429c55.56352,0.9697 63.51358,-57.95314 63.51358,-56.93429c0,32.80479 -28.40173,59.39833 -63.43702,59.39833c-35.03529,0 -63.43702,-26.59354 -63.43702,-59.39833z" fill="#0f00b5" stroke="#000000" stroke-width="0" stroke-linecap="butt"/><path d="M189.3132,143.49634c0,-12.968 10.51265,-23.48065 23.48065,-23.48065c12.968,0 23.48065,10.51265 23.48065,23.48065c0,12.968 -10.51265,23.48065 -23.48065,23.48065c-12.968,0 -23.48065,-10.51265 -23.48065,-23.48065z" fill="#ffffff" stroke="#000000" stroke-width="2" stroke-linecap="butt"/><path d="M196.37859,143.22073c0,-9.12808 7.39976,-16.52784 16.52783,-16.52784c9.12808,0 16.52784,7.39977 16.52784,16.52784c0,9.12808 -7.39977,16.52784 -16.52784,16.52784c-9.12808,0 -16.52783,-7.39977 -16.52783,-16.52784z" fill="#000000" stroke="none" stroke-width="0" stroke-linecap="butt"/><path d="M296,172.22073c0,11.59798 -27.76376,30 -56.66667,30c-28.9029,0 -56.66667,-17.73535 -56.66667,-29.33333c0,-8.69465 19.83465,-4.15515 38.60464,-7.34549c6.26771,-1.06532 10.82674,-5.32117 18.06203,-5.32117c10.96773,0 19.14745,4.02052 27.55789,6.33448c13.75333,3.78393 29.10878,-1.53139 29.10878,5.66552z" fill="#fddfbd" stroke="#000000" stroke-width="2" stroke-linecap="butt"/><path d="M267.05231,166.977c-12.968,0 -23.48065,-10.51265 -23.48065,-23.48065c0,-12.968 10.51265,-23.48065 23.48065,-23.48065c12.968,0 23.48065,10.51265 23.48065,23.48065c0,12.968 -10.51265,23.48065 -23.48065,23.48065z" data-paper-data="{&quot;index&quot;:null}" fill="#ffffff" stroke="#000000" stroke-width="2" stroke-linecap="butt"/><path d="M201.95088,114.68789c0,0 6.70895,-5.16922 11.79721,-6.36355c5.08827,-1.19433 12.33413,0.69937 12.33413,0.69937c0,0 -8.03812,-0.06028 -11.96762,0.86207c-4.10648,0.96389 -12.16372,4.80211 -12.16372,4.80211z" fill="#000000" stroke="none" stroke-width="0" stroke-linecap="butt"/><path d="M265.88541,109.88579c-3.9295,-0.92235 -11.96762,-0.86207 -11.96762,-0.86207c0,0 7.24586,-1.8937 12.33413,-0.69937c5.08826,1.19433 11.79721,6.36355 11.79721,6.36355c0,0 -8.05724,-3.83822 -12.16372,-4.80211z" data-paper-data="{&quot;index&quot;:null}" fill="#000000" stroke="none" stroke-width="0" stroke-linecap="butt"/><path d="M244.5,161.88741c0,2.20914 -1.79086,4 -4,4c-2.20914,0 -4,-1.79086 -4,-4c0,-2.20914 1.79086,-4 4,-4c2.20914,0 4,1.79086 4,4z" fill="#000000" stroke="#000000" stroke-width="2" stroke-linecap="butt"/><path d="M189.3132,143.49634c0,-12.968 10.51265,-23.48065 23.48065,-23.48065c12.968,0 23.48065,10.51265 23.48065,23.48065c0,0 -46.96131,1.23155 -46.96131,0z" fill="#1700ff" stroke="#000000" stroke-width="2" stroke-linecap="butt"/><path d="M243.83334,199.83333c0,7.45584 -2.3132,13.5 -5.16667,13.5c-2.85347,0 -5.16667,-6.04416 -5.16667,-13.5c0,-7.45584 2.3132,-13.5 5.16667,-13.5c2.85347,0 5.16667,6.04416 5.16667,13.5z" fill="#000000" stroke="none" stroke-width="NaN" stroke-linecap="butt"/><path d="M266.93973,159.74857c-9.12807,0 -16.52783,-7.39977 -16.52783,-16.52784c0,-9.12808 7.39977,-16.52784 16.52783,-16.52784c9.12807,0 16.52783,7.39977 16.52783,16.52784c0,9.12808 -7.39977,16.52784 -16.52783,16.52784z" data-paper-data="{&quot;index&quot;:null}" fill="#000000" stroke="none" stroke-width="0" stroke-linecap="butt"/><path d="M243.57166,143.49634c0,-12.968 10.51265,-23.48065 23.48065,-23.48065c12.968,0 23.48065,10.51265 23.48065,23.48065c0,1.2138 -46.96131,0 -46.96131,0z" data-paper-data="{&quot;index&quot;:null}" fill="#1700ff" stroke="#000000" stroke-width="2" stroke-linecap="butt"/></g></g></svg>