<svg version="1.1" xmlns="http://www.w3.org/2000/svg" xmlns:xlink="http://www.w3.org/1999/xlink" width="133.7448" height="251.99555" viewBox="0,0,133.7448,251.99555"><defs><linearGradient x1="319.92305" y1="175.45919" x2="319.92305" y2="307.45913" gradientUnits="userSpaceOnUse" id="color-1"><stop offset="0" stop-color="#4c7b64"/><stop offset="1" stop-color="#2b2b2b"/></linearGradient><linearGradient x1="320.08155" y1="221.49564" x2="320.08155" y2="308.14565" gradientUnits="userSpaceOnUse" id="color-2"><stop offset="0" stop-color="#6b6dd3"/><stop offset="1" stop-color="#000000"/></linearGradient><linearGradient x1="355.96016" y1="194.55739" x2="355.96016" y2="302.11987" gradientUnits="userSpaceOnUse" id="color-3"><stop offset="0" stop-color="#4b7b64"/><stop offset="1" stop-color="#000000"/></linearGradient><linearGradient x1="284.13221" y1="194.46851" x2="284.13221" y2="302.02621" gradientUnits="userSpaceOnUse" id="color-4"><stop offset="0" stop-color="#4b7b64"/><stop offset="1" stop-color="#000000"/></linearGradient><linearGradient x1="319.00014" y1="83.15671" x2="319.00014" y2="203.27033" gradientUnits="userSpaceOnUse" id="color-5"><stop offset="0" stop-color="#000000"/><stop offset="1" stop-color="#ffdac9"/></linearGradient><linearGradient x1="318.92305" y1="143.01275" x2="318.92305" y2="202.42421" gradientUnits="userSpaceOnUse" id="color-6"><stop offset="0" stop-color="#000000"/><stop offset="1" stop-color="#7e647b"/></linearGradient><linearGradient x1="301.99388" y1="119.92084" x2="301.99388" y2="166.88211" gradientUnits="userSpaceOnUse" id="color-7"><stop offset="0" stop-color="#1a1a1a"/><stop offset="1" stop-color="#ffbdbd"/></linearGradient><linearGradient x1="335.75251" y1="119.9208" x2="335.75251" y2="166.88202" gradientUnits="userSpaceOnUse" id="color-8"><stop offset="0" stop-color="#1a1a1a"/><stop offset="1" stop-color="#ffbfbf"/></linearGradient><linearGradient x1="318.46461" y1="57.15629" x2="318.46461" y2="116.50581" gradientUnits="userSpaceOnUse" id="color-9"><stop offset="0" stop-color="#4c7b64"/><stop offset="1" stop-color="#000000"/></linearGradient><linearGradient x1="318.45894" y1="61.48296" x2="318.45894" y2="94.58204" gradientUnits="userSpaceOnUse" id="color-10"><stop offset="0" stop-color="#daffed"/><stop offset="1" stop-color="#161a18"/></linearGradient><linearGradient x1="319.08101" y1="66.49122" x2="319.08101" y2="87.12734" gradientUnits="userSpaceOnUse" id="color-11"><stop offset="0" stop-color="#49705e"/><stop offset="1" stop-color="#13160e"/></linearGradient><linearGradient x1="301.39633" y1="144.50841" x2="301.39633" y2="169.54402" gradientUnits="userSpaceOnUse" id="color-12"><stop offset="0" stop-color="#453a36"/><stop offset="1" stop-color="#edcbbb"/></linearGradient><linearGradient x1="336.35414" y1="145.38342" x2="336.35414" y2="170.41902" gradientUnits="userSpaceOnUse" id="color-13"><stop offset="0" stop-color="#453a36"/><stop offset="1" stop-color="#edcbbb"/></linearGradient><linearGradient x1="318.47362" y1="152.23248" x2="318.47362" y2="187.94162" gradientUnits="userSpaceOnUse" id="color-14"><stop offset="0" stop-color="#000000"/><stop offset="1" stop-color="#ffdac9"/></linearGradient></defs><g transform="translate(-253.76321,-56.65629)"><g data-paper-data="{&quot;isPaintingLayer&quot;:true}" stroke-linecap="butt" stroke-linejoin="miter" stroke-miterlimit="10" stroke-dasharray="" stroke-dashoffset="0" style="mix-blend-mode: normal"><path d="M286.67305,307.45913l15.14285,-131.8421l37.78325,-0.15789l13.57389,132z" fill="url(#color-1)" fill-rule="nonzero" stroke="#000000" stroke-width="2"/><path d="M299.53999,204.07183l3.12142,-26.32765l35.83075,-0.14203l2.76735,26.1059c0,0 -7.51543,4.19603 -21.55904,4.50964c-12.48458,0.27879 -20.16049,-4.14586 -20.16049,-4.14586z" fill="#2f4b3d" fill-rule="nonzero" stroke="#000000" stroke-width="0"/><path d="M286.20349,307.39565l9.625,-85.15c0,0 16.14032,5.36651 24.41538,5.23987c8.05433,-0.12327 24.59071,-5.98987 24.59071,-5.98987l9.125,86.65z" fill="url(#color-2)" fill-rule="nonzero" stroke="#000000" stroke-width="1"/><path d="M330.77702,225.84333l-2.72223,-31.57302l7.33053,-1.11111l3.5,30.46191c0,0 1.97994,9.94622 -2.77415,10.47275c-4.71963,0.52271 -5.33415,-8.25053 -5.33415,-8.25053z" data-paper-data="{&quot;index&quot;:null}" fill="#6b6dd3" fill-rule="nonzero" stroke="#000000" stroke-width="1"/><path d="M301.66589,224.12113l3.5,-30.4619l8.21942,0.55556l-2.61111,32.12857c0,0 -1.38805,9.70344 -6.18894,8.77837c-5.22617,-1.00701 -2.91937,-11.0006 -2.91937,-11.0006z" fill="#6b6dd3" fill-rule="nonzero" stroke="#000000" stroke-width="1"/><path d="M338.78529,228.05327c0,1.99603 -1.54283,3.61412 -3.44602,3.61412c-1.90319,0 -3.44603,-1.6181 -3.44603,-3.61412c0,-1.99603 1.54284,-3.61412 3.44603,-3.61412c1.90319,0 3.44602,1.61809 3.44602,3.61412z" fill="#c6a438" fill-rule="nonzero" stroke="none" stroke-width="0"/><path d="M309.37397,228.76995c0,1.99603 -1.54283,3.61412 -3.44602,3.61412c-1.90319,0 -3.44603,-1.6181 -3.44603,-3.61412c0,-1.99603 1.54284,-3.61412 3.44603,-3.61412c1.90319,0 3.44602,1.61809 3.44602,3.61412z" fill="#c6a438" fill-rule="nonzero" stroke="none" stroke-width="0"/><path d="M308.84905,229.41994c0,1.99602 -1.54284,3.61412 -3.44602,3.61412c-1.90319,0 -3.44602,-1.6181 -3.44602,-3.61412c0,-1.99602 1.54284,-3.61412 3.44602,-3.61412c1.90319,0 3.44602,1.6181 3.44602,3.61412z" fill="#edd459" fill-rule="nonzero" stroke="none" stroke-width="0"/><path d="M338.53671,228.70119c0,1.87521 -1.44945,3.39537 -3.23744,3.39537c-1.78799,0 -3.23745,-1.52016 -3.23745,-3.39537c0,-1.87521 1.44946,-3.39537 3.23745,-3.39537c1.78799,0 3.23744,1.52016 3.23744,3.39537z" fill="#edd459" fill-rule="nonzero" stroke="none" stroke-width="0"/><path d="M341.61106,194.55739c0.90641,1.442 13.27591,-0.94411 14.53458,0.88889c0.31862,-0.594 9.30076,33.378 9.72787,35c-0.5926,-0.963 5.60783,49.33333 5.60783,49.33333c0,0 0.50768,22.79733 0.91556,22.33333c-0.88787,-0.49 -11.18842,-0.32367 -12.13122,-0.16667c0.5308,-15.625 -11.71487,-68.29133 -19.1124,-79.33333c2.25366,-15.345 -5.00951,-26.28055 0.45778,-28.05555z" fill="url(#color-3)" fill-rule="evenodd" stroke="none" stroke-width="1"/><path d="M341.5214,194.59509c0.91572,1.34757 13.41232,-0.88229 14.68393,0.83068c0.10385,-0.17908 1.11865,3.00386 2.46032,7.4491c-6.17155,-0.51975 -13.01437,-2.82677 -18.35267,1.21834c-0.00693,0.00525 -0.01384,0.01053 -0.02073,0.01584c-0.98219,-5.21007 -1.76061,-8.6161 1.22914,-9.51396z" fill="#2f4b3d" fill-rule="nonzero" stroke="none" stroke-width="1"/><path d="M387.45595,301.10947c0.01927,0.00566 0.03664,0.01141 0.05206,0.01725c-0.01724,0.01347 -0.0346,0.00734 -0.05206,-0.01725z" fill="#2f4b3d" fill-rule="nonzero" stroke="none" stroke-width="1"/><path d="M298.93917,222.52407c-7.39753,11.042 -19.6432,63.70833 -19.1124,79.33333c-0.9428,-0.157 -11.24335,-0.32333 -12.13122,0.16667c0.40788,0.464 7.11599,-72.62966 6.52339,-71.66666c0.42711,-1.622 9.40925,-35.594 9.72787,-35c1.25867,-1.833 13.62817,0.55311 14.53458,-0.88889c5.46729,1.775 -1.79588,12.71055 0.45778,28.05555z" data-paper-data="{&quot;index&quot;:null}" fill="url(#color-4)" fill-rule="evenodd" stroke="none" stroke-width="1"/><path d="M298.57106,194.5062c2.98975,0.89786 2.21133,4.30389 1.22914,9.51396c-0.00689,-0.00531 -0.0138,-0.01059 -0.02073,-0.01584c-5.3383,-4.04511 -12.18112,-1.73809 -18.35267,-1.21834c1.34167,-4.44524 2.35647,-7.62818 2.46032,-7.4491c1.27161,-1.71297 13.76821,0.51689 14.68393,-0.83068z" data-paper-data="{&quot;index&quot;:null}" fill="#2f4b3d" fill-rule="nonzero" stroke="none" stroke-width="1"/><g><path d="M260.69795,111.00721c0.37225,-1.95627 0.79829,-15.31507 14.96087,-28.03661c7.64679,-6.86874 16.3225,-16.66898 37.90299,-17.32053c32.05868,-0.51111 43.95019,11.08935 52.16133,19.80672c11.26206,11.95638 11.89977,22.71882 14.37822,27.96833c0.25164,0.53297 -119.41455,-2.35933 -119.40341,-2.4179z" fill="#a8530c" fill-rule="nonzero" stroke="none" stroke-width="1.5"/><path d="M254.76321,142.97192c0,-21.15086 11.60129,-39.75822 29.15655,-50.52104c1.08536,-1.75458 19.78544,-9.18722 33.30904,-9.29157c13.5236,-0.10435 26.06266,2.90177 35.96422,8.75705c18.0508,10.67434 30.04423,29.55022 30.04423,51.05556c0,33.30185 -28.7599,60.29833 -64.23702,60.29833c-35.47712,0 -64.23702,-26.99649 -64.23702,-60.29833z" fill="url(#color-5)" fill-rule="nonzero" stroke="#000000" stroke-width="2"/><path d="M255.486,143.02582c0,-0.72799 5.20666,55.91939 63.36046,56.93429c55.56352,0.9697 63.51358,-57.95314 63.51358,-56.93429c0,32.80479 -28.40173,59.39833 -63.43702,59.39833c-35.03529,0 -63.43702,-26.59354 -63.43702,-59.39833z" fill="url(#color-6)" fill-rule="nonzero" stroke="#000000" stroke-width="0"/><path d="M258.42026,154.68037c0,0 -3.17497,-7.83911 -3.17497,-11.77764c0,-6.02949 9.41909,-42.46903 9.41909,-42.46903h9.52492c0,0 -3.70913,8.16542 -4.33994,12.81431c-0.56023,4.12878 0.74163,13.70427 0.74163,13.70427l-2.07085,2.75646l-3.0049,-1.80454z" fill="#3a2f2b" fill-rule="nonzero" stroke="#000000" stroke-width="0"/><path d="M288.71317,143.40145c0,-12.968 5.94595,-23.48065 13.28065,-23.48065c7.3347,0 13.28065,10.51265 13.28065,23.48065c0,12.968 -5.94595,23.48065 -13.28065,23.48065c-7.3347,0 -13.28065,-10.51265 -13.28065,-23.48065z" fill="url(#color-7)" fill-rule="nonzero" stroke="#000000" stroke-width="2"/><path d="M257.52306,150.16864c0,0 -3,-7.4071 -3,-11.12857c0,-5.6972 8.9,-40.12857 8.9,-40.12857h9c0,0 -3.50472,7.71542 -4.10076,12.10811c-0.52936,3.90124 0.70076,12.94903 0.70076,12.94903l-1.95673,2.60455l-2.8393,-1.70509z" fill="#766058" fill-rule="nonzero" stroke="#000000" stroke-width="1.5"/><path d="M335.75251,166.88202c-7.27947,0 -13.18065,-10.51265 -13.18065,-23.48065c0,-12.968 5.90118,-23.48065 13.18065,-23.48065c7.27947,0 13.18065,10.51265 13.18065,23.48065c0,12.968 -5.90118,23.48065 -13.18065,23.48065z" data-paper-data="{&quot;index&quot;:null}" fill="url(#color-8)" fill-rule="nonzero" stroke="#000000" stroke-width="2"/><path d="M278.70187,113.4801c0,0 11.49953,-4.26418 16.5281,-2.83931c5.02858,1.42488 11.69518,5.97183 11.69518,5.97183c0,0 -8.24902,-3.32832 -12.13243,-4.4287c-4.05831,-1.14994 -16.09085,1.29618 -16.09085,1.29618z" fill="#000000" fill-rule="nonzero" stroke="none" stroke-width="0"/><path d="M342.17764,111.53721c-3.85442,1.19798 -10.7515,5.32659 -10.7515,5.32659c0,0 5.28441,-5.30693 10.27546,-6.85819c4.99104,-1.55125 13.39479,-0.49871 13.39479,-0.49871c0,0 -8.89074,0.77838 -12.91875,2.03032z" data-paper-data="{&quot;index&quot;:null}" fill="#000000" fill-rule="nonzero" stroke="none" stroke-width="0"/><path d="M371.11954,128.90431l-3.0049,1.80454l-2.07085,-2.75646c0,0 1.30186,-9.57549 0.74163,-13.70427c-0.63081,-4.64889 -4.33994,-12.81431 -4.33994,-12.81431h9.52492c0,0 9.41909,36.43954 9.41909,42.46903c0,3.93853 -3.17497,11.77764 -3.17497,11.77764z" data-paper-data="{&quot;index&quot;:null}" fill="#3a2f2b" fill-rule="nonzero" stroke="#000000" stroke-width="0"/><path d="M372.71928,127.20154l-2.8393,1.70509l-1.95673,-2.60455c0,0 1.23012,-9.04779 0.70076,-12.94903c-0.59604,-4.39269 -4.10076,-12.10811 -4.10076,-12.10811h9c0,0 8.9,34.43137 8.9,40.12857c0,3.72147 -3,11.12857 -3,11.12857z" data-paper-data="{&quot;index&quot;:null}" fill="#766058" fill-rule="nonzero" stroke="#000000" stroke-width="1.5"/><path d="M257.29805,98.40629c16.52144,-23.64275 37.27087,-41.25 60.25,-41.25c22.93746,0 43.93743,11.90491 59.75,35.25c2.19899,3.24651 5.88227,22.83784 3.89123,23.94724c-2.97694,1.65874 -55.28548,-10.78057 -63.39123,-10.78057c-8.43856,0 -57.31213,11.19019 -60.9229,10.52524c-2.6,-0.4788 -2.04397,-14.16171 0.42291,-17.69191z" fill="url(#color-9)" fill-rule="nonzero" stroke="#000000" stroke-width="1"/><path d="M336.87568,78.03247c0,9.14006 -8.24543,16.54954 -18.41667,16.54954c-10.17124,0 -18.41667,-7.40948 -18.41667,-16.54954c0,-9.14006 8.24543,-16.54954 18.41667,-16.54954c10.17124,0 18.41667,7.40948 18.41667,16.54954z" fill="url(#color-10)" fill-rule="nonzero" stroke="none" stroke-width="0"/><path d="M269.57187,113.40562l2.83334,-8.78572c0,0 8.38245,-3.22377 9.03638,-3.40847c4.87995,-1.37836 25.70344,-8.21057 37.13028,-8.21057c11.03631,0 32.30917,6.51103 38.01657,8.0849c0.95074,0.26217 7.62628,4.74844 7.62628,4.74844l1.82143,8.83333c0,0 -8.71824,-2.99878 -9.5178,-2.99654c-1.88852,0.0053 -5.82465,-0.9574 -10.94539,-2.09485c-7.41256,-1.64651 -17.47406,3.50751 -27.23352,3.53491c-9.94581,0.02792 -19.58437,-5.30103 -26.47853,-3.80424c-4.75314,1.03195 -8.12256,1.90186 -9.20032,1.90488c-0.72784,0.00204 -13.08872,2.19393 -13.08872,2.19393z" fill="#141d18" fill-rule="nonzero" stroke="#000000" stroke-width="0"/><path d="M328.40612,87.12734l-18.24951,-0.72108l-0.40074,-19.91504l5.4799,0.05106l-0.23111,13.48928l13.12073,0.23107z" data-paper-data="{&quot;index&quot;:null}" fill="url(#color-11)" fill-rule="evenodd" stroke="none" stroke-width="1"/><path d="M320.58808,174.78739c0,0 -25.15395,22.08602 -40.05509,15.24439c-14.90114,-6.84162 -14.22695,-40.16713 -14.22695,-40.16713c0,0 14.33284,15.22937 23.38537,19.38569c9.04147,4.15125 30.89668,5.53705 30.89668,5.53705z" fill="#000000" fill-rule="nonzero" stroke="none" stroke-width="0"/><path d="M349.09965,169.16326c8.93403,-4.10191 23.07925,-19.13193 23.07925,-19.13193c0,0 0.66537,32.88928 -14.04072,39.64135c-14.70608,6.75207 -39.53078,-15.04484 -39.53078,-15.04484c0,0 21.56913,-1.36767 30.49224,-5.46458z" data-paper-data="{&quot;index&quot;:null}" fill="#000000" fill-rule="nonzero" stroke="none" stroke-width="0"/><path d="M326.79616,157.28925c1.52338,-0.83587 3.18137,-1.20669 4.97595,-1.11349c-0.74533,0.78516 -1.7337,1.30778 -2.9651,1.56786c0.03756,0.03471 0.0751,0.0692 0.11263,0.10348c-0.42771,0.09392 -0.84493,0.21511 -1.24981,0.36165c-0.29017,-0.29495 -0.5814,-0.60144 -0.87367,-0.91949z" fill="#2f2d2e" fill-rule="nonzero" stroke="none" stroke-width="1"/><path d="M334.22533,132.11375c-0.66683,0.01517 -0.99216,0.35597 -0.97699,1.02249c-1.35246,-1.4114 -3.03319,-2.04003 -5.0442,-1.88574c-0.35566,-0.99216 -1.03766,-1.64352 -2.04498,-1.95398c0.10231,-0.13988 0.20532,-0.27743 0.30903,-0.41266c0.94609,0.27093 1.94853,0.40567 2.98416,0.3821c0.22853,-0.0052 0.45511,-0.01804 0.67948,-0.03824c1.63049,0.56687 2.99498,1.5289 4.0935,2.88603z" fill="#7c82e2" fill-rule="nonzero" stroke="none" stroke-width="1"/><path d="M328.20421,131.2505c2.01101,-0.15429 3.69174,0.47434 5.0442,1.88574c1.91692,3.05148 2.49262,6.37264 1.7271,9.96329c-1.34428,-4.39275 -4.22962,-6.66101 -8.65704,-6.80482c-0.42991,-2.18878 0.19901,-3.87013 1.88574,-5.0442z" fill="#4c4ebf" fill-rule="evenodd" stroke="none" stroke-width="1"/><path d="M326.15918,129.29652c1.00732,0.31046 1.68932,0.96182 2.04498,1.95398c-1.68673,1.17408 -2.31564,2.85542 -1.88574,5.0442c4.42742,0.14381 7.31276,2.41207 8.65704,6.80482c0.76551,-3.59064 0.18981,-6.91181 -1.7271,-9.96329c-0.01517,-0.66652 0.31017,-1.00732 0.97699,-1.02249c2.9023,4.55165 3.84983,9.53138 2.84059,14.93924c-0.2331,3.99834 -1.99738,7.03926 -5.29384,9.12279c-1.79458,-0.0932 -3.45258,0.27762 -4.97595,1.11349c-5.49643,-9.27536 -5.70876,-18.60665 -0.63698,-27.99276z" fill="#0e0e12" fill-rule="evenodd" stroke="none" stroke-width="1"/><path d="M327.49118,142.34563c1.9916,-0.12704 2.55469,0.67734 1.68928,2.41313c-0.69799,0.28283 -1.4223,0.3903 -2.17185,0.32182c-0.09517,-0.97411 0.06552,-1.88539 0.48257,-2.73495z" fill="#fbf9f9" fill-rule="evenodd" stroke="none" stroke-width="1"/><path d="M309.74816,158.51606c-0.40442,-0.1478 -0.82126,-0.27029 -1.24867,-0.36554c0.03764,-0.03416 0.07527,-0.06853 0.11294,-0.10312c-1.23059,-0.26392 -2.21731,-0.78962 -2.96019,-1.5771c1.79487,-0.0876 3.4517,0.28839 4.97246,1.129c-0.29326,0.31714 -0.58544,0.62272 -0.87653,0.91676z" fill="#2f2d2e" fill-rule="nonzero" stroke="none" stroke-width="1"/><path d="M303.27405,132.40077c1.10275,-1.3537 2.47024,-2.31147 4.10249,-2.87324c0.22431,0.0209 0.45084,0.03444 0.67935,0.04036c1.03555,0.0268 2.33253,-0.22247 3.27946,-0.49045c0.10329,0.13556 0.32352,0.62637 0.42539,0.76657c-1.00829,0.30732 -2.10407,0.72125 -2.46283,1.7123c-2.01052,-0.16056 -3.69321,0.46282 -5.05006,1.86999c0.01725,-0.66648 -0.30703,-1.00827 -0.9738,-1.02553z" fill="#7c82e2" fill-rule="nonzero" stroke="none" stroke-width="1"/><path d="M311.16787,136.60632c-4.42784,0.13001 -7.32025,2.38925 -8.67822,6.77779c-0.75432,-3.59302 -0.16825,-6.91237 1.75817,-9.95785c1.35685,-1.40717 3.03954,-2.03055 5.05006,-1.86999c1.68306,1.17933 2.30672,2.86263 1.86999,5.05006z" fill="#4c4ebf" fill-rule="evenodd" stroke="none" stroke-width="1"/><path d="M310.62469,157.59932c-1.52076,-0.84062 -3.17759,-1.21661 -4.97246,-1.129c-3.28994,-2.0938 -5.04472,-5.14021 -5.26535,-9.13926c-0.99237,-5.41098 -0.02931,-10.38773 2.88717,-14.93031c0.66677,0.01726 0.99105,0.35905 0.9738,1.02553c-1.92642,3.04549 -2.51249,6.36484 -1.75817,9.95785c1.35798,-4.38854 4.25038,-6.64778 8.67822,-6.77779c0.43673,-2.18743 -0.18694,-3.87073 -1.86999,-5.05006c0.35876,-0.99105 1.34278,-1.64028 2.35107,-1.9476c5.04248,9.40188 4.50105,18.73246 -1.02428,27.99063z" fill="#0e0e12" fill-rule="evenodd" stroke="none" stroke-width="1"/><path d="M309.45126,145.2042c-0.69975,0.06172 -1.37543,-0.04068 -2.02602,-0.30668c-0.80262,-1.6225 -0.27474,-2.37157 1.58362,-2.24721c0.38675,0.7941 0.53406,1.64505 0.44241,2.55389z" fill="#fbf9f9" fill-rule="evenodd" stroke="none" stroke-width="1"/><path d="M302.90828,166.99275c-12.67373,-2.74699 -13.49367,-15.32745 -14.34287,-28.26763c0,0 -0.11841,13.98335 13.99913,13.57179c14.73234,-0.42947 12.82099,-13.51232 12.86137,-12.89703c0,0 3.17255,30.99367 -12.51763,27.59288z" data-paper-data="{&quot;index&quot;:null}" fill="url(#color-12)" fill-rule="nonzero" stroke="#000000" stroke-width="1.5"/><path d="M322.32446,140.27488c0.04038,-0.61529 -1.37097,11.63423 13.36137,12.06371c14.11754,0.41155 13.49913,-12.73846 13.49913,-12.73846c-0.8492,12.94018 -1.66915,25.52064 -14.34287,28.26763c-15.69018,3.40079 -12.51763,-27.59288 -12.51763,-27.59288z" data-paper-data="{&quot;index&quot;:null}" fill="url(#color-13)" fill-rule="nonzero" stroke="#000000" stroke-width="1.5"/><path d="M305.08961,178.63252c-3.03893,-9.31228 9.44444,-26.4 9.44444,-26.4c0,0 2.91771,0.38215 4.39081,0.43071c1.55573,0.05129 4.48697,-0.35293 4.48697,-0.35293c0,0 10.6936,19.54451 8.66667,26.1c-4.78824,15.48611 -23.94996,9.5345 -26.98889,0.22222z" fill="url(#color-14)" fill-rule="nonzero" stroke="#000000" stroke-width="2"/><path d="M314.96137,153.34736l1.26667,-4.92821l5.46667,0.2l1.12308,4.84103c0,0 -2.83871,0.7961 -4.25828,0.75031c-1.33016,-0.04291 -3.59813,-0.86313 -3.59813,-0.86313z" fill="#907b72" fill-rule="nonzero" stroke="#000000" stroke-width="0"/></g></g></g></svg>