<svg version="1.1" xmlns="http://www.w3.org/2000/svg" xmlns:xlink="http://www.w3.org/1999/xlink" width="149.07804" height="267.22501" viewBox="0,0,149.07804,267.22501"><defs><radialGradient cx="236.37335" cy="244.10865" r="16.52784" gradientUnits="userSpaceOnUse" id="color-1"><stop offset="0" stop-color="#b4c6fe"/><stop offset="1" stop-color="#6993fe"/></radialGradient></defs><g transform="translate(-152.51298,-46.38752)"><g data-paper-data="{&quot;isPaintingLayer&quot;:true}" fill-rule="nonzero" stroke-linejoin="miter" stroke-miterlimit="10" stroke-dasharray="" stroke-dashoffset="0" style="mix-blend-mode: normal"><path d="M178.40899,313.61253v-267.22501h123.18203v267.22501z" fill-opacity="0.01" fill="#000000" stroke="none" stroke-width="0" stroke-linecap="butt"/><path d="M220.54196,198.69457v-7.66667h19.66667v7.66667z" fill="#aca9ca" stroke="#000000" stroke-width="1.5" stroke-linecap="butt"/><g stroke="#000000" stroke-linecap="butt"><path d="M153.51298,174.94958c0,-14.03446 28.7599,-25.41163 64.23702,-25.41163c35.47712,0 64.23702,11.37718 64.23702,25.41163c0,14.03446 -28.7599,25.41163 -64.23702,25.41163c-35.47712,0 -64.23702,-11.37718 -64.23702,-25.41163z" fill="#edb35b" stroke-width="2"/><path d="M154.23605,174.97228c0,-0.3068 5.20666,23.56621 63.36046,23.99392c55.56352,0.40866 63.51358,-24.42329 63.51358,-23.99392c0,13.82498 -28.40173,25.03234 -63.43702,25.03234c-35.03529,0 -63.43702,-11.20736 -63.43702,-25.03234z" fill="#b68944" stroke-width="0"/></g><path d="M205.8753,307.50001l14.14285,-102.8421l39.28325,-0.15789l13.07389,103zM239.75022,276.00001c13.80712,0 25,-11.19288 25,-25c0,-13.80712 -11.19288,-25 -25,-25c-13.80712,0 -25,11.19288 -25,25c0,13.80712 11.19288,25 25,25z" fill="#dfb85c" stroke="#000000" stroke-width="2" stroke-linecap="butt"/><g fill="#9a9a9a" stroke="#000000" stroke-width="1.5" stroke-linecap="butt"><path d="M217.86335,149.65401c0,-14.03446 11.68289,-25.41163 26.09447,-25.41163c14.41158,0 26.09447,11.37717 26.09447,25.41163c0,14.03446 -11.68289,25.41163 -26.09447,25.41163c-14.41158,0 -26.09447,-11.37717 -26.09447,-25.41163z"/><path d="M163.85216,149.62339c0,-14.03446 11.68289,-25.41163 26.09447,-25.41163c14.41158,0 26.09447,11.37717 26.09447,25.41163c0,14.03446 -11.68289,25.41163 -26.09447,25.41163c-14.41158,0 -26.09447,-11.37717 -26.09447,-25.41163z"/></g><path d="M223.47216,250.56129c0,-9.12807 7.39976,-16.52784 16.52784,-16.52784c9.12807,0 16.52784,7.39976 16.52784,16.52784c0,9.12807 -7.39976,16.52784 -16.52784,16.52784c-9.12807,0 -16.52784,-7.39976 -16.52784,-16.52784z" fill="url(#color-1)" stroke="none" stroke-width="0" stroke-linecap="butt"/><path d="M260.5064,207.00006c0,3.31371 -9.21547,6 -20.58334,6c-11.36786,0 -20.58333,-2.68629 -20.58333,-6c0,-3.31371 9.21547,-6 20.58333,-6c11.36786,0 20.58334,2.68629 20.58334,6z" fill="#6d4726" stroke="#000000" stroke-width="1.5" stroke-linecap="butt"/><path d="M230.46507,208.33337v-7.66667h19.66667v7.66667z" fill="#aca9ca" stroke="#000000" stroke-width="1.5" stroke-linecap="butt"/><path d="M217.62522,226.66672l21.66666,-9.33333l22,9.66666" fill="none" stroke="#7a5a15" stroke-width="2" stroke-linecap="round"/><path d="M266.25453,274.33336l-27.32338,12.00572l-26.90938,-11.59173" data-paper-data="{&quot;index&quot;:null}" fill="none" stroke="#7a5a15" stroke-width="2" stroke-linecap="round"/><path d="M166.26542,145.27568c0,-12.968 10.51265,-23.48065 23.48065,-23.48065c12.968,0 23.48065,10.51265 23.48065,23.48065c0,12.968 -10.51265,23.48065 -23.48065,23.48065c-12.968,0 -23.48065,-10.51265 -23.48065,-23.48065z" fill="#ffffff" stroke="#000000" stroke-width="2" stroke-linecap="butt"/><path d="M173.33081,145.00003c0,-9.12808 7.39976,-16.52784 16.52783,-16.52784c9.12808,0 16.52784,7.39977 16.52784,16.52784c0,9.12808 -7.39977,16.52784 -16.52784,16.52784c-9.12808,0 -16.52783,-7.39977 -16.52783,-16.52784z" fill="#000000" stroke="none" stroke-width="0" stroke-linecap="butt"/><path d="M244.00451,168.75632c-12.968,0 -23.48065,-10.51265 -23.48065,-23.48065c0,-12.968 10.51265,-23.48065 23.48065,-23.48065c12.968,0 23.48065,10.51265 23.48065,23.48065c0,12.968 -10.51265,23.48065 -23.48065,23.48065z" data-paper-data="{&quot;index&quot;:null}" fill="#ffffff" stroke="#000000" stroke-width="2" stroke-linecap="butt"/><path d="M243.89193,161.52788c-9.12807,0 -16.52783,-7.39977 -16.52783,-16.52784c0,-9.12808 7.39977,-16.52784 16.52783,-16.52784c9.12807,0 16.52783,7.39977 16.52783,16.52784c0,9.12808 -7.39977,16.52784 -16.52783,16.52784z" data-paper-data="{&quot;index&quot;:null}" fill="#000000" stroke="none" stroke-width="0" stroke-linecap="butt"/><path d="M186.36831,114.10183c0,0 8.46933,0.03557 13.21978,2.21504c4.75045,2.17947 9.30947,8.12119 9.30947,8.12119c0,0 -6.30966,-4.98028 -9.97828,-6.66341c-3.83385,-1.75893 -12.55097,-3.67282 -12.55097,-3.67282z" fill="#00ffff" stroke="#000000" stroke-width="0.5" stroke-linecap="butt"/><path d="M234.35273,117.75792c-3.82587,1.28624 -10.62624,5.57225 -10.62624,5.57225c0,0 5.16107,-5.42697 10.11514,-7.09252c4.95407,-1.66554 13.37979,-0.8064 13.37979,-0.8064c0,0 -8.8705,0.98249 -12.86868,2.32667z" data-paper-data="{&quot;index&quot;:null}" fill="#00ffff" stroke="#000000" stroke-width="0.5" stroke-linecap="butt"/><path d="M166.26542,145.19233c0,-12.96801 10.51265,-23.48065 23.48066,-23.48065c12.96801,0 23.48065,10.51264 23.48065,23.48065c0,0 -7.7034,-9.593 -23.92315,-9.48244c-15.92464,0.10855 -23.03816,10.09048 -23.03816,9.48244z" fill="#dd6448" stroke="#000000" stroke-width="2" stroke-linecap="butt"/><path d="M244.44702,136.04324c-16.21975,-0.11056 -23.92315,9.48244 -23.92315,9.48244c0,-12.96801 10.51264,-23.48065 23.48065,-23.48065c12.96801,0 23.48066,10.51264 23.48066,23.48065c0,0.60804 -7.11352,-9.37389 -23.03816,-9.48244z" data-paper-data="{&quot;index&quot;:null}" fill="#dd6448" stroke="#000000" stroke-width="2" stroke-linecap="butt"/><path d="M218.29878,196.02789c-8.45444,0 -20.47828,-18.71225 -20.47828,-18.71225h38.10959c0,0 -9.17687,18.71225 -17.63131,18.71225z" data-paper-data="{&quot;index&quot;:null}" fill="#000000" stroke="#000000" stroke-width="2" stroke-linecap="round"/></g></g></svg>