<svg version="1.1" xmlns="http://www.w3.org/2000/svg" xmlns:xlink="http://www.w3.org/1999/xlink" width="35.45466" height="35.56535" viewBox="0,0,35.45466,35.56535"><defs><linearGradient x1="239.60921" y1="162.46732" x2="239.60921" y2="196.64043" gradientUnits="userSpaceOnUse" id="color-1"><stop offset="0" stop-color="#000000"/><stop offset="1" stop-color="#673131"/></linearGradient></defs><g transform="translate(-222.27267,-162.21732)"><g data-paper-data="{&quot;isPaintingLayer&quot;:true}" stroke-miterlimit="10" stroke-dasharray="" stroke-dashoffset="0" style="mix-blend-mode: normal"><path d="M257.72732,170.05221v20.49804c0,4.00745 -3.22497,7.23243 -7.23242,7.23243h-20.5c-3.66107,0 -6.66147,-2.69385 -7.1543,-6.21484c0.7952,3.03475 3.54108,5.26367 6.83204,5.26367h20.0332c3.9166,0 7.07032,-3.15372 7.07032,-7.07031v-20.03321c0,-3.2976 -2.23906,-6.0451 -5.28321,-6.83398c3.52994,0.48496 6.23438,3.49081 6.23438,7.15821z" fill-opacity="0.29839" fill="#000000" fill-rule="evenodd" stroke="none" stroke-width="4.54219" stroke-linecap="round" stroke-linejoin="round"/><path d="M229.59234,162.46732h20.03378c3.9166,0 7.06966,3.15307 7.06966,7.06966v20.03379c0,3.91659 -3.15306,7.06966 -7.06966,7.06966h-20.03378c-3.91659,0 -7.06967,-3.15307 -7.06967,-7.06966v-20.03379c0,-3.91659 3.15308,-7.06966 7.06967,-7.06966z" fill="url(#color-1)" fill-rule="evenodd" stroke="#6c3333" stroke-width="0.5" stroke-linecap="round" stroke-linejoin="round"/><path d="M240.48545,176.46863c4.45234,1.03031 9.87899,5.39177 9.87899,5.39177c0,0 -3.29403,2.80363 -10.71231,1.34845c-5.93149,-1.16353 -10.86348,-6.53638 -10.86348,-6.53638c0,0 4.75715,-1.80975 11.6968,-0.20384z" fill="none" fill-rule="nonzero" stroke="#6c3333" stroke-width="2" stroke-linecap="round" stroke-linejoin="miter"/><path d="M235.189,178.44695c0.58967,-2.47744 2.99272,-3.17445 5.47015,-2.58478c2.47744,0.58967 4.09111,2.24271 3.50144,4.72015c-0.58967,2.47744 -3.07604,4.00778 -5.55348,3.41811c-2.47744,-0.58967 -4.00778,-3.07604 -3.41811,-5.55348z" fill="#6c3333" fill-rule="nonzero" stroke="none" stroke-width="0" stroke-linecap="butt" stroke-linejoin="miter"/></g></g></svg>