<svg viewBox="0,0,111.79274,153.71319" height="153.71319" width="111.79274" xmlns:xlink="http://www.w3.org/1999/xlink" xmlns="http://www.w3.org/2000/svg" version="1.1"><g transform="translate(-184.10363,-103.14341)"><g style="mix-blend-mode: normal" stroke-dashoffset="0" stroke-dasharray="" stroke-miterlimit="10" stroke-linejoin="miter" stroke-width="4.5" stroke="#003fff" fill-rule="nonzero" data-paper-data="{&quot;isPaintingLayer&quot;:true}"><path stroke-linecap="butt" fill="#ffffff" d="M282.22092,147.4976c0,23.2535 -18.60667,42.1042 -41.55916,42.1042c-22.95249,0 -41.55916,-18.8507 -41.55916,-42.1042c0,-23.2535 18.60667,-42.10419 41.55916,-42.10419c22.95249,0 41.55916,18.85069 41.55916,42.1042z"></path><path stroke-linecap="round" fill="none" d="M222.26672,129.92012l-0.27252,19.34885"></path><path stroke-linecap="round" fill="none" d="M251.72613,148.72394l-0.27251,-22.07405"></path><path stroke-linecap="round" fill="none" d="M262.80482,161.55645c0,0 -1.07703,1.82957 -6.29735,4.79799c-5.22032,2.96842 -7.04911,4.17962 -14.54389,4.64804c-7.49478,0.46842 -14.49078,-0.99255 -19.042,-2.54893c-4.55122,-1.55637 -7.49685,-4.94792 -7.49685,-4.94792"></path><path stroke-linecap="round" fill="#99b2ff" d="M203.91451,217.23108l-2.9982,-8.56629l2.78404,-16.06179l9.20876,-12.42112l17.77504,9.009l13.4919,1.07079l6.85303,-2.14157l8.78044,-2.78404h2.56989l11.77864,15.63347l1.71326,8.56629l-3.42651,8.13797l-8.35213,6.85303l-23.9856,2.78404l-24.62807,-0.85663z"></path><path stroke-linecap="round" fill="none" d="M271.58818,196.47223l18.20336,17.13257l-4.92561,1.4991"></path><path stroke-linecap="round" fill="none" d="M194.70575,224.0985l-5.9964,-2.35573l12.42112,-21.20156"></path><path stroke-linecap="round" fill="none" d="M186.78194,217.24547l2.35573,4.92561l-2.78404,4.06899"></path><path stroke-linecap="round" fill="none" d="M290.64817,216.81716l-1.4991,-2.35573l4.4973,-0.42831"></path><path stroke-linecap="round" fill="none" d="M255.52639,228.47943l2.9982,25.91302"></path><path stroke-linecap="round" fill="none" d="M222.9745,254.6066l-2.14157,-25.4847"></path></g></g></svg>