<svg version="1.1" xmlns="http://www.w3.org/2000/svg" xmlns:xlink="http://www.w3.org/1999/xlink" width="173.98753" height="373.16343" viewBox="0,0,173.98753,373.16343"><defs><linearGradient x1="239.98966" y1="184.34851" x2="239.98966" y2="316.34846" gradientUnits="userSpaceOnUse" id="color-1"><stop offset="0" stop-color="#000000"/><stop offset="1" stop-color="#3f2222"/></linearGradient><linearGradient x1="249.05754" y1="276.64358" x2="249.05754" y2="304.29044" gradientUnits="userSpaceOnUse" id="color-2"><stop offset="0" stop-color="#1a0c12"/><stop offset="1" stop-color="#4d2637"/></linearGradient><linearGradient x1="245.70968" y1="269.56989" x2="245.70968" y2="282.7453" gradientUnits="userSpaceOnUse" id="color-3"><stop offset="0" stop-color="#1a0c12"/><stop offset="1" stop-color="#4d2637"/></linearGradient><linearGradient x1="233.83019" y1="267.84193" x2="233.83019" y2="281.01743" gradientUnits="userSpaceOnUse" id="color-4"><stop offset="0" stop-color="#1a0c12"/><stop offset="1" stop-color="#4d2637"/></linearGradient><linearGradient x1="230.15834" y1="266.33002" x2="230.15834" y2="279.50543" gradientUnits="userSpaceOnUse" id="color-5"><stop offset="0" stop-color="#1a0c12"/><stop offset="1" stop-color="#4d2637"/></linearGradient><linearGradient x1="233.07421" y1="262.65819" x2="233.07421" y2="274.96961" gradientUnits="userSpaceOnUse" id="color-6"><stop offset="0" stop-color="#1a0c12"/><stop offset="1" stop-color="#4d2637"/></linearGradient><linearGradient x1="252.94539" y1="247.10687" x2="252.94539" y2="277.99352" gradientUnits="userSpaceOnUse" id="color-7"><stop offset="0" stop-color="#1a0c12"/><stop offset="1" stop-color="#4d2637"/></linearGradient><linearGradient x1="242.14331" y1="183.01694" x2="242.14331" y2="250.25159" gradientUnits="userSpaceOnUse" id="color-8"><stop offset="0" stop-color="#000000"/><stop offset="1" stop-color="#3a213e"/></linearGradient><linearGradient x1="240.00005" y1="175.50006" x2="240.00005" y2="307.50005" gradientUnits="userSpaceOnUse" id="color-9"><stop offset="0" stop-color="#000000"/><stop offset="1" stop-color="#935399"/></linearGradient><radialGradient cx="251.22895" cy="167.8045" r="64.40652" gradientUnits="userSpaceOnUse" id="color-10"><stop offset="0" stop-color="#000000"/><stop offset="1" stop-color="#270000"/></radialGradient><linearGradient x1="238.76029" y1="262.27727" x2="238.76029" y2="419.55095" gradientUnits="userSpaceOnUse" id="color-11"><stop offset="0" stop-color="#4d4948"/><stop offset="1" stop-color="#1a1716"/></linearGradient><radialGradient cx="242.45679" cy="236.64492" r="1.98299" gradientUnits="userSpaceOnUse" id="color-12"><stop offset="0" stop-color="#000000"/><stop offset="1" stop-color="#7c0000"/></radialGradient><radialGradient cx="242.45679" cy="236.64492" r="1.98299" gradientUnits="userSpaceOnUse" id="color-13"><stop offset="0" stop-color="#000000" stop-opacity="0"/><stop offset="1" stop-color="#000000" stop-opacity="0"/></radialGradient><radialGradient cx="250.21629" cy="231.64431" r="1.12082" gradientUnits="userSpaceOnUse" id="color-14"><stop offset="0" stop-color="#000000"/><stop offset="1" stop-color="#7c0000"/></radialGradient><radialGradient cx="226.50668" cy="223.97104" r="1.72434" gradientUnits="userSpaceOnUse" id="color-15"><stop offset="0" stop-color="#000000"/><stop offset="1" stop-color="#7c0000"/></radialGradient><radialGradient cx="223.66151" cy="243.54223" r="1.29325" gradientUnits="userSpaceOnUse" id="color-16"><stop offset="0" stop-color="#000000"/><stop offset="1" stop-color="#7c0000"/></radialGradient><radialGradient cx="250.64738" cy="224.31587" r="8.44925" gradientUnits="userSpaceOnUse" id="color-17"><stop offset="0" stop-color="#000000"/><stop offset="1" stop-color="#7c0000"/></radialGradient><radialGradient cx="215.81578" cy="235.86896" r="9.7425" gradientUnits="userSpaceOnUse" id="color-18"><stop offset="0" stop-color="#000000"/><stop offset="1" stop-color="#7c0000"/></radialGradient><linearGradient x1="277.96056" y1="153.69428" x2="280.25344" y2="176.88746" gradientUnits="userSpaceOnUse" id="color-19"><stop offset="0" stop-color="#553f34"/><stop offset="1" stop-color="#4a2722"/></linearGradient><linearGradient x1="257.71197" y1="149.16334" x2="261.33603" y2="185.82183" gradientUnits="userSpaceOnUse" id="color-20"><stop offset="0" stop-color="#7f6d5d"/><stop offset="1" stop-color="#3e342d"/></linearGradient><linearGradient x1="221.18954" y1="154.6437" x2="222.97484" y2="172.70252" gradientUnits="userSpaceOnUse" id="color-21"><stop offset="0" stop-color="#000000"/><stop offset="1" stop-color="#5f302c"/></linearGradient><linearGradient x1="281.49287" y1="145.07681" x2="283.71329" y2="167.53706" gradientUnits="userSpaceOnUse" id="color-22"><stop offset="0" stop-color="#000000"/><stop offset="1" stop-color="#5f302c"/></linearGradient><linearGradient x1="262.0295" y1="167.63912" x2="264.31722" y2="190.78016" gradientUnits="userSpaceOnUse" id="color-23"><stop offset="0" stop-color="#553f34"/><stop offset="1" stop-color="#4a2722"/></linearGradient><linearGradient x1="254.5086" y1="161.7019" x2="257.1552" y2="188.47317" gradientUnits="userSpaceOnUse" id="color-24"><stop offset="0" stop-color="#7f6d5d"/><stop offset="1" stop-color="#3e342d"/></linearGradient><linearGradient x1="251.76961" y1="169.65585" x2="253.68308" y2="189.01129" gradientUnits="userSpaceOnUse" id="color-25"><stop offset="0" stop-color="#5d2f2b"/><stop offset="1" stop-color="#000000"/></linearGradient><linearGradient x1="258.66608" y1="105.92506" x2="269.78594" y2="218.40597" gradientUnits="userSpaceOnUse" id="color-26"><stop offset="0" stop-color="#221c21"/><stop offset="1" stop-color="#4d404c"/></linearGradient><radialGradient cx="325.62762" cy="130.24818" r="15.88689" gradientUnits="userSpaceOnUse" id="color-27"><stop offset="0" stop-color="#3c2d3b"/><stop offset="1" stop-color="#191319"/></radialGradient><radialGradient cx="332.26684" cy="198.06666" r="13.83682" gradientUnits="userSpaceOnUse" id="color-28"><stop offset="0" stop-color="#000000" stop-opacity="0"/><stop offset="1" stop-color="#000000" stop-opacity="0.19657"/></radialGradient><radialGradient cx="329.34003" cy="165.04528" r="23.91791" gradientUnits="userSpaceOnUse" id="color-29"><stop offset="0" stop-color="#605460"/><stop offset="1" stop-color="#332a32"/></radialGradient><linearGradient x1="326.987" y1="141.24345" x2="331.69309" y2="188.84722" gradientUnits="userSpaceOnUse" id="color-30"><stop offset="0" stop-color="#806a7f"/><stop offset="1" stop-color="#5d4d5c"/></linearGradient><linearGradient x1="254.2421" y1="206.05993" x2="255.46601" y2="218.44003" gradientUnits="userSpaceOnUse" id="color-31"><stop offset="0" stop-color="#000000"/><stop offset="1" stop-color="#630000"/></linearGradient><radialGradient cx="206.59766" cy="222.2939" r="1.57732" gradientUnits="userSpaceOnUse" id="color-32"><stop offset="0" stop-color="#000000"/><stop offset="1" stop-color="#630000"/></radialGradient><linearGradient x1="326.987" y1="141.24345" x2="331.69309" y2="188.84722" gradientUnits="userSpaceOnUse" id="color-33"><stop offset="0" stop-color="#322931"/><stop offset="1" stop-color="#453944"/></linearGradient></defs><g transform="translate(-178.29431,-46.38752)"><g data-paper-data="{&quot;isPaintingLayer&quot;:true}" fill-rule="nonzero" stroke-linejoin="miter" stroke-miterlimit="10" stroke-dasharray="" stroke-dashoffset="0" style="mix-blend-mode: normal"><path d="M180.1931,313.61253v-267.22501h123.18203v267.22501z" fill-opacity="0.01" fill="#000000" stroke="none" stroke-width="0" stroke-linecap="butt"/><path d="M221.65255,184.50641l38.26309,-0.15789l11.57983,111.19652c-1.79994,-0.81338 -3.51553,-1.59229 -4.85732,-2.45196c-1.18727,-0.76067 -1.43337,-8.87639 -1.83874,-10.18216c-1.8957,-6.10631 -7.55414,-3.04021 -11.03343,-5.32934c-1.6778,-1.10388 -2.57948,-3.08938 -4.59716,-3.61621c-1.68197,-0.43918 -3.5478,-1.90359 -5.09504,-1.11803c-2.7486,1.39551 -5.58247,3.18991 -8.29501,5.0623c-2.27706,1.57179 -0.23206,6.53578 -3.70594,8.08028c-5.65423,2.51389 -5.53911,-2.86544 -8.47262,-4.52071c-5.15365,-2.90801 -9.87069,-1.30998 -13.46001,2.01324z" fill="url(#color-1)" stroke="#000000" stroke-width="0" stroke-linecap="butt"/><path d="M246.03368,304.29044v-27.64684h6.04775v27.64684z" fill="url(#color-2)" stroke="none" stroke-width="0" stroke-linecap="butt"/><path d="M245.70968,269.56989c8.70806,0 15.76734,2.94942 15.76734,6.58772c0,3.6383 -7.05928,6.58772 -15.76734,6.58772c-8.70806,0 -15.76734,-2.94942 -15.76734,-6.58772c0,-3.6383 7.05928,-6.58772 15.76734,-6.58772z" fill="url(#color-3)" stroke="none" stroke-width="0" stroke-linecap="butt"/><path d="M233.83019,267.84191c7.03802,0 12.74347,-1.15441 12.74347,2.4839c0,3.6383 -5.92144,13.28344 -12.95946,13.28344c-11.57383,0 -12.52747,-5.54131 -12.52747,-9.17962c0,-3.6383 5.70544,-6.58772 12.74347,-6.58772z" fill="url(#color-4)" stroke="none" stroke-width="0" stroke-linecap="butt"/><path d="M230.15834,266.33002c8.70806,0 15.76734,2.94943 15.76734,6.58772c0,3.63829 -7.05928,6.58772 -15.76734,6.58772c-8.70806,0 -15.76734,-2.94943 -15.76734,-6.58772c0,-3.63829 7.05928,-6.58772 15.76734,-6.58772z" fill="url(#color-5)" stroke="none" stroke-width="0" stroke-linecap="butt"/><path d="M233.07421,262.65819c6.61133,0 11.97088,2.75602 11.97088,6.15574c0,3.39973 -5.35955,6.15574 -11.97088,6.15574c-6.61134,0 -11.97089,-2.75602 -11.97089,-6.15574c0,-3.39972 5.35956,-6.15574 11.97089,-6.15574z" fill="url(#color-6)" stroke="none" stroke-width="0" stroke-linecap="butt"/><path d="M252.94539,247.10687c7.21696,0 13.06745,6.91423 13.06745,15.44335c0,8.52913 -5.85049,15.44335 -13.06745,15.44335c-7.21696,0 -13.06745,-6.91423 -13.06745,-15.44335c0,-8.52913 5.85049,-15.44335 13.06745,-15.44335z" fill="url(#color-7)" stroke="none" stroke-width="0" stroke-linecap="butt"/><path d="M296.59783,196.07491c0,0 -0.33942,7.5719 -3.88961,8.89054c-3.55019,1.31864 -5.83441,-5.27875 -5.83441,-5.27875l-3.33395,4.16744v5.00092l-1.9448,1.66698c0,0 2.34568,9.2973 -0.58088,8.46114c-2.92656,-0.83616 -3.30873,-9.57246 -3.30873,-9.57246c0,0 2.17241,9.97794 -2.07107,12.22449c-4.24348,2.24654 -7.37512,-7.22356 -7.37512,-7.22356l0.55566,23.61548l-31.11688,12.22449l-22.22633,-10.27968l-2.22264,-2.77829l0.83349,-23.33766c0,0 -3.53924,8.70391 -6.94573,6.94573c-3.40649,-1.75818 -1.66698,-11.391 -1.66698,-11.391c0,0 0.02799,8.80427 -3.61178,8.61271c-3.63977,-0.19156 -1.66698,-8.89053 -1.66698,-8.89053l-1.66697,-1.38914v-5.00093l-3.05612,-3.05612c0,0 -2.88219,5.52811 -5.83441,5.00092c-2.95222,-0.52719 -1.94481,-6.39007 -1.94481,-6.39007l12.22448,-15.28061z" fill="url(#color-8)" stroke="#000000" stroke-width="0" stroke-linecap="round"/><path d="M221.89291,175.65797l37.78325,-0.15789l11.43462,111.19652c-1.77737,-0.81337 -3.47144,-1.5923 -4.7964,-2.45196c-1.17238,-0.76067 -1.4154,-8.87639 -1.81569,-10.18216c-1.87193,-6.10631 -7.4594,-3.0402 -10.89506,-5.32934c-1.65676,-1.10388 -2.54713,-3.08938 -4.53951,-3.61621c-1.66088,-0.43918 -3.50331,-1.90359 -5.03115,-1.11803c-2.71413,1.3955 -5.51246,3.18992 -8.19098,5.06231c-2.2485,1.57179 -0.22915,6.53577 -3.65947,8.08028c-5.58333,2.51389 -5.46965,-2.86544 -8.36637,-4.52071c-5.08902,-2.90801 -9.7469,-1.30998 -13.29121,2.01325z" fill="url(#color-9)" stroke="#000000" stroke-width="0" stroke-linecap="butt"/><path d="M191.164,214.89678l-8.05823,-81.51178l128.18814,-12.67267l8.05824,81.51178z" fill="url(#color-10)" stroke="none" stroke-width="0" stroke-linecap="butt"/><path d="M233.76029,419.55095c0,0 -0.28483,-36.20281 -0.02387,-72.15242c0.08799,-12.12082 0.86954,-24.63388 0.89684,-35.15544c0.00754,-2.90811 -0.93352,-7.82757 -0.92296,-10.45149c0.03131,-7.78053 0.76251,-14.62955 0.76251,-18.76319c0,-9.9535 -0.71252,-20.75109 -0.71252,-20.75109h10c0,0 -0.47502,11.60541 -0.47502,21.93863c0,2.46206 0.71684,6.39707 0.72465,10.21264c0.01165,5.69044 -0.93656,15.05748 -0.94177,22.80137c-0.00549,8.16664 0.73047,18.02775 0.77166,27.07476c0.16828,36.96355 -0.07953,75.24624 -0.07953,75.24624z" fill="url(#color-11)" stroke="#000000" stroke-width="0" stroke-linecap="butt"/><path d="M210.73705,274.43584l2.3217,-18.57364c0,0 -0.01784,8.18509 8.21526,8.03667c7.51718,-0.13551 11.07275,-9.10823 11.07275,-9.10823c0,0 -0.15395,6.04961 8.57245,5.71497c8.00637,-0.30703 6.25074,-7.3223 6.25074,-7.3223c0,0 1.50582,10.01365 11.07275,10.17978c8.85171,0.15371 9.46541,-9.28682 9.46541,-9.28682l3.21467,32.50387l-5.0006,-2.5003c0,0 -0.11912,-6.91945 -3.57185,-11.07275c-3.45274,-4.15329 -5.45718,-2.45393 -8.75104,-3.75045c-3.29386,-1.29652 -4.69432,-5.11246 -8.57245,-5.0006c-3.87813,0.11187 -5.82939,2.41788 -8.92963,5.71497c-3.10025,3.29709 -0.82867,3.96142 -2.3217,6.25074c-1.49304,2.28933 -2.26912,1.58717 -4.10763,1.78593c-1.83851,0.19876 -2.5003,-1.07156 -2.5003,-1.07156c0,0 -4.59741,-5.11007 -8.57245,-5.71497c-3.97504,-0.6049 -7.85808,3.21467 -7.85808,3.21467z" fill="#000000" stroke="#000000" stroke-width="0.5" stroke-linecap="round"/><path d="M240.4738,236.64492c0,-1.09517 0.88781,-1.98299 1.98299,-1.98299c1.09517,0 1.98299,0.88781 1.98299,1.98299c0,1.09517 -0.88781,1.98299 -1.98299,1.98299c-1.09517,0 -1.98299,-0.88781 -1.98299,-1.98299z" fill="url(#color-12)" stroke="url(#color-13)" stroke-width="0" stroke-linecap="butt"/><path d="M249.09548,231.64431c0,-0.61901 0.50181,-1.12082 1.12082,-1.12082c0.61901,0 1.12082,0.50181 1.12082,1.12082c0,0.61901 -0.50181,1.12082 -1.12082,1.12082c-0.61901,0 -1.12082,-0.50181 -1.12082,-1.12082z" fill="url(#color-14)" stroke="none" stroke-width="0" stroke-linecap="butt"/><path d="M224.78234,223.97104c0,-0.95232 0.77201,-1.72434 1.72434,-1.72434c0.95232,0 1.72434,0.77201 1.72434,1.72434c0,0.95232 -0.77201,1.72434 -1.72434,1.72434c-0.95232,0 -1.72434,-0.77201 -1.72434,-1.72434z" fill="url(#color-15)" stroke="none" stroke-width="0" stroke-linecap="butt"/><path d="M222.36826,243.54223c0,-0.71424 0.57901,-1.29325 1.29325,-1.29325c0.71424,0 1.29325,0.57901 1.29325,1.29325c0,0.71424 -0.57901,1.29325 -1.29325,1.29325c-0.71424,0 -1.29325,-0.57901 -1.29325,-1.29325z" fill="url(#color-16)" stroke="none" stroke-width="0" stroke-linecap="butt"/><path d="M250.64738,219.83262c1.25028,-0.37955 3.7596,-1.92718 6.38004,-2.24164c2.62044,-0.31445 2.35313,0.03636 2.24164,1.20704c-0.11149,1.17067 -2.07597,1.08669 -2.5865,2.41407c-0.51053,1.32738 1.13063,1.14875 0.86217,2.0692c-0.26847,0.92046 -1.33343,1.17348 -2.0692,2.0692c-0.73577,0.89572 -0.69331,2.24838 -1.89677,2.75894c-1.20346,0.51056 -2.34183,-0.75964 -3.79354,-0.34487c-1.45171,0.41478 -2.53901,2.66691 -4.65571,2.75894c-2.1167,0.09203 1.48611,-1.39195 0.68973,-2.5865c-0.79637,-1.19456 -1.89384,0.2757 -2.75894,-0.5173c-0.86509,-0.793 0.84577,-0.63831 0.68973,-1.37947c-0.15603,-0.74116 -1.76708,-1.05695 -1.37947,-1.89677c0.38761,-0.83982 2.07594,-1.59246 3.44867,-2.5865c1.37273,-0.99405 0.86572,-0.78954 1.5519,-1.0346c0.68618,-0.24506 2.02596,-0.31018 3.27624,-0.68973z" fill="url(#color-17)" stroke="#000000" stroke-width="0" stroke-linecap="round"/><path d="M216.16067,228.4543c0,0 3.11089,-1.65756 3.96597,-1.67935c0.85508,-0.02179 0.71982,-0.63789 1.0346,1.5519c0.31478,2.18979 -0.46368,4.01506 0,5.64532c0.46367,1.63026 2.29474,2.28163 2.5865,3.44867c0.29176,1.16705 0.35902,1.54514 -1.0346,2.75894c-1.39362,1.2138 -3.53754,1.09373 -4.31084,1.89677c-0.7733,0.80304 0.57555,1.74696 -0.17243,2.75894c-0.74799,1.01198 -1.75742,1.89558 -2.75894,1.20704c-1.00152,-0.68855 0.21802,-2.42249 0,-3.10381c-0.21802,-0.68132 -1.37947,-1.20704 -1.37947,-1.20704l2.0692,-13.27739z" fill="url(#color-18)" stroke="#000000" stroke-width="0" stroke-linecap="round"/><path d="M218.37485,248.74504c0,-0.71807 0.58211,-1.30017 1.30017,-1.30017c0.71807,0 1.30017,0.58211 1.30017,1.30017c0,0.71807 -0.58211,1.30017 -1.30017,1.30017c-0.71807,0 -1.30017,-0.58211 -1.30017,-1.30017z" fill="#000000" stroke="none" stroke-width="0" stroke-linecap="butt"/><path d="M262.58074,255.94597c0,-0.71807 0.58211,-1.30017 1.30017,-1.30017c0.71807,0 1.30017,0.58211 1.30017,1.30017c0,0.71807 -0.58211,1.30017 -1.30017,1.30017c-0.71807,0 -1.30017,-0.58211 -1.30017,-1.30017z" fill="#000000" stroke="none" stroke-width="0" stroke-linecap="butt"/><g stroke-width="0"><path d="M227.37711,164.47395l96.97507,-15.36594l7.5194,19.84136c-1.55252,0.05035 -3.32101,0.40701 -5.37569,1.11638c-0.89835,0.31016 -1.11831,1.37638 -1.41644,2.39022l-4.12099,-14.4696l-43.14577,3.26033l-12.75082,10.80845l-5.64075,-6.2264l-23.06728,3.03422l-4.21115,5.69279l-3.01055,0.04635l-1.96036,-4.58014z" fill="url(#color-19)" stroke="#57372f" stroke-linecap="butt"/><path d="M309.53411,161.8797l-4.50634,2.70685l0.21854,4.75233l-5.0778,2.00955l1.91967,-3.45617l-3.48076,-2.1685l-0.31979,-3.23478l-6.66633,-1.35105l2.95568,4.48176l-4.62934,1.4627l-3.72675,-4.65678l-2.33787,-0.77393l-5.15729,6.28885l-4.92171,-4.03613l-14.38003,-0.58848l-3.91597,8.67873l-3.13638,1.31511l-0.81178,-8.21135l-8.41382,3.84691l1.31511,3.13637l3.40697,1.42202l-4.03613,4.92171l-2.73712,0.2706l-1.01707,-2.66332l-2.11362,-1.04736l-0.51376,-7.73829l-5.17335,-1.49863l-6.94828,5.96339l-2.61979,6.5405l-1.96604,0.44563l-6.6304,-11.15378l4.68895,11.84821l-7.56325,-0.25734l-3.81948,-10.67785l-2.81374,2.037l0.19679,1.99062l1.39174,1.36998l-4.13735,6.43927l-1.05493,-13.21251l-6.251,5.39193l1.03883,5.42503l2.21203,2.04268l-1.72005,2.93391l-4.97374,-2.0209l4.00961,-25.52245l122.09259,-5.28602l12.79096,28.96821c-0.25043,-0.03987 -0.49162,-0.09773 -0.71904,-0.1832c-1.42903,-0.53697 -2.72266,-1.94181 -4.15158,-2.48801c-1.60243,-0.61252 -3.43207,-0.86226 -5.29048,-0.76973z" fill="url(#color-20)" stroke="#57372f" stroke-linecap="butt"/><path d="M192.7438,175.27399c-4.488,-0.80227 -3.75508,-8.55474 -3.99464,-10.97804c-0.23957,-2.42331 -1.17242,-30.88919 -1.17242,-30.88919l65.34885,-8.4008c0,0 2.69185,32.92864 2.11408,35.64588c-0.57777,2.71723 -0.81314,3.9785 -3.35924,6.15082c-2.5461,2.17231 -6.42866,2.98534 -7.8608,3.42199c-1.43214,0.43665 -0.727,0.95977 -3.69288,0.1006c-2.96588,-0.85918 -5.90052,-3.04589 -7.19853,-3.25566c-1.298,-0.20979 1.61613,0.67749 -1.94005,1.77872c-3.55617,1.10123 -6.12418,1.84406 -9.35169,1.71797c-3.22751,-0.12609 -5.9135,-2.25233 -7.90662,-2.3922c-1.99311,-0.13986 -1.04071,1.98555 -4.61111,1.5138c-3.57038,-0.47174 -3.23222,-4.79909 -7.9843,-3.17798c-4.75207,1.62112 -3.90262,9.56635 -8.39064,8.7641z" fill="url(#color-21)" stroke="#61352d" stroke-linecap="round"/><path d="M310.32353,117.53971c0,0 3.05397,41.19453 0.49764,45.53217c-2.55634,4.33764 -11.60565,1.05237 -12.86032,1.00688c-1.2547,-0.04549 -2.11501,-1.35203 -2.80053,-1.57456c-0.68552,-0.22254 0.8053,-0.07962 -1.57156,0.15537c-2.37685,0.23497 -2.07396,1.06522 -6.02433,0.59557c-3.95037,-0.46965 -6.17105,-3.04627 -9.76601,-2.47287c-3.59496,0.57341 -5.26448,4.29971 -7.67956,5.25548c-2.41507,0.95578 -3.03605,1.10717 -6.57407,0.38543c-3.53802,-0.72175 -6.14023,-0.13788 -8.27211,-3.41402c-2.1319,-3.27614 -5.50701,-37.83015 -5.50701,-37.83015z" fill="url(#color-22)" stroke="#61352d" stroke-linecap="round"/></g><g stroke-width="0"><path d="M316.98866,185.57306l-86.11649,5.7496l-36.01962,-5.987l10.61259,-12.10462l2.18742,1.79384l-5.35974,9.32398l39.63471,-0.65189l9.08934,-7.18009l4.47891,-0.44279l1.6841,6.86882l57.17858,-3.64258l12.03435,-17.52658c1.32934,0.75506 2.73488,1.34367 4.15373,1.72434z" fill="url(#color-23)" stroke="#57372f" stroke-linecap="butt"/><path d="M194.11842,176.91816l2.33418,-4.85379l-1.98602,-3.82369l3.52398,-0.95139l1.7673,3.64431l-0.884,7.32345l-2.63164,3.8782l12.37631,3.19853l-0.17483,-3.80175l5.66137,-7.79575l6.54918,-0.84845l0.23615,2.38867l-5.05967,3.71622l3.65718,4.46249l3.10391,0.89915l2.75423,-6.70434l2.94649,-0.6933l0.772,3.74271l0.29518,2.98584l10.95718,-9.1233l5.90358,6.85344l14.42818,1.58866l0.20587,-6.0504l3.2288,-3.93724l7.45893,4.28766l6.03754,-6.02392l2.36673,1.57505l-1.31469,0.93397l1.96633,3.62465l4.657,0.34362l3.55046,-6.78304l7.24021,4.10828l4.93932,-2.90032l-2.26607,-2.58999l2.39321,-4.25663l2.66645,0.5404l1.13076,3.30523l0.0439,-3.62237l3.54366,-0.75233l0.65394,2.54838l-1.1792,4.33761l9.59069,-9.68824c0.2314,2.27137 0.94372,4.29474 2.83654,5.61302c0.34591,0.24091 0.68758,0.46573 1.02502,0.67493l-11.44895,14.95895l-112.06848,7.56142l-7.30876,-5.30771z" fill="url(#color-24)" stroke="#57372f" stroke-linecap="butt"/><path d="M313.94195,168.29193c0.45305,1.6375 1.94955,37.3669 1.94955,37.3669l-122.36519,10.84065c0,0 -4.48758,-31.83764 -3.2245,-37.55495c1.26308,-5.7173 2.4389,-2.66934 5.16483,-1.76695c2.72593,0.90239 5.0007,5.82984 9.44737,6.60416c4.44667,0.77434 8.13816,-2.8841 13.56315,-2.59721c5.42499,0.2869 2.47681,2.83248 5.06549,3.58238c2.58868,0.74991 2.74252,-0.72747 4.63499,-0.7723c1.89247,-0.04481 4.8515,0.97987 7.89923,0.47544c3.04772,-0.50441 6.47832,-3.07776 10.95175,-3.5954c4.47344,-0.51765 4.58584,1.32005 7.68042,1.43935c3.09458,0.11929 6.5804,0.27941 10.60641,-0.73445c4.02602,-1.01386 5.71839,-3.81454 9.92636,-4.4363c4.20797,-0.62177 9.84335,2.35806 15.7677,0.63984c5.92435,-1.71823 10.94311,-7.42175 18.73506,-10.64663c7.79197,-3.22489 3.74434,-0.48201 4.19739,1.1555z" fill="url(#color-25)" stroke="#61352d" stroke-linecap="round"/></g><g><path d="M196.69686,113.74342c0,0 2.86866,13.63486 0.63649,17.54918c-0.78314,1.3733 -6.94726,1.05651 -9.05117,2.06097c-4.3324,2.06838 -5.50388,4.79741 -5.50388,4.79741c0,0 -1.76369,-7.80547 -1.565,-9.47668c0.19869,-1.67122 1.90019,-1.36857 3.05114,-3.02355c1.15095,-1.65499 1.12694,-3.23298 2.26511,-4.62087c1.13816,-1.3879 2.51254,-1.25309 3.7142,-2.67035c1.20165,-1.41726 0.70987,-3.19215 2.09873,-4.18567c1.38888,-0.99352 4.35438,-0.43047 4.35438,-0.43047z" fill="#44221f" stroke="#a87469" stroke-width="0" stroke-linecap="round"/><path d="M190.19297,226.27452c0,0 -6.66737,-67.44261 -8.80181,-89.03329c-0.07766,-0.78552 -3.09685,-1.67469 -3.09685,-1.67469c0,0 4.85786,-2.99687 5.30596,-4.4709c0.53036,-1.74452 -0.57806,-3.77451 -0.57806,-3.77451c0,0 4.064,0.40284 5.49944,0.54432c1.23762,0.12198 -0.4484,-6.46835 -0.4484,-6.46835c0,0 6.07683,1.56258 7.09479,0.82633c1.99824,-1.44526 1.34199,-10.15363 1.34199,-10.15363c0,0 2.02327,2.94066 3.02423,2.84169c29.79672,-2.9457 141.93522,-14.0317 141.93522,-14.0317l10.81235,109.37064zM196.40403,212.87507l117.15889,-12.37419l-8.87827,-77.77803l-116.05641,11.47065z" fill="url(#color-26)" stroke="#725771" stroke-width="0" stroke-linecap="butt"/><path d="M310.33338,137.02641c-0.18705,-1.892 -0.76316,-7.71959 -1.07474,-10.87124c-0.12325,-1.24672 0.95382,-2.18927 2.19953,-2.31242c3.60556,-0.35645 21.36802,-2.11244 27.28985,-2.69786c1.2096,-0.11958 2.08345,1.4108 2.21293,2.72063c0.18185,1.83939 0.68523,6.93133 0.99206,10.03498c0.14685,1.48542 -0.77977,2.61707 -2.4562,2.78279c-6.63841,0.65627 -23.4372,2.317 -26.77006,2.64647c-1.12606,0.11132 -2.27834,-1.13948 -2.3934,-2.30337z" fill="url(#color-27)" stroke="#725771" stroke-width="0" stroke-linecap="butt"/><path d="M318.86194,203.11785c-0.24953,-2.52407 -0.61927,-6.26422 -0.75482,-7.63521c-0.09931,-1.00449 0.83762,-2.31613 1.96152,-2.42723c3.14884,-0.31129 18.23765,-1.80297 23.52439,-2.32561c1.14885,-0.11358 1.98917,1.37989 2.10737,2.57568c0.13696,1.38547 0.46936,4.74774 0.7009,7.08985c0.14052,1.4214 -0.62561,2.55304 -1.59093,2.64846c-2.75376,0.27223 -16.24164,1.60565 -22.50157,2.2245c-1.9534,0.19311 -3.3057,-0.72223 -3.44687,-2.15044z" fill="url(#color-28)" stroke="#332733" stroke-width="0" stroke-linecap="butt"/><path d="M317.5487,188.42733c-0.76685,-7.75686 -3.77213,-38.15638 -4.27206,-43.21327c-0.13767,-1.39259 0.86305,-2.70053 2.04212,-2.8171c3.13599,-0.31003 17.53458,-1.73347 23.26867,-2.30034c1.46624,-0.14495 2.47133,0.83214 2.59671,2.10031c0.47143,4.76873 3.40074,34.39956 4.24678,42.95756c0.14478,1.4646 -0.51511,2.38553 -1.3703,2.47006c-2.83479,0.28025 -18.60725,1.8395 -24.2915,2.40145c-1.27502,0.12605 -2.10692,-0.45019 -2.22046,-1.59867z" fill="url(#color-29)" stroke="url(#color-30)" stroke-width="2" stroke-linecap="butt"/><path d="M346.70993,206.58766c-0.07678,-0.77672 0.49061,-1.4686 1.26732,-1.54538c0.77671,-0.07678 1.46859,0.4906 1.54538,1.26732c0.07678,0.77672 -0.49061,1.4686 -1.26733,1.54538c-0.77671,0.07678 -1.46858,-0.49061 -1.54537,-1.26732z" fill="#2e232e" stroke="none" stroke-width="0" stroke-linecap="butt"/><path d="M193.45625,220.70549c-0.10471,-1.05914 0.66902,-2.00263 1.72815,-2.10735c1.05914,-0.10471 2.00263,0.66901 2.10734,1.72817c0.10471,1.05914 -0.66901,2.00263 -1.72817,2.10734c-1.05914,0.10471 -2.00263,-0.66901 -2.10734,-1.72816z" fill="#2e232e" stroke="none" stroke-width="0" stroke-linecap="butt"/><path d="M336.63264,104.61124c-0.09307,-0.94151 0.5947,-1.78019 1.53623,-1.87329c0.9415,-0.09307 1.78019,0.59469 1.87329,1.53622c0.09307,0.94151 -0.5947,1.78022 -1.53622,1.87331c-0.9415,0.09307 -1.7802,-0.59472 -1.8733,-1.53624z" fill="#2e232e" stroke="none" stroke-width="0" stroke-linecap="butt"/><path d="M331.25534,187.52072l-4.52483,-45.77026" fill="none" stroke-opacity="0.16069" stroke="#40303f" stroke-width="2" stroke-linecap="round"/><path d="M343.10796,174.2136l-26.08137,2.57841" fill="none" stroke-opacity="0.16069" stroke="#40303f" stroke-width="2" stroke-linecap="round"/><path d="M316.1953,165.77161l26.59277,-2.62895" fill="none" stroke-opacity="0.16069" stroke="#40303f" stroke-width="2" stroke-linecap="round"/><path d="M314.57167,154.57141l26.84847,-2.65424" fill="none" stroke-opacity="0.16069" stroke="#40303f" stroke-width="2" stroke-linecap="round"/><path d="M308.32982,104.69323c0,0 -7.22016,5.40698 -10.94769,6.51676c-2.85646,0.85045 -9.50806,-0.42651 -9.50806,-0.42651l6.66421,-5.20541" fill="#44221f" stroke="#725771" stroke-width="0" stroke-linecap="round"/><path d="M313.16956,200.23437l0.64502,7.86381l-2.34212,2.01012l-3.84899,-0.38174l-4.27476,-2.11825l-12.23585,7.30766l-8.42227,-5.51947l-4.85549,-0.28223l-1.5595,-0.35399l-3.01951,0.29851l-2.23974,0.4755l-10.59312,0.79315l-2.69038,-1.51261l-6.74413,1.17489l-1.93837,0.95388l-5.04689,0.49895l-0.25668,3.84753l-2.39871,1.51119l-2.87006,-0.03479l-3.55969,-3.78877l-2.53063,6.62044l-2.90125,-0.35022l-1.98254,-3.94468l-4.06581,-2.46468l-7.28609,0.40179l-2.08328,1.48002l-5.67775,0.5613l-2.65179,2.17324l-2.30155,-0.72801l-4.73147,0.46775l-2.96361,-0.98108l-0.3742,-3.78516z" fill="url(#color-31)" stroke="#9e4138" stroke-width="0" stroke-linecap="round"/><path d="M205.02799,222.44908c-0.0857,-0.86691 0.54758,-1.63915 1.4145,-1.72484c0.86691,-0.0857 1.63915,0.54758 1.72484,1.4145c0.0857,0.86691 -0.54758,1.63915 -1.4145,1.72484c-0.86691,0.0857 -1.63915,-0.54758 -1.72484,-1.4145z" fill="url(#color-32)" stroke="none" stroke-width="0" stroke-linecap="butt"/><path d="M317.5487,188.42733c-0.76685,-7.75686 -3.77213,-38.15638 -4.27206,-43.21327c-0.13767,-1.39259 0.86305,-2.70053 2.04212,-2.8171c3.13599,-0.31003 17.53458,-1.73347 23.26867,-2.30034c1.46624,-0.14495 2.47133,0.83214 2.59671,2.10031c0.47143,4.76873 3.40074,34.39956 4.24678,42.95756c0.14478,1.4646 -0.51511,2.38553 -1.3703,2.47006c-2.83479,0.28025 -18.60725,1.8395 -24.2915,2.40145c-1.27502,0.12605 -2.10692,-0.45019 -2.22046,-1.59867z" fill="none" stroke="url(#color-33)" stroke-width="2.5" stroke-linecap="butt"/></g></g></g></svg>