<svg version="1.1" xmlns="http://www.w3.org/2000/svg" xmlns:xlink="http://www.w3.org/1999/xlink" width="219.65976" height="228.44252" viewBox="0,0,219.65976,228.44252"><defs><linearGradient x1="239.62567" y1="186.70345" x2="239.62567" y2="303.61003" gradientUnits="userSpaceOnUse" id="color-1"><stop offset="0" stop-color="#000000"/><stop offset="1" stop-color="#0f175d"/></linearGradient><linearGradient x1="239.73111" y1="203.9109" x2="239.73111" y2="289.89504" gradientUnits="userSpaceOnUse" id="color-2"><stop offset="0" stop-color="#000000"/><stop offset="1" stop-color="#e6caad"/></linearGradient><radialGradient cx="238.42693" cy="236.17769" r="8.50413" gradientUnits="userSpaceOnUse" id="color-3"><stop offset="0" stop-color="#5f0000"/><stop offset="1" stop-color="#5f0000" stop-opacity="0"/></radialGradient><radialGradient cx="240.00107" cy="223.00461" r="17.22688" gradientUnits="userSpaceOnUse" id="color-4"><stop offset="0" stop-color="#5f0000"/><stop offset="1" stop-color="#5f0000" stop-opacity="0"/></radialGradient><radialGradient cx="247.17123" cy="237.51168" r="20.39802" gradientUnits="userSpaceOnUse" id="color-5"><stop offset="0" stop-color="#5f0000"/><stop offset="1" stop-color="#5f0000" stop-opacity="0"/></radialGradient><radialGradient cx="240.83481" cy="255.52045" r="20.39802" gradientUnits="userSpaceOnUse" id="color-6"><stop offset="0" stop-color="#5f0000"/><stop offset="1" stop-color="#5f0000" stop-opacity="0"/></radialGradient><radialGradient cx="246.96988" cy="234.60836" r="8.50414" gradientUnits="userSpaceOnUse" id="color-7"><stop offset="0" stop-color="#5f0000"/><stop offset="1" stop-color="#5f0000" stop-opacity="0"/></radialGradient><radialGradient cx="239.06386" cy="230.64139" r="20.39802" gradientUnits="userSpaceOnUse" id="color-8"><stop offset="0" stop-color="#5f0000"/><stop offset="1" stop-color="#5f0000" stop-opacity="0"/></radialGradient><radialGradient cx="233.82239" cy="248.99877" r="20.39802" gradientUnits="userSpaceOnUse" id="color-9"><stop offset="0" stop-color="#5f0000"/><stop offset="1" stop-color="#5f0000" stop-opacity="0"/></radialGradient><linearGradient x1="259.44835" y1="190.08966" x2="259.44835" y2="305.25903" gradientUnits="userSpaceOnUse" id="color-10"><stop offset="0" stop-color="#000000"/><stop offset="1" stop-color="#6b6d91"/></linearGradient><linearGradient x1="260.12655" y1="238.07409" x2="260.12655" y2="251.09349" gradientUnits="userSpaceOnUse" id="color-11"><stop offset="0" stop-color="#000000"/><stop offset="1" stop-color="#919191"/></linearGradient><linearGradient x1="255.06725" y1="193.60392" x2="255.06725" y2="304.33963" gradientUnits="userSpaceOnUse" id="color-12"><stop offset="0" stop-color="#000000"/><stop offset="1" stop-color="#919191"/></linearGradient><linearGradient x1="222.43057" y1="188.03631" x2="222.43057" y2="303.20569" gradientUnits="userSpaceOnUse" id="color-13"><stop offset="0" stop-color="#000000"/><stop offset="1" stop-color="#6b6d91"/></linearGradient><linearGradient x1="221.75238" y1="236.02077" x2="221.75238" y2="249.04018" gradientUnits="userSpaceOnUse" id="color-14"><stop offset="0" stop-color="#000000"/><stop offset="1" stop-color="#919191"/></linearGradient><linearGradient x1="226.20865" y1="193.0582" x2="226.20865" y2="302.28632" gradientUnits="userSpaceOnUse" id="color-15"><stop offset="0" stop-color="#000000"/><stop offset="1" stop-color="#919191"/></linearGradient><linearGradient x1="158.41943" y1="240.08454" x2="208.88733" y2="84.3565" gradientUnits="userSpaceOnUse" id="color-16"><stop offset="0" stop-color="#000000"/><stop offset="1" stop-color="#0f175d"/></linearGradient><linearGradient x1="159.43919" y1="235.96324" x2="193.41273" y2="131.13161" gradientUnits="userSpaceOnUse" id="color-17"><stop offset="0" stop-color="#000000"/><stop offset="1" stop-color="#0f175d"/></linearGradient><linearGradient x1="178.13223" y1="265.79875" x2="206.63905" y2="177.83569" gradientUnits="userSpaceOnUse" id="color-18"><stop offset="0" stop-color="#000000"/><stop offset="1" stop-color="#0f175d"/></linearGradient><linearGradient x1="191.8024" y1="272.83343" x2="191.8024" y2="226.48615" gradientUnits="userSpaceOnUse" id="color-19"><stop offset="0" stop-color="#000000"/><stop offset="1" stop-color="#0f175d"/></linearGradient><linearGradient x1="193.70509" y1="262.56249" x2="193.70509" y2="230.37688" gradientUnits="userSpaceOnUse" id="color-20"><stop offset="0" stop-color="#000000"/><stop offset="1" stop-color="#e6caad"/></linearGradient><linearGradient x1="289.74494" y1="272.81601" x2="289.74494" y2="226.46874" gradientUnits="userSpaceOnUse" id="color-21"><stop offset="0" stop-color="#000000"/><stop offset="1" stop-color="#0f175d"/></linearGradient><linearGradient x1="287.84223" y1="262.54501" x2="287.84223" y2="230.3594" gradientUnits="userSpaceOnUse" id="color-22"><stop offset="0" stop-color="#000000"/><stop offset="1" stop-color="#e6caad"/></linearGradient><linearGradient x1="240.47852" y1="261.37088" x2="240.47852" y2="140.77422" gradientUnits="userSpaceOnUse" id="color-23"><stop offset="0" stop-color="#000000"/><stop offset="1" stop-color="#0f175d"/></linearGradient><linearGradient x1="239.81184" y1="183.91871" x2="239.81184" y2="141.91871" gradientUnits="userSpaceOnUse" id="color-24"><stop offset="0" stop-color="#000000"/><stop offset="1" stop-color="#e6caad"/></linearGradient><radialGradient cx="267.63537" cy="198.17644" r="3.95041" gradientUnits="userSpaceOnUse" id="color-25"><stop offset="0" stop-color="#c71c1b"/><stop offset="1" stop-color="#c71c1b" stop-opacity="0"/></radialGradient><radialGradient cx="267.66685" cy="197.97172" r="1.01373" gradientUnits="userSpaceOnUse" id="color-26"><stop offset="0" stop-color="#ffffff"/><stop offset="1" stop-color="#ffffff" stop-opacity="0"/></radialGradient><radialGradient cx="217.57422" cy="197.21941" r="3.95041" gradientUnits="userSpaceOnUse" id="color-27"><stop offset="0" stop-color="#c71c1b"/><stop offset="1" stop-color="#c71c1b" stop-opacity="0"/></radialGradient><radialGradient cx="217.6057" cy="197.01468" r="1.01373" gradientUnits="userSpaceOnUse" id="color-28"><stop offset="0" stop-color="#ffffff"/><stop offset="1" stop-color="#ffffff" stop-opacity="0"/></radialGradient></defs><g transform="translate(-94.99599,-77.82687)"><g data-paper-data="{&quot;isPaintingLayer&quot;:true}" fill-rule="nonzero" stroke-linejoin="miter" stroke-miterlimit="10" stroke-dasharray="" stroke-dashoffset="0" style="mix-blend-mode: normal"><g stroke-width="2"><path d="M220.72848,186.70345l40.56644,0.22537l11.12198,116.68122h-65.58245z" fill="url(#color-1)" stroke="#000000" stroke-linecap="round"/><path d="M226.69035,206.58181c0,0 8.42256,-2.69554 12.88609,-2.67074c4.82728,0.02681 15.07191,2.82604 15.07191,2.82604c0,0 5.4712,21.43641 6.62611,33.55266c1.36489,14.31922 1.03905,46.86297 1.03905,46.86297c0,0 -15.18032,2.74232 -22.73611,2.74232c-7.51022,0 -22.46271,-2.74232 -22.46271,-2.74232c0,0 0.14621,-30.07298 1.8099,-44.07168c1.51406,-12.73943 7.76572,-36.49925 7.76572,-36.49925z" fill="url(#color-2)" stroke="#000000" stroke-linecap="round"/><g stroke="none" stroke-linecap="butt"><path d="M246.26409,236.17769c0,4.6967 -3.50881,8.50414 -7.83716,8.50414c-4.32834,0 -7.83716,-3.80744 -7.83716,-8.50414c0,-4.6967 3.50881,-8.50414 7.83716,-8.50414c4.32834,0 7.83716,3.80744 7.83716,8.50414z" fill="url(#color-3)"/><path d="M244.76833,207.86154c3.79266,1.19398 4.73283,8.94168 2.09994,17.30497c-2.63288,8.36329 -7.84182,14.17517 -11.63447,12.98119c-3.79266,-1.19398 -4.73283,-8.94169 -2.09995,-17.30498c2.63288,-8.36329 7.84182,-14.17516 11.63448,-12.98117z" fill="url(#color-4)"/><path d="M235.60542,238.33676c-1.37539,-10.29042 2.6878,-19.00189 9.07541,-19.45757c6.3876,-0.45568 12.68078,7.51699 14.05619,17.80741c1.37539,10.29042 -2.6878,19.0019 -9.0754,19.45757c-6.3876,0.45567 -12.68079,-7.51698 -14.05618,-17.80742z" data-paper-data="{&quot;index&quot;:null}" fill="url(#color-5)"/><path d="M243.32519,236.88796c6.3876,0.45567 10.45081,9.16714 9.07541,19.45757c-1.37539,10.29044 -7.66859,18.26308 -14.05618,17.80741c-6.3876,-0.45567 -10.45082,-9.16714 -9.0754,-19.45757c1.37539,-10.29044 7.66858,-18.26308 14.05619,-17.80741z" data-paper-data="{&quot;index&quot;:null}" fill="url(#color-6)"/><path d="M251.88647,227.6695c3.53164,2.5024 4.1934,7.63759 1.47805,11.46982c-2.71535,3.83221 -7.77956,4.91029 -11.31121,2.40789c-3.53164,-2.50239 -4.1934,-7.63761 -1.47805,-11.46982c2.71535,-3.83221 7.77957,-4.91028 11.31121,-2.40789z" data-paper-data="{&quot;index&quot;:null}" fill="url(#color-7)"/><path d="M226.25968,244.40456c-4.94843,-4.06472 -3.22733,-13.52182 3.84421,-21.12301c7.07155,-7.60118 16.81569,-10.46805 21.76414,-6.40333c4.94845,4.06472 3.22735,13.52184 -3.84421,21.12302c-7.07155,7.60119 -16.81571,10.46804 -21.76416,6.40332z" data-paper-data="{&quot;index&quot;:null}" fill="url(#color-8)"/><path d="M243.73639,255.01218c-4.82704,9.19153 -13.17882,13.95047 -18.65415,10.62934c-5.47533,-3.32113 -6.00087,-13.46466 -1.17382,-22.65619c4.82704,-9.19153 13.17882,-13.95045 18.65417,-10.62933c5.47533,3.32111 6.00086,13.46464 1.1738,22.65617z" data-paper-data="{&quot;index&quot;:null}" fill="url(#color-9)"/></g><g data-paper-data="{&quot;index&quot;:null}"><path d="M273.13737,305.09904l-13.79128,0.15999l-13.58676,-114.34165l14.36159,-0.82773l1.04955,8.19084l10.98607,88.31813z" data-paper-data="{&quot;index&quot;:null}" fill="url(#color-10)" stroke="#000000" stroke-linecap="round"/><path d="M253.91491,251.09349l-1.21375,-11.59145l13.63702,-1.42795l1.21376,11.59144z" fill="url(#color-11)" stroke="none" stroke-linecap="butt"/><path d="M260.39186,304.33963l-14.04892,-110.29671l3.39966,-0.43901l14.04894,110.59821z" fill="url(#color-12)" stroke="none" stroke-linecap="butt"/></g><path d="M209.72239,284.54526l10.98608,-88.31812l3.16016,-8.19084l12.25098,0.82773l-13.58679,114.34166l-13.79128,-0.15994z" data-paper-data="{&quot;index&quot;:null}" fill="url(#color-13)" stroke="#000000" stroke-linecap="round"/><path d="M214.327,247.61222l1.21376,-11.59145l13.63701,1.42795l-1.21375,11.59146z" fill="url(#color-14)" stroke="none" stroke-linecap="butt"/><path d="M217.48436,301.84731l14.04894,-108.78911l3.39964,0.43902l-14.04892,108.78911z" fill="url(#color-15)" stroke="none" stroke-linecap="butt"/><path d="M220.06709,223.02872l6.7999,-8.33246" fill="none" stroke="#ff0000" stroke-linecap="round"/><path d="M225.97414,223.44174l-4.05542,-10.1436" fill="none" stroke="#ff0000" stroke-linecap="round"/></g><path d="M165.53536,83.26896c0,0 5.90977,25.27915 20.80602,37.93635c14.5564,12.36843 52.74142,21.84798 52.74142,21.84798l-35.05325,109.81567c0,0 -65.03316,-71.41714 -65.07884,-86.68587c-0.098,-32.75839 26.58466,-82.91414 26.58466,-82.91414z" data-paper-data="{&quot;index&quot;:null}" fill="url(#color-16)" stroke="#000000" stroke-width="2" stroke-linecap="butt"/><path d="M115.81804,120.44591c0,0 36.49544,29.58779 52.14883,40.49599c22.33103,15.56156 47.19953,-16.8048 47.19953,-16.8048l19.9534,113.03924c0,0 -97.14159,-37.61275 -104.34289,-51.33438c-15.45004,-29.43915 -14.95887,-85.39606 -14.95887,-85.39606z" data-paper-data="{&quot;index&quot;:null}" fill="url(#color-17)" stroke="#000000" stroke-width="2" stroke-linecap="butt"/><path d="M95.99599,206.93131c0,0 52.18307,7.37578 71.69731,8.62231c27.83891,1.7783 32.00423,-39.66362 32.00423,-39.66362l84.71263,77.15373c0,0 -109.98329,15.36818 -124.04607,7.48846c-30.17106,-16.90559 -64.36811,-53.60089 -64.36811,-53.60089z" data-paper-data="{&quot;index&quot;:null}" fill="url(#color-18)" stroke="#000000" stroke-width="2" stroke-linecap="butt"/><g data-paper-data="{&quot;index&quot;:null}" stroke="#000000" stroke-width="2" stroke-linecap="round"><g><path d="M214.97603,252.23464l-46.34726,20.59879l16.73652,-46.34728z" fill="url(#color-19)"/><path d="M209.7979,248.25776l-32.18562,14.30473l11.62259,-32.18561z" fill="url(#color-20)"/></g><g data-paper-data="{&quot;index&quot;:null}"><path d="M296.18205,226.46874l16.73652,46.34727l-46.34726,-20.5988z" fill="url(#color-21)"/><path d="M292.31245,230.3594l11.62257,32.18561l-32.18559,-14.30472z" fill="url(#color-22)"/></g></g><path d="M240.47852,140.77422c35.47712,0 64.23702,26.99648 64.23702,60.29833c0,33.30184 -28.7599,60.29833 -64.23702,60.29833c-35.47712,0 -64.23702,-26.99648 -64.23702,-60.29833c0,-33.30184 28.7599,-60.29833 64.23702,-60.29833z" data-paper-data="{&quot;index&quot;:null}" fill="url(#color-23)" stroke="#000000" stroke-width="2" stroke-linecap="butt"/><path d="M296.47851,171.9187c0,7.19691 -15.35545,1.88159 -29.10878,5.66552c-8.41044,2.31396 -16.59016,6.33448 -27.55789,6.33448c-7.23529,0 -11.79432,-4.25585 -18.06203,-5.32117c-18.76999,-3.19034 -38.60464,1.34916 -38.60464,-7.34549c0,-11.59798 27.76377,-29.33333 56.66667,-29.33333c28.90291,0 56.66667,18.40202 56.66667,30z" data-paper-data="{&quot;index&quot;:null}" fill="url(#color-24)" stroke="#000000" stroke-width="2" stroke-linecap="butt"/><path d="M240.97851,186.25203c-2.20914,0 -4,-1.79086 -4,-4c0,-2.20914 1.79086,-4 4,-4c2.20914,0 4,1.79086 4,4c0,2.20914 -1.79086,4 -4,4z" data-paper-data="{&quot;index&quot;:null}" fill="#000000" stroke="#000000" stroke-width="2" stroke-linecap="butt"/><g data-paper-data="{&quot;index&quot;:null}" stroke-width="2"><g data-paper-data="{&quot;index&quot;:null}" fill="#000000" stroke="#000000" stroke-linecap="butt"><path d="M245.94472,201.60195c0.54004,-12.80882 11.2606,-22.7589 23.94508,-22.22411c12.68447,0.5348 22.52947,11.35196 21.98942,24.16078c-0.54005,12.8088 -11.26062,22.7589 -23.9451,22.2241c-12.68447,-0.5348 -22.52946,-11.35195 -21.98941,-24.16079z"/><path d="M269.38799,188.60503c7.89672,0.33293 14.03259,6.90361 13.70489,14.67593c-0.32769,7.77235 -6.99488,13.80315 -14.89159,13.47021c-7.89672,-0.33294 -14.03261,-6.90354 -13.70491,-14.67589c0.32769,-7.77236 6.9949,-13.80319 14.89161,-13.47025z"/></g><path d="M280.31828,175.59457l-0.93333,6.3027" data-paper-data="{&quot;index&quot;:null}" fill="none" stroke="#000000" stroke-linecap="round"/><path d="M272.88842,173.35165l-0.62822,6.98315" data-paper-data="{&quot;index&quot;:null}" fill="none" stroke="#000000" stroke-linecap="round"/><path d="M257.53567,182.27864l1.0356,-16.64594" data-paper-data="{&quot;index&quot;:null}" fill="none" stroke="#000000" stroke-linecap="round"/><path d="M265.46964,172.763l-0.23882,5.6644" data-paper-data="{&quot;index&quot;:null}" fill="none" stroke="#000000" stroke-linecap="round"/><g stroke="none" stroke-linecap="butt"><path d="M267.50376,194.22819c2.18056,-0.07268 4.00714,1.63609 4.07981,3.81665c0.07268,2.18057 -1.63608,4.00714 -3.81664,4.07981c-2.18055,0.07268 -4.00713,-1.63608 -4.0798,-3.81664c-0.07267,-2.18056 1.63607,-4.00715 3.81663,-4.07982z" fill="url(#color-25)"/><path d="M269.20807,197.92644c0.02906,0.87221 -0.65443,1.60284 -1.52665,1.63191c-0.87223,0.02907 -1.60287,-0.65443 -1.63194,-1.52665c-0.02907,-0.87223 0.65446,-1.60287 1.52668,-1.63194c0.87222,-0.02906 1.60285,0.65445 1.63192,1.52667z" fill="#c71c1b"/><path d="M266.65366,198.00547c-0.01864,-0.55954 0.41984,-1.02827 0.97941,-1.04692c0.55956,-0.01865 1.02829,0.41982 1.04694,0.97939c0.01864,0.55955 -0.41983,1.02829 -0.9794,1.04694c-0.55955,0.01865 -1.02829,-0.41983 -1.04694,-0.9794z" fill="url(#color-26)"/></g></g><g data-paper-data="{&quot;index&quot;:null}" fill="none" stroke="none" stroke-width="1" stroke-linecap="butt" font-family="sans-serif" font-weight="normal" font-size="12" text-anchor="start"><g/><g data-paper-data="{&quot;index&quot;:null}"/></g><g data-paper-data="{&quot;index&quot;:null}" stroke-width="2" stroke-linecap="round"><path d="M204.57634,151.63393c0,0 75.70546,-9.99832 90.77501,-6.71207c9.38094,2.04572 -6.72465,24.12436 -6.72465,24.12436l-9.99194,-8.33762z" fill="#7d714d" stroke="#000000"/><path d="M223.21287,150.38296l4.8791,3.31271l16.69353,-5.05003l9.48966,6.8199l17.75023,-8.35871l4.39119,10.90449l16.6657,-9.13811l-5.0056,17.71152" fill="none" stroke="#4e4528"/></g><g data-paper-data="{&quot;index&quot;:null}" stroke-width="2"><path d="M194.02545,200.47233c0.54003,-12.80882 11.26062,-22.75888 23.94509,-22.22408c12.68448,0.5348 22.52948,11.35194 21.98943,24.16077c-0.54006,12.8088 -11.26063,22.75889 -23.9451,22.22409c-12.68446,-0.5348 -22.52947,-11.35196 -21.98942,-24.1608z" data-paper-data="{&quot;index&quot;:null}" fill="#000000" stroke="#000000" stroke-linecap="butt"/><path d="M201.8694,177.63267l0.44162,5.35929" data-paper-data="{&quot;index&quot;:null}" fill="none" stroke="#000000" stroke-linecap="round"/><path d="M209.05368,178.7526l-0.6765,-7.70575" data-paper-data="{&quot;index&quot;:null}" fill="none" stroke="#000000" stroke-linecap="round"/><path d="M219.37744,177.52025l0.25287,-5.9976" data-paper-data="{&quot;index&quot;:null}" fill="none" stroke="#000000" stroke-linecap="round"/><path d="M229.1706,184.58823l-0.36743,-15.03613" data-paper-data="{&quot;index&quot;:null}" fill="none" stroke="#000000" stroke-linecap="round"/><g stroke="none" stroke-linecap="butt"><path d="M217.44261,193.27116c2.18056,-0.07268 4.00714,1.63609 4.07981,3.81665c0.07268,2.18057 -1.63608,4.00714 -3.81664,4.07981c-2.18055,0.07268 -4.00713,-1.63608 -4.0798,-3.81664c-0.07267,-2.18056 1.63607,-4.00715 3.81663,-4.07982z" fill="url(#color-27)"/><path d="M219.14692,196.96941c0.02906,0.87221 -0.65443,1.60284 -1.52665,1.63191c-0.87223,0.02907 -1.60287,-0.65443 -1.63194,-1.52665c-0.02907,-0.87223 0.65446,-1.60287 1.52668,-1.63194c0.87222,-0.02906 1.60285,0.65445 1.63192,1.52667z" fill="#c71c1b"/><path d="M216.59252,197.04843c-0.01864,-0.55954 0.41984,-1.02827 0.97941,-1.04692c0.55956,-0.01865 1.02829,0.41982 1.04694,0.97939c0.01864,0.55955 -0.41983,1.02829 -0.9794,1.04694c-0.55955,0.01865 -1.02829,-0.41983 -1.04694,-0.9794z" fill="url(#color-28)"/></g></g></g></g></svg>