<svg version="1.1" xmlns="http://www.w3.org/2000/svg" xmlns:xlink="http://www.w3.org/1999/xlink" width="153.07144" height="285.21044" viewBox="0,0,153.07144,285.21044"><g transform="translate(-163.46428,-32.22096)"><g data-paper-data="{&quot;isPaintingLayer&quot;:true}" fill-rule="nonzero" stroke-linejoin="miter" stroke-miterlimit="10" stroke-dasharray="" stroke-dashoffset="0" style="mix-blend-mode: normal"><path d="M206.29232,307.6391l15.14285,-131.8421l37.78325,-0.15789l13.57389,132z" fill="#000000" stroke="#000000" stroke-width="2" stroke-linecap="butt"/><path d="M242.64683,201.15962l5.67771,27.72055l-7.51461,10.85443l-7.68159,-10.52045l5.60621,-27.98305z" fill="#ffffff" stroke="#ffffff" stroke-width="2" stroke-linecap="round"/><path d="M250.16144,188.66044l-7.44708,8.88771l-4.27948,-0.01859l-8.31239,-9.03612z" fill="#ffffff" stroke="#ffffff" stroke-width="2" stroke-linecap="round"/><path d="M175.38223,133.10887c0,-33.30185 28.7599,-60.29833 64.23702,-60.29833c35.47712,0 64.23702,26.99649 64.23702,60.29833c0,33.30185 -28.7599,60.29833 -64.23702,60.29833c-35.47712,0 -64.23702,-26.99649 -64.23702,-60.29833z" fill="#000000" stroke="#000000" stroke-width="2" stroke-linecap="butt"/><path d="M188.93244,133.53834c0,-12.968 10.51265,-23.48065 23.48065,-23.48065c12.968,0 23.48065,10.51265 23.48065,23.48065c0,12.968 -10.51265,23.48065 -23.48065,23.48065c-12.968,0 -23.48065,-10.51265 -23.48065,-23.48065z" fill="#ffffff" stroke="#000000" stroke-width="2" stroke-linecap="butt"/><path d="M195.99783,133.26271c0,-9.12808 7.39976,-16.52784 16.52783,-16.52784c9.12808,0 16.52784,7.39977 16.52784,16.52784c0,9.12808 -7.39977,16.52784 -16.52784,16.52784c-9.12808,0 -16.52783,-7.39977 -16.52783,-16.52784z" fill="#000000" stroke="none" stroke-width="0" stroke-linecap="butt"/><path d="M227.04932,176.7956h25.10959" fill="none" stroke="#000000" stroke-width="2" stroke-linecap="round"/><path d="M266.67152,157.01899c-12.968,0 -23.48065,-10.51265 -23.48065,-23.48065c0,-12.968 10.51265,-23.48065 23.48065,-23.48065c12.968,0 23.48065,10.51265 23.48065,23.48065c0,12.968 -10.51265,23.48065 -23.48065,23.48065z" data-paper-data="{&quot;index&quot;:null}" fill="#ffffff" stroke="#000000" stroke-width="2" stroke-linecap="butt"/><path d="M266.55896,149.79056c-9.12807,0 -16.52783,-7.39977 -16.52783,-16.52784c0,-9.12808 7.39977,-16.52784 16.52783,-16.52784c9.12807,0 16.52783,7.39977 16.52783,16.52784c0,9.12808 -7.39977,16.52784 -16.52783,16.52784z" data-paper-data="{&quot;index&quot;:null}" fill="#000000" stroke="none" stroke-width="0" stroke-linecap="butt"/><path d="M315.53572,92.95051c0,11.69732 -33.8185,21.17989 -75.53572,21.17989c-41.71723,0 -75.53572,-9.48255 -75.53572,-21.17988c0,-11.69732 33.8185,-21.17988 75.53572,-21.17988c41.71723,0 75.53572,9.48255 75.53572,21.17989z" fill="#000000" stroke="#000000" stroke-width="2" stroke-linecap="butt"/><path d="M193.52759,82.98734l0.57654,-38.57998c0,0 11.1085,-9.89048 45.6775,-10.08224c34.91573,-0.19369 47.14524,9.2785 47.14524,9.2785l-0.57654,38.17811z" fill="#000000" stroke="#000000" stroke-width="2" stroke-linecap="round"/><path d="M227.50713,176.65648h25.10959" fill="none" stroke="#000000" stroke-width="2" stroke-linecap="round"/><path d="M189.39013,133.06587c0,-12.96801 10.51265,-23.48065 23.48066,-23.48065c12.96801,0 23.48065,10.51264 23.48065,23.48065c0,0 -7.7034,-14.393 -23.92315,-14.28244c-15.92464,0.10855 -23.03816,14.89048 -23.03816,14.28244z" fill="#000000" stroke="#000000" stroke-width="2" stroke-linecap="butt"/><path d="M267.57173,119.11677c-16.21975,-0.11056 -23.92315,14.28244 -23.92315,14.28244c0,-12.96801 10.51264,-23.48065 23.48065,-23.48065c12.96801,0 23.48066,10.51264 23.48066,23.48065c0,0.60804 -7.11352,-14.17389 -23.03816,-14.28244z" data-paper-data="{&quot;index&quot;:null}" fill="#000000" stroke="#000000" stroke-width="2" stroke-linecap="butt"/><path d="M179.28375,317.43141v-285.21044h123.18203v285.21044z" fill="none" stroke="none" stroke-width="0" stroke-linecap="butt"/></g></g></svg>