<svg version="1.1" xmlns="http://www.w3.org/2000/svg" xmlns:xlink="http://www.w3.org/1999/xlink" width="34.67311" height="34.67311" viewBox="0,0,34.67311,34.67311"><defs><linearGradient x1="240.41908" y1="167.22604" x2="240.41908" y2="188.99089" gradientUnits="userSpaceOnUse" id="color-1"><stop offset="0" stop-color="#27201d"/><stop offset="1" stop-color="#584941"/></linearGradient><linearGradient x1="240.47591" y1="181.71103" x2="240.47591" y2="193.72523" gradientUnits="userSpaceOnUse" id="color-2"><stop offset="0" stop-color="#2e2a29"/><stop offset="1" stop-color="#615957"/></linearGradient></defs><g transform="translate(-222.66345,-162.66345)"><g data-paper-data="{&quot;isPaintingLayer&quot;:true}" stroke-linecap="round" stroke-miterlimit="10" stroke-dasharray="" stroke-dashoffset="0" style="mix-blend-mode: normal"><path d="M229.98313,162.91346h20.03378c3.9166,0 7.06966,3.15307 7.06966,7.06966v20.03379c0,3.91659 -3.15307,7.06966 -7.06966,7.06966h-20.03378c-3.91659,0 -7.06967,-3.15307 -7.06967,-7.06966c0,0 0,-7.18141 0,-10.61384c0,-3.23363 0,-9.41995 0,-9.41995c0,-3.91659 3.15308,-7.06966 7.06967,-7.06966z" fill="#000000" fill-rule="evenodd" stroke="#615956" stroke-width="0.5" stroke-linejoin="round"/><path d="M231.66961,182.02614l4.87533,-14.8001l2.08943,15.14834l2.26354,0.87059l0.95765,-1.21883l1.30589,-14.36481l6.0071,14.36481l-14.88716,6.96475z" fill="url(#color-1)" fill-rule="nonzero" stroke="#000000" stroke-width="0" stroke-linejoin="miter"/><path d="M249.44304,182.23338l-0.34824,11.49185h-17.49895l-0.08706,-12.0142z" fill="url(#color-2)" fill-rule="nonzero" stroke="#000000" stroke-width="0" stroke-linejoin="miter"/></g></g></svg>