<svg version="1.1" xmlns="http://www.w3.org/2000/svg" xmlns:xlink="http://www.w3.org/1999/xlink" width="34.17311" height="34.17311" viewBox="0,0,34.17311,34.17311"><defs><linearGradient x1="240.00001" y1="162.91346" x2="240.00001" y2="197.0866" gradientUnits="userSpaceOnUse" id="color-1"><stop offset="0" stop-color="#361a1a"/><stop offset="1" stop-color="#1d3047"/></linearGradient><linearGradient x1="239.82502" y1="175.24131" x2="239.82502" y2="186.23757" gradientUnits="userSpaceOnUse" id="color-2"><stop offset="0" stop-color="#700909"/><stop offset="1" stop-color="#2a0000"/></linearGradient></defs><g transform="translate(-222.91345,-162.91345)"><g data-paper-data="{&quot;isPaintingLayer&quot;:true}" stroke-miterlimit="10" stroke-dasharray="" stroke-dashoffset="0" style="mix-blend-mode: normal"><path d="M229.98312,162.91346h20.03379c3.9166,0 7.06966,3.15307 7.06966,7.06966v20.03379c0,3.91659 -3.15306,7.06966 -7.06966,7.06966h-20.03379c-3.91659,0 -7.06966,-3.15307 -7.06966,-7.06966v-20.03379c0,-3.91659 3.15307,-7.06966 7.06966,-7.06966z" fill="url(#color-1)" fill-rule="evenodd" stroke="none" stroke-width="4.43922" stroke-linecap="round" stroke-linejoin="round"/><path d="M224.45002,186.23755v-6.125h3.25v-4.75l24.37426,-0.12126l0.12574,4.74626l3,0.125v6.125z" fill="#ff4b4b" fill-rule="nonzero" stroke="#000000" stroke-width="2.5" stroke-linecap="butt" stroke-linejoin="miter"/><path d="M224.45002,186.23757v-6.125h3.25v-4.75l24.37426,-0.12126l0.12574,4.74626l3,0.125v6.125z" fill="url(#color-2)" fill-rule="nonzero" stroke="none" stroke-width="0" stroke-linecap="butt" stroke-linejoin="miter"/><path d="M244.66286,179.66946l-8.30557,0.17326c0,0 0.3541,-4.0038 0.4101,-4.52527l7.63151,-0.03797c-0.0008,1.60838 0.26396,4.38998 0.26396,4.38998z" fill="#595959" fill-rule="nonzero" stroke="none" stroke-width="0" stroke-linecap="butt" stroke-linejoin="miter"/></g></g></svg>