<svg version="1.1" xmlns="http://www.w3.org/2000/svg" xmlns:xlink="http://www.w3.org/1999/xlink" width="34.67311" height="34.67311" viewBox="0,0,34.67311,34.67311"><defs><radialGradient cx="219.71853" cy="182.47704" r="5.9622" gradientUnits="userSpaceOnUse" id="color-1"><stop offset="0" stop-color="#000000"/><stop offset="1" stop-color="#2f0b05"/></radialGradient><linearGradient x1="240.00002" y1="178.9289" x2="240.00002" y2="181.07114" gradientUnits="userSpaceOnUse" id="color-2"><stop offset="0" stop-color="#800000"/><stop offset="1" stop-color="#ff0000"/></linearGradient></defs><g transform="translate(-222.66347,-162.66346)"><g data-paper-data="{&quot;isPaintingLayer&quot;:true}" stroke-miterlimit="10" stroke-dasharray="" stroke-dashoffset="0" style="mix-blend-mode: normal"><path d="M229.98313,162.91346h20.03379c3.9166,0 7.06966,3.15307 7.06966,7.06966v20.03379c0,3.91659 -3.15306,7.06966 -7.06966,7.06966h-20.03379c-3.91659,0 -7.06966,-3.15307 -7.06966,-7.06966v-20.03379c0,-3.91659 3.15307,-7.06966 7.06966,-7.06966z" fill="#000000" fill-rule="evenodd" stroke="#ff0000" stroke-width="0.5" stroke-linecap="round" stroke-linejoin="round"/><path d="" data-paper-data="{&quot;index&quot;:null}" fill="url(#color-1)" fill-rule="nonzero" stroke="#000000" stroke-width="1" stroke-linecap="butt" stroke-linejoin="miter"/><path d="" fill="none" fill-rule="nonzero" stroke="#000000" stroke-width="0.25" stroke-linecap="round" stroke-linejoin="miter"/><path d="" fill="#000000" fill-rule="nonzero" stroke="none" stroke-width="0" stroke-linecap="butt" stroke-linejoin="miter"/><path d="M253.40375,180.26194c0,0 -2.17749,-1.08814 -5.09509,-0.86662c-3.08918,0.23454 -6.99174,1.7767 -9.41123,1.6706c-2.18425,-0.09577 -5.04871,-1.53148 -7.52082,-1.95947c-2.61587,-0.45287 -4.78031,0.10353 -4.78031,0.10353" fill="none" fill-rule="nonzero" stroke="url(#color-2)" stroke-width="2" stroke-linecap="round" stroke-linejoin="miter"/></g></g></svg>