<svg version="1.1" xmlns="http://www.w3.org/2000/svg" xmlns:xlink="http://www.w3.org/1999/xlink" width="35.12501" height="35.12433" viewBox="0,0,35.12501,35.12433"><g transform="translate(-222.4375,-162.43783)"><g data-paper-data="{&quot;isPaintingLayer&quot;:true}" stroke-linecap="round" stroke-miterlimit="10" stroke-dasharray="" stroke-dashoffset="0" style="mix-blend-mode: normal"><path d="M229.50717,162.43784h20.03378c3.9166,0 7.06966,3.15307 7.06966,7.06966v20.03379c0,3.91659 -3.15307,7.06966 -7.06966,7.06966h-20.03378c-3.91659,0 -7.06967,-3.15307 -7.06967,-7.06966c0,0 0,-7.18141 0,-10.61384c0,-3.23363 0,-9.41995 0,-9.41995c0,-3.91659 3.15308,-7.06966 7.06967,-7.06966z" fill="#8f4445" fill-rule="evenodd" stroke="none" stroke-width="4.43922" stroke-linejoin="round"/><path d="M232.58914,169.50456l15.21446,0.07802l0.27308,6.1248l-8.62153,-2.57476l-6.70997,2.45772z" fill="#8f4445" fill-rule="nonzero" stroke="#000000" stroke-width="0.5" stroke-linejoin="miter"/><path d="M228.33292,192.69497l1.13073,-22.40894c0,0 5.86111,-5.11729 10.38213,-5.13967c4.52102,-0.02238 10.38213,5.03687 10.38213,5.03687l1.43911,22.82012l-4.21453,1.85028l-0.51397,-23.43688l-6.68157,-1.85028l-7.40112,2.15866l-0.10279,23.1285z" fill="#8f4445" fill-rule="nonzero" stroke="#000000" stroke-width="0.5" stroke-linejoin="miter"/><path d="M257.5625,169.8317v20.49804c0,4.00745 -3.22497,7.23243 -7.23242,7.23243h-20.5c-3.66107,0 -6.66147,-2.69385 -7.1543,-6.21484c0.7952,3.03475 3.54108,5.26367 6.83204,5.26367h20.0332c3.9166,0 7.07032,-3.15372 7.07032,-7.07031v-20.03321c0,-3.2976 -2.23906,-6.0451 -5.28321,-6.83398c3.52994,0.48496 6.23438,3.49081 6.23438,7.15821z" fill-opacity="0.29839" fill="#000000" fill-rule="evenodd" stroke="none" stroke-width="4.54219" stroke-linejoin="round"/></g></g></svg>