<svg version="1.1" xmlns="http://www.w3.org/2000/svg" xmlns:xlink="http://www.w3.org/1999/xlink" width="161.0552" height="267.22501" viewBox="0,0,161.0552,267.22501"><defs><linearGradient x1="240.00003" y1="175.50001" x2="240.00003" y2="307.50001" gradientUnits="userSpaceOnUse" id="color-1"><stop offset="0" stop-color="#1a110e"/><stop offset="1" stop-color="#5d3d27"/></linearGradient><linearGradient x1="239.01404" y1="61.20502" x2="239.01404" y2="206.73205" gradientUnits="userSpaceOnUse" id="color-2"><stop offset="0" stop-color="#19110c"/><stop offset="1" stop-color="#714a2f"/></linearGradient><radialGradient cx="308.88226" cy="144.58805" r="12.58194" gradientUnits="userSpaceOnUse" id="color-3"><stop offset="0" stop-color="#ffe902"/><stop offset="1" stop-color="#6a6101"/></radialGradient></defs><g transform="translate(-160.37936,-46.38751)"><g data-paper-data="{&quot;isPaintingLayer&quot;:true}" fill-rule="nonzero" stroke-linejoin="miter" stroke-miterlimit="10" stroke-dasharray="" stroke-dashoffset="0" style="mix-blend-mode: normal"><path d="M179.28373,313.61252v-267.22501h123.18203v267.22501z" fill-opacity="0.01" fill="#000000" stroke="none" stroke-width="0" stroke-linecap="butt"/><path d="M206.75004,307.5l15.14285,-131.8421l37.78325,-0.15789l13.57389,132z" fill="url(#color-1)" stroke="#000000" stroke-width="0" stroke-linecap="butt"/><g><g><g><path d="M161.49762,133.96853c0,-40.18618 34.7053,-72.76351 77.51643,-72.76351c42.81113,0 77.51643,32.57734 77.51643,72.76351c0,40.18618 -34.7053,72.76352 -77.51643,72.76352c-42.81113,0 -77.51643,-32.57735 -77.51643,-72.76352z" fill="url(#color-2)" stroke="#000000" stroke-width="0" stroke-linecap="butt"/><path d="M194.44537,102.75585c0,0 5.81363,-1.44937 12.03533,-2.54829c8.46329,-1.49487 12.99647,-0.14076 12.99647,-0.14076l3.50446,69.01858c0,0 -6.12671,1.7927 -9.51208,1.7927c-4.37046,0 -15.01908,-1.7927 -15.01908,-1.7927z" fill="none" stroke="#36251c" stroke-width="2.5" stroke-linecap="round"/><path d="M273.53233,98.795c6.69378,0.56502 8.52435,1.72001 8.52435,1.72001l-1.00127,66.77769c0,0 -7.91133,0.89636 -11.51462,0.89636c-3.18766,0 -9.01145,-0.89636 -9.01145,-0.89636l3.50445,-69.01855c0,0 5.01329,0.14225 9.49856,0.52085z" fill="none" stroke="#36251c" stroke-width="2.5" stroke-linecap="round"/><path d="M170.11634,112.11746l0.64526,-3.01123" fill="none" stroke="#000000" stroke-width="1.5" stroke-linecap="round"/><path d="M170.7616,110.82694l3.44142,3.44141" fill="none" stroke="#000000" stroke-width="1.5" stroke-linecap="round"/><path d="M167.32021,118.5701l2.79615,-0.21511l1.72071,1.29053" fill="none" stroke="#000000" stroke-width="1.5" stroke-linecap="round"/><path d="M163.23353,128.8943l3.01122,-2.36596l-0.64526,3.2263l1.29053,0.21508v3.01123l2.36596,0.43017" fill="none" stroke="#000000" stroke-width="1.5" stroke-linecap="round"/><path d="M163.23353,136.63746l1.72071,-0.64526l1.93579,2.58106" fill="none" stroke="#000000" stroke-width="1.5" stroke-linecap="round"/><path d="M164.52407,147.39186l-0.43018,2.79614l-1.50561,0.43017" fill="none" stroke="#000000" stroke-width="1.5" stroke-linecap="round"/><path d="M164.52407,155.56521l1.93578,-0.64528l1.29053,1.72071" fill="none" stroke="#000000" stroke-width="1.5" stroke-linecap="round"/><path d="M174.6332,168.04031l-1.50562,-1.29053l-4.51685,-0.64528l2.15088,-1.93578l0.86035,-2.15088l0.21508,-3.01123v-2.36595l3.2263,-3.22632" fill="none" stroke="#000000" stroke-width="1.5" stroke-linecap="round"/><path d="M170.54653,169.54591l1.07543,-2.15088" fill="none" stroke="#000000" stroke-width="1.5" stroke-linecap="round"/><path d="M296.27066,147.77224c0,-6.9488 5.63312,-12.58194 12.58195,-12.58194c6.94882,0 12.58195,5.63312 12.58195,12.58194c0,6.9488 -5.63312,12.58194 -12.58195,12.58194c-6.94881,0 -12.58195,-5.63312 -12.58195,-12.58194z" fill="url(#color-3)" stroke="#f6c002" stroke-width="0" stroke-linecap="butt"/><path d="M168.95161,159.79922c0,0 1.53822,3.71127 2.48881,5.30999c0.78284,1.3166 2.80977,3.60126 2.80977,3.60126l-3.85352,2.16761c0,0 -1.97079,-3.06492 -2.66876,-4.54291c-0.66528,-1.40879 -1.42561,-4.12749 -1.42561,-4.12749z" fill="#b4b3b4" stroke="#b6b4b2" stroke-width="0.5" stroke-linecap="round"/><path d="M163.41219,155.22316c0,0 -1.27526,-3.25767 -1.64214,-4.84751c-0.35527,-1.53951 -0.52545,-4.54544 -0.52545,-4.54544l4.1974,-0.65429c0,0 -0.12216,3.21837 0.14527,4.79378c0.25999,1.5316 1.4376,4.53092 1.4376,4.53092l-3.61267,0.72254z" fill="#b4b3b4" stroke="#b6b4b2" stroke-width="0.5" stroke-linecap="round"/><path d="M164.63127,125.3584c0,0 -0.52366,3.61772 -0.56604,5.35492c-0.03725,1.52721 0.32518,4.51972 0.32518,4.51972h-3.85352c0,0 -0.2394,-0.19427 -0.22096,-5.31573c0.01242,-3.4503 0.46179,-4.31806 0.46179,-4.31806z" fill="#b4b3b4" stroke="#b6b4b2" stroke-width="0.5" stroke-linecap="round"/><path d="M232.67121,69.12998c1.3439,-0.58119 3.82724,-3.03144 5.31839,-3.08974c1.92769,-0.8801 4.15661,-2.49 5.75217,-3.46473c0.12287,-0.12287 0.23176,-0.25999 0.33049,-0.40382c0.02102,-0.23046 0.26198,-0.23046 0.26198,-0.23046c1.26169,0 4.12154,-0.12845 4.87965,1.11219c0.01967,0.02073 0.03363,0.04275 0.04327,0.06505l0.08604,0.06905c0,0 0.18628,0.18627 0,0.37255c-0.09011,0.0901 -0.18022,0.09305 -0.24925,0.07203c-1.08409,1.91682 -2.71756,2.3764 -4.64191,3.33856c-1.41691,0.67652 -5.92045,1.45999 -6.66773,2.88623c-2.15481,0.80458 -4.20701,2.95463 -6.16441,3.1334c-0.40818,-0.01241 -0.70406,0.22368 -0.9814,0.50591c0.73344,0.8845 4.18439,1.30549 5.21949,1.30549c2.20027,0.04394 5.72251,0.38894 7.70019,1.33534c2.58906,0.85991 5.85946,0.22891 8.28979,1.4484c1.6405,-0.0203 7.18858,0.5318 7.21773,2.59466c-0.03881,1.94284 -5.20042,2.61075 -6.65149,2.59829c-0.76303,0.25434 -1.87375,0.27631 -2.72063,0.29122c-0.04904,0.09972 -0.16109,0.13707 -0.16109,0.13707c-1.99639,0.66215 -4.15117,1.57886 -6.0146,2.49089c-1.72992,0 -3.55436,1.75503 -5.07467,2.4714c-0.4335,0.20427 -0.50208,0.83283 -1.11592,0.70104c-0.12149,0.36449 -2.24608,2.09411 -1.1369,2.52286l0.11995,0.22133c1.82001,0.10412 3.7597,1.33771 5.47662,1.90716c2.68699,0.89977 4.8488,1.70665 7.72272,1.74723c0.50919,0.2546 1.20857,0.05933 1.49813,0.74013c0.5673,1.33378 -0.94406,1.30665 -1.00293,2.14681c-0.08498,1.21271 0.87471,2.31824 -0.95401,3.1091c-0.94693,1.89385 -2.58399,3.44455 -3.6042,5.48494c-1.09882,2.19764 -1.62349,4.46717 -2.63055,6.57639c-0.28224,0.52901 -0.44338,1.69165 -0.14614,2.2488l0.01695,0.16093c0.69629,1.41714 1.17368,4.90918 1.18,5.80256c0,1.34572 1.07265,4.36601 -0.07716,5.44736c-0.65881,0.61959 -1.27095,0.34978 -1.75371,1.31529c-2.33949,1.21024 -4.07838,-0.94583 -6.47038,-0.94583c-0.19803,0 -0.39603,0 -0.59405,0c0.46143,0.33874 1.06345,1.11376 1.52862,1.53379c0.21604,-0.08509 0.32405,0.13094 0.32405,0.13094c0.01121,0.04256 0.02506,0.08469 0.04139,0.12646c0.06029,0.02423 0.11452,0.03218 0.16141,0.0202l0.33241,0.2233c0,0 0.18628,0.18627 0,0.37255c-0.01179,0.01179 -0.02359,0.02211 -0.03534,0.03105c1.08226,1.07004 3.48512,1.96554 4.1273,3.24994c1.86132,0.80497 4.01595,3.16059 4.01595,5.36177c-1.47751,2.85613 -5.4559,0.15075 -6.28834,-1.77408c-0.13495,-0.06748 -0.22924,-0.13709 -0.30268,-0.21687c0.44515,1.40531 1.92152,2.58704 1.92152,4.56098c0,0.87288 0.90863,2.38067 0.54522,3.06133c-1.20734,2.26131 -2.96382,-1.39111 -3.25717,-1.97781c-0.0272,-2.3171 -2.53885,-3.82598 -2.48441,-6.5513c0.38617,-0.80877 1.21352,-1.23039 1.023,-2.21721c-0.25661,-1.32905 -2.36084,-1.75648 -2.80495,-2.90541c-1.60351,0 -4.48194,-4.42523 -3.65356,-5.85543c2.62582,-0.23981 5.24529,-0.33162 7.88403,-0.33162c0.64139,0 1.28278,0 1.92417,0c-0.01226,-0.12118 0.08168,-0.21514 0.08168,-0.21514l0.06898,0.04014c0,-1.51013 0,-3.02027 0,-4.5304c0,-2.56634 0.76699,-5.31596 0.73411,-7.78772c0.8551,-2.60229 0.53606,-5.33705 1.77811,-7.82113c0.35298,-0.66159 2.71122,-4.63937 1.41789,-4.58824c-0.00833,0.00065 -0.01316,0.00066 -0.01316,0.00066c-1.44561,0 -1.93428,-0.78198 -3.12949,-1.03005c-0.91455,-0.18982 -1.48985,0.58457 -2.36335,0.58457c-0.22332,0.04901 0.45664,2.41018 0.342,2.87312c-0.30527,1.23265 -1.23033,2.90613 -1.16913,4.09197c-0.66061,1.38357 0.02036,3.54016 -0.91952,4.77005c-0.85631,1.12053 -1.90009,1.33986 -2.51609,0.05262c-0.03468,-2.45649 0.77281,-5.53369 1.77446,-7.63157c1.28718,-2.57437 -0.67307,-4.4562 1.62948,-6.75875c0.07161,-0.14759 -4.84025,-2.02457 -5.9166,-2.39858c-0.88819,-0.87333 -2.65297,-2.49211 -1.8393,-4.01613c0.33293,-0.62358 2.02512,-0.81838 2.59069,-1.12012c2.21309,-1.10654 3.32587,-2.42239 5.51718,-3.48549c0.69926,-0.69926 2.34827,-1.53132 3.31858,-1.64437c1.55986,-0.69567 3.27081,-1.21132 4.90159,-2.03109c0.49075,-0.24438 0.83643,-0.63449 1.31528,-0.87685c0.01034,-0.00524 0.02166,-0.011 0.03384,-0.01722c-0.56042,0.04655 -1.33202,-0.03581 -1.55275,-0.07434c-1.02694,-0.17919 -2.05515,-1.02398 -3.10034,-1.02398c-2.47237,-1.18936 -5.38577,-0.64086 -7.74551,-1.89984c-2.35595,0.02044 -4.55436,-1.87268 -6.86867,-1.89984c-3.58845,-1.71336 -0.66593,-3.91795 1.40414,-5.02241c0.92774,-0.46388 1.87425,-0.82427 2.80182,-1.26067c-0.11024,-0.23126 0.12101,-0.34689 0.12101,-0.34689z" fill="#000000" stroke="none" stroke-width="0.5" stroke-linecap="butt"/><path d="M162.23767,116.92883c0,0 0.99687,-5.92435 3.37183,-8.67041c2.37498,-2.74605 2.4071,-0.69991 4.33519,-0.24084c1.9281,0.45907 1.012,0.62772 0.72254,1.44506c-0.28948,0.81736 -4.8169,10.11548 -4.8169,10.11548z" fill="#b4b3b4" stroke="#b6b4b2" stroke-width="0.5" stroke-linecap="round"/><path d="M254.0091,61.51897c0.02169,-0.0357 0.04195,-0.07094 0.06057,-0.10564c-0.0005,0.03231 -0.02211,0.06778 -0.06057,0.10564z" fill-opacity="0.43044" fill="#9966ff" stroke="none" stroke-width="0.5" stroke-linecap="butt"/></g><path d="M239.28147,199.42977c10.77815,-0.22304 9.94185,4.58855 9.94185,4.58855h-20.64844c0,0 -0.44677,-4.35774 10.7066,-4.58855z" fill="#000000" stroke="#000000" stroke-width="1.5" stroke-linecap="round"/></g><path d="M191.00924,124.02704l38.64428,16.31647l-39.50302,11.16389" fill="none" stroke="#000000" stroke-width="2" stroke-linecap="round"/><path d="M290.62558,151.50743l-39.50302,-11.16391l38.64426,-16.31647" data-paper-data="{&quot;index&quot;:null}" fill="none" stroke="#000000" stroke-width="2" stroke-linecap="round"/></g></g></g></svg>