<svg version="1.1" xmlns="http://www.w3.org/2000/svg" xmlns:xlink="http://www.w3.org/1999/xlink" width="35.02992" height="35.0309" viewBox="0,0,35.02992,35.0309"><g transform="translate(-222.41345,-162.41345)"><g data-paper-data="{&quot;isPaintingLayer&quot;:true}" stroke-linecap="round" stroke-miterlimit="10" stroke-dasharray="" stroke-dashoffset="0" style="mix-blend-mode: normal"><path d="M257.44336,169.71389v20.49804c0,4.00745 -3.22497,7.23243 -7.23242,7.23243h-20.5c-3.66107,0 -6.66147,-2.69385 -7.1543,-6.21484c0.7952,3.03475 3.54108,5.26367 6.83204,5.26367h20.0332c3.9166,0 7.07032,-3.15372 7.07032,-7.07031v-20.03321c0,-3.2976 -2.23906,-6.0451 -5.28321,-6.83398c3.52994,0.48496 6.23438,3.49081 6.23438,7.15821z" fill-opacity="0.29839" fill="#000000" fill-rule="evenodd" stroke="none" stroke-width="4.54219" stroke-linejoin="round"/><path d="M229.48312,162.41346h20.03379c3.9166,0 7.06966,3.15307 7.06966,7.06966v20.03379c0,3.91659 -3.15306,7.06966 -7.06966,7.06966h-20.03379c-3.91659,0 -7.06966,-3.15307 -7.06966,-7.06966v-20.03379c0,-3.91659 3.15307,-7.06966 7.06966,-7.06966z" fill="#ff7979" fill-rule="evenodd" stroke="none" stroke-width="4.43922" stroke-linejoin="round"/><g fill-rule="nonzero" stroke="#000000" stroke-width="0.75" stroke-linejoin="miter"><path d="M253.59525,184.66414l-0.57747,2.23771l-7.65152,-2.09334l-0.25593,-2.53301z" fill="#c95045"/><path d="M225.15472,178.96159c0,0 1.69726,-4.86433 6.54907,-6.24721c5.00442,-1.42638 9.55077,-0.43369 12.29099,3.5764c2.74022,4.01008 1.29931,8.58991 1.29931,8.58991z" fill="#c85045"/><path d="M227.53678,175.56894c0,0 0.46165,0.68824 0.30698,1.1832c-0.19625,0.62801 -1.24537,2.64256 -1.24537,2.64256" fill="none"/></g></g></g></svg>