<svg version="1.1" xmlns="http://www.w3.org/2000/svg" xmlns:xlink="http://www.w3.org/1999/xlink" width="154.52351" height="267.22501" viewBox="0,0,154.52351,267.22501"><defs><linearGradient x1="240.00014" y1="175.50007" x2="240.00014" y2="307.50005" gradientUnits="userSpaceOnUse" id="color-1"><stop offset="0" stop-color="#1a1a1a"/><stop offset="1" stop-color="#b7b7b7"/></linearGradient><linearGradient x1="240.07706" y1="78.79846" x2="240.07706" y2="199.39512" gradientUnits="userSpaceOnUse" id="color-2"><stop offset="0" stop-color="#1a1a1a"/><stop offset="1" stop-color="#ababab"/></linearGradient></defs><g transform="translate(-162.33293,-46.55424)"><g data-paper-data="{&quot;isPaintingLayer&quot;:true}" fill-rule="nonzero" stroke-linecap="butt" stroke-linejoin="miter" stroke-miterlimit="10" stroke-dasharray="" stroke-dashoffset="0" style="mix-blend-mode: normal"><path d="M179.07571,313.77926v-267.22501h123.18203v267.22501z" fill-opacity="0.01" fill="#000000" stroke="none" stroke-width="0"/><path d="M206.75014,307.50005l15.14285,-131.8421l37.78325,-0.15789l3.15646,30.69516l-14.20019,13.8515l12.65505,6.61153l-6.92997,6.53781l10.54035,5.24649l8.35219,69.05752z" fill="url(#color-1)" stroke="#000000" stroke-width="0"/><path d="M175.84004,139.09679c0,-33.30185 28.7599,-60.29833 64.23702,-60.29833c35.47712,0 64.23702,26.99649 64.23702,60.29833c0,33.30185 -28.7599,60.29833 -64.23702,60.29833c-35.47712,0 -64.23702,-26.99649 -64.23702,-60.29833z" fill="url(#color-2)" stroke="#000000" stroke-width="0"/><path d="M214.18791,187.90484c0.00035,-0.01015 0.00088,-0.02009 0.00159,-0.02982c-0.2161,-0.08574 -0.42702,-0.18037 -0.6316,-0.28528c-0.76241,-0.39097 -1.51845,-0.85874 -2.27341,-1.36443c-1.43849,-0.46098 -2.86029,-1.0473 -4.26985,-1.79141c-1.29024,-1.19873 -2.69681,-2.20998 -4.05843,-3.31895c-0.21598,-0.07337 -0.43321,-0.13961 -0.65179,-0.19798c-5.4698,-3.69085 -10.71303,-7.23479 -13.85436,-13.41334c-0.79619,-1.61752 -2.82304,-3.02597 -3.29404,-4.72557c-0.61613,-2.2233 -0.54035,-4.53556 -0.54035,-6.96626v-0.11111c0,0 0,-0.35984 0.2876,-0.46899c0.03617,-0.10669 0.11634,-0.2119 0.27976,-0.27695c0.44107,-0.17556 0.60646,0.2926 0.60646,0.2926c0.07478,0.21165 0.15077,0.42244 0.22801,0.63236c-0.06082,-0.43365 -0.09334,-0.86406 -0.09334,-1.29013c0,0 0,-0.5 0.47106,-0.5c0.47106,0 0.47106,0.5 0.47106,0.5c0,0.47783 0.05094,0.91046 0.13982,1.31635c0.12187,0.1473 0.12188,0.35032 0.12188,0.35032v0.11787c0.31668,1.05146 0.87492,1.95976 1.41576,3.09349c0.47491,0.99552 0.96629,1.98012 1.46459,2.96196c1.29524,1.45437 2.80325,2.78409 4.02235,3.94814c4.56649,4.36236 8.83837,9.05394 13.35756,13.34346c1.13204,1.08075 2.31193,2.05388 3.53846,2.90891c5.03093,2.11328 10.03322,3.94733 15.55124,4.22717c0.01689,0.00339 0.03377,0.00676 0.05066,0.01012c5.6913,0 11.3826,0 17.0739,0c2.8293,0 5.64781,-0.02549 8.4635,-0.07691c1.37494,-0.30437 2.75595,-0.52639 4.20801,-0.4293c1.71462,-2.44477 5.27156,-1.75534 7.67579,-2.79349c3.15295,-1.36144 6.68618,-2.5319 9.73721,-4.00779c5.93183,-2.79835 8.08519,-8.55642 10.84513,-14.42166c1.46069,-3.09894 3.51329,-6.64007 4.53291,-9.8956c0.42342,-1.35195 0.75761,-2.93811 1.33372,-4.33184c0.20314,-1.33563 0.57868,-2.62344 1.33069,-3.82076c0,0 0.2613,-0.41602 0.65324,-0.13867c0.39194,0.27735 0.13065,0.69337 0.13065,0.69337c-0.18226,0.29019 -0.34069,0.58768 -0.47862,0.89149c0.06787,-0.01747 0.14556,-0.01995 0.22749,0.01028c0.03639,-0.00803 0.07655,-0.01246 0.12089,-0.01246c0.04842,0 0.09187,0.00528 0.13085,0.01477c0.03898,-0.00948 0.08243,-0.01476 0.13085,-0.01476c0.47106,0 0.47106,0.5 0.47106,0.5v0.83334c0,1.85721 -0.37903,3.64365 -0.92762,5.40284c-0.75988,3.69087 -2.08373,7.25083 -3.51433,10.79367c-0.38931,1.03047 -0.81889,2.07418 -1.28772,3.11705c-0.82413,2.88207 -1.91253,5.83416 -3.49376,7.27106c-0.35245,0.32028 -0.75062,0.62813 -1.17443,0.92599c-1.55791,2.15862 -3.31046,4.10909 -5.24513,5.67816c-2.26275,1.50293 -4.78633,2.41247 -7.40536,3.05786c-2.46434,0.78994 -5.13924,1.1664 -7.696,1.50292c-2.32743,0.72986 -4.75417,1.02805 -7.20844,1.13279c-0.77255,0.12521 -1.54437,0.2422 -2.31593,0.35072c-0.67261,0.15026 -1.33576,0.29489 -1.98499,0.42458c-1.15637,0.231 -2.42482,0.25929 -3.71072,0.21906c-2.68221,0.2271 -5.37613,0.34552 -8.10245,0.34552c-5.33905,0 -10.50815,0.15616 -15.72315,-0.55506c-0.85467,-0.00023 -1.70934,-0.00055 -2.564,-0.00098c-1.88298,-0.17438 -3.45082,-0.60231 -5.25124,-1.08032l-0.86893,-0.03064c0,0 -0.47075,-0.01807 -0.45372,-0.51775zM276.93631,182.23414c0.50512,-0.41097 0.99739,-0.84907 1.4766,-1.31096c-0.72906,0.63795 -1.47869,1.17508 -2.24131,1.57196c-0.1634,0.17372 -0.33116,0.341 -0.50303,0.50215c0.43108,-0.23536 0.85403,-0.48904 1.26775,-0.76315zM285.37478,165.58543c-2.87,6.08595 -5.14475,11.98207 -11.30516,14.88825c-3.11715,1.4397 -6.5863,2.65951 -9.78012,4.0267c-2.25042,0.96335 -5.11074,0.51401 -7.03281,2.16576c1.55534,-0.04611 3.11131,-0.10022 4.66926,-0.16239c3.37757,-1.64919 7.06904,-3.69009 10.66415,-4.73787c0.23311,-0.06794 0.54166,-0.11038 0.88633,-0.14557c1.41738,-0.6731 2.81462,-1.39042 4.17511,-2.20328c0.28989,-0.18824 0.57603,-0.37985 0.8581,-0.57503c0.31979,-0.20367 0.65645,-0.40896 1.00112,-0.61698c0.05761,-0.03971 0.11512,-0.07964 0.17256,-0.11981c0.2899,-0.42616 0.52385,-0.88694 0.98709,-1.42245c0.36882,-0.42636 0.74591,-0.8248 1.12356,-1.21911c1.30279,-1.87702 2.44393,-3.85262 3.3677,-5.55057c0.51244,-0.9419 0.55953,-2.10878 1.11275,-3.05917c0.38264,-0.64983 0.74747,-1.34226 1.09129,-2.0672c0.57481,-1.73114 1.0756,-3.53111 1.55088,-5.42294c0.23869,-0.95007 0.49522,-1.91564 0.72396,-2.8912c-1.12395,3.04631 -2.91013,6.23324 -4.26577,9.11286zM291.54535,151.03912c-0.00848,1.36686 -0.12857,2.80157 -0.34711,4.25614c0.02207,-0.06805 0.04389,-0.13614 0.06544,-0.20427c0.33998,-1.64687 0.56411,-3.321 0.62893,-5.03415c-0.14572,0.2106 -0.27777,0.43678 -0.39865,0.67471c0.06154,0.10638 0.06675,0.2156 0.0514,0.30757zM223.97514,187.86736c-0.24945,0 -0.49784,-0.004 -0.74514,-0.01193c-2.73607,-0.04139 -5.38438,-0.20208 -7.96887,-0.65767c1.59884,0.47239 3.42321,0.5526 4.97274,0.78788c1.05603,0.22385 2.10823,0.40363 3.15844,0.54783c1.81969,-0.00052 3.63938,-0.00063 5.45907,-0.00055c-1.30268,-0.31204 -2.59568,-0.66557 -3.93412,-0.66557c-0.31404,0 -0.62807,0 -0.94211,0zM206.75821,180.46468c-4.4973,-4.32183 -8.79047,-8.98053 -13.35778,-13.34368c-0.60204,-0.57539 -1.25899,-1.18204 -1.92332,-1.81895c0.57104,1.11813 1.13897,2.24304 1.68976,3.38671c0.37492,0.46891 0.76062,0.93149 1.15729,1.38775c2.2602,2.39858 4.13182,5.0669 6.31828,7.50189c2.09848,1.40498 4.42807,2.52376 6.88392,3.59691c-0.25848,-0.23161 -0.51453,-0.46852 -0.76814,-0.71063zM207.53713,183.60178c0.02199,0.01137 0.04399,0.02269 0.06599,0.03398c-0.03783,-0.02602 -0.07567,-0.05198 -0.11353,-0.07787c0.01587,0.0146 0.03171,0.02923 0.04754,0.04389zM186.06425,162.51221c0.33251,1.46502 2.51266,3.1054 3.2198,4.52623c1.87249,3.91182 4.77819,6.69117 8.00364,9.14484c-1.82198,-1.67706 -3.38885,-3.71304 -4.61169,-6.30899c-0.10257,-0.21774 -0.21105,-0.43832 -0.32462,-0.66153c-2.84618,-3.58697 -5.08504,-7.54022 -6.78687,-11.85523c0.02176,1.7818 0.11365,3.45355 0.49974,5.15469zM207.98851,182.45539c-0.37728,-0.16202 -0.75193,-0.3247 -1.12362,-0.4888c1.63333,1.03746 3.2228,2.27266 4.8131,3.34161c1.2606,0.39774 2.53114,0.69689 3.81733,0.9209c-1.73934,-0.69681 -3.40616,-1.60484 -4.99573,-2.70267c-0.83631,-0.35199 -1.67264,-0.71097 -2.51108,-1.07103zM275.11875,182.18274c-1.15985,0.54316 -2.35691,1.04709 -3.57263,1.53357c-1.45261,0.70374 -2.93444,1.38087 -4.43742,2.03088c0.83352,-0.1554 1.66305,-0.32615 2.48313,-0.52281c2.05519,-0.64603 3.96335,-1.58403 5.52692,-3.04164z" fill="#000000" stroke="none" stroke-width="0.5"/><path d="M209.59031,132.05915c0.0002,0.0976 0.0003,0.19513 0.00029,0.29257c-0.00026,6.86165 -0.00029,13.7233 -0.00029,20.58494c0,4.25198 0.15131,8.74759 0.9699,13.00747c0.09914,1.2021 0.19548,2.40303 0.28308,3.60228c0.20867,0.12747 0.43964,0.21063 0.68189,0.26425c0.11016,0.35009 0.22643,0.69735 0.34916,1.04145c-0.2271,-0.02699 -0.4587,-0.06961 -0.68639,-0.13096c0.16001,0.40586 0.33789,0.77676 0.53655,1.08824c0.22582,0.1757 0.46371,0.34053 0.71505,0.49444c0.00663,0.01564 0.01328,0.03128 0.01994,0.0469c0.02121,0.00132 0.04235,0.00248 0.0634,0.00343c0.20983,0.12501 0.42892,0.24258 0.65804,0.35271c0.33484,-0.07999 0.68148,-0.28561 0.91631,-0.40293c-0.16993,0.17778 -0.38811,0.36039 -0.63623,0.53161c0.30436,0.1336 0.62576,0.25493 0.96582,0.36395c0.02052,0.00658 0.04101,0.01393 0.06147,0.02196c-0.58119,0.24828 -1.09613,0.32637 -1.55402,0.2697c0.02755,0.07812 0.05534,0.15888 0.0834,0.24159c-0.22418,-0.09968 -0.4404,-0.20561 -0.64912,-0.31775c-0.15612,0.05988 -0.31389,0.11061 -0.4706,0.14979c-0.03468,-0.08613 -0.06584,-0.16064 -0.09338,-0.22122c-0.05442,-0.12029 -0.10793,-0.24104 -0.16056,-0.36223c-0.18913,-0.12569 -0.37146,-0.25741 -0.54742,-0.39511c0.05235,-0.02422 0.10699,-0.06249 0.16259,-0.10185c-0.13443,-0.16275 -0.26067,-0.34105 -0.37948,-0.532c0.0017,0.19032 0.00442,0.35364 0.00873,0.4657c-0.35235,-0.29369 -0.67844,-0.61274 -0.98213,-0.95681c-0.02019,-0.58022 -0.01478,-1.13482 -0.02953,-1.40891c-0.09256,-0.08227 -0.17896,-0.17174 -0.25793,-0.26886c-1.64806,-2.02677 -2.31401,-6.05675 -2.48798,-8.52761c-0.21995,-3.13737 -0.25426,-6.30897 -0.22645,-9.48529c-0.15187,-2.28478 -0.26308,-4.58705 -0.39817,-6.91939c-0.02525,-0.43756 -0.04656,-0.87503 -0.06419,-1.31242c-0.00458,-2.26558 -0.01076,-4.53132 -0.01144,-6.79701c0.13753,-4.31402 0.50891,-8.62133 0.87357,-12.9243c0.1682,-1.98475 0.18969,-4.3241 0.30188,-6.70944c0.41898,-2.07307 0.93563,-4.13132 1.51653,-6.14545c0.03589,-0.1906 0.07855,-0.38382 0.12782,-0.57825c0.15106,-1.14899 0.3588,-2.48844 1.08748,-3.31612c0.08182,-0.24439 0.16431,-0.48778 0.2474,-0.73012c0.01859,-0.00549 0.03734,-0.01105 0.05625,-0.01667c0.11249,0.08837 0.16016,0.19072 0.17412,0.28724c0.31063,-0.24997 0.62895,-0.41661 0.94972,-0.51249c0.07289,-0.05699 0.14705,-0.11142 0.22248,-0.16311c0.71202,-0.18584 1.48701,-0.34037 2.20925,-0.33827c0.05558,-0.08812 0.11183,-0.17628 0.16878,-0.26447c0.30343,0.0395 0.61748,0.12096 0.94157,0.24956c-0.028,0.05008 -0.05649,0.10005 -0.08542,0.1499c0.20867,0.06154 0.40565,0.14629 0.58695,0.25857c0.08667,0.05368 0.16645,0.13031 0.24013,0.22507c0.13038,0.04989 0.26607,0.10149 0.4043,0.15492c0.20035,0.33755 0.35399,0.81565 0.47789,1.2642c-0.11167,-0.04916 -0.22715,-0.09715 -0.34378,-0.14406c0.19097,0.70499 0.31369,1.46606 0.43676,1.87315c0.09054,0.20638 0.16083,0.40623 0.20728,0.59424c0.01548,0.06268 0.03055,0.12564 0.0452,0.18888c0.06502,0.20234 0.12936,0.40368 0.19291,0.60417c0,-0.07248 0,-0.2738 0,-0.34627c0,-0.24691 0.00736,-0.49381 0.01764,-0.73842c0.16271,0.71663 0.2642,1.46001 0.33316,2.21309c0.02711,0.08927 0.054,0.17842 0.08067,0.26747c0.1816,0.35551 0.35564,0.71332 0.49038,1.10241c0,-2.39039 0.03825,0.11349 0.05604,0.17131c0.13307,0.43251 0.18714,0.94046 0.19798,1.47997c0.45402,1.93473 0.74268,3.89117 0.74268,6.0155c0,0.92283 0,22.84566 0,23.76849c0.00001,1.58936 0.00899,0.41831 0.01751,2.00892c0.13728,6.19323 0.99767,13.26876 -0.46592,19.12311c-0.06232,0.24929 -0.1283,0.48804 -0.19829,0.71655c-0.08748,0.61814 -0.18867,1.22625 -0.30622,1.8318c-0.08254,1.47146 -0.31904,2.90474 -0.96711,4.31489c-0.07537,0.16399 -0.32269,0.72396 -0.56861,1.22023c-0.31104,1.09307 -0.77621,3.21819 -1.45078,3.66874c-1.73282,1.15737 -3.03337,-2.71668 -3.55083,-4.00191c-0.61286,0.15324 -1.20957,0.12993 -1.62842,-0.21335c-0.25606,-0.20986 -0.3349,-1.07528 -0.36325,-1.89017c-0.83147,-0.94202 -1.49508,-2.07158 -2.07029,-3.38153c-2.85567,-5.7091 -1.38901,-14.04769 -1.38901,-20.41315c0,-1.37585 -0.00219,-2.7518 -0.00496,-4.1278c-0.09138,-2.26774 -0.0836,-4.5333 -0.01144,-6.79701c-0.00098,-3.28447 0.0096,-6.56883 0.05342,-9.85247c0.04539,-3.22103 0.46281,-6.51949 1.12203,-9.78127c0.18216,-3.87331 0.60345,-7.8679 2.28024,-10.66256c0,0 0.25725,-0.42875 0.68599,-0.1715c0.02543,0.01526 0.04845,0.03112 0.06924,0.04746c0.39341,-0.1169 0.85486,-0.26009 1.34631,-0.38836c0.69183,-0.47417 1.48937,-0.71842 2.37803,-0.60273c0.19384,-0.3002 0.39565,-0.60081 0.60574,-0.90204c1.71926,-0.09983 2.93671,-0.12695 3.48002,1.84133c0.10839,0.39266 0.15993,0.83427 0.17732,1.29976c0.00844,0.01012 0.01664,0.02028 0.02462,0.03049c1.00572,1.28722 0.73464,3.37578 0.73464,4.88425c0,2.80996 0,5.61992 0,8.42988v21c0,0.00239 0,0.00477 0,0.00716c0,0.17372 0,3.10877 0,3.28249c0,0.48937 0.00638,0.98567 0.01751,1.48776c0.02857,5.33738 0.05194,10.67855 -0.28602,16.00183c-0.08614,1.35676 -0.20541,2.61686 -0.37819,3.83783c-0.08402,0.27432 -0.17384,0.53386 -0.27005,0.77914c-0.0057,0.35316 -0.01661,0.70398 -0.03617,1.05266c-0.32714,1.68517 -0.78098,3.35048 -1.41852,5.15685c-0.03637,0.10306 -0.0754,0.23134 -0.11721,0.37826c-0.21021,0.42419 -0.41941,0.80182 -0.51933,0.84584c-0.07866,0.03465 -0.35555,-0.02031 -0.6917,-0.10929c0.06423,-0.26625 0.12593,-0.52896 0.18826,-0.77297c0.03345,-0.00733 0.0669,-0.01816 0.10036,-0.0329c0.51039,-0.2248 0.3495,-1.06173 0.58239,-1.56849c0.02539,-0.05525 0.0501,-0.11057 0.07413,-0.16594c-0.04119,0.05548 -0.08418,0.10883 -0.12905,0.15991c-0.01314,0.01495 -0.06453,0.04578 -0.14264,0.08748c0.33401,-1.0163 0.60787,-1.98995 0.83356,-2.9556c-0.19645,0.19967 -0.40786,0.3775 -0.63566,0.53463c-0.15929,0.2689 -0.32987,0.53181 -0.51245,0.78818l-0.08084,-0.24243c0.03773,-0.08306 0.07288,-0.16765 0.10559,-0.25368c-0.05366,0.02771 -0.10811,0.05452 -0.16337,0.08042l-0.29091,-0.87238c0.16972,-0.09006 0.328,-0.19246 0.47594,-0.3066c-0.01466,-0.28787 0.01352,-0.58767 0.07082,-0.89493c0.09325,0.14297 0.17842,0.30278 0.2528,0.48414c0.06245,-0.54081 0.07922,-1.10725 0.07825,-1.68152c0.36956,-1.08017 0.87325,-2.18064 0.97818,-3.12749c0.00477,-0.04307 0.00945,-0.08618 0.01402,-0.12932c-0.00413,0.11389 -0.00839,0.22777 -0.01277,0.34164c0,-4.35929 -0.00549,-8.52413 -0.00549,-12.88342c0,-1.01243 0,-34.68255 0,-35.69498c0,-0.96483 0.20669,0.72488 0.19453,-0.4449c-0.06182,-0.26194 -0.12677,-0.52347 -0.19453,-0.78501c0,-0.63034 0,-2.71021 0,-3.34055c0.01218,0.02597 0.02444,0.38079 0.03678,0.40657c0.19559,1.31115 0.25465,2.70841 0.25069,4.12391c-0.03012,-0.13512 -0.06111,-0.27007 -0.09294,-0.40492c-0.00525,-0.50512 -0.0513,-0.9771 -0.17242,-1.37078c-0.13447,-0.43706 -0.33148,-0.8461 -0.54004,-1.25685c-0.0339,-0.11306 -0.06817,-0.2263 -0.10279,-0.33974c-0.09399,-1.09009 -0.25832,-2.15801 -0.5884,-3.14199c-0.02404,-0.07165 -0.07726,-0.29207 -0.14691,-0.56674c0.41165,0.57469 0.73442,1.17827 0.9306,1.72046c0.10611,0.42327 0.2575,0.80086 0.42543,1.15903c0,-0.11257 0,-0.5541 0,-0.66666c0.12007,0.37881 0.23729,0.88344 0.3508,1.25724c0.00407,0.04444 0.00803,0.08891 0.01187,0.13341c0.02301,0.04469 0.04596,0.08935 0.0688,0.13406c0.17282,0.57702 0.33625,1.14986 0.48708,1.72232c0.09055,0.34365 0.17655,0.68716 0.25732,1.03136c0.02477,1.23209 -0.17588,2.62873 -0.17588,3.66706v31.22736c-0.02697,-0.65703 -0.04942,-2.48452 -0.06388,-3.12429c-0.00858,-1.58542 -0.01758,-3.17049 -0.01757,-4.75463v-21c0,-1.0858 -0.07811,-2.12512 -0.21665,-3.13945c0.40052,6.53637 -0.00809,13.23594 -0.00809,19.77142c0,6.75522 0.28186,13.58555 -0.51398,20.29643c-0.00979,-0.3964 -0.02179,-0.79304 -0.0349,-1.18942c-0.00158,0.51624 -0.0044,1.0324 -0.00873,1.54847c-0.01152,0.09255 -0.02325,0.18508 -0.03519,0.27758c-0.31839,2.46619 -0.608,4.80415 -1.09829,7.09442c-0.00987,-0.51153 -0.01526,-1.01746 0.0035,-1.50523c0.07599,-1.9757 0.11445,-3.95447 0.13069,-5.93467c0.85317,-6.80235 0.5569,-13.73503 0.5569,-20.58759c0,-6.92993 0.46934,-14.05116 -0.07691,-20.95769c-0.10804,-1.37286 -0.10821,-2.85677 -0.22392,-4.30709c-0.11083,-0.21652 -0.22286,-0.43467 -0.32868,-0.65876c-0.05974,-0.41487 -0.13332,-0.82074 -0.2232,-1.2153c-0.05948,-0.18478 -0.11951,-0.37048 -0.17998,-0.55722c-0.33443,-0.70193 -1.18443,-1.81042 -1.99135,-2.47193c-0.04478,0.06454 -0.08953,0.1291 -0.13417,0.1937c-0.07071,-0.05313 -0.14231,-0.10341 -0.21465,-0.15048c-0.53814,0.3279 -0.93099,0.7567 -1.28049,1.26793c0.23709,-0.51281 0.4941,-1.02471 0.77259,-1.53669c-0.18313,-0.07422 -0.36902,-0.12445 -0.55583,-0.14542c0.07205,-0.06011 0.14617,-0.11819 0.2226,-0.17422c-0.12004,0.0159 -0.2259,0.06901 -0.31298,0.16638c-0.1748,-0.01066 -0.35014,0.00495 -0.52453,0.05113c-0.29007,0.23594 -0.54978,0.52577 -0.77964,0.8535c0.02614,-0.12811 0.05231,-0.25637 0.0785,-0.3848c0.01191,-0.04444 0.02421,-0.08787 0.03689,-0.13031c-0.09594,0.0746 -0.19096,0.16075 -0.28478,0.25923c-0.04881,0.25768 -0.09946,0.5148 -0.15171,0.77142c-0.34217,0.61757 -0.59799,1.3225 -0.77006,2.03504c-0.00729,0.06138 -0.01437,0.12209 -0.02134,0.18196c0.13835,-0.22421 0.27058,-0.44474 0.39025,-0.66038c0.03681,-0.06633 0.07324,-0.13192 0.10935,-0.19677c-0.24722,1.10056 -0.51725,2.19375 -0.79252,3.2844c-0.02264,0.04458 -0.04479,0.08916 -0.06641,0.13375c-0.01445,0.09992 -0.02887,0.19983 -0.04327,0.29975c-0.00668,0.02633 -0.01335,0.05267 -0.02003,0.079c-0.00634,0.06338 -0.01257,0.12679 -0.01869,0.19023c-0.20156,1.40411 -0.39679,2.80845 -0.57336,4.21598c0.01588,0.40353 0.03995,0.81167 0.06847,1.21939c0.08095,-0.58657 0.16775,-1.17203 0.25961,-1.75709c-0.05389,1.33566 -0.07462,2.67891 -0.07614,4.02382c0.07356,0.89381 0.13322,1.73502 0.13322,2.46212c0,2.70954 0,5.41907 0,8.12861zM214.80226,106.98213c0.30934,0.25577 0.60086,0.54764 0.86754,0.85881c-0.06655,-0.25973 -0.13751,-0.49981 -0.21087,-0.68431c0.1541,0.15193 0.30323,0.31205 0.44543,0.47746c-0.05143,-0.17307 -0.10468,-0.33687 -0.15724,-0.47285c-0.12594,-0.04994 -0.24429,-0.09866 -0.35062,-0.14629c-0.05432,-0.10958 -0.10961,-0.18429 -0.16511,-0.21024c-0.09307,-0.04352 -0.18836,-0.07892 -0.28551,-0.10717c0.09196,0.0741 0.18302,0.15181 0.27281,0.23263c-0.02483,-0.01276 -0.04855,-0.02544 -0.07106,-0.03805c-0.12001,0.02738 -0.23502,0.0574 -0.34537,0.09zM214.21027,169.84488c0.02928,-0.08527 0.05582,-0.15721 0.07916,-0.21143c0.22021,-0.51161 0.41402,-1.02793 0.58591,-1.54843c-0.76893,-0.68854 -1.86078,-0.87754 -2.13842,-2.4623c-3.34147,-6.60482 -2.92185,-13.2162 -2.92185,-20.44783c0,-7 0,-14 0,-21c0,-0.2942 0.00122,-0.5861 0.00382,-0.87581c-0.13908,1.65259 -0.21792,3.3266 -0.21864,5.0377c-0.00293,7 -0.00587,14 -0.0088,21c-0.00232,5.52725 0.51288,11.07962 0.96877,16.60736c0.2529,1.31606 0.56948,2.60961 0.96496,3.86653c0.63277,0.14006 1.34255,0.07854 1.93317,0.07854c0.26618,0 0.51642,-0.01498 0.75191,-0.04433zM208.4162,163.6487c-0.63447,-2.92404 -1.0126,-5.8406 -1.27382,-8.77685c-0.20916,4.53522 -0.18379,9.21627 1.59893,12.78307c0.33741,0.76775 0.70111,1.46592 1.11409,2.09398c-0.00641,-0.0884 -0.01287,-0.1768 -0.01937,-0.26522c-0.29858,-0.98446 -0.52131,-2.00266 -0.71662,-2.86766c0.17588,0.5317 0.37883,1.03745 0.61227,1.49398c-0.05545,-0.70969 -0.11306,-1.41989 -0.17162,-2.13049c-0.32422,-1.71992 -0.54451,-3.47466 -0.69203,-5.2363c-0.2777,-0.12027 -0.2777,-0.45811 -0.2777,-0.45811c0,-0.19819 0,-1.23349 0,-1.43169c0.08141,0.59199 0.17042,1.18368 0.26822,1.77532c-0.2114,-2.57974 -0.26822,-5.17298 -0.26822,-7.69207c0,-6.86166 0.00003,-13.72332 0.00029,-20.58498c0,-0.09952 -0.0001,-0.19911 -0.00029,-0.29878c0,-2.70745 0,-5.41491 0,-8.12236c0,-0.07064 -0.00049,-0.14213 -0.00143,-0.21443c-0.03467,0.41066 -0.0671,0.82091 -0.09745,1.23086c-0.0178,-1.18184 -0.03016,-2.36624 -0.0279,-3.54941c-0.005,-0.065 -0.01006,-0.13023 -0.01518,-0.19568c-0.03401,0.95313 -0.07673,1.86209 -0.14775,2.70006c-0.36106,4.26045 -0.73124,8.52591 -0.87003,12.79785c0.00061,2.27702 0.00684,4.5541 0.01145,6.83101c0.01729,0.4208 0.03806,0.84167 0.06254,1.26261c0.13534,2.3365 0.24561,4.64263 0.3975,6.93115c-0.02873,3.16862 0.00504,6.33243 0.22632,9.46111c0.05016,0.71231 0.14116,1.56688 0.28779,2.46304zM208.0594,140.42228c0,-5.23257 0.05117,-10.32939 0.43205,-15.47531c0.036,2.38963 0.09425,4.76876 0.09888,7.10594c0,4.23274 0,8.46548 0,12.69821c0,4.70077 0,9.40153 0,14.1023c-0.3255,-2.36678 -0.52958,-4.73821 -0.68824,-7.12886c0.03425,-3.77771 0.15732,-7.56227 0.15732,-11.30228zM214.00529,107.57167c-0.53613,0.77588 -1.05567,1.5582 -1.39394,2.3908c-1.84946,4.55214 -1.79629,9.40461 -1.79629,14.21241c0,7 0,14 0,21c0,7.17832 -0.37637,13.56818 2.87154,20.13465c0.18853,1.0761 0.81503,1.46678 1.45113,1.92032c0.81776,-2.87425 1.05202,-5.86436 1.4412,-8.87884c0.00936,-0.07246 0.01858,-0.14494 0.02767,-0.21744c0.04016,-4.89577 -0.05547,-9.80028 -0.05547,-14.68863c0,-6.91202 0,-13.82405 0,-20.73607c0,-3.40264 0.48944,-7.56819 -0.01714,-11.08643c-0.17809,-0.37716 -0.33858,-0.77117 -0.44613,-1.20261c-0.31377,-0.86361 -1.11586,-2.12186 -2.08257,-2.84815zM215.30745,105.57992c0.26274,0.10426 0.53208,0.23949 0.80771,0.40847c0.12588,0.07717 0.23792,0.21095 0.33825,0.37998c0.31879,0.12323 0.65107,0.2562 0.96273,0.40032c-0.21618,-0.78617 -0.74695,-1.33792 -1.95975,-1.46574c-0.04784,0.09278 -0.09757,0.18508 -0.14894,0.27696zM216.36199,172.34162c-0.42463,0.22671 -1.63871,0.77485 -1.78627,0.84146c-0.0293,0.01323 -0.05844,0.02603 -0.08742,0.03841c0.47424,0.18617 0.93138,0.74023 1.3885,0.64007c0.06385,-0.24992 0.12837,-0.48023 0.19699,-0.67465c0.10074,-0.28543 0.19673,-0.56696 0.2882,-0.84529zM215.68854,174.63453c-0.59049,-0.15631 -1.36387,-0.41762 -1.567,-0.48275c-0.3883,-0.12449 -0.75568,-0.26421 -1.10385,-0.41902c0.29453,0.86803 0.62026,1.95094 1.04312,2.45254c0.22451,0.26632 0.72315,0.78698 0.91841,0.49853c0.31149,-0.46015 0.52129,-1.26992 0.70932,-2.0493zM213.89564,170.82251c-0.44349,0.04984 -0.92158,0.07126 -1.4373,0.0667c-0.18735,-0.00166 -0.38393,-0.01331 -0.58401,-0.03709c0.17498,0.4906 0.36306,0.9748 0.56521,1.45172c0.02762,0.01691 0.0554,0.03369 0.08334,0.05034c0.2721,0.01235 0.52985,-0.00948 0.73896,-0.16692c0.2103,-0.15833 0.43781,-0.76823 0.6338,-1.36475zM211.09662,172.58624c-0.0704,-0.05509 -0.13978,-0.11114 -0.20817,-0.16814c0.0037,0.09623 0.00858,0.15467 0.015,0.15993c0.05824,0.04773 0.12368,0.04035 0.19316,0.00821zM215.96662,170.4664l-0.05778,-0.17326c-0.29483,0.13818 -0.61268,0.2507 -0.95569,0.33926c-0.16598,0.41059 -0.34416,0.82159 -0.53593,1.23346c-0.06311,0.13555 -0.17366,0.28503 -0.31997,0.4381c0.02168,-0.01083 0.04241,-0.02091 0.06209,-0.03007c0.90322,-0.4203 1.46309,-1.04993 1.80727,-1.80749zM208.8807,165.60734c0.07708,0.29869 0.15539,0.63975 0.23869,1.00869c-0.31442,-0.95052 -0.54231,-1.98396 -0.70321,-2.96732c0.14156,0.65241 0.29588,1.30518 0.46452,1.95863zM217.48733,109.66426c0.02501,-0.59518 0.06732,-1.17679 0.06301,-1.71186c-0.17452,-0.11206 -0.38866,-0.21842 -0.61902,-0.31983c0.11313,0.40955 0.20147,0.79446 0.27793,1.02522c0.10873,0.32816 0.20038,0.66426 0.27808,1.00647zM215.52142,169.09242c-0.05018,0.14968 -0.10176,0.29933 -0.1548,0.44898c0.08646,-0.03735 0.1702,-0.07758 0.25131,-0.12063l-0.04342,-0.13019c-0.01585,-0.06905 -0.03359,-0.13502 -0.0531,-0.19816zM208.87828,160.74751c0.13091,0.78249 0.27732,1.5649 0.442,2.34775c-0.06378,-0.77021 -0.12676,-1.54072 -0.18739,-2.31141c-0.01377,0.00083 -0.02796,0.00126 -0.04258,0.00126c-0.084,0 -0.15388,-0.01411 -0.21203,-0.03759zM209.81725,113.4971c-0.01293,0.08974 -0.02584,0.17948 -0.03872,0.26923c-0.1174,1.2165 -0.19549,2.44415 -0.24528,3.67828c0.28063,-1.7874 0.60839,-3.57105 0.96011,-5.37115c-0.20261,0.32756 -0.39808,0.65871 -0.56642,0.99014c-0.03648,0.14454 -0.07305,0.28903 -0.10968,0.4335zM211.9034,110.11208c0.18609,-0.4756 0.38793,-0.94966 0.60674,-1.42295c-0.16447,0.24058 -0.31934,0.49941 -0.47523,0.77457c-0.04402,0.2165 -0.08787,0.43262 -0.13152,0.64838zM215.21871,106.93018c0.05428,0.02789 0.11387,0.05614 0.17781,0.08478c0.02097,0.0423 0.04179,0.08979 0.06242,0.14168c-0.07887,-0.07776 -0.15903,-0.15337 -0.24023,-0.22646zM212.5122,107.19766c0.0696,-0.06567 0.14108,-0.12922 0.2147,-0.19064c-0.03011,-0.00338 -0.06023,-0.006 -0.09038,-0.00784c-0.0472,0.05278 -0.08889,0.11857 -0.12432,0.19848zM217.60589,158.20146c-0.01558,1.85623 -0.05071,3.7112 -0.11795,5.56357c0.20417,-1.92582 0.21102,-3.9212 0.16158,-5.92263c-0.0142,0.11972 -0.02874,0.23941 -0.04363,0.35906zM216.47239,165.57347c-0.16521,0.77176 -0.35321,1.5381 -0.57278,2.30211c0.09345,0.10351 0.18243,0.21697 0.26506,0.34366c0.07276,-0.39016 0.19248,-0.79234 0.33106,-1.19738c-0.00081,-0.48079 -0.01405,-0.96707 -0.02333,-1.44838zM217.46971,164.8661c-0.00003,-0.02321 -0.00004,-0.04643 -0.00004,-0.06966c0,-0.1651 0,-0.33021 0,-0.49531c-0.00884,0.22992 -0.00398,0.2906 0.00004,0.56498zM210.8769,171.01062c0,0.01076 0,0.02153 0,0.03233c0.00588,0.00615 0.01178,0.0123 0.01768,0.01843c-0.00591,-0.01691 -0.0118,-0.03383 -0.01768,-0.05076zM211.07989,109.1425c0.08366,-0.41143 0.1679,-0.82425 0.25246,-1.23869c-0.11441,0.16312 -0.22142,0.33562 -0.32111,0.51554c-0.0926,0.45475 -0.19027,0.90792 -0.29179,1.35985c0.12299,-0.22085 0.24233,-0.43311 0.36044,-0.6367z" fill="#000000" stroke="none" stroke-width="0.5"/><path d="M267.18947,150.21418c-0.0002,-0.0976 -0.0003,-0.19513 -0.0003,-0.29257c0.00026,-6.86165 0.0003,-13.72329 0.0003,-20.58494c0,-4.25198 -0.15131,-8.7476 -0.9699,-13.00747c-0.09914,-1.20209 -0.19548,-2.40303 -0.28308,-3.60228c-0.20868,-0.12747 -0.43964,-0.21063 -0.68189,-0.26425c-0.11016,-0.3501 -0.22643,-0.69735 -0.34916,-1.04146c0.2271,0.02699 0.4587,0.06961 0.68639,0.13096c-0.16001,-0.40586 -0.33788,-0.77677 -0.53655,-1.08825c-0.22582,-0.1757 -0.46371,-0.34052 -0.71505,-0.49443c-0.00663,-0.01565 -0.01328,-0.03128 -0.01994,-0.04691c-0.02121,-0.00132 -0.04234,-0.00248 -0.0634,-0.00343c-0.20982,-0.125 -0.42891,-0.24258 -0.65805,-0.3527c-0.33484,0.07999 -0.68147,0.28561 -0.91631,0.40292c0.16993,-0.17778 0.3881,-0.36039 0.63622,-0.53161c-0.30436,-0.1336 -0.62575,-0.25493 -0.96582,-0.36395c-0.02052,-0.00658 -0.04101,-0.01393 -0.06147,-0.02196c0.58119,-0.24829 1.09614,-0.32637 1.55401,-0.2697c-0.02756,-0.07812 -0.05533,-0.15887 -0.08339,-0.24158c0.22418,0.09967 0.4404,0.2056 0.64911,0.31774c0.15612,-0.05988 0.31389,-0.1106 0.4706,-0.14979c0.03468,0.08614 0.06584,0.16064 0.09338,0.22123c0.05442,0.12029 0.10793,0.24104 0.16057,0.36223c0.18913,0.12569 0.37145,0.25741 0.54742,0.39511c-0.05235,0.02421 -0.107,0.06249 -0.16259,0.10184c0.13443,0.16276 0.26067,0.34105 0.37949,0.532c-0.00171,-0.19032 -0.00442,-0.35364 -0.00873,-0.4657c0.35235,0.29369 0.67843,0.61274 0.98213,0.95681c0.02018,0.58022 0.01479,1.13482 0.02954,1.40892c0.09256,0.08228 0.17895,0.17174 0.25793,0.26886c1.64806,2.02677 2.31401,6.05676 2.48798,8.52761c0.21996,3.13737 0.25426,6.30897 0.22645,9.48529c0.15187,2.28478 0.26308,4.58705 0.39817,6.91939c0.02525,0.43756 0.04656,0.87503 0.06419,1.31242c0.00458,2.26558 0.01076,4.53132 0.01144,6.79701c-0.13752,4.31402 -0.5089,8.62133 -0.87356,12.92431c-0.1682,1.98475 -0.18969,4.32409 -0.30188,6.70944c-0.41898,2.07307 -0.93563,4.13132 -1.51653,6.14545c-0.03589,0.1906 -0.07855,0.38382 -0.12782,0.57825c-0.15106,1.14899 -0.3588,2.48844 -1.08748,3.31611c-0.08182,0.24439 -0.16431,0.48779 -0.2474,0.73012c-0.01859,0.00549 -0.03734,0.01105 -0.05625,0.01667c-0.11249,-0.08836 -0.16016,-0.19071 -0.17412,-0.28723c-0.31062,0.24996 -0.62894,0.41661 -0.94971,0.51249c-0.07289,0.05699 -0.14706,0.11141 -0.22248,0.16311c-0.71203,0.18585 -1.48701,0.34037 -2.20925,0.33827c-0.05557,0.08812 -0.11183,0.17627 -0.16878,0.26446c-0.30343,-0.0395 -0.61748,-0.12096 -0.94158,-0.24956c0.028,-0.05008 0.05649,-0.10005 0.08542,-0.1499c-0.20868,-0.06154 -0.40565,-0.14629 -0.58695,-0.25857c-0.08667,-0.05367 -0.16645,-0.13032 -0.24014,-0.22507c-0.13038,-0.04988 -0.26607,-0.10148 -0.40429,-0.15491c-0.20034,-0.33755 -0.35399,-0.81566 -0.47789,-1.2642c0.11167,0.04916 0.22715,0.09715 0.34378,0.14407c-0.19097,-0.70499 -0.31369,-1.46607 -0.43677,-1.87315c-0.09053,-0.20638 -0.16083,-0.40623 -0.20727,-0.59424c-0.01549,-0.06268 -0.03055,-0.12565 -0.0452,-0.18888c-0.06502,-0.20234 -0.12937,-0.40367 -0.19292,-0.60417c0,0.07247 0,0.2738 0,0.34627c0,0.2469 -0.00735,0.49381 -0.01763,0.73841c-0.16271,-0.71663 -0.26421,-1.46 -0.33317,-2.21309c-0.02711,-0.08927 -0.054,-0.17842 -0.08067,-0.26747c-0.18159,-0.35551 -0.35564,-0.71332 -0.49038,-1.10241c0,2.39039 -0.03825,-0.11348 -0.05604,-0.1713c-0.13306,-0.43251 -0.18713,-0.94046 -0.19798,-1.47997c-0.45401,-1.93473 -0.74268,-3.89117 -0.74268,-6.0155c0,-0.92283 0,-22.84566 0,-23.76849c-0.00001,-1.58936 -0.00899,-0.41831 -0.01751,-2.00892c-0.13727,-6.19323 -0.99767,-13.26876 0.46592,-19.12311c0.06232,-0.24928 0.12829,-0.48804 0.19829,-0.71655c0.08748,-0.61814 0.18867,-1.22625 0.30623,-1.8318c0.08254,-1.47145 0.31904,-2.90474 0.9671,-4.31489c0.07537,-0.16399 0.32269,-0.72397 0.56862,-1.22023c0.31104,-1.09307 0.77622,-3.21819 1.45078,-3.66873c1.73282,-1.15737 3.03337,2.71668 3.55082,4.00191c0.61286,-0.15324 1.20957,-0.12993 1.62842,0.21335c0.25606,0.20987 0.3349,1.07528 0.36325,1.89017c0.83147,0.94202 1.49508,2.07158 2.07029,3.38153c2.85567,5.7091 1.389,14.04769 1.389,20.41315c0,1.37584 0.00218,2.7518 0.00496,4.1278c0.09138,2.26774 0.0836,4.5333 0.01144,6.79701c0.00099,3.28447 -0.0096,6.56883 -0.05341,9.85247c-0.04539,3.22103 -0.46281,6.5195 -1.12203,9.78127c-0.18216,3.87331 -0.60345,7.8679 -2.28025,10.66255c0,0 -0.25725,0.42875 -0.68599,0.1715c-0.02543,-0.01526 -0.04845,-0.03112 -0.06925,-0.04746c-0.39341,0.1169 -0.85486,0.2601 -1.34631,0.38836c-0.69182,0.47418 -1.48937,0.71841 -2.37802,0.60273c-0.19384,0.3002 -0.39566,0.60082 -0.60575,0.90205c-1.71926,0.09982 -2.93671,0.12695 -3.48003,-1.84133c-0.10839,-0.39266 -0.15993,-0.83427 -0.17732,-1.29976c-0.00844,-0.01012 -0.01665,-0.02028 -0.02462,-0.03048c-1.00572,-1.28722 -0.73465,-3.37579 -0.73465,-4.88425c0,-2.80996 0,-5.61992 0,-8.42988v-21c0,-0.00239 0,-0.00477 0,-0.00716c0,-0.17372 0,-3.10877 0,-3.28249c0,-0.48937 -0.00637,-0.98566 -0.01751,-1.48775c-0.02857,-5.33738 -0.05194,-10.67855 0.28602,-16.00183c0.08614,-1.35676 0.20541,-2.61686 0.3782,-3.83783c0.08402,-0.27432 0.17384,-0.53386 0.27006,-0.77914c0.0057,-0.35316 0.01661,-0.70399 0.03617,-1.05266c0.32713,-1.68517 0.78098,-3.35048 1.41851,-5.15685c0.03637,-0.10306 0.0754,-0.23134 0.11721,-0.37826c0.21021,-0.42418 0.41941,-0.80182 0.51934,-0.84583c0.07866,-0.03465 0.35555,0.02031 0.6917,0.1093c-0.06423,0.26626 -0.12592,0.52896 -0.18826,0.77297c-0.03345,0.00733 -0.0669,0.01817 -0.10036,0.0329c-0.51039,0.2248 -0.3495,1.06173 -0.58239,1.56849c-0.0254,0.05525 -0.0501,0.11057 -0.07413,0.16594c0.04118,-0.05549 0.08418,-0.10882 0.12904,-0.1599c0.01314,-0.01495 0.06454,-0.04578 0.14265,-0.08748c-0.33401,1.0163 -0.60787,1.98994 -0.83357,2.95559c0.19645,-0.19967 0.40786,-0.3775 0.63566,-0.53463c0.15929,-0.2689 0.32987,-0.53181 0.51245,-0.78818l0.08085,0.24243c-0.03773,0.08306 -0.07288,0.16765 -0.10559,0.25368c0.05366,-0.02772 0.10811,-0.05452 0.16337,-0.08042l0.29091,0.87238c-0.16972,0.09007 -0.328,0.19246 -0.47595,0.3066c0.01467,0.28787 -0.01351,0.58766 -0.07082,0.89493c-0.09325,-0.14297 -0.17842,-0.30278 -0.2528,-0.48414c-0.06245,0.54081 -0.07921,1.10725 -0.07825,1.68152c-0.36956,1.08017 -0.87324,2.18064 -0.97818,3.1275c-0.00477,0.04307 -0.00944,0.08618 -0.01402,0.12932c0.00414,-0.11389 0.00838,-0.22777 0.01277,-0.34163c0,4.35929 0.00549,8.52413 0.00549,12.88342c0,1.01243 0,34.68255 0,35.69498c0,0.96483 -0.20668,-0.72488 -0.19453,0.4449c0.06182,0.26193 0.12677,0.52347 0.19453,0.78501c0,0.63034 0,2.71021 0,3.34055c-0.01217,-0.02597 -0.02443,-0.3808 -0.03677,-0.40657c-0.19558,-1.31115 -0.25466,-2.70841 -0.25069,-4.12392c0.03012,0.13511 0.06111,0.27007 0.09294,0.40492c0.00525,0.50512 0.05131,0.97709 0.17243,1.37078c0.13446,0.43706 0.33147,0.8461 0.54003,1.25684c0.0339,0.11307 0.06817,0.2263 0.1028,0.33974c0.094,1.09009 0.25833,2.15801 0.5884,3.14199c0.02404,0.07165 0.07726,0.29207 0.14691,0.56673c-0.41165,-0.57469 -0.73442,-1.17826 -0.93061,-1.72046c-0.10611,-0.42327 -0.2575,-0.80086 -0.42543,-1.15903c0,0.11257 0,0.55409 0,0.66666c-0.12007,-0.37881 -0.23729,-0.88344 -0.3508,-1.25724c-0.00407,-0.04444 -0.00803,-0.08891 -0.01188,-0.13342c-0.02301,-0.04469 -0.04596,-0.08936 -0.0688,-0.13405c-0.17282,-0.57702 -0.33625,-1.14986 -0.48708,-1.72232c-0.09055,-0.34365 -0.17655,-0.68716 -0.25732,-1.03136c-0.02478,-1.2321 0.17587,-2.62873 0.17587,-3.66706v-31.22736c0.02697,0.65704 0.04943,2.48452 0.06388,3.12429c0.00859,1.58542 0.01758,3.17048 0.01756,4.75463v21c0,1.08579 0.07812,2.12512 0.21665,3.13945c-0.40051,-6.53637 0.00809,-13.23594 0.00809,-19.77142c0,-6.75521 -0.28185,-13.58554 0.51398,-20.29643c0.00979,0.3964 0.02179,0.79304 0.0349,1.18941c0.00158,-0.51623 0.0044,-1.0324 0.00873,-1.54847c0.01152,-0.09255 0.02325,-0.18508 0.03519,-0.27758c0.31839,-2.46619 0.608,-4.80415 1.09829,-7.09443c0.00986,0.51154 0.01526,1.01746 -0.0035,1.50523c-0.07599,1.9757 -0.11445,3.95447 -0.1307,5.93467c-0.85318,6.80236 -0.55689,13.73503 -0.55689,20.58759c0,6.92993 -0.46934,14.05116 0.07692,20.95769c0.10804,1.37286 0.1082,2.85677 0.22392,4.30709c0.11084,0.21651 0.22287,0.43466 0.32868,0.65876c0.05973,0.41487 0.13333,0.82075 0.22319,1.2153c0.05948,0.18479 0.11951,0.37049 0.17999,0.55723c0.33443,0.70193 1.18443,1.81042 1.99135,2.47193c0.04478,-0.06454 0.08953,-0.1291 0.13417,-0.1937c0.07072,0.05312 0.14231,0.10341 0.21465,0.15048c0.53814,-0.32791 0.931,-0.75671 1.2805,-1.26793c-0.23709,0.51281 -0.4941,1.02471 -0.77259,1.53669c0.18313,0.07422 0.36902,0.12445 0.55584,0.14542c-0.07206,0.06011 -0.14616,0.11819 -0.2226,0.17422c0.12004,-0.0159 0.2259,-0.06901 0.31297,-0.16637c0.1748,0.01066 0.35014,-0.00495 0.52452,-0.05114c0.29007,-0.23594 0.54978,-0.52577 0.77965,-0.85349c-0.02614,0.12811 -0.05231,0.25637 -0.0785,0.3848c-0.01191,0.04444 -0.02421,0.08787 -0.03689,0.1303c0.09594,-0.0746 0.19096,-0.16074 0.28478,-0.25923c0.04881,-0.25768 0.09946,-0.5148 0.15171,-0.77141c0.34217,-0.61756 0.59798,-1.32251 0.77006,-2.03504c0.00729,-0.06138 0.01437,-0.12209 0.02134,-0.18196c-0.13835,0.22422 -0.27058,0.44474 -0.39025,0.66038c-0.03681,0.06633 -0.07324,0.13192 -0.10936,0.19677c0.24722,-1.10056 0.51725,-2.19374 0.79253,-3.2844c0.02265,-0.04458 0.04479,-0.08917 0.0664,-0.13375c0.01445,-0.09992 0.02888,-0.19984 0.04327,-0.29975c0.00668,-0.02634 0.01336,-0.05266 0.02004,-0.07899c0.00634,-0.06338 0.01257,-0.12679 0.01869,-0.19023c0.20156,-1.40411 0.39679,-2.80845 0.57336,-4.21598c-0.01588,-0.40353 -0.03995,-0.81167 -0.06847,-1.21939c-0.08095,0.58657 -0.16775,1.17204 -0.25961,1.7571c0.05388,-1.33566 0.07462,-2.67892 0.07614,-4.02383c-0.07356,-0.89381 -0.13322,-1.73502 -0.13322,-2.46212c0,-2.70953 0,-5.41907 0,-8.12861zM261.97753,175.29121c-0.30933,-0.25577 -0.60085,-0.54764 -0.86754,-0.85881c0.06655,0.25973 0.13751,0.4998 0.21087,0.6843c-0.15409,-0.15193 -0.30323,-0.31205 -0.44543,-0.47746c0.05143,0.17307 0.10468,0.33687 0.15724,0.47285c0.12594,0.04995 0.24429,0.09866 0.35062,0.14629c0.05432,0.10958 0.10961,0.18429 0.1651,0.21024c0.09307,0.04352 0.18836,0.07892 0.28552,0.10717c-0.09196,-0.0741 -0.18302,-0.15181 -0.27281,-0.23263c0.02483,0.01276 0.04854,0.02543 0.07106,0.03804c0.12002,-0.02738 0.23502,-0.0574 0.34537,-0.08999zM262.56953,112.42846c-0.02928,0.08527 -0.05582,0.15721 -0.07916,0.21143c-0.22021,0.51161 -0.41401,1.02794 -0.58591,1.54843c0.76893,0.68855 1.86078,0.87754 2.13843,2.4623c3.34148,6.60483 2.92185,13.2162 2.92185,20.44783c0,7 0,14 0,21c0,0.2942 -0.00122,0.5861 -0.00382,0.8758c0.13908,-1.65259 0.21792,-3.3266 0.21863,-5.03769c0.00294,-7 0.00587,-14 0.0088,-21c0.00231,-5.52724 -0.51288,-11.07963 -0.96877,-16.60737c-0.25289,-1.31606 -0.56948,-2.60961 -0.96496,-3.86653c-0.63277,-0.14006 -1.34255,-0.07855 -1.93318,-0.07855c-0.26618,0 -0.51641,0.01498 -0.75191,0.04433zM268.36362,118.62463c0.63447,2.92404 1.0126,5.84059 1.27382,8.77684c0.20916,-4.53522 0.18379,-9.21627 -1.59893,-12.78307c-0.3374,-0.76774 -0.70112,-1.46592 -1.11409,-2.09398c0.00641,0.08839 0.01287,0.17681 0.01937,0.26522c0.29859,0.98447 0.52131,2.00267 0.71662,2.86766c-0.17588,-0.5317 -0.37883,-1.03745 -0.61227,-1.49398c0.05545,0.7097 0.11306,1.41989 0.17162,2.13049c0.32421,1.71991 0.54451,3.47466 0.69203,5.2363c0.27771,0.12027 0.27771,0.45811 0.27771,0.45811c0,0.19819 0,1.23349 0,1.43169c-0.08141,-0.59199 -0.17043,-1.18368 -0.26822,-1.77532c0.2114,2.57974 0.26822,5.17298 0.26822,7.69207c0,6.86166 -0.00004,13.72332 -0.0003,20.58498c0,0.09951 0.0001,0.19911 0.0003,0.29878c0,2.70745 0,5.41491 0,8.12236c0,0.07064 0.00049,0.14213 0.00143,0.21443c0.03467,-0.41066 0.06711,-0.82091 0.09744,-1.23085c0.01781,1.18184 0.03017,2.36624 0.0279,3.54941c0.005,0.065 0.01006,0.13022 0.01517,0.19567c0.03401,-0.95313 0.07673,-1.86209 0.14775,-2.70005c0.36106,-4.26045 0.73124,-8.52591 0.87003,-12.79785c-0.00061,-2.27702 -0.00684,-4.55409 -0.01145,-6.83101c-0.01729,-0.4208 -0.03807,-0.84168 -0.06254,-1.26262c-0.13533,-2.3365 -0.24561,-4.64263 -0.3975,-6.93115c0.02873,-3.16862 -0.00504,-6.33242 -0.22632,-9.4611c-0.05016,-0.71231 -0.14116,-1.56688 -0.28779,-2.46304zM268.7204,141.85106c0,5.23257 -0.05117,10.32939 -0.43205,15.47531c-0.036,-2.38964 -0.09425,-4.76877 -0.09887,-7.10594c0,-4.23274 0,-8.46547 0,-12.69822c0,-4.70076 0,-9.40153 0,-14.1023c0.32549,2.36678 0.52957,4.73821 0.68824,7.12886c-0.03425,3.77772 -0.15732,7.56227 -0.15732,11.30229zM262.77453,174.70166c0.53614,-0.77588 1.05567,-1.5582 1.39394,-2.3908c1.84946,-4.55214 1.79629,-9.40461 1.79629,-14.21241c0,-7 0,-14 0,-21c0,-7.17831 0.37636,-13.56818 -2.87154,-20.13465c-0.18853,-1.0761 -0.81504,-1.46679 -1.45113,-1.92032c-0.81776,2.87425 -1.05201,5.86436 -1.44119,8.87884c-0.00936,0.07246 -0.01858,0.14494 -0.02768,0.21744c-0.04016,4.89578 0.05548,9.80027 0.05548,14.68864c0,6.91203 0,13.82404 0,20.73607c0,3.40264 -0.48944,7.56819 0.01715,11.08643c0.17809,0.37716 0.33857,0.77117 0.44612,1.20261c0.31378,0.86361 1.11585,2.12186 2.08257,2.84815zM261.47234,176.69342c-0.26274,-0.10425 -0.53208,-0.23949 -0.80771,-0.40847c-0.12588,-0.07717 -0.23792,-0.21095 -0.33825,-0.37998c-0.3188,-0.12323 -0.65107,-0.2562 -0.96274,-0.40032c0.21617,0.78618 0.74695,1.33792 1.95975,1.46573c0.04783,-0.09277 0.09757,-0.18507 0.14894,-0.27696zM260.41781,109.93172c0.42464,-0.22671 1.63871,-0.77484 1.78627,-0.84145c0.0293,-0.01323 0.05844,-0.02603 0.08741,-0.03841c-0.47424,-0.18617 -0.93137,-0.74024 -1.3885,-0.64008c-0.06384,0.24992 -0.12837,0.48023 -0.19699,0.67466c-0.10074,0.28544 -0.19672,0.56696 -0.2882,0.84529zM261.09126,107.63881c0.59049,0.15631 1.36388,0.41762 1.567,0.48274c0.3883,0.12449 0.75568,0.26422 1.10385,0.41902c-0.29453,-0.86803 -0.62026,-1.95094 -1.04312,-2.45254c-0.22451,-0.26632 -0.72315,-0.78698 -0.91841,-0.49853c-0.31149,0.46015 -0.5213,1.26992 -0.70933,2.0493zM262.88415,111.45083c0.44349,-0.04984 0.92157,-0.07127 1.4373,-0.06671c0.18734,0.00165 0.38394,0.01331 0.58401,0.03709c-0.17497,-0.4906 -0.36307,-0.9748 -0.56521,-1.45172c-0.02761,-0.01691 -0.05539,-0.03369 -0.08334,-0.05034c-0.27209,-0.01235 -0.52985,0.00948 -0.73897,0.16692c-0.2103,0.15833 -0.43781,0.76823 -0.63379,1.36475zM265.68318,109.6871c0.07039,0.05509 0.13977,0.11113 0.20817,0.16814c-0.0037,-0.09624 -0.00858,-0.15467 -0.015,-0.15993c-0.05824,-0.04773 -0.12368,-0.04035 -0.19317,-0.00821zM260.81318,111.80693l0.05778,0.17326c0.29483,-0.13818 0.61268,-0.2507 0.95569,-0.33926c0.16598,-0.4106 0.34416,-0.82158 0.53593,-1.23346c0.06311,-0.13555 0.17366,-0.28503 0.31997,-0.4381c-0.02169,0.01083 -0.04242,0.02091 -0.06209,0.03007c-0.90322,0.4203 -1.4631,1.04993 -1.80727,1.80749zM267.8991,116.666c-0.07708,-0.29869 -0.15539,-0.63976 -0.2387,-1.00869c0.31441,0.95052 0.5423,1.98397 0.70321,2.96733c-0.14156,-0.6524 -0.29588,-1.30519 -0.46452,-1.95864zM259.29247,172.60907c-0.02502,0.59518 -0.06733,1.1768 -0.06301,1.71187c0.17452,0.11206 0.38866,0.21842 0.61902,0.31983c-0.11313,-0.40956 -0.20147,-0.79447 -0.27793,-1.02522c-0.10874,-0.32816 -0.20038,-0.66427 -0.27808,-1.00647zM261.25838,113.18092c0.05018,-0.14968 0.10177,-0.29932 0.15481,-0.44897c-0.08646,0.03735 -0.1702,0.07758 -0.25131,0.12062l0.04341,0.13019c0.01585,0.06904 0.03359,0.13503 0.05309,0.19816zM267.90151,121.52582c-0.13091,-0.78249 -0.27733,-1.5649 -0.442,-2.34775c0.06378,0.77021 0.12676,1.54073 0.18739,2.31142c0.01378,-0.00083 0.02796,-0.00126 0.04258,-0.00126c0.08399,0 0.15388,0.01411 0.21203,0.03759zM266.96257,168.77624c0.01293,-0.08974 0.02584,-0.17948 0.03872,-0.26923c0.1174,-1.2165 0.1955,-2.44415 0.24529,-3.67828c-0.28063,1.7874 -0.60839,3.57104 -0.96011,5.37114c0.20261,-0.32755 0.39808,-0.65871 0.56642,-0.99014c0.03648,-0.14454 0.07305,-0.28904 0.10967,-0.4335zM264.8764,172.16126c-0.18609,0.4756 -0.38793,0.94966 -0.60674,1.42295c0.16447,-0.24058 0.31933,-0.49941 0.47522,-0.77457c0.04402,-0.21651 0.08788,-0.43262 0.13152,-0.64838zM261.56109,175.34316c-0.05428,-0.02789 -0.11387,-0.05614 -0.17782,-0.08479c-0.02096,-0.04229 -0.04179,-0.08979 -0.06242,-0.14167c0.07887,0.07776 0.15904,0.15337 0.24024,0.22646zM264.26761,175.07567c-0.0696,0.06566 -0.14108,0.12922 -0.2147,0.19064c0.0301,0.00338 0.06023,0.006 0.09038,0.00784c0.0472,-0.05278 0.08889,-0.11858 0.12432,-0.19849zM259.17391,124.07187c0.01558,-1.85623 0.05071,-3.71121 0.11795,-5.56358c-0.20416,1.92582 -0.21103,3.92121 -0.16159,5.92264c0.0142,-0.11972 0.02875,-0.23942 0.04363,-0.35906zM260.3074,116.69987c0.16521,-0.77176 0.35322,-1.5381 0.57278,-2.30211c-0.09345,-0.10351 -0.18243,-0.21698 -0.26506,-0.34366c-0.07276,0.39016 -0.19248,0.79234 -0.33105,1.19738c0.00081,0.48079 0.01405,0.96707 0.02333,1.44839zM259.31008,117.40724c0.00003,0.02321 0.00005,0.04644 0.00005,0.06967c0,0.16511 0,0.3302 0,0.49531c0.00885,-0.22992 0.00398,-0.2906 -0.00005,-0.56498zM265.9029,111.26272c0,-0.01075 0,-0.02154 0,-0.03233c-0.00588,-0.00616 -0.01178,-0.01229 -0.01768,-0.01843c0.00591,0.01692 0.0118,0.03384 0.01768,0.05076zM265.69991,173.13084c-0.08366,0.41143 -0.1679,0.82425 -0.25246,1.23869c0.11441,-0.16312 0.22143,-0.33562 0.32111,-0.51554c0.09261,-0.45475 0.19027,-0.90793 0.29179,-1.35985c-0.12299,0.22085 -0.24233,0.43312 -0.36043,0.6367z" data-paper-data="{&quot;index&quot;:null}" fill="#000000" stroke="none" stroke-width="0.5"/><path d="M163.58293,139.34238c0,-39.40612 34.03163,-71.3511 76.01175,-71.3511c41.98012,0 76.01175,31.94499 76.01175,71.3511c0,39.40612 -34.03163,71.35109 -76.01175,71.35109c-41.98012,0 -76.01175,-31.94498 -76.01175,-71.35109z" fill="none" stroke="#ffffff" stroke-width="2.5"/></g></g></svg>