<svg version="1.1" xmlns="http://www.w3.org/2000/svg" xmlns:xlink="http://www.w3.org/1999/xlink" width="34.67311" height="34.67311" viewBox="0,0,34.67311,34.67311"><defs><linearGradient x1="235.91708" y1="175.5822" x2="252.27005" y2="175.5822" gradientUnits="userSpaceOnUse" id="color-1"><stop offset="0" stop-color="#000000"/><stop offset="1" stop-color="#000000" stop-opacity="0"/></linearGradient><linearGradient x1="244.41529" y1="183.52448" x2="243.1042" y2="167.22413" gradientUnits="userSpaceOnUse" id="color-2"><stop offset="0" stop-color="#000000"/><stop offset="1" stop-color="#000000" stop-opacity="0"/></linearGradient><linearGradient x1="244.03786" y1="184.08568" x2="227.68488" y2="184.08568" gradientUnits="userSpaceOnUse" id="color-3"><stop offset="0" stop-color="#000000"/><stop offset="1" stop-color="#000000" stop-opacity="0"/></linearGradient><linearGradient x1="235.53966" y1="176.1434" x2="236.85074" y2="192.44372" gradientUnits="userSpaceOnUse" id="color-4"><stop offset="0" stop-color="#000000"/><stop offset="1" stop-color="#000000" stop-opacity="0"/></linearGradient><radialGradient cx="240.18874" cy="179.65936" r="0.66941" gradientUnits="userSpaceOnUse" id="color-5"><stop offset="0" stop-color="#ffffff"/><stop offset="1" stop-color="#969696"/></radialGradient><linearGradient x1="240.00002" y1="167.41507" x2="240.00002" y2="192.58497" gradientUnits="userSpaceOnUse" id="color-6"><stop offset="0" stop-color="#000000"/><stop offset="1" stop-color="#000000" stop-opacity="0.09677"/></linearGradient></defs><g transform="translate(-222.66346,-162.66346)"><g data-paper-data="{&quot;isPaintingLayer&quot;:true}" stroke-miterlimit="10" stroke-dasharray="" stroke-dashoffset="0" style="mix-blend-mode: normal"><path d="M229.98313,162.91347h20.03379c3.9166,0 7.06966,3.15307 7.06966,7.06966v20.03379c0,3.91659 -3.15306,7.06966 -7.06966,7.06966h-20.03379c-3.91659,0 -7.06966,-3.15307 -7.06966,-7.06966v-20.03379c0,-3.91659 3.15307,-7.06966 7.06966,-7.06966z" fill="#000000" fill-rule="evenodd" stroke="#803f29" stroke-width="0.5" stroke-linecap="round" stroke-linejoin="round"/><g fill-rule="nonzero" stroke-linecap="butt" stroke-linejoin="miter"><path d="M227.50432,180.03153c0,-6.92583 5.6145,-12.54031 12.54032,-12.54031c6.92582,0 12.54032,5.61449 12.54032,12.54031c0,6.92583 -5.6145,12.54032 -12.54032,12.54032c-6.92582,0 -12.54032,-5.6145 -12.54032,-12.54032z" fill="#000000" stroke="none" stroke-width="0"/><path d="M228.12909,179.98691c0,-0.5234 0.03362,-1.03896 0.09883,-1.54461c0.0312,-0.24201 11.6991,2.24799 11.6991,2.24799c0,0 -3.95802,-11.93797 -3.70978,-12.02286c1.21441,-0.4153 2.51689,-0.64067 3.87202,-0.64067c6.60542,0 11.96016,5.35475 11.96016,11.96016c0,1.0981 -0.14799,2.16162 -0.4251,3.17174c-0.03162,0.11527 -12.56353,-4.53093 -12.56353,-4.53093c0,0 4.26433,12.87953 4.00853,12.94512c-0.95267,0.24432 -1.95119,0.37423 -2.98006,0.37423c-6.60541,0 -11.96017,-5.35475 -11.96017,-11.96016z" fill="#ffffff" stroke="none" stroke-width="0"/><g stroke="none" stroke-width="0"><g><g fill="url(#color-1)"><path d="M242.63304,168.116c4.08748,0.94165 5.49553,2.78678 5.49553,2.78678l-4.68617,5.02338c0,0 -1.49483,-0.99353 -2.37013,-1.09701c-2.12952,-0.25176 -3.33025,0.52518 -3.35,0.47008c-1.13839,-3.17638 -1.83768,-7.16279 -1.80403,-7.17395c1.24129,-0.41137 4.14626,-0.601 6.71479,-0.00928z"/></g><g data-paper-data="{&quot;index&quot;:null}" fill="url(#color-2)"><path d="M251.66959,183.81802c-0.00842,0.03445 -3.85954,-1.23554 -7.11697,-2.1156c-0.05651,-0.01526 0.62167,-1.27443 0.19999,-3.3769c-0.17332,-0.86418 -1.46202,-2.27455 -1.46202,-2.27455c0,0 4.79702,-5.17053 4.81001,-5.16309c2.51229,1.44145 4.04728,6.6958 4.0487,6.71333c0.11059,1.37486 -0.16918,4.94654 -0.4797,6.21681z"/></g></g><g data-paper-data="{&quot;index&quot;:null}"><g fill="url(#color-3)"><path d="M231.82637,188.76511l4.68617,-5.02338c0,0 1.49483,0.99354 2.37013,1.09702c2.12952,0.25176 3.33024,-0.52519 3.34999,-0.47009c1.13839,3.17638 1.83768,7.16279 1.80402,7.17395c-1.24129,0.41137 -4.33231,0.78704 -6.90083,0.19531c-2.56853,-0.59172 -5.30948,-2.97281 -5.30948,-2.97281z"/></g><g data-paper-data="{&quot;index&quot;:null}" fill="url(#color-4)"><path d="M228.28534,175.84986c0.00842,-0.03445 3.85955,1.23554 7.11698,2.11561c0.05651,0.01526 -0.62167,1.27443 -0.19999,3.3769c0.17332,0.86418 1.46202,2.27454 1.46202,2.27454c0,0 -4.79701,5.17055 -4.81,5.16309c-2.51229,-1.44145 -4.04728,-6.6958 -4.0487,-6.71333c-0.11059,-1.37486 0.16918,-4.94654 0.4797,-6.21681z"/></g></g></g><path d="M234.91787,179.89274c0,-2.79434 2.26526,-5.0596 5.0596,-5.0596c2.79434,0 5.0596,2.26526 5.0596,5.0596c0,2.79434 -2.26526,5.0596 -5.0596,5.0596c-2.79434,0 -5.0596,-2.26526 -5.0596,-5.0596z" fill="#f65c52" stroke="none" stroke-width="0"/><g fill="none" stroke="#000000" stroke-width="0.25"><g><path d="M229.28942,180.03153c0,-5.93994 4.81528,-10.75522 10.75522,-10.75522c5.93995,0 10.75522,4.81527 10.75522,10.75522c0,5.93994 -4.81529,10.75522 -10.75522,10.75522c-5.93995,0 -10.75522,-4.81528 -10.75522,-10.75522z"/><path d="M230.89601,179.98691c0,-5.07729 4.11596,-9.19326 9.19325,-9.19326c5.07729,0 9.19326,4.11596 9.19326,9.19326c0,5.07729 -4.11597,9.19326 -9.19326,9.19326c-5.07729,0 -9.19325,-4.11596 -9.19325,-9.19326z"/><path d="M232.23483,180.03153c0,-4.31324 3.49657,-7.80981 7.80981,-7.80981c4.31324,0 7.80981,3.49657 7.80981,7.80981c0,4.31324 -3.49657,7.80982 -7.80981,7.80982c-4.31324,0 -7.80981,-3.49658 -7.80981,-7.80982z"/><path d="M233.4844,179.98691c0,-3.59848 2.91713,-6.51561 6.51561,-6.51561c3.59848,0 6.51561,2.91714 6.51561,6.51561c0,3.59848 -2.91714,6.5156 -6.51561,6.5156c-3.59848,0 -6.51561,-2.91713 -6.51561,-6.5156z"/></g><path d="M235.00173,179.85303c0,-2.78512 2.25779,-5.0429 5.0429,-5.0429c2.78512,0 5.04291,2.25778 5.04291,5.0429c0,2.78512 -2.25779,5.0429 -5.04291,5.0429c-2.78512,0 -5.0429,-2.25778 -5.0429,-5.0429z"/></g><path d="M235.99795,179.89274c0,-2.19783 1.78168,-3.97952 3.97951,-3.97952c2.19783,0 3.97952,1.78169 3.97952,3.97952c0,2.19783 -1.78169,3.97952 -3.97952,3.97952c-2.19783,0 -3.97951,-1.78169 -3.97951,-3.97952z" fill="none" stroke="#c44b40" stroke-width="0.25"/><path d="M239.30805,179.89274c0,-0.36971 0.29971,-0.66941 0.66942,-0.66941c0.36971,0 0.66941,0.2997 0.66941,0.66941c0,0.36971 -0.2997,0.66941 -0.66941,0.66941c-0.36971,0 -0.66942,-0.2997 -0.66942,-0.66941z" fill="url(#color-5)" stroke="none" stroke-width="0"/><text transform="translate(236.95203,178.66413) scale(0.04074,0.04074)" font-size="40" xml:space="preserve" fill="#fbff00" fill-rule="nonzero" stroke="none" stroke-width="1" stroke-linecap="butt" stroke-linejoin="miter" stroke-miterlimit="10" stroke-dasharray="" stroke-dashoffset="0" font-family="Sans Serif" font-weight="normal" text-anchor="start" style="mix-blend-mode: normal"><tspan x="0" dy="0">Sprunki</tspan></text></g><path d="M227.41507,180.00002c0,-6.95048 5.63447,-12.58495 12.58495,-12.58495c6.95048,0 12.58495,5.63447 12.58495,12.58495c0,6.95048 -5.63447,12.58495 -12.58495,12.58495c-6.95048,0 -12.58495,-5.63447 -12.58495,-12.58495z" fill="url(#color-6)" fill-rule="nonzero" stroke="#803f29" stroke-width="0" stroke-linecap="butt" stroke-linejoin="miter"/></g></g></svg>