<svg version="1.1" xmlns="http://www.w3.org/2000/svg" xmlns:xlink="http://www.w3.org/1999/xlink" width="34.67311" height="34.67311" viewBox="0,0,34.67311,34.67311"><defs><linearGradient x1="240.00001" y1="162.91345" x2="240.00001" y2="197.08656" gradientUnits="userSpaceOnUse" id="color-1"><stop offset="0" stop-color="#000000"/><stop offset="1" stop-color="#261213"/></linearGradient><linearGradient x1="222.91346" y1="180" x2="257.08657" y2="180" gradientUnits="userSpaceOnUse" id="color-2"><stop offset="0" stop-color="#5c2c2d"/><stop offset="1" stop-color="#99494b"/></linearGradient><linearGradient x1="239.6483" y1="168.35101" x2="239.6483" y2="175.3844" gradientUnits="userSpaceOnUse" id="color-3"><stop offset="0" stop-color="#d5d5d5"/><stop offset="1" stop-color="#7a7a7a"/></linearGradient><linearGradient x1="239.99997" y1="165.00994" x2="239.99997" y2="194.98997" gradientUnits="userSpaceOnUse" id="color-4"><stop offset="0" stop-color="#8f4445"/><stop offset="1" stop-color="#482323"/></linearGradient></defs><g transform="translate(-222.66345,-162.66344)"><g data-paper-data="{&quot;isPaintingLayer&quot;:true}" stroke-linecap="round" stroke-miterlimit="10" stroke-dasharray="" stroke-dashoffset="0" style="mix-blend-mode: normal"><path d="M229.98312,162.91345h20.03379c3.9166,0 7.06966,3.15307 7.06966,7.06966v20.03379c0,3.91659 -3.15306,7.06966 -7.06966,7.06966h-20.03379c-3.91659,0 -7.06966,-3.15307 -7.06966,-7.06966v-20.03379c0,-3.91659 3.15307,-7.06966 7.06966,-7.06966z" fill="url(#color-1)" fill-rule="evenodd" stroke="url(#color-2)" stroke-width="0.5" stroke-linejoin="round"/><g fill-rule="nonzero" stroke="#000000" stroke-width="0" stroke-linejoin="miter"><path d="M239.03288,168.35101l8.96757,1.05501l-0.26375,5.97838c0,0 -4.52378,-2.58364 -7.64881,-2.63752c-3.12503,-0.05388 -7.64881,2.37377 -7.64881,2.37377l-1.14293,-4.13212z" fill="url(#color-3)"/><path d="M229.53782,169.66978c0,0 6.23338,-4.69679 10.638,-4.65962c4.40461,0.03717 10.19841,4.83545 10.19841,4.83545l1.49459,23.12226l-4.5717,2.0221l-0.26375,-23.64977c0,0 -4.15761,-2.19793 -7.03339,-2.19793c-2.87578,0 -7.03339,2.19793 -7.03339,2.19793l-0.08792,23.64977l-4.74754,-2.11002l1.40668,-23.21018z" fill="url(#color-4)"/></g></g></g></svg>