<svg version="1.1" xmlns="http://www.w3.org/2000/svg" xmlns:xlink="http://www.w3.org/1999/xlink" width="161.77262" height="267.22501" viewBox="0,0,161.77262,267.22501"><g transform="translate(-174.83999,-46.38751)"><g data-paper-data="{&quot;isPaintingLayer&quot;:true}" fill-rule="nonzero" stroke-linejoin="miter" stroke-miterlimit="10" stroke-dasharray="" stroke-dashoffset="0" style="mix-blend-mode: normal"><path d="M179.28378,313.61252v-267.22501h123.18203v267.22501z" fill-opacity="0.01" fill="#000000" stroke="none" stroke-width="0" stroke-linecap="butt"/><path d="M206.75009,307.5l15.14285,-131.8421l37.78325,-0.15789l13.57389,132z" fill="#fb7f73" stroke="#000000" stroke-width="2" stroke-linecap="butt"/><path d="M219.70032,204.11263l3.12142,-26.32765l35.83075,-0.14203l2.76735,26.1059c0,0 -7.51543,4.19603 -21.55904,4.50964c-12.48458,0.27879 -20.16049,-4.14586 -20.16049,-4.14586z" fill="#c85043" stroke="#000000" stroke-width="0" stroke-linecap="butt"/><g><path d="M175.84,139.94133c0,-33.30185 28.7599,-60.29833 64.23702,-60.29833c35.47712,0 64.23702,26.99649 64.23702,60.29833c0,33.30185 -28.7599,60.29833 -64.23702,60.29833c-35.47712,0 -64.23702,-26.99649 -64.23702,-60.29833z" fill="#fb7f73" stroke="#000000" stroke-width="2" stroke-linecap="butt"/><path d="M176.56307,139.66184c0,-0.72799 5.20666,55.91939 63.36046,56.93429c55.56352,0.9697 63.51358,-57.95314 63.51358,-56.93429c0,32.80479 -28.40173,59.39833 -63.43702,59.39833c-35.03529,0 -63.43702,-26.59354 -63.43702,-59.39833z" fill="#c85043" stroke="#000000" stroke-width="0" stroke-linecap="butt"/><path d="M189.39021,140.03747c0,-12.968 10.51265,-23.48065 23.48065,-23.48065c12.968,0 23.48065,10.51265 23.48065,23.48065c0,12.968 -10.51265,23.48065 -23.48065,23.48065c-12.968,0 -23.48065,-10.51265 -23.48065,-23.48065z" fill="#ffffff" stroke="#000000" stroke-width="2" stroke-linecap="butt"/><path d="M196.4556,139.76184c0,-9.12808 7.39976,-16.52784 16.52783,-16.52784c9.12808,0 16.52784,7.39977 16.52784,16.52784c0,9.12808 -7.39977,16.52784 -16.52784,16.52784c-9.12808,0 -16.52783,-7.39977 -16.52783,-16.52784z" fill="#000000" stroke="none" stroke-width="0" stroke-linecap="butt"/><path d="M267.1293,163.51811c-12.968,0 -23.48065,-10.51265 -23.48065,-23.48065c0,-12.968 10.51265,-23.48065 23.48065,-23.48065c12.968,0 23.48065,10.51265 23.48065,23.48065c0,12.968 -10.51265,23.48065 -23.48065,23.48065z" data-paper-data="{&quot;index&quot;:null}" fill="#ffffff" stroke="#000000" stroke-width="2" stroke-linecap="butt"/><path d="M267.01671,156.28968c-9.12807,0 -16.52783,-7.39977 -16.52783,-16.52784c0,-9.12808 7.39977,-16.52784 16.52783,-16.52784c9.12807,0 16.52783,7.39977 16.52783,16.52784c0,9.12808 -7.39977,16.52784 -16.52783,16.52784z" data-paper-data="{&quot;index&quot;:null}" fill="#000000" stroke="none" stroke-width="0" stroke-linecap="butt"/><path d="M189.39021,140.03747c0,-12.968 10.51265,-23.48065 23.48065,-23.48065c12.968,0 23.48065,10.51265 23.48065,23.48065c0,0 -46.96131,0.58624 -46.96131,0z" fill="#fb7f73" stroke="#000000" stroke-width="2" stroke-linecap="butt"/><path d="M243.64867,140.03747c0,-12.968 10.51265,-23.48065 23.48065,-23.48065c12.968,0 23.48065,10.51265 23.48065,23.48065c0,0.58092 -46.96131,0 -46.96131,0z" data-paper-data="{&quot;index&quot;:null}" fill="#fb7f73" stroke="#000000" stroke-width="2" stroke-linecap="butt"/><path d="M202.02788,111.229c0,0 6.70895,-5.16922 11.79722,-6.36355c5.08827,-1.19433 12.33413,0.69937 12.33413,0.69937c0,0 -8.03812,-0.06028 -11.96762,0.86207c-4.10648,0.96388 -12.16372,4.80211 -12.16372,4.80211z" fill="#000000" stroke="none" stroke-width="0" stroke-linecap="butt"/><path d="M265.96236,106.4269c-3.9295,-0.92235 -11.96762,-0.86207 -11.96762,-0.86207c0,0 7.24586,-1.8937 12.33413,-0.69937c5.08826,1.19433 11.79721,6.36355 11.79721,6.36355c0,0 -8.05724,-3.83822 -12.16372,-4.80211z" data-paper-data="{&quot;index&quot;:null}" fill="#000000" stroke="none" stroke-width="0" stroke-linecap="butt"/><g stroke="#000000" stroke-width="2" stroke-linecap="round"><path d="M335.39986,118.38089l-2.66666,10.33333l-35.33334,-9.66667l-1.18182,-11.69697z" fill="#c95045"/><path d="M204.06655,92.04755c0,0 7.83762,-22.46259 30.24242,-28.84848c23.10951,-6.58675 44.10372,-2.00268 56.75757,16.51515c12.65385,18.51783 6,39.66667 6,39.66667l-93,-27.33334z" fill="#c85045"/><path d="M215.06654,76.38089c0,0 2.13182,3.17819 1.41756,5.46381c-0.90626,2.90004 -5.75089,12.20285 -5.75089,12.20285" fill="none"/></g></g><path d="M244.98277,182.76184c0,4.31131 -2.23085,7.80631 -4.98275,7.80631c-2.7519,0 -4.98275,-3.495 -4.98275,-7.80631c0,-4.31131 2.23085,-7.80631 4.98275,-7.80631c2.7519,0 4.98275,3.495 4.98275,7.80631z" fill="#000000" stroke="none" stroke-width="0" stroke-linecap="butt"/></g></g></svg>