<svg version="1.1" xmlns="http://www.w3.org/2000/svg" xmlns:xlink="http://www.w3.org/1999/xlink" width="100.894" height="229.23165" viewBox="0,0,100.894,229.23165"><defs><linearGradient x1="235.45388" y1="80.29879" x2="235.45388" y2="200.89545" gradientUnits="userSpaceOnUse" id="color-1"><stop offset="0" stop-color="#000000"/><stop offset="1" stop-color="#781111"/></linearGradient><linearGradient x1="235.38404" y1="80.36763" x2="235.38404" y2="118.85472" gradientUnits="userSpaceOnUse" id="color-2"><stop offset="0" stop-color="#612323"/><stop offset="1" stop-color="#ad3e3e"/></linearGradient><linearGradient x1="259.6887" y1="78.26836" x2="259.6887" y2="93.31261" gradientUnits="userSpaceOnUse" id="color-3"><stop offset="0" stop-color="#000000"/><stop offset="1" stop-color="#28562c"/></linearGradient><linearGradient x1="240.00007" y1="190.50167" x2="240.00007" y2="307.50002" gradientUnits="userSpaceOnUse" id="color-4"><stop offset="0" stop-color="#4e1c1c"/><stop offset="1" stop-color="#ff5c5c"/></linearGradient><linearGradient x1="235.78878" y1="176.82328" x2="235.78878" y2="201.42" gradientUnits="userSpaceOnUse" id="color-5"><stop offset="0" stop-color="#000000"/><stop offset="1" stop-color="#752a2a"/></linearGradient></defs><g transform="translate(-186.15774,-78.26836)"><g data-paper-data="{&quot;isPaintingLayer&quot;:true}" fill-rule="nonzero" stroke="#000000" stroke-width="0" stroke-linejoin="miter" stroke-miterlimit="10" stroke-dasharray="" stroke-dashoffset="0" style="mix-blend-mode: normal"><path d="M221.50457,144.43521c0,-16.18072 -44.50136,-34.71099 -33.45052,-45.54115c11.69309,-11.4596 28.15707,-18.59527 46.39655,-18.59527c19.12589,0 36.29953,7.8461 48.06721,20.29636c10.06051,10.64406 -34.07443,25.00223 -34.07443,40.35089c0,14.97116 44.43177,28.31906 34.80955,38.8616c-11.78145,12.90829 -29.27427,21.08781 -48.80232,21.08781c-18.01448,0 -34.297,-6.96071 -45.96165,-18.17317c-11.30733,-10.86899 33.01563,-21.89514 33.01563,-38.28706z" fill="url(#color-1)" stroke-linecap="butt"/><path d="M186.19261,101.28131c0,0 3.58657,-4.80876 10.14868,-9.54978c3.26684,-2.36025 7.88944,-4.39455 11.94549,-6.42471c13.69231,-6.85335 30.10476,-4.57626 30.10476,-4.57626c0,0 7.42596,0.07635 15.30273,2.05666c4.01939,1.01052 7.80205,2.87091 11.50598,4.73924c15.69029,7.91447 19.40642,15.85586 19.40642,15.85586c0,0 0.73392,4.08705 -18.53592,11.07933c-11.36669,4.12453 -31.61445,4.36804 -31.61445,4.36804c0,0 -13.08631,0.51948 -26.34191,-3.17368c-23.79937,-6.63078 -21.92178,-14.37468 -21.92178,-14.37468z" fill="url(#color-2)" stroke-linecap="round"/><path d="M232.32566,91.35297c0,0 5.44588,-2.76421 8.07909,-3.25562c2.02525,-0.37795 6.38061,0.5572 6.38061,0.5572c0,0 6.12922,-10.26338 11.3809,-10.3851c3.62113,-0.08392 7.81417,4.70287 14.00439,7.03065c6.47965,2.43662 14.88109,2.42124 14.88109,2.42124c0,0 -11.98095,2.89274 -17.41393,4.13074c-2.55222,0.58158 -9.39405,1.91392 -13.51189,1.30447c-5.93106,-0.87781 -9.86061,-4.1666 -9.86061,-4.1666c0,0 -3.28084,-0.51556 -5.28726,-0.40778c-2.74202,0.1473 -8.65238,2.7708 -8.65238,2.7708z" fill="url(#color-3)" stroke-linecap="round"/><path d="M206.75008,307.50001l13.16461,-116.84045l40.58576,-0.15789l12.74962,116.99835z" fill="url(#color-4)" stroke-linecap="butt"/><path d="M235.81696,189.39513c40.75791,-1.25168 48.72944,-12.57185 48.72944,-12.57185c0,0 -6.49398,11.59985 -19.68666,17.64406c-12.65996,5.80014 -29.14578,6.90429 -29.14578,6.90429c0,0 -13.21825,0.91534 -28.78592,-5.21729c-10.72801,-4.22613 -19.89688,-14.87724 -19.89688,-14.87724c0,0 11.78167,9.25443 48.7858,8.11803z" fill="url(#color-5)" stroke-linecap="round"/></g></g></svg>