<svg version="1.1" xmlns="http://www.w3.org/2000/svg" xmlns:xlink="http://www.w3.org/1999/xlink" width="166.25061" height="373.1634" viewBox="0,0,166.25061,373.1634"><defs><linearGradient x1="239.98965" y1="184.34848" x2="239.98965" y2="316.34846" gradientUnits="userSpaceOnUse" id="color-1"><stop offset="0" stop-color="#000000"/><stop offset="1" stop-color="#3f2222"/></linearGradient><linearGradient x1="249.05754" y1="276.64358" x2="249.05754" y2="304.29043" gradientUnits="userSpaceOnUse" id="color-2"><stop offset="0" stop-color="#1a0c12"/><stop offset="1" stop-color="#4d2637"/></linearGradient><linearGradient x1="245.70968" y1="269.56988" x2="245.70968" y2="282.7453" gradientUnits="userSpaceOnUse" id="color-3"><stop offset="0" stop-color="#1a0c12"/><stop offset="1" stop-color="#4d2637"/></linearGradient><linearGradient x1="233.83018" y1="267.84193" x2="233.83018" y2="281.01742" gradientUnits="userSpaceOnUse" id="color-4"><stop offset="0" stop-color="#1a0c12"/><stop offset="1" stop-color="#4d2637"/></linearGradient><linearGradient x1="230.15833" y1="266.33001" x2="230.15833" y2="279.50543" gradientUnits="userSpaceOnUse" id="color-5"><stop offset="0" stop-color="#1a0c12"/><stop offset="1" stop-color="#4d2637"/></linearGradient><linearGradient x1="233.07421" y1="262.65818" x2="233.07421" y2="274.96961" gradientUnits="userSpaceOnUse" id="color-6"><stop offset="0" stop-color="#1a0c12"/><stop offset="1" stop-color="#4d2637"/></linearGradient><linearGradient x1="252.94538" y1="247.10687" x2="252.94538" y2="277.99352" gradientUnits="userSpaceOnUse" id="color-7"><stop offset="0" stop-color="#1a0c12"/><stop offset="1" stop-color="#4d2637"/></linearGradient><linearGradient x1="242.1433" y1="183.01691" x2="242.1433" y2="250.25159" gradientUnits="userSpaceOnUse" id="color-8"><stop offset="0" stop-color="#000000"/><stop offset="1" stop-color="#3a213e"/></linearGradient><linearGradient x1="240.00004" y1="175.50006" x2="240.00004" y2="307.50004" gradientUnits="userSpaceOnUse" id="color-9"><stop offset="0" stop-color="#000000"/><stop offset="1" stop-color="#935399"/></linearGradient><radialGradient cx="241.19232" cy="158.32312" r="64.40652" gradientUnits="userSpaceOnUse" id="color-10"><stop offset="0" stop-color="#000000"/><stop offset="1" stop-color="#270000"/></radialGradient><linearGradient x1="238.76028" y1="262.27727" x2="238.76028" y2="419.55092" gradientUnits="userSpaceOnUse" id="color-11"><stop offset="0" stop-color="#4d4948"/><stop offset="1" stop-color="#1a1716"/></linearGradient><radialGradient cx="242.45678" cy="236.64489" r="1.98299" gradientUnits="userSpaceOnUse" id="color-12"><stop offset="0" stop-color="#000000"/><stop offset="1" stop-color="#7c0000"/></radialGradient><radialGradient cx="242.45678" cy="236.64489" r="1.98299" gradientUnits="userSpaceOnUse" id="color-13"><stop offset="0" stop-color="#000000" stop-opacity="0"/><stop offset="1" stop-color="#000000" stop-opacity="0"/></radialGradient><radialGradient cx="250.21629" cy="231.64431" r="1.12082" gradientUnits="userSpaceOnUse" id="color-14"><stop offset="0" stop-color="#000000"/><stop offset="1" stop-color="#7c0000"/></radialGradient><radialGradient cx="226.50667" cy="223.97101" r="1.72434" gradientUnits="userSpaceOnUse" id="color-15"><stop offset="0" stop-color="#000000"/><stop offset="1" stop-color="#7c0000"/></radialGradient><radialGradient cx="223.66151" cy="243.54223" r="1.29325" gradientUnits="userSpaceOnUse" id="color-16"><stop offset="0" stop-color="#000000"/><stop offset="1" stop-color="#7c0000"/></radialGradient><radialGradient cx="250.64737" cy="224.31587" r="8.44925" gradientUnits="userSpaceOnUse" id="color-17"><stop offset="0" stop-color="#000000"/><stop offset="1" stop-color="#7c0000"/></radialGradient><radialGradient cx="215.81578" cy="235.86893" r="9.7425" gradientUnits="userSpaceOnUse" id="color-18"><stop offset="0" stop-color="#000000"/><stop offset="1" stop-color="#7c0000"/></radialGradient><linearGradient x1="269.45101" y1="134.45613" x2="268.79418" y2="157.75311" gradientUnits="userSpaceOnUse" id="color-19"><stop offset="0" stop-color="#553f34"/><stop offset="1" stop-color="#4a2722"/></linearGradient><linearGradient x1="249.93745" y1="127.40236" x2="248.89927" y2="164.22491" gradientUnits="userSpaceOnUse" id="color-20"><stop offset="0" stop-color="#7f6d5d"/><stop offset="1" stop-color="#3e342d"/></linearGradient><linearGradient x1="213.01524" y1="128.2228" x2="212.50381" y2="146.36245" gradientUnits="userSpaceOnUse" id="color-21"><stop offset="0" stop-color="#000000"/><stop offset="1" stop-color="#5f302c"/></linearGradient><linearGradient x1="274.04413" y1="126.35419" x2="273.40805" y2="148.91497" gradientUnits="userSpaceOnUse" id="color-22"><stop offset="0" stop-color="#000000"/><stop offset="1" stop-color="#5f302c"/></linearGradient><linearGradient x1="250.74471" y1="177.18462" x2="250.08935" y2="200.42923" gradientUnits="userSpaceOnUse" id="color-23"><stop offset="0" stop-color="#553f34"/><stop offset="1" stop-color="#4a2722"/></linearGradient><linearGradient x1="244.03451" y1="170.34446" x2="243.27634" y2="197.23556" gradientUnits="userSpaceOnUse" id="color-24"><stop offset="0" stop-color="#7f6d5d"/><stop offset="1" stop-color="#3e342d"/></linearGradient><linearGradient x1="240.31221" y1="177.88846" x2="239.76405" y2="197.33052" gradientUnits="userSpaceOnUse" id="color-25"><stop offset="0" stop-color="#5d2f2b"/><stop offset="1" stop-color="#000000"/></linearGradient><linearGradient x1="256.3906" y1="97.87984" x2="253.20511" y2="210.86418" gradientUnits="userSpaceOnUse" id="color-26"><stop offset="0" stop-color="#221c21"/><stop offset="1" stop-color="#4d404c"/></linearGradient><radialGradient cx="319.74103" cy="130.47101" r="15.88689" gradientUnits="userSpaceOnUse" id="color-27"><stop offset="0" stop-color="#3c2d3b"/><stop offset="1" stop-color="#191319"/></radialGradient><radialGradient cx="317.75561" cy="198.58477" r="13.83682" gradientUnits="userSpaceOnUse" id="color-28"><stop offset="0" stop-color="#000000" stop-opacity="0"/><stop offset="1" stop-color="#000000" stop-opacity="0.19657"/></radialGradient><radialGradient cx="319.02576" cy="165.45827" r="23.91791" gradientUnits="userSpaceOnUse" id="color-29"><stop offset="0" stop-color="#605460"/><stop offset="1" stop-color="#332a32"/></radialGradient><linearGradient x1="319.69984" y1="141.54992" x2="318.35168" y2="189.36674" gradientUnits="userSpaceOnUse" id="color-30"><stop offset="0" stop-color="#806a7f"/><stop offset="1" stop-color="#5d4d5c"/></linearGradient><linearGradient x1="239.34632" y1="196.65259" x2="238.99571" y2="209.08811" gradientUnits="userSpaceOnUse" id="color-31"><stop offset="0" stop-color="#000000"/><stop offset="1" stop-color="#630000"/></linearGradient><radialGradient cx="190.03217" cy="206.73473" r="1.57732" gradientUnits="userSpaceOnUse" id="color-32"><stop offset="0" stop-color="#000000"/><stop offset="1" stop-color="#630000"/></radialGradient><linearGradient x1="319.69984" y1="141.54992" x2="318.35168" y2="189.36674" gradientUnits="userSpaceOnUse" id="color-33"><stop offset="0" stop-color="#322931"/><stop offset="1" stop-color="#453944"/></linearGradient></defs><g transform="translate(-172.917,-46.38752)"><g data-paper-data="{&quot;isPaintingLayer&quot;:true}" fill-rule="nonzero" stroke-linejoin="miter" stroke-miterlimit="10" stroke-dasharray="" stroke-dashoffset="0" style="mix-blend-mode: normal"><path d="M180.1931,313.61253v-267.22501h123.18203v267.22501z" fill-opacity="0.01" fill="#000000" stroke="none" stroke-width="0" stroke-linecap="butt"/><path d="M221.65255,184.50638l38.26309,-0.15789l11.57983,111.19652c-1.79994,-0.81338 -3.51553,-1.59229 -4.85732,-2.45196c-1.18727,-0.76067 -1.43337,-8.87639 -1.83874,-10.18216c-1.8957,-6.10631 -7.55414,-3.04021 -11.03343,-5.32934c-1.6778,-1.10388 -2.57948,-3.08938 -4.59716,-3.61621c-1.68197,-0.43918 -3.5478,-1.90359 -5.09504,-1.11803c-2.7486,1.39551 -5.58247,3.18991 -8.29501,5.0623c-2.27706,1.57179 -0.23206,6.53578 -3.70594,8.08028c-5.65423,2.51389 -5.53911,-2.86544 -8.47262,-4.52071c-5.15365,-2.90801 -9.87069,-1.30998 -13.46001,2.01324z" fill="url(#color-1)" stroke="#000000" stroke-width="0" stroke-linecap="butt"/><path d="M246.03367,304.29043v-27.64684h6.04775v27.64684z" fill="url(#color-2)" stroke="none" stroke-width="0" stroke-linecap="butt"/><path d="M245.70968,269.56989c8.70806,0 15.76734,2.94942 15.76734,6.58772c0,3.6383 -7.05928,6.58772 -15.76734,6.58772c-8.70806,0 -15.76734,-2.94942 -15.76734,-6.58772c0,-3.6383 7.05928,-6.58772 15.76734,-6.58772z" fill="url(#color-3)" stroke="none" stroke-width="0" stroke-linecap="butt"/><path d="M233.83018,267.84191c7.03802,0 12.74347,-1.15441 12.74347,2.4839c0,3.6383 -5.92144,13.28344 -12.95946,13.28344c-11.57383,0 -12.52747,-5.54131 -12.52747,-9.17962c0,-3.6383 5.70544,-6.58772 12.74347,-6.58772z" fill="url(#color-4)" stroke="none" stroke-width="0" stroke-linecap="butt"/><path d="M230.15833,266.33002c8.70806,0 15.76734,2.94943 15.76734,6.58772c0,3.63829 -7.05928,6.58772 -15.76734,6.58772c-8.70806,0 -15.76734,-2.94943 -15.76734,-6.58772c0,-3.63829 7.05928,-6.58772 15.76734,-6.58772z" fill="url(#color-5)" stroke="none" stroke-width="0" stroke-linecap="butt"/><path d="M233.07421,262.65818c6.61133,0 11.97088,2.75602 11.97088,6.15574c0,3.39973 -5.35955,6.15574 -11.97088,6.15574c-6.61134,0 -11.97089,-2.75602 -11.97089,-6.15574c0,-3.39972 5.35956,-6.15574 11.97089,-6.15574z" fill="url(#color-6)" stroke="none" stroke-width="0" stroke-linecap="butt"/><path d="M252.94538,247.10686c7.21696,0 13.06745,6.91423 13.06745,15.44335c0,8.52913 -5.85049,15.44335 -13.06745,15.44335c-7.21696,0 -13.06745,-6.91423 -13.06745,-15.44335c0,-8.52913 5.85049,-15.44335 13.06745,-15.44335z" fill="url(#color-7)" stroke="none" stroke-width="0" stroke-linecap="butt"/><path d="M296.59783,196.0749c0,0 -0.33942,7.5719 -3.88961,8.89054c-3.55019,1.31864 -5.83441,-5.27875 -5.83441,-5.27875l-3.33395,4.16744v5.00092l-1.9448,1.66698c0,0 2.34568,9.2973 -0.58088,8.46114c-2.92656,-0.83616 -3.30873,-9.57246 -3.30873,-9.57246c0,0 2.17241,9.97794 -2.07107,12.22449c-4.24348,2.24654 -7.37512,-7.22356 -7.37512,-7.22356l0.55566,23.61548l-31.11688,12.22449l-22.22633,-10.27968l-2.22264,-2.77829l0.83349,-23.33766c0,0 -3.53924,8.70391 -6.94573,6.94573c-3.40649,-1.75818 -1.66698,-11.391 -1.66698,-11.391c0,0 0.02799,8.80427 -3.61178,8.61271c-3.63977,-0.19156 -1.66698,-8.89053 -1.66698,-8.89053l-1.66697,-1.38914v-5.00093l-3.05612,-3.05612c0,0 -2.88219,5.52811 -5.83441,5.00092c-2.95222,-0.52719 -1.94481,-6.39007 -1.94481,-6.39007l12.22448,-15.28061z" fill="url(#color-8)" stroke="#000000" stroke-width="0" stroke-linecap="round"/><path d="M221.8929,175.65794l37.78325,-0.15789l11.43462,111.19652c-1.77737,-0.81337 -3.47144,-1.5923 -4.7964,-2.45196c-1.17238,-0.76067 -1.4154,-8.87639 -1.81569,-10.18216c-1.87193,-6.10631 -7.4594,-3.0402 -10.89506,-5.32934c-1.65676,-1.10388 -2.54713,-3.08938 -4.53951,-3.61621c-1.66088,-0.43918 -3.50331,-1.90359 -5.03115,-1.11803c-2.71413,1.3955 -5.51246,3.18992 -8.19098,5.06231c-2.2485,1.57179 -0.22915,6.53577 -3.65947,8.08028c-5.58333,2.51389 -5.46965,-2.86544 -8.36637,-4.52071c-5.08902,-2.90801 -9.7469,-1.30998 -13.29121,2.01325z" fill="url(#color-9)" stroke="#000000" stroke-width="0" stroke-linecap="butt"/><path d="M175.65716,197.44631l2.30844,-81.87659l128.76187,3.63032l-2.30843,81.8766z" fill="url(#color-10)" stroke="none" stroke-width="0" stroke-linecap="butt"/><path d="M233.76028,419.55092c0,0 -0.28483,-36.20281 -0.02387,-72.15242c0.08799,-12.12082 0.86954,-24.63388 0.89684,-35.15544c0.00754,-2.90811 -0.93352,-7.82757 -0.92296,-10.45149c0.03131,-7.78053 0.76251,-14.62955 0.76251,-18.76319c0,-9.9535 -0.71252,-20.75109 -0.71252,-20.75109h10c0,0 -0.47502,11.60541 -0.47502,21.93863c0,2.46206 0.71684,6.39707 0.72465,10.21264c0.01165,5.69044 -0.93656,15.05748 -0.94177,22.80137c-0.00549,8.16664 0.73047,18.02775 0.77166,27.07476c0.16828,36.96355 -0.07953,75.24624 -0.07953,75.24624z" fill="url(#color-11)" stroke="#000000" stroke-width="0" stroke-linecap="butt"/><path d="M210.73704,274.43584l2.3217,-18.57364c0,0 -0.01784,8.18509 8.21526,8.03667c7.51718,-0.13551 11.07275,-9.10823 11.07275,-9.10823c0,0 -0.15395,6.04961 8.57245,5.71497c8.00637,-0.30703 6.25074,-7.3223 6.25074,-7.3223c0,0 1.50582,10.01365 11.07275,10.17978c8.85171,0.15371 9.46541,-9.28682 9.46541,-9.28682l3.21467,32.50387l-5.0006,-2.5003c0,0 -0.11912,-6.91945 -3.57185,-11.07275c-3.45274,-4.15329 -5.45718,-2.45393 -8.75104,-3.75045c-3.29386,-1.29652 -4.69432,-5.11246 -8.57245,-5.0006c-3.87813,0.11187 -5.82939,2.41788 -8.92963,5.71497c-3.10025,3.29709 -0.82867,3.96142 -2.3217,6.25074c-1.49304,2.28933 -2.26912,1.58717 -4.10763,1.78593c-1.83851,0.19876 -2.5003,-1.07156 -2.5003,-1.07156c0,0 -4.59741,-5.11007 -8.57245,-5.71497c-3.97504,-0.6049 -7.85808,3.21467 -7.85808,3.21467z" fill="#000000" stroke="#000000" stroke-width="0.5" stroke-linecap="round"/><path d="M240.47379,236.64489c0,-1.09517 0.88781,-1.98299 1.98299,-1.98299c1.09517,0 1.98299,0.88781 1.98299,1.98299c0,1.09517 -0.88781,1.98299 -1.98299,1.98299c-1.09517,0 -1.98299,-0.88781 -1.98299,-1.98299z" fill="url(#color-12)" stroke="url(#color-13)" stroke-width="0" stroke-linecap="butt"/><path d="M249.09547,231.64431c0,-0.61901 0.50181,-1.12082 1.12082,-1.12082c0.61901,0 1.12082,0.50181 1.12082,1.12082c0,0.61901 -0.50181,1.12082 -1.12082,1.12082c-0.61901,0 -1.12082,-0.50181 -1.12082,-1.12082z" fill="url(#color-14)" stroke="none" stroke-width="0" stroke-linecap="butt"/><path d="M224.78233,223.97101c0,-0.95232 0.77201,-1.72434 1.72434,-1.72434c0.95232,0 1.72434,0.77201 1.72434,1.72434c0,0.95232 -0.77201,1.72434 -1.72434,1.72434c-0.95232,0 -1.72434,-0.77201 -1.72434,-1.72434z" fill="url(#color-15)" stroke="none" stroke-width="0" stroke-linecap="butt"/><path d="M222.36826,243.54223c0,-0.71424 0.57901,-1.29325 1.29325,-1.29325c0.71424,0 1.29325,0.57901 1.29325,1.29325c0,0.71424 -0.57901,1.29325 -1.29325,1.29325c-0.71424,0 -1.29325,-0.57901 -1.29325,-1.29325z" fill="url(#color-16)" stroke="none" stroke-width="0" stroke-linecap="butt"/><path d="M250.64737,219.83262c1.25028,-0.37955 3.7596,-1.92718 6.38004,-2.24164c2.62044,-0.31445 2.35313,0.03636 2.24164,1.20704c-0.11149,1.17067 -2.07597,1.08669 -2.5865,2.41407c-0.51053,1.32738 1.13063,1.14875 0.86217,2.0692c-0.26847,0.92046 -1.33343,1.17348 -2.0692,2.0692c-0.73577,0.89572 -0.69331,2.24838 -1.89677,2.75894c-1.20346,0.51056 -2.34183,-0.75964 -3.79354,-0.34487c-1.45171,0.41478 -2.53901,2.66691 -4.65571,2.75894c-2.1167,0.09203 1.48611,-1.39195 0.68973,-2.5865c-0.79637,-1.19456 -1.89384,0.2757 -2.75894,-0.5173c-0.86509,-0.793 0.84577,-0.63831 0.68973,-1.37947c-0.15603,-0.74116 -1.76708,-1.05695 -1.37947,-1.89677c0.38761,-0.83982 2.07594,-1.59246 3.44867,-2.5865c1.37273,-0.99405 0.86572,-0.78954 1.5519,-1.0346c0.68618,-0.24506 2.02596,-0.31018 3.27624,-0.68973z" fill="url(#color-17)" stroke="#000000" stroke-width="0" stroke-linecap="round"/><path d="M216.16066,228.4543c0,0 3.11089,-1.65756 3.96597,-1.67935c0.85508,-0.02179 0.71982,-0.63789 1.0346,1.5519c0.31478,2.18979 -0.46368,4.01506 0,5.64532c0.46367,1.63026 2.29474,2.28163 2.5865,3.44867c0.29176,1.16705 0.35902,1.54514 -1.0346,2.75894c-1.39362,1.2138 -3.53754,1.09373 -4.31084,1.89677c-0.7733,0.80304 0.57555,1.74696 -0.17243,2.75894c-0.74799,1.01198 -1.75742,1.89558 -2.75894,1.20704c-1.00152,-0.68855 0.21802,-2.42249 0,-3.10381c-0.21802,-0.68132 -1.37947,-1.20704 -1.37947,-1.20704l2.0692,-13.27739z" fill="url(#color-18)" stroke="#000000" stroke-width="0" stroke-linecap="round"/><path d="M218.37484,248.74501c0,-0.71807 0.58211,-1.30017 1.30017,-1.30017c0.71807,0 1.30017,0.58211 1.30017,1.30017c0,0.71807 -0.58211,1.30017 -1.30017,1.30017c-0.71807,0 -1.30017,-0.58211 -1.30017,-1.30017z" fill="#000000" stroke="none" stroke-width="0" stroke-linecap="butt"/><path d="M262.58074,255.94597c0,-0.71807 0.58211,-1.30017 1.30017,-1.30017c0.71807,0 1.30017,0.58211 1.30017,1.30017c0,0.71807 -0.58211,1.30017 -1.30017,1.30017c-0.71807,0 -1.30017,-0.58211 -1.30017,-1.30017z" fill="#000000" stroke="none" stroke-width="0" stroke-linecap="butt"/><g stroke-width="0"><path d="M217.91078,138.75625l98.13949,-2.9863l4.9514,20.63261c-1.54643,-0.14627 -3.34583,-0.01599 -5.47368,0.42801c-0.93034,0.19413 -1.2833,1.224 -1.70718,2.19203l-2.25916,-14.8744l-43.21184,-2.21889l-14.01461,9.11023l-4.80858,-6.88939l-23.26579,0.09447l-4.89688,5.1149l-2.99226,-0.33451l-1.36577,-4.79118z" fill="url(#color-19)" stroke="#57372f" stroke-linecap="butt"/><path d="M299.73683,146.56641l-4.81232,2.1156l-0.38384,4.74185l-5.29107,1.35167l2.34109,-3.18583l-3.17878,-2.59104l0.09161,-3.24925l-6.44212,-2.18276l2.36554,4.81938l-4.77709,0.86588l-3.10831,-5.09045l-2.2213,-1.0632l-5.91076,5.5866l-4.37212,-4.62581l-14.19034,-2.40121l-4.98145,8.11421l-3.27744,0.90816l0.23255,-8.2481l-8.83255,2.75267l0.90816,3.27743l3.19992,1.84121l-4.62581,4.37212l-2.74937,-0.07751l-0.67231,-2.77051l-1.9643,-1.30609l0.46839,-7.74116l-4.94247,-2.14047l-7.64626,5.03739l-3.42542,6.15695l-2.00659,0.19357l-5.16753,-11.90233l3.15389,12.34583l-7.47008,-1.21118l-2.43931,-11.07497l-3.04863,1.66504l-0.05638,1.99953l1.20743,1.53489l-4.91802,5.86472l0.62342,-13.23989l-6.88234,4.55864l0.34485,5.51283l1.93612,2.30586l-2.07706,2.69299l-4.67843,-2.63331l7.20318,-24.81102l121.78161,10.18733l9.02718,30.35253c-0.24338,-0.0712 -0.47532,-0.15908 -0.69013,-0.2726c-1.3497,-0.71328 -2.45541,-2.27034 -3.80384,-2.99277c-1.51217,-0.81014 -3.29557,-1.28911 -5.15078,-1.43221z" fill="url(#color-20)" stroke="#57372f" stroke-linecap="butt"/><path d="M182.1902,145.09247c-4.35062,-1.36306 -2.64375,-8.96073 -2.57512,-11.39488c0.06863,-2.43415 1.98893,-18.10343 1.98893,-18.10343l65.88656,-0.07417c0,0 -0.73945,20.31856 -1.65601,22.94098c-0.91656,2.62242 -1.30945,3.84383 -4.10969,5.67692c-2.80024,1.83309 -6.75442,2.1489 -8.23027,2.40104c-1.47585,0.25214 -0.84247,0.86019 -3.67598,-0.36694c-2.83351,-1.22714 -5.46824,-3.76721 -6.72933,-4.13936c-1.26108,-0.37216 1.51754,0.87631 -2.1493,1.51925c-3.66683,0.64294 -6.30814,1.05525 -9.49384,0.52226c-3.1857,-0.53299 -5.58142,-2.98166 -7.54087,-3.37231c-1.95945,-0.39064 -1.28332,1.83809 -4.76546,0.91888c-3.48213,-0.91921 -2.59975,-5.16913 -7.51862,-4.16161c-4.91886,1.00752 -5.0804,8.9964 -9.43102,7.63335z" fill="url(#color-21)" stroke="#61352d" stroke-linecap="round"/><path d="M305.37189,115.368c0,0 -1.42494,28.56393 -4.50899,32.5437c-3.08405,3.97977 -11.64558,-0.42287 -12.88446,-0.62657c-1.23888,-0.2037 -1.92717,-1.6085 -2.57907,-1.91588c-0.6519,-0.30739 0.8089,0.02281 -1.57859,-0.0445c-2.38748,-0.06732 -2.19196,0.79456 -6.05129,-0.17061c-3.85933,-0.96516 -5.73656,-3.80178 -9.37516,-3.68733c-3.6386,0.11445 -5.76569,3.59986 -8.2822,4.24274c-2.51651,0.64288 -3.15163,0.71458 -6.57006,-0.44854c-3.41843,-1.16313 -6.07356,-0.91282 -7.7743,-4.43213c-1.70074,-3.51931 -1.43365,-25.53657 -1.43365,-25.53657z" fill="url(#color-22)" stroke="#61352d" stroke-linecap="round"/></g><g stroke-width="0"><path d="M302.99653,201.9209l-86.1526,-5.18054l-34.9741,-10.49141l12.05736,-10.66626l1.94316,2.05591l-6.49519,8.57181l39.39927,4.36266l9.92393,-5.97373l4.49896,0.12684l0.80246,7.02658l57.18043,3.61327l14.15299,-15.86505c1.22324,0.91703 2.54313,1.67855 3.90248,2.23549z" fill="url(#color-23)" stroke="#57372f" stroke-linecap="butt"/><path d="M182.20546,177.80615l2.92892,-4.51986l-1.48683,-4.04404l3.61596,-0.49837l1.29253,3.83846l-1.80251,7.153l-3.10068,3.51449l11.87281,4.73709l0.30706,-3.79336l6.60125,-7.01771l6.60389,-0.01392l-0.06764,2.39937l-5.48878,3.04695l3.06386,4.88893l2.96538,1.28424l3.57949,-6.30247l3.01049,-0.31533l0.29278,3.81027l-0.08456,2.9992l12.02238,-7.66529l4.99005,7.54462l14.11169,3.39946l0.96891,-5.97586l3.70052,-3.49758l6.85721,5.19599l6.75047,-5.21255l2.14868,1.86154l-1.42219,0.76033l1.49246,3.8441l4.57623,0.92945l4.37929,-6.27992l6.66291,4.9904l5.26627,-2.25279l-1.92055,-2.85563l2.91201,-3.92002l2.57677,0.87308l0.70396,3.42164l0.50137,-3.58777l3.61032,-0.29842l0.32661,2.61059l-1.71796,4.15379l10.73824,-8.39841c-0.05752,2.2824 0.39335,4.37957 2.10437,5.92652c0.31268,0.28269 0.6232,0.5489 0.93149,0.79907l-13.24776,13.39199l-112.12546,-6.66325l-6.57932,-6.18888z" fill="url(#color-24)" stroke="#57372f" stroke-linecap="butt"/><path d="M302.15837,184.39327c0.24246,1.68163 -1.66378,20.10404 -1.66378,20.10404l-122.75406,-4.71169c0,0 -1.55272,-14.9399 0.42283,-20.45172c1.97555,-5.51182 2.75671,-2.33969 5.34673,-1.10001c2.59002,1.23968 4.22377,6.41512 8.53693,7.74523c4.31315,1.33013 8.43741,-1.83242 13.78264,-0.86217c5.34522,0.97025 2.09896,3.1228 4.5721,4.19387c2.47314,1.07107 2.81247,-0.37502 4.69543,-0.18031c1.88296,0.19473 4.68876,1.58517 7.77579,1.46999c3.08702,-0.11517 6.81536,-2.2343 11.31834,-2.18241c4.50299,0.05189 4.38223,1.88906 7.43692,2.39851c3.05469,0.50944 6.49232,1.10884 10.61418,0.61195c4.12187,-0.4969 6.15464,-3.06122 10.40745,-3.14615c4.25281,-0.08494 9.46639,3.58322 15.56039,2.62754c6.094,-0.95569 11.79338,-5.97916 19.93043,-8.19338c8.13707,-2.21422 3.77523,-0.00491 4.01769,1.67673z" fill="url(#color-25)" stroke="#61352d" stroke-linecap="round"/></g><g><path d="M193.93016,97.80338c0,0 1.12239,13.88808 -1.58661,17.4889c-0.95042,1.26331 -7.02508,0.16999 -9.23907,0.90048c-4.55907,1.50423 -6.06607,4.06332 -6.06607,4.06332c0,0 -0.76303,-7.96578 -0.35472,-9.59848c0.40832,-1.6327 2.05793,-1.11744 3.40881,-2.61368c1.35089,-1.49625 1.52651,-3.06462 2.83096,-4.29753c1.30445,-1.23292 2.65078,-0.92549 4.02191,-2.17951c1.37113,-1.25402 1.10762,-3.07683 2.61092,-3.88684c1.5033,-0.81001 4.37387,0.12332 4.37387,0.12332z" fill="#44221f" stroke="#a87469" stroke-width="0" stroke-linecap="round"/><path d="M173.25592,208.61009c0,0 1.90999,-67.74446 2.52145,-89.43176c0.02224,-0.78903 -2.86036,-2.05266 -2.86036,-2.05266c0,0 5.19766,-2.35886 5.82848,-3.76444c0.74659,-1.66351 -0.09637,-3.8173 -0.09637,-3.8173c0,0 3.9805,0.91325 5.38654,1.23502c1.21228,0.27742 0.37271,-6.47315 0.37271,-6.47315c0,0 5.83061,2.31808 6.93346,1.71639c2.16487,-1.18112 2.61452,-9.9026 2.61452,-9.9026c0,0 1.63539,3.17279 2.64083,3.20113c29.93008,0.84385 142.57046,4.01964 142.57046,4.01964l-3.09741,109.86014zM181.11069,196.10309l117.78333,2.53244l1.02308,-78.27642l-116.57549,-3.28939z" fill="url(#color-26)" stroke="#725771" stroke-width="0" stroke-linecap="butt"/><path d="M303.71275,135.26188c0.05358,-1.90047 0.21862,-7.75414 0.30787,-10.91989c0.0353,-1.2523 1.22287,-2.05116 2.47415,-2.01588c3.6217,0.10211 21.46366,0.60515 27.41199,0.77286c1.21501,0.03426 1.88844,1.66281 1.85134,2.9785c-0.05209,1.84762 -0.1963,6.96235 -0.2842,10.0799c-0.04207,1.49207 -1.10429,2.49753 -2.78821,2.45005c-6.66812,-0.188 -23.5421,-0.66375 -26.88986,-0.75814c-1.1311,-0.03189 -2.11605,-1.41829 -2.08309,-2.58739z" fill="url(#color-27)" stroke="#725771" stroke-width="0" stroke-linecap="butt"/><path d="M303.8198,201.90124c0.07148,-2.53537 0.17741,-6.29225 0.21623,-7.66939c0.02844,-1.00898 1.12363,-2.19169 2.25257,-2.15986c3.16294,0.08918 18.31927,0.5165 23.62968,0.66622c1.15398,0.03253 1.79881,1.62024 1.76494,2.82137c-0.03924,1.39167 -0.13446,4.76899 -0.20078,7.12158c-0.04026,1.42776 -0.94327,2.45349 -1.9129,2.42615c-2.76608,-0.07799 -16.31433,-0.45996 -22.60228,-0.63725c-1.96214,-0.05532 -3.1879,-1.13423 -3.14745,-2.56883z" fill="url(#color-28)" stroke="#332733" stroke-width="0" stroke-linecap="butt"/><path d="M304.37379,187.16254c0.21967,-7.79158 1.0806,-38.32715 1.22381,-43.40667c0.03944,-1.39882 1.19744,-2.5698 2.38179,-2.53641c3.15003,0.08881 17.61306,0.49658 23.37281,0.65897c1.4728,0.04153 2.34634,1.13782 2.31043,2.41166c-0.13505,4.79008 -0.9742,34.55352 -1.21657,43.14982c-0.04148,1.47115 -0.81248,2.30129 -1.67149,2.27706c-2.84748,-0.08028 -18.69053,-0.52696 -24.40021,-0.68794c-1.28072,-0.03611 -2.03312,-0.71287 -2.0006,-1.86649z" fill="url(#color-29)" stroke="url(#color-30)" stroke-width="2" stroke-linecap="butt"/><path d="M331.00594,208.86286c0.022,-0.78019 0.67229,-1.39482 1.45247,-1.37282c0.78018,0.022 1.39481,0.67228 1.37282,1.45247c-0.022,0.78019 -0.67229,1.39482 -1.45248,1.37282c-0.78018,-0.022 -1.3948,-0.67228 -1.37281,-1.45247z" fill="#2e232e" stroke="none" stroke-width="0" stroke-linecap="butt"/><path d="M177.19689,203.49815c0.03,-1.06388 0.91677,-1.90202 1.98064,-1.87203c1.06388,0.03 1.90202,0.91676 1.87202,1.98065c-0.03,1.06388 -0.91676,1.90202 -1.98065,1.87202c-1.06388,-0.03 -1.90202,-0.91676 -1.87202,-1.98064z" fill="#2e232e" stroke="none" stroke-width="0" stroke-linecap="butt"/><path d="M333.89799,106.43055c0.02666,-0.94573 0.81493,-1.69076 1.76067,-1.6641c0.94572,0.02666 1.69076,0.81492 1.6641,1.76066c-0.02666,0.94573 -0.81493,1.69079 -1.76066,1.66412c-0.94572,-0.02666 -1.69077,-0.81495 -1.66411,-1.76068z" fill="#2e232e" stroke="none" stroke-width="0" stroke-linecap="butt"/><path d="M319.38134,142.02044l-1.29623,45.97511" fill="none" stroke-opacity="0.16069" stroke="#40303f" stroke-width="2" stroke-linecap="round"/><path d="M305.32642,175.55453l26.1981,0.73863" fill="none" stroke-opacity="0.16069" stroke="#40303f" stroke-width="2" stroke-linecap="round"/><path d="M332.60643,165.27057l-26.71179,-0.75311" fill="none" stroke-opacity="0.16069" stroke="#40303f" stroke-width="2" stroke-linecap="round"/><path d="M305.69959,153.20185l26.96864,0.76036" fill="none" stroke-opacity="0.16069" stroke="#40303f" stroke-width="2" stroke-linecap="round"/><path d="M305.81176,102.93476c0,0 -7.84564,4.45108 -11.68354,5.08085c-2.94104,0.48261 -9.37792,-1.62479 -9.37792,-1.62479l7.26866,-4.3214" fill="#44221f" stroke="#725771" stroke-width="0" stroke-linecap="round"/><path d="M298.53751,198.32143l-0.35404,7.88227l-2.5774,1.69799l-3.76988,-0.86514l-3.97277,-2.64154l-13.06133,5.7026l-7.65713,-6.53968l-4.78089,-0.89364l-1.50225,-0.54826l-3.03302,-0.08551l-2.28188,0.18861l-10.60842,-0.55205l-2.47763,-1.84052l-6.83853,0.3131l-2.04338,0.70124l-5.06948,-0.14292l-0.74089,3.78424l-2.57047,1.19591l-2.84265,-0.39724l-3.05229,-4.20829l-3.34708,6.24752l-2.83372,-0.71409l-1.46808,-4.16361l-3.72171,-2.95879l-7.27845,-0.5223l-2.25363,1.20484l-5.70316,-0.1608l-2.90519,1.82066l-2.19109,-1.01306l-4.75265,-0.134l-2.81585,-1.34777l0.1072,-3.8021z" fill="url(#color-31)" stroke="#9e4138" stroke-width="0" stroke-linecap="round"/><path d="M188.45547,206.69028c0.02455,-0.87079 0.75036,-1.55679 1.62115,-1.53224c0.87079,0.02455 1.55679,0.75036 1.53224,1.62115c-0.02455,0.87079 -0.75036,1.55679 -1.62115,1.53224c-0.87079,-0.02455 -1.55679,-0.75036 -1.53224,-1.62115z" fill="url(#color-32)" stroke="none" stroke-width="0" stroke-linecap="butt"/><path d="M304.37379,187.16254c0.21967,-7.79158 1.0806,-38.32715 1.22381,-43.40667c0.03944,-1.39882 1.19744,-2.5698 2.38179,-2.53641c3.15003,0.08881 17.61306,0.49658 23.37281,0.65897c1.4728,0.04153 2.34634,1.13782 2.31043,2.41166c-0.13505,4.79008 -0.9742,34.55352 -1.21657,43.14982c-0.04148,1.47115 -0.81248,2.30129 -1.67149,2.27706c-2.84748,-0.08028 -18.69053,-0.52696 -24.40021,-0.68794c-1.28072,-0.03611 -2.03312,-0.71287 -2.0006,-1.86649z" fill="none" stroke="url(#color-33)" stroke-width="2.5" stroke-linecap="butt"/></g></g></g></svg>