<svg version="1.1" xmlns="http://www.w3.org/2000/svg" xmlns:xlink="http://www.w3.org/1999/xlink" width="204.54575" height="332.54783" viewBox="0,0,204.54575,332.54783"><g transform="translate(-150.83735,-13.13641)"><g data-paper-data="{&quot;isPaintingLayer&quot;:true}" fill-rule="nonzero" stroke-linejoin="miter" stroke-miterlimit="10" stroke-dasharray="" stroke-dashoffset="0" style="mix-blend-mode: normal"><path d="M209.61722,124.97503l28.57104,-107.4099l21.16691,106.99812l16.47927,5.25945l6.31309,-9.07641l3.33514,-102.82846l48.73788,99.79244l-32.42414,83.99763l29.23679,85.37881l-22.8953,-8.61753l18.61172,41.83457l-63.02888,-35.51276l-37.14468,45.70734l-5.41275,-39.49397l-18.12765,9.14322l28.07051,-126.66348z" fill="#584941" stroke="#000000" stroke-width="2" stroke-linecap="round"/><path d="M230.16908,312.85618l-75.33029,-168.38814l25.20283,30.94012l-19.30006,-73.75661l38.65721,73.73252l4.56396,-41.77252l31.77069,163.60305z" fill="#584941" stroke="#000000" stroke-width="2" stroke-linecap="round"/><path d="M251.4018,194.01469l25.81032,0.60024l15.60624,150.06003l-72.02881,-0.60024l27.0108,-139.85595z" fill="#a3948c" stroke="#000000" stroke-width="2" stroke-linecap="round"/><g><path d="M211.74838,185.9582l111.64466,-6.0024l30.61225,64.82593l-22.20889,7.80312l-10.80432,-57.62305l-100.84034,-2.40096l-14.40576,61.22449l-21.60864,-5.40216l24.0096,-49.81993z" fill="#c8b8b2" stroke="#000000" stroke-width="2" stroke-linecap="round"/><g><path d="M334.84088,120.7604l-2.48387,81.96801h-124.81492l-0.62097,-85.69383z" fill="#c8b8b2" stroke="#000000" stroke-width="2" stroke-linecap="round"/><path d="M214.75703,148.70649c0,-0.04369 -4.23161,-7.74066 -4.23161,-7.74066l11.19055,4.53331c0,0 38.62676,1.76501 38.62676,2.05328c0,14.1019 -9.70075,31.59262 -23.80266,31.59262c-14.1019,0 -21.78303,-16.33665 -21.78303,-30.43855z" fill="#000000" stroke="none" stroke-width="0" stroke-linecap="butt"/><path d="M299.2444,177.99098c-14.1019,0 -23.80266,-17.49071 -23.80266,-31.59261c0,-0.28828 38.62676,-2.05328 38.62676,-2.05328l11.19055,-4.53331c0,0 -4.23162,7.69697 -4.23162,7.74066c0,14.1019 -7.68113,30.43855 -21.78303,30.43855z" data-paper-data="{&quot;index&quot;:null}" fill="#000000" stroke="none" stroke-width="0" stroke-linecap="butt"/><path d="M242.75253,138.76961c0,0 5.87742,-5.37467 9.21866,-6.59979c2.67424,-0.98055 9.27703,-0.18196 9.27703,-0.18196" fill="none" stroke="#000000" stroke-width="2" stroke-linecap="round"/><path d="M264.12532,129.52177c0,0 0.99253,1.70503 1.06619,2.44168c0.0609,0.60894 -0.65518,1.66848 -0.65518,1.66848" fill="none" stroke="#000000" stroke-width="2" stroke-linecap="round"/><path d="M291.33304,189.85506c0,0 -14.20722,8.2203 -20.96177,8.2203c-7.13103,0 -20.75627,-8.2203 -20.75627,-8.2203" fill="none" stroke="#000000" stroke-width="2" stroke-linecap="round"/></g></g></g></g></svg>