<svg version="1.1" xmlns="http://www.w3.org/2000/svg" xmlns:xlink="http://www.w3.org/1999/xlink" width="35.52402" height="35.52367" viewBox="0,0,35.52402,35.52367"><defs><linearGradient x1="239.26202" y1="162.17567" x2="239.26202" y2="196.34878" gradientUnits="userSpaceOnUse" id="color-1"><stop offset="0" stop-color="#000000"/><stop offset="1" stop-color="#172626"/></linearGradient><linearGradient x1="238.11296" y1="168.10336" x2="238.11296" y2="190.42104" gradientUnits="userSpaceOnUse" id="color-2"><stop offset="0" stop-color="#233a39"/><stop offset="1" stop-color="#345756"/></linearGradient><linearGradient x1="238.11296" y1="168.10336" x2="238.11296" y2="190.42104" gradientUnits="userSpaceOnUse" id="color-3"><stop offset="0" stop-color="#000000"/><stop offset="1" stop-color="#345756"/></linearGradient></defs><g transform="translate(-221.92548,-161.92566)"><g data-paper-data="{&quot;isPaintingLayer&quot;:true}" stroke-linecap="round" stroke-miterlimit="10" stroke-dasharray="" stroke-dashoffset="0" style="mix-blend-mode: normal"><path d="M257.4495,169.71887v20.49804c0,4.00745 -3.22497,7.23243 -7.23242,7.23243h-20.5c-3.66107,0 -6.66147,-2.69385 -7.1543,-6.21484c0.7952,3.03475 3.54108,5.26367 6.83204,5.26367h20.0332c3.9166,0 7.07032,-3.15372 7.07032,-7.07031v-20.03321c0,-3.2976 -2.23906,-6.0451 -5.28321,-6.83398c3.52994,0.48496 6.23438,3.49081 6.23438,7.15821z" fill-opacity="0.29839" fill="#000000" fill-rule="evenodd" stroke="none" stroke-width="4.54219" stroke-linejoin="round"/><path d="M229.24516,162.1141h20.03378c3.9166,0 7.06966,3.15307 7.06966,7.06966v20.03379c0,3.91659 -3.15306,7.06966 -7.06966,7.06966h-20.03378c-3.91659,0 -7.06967,-3.15307 -7.06967,-7.06966v-20.03379c0,-3.91659 3.15308,-7.06966 7.06967,-7.06966z" fill-opacity="0.09677" fill="#191919" fill-rule="evenodd" stroke="none" stroke-width="4.43922" stroke-linejoin="round"/><path d="M229.24515,162.17567h20.03379c3.9166,0 7.06966,3.15307 7.06966,7.06966v20.03379c0,3.91659 -3.15306,7.06966 -7.06966,7.06966h-20.03379c-3.91659,0 -7.06966,-3.15307 -7.06966,-7.06966v-20.03379c0,-3.91659 3.15307,-7.06966 7.06966,-7.06966z" fill="url(#color-1)" fill-rule="evenodd" stroke="#5d9999" stroke-width="0.5" stroke-linejoin="round"/><path d="M238.85962,168.10336l5.22682,4.48013l1.65931,1.9082l0.33186,6.72019l-2.07413,5.72461l-5.47571,3.48455l-5.89054,-3.48455l-2.48896,-6.4713l0.99559,-5.9735l2.32303,-3.65048z" fill="url(#color-2)" fill-rule="nonzero" stroke="url(#color-3)" stroke-width="0" stroke-linejoin="miter"/></g></g></svg>