<svg version="1.1" xmlns="http://www.w3.org/2000/svg" xmlns:xlink="http://www.w3.org/1999/xlink" width="207.93343" height="273.72952" viewBox="0,0,207.93343,273.72952"><defs><linearGradient x1="149.01612" y1="135.68804" x2="149.01612" y2="149.77737" gradientUnits="userSpaceOnUse" id="color-1"><stop offset="0" stop-color="#08171a"/><stop offset="1" stop-color="#492680"/></linearGradient><linearGradient x1="177.30118" y1="54.34809" x2="177.30118" y2="114.29875" gradientUnits="userSpaceOnUse" id="color-2"><stop offset="0" stop-color="#071619"/><stop offset="1" stop-color="#492680"/></linearGradient><linearGradient x1="238.01689" y1="43.77049" x2="238.01689" y2="95.95763" gradientUnits="userSpaceOnUse" id="color-3"><stop offset="0" stop-color="#08171a"/><stop offset="1" stop-color="#472680"/></linearGradient><linearGradient x1="240.00007" y1="185.50001" x2="240.00007" y2="317.50001" gradientUnits="userSpaceOnUse" id="color-4"><stop offset="0" stop-color="#08171a"/><stop offset="1" stop-color="#4a2680"/></linearGradient><linearGradient x1="296.64545" y1="85.42515" x2="296.64545" y2="113.95188" gradientUnits="userSpaceOnUse" id="color-5"><stop offset="0" stop-color="#071619"/><stop offset="1" stop-color="#48267f"/></linearGradient><linearGradient x1="190.94178" y1="158.95004" x2="190.94178" y2="207.19018" gradientUnits="userSpaceOnUse" id="color-6"><stop offset="0" stop-color="#08171a"/><stop offset="1" stop-color="#492680"/></linearGradient><linearGradient x1="291.62384" y1="130.87582" x2="291.62384" y2="162.41748" gradientUnits="userSpaceOnUse" id="color-7"><stop offset="0" stop-color="#091907"/><stop offset="1" stop-color="#48267f"/></linearGradient><linearGradient x1="286.07777" y1="168.36076" x2="286.07777" y2="205.86101" gradientUnits="userSpaceOnUse" id="color-8"><stop offset="0" stop-color="#071619"/><stop offset="1" stop-color="#48267f"/></linearGradient><linearGradient x1="235.0771" y1="79.54783" x2="235.0771" y2="200.14449" gradientUnits="userSpaceOnUse" id="color-9"><stop offset="0" stop-color="#08181a"/><stop offset="1" stop-color="#462680"/></linearGradient></defs><g transform="translate(-112.03506,-43.77049)"><g data-paper-data="{&quot;isPaintingLayer&quot;:true}" fill-rule="nonzero" stroke-linejoin="miter" stroke-miterlimit="10" stroke-dasharray="" stroke-dashoffset="0" style="mix-blend-mode: normal"><path d="M173.40903,316.6125v-267.22501h123.18203v267.22501z" fill-opacity="0.01" fill="#000000" stroke="none" stroke-width="0" stroke-linecap="butt"/><path d="M185.9958,139.78046c-0.18585,5.70391 -4.96046,10.17718 -10.66436,9.99132c-5.7039,-0.18586 -63.29638,-12.40123 -63.29638,-12.40123c0,0 42.57161,2.87291 47.75146,2.68724c13.31272,-0.47718 -1.40938,-4.31494 2.69684,-4.18115c5.70391,0.18585 23.69829,-1.8001 23.51244,3.90381z" data-paper-data="{&quot;index&quot;:null}" fill="url(#color-1)" stroke="#000000" stroke-width="0" stroke-linecap="butt"/><path d="M180.70165,83.50065c-4.79723,3.09123 2.329,18.23402 -0.76223,13.43679c-3.09123,-4.79723 -22.7949,-42.58934 -22.7949,-42.58934c0,0 35.57369,40.8701 38.66492,45.66733c3.09123,4.79723 1.70823,11.19209 -3.089,14.28332z" data-paper-data="{&quot;index&quot;:null}" fill="url(#color-2)" stroke="#000000" stroke-width="0" stroke-linecap="butt"/><path d="M230.42305,72.66646c-5.70434,-0.17202 7.08778,-1.93106 7.25979,-7.63541c0.17201,-5.70435 0.22881,-21.26056 0.22881,-21.26056c0,0 9.33287,36.46082 9.16086,42.16517c-0.17201,5.70435 -4.93573,10.18919 -10.64008,10.01718z" data-paper-data="{&quot;index&quot;:null}" fill="url(#color-3)" stroke="#000000" stroke-width="0" stroke-linecap="butt"/><path d="M206.7501,317.5l15.14285,-131.8421l37.78325,-0.15789l13.57389,132z" fill="url(#color-4)" stroke="#000000" stroke-width="0" stroke-linecap="butt"/><path d="M277.82082,112.30345c-4.79723,-3.09123 10.34559,-21.50489 13.43682,-26.30212c3.09123,-4.79723 25.14377,21.93833 25.14377,21.93833c0,0 -21.20603,-3.52242 -24.29725,1.27481c-3.09123,4.79723 -9.48609,6.18023 -14.28332,3.089z" data-paper-data="{&quot;index&quot;:null}" fill="url(#color-5)" stroke="#000000" stroke-width="0" stroke-linecap="butt"/><path d="M208.25124,159.3882c4.43963,3.58592 -16.65234,37.88535 -20.23826,42.32498c-3.58591,4.43963 -14.99162,5.477 -14.99162,5.477c0,0 23.12178,-23.03724 26.70769,-27.47687c3.58592,-4.43963 4.08255,-23.91102 8.52217,-20.3251z" data-paper-data="{&quot;index&quot;:null}" fill="url(#color-6)" stroke="#000000" stroke-width="0" stroke-linecap="butt"/><path d="M263.28476,141.54101c-0.18585,-5.70391 4.28741,-10.47852 9.99132,-10.66437c5.70391,-0.18585 46.69241,31.54085 46.69241,31.54085c0,0 -16.27789,-22.33859 -21.9818,-22.15273c-5.70391,0.18586 -34.51608,6.98017 -34.70193,1.27626z" data-paper-data="{&quot;index&quot;:null}" fill="url(#color-7)" stroke="#000000" stroke-width="0" stroke-linecap="butt"/><path d="M272.26117,170.65578c4.43963,-3.58591 10.94563,-2.89386 14.53154,1.54577c2.76759,3.42647 -5.98697,11.64749 1.87282,25.84947c1.81955,3.28778 -0.44028,-2.63628 4.03676,7.02909c1.24124,2.67969 11.03282,-2.39702 11.03282,-2.39702c0,0 -29.43381,-13.05614 -33.01973,-17.49576c-3.58591,-4.43963 -2.89386,-10.94563 1.54577,-14.53154z" data-paper-data="{&quot;index&quot;:null}" fill="url(#color-8)" stroke="#000000" stroke-width="0" stroke-linecap="butt"/><path d="M170.84,139.84616c0,-33.30185 28.7599,-60.29833 64.23702,-60.29833c35.47712,0 64.23702,26.99649 64.23702,60.29833c0,33.30185 -28.7599,60.29833 -64.23702,60.29833c-35.47712,0 -64.23702,-26.99649 -64.23702,-60.29833z" fill="url(#color-9)" stroke="#000000" stroke-width="0" stroke-linecap="butt"/><path d="M184.3902,140.27563c0,-12.968 10.51265,-23.48065 23.48065,-23.48065c12.968,0 23.48065,10.51265 23.48065,23.48065c0,12.968 -10.51265,23.48065 -23.48065,23.48065c-12.968,0 -23.48065,-10.51265 -23.48065,-23.48065z" fill="#808080" stroke="#000000" stroke-width="0" stroke-linecap="butt"/><path d="M188.45568,144c0,-9.12808 7.39976,-16.52784 16.52783,-16.52784c9.12808,0 16.52784,7.39977 16.52784,16.52784c0,9.12808 -7.39977,16.52784 -16.52784,16.52784c-9.12808,0 -16.52783,-7.39977 -16.52783,-16.52784z" fill="#000000" stroke="none" stroke-width="0" stroke-linecap="butt"/><path d="M262.12927,163.75627c-12.968,0 -23.48065,-10.51265 -23.48065,-23.48065c0,-12.968 10.51265,-23.48065 23.48065,-23.48065c12.968,0 23.48065,10.51265 23.48065,23.48065c0,12.968 -10.51265,23.48065 -23.48065,23.48065z" data-paper-data="{&quot;index&quot;:null}" fill="#808080" stroke="#000000" stroke-width="0" stroke-linecap="butt"/><path d="M260.01671,159.52784c-9.12807,0 -16.52783,-7.39977 -16.52783,-16.52784c0,-9.12808 7.39977,-16.52784 16.52783,-16.52784c9.12807,0 16.52783,7.39977 16.52783,16.52784c0,9.12808 -7.39977,16.52784 -16.52783,16.52784z" data-paper-data="{&quot;index&quot;:null}" fill="#000000" stroke="none" stroke-width="0" stroke-linecap="butt"/><path d="M219.84328,101.65006c0,0 -5.1107,6.75363 -9.70478,9.24587c-4.59409,2.49224 -12.08288,2.57371 -12.08288,2.57371c0,0 7.77022,-2.05881 11.31808,-3.9835c3.70765,-2.01137 10.46958,-7.83608 10.46958,-7.83608z" fill="#000000" stroke="none" stroke-width="0" stroke-linecap="butt"/><path d="M261.08164,109.51377c3.87407,1.1328 11.90376,1.50585 11.90376,1.50585c0,0 -7.3374,1.50041 -12.3539,0.03356c-5.01649,-1.46684 -11.43708,-6.99015 -11.43708,-6.99015c0,0 7.83865,4.26691 11.88721,5.45074z" data-paper-data="{&quot;index&quot;:null}" fill="#000000" stroke="none" stroke-width="0" stroke-linecap="butt"/><path d="M228.40376,170.08688c19.24209,1.32982 32.21479,19.8683 32.21479,19.8683c0,0 -18.68658,-6.18381 -27.59567,-8.20468c-9.07429,-2.05835 -27.6414,-2.56059 -27.6414,-2.56059c0,0 11.98597,-9.86576 23.02229,-9.10304z" data-paper-data="{&quot;index&quot;:null}" fill="#000000" stroke="#000000" stroke-width="2" stroke-linecap="round"/></g></g></svg>