<svg version="1.1" xmlns="http://www.w3.org/2000/svg" xmlns:xlink="http://www.w3.org/1999/xlink" width="35.17311" height="35.17311" viewBox="0,0,35.17311,35.17311"><defs><linearGradient x1="240.00001" y1="162.91346" x2="240.00001" y2="197.08657" gradientUnits="userSpaceOnUse" id="color-1"><stop offset="0" stop-color="#ffffff"/><stop offset="1" stop-color="#c3c3c3"/></linearGradient></defs><g transform="translate(-222.41345,-162.41345)"><g data-paper-data="{&quot;isPaintingLayer&quot;:true}" stroke-miterlimit="10" stroke-dasharray="" stroke-dashoffset="0" style="mix-blend-mode: normal"><path d="M229.98312,162.91346h20.03379c3.9166,0 7.06966,3.15307 7.06966,7.06966v20.03379c0,3.91659 -3.15306,7.06966 -7.06966,7.06966h-20.03379c-3.91659,0 -7.06966,-3.15307 -7.06966,-7.06966v-20.03379c0,-3.91659 3.15307,-7.06966 7.06966,-7.06966z" fill="url(#color-1)" fill-rule="evenodd" stroke="#ffffff" stroke-width="1" stroke-linecap="round" stroke-linejoin="round"/><g fill-rule="evenodd" stroke="#000000" stroke-width="0" stroke-linecap="butt" stroke-linejoin="miter"><path d="M226.69274,185.26982c0,-7.21316 5.95788,-13.0781 13.30725,-13.09966c7.34948,-0.02156 13.3073,5.80844 13.3073,13.0216l-8.97907,0.02633c-0.04207,-0.26529 -0.10089,-0.53572 -0.12895,-0.8221c-0.19813,-2.02168 -2.45687,-3.47386 -4.28982,-3.43945c-1.73175,0.03251 -4.22055,1.81226 -4.11857,3.85585c0.0034,0.06809 0.0308,0.12696 0.06894,0.18201c0.00035,0.00274 0.0007,0.00548 0.00106,0.00822c-0.01721,0.07867 -0.03065,0.15889 -0.0401,0.24043z" fill="#fcfcfc"/><path d="M228.37373,185.26595c0,-6.38094 5.21856,-11.5639 11.65597,-11.57641c6.43744,-0.01257 11.65597,5.15005 11.65597,11.531l-7.35481,0.01434c-0.04221,-0.27067 -0.10293,-0.54646 -0.13159,-0.83888c-0.19813,-2.02168 -2.45687,-3.47386 -4.28982,-3.43945c-1.73175,0.03251 -4.22056,1.81226 -4.11858,3.85585c0.0034,0.06809 0.03081,0.12696 0.06895,0.18201c0.00035,0.00274 0.0007,0.00548 0.00106,0.00822c-0.01781,0.08137 -0.03157,0.1644 -0.04106,0.24883z" fill="#ffffff"/><path d="M229.84614,185.25962c0,-5.65022 4.57097,-10.23502 10.2096,-10.24053c5.63863,-0.00543 10.20958,4.57062 10.20958,10.22083l-5.93278,0.00572c-0.04226,-0.27412 -0.10422,-0.55335 -0.13326,-0.84964c-0.19813,-2.02168 -2.45687,-3.47386 -4.28981,-3.43945c-1.73175,0.03251 -4.22056,1.81226 -4.11858,3.85585c0.0034,0.06809 0.03081,0.12696 0.06895,0.18201c0.00035,0.00274 0.0007,0.00548 0.00106,0.00821c-0.01798,0.08214 -0.03183,0.16598 -0.04133,0.25123z" fill="#ffffff"/><path d="M231.28244,185.22449c0,-4.7699 3.94137,-8.6367 8.80325,-8.6367c4.86196,0 8.80334,3.8668 8.80334,8.6367h-4.55979c-0.04213,-0.26734 -0.10167,-0.53982 -0.12996,-0.8285c-0.19813,-2.02168 -2.45687,-3.47386 -4.28982,-3.43945c-1.73175,0.03251 -4.22056,1.81226 -4.11858,3.85585c0.0034,0.06809 0.03081,0.12696 0.06895,0.18201c0.00035,0.00274 0.0007,0.00548 0.00106,0.00821c-0.01591,0.0727 -0.02859,0.14671 -0.03788,0.22187z" fill="#bdbdbd"/><path d="M232.86628,185.21999c0,-3.9744 3.22924,-7.19623 7.21263,-7.19623c3.98345,0 7.21263,3.22182 7.21263,7.19623h-2.96301c-0.04209,-0.2659 -0.10112,-0.53693 -0.12925,-0.824c-0.19813,-2.02168 -2.45687,-3.47386 -4.28982,-3.43945c-1.73175,0.03251 -4.22056,1.81226 -4.11858,3.85585c0.0034,0.06809 0.03081,0.12696 0.06895,0.18201c0.00035,0.00274 0.0007,0.00548 0.00106,0.00821c-0.01559,0.07125 -0.02809,0.14377 -0.03732,0.21738z" fill="#ebebeb"/><path d="M234.36726,185.23797c0,-3.17814 2.55719,-5.7546 5.71165,-5.7546c3.15446,0 5.71165,2.57646 5.71165,5.7546h-1.42788c0,-2.38362 -1.9179,-4.31589 -4.28377,-4.31589c-1.35485,0 -2.56281,0.6337 -3.34778,1.62296c-0.59279,0.64493 -0.98183,1.43422 -0.94026,2.26736c0.0015,0.03008 0.00768,0.05835 0.01741,0.08529c-0.00869,0.11228 -0.01312,0.22576 -0.01312,0.34028z" fill="#979797"/></g><g fill="#ffffff" fill-rule="nonzero" stroke="none" stroke-width="0" stroke-linecap="butt" stroke-linejoin="miter"><path d="M255.21295,185.10241c0,1.15795 -2.11709,2.09667 -4.72865,2.09667c-2.61156,0 -4.72865,-0.93871 -4.72865,-2.09667c0,-1.15795 2.11708,-2.09667 4.72865,-2.09667c2.61156,0 4.72866,0.93871 4.72866,2.09667z"/><path d="M249.41366,186.06152c0,0.52971 -1.10847,0.95911 -2.47584,0.95911c-1.36738,0 -2.47585,-0.42941 -2.47585,-0.95911c0,-0.52971 1.10848,-0.95911 2.47585,-0.95911c1.36738,0 2.47584,0.42941 2.47584,0.95911z"/><path d="M254.65533,185.63773c1.21955,0 2.20819,0.3595 2.20819,0.80298c0,0.44348 -0.98864,0.80298 -2.20819,0.80298c-1.21955,0 -2.20819,-0.3595 -2.20819,-0.80298c0,-0.44348 0.98864,-0.80298 2.20819,-0.80298z"/><path d="M250.4843,187.55595c-3.64633,0 -6.60227,-0.2197 -6.60227,-0.4907c0,-0.27101 2.95594,-0.49071 6.60227,-0.49071c3.64633,0 6.60226,0.2197 6.60226,0.49071c0,0.27101 -2.95593,0.4907 -6.60226,0.4907z"/></g><g fill="#ffffff" fill-rule="nonzero" stroke="none" stroke-width="0" stroke-linecap="butt" stroke-linejoin="miter"><path d="M234.24438,185.37638c0,1.15795 -2.11709,2.09667 -4.72865,2.09667c-2.61156,0 -4.72866,-0.93871 -4.72866,-2.09667c0,-1.15795 2.1171,-2.09667 4.72866,-2.09667c2.61156,0 4.72865,0.93872 4.72865,2.09667z"/><path d="M228.44509,186.33549c0,0.52971 -1.10847,0.95911 -2.47585,0.95911c-1.36738,0 -2.47585,-0.42941 -2.47585,-0.95911c0,-0.52971 1.10847,-0.95911 2.47585,-0.95911c1.36738,0 2.47585,0.42941 2.47585,0.95911z"/><path d="M233.68675,185.91169c1.21955,0 2.20819,0.3595 2.20819,0.80298c0,0.44348 -0.98864,0.80298 -2.20819,0.80298c-1.21955,0 -2.20819,-0.35951 -2.20819,-0.80298c0,-0.44348 0.98864,-0.80298 2.20819,-0.80298z"/><path d="M229.51573,187.82992c-3.64633,0 -6.60227,-0.2197 -6.60227,-0.49071c0,-0.27101 2.95594,-0.49071 6.60227,-0.49071c3.64633,0 6.60226,0.2197 6.60226,0.49071c0,0.27101 -2.95593,0.49071 -6.60226,0.49071z"/></g></g></g></svg>