<svg version="1.1" xmlns="http://www.w3.org/2000/svg" xmlns:xlink="http://www.w3.org/1999/xlink" width="35.46758" height="35.46736" viewBox="0,0,35.46758,35.46736"><defs><radialGradient cx="236.87402" cy="174.63599" r="12.53722" gradientUnits="userSpaceOnUse" id="color-1"><stop offset="0" stop-color="#b4c6fe"/><stop offset="1" stop-color="#6993fe"/></radialGradient><linearGradient x1="239.62502" y1="166.99342" x2="239.62502" y2="192.06787" gradientUnits="userSpaceOnUse" id="color-2"><stop offset="0" stop-color="#000000"/><stop offset="1" stop-color="#000000" stop-opacity="0.5"/></linearGradient></defs><g transform="translate(-222.28848,-162.28847)"><g data-paper-data="{&quot;isPaintingLayer&quot;:true}" stroke-miterlimit="10" stroke-dasharray="" stroke-dashoffset="0" style="mix-blend-mode: normal"><path d="M257.75606,170.02543v20.498c0,4.0075 -3.225,7.2324 -7.2324,7.2324h-20.5c-3.6611,0 -6.6615,-2.6938 -7.1543,-6.2148c0.7952,3.0347 3.541,5.2637 6.832,5.2637h20.0332c3.9166,0 7.0703,-3.1538 7.0703,-7.0703v-20.0333c0,-3.2976 -2.239,-6.0451 -5.2832,-6.8339c3.5299,0.4849 6.2344,3.4908 6.2344,7.1582z" fill-opacity="0.29839" fill="#000000" fill-rule="evenodd" stroke="none" stroke-width="4.54219" stroke-linecap="round" stroke-linejoin="round"/><path d="M229.60814,162.53848h20.03379c3.9166,0 7.06966,3.15307 7.06966,7.06966v20.03379c0,3.91659 -3.15306,7.06966 -7.06966,7.06966h-20.03379c-3.91659,0 -7.06966,-3.15307 -7.06966,-7.06966v-20.03379c0,-3.91659 3.15307,-7.06966 7.06966,-7.06966z" fill="#000000" fill-rule="evenodd" stroke="#807600" stroke-width="0.5" stroke-linecap="round" stroke-linejoin="round"/><g fill-rule="nonzero" stroke="none" stroke-width="0" stroke-linecap="butt" stroke-linejoin="miter"><path d="M227.0878,179.53064c0,-6.18084 4.47268,-11.31702 10.35801,-12.3485c0.54816,0.80446 1.47167,1.3327 2.51856,1.3327c0.3603,0 0.70598,-0.06256 1.02678,-0.17743c1.0256,1.91799 3.04782,3.22291 5.37481,3.22291c0.2241,0 0.44537,-0.0121 0.6632,-0.03569c0.44189,1.1367 1.54664,1.94239 2.83957,1.94239c0.23683,0 0.46734,-0.02703 0.68863,-0.07817c1.02193,1.81512 1.60488,3.91038 1.60488,6.1418c0,6.92412 -5.61311,12.53723 -12.53723,12.53723c-3.02011,0 -5.7908,-1.06787 -7.95508,-2.84662c0.02202,-0.10306 0.0336,-0.20999 0.0336,-0.31963c0,-0.84098 -0.68176,-1.52274 -1.52274,-1.52274c-0.10555,0 -0.20858,0.01074 -0.30808,0.03118c-1.74172,-2.15303 -2.78493,-4.8944 -2.78493,-7.87942z" fill="url(#color-1)"/><path d="M227.0878,179.53064c0,-6.18084 4.47268,-11.31702 10.35801,-12.3485c0.54816,0.80446 1.47167,1.3327 2.51856,1.3327c0.3603,0 0.70598,-0.06256 1.02678,-0.17743c1.0256,1.91799 3.04782,3.22291 5.37481,3.22291c0.2241,0 0.44537,-0.0121 0.6632,-0.03569c0.44189,1.1367 1.54664,1.94239 2.83957,1.94239c0.23683,0 0.46734,-0.02703 0.68863,-0.07817c1.02193,1.81512 1.60488,3.91038 1.60488,6.1418c0,6.92412 -5.61311,12.53723 -12.53723,12.53723c-3.02011,0 -5.7908,-1.06787 -7.95508,-2.84662c0.02202,-0.10306 0.0336,-0.20999 0.0336,-0.31963c0,-0.84098 -0.68176,-1.52274 -1.52274,-1.52274c-0.10555,0 -0.20858,0.01074 -0.30808,0.03118c-1.74172,-2.15303 -2.78493,-4.8944 -2.78493,-7.87942z" fill="url(#color-2)"/></g></g></g></svg>