<svg version="1.1" xmlns="http://www.w3.org/2000/svg" xmlns:xlink="http://www.w3.org/1999/xlink" width="34.17311" height="34.17311" viewBox="0,0,34.17311,34.17311"><g transform="translate(-222.91346,-162.91346)"><g data-paper-data="{&quot;isPaintingLayer&quot;:true}" stroke-miterlimit="10" stroke-dasharray="" stroke-dashoffset="0" style="mix-blend-mode: normal"><path d="M229.98313,162.91346h20.03378c3.9166,0 7.06966,3.15307 7.06966,7.06966v20.03379c0,3.91659 -3.15306,7.06966 -7.06966,7.06966h-20.03378c-3.91659,0 -7.06967,-3.15307 -7.06967,-7.06966v-20.03379c0,-3.91659 3.15308,-7.06966 7.06967,-7.06966z" fill-opacity="0.09677" fill="#191919" fill-rule="evenodd" stroke="none" stroke-width="4.43922" stroke-linecap="round" stroke-linejoin="round"/><g fill="#a0a0a0" fill-rule="nonzero" stroke="#000000" stroke-width="1" stroke-linejoin="miter"><path d="M227.05478,188.13403v-0.00001z" stroke-linecap="butt"/><path d="M244.90378,176.43259c0,0 0.4862,-0.159 1.39386,-0.38064c0.82904,-0.20244 1.55274,-0.23184 1.55274,-0.23184l0.2472,0.30137c0,0 -2.5772,0.29564 -4.70953,1.77145c-1.70496,1.18003 -2.37703,2.43236 -2.37703,2.43236l-0.67088,-1.19706c0,0 0.61166,-0.99746 1.93574,-1.81607c1.37108,-0.84767 2.40109,-1.15642 2.40109,-1.15642z" data-paper-data="{&quot;index&quot;:null}" stroke-linecap="butt"/><path d="M235.1268,190.12361c0,0 -1.49366,-0.24903 -2.61352,-1.69968c-0.6247,-0.80922 0.24088,-1.00254 0.24088,-1.00254" stroke-linecap="round"/><path d="M236.17833,187.04155c-0.44028,-0.79215 -0.15502,-1.79122 0.63712,-2.2315c0.79215,-0.44028 1.79122,-0.15503 2.2315,0.63712c0.44028,0.79215 0.15503,1.79122 -0.63712,2.2315c-0.79215,0.44028 -1.79122,0.15502 -2.2315,-0.63712z" stroke-linecap="butt"/><path d="M243.92582,182.57528c-0.4615,-0.80269 -0.18489,-1.82752 0.6178,-2.28902c0.8027,-0.4615 1.82753,-0.1849 2.28903,0.6178c0.4615,0.8027 0.1849,1.82753 -0.6178,2.28902c-0.80269,0.4615 -1.82753,0.18489 -2.28903,-0.6178z" stroke-linecap="butt"/><path d="M234.78855,187.59422c0,0 -1.45804,-2.57793 1.57421,-4.24918c2.72451,-1.50356 4.26178,1.11456 4.26178,1.11456z" stroke-linecap="butt"/><path d="M242.42757,183.25192c0,0 -1.619,-2.65328 1.69867,-4.42619c2.82124,-1.49565 4.2994,1.18578 4.2994,1.18578z" stroke-linecap="butt"/><path d="M234.15453,184.16491c0,0 0.66183,-1.06979 1.91403,-1.96509c1.38759,-0.9921 2.20155,-1.29085 2.20155,-1.29085l0.76151,1.13004c0,0 -1.20381,0.43418 -2.36885,1.16445c-1.55809,0.97663 -1.65784,1.49614 -2.79403,2.32302c-0.97355,0.70852 -1.89276,1.1484 -1.89276,1.1484l-0.20903,-0.34651c0,0 1.03602,-0.56761 1.47938,-0.87644c0.36593,-0.25491 0.97868,-0.91815 0.97868,-0.91815z" stroke-linecap="butt"/><path d="M249.53902,179.31242c-0.6858,-1.87132 -0.90043,-2.74683 -0.30512,-2.99089c0.59532,-0.24407 1.2017,0.91926 1.77283,2.7671c0.5428,1.75618 -0.28598,3.56542 -0.28598,3.56542c0,0 -0.49594,-1.47031 -1.18173,-3.34163z" data-paper-data="{&quot;index&quot;:null}" stroke-linecap="butt"/><path d="M248.99058,178.08656c0,0 0.60258,-0.65078 0.9876,0.29624c0.6902,1.69767 0.1539,3.1138 0.1539,3.1138" data-paper-data="{&quot;index&quot;:null}" stroke-linecap="round"/><g stroke-linecap="butt"><path d="M236.61927,182.06918c-1.33176,0.77216 -3.0581,1.32792 -4.65452,1.71728c-0.72662,-0.6893 -1.28209,-1.81388 -1.51472,-2.43829c-0.46411,-1.24574 -0.51185,-2.28069 -0.24777,-3.36592c1.88597,-0.45713 3.99233,-1.11645 5.55762,-2.0204h0.00001c1.56336,-0.90284 3.71067,-2.70374 5.57456,-4.38613c0.19132,0.06046 0.38279,0.12557 0.55871,0.23765c1.02841,0.65526 1.87938,1.88944 2.47383,2.92339c0.2061,0.35847 0.41919,0.69894 0.59026,1.06208c-2.72412,2.26546 -6.19274,5.02652 -8.33797,6.27034z"/><path d="M230.02062,184.20013c-0.23549,-0.07165 -0.46567,-0.1767 -0.68843,-0.32703c-0.65438,-0.67762 -1.07158,-1.72382 -1.54225,-2.54247c-0.23488,-0.40854 -0.53848,-0.95982 -0.40559,-1.43281c0.14784,-0.54779 0.38072,-1.03446 0.69683,-1.45899c0.5381,-0.10226 1.13693,-0.22583 1.76671,-0.37241c-0.23592,1.09323 -0.16837,2.15458 0.2943,3.39645c0.25455,0.68323 0.77457,1.69945 1.463,2.40906c-0.5572,0.12905 -1.09314,0.23771 -1.58455,0.3282z"/><path d="M243.42699,169.63365c0.23005,0.01816 0.46027,0.0311 0.66715,0.08667c0.78862,0.21181 1.68515,0.88972 2.09785,1.5997c0.39626,0.68926 1.15145,1.57921 1.04685,2.39935c-0.00618,0.04848 -0.01707,0.1109 -0.03173,0.1817c-0.57204,0.4891 -1.25001,1.06377 -1.99008,1.68134c-0.16827,-0.34247 -0.36914,-0.66828 -0.56526,-1.0094c-0.61848,-1.07575 -1.51087,-2.35672 -2.58235,-3.03686c-0.14335,-0.09099 -0.30541,-0.14912 -0.47017,-0.20039c0.66583,-0.60556 1.2889,-1.18912 1.82774,-1.70211z"/><path d="M245.32368,167.78532c0,0 1.8534,0.38035 2.65335,1.58834c0.92261,1.3932 1.04338,2.95836 1.04338,2.95836c0,0 -0.55532,0.4894 -1.44783,1.25588c-0.00088,-0.87162 -0.67624,-1.70192 -1.09656,-2.43299c-0.46373,-0.78164 -1.41588,-1.51324 -2.29134,-1.75039c-0.13277,-0.03597 -0.29072,-0.04936 -0.45593,-0.05916c0.96639,-0.92646 1.59493,-1.56005 1.59493,-1.56005z"/><path d="M227.42742,184.58411c0,0 -1.63643,-1.99605 -1.89078,-3.04634c-0.20978,-0.86623 0.10019,-2.70453 0.10019,-2.70453c0,0 0.79797,-0.09599 1.99035,-0.31045c-0.24569,0.38884 -0.4332,0.8196 -0.56,1.28943c-0.29713,1.1379 1.27381,3.50145 2.05327,4.31207c0.10001,0.06826 0.20103,0.1283 0.30299,0.18097c-1.18768,0.19953 -1.99602,0.27886 -1.99602,0.27886z"/></g><g stroke-linecap="butt"><path d="M237.17612,181.81784c1.67499,-1.80559 3.91441,-5.59384 5.28173,-8.03382c0.21777,-0.0488 0.43423,-0.10246 0.64126,-0.11008c0.78919,-0.02905 1.81097,0.34188 2.39475,0.88037c0.56269,0.52402 1.51429,1.1312 1.65141,1.91896c0.00811,0.04657 0.01584,0.10736 0.02247,0.17697c-1.84083,2.90893 -5.32574,8.26195 -7.45646,10.56677c-1.44486,1.56293 -3.76111,2.94699 -5.49075,3.85032c-0.23806,0.00091 -0.48073,-0.03055 -0.72944,-0.10599c-0.79791,-0.43969 -1.4817,-1.28761 -2.15004,-1.91001c-0.33353,-0.3106 -0.77124,-0.73353 -0.78326,-1.20853c-0.01952,-0.54838 0.05697,-1.06453 0.22808,-1.54697c1.93421,-1.02418 4.72269,-2.68042 6.39024,-4.47799z"/><path d="M244.52772,167.07113c0,0 2.72009,0.72744 3.80371,1.61577c1.24977,1.02454 2.04773,4.66687 2.04773,4.66687c0,0 -2.35664,1.9401 -2.96297,2.90287c-0.24928,-0.80527 -1.11009,-1.38007 -1.70693,-1.93588c-0.65138,-0.59017 -1.73986,-0.99487 -2.61652,-0.96448c-0.13295,0.0046 -0.28275,0.03726 -0.43821,0.0753c0.629,-1.13167 1.02927,-1.89637 1.02927,-1.89637z"/><path d="M231.38946,192.92888c0,0 -1.53731,-2.14567 -2.07177,-3.04381c-0.44079,-0.74073 -0.7111,-2.58492 -0.7111,-2.58492c0,0 0.74284,-0.25922 1.78365,-0.79731c-0.11621,0.42937 -0.16671,0.88093 -0.14997,1.35127c0.04978,1.1363 2.17532,2.87278 3.12674,3.39973c0.11188,0.03458 0.22235,0.06126 0.33159,0.08087c-1.04072,0.52295 -1.76514,0.82669 -1.76514,0.82669z"/></g><g stroke-linecap="butt"><path d="M242.5134,182.83736c0.44956,-0.77947 0.85711,-1.57567 1.24746,-2.41543c0.54007,-1.16663 1.54087,-2.04675 2.13751,-3.17595c0.10516,-0.19903 0.18183,-0.4222 0.2608,-0.64433c1.63531,0.11324 3.15753,0.17858 4.17006,0.21396c-0.64658,1.14784 -1.38126,2.23022 -1.93534,3.43388c-0.48808,1.06661 -0.98006,2.12419 -1.46121,3.18885c-1.32819,-0.15771 -2.8979,-0.36156 -4.41929,-0.60098z"/><path d="M251.5806,176.85221c0,0 3.52559,2.05429 3.31174,3.21833c0.52166,1.10951 0.36703,2.90268 0.36703,2.90268c0,0 -6.21883,0.71113 -7.98804,0.50496c0.46609,-1.02946 0.9419,-2.05272 1.41407,-3.08457c0.56833,-1.25021 1.34022,-2.36962 2.00633,-3.56587c0.55832,0.01785 0.88886,0.02446 0.88886,0.02446z"/><path d="M239.08798,182.19634c0.25699,-0.68329 0.53267,-1.36559 0.90854,-1.95101c0.61521,-0.96212 1.23272,-2.01683 1.94618,-2.9082c0.27973,-0.34948 0.66779,-0.67128 0.98909,-1.02238c0.94454,0.10715 1.9387,0.19392 2.9031,0.2639c-0.06501,0.17202 -0.13369,0.3435 -0.22007,0.50699c-0.59937,1.13436 -1.5982,2.01916 -2.1447,3.19044c-0.26367,0.56723 -0.45305,1.21916 -0.7635,1.75744c-0.14875,0.25792 -0.3128,0.50953 -0.4857,0.75726c-1.12006,-0.18048 -2.20349,-0.38004 -3.13295,-0.59444z"/><path d="M240.0287,175.86702c0.72594,0.15699 1.58982,0.28982 2.51362,0.40203c-0.29126,0.29327 -0.62072,0.57093 -0.85066,0.85822c-0.72016,0.89974 -1.34457,1.96409 -1.96552,2.93518c-0.39515,0.6203 -0.68304,1.34051 -0.95395,2.059c-0.03843,-0.00938 -0.07656,-0.01878 -0.11436,-0.02821c-0.95922,-0.23934 -2.15019,-0.59225 -3.42833,-0.99858c0.30803,-0.5929 0.61263,-1.18957 0.90219,-1.80421c0.18631,-0.39995 0.51814,-0.64317 0.74185,-1.01283c0.52475,-0.86712 0.88111,-1.95015 1.44521,-2.8415c0.61835,0.17267 1.19599,0.31975 1.70997,0.4309z"/><path d="M231.73287,179.93244c0.44504,-0.67481 0.92947,-1.32774 1.37507,-1.99905c0.2902,-0.43732 0.51478,-0.94232 0.82943,-1.35955c0.44528,-0.59045 1.11943,-1.02873 1.51134,-1.66366c0.05858,-0.09491 0.11252,-0.19544 0.16296,-0.29986c0.82252,0.26753 1.63164,0.51859 2.38795,0.73546c-0.53125,0.87885 -0.88871,1.90965 -1.40061,2.75554c-0.22909,0.37855 -0.56221,0.63128 -0.7574,1.04183c-0.29743,0.63179 -0.60928,1.24357 -0.92493,1.85156c-1.03758,-0.33313 -2.12385,-0.69761 -3.18381,-1.06226z"/><path d="M225.87367,177.83916c0.55955,-0.56492 1.14649,-1.10828 1.74156,-1.65035c1.11147,-1.01505 1.97541,-2.21646 2.93603,-3.34176c1.40517,0.51571 3.0939,1.11712 4.74868,1.66132c-0.03905,0.07725 -0.08031,0.15191 -0.12429,0.22316c-0.38553,0.62458 -1.05608,1.05772 -1.49487,1.63955c-0.31874,0.42265 -0.54633,0.93217 -0.84031,1.37493c-0.46271,0.69707 -0.9665,1.3745 -1.42572,2.07673c-2.23982,-0.77436 -4.32684,-1.53533 -5.54109,-1.98358z"/><path d="M224.98904,174.7017c0.62672,-2.08677 2.19905,-3.12458 2.19905,-3.12458c0,0 1.25266,0.49145 3.03782,1.15019c-0.91783,1.0893 -1.75477,2.24057 -2.82843,3.2161c-0.63796,0.58122 -1.26439,1.16394 -1.85844,1.77197c-0.48108,-0.17831 -0.75785,-0.28254 -0.75785,-0.28254c0,0 -0.23418,-1.25933 0.20784,-2.73114z"/></g></g></g></g></svg>