<svg version="1.1" xmlns="http://www.w3.org/2000/svg" xmlns:xlink="http://www.w3.org/1999/xlink" width="193.26248" height="297.87576" viewBox="0,0,193.26248,297.87576"><defs><linearGradient x1="240" y1="88.9877" x2="240" y2="271.01231" gradientUnits="userSpaceOnUse" id="color-1"><stop offset="0" stop-color="#2ce9f9"/><stop offset="1" stop-color="#13c3fe"/></linearGradient><linearGradient x1="240.41338" y1="182.37405" x2="240.41338" y2="270.54577" gradientUnits="userSpaceOnUse" id="color-2"><stop offset="0" stop-color="#1f89a0"/><stop offset="1" stop-color="#0188ee"/></linearGradient><linearGradient x1="240.00004" y1="175.50001" x2="240.00004" y2="307.50001" gradientUnits="userSpaceOnUse" id="color-3"><stop offset="0" stop-color="#35e7f8"/><stop offset="1" stop-color="#00b3f8"/></linearGradient><linearGradient x1="240.07698" y1="76.54783" x2="240.07698" y2="197.14449" gradientUnits="userSpaceOnUse" id="color-4"><stop offset="0" stop-color="#2bebff"/><stop offset="1" stop-color="#20c6ff"/></linearGradient><linearGradient x1="182.76797" y1="131.60079" x2="182.76797" y2="177.42731" gradientUnits="userSpaceOnUse" id="color-5"><stop offset="0" stop-color="#26dffa"/><stop offset="1" stop-color="#1fd6fb"/></linearGradient><linearGradient x1="297.78381" y1="130.71818" x2="297.78381" y2="176.54469" gradientUnits="userSpaceOnUse" id="color-6"><stop offset="0" stop-color="#26dffa"/><stop offset="1" stop-color="#1fd6fb"/></linearGradient></defs><g transform="translate(-143.42804,-15.73676)"><g data-paper-data="{&quot;isPaintingLayer&quot;:true}" fill-rule="nonzero" stroke-linejoin="miter" stroke-miterlimit="10" stroke-dasharray="" stroke-dashoffset="0" style="mix-blend-mode: normal"><path d="M178.40899,313.61251v-267.22501h123.18203v267.22501z" fill-opacity="0.01" fill="#000000" stroke="none" stroke-width="0" stroke-linecap="butt"/><path d="M302.42136,119.02454l22.87988,23.28845l-19.61133,22.47131l-1.22571,67.00536l29.00842,13.07422l-21.65417,4.49426l12.66565,21.65417h-168.85238l13.35304,-21.18123l-22.45738,-6.06956l27.91998,-11.53216v-64.94431l-20.02956,-24.27824l22.45738,-22.45738l71.01387,-31.56172z" fill="url(#color-1)" stroke="#000000" stroke-width="2" stroke-linecap="round"/><path d="M277.68598,182.37405l-2.40468,88.17172l-72.14051,-0.80156l3.20624,-80.95768z" fill="url(#color-2)" stroke="#000000" stroke-width="0" stroke-linecap="round"/><path d="M231.54125,77.87713l13.98193,-47.4289l19.7392,-12.61115l35.36605,9.8696l-4.66064,16.17517l-33.99527,-8.77298l-12.06285,47.70305z" fill="#fffeff" stroke="#000000" stroke-width="0" stroke-linecap="round"/><path d="M238.39515,55.94469l17.27179,6.03142l-3.28987,10.14376l-16.72348,-7.67636z" fill="#fb9ee8" stroke="#000000" stroke-width="0" stroke-linecap="round"/><path d="M243.32995,38.6729l16.17517,4.66065l-1.91909,6.30557l-15.90102,-4.38649z" fill="#fb9ee8" stroke="#000000" stroke-width="0" stroke-linecap="round"/><path d="M280.61508,22.49773l-5.48311,16.17517l-7.4022,-3.01571l5.47778,-15.34738z" fill="#fb9ee8" stroke="#000000" stroke-width="0" stroke-linecap="round"/><path d="M294.87117,26.06176l-5.48311,16.17517l-7.12804,-2.4674l4.66064,-14.8044z" fill="#fb9ee8" stroke="#000000" stroke-width="0" stroke-linecap="round"/><path d="M266.08484,17.83708l-4.11233,17.54595l-15.631,-5.48173z" fill="#efdce8" stroke="#000000" stroke-width="2" stroke-linecap="round"/><path d="M231.54125,77.87713l13.98193,-47.4289l19.7392,-12.61115l35.36605,9.8696l-4.66064,16.17517l-33.99527,-8.77298l-12.06285,47.70305z" fill="none" stroke="#000000" stroke-width="2" stroke-linecap="round"/><g fill="#05fdfb" stroke="#14b4d2" stroke-width="2" stroke-linecap="round"><path d="M203.03906,199.24468v15.67398h-16.79355v-15.45006z"/><path d="M197.88904,210.21648l4.47828,4.47828h-16.34573l-4.25436,-4.47828z"/><path d="M203.03906,215.14258l-4.47828,-4.25437v-16.34573l4.47828,4.47828z" data-paper-data="{&quot;index&quot;:null}"/><path d="M198.11295,194.31858v15.67398h-16.79355v-15.45007z"/></g><g data-paper-data="{&quot;index&quot;:null}" fill="#05fdfb" stroke="#14b4d2" stroke-width="2" stroke-linecap="round"><path d="M210.9112,233.11136l-1.36493,15.38966l-16.72789,-1.48362l1.38472,-15.6127z"/><path d="M214.42245,244.21284l-4.63336,4.08492l-16.28181,-1.44405l4.8564,-4.06514z"/><path d="M194.22287,231.18166l4.8564,-4.06514l-1.44406,16.28181l-4.83662,3.8421z" data-paper-data="{&quot;index&quot;:null}"/><path d="M216.25324,228.63971l-1.36494,15.38966l-16.72788,-1.48362l1.38472,-15.6127z"/></g><g data-paper-data="{&quot;index&quot;:null}" fill="#05fdfb" stroke="#14b4d2" stroke-width="2" stroke-linecap="round"><path d="M290.2626,192.68563l8.16806,13.1144l-14.25477,8.87832l-8.28644,-13.30445z"/><path d="M299.74601,199.44113l-1.24366,6.05045l-13.87465,8.64157l1.43372,-6.16883z"/><path d="M275.77107,201.18382l1.43372,-6.16882l8.64157,13.87465l-1.5521,5.97876z" data-paper-data="{&quot;index&quot;:null}"/><path d="M291.8397,185.89992l8.16805,13.1144l-14.25477,8.87833l-8.28643,-13.30446z"/></g><g data-paper-data="{&quot;index&quot;:null}" fill="#05fdfb" stroke="#14b4d2" stroke-width="2" stroke-linecap="round"><path d="M275.09439,241.93129l-10.49329,-11.34l12.32608,-11.40575l10.64537,11.50434z"/><path d="M264.50775,237.08413l0.08107,-6.17641l11.99738,-11.1016l-0.24542,6.32849z"/><path d="M287.72461,230.85423l-0.24542,6.32849l-11.10161,-11.99739l0.39751,-6.16413z" data-paper-data="{&quot;index&quot;:null}"/><path d="M274.82443,248.89262l-10.49329,-11.33999l12.32608,-11.40574l10.64537,11.50433z"/></g><path d="M206.75005,307.5l15.14285,-131.8421l37.78325,-0.15789l13.57389,132z" fill="url(#color-3)" stroke="#000000" stroke-width="2" stroke-linecap="butt"/><path d="M219.70028,204.11263l3.12142,-26.32765l35.83075,-0.14203l2.76735,26.1059l-21.55904,4.50964l-20.16049,-4.14586z" fill="#2a9eba" stroke="#000000" stroke-width="0" stroke-linecap="butt"/><path d="M175.83996,136.84616l64.23702,-60.29833l64.23702,60.29833l-64.23702,60.29833z" fill="url(#color-4)" stroke="#000000" stroke-width="2" stroke-linecap="butt"/><path d="M176.56302,136.9l63.36046,56.93429l63.51358,-56.93429l-63.43702,59.39833z" fill="#2a9eba" stroke="#000000" stroke-width="0" stroke-linecap="butt"/><path d="M189.39017,137.27563l23.48065,-23.48065l23.48065,23.48065l-23.48065,23.48065z" fill="#ffffff" stroke="#000000" stroke-width="2" stroke-linecap="butt"/><path d="M228.9722,188.37767l11.51464,-4.88385l10.66464,5.37223" fill="none" stroke="#000000" stroke-width="2" stroke-linecap="round"/><path d="M267.12926,160.75627l-23.48065,-23.48065l23.48065,-23.48065l23.48065,23.48065z" data-paper-data="{&quot;index&quot;:null}" fill="#ffffff" stroke="#000000" stroke-width="2" stroke-linecap="butt"/><path d="M202.02784,108.46716l11.79721,-6.36355l12.33413,0.69937l-11.96762,0.86207z" fill="#000000" stroke="none" stroke-width="0" stroke-linecap="butt"/><path d="M265.96236,103.66506l-11.96762,-0.86207l12.33413,-0.69937l11.79721,6.36355z" data-paper-data="{&quot;index&quot;:null}" fill="#000000" stroke="none" stroke-width="0" stroke-linecap="butt"/><path d="M214.94204,117.68048l19.58673,19.58673l-19.58673,19.58674l-19.5155,-17.90468l7.57188,0.16667l11.67937,9.83129l11.85075,-11.85075l-11.85075,-11.85075l-11.81377,10.90761l-7.46695,-0.17523z" fill="#000000" stroke="none" stroke-width="0" stroke-linecap="butt"/><path d="M264.93044,116.79787l19.58673,19.58673l-19.58673,19.58673l-19.5155,-17.90468l7.57188,0.16666l11.67936,9.83129l11.85075,-11.85075l-11.85075,-11.85075l-11.81376,10.90762l-7.46696,-0.17523l19.54497,-18.29763z" fill="#000000" stroke="none" stroke-width="0" stroke-linecap="butt"/><path d="M168.17442,140.60243l7.49248,-8.48092l4.85921,-3.56807l14.02249,46.308l-13.68143,-3.99766l-12.69276,-30.26135z" fill="url(#color-5)" stroke="#000000" stroke-width="0" stroke-linecap="round"/><path d="M312.37737,139.71982l-12.69275,30.26135l-13.68143,3.99766l14.0225,-46.308l4.85921,3.56807l7.49248,8.48093z" data-paper-data="{&quot;index&quot;:null}" fill="url(#color-6)" stroke="#000000" stroke-width="0" stroke-linecap="round"/></g></g></svg>