<svg version="1.1" xmlns="http://www.w3.org/2000/svg" xmlns:xlink="http://www.w3.org/1999/xlink" width="35.37505" height="35.37434" viewBox="0,0,35.37505,35.37434"><defs><linearGradient x1="239.64904" y1="162.56283" x2="239.64904" y2="196.73594" gradientUnits="userSpaceOnUse" id="color-1"><stop offset="0" stop-color="#273f33"/><stop offset="1" stop-color="#2b2b2b"/></linearGradient><linearGradient x1="239.64904" y1="162.56283" x2="239.64904" y2="196.73594" gradientUnits="userSpaceOnUse" id="color-2"><stop offset="0" stop-color="#9effd0"/><stop offset="1" stop-color="#2b2b2b"/></linearGradient><radialGradient cx="239.76998" cy="179.89335" r="2.493" gradientUnits="userSpaceOnUse" id="color-3"><stop offset="0" stop-color="#ffffff"/><stop offset="1" stop-color="#000000"/></radialGradient><linearGradient x1="239.50672" y1="178.4916" x2="239.50672" y2="190.5551" gradientUnits="userSpaceOnUse" id="color-4"><stop offset="0" stop-color="#000000"/><stop offset="1" stop-color="#ffffff"/></linearGradient><linearGradient x1="240.07307" y1="169.25438" x2="240.07307" y2="181.31777" gradientUnits="userSpaceOnUse" id="color-5"><stop offset="0" stop-color="#ff7979"/><stop offset="1" stop-color="#000000"/></linearGradient></defs><g transform="translate(-222.31248,-162.31283)"><g data-paper-data="{&quot;isPaintingLayer&quot;:true}" stroke-miterlimit="10" stroke-dasharray="" stroke-dashoffset="0" style="mix-blend-mode: normal"><path d="M257.68752,169.9567v20.49804c0,4.00745 -3.22497,7.23243 -7.23242,7.23243h-20.5c-3.66107,0 -6.66147,-2.69385 -7.1543,-6.21484c0.7952,3.03475 3.54108,5.26367 6.83204,5.26367h20.0332c3.9166,0 7.07032,-3.15372 7.07032,-7.07031v-20.03321c0,-3.2976 -2.23906,-6.0451 -5.28321,-6.83398c3.52994,0.48496 6.23438,3.49081 6.23438,7.15821z" fill-opacity="0.29839" fill="#000000" fill-rule="evenodd" stroke="none" stroke-width="4.54219" stroke-linecap="round" stroke-linejoin="round"/><path d="M229.63215,162.56283h20.03378c3.9166,0 7.06966,3.15307 7.06966,7.06966v20.03379c0,3.91659 -3.15307,7.06966 -7.06966,7.06966h-20.03378c-3.91659,0 -7.06967,-3.15307 -7.06967,-7.06966v-20.03379c0,-3.91659 3.15308,-7.06966 7.06967,-7.06966z" fill="url(#color-1)" fill-rule="evenodd" stroke="url(#color-2)" stroke-width="0.5" stroke-linecap="round" stroke-linejoin="round"/><g fill-rule="nonzero" stroke="none" stroke-linecap="butt" stroke-linejoin="miter"><g stroke-width="1"><path d="M243.58496,181.58443l6.36964,1.35418c-1.59204,5.25164 -6.97586,8.49313 -12.44039,7.33137c-5.46454,-1.16176 -9.0592,-6.31207 -8.38195,-11.7582l6.50517,1.383c-0.00381,1.92158 1.33302,3.65264 3.28844,4.06837c1.95542,0.41572 3.87983,-0.61694 4.65909,-2.37872z" fill="#ffffff"/><path d="M247.38931,182.39323l2.56528,0.54538c-1.35346,4.46258 -5.43886,7.47422 -9.99173,7.56866c3.3867,-1.01014 6.2932,-4.04476 7.42645,-8.11403z" fill="#dfdfdf"/><path d="M242.18508,180.41162c-0.06277,0.29525 -0.17672,0.5695 -0.32806,0.80545c-0.53124,0.83308 -1.54519,1.29541 -2.57131,1.07725c-1.02611,-0.21815 -1.76532,-1.04814 -1.91068,-2.03012c-0.04124,-0.28195 -0.03479,-0.574 0.02798,-0.86925v0l-0.00484,-0.00103v0c0.06277,-0.29525 0.1757,-0.56466 0.32807,-0.80545c0.53124,-0.83308 1.54519,-1.29541 2.5713,-1.07726c1.02611,0.21815 1.76532,1.04814 1.91068,2.03012c0.04124,0.28195 0.03479,0.574 -0.02313,0.87028c-0.00484,-0.00103 -0.00484,-0.00103 0,0v0z" fill="#ffffff"/><path d="M235.99828,178.22112l-6.37449,-1.35521c1.59688,-5.25061 6.97102,-8.49416 12.44039,-7.33137c5.46937,1.16279 9.06404,6.3131 8.38576,11.76407l-6.50517,-1.383c0.00381,-1.92158 -1.33302,-3.65264 -3.28844,-4.06836c-1.95542,-0.41572 -3.87982,0.61694 -4.65806,2.37388z" fill="#ff1c1c"/><path d="M244.17558,170.21612c4.2495,1.87982 6.8564,6.36988 6.27058,11.07661l-2.70081,-0.57419c0.62359,-4.2181 -0.82853,-8.21478 -3.56977,-10.50242z" fill="#df1818"/></g><path d="M229.62382,176.8659l6.36964,1.35418c0.77824,-1.75694 2.70367,-2.79444 4.65909,-2.37872c1.95542,0.41572 3.29226,2.14679 3.28845,4.06837l6.50517,1.383c0.68209,-5.4451 -2.91258,-10.59541 -8.38195,-11.7582c-5.46454,-1.16176 -10.84352,2.08076 -12.44039,7.33137zM240.29752,177.51122c-1.02611,-0.21815 -2.03904,0.23934 -2.5713,1.07726c-0.15237,0.24079 -0.2653,0.5102 -0.32807,0.80545v0l0.00484,0.00103v0c-0.06277,0.29525 -0.06921,0.5873 -0.02798,0.86925c0.14639,0.97714 0.88457,1.81197 1.91068,2.03012c1.02611,0.21815 2.03904,-0.23934 2.57131,-1.07725c0.15237,-0.24079 0.26529,-0.5102 0.32806,-0.80545v0l-0.00484,-0.00103v0c0.06277,-0.29525 0.06921,-0.5873 0.02797,-0.86925c-0.14639,-0.97714 -0.88457,-1.81197 -1.91068,-2.03012zM249.95841,182.94448l-6.37448,-1.35521c-0.77824,1.75694 -2.70367,2.79444 -4.65909,2.37872c-1.95542,-0.41572 -3.29226,-2.14678 -3.28844,-4.06836l-6.50517,-1.383c-0.68209,5.4451 2.91258,10.59541 8.38195,11.7582c5.46937,1.16279 10.84938,-2.08457 12.44523,-7.33034zM252.17031,182.53448c-1.454,6.83914 -8.17801,11.19702 -15.01231,9.74405c-6.8343,-1.45297 -11.19805,-8.17317 -9.74508,-15.00747c1.45297,-6.8343 8.17317,-11.19805 15.00747,-9.74508c6.83914,1.454 11.20392,8.16936 9.74992,15.0085z" fill="#000000" stroke-width="1"/><path d="M240.30787,177.46232c1.02611,0.21815 1.80339,1.0945 1.94978,2.07164c0.04124,0.28195 0.03426,0.59179 -0.02851,0.88705v0l0.00484,0.00103v0c-0.06277,0.29525 -0.18241,0.58111 -0.33478,0.8219c-0.53227,0.83791 -1.59773,1.31747 -2.62384,1.09932c-1.02611,-0.21815 -1.80339,-1.0945 -1.94978,-2.07164c-0.04123,-0.28195 -0.03424,-0.59179 0.02853,-0.88705v0l-0.00484,-0.00103v0c0.06277,-0.29525 0.18242,-0.5811 0.33479,-0.82189c0.53226,-0.83792 1.59772,-1.31748 2.62383,-1.09933z" data-paper-data="{&quot;noHover&quot;:false,&quot;origItem&quot;:[&quot;Path&quot;,{&quot;applyMatrix&quot;:true,&quot;segments&quot;:[[[641.01183,355.21689],[0,0],[-2.05222,-0.4363]],[[635.86923,357.37141],[1.06452,-1.67584],[-0.30474,0.48158]],[[635.21309,358.98231],[0.12554,-0.5905],[0,0]],[635.21309,358.98231],[635.22277,358.98437],[[635.22277,358.98437],[0,0],[-0.12554,0.5905]],[[635.16681,360.72287],[-0.08246,-0.5639],[0.29278,1.95428]],[[638.98817,364.78311],[-2.05222,-0.4363],[2.05222,0.4363]],[[644.13079,362.62861],[-1.06454,1.67582],[0.30474,-0.48158]],[[644.78691,361.01771],[-0.12554,0.5905],[0,0]],[644.78691,361.01771],[644.77723,361.01565],[[644.77723,361.01565],[0,0],[0.12554,-0.5905]],[[644.83317,359.27715],[0.08248,0.5639],[-0.29278,-1.95428]],[[641.01181,355.21691],[2.05222,0.4363],[0,0]]],&quot;closed&quot;:true,&quot;fillColor&quot;:[0,0,0,1]}]}" fill="url(#color-3)" stroke-width="0.5"/><path d="M250.00785,182.93706c-1.59585,5.24577 -7.04163,8.54781 -12.511,7.38502c-5.46937,-1.16279 -9.091,-6.38539 -8.40891,-11.83049l6.51634,1.36971c-0.00382,1.92158 1.32876,3.65666 3.28418,4.07238c1.95542,0.41572 3.95787,-0.6166 4.73611,-2.37354l6.38329,1.37691z" data-paper-data="{&quot;noHover&quot;:false,&quot;origItem&quot;:[&quot;Path&quot;,{&quot;applyMatrix&quot;:true,&quot;segments&quot;:[[330.16679,183.04171],[[323.79231,181.6865],[0,0],[-0.77824,1.75694]],[[319.13323,184.06522],[1.95542,0.41572],[-1.95542,-0.41572]],[[315.84479,179.99686],[-0.00382,1.92158],[0,0]],[[309.33961,178.61385],[0,0],[-0.68209,5.4451]],[[317.72157,190.37205],[-5.46937,-1.16279],[5.46937,1.16279]],[[330.16679,183.04171],[-1.59585,5.24577],[0,0]]],&quot;closed&quot;:true,&quot;fillColor&quot;:[0,0,0,1]}]}" fill="url(#color-4)" stroke-width="0.5"/><path d="M242.0805,169.48727c5.46937,1.16279 9.09102,6.3854 8.40893,11.8305l-6.51634,-1.3697c0.00381,-1.92158 -1.32882,-3.6566 -3.28425,-4.07232c-1.95542,-0.41572 -3.95781,0.61652 -4.73605,2.37346l-6.37844,-1.37587c1.59688,-5.25061 7.04161,-8.54782 12.50615,-7.38607z" data-paper-data="{&quot;noHover&quot;:false,&quot;origItem&quot;:[&quot;Path&quot;,{&quot;applyMatrix&quot;:true,&quot;segments&quot;:[[[309.83219,176.96313],[1.59688,-5.25061],[0,0]],[[316.20183,178.31732],[0,0],[0.77824,-1.75694]],[[320.86092,175.9386],[-1.95542,-0.41572],[1.95542,0.41572]],[[324.14937,180.00696],[0.00381,-1.92158],[0,0]],[[330.65453,181.38996],[0,0],[0.68209,-5.4451]],[[322.27258,169.63176],[5.46937,1.16279],[-5.46454,-1.16176]]],&quot;closed&quot;:true,&quot;fillColor&quot;:[0,0,0,1]}]}" fill="url(#color-5)" stroke-width="0.5"/></g></g></g></svg>