<svg version="1.1" xmlns="http://www.w3.org/2000/svg" xmlns:xlink="http://www.w3.org/1999/xlink" width="812.42922" height="405.75753" viewBox="0,0,812.42922,405.75753"><defs><linearGradient x1="239.13547" y1="118.91095" x2="239.13547" y2="363.40658" gradientUnits="userSpaceOnUse" id="color-1"><stop offset="0" stop-color="#1a1a1a"/><stop offset="1" stop-color="#610000"/></linearGradient></defs><g transform="translate(119.11991,5.49993)"><g data-paper-data="{&quot;isPaintingLayer&quot;:true}" stroke-miterlimit="10" stroke-dasharray="" stroke-dashoffset="0" style="mix-blend-mode: normal"><path d="M-119.11991,-3.98096h719.29031v367.96203h-719.29031z" fill="#1a1a1a" fill-rule="evenodd" stroke="none" stroke-width="2.07968" stroke-linecap="round" stroke-linejoin="round"/><path d="M-119.01804,363.40658v-244.49561h716.30698v244.49561z" fill="url(#color-1)" fill-rule="nonzero" stroke="#cccccc" stroke-width="0" stroke-linecap="butt" stroke-linejoin="miter"/><path d="M-118.91583,55.08076v-60.58069h719.14359v60.58069z" fill="#666666" fill-rule="nonzero" stroke="none" stroke-width="0" stroke-linecap="butt" stroke-linejoin="miter"/><path d="M201.36103,352.38199c-0.00002,0.02694 -0.02188,0.04879 -0.04884,0.04879c-0.02694,0 -0.04881,-0.02184 -0.04884,-0.04879c0.00002,-0.02694 0.02188,-0.04879 0.04884,-0.04879c0.02694,0 0.04881,0.02184 0.04884,0.04879z" fill="#ffffff" fill-rule="nonzero" stroke="#000000" stroke-width="0.27531" stroke-linecap="butt" stroke-linejoin="miter"/><g fill="#ffffff" fill-rule="evenodd" stroke="none" stroke-width="8.97707" stroke-linecap="round" stroke-linejoin="round"><path d="M23.49971,22.71962c-0.13767,-0.13767 -0.39335,-0.3245 -0.76703,-0.5605c-0.35401,-0.23601 -0.79652,-0.46217 -1.32752,-0.67852c-0.51134,-0.21634 -1.07185,-0.40317 -1.68152,-0.5605c-0.60968,-0.177 -1.2292,-0.2655 -1.85853,-0.2655c-1.10135,0 -1.9372,0.2065 -2.50754,0.61951c-0.55067,0.41301 -0.82601,0.99317 -0.82601,1.74052c0,0.57035 0.177,1.0227 0.531,1.35703c0.35401,0.33433 0.88502,0.6195 1.59303,0.85551c0.70801,0.23601 1.59302,0.49167 2.65504,0.76701c1.37669,0.33433 2.56655,0.74734 3.56956,1.23903c1.02269,0.47201 1.79953,1.10135 2.33053,1.88802c0.55067,0.76701 0.82601,1.7897 0.82601,3.06805c0,1.12102 -0.20649,2.08469 -0.6195,2.89105c-0.41301,0.78667 -0.98334,1.42586 -1.71103,1.91755c-0.72768,0.49167 -1.5537,0.85551 -2.47805,1.09152c-0.92435,0.21634 -1.90771,0.3245 -2.95005,0.3245c-1.04235,0 -2.0847,-0.10816 -3.12705,-0.3245c-1.04235,-0.21634 -2.04536,-0.52117 -3.00904,-0.91451c-0.96368,-0.41301 -1.84869,-0.90468 -2.65504,-1.47503l1.79952,-3.51056c0.177,0.177 0.49167,0.41301 0.94401,0.70802c0.45234,0.27533 1.00301,0.56049 1.65203,0.85551c0.64902,0.27533 1.35702,0.51135 2.12404,0.70802c0.76701,0.19667 1.54386,0.295 2.33053,0.295c1.10135,0 1.9372,-0.18684 2.50754,-0.5605c0.57035,-0.37367 0.85552,-0.90468 0.85552,-1.59303c0,-0.62934 -0.22618,-1.12102 -0.67852,-1.47501c-0.45234,-0.35401 -1.08168,-0.65884 -1.88802,-0.91451c-0.80636,-0.27533 -1.76019,-0.57035 -2.86155,-0.88502c-1.31769,-0.37367 -2.41904,-0.78669 -3.30406,-1.23903c-0.88501,-0.47201 -1.54386,-1.06201 -1.97654,-1.77002c-0.43267,-0.70801 -0.64902,-1.59304 -0.64902,-2.65505c0,-1.43569 0.33433,-2.63538 1.00301,-3.59905c0.68834,-0.98335 1.61269,-1.72087 2.77306,-2.21254c1.16035,-0.51134 2.44854,-0.76701 3.86456,-0.76701c0.98335,0 1.90771,0.10816 2.77306,0.3245c0.88501,0.21634 1.71103,0.50151 2.47804,0.85552c0.76701,0.35401 1.45535,0.73751 2.06503,1.15052z"/><path d="M43.64858,34.60832v3.56956h-14.54374v-20.94536h14.27824v3.56956h-10.20717v5.04459h8.82066v3.30406h-8.82066v5.45759z"/><path d="M62.4994,20.80208h-6.69662v17.3758h-4.04156v-17.3758h-6.69662v-3.56956h17.4348z"/><path d="M80.76015,20.80208h-6.69662v17.3758h-4.04158v-17.3758h-6.69661v-3.56956h17.4348z"/><path d="M83.35614,38.17787v-20.94536h4.07107v20.94536z"/><path d="M95.8644,24.72564v13.45223h-4.07107v-20.94536h3.24506l10.8267,13.80623v-13.77673h4.07107v20.91586h-3.39257z"/><path d="M123.00488,38.32537c-1.35701,0 -2.64521,-0.27533 -3.86455,-0.82602c-1.19968,-0.55067 -2.26172,-1.30786 -3.18605,-2.27153c-0.90466,-0.98335 -1.61268,-2.12405 -2.12404,-3.42206c-0.51133,-1.29802 -0.76701,-2.70421 -0.76701,-4.21857c0,-1.43569 0.25568,-2.78287 0.76701,-4.04156c0.51135,-1.27836 1.22918,-2.39938 2.15353,-3.36306c0.92434,-0.96368 2.00605,-1.72086 3.24508,-2.27153c1.23903,-0.55069 2.58619,-0.82602 4.04155,-0.82602c1.9667,0 3.64822,0.42284 5.04459,1.26852c1.41602,0.82602 2.47805,1.92737 3.18605,3.30406l-3.03856,2.24204c-0.53099,-1.04235 -1.27834,-1.83886 -2.24203,-2.38955c-0.94402,-0.55067 -1.97654,-0.82601 -3.09755,-0.82601c-0.88501,0 -1.69135,0.18683 -2.41904,0.56049c-0.72768,0.37367 -1.35703,0.88502 -1.88802,1.53404c-0.53101,0.64902 -0.94402,1.39635 -1.23903,2.24203c-0.27534,0.84568 -0.41301,1.74053 -0.41301,2.68454c0,1.00301 0.1476,1.92737 0.44251,2.77306c0.31466,0.84568 0.74733,1.5832 1.29801,2.21254c0.57035,0.62934 1.22918,1.13085 1.97654,1.50453c0.74734,0.35401 1.57336,0.531 2.47805,0.531c1.06201,0 2.07486,-0.27532 3.03856,-0.82601c0.98333,-0.55069 1.60099,-1.35703 2.44669,-2.41905v4.01206c-1.75038,1.88802 -3.4989,2.83206 -5.83926,2.83206zM128.84599,30.38975h-4.21858v-2.97955h7.58164v10.76768h-3.36306z"/><path d="M148.1688,22.71962c-0.13772,-0.13767 -0.39338,-0.3245 -0.767,-0.5605c-0.35401,-0.23601 -0.79652,-0.46217 -1.32753,-0.67852c-0.51133,-0.21634 -1.07185,-0.40317 -1.68154,-0.5605c-0.60968,-0.177 -1.22917,-0.2655 -1.85852,-0.2655c-1.10135,0 -1.9372,0.2065 -2.50754,0.61951c-0.55069,0.41301 -0.82602,0.99317 -0.82602,1.74052c0,0.57035 0.17701,1.0227 0.53101,1.35703c0.35401,0.33433 0.88501,0.6195 1.59302,0.85551c0.70802,0.23601 1.59304,0.49167 2.65505,0.76701c1.3767,0.33433 2.56655,0.74734 3.56956,1.23903c1.02269,0.47201 1.79953,1.10135 2.33052,1.88802c0.55069,0.76701 0.82602,1.7897 0.82602,3.06805c0,1.12102 -0.2065,2.08469 -0.6195,2.89105c-0.41302,0.78667 -0.98337,1.42586 -1.71105,1.91755c-0.72767,0.49167 -1.55368,0.85551 -2.47803,1.09152c-0.92435,0.21634 -1.90771,0.3245 -2.95005,0.3245c-1.04235,0 -2.08469,-0.10816 -3.12704,-0.3245c-1.04236,-0.21634 -2.04539,-0.52117 -3.00907,-0.91451c-0.96368,-0.41301 -1.84869,-0.90468 -2.65504,-1.47503l1.79953,-3.51056c0.177,0.177 0.49167,0.41301 0.94402,0.70802c0.45235,0.27533 1.00301,0.56049 1.65203,0.85551c0.64902,0.27533 1.35701,0.51135 2.12402,0.70802c0.76701,0.19667 1.54385,0.295 2.33052,0.295c1.10135,0 1.93721,-0.18684 2.50755,-0.5605c0.57035,-0.37367 0.85551,-0.90468 0.85551,-1.59303c0,-0.62934 -0.22617,-1.12102 -0.67852,-1.47501c-0.45233,-0.35401 -1.08167,-0.65884 -1.88801,-0.91451c-0.80636,-0.27533 -1.7602,-0.57035 -2.86155,-0.88502c-1.31768,-0.37367 -2.41905,-0.78669 -3.30407,-1.23903c-0.88501,-0.47201 -1.54384,-1.06201 -1.97653,-1.77002c-0.43268,-0.70801 -0.64903,-1.59304 -0.64903,-2.65505c0,-1.43569 0.33435,-2.63538 1.00304,-3.59905c0.68834,-0.98335 1.61268,-1.72087 2.77302,-2.21254c1.16035,-0.51134 2.44855,-0.76701 3.86457,-0.76701c0.98334,0 1.9077,0.10816 2.77303,0.3245c0.88502,0.21634 1.71103,0.50151 2.47804,0.85552c0.76701,0.35401 1.45535,0.73751 2.06504,1.15052z"/></g><g fill="#cccccc" fill-rule="evenodd" stroke="none" stroke-width="2.43813" stroke-linecap="round" stroke-linejoin="round"><path d="M17.74787,86.16014v-20.73021h7.53294c2.25793,0 4.14603,0.46716 5.66431,1.40148c1.51827,0.91486 2.65697,2.16061 3.41611,3.73727c0.75913,1.5572 1.13871,3.28959 1.13871,5.19715c0,2.10222 -0.4185,3.93193 -1.25549,5.48912c-0.83699,1.5572 -2.02435,2.76403 -3.56209,3.62049c-1.51827,0.85646 -3.31878,1.28469 -5.40153,1.28469zM31.44149,75.76583c0,-1.34308 -0.24332,-2.52072 -0.72994,-3.5329c-0.48662,-1.03165 -1.18736,-1.82971 -2.10222,-2.39419c-0.91486,-0.58395 -2.02435,-0.87593 -3.32851,-0.87593h-3.5037v13.66442h3.5037c1.32363,0 2.44285,-0.29197 3.35771,-0.87592c0.91486,-0.60342 1.60586,-1.42094 2.07301,-2.45259c0.48662,-1.0511 0.72994,-2.22874 0.72994,-3.5329z"/><path d="M37.04732,81.63447c0,-0.99271 0.2725,-1.8589 0.81752,-2.59858c0.56449,-0.75913 1.34308,-1.34308 2.3358,-1.75185c0.99271,-0.40877 2.13142,-0.61314 3.41611,-0.61314c0.64234,0 1.29443,0.04867 1.95624,0.14599c0.66181,0.09732 1.23602,0.25305 1.72265,0.46715v-0.81752c0,-0.97326 -0.29197,-1.72265 -0.87592,-2.2482c-0.56449,-0.52555 -1.41122,-0.78834 -2.54019,-0.78834c-0.83699,0 -1.63506,0.14598 -2.39419,0.43795c-0.75913,0.29197 -1.5572,0.72021 -2.39419,1.2847l-1.25549,-2.56937c1.01218,-0.66181 2.04381,-1.15816 3.09492,-1.48906c1.07057,-0.3309 2.1898,-0.49636 3.35771,-0.49636c2.18009,0 3.87353,0.54502 5.08036,1.63506c1.22629,1.09004 1.83945,2.64724 1.83945,4.67159v4.87597c0,0.40877 0.06813,0.70075 0.20438,0.87593c0.15571,0.17518 0.39903,0.28224 0.72993,0.32116v3.18253c-0.35037,0.05841 -0.67153,0.10706 -0.9635,0.14599c-0.27252,0.03893 -0.50609,0.05839 -0.70075,0.05839c-0.7786,0 -1.37228,-0.17518 -1.78104,-0.52555c-0.38931,-0.35037 -0.63261,-0.7786 -0.72994,-1.2847l-0.0876,-0.78834c-0.66181,0.85646 -1.48908,1.51827 -2.48179,1.98543c-0.99271,0.46715 -2.00488,0.70075 -3.03654,0.70075c-1.01218,0 -1.92703,-0.20439 -2.74456,-0.61314c-0.79805,-0.42823 -1.43067,-1.00244 -1.89782,-1.72265c-0.44769,-0.73967 -0.67154,-1.56692 -0.67154,-2.48178zM46.56575,82.42284c0.21411,-0.23358 0.38931,-0.46716 0.52556,-0.70075c0.13625,-0.23358 0.20437,-0.44768 0.20437,-0.64234v-1.54746c-0.46715,-0.19465 -0.97324,-0.34064 -1.51826,-0.43797c-0.54502,-0.11679 -1.06084,-0.17518 -1.54746,-0.17518c-1.01218,0 -1.84917,0.22386 -2.51098,0.67154c-0.64234,0.42824 -0.96351,1.00244 -0.96351,1.72265c0,0.38931 0.10705,0.75914 0.32116,1.10951c0.21411,0.35037 0.52556,0.63261 0.93433,0.84673c0.40877,0.21411 0.89538,0.32116 1.45987,0.32116c0.58395,0 1.15817,-0.10705 1.72266,-0.32116c0.56449,-0.23358 1.02191,-0.51583 1.37228,-0.84673z"/><path d="M63.96743,74.24756c-1.18736,0 -2.2482,0.23358 -3.18253,0.70074c-0.93432,0.44769 -1.60586,1.09978 -2.01463,1.95624v9.25559h-3.91247v-15.29947h3.59128v3.27011c0.54502,-1.05111 1.23603,-1.87837 2.07302,-2.48179c0.83699,-0.60342 1.72265,-0.93432 2.65696,-0.99271c0.21411,0 0.37957,0 0.49636,0c0.11679,0 0.21411,0.00973 0.29197,0.02919z"/><path d="M76.6099,86.16014l-4.46722,-6.59863l-2.07301,2.04382v4.55481h-3.91247v-21.31415h3.91247v12.90528l6.16067,-6.86141h4.14604l-5.69351,6.48184l6.10227,8.78844z"/><path d="M113.22355,86.16014h-3.91247v-8.58406c0,-1.20683 -0.21411,-2.09247 -0.64234,-2.65696c-0.40877,-0.58395 -0.98297,-0.87593 -1.72265,-0.87593c-0.75913,0 -1.48908,0.3017 -2.18982,0.90512c-0.68128,0.58395 -1.16789,1.35282 -1.45987,2.30661v8.90522h-3.91247v-8.58406c0,-1.2263 -0.21411,-2.12168 -0.64234,-2.68617c-0.40877,-0.56449 -0.98298,-0.84673 -1.72266,-0.84673c-0.75913,0 -1.48906,0.29198 -2.1898,0.87593c-0.68128,0.58395 -1.1679,1.35281 -1.45988,2.3066v8.93443h-3.91246v-15.29947h3.5329v2.83215c0.58395,-0.99271 1.36254,-1.75185 2.3358,-2.2774c0.97326,-0.54502 2.09248,-0.81752 3.35771,-0.81752c1.26523,0 2.2482,0.31143 2.94893,0.93432c0.72021,0.62289 1.17762,1.39175 1.37228,2.30661c0.62289,-1.05111 1.41122,-1.84917 2.365,-2.39419c0.97326,-0.56449 2.06328,-0.84673 3.27011,-0.84673c0.95379,0 1.72266,0.17518 2.30661,0.52555c0.60342,0.3309 1.07057,0.78834 1.40147,1.37228c0.33091,0.56449 0.55476,1.20683 0.67154,1.92703c0.13625,0.72021 0.20438,1.45014 0.20438,2.1898z"/><path d="M123.70544,86.45213c-1.24576,0 -2.365,-0.20439 -3.35771,-0.61314c-0.99271,-0.42824 -1.83943,-1.01217 -2.54017,-1.75184c-0.68128,-0.73967 -1.20683,-1.5864 -1.57667,-2.54019c-0.36984,-0.95379 -0.55476,-1.95624 -0.55476,-3.00734c0,-1.07057 0.18492,-2.08275 0.55476,-3.03654c0.36984,-0.95379 0.89539,-1.80051 1.57667,-2.54019c0.70074,-0.73967 1.54746,-1.31388 2.54017,-1.72265c0.99271,-0.42824 2.11195,-0.64234 3.35771,-0.64234c1.24576,0 2.35525,0.21411 3.32851,0.64234c0.99271,0.40877 1.83945,0.98297 2.54019,1.72265c0.70074,0.73967 1.2263,1.5864 1.57667,2.54019c0.36984,0.95379 0.55476,1.96596 0.55476,3.03654c0,1.0511 -0.18492,2.05356 -0.55476,3.00734c-0.35037,0.95379 -0.87593,1.80051 -1.57667,2.54019c-0.68128,0.73967 -1.51827,1.3236 -2.51098,1.75184c-0.99271,0.40877 -2.11195,0.61314 -3.35771,0.61314zM119.7054,78.5396c0,0.89539 0.17518,1.69345 0.52555,2.39419c0.35037,0.68128 0.82726,1.21656 1.43068,1.60587c0.60342,0.38931 1.2847,0.58395 2.04382,0.58395c0.73967,0 1.41122,-0.19464 2.01464,-0.58395c0.60342,-0.40877 1.08031,-0.95379 1.43068,-1.63506c0.36984,-0.70074 0.55475,-1.4988 0.55475,-2.39419c0,-0.87592 -0.18491,-1.66427 -0.55475,-2.365c-0.35037,-0.70074 -0.82726,-1.24575 -1.43068,-1.63505c-0.60342,-0.38931 -1.27496,-0.58396 -2.01464,-0.58396c-0.75913,0 -1.44041,0.20439 -2.04382,0.61314c-0.60342,0.38931 -1.08031,0.93433 -1.43068,1.63506c-0.35037,0.68128 -0.52555,1.46961 -0.52555,2.36498z"/><path d="M133.39901,78.51041c0,-1.47934 0.29198,-2.81269 0.87593,-4.00005c0.58395,-1.20683 1.39174,-2.16063 2.42338,-2.86136c1.03165,-0.70074 2.20927,-1.0511 3.5329,-1.0511c1.12897,0 2.14116,0.28224 3.03655,0.84673c0.91486,0.54502 1.62532,1.24576 2.13141,2.10222v-8.70084h3.91247v16.93453c0,0.40877 0.06813,0.70075 0.20438,0.87593c0.13625,0.17518 0.36983,0.28224 0.70074,0.32116v3.18253c-0.68128,0.13625 -1.23602,0.20438 -1.66425,0.20438c-0.70074,0 -1.2847,-0.17518 -1.75185,-0.52555c-0.44769,-0.35037 -0.70074,-0.80779 -0.75913,-1.37228l-0.0584,-0.96351c-0.56449,0.95379 -1.33334,1.68372 -2.3066,2.1898c-0.95379,0.50609 -1.95624,0.75914 -3.00734,0.75914c-1.05111,0 -2.02435,-0.20439 -2.91974,-0.61314c-0.87592,-0.40877 -1.6448,-0.97326 -2.30661,-1.69345c-0.64234,-0.72021 -1.14842,-1.5572 -1.51826,-2.51098c-0.35037,-0.97326 -0.52556,-2.01464 -0.52556,-3.12413zM145.39919,80.55423v-3.64968c-0.19465,-0.56449 -0.50608,-1.07058 -0.93432,-1.51827c-0.42824,-0.44769 -0.90513,-0.79806 -1.43069,-1.05111c-0.52555,-0.2725 -1.0511,-0.40877 -1.57666,-0.40877c-0.60342,0 -1.14843,0.12652 -1.63506,0.37957c-0.48662,0.25305 -0.91486,0.59368 -1.2847,1.02191c-0.35037,0.42824 -0.62287,0.92458 -0.81752,1.48906c-0.17518,0.56449 -0.26277,1.15816 -0.26277,1.78104c0,0.62287 0.09732,1.21656 0.29197,1.78105c0.21411,0.54502 0.51582,1.02191 0.90512,1.43068c0.38931,0.40877 0.83699,0.72994 1.34307,0.96351c0.52555,0.23358 1.09004,0.35037 1.69345,0.35037c0.36984,0 0.73966,-0.0584 1.1095,-0.17518c0.38931,-0.13625 0.74941,-0.31143 1.08031,-0.52555c0.35037,-0.23358 0.65207,-0.50609 0.90512,-0.81753c0.2725,-0.3309 0.47689,-0.68127 0.61314,-1.0511z"/><path d="M160.2607,86.45213c-1.2263,0 -2.3358,-0.20439 -3.32851,-0.61314c-0.99271,-0.42824 -1.83945,-1.00244 -2.54019,-1.72265c-0.70074,-0.73967 -1.24576,-1.57666 -1.63506,-2.51098c-0.36984,-0.95379 -0.55476,-1.95624 -0.55476,-3.00734c0,-1.45988 0.32117,-2.79322 0.96351,-4.00005c0.66181,-1.20683 1.59614,-2.17035 2.80297,-2.89056c1.22629,-0.73967 2.66671,-1.1095 4.32122,-1.1095c1.67398,0 3.10466,0.36983 4.29202,1.1095c1.18736,0.72021 2.09248,1.68372 2.71537,2.89056c0.64234,1.18736 0.96351,2.47206 0.96351,3.85407c0,0.23358 -0.00974,0.47689 -0.0292,0.72994c-0.01946,0.23358 -0.03893,0.42823 -0.05839,0.58395h-11.82498c0.07787,0.7786 0.3017,1.45988 0.67154,2.04382c0.38931,0.58395 0.87593,1.03163 1.45988,1.34307c0.60342,0.29197 1.24576,0.43797 1.92703,0.43797c0.7786,0 1.50852,-0.18492 2.1898,-0.55476c0.70074,-0.38931 1.17762,-0.89539 1.43068,-1.51826l3.35771,0.93432c-0.36984,0.7786 -0.90512,1.46961 -1.60586,2.07301c-0.68128,0.60342 -1.48908,1.08032 -2.42339,1.43069c-0.93432,0.3309 -1.96596,0.49635 -3.09492,0.49635zM156.26066,77.28405h8.0001c-0.07787,-0.7786 -0.3017,-1.45014 -0.67154,-2.01463c-0.35037,-0.58395 -0.81752,-1.03165 -1.40147,-1.34308c-0.58395,-0.33091 -1.23602,-0.49635 -1.95623,-0.49635c-0.70074,0 -1.34308,0.16544 -1.92703,0.49635c-0.56449,0.31144 -1.03165,0.75914 -1.40148,1.34308c-0.35037,0.56449 -0.56448,1.23602 -0.64234,2.01463z"/></g><g fill="#cccccc" fill-rule="evenodd" stroke="none" stroke-width="2.43813" stroke-linecap="round" stroke-linejoin="round"><path d="M23.55088,103.95733h4.08765l7.62055,20.73021h-4.14604l-1.92703,-5.16797h-7.24097l-1.89783,5.16797h-4.14604zM28.45605,116.68744l-2.86135,-8.55487l-2.97814,8.55487z"/><path d="M43.81392,124.97951c-1.24576,0 -2.365,-0.20439 -3.35771,-0.61314c-0.99271,-0.42824 -1.83943,-1.01217 -2.54017,-1.75183c-0.70074,-0.75914 -1.24576,-1.61561 -1.63506,-2.56938c-0.36984,-0.95379 -0.55476,-1.95624 -0.55476,-3.00735c0,-1.44041 0.32117,-2.75429 0.96351,-3.94164c0.66181,-1.20683 1.59613,-2.17035 2.80295,-2.89056c1.20683,-0.72021 2.63752,-1.08031 4.29204,-1.08031c1.65451,0 3.07548,0.3601 4.26284,1.08031c1.18736,0.72021 2.07301,1.66425 2.65696,2.83215l-3.82487,1.1679c-0.33091,-0.56449 -0.76887,-0.99272 -1.31388,-1.2847c-0.54502,-0.31144 -1.14843,-0.46716 -1.81025,-0.46716c-0.73967,0 -1.42094,0.19465 -2.04382,0.58396c-0.60342,0.36984 -1.08031,0.90512 -1.43068,1.60587c-0.35037,0.68127 -0.52555,1.47932 -0.52555,2.39418c0,0.89539 0.17518,1.69345 0.52555,2.3942c0.36984,0.68128 0.85646,1.2263 1.45988,1.63506c0.60342,0.38929 1.27495,0.58394 2.01463,0.58394c0.46715,0 0.90512,-0.07786 1.31388,-0.23357c0.42824,-0.15572 0.8078,-0.36984 1.13871,-0.64234c0.3309,-0.27252 0.57422,-0.58395 0.72994,-0.93432l3.82487,1.16788c-0.35037,0.75914 -0.86619,1.44042 -1.54746,2.04382c-0.66181,0.60342 -1.45014,1.08031 -2.36498,1.43069c-0.89539,0.3309 -1.90758,0.49635 -3.03655,0.49635z"/><path d="M60.13532,124.97951c-1.24576,0 -2.365,-0.20439 -3.35771,-0.61314c-0.99271,-0.42824 -1.83945,-1.01217 -2.54019,-1.75183c-0.70074,-0.75914 -1.24575,-1.61561 -1.63505,-2.56938c-0.36984,-0.95379 -0.55476,-1.95624 -0.55476,-3.00735c0,-1.44041 0.32117,-2.75429 0.96351,-3.94164c0.66181,-1.20683 1.59613,-2.17035 2.80295,-2.89056c1.20683,-0.72021 2.63751,-1.08031 4.29202,-1.08031c1.65451,0 3.07548,0.3601 4.26284,1.08031c1.18736,0.72021 2.07302,1.66425 2.65697,2.83215l-3.82487,1.1679c-0.33091,-0.56449 -0.76887,-0.99272 -1.31388,-1.2847c-0.54502,-0.31144 -1.14843,-0.46716 -1.81025,-0.46716c-0.73967,0 -1.42094,0.19465 -2.04382,0.58396c-0.60342,0.36984 -1.08031,0.90512 -1.43068,1.60587c-0.35037,0.68127 -0.52555,1.47932 -0.52555,2.39418c0,0.89539 0.17518,1.69345 0.52555,2.3942c0.36984,0.68128 0.85646,1.2263 1.45988,1.63506c0.60342,0.38929 1.27495,0.58394 2.01463,0.58394c0.46715,0 0.90512,-0.07786 1.31388,-0.23357c0.42824,-0.15572 0.8078,-0.36984 1.13871,-0.64234c0.3309,-0.27252 0.57422,-0.58395 0.72994,-0.93432l3.82487,1.16788c-0.35037,0.75914 -0.86619,1.44042 -1.54746,2.04382c-0.66181,0.60342 -1.45015,1.08031 -2.365,1.43069c-0.89539,0.3309 -1.90757,0.49635 -3.03654,0.49635z"/><path d="M76.42749,124.97951c-1.22629,0 -2.3358,-0.20439 -3.32851,-0.61314c-0.99271,-0.42824 -1.83945,-1.00243 -2.54019,-1.72264c-0.70074,-0.73966 -1.24576,-1.57667 -1.63506,-2.51101c-0.36984,-0.95379 -0.55476,-1.95622 -0.55476,-3.00732c0,-1.45987 0.32117,-2.79323 0.96351,-4.00006c0.66181,-1.20683 1.59614,-2.17035 2.80297,-2.89056c1.2263,-0.73966 2.6667,-1.1095 4.32121,-1.1095c1.67398,0 3.10467,0.36984 4.29204,1.1095c1.18736,0.72021 2.09248,1.68372 2.71535,2.89056c0.64234,1.18735 0.96351,2.47205 0.96351,3.85407c0,0.23358 -0.00973,0.47689 -0.02919,0.72994c-0.01946,0.23358 -0.03893,0.42823 -0.05839,0.58394h-11.82499c0.07787,0.77861 0.30172,1.45988 0.67154,2.04383c0.38931,0.58394 0.87593,1.03162 1.45988,1.34306c0.60342,0.29197 1.24576,0.43797 1.92703,0.43797c0.7786,0 1.50852,-0.18491 2.1898,-0.55474c0.70074,-0.38931 1.17762,-0.8954 1.43068,-1.51827l3.35771,0.93432c-0.36984,0.77861 -0.90512,1.46962 -1.60586,2.07301c-0.68128,0.60342 -1.48908,1.08031 -2.42339,1.43069c-0.93432,0.3309 -1.96596,0.49635 -3.09492,0.49635zM72.42741,115.8115h8.0001c-0.07787,-0.77858 -0.3017,-1.45014 -0.67154,-2.01463c-0.35037,-0.58396 -0.81752,-1.03166 -1.40147,-1.34309c-0.58395,-0.3309 -1.23603,-0.49635 -1.95624,-0.49635c-0.70074,0 -1.34307,0.16545 -1.92702,0.49635c-0.56449,0.31144 -1.03165,0.75914 -1.40148,1.34309c-0.35037,0.56449 -0.56448,1.23603 -0.64234,2.01463z"/><path d="M101.041,124.68752h-3.91247v-8.58406c0,-1.2263 -0.21412,-2.12168 -0.64235,-2.68616c-0.42824,-0.56449 -1.02191,-0.84674 -1.78104,-0.84674c-0.52555,0 -1.06084,0.13626 -1.60586,0.40878c-0.52555,0.27252 -1.00244,0.65207 -1.43068,1.13869c-0.42824,0.46716 -0.73966,1.01219 -0.93432,1.63506v8.93443h-3.91247v-15.29949h3.5329v2.83217c0.38931,-0.66182 0.88565,-1.21656 1.48906,-1.66425c0.60342,-0.46714 1.29442,-0.81752 2.07301,-1.05111c0.79806,-0.25303 1.63506,-0.37956 2.51098,-0.37956c0.95379,0 1.73238,0.17518 2.3358,0.52555c0.62289,0.3309 1.09004,0.78832 1.40148,1.37228c0.3309,0.56449 0.55476,1.20684 0.67154,1.92704c0.13625,0.72021 0.20438,1.45015 0.20438,2.1898z"/><path d="M113.53751,123.89919c-0.33091,0.13623 -0.72994,0.29195 -1.19709,0.46715c-0.46715,0.17518 -0.97326,0.31145 -1.51827,0.40878c-0.52555,0.11678 -1.06084,0.17516 -1.60586,0.17516c-0.72021,0 -1.38201,-0.12653 -1.98543,-0.37958c-0.60342,-0.25303 -1.09003,-0.65206 -1.45987,-1.19707c-0.35037,-0.56449 -0.52556,-1.29444 -0.52556,-2.18983v-8.78844h-2.01463v-3.00734h2.01463v-4.96357h3.91247v4.96357h3.21173v3.00734h-3.21173v7.47457c0.01946,0.52555 0.16545,0.90511 0.43797,1.13869c0.27252,0.23358 0.61314,0.35037 1.02191,0.35037c0.40877,0 0.80779,-0.06811 1.19709,-0.20436c0.38931,-0.13623 0.70074,-0.25302 0.93432,-0.35037z"/><path d="M129.71293,124.97951c-1.24576,0 -2.365,-0.20439 -3.35771,-0.61314c-0.99271,-0.42824 -1.83943,-1.01217 -2.54017,-1.75183c-0.70074,-0.75914 -1.24576,-1.61561 -1.63506,-2.56938c-0.36984,-0.95379 -0.55476,-1.95624 -0.55476,-3.00735c0,-1.44041 0.32117,-2.75429 0.96351,-3.94164c0.66181,-1.20683 1.59613,-2.17035 2.80295,-2.89056c1.20683,-0.72021 2.63752,-1.08031 4.29204,-1.08031c1.65451,0 3.07548,0.3601 4.26284,1.08031c1.18736,0.72021 2.07301,1.66425 2.65696,2.83215l-3.82487,1.1679c-0.33091,-0.56449 -0.76887,-0.99272 -1.31388,-1.2847c-0.54502,-0.31144 -1.14843,-0.46716 -1.81025,-0.46716c-0.73967,0 -1.42094,0.19465 -2.04382,0.58396c-0.60342,0.36984 -1.08031,0.90512 -1.43068,1.60587c-0.35037,0.68127 -0.52555,1.47932 -0.52555,2.39418c0,0.89539 0.17518,1.69345 0.52555,2.3942c0.36984,0.68128 0.85646,1.2263 1.45988,1.63506c0.60342,0.38929 1.27495,0.58394 2.01463,0.58394c0.46715,0 0.90512,-0.07786 1.31388,-0.23357c0.42824,-0.15572 0.8078,-0.36984 1.13871,-0.64234c0.3309,-0.27252 0.57423,-0.58395 0.72994,-0.93432l3.82487,1.16788c-0.35037,0.75914 -0.86619,1.44042 -1.54746,2.04382c-0.66181,0.60342 -1.45015,1.08031 -2.365,1.43069c-0.89539,0.3309 -1.90757,0.49635 -3.03654,0.49635z"/><path d="M145.97592,124.97951c-1.24576,0 -2.365,-0.20439 -3.35771,-0.61314c-0.99271,-0.42824 -1.83945,-1.01217 -2.54019,-1.75183c-0.68128,-0.73969 -1.20683,-1.58641 -1.57667,-2.5402c-0.36984,-0.95379 -0.55475,-1.95624 -0.55475,-3.00735c0,-1.07057 0.18491,-2.08273 0.55475,-3.03651c0.36984,-0.9538 0.89539,-1.80053 1.57667,-2.5402c0.70074,-0.73966 1.54747,-1.31388 2.54019,-1.72265c0.99271,-0.42824 2.11195,-0.64234 3.35771,-0.64234c1.24576,0 2.35525,0.21411 3.32851,0.64234c0.99271,0.40877 1.83945,0.98298 2.54019,1.72265c0.70074,0.73966 1.22629,1.5864 1.57666,2.5402c0.36984,0.95379 0.55476,1.96593 0.55476,3.03651c0,1.05111 -0.18492,2.05358 -0.55476,3.00735c-0.35037,0.95379 -0.87592,1.80051 -1.57666,2.5402c-0.68128,0.73966 -1.51827,1.32359 -2.51098,1.75183c-0.99271,0.40877 -2.11195,0.61314 -3.35771,0.61314zM141.97583,117.06698c0,0.89539 0.17519,1.69345 0.52556,2.3942c0.35037,0.68128 0.82726,1.21656 1.43068,1.60587c0.60342,0.38929 1.2847,0.58394 2.04382,0.58394c0.73967,0 1.41121,-0.19465 2.01463,-0.58394c0.60342,-0.40877 1.08031,-0.95379 1.43068,-1.63506c0.36984,-0.70075 0.55476,-1.49882 0.55476,-2.3942c0,-0.87592 -0.18492,-1.66424 -0.55476,-2.36498c-0.35037,-0.70075 -0.82726,-1.24576 -1.43068,-1.63506c-0.60342,-0.38931 -1.27495,-0.58396 -2.01463,-0.58396c-0.75913,0 -1.44041,0.20439 -2.04382,0.61314c-0.60342,0.38931 -1.08031,0.93433 -1.43068,1.63507c-0.35037,0.68128 -0.52556,1.46961 -0.52556,2.36497z"/><path d="M156.5746,103.37338h3.91246v16.40898c0,0.70075 0.1168,1.17762 0.35038,1.43067c0.23358,0.23359 0.55475,0.35039 0.9635,0.35039c0.31144,0 0.63261,-0.03893 0.96351,-0.11678c0.3309,-0.07786 0.62289,-0.17517 0.87593,-0.29197l0.52555,2.97813c-0.52555,0.25305 -1.13872,0.44772 -1.83945,0.58396c-0.70074,0.13623 -1.33334,0.20436 -1.89783,0.20436c-1.2263,0 -2.18008,-0.32117 -2.86135,-0.96353c-0.66181,-0.6618 -0.99271,-1.59613 -0.99271,-2.80295z"/><path d="M172.92523,124.97951c-1.24576,0 -2.365,-0.20439 -3.35771,-0.61314c-0.99271,-0.42824 -1.83945,-1.01217 -2.54019,-1.75183c-0.68128,-0.73969 -1.20683,-1.58641 -1.57667,-2.5402c-0.36984,-0.95379 -0.55475,-1.95624 -0.55475,-3.00735c0,-1.07057 0.18491,-2.08273 0.55475,-3.03651c0.36984,-0.9538 0.89539,-1.80053 1.57667,-2.5402c0.70074,-0.73966 1.54747,-1.31388 2.54019,-1.72265c0.99271,-0.42824 2.11195,-0.64234 3.35771,-0.64234c1.24576,0 2.35525,0.21411 3.32851,0.64234c0.99271,0.40877 1.83945,0.98298 2.54019,1.72265c0.70074,0.73966 1.22629,1.5864 1.57666,2.5402c0.36984,0.95379 0.55476,1.96593 0.55476,3.03651c0,1.05111 -0.18492,2.05358 -0.55476,3.00735c-0.35037,0.95379 -0.87592,1.80051 -1.57666,2.5402c-0.68128,0.73966 -1.51827,1.32359 -2.51098,1.75183c-0.99271,0.40877 -2.11195,0.61314 -3.35771,0.61314zM168.92514,117.06698c0,0.89539 0.17519,1.69345 0.52556,2.3942c0.35037,0.68128 0.82726,1.21656 1.43068,1.60587c0.60342,0.38929 1.2847,0.58394 2.04382,0.58394c0.73967,0 1.41121,-0.19465 2.01463,-0.58394c0.60342,-0.40877 1.08031,-0.95379 1.43068,-1.63506c0.36984,-0.70075 0.55476,-1.49882 0.55476,-2.3942c0,-0.87592 -0.18492,-1.66424 -0.55476,-2.36498c-0.35037,-0.70075 -0.82726,-1.24576 -1.43068,-1.63506c-0.60342,-0.38931 -1.27495,-0.58396 -2.01463,-0.58396c-0.75913,0 -1.44041,0.20439 -2.04382,0.61314c-0.60342,0.38931 -1.08031,0.93433 -1.43068,1.63507c-0.35037,0.68128 -0.52556,1.46961 -0.52556,2.36497z"/><path d="M192.66272,112.77498c-1.18736,0 -2.2482,0.23358 -3.18253,0.70073c-0.93432,0.44768 -1.60586,1.09977 -2.01463,1.95624v9.25559h-3.91247v-15.29949h3.59128v3.27014c0.54502,-1.0511 1.23602,-1.87836 2.07301,-2.48178c0.83699,-0.60342 1.72266,-0.93432 2.65697,-0.99272c0.21411,0 0.37957,0 0.49636,0c0.11679,0 0.21411,0.00973 0.29197,0.02919z"/></g><path d="M467.76787,96.05396l-454.14356,-0.00002" fill="#ffffff" fill-rule="evenodd" stroke="#808080" stroke-width="0.8" stroke-linecap="round" stroke-linejoin="round"/><path d="M467.76787,136.29272l-454.14356,-0.00002" fill="#ffffff" fill-rule="evenodd" stroke="#808080" stroke-width="0.8" stroke-linecap="round" stroke-linejoin="round"/><path d="M467.90018,173.97585l-454.14356,-0.00002" fill="#ffffff" fill-rule="evenodd" stroke="#808080" stroke-width="0.8" stroke-linecap="round" stroke-linejoin="round"/><path d="M468.03247,211.65895l-454.14356,-0.00002" fill="#ffffff" fill-rule="evenodd" stroke="#808080" stroke-width="0.8" stroke-linecap="round" stroke-linejoin="round"/><path d="M679.73882,397.91886c-0.24878,2.59061 -2.73637,2.33154 -2.73637,2.33154l-2.05167,-0.21734c-1.29783,-0.38072 -2.9816,-0.10783 -3.89349,-1.14217c-1.98464,-2.25114 -0.90187,-7.63649 -1.10048,-10.44483c0,0 -0.17811,-2.59692 2.31553,-2.78241c2.49365,-0.18549 2.67176,2.41143 2.67176,2.41143c0.18021,2.70167 0.35137,3.3484 0.00438,6.08154c-0.04733,0.37277 -0.60255,0.81771 -0.33671,1.07216c0.28159,0.26952 0.73286,-0.22816 1.09929,-0.34224l1.78894,0.18264c0,0 2.48759,0.25907 2.23882,2.84968z" fill="#f5b5b5" fill-rule="nonzero" stroke="none" stroke-width="0.5" stroke-linecap="butt" stroke-linejoin="miter"/><path d="M661.10439,396.52596c0,0 -0.47532,0.13089 -1.05686,0.07092c-0.08599,0.47439 -0.15834,0.95061 -0.21071,1.42928c0,0 -0.25029,2.22612 -2.62807,1.99179c-2.37778,-0.23433 -2.1275,-2.46043 -2.1275,-2.46043c0.38471,-3.34312 0.92398,-12.20132 6.42594,-11.98781c4.67149,0.18129 5.92134,7.53175 6.29504,10.58433l-0.15293,1.37369c0,0 -0.39307,2.20795 -2.75145,1.83997c-2.35838,-0.36799 -1.96533,-2.57595 -1.96533,-2.57595l0.11712,-0.14334c-0.02441,-0.21365 -0.0566,-0.4241 -0.09521,-0.63188c-0.61669,0.16981 -1.23336,0.33962 -1.85005,0.50943zM661.34998,390.65437c-0.05608,0.4013 -0.13153,0.80009 -0.21704,1.19721c0.16397,-0.04515 0.32794,-0.09031 0.49192,-0.13546c-0.10564,-0.34959 -0.19986,-0.70254 -0.27488,-1.06176z" fill="#f5b5b5" fill-rule="nonzero" stroke="none" stroke-width="0.5" stroke-linecap="butt" stroke-linejoin="miter"/><path d="M688.51158,393.26869c-2.49388,0.14072 -2.66868,-1.88689 -2.66868,-1.88689l0.81257,-3.6067c0.50336,-0.25743 1.14468,-0.39087 1.51008,-0.77228c1.05444,-1.10063 -0.95491,-2.73382 -2.00507,-1.88379c-0.44417,0.35952 -0.45453,0.9499 -0.68179,1.42484c0,0 -1.22857,1.76944 -3.40587,0.7694c-2.1773,-1.00004 -0.94871,-2.76947 -0.94871,-2.76947c0.75147,-0.93465 1.10049,-2.19835 2.2544,-2.80397c4.27934,-2.24595 9.51851,0.26794 9.90388,4.09795c0.32815,3.26138 -2.45171,5.26258 -2.45171,5.26258c0,0 0.17479,2.0276 -2.31909,2.16832z" fill="#f5b5b5" fill-rule="nonzero" stroke="none" stroke-width="0.5" stroke-linecap="butt" stroke-linejoin="miter"/><path d="M687.60115,400.05185c-1.06977,0 -1.97691,-0.59438 -2.29296,-1.41738c-0.27331,-0.33387 -0.43364,-0.74012 -0.43364,-1.17833c0,-0.06785 0.00384,-0.13493 0.01135,-0.20109c-0.00751,-0.06616 -0.01135,-0.13323 -0.01135,-0.20108c0,-1.13742 1.08013,-2.05948 2.41253,-2.05948c0.13369,0 0.26483,0.00929 0.3926,0.02714c0.12777,-0.01785 0.25891,-0.02714 0.3926,-0.02714c1.3324,0 2.41253,0.92206 2.41253,2.05948c0,0.38415 -0.1232,0.74372 -0.33772,1.05152c-0.05124,0.10627 -0.11259,0.20807 -0.18304,0.30454c-0.22613,0.93717 -1.19811,1.64182 -2.36289,1.64182z" fill="#f5b5b5" fill-rule="nonzero" stroke="none" stroke-width="0.5" stroke-linecap="butt" stroke-linejoin="miter"/><g fill="#f5b5b5" fill-rule="nonzero" stroke="none" stroke-width="0.5" stroke-linecap="butt" stroke-linejoin="miter"><path d="M119.84721,198.2377c0.3932,0.73895 1.08647,1.10533 2.29241,0.72982c0.80715,-0.25133 -1.11025,-0.31016 -2.29241,-0.72982zM115.10394,190.95723c0.09319,-0.20407 0.18017,-0.32811 0.18017,-0.32811c0,0 1.36424,-2.64836 3.26237,-2.55909c2.65278,0.12476 5.169,-0.12365 6.45967,2.96095c0.53214,1.27179 0.03398,2.76492 -0.41081,4.06404c-0.14458,0.42226 0.8232,0.29835 1.23524,0.94694c0.87225,1.37301 1.24036,3.21474 0.67623,4.71458c-1.71959,4.57183 -8.86189,3.00607 -10.87176,-0.05533c-1.15631,-1.76127 -0.88839,-6.11703 -1.03272,-8.20336c0,0 -0.05981,-0.8683 0.50162,-1.54063zM119.35878,194.71851c0.74358,-1.27485 1.763,-2.06644 0.03717,-2.26184c0.01991,0.61156 -0.02376,1.41987 -0.03717,2.26184z"/><path d="M42.10213,190.01452c1.02561,0.76918 0.40156,2.30238 0.3785,2.85325c-0.04922,1.17543 -0.04332,1.55871 -0.03091,2.61554c0.01613,1.37342 -0.03725,2.72315 -0.69934,3.89238c-0.80224,1.41674 -1.90317,3.40169 -3.80348,3.36606c-2.76877,-0.0519 -3.42306,-1.48478 -3.46033,-2.95881l-1.24628,1.55239c-0.50689,0.66677 -1.49294,0.98696 -2.49339,0.73528c-0.83866,-0.21098 -1.47824,-0.77119 -1.74037,-1.43418l-1.00916,-2.42735l0.04836,-0.01164l-0.10398,-0.13941c-0.6595,-2.84993 -1.5421,-4.59491 -3.13715,-7.32634c0,0 -1.08342,-1.8636 1.00883,-2.63901c2.09224,-0.77542 3.17566,1.08818 3.17566,1.08818c1.30548,2.25479 2.27002,4.0636 2.96259,6.19637l0.67239,-1.13155c0.44957,-0.80237 1.52938,-1.21411 2.62651,-0.93811c0.73598,0.18515 1.31865,0.63926 1.62744,1.19576l0.4384,0.77397c0.16008,-1.44699 0.42142,-2.37932 0.70876,-3.54028c0.18591,-0.75114 0.7664,-1.63591 0.7664,-1.63591c0,0 1.466,-1.46991 3.3105,-0.08658z"/><path d="M48.70473,202.84441c-2.35331,0.32286 -2.6895,-1.93715 -2.6895,-1.93715l-0.34242,-2.46418c0,-2.75315 0,-5.50629 0,-8.25944c0,0 0,-2.28296 2.3772,-2.28296c2.3772,0 2.3772,2.28296 2.3772,2.28296c0,2.75315 0,5.50629 0,8.25944l0.29464,1.81848c0,0 0.33619,2.26 -2.01712,2.58286z"/><path d="M16.14217,197.79739c2.12623,-0.89157 3.18935,0.89157 3.18935,0.89157c0,0 0.55884,0.72059 1.01642,0.29028c0.63227,-0.59457 -1.4275,-1.06347 -2.2357,-1.48213c-0.85816,-0.44456 -1.95333,-0.65774 -2.58789,-1.3153c-2.74867,-2.84832 -2.86731,-4.78229 1.25488,-7.19983c0.98888,-0.57995 2.4076,-0.14031 3.6114,-0.21047c0,0 2.37721,0 2.37721,1.99361c0,1.99361 -2.37721,1.9936 -2.37721,1.9936c-5.39848,-0.76505 3.72333,3.42278 4.04668,4.07599c1.89249,3.82301 -0.58026,5.69667 -4.73855,6.07456c-1.09894,0.09986 -2.07425,-0.64138 -3.11137,-0.96207l-1.50834,-1.4751c0,0 -1.06312,-1.78313 1.06312,-2.6747z"/><path d="M82.04608,201.55562c-0.21225,1.76179 -1.85469,1.84416 -2.42232,1.81913c-1.39728,0.35353 -2.76145,0.97442 -4.21654,0.86122c-6.24775,-0.48606 -8.48994,-5.94113 -6.39033,-10.70074c1.58522,-3.59352 5.94675,-4.01912 9.5589,-3.93404c0,0 2.37133,0.0934 2.37602,2.25183c0.00469,2.15843 -2.36663,2.06502 -2.36663,2.06502c-3.24379,-0.20216 -5.6972,0.39479 -5.46211,3.84877c0.04043,0.59398 0.0376,1.30538 0.50151,1.74153c1.18345,1.11266 4.49471,-0.2776 5.07905,-0.42636l1.24231,0.00753c0,0 2.35735,0.33119 2.10014,2.4661z"/><path d="M65.5334,188.50901c0.61117,-0.20103 1.95681,-0.41652 2.72309,1.19286c1.01367,2.12895 -1.01382,3.19335 -1.01382,3.19335l-1.77971,0.42539c-1.15465,-0.20216 -2.21805,-0.38496 -3.24748,-0.50609c0.04778,2.14896 0.21494,4.26074 0.3799,6.41915l-0.20452,2.67594c0,0 -0.18826,2.37198 -2.44719,2.1743c-2.25894,-0.19768 -2.07067,-2.56966 -2.07067,-2.56966l0.18886,-2.28059c-0.17856,-2.15618 -0.33362,-4.266 -0.37959,-6.41452c-0.66808,0.09765 -1.35654,0.24523 -2.07996,0.45347c0,0 -2.19023,0.61329 -2.77429,-1.68654c-0.58407,-2.29983 1.60617,-2.91312 1.60617,-2.91312c3.9861,-1.09046 7.17557,-0.8242 11.09923,-0.16394z"/><path d="M93.97341,202.57354c-2.5,0 -2.5,-2.5 -2.5,-2.5l0.00864,-1.29221c0.00471,-0.05417 0.00921,-0.10828 0.01353,-0.16235l-0.12452,0.01201c-0.81824,0.14439 -1.63649,0.2888 -2.45473,0.43319c-0.01345,0.188 -0.02799,0.3767 -0.04363,0.56623l-0.48472,2.28694c0,0 -0.54232,2.44047 -2.98279,1.89816c-2.44047,-0.54231 -1.89815,-2.98279 -1.89815,-2.98279l0.38293,-1.61756c0.21984,-2.61073 0.20155,-5.01306 -0.00127,-7.62653c0,0 -0.19176,-2.49263 2.30088,-2.68438c2.49264,-0.19176 2.68439,2.30088 2.68439,2.30088c0.07148,0.93696 0.12141,1.85362 0.14801,2.76316c0.49338,-0.08707 0.98677,-0.17413 1.48015,-0.2612l1.02022,-0.10509c-0.02474,-0.80025 -0.04829,-1.60516 -0.04894,-2.42203c0,0 0,-2.5 2.5,-2.5c2.5,0 2.5,2.5 2.5,2.5c-0.00235,2.71889 0.20941,5.29963 -0.00864,8.01662l0.00864,0.87696c0,0 0,2.5 -2.5,2.5z"/><path d="M137.15525,186.85473c2.37171,-0.79055 3.16227,1.58116 3.16227,1.58116l0.33067,1.05309c0.92562,4.8655 -1.39417,15.50861 -9.09008,12.01101c-3.49091,-1.58653 -3.3741,-6.5118 -3.63178,-9.55657c0,0 -0.20761,-2.49136 2.28375,-2.69897c2.49136,-0.20761 2.69897,2.28376 2.69897,2.28376c0.07834,0.95645 0.12492,1.91603 0.23502,2.86934c0.39569,3.42624 1.92267,2.96444 2.91776,-0.14642c0.42385,-1.32504 -0.04129,-2.48993 -0.31655,-3.78158l-0.17119,-0.45255c0,0 -0.79056,-2.37172 1.58116,-3.16227z"/><path d="M180.55196,194.33734c-0.03857,0.53664 -0.09874,1.0756 0.00559,1.59687c0.10745,0.53692 0.93882,1.49969 1.20473,1.02967c1.13124,-1.99968 0.05744,-2.6079 -1.21031,-2.62654zM174.87239,193.54311c-0.29656,-1.25128 0.3641,-2.4262 0.3641,-2.4262l2.49111,-2.53611c1.30978,-0.23509 2.63204,-1.00914 3.92934,-0.70529c8.92386,2.09016 7.26965,18.13163 -2.44194,14.82792c-1.79944,-0.61214 -3.0312,-2.57584 -3.94541,-4.33934c-0.62579,-1.20713 -0.29067,-2.74156 -0.43601,-4.11234c0,0 -0.01976,-0.29508 0.03882,-0.70863z"/><path d="M200.24231,187.84588c2.4807,-0.30666 2.79076,2.14681 2.79076,2.14681l0.20844,1.65728c0.48152,3.20137 0.32948,4.26124 0.11901,6.98517c-0.21047,2.72393 -2.12002,4.28055 -3.24461,4.28055c-0.88154,0 -1.65651,-0.45126 -2.10164,-1.13294l-1.70294,-2.5264c-0.44364,-0.6023 -0.88005,-1.12167 -1.27385,-1.61148c-0.07442,1.03137 -0.17374,2.06098 -0.29465,3.08715c0,0 -0.2921,2.45561 -2.77498,2.16673c-2.48288,-0.28889 -2.19078,-2.74451 -2.19078,-2.74451c0.25904,-2.15549 0.42174,-4.32803 0.42117,-6.49871l-0.21062,-2.70787c-0.00627,-0.07141 -0.00947,-0.14368 -0.00947,-0.21668c0,-1.36556 1.11929,-2.47255 2.5,-2.47255c0.69036,0 1.31535,0.27675 1.76776,0.72419v0l2.31292,2.89234c0.64922,0.56515 1.21872,1.16685 1.83684,1.91451c-0.00299,-0.46316 -0.02211,-0.93084 -0.09602,-1.38757l-0.22797,-1.7959c0,0 -0.31007,-2.45346 2.17064,-2.76012z"/><path d="M170.5194,188.2136c0.56267,-0.19019 1.80153,-0.39404 2.507,1.12848c0.93323,2.01405 -0.93337,3.021 -0.93337,3.021l-1.63848,0.40243c-1.06302,-0.19124 -2.04204,-0.36418 -2.98978,-0.47877c0.04399,2.03298 0.19788,4.03078 0.34975,6.0727l-0.1883,2.53152c0,0 -0.17332,2.24396 -2.253,2.05695c-2.07968,-0.18701 -1.90636,-2.43097 -1.90636,-2.43097l0.17387,-2.1575c-0.16439,-2.03981 -0.30715,-4.03576 -0.34947,-6.06832c-0.61507,0.09238 -1.24889,0.23199 -1.91491,0.429c0,0 -2.01642,0.58019 -2.55414,-1.59552c-0.53772,-2.17571 1.47871,-2.7559 1.47871,-2.7559c3.66979,-1.03161 6.60617,-0.77971 10.21847,-0.15509z"/><path d="M154.69781,187.88991c0.58692,-0.19323 1.87916,-0.40036 2.61504,1.14655c0.97345,2.04631 -0.97359,3.06939 -0.97359,3.06939l-1.70909,0.40887c-1.10883,-0.19431 -2.13005,-0.37001 -3.11863,-0.48644c0.04589,2.06555 0.20641,4.09535 0.36482,6.16998l-0.19641,2.57207c0,0 -0.18078,2.2799 -2.35009,2.0899c-2.16931,-0.19 -1.98852,-2.46991 -1.98852,-2.46991l0.18136,-2.19206c-0.17147,-2.07248 -0.32038,-4.10041 -0.36453,-6.16553c-0.64157,0.09386 -1.30272,0.2357 -1.99743,0.43586c0,0 -2.10333,0.58949 -2.66422,-1.62107c-0.56089,-2.21056 1.54244,-2.80005 1.54244,-2.80005c3.82795,-1.04814 6.89088,-0.7922 10.65885,-0.15757z"/></g><path d="M13.28893,250.55553l454.14356,0.00002" fill="#ffffff" fill-rule="evenodd" stroke="#808080" stroke-width="0.8" stroke-linecap="round" stroke-linejoin="round"/><g fill="#f5b5b5" fill-rule="nonzero" stroke="none" stroke-width="0.5" stroke-linecap="butt" stroke-linejoin="miter"><path d="M197.55965,147.11641c2.71932,-0.83132 3.62575,1.66271 3.62575,1.66271l0.37914,1.1074c1.06128,5.11643 -1.59851,16.30844 -10.42238,12.63046c-4.00256,-1.66835 -3.86863,-6.84763 -4.16408,-10.04943c0,0 -0.23804,-2.61985 2.61847,-2.83816c2.85651,-0.21832 3.09455,2.40154 3.09455,2.40154c0.08982,1.00578 0.14323,2.01485 0.26947,3.01732c0.45368,3.60294 2.20447,3.11733 3.34541,-0.15397c0.48597,-1.39338 -0.04734,-2.61834 -0.36295,-3.97661l-0.19628,-0.47589c0,0 -0.90643,-2.49404 1.8129,-3.32536z"/><path d="M41.84513,162.09797c0.03325,2.56268 -3.04139,2.59265 -3.04139,2.59265l-2.08653,-0.09301c-1.51111,-0.51235 -3.49946,-0.48546 -4.53331,-1.53705c-2.21091,-2.24887 -1.48516,-8.16802 -1.3358,-10.84937c0,0 0.14735,-2.56001 3.21865,-2.43947c3.0713,0.12054 2.92394,2.68057 2.92394,2.68057c-0.11294,1.89486 0.04755,3.794 0.06319,5.69105c0.0043,0.52352 -0.60024,1.1441 -0.21932,1.56011c0.32902,0.35934 1.08503,-0.01477 1.62754,-0.02215l0.27515,-0.11602c0,0 3.07464,-0.02997 3.10788,2.5327z"/><path d="M48.08883,153.53761c0.12261,1.44974 0.26514,2.90009 0.12256,4.33736c-0.05784,0.58313 2.79322,-0.46451 3.03807,-0.80754c1.54129,-2.15945 -1.62238,-3.52603 -3.16063,-3.52981zM45.40433,149.17594l2.66447,-0.7389c1.2623,0.11057 2.63182,-0.18936 3.78689,0.33169c6.11389,2.75796 6.00548,10.04294 1.20456,13.45675c-3.02946,2.15417 -6.08582,4.21371 -9.75274,0.19063c-1.06544,-1.16894 -0.2832,-3.07577 -0.39033,-4.61547c-0.08176,-1.17494 -0.20345,-4.94967 -0.24164,-6.03693c0,0 -0.0897,-2.55402 2.55593,-2.58919c0.05888,-0.00079 0.1165,-0.00028 0.17287,0.00143z"/><path d="M21.3722,155.38363c-0.03552,0.54895 -0.09481,1.10052 0.0269,1.63217c0.12535,0.54764 1.05381,1.5226 1.34067,1.03926c1.22037,-2.05639 0.02942,-2.6663 -1.36754,-2.67144zM15.10449,154.63412c-0.34298,-1.27573 0.36965,-2.48394 0.36965,-2.48394l2.71161,-2.61962c1.43997,-0.25467 2.88671,-1.06036 4.31994,-0.76402c9.85887,2.03853 8.24466,18.45346 -2.49785,15.18314c-1.99045,-0.60594 -3.37303,-2.59964 -4.40313,-4.39216c-0.70513,-1.227 -0.35584,-2.79909 -0.53376,-4.19864c0,0 -0.0256,-0.3014 0.03356,-0.72475z"/><path d="M85.81252,148.33293c1.18227,0.51855 0.95113,2.23313 1.06317,2.79783c0.23904,1.20495 0.33826,1.59224 0.60813,2.66115c0.35071,1.38911 0.62824,2.77196 0.27142,4.12704c-0.43236,1.64192 -1.01578,3.93645 -2.86736,4.38527c-2.69777,0.65393 -3.68185,-0.63265 -4.07761,-2.11843l-0.82989,1.89283c-0.32891,0.80575 -1.20705,1.3822 -2.23867,1.3822c-0.86479,0 -1.62172,-0.40508 -2.03767,-1.01074l-1.57086,-2.20483l0.04406,-0.02416l-0.13485,-0.11488c-1.33486,-2.72276 -2.61651,-4.26767 -4.82974,-6.63146c0,0 -1.50534,-1.614 0.33451,-2.93454c1.83985,-1.32055 3.34519,0.29345 3.34519,0.29345c1.81612,1.95416 3.19281,3.54293 4.38477,5.52973l0.37602,-1.31947c0.24023,-0.92867 1.18697,-1.62193 2.31828,-1.62193c0.75891,0 1.43476,0.31197 1.86999,0.7977l0.61398,0.67326c-0.19778,-1.50871 -0.17178,-2.52121 -0.17636,-3.77225c-0.00296,-0.80942 0.34414,-1.85511 0.34414,-1.85511c0,0 1.06308,-1.86524 3.18933,-0.93266z"/><path d="M140.54328,158.35781c0,0 -0.49701,0.14139 -1.10508,0.07661c-0.08992,0.51247 -0.16556,1.02692 -0.22031,1.54401c0,0 -0.26171,2.40481 -2.74798,2.15167c-2.48627,-0.25313 -2.22455,-2.65794 -2.22455,-2.65794c0.40226,-3.61148 0.96613,-13.1807 6.71911,-12.95005c4.88461,0.19583 6.1915,8.13631 6.58225,11.43392l-0.15991,1.48396c0,0 -0.41099,2.38519 -2.87698,1.98766c-2.46599,-0.39753 -2.055,-2.78272 -2.055,-2.78272l0.12247,-0.15484c-0.02552,-0.23081 -0.05919,-0.45815 -0.09956,-0.68259c-0.64482,0.18344 -1.28964,0.36688 -1.93445,0.55032zM140.8001,152.01496c-0.05863,0.43351 -0.13753,0.86431 -0.22695,1.2933c0.17145,-0.04878 0.34291,-0.09755 0.51436,-0.14632c-0.11046,-0.37765 -0.20898,-0.75892 -0.28741,-1.14698z"/><path d="M179.00539,154.27804c-0.03762,0.4905 -0.0963,0.98313 0.00545,1.45958c0.1048,0.49076 0.91566,1.37076 1.175,0.94115c1.10333,-1.82776 0.05602,-2.38369 -1.18045,-2.40073zM173.46595,153.5521c-0.28924,-1.1437 0.35512,-2.21761 0.35512,-2.21761l2.42964,-2.31807c1.27746,-0.21488 2.5671,-0.92238 3.83239,-0.64465c8.70367,1.91046 7.09028,16.57279 -2.38169,13.55311c-1.75504,-0.55951 -2.95641,-2.35439 -3.84806,-3.96627c-0.61035,-1.10335 -0.2835,-2.50586 -0.42525,-3.75879c0,0 -0.01927,-0.26971 0.03786,-0.64771z"/><path d="M114.87179,147.78402c2.32277,-0.27439 2.61308,1.92097 2.61308,1.92097l0.19517,1.48295c0.45086,2.8646 0.3085,3.81296 0.11143,6.25035c-0.19708,2.43739 -1.98505,3.83025 -3.03804,3.83025c-0.82541,0 -1.55104,-0.40378 -1.96784,-1.01377l-1.59452,-2.26063c-0.41539,-0.53894 -0.82402,-1.00367 -1.19275,-1.44195c-0.06968,0.92288 -0.16269,1.84417 -0.27589,2.7624c0,0 -0.27351,2.1973 -2.59831,1.93879c-2.3248,-0.25851 -2.0513,-2.45579 -2.0513,-2.45579c0.24255,-1.92874 0.39489,-3.87275 0.39436,-5.81508l-0.19721,-2.423c-0.00587,-0.06389 -0.00887,-0.12856 -0.00887,-0.19389c0,-1.2219 1.04803,-2.21245 2.34083,-2.21245c0.6464,0 1.23161,0.24764 1.65521,0.64801v0l2.16567,2.58807c0.60789,0.50569 1.14112,1.0441 1.71989,1.71312c-0.0028,-0.41445 -0.0207,-0.83293 -0.0899,-1.24161l-0.21346,-1.60698c0,0 -0.29032,-2.19537 2.03244,-2.46976z"/><path d="M214.14232,147.7206c2.4807,-0.29223 2.79076,2.04581 2.79076,2.04581l0.20844,1.57931c0.48152,3.05075 0.32948,4.06076 0.11901,6.65654c-0.21047,2.59578 -2.12002,4.07916 -3.24461,4.07916c-0.88154,0 -1.65651,-0.43003 -2.10164,-1.07964l-1.70294,-2.40754c-0.44364,-0.57396 -0.88005,-1.0689 -1.27385,-1.53566c-0.07442,0.98285 -0.17374,1.96402 -0.29465,2.94191c0,0 -0.2921,2.34008 -2.77498,2.06479c-2.48288,-0.2753 -2.19078,-2.61539 -2.19078,-2.61539c0.25904,-2.05408 0.42174,-4.12441 0.42117,-6.19296l-0.21062,-2.58047c-0.00627,-0.06805 -0.00947,-0.13692 -0.00947,-0.20649c0,-1.30131 1.11929,-2.35622 2.5,-2.35622c0.69036,0 1.31535,0.26373 1.76776,0.69012v0l2.31292,2.75626c0.64922,0.53856 1.21872,1.11195 1.83684,1.82444c-0.00299,-0.44137 -0.02211,-0.88705 -0.09602,-1.32229l-0.22797,-1.71141c0,0 -0.31007,-2.33803 2.17064,-2.63026z"/><path d="M163.8234,157.20906c2.12623,-0.89157 3.18935,0.89157 3.18935,0.89157c0,0 0.55884,0.72059 1.01642,0.29028c0.63227,-0.59457 -1.4275,-1.06347 -2.2357,-1.48213c-0.85816,-0.44456 -1.95333,-0.65774 -2.58789,-1.3153c-2.74867,-2.84832 -2.86731,-4.78229 1.25488,-7.19983c0.98888,-0.57995 2.4076,-0.14031 3.6114,-0.21047c0,0 2.37721,0 2.37721,1.99361c0,1.99361 -2.37721,1.9936 -2.37721,1.9936c-5.39848,-0.76505 3.72333,3.42278 4.04668,4.07599c1.89249,3.82301 -0.58026,5.69667 -4.73855,6.07456c-1.09894,0.09986 -2.07425,-0.64138 -3.11137,-0.96207l-1.50834,-1.4751c0,0 -1.06312,-1.78313 1.06312,-2.6747z"/><path d="M125.08488,151.7838c0.2548,1.27376 0.52834,2.54604 0.53321,3.83577c0.00198,0.52328 2.5751,-0.69687 2.77167,-1.02618c1.23741,-2.07307 -1.86172,-2.96303 -3.30488,-2.80958zM122.14637,148.18764l2.42788,-0.9272c1.19463,-0.03058 2.45024,-0.4363 3.58388,-0.09175c6.00046,1.8237 6.60127,8.29826 2.42746,11.81653c-2.63374,2.22008 -5.30185,4.35896 -9.12917,1.16334c-1.11205,-0.92851 -0.56222,-2.70007 -0.81118,-4.05523c-0.18998,-1.03411 -0.66813,-4.37079 -0.8088,-5.33156c0,0 -0.33042,-2.25688 2.14766,-2.55779c0.05515,-0.0067 0.10924,-0.01213 0.16228,-0.01635z"/><path d="M102.35083,158.81191c1.31863,1.65878 -0.65933,2.76463 -0.65933,2.76463c0,0 -1.03775,0.47237 -2.4137,0.77326c-1.62458,0.35525 -3.72063,0.50583 -5.13673,-0.14621c-6.25275,-2.8791 -7.1278,-11.54266 0.34838,-13.78385c3.35328,-1.00523 8.11516,0.02921 8.5791,3.7373c0.4101,3.27777 -5.2329,4.5008 -8.28269,5.01866c0.80689,1.15708 3.90663,1.10646 4.26839,1.08327c0.36176,-0.02319 1.97795,-1.10585 3.29658,0.55293zM94.33994,153.22371c1.38536,-0.19807 3.1107,-0.50271 3.9743,-1.03898c0.14317,-0.0889 -0.34924,-0.07235 -0.52738,-0.07255c-0.57523,-0.00065 -1.19779,-0.12546 -1.7237,0.07001c-0.61183,0.22741 -1.26796,0.58029 -1.72322,1.04153z"/><path d="M224.57871,151.5786c0.1226,1.44974 0.26513,2.90009 0.12256,4.33736c-0.05784,0.58313 2.79322,-0.4645 3.03807,-0.80753c1.54129,-2.15945 -1.62238,-3.52603 -3.16063,-3.52981zM221.89421,147.21693l2.66447,-0.7389c1.26229,0.11057 2.63182,-0.18936 3.78689,0.3317c6.11389,2.75796 6.00548,10.04294 1.20457,13.45674c-3.02946,2.15417 -6.08582,4.21371 -9.75274,0.19063c-1.06544,-1.16894 -0.2832,-3.07577 -0.39033,-4.61548c-0.08175,-1.17494 -0.20346,-4.94967 -0.24165,-6.03693c0,0 -0.0897,-2.55402 2.55594,-2.5892c0.05888,-0.00079 0.1165,-0.00028 0.17287,0.00143z"/></g><text transform="translate(17.74787,239.51522) scale(0.56313,0.56313)" font-size="40" xml:space="preserve" fill="#ffffff" fill-rule="nonzero" stroke="none" stroke-width="1" stroke-linecap="butt" stroke-linejoin="miter" stroke-miterlimit="10" stroke-dasharray="" stroke-dashoffset="0" font-family="Sans Serif" font-weight="normal" text-anchor="start" style="mix-blend-mode: normal"><tspan x="0" dy="0">Sinner Edition</tspan></text><text transform="translate(14.22716,280.20795) scale(0.58571,0.58571)" font-size="40" xml:space="preserve" fill="#ffffff" fill-rule="nonzero" stroke="none" stroke-width="1" stroke-linecap="butt" stroke-linejoin="miter" stroke-miterlimit="10" stroke-dasharray="" stroke-dashoffset="0" font-family="Handwriting" font-weight="normal" text-anchor="start" style="mix-blend-mode: normal"><tspan x="0" dy="0">Void B4 Replace</tspan></text><path d="M466.20723,292.55553l-454.14356,-0.00002" fill="#ffffff" fill-rule="evenodd" stroke="#808080" stroke-width="0.8" stroke-linecap="round" stroke-linejoin="round"/><text transform="translate(13.08911,349.46923) scale(0.5,0.5)" font-size="40" xml:space="preserve" fill="#330000" fill-rule="nonzero" stroke="#330000" stroke-width="2" stroke-linecap="butt" stroke-linejoin="miter" stroke-miterlimit="10" stroke-dasharray="" stroke-dashoffset="0" font-family="Sans Serif" font-weight="normal" text-anchor="start" style="mix-blend-mode: normal"><tspan x="0" dy="0">sprunki modded 1.5</tspan></text><text transform="translate(14.22716,317.20796) scale(0.58571,0.58571)" font-size="40" xml:space="preserve" fill="#ffffff" fill-rule="nonzero" stroke="none" stroke-width="1" stroke-linecap="butt" stroke-linejoin="miter" stroke-miterlimit="10" stroke-dasharray="" stroke-dashoffset="0" font-family="Handwriting" font-weight="normal" text-anchor="start" style="mix-blend-mode: normal"><tspan x="0" dy="0">Old Mr Sun Sound</tspan></text><path d="M466.20723,329.55555l-454.14356,-0.00002" fill="#ffffff" fill-rule="evenodd" stroke="#808080" stroke-width="0.8" stroke-linecap="round" stroke-linejoin="round"/></g></g></svg>