<svg version="1.1" xmlns="http://www.w3.org/2000/svg" xmlns:xlink="http://www.w3.org/1999/xlink" width="189.62542" height="294.54958" viewBox="0,0,189.62542,294.54958"><defs><linearGradient x1="237.43673" y1="175.07974" x2="239.61785" y2="307.06172" gradientUnits="userSpaceOnUse" id="color-1"><stop offset="0" stop-color="#12201e"/><stop offset="1" stop-color="#345756"/></linearGradient><linearGradient x1="238.20397" y1="195.67037" x2="238.74479" y2="228.39626" gradientUnits="userSpaceOnUse" id="color-2"><stop offset="0" stop-color="#203535"/><stop offset="1" stop-color="#274746"/></linearGradient><linearGradient x1="237.15744" y1="184.01698" x2="237.53838" y2="207.0674" gradientUnits="userSpaceOnUse" id="color-3"><stop offset="0" stop-color="#203535"/><stop offset="1" stop-color="#274746"/></linearGradient><linearGradient x1="330.40599" y1="75.67031" x2="327.71768" y2="119.60633" gradientUnits="userSpaceOnUse" id="color-4"><stop offset="0" stop-color="#1d1c17"/><stop offset="1" stop-color="#616051"/></linearGradient><linearGradient x1="316.91913" y1="57.73558" x2="312.00675" y2="138.02059" gradientUnits="userSpaceOnUse" id="color-5"><stop offset="0" stop-color="#0e1411"/><stop offset="1" stop-color="#244343"/></linearGradient><radialGradient cx="231.82396" cy="164.93144" r="71.31655" gradientUnits="userSpaceOnUse" id="color-6"><stop offset="0" stop-color="#000000"/><stop offset="1" stop-color="#345756"/></radialGradient><linearGradient x1="239.74221" y1="70.88611" x2="232.37705" y2="191.25767" gradientUnits="userSpaceOnUse" id="color-7"><stop offset="0" stop-color="#0f1b1b"/><stop offset="1" stop-color="#345756"/></linearGradient><linearGradient x1="210.32733" y1="106.15265" x2="207.45928" y2="153.0263" gradientUnits="userSpaceOnUse" id="color-8"><stop offset="0" stop-color="#784752"/><stop offset="1" stop-color="#4c1e20"/></linearGradient><linearGradient x1="264.48444" y1="109.46634" x2="261.61639" y2="156.33998" gradientUnits="userSpaceOnUse" id="color-9"><stop offset="0" stop-color="#190505"/><stop offset="1" stop-color="#000000"/></linearGradient><linearGradient x1="234.57164" y1="76.41138" x2="232.61943" y2="108.31722" gradientUnits="userSpaceOnUse" id="color-10"><stop offset="0" stop-color="#141e20"/><stop offset="1" stop-color="#0e1717"/></linearGradient><linearGradient x1="282.21057" y1="51.91644" x2="281.20483" y2="68.35378" gradientUnits="userSpaceOnUse" id="color-11"><stop offset="0" stop-color="#3b5456"/><stop offset="1" stop-color="#253e3d"/></linearGradient><linearGradient x1="334.22495" y1="18.60684" x2="333.52327" y2="30.07476" gradientUnits="userSpaceOnUse" id="color-12"><stop offset="0" stop-color="#3b5456"/><stop offset="1" stop-color="#253e3d"/></linearGradient><linearGradient x1="276.46849" y1="62.6724" x2="275.91883" y2="71.65561" gradientUnits="userSpaceOnUse" id="color-13"><stop offset="0" stop-color="#3b5456"/><stop offset="1" stop-color="#253e3d"/></linearGradient><linearGradient x1="341.7412" y1="77.62138" x2="341.20325" y2="86.41345" gradientUnits="userSpaceOnUse" id="color-14"><stop offset="0" stop-color="#3b5456"/><stop offset="1" stop-color="#253e3d"/></linearGradient><linearGradient x1="306.29261" y1="27.06569" x2="301.58762" y2="103.96111" gradientUnits="userSpaceOnUse" id="color-15"><stop offset="0" stop-color="#404135"/><stop offset="1" stop-color="#1b1816"/></linearGradient><radialGradient cx="220.62087" cy="188.00376" r="2.15987" gradientUnits="userSpaceOnUse" id="color-16"><stop offset="0" stop-color="#000000"/><stop offset="1" stop-color="#350604"/></radialGradient><radialGradient cx="241.90032" cy="189.81981" r="4.21522" gradientUnits="userSpaceOnUse" id="color-17"><stop offset="0" stop-color="#000000"/><stop offset="1" stop-color="#350604"/></radialGradient><radialGradient cx="203.27082" cy="169.22603" r="16.49954" gradientUnits="userSpaceOnUse" id="color-18"><stop offset="0" stop-color="#000000"/><stop offset="1" stop-color="#350604"/></radialGradient><linearGradient x1="240.98686" y1="124.03953" x2="240.35378" y2="134.38625" gradientUnits="userSpaceOnUse" id="color-19"><stop offset="0" stop-color="#3b5456"/><stop offset="1" stop-color="#253e3d"/></linearGradient><linearGradient x1="269.41872" y1="100.17836" x2="263.98221" y2="156.96571" gradientUnits="userSpaceOnUse" id="color-20"><stop offset="0" stop-color="#1b1816"/><stop offset="1" stop-color="#404135"/></linearGradient><linearGradient x1="283.13227" y1="125.79526" x2="281.88684" y2="146.14987" gradientUnits="userSpaceOnUse" id="color-21"><stop offset="0" stop-color="#3b5456"/><stop offset="1" stop-color="#253e3d"/></linearGradient><linearGradient x1="273.79974" y1="129.18046" x2="272.79659" y2="145.57517" gradientUnits="userSpaceOnUse" id="color-22"><stop offset="0" stop-color="#3b5456"/><stop offset="1" stop-color="#253e3d"/></linearGradient><linearGradient x1="201.28829" y1="33.5767" x2="200.58661" y2="45.04462" gradientUnits="userSpaceOnUse" id="color-23"><stop offset="0" stop-color="#3b5456"/><stop offset="1" stop-color="#253e3d"/></linearGradient><linearGradient x1="191.70067" y1="49.16945" x2="307.07761" y2="56.229" gradientUnits="userSpaceOnUse" id="color-24"><stop offset="0" stop-color="#213331"/><stop offset="1" stop-color="#172322"/></linearGradient><linearGradient x1="214.18276" y1="60.27793" x2="292.98276" y2="65.09946" gradientUnits="userSpaceOnUse" id="color-25"><stop offset="0" stop-color="#213331"/><stop offset="1" stop-color="#121b1b"/></linearGradient><linearGradient x1="189.86027" y1="39.4955" x2="186.37112" y2="96.51996" gradientUnits="userSpaceOnUse" id="color-26"><stop offset="0" stop-color="#404135"/><stop offset="1" stop-color="#1b1816"/></linearGradient></defs><g transform="translate(-160.47515,-19.06293)"><g data-paper-data="{&quot;isPaintingLayer&quot;:true}" fill-rule="nonzero" stroke-linejoin="miter" stroke-miterlimit="10" stroke-dasharray="" stroke-dashoffset="0" style="mix-blend-mode: normal"><path d="M178.409,313.61251v-267.22501h123.18203v267.22501z" fill-opacity="0.01" fill="#000000" stroke="none" stroke-width="0" stroke-linecap="butt"/><g stroke="#000000" stroke-width="0"><path d="M206.3724,307.61113l12.96227,-132.07432l37.77548,-0.78219l15.75316,131.75769z" fill="url(#color-1)" stroke-linecap="butt"/><g stroke-linecap="round"><path d="M260.25836,195.3059l7.00605,27.77999l-29.23106,5.32213l-27.9681,-4.37686l4.47562,-21.99207z" fill="url(#color-2)"/><path d="M264.04959,183.57257l1.98961,17.04616l-28.92767,6.45572l-25.98079,-4.69435l-2.67637,-24.1539z" fill="url(#color-3)"/></g></g><g><path d="M331.87595,75.76025l9.75018,9.44947l3.03676,3.95647l-0.15616,13.26979l-4.77283,11.01999l-11.19957,6.20032l-11.17675,-7.56945l-4.12042,-13.03962l2.67952,-11.63989l5.01299,-6.90674z" fill="url(#color-4)" stroke="#000000" stroke-width="0" stroke-linecap="round"/><path d="M292.30751,48.3052c0,0 7.03281,8.98224 8.88353,5.9923c5.0285,-8.12386 4.4186,-23.11606 4.4186,-23.11606l6.03987,-0.45029c0,0 -3.0986,26.56285 -6.34717,29.96735c-3.24858,3.40451 -16.02829,-3.01385 -16.02829,-3.01385z" fill="#101b1b" stroke="#000000" stroke-width="0" stroke-linecap="round"/><path d="M300.03788,83.54807c0,0 11.17226,48.57365 16.42869,44.83772c5.40451,-3.84119 15.56645,-67.57781 15.56645,-67.57781l7.0847,-1.71415c0,0 -12.76678,79.07541 -22.89558,79.17878c-8.92948,0.09113 -23.33441,-51.94059 -23.33441,-51.94059z" fill="url(#color-5)" stroke="#000000" stroke-width="0" stroke-linecap="round"/><path d="M294.13255,152.78768l8.72851,18.89077l-25.07525,-0.96944l14.80917,16.43872l-59.13131,-12.09038l-65.73973,3.60269l14.452,-14.64831l-21.68174,-1.04423l13.37231,-20.08019z" fill="url(#color-6)" stroke="#000000" stroke-width="0" stroke-linecap="round"/><path d="M171.94252,127.14877c2.03383,-33.23969 32.38879,-58.42934 67.79969,-56.26265c35.4109,2.16668 62.46836,30.86922 60.43453,64.1089c-2.03383,33.23969 -32.38878,58.42934 -67.79968,56.26266c-35.4109,-2.16668 -62.46836,-30.86922 -60.43453,-64.10889z" fill="url(#color-7)" stroke="#000000" stroke-width="0" stroke-linecap="butt"/><path d="M185.45648,128.15545c0.792,-12.94379 11.92705,-22.79479 24.87085,-22.0028c12.94379,0.792 22.79479,11.92705 22.0028,24.87085c-0.792,12.94379 -11.92705,22.79479 -24.87085,22.0028c-12.94379,-0.792 -22.79479,-11.92705 -22.0028,-24.87085z" fill="url(#color-8)" stroke="#000000" stroke-width="0" stroke-linecap="butt"/><path d="M193.42675,113.58252c0.21421,-3.50096 2.67771,-3.78129 4.69552,-4.97169c3.23342,-1.90756 7.17051,-3.34591 12.78058,-3.00265c5.41957,0.33161 8.26354,2.18745 11.03266,4.25257c1.88615,1.40662 4.71107,2.04912 4.48521,5.74057c-0.55747,9.11105 -8.39535,16.04506 -17.50638,15.48759c-9.11104,-0.55747 -16.04505,-8.39534 -15.48758,-17.50638z" fill="#000000" stroke="none" stroke-width="0" stroke-linecap="butt"/><path d="M261.61639,156.33998c-12.94379,-0.792 -22.79479,-11.92705 -22.00279,-24.87084c0.792,-12.94379 11.92705,-22.79479 24.87084,-22.00279c12.94379,0.792 22.79479,11.92704 22.0028,24.87085c-0.792,12.94379 -11.92705,22.79479 -24.87085,22.0028z" data-paper-data="{&quot;index&quot;:null}" fill="url(#color-9)" stroke="#000000" stroke-width="0" stroke-linecap="butt"/><path d="M247.95168,78.78468l-12.69924,29.69364l-2.71915,-21.62021l-12.3083,2.978l7.37694,-13.85118" fill="url(#color-10)" stroke="#000000" stroke-width="0" stroke-linecap="round"/><path d="M277.60238,62.95347l-0.83906,-11.37033l9.01463,6.307l-0.84605,10.6917z" fill="url(#color-11)" stroke="#000000" stroke-width="0" stroke-linecap="round"/><path d="M326.06912,29.61866l6.09248,-8.64406l9.5175,-1.91167l-6.22112,10.74649z" fill="url(#color-12)" stroke="#000000" stroke-width="0" stroke-linecap="round"/><path d="M285.28506,67.70834l-8.79283,3.98235l-8.66743,-5.71021l9.79049,-3.23791z" fill="url(#color-13)" stroke="#000000" stroke-width="0" stroke-linecap="round"/><path d="M343.83196,77.94116l6.26861,7.29006l-9.66185,1.13544l-7.48958,-9.28325z" fill="url(#color-14)" stroke="#000000" stroke-width="0" stroke-linecap="round"/><path d="M300.05608,78.46646l-13.29445,-10.08789l4.94386,-21.85315l3.95542,19.5638l18.63185,7.06537l12.88518,-8.48605l-1.06393,-16.2954l-11.69703,-15.14262l-9.3969,2.00127l4.8658,-7.94624l15.81887,2.51365l14.83583,18.58l-1.0836,17.70973l-6.81949,10.40294l-51.32624,26.22861l-10.11487,-7.31711l-3.88182,-12.34584z" fill="url(#color-15)" stroke="#000000" stroke-width="0" stroke-linecap="round"/><g stroke="#000000" stroke-width="0" stroke-linecap="round"><path d="M213.23903,179.69087c0,0 3.40494,-12.88933 20.35695,-11.28438c19.29628,1.8269 18.28451,16.7868 18.28451,16.7868c0,0 -4.96442,4.09321 -19.84555,3.19583c-20.79336,-1.25391 -18.79591,-8.69824 -18.79591,-8.69824z" fill="#000000"/><path d="M216.10016,181.51756c0,0 2.28265,1.80324 4.06497,2.38546c4.63592,1.51438 8.6391,2.00134 12.49946,2.27914c3.63425,0.26154 7.11975,0.3927 11.5797,-0.69782c1.73741,-0.42483 5.7422,-1.72822 5.7422,-1.72822l0.02359,2.3137c0,0 -3.94741,1.20547 -5.84382,1.58697c-4.99937,1.00572 -9.0476,0.59894 -13.09358,0.2774c-3.91323,-0.311 -7.82766,-0.48916 -12.41001,-2.31361c-1.66718,-0.66379 -2.96207,-2.97134 -2.96207,-2.97134l0.39956,-1.13169z" fill="#9d9d9d"/></g><path d="M220.14388,186.30487c1.24535,-0.28171 2.54233,2.50241 2.05374,3.36225c-0.52411,0.92234 -2.37646,0.46699 -2.97445,-0.153c-0.76936,-0.79765 -0.13168,-2.33201 -0.07766,-3.26361c0,0 0.03054,-0.49907 0.52961,-0.46853c0.46489,0.02844 0.47022,0.46345 0.46877,0.5229z" fill="url(#color-16)" stroke="none" stroke-width="0.5" stroke-linecap="butt"/><path d="M239.88249,189.07168l0.75918,-0.0276c1.08235,2.5477 2.44215,0.7485 3.26403,-0.8348l0.02898,-0.47383c0.01686,-0.27562 0.25398,-0.48539 0.5296,-0.46852c0.19923,0.01219 0.36405,0.13945 0.43375,0.31315l0.19792,0.46485l-0.02582,0.01098l0.04775,0.05181c0.21416,1.48698 1.74037,2.20154 0.44563,3.3094c-2.04123,0.21314 -3.73121,1.08378 -5.92004,0.94986c-0.66072,-0.04043 -1.95969,0.12476 -2.06079,-0.93834c-0.04995,-0.52514 1.26122,-1.67645 1.30773,-2.4989c0,0 0.03053,-0.49907 0.5296,-0.46852c0.49907,0.03054 0.46853,0.5296 0.46853,0.5296c-0.00169,0.02595 -0.0037,0.05294 -0.00606,0.08088z" fill="url(#color-17)" stroke="none" stroke-width="0.5" stroke-linecap="butt"/><path d="M206.93409,149.72072c1.68348,0.41911 2.51126,3.70793 1.23907,4.92663c-0.6265,0.60016 -1.73393,0.76566 -2.51153,1.08272c-0.62811,-0.02577 -1.2512,-0.0639 -1.87777,-0.11489l-0.47969,-0.26609c-0.51205,0.10287 -1.11385,0.07367 -1.7857,-0.13865c-2.47418,-0.17384 -3.72226,-4.00116 -1.88429,-5.77763c1.299,-1.25553 3.31654,-0.09023 4.13107,1.23609c0.83496,-0.73936 2.03906,-1.22946 3.16883,-0.94819z" fill="#350604" stroke="none" stroke-width="0.5" stroke-linecap="butt"/><path d="M204.59536,181.7145c-0.1092,-0.33408 -0.35499,-0.72501 -0.33544,-1.04907c0.11603,-1.92328 0.23535,-3.84637 0.35301,-5.76956c0.4163,-6.80379 1.24318,-13.55716 1.65609,-20.3056c0,0 0.06107,-0.99813 1.0592,-0.93706c0.99813,0.06108 0.93706,1.0592 0.93706,1.0592c-0.41292,6.74856 -1.23971,13.50056 -1.65608,20.3056c-0.13867,2.26631 -0.22102,4.54439 -0.4184,6.80638c-0.00748,0.08574 0.00655,0.29466 0.01181,0.54502c1.50895,0.72385 2.65321,1.74951 1.01244,3.27533c-1.07145,0.99638 -2.92872,-0.66884 -3.66426,-2.00412c-0.14973,-0.08108 -0.29565,-0.16371 -0.43557,-0.24376c-1.02124,0.22866 -2.72117,-0.49032 -3.87318,-1.529c-0.71973,-0.64893 -0.46983,-3.92216 -0.70503,-5.15399c-0.80869,-4.34853 -0.90643,-8.16665 -0.61929,-12.61837c0.765,-2.89309 1.39394,-6.16224 1.65031,-9.16255c-0.25546,-0.28719 -0.00503,-0.61722 -0.00503,-0.61722l0.05778,-0.07475c0.00434,-0.06503 0.00849,-0.1299 0.01245,-0.19461c0,0 0.02714,-0.4435 0.44833,-0.46876c1.94163,-2.73552 4.02358,0.83494 3.26097,3.29914c-0.97299,3.00139 -1.41692,8.51071 -0.83793,11.62412c-0.13962,2.53678 -0.05557,5.34639 0.3419,7.84682c0.22447,1.41215 0.83872,2.72143 0.70633,4.1594c0.14916,0.35032 0.25664,0.66456 0.32716,0.94516c0.21508,0.08099 0.45787,0.16806 0.71533,0.26227z" fill="url(#color-18)" stroke="none" stroke-width="0.5" stroke-linecap="butt"/><g stroke="#000000" stroke-width="0" stroke-linecap="round"><path d="M250.78571,126.1672l-7.14995,8.41986l-13.05281,-2.78648l10.42449,-7.75979z" fill="url(#color-19)"/><path d="M261.55525,154.35379l-8.75255,-12.14085l-2.72394,-17.11601l12.64243,-20.20574l15.04862,-3.91334l7.79093,7.68624l-0.30937,1.16017l-9.98367,-1.35238l-9.31875,16.55799l1.63902,16.02067l15.12527,6.40922c0,0 -3.64516,2.96199 -7.85089,6.25492c-2.48418,1.94502 -9.01341,3.42973 -9.01341,3.42973z" fill="url(#color-20)"/><path d="M277.58528,135.43674l8.32457,-9.47153l1.3711,13.04168l-9.31258,7.25279z" fill="url(#color-21)"/><path d="M278.23283,145.9078l-8.27364,-4.79156l-1.59567,-12.26841l9.3961,6.43915z" fill="url(#color-22)"/></g><path d="M193.94939,41.26417l8.95519,-10.30944l10.89597,0.62674l-6.12762,9.21842z" fill="url(#color-23)" stroke="#000000" stroke-width="0" stroke-linecap="round"/><path d="M308.37687,34.99473c0,0 -22.89528,15.91286 -47.31544,25.46597c-10.5748,4.13684 -21.53522,-1.7285 -30.29493,0.72112c-5.46291,1.52768 -10.9093,8.19276 -14.23527,9.19101c-10.49006,3.14847 -26.12982,0.03089 -26.12982,0.03089" fill="none" stroke="url(#color-24)" stroke-width="2.5" stroke-linecap="round"/><path d="M294.07924,47.17919c0,0 -6.02632,1.19934 -18.69418,6.91026c-2.66509,1.20148 -10.36676,8.48984 -14.00188,9.70484c-8.75927,2.9277 -19.71578,0.8638 -26.83813,3.7883c-4.19769,1.72361 -3.61513,3.94079 -9.8997,7.48299c-5.6957,3.21029 -11.55907,3.13259 -11.55907,3.13259" fill="none" stroke="url(#color-25)" stroke-width="2.5" stroke-linecap="round"/><path d="M160.88129,73.34168c0,0 -0.6638,-0.38824 -0.29414,-2.02624c0.70139,-3.10788 1.21073,-2.85909 1.21073,-2.85909l3.24432,0.81618l-0.66988,-2.51169l3.23178,1.02132l-0.48987,-2.0889l6.02389,-0.86676l-2.8886,-3.26513l18.59491,-4.42133l6.20748,-17.32689l2.96466,22.21183l-1.23899,3.42436l-11.59559,4.4378l29.54648,8.39639c0,0 1.02984,4.17658 -4.55506,13.32851c-2.02957,3.32584 -12.25179,5.61465 -12.25179,5.61465l-37.04035,-23.88503z" fill="url(#color-26)" stroke="#000000" stroke-width="0" stroke-linecap="round"/></g></g></g></svg>