<svg version="1.1" xmlns="http://www.w3.org/2000/svg" xmlns:xlink="http://www.w3.org/1999/xlink" width="164.693" height="264.65847" viewBox="0,0,164.693,264.65847"><g transform="translate(-150.28476,-42.67076)"><g data-paper-data="{&quot;isPaintingLayer&quot;:true}" fill-rule="nonzero" stroke-linejoin="miter" stroke-miterlimit="10" stroke-dasharray="" stroke-dashoffset="0" style="mix-blend-mode: normal"><path d="M304.28728,139.34632c4.52828,25.04656 -1.87135,35.60927 -1.87135,35.60927c0,0 -13.25217,-20.78821 -21.51016,-31.55989c-8.53734,-11.13607 -28.90371,-34.19976 -28.90371,-34.19976l30.85554,-18.54552c0,0 16.42003,20.98676 21.42968,48.69589z" data-paper-data="{&quot;index&quot;:null}" fill="#b3946b" stroke="#000000" stroke-width="2" stroke-linecap="butt"/><path d="M187.44382,95.81517l32.67712,15.1065c0,0 -17.75779,25.12733 -25.04317,37.1199c-7.047,11.60014 -17.97779,33.69737 -17.97779,33.69737c0,0 -7.50241,-9.81019 -5.7042,-35.19921c1.98936,-28.08799 16.04806,-50.72456 16.04806,-50.72456z" data-paper-data="{&quot;index&quot;:null}" fill="#b3946b" stroke="#000000" stroke-width="2" stroke-linecap="butt"/><path d="M292.94891,185.53834c-7.72204,24.25296 -18.32144,30.59161 -18.32144,30.59161c0,0 -1.9804,-24.57331 -4.23595,-37.95748c-2.33187,-13.83694 -9.53391,-43.75102 -9.53391,-43.75102l35.94737,-1.94583c0,0 4.68686,26.23157 -3.85607,53.06272z" data-paper-data="{&quot;index&quot;:null}" fill="#b3946b" stroke="#000000" stroke-width="2" stroke-linecap="butt"/><path d="M176.82371,138.97019l35.94737,-1.94583c0,0 -3.93093,30.51672 -4.75557,44.52451c-0.79765,13.54944 -0.11395,38.19294 -0.11395,38.19294c0,0 -11.22169,-5.15749 -21.51656,-28.43518c-11.38926,-25.75223 -9.56131,-52.33644 -9.56131,-52.33644z" fill="#b3946b" stroke="#000000" stroke-width="2" stroke-linecap="butt"/><path d="M205.83946,306.32923l15.14285,-131.8421l37.78325,-0.15789l13.57389,132z" fill="#e6be8a" stroke="#000000" stroke-width="2" stroke-linecap="butt"/><path d="M218.78969,202.94186l3.12142,-26.32765l35.83075,-0.14203l2.76735,26.1059c0,0 -7.51543,4.19603 -21.55904,4.50964c-12.48458,0.27879 -20.16049,-4.14586 -20.16049,-4.14586z" fill="#cca97a" stroke="#000000" stroke-width="0" stroke-linecap="butt"/><path d="M172.76135,139.00241c-1.79999,-33.25317 25.45869,-61.76468 60.88395,-63.68225c35.42526,-1.91757 65.6023,23.48496 67.40229,56.73812c1.79999,33.25317 -25.45869,61.76468 -60.88395,63.68225c-35.42526,1.91757 -65.6023,-23.48496 -67.40229,-56.73812z" fill="#e6be8a" stroke="#000000" stroke-width="2" stroke-linecap="butt"/><path d="M173.48626,139.01707c-0.03935,-0.72693 8.22154,55.55622 66.34518,53.42638c55.53471,-2.03497 60.28832,-61.30138 60.34339,-60.28402c1.77312,32.75684 -25.14969,60.84664 -60.13376,62.74032c-34.98407,1.89368 -64.78169,-23.12584 -66.55481,-55.88268z" fill="#cca97a" stroke="#000000" stroke-width="0" stroke-linecap="butt"/><path d="M186.31496,138.69886c-0.70093,-12.94904 9.22813,-24.01454 22.17718,-24.71547c12.94904,-0.70093 24.01454,9.22813 24.71547,22.17718c0.70093,12.94904 -9.22813,24.01454 -22.17718,24.71547c-12.94904,0.70093 -24.01454,-9.22813 -24.71547,-22.17718z" fill="#ffffff" stroke="#000000" stroke-width="2" stroke-linecap="butt"/><path d="M265.20956,157.94331c-12.94904,0.70093 -24.01454,-9.22813 -24.71547,-22.17718c-0.70093,-12.94904 9.22813,-24.01454 22.17718,-24.71547c12.94904,-0.70093 24.01454,9.22813 24.71547,22.17718c0.70093,12.94904 -9.22813,24.01454 -22.17718,24.71547z" data-paper-data="{&quot;index&quot;:null}" fill="#ffffff" stroke="#000000" stroke-width="2" stroke-linecap="butt"/><path d="M208.63259,141.03713c-0.35351,-6.53081 4.65417,-12.11163 11.18496,-12.46515c6.53081,-0.35351 12.11163,4.65417 12.46515,11.18497c0.35351,6.53081 -4.65417,12.11163 -11.18497,12.46515c-6.53081,0.35351 -12.11163,-4.65417 -12.46514,-11.18497z" fill="#000000" stroke="none" stroke-width="0" stroke-linecap="butt"/><path d="M275.00655,149.95038c-6.5308,0.35351 -12.11163,-4.65417 -12.46514,-11.18497c-0.35351,-6.53081 4.65417,-12.11163 11.18496,-12.46515c6.5308,-0.35351 12.11163,4.65417 12.46514,11.18497c0.35351,6.53081 -4.65417,12.11163 -11.18496,12.46515z" data-paper-data="{&quot;index&quot;:null}" fill="#000000" stroke="none" stroke-width="0" stroke-linecap="butt"/><path d="M197.37704,106.91608c0,0 6.41974,-5.52429 11.43601,-6.9919c5.01628,-1.46761 12.3539,0.03168 12.3539,0.03168c0,0 -8.02963,0.37427 -11.90353,1.50767c-4.04838,1.18444 -11.88638,5.45255 -11.88638,5.45255z" fill="#000000" stroke="none" stroke-width="0" stroke-linecap="butt"/><path d="M260.95852,98.66529c-3.97361,-0.70861 -11.99672,-0.21395 -11.99672,-0.21395c0,0 7.13291,-2.28258 12.2783,-1.36502c5.14538,0.91756 12.12392,5.7166 12.12392,5.7166c0,0 -8.25292,-3.39711 -12.4055,-4.13763z" data-paper-data="{&quot;index&quot;:null}" fill="#000000" stroke="none" stroke-width="0" stroke-linecap="butt"/><path d="M240.49367,135.75859c-0.70093,-12.94905 9.22812,-24.01454 22.17718,-24.71547c12.94905,-0.70093 24.01455,9.22812 24.71548,22.17718c0.03276,0.60517 -6.13192,-17.11186 -23.79913,-15.5294c-13.5566,0.2984 -20.68126,11.96821 -22.75869,16.40042c-0.48954,1.04444 -0.33485,1.66727 -0.33485,1.66727z" data-paper-data="{&quot;index&quot;:null}" fill="#e6be8a" stroke="#000000" stroke-width="2" stroke-linecap="butt"/><path d="M186.15861,138.69973c-0.70093,-12.94905 9.22812,-24.01454 22.17718,-24.71547c12.94905,-0.70093 24.01455,9.22812 24.71548,22.17718c0.03276,0.60517 -6.13192,-17.11186 -23.79913,-15.5294c-13.5566,0.2984 -20.68126,11.96821 -22.75869,16.40042c-0.48954,1.04444 -0.33485,1.66727 -0.33485,1.66727z" data-paper-data="{&quot;index&quot;:null}" fill="#e6be8a" stroke="#000000" stroke-width="2" stroke-linecap="butt"/><path d="M175.97165,103.65235c-3.13953,-29.20927 -1.44381,-52.94241 49.82789,-58.85476c58.40614,-6.73505 58.0576,17.71209 61.19713,46.92135c0,0 -110.89523,13.14094 -111.02502,11.93341z" fill="#804400" stroke="#000000" stroke-width="2" stroke-linecap="butt"/><path d="M151.88197,111.11307l3.48919,-8.08586l154.6451,-16.28662l3.4351,7.00635z" fill="#804400" stroke="#000000" stroke-width="2" stroke-linecap="butt"/><g fill="none" stroke="#987343" stroke-linecap="round"><g stroke-width="1.5"><g><path d="M184.64429,162.26212l-2.08506,-1.89046"/><path d="M192.44756,163.13858l-5.81623,-5.27338"/></g><g><path d="M283.05923,154.87166l2.08507,1.89046"/><path d="M292.94756,157.63858l-5.81623,-5.27338"/></g></g><g stroke-width="1"><g><path d="M185.55923,160.12166l2.08506,1.89046"/><path d="M195.44756,162.88858l-5.81623,-5.27338"/></g><g><path d="M286.05923,154.62166l2.08507,1.89046"/><path d="M290.13133,152.1152l5.81623,5.27338"/></g></g></g><path d="M233.11836,179.70878c5.88987,-3.29887 11.94206,-0.94594 11.94206,-0.94594" fill="none" stroke="#000000" stroke-width="2" stroke-linecap="round"/></g></g></svg>