<svg version="1.1" xmlns="http://www.w3.org/2000/svg" xmlns:xlink="http://www.w3.org/1999/xlink" width="193.26248" height="300.8396" viewBox="0,0,193.26248,300.8396"><defs><linearGradient x1="240" y1="86.02386" x2="240" y2="268.04847" gradientUnits="userSpaceOnUse" id="color-1"><stop offset="0" stop-color="#2ce9f9"/><stop offset="1" stop-color="#13c3fe"/></linearGradient><linearGradient x1="240.41338" y1="179.41021" x2="240.41338" y2="267.58193" gradientUnits="userSpaceOnUse" id="color-2"><stop offset="0" stop-color="#1f89a0"/><stop offset="1" stop-color="#0188ee"/></linearGradient><linearGradient x1="240.00004" y1="175.50001" x2="240.00004" y2="307.50001" gradientUnits="userSpaceOnUse" id="color-3"><stop offset="0" stop-color="#35e7f8"/><stop offset="1" stop-color="#00b3f8"/></linearGradient><linearGradient x1="240.07698" y1="73.58399" x2="240.07698" y2="194.18065" gradientUnits="userSpaceOnUse" id="color-4"><stop offset="0" stop-color="#2bebff"/><stop offset="1" stop-color="#20c6ff"/></linearGradient><linearGradient x1="182.76797" y1="128.63695" x2="182.76797" y2="174.46347" gradientUnits="userSpaceOnUse" id="color-5"><stop offset="0" stop-color="#26dffa"/><stop offset="1" stop-color="#1fd6fb"/></linearGradient><linearGradient x1="297.78381" y1="127.75434" x2="297.78381" y2="173.58085" gradientUnits="userSpaceOnUse" id="color-6"><stop offset="0" stop-color="#26dffa"/><stop offset="1" stop-color="#1fd6fb"/></linearGradient></defs><g transform="translate(-143.42804,-12.77291)"><g data-paper-data="{&quot;isPaintingLayer&quot;:true}" fill-rule="nonzero" stroke-linejoin="miter" stroke-miterlimit="10" stroke-dasharray="" stroke-dashoffset="0" style="mix-blend-mode: normal"><path d="M178.40899,313.61251v-267.22501h123.18203v267.22501z" fill-opacity="0.01" fill="#000000" stroke="none" stroke-width="0" stroke-linecap="butt"/><path d="M302.42136,116.0607l22.87988,23.28845l-19.61133,22.47131l-1.22571,67.00536l29.00842,13.07422l-21.65417,4.49426l12.66565,21.65417h-168.85238l13.35304,-21.18123l-22.45738,-6.06956l27.91998,-11.53216v-64.94431l-20.02956,-24.27824l22.45738,-22.45738l71.01387,-31.56172z" fill="url(#color-1)" stroke="#000000" stroke-width="2" stroke-linecap="round"/><path d="M277.68598,179.41021l-2.40468,88.17172l-72.14051,-0.80156l3.20624,-80.95768z" fill="url(#color-2)" stroke="#000000" stroke-width="0" stroke-linecap="round"/><path d="M231.54125,74.91329l13.98193,-47.4289l19.7392,-12.61115l35.36605,9.8696l-4.66064,16.17517l-33.99527,-8.77298l-12.06285,47.70305z" fill="#fffeff" stroke="#000000" stroke-width="0" stroke-linecap="round"/><path d="M238.39515,52.98085l17.27179,6.03142l-3.28987,10.14376l-16.72348,-7.67636z" fill="#fb9ee8" stroke="#000000" stroke-width="0" stroke-linecap="round"/><path d="M243.32995,35.70906l16.17517,4.66065l-1.91909,6.30557l-15.90102,-4.38649z" fill="#fb9ee8" stroke="#000000" stroke-width="0" stroke-linecap="round"/><path d="M280.61508,18.20998l-5.48311,16.17517l-7.4022,-3.01571l5.47778,-15.34738z" fill="#fb9ee8" stroke="#000000" stroke-width="0" stroke-linecap="round"/><path d="M294.87117,21.77401l-5.48311,16.17517l-7.12804,-2.4674l4.66064,-14.8044z" fill="#fb9ee8" stroke="#000000" stroke-width="0" stroke-linecap="round"/><path d="M266.08484,14.87324l-4.11233,17.54595l-15.631,-5.48173z" fill="#efdce8" stroke="#000000" stroke-width="2" stroke-linecap="round"/><path d="M231.54125,74.91329l13.98193,-47.4289l19.7392,-12.61115l35.36605,9.8696l-4.66064,16.17517l-33.99527,-8.77298l-12.06285,47.70305z" fill="none" stroke="#000000" stroke-width="2" stroke-linecap="round"/><g fill="#05fdfb" stroke="#14b4d2" stroke-width="2" stroke-linecap="round"><path d="M203.03906,192.22883v15.67398h-16.79355v-15.45006z"/><path d="M197.88904,203.20063l4.47828,4.47828h-16.34573l-4.25436,-4.47828z"/><path d="M203.03906,208.12673l-4.47828,-4.25437v-16.34573l4.47828,4.47828z" data-paper-data="{&quot;index&quot;:null}"/><path d="M198.11295,187.30273v15.67398h-16.79355v-15.45007z"/></g><g data-paper-data="{&quot;index&quot;:null}" fill="#05fdfb" stroke="#14b4d2" stroke-width="2" stroke-linecap="round"><path d="M210.9112,226.09551l-1.36493,15.38966l-16.72789,-1.48362l1.38472,-15.6127z"/><path d="M214.42245,237.19699l-4.63336,4.08492l-16.28181,-1.44405l4.8564,-4.06514z"/><path d="M194.22287,224.16581l4.8564,-4.06514l-1.44406,16.28181l-4.83662,3.8421z" data-paper-data="{&quot;index&quot;:null}"/><path d="M216.25324,221.62386l-1.36494,15.38966l-16.72788,-1.48362l1.38472,-15.6127z"/></g><g data-paper-data="{&quot;index&quot;:null}" fill="#05fdfb" stroke="#14b4d2" stroke-width="2" stroke-linecap="round"><path d="M290.2626,185.66978l8.16806,13.1144l-14.25477,8.87832l-8.28644,-13.30445z"/><path d="M299.74601,192.42528l-1.24366,6.05045l-13.87465,8.64157l1.43372,-6.16883z"/><path d="M275.77107,194.16797l1.43372,-6.16882l8.64157,13.87465l-1.5521,5.97876z" data-paper-data="{&quot;index&quot;:null}"/><path d="M291.8397,178.88407l8.16805,13.1144l-14.25477,8.87833l-8.28643,-13.30446z"/></g><g data-paper-data="{&quot;index&quot;:null}" fill="#05fdfb" stroke="#14b4d2" stroke-width="2" stroke-linecap="round"><path d="M275.09439,234.91544l-10.49329,-11.34l12.32608,-11.40575l10.64537,11.50434z"/><path d="M264.50775,230.06828l0.08107,-6.17641l11.99738,-11.1016l-0.24542,6.32849z"/><path d="M287.72461,223.83838l-0.24542,6.32849l-11.10161,-11.99739l0.39751,-6.16413z" data-paper-data="{&quot;index&quot;:null}"/><path d="M274.82443,241.87677l-10.49329,-11.33999l12.32608,-11.40574l10.64537,11.50433z"/></g><path d="M206.75005,307.5l15.14285,-131.8421l37.78325,-0.15789l13.57389,132z" fill="url(#color-3)" stroke="#000000" stroke-width="2" stroke-linecap="butt"/><path d="M219.70028,204.11263l3.12142,-26.32765l35.83075,-0.14203l2.76735,26.1059c0,0 -7.51543,4.19603 -21.55904,4.50964c-12.48458,0.27879 -20.16049,-4.14586 -20.16049,-4.14586z" fill="#2a9eba" stroke="#000000" stroke-width="0" stroke-linecap="butt"/><path d="M175.83996,133.88232c0,-33.30185 28.7599,-60.29833 64.23702,-60.29833c35.47712,0 64.23702,26.99649 64.23702,60.29833c0,33.30185 -28.7599,60.29833 -64.23702,60.29833c-35.47712,0 -64.23702,-26.99649 -64.23702,-60.29833z" fill="url(#color-4)" stroke="#000000" stroke-width="2" stroke-linecap="butt"/><path d="M176.56302,133.93616c0,-0.72799 5.20666,55.91939 63.36046,56.93429c55.56352,0.9697 63.51358,-57.95314 63.51358,-56.93429c0,32.80479 -28.40173,59.39833 -63.43702,59.39833c-35.03529,0 -63.43702,-26.59354 -63.43702,-59.39833z" fill="#2a9eba" stroke="#000000" stroke-width="0" stroke-linecap="butt"/><path d="M189.39017,134.31179c0,-12.968 10.51265,-23.48065 23.48065,-23.48065c12.968,0 23.48065,10.51265 23.48065,23.48065c0,12.968 -10.51265,23.48065 -23.48065,23.48065c-12.968,0 -23.48065,-10.51265 -23.48065,-23.48065z" fill="#ffffff" stroke="#000000" stroke-width="2" stroke-linecap="butt"/><path d="M267.12926,157.79243c-12.968,0 -23.48065,-10.51265 -23.48065,-23.48065c0,-12.968 10.51265,-23.48065 23.48065,-23.48065c12.968,0 23.48065,10.51265 23.48065,23.48065c0,12.968 -10.51265,23.48065 -23.48065,23.48065z" data-paper-data="{&quot;index&quot;:null}" fill="#ffffff" stroke="#000000" stroke-width="2" stroke-linecap="butt"/><path d="M202.02784,105.50332c0,0 6.70895,-5.16922 11.79721,-6.36355c5.08827,-1.19433 12.33413,0.69937 12.33413,0.69937c0,0 -8.03812,-0.06028 -11.96762,0.86207c-4.10648,0.96389 -12.16372,4.80211 -12.16372,4.80211z" fill="#000000" stroke="none" stroke-width="0" stroke-linecap="butt"/><path d="M265.96236,100.70122c-3.9295,-0.92235 -11.96762,-0.86207 -11.96762,-0.86207c0,0 7.24586,-1.8937 12.33413,-0.69937c5.08826,1.19433 11.79721,6.36355 11.79721,6.36355c0,0 -8.05724,-3.83822 -12.16372,-4.80211z" data-paper-data="{&quot;index&quot;:null}" fill="#000000" stroke="none" stroke-width="0" stroke-linecap="butt"/><path d="M214.94204,114.71664c10.81745,0 19.58673,8.76929 19.58673,19.58673c0,10.81745 -8.76928,19.58674 -19.58673,19.58674c-10.25083,0 -18.66242,-7.87466 -19.5155,-17.90468c2.51935,0.17219 5.02652,0.16734 7.57188,0.16667c0.95852,5.58301 5.82282,9.83129 11.67937,9.83129c6.54498,0 11.85075,-5.30576 11.85075,-11.85075c0,-6.54498 -5.30577,-11.85075 -11.85075,-11.85075c-6.22754,0 -11.33316,4.80356 -11.81377,10.90761c-2.50949,0.00131 -4.9811,0.00751 -7.46695,-0.17523c0.66378,-10.21654 9.16065,-18.29763 19.54497,-18.29763z" fill="#000000" stroke="none" stroke-width="0" stroke-linecap="butt"/><path d="M264.93044,113.83403c10.81745,0 19.58673,8.76929 19.58673,19.58673c0,10.81745 -8.76928,19.58673 -19.58673,19.58673c-10.25083,0 -18.66242,-7.87466 -19.5155,-17.90468c2.51935,0.17219 5.02652,0.16734 7.57188,0.16666c0.95852,5.58301 5.82281,9.83129 11.67936,9.83129c6.54498,0 11.85075,-5.30577 11.85075,-11.85075c0,-6.54498 -5.30577,-11.85075 -11.85075,-11.85075c-6.22754,0 -11.33315,4.80357 -11.81376,10.90762c-2.50949,0.00131 -4.9811,0.00751 -7.46696,-0.17523c0.66378,-10.21654 9.16065,-18.29763 19.54497,-18.29763z" fill="#000000" stroke="none" stroke-width="0" stroke-linecap="butt"/><path d="M168.17442,137.63859c0,0 5.26431,-6.30735 7.49248,-8.48092c1.7944,-1.75043 4.85921,-3.56807 4.85921,-3.56807l14.02249,46.308c0,0 -11.74095,-1.24995 -13.68143,-3.99766c-8.48522,-12.01499 -12.69276,-30.26135 -12.69276,-30.26135z" fill="url(#color-5)" stroke="#000000" stroke-width="0" stroke-linecap="round"/><path d="M312.37737,136.75598c0,0 -4.20753,18.24636 -12.69275,30.26135c-1.94049,2.74771 -13.68143,3.99766 -13.68143,3.99766l14.0225,-46.308c0,0 3.06481,1.81764 4.85921,3.56807c2.22818,2.17357 7.49248,8.48093 7.49248,8.48093z" data-paper-data="{&quot;index&quot;:null}" fill="url(#color-6)" stroke="#000000" stroke-width="0" stroke-linecap="round"/><path d="M247.74314,177.48131c0,0 -1.87848,13.67885 -9.11944,13.67885c-7.24095,0 -7.94273,-13.67885 -7.94273,-13.67885c0,0 5.59621,0.95992 8.53108,0.95992c2.73898,0 8.53108,-0.95992 8.53108,-0.95992z" fill="#000000" stroke="#000000" stroke-width="2" stroke-linecap="round"/></g></g></svg>