<svg version="1.1" xmlns="http://www.w3.org/2000/svg" xmlns:xlink="http://www.w3.org/1999/xlink" width="130.1224" height="267.22501" viewBox="0,0,130.1224,267.22501"><defs><linearGradient x1="240.00003" y1="175.50001" x2="240.00003" y2="307.50001" gradientUnits="userSpaceOnUse" id="color-1"><stop offset="0" stop-color="#1a110e"/><stop offset="1" stop-color="#5d3d27"/></linearGradient><linearGradient x1="236.00149" y1="76.38374" x2="236.00149" y2="196.9804" gradientUnits="userSpaceOnUse" id="color-2"><stop offset="0" stop-color="#19110c"/><stop offset="1" stop-color="#714a2f"/></linearGradient><radialGradient cx="290.28236" cy="145.48235" r="9.77496" gradientUnits="userSpaceOnUse" id="color-3"><stop offset="0" stop-color="#ffe902"/><stop offset="1" stop-color="#6a6101"/></radialGradient></defs><g transform="translate(-174.86871,-46.38751)"><g data-paper-data="{&quot;isPaintingLayer&quot;:true}" fill-rule="nonzero" stroke-linejoin="miter" stroke-miterlimit="10" stroke-dasharray="" stroke-dashoffset="0" style="mix-blend-mode: normal"><path d="M179.28373,313.61252v-267.22501h123.18203v267.22501z" fill-opacity="0.01" fill="#000000" stroke="none" stroke-width="0" stroke-linecap="butt"/><path d="M206.75004,307.5l15.14285,-131.8421l37.78325,-0.15789l13.57389,132z" fill="url(#color-1)" stroke="#000000" stroke-width="0" stroke-linecap="butt"/><path d="M175.75385,136.68207c0,-33.30185 28.93074,-60.29833 64.61863,-60.29833c35.68788,0 64.61863,26.99648 64.61863,60.29833c0,33.30185 -28.93074,60.29833 -64.61863,60.29833c-35.68788,0 -64.61863,-26.99648 -64.61863,-60.29833z" fill="#000000" stroke="none" stroke-width="NaN" stroke-linecap="butt"/><g><g><path d="M175.7787,136.68207c0,-33.30185 26.96267,-60.29833 60.22279,-60.29833c33.26012,0 60.22279,26.99649 60.22279,60.29833c0,33.30185 -26.96267,60.29833 -60.22279,60.29833c-33.26012,0 -60.22279,-26.99649 -60.22279,-60.29833z" fill="url(#color-2)" stroke="#000000" stroke-width="0" stroke-linecap="butt"/><path d="M201.37593,110.81647c0,0 4.51663,-1.20107 9.35029,-2.11173c6.57515,-1.23878 10.097,-0.11664 10.097,-0.11664l2.72262,57.19493c0,0 -4.75987,1.48559 -7.38997,1.48559c-3.39543,0 -11.66838,-1.48559 -11.66838,-1.48559z" fill="none" stroke="#36251c" stroke-width="2.5" stroke-linecap="round"/><path d="M262.81887,107.53415c5.20042,0.46823 6.62259,1.42535 6.62259,1.42535l-0.7779,55.33794c0,0 -6.14634,0.7428 -8.94575,0.7428c-2.47651,0 -7.00103,-0.7428 -7.00103,-0.7428l2.72262,-57.19492c0,0 3.89484,0.11788 7.37946,0.43162z" fill="none" stroke="#36251c" stroke-width="2.5" stroke-linecap="round"/><path d="M182.47462,118.57433l0.5013,-2.49537" fill="none" stroke="#000000" stroke-width="1.5" stroke-linecap="round"/><path d="M182.97593,117.50489l2.67364,2.85185" fill="none" stroke="#000000" stroke-width="1.5" stroke-linecap="round"/><path d="M180.30229,123.92156l2.17234,-0.17825l1.33682,1.06945" fill="none" stroke="#000000" stroke-width="1.5" stroke-linecap="round"/><path d="M177.12734,132.47712l2.33943,-1.96065l-0.5013,2.67361l1.00262,0.17824v2.49537l1.83813,0.35648" fill="none" stroke="#000000" stroke-width="1.5" stroke-linecap="round"/><path d="M177.12734,138.89379l1.33682,-0.53472l1.50392,2.13889" fill="none" stroke="#000000" stroke-width="1.5" stroke-linecap="round"/><path d="M178.12996,147.80584l-0.33421,2.31713l-1.16971,0.35648" fill="none" stroke="#000000" stroke-width="1.5" stroke-linecap="round"/><path d="M178.12996,154.579l1.50391,-0.53473l1.00262,1.42593" fill="none" stroke="#000000" stroke-width="1.5" stroke-linecap="round"/><path d="M185.98379,164.91698l-1.16972,-1.06945l-3.50915,-0.53473l1.67103,-1.60416l0.66841,-1.78241l0.1671,-2.49537v-1.96065l2.50653,-2.67362" fill="none" stroke="#000000" stroke-width="1.5" stroke-linecap="round"/><path d="M183.64435,164.38224l-0.83551,1.78241" fill="none" stroke="#000000" stroke-width="1.5" stroke-linecap="round"/><path d="M280.48436,148.12105c0,-5.7584 4.3764,-10.42652 9.77496,-10.42652c5.39856,0 9.77496,4.66811 9.77496,10.42652c0,5.7584 -4.3764,10.42652 -9.77496,10.42652c-5.39856,0 -9.77496,-4.66811 -9.77496,-10.42652z" fill="url(#color-3)" stroke="#f6c002" stroke-width="0" stroke-linecap="butt"/><path d="M181.56974,158.08768c0,0 1.19505,3.07549 1.93357,4.40033c0.60819,1.09105 2.18292,2.98433 2.18292,2.98433l-2.9938,1.79627c0,0 -1.53112,-2.53986 -2.07337,-3.76467c-0.51686,-1.16746 -1.10756,-3.4204 -1.10756,-3.4204z" fill="#b4b3b4" stroke="#b6b4b2" stroke-width="0.5" stroke-linecap="round"/><path d="M177.26614,154.29556c0,0 -0.99076,-2.6996 -1.27579,-4.01709c-0.27601,-1.27578 -0.40823,-3.76675 -0.40823,-3.76675l3.26097,-0.5422c0,0 -0.0949,2.66703 0.11287,3.97255c0.20199,1.26922 1.11688,3.75473 1.11688,3.75473l-2.8067,0.59875z" fill="#b4b3b4" stroke="#b6b4b2" stroke-width="0.5" stroke-linecap="round"/><path d="M178.21326,129.54695c0,0 -0.40684,2.99796 -0.43976,4.43757c-0.02894,1.26557 0.25264,3.74544 0.25264,3.74544h-2.99381c0,0 -0.18598,-0.161 -0.17166,-4.40509c0.00965,-2.85922 0.35877,-3.57833 0.35877,-3.57833z" fill="#b4b3b4" stroke="#b6b4b2" stroke-width="0.5" stroke-linecap="round"/><path d="M231.07373,82.95107c1.04409,-0.48163 2.97339,-2.51212 4.13187,-2.56044c1.49763,-0.72933 3.22929,-2.06343 4.46888,-2.87118c0.09547,-0.10183 0.18006,-0.21545 0.25676,-0.33465c0.01632,-0.19097 0.20353,-0.19097 0.20353,-0.19097c0.98021,0 3.20204,-0.10645 3.79102,0.92166c0.01527,0.01718 0.02613,0.03543 0.03361,0.05391l0.06684,0.05722c0,0 0.14472,0.15436 0,0.30873c-0.07001,0.07467 -0.14002,0.0771 -0.19364,0.0597c-0.84223,1.58845 -2.11128,1.96929 -3.60631,2.76663c-1.1008,0.56063 -4.59962,1.20988 -5.18019,2.39179c-1.67408,0.66675 -3.26844,2.44847 -4.78915,2.59662c-0.31712,-0.01028 -0.54699,0.18536 -0.76245,0.41924c0.56982,0.73297 3.25087,1.08185 4.05505,1.08185c1.7094,0.03642 4.44583,0.3223 5.98231,1.10658c2.01145,0.7126 4.55224,0.1897 6.44037,1.20028c1.27451,-0.01682 5.58484,0.4407 5.60748,2.15017c-0.03015,1.61001 -4.04022,2.1635 -5.16756,2.15318c-0.5928,0.21077 -1.45573,0.22897 -2.11366,0.24133c-0.03809,0.08264 -0.12516,0.1136 -0.12516,0.1136c-1.551,0.54872 -3.22506,1.30838 -4.67277,2.06417c-1.34398,0 -2.7614,1.45438 -3.94253,2.04802c-0.33678,0.16927 -0.39007,0.69016 -0.86696,0.58094c-0.09439,0.30205 -1.74499,1.73537 -0.88326,2.09066l0.09318,0.18341c1.41397,0.08628 2.92092,1.10854 4.25481,1.58044c2.08753,0.74563 3.76704,1.41428 5.99981,1.44791c0.39559,0.21098 0.93894,0.04917 1.16391,0.61334c0.44073,1.10529 -0.73344,1.08281 -0.77918,1.77903c-0.06602,1.00496 0.67956,1.9211 -0.74118,2.57649c-0.73567,1.56941 -2.00752,2.85446 -2.80011,4.5453c-0.85368,1.82116 -1.2613,3.7019 -2.04369,5.44978c-0.21927,0.43839 -0.34447,1.40185 -0.11354,1.86355l0.01317,0.13336c0.54095,1.17437 0.91183,4.06818 0.91674,4.80852c0,1.11518 0.83335,3.61807 -0.05994,4.51418c-0.51183,0.51345 -0.9874,0.28985 -1.36246,1.08996c-1.81756,1.00291 -3.1685,-0.7838 -5.02686,-0.7838c-0.15385,0 -0.30768,0 -0.46153,0c0.35848,0.28072 0.8262,0.92296 1.18759,1.27104c0.16784,-0.07052 0.25176,0.10851 0.25176,0.10851c0.00871,0.03526 0.01947,0.07018 0.03217,0.1048c0.04684,0.02008 0.08897,0.02668 0.12539,0.01674l0.25826,0.18505c0,0 0.14472,0.15436 0,0.30873c-0.00916,0.00977 -0.01833,0.01832 -0.02746,0.02573c0.84081,0.88673 2.7076,1.62882 3.20652,2.69319c1.44606,0.66707 3.12,2.61915 3.12,4.44324c-1.14788,2.36684 -4.2387,0.12492 -4.88543,-1.47017c-0.10485,-0.05592 -0.17811,-0.11361 -0.23516,-0.17972c0.34584,1.16457 1.49283,2.14385 1.49283,3.77964c0,0.72335 0.70592,1.97284 0.42359,2.53689c-0.93799,1.87393 -2.30261,-1.1528 -2.53051,-1.63899c-0.02113,-1.92016 -1.97243,-3.17054 -1.93014,-5.42899c0.30001,-0.67022 0.94279,-1.01961 0.79477,-1.83738c-0.19935,-1.10137 -1.83415,-1.45558 -2.17917,-2.40769c-1.24577,0 -3.48203,-3.66714 -2.83846,-4.85233c2.04002,-0.19873 4.07508,-0.27481 6.12512,-0.27481c0.4983,0 0.9966,0 1.4949,0c-0.00953,-0.10042 0.06346,-0.17828 0.06346,-0.17828l0.05359,0.03326c0,-1.25143 0,-2.50286 0,-3.75429c0,-2.1267 0.59588,-4.40528 0.57033,-6.4536c0.66433,-2.15649 0.41647,-4.42275 1.38142,-6.48129c0.27423,-0.54825 2.10636,-3.84459 1.10157,-3.80222c-0.00647,0.00054 -0.01022,0.00055 -0.01022,0.00055c-1.12309,0 -1.50275,-0.64802 -2.43132,-0.85359c-0.71052,-0.1573 -1.15747,0.48443 -1.8361,0.48443c-0.1735,0.04062 0.35477,1.99729 0.2657,2.38092c-0.23717,1.02149 -0.95585,2.40828 -0.90831,3.39097c-0.51323,1.14655 0.01582,2.9337 -0.71438,3.95289c-0.66528,0.92857 -1.47618,1.11033 -1.95475,0.04361c-0.02695,-2.03566 0.6004,-4.58571 1.37859,-6.3242c1.00001,-2.13335 -0.52291,-3.69281 1.26595,-5.6009c0.05563,-0.12231 -3.7604,-1.67774 -4.59663,-1.98767c-0.69004,-0.72372 -2.06111,-2.06518 -1.42896,-3.32812c0.25866,-0.51676 1.57333,-0.67818 2.01272,-0.92823c1.71936,-0.91698 2.58389,-2.00741 4.28631,-2.88839c0.54326,-0.57947 1.82438,-1.26899 2.57821,-1.36267c1.21186,-0.5765 2.54112,-1.00381 3.80807,-1.68314c0.38127,-0.20251 0.64983,-0.5258 1.02185,-0.72664c0.00803,-0.00434 0.01684,-0.00912 0.02629,-0.01427c-0.4354,0.03857 -1.03485,-0.02968 -1.20634,-0.06159c-0.79783,-0.14849 -1.59665,-0.84857 -2.40867,-0.84857c-1.9208,-0.98561 -4.18422,-0.53107 -6.01751,-1.57438c-1.83035,0.01694 -3.5383,-1.55187 -5.33629,-1.57438c-2.78788,-1.41984 -0.51737,-3.24677 1.09088,-4.16202c0.72076,-0.38441 1.45611,-0.68306 2.17675,-1.0447c-0.08565,-0.19164 0.09401,-0.28746 0.09401,-0.28746z" fill="#000000" stroke="none" stroke-width="0.5" stroke-linecap="butt"/><path d="M176.35366,122.56146c0,0 0.77447,-4.90945 2.61959,-7.18508c1.84512,-2.27563 1.87009,-0.58001 3.36803,-0.19958c1.49794,0.38043 0.78623,0.52018 0.56134,1.19751c-0.22489,0.67733 -3.74226,8.38259 -3.74226,8.38259z" fill="#b4b3b4" stroke="#b6b4b2" stroke-width="0.5" stroke-linecap="round"/><path d="M247.6512,76.64391c0.01686,-0.02958 0.03259,-0.05879 0.04705,-0.08754c-0.00039,0.02678 -0.01718,0.05617 -0.04705,0.08754z" fill-opacity="0.43044" fill="#9966ff" stroke="none" stroke-width="0.5" stroke-linecap="butt"/></g><path d="M188.48214,136.77821c0,-12.968 9.8557,-23.48065 22.01332,-23.48065c12.15762,0 22.01332,10.51265 22.01332,23.48065c0,12.968 -9.8557,23.48065 -22.01332,23.48065c-12.15762,0 -22.01332,-10.51265 -22.01332,-23.48065z" fill="#b6b6b6" stroke="#000000" stroke-width="0" stroke-linecap="butt"/><path d="M261.36326,160.25885c-12.15762,0 -22.01332,-10.51265 -22.01332,-23.48065c0,-12.968 9.8557,-23.48065 22.01332,-23.48065c12.15762,0 22.01332,10.51265 22.01332,23.48065c0,12.968 -9.8557,23.48065 -22.01332,23.48065z" data-paper-data="{&quot;index&quot;:null}" fill="#b6b6b6" stroke="#000000" stroke-width="0" stroke-linecap="butt"/><path d="M204.57265,136.77821c0,-3.48911 2.65173,-6.3176 5.92281,-6.3176c3.27107,0 5.92282,2.82849 5.92282,6.3176c0,3.48911 -2.65174,6.3176 -5.92282,6.3176c-3.27107,0 -5.92281,-2.82849 -5.92281,-6.3176z" fill="none" stroke="#ffffff" stroke-width="2" stroke-linecap="butt"/><path d="M261.36326,143.0958c-3.27108,0 -5.92282,-2.82849 -5.92282,-6.3176c0,-3.48911 2.65174,-6.3176 5.92282,-6.3176c3.27108,0 5.92281,2.82849 5.92281,6.3176c0,3.48911 -2.65174,6.3176 -5.92281,6.3176z" data-paper-data="{&quot;index&quot;:null}" fill="none" stroke="#ffffff" stroke-width="2" stroke-linecap="butt"/><path d="M225.3727,190.13747c0,0 8.77234,-3.293 13.08413,-3.60938c7.00211,-0.51379 11.05383,0.72188 11.05383,0.72188l-0.90235,6.25626c0,0 -6.6442,-0.91499 -11.05383,-0.9625c-4.40963,-0.0475 -11.27942,0.72188 -11.27942,0.72188z" fill="#000000" stroke="#000000" stroke-width="1.5" stroke-linecap="round"/><path d="M197.62532,159.57807l2.0303,1.20313" fill="none" stroke="#ffffff" stroke-width="2" stroke-linecap="round"/></g></g></g></svg>