<svg height="938.299560546875px" width="1359.0079345703125px" style="enable-background:new 0 0 1096 780;" y="0px" x="0px" version="1.1" viewBox="0 0 1359.0079345703125 938.299560546875" id="master-artboard" xmlns="http://www.w3.org/2000/svg">


<path transform="matrix(1, 0, 0, 1, 122.32479095458984, 100.65203094482422)" d="M 100.69999694824219 63.900001525878906 L 131.60000610351562 35.29999923706055 L 128.60000610351562 77.30000305175781 L 170.1999969482422 83.69999694824219 L 135.39999389648438 107.5 L 156.39999389648438 144 L 116.0999984741211 131.6999969482422 L 100.69999694824219 170.89999389648438 L 85.19999694824219 131.6999969482422 L 44.900001525878906 144 L 65.9000015258789 107.5 L 31.100000381469727 83.69999694824219 L 72.80000305175781 77.30000305175781 L 69.69999694824219 35.29999923706055 Z"></path>
<path transform="matrix(1, 0, 0, 1, 122.32479095458984, 100.65203094482422)" d="M246.5,378.7c-34.6,0-62.6,28-62.6,62.6c0,34.6,28,62.6,62.6,62.6c34.6,0,62.6-28,62.6-62.6
	C309.1,406.7,281.1,378.7,246.5,378.7z M290.3,475.3l-31.6-9.7l-12.1,30.8l-12.1-30.8l-31.6,9.7l16.5-28.7L192,428l32.7-5l-2.4-33
	l24.3,22.4l24.3-22.4l-2.4,33l32.7,5l-27.3,18.7L290.3,475.3z"></path>
<path transform="matrix(1, 0, 0, 1, 122.32479095458984, 100.65203094482422)" d="M 246.5 65.0999984741211 L 271.1000061035156 33.599998474121094 L 269.6000061035156 73.5 L 308.6000061035156 65.0999984741211 L 281.79998779296875 94.69999694824219 L 317.1000061035156 113.4000015258789 L 277.6000061035156 118.80000305175781 L 292.6000061035156 155.8000030517578 L 258.79998779296875 134.60000610351562 L 246.5 172.60000610351562 L 234.3000030517578 134.60000610351562 L 200.5 155.8000030517578 L 215.5 118.80000305175781 L 176 113.4000015258789 L 211.3000030517578 94.69999694824219 L 184.5 65.0999984741211 L 223.5 73.5 L 222 33.599998474121094 Z"></path>
<path transform="matrix(1, 0, 0, 1, 122.32479095458984, 100.65203094482422)" d="M 392.8999938964844 36.599998474121094 L 414.5 80.4000015258789 L 462.79998779296875 87.4000015258789 L 427.79998779296875 121.4000015258789 L 436.1000061035156 169.5 L 392.8999938964844 146.8000030517578 L 349.70001220703125 169.5 L 358 121.4000015258789 L 323 87.4000015258789 L 371.29998779296875 80.4000015258789 Z"></path>
<g transform="matrix(1, 0, 0, 1, 122.32479095458984, 100.65203094482422)">
	<path d="M706.9,46.5c2.9-6,7.7-6,10.7,0l10.9,22.1c2.9,6,10.7,11.6,17.3,12.6l24.4,3.5c6.6,1,8.1,5.5,3.3,10.2L755.8,112
		c-4.8,4.6-7.7,13.8-6.6,20.3l4.2,24.3c1.1,6.5-2.8,9.4-8.6,6.3l-21.8-11.5c-5.9-3.1-15.5-3.1-21.4,0l-21.8,11.5
		c-5.9,3.1-9.8,0.3-8.6-6.3l4.2-24.3c1.1-6.5-1.9-15.7-6.6-20.3L651,94.8c-4.8-4.6-3.3-9.2,3.3-10.2l24.4-3.5
		c6.6-1,14.4-6.6,17.3-12.6L706.9,46.5z"></path>
</g>
<g transform="matrix(1, 0, 0, 1, 122.32479095458984, 100.65203094482422)">
	<path d="M690.4,248.1c-2.2,0.3-48.8,7.1-48.8,7.1s33.7,32.8,35.3,34.4c-0.4,2.2-8.3,48.7-8.3,48.7s41.7-21.9,43.7-23
		c2,1.1,43.7,23,43.7,23s-8-46.4-8.3-48.7c1.6-1.6,35.3-34.4,35.3-34.4s-46.6-6.7-48.8-7.1c-1-2-21.8-44.3-21.8-44.3
		S691.4,246,690.4,248.1z M693.4,252.2c0,0,15.5-31.5,18.8-38.1c3.3,6.7,18.8,38.1,18.8,38.1s34.7,5,42.1,6.1
		c-5.3,5.2-30.4,29.7-30.4,29.7s5.9,34.6,7.2,41.9c-6.6-3.5-37.6-19.8-37.6-19.8s-31,16.3-37.6,19.8c1.3-7.4,7.2-41.9,7.2-41.9
		s-25.1-24.5-30.4-29.7C658.7,257.3,693.4,252.2,693.4,252.2z"></path>
</g>
<path transform="matrix(1, 0, 0, 1, 122.32479095458984, 100.65203094482422)" d="M 246.5 200 L 264.29998779296875 240.3000030517578 L 308 235.5 L 282 271 L 308 306.5 L 264.29998779296875 301.79998779296875 L 246.5 342 L 228.8000030517578 301.79998779296875 L 185.10000610351562 306.5 L 211.10000610351562 271 L 185.10000610351562 235.5 L 228.8000030517578 240.3000030517578 Z"></path>
<g transform="matrix(1, 0, 0, 1, 122.32479095458984, 100.65203094482422)">
	<path d="M81.6,236.5l-47.4-5.1l-2.7-0.3l1.6,2.2l28.2,38.5v-1.4L33,308.8l-1.6,2.2l2.7-0.3l47.4-5.1l-1.2-0.7l19.2,43.6l1.1,2.5
		l1.1-2.5l19.2-43.6l-1.2,0.7l47.4,5.1l2.7,0.3l-1.6-2.2l-28.2-38.5v1.4l28.2-38.5l1.6-2.2l-2.7,0.3l-47.4,5.1l1.2,0.7l-19.2-43.6
		l-1.1-2.5l-1.1,2.5l-19.2,43.6L81.6,236.5z M99.6,194.6l19.2,43.6l0.4,0.8l0.9-0.1l47.4-5.1l-1.1-1.9l-28.2,38.5l-0.5,0.7l0.5,0.7
		l28.2,38.5l1.1-1.9l-47.4-5.1l-0.9-0.1l-0.4,0.8l-19.2,43.6h2.2l-19.2-43.6l-0.4-0.8l-0.9,0.1l-47.4,5.1l1.1,1.9l28.2-38.5l0.5-0.7
		l-0.5-0.7L35,231.8l-1.1,1.9l47.4,5.1l0.9,0.1l0.4-0.8l19.2-43.6H99.6z"></path>
	<path d="M 100.69999694824219 209.60000610351562 L 116 244.39999389648438 L 153.89999389648438 240.3000030517578 L 131.39999389648438 271 L 153.89999389648438 301.79998779296875 L 116 297.6000061035156 L 100.69999694824219 332.5 L 85.30000305175781 297.6000061035156 L 47.400001525878906 301.79998779296875 L 69.9000015258789 271 L 47.400001525878906 240.3000030517578 L 85.30000305175781 244.39999389648438 Z"></path>
</g>
<path transform="matrix(1, 0, 0, 1, 122.32479095458984, 100.65203094482422)" d="M 552.7000122070312 207.89999389648438 L 552.9000244140625 269 L 564.7000122070312 209 L 553.4000244140625 269 L 576.2999877929688 212.39999389648438 L 553.7000122070312 269.20001220703125 L 587 217.89999389648438 L 554.0999755859375 269.3999938964844 L 596.4000244140625 225.3000030517578 L 554.4000244140625 269.70001220703125 L 604.2999877929688 234.39999389648438 L 554.7000122070312 270.1000061035156 L 610.2999877929688 244.89999389648438 L 554.7999877929688 270.3999938964844 L 614.2999877929688 256.20001220703125 L 554.9000244140625 270.8999938964844 L 616 268.20001220703125 L 554.9000244140625 271.29998779296875 L 615.4000244140625 280.20001220703125 L 554.9000244140625 271.70001220703125 L 612.5999755859375 291.8999938964844 L 554.7000122070312 272.1000061035156 L 607.5999755859375 302.79998779296875 L 554.5 272.5 L 600.5999755859375 312.6000061035156 L 554.2999877929688 272.79998779296875 L 591.9000244140625 320.8999938964844 L 553.9000244140625 273 L 581.7000122070312 327.3999938964844 L 553.5999755859375 273.20001220703125 L 570.5999755859375 331.8999938964844 L 553.0999755859375 273.29998779296875 L 558.7000122070312 334.20001220703125 L 552.7000122070312 273.3999938964844 L 546.7000122070312 334.20001220703125 L 552.2999877929688 273.29998779296875 L 534.9000244140625 331.8999938964844 L 551.9000244140625 273.20001220703125 L 523.7000122070312 327.3999938964844 L 551.5 273 L 513.5999755859375 320.8999938964844 L 551.2000122070312 272.79998779296875 L 504.8999938964844 312.6000061035156 L 550.9000244140625 272.5 L 497.8999938964844 302.79998779296875 L 550.7000122070312 272.1000061035156 L 492.8999938964844 291.8999938964844 L 550.5999755859375 271.70001220703125 L 490.1000061035156 280.20001220703125 L 550.5 271.29998779296875 L 489.5 268.20001220703125 L 550.5 270.8999938964844 L 491.20001220703125 256.20001220703125 L 550.5999755859375 270.3999938964844 L 495.1000061035156 244.89999389648438 L 550.7999877929688 270.1000061035156 L 501.20001220703125 234.39999389648438 L 551 269.70001220703125 L 509 225.3000030517578 L 551.4000244140625 269.3999938964844 L 518.5 217.89999389648438 L 551.7000122070312 269.20001220703125 L 529.2000122070312 212.39999389648438 L 552.0999755859375 269 L 540.7000122070312 209 L 552.5 269 Z"></path>
<path transform="matrix(1, 0, 0, 1, 122.32479095458984, 100.65203094482422)" d="M 246.5 541.2000122070312 L 257.3999938964844 599.9000244140625 L 316.5 592 L 264 620.5 L 289.79998779296875 674.2999877929688 L 246.5 633.2000122070312 L 203.3000030517578 674.2999877929688 L 229 620.5 L 176.5 592 L 235.6999969482422 599.9000244140625 Z"></path>
<path transform="matrix(1, 0, 0, 1, 122.32479095458984, 100.65203094482422)" style="fill-rule: evenodd; clip-rule: evenodd;" d="M582,120.3l17.1,53.8l-46.4-32.7L506.5,174l17.1-53.9l-45.5-33.7l56.8-0.5l17.8-53.8l17.9,53.8l56.7,0.6
	L582,120.3z M566.5,91.9l-13.7-40.7l-13.7,40.6l-43.2,0.3l34.8,25.8l-13,41.1l35.1-25l35.1,25.1L575,118.1l34.8-25.9L566.5,91.9z
	 M566.9,115.4l7.9,25.7l-22-15.5l-22,15.6l7.9-25.8l-21.6-16.1l27,0l8.6-25.9l8.6,26l27,0.1L566.9,115.4z M557.2,104.8l-4.4-12.9
	l-4.5,13l-13.5,0.1l10.7,8.1l-3.9,13l11.2-7.7l10.9,7.7l-3.9-13l10.7-8L557.2,104.8z" class="st1"></path>
<g transform="matrix(1, 0, 0, 1, 122.32479095458984, 100.65203094482422)">
	<g>
		<path d="M778.4,614.5c0.8,1.1,1.5,2.2,2.2,3.4l-3.8-0.8c-0.4,1.3-0.8,2.5-1.2,3.8c-0.5-1.2-1-2.4-1.6-3.6
			c-1.2,0.5-2.4,0.9-3.6,1.3c0.6-1.1,1.1-2.2,1.6-3.3c-1.1-0.6-2.3-1.2-3.4-1.7c1.2-0.3,2.4-0.6,3.7-1c-0.3-1.2-0.6-2.4-1-3.6
			c1.1,0.6,2.2,1.3,3.3,2c0.8-1,1.5-2.1,2.3-3.2c0.1,1.3,0.4,2.6,0.5,4l3.9-0.1C780.3,612.6,779.4,613.6,778.4,614.5z"></path>
	</g>
	<g>
		<path d="M775.7,627.7c0.5,1.2,1,2.5,1.5,3.7l-3.5-1.6c-0.6,1.2-1.3,2.3-2,3.5c-0.2-1.3-0.5-2.6-0.8-3.8c-1.3,0.2-2.5,0.4-3.8,0.5
			c0.8-0.9,1.6-1.9,2.3-2.9c-1-0.8-2-1.6-3-2.4c1.3,0,2.5-0.1,3.8-0.2c0-1.2-0.1-2.5-0.2-3.7c0.9,0.8,1.9,1.7,2.8,2.6
			c0.9-0.8,1.9-1.7,2.8-2.7c-0.1,1.3-0.2,2.6-0.4,4l3.8,0.7C777.9,626.2,776.8,627,775.7,627.7z"></path>
	</g>
	<g>
		<path d="M770.4,640c0.3,1.3,0.5,2.6,0.7,4l-3.1-2.3c-0.9,1-1.7,2-2.7,3c0.1-1.3,0-2.6,0-3.9c-1.3-0.1-2.6-0.1-3.8-0.2
			c0.9-0.8,1.9-1.5,2.8-2.4c-0.8-1-1.6-2-2.5-2.9c1.3,0.2,2.5,0.4,3.8,0.5c0.2-1.2,0.4-2.4,0.5-3.6c0.8,1,1.5,2.1,2.2,3.1
			c1.1-0.6,2.2-1.3,3.3-2c-0.4,1.3-0.7,2.6-1.1,3.8l3.6,1.5C772.9,639.1,771.7,639.6,770.4,640z"></path>
	</g>
	<g>
		<path d="M762.7,651.1c0,1.3,0,2.7-0.1,4l-2.6-2.8c-1,0.8-2.1,1.6-3.2,2.4c0.3-1.3,0.5-2.5,0.7-3.8c-1.3-0.3-2.5-0.6-3.7-1
			c1.1-0.6,2.2-1.1,3.2-1.8c-0.6-1.1-1.2-2.3-1.8-3.4c1.2,0.5,2.4,0.9,3.6,1.3c0.4-1.2,0.9-2.3,1.2-3.5c0.6,1.2,1.1,2.3,1.5,3.5
			c1.2-0.4,2.4-0.8,3.7-1.3c-0.6,1.2-1.2,2.4-1.9,3.5l3.2,2.1C765.3,650.6,764,650.9,762.7,651.1z"></path>
	</g>
	<g>
		<path d="M752.9,660.3c-0.2,1.3-0.6,2.6-0.9,3.9l-2-3.3c-1.2,0.6-2.4,1.2-3.6,1.7c0.5-1.2,1.1-2.4,1.5-3.6
			c-1.2-0.5-2.3-1.1-3.4-1.7c1.2-0.3,2.3-0.7,3.5-1.1c-0.3-1.2-0.7-2.5-1.1-3.7c1.1,0.7,2.2,1.3,3.3,2c0.7-1,1.3-2.1,1.9-3.1
			c0.3,1.2,0.6,2.5,0.8,3.7c1.3-0.1,2.6-0.3,3.8-0.5c-0.8,1.1-1.7,2.1-2.5,3.1l2.7,2.7C755.6,660.5,754.3,660.4,752.9,660.3z"></path>
	</g>
	<g>
		<path d="M741.5,667.5c-0.5,1.2-1.1,2.4-1.7,3.7l-1.3-3.6c-1.3,0.4-2.6,0.6-3.9,1c0.8-1.1,1.5-2.1,2.2-3.2c-1-0.8-2-1.6-3-2.4
			c1.2-0.1,2.4-0.2,3.7-0.3c-0.1-1.3-0.2-2.5-0.4-3.8c0.9,0.9,1.8,1.7,2.8,2.6c0.9-0.8,1.7-1.8,2.5-2.7c0,1.3,0.1,2.5,0.1,3.8
			c1.3,0.1,2.6,0.2,3.9,0.2c-1,0.9-2.1,1.7-3.1,2.5l2.1,3.2C744.1,668.1,742.8,667.8,741.5,667.5z"></path>
	</g>
	<g>
		<path d="M728.9,672.1c-0.8,1.1-1.6,2.1-2.4,3.2l-0.5-3.8c-1.3,0.1-2.7,0.1-4,0.1c1-0.9,1.9-1.8,2.8-2.7c-0.9-1-1.7-2-2.5-3
			c1.2,0.2,2.4,0.3,3.7,0.4c0.2-1.3,0.3-2.5,0.4-3.8c0.7,1,1.4,2.1,2.2,3.1c1-0.7,2-1.4,3-2.1c-0.2,1.2-0.4,2.5-0.7,3.8
			c1.2,0.3,2.5,0.7,3.8,1c-1.2,0.6-2.3,1.2-3.6,1.8l1.4,3.6C731.3,673.3,730.1,672.7,728.9,672.1z"></path>
	</g>
	<g>
		<path d="M715.6,674.2c-1,0.9-1.9,1.8-3,2.7l0.3-3.8c-1.3-0.2-2.6-0.4-3.9-0.6c1.1-0.7,2.2-1.4,3.3-2.1c-0.6-1.1-1.2-2.3-1.8-3.4
			c1.1,0.4,2.3,0.8,3.5,1.1c0.4-1.2,0.8-2.4,1.2-3.6c0.5,1.2,1,2.3,1.5,3.5c1.2-0.4,2.3-0.9,3.4-1.5c-0.5,1.2-0.9,2.4-1.5,3.5
			c1.1,0.6,2.3,1.2,3.5,1.8c-1.3,0.3-2.5,0.8-3.8,1l0.7,3.8C717.7,675.8,716.7,675,715.6,674.2z"></path>
	</g>
	<g>
		<path d="M702.2,673.5c-1.1,0.7-2.3,1.4-3.5,2l1-3.7c-1.3-0.4-2.5-1-3.7-1.4c1.2-0.5,2.5-0.9,3.6-1.4c-0.4-1.2-0.8-2.5-1.1-3.7
			c1,0.6,2.1,1.3,3.2,1.8c0.7-1.1,1.3-2.2,1.9-3.3c0.2,1.2,0.5,2.5,0.8,3.7c1.2-0.2,2.4-0.5,3.6-0.8c-0.7,1.1-1.4,2.1-2.1,3.2
			c1,0.8,2,1.6,3,2.4c-1.3,0.1-2.6,0.2-4,0.3l-0.1,3.9C704,675.5,703.1,674.5,702.2,673.5z"></path>
	</g>
	<g>
		<path d="M689.2,670.1c-1.2,0.5-2.5,0.9-3.8,1.3l1.8-3.4c-1.1-0.7-2.3-1.4-3.3-2.2c1.3-0.2,2.6-0.4,3.8-0.6
			c-0.1-1.3-0.3-2.6-0.3-3.8c0.9,0.8,1.8,1.7,2.8,2.4c0.9-0.9,1.7-1.9,2.5-2.9c0,1.3,0,2.5,0,3.8c1.2,0,2.5,0,3.7,0
			c-0.9,0.9-1.8,1.8-2.7,2.7c0.8,1,1.6,2,2.5,3c-1.3-0.2-2.6-0.3-3.9-0.6l-0.9,3.8C690.5,672.4,689.8,671.3,689.2,670.1z"></path>
	</g>
	<g>
		<path d="M677.1,664.2c-1.3,0.2-2.7,0.4-4,0.5l2.4-3c-1-0.9-1.9-1.8-2.8-2.8c1.3,0.1,2.6,0.1,3.9,0.2c0.1-1.3,0.3-2.5,0.4-3.8
			c0.7,1,1.4,2,2.2,2.9c1-0.8,2.1-1.5,3-2.3c-0.3,1.2-0.5,2.5-0.7,3.7c1.2,0.3,2.4,0.5,3.6,0.7c-1,0.7-2.1,1.4-3.2,2.1
			c0.6,1.2,1.2,2.3,1.8,3.4c-1.2-0.4-2.5-0.8-3.8-1.3l-1.6,3.5C677.9,666.7,677.5,665.5,677.1,664.2z"></path>
	</g>
	<g>
		<path d="M666.5,655.9c-1.3-0.1-2.7-0.1-4-0.3l3-2.5c-0.8-1.1-1.5-2.2-2.2-3.3c1.3,0.4,2.5,0.7,3.8,0.9c0.4-1.2,0.7-2.4,1.2-3.6
			c0.5,1.1,1,2.2,1.6,3.3c1.2-0.5,2.3-1.1,3.5-1.7c-0.5,1.2-1,2.3-1.5,3.5c1.2,0.5,2.3,1,3.4,1.4c-1.2,0.5-2.4,0.9-3.6,1.4
			c0.3,1.3,0.7,2.5,1.1,3.7c-1.2-0.6-2.3-1.3-3.4-2.1l-2.3,3.1C666.7,658.6,666.6,657.3,666.5,655.9z"></path>
	</g>
	<g>
		<path d="M657.7,645.7c-1.3-0.3-2.6-0.7-3.9-1.1l3.4-1.8c-0.6-1.2-1-2.5-1.5-3.7c1.2,0.6,2.3,1.2,3.5,1.7c0.6-1.1,1.2-2.2,1.9-3.3
			c0.2,1.2,0.6,2.4,0.9,3.6c1.2-0.3,2.5-0.6,3.7-0.9c-0.7,1-1.4,2.1-2.1,3.2c1,0.7,2,1.4,3,2.1c-1.2,0.2-2.5,0.4-3.8,0.6
			c0.1,1.3,0.2,2.6,0.4,3.9c-1-0.8-2-1.8-2.9-2.7l-2.9,2.6C657.4,648.4,657.6,647,657.7,645.7z"></path>
	</g>
	<g>
		<path d="M651.2,634c-1.2-0.6-2.4-1.2-3.6-1.9l3.7-1.1c-0.3-1.3-0.5-2.6-0.8-3.9c1,0.8,2.1,1.6,3.1,2.3c0.8-1,1.7-1.9,2.5-2.9
			c0,1.2,0.1,2.4,0.2,3.7c1.3,0,2.5-0.1,3.8-0.2c-0.9,0.9-1.8,1.7-2.7,2.7c0.8,0.9,1.7,1.8,2.6,2.6c-1.3,0-2.5-0.1-3.8-0.1
			c-0.2,1.3-0.3,2.6-0.4,3.9c-0.8-1-1.6-2.1-2.3-3.2l-3.3,1.9C650.4,636.5,650.8,635.2,651.2,634z"></path>
	</g>
	<g>
		<path d="M647.1,621.1c-1-0.8-2.1-1.7-3.1-2.5l3.8-0.3c0-1.3,0-2.7,0.1-4c0.9,1,1.7,2,2.6,2.9c1-0.8,2-1.6,3.1-2.3
			c-0.2,1.2-0.5,2.4-0.6,3.6c1.3,0.2,2.5,0.4,3.7,0.6c-1.1,0.7-2.1,1.3-3.2,2c0.6,1.1,1.3,2.1,2,3.1c-1.2-0.3-2.5-0.6-3.7-0.9
			c-0.4,1.2-0.8,2.4-1.2,3.7c-0.5-1.2-1.1-2.4-1.6-3.6l-3.7,1.2C645.9,623.5,646.5,622.3,647.1,621.1z"></path>
	</g>
	<g>
		<path d="M645.8,607.8c-0.8-1-1.7-2-2.5-3.1l3.8,0.5c0.2-1.3,0.6-2.6,0.8-3.9c0.6,1.2,1.3,2.3,1.9,3.4c1.2-0.6,2.3-1.1,3.5-1.6
			c-0.5,1.1-0.9,2.3-1.3,3.4c1.2,0.5,2.4,0.9,3.5,1.4c-1.2,0.4-2.4,0.9-3.5,1.4c0.4,1.2,0.8,2.3,1.3,3.4c-1.2-0.5-2.3-1.1-3.5-1.6
			c-0.6,1.1-1.3,2.2-1.9,3.4c-0.3-1.3-0.6-2.6-0.8-3.9l-3.8,0.5C644.1,609.8,644.9,608.8,645.8,607.8z"></path>
	</g>
	<g>
		<path d="M647.1,594.4c-0.6-1.1-1.3-2.3-1.9-3.6l3.7,1.2c0.5-1.2,1.1-2.4,1.6-3.6c0.4,1.3,0.8,2.5,1.2,3.7c1.3-0.3,2.5-0.6,3.7-0.9
			c-0.7,1-1.4,2-2,3.1c1.1,0.7,2.1,1.4,3.2,2c-1.2,0.2-2.5,0.4-3.7,0.6c0.1,1.2,0.4,2.4,0.6,3.6c-1-0.7-2.1-1.5-3.1-2.3
			c-0.8,0.9-1.7,1.9-2.6,2.9c0-1.3-0.1-2.7-0.1-4l-3.8-0.3C645.1,596,646.1,595.2,647.1,594.4z"></path>
	</g>
	<g>
		<path d="M651.2,581.5c-0.4-1.3-0.8-2.5-1.1-3.9l3.3,1.9c0.8-1.1,1.5-2.2,2.3-3.2c0.1,1.3,0.3,2.6,0.4,3.9c1.3-0.1,2.6-0.1,3.8-0.1
			c-0.9,0.9-1.8,1.7-2.6,2.6c0.9,0.9,1.8,1.8,2.7,2.7c-1.3-0.1-2.5-0.1-3.8-0.2c-0.1,1.2-0.2,2.5-0.2,3.7c-0.9-0.9-1.7-1.9-2.5-2.9
			c-1,0.7-2.1,1.5-3.1,2.3c0.3-1.3,0.4-2.6,0.8-3.9l-3.7-1.1C648.8,582.7,650,582.1,651.2,581.5z"></path>
	</g>
	<g>
		<path d="M657.7,569.8c-0.1-1.3-0.3-2.7-0.3-4l2.9,2.6c1-0.9,1.9-1.9,2.9-2.7c-0.2,1.3-0.3,2.6-0.4,3.9c1.3,0.2,2.5,0.4,3.8,0.6
			c-1,0.7-2.1,1.3-3,2.1c0.7,1.1,1.4,2.1,2.1,3.2c-1.2-0.3-2.5-0.7-3.7-0.9c-0.3,1.2-0.7,2.4-0.9,3.6c-0.7-1.1-1.3-2.2-1.9-3.3
			c-1.2,0.5-2.3,1.1-3.5,1.7c0.5-1.2,1-2.5,1.5-3.7l-3.4-1.8C655.1,570.5,656.4,570.1,657.7,569.8z"></path>
	</g>
	<g>
		<path d="M666.5,559.6c0.1-1.3,0.3-2.7,0.5-4l2.3,3.1c1.1-0.7,2.3-1.4,3.4-2.1c-0.4,1.2-0.8,2.5-1.1,3.7c1.2,0.4,2.4,0.9,3.6,1.4
			c-1.2,0.4-2.2,0.9-3.4,1.4c0.5,1.2,1,2.4,1.5,3.5c-1.1-0.6-2.3-1.1-3.5-1.7c-0.6,1.1-1.1,2.2-1.6,3.3c-0.4-1.2-0.8-2.4-1.2-3.6
			c-1.3,0.3-2.5,0.6-3.8,0.9c0.7-1.1,1.4-2.2,2.2-3.3l-3-2.5C663.8,559.7,665.1,559.6,666.5,559.6z"></path>
	</g>
	<g>
		<path d="M677.1,551.3c0.4-1.3,0.8-2.5,1.3-3.8l1.6,3.5c1.2-0.5,2.5-0.9,3.8-1.3c-0.6,1.2-1.3,2.3-1.8,3.4c1.1,0.6,2.2,1.4,3.2,2.1
			c-1.2,0.2-2.4,0.4-3.6,0.7c0.2,1.2,0.5,2.5,0.7,3.7c-1-0.8-2-1.5-3-2.3c-0.8,0.9-1.5,2-2.2,2.9c-0.2-1.2-0.3-2.5-0.4-3.8
			c-1.3,0-2.6,0-3.9,0.2c0.9-1,1.9-1.9,2.8-2.8l-2.4-3C674.4,550.9,675.8,551.2,677.1,551.3z"></path>
	</g>
	<g>
		<path d="M689.2,545.4c0.6-1.2,1.3-2.3,2-3.5l0.9,3.8c1.3-0.2,2.6-0.4,3.9-0.6c-0.9,1-1.7,2-2.5,3c0.9,0.9,1.9,1.8,2.7,2.7
			c-1.2-0.1-2.4-0.1-3.7,0c0,1.3-0.1,2.5,0,3.8c-0.8-1-1.6-1.9-2.5-2.9c-1,0.8-1.9,1.6-2.8,2.4c0.1-1.3,0.2-2.5,0.3-3.8
			c-1.2-0.2-2.5-0.5-3.8-0.6c1.1-0.8,2.2-1.5,3.3-2.2l-1.8-3.4C686.7,544.5,687.9,545,689.2,545.4z"></path>
	</g>
	<g>
		<path d="M702.2,542c0.9-1,1.8-2,2.7-3l0.1,3.9c1.3,0,2.7,0.2,4,0.3c-1.1,0.8-2.1,1.6-3,2.4c0.7,1.1,1.5,2.1,2.1,3.2
			c-1.2-0.3-2.4-0.6-3.6-0.8c-0.3,1.2-0.6,2.5-0.8,3.7c-0.6-1.1-1.2-2.2-1.9-3.3c-1.1,0.6-2.2,1.2-3.2,1.8c0.3-1.2,0.7-2.4,1.1-3.7
			c-1.2-0.5-2.4-0.9-3.6-1.4c1.2-0.5,2.5-1,3.7-1.4l-1-3.7C699.9,540.7,701.1,541.3,702.2,542z"></path>
	</g>
	<g>
		<path d="M715.6,541.4c1-0.8,2.1-1.6,3.2-2.4l-0.7,3.8c1.3,0.3,2.6,0.7,3.8,1c-1.2,0.6-2.3,1.2-3.5,1.8c0.5,1.2,1,2.4,1.5,3.5
			c-1.1-0.5-2.2-1-3.4-1.5c-0.5,1.2-1,2.3-1.5,3.5c-0.4-1.2-0.8-2.4-1.2-3.6c-1.2,0.3-2.4,0.7-3.5,1.1c0.6-1.1,1.2-2.3,1.8-3.4
			c-1.1-0.7-2.1-1.4-3.3-2.1c1.3-0.2,2.6-0.5,3.9-0.6l-0.3-3.8C713.7,539.6,714.7,540.5,715.6,541.4z"></path>
	</g>
	<g>
		<path d="M728.9,543.4c1.2-0.6,2.4-1.1,3.7-1.7l-1.4,3.6c1.2,0.6,2.4,1.2,3.6,1.8c-1.3,0.3-2.5,0.7-3.8,1c0.3,1.3,0.5,2.5,0.7,3.8
			c-1-0.7-2-1.5-3-2.1c-0.8,1-1.5,2.1-2.2,3.1c-0.1-1.3-0.3-2.5-0.4-3.8c-1.2,0.1-2.5,0.2-3.7,0.4c0.8-1,1.6-2,2.5-3
			c-0.9-0.9-1.8-1.8-2.8-2.7c1.3,0,2.7,0,4,0.1l0.5-3.8C727.4,541.2,728.2,542.3,728.9,543.4z"></path>
	</g>
	<g>
		<path d="M741.5,548.1c1.3-0.3,2.6-0.6,3.9-0.9l-2.1,3.2c1,0.8,2.1,1.6,3.1,2.5c-1.3,0-2.6,0.1-3.9,0.2c0,1.3,0,2.6-0.1,3.8
			c-0.8-0.9-1.6-1.8-2.5-2.7c-1,0.9-1.9,1.7-2.8,2.6c0.2-1.3,0.3-2.5,0.4-3.8c-1.2-0.2-2.4-0.3-3.7-0.3c1-0.8,2-1.6,3-2.4
			c-0.7-1.1-1.4-2.1-2.2-3.2c1.3,0.3,2.6,0.6,3.9,1l1.3-3.6C740.5,545.7,741,546.8,741.5,548.1z"></path>
	</g>
	<g>
		<path d="M752.9,555.2c1.3-0.1,2.7-0.1,4-0.1l-2.7,2.7c0.9,1,1.7,2,2.5,3.1c-1.3-0.2-2.6-0.4-3.8-0.5c-0.2,1.3-0.5,2.5-0.8,3.7
			c-0.6-1-1.2-2.1-1.9-3.1c-1.1,0.6-2.2,1.3-3.3,2c0.4-1.2,0.8-2.4,1.1-3.7c-1.2-0.4-2.3-0.8-3.5-1.1c1.1-0.6,2.3-1.2,3.4-1.7
			c-0.4-1.2-1-2.4-1.5-3.6c1.2,0.5,2.4,1.1,3.6,1.7l2-3.3C752.4,552.6,752.7,553.9,752.9,555.2z"></path>
	</g>
	<g>
		<path d="M762.7,564.5c1.3,0.2,2.6,0.4,4,0.7l-3.2,2.1c0.7,1.1,1.3,2.3,1.9,3.5c-1.2-0.5-2.4-0.9-3.7-1.3c-0.5,1.2-1,2.3-1.5,3.5
			c-0.3-1.2-0.8-2.3-1.2-3.5c-1.2,0.4-2.4,0.8-3.6,1.3c0.6-1.1,1.2-2.2,1.8-3.4c-1.1-0.6-2.2-1.2-3.2-1.8c1.2-0.4,2.4-0.7,3.7-1
			c-0.2-1.3-0.4-2.5-0.7-3.8c1.1,0.7,2.1,1.6,3.2,2.4l2.6-2.8C762.7,561.8,762.7,563.1,762.7,564.5z"></path>
	</g>
	<g>
		<path d="M770.4,575.5c1.3,0.4,2.5,1,3.7,1.5l-3.6,1.5c0.5,1.2,0.8,2.6,1.1,3.8c-1.1-0.7-2.2-1.4-3.3-2c-0.7,1.1-1.5,2.1-2.2,3.1
			c-0.1-1.2-0.3-2.4-0.5-3.6c-1.3,0.2-2.5,0.3-3.8,0.5c0.8-0.9,1.6-1.9,2.5-2.9c-0.9-0.8-1.9-1.6-2.8-2.4c1.2-0.1,2.5-0.2,3.8-0.2
			c0-1.3,0.1-2.6,0-3.9c0.9,0.9,1.8,2,2.7,3l3.1-2.3C770.9,572.9,770.6,574.2,770.4,575.5z"></path>
	</g>
	<g>
		<path d="M775.7,587.9c1.1,0.7,2.2,1.4,3.4,2.2l-3.8,0.7c0.2,1.3,0.2,2.7,0.4,4c-1-0.9-1.9-1.8-2.8-2.6c-0.9,0.9-1.9,1.8-2.8,2.6
			c0.1-1.2,0.2-2.4,0.2-3.7c-1.3-0.1-2.5-0.2-3.8-0.2c1-0.8,2-1.5,3-2.4c-0.7-1-1.5-2-2.3-2.9c1.3,0.1,2.5,0.3,3.8,0.5
			c0.3-1.2,0.6-2.5,0.8-3.8c0.7,1.1,1.3,2.3,2,3.5l3.5-1.6C776.7,585.4,776.2,586.6,775.7,587.9z"></path>
	</g>
	<g>
		<path d="M778.4,601c0.9,0.9,1.9,1.9,2.8,2.8l-3.9-0.1c-0.1,1.3-0.3,2.6-0.5,4c-0.8-1.1-1.5-2.1-2.3-3.2c-1.1,0.7-2.2,1.4-3.3,2
			c0.4-1.2,0.7-2.4,1-3.6c-1.2-0.4-2.4-0.7-3.7-1c1.1-0.5,2.3-1.1,3.4-1.7c-0.5-1.1-1.1-2.2-1.6-3.3c1.2,0.4,2.4,0.8,3.6,1.3
			c0.5-1.1,1.1-2.3,1.6-3.6c0.4,1.3,0.9,2.5,1.2,3.8l3.8-0.8C779.9,598.8,779.2,600,778.4,601z"></path>
	</g>
</g>
<path transform="matrix(1, 0, 0, 1, 122.32479095458984, 100.65203094482422)" style="fill: rgb(1, 1, 1);" d="M712.2,376.8c-35.6,0-64.5,28.9-64.5,64.5c0,35.6,28.9,64.5,64.5,64.5c35.6,0,64.5-28.9,64.5-64.5
	C776.7,405.7,747.8,376.8,712.2,376.8z M692.3,454.3c1.1-3.2-0.1-6.8-2.8-8.8l-24.8-18h30.6c3.4,0,6.4-2.2,7.5-5.4l9.5-29.1
	l9.5,29.1c1.1,3.2,4.1,5.4,7.5,5.4h30.6l-24.8,18c-2.8,2-3.9,5.5-2.8,8.8l9.5,29.1l-24.8-18c-1.3-1-2.9-1.5-4.6-1.5
	c-1.7,0-3.3,0.5-4.6,1.5l-24.8,18L692.3,454.3z" class="st2"></path>
<path transform="matrix(1, 0, 0, 1, 122.32479095458984, 100.65203094482422)" d="M 392.8999938964844 372.1000061035156 L 406.29998779296875 391.20001220703125 L 427.5 381.3999938964844 L 429.6000061035156 404.6000061035156 L 452.79998779296875 406.70001220703125 L 443 427.79998779296875 L 462 441.29998779296875 L 443 454.70001220703125 L 452.79998779296875 475.79998779296875 L 429.6000061035156 477.8999938964844 L 427.5 501.1000061035156 L 406.29998779296875 491.29998779296875 L 392.8999938964844 510.3999938964844 L 379.5 491.29998779296875 L 358.29998779296875 501.1000061035156 L 356.20001220703125 477.8999938964844 L 333 475.79998779296875 L 342.79998779296875 454.70001220703125 L 323.79998779296875 441.29998779296875 L 342.79998779296875 427.79998779296875 L 333 406.70001220703125 L 356.20001220703125 404.6000061035156 L 358.29998779296875 381.3999938964844 L 379.5 391.20001220703125 Z"></path>
<g transform="matrix(1, 0, 0, 1, 122.32479095458984, 100.65203094482422)">
	<path d="M538.5,388.1c-3.1-1.4-22.4-10.4-22.4-10.4s-1.9,21.3-2.2,24.6c-3.3,0.3-24.6,2.2-24.6,2.2s9,19.4,10.4,22.4
		c-2.8,1.9-20.2,14.2-20.2,14.2s17.5,12.3,20.2,14.2c-1.4,3.1-10.4,22.4-10.4,22.4s21.3,1.9,24.6,2.2c0.3,3.3,2.2,24.6,2.2,24.6
		s19.4-9,22.4-10.4c1.9,2.8,14.2,20.2,14.2,20.2s12.3-17.5,14.2-20.2c3.1,1.4,22.4,10.4,22.4,10.4s1.9-21.3,2.2-24.6
		c3.3-0.3,24.6-2.2,24.6-2.2s-9-19.4-10.4-22.4c2.7-1.9,20.2-14.2,20.2-14.2S608.6,429,605.9,427c1.4-3.1,10.4-22.4,10.4-22.4
		s-21.3-1.9-24.6-2.2c-0.3-3.3-2.2-24.6-2.2-24.6s-19.4,9-22.4,10.4c-1.9-2.8-14.2-20.2-14.2-20.2S540.4,385.4,538.5,388.1z
		 M552.7,376.3c2.9,4.1,12.6,17.9,12.6,17.9s15.3-7.1,19.9-9.2c0.4,5,2,21.8,2,21.8s16.8,1.5,21.8,2c-2.1,4.5-9.2,19.9-9.2,19.9
		s13.8,9.7,17.9,12.6c-4.1,2.9-17.9,12.6-17.9,12.6s7.1,15.3,9.2,19.9c-5,0.4-21.8,2-21.8,2s-1.5,16.8-2,21.8
		c-4.5-2.1-19.9-9.2-19.9-9.2s-9.7,13.8-12.6,17.9c-2.9-4.1-12.6-17.9-12.6-17.9s-15.3,7.1-19.9,9.2c-0.4-5-2-21.8-2-21.8
		s-16.8-1.5-21.8-2c2.1-4.5,9.2-19.9,9.2-19.9s-13.8-9.7-17.9-12.6c4.1-2.9,17.9-12.6,17.9-12.6s-7.1-15.3-9.2-19.9
		c5-0.4,21.8-2,21.8-2s1.5-16.8,2-21.8c4.5,2.1,19.9,9.2,19.9,9.2S549.9,380.4,552.7,376.3z"></path>
</g>
<g transform="matrix(1, 0, 0, 1, 122.32479095458984, 100.65203094482422)">
	<g>
		<path d="M86.4,554.6c-3.1-1.4-22.4-10.4-22.4-10.4s-1.9,21.3-2.2,24.6c-3.3,0.3-24.6,2.2-24.6,2.2s9,19.4,10.4,22.4
			c-2.7,1.9-20.2,14.2-20.2,14.2s17.5,12.3,20.2,14.2c-1.4,3.1-10.4,22.4-10.4,22.4s21.3,1.9,24.6,2.2c0.3,3.3,2.2,24.6,2.2,24.6
			s19.4-9,22.4-10.4c1.9,2.7,14.2,20.2,14.2,20.2s12.3-17.5,14.2-20.2c3.1,1.4,22.4,10.4,22.4,10.4s1.9-21.3,2.2-24.6
			c3.3-0.3,24.6-2.2,24.6-2.2s-9-19.4-10.4-22.4c2.7-1.9,20.2-14.2,20.2-14.2s-17.5-12.3-20.2-14.2c1.4-3.1,10.4-22.4,10.4-22.4
			s-21.3-1.9-24.6-2.2c-0.3-3.3-2.2-24.6-2.2-24.6s-19.4,9-22.4,10.4c-1.9-2.7-14.2-20.2-14.2-20.2S88.4,551.9,86.4,554.6z
			 M100.7,542.8c2.9,4.1,12.6,17.9,12.6,17.9s15.3-7.1,19.9-9.2c0.4,5,2,21.8,2,21.8s16.8,1.5,21.8,2c-2.1,4.5-9.2,19.9-9.2,19.9
			s13.8,9.7,17.9,12.6c-4.1,2.9-17.9,12.6-17.9,12.6s7.1,15.3,9.2,19.9c-5,0.4-21.8,2-21.8,2s-1.5,16.8-2,21.8
			c-4.5-2.1-19.9-9.2-19.9-9.2s-9.7,13.8-12.6,17.9c-2.9-4.1-12.6-17.9-12.6-17.9s-15.3,7.1-19.9,9.2c-0.4-5-2-21.8-2-21.8
			s-16.8-1.5-21.8-2c2.1-4.5,9.2-19.9,9.2-19.9s-13.8-9.7-17.9-12.6c4.1-2.9,17.9-12.6,17.9-12.6s-7.1-15.3-9.2-19.9
			c5-0.4,21.8-2,21.8-2s1.5-16.8,2-21.8c4.5,2.1,19.9,9.2,19.9,9.2S97.8,546.9,100.7,542.8z"></path>
	</g>
	<g>
		<path d="M91.3,572.7c-2-0.9-14.8-6.9-14.8-6.9s-1.3,14.1-1.5,16.3c-2.2,0.2-16.3,1.5-16.3,1.5s5.9,12.8,6.9,14.8
			c-1.8,1.3-13.4,9.4-13.4,9.4s11.5,8.1,13.4,9.4c-0.9,2-6.9,14.8-6.9,14.8s14.1,1.3,16.3,1.5c0.2,2.2,1.5,16.3,1.5,16.3
			s12.8-5.9,14.8-6.9c1.3,1.8,9.4,13.4,9.4,13.4s8.1-11.5,9.4-13.4c2,0.9,14.8,6.9,14.8,6.9s1.3-14.1,1.5-16.3
			c2.2-0.2,16.3-1.5,16.3-1.5s-5.9-12.8-6.9-14.8c1.8-1.3,13.4-9.4,13.4-9.4s-11.5-8.1-13.4-9.4c0.9-2,6.9-14.8,6.9-14.8
			s-14.1-1.3-16.3-1.5c-0.2-2.2-1.5-16.3-1.5-16.3s-12.8,5.9-14.8,6.9c-1.3-1.8-9.4-13.4-9.4-13.4S92.5,570.8,91.3,572.7z
			 M100.7,564.8c1.9,2.7,8.3,11.8,8.3,11.8s10.1-4.7,13.1-6.1c0.3,3.3,1.3,14.4,1.3,14.4s11.1,1,14.4,1.3c-1.4,3-6.1,13.1-6.1,13.1
			s9.1,6.4,11.8,8.3c-2.7,1.9-11.8,8.3-11.8,8.3s4.7,10.1,6.1,13.1c-3.3,0.3-14.4,1.3-14.4,1.3s-1,11.1-1.3,14.4
			c-3-1.4-13.1-6.1-13.1-6.1s-6.4,9.1-8.3,11.8c-1.9-2.7-8.3-11.8-8.3-11.8s-10.1,4.7-13.1,6.1c-0.3-3.3-1.3-14.4-1.3-14.4
			s-11.1-1-14.4-1.3c1.4-3,6.1-13.1,6.1-13.1s-9.1-6.4-11.8-8.3c2.7-1.9,11.8-8.3,11.8-8.3s-4.7-10.1-6.1-13.1
			c3.3-0.3,14.4-1.3,14.4-1.3s1-11.1,1.3-14.4c3,1.4,13.1,6.1,13.1,6.1S98.8,567.5,100.7,564.8z"></path>
	</g>
	<g>
		<path d="M95.1,587c-1.2-0.6-8.8-4.1-8.8-4.1s-0.8,8.3-0.9,9.6c-1.3,0.1-9.6,0.9-9.6,0.9s3.5,7.6,4.1,8.8c-1.1,0.8-7.9,5.6-7.9,5.6
			s6.8,4.8,7.9,5.6c-0.6,1.2-4.1,8.8-4.1,8.8s8.3,0.8,9.6,0.9c0.1,1.3,0.9,9.6,0.9,9.6s7.6-3.5,8.8-4.1c0.8,1.1,5.6,7.9,5.6,7.9
			s4.8-6.8,5.6-7.9c1.2,0.6,8.8,4.1,8.8,4.1s0.8-8.3,0.9-9.6c1.3-0.1,9.6-0.9,9.6-0.9s-3.5-7.6-4.1-8.8c1.1-0.8,7.9-5.6,7.9-5.6
			s-6.8-4.8-7.9-5.6c0.6-1.2,4.1-8.8,4.1-8.8s-8.3-0.8-9.6-0.9c-0.1-1.3-0.9-9.6-0.9-9.6s-7.6,3.5-8.8,4.1c-0.8-1.1-5.6-7.9-5.6-7.9
			S95.9,585.9,95.1,587z M100.7,582.3c1.1,1.6,4.9,7,4.9,7s6-2.8,7.8-3.6c0.2,1.9,0.8,8.5,0.8,8.5s6.6,0.6,8.5,0.8
			c-0.8,1.8-3.6,7.8-3.6,7.8s5.4,3.8,7,4.9c-1.6,1.1-7,4.9-7,4.9s2.8,6,3.6,7.8c-1.9,0.2-8.5,0.8-8.5,0.8s-0.6,6.6-0.8,8.5
			c-1.8-0.8-7.8-3.6-7.8-3.6s-3.8,5.4-4.9,7c-1.1-1.6-4.9-7-4.9-7s-6,2.8-7.8,3.6c-0.2-1.9-0.8-8.5-0.8-8.5s-6.6-0.6-8.5-0.8
			c0.8-1.8,3.6-7.8,3.6-7.8s-5.4-3.8-7-4.9c1.6-1.1,7-4.9,7-4.9s-2.8-6-3.6-7.8c1.9-0.2,8.5-0.8,8.5-0.8s0.6-6.6,0.8-8.5
			c1.8,0.8,7.8,3.6,7.8,3.6S99.5,583.9,100.7,582.3z"></path>
	</g>
</g>
<g transform="matrix(1, 0, 0, 1, 122.32479095458984, 100.65203094482422)">
	<path d="M54.7,395.3c-12.3,12.3-19,28.6-19,45.9c0,17.4,6.8,33.7,19,45.9c12.3,12.3,28.6,19,45.9,19c17.4,0,33.7-6.8,45.9-19
		c12.3-12.3,19-28.6,19-45.9c0-17.4-6.8-33.7-19-45.9c-12.3-12.3-28.6-19-45.9-19C83.3,376.3,67,383,54.7,395.3z M58.1,483.8
		c-11.4-11.4-17.6-26.5-17.6-42.5c0-16.1,6.3-31.2,17.6-42.5c11.4-11.4,26.5-17.6,42.5-17.6c16.1,0,31.2,6.3,42.5,17.6
		c11.4,11.4,17.6,26.5,17.6,42.5c0,16.1-6.3,31.2-17.6,42.5c-11.4,11.4-26.5,17.6-42.5,17.6C84.6,501.4,69.5,495.1,58.1,483.8z"></path>
	<path d="M76.2,420.9c-3.8,0.6-36.5,5.6-36.5,5.6s27.3,18.7,30.5,20.9c-1.9,3.4-18.4,32-18.4,32s31.6-9.7,35.3-10.8
		c1.4,3.6,13.6,34.4,13.6,34.4s12.1-30.8,13.6-34.4c3.7,1.1,35.3,10.8,35.3,10.8s-16.5-28.7-18.4-32c3.2-2.2,30.5-20.9,30.5-20.9
		s-32.7-5-36.5-5.6c0.3-3.9,2.7-36.8,2.7-36.8s-24.3,22.4-27.1,25.1c-2.9-2.6-27.1-25.1-27.1-25.1S75.9,417,76.2,420.9z
		 M122.1,395.9C121.5,404,120,425,120,425s20.8,3.2,28.8,4.4c-6.7,4.6-24.1,16.5-24.1,16.5s10.5,18.3,14.5,25.3
		c-7.8-2.4-27.9-8.5-27.9-8.5s-7.7,19.6-10.7,27.1c-3-7.6-10.7-27.1-10.7-27.1s-20.1,6.2-27.9,8.5c4-7,14.5-25.3,14.5-25.3
		S59.2,434,52.5,429.4c8-1.2,28.8-4.4,28.8-4.4s-1.5-21-2.1-29.1c6,5.5,21.4,19.8,21.4,19.8S116.1,401.4,122.1,395.9z"></path>
</g>
<g transform="matrix(1, 0, 0, 1, 122.32479095458984, 100.65203094482422)">
	<g>
		<path d="M620.7,623.8c-2.4,0.8-4.9,1.4-7.3,1.9c-1.1,2.4-2.3,4.7-3.7,7c-0.8-2.4-1.7-4.7-2.8-6.9c-2.4-0.4-4.8-0.8-7.2-1.3
			c1.7-1.3,3.4-2.8,4.9-4.5c-0.7-2.2-1.4-4.3-2.4-6.2c2.4,0.6,4.7,1.3,7.1,2.1c1.9-1.5,3.8-3.1,5.7-4.8c0.2,2.6,0.3,5.2,0.1,7.9
			C616.9,620.4,618.8,622,620.7,623.8z"></path>
	</g>
	<g>
		<path d="M608.2,649.8c-2.5-0.3-5-0.7-7.5-1.3c-2,1.8-4.1,3.4-6.2,4.9c0.2-2.5,0.3-5,0.2-7.4c-2.1-1.4-4.1-2.7-6.1-4.2
			c2.1-0.5,4.2-1.2,6.3-2.1c0.3-2.3,0.4-4.5,0.4-6.7c1.9,1.6,3.7,3.1,5.6,4.8c2.4-0.5,4.8-1.2,7.1-2.1c-0.8,2.5-1.9,4.9-3.1,7.3
			C606.2,645.1,607.3,647.5,608.2,649.8z"></path>
	</g>
	<g>
		<path d="M586.3,668.5c-2.2-1.4-4.3-2.7-6.3-4.2c-2.5,0.8-5.1,1.4-7.7,1.9c1.3-2.2,2.3-4.5,3.2-6.7c-1.3-2-2.6-4.2-3.8-6.3
			c2.1,0.4,4.4,0.6,6.6,0.7c1.2-2,2.2-3.9,3.1-5.9c1.1,2.2,2.2,4.4,3.2,6.7c2.4,0.5,4.8,0.8,7.4,1c-1.8,1.9-3.7,3.7-5.8,5.4
			C586.4,663.4,586.4,665.9,586.3,668.5z"></path>
	</g>
	<g>
		<path d="M558.6,676.7c-1.5-2.1-2.8-4.2-4-6.4c-2.6-0.3-5.2-0.8-7.8-1.4c2-1.5,3.9-3.1,5.7-4.8c-0.4-2.4-0.7-4.9-1-7.3
			c1.8,1.2,3.8,2.3,5.8,3.3c1.9-1.3,3.6-2.7,5.2-4.1c0.1,2.4,0.2,4.9,0.2,7.4c2,1.4,4.1,2.7,6.3,3.9c-2.4,1-4.9,1.9-7.5,2.5
			C560.8,672,559.8,674.4,558.6,676.7z"></path>
	</g>
	<g>
		<path d="M530.1,672.9c-0.5-2.5-0.8-5-1.1-7.5c-2.3-1.4-4.5-2.8-6.5-4.4c2.5-0.5,4.9-1.2,7.1-2.1c0.7-2.4,1.3-4.7,2.1-7
			c1.2,1.8,2.5,3.6,3.9,5.4c2.2-0.4,4.4-1,6.5-1.7c-0.9,2.3-1.8,4.6-2.8,6.8c1.2,2.1,2.6,4.1,4.2,6.1c-2.6-0.1-5.2-0.3-7.9-0.7
			C533.9,669.6,532,671.2,530.1,672.9z"></path>
	</g>
	<g>
		<path d="M505.5,657.8c0.6-2.5,1.3-4.9,2.1-7.3c-1.6-2.1-2.9-4.4-4.2-6.7c2.5,0.5,4.9,0.8,7.4,1c1.6-1.9,3.1-3.8,4.8-5.6
			c0.3,2.1,0.8,4.3,1.4,6.5c2.2,0.6,4.4,0.9,6.6,1.1c-1.7,1.7-3.5,3.4-5.3,5c0.3,2.4,0.7,4.9,1.4,7.3c-2.4-1.1-4.7-2.4-6.9-3.8
			C510.4,656.3,508,657.1,505.5,657.8z"></path>
	</g>
	<g>
		<path d="M489.2,634c1.6-2.1,3.1-4,4.9-5.8c-0.6-2.6-0.9-5.2-1.1-7.8c2.1,1.5,4.2,2.8,6.3,3.9c2.2-1.1,4.4-2.2,6.7-3.2
			c-0.6,2.1-1,4.3-1.4,6.5c1.8,1.4,3.7,2.6,5.6,3.7c-2.3,0.9-4.6,1.7-6.9,2.4c-0.7,2.3-1.3,4.7-1.7,7.2c-1.7-2-3.3-4.1-4.8-6.3
			C494.3,634.6,491.7,634.4,489.2,634z"></path>
	</g>
	<g>
		<path d="M484,605.7c2.2-1.2,4.5-2.4,6.8-3.3c0.5-2.6,1.3-5.1,2.2-7.6c1.3,2.2,2.7,4.2,4.2,6.1c2.5-0.1,4.9-0.2,7.4-0.2
			c-1.4,1.7-2.7,3.5-3.9,5.4c1.1,2,2.3,3.9,3.6,5.6c-2.4-0.1-4.9-0.3-7.3-0.6c-1.6,1.8-3.1,3.8-4.5,5.9c-0.7-2.5-1.3-5.1-1.7-7.7
			C488.4,608.3,486.2,607,484,605.7z"></path>
	</g>
	<g>
		<path d="M490.7,577.6c2.6-0.2,5.1-0.3,7.6-0.3c1.6-2.1,3.3-4.2,5.1-6c0.3,2.5,0.7,5,1.3,7.3c2.3,0.9,4.6,1.8,6.8,2.8
			c-2,1-3.9,2.1-5.8,3.4c0.2,2.3,0.5,4.5,1,6.6c-2.2-1.1-4.4-2.3-6.5-3.5c-2.2,1-4.4,2.2-6.5,3.6c0.3-2.6,0.8-5.2,1.5-7.7
			C493.7,581.8,492.2,579.8,490.7,577.6z"></path>
	</g>
	<g>
		<path d="M508.3,554.8c2.4,0.8,4.8,1.8,7,2.8c2.3-1.3,4.7-2.5,7.1-3.4c-0.8,2.4-1.3,4.8-1.8,7.2c1.7,1.7,3.4,3.5,5.1,5.3
			c-2.2,0.1-4.4,0.3-6.6,0.8c-0.8,2.1-1.4,4.3-1.8,6.4c-1.5-1.9-3-3.9-4.5-5.8c-2.4,0-4.9,0.2-7.4,0.6c1.4-2.2,2.9-4.4,4.5-6.4
			C509.3,559.8,508.8,557.3,508.3,554.8z"></path>
	</g>
	<g>
		<path d="M533.7,541.1c1.9,1.8,3.6,3.5,5.3,5.4c2.6-0.3,5.3-0.3,7.9-0.3c-1.7,1.9-3.2,3.9-4.6,5.9c0.9,2.3,1.7,4.6,2.4,6.9
			c-2-0.8-4.1-1.5-6.4-2c-1.6,1.6-3,3.4-4.2,5.1c-0.6-2.4-1.2-4.7-1.7-7.1c-2.2-1-4.6-1.8-7-2.5c2.1-1.5,4.4-2.8,6.8-4.1
			C532.6,546.1,533,543.5,533.7,541.1z"></path>
	</g>
	<g>
		<path d="M562.4,538.9c1,2.3,1.9,4.7,2.6,7.1c2.5,0.8,5,1.8,7.3,3c-2.3,1.1-4.5,2.2-6.5,3.5c-0.1,2.5-0.3,4.9-0.6,7.3
			c-1.5-1.5-3.2-3.1-5-4.4c-2.1,0.9-4.1,1.9-6,3c0.4-2.4,0.9-4.8,1.4-7.2c-1.6-1.8-3.4-3.5-5.4-5.1c2.6-0.4,5.2-0.8,7.8-0.9
			C559.4,542.9,560.8,540.9,562.4,538.9z"></path>
	</g>
	<g>
		<path d="M589.6,548.5c-0.1,2.6-0.2,5.1-0.5,7.6c2,1.8,3.8,3.7,5.5,5.7c-2.5,0-5,0.2-7.4,0.6c-1.1,2.2-2.3,4.4-3.5,6.5
			c-0.7-2.1-1.7-4.1-2.7-6.1c-2.3-0.1-4.5,0-6.7,0.3c1.4-2.1,2.7-4.1,4.2-6.1c-0.8-2.3-1.7-4.6-2.9-6.9c2.6,0.6,5,1.4,7.5,2.3
			C585.1,551,587.3,549.7,589.6,548.5z"></path>
	</g>
	<g>
		<path d="M610.4,568.4c-1.1,2.3-2.3,4.6-3.5,6.7c1,2.5,2,4.9,2.7,7.4c-2.3-1-4.7-1.8-7-2.5c-1.9,1.5-3.8,3-5.8,4.5
			c0.1-2.2,0.1-4.4,0-6.7c-2.1-1-4.1-1.8-6.2-2.4c2.1-1.3,4.2-2.6,6.3-3.8c0.2-2.4,0.3-4.9,0.2-7.4c2,1.6,4.1,3.3,5.9,5.2
			C605.4,568.8,607.9,568.6,610.4,568.4z"></path>
	</g>
	<g>
		<path d="M621.4,595c-1.9,1.7-3.9,3.2-6,4.7c0,2.7-0.2,5.3-0.6,7.9c-1.7-1.9-3.5-3.6-5.4-5.1c-2.4,0.6-4.8,1.2-7.2,1.7
			c1-1.9,1.9-4,2.7-6.1c-1.5-1.7-3.1-3.3-4.7-4.8c2.4-0.4,4.8-0.7,7.3-0.9c1.2-2.1,2.3-4.4,3.2-6.7c1.3,2.3,2.4,4.7,3.3,7.2
			C616.6,593.4,619.1,594.1,621.4,595z"></path>
	</g>
</g>
<path transform="matrix(1, 0, 0, 1, 122.32479095458984, 100.65203094482422)" style="fill-rule: evenodd; clip-rule: evenodd;" d="M914.9,148.4h-26.6l-18.8,18.8l-18.8-18.8h-26.6v-26.6l-18.8-18.8l18.8-18.8V57.7h26.6L869.5,39l18.8,18.8h26.6
	v26.6l18.8,18.8l-18.8,18.8V148.4z M859.7,66.7l-3.7,3.7c0,0-12.2,0-19.1,0c0,6.9,0,19.1,0,19.1s-8.6,8.6-13.5,13.5
	c4.9,4.9,13.5,13.5,13.5,13.5s0,12.2,0,19.1c6.9,0,19.1,0,19.1,0s8.6,8.6,13.5,13.5c4.9-4.9,13.5-13.5,13.5-13.5s12.2,0,19.1,0
	c0-6.9,0-19.1,0-19.1s8.6-8.6,13.5-13.5c-4.9-4.9-13.5-13.5-13.5-13.5s0-12.2,0-19.1c-6.9,0-19.1,0-19.1,0s-8.6-8.6-13.5-13.5
	C864.6,61.8,859.7,66.7,859.7,66.7z" class="st1"></path>
<path transform="matrix(1, 0, 0, 1, 122.32479095458984, 100.65203094482422)" style="fill-rule: evenodd; clip-rule: evenodd;" d="M915.1,289.9L934,271l-18.9-18.9v-26.7h-26.7l-18.9-18.9l-18.9,18.9H824v26.7L805.1,271l18.9,18.9v26.7h26.7
	l18.9,18.9l18.9-18.9h26.7V289.9z" class="st1"></path>
<path transform="matrix(1, 0, 0, 1, 122.32479095458984, 100.65203094482422)" style="fill-rule: evenodd; clip-rule: evenodd;" d="M927.3,441.2l8.3,13.1l-12.7,9l2.6,15.3l-15.2,3.4l-3.4,15.2l-15.3-2.6l-9,12.7l-13.1-8.3l-13.1,8.3l-9-12.7
	l-15.3,2.6l-3.4-15.2l-15.2-3.4l2.6-15.3l-12.7-9l8.3-13.1l-8.3-13.1l12.7-9l-2.6-15.3l15.2-3.4l3.4-15.2l15.3,2.6l9-12.7l13.1,8.3
	l13.1-8.3l9,12.7l15.3-2.6l3.4,15.2l15.2,3.4l-2.6,15.3l12.7,9L927.3,441.2z M921.4,406.5l-14.1-3.2l-3.2-14.1l-14.2,2.5l-8.3-11.8
	l-12.2,7.7l-12.2-7.7l-8.3,11.8l-14.2-2.4l-3.2,14.1l-14.1,3.2l2.5,14.2l-11.8,8.3l7.7,12.2l-7.7,12.2l11.8,8.3l-2.4,14.2l14.1,3.2
	l3.2,14.1l14.2-2.5l8.3,11.8l12.2-7.7l12.2,7.7l8.3-11.8l14.2,2.4l3.2-14.1l14.1-3.2l-2.5-14.2l11.8-8.3l-7.7-12.2l7.7-12.2
	l-11.8-8.3L921.4,406.5z M920,441.2l7.2,11.5l-11.1,7.8l2.3,13.4l-13.2,3l-3,13.2l-13.4-2.3l-7.8,11.1l-11.5-7.2l-11.5,7.2
	l-7.8-11.1l-13.4,2.3l-3-13.2l-13.2-3l2.3-13.4l-11.1-7.8l7.2-11.5l-7.2-11.5l11.1-7.8l-2.3-13.4l13.2-3l3-13.2l13.4,2.3l7.8-11.1
	l11.5,7.2l11.5-7.3l7.8,11.1l13.4-2.3l3,13.2l13.2,3l-2.3,13.4l11.1,7.8L920,441.2z" class="st1"></path>
<path transform="matrix(1, 0, 0, 1, 122.32479095458984, 100.65203094482422)" style="fill-rule: evenodd; clip-rule: evenodd;" d="M411.5,592.7h48.4l-39.3,30l15.9,47.9l-43.5-28.3l-43.5,28.3l13.7-47.9l-37.2-30h48.6l18.4-47.7L411.5,592.7z
	 M392.9,612.9L336,596.3l-0.4,0.4l31.5,24.7L392.9,612.9z M392.9,613.1l-38.5,49.4l0.4,1.1l38-25.3V613.1z M392.9,612.9v-58.4h-0.4
	l-15.2,40.1L392.9,612.9z M392.9,612.9l57.1-16.9v-0.4h-42.3L392.9,612.9z M392.9,612.9l37.4,49.4l0.4-0.2l-14.4-42.2L392.9,612.9z" class="st1"></path>
<path transform="matrix(1, 0, 0, 1, 122.32479095458984, 100.65203094482422)" style="fill-rule: evenodd; clip-rule: evenodd; fill: rgb(1, 1, 1);" class="st3" d="M 992.2000122070312 41.79999923706055 L 997.2000122070312 82.69999694824219 L 959.9000244140625 65.19999694824219 L 988 95.30000305175781 L 947.5 103.19999694824219 L 988 111.0999984741211 L 960 141 L 997.0999755859375 123.69999694824219 L 992.2000122070312 164.3000030517578 L 1012.0999755859375 128.5 L 1031.9000244140625 164.39999389648438 L 1027.0999755859375 123.69999694824219 L 1064.199951171875 141 L 1036.300048828125 111 L 1076.800048828125 103.19999694824219 L 1036.300048828125 95.30000305175781 L 1064.199951171875 65.30000305175781 L 1027.0999755859375 82.5999984741211 L 1032 41.79999923706055 L 1012.0999755859375 77.9000015258789 Z"></path>
<path transform="matrix(1, 0, 0, 1, 122.32479095458984, 100.65203094482422)" style="fill: rgb(1, 1, 1);" d="M1068,326.9c-18.4-18.4-33.4-35.5-45.7-51.3c0.4-0.9,0.7-1.9,0.9-3c10-1.1,21.3-1.6,33.8-1.6
	c-12.6,0-23.8-0.6-33.8-1.7c-0.2-1-0.4-2-0.9-3c12.3-15.9,27.4-32.9,45.7-51.3c-18.4,18.4-35.5,33.4-51.3,45.7
	c-0.9-0.4-1.9-0.7-3-0.8c-1.1-10-1.7-21.3-1.7-33.8c0,12.6-0.6,23.8-1.6,33.8c-1,0.1-2,0.4-3,0.8c-15.8-12.3-32.9-27.3-51.3-45.7
	c18.4,18.4,33.4,35.5,45.7,51.3c-0.4,0.9-0.7,1.9-0.9,3c-10,1.1-21.3,1.7-33.8,1.7c12.6,0,23.8,0.6,33.8,1.6c0.2,1,0.4,2,0.9,3
	c-12.3,15.9-27.3,32.9-45.7,51.3c18.4-18.4,35.5-33.4,51.3-45.7c0.9,0.4,1.9,0.7,3,0.8c1.1,10,1.6,21.3,1.6,33.8
	c0-12.6,0.6-23.8,1.7-33.8c1-0.2,2-0.4,3-0.8C1032.6,293.5,1049.7,308.6,1068,326.9z" class="st2"></path>
<path transform="matrix(1, 0, 0, 1, 122.32479095458984, 100.65203094482422)" style="fill: rgb(1, 1, 1);" d="M1020.2,433.1c-5.7-26.3-7.6-44.1-8.1-53.4c-0.5,9.3-2.4,27.1-8.1,53.4c-26.3,5.7-44.1,7.6-53.4,8.1
	c9.3,0.5,27.1,2.4,53.4,8.1c5.7,26.3,7.6,44.1,8.1,53.4c0.5-9.3,2.4-27.1,8.1-53.4c26.3-5.7,44.1-7.6,53.4-8.1
	C1064.4,440.8,1046.5,438.9,1020.2,433.1z M1016.8,445.9l-4.6,39.7l-4.6-39.7l-39.7-4.6l39.7-4.6l4.6-39.7l4.6,39.7l39.7,4.6
	L1016.8,445.9z" class="st2"></path>
<path transform="matrix(1, 0, 0, 1, 122.32479095458984, 100.65203094482422)" style="fill-rule: evenodd; clip-rule: evenodd; fill: rgb(1, 1, 1);" d="M926.6,640.7l-44.1-10.6l-12.8,43.2l-12.9-43.3l-44,10.6l31.2-32.8L812.5,575l44.2,10.6l12.8-43.5l13,43.4
	l44.1-10.7l-31.3,33L926.6,640.7z M906.3,586.6l-28.4,6.9l-8.2-27.7l-8.5,27.6l-28.4-6.7l20.2,21.2L833,629l28-6.6l8.5,27.7
	l8.4-27.9l28.4,6.8l-20.1-21.2L906.3,586.6z" class="st3"></path>
<path transform="matrix(1, 0, 0, 1, 122.32479095458984, 100.65203094482422)" style="fill: rgb(1, 1, 1);" class="st2" d="M 1018.5 610.7000122070312 L 1078.800048828125 607.7999877929688 L 1019.2999877929688 604.9000244140625 L 1059 561.0999755859375 L 1015 601 L 1012.0999755859375 541.0999755859375 L 1009.2000122070312 601.4000244140625 L 964.7000122070312 561.0999755859375 L 1004.4000244140625 604.9000244140625 L 945.5 607.7999877929688 L 1005.2999877929688 610.7000122070312 L 964.7000122070312 655.4000244140625 L 1009.2000122070312 615 L 1012.0999755859375 674.4000244140625 L 1015 615.5 L 1059 655.4000244140625 Z"></path>
<path transform="matrix(1, 0, 0, 1, 122.32479095458984, 100.65203094482422)" style="fill-rule: evenodd; clip-rule: evenodd; fill: rgb(1, 1, 1);" class="st3" d="M 379.79998779296875 214.5 L 387.5 260 L 356.6000061035156 226 L 383.20001220703125 263.3999938964844 L 340.6000061035156 245.89999389648438 L 380.8999938964844 268.29998779296875 L 334.8999938964844 271 L 381 273.6000061035156 L 340.6000061035156 296.20001220703125 L 383.29998779296875 278.6000061035156 L 356.70001220703125 316.20001220703125 L 387.3999938964844 282 L 379.79998779296875 327.5 L 392.79998779296875 283.20001220703125 L 405.79998779296875 327.6000061035156 L 398.20001220703125 282 L 428.8999938964844 316.29998779296875 L 402.3999938964844 278.70001220703125 L 445 296.20001220703125 L 404.70001220703125 273.6000061035156 L 450.8999938964844 271 L 404.6000061035156 268.29998779296875 L 445 245.8000030517578 L 402.3999938964844 263.3999938964844 L 428.8999938964844 225.8000030517578 L 398.20001220703125 259.8999938964844 L 405.70001220703125 214.39999389648438 L 392.79998779296875 258.70001220703125 Z"></path>

</svg>
