<svg version="1.1" xmlns="http://www.w3.org/2000/svg" xmlns:xlink="http://www.w3.org/1999/xlink" width="130.47404" height="267.22501" viewBox="0,0,130.47404,267.22501"><g transform="translate(-174.83996,-46.38751)"><g data-paper-data="{&quot;isPaintingLayer&quot;:true}" fill-rule="nonzero" stroke-linejoin="miter" stroke-miterlimit="10" stroke-dasharray="" stroke-dashoffset="0" style="mix-blend-mode: normal"><path d="M179.28374,313.61252c0,0 0,-60.00062 0,-96.80001c0,-48.82807 0,-170.425 0,-170.425h123.18203v267.22501z" fill-opacity="0.01" fill="#000000" stroke="none" stroke-width="0" stroke-linecap="butt"/><path d="M206.75007,307.5l15.14285,-131.8421l37.78325,-0.15789l13.57389,132z" fill="#0aceb2" stroke="#000000" stroke-width="2" stroke-linecap="butt"/><path d="M219.70028,204.11263l3.12142,-26.32765l35.83075,-0.14203l2.76735,26.1059c0,0 -7.51543,4.19603 -21.55904,4.50964c-12.48458,0.27879 -20.16049,-4.14586 -20.16049,-4.14586z" fill="#078d79" stroke="#000000" stroke-width="0" stroke-linecap="butt"/><path d="M175.83997,137.17949c0,-33.30185 28.7599,-60.29833 64.23702,-60.29833c35.47712,0 64.23702,26.99649 64.23702,60.29833c0,33.30185 -28.7599,60.29833 -64.23702,60.29833c-35.47712,0 -64.23702,-26.99649 -64.23702,-60.29833z" fill="#0aceb2" stroke="#000000" stroke-width="2" stroke-linecap="butt"/><path d="M176.56303,136.9c0,-0.72799 5.20666,55.91939 63.36046,56.93429c55.56352,0.9697 63.51358,-57.95314 63.51358,-56.93429c0,32.80479 -28.40173,59.39833 -63.43702,59.39833c-35.03529,0 -63.43702,-26.59354 -63.43702,-59.39833z" fill="#078d79" stroke="#000000" stroke-width="0" stroke-linecap="butt"/><path d="M189.3902,137.27563c0,-12.968 10.51265,-23.48065 23.48065,-23.48065c12.968,0 23.48065,10.51265 23.48065,23.48065c0,12.968 -10.51265,23.48065 -23.48065,23.48065c-12.968,0 -23.48065,-10.51265 -23.48065,-23.48065z" fill="#ffffff" stroke="#000000" stroke-width="2" stroke-linecap="butt"/><path d="M196.45557,137c0,-9.12808 7.39976,-16.52784 16.52783,-16.52784c9.12808,0 16.52784,7.39977 16.52784,16.52784c0,9.12808 -7.39977,16.52784 -16.52784,16.52784c-9.12808,0 -16.52783,-7.39977 -16.52783,-16.52784z" fill="#000000" stroke="none" stroke-width="0" stroke-linecap="butt"/><path d="M252.61664,176.65643c0,0 -5.26387,4.29626 -12.51056,4.29626c-6.84417,0 -12.59903,-4.29626 -12.59903,-4.29626" fill="none" stroke="#000000" stroke-width="2" stroke-linecap="round"/><path d="M267.12926,160.75627c-12.968,0 -23.48065,-10.51265 -23.48065,-23.48065c0,-12.968 10.51265,-23.48065 23.48065,-23.48065c12.968,0 23.48065,10.51265 23.48065,23.48065c0,12.968 -10.51265,23.48065 -23.48065,23.48065z" data-paper-data="{&quot;index&quot;:null}" fill="#ffffff" stroke="#000000" stroke-width="2" stroke-linecap="butt"/><path d="M267.01671,153.52784c-9.12807,0 -16.52783,-7.39977 -16.52783,-16.52784c0,-9.12808 7.39977,-16.52784 16.52783,-16.52784c9.12807,0 16.52783,7.39977 16.52783,16.52784c0,9.12808 -7.39977,16.52784 -16.52783,16.52784z" data-paper-data="{&quot;index&quot;:null}" fill="#000000" stroke="none" stroke-width="0" stroke-linecap="butt"/><path d="M189.3902,137.27563c0,-12.968 10.51265,-23.48065 23.48065,-23.48065c12.968,0 23.48065,10.51265 23.48065,23.48065c0,0 -12.03051,-2.75534 -24.01949,-2.68291c-11.48066,0.06937 -22.94182,2.97335 -22.94182,2.68291z" fill="#0aceb2" stroke="#000000" stroke-width="2" stroke-linecap="butt"/><path d="M243.64863,137.27563c0,-12.968 10.51265,-23.48065 23.48065,-23.48065c12.968,0 23.48065,10.51265 23.48065,23.48065c0,0.29004 -11.94182,-1.94276 -23.43998,-2.01225c-11.97288,-0.07236 -23.52132,2.01225 -23.52132,2.01225z" data-paper-data="{&quot;index&quot;:null}" fill="#0aceb2" stroke="#000000" stroke-width="2" stroke-linecap="butt"/><path d="M202.02784,108.46716c0,0 6.70895,-5.16922 11.79722,-6.36355c5.08827,-1.19433 12.33413,0.69937 12.33413,0.69937c0,0 -8.03812,-0.06028 -11.96762,0.86207c-4.10648,0.96388 -12.16372,4.80211 -12.16372,4.80211z" fill="#000000" stroke="none" stroke-width="0" stroke-linecap="butt"/><path d="M265.96236,103.66506c-3.9295,-0.92235 -11.96762,-0.86207 -11.96762,-0.86207c0,0 7.24586,-1.8937 12.33413,-0.69937c5.08826,1.19433 11.79721,6.36355 11.79721,6.36355c0,0 -8.05724,-3.83822 -12.16372,-4.80211z" data-paper-data="{&quot;index&quot;:null}" fill="#000000" stroke="none" stroke-width="0" stroke-linecap="butt"/><path d="M185.94816,133.92756c1,0 1,1 1,1l-0.10557,0.30279c0.48282,1.14283 1.63209,1.47443 2.85557,1.44721c0,0 1,0 1,1c0,1 -1,1 -1,1c-2.09011,-0.03171 -3.64156,-0.71446 -4.64443,-2.55278l-0.10557,-1.19721c0,0 0,-1 1,-1z" fill="#000000" stroke="none" stroke-width="0.5" stroke-linecap="butt"/><path d="M295.90527,135.47045c0.70711,0.70711 0,1.41422 0,1.41422l-0.75989,0.68732c-1.88862,0.94431 -2.87405,1.46055 -4.89443,0.5c0,0 -0.89443,-0.44721 -0.44722,-1.34164c0.44722,-0.89443 1.34164,-0.44721 1.34164,-0.44721c1.33682,0.7195 1.80108,0.15225 3.10557,-0.5l0.2401,-0.31268c0,0 0.70711,-0.70711 1.41422,0z" fill="#000000" stroke="none" stroke-width="0.5" stroke-linecap="butt"/><path d="M184.50095,139.03313c0.89443,-0.44721 1.34164,0.44721 1.34164,0.44721l0.15557,0.34721c0.74758,1.13949 1.43905,0.9581 2.70746,0.62986c0,0 0.97014,-0.24254 1.21267,0.7276c0.24254,0.97015 -0.7276,1.21268 -0.7276,1.21268c-2.12593,0.51683 -3.38,0.37713 -4.79254,-1.37015l-0.34443,-0.65278c0,0 -0.44721,-0.89443 0.44721,-1.34164z" fill="#000000" stroke="none" stroke-width="0.5" stroke-linecap="butt"/><path d="M296.40527,140.47045c0.70711,0.70711 0,1.41422 0,1.41422l-1.20711,0.79289c-1.61045,-0.05593 -3.24083,0.75 -5,0.75c0,0 -1,0 -1,-1c0,-1 1,-1 1,-1c1.83051,0 3.24248,-0.71177 5,-0.75l-0.20711,-0.20711c0,0 0.70711,-0.70711 1.41422,0z" fill="#000000" stroke="none" stroke-width="0.5" stroke-linecap="butt"/><path d="M183.55373,144.73035c0.44721,-0.89443 1.34164,-0.44721 1.34164,-0.44721l0.05279,0.14443c1.73875,0 3.22762,-0.09516 4.80279,-0.89443c0,0 0.89443,-0.44721 1.34164,0.44721c0.44721,0.89443 -0.44721,1.34164 -0.44721,1.34164c-1.86981,0.92355 -3.63795,1.10557 -5.69721,1.10557l-0.94721,-0.35557c0,0 -0.89443,-0.44721 -0.44721,-1.34164z" fill="#000000" stroke="none" stroke-width="0.5" stroke-linecap="butt"/><path d="M296.94816,147.92756c0,1 -1,1 -1,1l-0.00746,-0.02985c-2.51934,0.61247 -4.79677,0.35001 -6.69965,-1.51304c0,0 -0.70711,-0.70711 0,-1.41422c0.70711,-0.70711 1.41422,0 1.41422,0c1.33062,1.36933 3.0114,1.44991 4.80036,0.98697l0.49253,-0.02986c0,0 1,0 1,1z" fill="#000000" stroke="none" stroke-width="0.5" stroke-linecap="butt"/><g fill="#0aceb2" stroke="#000000" stroke-width="2" stroke-linecap="butt"><path d="M214.73955,73.13491c4.72099,-3.94058 11.4898,-1.76665 14.78557,2.30425c0.53933,0.66618 -1.28377,2.03899 -0.95464,2.78829c0.15425,0.35117 2.55533,0.06101 2.66466,0.43802c1.54949,5.34311 -1.38471,12.96037 -8.02034,13.76424c-11.79171,1.4285 -17.53879,2.38076 -19.87916,-2.94735c-2.34037,-5.32811 4.93646,-10.94911 11.40392,-16.34745z" data-paper-data="{&quot;index&quot;:null}"/><path d="M209.57099,86.40247c2.34037,5.32811 -2.24895,8.91612 -11.27836,16.6333c-5.08119,4.34274 -12.67573,1.35024 -15.5622,-3.4056c-0.20367,-0.33557 1.63441,-1.90746 1.48016,-2.25863c-0.32913,-0.74929 -2.57347,-0.33549 -2.69918,-1.18334c-0.7682,-5.18114 2.21019,-11.63652 8.30598,-12.44722c8.35084,-1.1106 17.41323,-2.66661 19.7536,2.6615z"/><path d="M217.7982,83.78719c1.63404,3.56621 -1.64782,8.5679 -7.33024,11.1716c-5.68242,2.60369 -11.61359,1.82341 -13.24763,-1.74279c-1.63404,-3.56621 1.64782,-8.5679 7.33024,-11.17159c5.68242,-2.60369 11.61359,-1.82342 13.24763,1.74279z"/></g></g></g></svg>