<svg version="1.1" xmlns="http://www.w3.org/2000/svg" xmlns:xlink="http://www.w3.org/1999/xlink" width="34.17311" height="34.17311" viewBox="0,0,34.17311,34.17311"><g transform="translate(-222.91345,-162.91344)"><g data-paper-data="{&quot;isPaintingLayer&quot;:true}" stroke-miterlimit="10" stroke-dasharray="" stroke-dashoffset="0" style="mix-blend-mode: normal"><path d="M229.98313,162.91345h20.03378c3.9166,0 7.06966,3.15307 7.06966,7.06966v20.03379c0,3.91659 -3.15306,7.06966 -7.06966,7.06966h-20.03378c-3.91659,0 -7.06967,-3.15307 -7.06967,-7.06966v-20.03379c0,-3.91659 3.15308,-7.06966 7.06967,-7.06966z" fill-opacity="0.09677" fill="#191919" fill-rule="evenodd" stroke="none" stroke-width="4.43922" stroke-linecap="round" stroke-linejoin="round"/><path d="M231.74742,167.40652c0.99299,1.1313 0.79498,2.80726 -0.33631,3.80025c-1.1313,0.99299 -2.81879,0.97201 -3.81178,-0.15929c-1.08727,-1.04855 -0.87773,-2.90154 0.25356,-3.89453c1.1313,-0.99299 2.90154,-0.87773 3.89453,0.25356zM228.5536,170.04298c0.49649,0.56565 1.28734,0.70603 1.85299,0.20953c0.56565,-0.49649 0.62328,-1.38162 0.12678,-1.94726c-0.41375,-0.47138 -1.29887,-0.529 -1.86452,-0.03251c-0.56565,0.49649 -0.529,1.29886 -0.11526,1.77024z" fill="#000000" fill-rule="nonzero" stroke="#ffffff" stroke-width="0.5" stroke-linecap="butt" stroke-linejoin="miter"/><path d="M231.84996,170.23173l0.77233,0.85214c0.344,0.3767 0.66748,0.68762 0.71873,0.69105c1.6156,-1.07292 2.93329,-2.56683 4.47318,-3.73837l0.4669,0.50817c0.79519,0.86545 0.88298,0.70761 -1.56578,2.81693c-1.1804,1.01673 -2.13997,1.88419 -2.13277,1.92777c0.00729,0.04367 1.27261,1.56434 2.81183,3.37937c1.53922,1.81503 3.78375,4.47392 4.98799,5.90883c1.20416,1.43482 2.29194,2.67069 2.41723,2.74631c0.25992,0.15674 0.84657,-0.0439 1.3055,-0.44672c0.97254,-0.85364 2.36634,-3.39378 3.09579,-5.64153c0.4271,-1.31608 0.4197,-1.79077 -0.03066,-1.99334c-0.31994,-0.14412 -0.54114,-0.02323 -0.6916,0.37772c-0.13797,0.36746 -0.35644,0.24443 -0.64918,-0.36537c-0.30296,-0.63154 -0.28856,-1.54631 0.04236,-2.71203c0.27637,-0.97363 0.34338,-1.56606 0.24448,-2.15773c-0.05686,-0.34032 -0.02416,-0.41259 0.21061,-0.46744c0.37194,-0.08663 1.3933,0.39471 2.39442,1.12797c0.6334,0.46434 0.97199,0.8054 1.50285,1.51498c0.69433,0.92794 0.9041,1.42764 0.88994,2.12021l-0.00787,0.38295l-0.5923,-0.06479c-0.9487,-0.10363 -1.33622,0.39691 -1.55548,2.00891c-0.19431,1.42803 -0.31892,1.95084 -0.71077,2.98078c-0.49979,1.31428 -1.44823,3.36102 -1.63197,3.5223c-0.08636,0.0758 -0.37793,0.6632 -0.64747,1.30537c-0.47987,1.14225 -0.65703,2.05568 -0.54817,2.82604c0.05236,0.36998 0.04042,0.38662 -0.31645,0.43699c-0.20393,0.02895 -0.59446,0.05027 -0.86771,0.04777c-0.71954,-0.00685 -2.19905,0.3601 -3.32898,0.82564c-0.53926,0.22231 -1.17771,0.4362 -1.41858,0.47554c-0.24095,0.03925 -0.67851,0.13973 -0.97238,0.22326c-0.7715,0.21919 -2.85993,0.36152 -4.09471,0.27899c-1.56004,-0.10415 -2.47648,0.38764 -2.06181,1.10689c0.23538,0.40812 0.06653,0.55099 -0.54219,0.45838c-1.15291,-0.17542 -2.95716,-1.61829 -3.73462,-2.98684c-0.38678,-0.68081 -0.76853,-1.89747 -0.68563,-2.18505c0.02664,-0.09249 0.45155,-0.14064 1.00449,-0.11424c0.52698,0.02516 1.3133,-0.02027 1.74734,-0.10098c1.78577,-0.33217 2.99789,-0.15281 3.23649,0.47898c0.06769,0.17943 0.04224,0.32061 -0.06497,0.3603c-0.097,0.03591 -0.17859,0.20917 -0.18126,0.38526c-0.0053,0.35316 0.31616,0.64181 0.89277,0.80167c0.72513,0.2009 3.35986,-0.51208 5.19952,-1.40713c1.76889,-0.86064 2.14403,-1.36633 1.6656,-2.24493c-0.12686,-0.23314 -1.0336,-1.35269 -2.01479,-2.48767c-1.80819,-2.09903 -3.59888,-4.21291 -5.37847,-6.3362c-0.87177,-1.01905 -1.76946,-2.01535 -2.65868,-3.01892l-4.21019,3.71283c-0.19204,0.15905 -1.1043,-0.94113 -1.05212,-1.26883c0.03263,-0.20489 0.48789,-0.64155 2.12957,-2.04246l2.08815,-1.78179l-0.75169,-0.85639c-0.57999,-0.66077 -0.85254,-0.77105 -0.75169,-0.85639z" fill="#000000" fill-rule="nonzero" stroke="#ffffff" stroke-width="0.5" stroke-linecap="butt" stroke-linejoin="miter"/></g></g></svg>