<svg version="1.1" xmlns="http://www.w3.org/2000/svg" xmlns:xlink="http://www.w3.org/1999/xlink" width="35.02992" height="35.03088" viewBox="0,0,35.02992,35.03088"><g transform="translate(-222.48504,-162.48456)"><g data-paper-data="{&quot;isPaintingLayer&quot;:true}" stroke-miterlimit="10" stroke-dasharray="" stroke-dashoffset="0" style="mix-blend-mode: normal"><path d="M257.51495,169.78497v20.49804c0,4.00745 -3.22497,7.23243 -7.23242,7.23243h-20.5c-3.66107,0 -6.66147,-2.69385 -7.1543,-6.21484c0.7952,3.03475 3.54108,5.26367 6.83204,5.26367h20.0332c3.9166,0 7.07032,-3.15372 7.07032,-7.07031v-20.03321c0,-3.2976 -2.23906,-6.0451 -5.28321,-6.83398c3.52994,0.48496 6.23438,3.49081 6.23438,7.15821z" fill-opacity="0.29839" fill="#000000" fill-rule="evenodd" stroke="none" stroke-width="4.54219" stroke-linecap="round" stroke-linejoin="round"/><path d="M229.5547,162.48456h20.03379c3.9166,0 7.06966,3.15307 7.06966,7.06966v20.03379c0,3.91659 -3.15306,7.06966 -7.06966,7.06966h-20.03379c-3.91659,0 -7.06966,-3.15307 -7.06966,-7.06966v-20.03379c0,-3.91659 3.15307,-7.06966 7.06966,-7.06966z" fill="#0aceb2" fill-rule="evenodd" stroke="#ffffff" stroke-width="0" stroke-linecap="round" stroke-linejoin="round"/><g fill="#0aceb2" fill-rule="nonzero" stroke="#000000" stroke-width="0.5" stroke-linecap="butt" stroke-linejoin="miter"><path d="M244.29606,170.97313c2.71248,-2.26408 6.60153,-1.01505 8.49514,1.32392c0.30988,0.38276 -0.73759,1.17152 -0.5485,1.60203c0.08863,0.20176 1.46819,0.03505 1.531,0.25167c0.89027,3.06992 -0.79559,7.44645 -4.60814,7.90832c-6.775,0.82075 -10.07702,1.36789 -11.42169,-1.69341c-1.34467,-3.0613 2.83628,-6.29088 6.55219,-9.39253z" data-paper-data="{&quot;index&quot;:null}"/><path d="M241.32644,178.59609c1.34467,3.0613 -1.29215,5.1228 -6.48005,9.55676c-2.91942,2.49515 -7.28292,0.77579 -8.94136,-1.95671c-0.11702,-0.1928 0.93906,-1.09595 0.85044,-1.29771c-0.1891,-0.43051 -1.47861,-0.19276 -1.55083,-0.6799c-0.44137,-2.97686 1.26988,-6.68583 4.77226,-7.15162c4.79803,-0.6381 10.00487,-1.53212 11.34955,1.52918z"/><path d="M246.05343,177.09346c0.93885,2.04899 -0.94676,4.92273 -4.21164,6.4187c-3.26487,1.49597 -6.67265,1.04766 -7.6115,-1.00133c-0.93885,-2.04899 0.94676,-4.92273 4.21164,-6.4187c3.26487,-1.49597 6.67265,-1.04766 7.6115,1.00133z"/></g></g></g></svg>