<svg version="1.1" xmlns="http://www.w3.org/2000/svg" xmlns:xlink="http://www.w3.org/1999/xlink" width="34.17311" height="34.17311" viewBox="0,0,34.17311,34.17311"><g transform="translate(-222.91344,-162.91344)"><g data-paper-data="{&quot;isPaintingLayer&quot;:true}" stroke-miterlimit="10" stroke-dasharray="" stroke-dashoffset="0" style="mix-blend-mode: normal"><path d="M229.98312,162.91345h20.03378c3.9166,0 7.06966,3.15307 7.06966,7.06966v20.03379c0,3.91659 -3.15306,7.06966 -7.06966,7.06966h-20.03378c-3.91659,0 -7.06967,-3.15307 -7.06967,-7.06966v-20.03379c0,-3.91659 3.15308,-7.06966 7.06967,-7.06966z" fill-opacity="0.09677" fill="#191919" fill-rule="evenodd" stroke="none" stroke-width="0.25" stroke-linecap="round" stroke-linejoin="round"/><path d="M229.01026,184.82603c-0.62941,-0.86587 -2.6531,-2.17215 -2.6531,-2.17215l2.21348,-2.64949l-3.10234,-2.53799l6.79407,-0.14322l1.88618,-2.01512l-4.09123,-5.16755l6.29103,2.24091c0.02876,0.12878 0.07254,0.25371 0.1362,0.37307c0.91206,1.71012 1.78592,2.17539 3.71504,1.7467c0.09086,-0.02019 0.17685,-0.04271 0.25857,-0.06733c-0.31225,0.75443 -0.61104,1.60835 -0.25101,2.2834c1.00176,1.8783 2.87056,1.86372 4.84587,1.60445c0.47027,-0.06173 0.84661,-0.38745 1.33326,-0.44449c0.88021,-0.10317 1.8468,-0.39365 2.63311,-0.88852c1.34184,1.24401 2.54347,2.82266 2.12511,4.24764c-0.00555,0.85018 0.72752,6.2085 -0.01226,6.79558c-1.79034,1.42078 -1.43942,-2.48885 -1.90224,-2.76614c-0.15427,-0.09243 -1.31388,-2.44175 -1.50394,-2.4526c-1.74551,-0.09965 -2.65195,-0.95573 -5.31416,-0.74807c-4.85843,0.37898 -5.17329,1.88988 -7.82166,1.48141c-1.00156,-0.15448 -5.04721,2.0388 -5.57846,1.30797z" data-paper-data="{&quot;index&quot;:null}" fill="#000000" fill-rule="nonzero" stroke="#ffffff" stroke-width="0.5" stroke-linecap="butt" stroke-linejoin="miter"/><g fill="#000000" fill-rule="nonzero" stroke="#ffffff" stroke-linecap="butt" stroke-linejoin="miter"><g stroke-width="0.5"><path d="M227.54145,184.33604l-1.70988,-1.84011l0.59877,-0.80554l25.19284,-1.27444l0.27681,2.48726z" data-paper-data="{&quot;origPos&quot;:null}"/><path d="M226.74699,183.42206l-0.91503,-0.93584l0.62239,-0.79704l25.16883,-1.27322l0.16927,1.63225z" data-paper-data="{&quot;origPos&quot;:null}"/></g><path d="M241.43179,181.70473c0.02097,0.3967 -0.48588,0.74775 -1.1321,0.78408c-0.64621,0.03634 -1.18707,-0.2558 -1.20804,-0.6525c-0.02097,-0.3967 0.48588,-0.74775 1.1321,-0.78408c0.64622,-0.03634 1.18707,0.2558 1.20804,0.6525z" data-paper-data="{&quot;origPos&quot;:null}" stroke-width="0.5"/><text transform="translate(239.66025,181.92515) rotate(-3.22784) scale(0.01092,0.01005) skewX(-0.18821)" font-size="40" xml:space="preserve" fill="#000000" fill-rule="nonzero" stroke="#ffffff" stroke-width="1" stroke-linecap="butt" stroke-linejoin="miter" stroke-miterlimit="10" stroke-dasharray="" stroke-dashoffset="0" font-family="Sans Serif" font-weight="normal" text-anchor="start" style="mix-blend-mode: normal"><tspan x="0" dy="0">RUN </tspan><tspan x="0" dy="48px"> </tspan></text></g></g></g></svg>