<svg version="1.1" xmlns="http://www.w3.org/2000/svg" xmlns:xlink="http://www.w3.org/1999/xlink" width="156.07483" height="292.37126" viewBox="0,0,156.07483,292.37126"><g transform="translate(-161.96258,-33.81437)"><g data-paper-data="{&quot;isPaintingLayer&quot;:true}" fill-rule="nonzero" stroke-linejoin="miter" stroke-miterlimit="10" stroke-dasharray="" stroke-dashoffset="0" style="mix-blend-mode: normal"><path d="M314.90039,185.903c0,0 -7.55052,-6.89531 -11.57605,-8.37367c-4.14017,-1.52046 -12.9307,-0.62633 -12.9307,-0.62633l-1.43105,-39l22.18129,-26.33333c0,0 -1.14936,3.89778 0.81656,18.59067c0.58336,4.3599 4.63284,7.84645 5.07698,14.74435c0.34623,5.37736 -4.81835,11.25189 -4.00676,15.41867c3.51659,18.05432 1.86972,25.57966 1.86972,25.57966z" fill="#a0aeb1" stroke="#000000" stroke-width="2" stroke-linecap="butt"/><path d="M165.11631,179.903c0,0 -1.64686,-7.52534 1.86972,-25.57966c0.8116,-4.16678 -4.353,-10.04131 -4.00676,-15.41867c0.44413,-6.8979 4.49362,-10.38444 5.07698,-14.74434c1.96592,-14.69289 0.81656,-18.59067 0.81656,-18.59067l22.18129,26.33333l-1.43105,39c0,0 -8.79053,-0.89413 -12.9307,0.62633c-4.02553,1.47836 -11.57605,8.37367 -11.57605,8.37367z" fill="#a0aeb1" stroke="#000000" stroke-width="2" stroke-linecap="butt"/><path d="M306.39439,152.45968c0,38.89493 -42.12611,69.28666 -64.99004,70.42551c-17.9135,0.89227 -64.99004,-31.53057 -64.99004,-70.42551c0,-38.89493 22.47384,-70.03642 64.99004,-70.42551c43.34204,-0.39665 64.99004,31.53057 64.99004,70.42551z" fill="#000000" stroke="#000000" stroke-width="0.5" stroke-linecap="butt"/><path d="M228.66309,189.22963c0,0 7.87204,-0.49798 12.15094,-0.49798c4.08165,0 12.95865,0.49798 12.95865,0.49798" fill="none" stroke="#000000" stroke-width="2" stroke-linecap="round"/><path d="M202.75398,118.58876c0,0 7.59834,-3.74113 12.82228,-3.90615c5.22395,-0.16501 11.95254,3.12355 11.95254,3.12355c0,0 -7.86762,-1.64791 -11.9019,-1.52047c-4.21598,0.13318 -12.87293,2.30307 -12.87293,2.30307z" fill="#000000" stroke="none" stroke-width="0" stroke-linecap="butt"/><path d="M266.78024,116.30323c-4.03603,0.04644 -11.82537,2.03168 -11.82537,2.03168c0,0 6.58071,-3.57532 11.80692,-3.63546c5.2262,-0.06014 12.97862,3.35026 12.97862,3.35026c0,0 -8.74237,-1.79502 -12.96017,-1.74649z" fill="#000000" stroke="none" stroke-width="0" stroke-linecap="butt"/><path d="M176.99593,149.75266c0,-33.30185 28.7599,-60.29833 64.23702,-60.29833c35.47712,0 64.23702,26.99649 64.23702,60.29833c0,33.30185 -28.7599,60.29833 -64.23702,60.29833c-35.47712,0 -64.23702,-26.99649 -64.23702,-60.29833z" fill="#000000" stroke="#000000" stroke-width="2" stroke-linecap="butt"/><path d="M185.33733,151.56283c0,0 -5.21641,-0.92649 -7.63001,-1.11215c-2.17931,-0.16764 -6.22063,0.04672 -6.22063,0.04672c0,0 2.88909,-3.69391 4.13658,-5.81727c1.32157,-2.24948 2.83492,-7.8221 2.83492,-7.8221z" fill="#000000" stroke="#000000" stroke-width="0.5" stroke-linecap="round"/><path d="M182.72143,164.66572c0,0 -1.26492,4.03053 -3.04573,5.50331c-1.97184,1.63076 -8.27073,3.40276 -8.27073,3.40276c0,0 3.69511,-5.01376 4.64673,-7.96806c0.80655,-2.50392 0.70009,-8.17816 0.70009,-8.17816z" fill="#000000" stroke="#000000" stroke-width="0.5" stroke-linecap="round"/><path d="M186.43712,177.73689c0,0 -2.52458,2.41759 -5.64062,3.05337c-3.702,0.75534 -7.6474,-0.20633 -7.6474,-0.20633c0,0 3.58665,-3.04607 5.52326,-5.35743c1.2427,-1.48318 1.79313,-5.54626 1.79313,-5.54626z" fill="#000000" stroke="#000000" stroke-width="0.5" stroke-linecap="round"/><path d="M303.8764,141.47312l10.00314,17.96772l-12.13478,-6.99624z" fill="#000000" stroke="#000000" stroke-width="0.5" stroke-linecap="round"/><path d="M180.36274,326.18564v-267.22501h123.18203v267.22501z" fill="none" stroke="none" stroke-width="0" stroke-linecap="butt"/><path d="M207.82905,320.07318l15.14285,-131.8421l37.78325,-0.15789l13.57389,132z" fill="#fffcf6" stroke="#000000" stroke-width="2" stroke-linecap="butt"/><path d="M220.77928,216.68581l3.12142,-26.32765l35.83075,-0.14203l2.76735,26.1059c0,0 -7.51543,4.19603 -21.55904,4.50964c-12.48458,0.27879 -20.16049,-4.14586 -20.16049,-4.14586z" fill="#8b979a" stroke="#000000" stroke-width="0" stroke-linecap="butt"/><path d="M176.91896,149.4193c0,-33.30185 28.7599,-60.29833 64.23702,-60.29833c35.47712,0 64.23702,26.99649 64.23702,60.29833c0,33.30185 -28.7599,60.29833 -64.23702,60.29833c-35.47712,0 -64.23702,-26.99649 -64.23702,-60.29833z" fill="#a0aeb1" stroke="#000000" stroke-width="2" stroke-linecap="butt"/><path d="M177.64202,149.47312c0,-0.72799 5.20666,55.91939 63.36046,56.93429c55.56352,0.9697 63.51358,-57.95314 63.51358,-56.93429c0,32.80479 -28.40173,59.39833 -63.43702,59.39833c-35.03529,0 -63.43702,-26.59354 -63.43702,-59.39833z" fill-opacity="0.12941" fill="#000000" stroke="#000000" stroke-width="0" stroke-linecap="butt"/><path d="M192.80168,124.57318z" fill="#00ffff" stroke="#000000" stroke-width="5" stroke-linecap="butt"/><path d="M217.96718,114.07317c0,3.86599 -4.70101,7 -10.5,7c-5.79899,0 -10.5,-3.13401 -10.5,-7c0,-3.86599 4.70101,-7 10.5,-7c5.79899,0 10.5,3.13401 10.5,7z" fill="#f3ffff" stroke="#00dada" stroke-width="2" stroke-linecap="butt"/><path d="M306.46718,171.57313c0,0 -10.13866,-29.33983 -23.94677,-43.56637c-13.80811,-14.22653 -42.05323,-24.43363 -42.05323,-24.43363c0,0 -24.58818,7.47683 -36.35307,19.15191c-11.76489,11.67508 -29.14693,45.8481 -29.14693,45.8481c0,0 -1.74547,-32.49756 4.47905,-50.15486c6.22452,-17.65731 25.02094,-23.84513 25.02094,-23.84513c0,0 21.91682,-11.47587 36.97578,-11.07958c15.05896,0.39629 39.02422,13.07958 39.02422,13.07958c0,0 20.04498,14.75469 24.5328,28.83012c4.48782,14.07543 1.4672,46.16988 1.4672,46.16988z" fill="#000000" stroke="#000000" stroke-width="2" stroke-linecap="round"/><path d="M228.88604,108.89822c0,0 -2.62464,7.69631 -5.87322,12.44396c-3.85947,5.64044 -7.97951,8.07675 -7.97951,8.07675c0,0 3.7303,-10.14775 5.7419,-16.97601c1.29082,-4.38163 1.84944,-13.21493 1.84944,-13.21493z" fill="#000000" stroke="#000000" stroke-width="0.5" stroke-linecap="round"/><path d="M180.76007,151.36602l0.7599,-0.68732c1.0199,-0.43089 3.12189,-2.53288 3.55278,-3.55279c0,0 0.16488,-0.32977 0.49465,-0.48872c0.00178,-0.00376 0.00356,-0.00752 0.00535,-0.01128c0,0 0.44722,-0.89443 1.34164,-0.44721c0.89443,0.44721 0.44721,1.34164 0.44721,1.34164c-1.40476,2.61001 0.16943,7.61314 1.05426,10.23656c0.41938,1.24341 0.32888,1.92765 1.49853,2.4218l0.98062,0.49031c0.33824,0.16035 0.57216,0.50491 0.57216,0.90411c0,0.55229 -0.44772,1 -1,1h-1v-0.28896c-3.7004,0.39404 -7.44551,-1.93254 -8.47325,-5.98128c-0.30866,-1.21596 0.18437,-1.65744 -0.42118,-2.78254l-0.10557,-0.94721c0,0 0,-0.08382 0.02427,-0.20293c-0.18869,-0.54685 0.26862,-1.00417 0.26862,-1.00417z" fill="#000000" stroke="none" stroke-width="0.5" stroke-linecap="butt"/><path d="M178.79923,133.62787l-0.93374,1.38465c-0.33184,0.98515 -0.54377,1.96196 -0.67782,2.94781l0.07239,-0.09427c0,0 0.70711,-0.7071 1.41422,0c0.70711,0.7071 0,1.41421 0,1.41421l-0.75989,0.68732c-0.36055,0.17424 -0.6588,0.39514 -0.92859,0.63767c-0.01393,0.48316 -0.01863,0.97183 -0.01863,1.46791c0,0 0,1 -1,1c-0.61406,0 -0.85105,-0.37706 -0.94251,-0.66812c-0.01053,0.00629 -0.02112,0.01255 -0.03176,0.01877c-2.80651,1.63953 -6.11344,0.47142 -8.78572,-1.07067l-0.05623,0.16871l-1.47813,-0.49271c-0.40863,-0.12567 -0.70565,-0.50614 -0.70565,-0.95597c0,-0.55228 0.44771,-1 1,-1h1c5.86957,0 12.13491,-6.43712 12,-12.5c0,0 0,-1 1,-1c1,0 1,1 1,1c-0.02933,1.9329 -0.54307,3.87751 -1.41737,5.68703c0.79155,0.55448 0.24943,1.36767 0.24943,1.36767z" fill="#000000" stroke="none" stroke-width="0.5" stroke-linecap="butt"/><path d="M259.9126,205.38346c0.05602,-0.29 0.25704,-0.81028 0.97835,-0.81028c1,0 1,1 1,1l-0.03611,0.07653c0.06678,0.07871 0.1313,0.15875 0.19386,0.23995l0.04936,-0.02358c0,0 0.19495,0.19495 0.27776,0.48249c1.07783,1.62536 1.61339,3.54011 3.51706,4.3597c1.01484,0.67656 2.64908,1.95204 3.78786,2.40782c0.83304,0.33342 3.81561,0.14828 4.41732,0.74998c1.559,1.559 -0.32353,4.77148 -1.97735,5.18036c-2.36007,0.58348 -5.16519,-0.59307 -7.5,0c-1.20918,0.30714 -1.82086,1.47866 -2.84707,1.95063c-0.28576,0.13143 -2.25921,0.05706 -2.61244,0.04937c-0.94533,-0.44982 -2.07404,-0.56774 -2.89535,-1.21693c-0.38092,-0.30109 -0.33972,-0.96081 -0.71472,-1.26923c-0.18576,-0.15277 0.20395,0.53784 0.04692,0.72002c-0.31232,0.36237 -0.83391,0.46961 -1.25989,0.68732c-1.087,0.55555 -2.58369,0.89735 -3.78704,1.09266c-1.5385,0.24971 -4.58729,0.24348 -4.47641,-2.03841c0.02506,-0.51563 -0.22033,1.12826 -0.65804,1.40197c-1.34652,0.84201 -5.27702,1.05249 -6.75548,0.6226c-0.35068,-0.10197 -0.80168,-0.4233 -1.05419,-0.77509l-0.00895,0.00895l-0.22157,-0.22158l-0.10285,0.43834c-2.60411,0.14259 -8.35116,0.26198 -9.90841,-1.57323c-0.30012,-0.35369 -0.79309,0.51595 -1.24452,0.6226c-1.57046,0.371 -4.96388,0.43489 -6.45951,0c-2.1849,-0.6353 -1.42223,-2.12615 -2.65293,-3.54937c-2.18048,0.26887 -5.12066,0.54244 -6.01174,-1.97666c-0.2251,-0.63637 -0.7904,-1.38647 -0.45623,-1.97295c0.59399,-1.04245 2.73118,-0.20966 3.6209,-0.44751c2.1276,-0.56878 5.08846,-1.85175 6.46727,-3.84563c-0.13714,-0.14787 -0.23752,-0.36432 -0.23752,-0.68113c0,-1 1,-1 1,-1c1.40279,0.03052 1.97915,0.70909 3.22976,1.02676c1.37917,0.35033 3.32957,-0.02676 4.77024,-0.02676c3.83333,0 7.66667,0 11.5,0c4.97787,0 10.3053,1.28791 15.27025,0.02676c1.24206,-0.3155 2.50201,-1.16662 3.7514,-1.71647zM256.62071,209.04642c-5.13668,1.2711 -10.59539,0.02675 -15.72976,0.02675c-3.83333,0 -7.66667,0 -11.5,0c-1.61108,0 -3.66843,0.35961 -5.22975,-0.02675c-0.67942,-0.16813 -1.09094,-0.48034 -1.55183,-0.70627c-1.4125,2.39989 -4.4879,4.08107 -6.98867,4.70627c-0.03841,0.0096 -1.63451,0.36242 -2.64961,0.41881c0.20571,0.28433 0.41884,0.59773 0.64961,0.6347c1.29212,0.20698 2.83672,-0.02309 4.15293,0.04937c1.55959,1.462 1.40625,1.74149 1.96796,3.39814c0.12021,0.35455 4.60591,0.01933 5.14935,0.02573c1.28488,0.01514 2.12686,-1.0469 3.52573,-0.35065c0.33364,0.16606 0.21927,0.75489 0.5,1c0.06394,0.05583 2.24616,-0.15 2.47427,-0.14935c1.71073,0.00489 3.33573,0.34852 5.02174,0.56405l0.77116,-0.77116l0.2557,0.2557l0.83409,-0.47247c0.66001,1.9719 4.45085,2.31275 6.09159,1.07323c0.75408,-0.56968 1.41636,-1.78889 2.34196,-1.59803c0.63448,0.13083 0.90227,1.69811 1.56646,2.0248c1.06213,0.52242 4.96936,-0.44471 5.91021,-1.28323c0.4115,-0.36674 0.49786,-1.32849 1.04692,-1.27998c0.25847,0.02283 3.65515,2.12153 4.38993,2.51384c1.95383,-0.06786 2.57384,-1.51334 4.54049,-2c2.34328,-0.57986 5.1135,0.27568 7.5,0c0.68586,-0.07923 1.02265,-1.81965 1.02265,-1.81965c0,0 -3.06542,-0.04321 -3.58268,-0.25001c-1.2875,-0.51476 -3.04382,-1.81331 -4.21214,-2.59219c-2.31996,-1.26627 -2.71194,-3.41712 -4.26406,-5.19559c-1.33629,0.56359 -2.6547,1.46998 -4.00426,1.80393z" fill="#000000" stroke="none" stroke-width="0.5" stroke-linecap="butt"/><path d="M258.16801,224.61614c-0.73478,-0.39231 -4.1304,-2.49458 -4.38886,-2.51741c-0.54906,-0.04851 -0.63735,0.91909 -1.04884,1.28583c-0.94085,0.83852 -4.86032,1.82362 -5.92245,1.3012c-0.66418,-0.32669 -0.93037,-1.89554 -1.56485,-2.02638c-0.9256,-0.19087 -1.60995,1.04154 -2.36403,1.61122c-1.64074,1.23952 -5.48167,0.88495 -6.14167,-1.08696l-0.83517,0.47129l-0.25731,-0.25761l-0.7707,0.77172c-1.68601,-0.21553 -3.31865,-0.57188 -5.02938,-0.57677c-0.22811,-0.00065 -2.4113,0.20262 -2.47525,0.14679c-0.28073,-0.24511 -0.16746,-0.83749 -0.5011,-1.00355c-1.39887,-0.69625 -2.24123,0.36427 -3.52611,0.34913c-0.16946,-0.00199 -0.72227,0.02898 -1.40654,0.0618c0.03407,-2.93948 0.0735,-5.87921 0.07657,-8.81833c0.17822,0.07935 0.37439,0.15122 0.60016,0.20709c1.56132,0.38636 3.61974,0.02282 5.23082,0.02282c3.83333,0 7.69368,-0.03039 11.52701,-0.03039c5.13437,0 10.66144,1.27501 15.79813,0.00392c1.0499,-0.25981 2.08069,-0.86687 3.11586,-1.38901c-0.10244,3.44547 -0.0795,7.45831 0.01524,11.46683c-0.04317,0.00295 -0.087,0.00523 -0.13153,0.00677z" fill="#fffcf6" stroke="#000000" stroke-width="2" stroke-linecap="butt"/><path d="M253.60771,215.07681c-0.54906,-0.05246 -0.63736,0.99403 -1.04885,1.39067c-0.94085,0.90688 -4.86032,1.97229 -5.92245,1.40728c-0.66418,-0.35333 -0.93037,-2.05008 -1.56485,-2.19158c-0.9256,-0.20642 -1.60995,1.12644 -2.36403,1.74257c-1.64074,1.34058 -5.48167,0.9571 -6.14167,-1.17557l-0.83517,0.50972l-0.2573,-0.27861l-0.77071,0.83463c-1.68601,-0.2331 -3.31864,-0.6185 -5.02937,-0.6238c-0.22811,-0.00071 -2.4113,0.21914 -2.47525,0.15876c-0.28073,-0.2651 -0.16746,-0.90577 -0.5011,-1.08537c-1.39887,-0.75301 -2.24123,0.39397 -3.52612,0.3776c-0.12254,-0.00156 -0.44552,0.01552 -0.87372,0.03853c0.66532,-3.06368 1.25016,-6.3868 1.47727,-8.78413c0.01858,-0.10428 0.035,-0.20931 0.04922,-0.31503c1.27803,0.04538 2.68063,-0.16114 3.84825,-0.16114c3.83333,0 7.69367,-0.03286 11.527,-0.03286c5.12113,0 10.63293,1.37185 15.75838,0.01481c0.86657,3.54946 1.73077,7.09495 2.61668,10.63718c-1.16269,-0.73218 -3.74225,-2.44226 -3.96621,-2.46366z" fill="#fffcf6" stroke="#000000" stroke-width="2" stroke-linecap="butt"/><path d="M260.83209,206.07316l13.57389,114h-24.38253c0.0478,-36.6664 -0.11328,-73.33346 -0.1325,-109.99999c-0.00061,-1.17804 -0.02272,-2.54472 -0.14849,-3.95999z" fill="#1b1a1a" stroke="#000000" stroke-width="2" stroke-linecap="butt"/><path d="M206.40599,320.07315l16.07015,-113.86363l9.89223,-0.03364c-0.19009,37.96527 -0.02233,75.93136 0.03284,113.89728z" fill="#1b1a1a" stroke="#000000" stroke-width="2" stroke-linecap="butt"/><path d="M220.54906,254.81869c0,0 1.95454,-13.61369 0.83805,-21.31743c-1.25725,-8.675 -4.00951,-27.6656 -4.00951,-27.6656l13.85525,-2.008c0,0 2.56304,17.68495 3.79042,26.15388c1.1592,7.99852 -0.11897,23.32916 -0.11897,23.32916z" fill="#1b1a1a" stroke="#000000" stroke-width="2" stroke-linecap="butt"/><path d="M213.39095,212.57317v-11h55v11z" fill="#1b1a1a" stroke="#000000" stroke-width="2" stroke-linecap="butt"/><path d="M209.18872,287.91729l49.3709,-75.2704l10.03355,6.58214l-49.3709,75.2704z" fill="#262010" stroke="#000000" stroke-width="2" stroke-linecap="butt"/><path d="M209.89095,295.57317v-10h60.5v10z" fill="#262010" stroke="#000000" stroke-width="2" stroke-linecap="butt"/><path d="M176.91896,154.4193c0,-33.30185 28.7599,-60.29833 64.23702,-60.29833c35.47712,0 64.23702,26.99649 64.23702,60.29833c0,17.29505 -38.69915,-10.56099 -66.96259,-10.56099c-28.26344,0 -61.51145,26.56779 -61.51145,10.56099z" fill-opacity="0.18039" fill="#000000" stroke="none" stroke-width="0" stroke-linecap="butt"/><path d="M268.20828,173.3294c-12.968,0 -23.48065,-10.51265 -23.48065,-23.48065c0,-12.968 10.51265,-23.48065 23.48065,-23.48065c12.968,0 23.48065,10.51265 23.48065,23.48065c0,12.968 -10.51265,23.48065 -23.48065,23.48065z" fill="#f3ffff" stroke="#000000" stroke-width="2" stroke-linecap="butt"/><path d="M243.45023,234.90302l6.61087,-11.77057l11.77057,6.61087l-6.61087,11.77057z" fill="#717171" stroke="#000000" stroke-width="2" stroke-linecap="butt"/><path d="M266.18147,117.92979c-5.54555,1.35397 -15.64234,6.57864 -15.64234,6.57864c0,0 7.92344,-7.029 15.10432,-8.78225c7.18086,-1.75325 18.95133,0.4674 18.95133,0.4674c0,0 -12.61799,0.32125 -18.41331,1.7362z" fill="#000000" stroke="none" stroke-width="0" stroke-linecap="butt"/><path d="M244.05169,150.19813c0,-13.32387 10.80113,-24.125 24.125,-24.125c13.32387,0 24.125,10.80113 24.125,24.125c0,13.32387 -10.80113,24.125 -24.125,24.125c-13.32387,0 -24.125,-10.80113 -24.125,-24.125z" fill="none" stroke-opacity="0.8549" stroke="#00ffff" stroke-width="5" stroke-linecap="butt"/><g stroke-width="2"><path d="M286.91184,132.31772c-1.28871,12.84179 -9.0601,22.57706 -17.35787,21.74435c-8.29777,-0.83271 -13.97973,-11.91806 -12.69101,-24.75985c0.53809,-5.36194 4.15759,-9.98649 6.52245,-13.72212c3.29896,-5.21117 6.00229,-8.50726 10.83542,-8.02224c4.80975,0.48268 7.10131,5.03393 9.30518,10.75145c1.59825,4.14634 3.92755,8.61027 3.38583,14.0084z" fill="#fffff3" stroke-opacity="0.47451" stroke="#ffdb57" stroke-linecap="butt"/><path d="M265.31962,45.10676l-19.7848,53.951l-6.40097,-1.37163l19.2029,-53.951l15.71146,-8.68702l9.8924,9.60145l-7.64259,63.02573l-6.27494,-0.45722l6.93466,-61.19688l-4.07334,-4.57212z" fill="#a0aeb1" stroke="#474e4f" stroke-linecap="round"/><path d="M279.53093,107.47294l7.39373,9.95891l-27.46245,-2.04391l8.44999,-8.7449z" fill="#a0aeb1" stroke="#474e4f" stroke-linecap="round"/></g><path d="M190.46916,149.84881c0,-12.968 10.51265,-23.48065 23.48065,-23.48065c12.968,0 23.48065,10.51265 23.48065,23.48065c0,12.968 -10.51265,23.48065 -23.48065,23.48065c-12.968,0 -23.48065,-10.51265 -23.48065,-23.48065z" fill="#f3ffff" stroke="#000000" stroke-width="2" stroke-linecap="butt"/><path d="M190.05169,149.69813c0,-13.32387 10.80113,-24.125 24.125,-24.125c13.32387,0 24.125,10.80113 24.125,24.125c0,13.32387 -10.80113,24.125 -24.125,24.125c-13.32387,0 -24.125,-10.80113 -24.125,-24.125z" fill="none" stroke-opacity="0.8549" stroke="#00ffff" stroke-width="5" stroke-linecap="butt"/><path d="M253.77262,189.2296c0,0 -4.09668,4 -12.91066,4.14285c-7.26585,0.11777 -12.19893,-4.14285 -12.19893,-4.14285" fill="none" stroke="#000000" stroke-width="2" stroke-linecap="round"/></g></g></svg>