<svg version="1.1" xmlns="http://www.w3.org/2000/svg" xmlns:xlink="http://www.w3.org/1999/xlink" width="164.879" height="267.22501" viewBox="0,0,164.879,267.22501"><defs><linearGradient x1="235.69946" y1="104.39787" x2="235.69946" y2="184.25604" gradientUnits="userSpaceOnUse" id="color-1"><stop offset="0" stop-color="#ffffff" stop-opacity="0.06754"/><stop offset="1" stop-color="#666666" stop-opacity="0.33367"/></linearGradient></defs><g transform="translate(-171.09796,-46.38751)"><g data-paper-data="{&quot;isPaintingLayer&quot;:true}" fill-rule="nonzero" stroke-linejoin="miter" stroke-miterlimit="10" stroke-dasharray="" stroke-dashoffset="0" style="mix-blend-mode: normal"><path d="M179.28374,313.61252v-267.22501h123.18203v267.22501z" fill-opacity="0.01" fill="#000000" stroke="none" stroke-width="0" stroke-linecap="butt"/><path d="M174.3166,144.95522l143.80992,10.00417c0,0 -10.09411,42.39996 -11.87995,46.26928c-1.78584,3.86932 -10.62943,2.50104 -10.62943,2.50104c0,0 1.22278,10.99558 -0.62526,15.00625c-1.84804,4.01068 -5.17444,5.97702 -9.17043,6.25261c-3.996,0.27559 -8.96213,-5.00208 -8.96213,-5.00208l-8.75365,10.62943l-53.14714,0.62526l-10.00417,-10.62943l-3.1263,3.1263c0,0 -3.08747,4.306 -8.545,1.66748c-3.77966,-1.82733 -4.58548,-7.92008 -4.58548,-7.92008l-0.62526,-14.38099c0,0 -8.14888,-0.39257 -10.62943,-2.50104c-2.48055,-2.10847 -1.87578,-8.12839 -1.87578,-8.12839z" fill="#874e8b" stroke="#000000" stroke-width="2" stroke-linecap="round"/><path d="M206.75005,307.5l15.14285,-131.8421l37.78325,-0.15789l13.57389,132z" fill="#d477dc" stroke="#000000" stroke-width="2" stroke-linecap="butt"/><path d="M219.70028,204.11263l3.12142,-26.32765l35.83075,-0.14203l2.76735,26.1059c0,0 -7.51543,4.19603 -21.55904,4.50964c-12.48458,0.27879 -20.16049,-4.14586 -20.16049,-4.14586z" fill="#9c58a0" stroke="#000000" stroke-width="0" stroke-linecap="butt"/><path d="M176.96846,136.31304c0,-6.35003 -4.64474,-13.11211 -2.84996,-18.91886c2.76099,-8.9328 7.4926,-17.0791 13.7239,-23.99681c12.80749,-14.21833 29.91152,4.61726 51.30078,4.61726c22.37868,0 44.33713,-17.98101 57.11468,-2.6112c9.23945,11.11392 14.74448,25.09682 14.74448,40.28664c0,25.08895 -15.01824,46.88527 -37.07635,57.89982c-1.38497,-0.86352 -2.64848,-1.57477 -3.66508,-2.07319c-5.39982,-2.64747 -11.40075,-4.19172 -17.64756,-4.23816c-6.66787,-0.04957 -13.3363,-0.04957 -20.00417,0c-6.1331,0.04559 -12.65476,1.8131 -18.7347,2.50052c-3.43298,0.38814 -6.87382,0.72934 -10.30498,1.13718c-12.43091,-7.47536 -22.17147,-18.54764 -27.55507,-31.6524c-3.00521,-7.31529 0.33106,-9.65712 0.33106,-17.96695z" fill="#d477dc" stroke="#000000" stroke-width="2" stroke-linecap="butt"/><path d="M310.04919,135.38628c0,25.01363 -15.19243,46.70479 -37.40869,57.42494c-0.8203,-0.48162 -1.57576,-0.89434 -2.23445,-1.22277c34.00422,-15.47512 39.64314,-57.09676 39.64314,-56.20218z" fill="#9c58a0" stroke="#000000" stroke-width="0" stroke-linecap="butt"/><path d="M172.14757,135.38628c0,-0.6321 3.61152,38.5333 37.2881,54.87724c-1.30995,0.14057 -2.61995,0.28143 -3.92902,0.42887c-19.99226,-11.30402 -33.35908,-31.84346 -33.35908,-55.30611z" fill="#9c58a0" stroke="#000000" stroke-width="0" stroke-linecap="butt"/><path d="M186.08961,135.79456c0,-14.09515 11.42638,-25.52153 25.52153,-25.52153c14.09515,0 25.52153,11.42638 25.52153,25.52153c0,14.09515 -11.42638,25.52153 -25.52153,25.52153c-14.09515,0 -25.52153,-11.42638 -25.52153,-25.52153z" fill="#ffffff" stroke="#000000" stroke-width="2" stroke-linecap="butt"/><path d="M270.5856,161.31608c-14.09515,0 -25.52153,-11.42638 -25.52153,-25.52153c0,-14.09515 11.42638,-25.52153 25.52153,-25.52153c14.09515,0 25.52153,11.42638 25.52153,25.52153c0,14.09515 -11.42638,25.52153 -25.52153,25.52153z" data-paper-data="{&quot;index&quot;:null}" fill="#ffffff" stroke="#000000" stroke-width="2" stroke-linecap="butt"/><path d="M197.71164,137.7899c0,-6.92201 5.61139,-12.5334 12.53339,-12.5334c6.92201,0 12.5334,5.6114 12.5334,12.5334c0,6.92201 -5.6114,12.5334 -12.5334,12.5334c-6.92201,0 -12.53339,-5.6114 -12.53339,-12.5334z" fill="#000000" stroke="none" stroke-width="0" stroke-linecap="butt"/><path d="M270.89729,151.00651c-6.922,0 -12.53339,-5.6114 -12.53339,-12.5334c0,-6.92201 5.61139,-12.5334 12.53339,-12.5334c6.922,0 12.53339,5.6114 12.53339,12.5334c0,6.92201 -5.6114,12.5334 -12.53339,12.5334z" data-paper-data="{&quot;index&quot;:null}" fill="#000000" stroke="none" stroke-width="0" stroke-linecap="butt"/><path d="M252.35837,166.24836c1.11617,3.51918 0,29.65627 0,29.65627c-7.50379,-0.13529 -15.01379,0.03462 -22.52008,0.11098c0,0 0.03634,-23.25389 1.5785,-28.44628c0.34838,-1.17297 10.57209,-0.14823 10.57209,-0.14823z" fill="#000000" stroke="none" stroke-width="0" stroke-linecap="butt"/><path d="M174.10622,100.20619l130.06797,-2.47102c0,0 4.93659,14.25522 -1.30941,17.79131c-6.246,3.5361 -12.61181,-6.91884 -17.89526,-6.91884c-5.28345,0 -1.39976,4.96759 -12.65762,3.95363c-11.25786,-1.01397 -14.8969,-7.6129 -25.75171,-7.41305c-10.85481,0.19984 -6.97367,6.09407 -20.07761,6.91884c-7.45395,0.46915 -25.31524,-1.48261 -25.31524,-1.48261c0,0 -7.14076,6.25888 -21.82348,5.93044c-3.78138,-0.08459 -5.67411,-8.89566 -5.67411,-8.89566z" fill="#874d8a" stroke="#000000" stroke-width="2" stroke-linecap="round"/><g><path d="M172.09796,196.79566v-109.90379h162.879v109.90379zM179.59714,184.07224l117.80791,-0.78804l-1.18338,-78.27416l-116.62189,-0.00264z" fill="#9d829c" stroke="#725771" stroke-width="2" stroke-linecap="butt"/><path d="M300.43582,120.06313c0,-1.90123 0,-7.75722 0,-10.92423c0,-1.25279 1.16457,-2.08481 2.41635,-2.08481c3.62314,0 21.47219,0 27.42288,0c1.21549,0 1.93455,1.60893 1.93455,2.92514c0,1.84835 0,6.96511 0,10.0839c0,1.49267 -1.03347,2.52766 -2.71806,2.52766c-6.67077,0 -23.55146,0 -26.90054,0c-1.13155,0 -2.15518,-1.35809 -2.15518,-2.52766z" fill="#725771" stroke="#725771" stroke-width="0" stroke-linecap="butt"/><path d="M302.42091,186.40983c0,-2.53638 0,-6.29476 0,-7.67244c0,-1.00937 1.06141,-2.22248 2.1908,-2.22248c3.16421,0 18.32653,0 23.63906,0c1.15444,0 1.84376,1.5689 1.84376,2.77051c0,1.39223 0,4.77089 0,7.12441c0,1.42833 -0.87375,2.4791 -1.84376,2.4791c-2.76718,0 -16.32082,0 -22.61127,0c-1.96292,0 -3.2186,-1.04392 -3.2186,-2.4791z" fill="none" stroke="#725771" stroke-width="2" stroke-linecap="butt"/><path d="M302.5593,171.66141c0,-7.79469 0,-38.34237 0,-43.42392c0,-1.39936 1.12454,-2.60253 2.30936,-2.60253c3.15128,0 17.62006,0 23.38211,0c1.47339,0 2.37749,1.07124 2.37749,2.34559c0,4.79198 0,34.56725 0,43.16697c0,1.47173 -0.7473,2.32327 -1.60665,2.32327c-2.84862,0 -18.69794,0 -24.40989,0c-1.28123,0 -2.05241,-0.65529 -2.05241,-1.80937z" fill="#ffdeff" stroke="#725771" stroke-width="2" stroke-linecap="butt"/><path d="M329.79245,192.6025c0,-0.78049 0.63271,-1.41321 1.41321,-1.41321c0.78049,0 1.41321,0.63271 1.41321,1.41321c0,0.78049 -0.63271,1.41321 -1.41321,1.41321c-0.78049,0 -1.41321,-0.63271 -1.41321,-1.41321z" fill="#725771" stroke="none" stroke-width="0" stroke-linecap="butt"/><path d="M175.8933,191.57474c0,-1.06431 0.86279,-1.9271 1.92709,-1.9271c1.06431,0 1.9271,0.86279 1.9271,1.9271c0,1.06431 -0.86279,1.92709 -1.9271,1.92709c-1.06431,0 -1.92709,-0.86278 -1.92709,-1.92709z" fill="#725771" stroke="none" stroke-width="0" stroke-linecap="butt"/><path d="M174.09468,90.98028c0,-0.70954 0.5752,-1.28473 1.28473,-1.28473c0.70954,0 1.28473,0.5752 1.28473,1.28473c0,0.70954 -0.5752,1.28473 -1.28473,1.28473c-0.70954,0 -1.28473,-0.5752 -1.28473,-1.28473z" fill="#725771" stroke="none" stroke-width="0" stroke-linecap="butt"/><path d="M329.79652,90.12941c0,-0.9461 0.76696,-1.71306 1.71306,-1.71306c0.9461,0 1.71306,0.76696 1.71306,1.71306c0,0.9461 -0.76696,1.71307 -1.71306,1.71307c-0.9461,0 -1.71306,-0.76697 -1.71306,-1.71307z" fill="#725771" stroke="none" stroke-width="0" stroke-linecap="butt"/><path d="M316.28866,126.11428v45.99338" fill="none" stroke="#725771" stroke-width="2" stroke-linecap="round"/><path d="M303.18441,160.03114h26.20852" fill="none" stroke="#725771" stroke-width="2" stroke-linecap="round"/><path d="M330.16376,148.98246h-26.7224" fill="none" stroke="#725771" stroke-width="2" stroke-linecap="round"/><path d="M302.92746,137.67681h26.97935" fill="none" stroke="#725771" stroke-width="2" stroke-linecap="round"/></g><g stroke-linecap="butt"><path d="M179.30235,184.25604v-79.85815l112.17123,-4.36085l1.55745,87.64538z" fill="url(#color-1)" stroke="#725771" stroke-width="2"/><path d="M199.96885,184.2641l-18.62761,-78.97544l15.27949,-1.24596l18.93912,81.15586z" fill-opacity="0.11593" fill="#ffffff" stroke="none" stroke-width="0"/><path d="M229.29995,185.19856l-18.93911,-80.22139l14.96802,-1.86894l20.18506,82.71331z" fill-opacity="0.11593" fill="#ffffff" stroke="none" stroke-width="0"/></g></g></g></svg>