<svg version="1.1" xmlns="http://www.w3.org/2000/svg" xmlns:xlink="http://www.w3.org/1999/xlink" width="34.17311" height="34.17311" viewBox="0,0,34.17311,34.17311"><g transform="translate(-222.91344,-162.91344)"><g data-paper-data="{&quot;isPaintingLayer&quot;:true}" stroke-miterlimit="10" stroke-dasharray="" stroke-dashoffset="0" style="mix-blend-mode: normal"><path d="M229.98312,162.91345h20.03378c3.9166,0 7.06966,3.15307 7.06966,7.06966v20.03379c0,3.91659 -3.15306,7.06966 -7.06966,7.06966h-20.03378c-3.91659,0 -7.06967,-3.15307 -7.06967,-7.06966v-20.03379c0,-3.91659 3.15308,-7.06966 7.06967,-7.06966z" fill-opacity="0.09677" fill="#191919" fill-rule="evenodd" stroke="none" stroke-width="4.43922" stroke-linecap="round" stroke-linejoin="round"/><g fill="#cfcfcf" fill-rule="nonzero" stroke="#000000" stroke-width="0.5" stroke-linecap="butt" stroke-linejoin="miter"><path d="M244.72444,171.40197c2.71248,-2.26408 6.60153,-1.01505 8.49514,1.32392c0.30988,0.38276 -0.73759,1.17152 -0.5485,1.60203c0.08863,0.20176 1.46819,0.03505 1.531,0.25167c0.89027,3.06992 -0.79559,7.44645 -4.60814,7.90832c-6.775,0.82075 -10.07702,1.36789 -11.42169,-1.69341c-1.34467,-3.0613 2.83628,-6.29088 6.55219,-9.39253z" data-paper-data="{&quot;index&quot;:null}"/><path d="M241.75482,179.02493c1.34467,3.0613 -1.29215,5.1228 -6.48005,9.55676c-2.91942,2.49515 -7.28292,0.77579 -8.94136,-1.95671c-0.11702,-0.1928 0.93906,-1.09595 0.85044,-1.29771c-0.1891,-0.43051 -1.47861,-0.19276 -1.55083,-0.6799c-0.44137,-2.97686 1.26988,-6.68583 4.77226,-7.15162c4.79803,-0.6381 10.00487,-1.53212 11.34955,1.52918z"/><path d="M246.48181,177.5223c0.93885,2.04899 -0.94676,4.92273 -4.21164,6.4187c-3.26487,1.49597 -6.67265,1.04766 -7.6115,-1.00133c-0.93885,-2.04899 0.94676,-4.92273 4.21164,-6.4187c3.26487,-1.49597 6.67265,-1.04766 7.6115,1.00133z"/></g></g></g></svg>