<svg version="1.1" xmlns="http://www.w3.org/2000/svg" xmlns:xlink="http://www.w3.org/1999/xlink" width="171.11857" height="267.22501" viewBox="0,0,171.11857,267.22501"><defs><linearGradient x1="240.00009" y1="175.50001" x2="240.00009" y2="307.50001" gradientUnits="userSpaceOnUse" id="color-1"><stop offset="0" stop-color="#090225"/><stop offset="1" stop-color="#200680"/></linearGradient><linearGradient x1="240.07702" y1="77.88116" x2="240.07702" y2="198.47782" gradientUnits="userSpaceOnUse" id="color-2"><stop offset="0" stop-color="#090225"/><stop offset="1" stop-color="#200680"/></linearGradient><linearGradient x1="212.86717" y1="114.46165" x2="212.86717" y2="138.27608" gradientUnits="userSpaceOnUse" id="color-3"><stop offset="0" stop-color="#090225"/><stop offset="1" stop-color="#200680"/></linearGradient><linearGradient x1="267.11821" y1="113.46165" x2="267.11821" y2="137.93621" gradientUnits="userSpaceOnUse" id="color-4"><stop offset="0" stop-color="#090225"/><stop offset="1" stop-color="#200680"/></linearGradient><linearGradient x1="267.75856" y1="91.36023" x2="267.75856" y2="109.76023" gradientUnits="userSpaceOnUse" id="color-5"><stop offset="0" stop-color="#090225"/><stop offset="1" stop-color="#200680"/></linearGradient><linearGradient x1="238.35235" y1="57.36023" x2="238.35235" y2="101.63957" gradientUnits="userSpaceOnUse" id="color-6"><stop offset="0" stop-color="#090225"/><stop offset="1" stop-color="#200680"/></linearGradient></defs><g transform="translate(-175.83999,-46.38751)"><g data-paper-data="{&quot;isPaintingLayer&quot;:true}" fill-rule="nonzero" stroke-linejoin="miter" stroke-miterlimit="10" stroke-dasharray="" stroke-dashoffset="0" style="mix-blend-mode: normal"><path d="M179.28377,313.61252v-267.22501h123.18203v267.22501z" fill-opacity="0.01" fill="#000000" stroke="none" stroke-width="0" stroke-linecap="butt"/><path d="M206.7501,307.5l15.14285,-131.8421l37.78325,-0.15789l13.57389,132z" fill="url(#color-1)" stroke="#000000" stroke-width="0" stroke-linecap="butt"/><path d="M175.84,138.17949c0,-33.30185 28.7599,-60.29833 64.23702,-60.29833c35.47712,0 64.23702,26.99649 64.23702,60.29833c0,33.30185 -28.7599,60.29833 -64.23702,60.29833c-35.47712,0 -64.23702,-26.99649 -64.23702,-60.29833z" fill="url(#color-2)" stroke="#000000" stroke-width="0" stroke-linecap="butt"/><path d="M189.39023,138.27563c0,-12.968 10.51265,-23.48065 23.48065,-23.48065c12.968,0 23.48065,10.51265 23.48065,23.48065c0,12.968 -10.51265,23.48065 -23.48065,23.48065c-12.968,0 -23.48065,-10.51265 -23.48065,-23.48065z" fill="#797979" stroke="#000000" stroke-width="0" stroke-linecap="butt"/><path d="M196.4556,138c0,-9.12808 7.39976,-16.52784 16.52783,-16.52784c9.12808,0 16.52784,7.39977 16.52784,16.52784c0,9.12808 -7.39977,16.52784 -16.52784,16.52784c-9.12808,0 -16.52783,-7.39977 -16.52783,-16.52784z" fill="#000000" stroke="none" stroke-width="0" stroke-linecap="butt"/><path d="M252.61667,177.65643c0,0 -7.51387,2.04626 -11.51056,2.04626c-4.34417,0 -13.59903,-2.04626 -13.59903,-2.04626" fill="none" stroke="#000000" stroke-width="0" stroke-linecap="round"/><path d="M267.1293,161.75627c-12.968,0 -23.48065,-10.51265 -23.48065,-23.48065c0,-12.968 10.51265,-23.48065 23.48065,-23.48065c12.968,0 23.48065,10.51265 23.48065,23.48065c0,12.968 -10.51265,23.48065 -23.48065,23.48065z" data-paper-data="{&quot;index&quot;:null}" fill="#797979" stroke="#000000" stroke-width="0" stroke-linecap="butt"/><path d="M267.01671,154.52784c-9.12807,0 -16.52783,-7.39977 -16.52783,-16.52784c0,-9.12808 7.39977,-16.52784 16.52783,-16.52784c9.12807,0 16.52783,7.39977 16.52783,16.52784c0,9.12808 -7.39977,16.52784 -16.52783,16.52784z" data-paper-data="{&quot;index&quot;:null}" fill="#000000" stroke="none" stroke-width="0" stroke-linecap="butt"/><path d="M189.05689,138.27193c0,-13.15005 10.66023,-23.81028 23.81028,-23.81028c13.15005,0 23.81028,10.66023 23.81028,23.81028c0,0 -11.53617,-15.17484 -23.74439,-15.10181c-11.58577,0.06931 -23.87618,15.39497 -23.87618,15.10181z" fill="url(#color-3)" stroke="#000000" stroke-width="0" stroke-linecap="butt"/><path d="M242.64866,137.93121c0,-13.51416 10.9554,-24.46957 24.46957,-24.46957c13.51416,0 24.46957,10.9554 24.46957,24.46957c0,0.31856 -11.71227,-14.69183 -24.33254,-14.7764c-11.8233,-0.07924 -24.60661,14.7764 -24.60661,14.7764z" data-paper-data="{&quot;index&quot;:null}" fill="url(#color-4)" stroke="#000000" stroke-width="0" stroke-linecap="butt"/><path d="M202.02787,109.46716c0,0 6.70895,-5.16922 11.79722,-6.36355c5.08827,-1.19433 12.33413,0.69937 12.33413,0.69937c0,0 -8.03812,-0.06028 -11.96762,0.86207c-4.10648,0.96388 -12.16372,4.80211 -12.16372,4.80211z" fill="#000000" stroke="none" stroke-width="0" stroke-linecap="butt"/><path d="M265.96236,104.66506c-3.9295,-0.92235 -11.96762,-0.86207 -11.96762,-0.86207c0,0 7.24586,-1.8937 12.33413,-0.69937c5.08826,1.19433 11.79721,6.36355 11.79721,6.36355c0,0 -8.05724,-3.83822 -12.16372,-4.80211z" data-paper-data="{&quot;index&quot;:null}" fill="#000000" stroke="none" stroke-width="0" stroke-linecap="butt"/><path d="M346.95857,100.56023c0,5.08102 -56.41489,9.2 -92.7,9.2c-36.28511,0 -65.7,-4.11898 -65.7,-9.2c0,-5.08102 29.41489,-9.2 65.7,-9.2c36.28511,0 92.7,4.11898 92.7,9.2z" fill="url(#color-5)" stroke="#000000" stroke-width="0" stroke-linecap="butt"/><path d="M287.03058,91.7911c0,14.3105 -48.20362,9.15758 -77.92229,7.97737c-9.24732,-0.36723 -18.74976,-0.67223 -19.14977,-2.97737c-3.2511,-18.73566 21.88555,-39.43087 48.63603,-39.43087c26.75048,0 48.43603,15.41523 48.43603,34.43087z" fill="url(#color-6)" stroke="#000000" stroke-width="0" stroke-linecap="butt"/><path d="M259.57291,65.469l-0.11597,12.76026l5.14397,-1.03672l-8.15134,19.48644l1.67398,-14.49929l-4.52443,1.39219z" fill="#b1a309" stroke="none" stroke-width="0" stroke-linecap="butt"/><path d="M244.78574,181c0,3.39261 -2.14264,6.14286 -4.78571,6.14286c-2.64308,0 -4.78571,-2.75025 -4.78571,-6.14286c0,-3.39261 2.14264,-6.14286 4.78571,-6.14286c2.64308,0 4.78571,2.75025 4.78571,6.14286z" fill="#000000" stroke="#000000" stroke-width="2" stroke-linecap="butt"/></g></g></svg>