<svg version="1.1" xmlns="http://www.w3.org/2000/svg" xmlns:xlink="http://www.w3.org/1999/xlink" width="217.77127" height="274.9399" viewBox="0,0,217.77127,274.9399"><defs><linearGradient x1="117.62858" y1="155.05218" x2="150.20207" y2="155.05218" gradientUnits="userSpaceOnUse" id="color-1"><stop offset="0" stop-color="#050409"/><stop offset="1" stop-color="#131313"/></linearGradient><linearGradient x1="173.22785" y1="158.47162" x2="173.22785" y2="145.80414" gradientUnits="userSpaceOnUse" id="color-2"><stop offset="0" stop-color="#ededed"/><stop offset="1" stop-color="#a1a1a1"/></linearGradient><linearGradient x1="178.587" y1="40.28108" x2="191.45464" y2="70.20529" gradientUnits="userSpaceOnUse" id="color-3"><stop offset="0" stop-color="#050409"/><stop offset="1" stop-color="#131313"/></linearGradient><linearGradient x1="197.40925" y1="92.7091" x2="209.04643" y2="87.70503" gradientUnits="userSpaceOnUse" id="color-4"><stop offset="0" stop-color="#ededed"/><stop offset="1" stop-color="#a1a1a1"/></linearGradient><linearGradient x1="328.98834" y1="218.41697" x2="301.66409" y2="200.68505" gradientUnits="userSpaceOnUse" id="color-5"><stop offset="0" stop-color="#050409"/><stop offset="1" stop-color="#131313"/></linearGradient><linearGradient x1="284.21038" y1="185.28222" x2="277.31467" y2="195.9083" gradientUnits="userSpaceOnUse" id="color-6"><stop offset="0" stop-color="#ededed"/><stop offset="1" stop-color="#a1a1a1"/></linearGradient><linearGradient x1="240.00005" y1="175.50003" x2="240.00005" y2="307.50002" gradientUnits="userSpaceOnUse" id="color-7"><stop offset="0" stop-color="#000000"/><stop offset="1" stop-color="#9d5148"/></linearGradient><linearGradient x1="240.07701" y1="76.88117" x2="240.07701" y2="197.47783" gradientUnits="userSpaceOnUse" id="color-8"><stop offset="0" stop-color="#000000"/><stop offset="1" stop-color="#9d5148"/></linearGradient><linearGradient x1="212.87084" y1="113.08597" x2="212.87084" y2="137.823" gradientUnits="userSpaceOnUse" id="color-9"><stop offset="0" stop-color="#000000"/><stop offset="1" stop-color="#9d5148"/></linearGradient><linearGradient x1="267.1293" y1="113.08597" x2="267.1293" y2="137.81511" gradientUnits="userSpaceOnUse" id="color-10"><stop offset="0" stop-color="#000000"/><stop offset="1" stop-color="#9d5148"/></linearGradient><radialGradient cx="273.05422" cy="186.78747" r="19.6296" gradientUnits="userSpaceOnUse" id="color-11"><stop offset="0" stop-color="#4a0000"/><stop offset="1" stop-color="#be0000"/></radialGradient><radialGradient cx="180.05883" cy="152.20744" r="26.37529" gradientUnits="userSpaceOnUse" id="color-12"><stop offset="0" stop-color="#4a0000"/><stop offset="1" stop-color="#be0000"/></radialGradient><radialGradient cx="211.32057" cy="90.68023" r="21.65502" gradientUnits="userSpaceOnUse" id="color-13"><stop offset="0" stop-color="#4a0000"/><stop offset="1" stop-color="#be0000"/></radialGradient><linearGradient x1="315.80893" y1="104.58876" x2="315.80893" y2="125.9524" gradientUnits="userSpaceOnUse" id="color-14"><stop offset="0" stop-color="#000000"/><stop offset="1" stop-color="#9d5148"/></linearGradient><linearGradient x1="251.44067" y1="57.59158" x2="251.44067" y2="116.61907" gradientUnits="userSpaceOnUse" id="color-15"><stop offset="0" stop-color="#000000"/><stop offset="1" stop-color="#9d5148"/></linearGradient></defs><g transform="translate(-117.62857,-38.67263)"><g data-paper-data="{&quot;isPaintingLayer&quot;:true}" fill-rule="nonzero" stroke-linejoin="miter" stroke-miterlimit="10" stroke-dasharray="" stroke-dashoffset="0" style="mix-blend-mode: normal"><g stroke="none" stroke-width="0" stroke-linecap="butt"><path d="M117.62858,159.12386v-8.14338h32.57352v8.14338z" fill="url(#color-1)"/><path d="M180.31318,146.188c7.6359,1.10354 17.39197,11.83121 17.39197,11.83121l-47.95546,0.45241v-12.66748c0,0 22.56417,-0.77221 30.56349,0.38386z" data-paper-data="{&quot;index&quot;:null}" fill="url(#color-2)"/></g><g stroke="none" stroke-width="0" stroke-linecap="butt"><path d="M174.84648,41.88954l7.48105,-3.21691l12.86763,29.92421l-7.48105,3.2169z" fill="url(#color-3)"/><path d="M211.49275,94.36569c2.00265,7.45078 -3.99853,20.65115 -3.99853,20.65115l-19.35962,-43.87637l11.63719,-5.00407c0,0 9.623,20.4239 11.72096,28.2293z" data-paper-data="{&quot;index&quot;:null}" fill="url(#color-4)"/></g><g stroke="none" stroke-width="0" stroke-linecap="butt"><path d="M331.20482,215.00144l-4.43297,6.83106l-27.32423,-17.73191l4.43298,-6.83106z" fill="url(#color-5)"/><path d="M271.58014,191.72931c-5.80462,-5.08243 -8.14872,-19.39217 -8.14872,-19.39217l40.47361,25.72581l-6.89574,10.62609c0,0 -19.34826,-11.63541 -25.42916,-16.95973z" data-paper-data="{&quot;index&quot;:null}" fill="url(#color-6)"/></g><path d="M179.28377,313.61253v-267.22501h123.18203v267.22501z" fill-opacity="0.01" fill="#000000" stroke="none" stroke-width="0" stroke-linecap="butt"/><path d="M206.75005,307.50001l15.14285,-131.8421l37.78325,-0.15789l13.57389,132z" fill="url(#color-7)" stroke="#000000" stroke-width="0" stroke-linecap="butt"/><path d="M175.83997,137.1795c0,-33.30185 28.7599,-60.29833 64.23702,-60.29833c35.47712,0 64.23702,26.99649 64.23702,60.29833c0,33.30185 -28.7599,60.29833 -64.23702,60.29833c-35.47712,0 -64.23702,-26.99649 -64.23702,-60.29833z" fill="url(#color-8)" stroke="#000000" stroke-width="0" stroke-linecap="butt"/><path d="M189.39018,137.27565c0,-12.968 10.51265,-23.48065 23.48065,-23.48065c12.968,0 23.48065,10.51265 23.48065,23.48065c0,12.968 -10.51265,23.48065 -23.48065,23.48065c-12.968,0 -23.48065,-10.51265 -23.48065,-23.48065z" fill="#959595" stroke="#000000" stroke-width="0" stroke-linecap="butt"/><path d="M196.45556,144.09027c0,-9.12808 7.39976,-16.52784 16.52783,-16.52784c9.12808,0 16.52784,7.39977 16.52784,16.52784c0,9.12808 -7.39977,16.52784 -16.52784,16.52784c-9.12808,0 -16.52783,-7.39977 -16.52783,-16.52784z" fill="#000000" stroke="#000000" stroke-width="2" stroke-linecap="butt"/><path d="M227.29017,185.98322c0,0 8.3874,-0.27698 12.39428,-0.27698c4.33685,0 12.71531,0.27698 12.71531,0.27698" fill="#000000" stroke="#000000" stroke-width="2" stroke-linecap="round"/><path d="M267.12929,160.75629c-12.968,0 -23.48065,-10.51265 -23.48065,-23.48065c0,-12.968 10.51265,-23.48065 23.48065,-23.48065c12.968,0 23.48065,10.51265 23.48065,23.48065c0,12.968 -10.51265,23.48065 -23.48065,23.48065z" data-paper-data="{&quot;index&quot;:null}" fill="#959595" stroke="#000000" stroke-width="0" stroke-linecap="butt"/><path d="M267.01671,160.61812c-9.12807,0 -16.52783,-7.39977 -16.52783,-16.52784c0,-9.12808 7.39977,-16.52784 16.52783,-16.52784c9.12807,0 16.52783,7.39977 16.52783,16.52784c0,9.12808 -7.39977,16.52784 -16.52783,16.52784z" data-paper-data="{&quot;index&quot;:null}" fill="#000000" stroke="#000000" stroke-width="2" stroke-linecap="butt"/><path d="M188.68117,137.27565c0,-12.968 11.22168,-24.18968 24.18967,-24.18968c12.968,0 24.18967,11.22168 24.18967,24.18968c0,0 -47.67033,1.23155 -47.67033,0z" fill="url(#color-9)" stroke="#000000" stroke-width="0" stroke-linecap="butt"/><path d="M242.93962,137.27565c0,-12.968 11.22168,-24.18968 24.18967,-24.18968c12.968,0 24.18967,11.22168 24.18967,24.18968c0,1.2138 -47.67033,0 -47.67033,0z" data-paper-data="{&quot;index&quot;:null}" fill="url(#color-10)" stroke="#000000" stroke-width="0" stroke-linecap="butt"/><path d="M202.02787,108.46718c0,0 6.70895,-5.16922 11.79722,-6.36355c5.08827,-1.19433 12.33413,0.69937 12.33413,0.69937c0,0 -8.03812,-0.06028 -11.96762,0.86207c-4.10648,0.96388 -12.16372,4.80211 -12.16372,4.80211z" fill="#000000" stroke="none" stroke-width="0" stroke-linecap="butt"/><path d="M265.96236,103.66508c-3.9295,-0.92235 -11.96762,-0.86207 -11.96762,-0.86207c0,0 7.24586,-1.8937 12.33413,-0.69937c5.08826,1.19433 11.79721,6.36355 11.79721,6.36355c0,0 -8.05724,-3.83822 -12.16372,-4.80211z" data-paper-data="{&quot;index&quot;:null}" fill="#000000" stroke="none" stroke-width="0" stroke-linecap="butt"/><path d="M222.1568,234.43785c0,0 16.09555,12.12494 23.49385,18.26012c6.91591,5.73514 19.54642,17.43182 19.54642,17.43182" fill="none" stroke="#810000" stroke-width="2" stroke-linecap="round"/><path d="M218.48264,247.03499l35.69194,-2.88684l0.52489,5.24882" fill="none" stroke="#810000" stroke-width="2" stroke-linecap="round"/><path d="M251.02529,244.67304v2.09953" fill="none" stroke="#810000" stroke-width="2" stroke-linecap="round"/><path d="M253.1248,253.85847l-0.52489,-8.92299" fill="none" stroke="#810000" stroke-width="2" stroke-linecap="round"/><path d="M223.99388,246.51012l-0.26244,3.14929" fill="none" stroke="#810000" stroke-width="2" stroke-linecap="round"/><path d="M225.83098,247.55989v4.19905" fill="none" stroke="#810000" stroke-width="2" stroke-linecap="round"/><path d="M227.66805,246.24768l1.04976,11.80983" fill="none" stroke="#810000" stroke-width="2" stroke-linecap="round"/><path d="M228.98027,254.1209l1.3122,-7.61078" fill="none" stroke="#810000" stroke-width="2" stroke-linecap="round"/><path d="M263.35997,270.65466v-2.36196" fill="none" stroke="#810000" stroke-width="2" stroke-linecap="round"/><path d="M244.68477,189.96167l-0.24935,-2.74288l2.99223,0.49871l0.24936,6.73252" fill="none" stroke="#810000" stroke-width="2" stroke-linecap="round"/><path d="M282.30267,182.38608c0,0 -7.57411,6.1543 -11.62879,8.19797c-3.90932,1.97041 -13.0519,4.16665 -13.0519,4.16665l6.73875,-3.66021l-6.0697,-0.89207l1.52704,-2.16288l-8.23345,-2.20221l9.33718,-2.56522l-7.35362,-5.23531l7.36673,1.98182l-5.39802,-6.09504l9.31358,3.29108l-0.41719,-4.12285l1.95297,-0.20904l2.83019,-2.59143l3.01999,4.13333l1.08799,-0.86323l1.29703,1.08974l4.58024,-6.27174l-0.24312,6.50612l1.3014,0.00525l1.72471,2.60979l8.91125,-4.51907l-8.59326,9.40856z" fill="url(#color-11)" stroke="none" stroke-width="0" stroke-linecap="round"/><path d="M177.84727,140.92722l1.04977,-8.13566l2.09952,-2.62441l-1.57465,7.87322l1.83709,-0.26244l6.82346,-15.22156l-4.4615,14.43424l4.19905,1.04976l-3.14929,5.24882l2.88684,-1.83709l0.78733,1.57465l2.09952,-0.78733l-1.57465,3.14929l1.57465,1.31221l-5.51126,3.14928l6.29857,-0.52488l-2.88684,3.93661l1.83709,1.31221l-1.31221,1.57465l2.09952,0.26244v2.36196h-2.09953l5.7737,7.61078l-0.78732,1.57465l-2.36196,-1.57465l-4.19905,-4.72393l5.51126,10.76007l0.26244,2.88684l-1.57464,-0.52488l-7.61078,-10.23519l-2.36197,-0.52488l-6.82345,-25.19431z" fill="url(#color-12)" stroke="#000000" stroke-width="0" stroke-linecap="round"/><path d="M235.86958,91.47856l-6.18715,3.79212l3.79212,4.1913l-3.59254,1.19751l2.39503,3.59253l-6.98549,-1.79627l-1.19751,2.19544l-3.79212,-2.19544l-0.79835,0.99793h-1.59668l0.59875,2.7942l-2.19544,0.39917l-2.39503,-2.39503l-0.59876,1.99586l-1.59668,-0.19958l-2.99379,-7.38466l-0.39917,7.98342l-1.59669,0.19959l-0.99793,-6.18715l-4.19129,8.58217l-5.98756,-2.99378l2.19544,-2.99378l-1.99585,-2.19544l4.39088,-6.38674l-7.58425,5.18922v-3.99171l6.9855,-4.39088l16.56559,-7.18507z" fill="url(#color-13)" stroke="#000000" stroke-width="0" stroke-linecap="round"/><g stroke="#000000" stroke-width="0" stroke-linecap="round"><path d="M335.39984,115.61907l-2.66666,10.33333l-35.33334,-9.66667l-1.18182,-11.69697z" fill="url(#color-14)"/><path d="M204.06651,89.28573c0,0 7.83762,-22.46259 30.24242,-28.84848c23.10951,-6.58675 44.10372,-2.00268 56.75757,16.51515c12.65385,18.51783 6,39.66667 6,39.66667l-93,-27.33334z" fill="url(#color-15)"/></g></g></g></svg>