<svg version="1.1" xmlns="http://www.w3.org/2000/svg" xmlns:xlink="http://www.w3.org/1999/xlink" width="35.34261" height="35.34239" viewBox="0,0,35.34261,35.34239"><defs><linearGradient x1="239.77704" y1="176.22045" x2="239.69559" y2="186.65718" gradientUnits="userSpaceOnUse" id="color-1"><stop offset="0" stop-color="#9e9e9e"/><stop offset="1" stop-color="#090909"/></linearGradient></defs><g transform="translate(-222.41345,-162.41345)"><g data-paper-data="{&quot;isPaintingLayer&quot;:true}" stroke-miterlimit="10" stroke-dasharray="" stroke-dashoffset="0" style="mix-blend-mode: normal"><path d="M257.75606,170.02545v20.498c0,4.0075 -3.225,7.2324 -7.2324,7.2324h-20.5c-3.6611,0 -6.6615,-2.6938 -7.1543,-6.2148c0.7952,3.0347 3.541,5.2637 6.832,5.2637h20.0332c3.9166,0 7.0703,-3.1538 7.0703,-7.0703v-20.0333c0,-3.2976 -2.239,-6.0451 -5.2832,-6.8339c3.5299,0.4849 6.2344,3.4908 6.2344,7.1582z" fill-opacity="0.29839" fill="#000000" fill-rule="evenodd" stroke="none" stroke-width="4.54219" stroke-linecap="round" stroke-linejoin="round"/><path d="M229.73312,162.66346h20.03379c3.9166,0 7.06966,3.15307 7.06966,7.06966v20.03379c0,3.91659 -3.15306,7.06966 -7.06966,7.06966h-20.03379c-3.91659,0 -7.06966,-3.15307 -7.06966,-7.06966v-20.03379c0,-3.91659 3.15307,-7.06966 7.06966,-7.06966z" fill="#000000" fill-rule="evenodd" stroke="#ffffff" stroke-width="0.5" stroke-linecap="round" stroke-linejoin="round"/><path d="M252.94531,181.5419c0,0 -6.48331,4.91322 -13.77843,4.85628c-7.29513,-0.05694 -12.63955,-5.06247 -12.63955,-5.06247c0,0 5.68571,-8.41002 12.98083,-8.35309c7.29513,0.05694 13.43715,8.55927 13.43715,8.55927z" fill="url(#color-1)" fill-rule="nonzero" stroke="none" stroke-width="0" stroke-linecap="butt" stroke-linejoin="miter"/><path d="M236.88676,179.8391c-0.14825,-4.76114 1.01348,-8.66073 2.59477,-8.70997c1.5813,-0.04923 2.98336,3.77053 3.1316,8.53168c0.03788,1.21668 -0.00978,2.3771 -0.12813,3.43138c-0.34477,3.07136 -1.28944,5.24194 -2.46665,5.2786c-1.58129,0.04924 -2.98336,-3.77052 -3.13161,-8.53167z" fill="#000000" fill-rule="nonzero" stroke="none" stroke-width="0" stroke-linecap="butt" stroke-linejoin="miter"/></g></g></svg>