<svg version="1.1" xmlns="http://www.w3.org/2000/svg" xmlns:xlink="http://www.w3.org/1999/xlink" width="35.10968" height="35.10931" viewBox="0,0,35.10968,35.10931"><g transform="translate(-222.44516,-162.44534)"><g data-paper-data="{&quot;isPaintingLayer&quot;:true}" stroke-linecap="round" stroke-miterlimit="10" stroke-dasharray="" stroke-dashoffset="0" style="mix-blend-mode: normal"><path d="M257.55483,169.82419v20.49804c0,4.00745 -3.22497,7.23243 -7.23242,7.23243h-20.5c-3.66107,0 -6.66147,-2.69385 -7.1543,-6.21484c0.7952,3.03475 3.54108,5.26367 6.83204,5.26367h20.0332c3.9166,0 7.07032,-3.15372 7.07032,-7.07031v-20.03321c0,-3.2976 -2.23906,-6.0451 -5.28321,-6.83398c3.52994,0.48496 6.23438,3.49081 6.23438,7.15821z" fill-opacity="0.29839" fill="#000000" fill-rule="evenodd" stroke="none" stroke-width="4.54219" stroke-linejoin="round"/><g><path d="M229.51482,162.44535h20.03379c3.9166,0 7.06966,3.15307 7.06966,7.06966v20.03379c0,3.91659 -3.15306,7.06966 -7.06966,7.06966h-20.03379c-3.91659,0 -7.06966,-3.15307 -7.06966,-7.06966v-20.03379c0,-3.91659 3.15307,-7.06966 7.06966,-7.06966z" fill="#4f4f4f" fill-rule="evenodd" stroke="none" stroke-width="4.43922" stroke-linejoin="round"/><path d="M234.07274,183.47072l12.78232,-16.36137l-2.65872,19.32686z" fill="#363636" fill-rule="nonzero" stroke="#000000" stroke-width="1" stroke-linejoin="miter"/><path d="M228.7553,184.49331l5.4197,-1.02259l10.12359,3.17002l3.68131,3.47679z" fill="#252525" fill-rule="nonzero" stroke="#000000" stroke-width="1" stroke-linejoin="miter"/><path d="M243.88957,189.09494l-0.81807,2.35195l-10.22585,-2.65873l-0.40903,-3.06776z" fill="#959595" fill-rule="nonzero" stroke="#000000" stroke-width="1" stroke-linejoin="miter"/></g></g></g></svg>