<svg version="1.1" xmlns="http://www.w3.org/2000/svg" xmlns:xlink="http://www.w3.org/1999/xlink" width="173.23603" height="267.22501" viewBox="0,0,173.23603,267.22501"><defs><linearGradient x1="229.44331" y1="107.53729" x2="223.04705" y2="187.12537" gradientUnits="userSpaceOnUse" id="color-1"><stop offset="0" stop-color="#ffffff" stop-opacity="0.06754"/><stop offset="1" stop-color="#666666" stop-opacity="0.33367"/></linearGradient></defs><g transform="translate(-173.06658,-46.3875)"><g data-paper-data="{&quot;isPaintingLayer&quot;:true}" fill-rule="nonzero" stroke-linejoin="miter" stroke-miterlimit="10" stroke-dasharray="" stroke-dashoffset="0" style="mix-blend-mode: normal"><g><path d="M179.14715,313.61251v-267.22501h123.18203v267.22501z" fill-opacity="0.01" fill="#000000" stroke="none" stroke-width="0" stroke-linecap="butt"/><path d="M182.46554,144.40286l135.52439,10.55654c0,0 -10.09411,42.39996 -11.87995,46.26928c-1.78584,3.86932 -10.62943,2.50104 -10.62943,2.50104c0,0 1.22278,10.99558 -0.62526,15.00625c-1.84804,4.01068 -5.17444,5.97702 -9.17043,6.25261c-3.996,0.27559 -8.96213,-5.00208 -8.96213,-5.00208l-8.75365,10.62943l-53.14714,0.62526l-10.00417,-10.62943l-3.1263,3.1263c0,0 -3.08747,4.306 -8.545,1.66748c-3.77966,-1.82733 -4.58548,-7.92008 -4.58548,-7.92008l-0.62526,-14.38099c0,0 -8.14888,-0.39257 -10.62943,-2.50104c-2.48055,-2.10847 -1.87578,-8.12839 -1.87578,-8.12839z" fill="#874e8b" stroke="#000000" stroke-width="2" stroke-linecap="round"/><path d="M206.75006,307.50001l15.14285,-131.8421l37.78325,-0.15789l13.57389,132z" fill="#d477dc" stroke="#000000" stroke-width="2" stroke-linecap="butt"/><path d="M219.70029,204.11265l3.12142,-26.32765l35.83075,-0.14203l2.76735,26.1059c0,0 -7.51543,4.19603 -21.55904,4.50964c-12.48458,0.27879 -20.16049,-4.14586 -20.16049,-4.14586z" fill="#9c58a0" stroke="#000000" stroke-width="0" stroke-linecap="butt"/></g><path d="M180.21295,123.54233c3.09397,-11.43025 9.36581,-21.54653 17.82653,-29.55825c13.89498,-13.1576 29.45102,6.97538 50.77287,8.67205c22.30816,1.77515 45.62374,-14.40738 57.14183,1.92754c8.32874,11.81179 12.70725,26.18733 11.50236,41.32927c-1.99014,25.00988 -18.69002,45.54623 -41.55232,54.77636c-1.31211,-0.97067 -2.51521,-1.77989 -3.48908,-2.35738c-5.17279,-3.06745 -11.03232,-5.08286 -17.25575,-5.62466c-6.64293,-0.57832 -13.29034,-1.1073 -19.94113,-1.58681c-6.1174,-0.44106 -12.7587,0.80356 -18.87402,1.00654c-3.45296,0.1146 -6.91001,0.18178 -10.36272,0.31617c-13.20513,-9.44362 -22.71826,-22.80071 -26.33489,-38.32067c-1.41868,-6.08794 4.22689,-11.34575 4.74529,-17.86059z" fill="#d477dc" stroke="#000000" stroke-width="2" stroke-linecap="butt"/><path d="M316.5305,145.53452c-1.98416,24.9348 -18.84934,45.35251 -41.84594,54.27662c-0.77952,-0.54517 -1.49985,-1.01651 -2.13042,-1.39617c35.12462,-12.72904 44.04731,-53.77223 43.97637,-52.88045z" fill="#9c58a0" stroke="#000000" stroke-width="0" stroke-linecap="butt"/><path d="M179.06341,134.59571c0.05013,-0.6301 0.54355,38.69836 32.81755,57.66213c-1.31697,0.03621 -2.63402,0.07273 -3.95066,0.11585c-19.03259,-12.85424 -30.72804,-34.38927 -28.8669,-57.77799z" fill="#9c58a0" stroke="#000000" stroke-width="0" stroke-linecap="butt"/><path d="M192.92914,136.10866c1.11806,-14.05073 13.41483,-24.53474 27.46557,-23.41666c14.05073,1.11806 24.53474,13.41482 23.41665,27.46556c-1.11806,14.05073 -13.41483,24.53475 -27.46556,23.41665c-14.05073,-1.11806 -24.53474,-13.41483 -23.41665,-27.46556z" fill="#ffffff" stroke="#000000" stroke-width="2" stroke-linecap="butt"/><path d="M275.13443,168.25224c-14.05073,-1.11806 -24.53474,-13.41483 -23.41664,-27.46556c1.11806,-14.05073 13.41482,-24.53474 27.46556,-23.41665c14.05073,1.11806 24.53475,13.41483 23.41666,27.46557c-1.11807,14.05073 -13.41483,24.53474 -27.46557,23.41666z" data-paper-data="{&quot;index&quot;:null}" fill="#ffffff" stroke="#000000" stroke-width="2" stroke-linecap="butt"/><path d="M242.79637,170.1119c2.19889,-2.66357 7.27924,-3.57603 8.5407,1.6916c1.26145,5.26762 -1.18422,17.85918 -1.18422,17.85918c-7.49139,-0.47885 -6.19299,0.36708 -13.69324,0.09972c0,0 4.13788,-16.98693 6.33678,-19.65051z" data-paper-data="{&quot;index&quot;:null}" fill="#000000" stroke="none" stroke-width="0" stroke-linecap="butt"/><path d="M183.78808,99.95817l129.85412,7.85417c0,0 3.79026,14.60189 -2.71655,17.63139c-6.5068,3.02951 -12.02324,-7.89744 -17.29005,-8.31655c-5.2668,-0.41911 -1.78939,4.84091 -12.93135,2.93713c-11.14196,-1.90379 -14.24608,-8.77058 -25.08253,-9.43239c-10.83645,-0.66183 -7.43509,5.52169 -20.56317,5.30442c-7.46767,-0.1236 -25.11786,-3.48603 -25.11786,-3.48603c0,0 -7.61474,5.67273 -22.22515,4.18064c-3.76277,-0.38427 -4.9506,-9.31772 -4.9506,-9.31772z" fill="#874d8a" stroke="#000000" stroke-width="2" stroke-linecap="round"/><path d="M321.27065,119.72597c0,0 2.14739,-0.36966 3.28148,-0.3279c1.24107,0.0457 3.87299,0.59136 3.87299,0.59136c0,0 -2.85934,8.37113 -4.38913,8.28278c-1.42166,-0.08211 -2.76533,-8.54624 -2.76533,-8.54624z" fill="#ffdeff" stroke="none" stroke-width="0" stroke-linecap="butt"/><path d="M322.61173,130.36145c0.03095,-0.53582 0.58926,-0.93941 1.24701,-0.90141c0.65775,0.03799 1.16589,0.50316 1.13494,1.03899c-0.03095,0.53582 -0.58926,0.93941 -1.24701,0.90141c-0.65775,-0.03799 -1.16589,-0.50316 -1.13494,-1.03899z" fill="#ffdeff" stroke="none" stroke-width="0" stroke-linecap="butt"/><g><path d="M174.14276,195.80769l8.71792,-109.55748l162.36577,12.9201l-8.71792,109.55748zM182.62759,183.71919l117.4992,8.55935l5.02931,-78.12139l-116.2542,-9.25346z" fill="#9d829c" stroke="#725771" stroke-width="2" stroke-linecap="butt"/><path d="M308.16291,129.49705c0.15081,-1.89523 0.61533,-7.73278 0.86654,-10.8898c0.09938,-1.24883 1.32628,-1.98586 2.57411,-1.88657c3.61172,0.28739 21.40453,1.70325 27.33647,2.17527c1.21166,0.09643 1.80083,1.75731 1.69643,3.06937c-0.14662,1.84252 -0.5525,6.94315 -0.7999,10.05213c-0.1184,1.48797 -1.23071,2.43771 -2.91,2.30409c-6.64974,-0.52915 -23.47725,-1.86817 -26.81577,-2.13383c-1.12798,-0.08976 -2.04066,-1.52475 -1.94789,-2.69064z" fill="#725771" stroke="#725771" stroke-width="0" stroke-linecap="butt"/><path d="M304.8789,195.79222c0.20119,-2.52839 0.49932,-6.27492 0.6086,-7.64827c0.08006,-1.00619 1.23437,-2.13129 2.36019,-2.0417c3.15424,0.251 18.26879,1.45373 23.56456,1.87513c1.15081,0.09158 1.7135,1.7102 1.61818,2.90804c-0.11044,1.38785 -0.37845,4.75585 -0.56514,7.10196c-0.1133,1.42382 -1.06766,2.40197 -2.0346,2.32504c-2.75845,-0.21951 -16.26938,-1.29463 -22.54003,-1.79361c-1.95675,-0.1557 -3.12566,-1.29594 -3.01181,-2.7266z" fill="none" stroke="#725771" stroke-width="2" stroke-linecap="butt"/><path d="M306.18676,181.10116c0.6183,-7.77014 3.04143,-38.22154 3.44452,-43.28709c0.111,-1.39495 1.32744,-2.50512 2.50853,-2.41114c3.14135,0.24997 17.56455,1.39767 23.30843,1.85474c1.46875,0.11688 2.28504,1.25644 2.18395,2.52678c-0.38012,4.77688 -2.74199,34.45834 -3.42415,43.03095c-0.11673,1.46709 -0.92924,2.25667 -1.78588,2.1885c-2.83965,-0.22595 -18.63902,-1.48318 -24.33298,-1.93628c-1.27719,-0.10163 -1.99396,-0.81603 -1.90242,-1.96647z" fill="#ffdeff" stroke="#725771" stroke-width="2" stroke-linecap="butt"/><path d="M331.67298,204.13658c0.06191,-0.77804 0.74282,-1.35858 1.52086,-1.29666c0.77803,0.06192 1.35858,0.74283 1.29666,1.52086c-0.06191,0.77804 -0.74282,1.35858 -1.52086,1.29666c-0.77803,-0.06192 -1.35858,-0.74283 -1.29666,-1.52086z" fill="#725771" stroke="none" stroke-width="0" stroke-linecap="butt"/><path d="M178.34029,190.90424c0.08442,-1.06096 1.01293,-1.85258 2.07389,-1.76816c1.06096,0.08442 1.85258,1.01293 1.76816,2.0739c-0.08442,1.06096 -1.01293,1.85257 -2.07389,1.76815c-1.06096,-0.08442 -1.85257,-1.01292 -1.76815,-2.07388z" fill="#725771" stroke="none" stroke-width="0" stroke-linecap="butt"/><path d="M184.52683,90.48407c0.05627,-0.70731 0.6753,-1.23505 1.38258,-1.17877c0.7073,0.05628 1.23505,0.6753 1.17877,1.38258c-0.05627,0.70731 -0.6753,1.23505 -1.38258,1.17877c-0.7073,-0.05628 -1.23504,-0.6753 -1.17877,-1.38258z" fill="#725771" stroke="none" stroke-width="0" stroke-linecap="butt"/><path d="M339.80552,101.98664c0.07504,-0.94313 0.90044,-1.64683 1.84354,-1.57179c0.94313,0.07504 1.64683,0.90044 1.57179,1.84354c-0.07504,0.94313 -0.90044,1.64684 -1.84354,1.5718c-0.94313,-0.07504 -1.64682,-0.90045 -1.57178,-1.84355z" fill="#725771" stroke="none" stroke-width="0" stroke-linecap="butt"/><path d="M319.83746,182.63512l3.64835,-45.84845" fill="none" stroke="#725771" stroke-width="2" stroke-linecap="round"/><path d="M333.85839,171.63615l-26.12594,-2.07895" fill="none" stroke="#725771" stroke-width="2" stroke-linecap="round"/><path d="M308.86499,158.5637l26.6382,2.11971" fill="none" stroke="#725771" stroke-width="2" stroke-linecap="round"/><path d="M309.24952,147.25294l26.89433,2.14009" fill="none" stroke="#725771" stroke-width="2" stroke-linecap="round"/></g><path d="M321.27065,119.72597c0,0 2.14739,-0.36966 3.28148,-0.3279c1.24107,0.0457 3.87299,0.59136 3.87299,0.59136c0,0 -2.85934,8.37113 -4.38913,8.28278c-1.42166,-0.08211 -2.76533,-8.54624 -2.76533,-8.54624z" fill-opacity="0.50302" fill="#ffdeff" stroke="none" stroke-width="0" stroke-linecap="butt"/><path d="M322.61173,130.36145c0.03095,-0.53582 0.58926,-0.93941 1.24701,-0.90141c0.65775,0.03799 1.16589,0.50316 1.13494,1.03899c-0.03095,0.53582 -0.58926,0.93941 -1.24701,0.90141c-0.65775,-0.03799 -1.16589,-0.50316 -1.13494,-1.03899z" fill-opacity="0.50302" fill="#ffdeff" stroke="none" stroke-width="0" stroke-linecap="butt"/><g fill="#000000" stroke="none" stroke-width="0" stroke-linecap="butt"><path d="M213.89084,140.95416c0.54907,-6.90021 6.58789,-12.04879 13.48809,-11.49972c6.90021,0.54907 12.04879,6.58789 11.49972,13.4881c-0.54907,6.90021 -6.5879,12.04879 -13.4881,11.49972c-6.90021,-0.54907 -12.04878,-6.5879 -11.49971,-13.4881z"/><path d="M285.7975,159.93446c-6.90019,-0.54907 -12.04877,-6.5879 -11.4997,-13.4881c0.54907,-6.90021 6.58789,-12.04879 13.48809,-11.49972c6.90019,0.54907 12.04878,6.5879 11.49971,13.4881c-0.54907,6.90021 -6.5879,12.04879 -13.48809,11.49971z" data-paper-data="{&quot;index&quot;:null}"/></g><g stroke-linecap="butt"><path d="M182.03916,183.84603l6.39623,-79.58806l83.03797,-4.61822l-6.09305,97.76325z" fill="url(#color-1)" stroke="#725771" stroke-width="2"/><path d="M197.31915,186.77539l-7.47256,-81.51112l11.18592,-1.75127l6.77288,85.26759z" fill-opacity="0.11593" fill="#ffffff" stroke="none" stroke-width="0"/><path d="M217.25419,189.01921l-6.98935,-85.39305l12.50113,-1.59964l6.08391,88.93115z" fill-opacity="0.11593" fill="#ffffff" stroke="none" stroke-width="0"/></g></g></g></svg>