<svg version="1.1" xmlns="http://www.w3.org/2000/svg" xmlns:xlink="http://www.w3.org/1999/xlink" width="145.0912" height="267.22501" viewBox="0,0,145.0912,267.22501"><defs><linearGradient x1="240.00004" y1="175.50001" x2="240.00004" y2="307.50001" gradientUnits="userSpaceOnUse" id="color-1"><stop offset="0" stop-color="#1a110e"/><stop offset="1" stop-color="#5d3d27"/></linearGradient><linearGradient x1="241.28164" y1="89.5377" x2="223.20524" y2="221.24254" gradientUnits="userSpaceOnUse" id="color-2"><stop offset="0" stop-color="#19110c"/><stop offset="1" stop-color="#714a2f"/></linearGradient><radialGradient cx="294.15646" cy="173.67956" r="11.49366" gradientUnits="userSpaceOnUse" id="color-3"><stop offset="0" stop-color="#ffe902"/><stop offset="1" stop-color="#6a6101"/></radialGradient></defs><g transform="translate(-160.13795,-46.38751)"><g data-paper-data="{&quot;isPaintingLayer&quot;:true}" fill-rule="nonzero" stroke-linejoin="miter" stroke-miterlimit="10" stroke-dasharray="" stroke-dashoffset="0" style="mix-blend-mode: normal"><path d="M179.28374,313.61252v-267.22501h123.18203v267.22501z" fill-opacity="0.01" fill="#000000" stroke="none" stroke-width="0" stroke-linecap="butt"/><path d="M206.75005,307.5l15.14285,-131.8421l37.78325,-0.15789l13.57389,132z" fill="url(#color-1)" stroke="#000000" stroke-width="0" stroke-linecap="butt"/><g><g><path d="M162.08953,145.76154c4.99165,-36.36929 40.44719,-61.54155 79.19209,-56.22384c38.74492,5.31771 66.10736,39.11172 61.1157,75.48099c-4.99165,36.36929 -40.44719,61.54155 -79.19209,56.22384c-38.74492,-5.31771 -66.10736,-39.11172 -61.1157,-75.48099z" fill="url(#color-2)" stroke="#000000" stroke-width="0" stroke-linecap="butt"/><path d="M195.78494,121.60601c0,0 5.44148,-0.58956 11.20874,-0.8113c7.84513,-0.30164 11.77954,1.48695 11.77954,1.48695l-5.40144,62.89846c0,0 -5.76748,0.86141 -8.8313,0.4409c-3.95537,-0.54287 -13.36989,-3.48801 -13.36989,-3.48801z" fill="none" stroke="#36251c" stroke-width="2.5" stroke-linecap="round"/><path d="M267.85219,127.84502c5.98783,1.34281 7.50105,2.61548 7.50105,2.61548l-9.20086,60.31075c0,0 -7.27124,-0.17148 -10.5323,-0.61906c-2.88489,-0.39594 -8.0442,-1.93057 -8.0442,-1.93057l11.74462,-62.02785c0,0 4.51946,0.75146 8.53169,1.65122z" fill="none" stroke="#36251c" stroke-width="2.5" stroke-linecap="round"/><path d="M173.56187,124.41139l-0.958,2.64508" fill="none" stroke="#000000" stroke-width="1.5" stroke-linecap="round"/><path d="M173.34813,125.96866l2.68708,3.542" fill="none" stroke="#000000" stroke-width="1.5" stroke-linecap="round"/><path d="M169.27179,132.5489l2.55729,0.15265l1.39698,1.38169" fill="none" stroke="#000000" stroke-width="1.5" stroke-linecap="round"/><path d="M164.29087,141.3849l3.0191,-1.76721l-0.98473,2.83972l1.14124,0.35495l-0.37404,2.72522l2.08782,0.6832" fill="none" stroke="#000000" stroke-width="1.5" stroke-linecap="round"/><path d="M163.32906,148.39261l1.63743,-0.37024l1.43133,2.57636" fill="none" stroke="#000000" stroke-width="1.5" stroke-linecap="round"/><path d="M163.16118,158.28584l-0.73664,2.47713l-1.41603,0.2023" fill="none" stroke="#000000" stroke-width="1.5" stroke-linecap="round"/><path d="M162.14594,165.68289l1.83207,-0.34353l0.95422,1.71756" fill="none" stroke="#000000" stroke-width="1.5" stroke-linecap="round"/><path d="M169.74534,178.22879l-1.20232,-1.35498l-4.00767,-1.14504l2.18703,-1.48475l1.04579,-1.83972l0.5687,-2.6985l0.29387,-2.14124l3.32063,-2.51914" fill="none" stroke="#000000" stroke-width="1.5" stroke-linecap="round"/><path d="M165.8598,179.08378l1.24045,-1.81301" fill="none" stroke="#000000" stroke-width="1.5" stroke-linecap="round"/><path d="M282.3472,174.99478c0.86314,-6.2888 6.66093,-10.6872 12.94975,-9.82406c6.28881,0.86314 10.6872,6.66093 9.82406,12.94975c-0.86314,6.2888 -6.66093,10.6872 -12.94975,9.82406c-6.28881,-0.86314 -10.6872,-6.66093 -9.82406,-12.94975z" fill="url(#color-3)" stroke="#f6c002" stroke-width="0" stroke-linecap="butt"/><path d="M165.62704,170.06472c0,0 0.93113,3.54983 1.59286,5.11479c0.54494,1.28878 2.09558,3.60822 2.09558,3.60822l-3.75674,1.48306c0,0 -1.40291,-3.0186 -1.85098,-4.44293c-0.4271,-1.35763 -0.77752,-3.91254 -0.77752,-3.91254z" fill="#b4b3b4" stroke="#b6b4b2" stroke-width="0.5" stroke-linecap="round"/><path d="M161.18215,165.23523c0,0 -0.74949,-3.10667 -0.88405,-4.59107c-0.13031,-1.43743 0.08905,-4.17897 0.08905,-4.17897l3.87999,-0.07077c0,0 -0.51032,2.89752 -0.46397,4.35651c0.04506,1.41843 0.73827,4.27916 0.73827,4.27916z" fill="#b4b3b4" stroke="#b6b4b2" stroke-width="0.5" stroke-linecap="round"/><path d="M165.99507,138.35845c0,0 -0.92331,3.20905 -1.17743,4.776c-0.22342,1.37751 -0.2671,4.13083 -0.2671,4.13083l-3.48751,-0.47866c0,0 -0.19252,-0.20556 0.46032,-4.83828c0.43981,-3.12104 0.95429,-3.85057 0.95429,-3.85057z" fill="#b4b3b4" stroke="#b6b4b2" stroke-width="0.5" stroke-linecap="round"/><path d="M234.55688,95.92209c1.28845,-0.35907 3.84027,-2.26812 5.19704,-2.13567c1.85393,-0.55707 4.07111,-1.73719 5.63619,-2.42115c0.12648,-0.09596 0.24205,-0.2065 0.34925,-0.32441c0.04764,-0.20595 0.26572,-0.17603 0.26572,-0.17603c1.14185,0.15672 3.74603,0.3957 4.27805,1.61268c0.01521,0.02121 0.02512,0.04287 0.03107,0.06425l0.06929,0.07319c0,0 0.14546,0.19171 -0.04628,0.33716c-0.09275,0.07035 -0.17466,0.06181 -0.23453,0.03423c-1.21922,1.60011 -2.75463,1.81312 -4.61571,2.44488c-1.36637,0.43627 -5.53947,0.58592 -6.39294,1.78388c-2.05009,0.46051 -4.17444,2.15144 -5.96812,2.0701c-0.36788,-0.06193 -0.66497,0.11498 -0.95103,0.33595c0.55392,0.89159 3.6248,1.70126 4.56159,1.82983c1.98582,0.31308 5.13066,1.0628 6.80296,2.16497c2.23634,1.09984 5.27451,0.935 7.32251,2.34053c1.4872,0.1854 6.43975,1.37421 6.20988,3.24476c-0.27645,1.7535 -5.03076,1.71682 -6.34247,1.5253c-0.72214,0.13541 -1.7301,0.01731 -2.49839,-0.07437c-0.05677,0.08417 -0.16281,0.10405 -0.16281,0.10405c-1.88901,0.35128 -3.95302,0.91326 -5.75274,1.5072c-1.5656,-0.21488 -3.43478,1.14684 -4.89965,1.60633c-0.4177,0.13101 -0.55784,0.69136 -1.09701,0.49584c-0.15523,0.31478 -2.29286,1.61623 -1.3423,2.14202l0.08105,0.21519c1.63421,0.32029 3.23644,1.67765 4.71955,2.40629c2.32002,1.14807 4.17626,2.14682 6.77219,2.54054c0.42921,0.29367 1.0864,0.20382 1.26392,0.85592c0.34774,1.27757 -1.01669,1.06527 -1.17434,1.81832c-0.22754,1.08697 0.50367,2.2067 -1.24959,2.69531c-1.09224,1.59636 -2.76642,2.79641 -3.94317,4.51628c-1.26742,1.85242 -2.02418,3.84122 -3.19758,5.62501c-0.32114,0.44372 -0.61139,1.4759 -0.4116,2.01704l-0.00465,0.14776c0.45414,1.36904 0.45241,4.5887 0.34716,5.398c-0.16715,1.21789 0.42846,4.08457 -0.74648,4.9204c-0.6732,0.47891 -1.19368,0.15868 -1.75052,0.97253c-2.26761,0.80469 -3.57352,-1.36259 -5.73833,-1.65971c-0.17921,-0.0246 -0.35843,-0.04919 -0.53763,-0.07379c0.37552,0.3639 0.8241,1.14007 1.19291,1.57799c0.20609,-0.05018 0.27701,0.15875 0.27701,0.15875c0.00487,0.03991 0.01216,0.07976 0.02176,0.1196c0.05156,0.02942 0.09964,0.04336 0.14356,0.03833l0.27311,0.24339c0,0 0.14546,0.19171 -0.04628,0.33716c-0.01214,0.00921 -0.0241,0.01707 -0.03584,0.02371c0.84655,1.10284 2.90996,2.21175 3.33161,3.45393c1.58454,0.9597 3.24193,3.35924 2.96851,5.35134c-1.69194,2.40133 -4.95641,-0.54128 -5.47069,-2.38667c-0.11377,-0.07784 -0.19045,-0.15256 -0.24699,-0.23387c0.22831,1.32714 1.41767,2.58 1.17248,4.36647c-0.10843,0.78997 0.52662,2.26742 0.11317,2.83828c-1.37356,1.89657 -2.50952,-1.62713 -2.70213,-2.19455c0.2632,-2.10041 -1.82247,-3.77794 -1.43469,-6.23766c0.44994,-0.68399 1.25109,-0.96279 1.20124,-1.87956c-0.06713,-1.23469 -1.91844,-1.88291 -2.17764,-2.97787c-1.45121,-0.19917 -3.50656,-4.56164 -2.57922,-5.7531c2.40622,0.10913 4.78828,0.35141 7.17639,0.67917c0.58046,0.07967 1.16094,0.15934 1.74141,0.23901c0.00395,-0.1112 0.10064,-0.18455 0.10064,-0.18455l0.05744,0.04489c0.18758,-1.3667 0.37515,-2.73339 0.56273,-4.10009c0.31877,-2.32258 1.35446,-4.71578 1.63172,-6.95686c1.09712,-2.24891 1.14808,-4.76354 2.58071,-6.85742c0.40162,-0.5549 3.02998,-3.86194 1.85315,-3.97633c-0.0076,-0.00045 -0.01198,-0.00103 -0.01198,-0.00103c-1.3083,-0.17957 -1.65344,-0.94797 -2.70432,-1.32094c-0.80411,-0.28539 -1.42096,0.34399 -2.2115,0.23549c-0.20819,0.01663 0.11391,2.23799 -0.04737,2.64271c-0.42939,1.07765 -1.47444,2.47729 -1.56637,3.55809c-0.76972,1.1701 -0.4213,3.20645 -1.4247,4.20278c-0.91416,0.90773 -1.88604,0.97659 -2.28363,-0.2649c0.27373,-2.22747 1.38677,-4.9121 2.55387,-6.68631c1.48469,-2.16996 -0.05563,-4.11656 2.31423,-5.9144c0.08314,-0.12468 -4.12903,-2.4335 -5.0567,-2.90568c-0.69535,-0.9007 -2.09146,-2.58495 -1.16575,-3.86314c0.37878,-0.523 1.93444,-0.4891 2.48377,-0.69193c2.14034,-0.72654 3.31089,-1.7792 5.4261,-2.46913c0.7197,-0.54599 2.31545,-1.09419 3.20762,-1.07598c1.49812,-0.43585 3.11063,-0.69 4.68833,-1.22932c0.4745,-0.16021 0.8358,-0.47034 1.29927,-0.6302c0.01001,-0.00345 0.02097,-0.00726 0.03277,-0.01138c-0.51298,-0.02749 -1.20106,-0.19786 -1.39604,-0.26013c-0.90714,-0.28972 -1.73275,-1.18201 -2.67868,-1.31184c-2.0898,-1.3835 -4.79463,-1.24897 -6.77386,-2.68149c-2.13472,-0.27413 -3.88918,-2.26053 -5.98029,-2.57257c-3.0348,-1.99636 -0.11603,-3.62855 1.89462,-4.37098c0.89723,-0.30458 1.79861,-0.51317 2.69229,-0.7929c-0.07105,-0.22299 0.15261,-0.29892 0.15261,-0.29892z" fill="#000000" stroke="none" stroke-width="0.5" stroke-linecap="butt"/><path d="M164.87587,130.43221c0,0 1.63806,-5.23784 4.12856,-7.42807c2.49049,-2.19022 2.26541,-0.33444 3.95335,0.32053c1.68794,0.65497 0.83792,0.69379 0.47441,1.39756c-0.36351,0.70377 -5.61587,8.55638 -5.61587,8.55638z" fill="#b4b3b4" stroke="#b6b4b2" stroke-width="0.5" stroke-linecap="round"/><path d="M254.81346,91.68443c0.02406,-0.02962 0.04677,-0.059 0.06795,-0.08807c-0.00447,0.02919 -0.02842,0.05859 -0.06795,0.08807z" fill-opacity="0.43044" fill="#9966ff" stroke="none" stroke-width="0.5" stroke-linecap="butt"/></g><path d="M176.87344,147.89759c1.94379,-14.16248 15.00052,-24.0677 29.163,-22.12391c14.16248,1.94379 24.0677,15.00052 22.12391,29.163c-1.94379,14.16248 -15.00052,24.0677 -29.163,22.12391c-14.16248,-1.94379 -24.0677,-15.00052 -22.12391,-29.163z" fill="#b6b6b6" stroke="#000000" stroke-width="0" stroke-linecap="butt"/><path d="M258.25356,185.19346c-14.16248,-1.94379 -24.0677,-15.00052 -22.12391,-29.163c1.94379,-14.16248 15.00052,-24.0677 29.163,-22.12391c14.16248,1.94379 24.0677,15.00052 22.12391,29.163c-1.94379,14.16248 -15.00052,24.0677 -29.163,22.12391z" data-paper-data="{&quot;index&quot;:null}" fill="#b6b6b6" stroke="#000000" stroke-width="0" stroke-linecap="butt"/><path d="M191.53049,149.90926c0.83278,-6.06762 6.42664,-10.31131 12.49427,-9.47853c6.06762,0.83278 10.31131,6.42665 9.47854,12.49428c-0.83278,6.06762 -6.42665,10.31131 -12.49428,9.47853c-6.06762,-0.83278 -10.3113,-6.42665 -9.47853,-12.49428z" fill="none" stroke="#ffffff" stroke-width="2" stroke-linecap="butt"/><path d="M260.26525,170.53641c-6.06762,-0.83278 -10.31131,-6.42665 -9.47854,-12.49428c0.83278,-6.06762 6.42666,-10.31131 12.49428,-9.47853c6.06762,0.83278 10.3113,6.42665 9.47853,12.49428c-0.83278,6.06762 -6.42666,10.31131 -12.49427,9.47853z" data-paper-data="{&quot;index&quot;:null}" fill="none" stroke="#ffffff" stroke-width="2" stroke-linecap="butt"/><path d="M224.35432,214.66705c9.78215,1.13694 8.42761,5.38763 8.42761,5.38763l-18.68725,-2.56482c0,0 0.13694,-3.99932 10.25964,-2.82282z" fill="#000000" stroke="#000000" stroke-width="1.5" stroke-linecap="round"/></g></g></g></svg>