<svg version="1.1" xmlns="http://www.w3.org/2000/svg" xmlns:xlink="http://www.w3.org/1999/xlink" width="35.50033" height="35.49519" viewBox="0,0,35.50033,35.49519"><defs><linearGradient x1="237.75138" y1="169.42625" x2="237.75138" y2="187.62756" gradientUnits="userSpaceOnUse" id="color-1"><stop offset="0" stop-color="#0e081f"/><stop offset="1" stop-color="#180f38"/></linearGradient><linearGradient x1="238.15153" y1="179.70169" x2="238.15153" y2="183.62178" gradientUnits="userSpaceOnUse" id="color-2"><stop offset="0" stop-color="#141219"/><stop offset="1" stop-color="#675980"/></linearGradient><linearGradient x1="238.09794" y1="179.7017" x2="238.09794" y2="182.7078" gradientUnits="userSpaceOnUse" id="color-3"><stop offset="0" stop-color="#0f002a"/><stop offset="1" stop-color="#290077"/></linearGradient><linearGradient x1="239.54746" y1="180.33491" x2="239.54746" y2="181.7776" gradientUnits="userSpaceOnUse" id="color-4"><stop offset="0" stop-color="#191919"/><stop offset="1" stop-color="#414141"/></linearGradient></defs><g transform="translate(-221.94918,-161.94918)"><g data-paper-data="{&quot;isPaintingLayer&quot;:true}" stroke-miterlimit="10" stroke-dasharray="" stroke-dashoffset="0" style="mix-blend-mode: normal"><path d="M257.4495,169.7139v20.49804c0,4.00745 -3.22497,7.23243 -7.23242,7.23243h-20.5c-3.66107,0 -6.66147,-2.69385 -7.1543,-6.21484c0.7952,3.03475 3.54108,5.26367 6.83204,5.26367h20.0332c3.9166,0 7.07032,-3.15372 7.07032,-7.07031v-20.03321c0,-3.2976 -2.23906,-6.0451 -5.28321,-6.83398c3.52994,0.48496 6.23438,3.49081 6.23438,7.15821z" fill-opacity="0.29839" fill="#000000" fill-rule="evenodd" stroke="none" stroke-width="4.54219" stroke-linecap="round" stroke-linejoin="round"/><path d="M229.26884,162.19918h20.03379c3.9166,0 7.06966,3.15307 7.06966,7.06966v20.03379c0,3.91659 -3.15306,7.06966 -7.06966,7.06966h-20.03379c-3.91659,0 -7.06966,-3.15307 -7.06966,-7.06966v-20.03379c0,-3.91659 3.15307,-7.06966 7.06966,-7.06966z" fill="#000000" fill-rule="evenodd" stroke="#270a59" stroke-width="0.5" stroke-linecap="round" stroke-linejoin="round"/><path d="M228.296,184.11177c-0.62941,-0.86587 -2.6531,-2.17215 -2.6531,-2.17215l2.21348,-2.64949l-3.10234,-2.53799l6.79407,-0.14322l1.88618,-2.01512l-4.09123,-5.16755l6.29103,2.24091c0.02876,0.12878 0.07254,0.25371 0.1362,0.37307c0.91206,1.71012 1.78592,2.17539 3.71504,1.7467c0.09086,-0.02019 0.17685,-0.04271 0.25857,-0.06733c-0.31225,0.75443 -0.61104,1.60835 -0.25101,2.2834c1.00176,1.8783 2.87056,1.86372 4.84587,1.60445c0.47027,-0.06173 0.84661,-0.38745 1.33326,-0.44449c0.88021,-0.10317 1.8468,-0.39365 2.63311,-0.88852c1.34184,1.24401 2.54347,2.82266 2.12511,4.24764c-0.00555,0.85018 0.72752,6.2085 -0.01226,6.79558c-1.79034,1.42078 -1.43942,-2.48885 -1.90224,-2.76614c-0.15427,-0.09243 -1.31388,-2.44175 -1.50394,-2.4526c-1.74551,-0.09965 -2.65195,-0.95573 -5.31416,-0.74807c-4.85843,0.37898 -5.17329,1.88988 -7.82166,1.48141c-1.00156,-0.15448 -5.04721,2.0388 -5.57846,1.30797z" data-paper-data="{&quot;index&quot;:null}" fill="url(#color-1)" fill-rule="nonzero" stroke="#000000" stroke-width="0" stroke-linecap="butt" stroke-linejoin="miter"/><path d="M226.8272,183.62178l-1.70988,-1.84011l0.59877,-0.80554l25.19284,-1.27444l0.27681,2.48726z" data-paper-data="{&quot;origPos&quot;:null}" fill="url(#color-2)" fill-rule="nonzero" stroke="#000000" stroke-width="0" stroke-linecap="butt" stroke-linejoin="miter"/><path d="M226.03273,182.7078l-0.91503,-0.93584l0.62239,-0.79704l25.16883,-1.27322l0.16927,1.63225z" data-paper-data="{&quot;origPos&quot;:null}" fill="url(#color-3)" fill-rule="nonzero" stroke="#000000" stroke-width="0" stroke-linecap="butt" stroke-linejoin="miter"/><path d="M240.71753,180.99047c0.02097,0.3967 -0.48588,0.74775 -1.1321,0.78408c-0.64621,0.03634 -1.18707,-0.2558 -1.20804,-0.6525c-0.02097,-0.3967 0.48588,-0.74775 1.1321,-0.78408c0.64622,-0.03634 1.18707,0.2558 1.20804,0.6525z" data-paper-data="{&quot;origPos&quot;:null}" fill="url(#color-4)" fill-rule="nonzero" stroke="#000000" stroke-width="0" stroke-linecap="butt" stroke-linejoin="miter"/><text transform="translate(238.94599,181.21089) rotate(-3.22784) scale(0.01092,0.01005) skewX(-0.18821)" font-size="40" xml:space="preserve" fill="#ff0000" fill-rule="nonzero" stroke="#000000" stroke-width="0" stroke-linecap="butt" stroke-linejoin="miter" stroke-miterlimit="10" stroke-dasharray="" stroke-dashoffset="0" font-family="Sans Serif" font-weight="normal" text-anchor="start" style="mix-blend-mode: normal"><tspan x="0" dy="0">RUN </tspan><tspan x="0" dy="48px"> </tspan></text></g></g></svg>