<svg version="1.1" xmlns="http://www.w3.org/2000/svg" xmlns:xlink="http://www.w3.org/1999/xlink" width="166.59034" height="285.23952" viewBox="0,0,166.59034,285.23952"><g transform="translate(-157.14814,-28.37301)"><g stroke-miterlimit="10"><path d="M179.28375,313.61253v-267.22501h123.18203v267.22501z" fill-opacity="0.01" fill="#000000" stroke="none" stroke-width="0" stroke-linecap="butt"/><g stroke="#000000" stroke-width="2" stroke-linecap="butt"><path d="M236.33333,94.41269l0.00001,-51.93281h7.33332l0.00001,51.93281z" fill="#8bd19c"/><path d="M240,55.58673c-9.75703,0 -17.66667,-5.86814 -17.66667,-13.10686c0,-7.23871 7.90964,-13.10686 17.66667,-13.10686c9.75703,0 17.66667,5.86814 17.66667,13.10686c0,7.23871 -7.90964,13.10686 -17.66667,13.10686z" fill="#1a9138"/></g><path d="M206.75007,307.50001l15.14285,-131.8421l37.78325,-0.15789l13.57389,132z" fill="#1a9138" stroke="#000000" stroke-width="2" stroke-linecap="butt"/><path d="M221.85698,174.65648h36.3596" fill="none" stroke="#000000" stroke-width="1" stroke-linecap="round"/><path d="M217.65861,220.88722l3.40427,-30.54009l39.0776,-0.16476l3.01812,30.28286c0,0 -8.19645,4.8674 -23.51264,5.23119c-13.61588,0.3234 -21.98736,-4.8092 -21.98736,-4.8092z" fill="#15722c" stroke="#000000" stroke-width="0" stroke-linecap="butt"/><path d="M175.83997,149.44304c0,-33.30185 28.7599,-60.29833 64.23702,-60.29833c35.47712,0 64.23702,26.99649 64.23702,60.29833c0,33.30185 -28.7599,60.29833 -64.23702,60.29833c-35.47712,0 -64.23702,-26.99649 -64.23702,-60.29833z" fill="#1a9138" stroke="#000000" stroke-width="2" stroke-linecap="butt"/><path d="M176.56303,149.49689c0,-0.72799 5.20666,55.91939 63.36046,56.93429c55.56352,0.9697 63.51358,-57.95314 63.51358,-56.93429c0,32.80479 -28.40173,59.39833 -63.43702,59.39833c-35.03529,0 -63.43702,-26.59354 -63.43702,-59.39833z" fill="#15722c" stroke="#000000" stroke-width="0" stroke-linecap="butt"/><path d="M189.39019,149.87252c0,-12.968 10.51265,-23.48065 23.48065,-23.48065c12.968,0 23.48065,10.51265 23.48065,23.48065c0,12.968 -10.51265,23.48065 -23.48065,23.48065c-12.968,0 -23.48065,-10.51265 -23.48065,-23.48065z" fill="#ffffff" stroke="#000000" stroke-width="2" stroke-linecap="butt"/><path d="M196.45557,149.59688c0,-9.12808 7.39976,-16.52784 16.52783,-16.52784c9.12808,0 16.52784,7.39977 16.52784,16.52784c0,9.12808 -7.39977,16.52784 -16.52784,16.52784c-9.12808,0 -16.52783,-7.39977 -16.52783,-16.52784z" fill="#000000" stroke="none" stroke-width="0" stroke-linecap="butt"/><path d="M267.12926,173.35316c-12.968,0 -23.48065,-10.51265 -23.48065,-23.48065c0,-12.968 10.51265,-23.48065 23.48065,-23.48065c12.968,0 23.48065,10.51265 23.48065,23.48065c0,12.968 -10.51265,23.48065 -23.48065,23.48065z" fill="#ffffff" stroke="#000000" stroke-width="2" stroke-linecap="butt"/><path d="M267.01671,166.12472c-9.12807,0 -16.52783,-7.39977 -16.52783,-16.52784c0,-9.12808 7.39977,-16.52784 16.52783,-16.52784c9.12807,0 16.52783,7.39977 16.52783,16.52784c0,9.12808 -7.39977,16.52784 -16.52783,16.52784z" fill="#000000" stroke="none" stroke-width="0" stroke-linecap="butt"/><path d="M189.39019,149.87252c0,-12.968 10.51265,-23.48065 23.48065,-23.48065c12.968,0 23.48065,10.51265 23.48065,23.48065c0,0 -46.96131,1.23155 -46.96131,0z" fill="#1a9138" stroke="#000000" stroke-width="2" stroke-linecap="butt"/><path d="M243.64863,149.87252c0,-12.968 10.51265,-23.48065 23.48065,-23.48065c12.968,0 23.48065,10.51265 23.48065,23.48065c0,1.2138 -46.96131,0 -46.96131,0z" fill="#1a9138" stroke="#000000" stroke-width="2" stroke-linecap="butt"/><path d="M240.7128,250.04869c63.85944,-2.35684 63.85494,-106.23438 63.85494,-106.23438l8.66374,-6.40609c0,0 1.21627,124.01161 -72.51868,123.85112c-74.10115,-0.16129 -73.48132,-122.78343 -73.48132,-122.78343l7.38022,4.80457c0,0 4.25744,109.05064 66.1011,106.76821z" fill="#8bd19c" stroke="#000000" stroke-width="2" stroke-linecap="butt"/><path d="M158.14814,149.92674c0,-12.51846 9.08054,-22.66667 20.28196,-22.66667c1.01424,0 1.18635,45.33333 0,45.33333c-11.20142,0 -20.28196,-10.14821 -20.28196,-22.66666z" fill="#1a9138" stroke="#000000" stroke-width="2" stroke-linecap="butt"/><path d="M173.21877,173.92674v-48.33334h10.14098v48.33334z" fill="#8bd19c" stroke="#000000" stroke-width="2" stroke-linecap="butt"/><path d="M302.45651,172.59341c-1.18635,0 -1.01423,-45.33333 0,-45.33333c11.20142,0 20.28197,10.14821 20.28197,22.66667c0,12.51845 -9.08055,22.66666 -20.28197,22.66666z" fill="#1a9138" stroke="#000000" stroke-width="2" stroke-linecap="butt"/><path d="M297.16436,173.92674v-48.33334h10.14098v48.33334z" fill="#8bd19c" stroke="#000000" stroke-width="2" stroke-linecap="butt"/><path d="M257.61574,96.53959l4.83333,21.33333l-23.83333,-11.5l1.33333,11.33334l-23,-18" fill="none" stroke="#000000" stroke-width="2" stroke-linecap="round"/><path d="M202.02786,121.06404c0,0 6.70895,-5.16922 11.79721,-6.36355c5.08827,-1.19433 12.33413,0.69937 12.33413,0.69937c0,0 -8.03812,-0.06028 -11.96762,0.86207c-4.10648,0.96389 -12.16372,4.80211 -12.16372,4.80211z" fill="#000000" stroke="none" stroke-width="0" stroke-linecap="butt"/><path d="M265.96236,116.26194c-3.9295,-0.92235 -11.96762,-0.86207 -11.96762,-0.86207c0,0 7.24586,-1.8937 12.33413,-0.69937c5.08826,1.19433 11.79721,6.36355 11.79721,6.36355c0,0 -8.05724,-3.83822 -12.16372,-4.80211z" fill="#000000" stroke="none" stroke-width="0" stroke-linecap="butt"/><path d="M263.34381,182.46478c0,0 -9.23495,6.66011 -16.84599,10.03376c-6.39461,2.83446 -24.64084,-2.78716 -24.64084,-2.78716" fill="none" stroke="#000000" stroke-width="2" stroke-linecap="round"/></g></g></svg>