<svg version="1.1" xmlns="http://www.w3.org/2000/svg" xmlns:xlink="http://www.w3.org/1999/xlink" width="34.17311" height="34.17311" viewBox="0,0,34.17311,34.17311"><g transform="translate(-222.91344,-162.91345)"><g data-paper-data="{&quot;isPaintingLayer&quot;:true}" stroke="none" stroke-miterlimit="10" stroke-dasharray="" stroke-dashoffset="0" style="mix-blend-mode: normal"><path d="M251.66668,180.00001c0,5.79008 -5.22335,10.48387 -11.66667,10.48387c-6.44332,0 -11.66667,-4.69379 -11.66667,-10.48387c0,-5.79008 5.22335,-10.48387 11.66667,-10.48387c6.44332,0 11.66667,4.69379 11.66667,10.48387z" fill="#000000" fill-rule="nonzero" stroke-width="0" stroke-linecap="butt" stroke-linejoin="miter"/><path d="M246.4783,183.76245l-2.79773,-0.49362l-0.99608,-4.41241c0,0 -1.22515,2.65923 -2.43512,3.87006c-0.85415,-1.2328 -1.85275,-2.73348 -2.60528,-3.91629c-0.65024,1.66781 -1.18741,4.3692 -1.18741,4.3692l-2.60333,-0.06911c0,0 1.43039,-5.93712 2.56147,-8.81328c1.3087,1.66683 2.65492,3.2388 4.03911,4.71633c0.89168,-1.21244 3.28291,-5.09875 3.44582,-5.02029c0.2535,0.12208 2.2408,7.11104 2.57856,9.76938z" fill="#d9d9d9" fill-rule="evenodd" stroke-width="1" stroke-linecap="butt" stroke-linejoin="miter"/><path d="M229.98312,162.91346h20.03378c3.9166,0 7.06966,3.15307 7.06966,7.06966v20.03379c0,3.91659 -3.15306,7.06966 -7.06966,7.06966h-20.03378c-3.91659,0 -7.06967,-3.15307 -7.06967,-7.06966v-20.03379c0,-3.91659 3.15308,-7.06966 7.06967,-7.06966z" fill-opacity="0.09677" fill="#191919" fill-rule="evenodd" stroke-width="4.43922" stroke-linecap="round" stroke-linejoin="round"/></g></g></svg>