<svg version="1.1" xmlns="http://www.w3.org/2000/svg" xmlns:xlink="http://www.w3.org/1999/xlink" width="234.10323" height="300.98797" viewBox="0,0,234.10323,300.98797"><g transform="translate(-114.47736,-12.62454)"><g data-paper-data="{&quot;isPaintingLayer&quot;:true}" fill-rule="nonzero" stroke-linejoin="miter" stroke-miterlimit="10" stroke-dasharray="" stroke-dashoffset="0" style="mix-blend-mode: normal"><path d="M178.409,313.61251v-267.22501h123.18203v267.22501z" fill-opacity="0.01" fill="#000000" stroke="none" stroke-width="0" stroke-linecap="butt"/><g stroke="#000000" stroke-width="2"><path d="M206.75009,307.50002l15.14285,-131.8421l37.78325,-0.15789l13.57389,132z" fill="#345756" stroke-linecap="butt"/><g fill="#274746" stroke-linecap="round"><path d="M262.4844,196.10052l6.54607,27.89196l-29.31501,4.8384l-27.89196,-4.8384l4.8384,-21.91511z"/><path d="M266.46897,184.43143l1.70767,17.07671l-29.0304,5.97685l-25.89967,-5.12301l-2.27689,-15.08443z"/></g></g><path d="M181.0126,49.97809c0,0 26.87308,24.39519 45.07641,20.92405c11.33894,-1.75696 10.67107,-26.53638 23.1029,-33.81449c20.39521,-11.94018 43.78799,-9.1983 43.78799,-9.1983l1.15782,5.55686c0,0 -21.81135,-1.70775 -41.93464,10.37882c-13.26748,7.96881 -6.70129,30.07861 -26.87005,32.96727c-17.34019,3.25035 -46.21002,-21.78708 -46.21002,-21.78708z" fill="#355656" stroke="#000000" stroke-width="2" stroke-linecap="round"/><path d="M279.9664,41.22421c0,0 7.74796,13.39058 7.35739,7.121c-0.41129,-6.602 -1.61651,-14.65114 -1.61651,-14.65114l5.92559,-1.25306c0,0 2.84026,19.70778 0.07558,23.51571c-2.7647,3.80794 -13.49545,-5.03192 -13.49545,-5.03192z" fill="#244343" stroke="#000000" stroke-width="2" stroke-linecap="round"/><path d="M162.28302,35.54945c0,0 27.92812,26.25255 50.97816,27.42226c19.88495,-2.10946 23.65243,-31.21485 35.74217,-35.90563c14.78016,-5.73465 31.81158,14.49843 31.81158,14.49843l-0.36587,5.29199c0,0 -15.65628,-18.6469 -29.67183,-12.83381c-12.97348,5.38087 -14.86819,32.20022 -35.9122,34.63099c-25.06395,-1.35739 -58.64128,-28.52488 -58.64128,-28.52488z" fill="#2b4f4b" stroke="#000000" stroke-width="2" stroke-linecap="round"/><g><path d="M143.89589,74.27476c0,0 3.1722,-5.43398 6.44478,2.99667c4.19569,10.80871 5.18274,34.00888 7.78906,33.80113c4.80979,-0.38338 6.70199,-76.25818 6.70199,-76.25818l4.41327,3.04015c0,0 -0.59427,84.34108 -10.3971,84.2068c-7.62948,-0.10451 -14.95198,-47.78659 -14.95198,-47.78659z" fill="#244343" stroke="#000000" stroke-width="2" stroke-linecap="round"/><path d="M296.55239,82.60296c0,0 16.03156,47.1933 20.88284,42.94449c4.98793,-4.3685 8.6462,-68.80639 8.6462,-68.80639l6.8748,-2.42246c0,0 -4.6971,79.96154 -14.7634,81.08962c-8.87439,0.99451 -28.47205,-49.31188 -28.47205,-49.31188z" fill="#244343" stroke="#000000" stroke-width="2" stroke-linecap="round"/><path d="M297.6859,152.0847l10.59582,17.91024l-25.04458,1.57368l16.39706,14.85529l-60.05141,-6.04293l-65.03743,10.23844l12.89505,-16.03593l-21.67608,1.15579l11.27109,-21.33062z" fill="#345756" stroke="#000000" stroke-width="2" stroke-linecap="round"/><path d="M173.52824,138.9457c-1.34118,-33.27484 26.30816,-61.40767 61.75649,-62.83645c35.44834,-1.42878 65.27215,24.38754 66.61332,57.66237c1.34118,33.27484 -26.30816,61.40767 -61.75649,62.83645c-35.44834,1.42878 -65.27215,-24.38754 -66.61332,-57.66237z" fill="#345756" stroke="#000000" stroke-width="2" stroke-linecap="butt"/><path d="M187.0747,138.57931c-0.52226,-12.95747 9.55847,-23.88498 22.51596,-24.40725c12.95747,-0.52226 23.88498,9.55847 24.40725,22.51596c0.52226,12.95747 -9.55847,23.88498 -22.51596,24.40725c-12.95747,0.52226 -23.88498,-9.55847 -24.40725,-22.51596z" fill="#ffffff" stroke="#000000" stroke-width="2" stroke-linecap="butt"/><path d="M193.86041,131.49826c-0.36761,-9.12067 6.72812,-16.81244 15.84879,-17.18006c9.12067,-0.36761 16.81245,6.72813 17.18006,15.8488c0.36761,9.12067 -6.72813,16.81245 -15.8488,17.18006c-9.12067,0.36761 -16.81244,-6.72813 -17.18005,-15.8488z" fill="#000000" stroke="none" stroke-width="0" stroke-linecap="butt"/><path d="M251.84592,175.63161l-25.08922,1.01125" fill="none" stroke="#000000" stroke-width="2" stroke-linecap="round"/><path d="M265.69632,158.91007c-12.95747,0.52226 -23.88498,-9.55847 -24.40725,-22.51596c-0.52226,-12.95747 9.55847,-23.88498 22.51596,-24.40725c12.95747,-0.52226 23.88498,9.55847 24.40725,22.51596c0.52226,12.95747 -9.55847,23.88498 -22.51596,24.40725z" data-paper-data="{&quot;index&quot;:null}" fill="#ffffff" stroke="#000000" stroke-width="2" stroke-linecap="butt"/><path d="M265.02991,145.17096c-9.12066,0.36761 -16.81244,-6.72813 -17.18005,-15.8488c-0.36761,-9.12067 6.72813,-16.81245 15.84879,-17.18006c9.12066,-0.36761 16.81244,6.72813 17.18005,15.8488c0.36761,9.12067 -6.72813,16.81245 -15.84879,17.18006z" data-paper-data="{&quot;index&quot;:null}" fill="#000000" stroke="none" stroke-width="0" stroke-linecap="butt"/><path d="M187.0052,138.92482c-0.52227,-12.95748 9.55847,-23.88498 22.51597,-24.40725c12.95748,-0.52227 23.88498,9.55846 24.40725,22.51596c0,0 -12.78672,-12.7596 -24.76431,-12.14196c-11.46204,0.59106 -22.13713,14.5732 -22.1589,14.03325z" fill="#345756" stroke="#000000" stroke-width="2" stroke-linecap="butt"/><path d="M241.29888,136.63637c-0.52227,-12.95748 9.55846,-23.88498 22.51596,-24.40725c12.95748,-0.52227 23.88499,9.55846 24.40726,22.51596c0.01219,0.3024 -12.23372,-12.7674 -23.95219,-12.37059c-11.74918,0.39783 -22.97102,14.26188 -22.97102,14.26188z" data-paper-data="{&quot;index&quot;:null}" fill="#345756" stroke="#000000" stroke-width="2" stroke-linecap="butt"/><path d="M244.25154,83.13626l-9.62839,30.82657l-4.89361,-21.23394l-11.94365,4.20857l5.93702,-14.52674" fill="#345756" stroke="#000000" stroke-width="2" stroke-linecap="round"/><path d="M281.73108,69.17321l-9.58359,-4.78813l-1.98567,-11.22701l9.60672,5.36214l0.24054,10.72243z" fill="#3b5456" stroke="#000000" stroke-width="2" stroke-linecap="round"/><path d="M316.99113,26.31562l5.18622,-9.21634l9.27512,-2.86523l-5.10139,11.32102z" fill="#3b5456" stroke="#000000" stroke-width="2" stroke-linecap="round"/><path d="M279.6179,69.04693l-7.69046,4.14288l-9.20092,-4.80355l9.41246,-4.21227z" fill="#3b5456" stroke="#000000" stroke-width="2" stroke-linecap="round"/><path d="M189.99892,72.87059l-0.6232,-10.70701l9.14401,-6.1179l-1.07566,11.3504l-9.16715,5.54389z" fill="#3b5456" stroke="#000000" stroke-width="2" stroke-linecap="round"/><path d="M133.96797,51.21833l-8.37063,5.81702l-9.12575,-2.46898l6.46381,-6.04773z" fill="#3b5456" stroke="#000000" stroke-width="2" stroke-linecap="round"/><path d="M197.43557,67.18496l9.72094,3.44109l-8.78447,5.52847l-7.99894,-3.51049z" fill="#3b5456" stroke="#000000" stroke-width="2" stroke-linecap="round"/><path d="M339.55398,72.59196l6.97432,6.6181l-9.4973,2.10759l-8.39077,-8.47747z" fill="#3b5456" stroke="#000000" stroke-width="2" stroke-linecap="round"/><path d="M327.43864,71.63247l10.65659,8.41402l3.42165,3.62878l1.18783,13.21743l-3.63286,11.4465l-10.51445,7.3021l-11.88554,-6.39925l-5.41914,-12.55558l1.48755,-11.85134l4.28814,-7.37869z" fill="#616051" stroke="#000000" stroke-width="2" stroke-linecap="round"/><path d="M337.82846,105.93276l-25.49304,-18.95233l17.85109,-12.18335" fill="none" stroke="#000000" stroke-width="2" stroke-linecap="round"/><path d="M317.83931,77.25998l24.51862,19.15536l-18.0397,15.63012" fill="none" stroke="#000000" stroke-width="2" stroke-linecap="round"/><path d="M332.15978,111.56563l-20.08301,-14.74862l21.1516,-19.686" fill="none" stroke="#000000" stroke-width="2" stroke-linecap="round"/><path d="M322.63897,74.44623l18.62997,11.20425l-24.49292,22.11344" fill="none" stroke="#000000" stroke-width="2" stroke-linecap="round"/><path d="M152.95783,70.40222l1.21626,-10.93445l7.98477,8.13832l-1.48632,7.97599z" fill="#3b5456" stroke="#000000" stroke-width="2" stroke-linecap="round"/><path d="M161.99194,67.4765l8.89655,-5.2143l-1.43517,10.27965l-8.45112,3.01139z" fill="#3b5456" stroke="#000000" stroke-width="2" stroke-linecap="round"/><path d="M207.31102,87.71001l-4.13808,12.26232l-10.26505,7.10488l-50.76889,-27.29179l-6.60136,-10.54269l-0.71457,-17.72846l15.21952,-18.26701l15.86779,-2.18368l4.69927,8.04584l-9.35319,-2.19653l-12.00984,14.89576l-1.40304,16.26971l12.70566,8.75254l18.77494,-6.67583l4.36198,-19.47719l4.4877,21.95136l-13.50163,9.80886z" fill="#404135" stroke="#000000" stroke-width="2" stroke-linecap="round"/><path d="M296.05612,77.54562l-14.24728,-8.6904l2.70646,-22.24133l5.91537,19.06296l19.25131,5.14313l11.96003,-9.74672l-2.7079,-16.10401l-13.16972,-13.88087l-9.14607,2.94216l4.03648,-8.39795l15.99206,0.89953l16.64031,16.98287l0.71457,17.72846l-5.73146,11.03978l-48.40773,31.2892l-10.80357,-6.25569l-5.11154,-11.88951z" fill="#404135" stroke="#000000" stroke-width="2" stroke-linecap="round"/></g><path d="M178.7492,52.79164l5.52245,-9.19406l11.00141,0.10322l-7.28829,8.76753z" fill="#3b5456" stroke="#000000" stroke-width="2" stroke-linecap="round"/></g></g></svg>