<svg version="1.1" xmlns="http://www.w3.org/2000/svg" xmlns:xlink="http://www.w3.org/1999/xlink" width="34.17311" height="34.17311" viewBox="0,0,34.17311,34.17311"><defs><linearGradient x1="797.59318" y1="-896.59907" x2="798.69836" y2="-887.67174" gradientUnits="userSpaceOnUse" id="color-1"><stop offset="0" stop-color="#0fff00"/><stop offset="1" stop-color="#087b00"/></linearGradient><linearGradient x1="175.79122" y1="186.29736" x2="176.26485" y2="190.12318" gradientUnits="userSpaceOnUse" id="color-2"><stop offset="0" stop-color="#0fff00"/><stop offset="1" stop-color="#087b00"/></linearGradient></defs><g transform="translate(-222.91345,-162.91345)"><g data-paper-data="{&quot;isPaintingLayer&quot;:true}" stroke-miterlimit="10" stroke-dasharray="" stroke-dashoffset="0" style="mix-blend-mode: normal"><path d="M229.98313,162.91346h20.03378c3.9166,0 7.06966,3.15307 7.06966,7.06966v20.03379c0,3.91659 -3.15306,7.06966 -7.06966,7.06966h-20.03378c-3.91659,0 -7.06967,-3.15307 -7.06967,-7.06966v-20.03379c0,-3.91659 3.15308,-7.06966 7.06967,-7.06966z" fill-opacity="0.09677" fill="#191919" fill-rule="evenodd" stroke="none" stroke-width="4.43922" stroke-linecap="round" stroke-linejoin="round"/><path d="" fill="#1700ff" fill-rule="nonzero" stroke="#000000" stroke-width="2" stroke-linecap="butt" stroke-linejoin="miter"/><path d="" data-paper-data="{&quot;index&quot;:null}" fill="#ffffff" fill-rule="nonzero" stroke="#000000" stroke-width="2" stroke-linecap="butt" stroke-linejoin="miter"/><g data-paper-data="{&quot;index&quot;:null}" fill-rule="nonzero" stroke="none" stroke-width="0" stroke-linecap="butt" stroke-linejoin="miter"><g><path d="" fill="url(#color-1)"/><path d="" fill="#000000"/></g><path d="" fill="#ffffff"/></g><path d="" data-paper-data="{&quot;index&quot;:null}" fill="#000000" fill-rule="nonzero" stroke="#000000" stroke-width="0.5" stroke-linecap="round" stroke-linejoin="miter"/><text transform="translate(239.93483,177.8814) rotate(-179.85324) scale(0.05856,-0.05856)" font-size="40" xml:space="preserve" data-paper-data="{&quot;index&quot;:null}" fill="#000000" fill-rule="nonzero" stroke="none" stroke-width="1" stroke-linecap="butt" stroke-linejoin="miter" stroke-miterlimit="10" stroke-dasharray="" stroke-dashoffset="0" font-family="Sans Serif" font-weight="normal" text-anchor="start" style="mix-blend-mode: normal"><tspan x="0" dy="0"> </tspan></text><path d="M255.85088,186.44068c0,0 -7.66663,-5.44195 -8.91835,-4.0366c-0.30764,0.34539 1.89724,1.67678 2.78248,3.40275c1.238,2.41374 2.37691,7.44743 2.37691,7.44743c0,0 -4.7519,-3.55356 -7.5837,-3.78989c-1.35213,-0.11284 -5.48738,2.24253 -6.62696,2.42761c-6.45084,1.04772 -12.52962,-3.33238 -13.57734,-9.78322c-1.04772,-6.45084 3.33238,-12.52963 9.78322,-13.57734c0.39169,-0.06361 4.2853,-1.77044 7.22989,-1.78563c4.33165,-0.02233 10.16154,4.48767 10.16154,4.48767c0,0 -6.883,-1.25549 -8.08964,2.05199c-0.2466,0.67595 5.18056,0.5604 7.0316,2.10427c2.53689,2.1159 5.43033,11.05096 5.43033,11.05096z" fill="#757575" fill-rule="nonzero" stroke="#000000" stroke-width="0.5" stroke-linecap="butt" stroke-linejoin="miter"/><path d="M226.05557,173.44446l1.44444,-7l5,2.44444" fill="#757575" fill-rule="nonzero" stroke="#000000" stroke-width="0.5" stroke-linecap="round" stroke-linejoin="miter"/><path d="M238.72223,173.00002l5.44444,-4.55556l0.55556,6.66667" fill="#757575" fill-rule="nonzero" stroke="#000000" stroke-width="0.5" stroke-linecap="round" stroke-linejoin="miter"/><text transform="translate(239.93484,177.88141) rotate(-179.85324) scale(0.05856,-0.05856)" font-size="40" xml:space="preserve" data-paper-data="{&quot;index&quot;:null}" fill="#000000" fill-rule="nonzero" stroke="none" stroke-width="1" stroke-linecap="butt" stroke-linejoin="miter" stroke-miterlimit="10" stroke-dasharray="" stroke-dashoffset="0" font-family="Sans Serif" font-weight="normal" text-anchor="start" style="mix-blend-mode: normal"><tspan x="0" dy="0"> </tspan></text><g data-paper-data="{&quot;index&quot;:null}" fill-rule="nonzero" stroke="none" stroke-width="0.5" stroke-linecap="butt" stroke-linejoin="miter"><g><path d="" fill="url(#color-2)"/><path d="" fill="#000000"/></g><path d="" fill="#ffffff"/></g><text transform="translate(239.93485,177.88141) rotate(-179.85324) scale(0.05856,-0.05856)" font-size="40" xml:space="preserve" data-paper-data="{&quot;index&quot;:null}" fill="#000000" fill-rule="nonzero" stroke="none" stroke-width="1" stroke-linecap="butt" stroke-linejoin="miter" stroke-miterlimit="10" stroke-dasharray="" stroke-dashoffset="0" font-family="Sans Serif" font-weight="normal" text-anchor="start" style="mix-blend-mode: normal"><tspan x="0" dy="0"> </tspan></text><path d="" data-paper-data="{&quot;index&quot;:null}" fill="#ffffff" fill-rule="nonzero" stroke="#000000" stroke-width="0.5" stroke-linecap="butt" stroke-linejoin="miter"/><path d="" fill="#db93e6" fill-rule="nonzero" stroke="none" stroke-width="0.5" stroke-linecap="butt" stroke-linejoin="miter"/><path d="" data-paper-data="{&quot;index&quot;:null}" fill="#000000" fill-rule="nonzero" stroke="#000000" stroke-width="0.5" stroke-linecap="butt" stroke-linejoin="miter"/><path d="" data-paper-data="{&quot;index&quot;:null}" fill="#ffffff" fill-rule="nonzero" stroke="#000000" stroke-width="0.5" stroke-linecap="butt" stroke-linejoin="miter"/><path d="" fill="#000000" fill-rule="nonzero" stroke="#000000" stroke-width="0.5" stroke-linecap="butt" stroke-linejoin="miter"/></g></g></svg>