<svg version="1.1" xmlns="http://www.w3.org/2000/svg" xmlns:xlink="http://www.w3.org/1999/xlink" width="134.02793" height="267.22501" viewBox="0,0,134.02793,267.22501"><defs><linearGradient x1="260.58143" y1="250.55888" x2="219.41858" y2="251.12001" gradientUnits="userSpaceOnUse" id="color-1"><stop offset="0" stop-color="#2b2d33"/><stop offset="1" stop-color="#aeb0b9"/></linearGradient><radialGradient cx="239.38535" cy="251.45094" r="1.87123" gradientUnits="userSpaceOnUse" id="color-2"><stop offset="0" stop-color="#ffffff"/><stop offset="1" stop-color="#969696"/></radialGradient><radialGradient cx="253.54002" cy="228.38483" r="1.87123" gradientUnits="userSpaceOnUse" id="color-3"><stop offset="0" stop-color="#56585a"/><stop offset="1" stop-color="#4f5052"/></radialGradient><radialGradient cx="253.54002" cy="228.38483" r="1.87123" gradientUnits="userSpaceOnUse" id="color-4"><stop offset="0" stop-color="#acaeb4"/><stop offset="1" stop-color="#696a6e"/></radialGradient><radialGradient cx="254.37946" cy="257.46146" r="4.91667" gradientUnits="userSpaceOnUse" id="color-5"><stop offset="0" stop-color="#acaeb4"/><stop offset="1" stop-color="#696a6e"/></radialGradient></defs><g transform="translate(-178.40899,-46.38752)"><g data-paper-data="{&quot;isPaintingLayer&quot;:true}" fill-rule="nonzero" stroke-linejoin="miter" stroke-miterlimit="10" stroke-dasharray="" stroke-dashoffset="0" style="mix-blend-mode: normal"><path d="M178.40899,313.61253v-267.22501h123.18203v267.22501z" fill-opacity="0.01" fill="#000000" stroke="none" stroke-width="0" stroke-linecap="butt"/><path d="M232.54813,197.83798v-7.66667h19.66667v7.66667z" fill="#8f95cd" stroke="#000000" stroke-width="1.5" stroke-linecap="butt"/><g stroke="#000000" stroke-linecap="butt"><path d="M182.96288,163.33471c0,-14.03446 28.7599,-25.41163 64.23702,-25.41163c35.47712,0 64.23702,11.37718 64.23702,25.41163c0,14.03446 -28.7599,25.41163 -64.23702,25.41163c-35.47712,0 -64.23702,-11.37718 -64.23702,-25.41163z" fill="#ff7e52" stroke-width="2"/><path d="M183.68595,163.35736c0,-0.3068 5.20666,23.56621 63.36046,23.99392c55.56352,0.40866 63.51358,-24.42329 63.51358,-23.99392c0,13.82498 -28.40173,25.03234 -63.43702,25.03234c-35.03529,0 -63.43702,-11.20736 -63.43702,-25.03234z" fill="#bd5b3a" stroke-width="0"/><path d="M247.31325,138.03913c0,-14.03446 11.68289,-25.41163 26.09447,-25.41163c14.41158,0 26.09447,11.37717 26.09447,25.41163c0,14.03446 -11.68289,25.41163 -26.09447,25.41163c-14.41158,0 -26.09447,-11.37717 -26.09447,-25.41163z" fill="#9c8686" stroke-width="1.5"/><path d="M193.30206,138.00851c0,-14.03446 11.68289,-25.41163 26.09447,-25.41163c14.41158,0 26.09447,11.37717 26.09447,25.41163c0,14.03446 -11.68289,25.41163 -26.09447,25.41163c-14.41158,0 -26.09447,-11.37717 -26.09447,-25.41163z" fill="#9c8686" stroke-width="1.5"/></g><path d="M205.8753,307.50005l14.14285,-102.8421l39.28325,-0.15789l13.07389,103z" fill="#ff7e52" stroke="#000000" stroke-width="2" stroke-linecap="butt"/><path d="M250.85395,208.0908c0.34203,19.95645 -23.38153,17.88935 -23.46096,0.13765z" fill="#8b8b8b" stroke="#000000" stroke-width="0" stroke-linecap="butt"/><path d="M260.5064,207.00039c0,3.31371 -9.21547,6 -20.58334,6c-11.36786,0 -20.58333,-2.68629 -20.58333,-6c0,-3.31371 9.21547,-6 20.58333,-6c11.36786,0 20.58334,2.68629 20.58334,6z" fill="#751d00" stroke="#000000" stroke-width="1.5" stroke-linecap="butt"/><path d="M207.69571,104.85238c0,0 6.70895,-5.16922 11.79721,-6.36355c5.08827,-1.19433 12.33413,0.69937 12.33413,0.69937c0,0 -8.03812,-0.06028 -11.96762,0.86207c-4.10648,0.96389 -12.16372,4.80211 -12.16372,4.80211z" fill="#ffde00" stroke="#000000" stroke-width="0.5" stroke-linecap="butt"/><path d="M272.61611,100.05026c-3.9295,-0.92235 -11.96762,-0.86207 -11.96762,-0.86207c0,0 7.24586,-1.8937 12.33413,-0.69937c5.08826,1.19433 11.79721,6.36355 11.79721,6.36355c0,0 -8.05724,-3.83822 -12.16372,-4.80211z" data-paper-data="{&quot;index&quot;:null}" fill="#ffde00" stroke="#000000" stroke-width="0.5" stroke-linecap="butt"/><path d="M230.46507,208.33364v-7.66667h19.66667v7.66667z" fill="#8f95cd" stroke="#000000" stroke-width="1.5" stroke-linecap="butt"/><g stroke-linecap="butt"><path d="M260.58143,250.55888c0.15495,11.3668 -8.93405,20.70703 -20.30086,20.86198c-11.3668,0.15495 -20.70703,-8.93405 -20.86198,-20.30085c-0.15495,-11.3668 8.93405,-20.70704 20.30085,-20.86199c11.3668,-0.15495 20.70704,8.93405 20.86199,20.30086z" fill="url(#color-1)" stroke="#b43307" stroke-width="1"/><path d="M249.83243,250.70541c0.07403,5.4303 -4.26809,9.89243 -9.69838,9.96645c-5.4303,0.07403 -9.89244,-4.26809 -9.96646,-9.69838c-0.07403,-5.4303 4.26809,-9.89244 9.69839,-9.96646c5.4303,-0.07403 9.89243,4.26809 9.96645,9.69839z" fill="#f65c52" stroke="#000000" stroke-width="1"/><path d="M241.87106,250.81394c0.01409,1.03335 -0.8122,1.88248 -1.84555,1.89656c-1.03335,0.01409 -1.88248,-0.8122 -1.89656,-1.84555c-0.01409,-1.03335 0.8122,-1.88248 1.84555,-1.89656c1.03335,-0.01409 1.88248,0.8122 1.89656,1.84555z" fill="url(#color-2)" stroke="#000000" stroke-width="0"/><path d="M247.88902,250.7319c0.05939,4.35698 -3.42449,7.93716 -7.78146,7.99655c-4.35698,0.05939 -7.93716,-3.42449 -7.99655,-7.78146c-0.05939,-4.35698 3.42449,-7.93716 7.78146,-7.99655c4.35698,-0.05939 7.93716,3.42449 7.99655,7.78146z" fill="none" stroke="#c44b40" stroke-width="1"/><text transform="translate(245.0259,253.55083) rotate(179.219) scale(0.06663,0.06663)" font-size="40" xml:space="preserve" fill="#fbff00" fill-rule="nonzero" stroke="none" stroke-width="1" stroke-linecap="butt" stroke-linejoin="miter" stroke-miterlimit="10" stroke-dasharray="" stroke-dashoffset="0" font-family="Sans Serif" font-weight="normal" text-anchor="start" style="mix-blend-mode: normal"><tspan x="0" dy="0">Sprunki</tspan></text></g><path d="M254.37946,230.21171l4.66667,12.16667l-3.83333,12.5" fill="none" stroke="#a9abb2" stroke-width="1.5" stroke-linecap="round"/><path d="M251.66879,228.38483c0,-1.03345 0.83778,-1.87123 1.87123,-1.87123c1.03345,0 1.87123,0.83778 1.87123,1.87123c0,1.03345 -0.83778,1.87123 -1.87123,1.87123c-1.03345,0 -1.87123,-0.83778 -1.87123,-1.87123z" fill="url(#color-3)" stroke="url(#color-4)" stroke-width="0.5" stroke-linecap="butt"/><path d="M251.15378,261.60024l2.95406,-9.37913l3.4973,1.10151l-2.95406,9.37913z" fill="#ffc772" stroke="url(#color-5)" stroke-width="0" stroke-linecap="butt"/><g stroke-linecap="butt"><path d="M195.71532,133.66082c0,-12.968 10.51265,-23.48065 23.48065,-23.48065c12.968,0 23.48065,10.51265 23.48065,23.48065c0,12.968 -10.51265,23.48065 -23.48065,23.48065c-12.968,0 -23.48065,-10.51265 -23.48065,-23.48065z" fill="#ffffff" stroke="#000000" stroke-width="2"/><path d="M202.78071,133.38512c0,-9.12808 7.39976,-16.52784 16.52783,-16.52784c9.12808,0 16.52784,7.39977 16.52784,16.52784c0,9.12808 -7.39977,16.52784 -16.52784,16.52784c-9.12808,0 -16.52783,-7.39977 -16.52783,-16.52784z" fill="#000000" stroke="none" stroke-width="0"/><path d="M273.45441,157.14139c-12.968,0 -23.48065,-10.51265 -23.48065,-23.48065c0,-12.968 10.51265,-23.48065 23.48065,-23.48065c12.968,0 23.48065,10.51265 23.48065,23.48065c0,12.968 -10.51265,23.48065 -23.48065,23.48065z" data-paper-data="{&quot;index&quot;:null}" fill="#ffffff" stroke="#000000" stroke-width="2"/><path d="M273.34182,149.91297c-9.12807,0 -16.52783,-7.39977 -16.52783,-16.52784c0,-9.12808 7.39977,-16.52784 16.52783,-16.52784c9.12807,0 16.52783,7.39977 16.52783,16.52784c0,9.12808 -7.39977,16.52784 -16.52783,16.52784z" data-paper-data="{&quot;index&quot;:null}" fill="#000000" stroke="none" stroke-width="0"/></g><g fill="#6e9be9" stroke="#000000" stroke-width="2" stroke-linecap="butt"><path d="M195.71532,133.75448c0,-12.96801 10.51265,-23.48065 23.48066,-23.48065c12.96801,0 23.48065,10.51264 23.48065,23.48065c0,0 -7.7034,-9.593 -23.92315,-9.48244c-15.92464,0.10855 -23.03816,10.09048 -23.03816,9.48244z"/><path d="M273.89691,124.60539c-16.21975,-0.11056 -23.92315,9.48244 -23.92315,9.48244c0,-12.96801 10.51264,-23.48065 23.48065,-23.48065c12.96801,0 23.48066,10.51264 23.48066,23.48065c0,0.60804 -7.11352,-9.37389 -23.03816,-9.48244z" data-paper-data="{&quot;index&quot;:null}"/></g><g><path d="M246.48439,183.85102c-19.05035,0 -24.77262,-17.6037 -24.77262,-17.6037c0,0 16.33092,0.78694 24.57701,0.78694c8.16201,0 24.64983,-0.78694 24.64983,-0.78694c0,0 -5.40388,17.6037 -24.45423,17.6037z" fill="#ffffff" stroke="#000000" stroke-width="2" stroke-linecap="round"/><path d="M228.9562,176.72615l-5.29554,-6.00523c0,0 12.59293,0.85312 22.94255,0.85312c10.21943,0 22.38648,-1.17982 22.38648,-1.17982l-5.95749,6.76228c0,0 -5.67699,0.75432 -15.96234,0.75432c-10.28535,0 -18.11366,-1.18468 -18.11366,-1.18468z" fill="#000000" stroke="none" stroke-width="0" stroke-linecap="butt"/></g></g></g></svg>