<svg version="1.1" xmlns="http://www.w3.org/2000/svg" xmlns:xlink="http://www.w3.org/1999/xlink" width="35.14929" height="34.67311" viewBox="0,0,35.14929,34.67311"><defs><linearGradient x1="240.29615" y1="164.33649" x2="240.29615" y2="181.44225" gradientUnits="userSpaceOnUse" id="color-1"><stop offset="0" stop-color="#0e0819"/><stop offset="1" stop-color="#472680"/></linearGradient><linearGradient x1="251.44793" y1="172.46661" x2="251.44793" y2="183.36265" gradientUnits="userSpaceOnUse" id="color-2"><stop offset="0" stop-color="#0e0819"/><stop offset="1" stop-color="#472680"/></linearGradient><linearGradient x1="228.35928" y1="172.68695" x2="228.35928" y2="183.2401" gradientUnits="userSpaceOnUse" id="color-3"><stop offset="0" stop-color="#0e0819"/><stop offset="1" stop-color="#472680"/></linearGradient><linearGradient x1="240.14359" y1="175.75632" x2="240.14359" y2="188.13747" gradientUnits="userSpaceOnUse" id="color-4"><stop offset="0" stop-color="#0f081a"/><stop offset="1" stop-color="#4a2680"/></linearGradient></defs><g transform="translate(-222.42535,-162.6647)"><g data-paper-data="{&quot;isPaintingLayer&quot;:true}" stroke-miterlimit="10" stroke-dasharray="" stroke-dashoffset="0" style="mix-blend-mode: normal"><path d="M229.89651,162.9147h20.03379c3.9166,0 7.06966,3.15307 7.06966,7.06966v20.03379c0,3.91659 -3.15306,7.06966 -7.06966,7.06966h-20.03379c-3.91659,0 -7.06966,-3.15307 -7.06966,-7.06966v-20.03379c0,-3.91659 3.15307,-7.06966 7.06966,-7.06966z" fill="#000000" fill-rule="evenodd" stroke="#452680" stroke-width="0.5" stroke-linecap="round" stroke-linejoin="round"/><path d="M240.26979,181.4421c-1.3192,-0.01459 -2.3768,-1.09583 -2.36222,-2.41502c0.01459,-1.3192 2.55133,-14.69059 2.55133,-14.69059c0,0 2.24051,13.4242 2.22592,14.7434c-0.01459,1.3192 -1.09583,2.3768 -2.41502,2.36221z" data-paper-data="{&quot;index&quot;:null}" fill="url(#color-1)" fill-rule="nonzero" stroke="#000000" stroke-width="0" stroke-linecap="butt" stroke-linejoin="miter"/><path d="M245.84928,182.61428c-0.7826,-0.90426 -0.68396,-2.27175 0.2203,-3.05435c0.90426,-0.7826 11.50507,-7.09332 11.50507,-7.09332c0,0 -7.76676,9.58538 -8.67104,10.36797c-0.90426,0.7826 -2.27176,0.68396 -3.05435,-0.2203z" data-paper-data="{&quot;index&quot;:null}" fill="url(#color-2)" fill-rule="nonzero" stroke="#000000" stroke-width="0" stroke-linecap="butt" stroke-linejoin="miter"/><path d="M230.82353,182.72866c-0.87582,-0.75796 -8.39817,-10.04171 -8.39817,-10.04171c0,0 10.26722,6.11212 11.14303,6.8701c0.87581,0.75797 0.97134,2.08242 0.21337,2.95823c-0.75796,0.87581 -2.08241,0.97134 -2.95822,0.21337z" data-paper-data="{&quot;index&quot;:null}" fill="url(#color-3)" fill-rule="nonzero" stroke="#000000" stroke-width="0" stroke-linecap="butt" stroke-linejoin="miter"/><path d="M226.9537,188.13747c0,-6.83792 5.90532,-12.38115 13.18989,-12.38115c7.28457,0 13.18989,5.54323 13.18989,12.38115" fill="url(#color-4)" fill-rule="nonzero" stroke="#000000" stroke-width="0" stroke-linecap="butt" stroke-linejoin="miter"/></g></g></svg>