<svg version="1.1" xmlns="http://www.w3.org/2000/svg" xmlns:xlink="http://www.w3.org/1999/xlink" width="34.17311" height="34.17311" viewBox="0,0,34.17311,34.17311"><g transform="translate(-222.91345,-162.91345)"><g data-paper-data="{&quot;isPaintingLayer&quot;:true}" stroke-linecap="round" stroke-miterlimit="10" stroke-dasharray="" stroke-dashoffset="0" style="mix-blend-mode: normal"><path d="M229.98313,162.91346h20.03378c3.9166,0 7.06966,3.15307 7.06966,7.06966v20.03379c0,3.91659 -3.15306,7.06966 -7.06966,7.06966h-20.03378c-3.91659,0 -7.06967,-3.15307 -7.06967,-7.06966v-20.03379c0,-3.91659 3.15308,-7.06966 7.06967,-7.06966z" fill-opacity="0.09677" fill="#191919" fill-rule="evenodd" stroke="none" stroke-width="4.43922" stroke-linejoin="round"/><path d="M254.22027,185.16416l-0.57747,2.23771l-7.65152,-2.09334l-0.25593,-2.53301z" fill="#7e7e7e" fill-rule="nonzero" stroke="#000000" stroke-width="0.75" stroke-linejoin="miter"/><path d="M225.77973,179.46161c0,0 1.69726,-4.86433 6.54907,-6.24721c5.00442,-1.42638 9.55077,-0.43369 12.29099,3.5764c2.74022,4.01008 1.29931,8.58991 1.29931,8.58991z" fill="#7e7e7e" fill-rule="nonzero" stroke="#000000" stroke-width="0.75" stroke-linejoin="miter"/><path d="M228.1618,176.06896c0,0 0.46165,0.68824 0.30698,1.1832c-0.19625,0.62801 -1.24537,2.64256 -1.24537,2.64256" fill="#7e7e7e" fill-rule="nonzero" stroke="#000000" stroke-width="0.75" stroke-linejoin="miter"/></g></g></svg>