<svg version="1.1" xmlns="http://www.w3.org/2000/svg" xmlns:xlink="http://www.w3.org/1999/xlink" width="34.17311" height="34.17311" viewBox="0,0,34.17311,34.17311"><defs><linearGradient x1="244.1722" y1="175.5822" x2="227.81923" y2="175.5822" gradientUnits="userSpaceOnUse" id="color-1"><stop offset="0" stop-color="#000000"/><stop offset="1" stop-color="#000000" stop-opacity="0"/></linearGradient><linearGradient x1="235.67399" y1="183.52448" x2="236.98508" y2="167.22413" gradientUnits="userSpaceOnUse" id="color-2"><stop offset="0" stop-color="#000000"/><stop offset="1" stop-color="#000000" stop-opacity="0"/></linearGradient><linearGradient x1="236.05142" y1="184.08568" x2="252.4044" y2="184.08568" gradientUnits="userSpaceOnUse" id="color-3"><stop offset="0" stop-color="#000000"/><stop offset="1" stop-color="#000000" stop-opacity="0"/></linearGradient><linearGradient x1="244.54962" y1="176.1434" x2="243.23854" y2="192.44372" gradientUnits="userSpaceOnUse" id="color-4"><stop offset="0" stop-color="#000000"/><stop offset="1" stop-color="#000000" stop-opacity="0"/></linearGradient><radialGradient cx="240.18874" cy="179.65936" r="0.66941" gradientUnits="userSpaceOnUse" id="color-5"><stop offset="0" stop-color="#969696"/><stop offset="1" stop-color="#ffffff"/></radialGradient></defs><g transform="translate(-222.91345,-162.91345)"><g data-paper-data="{&quot;isPaintingLayer&quot;:true}" stroke-miterlimit="10" stroke-dasharray="" stroke-dashoffset="0" style="mix-blend-mode: normal"><path d="M229.98312,162.91346h20.03379c3.9166,0 7.06966,3.15307 7.06966,7.06966v20.03379c0,3.91659 -3.15306,7.06966 -7.06966,7.06966h-20.03379c-3.91659,0 -7.06966,-3.15307 -7.06966,-7.06966v-20.03379c0,-3.91659 3.15307,-7.06966 7.06966,-7.06966z" fill-opacity="0.09677" fill="#e6e6e6" fill-rule="evenodd" stroke="#ffffff" stroke-width="0" stroke-linecap="round" stroke-linejoin="round"/><g fill-rule="nonzero" stroke-linecap="butt" stroke-linejoin="miter"><path d="M227.50432,180.03153c0,-6.92583 5.6145,-12.54031 12.54032,-12.54031c6.92582,0 12.54032,5.61449 12.54032,12.54031c0,6.92583 -5.6145,12.54032 -12.54032,12.54032c-6.92582,0 -12.54032,-5.6145 -12.54032,-12.54032z" data-paper-data="{&quot;index&quot;:null}" fill="#000000" stroke="none" stroke-width="0"/><path d="M251.96019,179.98692c0,6.60541 -5.35476,11.96016 -11.96017,11.96016c-1.02887,0 -2.02739,-0.12991 -2.98006,-0.37423c-0.2558,-0.06559 4.00853,-12.94512 4.00853,-12.94512c0,0 -12.53191,4.6462 -12.56353,4.53093c-0.27711,-1.01012 -0.4251,-2.07364 -0.4251,-3.17174c0,-6.60541 5.35474,-11.96016 11.96016,-11.96016c1.35513,0 2.65761,0.22537 3.87202,0.64067c0.24824,0.08489 -3.70978,12.02286 -3.70978,12.02286c0,0 11.6679,-2.49 11.6991,-2.24799c0.06521,0.50565 0.09883,1.02121 0.09883,1.54461z" data-paper-data="{&quot;index&quot;:null}" fill="#ffffff" stroke="none" stroke-width="0"/><g data-paper-data="{&quot;index&quot;:null}" stroke="none" stroke-width="0"><g><g fill="url(#color-1)"><path d="M237.45625,168.116c2.56853,-0.59172 5.4735,-0.40209 6.71479,0.00928c0.03365,0.01116 -0.66564,3.99757 -1.80403,7.17395c-0.01975,0.0551 -1.22048,-0.72184 -3.35,-0.47008c-0.8753,0.10348 -2.37013,1.09701 -2.37013,1.09701l-4.68617,-5.02338c0,0 1.40805,-1.84513 5.49553,-2.78678z"/></g><g data-paper-data="{&quot;index&quot;:null}" fill="url(#color-2)"><path d="M228.41968,183.81802c-0.31052,-1.27027 -0.59029,-4.84195 -0.4797,-6.21681c0.00142,-0.01753 1.53641,-5.27188 4.0487,-6.71333c0.01299,-0.00744 4.81001,5.16309 4.81001,5.16309c0,0 -1.2887,1.41037 -1.46202,2.27455c-0.42168,2.10247 0.2565,3.36164 0.19999,3.3769c-3.25743,0.88006 -7.10855,2.15005 -7.11697,2.1156z"/></g></g><g data-paper-data="{&quot;index&quot;:null}"><g fill="url(#color-3)"><path d="M242.95343,191.73792c-2.56852,0.59173 -5.65954,0.21606 -6.90083,-0.19531c-0.03366,-0.01116 0.66563,-3.99757 1.80402,-7.17395c0.01975,-0.0551 1.22047,0.72185 3.34999,0.47009c0.8753,-0.10348 2.37013,-1.09702 2.37013,-1.09702l4.68617,5.02338c0,0 -2.74095,2.38109 -5.30948,2.97281z"/></g><g data-paper-data="{&quot;index&quot;:null}" fill="url(#color-4)"><path d="M251.80393,175.84986c0.31052,1.27027 0.59029,4.84195 0.4797,6.21681c-0.00142,0.01753 -1.53641,5.27188 -4.0487,6.71333c-0.01299,0.00746 -4.81,-5.16309 -4.81,-5.16309c0,0 1.2887,-1.41036 1.46202,-2.27454c0.42168,-2.10247 -0.2565,-3.36164 -0.19999,-3.3769c3.25743,-0.88007 7.10856,-2.15006 7.11698,-2.11561z"/></g></g></g><path d="M227.41506,179.9685c0,-6.92583 5.6145,-12.54032 12.54032,-12.54032c6.92582,0 12.54032,5.6145 12.54032,12.54032c0,6.92583 -5.6145,12.54032 -12.54032,12.54032c-6.92582,0 -12.54032,-5.61449 -12.54032,-12.54032z" fill="none" stroke="#b4b4b4" stroke-width="0.5"/><path d="M234.91787,179.89274c0,-2.79434 2.26526,-5.0596 5.0596,-5.0596c2.79434,0 5.0596,2.26526 5.0596,5.0596c0,2.79434 -2.26526,5.0596 -5.0596,5.0596c-2.79434,0 -5.0596,-2.26526 -5.0596,-5.0596z" fill="#f5f5f5" stroke="none" stroke-width="0"/><g data-paper-data="{&quot;index&quot;:null}" fill="none" stroke="#000000" stroke-width="0.25"><g><path d="M240.04464,190.78675c-5.93993,0 -10.75522,-4.81528 -10.75522,-10.75522c0,-5.93995 4.81527,-10.75522 10.75522,-10.75522c5.93994,0 10.75522,4.81528 10.75522,10.75522c0,5.93994 -4.81527,10.75522 -10.75522,10.75522z"/><path d="M240.00002,189.18017c-5.07729,0 -9.19326,-4.11597 -9.19326,-9.19326c0,-5.0773 4.11597,-9.19326 9.19326,-9.19326c5.07729,0 9.19325,4.11597 9.19325,9.19326c0,5.0773 -4.11596,9.19326 -9.19325,9.19326z"/><path d="M240.04464,187.84135c-4.31324,0 -7.80981,-3.49658 -7.80981,-7.80982c0,-4.31324 3.49657,-7.80981 7.80981,-7.80981c4.31324,0 7.80981,3.49657 7.80981,7.80981c0,4.31324 -3.49657,7.80982 -7.80981,7.80982z"/><path d="M240.08927,186.50251c-3.59847,0 -6.51561,-2.91712 -6.51561,-6.5156c0,-3.59847 2.91713,-6.51561 6.51561,-6.51561c3.59848,0 6.51561,2.91713 6.51561,6.51561c0,3.59847 -2.91713,6.5156 -6.51561,6.5156z"/></g><path d="M240.04465,184.89593c-2.78512,0 -5.04291,-2.25778 -5.04291,-5.0429c0,-2.78512 2.25779,-5.0429 5.04291,-5.0429c2.78511,0 5.0429,2.25778 5.0429,5.0429c0,2.78512 -2.25778,5.0429 -5.0429,5.0429z"/></g><path d="M235.99795,179.89274c0,-2.19783 1.78168,-3.97952 3.97951,-3.97952c2.19783,0 3.97952,1.78169 3.97952,3.97952c0,2.19783 -1.78169,3.97952 -3.97952,3.97952c-2.19783,0 -3.97951,-1.78169 -3.97951,-3.97952z" fill="none" stroke="#c3c3c3" stroke-width="0.25"/><path d="M239.30805,179.89274c0,-0.36971 0.29971,-0.66941 0.66942,-0.66941c0.36971,0 0.66941,0.2997 0.66941,0.66941c0,0.36971 -0.2997,0.66941 -0.66941,0.66941c-0.36971,0 -0.66942,-0.2997 -0.66942,-0.66941z" fill="url(#color-5)" stroke="none" stroke-width="0"/><text transform="translate(236.95203,178.66413) scale(0.04074,0.04074)" font-size="40" xml:space="preserve" fill="#ffffff" fill-rule="nonzero" stroke="none" stroke-width="1" stroke-linecap="butt" stroke-linejoin="miter" stroke-miterlimit="10" stroke-dasharray="" stroke-dashoffset="0" font-family="Sans Serif" font-weight="normal" text-anchor="start" style="mix-blend-mode: normal"><tspan x="0" dy="0">Sprunki</tspan></text></g></g></g></svg>