<svg version="1.1" xmlns="http://www.w3.org/2000/svg" xmlns:xlink="http://www.w3.org/1999/xlink" width="157.4615" height="255.8814" viewBox="0,0,157.4615,255.8814"><defs><linearGradient x1="319.92305" y1="175.4592" x2="319.92305" y2="307.45914" gradientUnits="userSpaceOnUse" id="color-1"><stop offset="0" stop-color="#4c7b64"/><stop offset="1" stop-color="#2b2b2b"/></linearGradient><linearGradient x1="320.08155" y1="221.49565" x2="320.08155" y2="308.14565" gradientUnits="userSpaceOnUse" id="color-2"><stop offset="0" stop-color="#6b6dd3"/><stop offset="1" stop-color="#000000"/></linearGradient><linearGradient x1="355.96021" y1="194.5574" x2="355.96021" y2="302.11987" gradientUnits="userSpaceOnUse" id="color-3"><stop offset="0" stop-color="#4b7b64"/><stop offset="1" stop-color="#000000"/></linearGradient><linearGradient x1="284.13221" y1="194.46852" x2="284.13221" y2="302.02621" gradientUnits="userSpaceOnUse" id="color-4"><stop offset="0" stop-color="#4b7b64"/><stop offset="1" stop-color="#000000"/></linearGradient><linearGradient x1="295.26046" y1="83.64338" x2="327.02946" y2="216.42141" gradientUnits="userSpaceOnUse" id="color-5"><stop offset="0" stop-color="#000000"/><stop offset="1" stop-color="#ffdac9"/></linearGradient><linearGradient x1="311.00664" y1="149.83085" x2="326.72045" y2="215.50647" gradientUnits="userSpaceOnUse" id="color-6"><stop offset="0" stop-color="#000000"/><stop offset="1" stop-color="#7e647b"/></linearGradient><linearGradient x1="287.79158" y1="55.04321" x2="303.48901" y2="120.65034" gradientUnits="userSpaceOnUse" id="color-7"><stop offset="0" stop-color="#4c7b64"/><stop offset="1" stop-color="#000000"/></linearGradient><linearGradient x1="288.92973" y1="59.82756" x2="297.68414" y2="96.41649" gradientUnits="userSpaceOnUse" id="color-8"><stop offset="0" stop-color="#daffed"/><stop offset="1" stop-color="#161a18"/></linearGradient><linearGradient x1="290.94198" y1="65.19935" x2="296.40005" y2="88.01127" gradientUnits="userSpaceOnUse" id="color-9"><stop offset="0" stop-color="#49705e"/><stop offset="1" stop-color="#13160e"/></linearGradient><linearGradient x1="312.94841" y1="160.14154" x2="322.39316" y2="199.61575" gradientUnits="userSpaceOnUse" id="color-10"><stop offset="0" stop-color="#000000"/><stop offset="1" stop-color="#ffdac9"/></linearGradient></defs><g transform="translate(-230.04656,-52.77043)"><g data-paper-data="{&quot;isPaintingLayer&quot;:true}" stroke-linecap="butt" stroke-linejoin="miter" stroke-miterlimit="10" stroke-dasharray="" stroke-dashoffset="0" style="mix-blend-mode: normal"><path d="M286.67305,307.45914l15.14285,-131.8421l37.78325,-0.15789l13.57389,132z" fill="url(#color-1)" fill-rule="nonzero" stroke="#000000" stroke-width="2"/><path d="M299.53999,204.07184l3.12142,-26.32765l35.83075,-0.14203l2.76735,26.1059c0,0 -7.51543,4.19603 -21.55904,4.50964c-12.48458,0.27879 -20.16049,-4.14586 -20.16049,-4.14586z" fill="#2f4b3d" fill-rule="nonzero" stroke="#000000" stroke-width="0"/><path d="M286.20349,307.39565l9.625,-85.15c0,0 16.14032,5.36651 24.41538,5.23987c8.05433,-0.12327 24.59071,-5.98987 24.59071,-5.98987l9.125,86.65z" fill="url(#color-2)" fill-rule="nonzero" stroke="#000000" stroke-width="1"/><path d="M330.77702,225.84334l-2.72223,-31.57302l7.33053,-1.11111l3.5,30.46191c0,0 1.97994,9.94622 -2.77415,10.47275c-4.71963,0.52271 -5.33415,-8.25053 -5.33415,-8.25053z" data-paper-data="{&quot;index&quot;:null}" fill="#6b6dd3" fill-rule="nonzero" stroke="#000000" stroke-width="1"/><path d="M301.66589,224.12113l3.5,-30.4619l8.21942,0.55556l-2.61111,32.12857c0,0 -1.38805,9.70344 -6.18894,8.77837c-5.22617,-1.00701 -2.91937,-11.0006 -2.91937,-11.0006z" fill="#6b6dd3" fill-rule="nonzero" stroke="#000000" stroke-width="1"/><path d="M338.78534,228.05328c0,1.99603 -1.54283,3.61412 -3.44602,3.61412c-1.90319,0 -3.44603,-1.6181 -3.44603,-3.61412c0,-1.99603 1.54284,-3.61412 3.44603,-3.61412c1.90319,0 3.44602,1.61809 3.44602,3.61412z" fill="#c6a438" fill-rule="nonzero" stroke="none" stroke-width="0"/><path d="M309.37397,228.76996c0,1.99603 -1.54283,3.61412 -3.44602,3.61412c-1.90319,0 -3.44603,-1.6181 -3.44603,-3.61412c0,-1.99603 1.54284,-3.61412 3.44603,-3.61412c1.90319,0 3.44602,1.61809 3.44602,3.61412z" fill="#c6a438" fill-rule="nonzero" stroke="none" stroke-width="0"/><path d="M308.84907,229.41995c0,1.99602 -1.54284,3.61412 -3.44602,3.61412c-1.90319,0 -3.44602,-1.6181 -3.44602,-3.61412c0,-1.99602 1.54284,-3.61412 3.44602,-3.61412c1.90319,0 3.44602,1.6181 3.44602,3.61412z" fill="#edd459" fill-rule="nonzero" stroke="none" stroke-width="0"/><path d="M338.53678,228.7012c0,1.87521 -1.44945,3.39537 -3.23744,3.39537c-1.78799,0 -3.23745,-1.52016 -3.23745,-3.39537c0,-1.87521 1.44946,-3.39537 3.23745,-3.39537c1.78799,0 3.23744,1.52016 3.23744,3.39537z" fill="#edd459" fill-rule="nonzero" stroke="none" stroke-width="0"/><path d="M341.61113,194.5574c0.90641,1.442 13.27591,-0.94411 14.53458,0.88889c0.31862,-0.594 9.30076,33.378 9.72787,35c-0.5926,-0.963 5.60783,49.33333 5.60783,49.33333c0,0 0.50768,22.79733 0.91556,22.33333c-0.88787,-0.49 -11.18842,-0.32367 -12.13122,-0.16667c0.5308,-15.625 -11.71487,-68.29133 -19.1124,-79.33333c2.25366,-15.345 -5.00951,-26.28055 0.45778,-28.05555z" fill="url(#color-3)" fill-rule="evenodd" stroke="none" stroke-width="1"/><path d="M341.52147,194.5951c0.91572,1.34757 13.41232,-0.88229 14.68393,0.83068c0.10385,-0.17908 1.11865,3.00386 2.46032,7.4491c-6.17155,-0.51975 -13.01437,-2.82677 -18.35267,1.21834c-0.00693,0.00525 -0.01384,0.01053 -0.02073,0.01584c-0.98219,-5.21007 -1.76061,-8.6161 1.22914,-9.51396z" fill="#2f4b3d" fill-rule="nonzero" stroke="none" stroke-width="1"/><path d="M387.456,301.10947c0.01927,0.00566 0.03664,0.01141 0.05206,0.01725c-0.01724,0.01347 -0.0346,0.00734 -0.05206,-0.01725z" fill="#2f4b3d" fill-rule="nonzero" stroke="none" stroke-width="1"/><path d="M298.93917,222.52408c-7.39753,11.042 -19.6432,63.70833 -19.1124,79.33333c-0.9428,-0.157 -11.24335,-0.32333 -12.13122,0.16667c0.40788,0.464 7.11599,-72.62966 6.52339,-71.66666c0.42711,-1.622 9.40925,-35.594 9.72787,-35c1.25867,-1.833 13.62817,0.55311 14.53458,-0.88889c5.46729,1.775 -1.79588,12.71055 0.45778,28.05555z" data-paper-data="{&quot;index&quot;:null}" fill="url(#color-4)" fill-rule="evenodd" stroke="none" stroke-width="1"/><path d="M298.57106,194.50621c2.98975,0.89786 2.21133,4.30389 1.22914,9.51396c-0.00689,-0.00531 -0.0138,-0.01059 -0.02073,-0.01584c-5.3383,-4.04511 -12.18112,-1.73809 -18.35267,-1.21834c1.34167,-4.44524 2.35647,-7.62818 2.46032,-7.4491c1.27161,-1.71297 13.76821,0.51689 14.68393,-0.83068z" data-paper-data="{&quot;index&quot;:null}" fill="#2f4b3d" fill-rule="nonzero" stroke="none" stroke-width="1"/><g><path d="M238.17727,129.85077c-0.10591,-2.26099 -3.16824,-17.14098 9.12286,-34.94972c6.63633,-9.61546 13.6347,-22.74366 37.31824,-29.17176c35.30366,-9.04424 51.5172,0.63414 62.89976,8.09887c15.61186,10.2383 19.16337,21.96684 23.29159,27.11432c0.41914,0.52261 -132.62928,28.976 -132.63245,28.90831z" fill="#a8530c" fill-rule="nonzero" stroke="none" stroke-width="1.5"/><path d="M240.07122,166.75542c-5.59421,-23.38094 2.3088,-47.01864 18.86836,-63.55947c0.73573,-2.22664 19.44162,-15.38897 34.36351,-19.0812c14.92189,-3.69223 29.57812,-3.68562 42.07234,0.16814c22.77729,7.02553 41.02778,24.71947 46.71575,48.49227c8.80804,36.81309 -15.84387,74.26274 -55.0616,83.64612c-39.21771,9.38339 -78.15031,-12.85279 -86.95835,-49.66588z" fill="url(#color-5)" fill-rule="nonzero" stroke="#000000" stroke-width="2"/><path d="M240.88444,166.62384c-0.19255,-0.80475 20.54582,60.43824 85.09961,46.17898c61.67845,-13.62412 54.88216,-80.86232 55.15164,-79.73605c8.67658,36.26363 -15.68598,73.17312 -54.41529,82.43964c-38.7293,9.26653 -77.15938,-12.61895 -85.83596,-48.88258z" fill="url(#color-6)" fill-rule="nonzero" stroke="#000000" stroke-width="0"/><path d="M247.2106,178.73113c0,0 -5.58311,-7.82589 -6.62481,-12.17969c-1.59474,-6.66522 -0.82048,-49.4381 -0.82048,-49.4381l10.5292,-2.51925c0,0 -1.94052,10.00739 -1.40825,15.31329c0.47273,4.71228 4.44449,14.95305 4.44449,14.95305l-1.56013,3.59482l-3.79902,-1.20003z" fill="#3a2f2b" fill-rule="nonzero" stroke="#000000" stroke-width="0"/><path d="M277.71433,158.25079c-3.42993,-14.33531 0.36245,-27.52903 8.4705,-29.46899c8.10805,-1.93996 17.46143,8.10846 20.89134,22.44376c3.42993,14.33531 -0.36245,27.52903 -8.4705,29.46899c-8.10805,1.93996 -17.46143,-8.10846 -20.89134,-22.44376z" fill="#c62020" fill-rule="nonzero" stroke="#000000" stroke-width="2"/><path d="M245.02549,173.981c0,0 -5.27543,-7.3946 -6.25972,-11.50846c-1.50686,-6.2979 -0.77526,-46.71357 -0.77526,-46.71357l9.94893,-2.38042c0,0 -1.83358,9.45588 -1.33065,14.46937c0.44667,4.45259 4.19955,14.12899 4.19955,14.12899l-1.47417,3.3967l-3.58965,-1.1339z" fill="#766058" fill-rule="nonzero" stroke="#000000" stroke-width="1.5"/><path d="M335.9238,171.76557c-8.047,1.92535 -17.35088,-8.13491 -20.7808,-22.47021c-3.42993,-14.33531 0.31296,-27.51719 8.35995,-29.44254c8.047,-1.92535 17.35088,8.13491 20.7808,22.47021c3.42993,14.33531 -0.31296,27.51719 -8.35995,29.44254z" data-paper-data="{&quot;index&quot;:null}" fill="#c62020" fill-rule="nonzero" stroke="#000000" stroke-width="2"/><path d="M263.43164,126.69842c0,0 11.58417,-7.75531 17.5198,-7.51022c5.93565,0.2451 14.50778,3.50821 14.50778,3.50821c0,0 -9.99909,-1.49746 -14.58299,-1.68673c-4.79035,-0.1978 -17.44459,5.68873 -17.44459,5.68873z" fill="#000000" fill-rule="nonzero" stroke="none" stroke-width="0"/><path d="M324.84703,108.73983c-3.94396,2.34375 -10.47627,8.73189 -10.47627,8.73189c0,0 4.43794,-7.26415 9.54494,-10.29906c5.10699,-3.0349 14.67519,-4.09409 14.67519,-4.09409c0,0 -9.62228,3.21197 -13.74386,5.66128z" data-paper-data="{&quot;index&quot;:null}" fill="#000000" fill-rule="nonzero" stroke="none" stroke-width="0"/><path d="M364.97505,120.42933l-2.84444,2.78957l-3.01826,-2.49937c0,0 -1.09351,-10.92943 -2.80483,-15.34536c-1.92691,-4.97221 -8.1868,-13.01753 -8.1868,-13.01753l10.5292,-2.51925c0,0 20.05015,37.79034 21.64489,44.45557c1.0417,4.3538 -0.39465,13.85919 -0.39465,13.85919z" data-paper-data="{&quot;index&quot;:null}" fill="#3a2f2b" fill-rule="nonzero" stroke="#000000" stroke-width="0"/><path d="M366.29309,118.12391l-2.68768,2.63584l-2.85192,-2.36163c0,0 -1.03324,-10.32712 -2.65026,-14.49968c-1.82072,-4.6982 -7.73562,-12.30014 -7.73562,-12.30014l9.94893,-2.38042c0,0 18.94518,35.70773 20.45204,42.00563c0.9843,4.11385 -0.3729,13.09541 -0.3729,13.09541z" data-paper-data="{&quot;index&quot;:null}" fill="#766058" fill-rule="nonzero" stroke="#000000" stroke-width="1.5"/><path d="M231.08607,116.82048c12.01011,-30.50534 30.29034,-55.45709 55.69231,-61.53487c25.35592,-6.06675 51.7188,1.53907 75.37317,23.1633c3.28952,3.00719 12.54289,23.68998 10.63534,25.44297c-2.8521,2.621 -63.96598,2.70528 -72.92637,4.84918c-9.3283,2.23193 -60.39524,27.5286 -64.56259,27.74856c-3.00077,0.15839 -6.00512,-15.11426 -4.21186,-19.66914z" fill="url(#color-7)" fill-rule="nonzero" stroke="#000000" stroke-width="1"/><path d="M313.66546,73.25092c2.41747,10.10376 -4.73759,20.47532 -15.98126,23.16552c-11.24367,2.6902 -22.31821,-3.31967 -24.73567,-13.42343c-2.41747,-10.10376 4.73759,-20.47532 15.98126,-23.16552c11.24367,-2.6902 22.31821,3.31967 24.73567,13.42343z" fill="url(#color-8)" fill-rule="nonzero" stroke="none" stroke-width="0"/><path d="M248.6212,130.15498l0.80833,-10.46145c0,0 8.41361,-5.78076 9.08763,-6.15789c5.02991,-2.8144 26.24191,-15.8746 38.87356,-18.8969c12.19994,-2.91901 37.43786,-1.34796 44.1633,-1.11771c1.12032,0.03835 9.68629,3.23201 9.68629,3.23201l4.34981,9.28293c0,0 -10.43062,-1.00906 -11.31389,-0.79511c-2.08624,0.50535 -6.692,0.48222 -12.65351,0.57923c-8.62961,0.14045 -18.38876,8.49907 -29.16999,11.11065c-10.98708,2.66144 -23.05136,-0.68006 -30.27653,2.79799c-4.98136,2.39792 -8.47595,4.25073 -9.66655,4.53913c-0.80404,0.19476 -13.88848,5.8871 -13.88848,5.8871z" fill="#141d18" fill-rule="nonzero" stroke="#000000" stroke-width="0"/><path d="M306.70837,85.54486l-20.3644,4.02972l-5.71034,-21.90883l6.07119,-1.39294l3.31231,14.97267l14.56525,-3.21488z" data-paper-data="{&quot;index&quot;:null}" fill="url(#color-9)" fill-rule="evenodd" stroke="none" stroke-width="1"/><path d="M321.25133,184.51533c0,0 -21.96455,31.0677 -40.24637,27.44593c-18.28182,-3.62176 -26.35084,-40.63932 -26.35084,-40.63932c0,0 19.87209,13.0442 30.9784,15.24443c11.09275,2.19756 35.61884,-2.05104 35.61884,-2.05104z" fill="#000000" fill-rule="nonzero" stroke="none" stroke-width="0"/><path d="M351.28159,170.75714c8.79108,-6.89737 20.45242,-27.2534 20.45242,-27.2534c0,0 9.43445,36.18104 -5.03634,47.53466c-14.47078,11.35361 -47.67801,-6.17558 -47.67801,-6.17558c0,0 23.48158,-7.21672 32.26191,-14.10568z" data-paper-data="{&quot;index&quot;:null}" fill="#000000" fill-rule="nonzero" stroke="none" stroke-width="0"/><path d="M305.13576,192.86509c-5.82236,-9.49037 3.45767,-31.6815 3.45767,-31.6815c0,0 3.32642,-0.34927 4.96768,-0.68521c1.73333,-0.35478 4.86671,-1.5769 4.86671,-1.5769c0,0 16.99046,18.77686 16.48368,26.55965c-1.19716,18.38537 -23.95338,16.87435 -29.77574,7.38397z" fill="url(#color-10)" fill-rule="nonzero" stroke="#000000" stroke-width="2"/><g fill="#000000" fill-rule="nonzero" stroke="none" stroke-width="1" font-family="Inter, -apple-system, BlinkMacSystemFont, &quot;Segoe UI&quot;, Roboto, Oxygen, Ubuntu, Cantarell, &quot;Fira Sans&quot;, &quot;Droid Sans&quot;, &quot;Helvetica Neue&quot;, sans-serif, emoji" font-weight="400" font-size="16" text-anchor="start"/><g data-paper-data="{&quot;index&quot;:null}" fill="#000000" fill-rule="nonzero" stroke="none" stroke-width="1" font-family="Inter, -apple-system, BlinkMacSystemFont, &quot;Segoe UI&quot;, Roboto, Oxygen, Ubuntu, Cantarell, &quot;Fira Sans&quot;, &quot;Droid Sans&quot;, &quot;Helvetica Neue&quot;, sans-serif, emoji" font-weight="400" font-size="16" text-anchor="start"/><path d="M309.36067,162.30294l0.09675,-5.78284l6.09595,-1.2248l2.52191,5.05441c0,0 -2.92745,1.63085 -4.50881,1.95569c-1.48176,0.30438 -4.2058,-0.00246 -4.2058,-0.00246z" fill="#907b72" fill-rule="nonzero" stroke="#000000" stroke-width="0"/></g></g></g></svg>