<svg version="1.1" xmlns="http://www.w3.org/2000/svg" xmlns:xlink="http://www.w3.org/1999/xlink" width="130.47404" height="267.22501" viewBox="0,0,130.47404,267.22501"><defs><linearGradient x1="220.30464" y1="256.81981" x2="259.69538" y2="244.85886" gradientUnits="userSpaceOnUse" id="color-1"><stop offset="0" stop-color="#2b2d33"/><stop offset="1" stop-color="#aeb0b9"/></linearGradient><radialGradient cx="240.42086" cy="250.0813" r="1.87123" gradientUnits="userSpaceOnUse" id="color-2"><stop offset="0" stop-color="#ffffff"/><stop offset="1" stop-color="#969696"/></radialGradient><radialGradient cx="253.54003" cy="228.38473" r="1.87123" gradientUnits="userSpaceOnUse" id="color-3"><stop offset="0" stop-color="#56585a"/><stop offset="1" stop-color="#4f5052"/></radialGradient><radialGradient cx="253.54003" cy="228.38473" r="1.87123" gradientUnits="userSpaceOnUse" id="color-4"><stop offset="0" stop-color="#acaeb4"/><stop offset="1" stop-color="#696a6e"/></radialGradient><radialGradient cx="254.37947" cy="257.46146" r="4.91667" gradientUnits="userSpaceOnUse" id="color-5"><stop offset="0" stop-color="#acaeb4"/><stop offset="1" stop-color="#696a6e"/></radialGradient><radialGradient cx="212.10863" cy="119.20048" r="27.76505" gradientUnits="userSpaceOnUse" id="color-6"><stop offset="0" stop-color="#ffffff"/><stop offset="1" stop-color="#acffa2"/></radialGradient><radialGradient cx="212.10865" cy="119.20048" r="27.68058" gradientUnits="userSpaceOnUse" id="color-7"><stop offset="0" stop-color="#acffa2"/><stop offset="1" stop-color="#000000"/></radialGradient><radialGradient cx="266.14192" cy="119.20048" r="27.76505" gradientUnits="userSpaceOnUse" id="color-8"><stop offset="0" stop-color="#ffffff"/><stop offset="1" stop-color="#acffa2"/></radialGradient><radialGradient cx="266.14193" cy="119.20048" r="27.68059" gradientUnits="userSpaceOnUse" id="color-9"><stop offset="0" stop-color="#acffa2"/><stop offset="1" stop-color="#000000"/></radialGradient></defs><g transform="translate(-174.76298,-46.38752)"><g data-paper-data="{&quot;isPaintingLayer&quot;:true}" fill-rule="nonzero" stroke-linejoin="miter" stroke-miterlimit="10" stroke-dasharray="" stroke-dashoffset="0" style="mix-blend-mode: normal"><path d="M178.40899,313.61253v-267.22501h123.18203v267.22501z" fill-opacity="0.01" fill="#000000" stroke="none" stroke-width="0" stroke-linecap="butt"/><path d="M230.46508,190.93647v-7.66667h19.66667v7.66667z" fill="#8f95cd" stroke="#000000" stroke-width="1.5" stroke-linecap="butt"/><path d="M205.87531,307.50005l14.14285,-102.8421l39.28325,-0.15789l13.07389,103z" fill="#ff7e52" stroke="#000000" stroke-width="2" stroke-linecap="butt"/><path d="M250.85396,208.09068c0.34203,19.95645 -23.38153,17.88935 -23.46096,0.13765z" fill="#8b8b8b" stroke="#000000" stroke-width="0" stroke-linecap="butt"/><path d="M260.5064,207.00024c0,3.31371 -9.21547,6 -20.58334,6c-11.36786,0 -20.58333,-2.68629 -20.58333,-6c0,-3.31371 9.21547,-6 20.58333,-6c11.36786,0 20.58334,2.68629 20.58334,6z" fill="#751d00" stroke="#000000" stroke-width="1.5" stroke-linecap="butt"/><path d="M230.46508,208.33352v-7.66667h19.66667v7.66667z" fill="#8f95cd" stroke="#000000" stroke-width="1.5" stroke-linecap="butt"/><g stroke-linecap="butt"><path d="M220.30464,256.81981c-3.30292,-10.87745 2.83744,-22.37291 13.7149,-25.67584c10.87745,-3.30292 22.37291,2.83744 25.67584,13.71489c3.30292,10.87745 -2.83744,22.37292 -13.71489,25.67585c-10.87745,3.30292 -22.37292,-2.83744 -25.67585,-13.7149z" fill="url(#color-1)" stroke="#b43307" stroke-width="1"/><path d="M230.59089,253.6964c-1.57792,-5.19652 1.35554,-10.68827 6.55205,-12.26619c5.19652,-1.57792 10.68828,1.35553 12.2662,6.55205c1.57792,5.19652 -1.35553,10.68828 -6.55206,12.2662c-5.19652,1.57792 -10.68827,-1.35554 -12.26619,-6.55206z" fill="#f65c52" stroke="#000000" stroke-width="1"/><path d="M238.20951,251.38302c-0.30027,-0.98887 0.25795,-2.03392 1.24682,-2.33419c0.98887,-0.30027 2.03392,0.25795 2.33419,1.24682c0.30027,0.98887 -0.25795,2.03392 -1.24682,2.33419c-0.98887,0.30027 -2.03392,-0.25795 -2.33419,-1.24682z" fill="url(#color-2)" stroke="#000000" stroke-width="0"/><path d="M232.45063,253.1317c-1.26603,-4.1694 1.08761,-8.5757 5.25702,-9.84174c4.1694,-1.26603 8.5757,1.08761 9.84174,5.25702c1.26603,4.1694 -1.08761,8.5757 -5.25702,9.84174c-4.1694,1.26603 -8.5757,-1.08761 -9.84174,-5.25702z" fill="none" stroke="#c44b40" stroke-width="1"/><text transform="translate(234.41911,249.62901) rotate(-16.89085) scale(0.06663,0.06663)" font-size="40" xml:space="preserve" fill="#fbff00" fill-rule="nonzero" stroke="none" stroke-width="1" stroke-linecap="butt" stroke-linejoin="miter" stroke-miterlimit="10" stroke-dasharray="" stroke-dashoffset="0" font-family="Sans Serif" font-weight="normal" text-anchor="start" style="mix-blend-mode: normal"><tspan x="0" dy="0">Sprunki</tspan></text></g><path d="M254.37947,230.21156l4.66667,12.16667l-3.83333,12.5" fill="none" stroke="#a9abb2" stroke-width="1.5" stroke-linecap="round"/><path d="M251.6688,228.38473c0,-1.03345 0.83778,-1.87123 1.87123,-1.87123c1.03345,0 1.87123,0.83778 1.87123,1.87123c0,1.03345 -0.83778,1.87123 -1.87123,1.87123c-1.03345,0 -1.87123,-0.83778 -1.87123,-1.87123z" fill="url(#color-3)" stroke="url(#color-4)" stroke-width="0.5" stroke-linecap="butt"/><path d="M251.15379,261.60024l2.95406,-9.37913l3.4973,1.10151l-2.95406,9.37913z" fill="#ffc772" stroke="url(#color-5)" stroke-width="0" stroke-linecap="butt"/><g stroke="#000000" stroke-linecap="butt"><path d="M175.76298,148.87442c0,-14.03446 28.7599,-25.41163 64.23702,-25.41163c35.47712,0 64.23702,11.37718 64.23702,25.41163c0,14.03446 -28.7599,25.41163 -64.23702,25.41163c-35.47712,0 -64.23702,-11.37718 -64.23702,-25.41163z" fill="#ff7e52" stroke-width="2"/><path d="M176.48605,148.89708c0,-0.3068 5.20666,23.56621 63.36046,23.99392c55.56352,0.40866 63.51358,-24.42329 63.51358,-23.99392c0,13.82498 -28.40173,25.03234 -63.43702,25.03234c-35.03529,0 -63.43702,-11.20736 -63.43702,-25.03234z" fill="#bd5b3a" stroke-width="0"/><path d="M240.11335,123.57882c0,-14.03446 11.68289,-25.41163 26.09447,-25.41163c14.41158,0 26.09447,11.37717 26.09447,25.41163c0,14.03446 -11.68289,25.41163 -26.09447,25.41163c-14.41158,0 -26.09447,-11.37717 -26.09447,-25.41163z" fill="#9c8686" stroke-width="1.5"/><path d="M186.10216,123.5482c0,-14.03446 11.68289,-25.41163 26.09447,-25.41163c14.41158,0 26.09447,11.37717 26.09447,25.41163c0,14.03446 -11.68289,25.41163 -26.09447,25.41163c-14.41158,0 -26.09447,-11.37717 -26.09447,-25.41163z" fill="#9c8686" stroke-width="1.5"/></g><path d="M200.2178,87.01289c0,0 6.91046,-4.89656 12.04245,-5.88629c5.13199,-0.98972 12.29626,1.19246 12.29626,1.19246c0,0 -8.02927,-0.38195 -11.99254,0.38239c-4.14177,0.79876 -12.34617,4.31143 -12.34617,4.31143z" fill="#ffde00" stroke="#000000" stroke-width="0.5" stroke-linecap="butt"/><path d="M263.94699,82.61598c-3.94876,-0.83603 -11.98364,-0.59966 -11.98364,-0.59966c0,0 7.20263,-2.05199 12.31585,-0.96943c5.1132,1.08256 11.9338,6.10355 11.9338,6.10355c0,0 -8.1394,-3.66078 -12.26601,-4.53446z" data-paper-data="{&quot;index&quot;:null}" fill="#ffde00" stroke="#000000" stroke-width="0.5" stroke-linecap="butt"/><g stroke-linecap="butt"><path d="M188.51541,119.20051c0,-12.968 10.51265,-23.48065 23.48065,-23.48065c12.968,0 23.48065,10.51265 23.48065,23.48065c0,12.968 -10.51265,23.48065 -23.48065,23.48065c-12.968,0 -23.48065,-10.51265 -23.48065,-23.48065z" fill="#ffffff" stroke="#000000" stroke-width="2"/><path d="M195.58081,118.92481c0,-9.12808 7.39976,-16.52784 16.52783,-16.52784c9.12808,0 16.52784,7.39977 16.52784,16.52784c0,9.12808 -7.39977,16.52784 -16.52784,16.52784c-9.12808,0 -16.52783,-7.39977 -16.52783,-16.52784z" fill="#000000" stroke="none" stroke-width="0"/><path d="M266.25451,142.6811c-12.968,0 -23.48065,-10.51265 -23.48065,-23.48065c0,-12.968 10.51265,-23.48065 23.48065,-23.48065c12.968,0 23.48065,10.51265 23.48065,23.48065c0,12.968 -10.51265,23.48065 -23.48065,23.48065z" data-paper-data="{&quot;index&quot;:null}" fill="#ffffff" stroke="#000000" stroke-width="2"/><path d="M266.14193,135.45268c-9.12807,0 -16.52783,-7.39977 -16.52783,-16.52784c0,-9.12808 7.39977,-16.52784 16.52783,-16.52784c9.12807,0 16.52783,7.39977 16.52783,16.52784c0,9.12808 -7.39977,16.52784 -16.52783,16.52784z" data-paper-data="{&quot;index&quot;:null}" fill="#000000" stroke="none" stroke-width="0"/></g><g fill="#6e9be9" stroke="#000000" stroke-width="2" stroke-linecap="butt"><path d="M188.51542,119.29417c0,-12.96801 10.51265,-23.48065 23.48066,-23.48065c12.96801,0 23.48065,10.51264 23.48065,23.48065c0,0 -7.7034,-9.593 -23.92315,-9.48244c-15.92464,0.10855 -23.03816,10.09048 -23.03816,9.48244z"/><path d="M266.69701,110.14508c-16.21975,-0.11056 -23.92315,9.48244 -23.92315,9.48244c0,-12.96801 10.51264,-23.48065 23.48065,-23.48065c12.96801,0 23.48066,10.51264 23.48066,23.48065c0,0.60804 -7.11352,-9.37389 -23.03816,-9.48244z" data-paper-data="{&quot;index&quot;:null}"/></g><g><path d="M240.08226,171.03398c-19.05035,0 -24.77262,-17.6037 -24.77262,-17.6037c0,0 16.33092,0.78694 24.57701,0.78694c8.16201,0 24.64983,-0.78694 24.64983,-0.78694c0,0 -5.40388,17.6037 -24.45423,17.6037z" fill="#ffffff" stroke="#000000" stroke-width="2" stroke-linecap="round"/><path d="M222.55408,163.90915l-5.29554,-6.00523c0,0 12.59293,-0.79009 22.94255,-0.79009c10.21943,0 22.38648,0.46339 22.38648,0.46339l-5.95749,6.76228c0,0 -5.67699,2.72618 -15.96234,2.72618c-10.28535,0 -18.11366,-3.15654 -18.11366,-3.15654z" fill="#000000" stroke="none" stroke-width="0" stroke-linecap="butt"/></g><path d="M239.26681,119.20048c0,15.28757 -12.15912,27.68058 -27.15816,27.68058c-14.99904,0 -27.15816,-12.39302 -27.15816,-27.68058c0,-15.28757 12.15912,-27.68059 27.15816,-27.68059c14.99904,0 27.15816,12.39302 27.15816,27.68059z" fill="url(#color-6)" stroke="url(#color-7)" stroke-width="1" stroke-linecap="butt"/><path d="M293.30009,119.20048c0,15.28757 -12.15913,27.68058 -27.15816,27.68058c-14.99904,0 -27.15816,-12.39302 -27.15816,-27.68058c0,-15.28756 12.15912,-27.68059 27.15816,-27.68059c14.99904,0 27.15816,12.39303 27.15816,27.68059z" fill="url(#color-8)" stroke="url(#color-9)" stroke-width="1" stroke-linecap="butt"/></g></g></svg>