<svg version="1.1" xmlns="http://www.w3.org/2000/svg" xmlns:xlink="http://www.w3.org/1999/xlink" width="35.17311" height="35.17311" viewBox="0,0,35.17311,35.17311"><g transform="translate(-222.41347,-162.41345)"><g data-paper-data="{&quot;isPaintingLayer&quot;:true}" stroke="#710000" stroke-miterlimit="10" stroke-dasharray="" stroke-dashoffset="0" style="mix-blend-mode: normal"><path d="M229.98313,162.91346h20.03379c3.9166,0 7.06966,3.15307 7.06966,7.06966v20.03379c0,3.91659 -3.15306,7.06966 -7.06966,7.06966h-20.03379c-3.91659,0 -7.06966,-3.15307 -7.06966,-7.06966v-20.03379c0,-3.91659 3.15307,-7.06966 7.06966,-7.06966z" fill="#000000" fill-rule="evenodd" stroke-width="1" stroke-linecap="round" stroke-linejoin="round"/><path d="M230.92348,180.72219c0.62053,0 1.12356,0.50304 1.12356,1.12356c0,0.62053 -0.50304,1.12356 -1.12356,1.12356c-0.62053,0 -1.12356,-0.50304 -1.12356,-1.12356c0,-0.62053 0.50304,-1.12356 1.12356,-1.12356z" fill="#710000" fill-rule="nonzero" stroke-width="2.5" stroke-linecap="butt" stroke-linejoin="miter"/><path d="M249.27636,180.07701c0.62053,0 1.12356,0.50304 1.12356,1.12356c0,0.62053 -0.50304,1.12356 -1.12356,1.12356c-0.62053,0 -1.12356,-0.50304 -1.12356,-1.12356c0,-0.62053 0.50304,-1.12356 1.12356,-1.12356z" fill="#710000" fill-rule="nonzero" stroke-width="2.5" stroke-linecap="butt" stroke-linejoin="miter"/></g></g></svg>