<svg version="1.1" xmlns="http://www.w3.org/2000/svg" xmlns:xlink="http://www.w3.org/1999/xlink" width="173.76278" height="288.99971" viewBox="0,0,173.76278,288.99971"><g transform="translate(-141.04029,-22.63313)"><g data-paper-data="{&quot;isPaintingLayer&quot;:true}" fill-rule="nonzero" stroke-linejoin="miter" stroke-miterlimit="10" stroke-dasharray="" stroke-dashoffset="0" style="mix-blend-mode: normal"><g fill="#302b87" stroke-linecap="butt"><path d="M290.9961,174.7892c0.91137,-0.5293 0.91138,7.81809 -6.07478,9.65268c-2.03191,12.32917 10.69676,19.01112 15.6617,21.50343c2.10482,1.05659 -9.64663,2.79997 -13.29686,1.40211c-1.09609,-0.41975 -5.66291,-5.3905 -5.83177,-5.33754c-0.4743,0.04005 -0.93752,1.80846 -0.5316,3.21633c0.51208,1.77606 1.95685,3.27287 1.47511,3.29198c-14.90629,0.59136 -8.44814,-84.26844 -8.60608,-84.3028c-0.925,-0.20132 -3.86792,50.34658 17.20427,50.57378z" data-paper-data="{&quot;index&quot;:null}" stroke="none" stroke-width="0"/><path d="M181.68818,121.673c-0.15489,0.04614 12.6649,84.18023 -2.24366,84.71123c-0.48182,0.01716 0.84633,-1.58403 1.22344,-3.39356c0.29893,-1.43441 -0.29593,-3.16301 -0.7719,-3.16726c-0.17237,-0.04011 -4.35256,5.25991 -5.41399,5.76088c-3.53479,1.66833 -15.38406,0.81339 -13.36464,-0.39846c4.76352,-2.85855 16.95379,-10.47854 14.0007,-22.62005c-7.10432,-1.30416 -7.73188,-9.62793 -6.78329,-9.16865c20.99546,-1.81081 14.26056,-51.99438 13.35333,-51.7241z" data-paper-data="{&quot;index&quot;:null}" stroke="none" stroke-width="0"/><path d="M260.17057,139.83567c-0.15489,0.04614 12.66491,84.18023 -2.24366,84.71123c-0.48182,0.01716 0.84633,-1.58403 1.22344,-3.39356c0.29893,-1.43441 -0.29593,-3.16301 -0.77189,-3.16726c-0.17237,-0.04011 -4.35256,5.25991 -5.41399,5.76088c-3.53479,1.66833 -15.38406,0.81339 -13.36464,-0.39846c4.76352,-2.85855 16.95379,-10.47854 14.0007,-22.62005c-7.10432,-1.30416 -7.73188,-9.62793 -6.78329,-9.16864c20.99546,-1.81081 14.26056,-51.99438 13.35333,-51.72411z" data-paper-data="{&quot;index&quot;:null}" stroke="none" stroke-width="0"/><path d="M279.47204,180.68629c0.91137,-0.5293 0.91138,7.81809 -6.07478,9.65268c-2.03191,12.32917 10.69676,19.01112 15.6617,21.50343c2.10482,1.05659 -9.64663,2.79997 -13.29686,1.40211c-1.09609,-0.41975 -5.66292,-5.3905 -5.83178,-5.33754c-0.47429,0.04005 -0.93751,1.80846 -0.5316,3.21633c0.51208,1.77606 1.95685,3.27287 1.47511,3.29198c-14.9063,0.59136 -8.44814,-84.26844 -8.60608,-84.3028c-0.92499,-0.20132 -3.86792,50.34658 17.20427,50.57378z" data-paper-data="{&quot;index&quot;:null}" stroke="none" stroke-width="0"/><path d="M213.04114,190.09964c0.91137,-0.5293 0.91138,7.81808 -6.07478,9.65267c-2.03191,12.32917 10.69677,19.01112 15.6617,21.50343c2.10482,1.05659 -9.64663,2.79997 -13.29686,1.40211c-1.0961,-0.41975 -5.66291,-5.3905 -5.83178,-5.33754c-0.47429,0.04005 -0.93751,1.80846 -0.53159,3.21633c0.51208,1.77606 1.95685,3.27287 1.47511,3.29198c-14.90629,0.59136 -8.44814,-84.26844 -8.60608,-84.3028c-0.925,-0.20132 -3.86791,50.34659 17.20427,50.57379z" data-paper-data="{&quot;index&quot;:null}" stroke="none" stroke-width="0"/><path d="M193.42018,127.78729c-0.15489,0.04614 12.6649,84.18023 -2.24366,84.71123c-0.48182,0.01716 0.84633,-1.58403 1.22344,-3.39356c0.29893,-1.43441 -0.29593,-3.16301 -0.77189,-3.16726c-0.17237,-0.04011 -4.35256,5.25991 -5.41399,5.76088c-3.53479,1.66833 -15.38406,0.81339 -13.36464,-0.39846c4.76352,-2.85855 16.95379,-10.47854 14.0007,-22.62005c-7.10432,-1.30416 -7.73188,-9.62793 -6.78329,-9.16865c20.99546,-1.81081 14.26057,-51.99438 13.35333,-51.7241z" data-paper-data="{&quot;index&quot;:null}" stroke="none" stroke-width="0"/><path d="M187.5796,176.30727c0.91137,-0.5293 0.91138,7.81808 -6.07478,9.65267c-2.03191,12.32917 10.69677,19.01112 15.6617,21.50343c2.10482,1.05659 -9.64663,2.79997 -13.29686,1.40211c-1.0961,-0.41975 -5.66291,-5.3905 -5.83177,-5.33754c-0.47429,0.04005 -0.93752,1.80846 -0.5316,3.21633c0.51208,1.77606 1.95685,3.27287 1.47511,3.29198c-14.90629,0.59136 -8.44814,-84.26844 -8.60608,-84.3028c-0.925,-0.20132 -3.86791,50.34659 17.20427,50.57379z" data-paper-data="{&quot;index&quot;:null}" stroke="none" stroke-width="0"/><path d="M284.66427,121.43114c-0.15489,0.04614 12.66491,84.18023 -2.24366,84.71123c-0.48182,0.01716 0.84633,-1.58403 1.22344,-3.39356c0.29893,-1.43441 -0.29593,-3.16301 -0.7719,-3.16726c-0.17237,-0.04011 -4.35256,5.25991 -5.41399,5.76088c-3.53479,1.66833 -15.38406,0.81339 -13.36464,-0.39846c4.76352,-2.85855 16.95378,-10.47854 14.0007,-22.62005c-7.10432,-1.30416 -7.73188,-9.62793 -6.78329,-9.16864c20.99546,-1.81081 14.26057,-51.99438 13.35333,-51.72411z" data-paper-data="{&quot;index&quot;:null}" stroke="none" stroke-width="0"/><path d="M303.96574,162.28176c0.91137,-0.5293 0.91138,7.81809 -6.07478,9.65268c-2.03191,12.32917 10.69677,19.01112 15.6617,21.50343c2.10482,1.05659 -9.64663,2.79997 -13.29686,1.40211c-1.09609,-0.41975 -5.66292,-5.3905 -5.83178,-5.33754c-0.47429,0.04005 -0.93751,1.80846 -0.53159,3.21633c0.51208,1.77606 1.95685,3.27287 1.47511,3.29198c-14.9063,0.59136 -8.44814,-84.26844 -8.60608,-84.3028c-0.92499,-0.20132 -3.86792,50.34658 17.20427,50.57378z" data-paper-data="{&quot;index&quot;:null}" stroke="#000000" stroke-width="2"/><path d="M167.95865,113.99492c-0.15489,0.04614 12.6649,84.18023 -2.24366,84.71123c-0.48182,0.01716 0.84633,-1.58403 1.22344,-3.39356c0.29893,-1.43441 -0.29593,-3.16301 -0.7719,-3.16726c-0.17237,-0.04011 -4.35256,5.25991 -5.41399,5.76088c-3.53479,1.66833 -15.38406,0.81339 -13.36464,-0.39846c4.76352,-2.85855 16.95379,-10.47854 14.0007,-22.62005c-7.10432,-1.30416 -7.73188,-9.62793 -6.78329,-9.16865c20.99546,-1.81081 14.26056,-51.99438 13.35333,-51.7241z" data-paper-data="{&quot;index&quot;:null}" stroke="#000000" stroke-width="2"/></g><path d="M147.51593,122.47898c0,0 11.19584,12.62254 13.35214,-3.21771c4.67523,-20.23318 7.34823,-34.03227 28.06475,-43.32359c6.17414,-2.76909 9.95134,-6.7433 29.6321,-3.35764c0.24144,0.04154 0.35692,0.05342 0.36286,0.03777c0.06961,-0.18337 -14.88819,-4.14551 -18.46139,-8.50348c-3.91011,-4.76888 -5.41845,-10.51999 -4.61095,-13.84526c6.53248,-18.81072 34.14034,-19.08391 36.01807,-19.48342c19.30974,-2.10832 45.48468,17.06325 4.92227,27.1663c-2.05566,0.51201 27.50938,-11.40873 -11.40892,-14.0594c-19.78575,2.60711 -27.68716,8.81808 -4.274,22.39772c6.74771,-0.59946 15.65379,-0.92751 16.56562,-1.61709c22.08812,2.63953 24.51248,6.58172 32.18506,11.3592c6.17518,3.8451 14.06649,10.52308 18.44144,19.63532c3.37192,7.0231 2.06955,16.50787 5.69805,23.52708c6.92091,13.38824 15.05593,2.03251 15.05593,2.03251c0,0 1.44682,8.76553 -1.41643,14.63621c-2.05695,4.21747 -7.30611,6.21507 -12.39886,5.78189c-0.11182,0.59282 -0.36027,10.08548 4.33635,12.21282c3.96083,1.79406 12.64871,-1.42264 12.64871,-1.42264c0,0 -14.65164,6.37914 -15.62705,10.57541c-1.7558,7.55362 19.13588,-1.13314 16.3392,1.26495c-1.37818,1.18175 -7.26428,5.56839 -12.77969,6.82385c-5.31453,1.20974 -10.28488,-0.70231 -10.54628,-0.03679c-3.49395,8.89536 -10.36285,18.18124 -10.36285,18.18124c0,0 -2.29192,-5.28642 -3.77673,-3.14158c-6.07718,8.77862 -11.2964,15.30957 -11.2964,15.30957c0,0 -2.40974,-4.97718 -4.47106,-3.86765c-9.32569,5.01966 -20.06286,7.91078 -31.65348,7.91078c-12.60656,0 -24.772,-3.56633 -35.27102,-9.52744c-2.72845,-1.54916 -0.82623,4.38789 -0.82623,4.38789c0,0 -7.93843,-5.19677 -13.15685,-11.00681c-6.08759,-6.77777 -9.73663,-14.57056 -12.13914,-18.68944c-0.34082,-0.58431 -4.01999,1.58785 -5.934,2.01254c-2.96082,0.65696 -4.48364,-0.08182 -4.48364,-0.08182c0,0 2.67098,-3.37669 3.55098,-5.15497c0.94364,-1.90688 1.93325,-5.92746 1.93325,-5.92746c0,0 -2.66402,1.90888 -4.05965,2.38502c-1.48595,0.50696 -4.60208,0.57008 -4.60208,0.57008c0,0 4.39229,-5.64339 5.74307,-11.5602c0.39327,-1.72262 4.12301,-9.97893 -0.21176,-9.96905c-17.00132,0.5205 -11.08139,-20.4147 -11.08139,-20.4147z" fill="#4e45f0" stroke="#000000" stroke-width="2" stroke-linecap="butt"/><g stroke="#000000"><path d="M210.4202,310.52662l2.00102,-132.69379l37.58156,-3.90193l26.58998,130.00471z" fill="#ffffff" stroke-width="2" stroke-linecap="butt"/><path d="M213.05963,206.3648l0.49664,-26.50739l35.64025,-3.69263l5.34116,25.70308c0,0 -7.06254,4.92025 -21.00592,6.62422c-12.39548,1.5148 -20.47213,-2.12728 -20.47213,-2.12728z" fill="#e6e6e6" stroke-width="0" stroke-linecap="butt"/><path d="M249.69896,189.53789l-0.21006,28.15947" fill="none" stroke-width="2" stroke-linecap="round"/><path d="M210.4202,310.52662l2.00102,-132.69379c0,0 9.55994,35.47053 26.47277,34.42901c28.87537,-1.77818 16.17736,-22.75661 16.17736,-22.75661l21.5214,114.43038z" fill="#94869a" stroke-width="2" stroke-linecap="butt"/><path d="M257.20073,216.92922c0,0 -13.17495,3.55387 -18.7712,2.65365c-5.95617,-0.95811 -17.3469,-7.09574 -17.3469,-7.09574" fill="none" stroke-width="0.5" stroke-linecap="round"/><path d="M249.28771,223.2446c0,0 -4.5697,1.55645 -6.83562,1.35034c-2.11877,-0.19272 -6.34815,-2.54956 -6.34815,-2.54956" fill="none" stroke-width="1" stroke-linecap="round"/><path d="M244.25093,253.39225c0,0 -11.98138,-3.91298 -16.07332,-5.62927c-0.85037,-0.35667 -12.92467,-13.08881 -12.92467,-13.08881" fill="none" stroke-width="0.5" stroke-linecap="round"/><path d="M237.38451,255.08112c0,0 -8.62795,-1.78084 -12.1673,-3.21165c-3.43847,-1.39003 -8.77492,-5.25439 -8.77492,-5.25439" fill="none" stroke-width="1" stroke-linecap="round"/><path d="M270.00407,300.06961l-55.27628,5.00324" fill="none" stroke-width="1" stroke-linecap="round"/><path d="M265.73629,272.35615c0,0 -7.96366,2.54 -11.7674,2.76881c-4.55226,0.27384 -13.70616,-1.2365 -13.70616,-1.2365" fill="none" stroke-width="0.5" stroke-linecap="round"/><path d="M265.69463,251.75886l-9.255,2.93173" fill="none" stroke-width="1" stroke-linecap="round"/><path d="M224.79147,269.90223l5.47292,-0.54512" fill="none" stroke-width="1" stroke-linecap="round"/><path d="M255.37922,294.49166c0,0 -15.60366,-2.65287 -22.52588,-5.66169c-6.53605,-2.84097 -17.91548,-11.9166 -17.91548,-11.9166" fill="none" stroke-width="1" stroke-linecap="round"/><path d="M257.22464,282.75095c0,0 -12.41089,0.94051 -18.12794,-0.10587c-5.53687,-1.01339 -15.65115,-6.07663 -15.65115,-6.07663" fill="none" stroke-width="1" stroke-linecap="round"/><path d="M226.62112,298.36102c0,0 -3.8408,-1.23707 -5.20253,-2.5618c-1.57464,-1.53185 -3.69965,-6.09851 -3.69965,-6.09851" fill="none" stroke-width="1" stroke-linecap="round"/></g><path d="M163.30043,136.90227c0,-33.30185 28.7599,-60.29833 64.23702,-60.29833c35.47712,0 64.23702,26.99649 64.23702,60.29833c0,33.30185 -28.7599,60.29833 -64.23702,60.29833c-35.47712,0 -64.23702,-26.99649 -64.23702,-60.29833z" fill="#ffffff" stroke="#000000" stroke-width="2" stroke-linecap="butt"/><path d="M164.02349,136.95608c0,-0.72799 5.20666,55.91939 63.36046,56.93429c55.56352,0.9697 63.51358,-57.95314 63.51358,-56.93429c0,32.80479 -28.40173,59.39833 -63.43702,59.39833c-35.03529,0 -63.43702,-26.59354 -63.43702,-59.39833z" fill="#e6e6e6" stroke="#000000" stroke-width="0" stroke-linecap="butt"/><path d="M176.85064,137.33175c0,-12.968 10.51265,-23.48065 23.48065,-23.48065c12.968,0 23.48065,10.51265 23.48065,23.48065c0,12.968 -10.51265,23.48065 -23.48065,23.48065c-12.968,0 -23.48065,-10.51265 -23.48065,-23.48065z" fill="#ffffff" stroke="#000000" stroke-width="2" stroke-linecap="butt"/><path d="M177.93391,137.0561c0,-9.12808 7.39976,-16.52784 16.52783,-16.52784c9.12808,0 16.52784,7.39977 16.52784,16.52784c0,9.12808 -7.39977,16.52784 -16.52784,16.52784c-9.12808,0 -16.52783,-7.39977 -16.52783,-16.52784z" fill="#005a00" stroke="none" stroke-width="0" stroke-linecap="butt"/><path d="M234.75144,186.90372c-16.57734,0.52251 -18.30332,-12.19264 -18.30332,-12.19264l41.68696,-8.74255c0,0 -5.30202,20.36526 -23.38364,20.93519z" fill="#2a2580" stroke="#000000" stroke-width="2" stroke-linecap="round"/><path d="M254.58975,160.81237c-12.968,0 -23.48065,-10.51265 -23.48065,-23.48065c0,-12.968 10.51265,-23.48065 23.48065,-23.48065c12.968,0 23.48065,10.51265 23.48065,23.48065c0,12.968 -10.51265,23.48065 -23.48065,23.48065z" data-paper-data="{&quot;index&quot;:null}" fill="#ffffff" stroke="#000000" stroke-width="2" stroke-linecap="butt"/><path d="M247.99652,153.58395c-9.12807,0 -16.52783,-7.39977 -16.52783,-16.52784c0,-9.12808 7.39977,-16.52784 16.52783,-16.52784c9.12807,0 16.52783,7.39977 16.52783,16.52784c0,9.12808 -7.39977,16.52784 -16.52783,16.52784z" data-paper-data="{&quot;index&quot;:null}" fill="#005a00" stroke="none" stroke-width="0" stroke-linecap="butt"/><path d="M176.85064,137.33175c0,-12.968 10.51265,-23.48065 23.48065,-23.48065c12.968,0 23.48065,10.51265 23.48065,23.48065c0,0 -12.04444,-8.1588 -23.93388,-8.00696c-11.58733,0.14798 -23.02743,8.61481 -23.02743,8.00696z" fill="#000000" stroke="#000000" stroke-width="2" stroke-linecap="butt"/><path d="M231.10909,137.3361c0,-12.968 10.51265,-23.48065 23.48065,-23.48065c12.968,0 23.48065,10.51265 23.48065,23.48065c0,0 -11.01671,-8.18575 -22.37833,-8.02772c-12.09602,0.16824 -24.58298,8.66278 -24.58298,8.02772z" fill="#000000" stroke="#000000" stroke-width="2" stroke-linecap="butt"/><path d="M189.48831,108.52328c0,0 6.70895,-5.16922 11.79721,-6.36355c5.08827,-1.19433 12.33413,0.69937 12.33413,0.69937c0,0 -8.03812,-0.06028 -11.96762,0.86207c-4.10648,0.96389 -12.16372,4.80211 -12.16372,4.80211z" fill="#000000" stroke="none" stroke-width="0" stroke-linecap="butt"/><path d="M253.42285,103.72118c-3.9295,-0.92235 -11.96762,-0.86207 -11.96762,-0.86207c0,0 7.24586,-1.8937 12.33413,-0.69937c5.08826,1.19433 11.79721,6.36355 11.79721,6.36355c0,0 -8.05724,-3.83822 -12.16372,-4.80211z" data-paper-data="{&quot;index&quot;:null}" fill="#000000" stroke="none" stroke-width="0" stroke-linecap="butt"/><g fill="none" stroke="#000000" stroke-width="2" stroke-linecap="round"><path d="M176.83745,138.70226l-3.6,-2.6"/><path d="M277.63744,138.50226l4.2,-3.4"/></g><path d="" fill="#4e45f0" stroke="#4e45f0" stroke-width="3" stroke-linecap="butt"/><g stroke-linecap="butt"><path d="M275.06344,91.67628c1.94542,3.31208 13.30214,21.61554 14.803,29.05692c3.80083,18.84496 1.41236,29.67296 0.60814,29.9965c-0.13731,0.05523 12.33246,38.53508 -1.21662,40.29321c-0.43788,0.05681 0.63677,-1.51377 0.82647,-3.19263c0.15037,-1.33082 -0.53932,-2.85289 -0.9737,-2.81607c-0.16059,-0.02177 -3.52074,5.15851 -4.44592,5.70514c-3.08106,1.82039 -13.9586,2.05575 -12.22044,0.78032c4.10006,-3.00852 14.56651,-10.98488 10.83934,-21.78062c-6.58915,-0.5792 -7.87055,-8.0998 -6.96644,-7.76299c18.99036,-3.44324 2.68427,-40.99672 -0.16727,-44.89429c-0.46685,-0.63811 -1.66295,-24.67615 -1.08655,-25.3855z" data-paper-data="{&quot;index&quot;:null}" fill="#4e45f0" stroke="#000000" stroke-width="2"/><path d="M164.05278,114.84588c8.36275,-23.98087 26.81845,-36.89256 55.752,-40.48579c23.97968,-2.97802 40.02065,4.08001 49.4904,10.86178c18.81735,13.04357 6.776,33.17238 6.776,33.17238c0,0 -2.64406,-9.38057 -14.63848,-16.93396c-15.49348,-9.75688 -15.29752,-8.5427 -15.29752,-8.5427c0,0 4.737,1.31536 -2.33929,20.86135c-2.43643,5.8766 -12.98337,15.54054 -17.84124,17.1923c-1.74389,-4.47867 2.28779,-22.48795 -25.30746,-32.66094c-6.65443,13.09985 -19.81626,11.41712 -27.32035,30.79209c-2.4202,14.67896 -4.64148,57.19625 17.39328,38.58904c0.78593,-0.55959 0.72874,12.68505 -10.63841,14.11816c-0.03966,0.56314 -0.04761,1.11064 -0.02632,1.64289c0.40945,10.23571 11.63407,14.8328 16.13939,16.58501c2.00929,0.78146 -8.55769,3.3728 -12.00522,2.41298c-1.03523,-0.28822 -5.62294,-4.42085 -5.77243,-4.35822c-0.42907,0.07699 -0.70079,1.72579 -0.2107,2.9722c0.61825,1.57236 2.06319,2.81082 1.62554,2.86943c-13.54185,1.81284 -11.4692,-38.58389 -11.61613,-38.60167c-0.8606,-0.10408 -5.97332,-9.94332 -7.18554,-29.12951c-0.65329,-10.33962 3.02251,-21.35686 3.02251,-21.35686z" fill="#4e45f0" stroke="#000000" stroke-width="2"/><path d="M164.05278,114.84588c8.36275,-23.98087 26.81845,-36.89256 55.752,-40.48579c23.97968,-2.97802 40.02065,4.08001 49.4904,10.86178c1.65267,1.14557 3.55907,3.20591 5.54746,5.81139c-2.4915,1.8102 -4.8715,3.70173 -7.22935,5.49218l-0.72346,-0.31389l-0.74013,-0.48233l-0.02524,-0.02387l-0.0832,-0.0468l-0.4982,-0.32467l-0.20448,-0.07063l-0.16978,-0.09551l-0.18486,-0.54243l-1.16488,-0.54225l-0.95653,-0.85793l-0.76249,0.05773l-1.6329,-0.76011l-0.25991,-0.14622l-0.60156,-0.46145l-0.03624,-0.10632l-0.26039,-0.12121l-0.22109,-0.16959l-2.10789,-0.91454l-2.08309,-0.96968l-0.27359,-0.05281l-0.31791,-0.13794l-0.26416,-0.12296l-1.44678,-1.29763l-0.49748,0.03766l-0.68402,-0.44577l-0.44005,-0.152l-0.06799,-0.08941l-0.28535,-0.03265l-0.26337,-0.09097l-2.28893,-0.20105l-1.20064,-0.13737l-0.42388,-0.19732l-1.55248,-0.29969l-1.60514,0.08722l-1.09414,-0.12518l-0.34033,-0.0657l-0.15855,0.00862l-0.00404,-0.00047l-0.00881,0.00116l-0.45955,0.02497l-0.60153,-0.19355l-2.54391,-0.16901l-0.89522,0.16165l-0.09622,-0.03097l-0.93813,-0.06232l-0.04017,-0.00459l-0.00973,0.00128l-1.55588,-0.10337l-0.98016,0.17698l-0.98956,-0.11323l-11.4111,1.50415l-1.55588,-0.10337l-0.98016,0.17698l-0.98956,-0.11323l-18.68589,2.46308l-0.1008,-0.04956l-0.26982,0.0984l-0.27625,0.03641l-2.13717,0.84381l-1.18213,0.43115l-0.19944,-0.02713l-0.23229,0.18458l-0.54476,0.19868l-0.2308,0.15611l-0.26715,0.10548l-0.04251,0.10398l-0.38563,0.26083l-1.07333,1.19668l-0.58529,0.46509l-0.12821,0.08672l-0.04734,0.05278l-0.49768,0.39548l-0.14307,0.18651l-0.34731,0.06554l-1.08229,1.66072l-0.49973,0.55718l-0.13946,0.02632l-0.30787,0.4724l-0.37649,0.41975l0.01072,0.14152l-0.73878,1.13363l-1.47508,2.12517l0.03045,0.15023l-0.21545,0.62377c-1.10695,0.81373 -2.10715,1.60762 -2.90867,2.21862c-2.07521,1.58193 -12.2154,14.44077 -12.90487,15.71854c-2.81983,5.22581 -3.31402,7.94005 -5.5811,13.86629c-0.45343,1.18528 -1.62437,4.34124 -2.59027,7.59898c-0.17964,-1.66031 -0.33083,-3.40608 -0.44651,-5.23696c-0.65329,-10.33962 3.02251,-21.35686 3.02251,-21.35686z" fill="#4e45f0" stroke="#4e45f0" stroke-width="4"/><path d="M224.16709,68.17658l7.82641,10.10393l17.18076,-0.06413l-10.99488,11.08422l5.96645,13.80768l-16.17269,-6.05765l-14.05058,10.04153l2.18471,-14.88213l-13.49156,-7.85654l16.61052,-4.39006z" fill="#ffe938" stroke="#000000" stroke-width="2"/></g><g stroke-width="0" stroke-linecap="butt"><path d="M156.77256,29.68123l12.60903,-4.43389l6.58828,8.69002l-8.23439,6.44079l19.14621,0.47038l1.41313,13.14835l-20.52155,0.29386l8.75227,8.36882l-6.96019,8.32254l-8.16641,-1.84854l-18.00526,-17.84838l-0.37308,-7.02551z" data-paper-data="{&quot;index&quot;:null}" fill="#ffffff" stroke="none"/><path d="M166.16231,27.42843c2.08182,-0.93705 3.61294,0.90329 4.7276,2.258c1.15381,1.40229 3.14377,5.26032 3.14377,5.26032c0,0 -8.22,3.68792 -7.36682,5.51382c0.42208,0.9033 10.3287,0.86266 16.66678,1.19914c1.78674,0.09486 3.1675,3.97078 3.24278,5.70261c0.19072,4.38823 -0.76145,5.70991 -2.92525,6.01557c-2.60982,0.36867 -17.15223,-1.28536 -17.99305,0.11543c-0.51636,0.86023 9.07135,8.89978 9.07135,8.89978c0,0 -3.31334,3.72089 -4.75378,4.9079c-1.12792,0.92947 -2.81211,1.81564 -3.78813,1.37149c-1.46517,-0.66673 -21.23835,-12.32336 -21.01541,-21.53284c0.21851,-9.02573 19.3258,-18.96208 20.99014,-19.71123z" data-paper-data="{&quot;index&quot;:null}" fill="#c24b99" stroke="#ffffff"/><path d="M167.15455,22.83049c2.56398,-1.14167 4.63015,2.97103 6.00318,4.62203c1.42124,1.70898 5.27761,6.80295 3.72309,8.1827c-2.78299,2.47012 -3.96493,3.4339 -3.96493,3.4339c0,0 4.77056,-0.30363 12.57959,-0.15649c3.87075,0.07295 5.15709,5.07972 5.34059,7.18422c0.51508,5.90759 -0.60054,9.57481 -3.19952,10.2573c-2.9882,0.7847 -15.54885,0.36425 -15.54885,0.36425c0,0 3.90937,2.82255 5.54285,5.58137c1.52334,2.57278 -4.25989,7.71889 -6.03387,9.16522c-1.38908,1.13254 -3.91852,2.20826 -5.12069,1.66692c-1.80468,-0.81266 -25.70693,-14.73032 -25.43337,-25.95297c0.26811,-10.99874 24.0621,-23.43571 26.1119,-24.34842zM144.10787,47.15785c-0.04879,10.33514 21.35752,23.17462 22.78701,23.13137c2.70917,-0.08196 8.14086,-6.85398 8.14086,-6.85398c0,0 -10.03533,-8.40475 -8.851,-9.22003c1.83053,-1.2601 16.93154,-0.23328 19.63761,-0.54756c2.88847,-0.33549 1.88578,-10.61721 -0.12038,-11.87328c-1.37955,-0.86374 -18.47214,0.06027 -19.36261,-1.09655c-1.28956,-1.67528 8.66197,-6.61266 8.66197,-6.61266c0,0 -5.00766,-7.69948 -6.91454,-8.20155c-2.07643,-0.54672 -23.93263,11.46314 -23.97896,21.27426z" data-paper-data="{&quot;index&quot;:null}" fill="#481145" stroke="#1542b7"/></g></g></g></svg>