<svg version="1.1" xmlns="http://www.w3.org/2000/svg" xmlns:xlink="http://www.w3.org/1999/xlink" width="164.5824" height="296.82863" viewBox="0,0,164.5824,296.82863"><defs><linearGradient x1="240.00007" y1="175.50004" x2="240.00007" y2="307.50003" gradientUnits="userSpaceOnUse" id="color-1"><stop offset="0" stop-color="#000000"/><stop offset="1" stop-color="#1a9138"/></linearGradient><linearGradient x1="238.94344" y1="76.55894" x2="240.39887" y2="199.11753" gradientUnits="userSpaceOnUse" id="color-2"><stop offset="0" stop-color="#000000"/><stop offset="1" stop-color="#1a9138"/></linearGradient><linearGradient x1="212.1815" y1="114.12653" x2="212.73914" y2="161.08452" gradientUnits="userSpaceOnUse" id="color-3"><stop offset="0" stop-color="#ffffff"/><stop offset="1" stop-color="#8c1906"/></linearGradient><linearGradient x1="207.94058" y1="149.75936" x2="216.98006" y2="125.45168" gradientUnits="userSpaceOnUse" id="color-4"><stop offset="0" stop-color="#8c1906"/><stop offset="1" stop-color="#ffffff"/></linearGradient><linearGradient x1="212.09926" y1="107.20181" x2="212.38459" y2="131.22812" gradientUnits="userSpaceOnUse" id="color-5"><stop offset="0" stop-color="#000000"/><stop offset="1" stop-color="#1a9138"/></linearGradient><linearGradient x1="266.43611" y1="113.48224" x2="266.72134" y2="137.50066" gradientUnits="userSpaceOnUse" id="color-6"><stop offset="0" stop-color="#000000"/><stop offset="1" stop-color="#1a9138"/></linearGradient><linearGradient x1="168.02644" y1="115.51915" x2="168.56476" y2="160.84928" gradientUnits="userSpaceOnUse" id="color-7"><stop offset="0" stop-color="#000000"/><stop offset="1" stop-color="#1a9138"/></linearGradient><linearGradient x1="311.49823" y1="113.81538" x2="312.03654" y2="159.14551" gradientUnits="userSpaceOnUse" id="color-8"><stop offset="0" stop-color="#000000"/><stop offset="1" stop-color="#1a9138"/></linearGradient><radialGradient cx="262.45282" cy="153.95462" r="30.77202" gradientUnits="userSpaceOnUse" id="color-9"><stop offset="0" stop-color="#5f0000"/><stop offset="1" stop-color="#4a0000"/></radialGradient></defs><g transform="translate(-157.7403,-17.48515)"><g data-paper-data="{&quot;isPaintingLayer&quot;:true}" fill-rule="nonzero" stroke-linejoin="miter" stroke-miterlimit="10" stroke-dasharray="" stroke-dashoffset="0" style="mix-blend-mode: normal"><path d="M182.23286,314.31377l-3.17318,-267.20617l123.17335,-1.46273l3.17318,267.20617z" fill-opacity="0.01" fill="#000000" stroke="none" stroke-width="0" stroke-linecap="butt"/><path d="M249.53352,106.91671c0,0 -11.44803,-26.58845 -16.40558,-38.10251c-4.11024,-9.54617 6.26719,-38.40288 6.26719,-38.40288l5.89678,6.27036c0,0 -9.98207,18.65654 -6.00528,27.89275c5.00998,11.63585 16.98242,39.44221 16.98242,39.44221z" fill="#8bd19c" stroke="#000000" stroke-width="0" stroke-linecap="butt"/><path d="M255.16109,52.81849c-9.75703,0 -17.66667,-7.90964 -17.66667,-17.66667c0,-9.75703 7.90964,-17.66667 17.66667,-17.66667c9.75703,0 17.66667,7.90964 17.66667,17.66667c0,9.75703 -7.90964,17.66667 -17.66667,17.66667z" fill="#116025" stroke="#000000" stroke-width="0" stroke-linecap="butt"/><path d="M206.75007,307.50001l15.14285,-131.8421l37.78325,-0.15789l13.57389,132z" fill="url(#color-1)" stroke="#000000" stroke-width="0" stroke-linecap="butt"/><path d="M175.43866,138.60102c-0.40191,-33.84362 28.03016,-61.62081 63.50477,-62.04209c35.47462,-0.42128 64.5583,26.6729 64.96021,60.51651c0.40191,33.84362 -28.03016,61.62081 -63.50477,62.04209c-35.47462,0.42128 -64.5583,-26.67289 -64.96021,-60.51651z" fill="url(#color-2)" stroke="#000000" stroke-width="0" stroke-linecap="butt"/><path d="M176.12094,135.16227c-0.00942,-0.79308 5.92974,60.85762 64.09257,61.27273c55.57215,0.39661 62.75935,-63.88925 62.77253,-62.7793c0.4244,35.73806 -27.63128,65.04674 -62.6641,65.46277c-35.03282,0.41603 -63.77659,-28.21814 -64.201,-63.9562z" fill="#8e0000" stroke-opacity="0.59608" stroke="#8f0000" stroke-width="14.5" stroke-linecap="butt"/><path d="M188.98133,137.88435c-0.15399,-12.96709 10.23309,-23.60383 23.20017,-23.75782c12.96709,-0.15399 23.60383,10.23309 23.75782,23.20017c0.15399,12.96709 -10.23309,23.60383 -23.20017,23.75782c-12.96709,0.15399 -23.60383,-10.23309 -23.75782,-23.20017z" fill="url(#color-3)" stroke="#000000" stroke-width="0" stroke-linecap="butt"/><path d="M239.17246,160.7706c-12.96709,0.15399 4.21745,-10.56348 4.06346,-23.53056c-0.15399,-12.96709 10.23309,-23.60383 23.20017,-23.75782c12.96709,-0.15399 23.60383,10.23309 23.75782,23.20017c0.15399,12.96709 -38.05436,23.93422 -51.02145,24.08821z" fill="#696969" stroke="#000000" stroke-width="0" stroke-linecap="butt"/><path d="M224.61416,142.12526c-2.49618,6.71237 -9.9612,10.13028 -16.67357,7.6341c-6.71237,-2.49618 -10.13028,-9.9612 -7.6341,-16.67357c2.49618,-6.71237 9.9612,-10.13028 16.67357,-7.6341c6.71237,2.49618 10.13028,9.9612 7.6341,16.67357z" fill="url(#color-4)" stroke="#000000" stroke-width="0" stroke-linecap="butt"/><path d="M188.89909,130.95963c-0.15399,-12.96709 10.23309,-23.60383 23.20017,-23.75782c12.96709,-0.15399 23.60383,10.23309 23.75782,23.20017c0,0 -46.94337,1.78911 -46.958,0.55764z" fill="url(#color-5)" stroke="#000000" stroke-width="0" stroke-linecap="butt"/><path d="M243.23594,137.24005c-0.15399,-12.96709 10.23309,-23.60383 23.20017,-23.75782c12.96709,-0.15399 23.60383,10.23309 23.75782,23.20017c0.01441,1.21371 -46.958,0.55764 -46.958,0.55764z" fill="url(#color-6)" stroke="#000000" stroke-width="0" stroke-linecap="butt"/><path d="M241.97849,278.59034c63.81673,-3.97591 62.12811,-145.79138 62.12811,-145.79138l8.55927,-8.84859c0,0 3.22672,169.28849 -70.50563,169.94497c-74.09854,0.65972 -75.46677,-166.75364 -75.46677,-166.75364l7.45759,6.47165c0,0 6.02512,148.82739 67.82742,144.97701z" fill="#8bd19c" stroke="#000000" stroke-width="0" stroke-linecap="butt"/><path d="M157.74212,138.30955c-0.14865,-12.51758 8.81074,-22.7729 20.01137,-22.90591c1.01417,-0.01204 1.72458,45.31605 0.53831,45.33013c-11.20063,0.13301 -20.40104,-9.90666 -20.54969,-22.42422z" fill="url(#color-7)" stroke="#000000" stroke-width="0" stroke-linecap="butt"/><path d="M173.09668,162.1289l-0.57394,-48.32993l10.14027,-0.12042l0.57394,48.32993z" fill="#8bd19c" stroke="#000000" stroke-width="0" stroke-linecap="butt"/><path d="M302.30948,159.26102c-1.18627,0.01409 -1.55247,-45.31809 -0.53831,-45.33013c11.20063,-0.13301 20.40105,9.90666 20.5497,22.42423c0.14865,12.51757 -8.81075,22.77289 -20.01138,22.9059z" fill="url(#color-8)" stroke="#000000" stroke-width="0" stroke-linecap="butt"/><path d="M297.03353,160.6571l-0.57394,-48.32993l10.14027,-0.12042l0.57394,48.32993z" fill="#8bd19c" stroke="#000000" stroke-width="0" stroke-linecap="butt"/><path d="M256.56876,83.74503l5.08631,21.27443l-23.96821,-11.21618l1.46781,11.31671l-23.21212,-17.72562" fill="none" stroke="#000000" stroke-width="0" stroke-linecap="round"/><path d="M201.27602,108.92783c0,0 6.64709,-5.24852 11.72081,-6.50319c5.07373,-1.25467 12.34157,0.55286 12.34157,0.55286c0,0 -8.03827,0.03517 -11.95654,1.00412c-4.09474,1.01258 -12.10584,4.94621 -12.10584,4.94621z" fill="#000000" stroke="none" stroke-width="0" stroke-linecap="butt"/><path d="M265.14899,103.36688c-3.94018,-0.87562 -11.97701,-0.7199 -11.97701,-0.7199c0,0 7.22286,-1.97961 12.32496,-0.84578c5.10208,1.13382 11.87194,6.22301 11.87194,6.22301c0,0 -8.10225,-3.74227 -12.21989,-4.65733z" fill="#000000" stroke="none" stroke-width="0" stroke-linecap="butt"/><path d="M247.1814,156.3034c0.69389,-0.02151 1.38751,-0.04081 2.07987,-0.04763c0.66887,-0.00659 3.73079,0.12458 4.63032,-0.3484c1.72657,-0.90784 3.17099,-2.43514 5.05105,-2.95533c3.12223,-0.86388 7.44597,-0.75858 11.00152,-1.75367c0.33725,-0.24811 0.77349,-0.44185 1.31044,-0.43542c0.77131,-0.30283 1.48799,-0.6788 2.12556,-1.15363c1.50103,-1.1179 2.34046,-3.03929 3.95573,-3.98464c1.72244,-1.00808 3.89018,-1.81619 5.97205,-2.48967c0.34178,-0.47673 0.71944,-0.90778 1.153,-1.26659c0.05537,-0.07527 0.12064,-0.14393 0.19815,-0.20449c0.17738,-0.13858 0.36145,-0.26586 0.55107,-0.3838l-0.10944,-0.12464l1.8794,-1.65002c0.43412,-0.38577 1.00388,-0.62289 1.63019,-0.63033c1.32648,-0.01575 2.42391,1.00451 2.52249,2.30903c1.12444,0.78558 1.76468,2.27458 1.96741,4.46469c0.44903,4.85103 -3.31398,5.50186 -6.00096,7.76746c-1.90102,1.6029 -2.51344,5.59077 -3.10811,7.73497c-2.88411,3.58099 -6.0354,8.84931 -11.9051,7.0752c-1.44734,-0.43745 -3.72872,-3.11308 -4.97024,-5.00026c-0.00576,-0.00156 -0.01152,-0.00313 -0.01728,-0.0047c-0.93045,0.16119 -1.85469,0.33476 -2.76714,0.5283c-2.67964,0.56835 -5.15574,2.45074 -7.63407,3.57479c-3.52283,0.75159 -8.92935,1.67361 -12.53739,0.78987c-0.91484,-0.22408 -1.89495,-0.47204 -2.78012,-0.80254c-0.14374,0.02752 -0.2919,0.04276 -0.44338,0.04456l-2.72757,0.03239l-0.00181,-0.15253c-0.28704,0.02626 -0.57598,0.03077 -0.86734,0.00755c-1.2154,-0.09685 -2.04173,-1.36527 -2.89324,-2.2379c-3.12661,-3.20421 -4.37089,-8.56646 0.85461,-10.8941c1.24695,-0.55544 2.74167,-0.05918 4.093,0.13397c2.60549,0.37241 5.1611,1.50482 7.78733,2.05752z" fill="url(#color-9)" stroke="none" stroke-width="0" stroke-linecap="butt"/><path d="M240.67217,38.71594c-0.04668,-0.03507 -0.09357,-0.07574 -0.14046,-0.12263c-0.70711,-0.7071 0,-1.41422 0,-1.41422c1.92697,-1.75715 1.70011,-5.55527 3.37028,-7.774c0.68632,-0.91174 1.93255,-1.2589 3.01355,-1.62459c4.89173,-1.65481 10.07037,-1.21978 14.94261,0.03136c2.089,1.39267 4.37947,2.22312 6.43829,3.85413c0.58598,0.46422 1.62712,0.68058 1.73576,1.42022c0.19617,1.3356 -2.98098,2.49237 -3.72686,2.86021c-1.94786,0.96061 -3.3191,2.4588 -5.56957,2.91302c-3.68567,0.7439 -7.82549,0.34261 -11.60057,0.34261c-2.21099,0 -4.42198,0 -6.63297,0h-0.94757c0,0 -0.61825,0 -0.8825,-0.48612zM242.92965,37.20206c2.06852,0 4.13704,0 6.20557,0c4.46654,0 9.69012,0.61508 13.80535,-1.17633c1.15897,-0.50451 2.61926,-1.55442 3.70574,-2.16828c0.18289,-0.10334 0.49337,-0.30588 0.77791,-0.47783c-0.49121,-0.15944 -1.11695,-0.71108 -1.51692,-1.01053c-1.58664,-1.18788 -3.2772,-1.67416 -4.85825,-2.72819c-4.40467,-1.0684 -9.06126,-1.41827 -13.48443,0.03136c-0.7066,0.23158 -1.63274,0.28021 -2.04014,0.90226c-1.34396,2.05209 -1.50856,4.58081 -2.59483,6.62754z" fill="#000000" stroke="none" stroke-width="0" stroke-linecap="butt"/><path d="M245.47599,30.5623c0.4074,-0.62205 1.33622,-0.67853 2.04282,-0.91011c4.42317,-1.44963 9.16894,-1.10456 13.57361,-0.03616c1.58105,1.05403 3.27814,1.56221 4.86478,2.75009c0.39997,0.29945 1.02577,0.85557 1.51698,1.01501c-0.28454,0.17195 -0.59512,0.37667 -0.77801,0.48001c-1.08648,0.61386 -2.55003,1.6782 -3.70901,2.18271c-4.11523,1.79141 -9.42648,1.18672 -13.89302,1.18672c-2.06852,0 -4.14327,-0.01231 -6.2118,-0.01231c1.08627,-2.04673 1.24968,-4.60388 2.59364,-6.65597z" fill="#ff0000" stroke="none" stroke-width="0" stroke-linecap="butt"/><path d="M261.60238,33.00481c0,2.53713 -2.89815,4.59389 -6.4732,4.59389c-3.57505,0 -6.47321,-2.05676 -6.47321,-4.59389c0,-2.53713 2.89816,-4.59388 6.47321,-4.59388c3.57505,0 6.4732,2.05675 6.4732,4.59388z" fill="#000000" stroke="#000000" stroke-width="0" stroke-linecap="butt"/></g></g></svg>