<svg version="1.1" xmlns="http://www.w3.org/2000/svg" xmlns:xlink="http://www.w3.org/1999/xlink" width="186.94524" height="298.44246" viewBox="0,0,186.94524,298.44246"><defs><linearGradient x1="259.22677" y1="15.17011" x2="261.77645" y2="80.0949" gradientUnits="userSpaceOnUse" id="color-1"><stop offset="0" stop-color="#000000"/><stop offset="1" stop-color="#4f5763"/></linearGradient><linearGradient x1="289.0045" y1="40.60461" x2="289.61061" y2="56.03844" gradientUnits="userSpaceOnUse" id="color-2"><stop offset="0" stop-color="#9ad4d4"/><stop offset="1" stop-color="#46bdb7"/></linearGradient><linearGradient x1="240" y1="88.98777" x2="240" y2="271.01232" gradientUnits="userSpaceOnUse" id="color-3"><stop offset="0" stop-color="#000000"/><stop offset="1" stop-color="#17b2c5"/></linearGradient><linearGradient x1="240.00004" y1="175.50008" x2="240.00004" y2="307.50005" gradientUnits="userSpaceOnUse" id="color-4"><stop offset="0" stop-color="#0c070c"/><stop offset="1" stop-color="#3dcadc"/></linearGradient><linearGradient x1="240.46918" y1="175.50008" x2="240.46918" y2="224.13935" gradientUnits="userSpaceOnUse" id="color-5"><stop offset="0" stop-color="#000000"/><stop offset="1" stop-color="#0c070c" stop-opacity="0.14012"/></linearGradient><linearGradient x1="234.56434" y1="76.48694" x2="239.29668" y2="196.99076" gradientUnits="userSpaceOnUse" id="color-6"><stop offset="0" stop-color="#070b0d"/><stop offset="1" stop-color="#15b3c1"/></linearGradient><linearGradient x1="209.79148" y1="115.68935" x2="211.63429" y2="162.61447" gradientUnits="userSpaceOnUse" id="color-7"><stop offset="0" stop-color="#666968"/><stop offset="1" stop-color="#d0d0d7"/></linearGradient><linearGradient x1="214.48073" y1="201.81009" x2="217.84079" y2="201.67813" gradientUnits="userSpaceOnUse" id="color-8"><stop offset="0" stop-color="#ffffff"/><stop offset="1" stop-color="#ffffff" stop-opacity="0.16069"/></linearGradient><linearGradient x1="266.69981" y1="195.69575" x2="270.40852" y2="195.55011" gradientUnits="userSpaceOnUse" id="color-9"><stop offset="0" stop-color="#ffffff" stop-opacity="0.08004"/><stop offset="1" stop-color="#ffffff"/></linearGradient></defs><g transform="translate(-146.52738,-15.17005)"><g data-paper-data="{&quot;isPaintingLayer&quot;:true}" fill-rule="nonzero" stroke-linejoin="miter" stroke-miterlimit="10" stroke-dasharray="" stroke-dashoffset="0" style="mix-blend-mode: normal"><path d="M178.40899,313.61251v-267.22501c0,0 47.08901,0 68.65763,0c19.22089,0 54.5244,0 54.5244,0v267.22501z" fill-opacity="0.01" fill="#000000" stroke="none" stroke-width="0" stroke-linecap="butt"/><g stroke-linecap="round"><path d="M227.06582,76.51942l12.11,-47.94103l19.22912,-13.37602l35.7261,8.47419l-4.02232,16.3456l-34.31335,-7.43221l-10.18164,48.13967z" fill="url(#color-1)" stroke="#000000" stroke-width="0"/><path d="M233.05379,54.33494c0,0 6.03924,2.95737 8.98691,3.85859c2.88261,0.88133 8.50826,1.49043 8.50826,1.49043l-2.19855,8.73638c0,0 -7.37748,0.04708 -10.33418,-1.172c-2.68835,-1.10844 -7.36838,-4.31355 -7.36838,-4.31355z" fill="#2d1723" stroke="#000000" stroke-width="0"/><path d="M237.30703,36.8828c0,0 5.75037,1.16916 8.41111,1.8069c2.89323,0.69346 8.3093,2.20071 8.3093,2.20071l-1.67017,6.37602c0,0 -6.05527,-0.06495 -8.76822,-0.68303c-2.76465,-0.62984 -7.66748,-3.0614 -7.66748,-3.0614z" fill="#2d1723" stroke="#000000" stroke-width="0"/><path d="M273.92871,19.25699c0,0 -1.01271,6.35345 -1.84943,9.18238c-0.77293,2.61325 -2.99472,7.1955 -2.99472,7.1955l-8.23501,-1.94387c0,0 1.24436,-5.79382 2.20058,-8.58636c0.90477,-2.64232 3.39092,-7.74319 3.39092,-7.74319z" fill="#2d1723" stroke="#000000" stroke-width="0"/><path d="M288.31367,22.25884c0,0 -1.3286,5.74444 -2.15278,8.53092c-0.78901,2.66763 -2.69138,7.84696 -2.69138,7.84696l-7.21937,-2.18579c0,0 1.00438,-5.0525 1.68776,-7.56329c0.67521,-2.48079 2.38834,-7.41259 2.38834,-7.41259z" fill="#2d1723" stroke="#000000" stroke-width="0"/><path d="M259.22677,15.17005l-3.42064,17.69381l-15.83407,-4.86413z" fill="#0b090b" stroke="#000000" stroke-width="0"/><path d="M227.06582,76.51942l12.11,-47.94103l19.22912,-13.37602l35.7261,8.47419l-4.02232,16.3456l-34.31335,-7.43221l-10.18164,48.13967z" fill="none" stroke="#000000" stroke-width="0"/><path d="M294.11959,23.45682l-4.03757,17.64016l4.02143,-18.05087" fill="none" stroke="#9ad4d4" stroke-width="1"/><path d="M287.81307,45.95116l0.23315,-5.30892l2.3635,0.06009l-0.26478,15.31512" fill="none" stroke="url(#color-2)" stroke-width="1"/></g><g stroke-linecap="round"><path d="M302.42136,119.02461l22.87988,23.28845l-19.61133,22.47131l-1.22571,67.00536l29.00842,13.07422l-21.65417,4.49426l12.66565,21.65417c0,0 -85.41974,0 -116.59013,0c-20.86918,0 -52.26225,0 -52.26225,0l13.35304,-21.18123l-22.45738,-6.06956l27.91998,-11.53216v-64.94431l-20.02956,-24.27824l22.45738,-22.45738l71.01387,-31.56172z" fill="url(#color-3)" stroke="#000000" stroke-width="0"/><path d="M202.8477,270.96889c0,0 4.95381,-38.48853 5.68043,-54.39498c0.55345,-12.11557 -1.69707,-32.80545 -1.69707,-32.80545l70.85492,-5.03762c0,0 -3.54934,23.03061 -3.82275,33.09039c-0.44305,16.30151 1.41807,59.33696 1.41807,59.33696l-0.49499,0.0008" fill="#0f7784" stroke="#004c5d" stroke-width="1.5"/><path d="M164.08365,151.72081l-1.29333,7.50129l-2.58665,-10.34661l-3.62132,8.79462l-1.03466,-12.93327" fill="#083d44" stroke="#004c5d" stroke-width="0"/><path d="M325.48774,141.86576l-0.51733,14.48526l-2.32799,-11.38127h-2.58665l-1.29332,13.45059l-3.10399,-6.98396" fill="#083d44" stroke="#004c5d" stroke-width="0"/><path d="M151.25175,243.08682l-3.08915,9.70873l-0.4413,-9.26743" fill="#1499a9" stroke="#004c5d" stroke-width="0"/><path d="M157.29449,244.09258l-2.60927,7.50163l-0.65231,-7.50163" fill="#1499a9" stroke="#004c5d" stroke-width="0"/><path d="M181.88618,269.08549l-4.12603,6.0015l-1.12528,-5.6264l-3.37584,-0.37509l-0.90646,5.67987l-1.95695,13.04631l-1.63079,-10.11089l-1.63079,3.14643l-1.20048,-12.60505" fill="#17b0c3" stroke="#004c5d" stroke-width="0"/><path d="M200.18095,268.35992l-2.64784,15.00441l-2.20654,-14.5631" fill="#17b0c3" stroke="#004c5d" stroke-width="0"/><path d="M322.42277,245.85332l-2.64783,9.70873l-1.32392,-11.47396" fill="#1499a9" stroke="#004c5d" stroke-width="0"/><path d="M332.13151,244.5294l-2.20653,7.5022l-1.32392,-6.61959" fill="#1499a9" stroke="#004c5d" stroke-width="0"/><path d="M322.86408,270.56647l-1.32392,11.03265l-2.64784,-11.91527l-2.20653,4.85437l-0.88261,-5.29567" fill="#17b0c3" stroke="#004c5d" stroke-width="0"/><path d="M306.97706,269.24253l-1.76522,17.65225l-3.08915,-18.09355" fill="#17b0c3" stroke="#004c5d" stroke-width="0"/><path d="M304.66388,233.64155l24.73642,10.9489" fill="none" stroke="#ffffff" stroke-width="1"/><path d="M321.54949,267.57443l-10.13788,-15.40957" fill="none" stroke="#ffffff" stroke-width="1"/><path d="M150.90238,243.75723l23.51987,-9.32684" fill="none" stroke="#ffffff" stroke-width="1"/><path d="M158.15108,269.39158l11.61665,-16.45692" fill="none" stroke="#ffffff" stroke-width="1"/><path d="M183.67839,269.16315l10.27538,0.20551" fill="none" stroke="#ffffff" stroke-width="1"/><path d="M173.5663,162.55211l-6.77638,-8.22846" fill="none" stroke="#ffffff" stroke-width="1"/><path d="M158.97753,150.44099l-2.47088,6.00071l-0.88246,-10.2365" fill="none" stroke="#ffffff" stroke-width="1"/><path d="M163.60643,154.91896l-0.91474,3.65898l-0.54885,-4.39078" fill="none" stroke="#ffffff" stroke-width="1"/><path d="M306.95874,160.95532l6.73607,-7.65463" fill="none" stroke="#ffffff" stroke-width="1"/><path d="M319.13201,157.36794v-5.1733" fill="none" stroke="#ffffff" stroke-width="1"/><path d="M325.62025,153.18079v-7.70479" fill="none" stroke="#ffffff" stroke-width="1"/><path d="M321.28105,145.36705l-1.87522,1.36379" fill="none" stroke="#ffffff" stroke-width="1"/></g><g><path d="M261.4104,218.91841c0,0 17.96897,-5.32978 23.45881,-4.36443c7.75629,1.36389 19.36716,16.09383 19.36716,16.09383c0,0 -17.06641,3.00055 -22.64048,3.00055c-5.57407,0 -20.18549,-14.72995 -20.18549,-14.72995z" fill="#000000" stroke="none" stroke-width="0" stroke-linecap="butt"/><path d="M270.41204,233.92113l0.54555,-7.63775" fill="none" stroke="#000000" stroke-width="1" stroke-linecap="round"/><path d="M276.14036,233.64836l-0.27278,-3.81888" fill="none" stroke="#000000" stroke-width="1" stroke-linecap="round"/><path d="M288.14254,233.64836l-0.54555,3.00054" fill="none" stroke="#000000" stroke-width="1" stroke-linecap="round"/><path d="M290.59752,247.55998l0.54556,-14.72995" fill="none" stroke="#000000" stroke-width="1" stroke-linecap="round"/><path d="M272.77897,223.39038c0,-1.04408 0.84639,-1.89047 1.89047,-1.89047c1.04408,0 1.89047,0.84639 1.89047,1.89047c0,1.04408 -0.84639,1.89048 -1.89047,1.89048c-1.04408,0 -1.89047,-0.8464 -1.89047,-1.89048z" fill="none" stroke="#ffffff" stroke-width="1" stroke-linecap="butt"/></g><g><path d="M264.13767,208.0236c0,0 10.65045,-15.42265 15.53138,-18.11464c6.89598,-3.80336 25.17838,0.38448 25.17838,0.38448c0,0 -11.40869,13.04252 -15.74965,16.53914c-4.34096,3.49662 -24.96011,1.19102 -24.96011,1.19102z" fill="#000000" stroke="none" stroke-width="0" stroke-linecap="butt"/><path d="M277.94836,208.40868l-0.10226,3.73686" fill="none" stroke="#000000" stroke-width="1" stroke-linecap="round"/><path d="M281.92193,207.2923l0.05455,2.80294" fill="none" stroke="#000000" stroke-width="1" stroke-linecap="round"/><path d="M294.53639,207.63912l-0.34024,-4.91326" fill="none" stroke="#000000" stroke-width="1" stroke-linecap="round"/><path d="M296.65793,199.24877l0.03771,14.20745" fill="none" stroke="#000000" stroke-width="1" stroke-linecap="round"/><path d="M274.07573,203.35552c-0.65495,-0.81311 -0.52674,-2.00319 0.28637,-2.65814c0.8131,-0.65495 2.0032,-0.52675 2.65814,0.28636c0.65495,0.81311 0.52675,2.0032 -0.28636,2.65815c-0.8131,0.65495 -2.0032,0.52674 -2.65815,-0.28637z" fill="none" stroke="#ffffff" stroke-width="1" stroke-linecap="butt"/></g><g><path d="M175.53202,189.40995c0,0 18.27841,-4.14613 23.69357,-2.82469c7.65078,1.867 18.27594,17.32305 18.27594,17.32305c0,0 -17.2258,1.88074 -22.788,1.51709c-5.5622,-0.36365 -19.18152,-16.01546 -19.18152,-16.01546z" fill="#000000" stroke="none" stroke-width="0" stroke-linecap="butt"/><path d="M178.84947,198.44022l0.49458,-8.30773" fill="none" stroke="#000000" stroke-width="1" stroke-linecap="round"/><path d="M191.69813,201.61069l-0.45032,10.07043" fill="none" stroke="#000000" stroke-width="1" stroke-linecap="round"/><path d="" fill="none" stroke="#000000" stroke-width="1" stroke-linecap="round"/><path d="M194.39443,203.31789l-0.21096,3.45261" fill="none" stroke="#000000" stroke-width="1" stroke-linecap="round"/><path d="M183.26311,192.53538c0.06812,-1.04185 0.96792,-1.83122 2.00978,-1.76311c1.04185,0.06812 1.83122,0.96792 1.76311,2.00977c-0.06811,1.04185 -0.96793,1.83124 -2.00978,1.76312c-1.04185,-0.06812 -1.83122,-0.96793 -1.7631,-2.00978z" fill="none" stroke="#ffffff" stroke-width="1" stroke-linecap="butt"/></g><g><path d="M175.15267,228.57682c0,0 12.63221,-13.84622 17.83146,-15.85569c7.34574,-2.83908 24.89674,3.77499 24.89674,3.77499c0,0 -13.06268,11.3856 -17.83536,14.26515c-4.77268,2.87955 -24.89285,-2.18445 -24.89285,-2.18445z" fill="#000000" stroke="none" stroke-width="0" stroke-linecap="butt"/><path d="M181.62834,242.53135l0.11305,-13.66428" fill="none" stroke="#000000" stroke-width="1" stroke-linecap="round"/><path d="M186.24915,229.5878l0.22716,3.36505" fill="none" stroke="#000000" stroke-width="1" stroke-linecap="round"/><path d="" fill="none" stroke="#000000" stroke-width="1" stroke-linecap="round"/><path d="M208.8936,222.6504l0.62747,3.89175" fill="none" stroke="#000000" stroke-width="1" stroke-linecap="round"/><path d="M182.44778,227.11916c-0.53937,-0.89397 -0.25191,-2.05592 0.64206,-2.59528c0.89397,-0.53937 2.05592,-0.25192 2.59529,0.64206c0.53937,0.89397 0.25191,2.05593 -0.64206,2.5953c-0.89397,0.53937 -2.05592,0.2519 -2.59528,-0.64207z" fill="none" stroke="#ffffff" stroke-width="1" stroke-linecap="butt"/></g><g><path d="M206.75005,307.50005l15.14285,-131.8421l37.78325,-0.15789l13.57389,132z" fill="url(#color-4)" stroke="#000000" stroke-width="0" stroke-linecap="butt"/><path d="M211.85284,263.0723c2.78578,-24.25449 10.04006,-87.41435 10.04006,-87.41435l37.78325,-0.15789c0,0 6.61373,64.31555 9.11464,88.63585c0.10917,1.0617 -14.40378,-4.06526 -28.80287,-4.33219c-14.1849,-0.26295 -28.2593,4.35014 -28.13508,3.26858z" fill-opacity="0.14012" fill="#0c070c" stroke="#000000" stroke-width="0" stroke-linecap="butt"/><path d="M217.07677,217.58987c2.51065,-21.85917 4.81613,-41.9319 4.81613,-41.9319l37.78325,-0.15789c0,0 1.98225,19.27649 4.18669,40.71367c0.24136,2.34717 -11.32567,7.51272 -23.01786,7.90066c-11.96137,0.39687 -24.05372,-4.03865 -23.7682,-6.52454z" fill="url(#color-5)" stroke="#000000" stroke-width="0" stroke-linecap="butt"/><path d="M215.00769,252.05266l-5.73698,52.07414" fill="none" stroke="#ffffff" stroke-width="1" stroke-linecap="round"/><path d="M270.43333,303.31577l-5.29568,-51.19153" fill="none" stroke="#ffffff" stroke-width="1" stroke-linecap="round"/></g><g><path d="M172.74297,139.25955c-1.3068,-33.2762 26.37158,-61.38045 61.82137,-62.77261c35.4498,-1.39216 65.24691,24.45497 66.55372,57.73116c1.3068,33.2762 -26.37158,61.38045 -61.82137,62.77261c-35.4498,1.39216 -65.24691,-24.45497 -66.55372,-57.73116z" fill="url(#color-6)" stroke="#000000" stroke-width="0" stroke-linecap="butt"/><path d="M227.7677,147.89557l-0.52029,-13.24868l17.78113,-0.69829l0.52029,13.24868z" fill="#29353c" stroke="none" stroke-width="0" stroke-linecap="butt"/><path d="M175.07556,150.96241c0,0 -2.51036,-4.05503 -2.34434,-14.12999c0.37149,-22.54464 10.96471,-59.2748 63.13824,-60.29715c44.83195,-0.82602 60.3472,28.09785 64.12686,50.31319c2.38968,14.04562 0.33907,21.15646 0.33907,21.15646c0,0 -23.25101,6.49915 -61.60279,8.3433c-34.35646,1.65203 -63.65703,-5.3858 -63.65703,-5.3858z" fill-opacity="0.20144" fill="#000000" stroke="none" stroke-width="0" stroke-linecap="butt"/><path d="M187.38725,143.55981c-0.50888,-12.95801 9.58315,-23.87509 22.54116,-24.38397c12.95801,-0.50888 23.87509,9.58315 24.38397,22.54116c0.50888,12.95801 -9.58315,23.87509 -22.54116,24.38397c-12.95801,0.50888 -23.87509,-9.58315 -24.38397,-22.54116z" fill="#5a5e6b" stroke="#000000" stroke-width="0" stroke-linecap="butt"/><path d="M265.03713,163.05547c-12.95801,0.50888 -23.87509,-9.58315 -24.38397,-22.54116c-0.50888,-12.95801 9.58315,-23.87509 22.54116,-24.38397c12.95801,-0.50888 23.87509,9.58315 24.38397,22.54116c0.50888,12.95801 -9.58315,23.87509 -22.54116,24.38397z" data-paper-data="{&quot;index&quot;:null}" fill="#5a5e6b" stroke="#000000" stroke-width="0" stroke-linecap="butt"/><path d="M187.25032,140.07332c-0.50888,-12.95801 9.58315,-23.87509 22.54116,-24.38397c12.95801,-0.50888 23.87509,9.58315 24.38397,22.54116c0.50888,12.95801 -9.58315,23.87509 -22.54116,24.38397c-12.95801,0.50888 -23.87509,-9.58315 -24.38397,-22.54116z" fill="url(#color-7)" stroke="#000000" stroke-width="0" stroke-linecap="butt"/><path d="M264.90021,159.56895c-12.95801,0.50888 -23.87509,-9.58315 -24.38397,-22.54116c-0.50888,-12.95801 9.58315,-23.87509 22.54116,-24.38397c12.95801,-0.50888 23.87509,9.58315 24.38397,22.54116c0.50888,12.95801 -9.58315,23.87509 -22.54116,24.38397z" data-paper-data="{&quot;index&quot;:null}" fill="#000004" stroke="#000000" stroke-width="0" stroke-linecap="butt"/><path d="M187.67747,134.57346c2.06089,-10.41422 11.04107,-18.44929 22.11402,-18.88414c8.93335,-0.35082 16.89668,4.33678 21.14835,11.52836c0.44936,0.76008 -10.29572,1.78302 -20.91563,3.50573c-11.25807,1.82623 -22.44004,4.32146 -22.34674,3.85005z" fill="#000000" stroke="#000000" stroke-width="0" stroke-linecap="butt"/><path d="M172.1747,136.31797c0,0 -0.02459,-10.60489 4.894,-22.5334c6.96461,-16.89054 23.28099,-36.95201 58.77973,-37.78478c55.919,-1.3118 64.66235,50.29215 64.66235,50.29215c0,0 -32.40778,-7.25296 -63.78868,-5.84255c-34.97868,1.57212 -64.5474,15.86857 -64.5474,15.86857z" fill-opacity="0.20144" fill="#000000" stroke="none" stroke-width="0" stroke-linecap="butt"/><path d="M241.71448,128.33821l-1.11468,-1.60861l-3.29966,0.12958l-3.13517,-3.33185" fill="none" stroke="#000000" stroke-width="1" stroke-linecap="round"/><path d="M237.31192,127.15915l-1.56149,2.31456" fill="none" stroke="#000000" stroke-width="1" stroke-linecap="round"/><path d="M251.02765,116.85645l0.85552,-4.99074l2.07307,-4.58791l1.07661,4.46421l1.45589,2.64672l15.96908,1.17547l0.67924,-1.82927l0.34983,-2.56742l0.84416,2.37031l-0.63212,3.02916l1.6734,0.53515l1.23206,-3.0527l2.13829,4.72295l2.69973,-0.10602l2.52893,-4.45559l3.95851,1.3467l-3.73785,0.44723l-1.2085,3.65266l-3.54075,1.64122l7.26134,5.12263l1.29686,-1.40287l4.99389,4.76102l-4.99389,-4.76102l-0.3086,3.61731l-1.46451,0.95881l-2.32549,13.46058l3.75552,0.00273l2.73823,4.69938l-6.04653,-0.96428l-2.64672,1.45589l1.23523,0.85278l0.42366,3.1379l7.16394,-1.18263l-6.8463,1.62082l2.45867,1.4056l0.41188,2.83793l-0.41777,-2.98792l-3.22036,-1.67613l-4.52311,-0.42323l-10.50758,4.01784l-0.72909,4.38491l3.86154,2.70246l-4.31737,-2.83478l-1.84967,2.62633l2.26471,4.11711l-2.29416,-4.86704l1.43506,-1.70874l-2.77041,-1.6938l-2.89957,2.66754l0.71185,2.82615l-0.68829,-2.22621l2.57014,-3.4057l-0.0589,-1.49984l-7.53459,-0.6054l-4.16108,4.97033l1.84062,-6.6818l-5.06731,-2.80533l-1.14098,1.54696l-3.89687,-3.60237l5.17922,5.65505l0.67062,1.77625l-1.65846,3.67033l-4.0496,0.15903l-0.5646,0.92347l0.70869,-1.07936l3.90551,-0.00316l1.79666,-3.97618l-5.98805,-7.12544l0.0793,-1.80571l1.59683,-1.41467l-1.76175,-2.78493l-0.82334,1.98515l-0.63802,2.87916l-2.65849,1.15592l-0.36749,2.11746l0.51748,-2.12336l2.8026,-1.3118l-0.33847,-4.79363l-3.36446,-1.52026l2.28785,-2.94396l-0.06479,-1.64984l-2.40565,-0.05574l0.15272,-3.76141l5.04059,-1.70012z" fill="#000000" stroke="#000000" stroke-width="1" stroke-linecap="round"/><path d="M219.13403,191.27618l-4.56045,19.55511l-0.72176,-18.37887l-3.73628,3.53753l-2.16254,-5.72787" fill="#14a8b5" stroke="#004c5d" stroke-width="0" stroke-linecap="round"/><path d="M281.12656,178.66925l-4.30471,13.73226l-1.36617,-10.11875l-2.3233,2.51324l-5.10109,18.12314l-2.46644,-13.46634" fill="#14a8b5" stroke="#004c5d" stroke-width="0" stroke-linecap="round"/><path d="M210.33983,195.24222l-1.14552,-2.80253" fill="none" stroke="#ffffff" stroke-width="1" stroke-linecap="round"/><path d="M217.65809,197.02574l-2.65498,11.4943l-0.78628,-13.43008" fill="none" stroke="url(#color-8)" stroke-width="1" stroke-linecap="round"/><path d="M270.24306,191.33656l-1.97094,9.13766l-1.76209,-9.61121" fill="none" stroke="url(#color-9)" stroke-width="1" stroke-linecap="round"/><path d="M279.26362,183.7341l-1.81397,6.54285" fill="none" stroke="#ffffff" stroke-width="1" stroke-linecap="round"/></g><path d="M187.01538,141.15575c-0.42178,-10.74014 7.94288,-19.78865 18.68301,-20.21043c10.74014,-0.42178 19.78865,7.9429 20.21043,18.68303c0.42178,10.74014 -7.9429,19.78865 -18.68303,20.21043c-10.74014,0.42178 -19.78863,-7.94291 -20.21041,-18.68303z" fill="#000000" stroke="none" stroke-width="0" stroke-linecap="butt"/><path d="M262.0898,136.18059c-0.04097,-1.04328 0.77156,-1.92222 1.81483,-1.96319c1.04328,-0.04097 1.92222,0.77156 1.96319,1.81483c0.04097,1.04328 -0.77155,1.92223 -1.81483,1.9632c-1.04328,0.04097 -1.92222,-0.77157 -1.96319,-1.81484z" fill="none" stroke="#ffffff" stroke-width="1" stroke-linecap="butt"/></g></g></svg>