<svg version="1.1" xmlns="http://www.w3.org/2000/svg" xmlns:xlink="http://www.w3.org/1999/xlink" width="173.11857" height="267.22501" viewBox="0,0,173.11857,267.22501"><g transform="translate(-174.83995,-46.38751)"><g data-paper-data="{&quot;isPaintingLayer&quot;:true}" fill-rule="nonzero" stroke-linejoin="miter" stroke-miterlimit="10" stroke-dasharray="" stroke-dashoffset="0" style="mix-blend-mode: normal"><path d="M179.28373,313.61252c0,0 0,-60.00062 0,-96.80001c0,-48.82807 0,-170.425 0,-170.425h123.18203v267.22501z" fill-opacity="0.01" fill="#000000" stroke="none" stroke-width="0" stroke-linecap="butt"/><path d="M206.75006,307.5l15.14285,-131.8421l37.78325,-0.15789l13.57389,132z" fill="#200680" stroke="#000000" stroke-width="2" stroke-linecap="butt"/><path d="M219.70027,204.11263l3.12142,-26.32765l35.83075,-0.14203l2.76735,26.1059c0,0 -7.51543,4.19603 -21.55904,4.50964c-12.48458,0.27879 -20.16049,-4.14586 -20.16049,-4.14586z" fill="#10033e" stroke="#000000" stroke-width="0" stroke-linecap="butt"/><path d="M175.83996,137.17949c0,-33.30185 28.7599,-60.29833 64.23702,-60.29833c35.47712,0 64.23702,26.99649 64.23702,60.29833c0,33.30185 -28.7599,60.29833 -64.23702,60.29833c-35.47712,0 -64.23702,-26.99649 -64.23702,-60.29833z" fill="#200680" stroke="#000000" stroke-width="2" stroke-linecap="butt"/><path d="M176.56302,136.9c0,-0.72799 5.20666,55.91939 63.36046,56.93429c55.56352,0.9697 63.51358,-57.95314 63.51358,-56.93429c0,32.80479 -28.40173,59.39833 -63.43702,59.39833c-35.03529,0 -63.43702,-26.59354 -63.43702,-59.39833z" fill="#10033e" stroke="#000000" stroke-width="0" stroke-linecap="butt"/><path d="M189.39019,137.27563c0,-12.968 10.51265,-23.48065 23.48065,-23.48065c12.968,0 23.48065,10.51265 23.48065,23.48065c0,12.968 -10.51265,23.48065 -23.48065,23.48065c-12.968,0 -23.48065,-10.51265 -23.48065,-23.48065z" fill="#ffffff" stroke="#000000" stroke-width="2" stroke-linecap="butt"/><path d="M196.45556,137c0,-9.12808 7.39976,-16.52784 16.52783,-16.52784c9.12808,0 16.52784,7.39977 16.52784,16.52784c0,9.12808 -7.39977,16.52784 -16.52784,16.52784c-9.12808,0 -16.52783,-7.39977 -16.52783,-16.52784z" fill="#000000" stroke="none" stroke-width="0" stroke-linecap="butt"/><path d="M252.61663,176.65643c0,0 -7.51387,2.04626 -11.51056,2.04626c-4.34417,0 -13.59903,-2.04626 -13.59903,-2.04626" fill="none" stroke="#000000" stroke-width="2" stroke-linecap="round"/><path d="M267.12926,160.75627c-12.968,0 -23.48065,-10.51265 -23.48065,-23.48065c0,-12.968 10.51265,-23.48065 23.48065,-23.48065c12.968,0 23.48065,10.51265 23.48065,23.48065c0,12.968 -10.51265,23.48065 -23.48065,23.48065z" data-paper-data="{&quot;index&quot;:null}" fill="#ffffff" stroke="#000000" stroke-width="2" stroke-linecap="butt"/><path d="M267.0167,153.52784c-9.12807,0 -16.52783,-7.39977 -16.52783,-16.52784c0,-9.12808 7.39977,-16.52784 16.52783,-16.52784c9.12807,0 16.52783,7.39977 16.52783,16.52784c0,9.12808 -7.39977,16.52784 -16.52783,16.52784z" data-paper-data="{&quot;index&quot;:null}" fill="#000000" stroke="none" stroke-width="0" stroke-linecap="butt"/><path d="M189.39019,137.27563c0,-12.968 10.51265,-23.48065 23.48065,-23.48065c12.968,0 23.48065,10.51265 23.48065,23.48065c0,0 -46.96131,0.59375 -46.96131,0z" fill="#200680" stroke="#000000" stroke-width="2" stroke-linecap="butt"/><path d="M243.64862,137.27563c0,-12.968 10.51265,-23.48065 23.48065,-23.48065c12.968,0 23.48065,10.51265 23.48065,23.48065c0,0.59207 -46.96131,0 -46.96131,0z" data-paper-data="{&quot;index&quot;:null}" fill="#200680" stroke="#000000" stroke-width="2" stroke-linecap="butt"/><path d="M202.02783,108.46716c0,0 6.70895,-5.16922 11.79722,-6.36355c5.08827,-1.19433 12.33413,0.69937 12.33413,0.69937c0,0 -8.03812,-0.06028 -11.96762,0.86207c-4.10648,0.96388 -12.16372,4.80211 -12.16372,4.80211z" fill="#000000" stroke="none" stroke-width="0" stroke-linecap="butt"/><path d="M265.96236,103.66506c-3.9295,-0.92235 -11.96762,-0.86207 -11.96762,-0.86207c0,0 7.24586,-1.8937 12.33413,-0.69937c5.08826,1.19433 11.79721,6.36355 11.79721,6.36355c0,0 -8.05724,-3.83822 -12.16372,-4.80211z" data-paper-data="{&quot;index&quot;:null}" fill="#000000" stroke="none" stroke-width="0" stroke-linecap="butt"/><path d="M346.95853,99.56023c0,5.08102 -56.41489,9.2 -92.7,9.2c-36.28511,0 -65.7,-4.11898 -65.7,-9.2c0,-5.08102 29.41489,-9.2 65.7,-9.2c36.28511,0 92.7,4.11898 92.7,9.2z" fill="#200680" stroke="#000000" stroke-width="2" stroke-linecap="butt"/><path d="M287.03058,90.7911c0,14.3105 -48.20362,9.15758 -77.92229,7.97737c-9.24732,-0.36723 -18.74976,-0.67223 -19.14977,-2.97737c-3.2511,-18.73566 21.88555,-39.43087 48.63603,-39.43087c26.75048,0 48.43603,15.41523 48.43603,34.43087z" fill="#200680" stroke="#000000" stroke-width="2" stroke-linecap="butt"/><path d="M259.57287,64.46899l-0.11597,12.76026l5.14397,-1.03671l-8.15134,19.48643l1.67398,-14.49929l-4.52443,1.39219z" fill="#ffec0d" stroke="none" stroke-width="0.5" stroke-linecap="butt"/></g></g></svg>