<svg version="1.1" xmlns="http://www.w3.org/2000/svg" xmlns:xlink="http://www.w3.org/1999/xlink" width="34.19151" height="34.17314" viewBox="0,0,34.19151,34.17314"><g transform="translate(-222.90425,-162.91344)"><g data-paper-data="{&quot;isPaintingLayer&quot;:true}" stroke="none" stroke-miterlimit="10" stroke-dasharray="" stroke-dashoffset="0" style="mix-blend-mode: normal"><path d="M229.97391,162.91347h20.03379c3.9166,0 7.06966,3.15307 7.06966,7.06966v20.03379c0,3.91659 -3.15306,7.06966 -7.06966,7.06966h-20.03379c-3.91659,0 -7.06966,-3.15307 -7.06966,-7.06966v-20.03379c0,-3.91659 3.15307,-7.06966 7.06966,-7.06966z" fill="#9966ff" fill-rule="evenodd" stroke-width="4.43922" stroke-linecap="round" stroke-linejoin="round"/><text transform="translate(224.43922,177.75004) scale(0.19501,0.19501)" font-size="40" xml:space="preserve" fill="#ffffff" fill-rule="nonzero" stroke="none" stroke-width="1" stroke-linecap="butt" stroke-linejoin="miter" stroke-miterlimit="10" stroke-dasharray="" stroke-dashoffset="0" font-family="Sans Serif" font-weight="normal" text-anchor="start" style="mix-blend-mode: normal"><tspan x="0" dy="0">PLACE</tspan><tspan x="0" dy="46.15px">HOLDER</tspan></text><path d="M229.99231,162.91344h20.03379c3.9166,0 7.06966,3.15307 7.06966,7.06966v20.03379c0,3.91659 -3.15306,7.06966 -7.06966,7.06966h-20.03379c-3.91659,0 -7.06966,-3.15307 -7.06966,-7.06966v-20.03379c0,-3.91659 3.15307,-7.06966 7.06966,-7.06966z" fill="#8d8d8d" fill-rule="evenodd" stroke-width="4.43922" stroke-linecap="round" stroke-linejoin="round"/><g fill-rule="nonzero" stroke-linecap="butt" stroke-linejoin="miter"><path d="M233.58435,186.24507c-0.85486,0.40155 -2.50473,-1.02439 -2.50473,-1.02439c0,0 -1.33487,0.87225 -2.01569,0.83061c-1.06303,-0.06502 -2.18573,-1.44352 -2.18573,-1.44352c0,0 -2.06281,1.23903 -2.55288,0.48648c-0.67895,-1.04258 -0.36606,-4.11121 -0.11874,-5.41407c0.6101,-3.21392 3.0794,-5.88575 6.42151,-5.68136c3.34211,0.20438 5.66438,4.57623 5.71286,5.90649c0.05318,1.45932 -1.16513,5.59221 -2.7566,6.33977z" data-paper-data="{&quot;index&quot;:null}" fill="#e1e1e1" stroke-width="0.5"/><path d="M233.33207,189.08154c-2.39726,-4.85966 -0.98835,-10.45287 3.14688,-12.49277c4.13523,-2.03991 9.43087,0.24595 11.82814,5.10562c2.39726,4.85966 0.98835,10.45287 -3.14688,12.49277c-4.13523,2.03991 -9.43087,-0.24595 -11.82814,-5.10561z" fill="#ececec" stroke-width="0.5"/><path d="M228.84467,173.38281c-0.27796,-4.30587 2.9873,-8.0218 7.29316,-8.29976c4.30587,-0.27796 8.0218,2.98729 8.29976,7.29316c0.27796,4.30587 -2.98729,8.0218 -7.29316,8.29977c-4.30587,0.27796 -8.0218,-2.9873 -8.29976,-7.29316z" fill="#f5f5f5" stroke-width="0.5"/><path d="M243.32503,179.60101c-0.12296,-1.32545 1.61792,-5.95959 4.90602,-6.59199c3.2881,-0.6324 6.08043,1.69977 7.09869,4.80857c0.41278,1.26025 1.11762,4.26317 0.57836,5.3844c-0.38925,0.80932 -2.59424,-0.1542 -2.59424,-0.1542c0,0 -0.93615,1.51142 -1.98198,1.71257c-0.66983,0.12882 -2.10576,-0.56455 -2.10576,-0.56455c0,0 -1.45283,1.62624 -2.35222,1.33793c-1.67438,-0.53673 -3.41396,-4.47867 -3.54886,-5.93272z" fill="#e1e1e1" stroke-width="0.5"/><path d="M229.77974,179.18053l0.06675,-2.91014c0,0 1.29456,-0.89382 2.60865,-0.59092c1.31409,0.30291 1.47404,1.79034 1.47404,1.79034z" fill="#d4d4d4" stroke-width="0"/><path d="M235.61625,174.07478c0,0 -0.33712,-0.52571 -0.85095,-0.61587c-0.51383,-0.09016 -1.0098,0.28937 -1.0098,0.28937c0,0 0.60086,-0.97733 1.11469,-0.88717c0.51383,0.09016 0.74606,1.21368 0.74606,1.21368z" fill="#000000" stroke-width="0"/><path d="M230.78519,173.87954c0,0 -0.31476,-0.49878 -0.70293,-0.55451c-0.38817,-0.05573 -0.70274,0.35271 -0.70274,0.35271c0,0 0.31445,-1.00754 0.70262,-0.95181c0.38817,0.05573 0.70305,1.15361 0.70305,1.15361z" fill="#000000" stroke-width="0"/></g></g></g></svg>