<svg version="1.1" xmlns="http://www.w3.org/2000/svg" xmlns:xlink="http://www.w3.org/1999/xlink" width="34.1731" height="34.1731" viewBox="0,0,34.1731,34.1731"><g transform="translate(-222.91345,-162.91345)"><g data-paper-data="{&quot;isPaintingLayer&quot;:true}" stroke-miterlimit="10" stroke-dasharray="" stroke-dashoffset="0" style="mix-blend-mode: normal"><path d="M229.98315,162.91345h20.0337c3.9166,0 7.0697,3.1531 7.0697,7.0697v20.0338c0,3.9165 -3.1531,7.0696 -7.0697,7.0696h-20.0337c-3.9166,0 -7.0697,-3.1531 -7.0697,-7.0696v-20.0338c0,-3.9166 3.1531,-7.0697 7.0697,-7.0697z" fill-opacity="0.09677" fill="#191919" fill-rule="evenodd" stroke="none" stroke-width="4.43922" stroke-linecap="round" stroke-linejoin="round"/><path d="M227.07264,165.32517c0,0 4.47583,3.97828 6.42801,6.50766c2.17758,2.82142 6.03531,9.64066 6.03531,9.64066c0,0 -2.25218,-0.28343 -5.20746,1.99591c-3.72216,2.87082 -8.40974,8.45784 -9.43462,8.65018c0,0 1.30482,-5.97911 1.58383,-9.41035c0.4016,-4.93889 0.59493,-17.38404 0.59493,-17.38404z" data-paper-data="{&quot;index&quot;:null}" fill="#ababab" fill-rule="nonzero" stroke="#000000" stroke-width="0.5" stroke-linecap="butt" stroke-linejoin="miter"/><path d="M253.16159,165.29439c0,0 0.19332,12.44516 0.59492,17.38405c0.27901,3.43125 1.58383,9.41036 1.58383,9.41036c-1.21325,-0.2277 -7.0306,-6.5804 -10.9634,-9.65796c-2.02708,-1.58626 -3.67867,-0.98813 -3.67867,-0.98813c0,0 3.85773,-6.81925 6.03531,-9.64067c1.95218,-2.52938 6.42801,-6.50766 6.42801,-6.50766z" data-paper-data="{&quot;index&quot;:null}" fill="#ababab" fill-rule="nonzero" stroke="#000000" stroke-width="0.5" stroke-linecap="butt" stroke-linejoin="miter"/><path d="M227.20269,168.70022c0,0 2.84327,4.10256 4.04334,6.6801c1.33863,2.87512 3.16346,7.7044 3.16346,7.7044c0,0 -8.62906,9.0423 -9.89682,9.32118c0,0 1.04613,-3.0795 1.40889,-6.47491c0.52215,-4.8873 1.28115,-17.23076 1.28115,-17.23076z" data-paper-data="{&quot;index&quot;:null}" fill="#868686" fill-rule="nonzero" stroke="#000000" stroke-width="0.5" stroke-linecap="butt" stroke-linejoin="miter"/><path d="M252.95126,168.13108c0,0 0.47051,12.35799 0.90442,17.25582c0.30146,3.40273 1.37383,6.41911 1.37383,6.41911c-1.40786,-0.30614 -10.77203,-9.53293 -10.77203,-9.53293c0,0 2.18867,-4.70408 3.77216,-7.54996c1.41958,-2.55131 4.72163,-6.59205 4.72163,-6.59205z" data-paper-data="{&quot;index&quot;:null}" fill="#868686" fill-rule="nonzero" stroke="#000000" stroke-width="0.5" stroke-linecap="butt" stroke-linejoin="miter"/></g></g></svg>