<svg version="1.1" xmlns="http://www.w3.org/2000/svg" xmlns:xlink="http://www.w3.org/1999/xlink" width="128.46138" height="267.22501" viewBox="0,0,128.46138,267.22501"><defs><linearGradient x1="235.69233" y1="140.56909" x2="235.69233" y2="191.39235" gradientUnits="userSpaceOnUse" id="color-1"><stop offset="0" stop-color="#000000"/><stop offset="1" stop-color="#9e773c"/></linearGradient><linearGradient x1="240.00002" y1="190.53315" x2="240.00002" y2="198.19982" gradientUnits="userSpaceOnUse" id="color-2"><stop offset="0" stop-color="#000000"/><stop offset="1" stop-color="#6b6a7e"/></linearGradient><linearGradient x1="235.61539" y1="166.22469" x2="235.61539" y2="191.26253" gradientUnits="userSpaceOnUse" id="color-3"><stop offset="0" stop-color="#000000"/><stop offset="1" stop-color="#a17a3c"/></linearGradient><linearGradient x1="235.61539" y1="166.22469" x2="235.61539" y2="191.26253" gradientUnits="userSpaceOnUse" id="color-4"><stop offset="0" stop-color="#000000"/><stop offset="1" stop-color="#a17a3c"/></linearGradient><linearGradient x1="235.61539" y1="166.22469" x2="235.61539" y2="191.26253" gradientUnits="userSpaceOnUse" id="color-5"><stop offset="0" stop-color="#000000"/><stop offset="1" stop-color="#a17a3c"/></linearGradient><linearGradient x1="235.61539" y1="166.22469" x2="235.61539" y2="191.26253" gradientUnits="userSpaceOnUse" id="color-6"><stop offset="0" stop-color="#000000"/><stop offset="1" stop-color="#a17a3c"/></linearGradient><linearGradient x1="235.61539" y1="166.22469" x2="235.61539" y2="191.26253" gradientUnits="userSpaceOnUse" id="color-7"><stop offset="0" stop-color="#000000"/><stop offset="1" stop-color="#a17a3c"/></linearGradient><linearGradient x1="261.90013" y1="115.5003" x2="261.90013" y2="166.32356" gradientUnits="userSpaceOnUse" id="color-8"><stop offset="0" stop-color="#1a1a1a"/><stop offset="1" stop-color="#4d4d4d"/></linearGradient><linearGradient x1="207.88896" y1="115.46966" x2="207.88896" y2="166.29292" gradientUnits="userSpaceOnUse" id="color-9"><stop offset="0" stop-color="#1a1a1a"/><stop offset="1" stop-color="#4d4d4d"/></linearGradient><linearGradient x1="240.00007" y1="204.50001" x2="240.00007" y2="307.50001" gradientUnits="userSpaceOnUse" id="color-10"><stop offset="0" stop-color="#967b3d"/><stop offset="1" stop-color="#000000"/></linearGradient><linearGradient x1="241.1732" y1="200.66668" x2="241.1732" y2="208.33335" gradientUnits="userSpaceOnUse" id="color-11"><stop offset="0" stop-color="#000000"/><stop offset="1" stop-color="#6a687c"/></linearGradient><linearGradient x1="240.01294" y1="274.33333" x2="240.01294" y2="286.33905" gradientUnits="userSpaceOnUse" id="color-12"><stop offset="0" stop-color="#7a5a15"/><stop offset="1" stop-color="#000000"/></linearGradient><radialGradient cx="236.54831" cy="243.53075" r="18.99645" gradientUnits="userSpaceOnUse" id="color-13"><stop offset="0" stop-color="#b4c6fe"/><stop offset="1" stop-color="#6993fe"/></radialGradient><linearGradient x1="240.71665" y1="231.95071" x2="240.71665" y2="269.94359" gradientUnits="userSpaceOnUse" id="color-14"><stop offset="0" stop-color="#000000" stop-opacity="0.5"/><stop offset="1" stop-color="#000000"/></linearGradient></defs><g transform="translate(-174.00442,-46.38751)"><g data-paper-data="{&quot;isPaintingLayer&quot;:true}" fill-rule="nonzero" stroke-linejoin="miter" stroke-miterlimit="10" stroke-dasharray="" stroke-dashoffset="0" style="mix-blend-mode: normal"><path d="M179.28378,313.61252v-267.22501h123.18203v267.22501zM201.46241,192.4994c1.38071,0 2.5,-1.11929 2.5,-2.5c0,-1.38071 -1.11929,-2.5 -2.5,-2.5c-1.38071,0 -2.5,1.11929 -2.5,2.5c0,1.38071 1.11929,2.5 2.5,2.5z" fill-opacity="0.01" fill="#000000" stroke="none" stroke-width="0" stroke-linecap="butt"/><path d="M185.39042,150.1747c6.15369,-3.06064 -1.72007,8.9134 24.09226,10.52414c14.98537,-2.94958 14.9355,-4.8702 18.49924,-8.14786c3.39745,-3.12472 5.96699,-10.53188 6.0104,-10.53188c25.00595,0 48.37471,4.20229 58.98751,12.45338c0.15255,1.23456 1.20517,2.19027 2.481,2.19027c0.0042,0 0.0084,-0.00001 0.0126,-0.00003c0.87542,0.87822 1.63076,1.78036 2.258,2.70326c-0.93484,0.36189 -1.59777,1.26964 -1.59777,2.33224c0,1.20466 0.85206,2.21032 1.98638,2.44719c-0.00223,0.0433 -0.00336,0.08689 -0.00336,0.13074c0,0.45302 0.1205,0.8779 0.33119,1.24434c-1.67525,0.80773 -2.83119,2.52208 -2.83119,4.50642c0,0.71344 0.14943,1.39198 0.41868,2.00603c-1.97321,0.6692 -3.39321,2.53689 -3.39321,4.73623c0,0.00187 0,0.00374 0,0.00561c-0.10629,0.06033 -0.20772,0.12821 -0.30356,0.20294c-0.36554,-0.20929 -0.789,-0.32893 -1.2404,-0.32893c-1.38071,0 -2.5,1.11929 -2.5,2.5c0,0.31564 0.05849,0.61762 0.16523,0.89568c-0.79247,0.11159 -1.46563,0.59474 -1.83763,1.26759c-6.28915,3.28385 -14.54935,5.94431 -24.08382,7.70576c-1.45515,-1.23743 -3.26918,-2.06552 -5.26409,-2.30623c-0.45679,-0.10983 -0.9313,-0.16219 -1.4249,-0.14807c-0.4262,0.0122 -0.84314,0.07973 -1.25417,0.18261c-1.3852,0.20386 -2.678,0.69173 -3.81735,1.40256l-1.51392,0.90835c-0.31217,0.31217 -0.65451,0.61144 -1.01897,0.9017c-1.73605,-1.45247 -3.97242,-2.32677 -6.41299,-2.32677c-2.21131,0 -4.25499,0.71775 -5.91075,1.933c-0.56627,0.41562 -1.08718,0.88942 -1.5539,1.41261c-0.07828,0.04029 -0.15776,0.07445 -0.23859,0.10139c-0.26881,0.08961 -0.53511,0.18998 -0.7982,0.30059c-10.91076,-0.13585 -21.13536,-1.34806 -30.01777,-3.3771c0.08311,-0.24895 0.12814,-0.51534 0.12814,-0.79225c0,-1.38071 -1.11929,-2.5 -2.5,-2.5c-0.47012,0 -0.90994,0.12977 -1.28558,0.35543c-0.42247,-0.32659 -0.95238,-0.52092 -1.52768,-0.52092c-0.99016,0 -1.84588,0.57563 -2.25075,1.41051c-0.32119,-1.00987 -1.26658,-1.74148 -2.38286,-1.74148c-0.56439,0 -1.0851,0.18702 -1.50353,0.50248c-1.95025,-0.70734 -3.78972,-1.4617 -5.50693,-2.25855c0.25843,-0.39355 0.40876,-0.86444 0.40876,-1.37044c0,-1.2029 -0.84955,-2.20737 -1.98139,-2.44614c0.00879,-0.12123 0.01327,-0.24365 0.01327,-0.36712c0,-1.50985 -0.66923,-2.8634 -1.72724,-3.78019c0.03582,-0.1685 0.05467,-0.34327 0.05467,-0.52244c0,-1.38071 -1.11929,-2.5 -2.5,-2.5c-0.11474,0 -0.22768,0.00773 -0.33832,0.0227c-0.29182,-2.22351 -2.04463,-3.98707 -4.26296,-4.29523c0.00206,-0.05903 0.00311,-0.11833 0.00311,-0.17787c0,-1.83109 -0.9843,-3.43229 -2.45265,-4.30335c0.13317,-0.25443 0.22382,-0.53463 0.2625,-0.83116c0.10939,0.01462 0.221,0.02217 0.33438,0.02217c1.38071,0 2.5,-1.11929 2.5,-2.5c0,-1.06096 -0.66089,-1.96756 -1.59346,-2.33057c2.37744,-2.51406 5.73265,-4.83932 9.88257,-6.90335z" fill="url(#color-1)" stroke="#000000" stroke-width="0" stroke-linecap="butt"/><path d="M230.16668,198.19982v-7.66667h19.66667v7.66667z" fill="url(#color-2)" stroke="#000000" stroke-width="0" stroke-linecap="butt"/><path d="M295.74974,171.40436c0.06975,0.29615 0.16584,0.58214 0.28564,0.85536c-1.97321,0.6692 -3.39321,2.53689 -3.39321,4.73623c0,0.00187 0,0.00374 0,0.00561c-0.10629,0.06033 -0.20772,0.12821 -0.30356,0.20294c-0.36554,-0.20929 -0.789,-0.32893 -1.2404,-0.32893c-1.38071,0 -2.5,1.11929 -2.5,2.5c0,0.20138 0.02381,0.3972 0.06877,0.58479c-6.4387,3.86596 -15.51822,6.98598 -26.22609,8.96051c-0.32407,-0.24811 -0.66376,-0.47684 -1.01734,-0.68446c20.32427,-3.66005 29.96793,-11.56059 34.3262,-16.83205z" fill="url(#color-3)" stroke="#000000" stroke-width="0" stroke-linecap="butt"/><path d="M248.12908,189.85314c0.30087,-0.02095 0.6,-0.04273 0.8974,-0.06532c-0.15433,0.13464 -0.31387,0.26709 -0.47789,0.39772c-0.13678,-0.11443 -0.27667,-0.22529 -0.41951,-0.3324z" fill="url(#color-4)" stroke="#000000" stroke-width="0" stroke-linecap="butt"/><path d="M235.53883,190.22411c0.04564,0.00034 0.09124,0.00065 0.13681,0.00096c-0.35731,0.30267 -0.69309,0.62998 -1.00471,0.9793c-0.0384,0.01977 -0.07708,0.03805 -0.11607,0.05473c-11.23496,-0.07267 -21.75964,-1.29784 -30.84774,-3.38894c0.02457,-0.14069 0.03739,-0.28543 0.03739,-0.43316c0,-0.18632 -0.02038,-0.36787 -0.05904,-0.54256c8.2831,1.9402 18.71748,3.23306 31.85336,3.32967z" fill="url(#color-5)" stroke="#000000" stroke-width="0" stroke-linecap="butt"/><path d="M186.99062,182.30784c0.1321,-0.3046 0.20533,-0.64065 0.20533,-0.99381c0,-0.09493 -0.00529,-0.18863 -0.0156,-0.28081c2.7914,1.4466 6.09266,2.83561 9.99459,4.07641c-0.33251,0.19365 -0.61629,0.46181 -0.82844,0.78161c-0.11025,-0.03433 -0.22022,-0.06881 -0.32988,-0.10343c-0.41673,-0.80057 -1.25401,-1.34727 -2.21896,-1.34727c-0.38039,0 -0.74094,0.08496 -1.0637,0.23693c-2.04211,-0.73954 -3.96106,-1.5312 -5.74334,-2.36963z" fill="url(#color-6)" stroke="#000000" stroke-width="0" stroke-linecap="butt"/><path d="" fill="url(#color-7)" stroke="#000000" stroke-width="0" stroke-linecap="butt"/><g stroke="#000000" stroke-width="0" stroke-linecap="butt"><path d="M235.80567,140.91193c0,-14.03446 11.68289,-25.41163 26.09447,-25.41163c14.41158,0 26.09447,11.37717 26.09447,25.41163c0,14.03446 -11.68289,25.41163 -26.09447,25.41163c-14.41158,0 -26.09447,-11.37717 -26.09447,-25.41163z" fill="url(#color-8)"/><path d="M181.79448,140.88129c0,-14.03446 -0.4769,15.66873 25.76582,15.99737c32.15578,0.40269 26.42311,-30.03183 26.42311,-15.99737c0,14.03446 -11.68289,25.41163 -26.09447,25.41163c-14.41158,0 -26.09447,-11.37717 -26.09447,-25.41163z" fill="url(#color-9)"/></g><path d="M206.75009,307.5l14.14285,-102.8421l39.28325,-0.15789l13.07389,103zM240.62501,276c13.80712,0 25,-11.19288 25,-25c0,-13.80712 -11.19288,-25 -25,-25c-13.80712,0 -25,11.19288 -25,25c0,13.80712 11.19288,25 25,25z" fill="url(#color-10)" stroke="#000000" stroke-width="0" stroke-linecap="butt"/><path d="M261.94683,160.01422c-12.968,0 -23.48065,-10.51265 -23.48065,-23.48065c0,-12.968 10.51265,-23.48065 23.48065,-23.48065c12.968,0 23.48065,10.51265 23.48065,23.48065c0,12.968 -10.51265,23.48065 -23.48065,23.48065z" data-paper-data="{&quot;index&quot;:null}" fill="#808080" stroke="#000000" stroke-width="0" stroke-linecap="butt"/><path d="M253.18601,154.30411c-5.4308,0 -9.83334,-4.40254 -9.83334,-9.83335c0,-5.43081 4.40254,-9.83335 9.83334,-9.83335c5.4308,0 9.83334,4.40254 9.83334,9.83335c0,5.43081 -4.40254,9.83335 -9.83334,9.83335z" data-paper-data="{&quot;index&quot;:null}" fill="#000000" stroke="none" stroke-width="0" stroke-linecap="butt"/><path d="M260.77991,102.92301c-3.9295,-0.92235 -11.96762,-0.86207 -11.96762,-0.86207c0,0 7.24586,-1.8937 12.33413,-0.69937c5.08826,1.19433 11.79721,6.36355 11.79721,6.36355c0,0 -8.05724,-3.83822 -12.16372,-4.80211z" data-paper-data="{&quot;index&quot;:null}" fill="#008080" stroke="#000000" stroke-width="0" stroke-linecap="butt"/><path d="M261.38118,207.00001c0,3.31371 -9.21547,6 -20.58334,6c-11.36786,0 -20.58333,-2.68629 -20.58333,-6c0,-3.31371 9.21547,-6 20.58333,-6c11.36786,0 20.58334,2.68629 20.58334,6z" fill="#6d4726" stroke="#000000" stroke-width="0" stroke-linecap="butt"/><path d="M231.33986,208.33335v-7.66667h19.66667v7.66667z" fill="url(#color-11)" stroke="#000000" stroke-width="0" stroke-linecap="butt"/><path d="M218.50001,226.66667l21.66666,-9.33333l22,9.66666" fill="none" stroke="#797979" stroke-width="2" stroke-linecap="round"/><path d="M267.12931,274.33333l-27.32338,12.00572l-26.90938,-11.59173" data-paper-data="{&quot;index&quot;:null}" fill="none" stroke="url(#color-12)" stroke-width="2" stroke-linecap="round"/><path d="M238.49269,136.34713c0,-12.96801 10.51264,-23.48065 23.48065,-23.48065c12.96801,0 23.48066,10.51264 23.48066,23.48065c0,0.60606 -7.37231,-15.02482 -22.92496,-15.131c-15.95251,-0.10891 -24.03635,15.131 -24.03635,15.131z" data-paper-data="{&quot;index&quot;:null}" fill="#aa4e39" stroke="#000000" stroke-width="0" stroke-linecap="butt"/><g stroke="none" stroke-width="0" stroke-linecap="butt"><path d="M221.72021,250.94713c0,-9.36523 6.77703,-17.14757 15.6945,-18.71047c0.83057,1.21892 2.22988,2.0193 3.81612,2.0193c0.54592,0 1.0697,-0.0948 1.55578,-0.26884c1.554,2.90615 4.61807,4.88336 8.14394,4.88336c0.33955,0 0.67483,-0.01835 1.00489,-0.05407c0.66956,1.72233 2.34347,2.94312 4.30251,2.94312c0.35884,0 0.70812,-0.04095 1.04342,-0.11845c1.54842,2.75027 2.43172,5.92503 2.43172,9.30608c0,10.49144 -8.50499,18.99645 -18.99645,18.99645c-4.57606,0 -8.77423,-1.61804 -12.05355,-4.31321c0.03336,-0.15615 0.05091,-0.31817 0.05091,-0.48429c0,-1.27426 -1.033,-2.30726 -2.30726,-2.30726c-0.15992,0 -0.31604,0.01627 -0.46681,0.04725c-2.63906,-3.26227 -4.21972,-7.416 -4.21972,-11.93892z" fill="url(#color-13)"/><path d="M221.72021,250.94713c0,-9.36523 6.77703,-17.14757 15.6945,-18.71047c0.83057,1.21892 2.22988,2.0193 3.81612,2.0193c0.54592,0 1.0697,-0.0948 1.55578,-0.26884c1.554,2.90615 4.61807,4.88336 8.14394,4.88336c0.33955,0 0.67483,-0.01835 1.00489,-0.05407c0.66956,1.72233 2.34347,2.94312 4.30251,2.94312c0.35884,0 0.70812,-0.04095 1.04342,-0.11845c1.54842,2.75027 2.43172,5.92503 2.43172,9.30608c0,10.49144 -8.50499,18.99645 -18.99645,18.99645c-4.57606,0 -8.77423,-1.61804 -12.05355,-4.31321c0.03336,-0.15615 0.05091,-0.31817 0.05091,-0.48429c0,-1.27426 -1.033,-2.30726 -2.30726,-2.30726c-0.15992,0 -0.31604,0.01627 -0.46681,0.04725c-2.63906,-3.26227 -4.21972,-7.416 -4.21972,-11.93892z" fill="url(#color-14)"/></g><path d="M250.48921,176.93609h-28.52612c0,0 9.00018,-6.75872 15.32858,-6.75872c6.3284,0 13.19755,6.75872 13.19755,6.75872z" data-paper-data="{&quot;index&quot;:null}" fill="#000000" stroke="#000000" stroke-width="2" stroke-linecap="round"/></g></g></svg>