<svg version="1.1" xmlns="http://www.w3.org/2000/svg" xmlns:xlink="http://www.w3.org/1999/xlink" width="34.17311" height="34.17311" viewBox="0,0,34.17311,34.17311"><defs><linearGradient x1="240" y1="162.91345" x2="240" y2="197.08656" gradientUnits="userSpaceOnUse" id="color-1"><stop offset="0" stop-color="#ff0000"/><stop offset="1" stop-color="#ff2d2d"/></linearGradient><linearGradient x1="240.35393" y1="171.68416" x2="240.35393" y2="189.84818" gradientUnits="userSpaceOnUse" id="color-2"><stop offset="0" stop-color="#ff0000"/><stop offset="1" stop-color="#ff2d2d"/></linearGradient><linearGradient x1="238.18851" y1="166.7465" x2="238.18851" y2="172.56481" gradientUnits="userSpaceOnUse" id="color-3"><stop offset="0" stop-color="#ff0000"/><stop offset="1" stop-color="#ff2d2d"/></linearGradient></defs><g transform="translate(-222.91344,-162.91344)"><g data-paper-data="{&quot;isPaintingLayer&quot;:true}" stroke-linecap="round" stroke-miterlimit="10" stroke-dasharray="" stroke-dashoffset="0" style="mix-blend-mode: normal"><path d="M229.98311,162.91345h20.03379c3.9166,0 7.06966,3.15307 7.06966,7.06966v20.03379c0,3.91659 -3.15306,7.06966 -7.06966,7.06966h-20.03379c-3.91659,0 -7.06966,-3.15307 -7.06966,-7.06966v-20.03379c0,-3.91659 3.15307,-7.06966 7.06966,-7.06966z" fill="url(#color-1)" fill-rule="evenodd" stroke="#ff8c00" stroke-width="0" stroke-linejoin="round"/><path d="M243.05735,171.69908c1.17477,0.08955 2.78706,0.64742 3.88607,1.07809c0.72888,0.28563 1.232,0.5153 1.232,0.5153c0,0 2.25201,1.6371 2.95681,2.74194c0.74998,1.17565 1.41598,4.11271 1.41598,4.11271c0,0 0.44049,2.92398 1.0396,3.9756c0.63336,1.11174 1.63615,2.18206 1.63615,2.18206c0,0 0.88721,1.80092 -0.6768,3.09682c-0.83116,0.68868 -27.05461,0.38575 -29.02228,0.34737c1.0254,-1.51015 2.71693,-2.29974 2.71693,-2.29974c0,0 -1.37075,-0.17983 -2.1301,-1.02209c-1.19379,-1.32412 -0.82449,-2.79917 -0.82449,-2.79917c0,0 1.04716,0.14182 1.92229,-0.58447c0.07668,-0.06364 0.58869,-0.19013 0.8397,-1.62087c0.36122,-2.05898 -0.22069,-5.13677 2.22865,-7.41571c2.87892,-2.67865 8.12774,-1.26596 8.12774,-1.26596c0,0 2.53149,-1.20348 4.65176,-1.04187z" fill="url(#color-2)" fill-rule="nonzero" stroke="#000000" stroke-width="0.5" stroke-linejoin="miter"/><path d="M237.77087,172.56478c0,0 -0.67106,0.02966 -1.7063,-1.91221c-0.57073,-1.07056 0.16992,-3.72121 0.16992,-3.72121c0,0 1.39694,-0.31895 2.37288,-0.11896c0.73363,0.15033 1.92111,1.10382 1.92111,1.10382c0,0 -1.35891,1.73219 -1.73596,2.55611c-0.32396,0.70792 -0.39135,2.09244 -0.39135,2.09244z" fill="url(#color-3)" fill-rule="nonzero" stroke="#000000" stroke-width="0.5" stroke-linejoin="miter"/><path d="M238.44215,172.44343c0,0 0.60348,-1.54293 1.29786,-2.30842c0.69439,-0.7655 1.37937,-0.643 1.37937,-0.643" fill="none" fill-rule="nonzero" stroke="#000000" stroke-width="0.5" stroke-linejoin="miter"/></g></g></svg>