<svg version="1.1" xmlns="http://www.w3.org/2000/svg" xmlns:xlink="http://www.w3.org/1999/xlink" width="298.70552" height="251.2316" viewBox="0,0,298.70552,251.2316"><defs><linearGradient x1="261.02682" y1="187.02616" x2="283.47319" y2="298.47391" gradientUnits="userSpaceOnUse" id="color-1"><stop offset="0" stop-color="#4d2a0f"/><stop offset="1" stop-color="#1a0b00"/></linearGradient><linearGradient x1="240.00006" y1="175.50007" x2="240.00006" y2="307.50005" gradientUnits="userSpaceOnUse" id="color-2"><stop offset="0" stop-color="#1a0000"/><stop offset="1" stop-color="#800000"/></linearGradient><linearGradient x1="227.28068" y1="194.56312" x2="248.20662" y2="75.79587" gradientUnits="userSpaceOnUse" id="color-3"><stop offset="0" stop-color="#b50000"/><stop offset="1" stop-color="#200000"/></linearGradient></defs><g transform="translate(-49.00093,-58.40747)"><g data-paper-data="{&quot;isPaintingLayer&quot;:true}" fill-rule="nonzero" stroke-linejoin="miter" stroke-miterlimit="10" stroke-dasharray="" stroke-dashoffset="0" style="mix-blend-mode: normal"><path d="M272.58858,107.77483c3.85411,-7.27249 39.72619,-44.84984 39.72619,-44.84984c0,0 -10.95488,50.78241 -14.809,58.05491c-3.85412,7.2725 -12.55641,10.21198 -19.4371,6.5655c-6.88069,-3.64648 -9.33421,-12.49807 -5.4801,-19.77056z" fill="#330000" stroke="#000000" stroke-width="0" stroke-linecap="butt"/><path d="M181.86978,122.14094c-5.30037,-6.29678 -26.71263,-53.62941 -26.71263,-53.62941c0,0 42.98645,29.17238 48.28682,35.46917c5.30037,6.29679 4.76763,15.46666 -1.18992,20.48147c-5.95755,5.01481 -15.0839,3.97556 -20.38427,-2.32122z" fill="#330000" stroke="#000000" stroke-width="0" stroke-linecap="butt"/><path d="M64.78472,187.04528c0,0 -5.68521,3.14298 -8.33733,3.14298c-2.60841,0 -7.44645,-3.14298 -7.44645,-3.14298" fill="none" stroke="#000000" stroke-width="0" stroke-linecap="round"/><path d="M278.56568,299.43057l-22.44633,-111.44778l9.81502,-1.91326l22.44633,111.44778z" fill="url(#color-1)" stroke="#000000" stroke-width="0" stroke-linecap="butt"/><path d="M206.75007,307.50005l15.14285,-131.8421l37.78325,-0.15789l13.57389,132z" fill="url(#color-2)" stroke="#000000" stroke-width="0" stroke-linecap="butt"/><path d="M272.16668,190.92505c0,5.24211 -14.40151,9.49166 -32.16667,9.49166c-17.76516,0 -32.16666,-4.24956 -32.16666,-9.49166c0,-5.24211 14.4015,-9.49167 32.16666,-9.49167c17.76516,0 32.16667,4.24956 32.16667,9.49167z" fill="#1a0e05" stroke="none" stroke-width="0" stroke-linecap="butt"/><path d="M301.00622,146.32591c-5.77854,32.79667 -38.78659,54.3932 -73.72554,48.23721c-34.93894,-6.15599 -58.57813,-37.73338 -52.79959,-70.53004c5.77854,-32.79667 38.78659,-54.3932 73.72554,-48.23721c34.93894,6.15599 58.57813,37.73338 52.79959,70.53004z" fill="url(#color-3)" stroke="#000000" stroke-width="2" stroke-linecap="butt"/><path d="M211.47122,94.33856c-4.62552,1.9655 -9.48845,0.93908 -10.86166,-2.29257c-1.37321,-3.23165 -1.34013,-26.42253 -1.34013,-26.42253c0,0 16.71739,16.07317 18.0906,19.30482c1.37321,3.23165 -1.2633,7.44477 -5.88881,9.41027z" data-paper-data="{&quot;index&quot;:null}" fill="#330000" stroke="#000000" stroke-width="0" stroke-linecap="butt"/><path d="M188.89023,140.27567c0,-12.968 10.51265,-23.48065 23.48065,-23.48065c12.968,0 23.48065,10.51265 23.48065,23.48065c0,12.968 -10.51265,23.48065 -23.48065,23.48065c-12.968,0 -23.48065,-10.51265 -23.48065,-23.48065z" fill="#808080" stroke="#000000" stroke-width="0" stroke-linecap="butt"/><path d="M243.89023,138.77568c0,-12.968 10.51265,-23.48065 23.48065,-23.48065c12.968,0 23.48065,10.51265 23.48065,23.48065c0,12.968 -10.51265,23.48065 -23.48065,23.48065c-12.968,0 -23.48065,-10.51265 -23.48065,-23.48065z" fill="#808080" stroke="#000000" stroke-width="0" stroke-linecap="butt"/><path d="M249.9556,140.25c0,-9.12808 7.39976,-16.52784 16.52783,-16.52784c9.12808,0 16.52784,7.39977 16.52784,16.52784c0,9.12808 -7.39977,16.52784 -16.52784,16.52784c-9.12808,0 -16.52783,-7.39977 -16.52783,-16.52784z" fill="#000000" stroke="none" stroke-width="0" stroke-linecap="butt"/><path d="M197.45561,140.25c0,-9.12808 7.39976,-16.52784 16.52783,-16.52784c9.12808,0 16.52784,7.39977 16.52784,16.52784c0,9.12808 -7.39977,16.52784 -16.52784,16.52784c-9.12808,0 -16.52783,-7.39977 -16.52783,-16.52784z" fill="#000000" stroke="none" stroke-width="0" stroke-linecap="butt"/><path d="M225.22507,177.40928l30,-0.5" fill="none" stroke="#000000" stroke-width="1" stroke-linecap="round"/><path d="M238.21907,89.54234c-5.0153,0.32461 -9.26486,-2.25277 -9.49165,-5.75675c-0.22679,-3.50397 7.47645,-25.37812 7.47645,-25.37812c0,0 10.45876,20.69861 10.68555,24.20258c0.22679,3.50397 -3.65505,6.60766 -8.67034,6.93227z" data-paper-data="{&quot;index&quot;:null}" fill="#330000" stroke="#000000" stroke-width="0" stroke-linecap="butt"/><path d="M263.60427,93.15075c-4.79711,-1.49877 -7.83708,-5.43072 -6.78996,-8.78225c1.04712,-3.35154 16.09425,-20.99812 16.09425,-20.99812c0,0 2.32475,23.07408 1.27763,26.42562c-1.04712,3.35154 -5.78481,4.85351 -10.58192,3.35475z" data-paper-data="{&quot;index&quot;:null}" fill="#330000" stroke="#000000" stroke-width="0" stroke-linecap="butt"/><path d="M265.96236,103.66508c-3.9295,-0.92235 -11.96762,-0.86207 -11.96762,-0.86207c0,0 7.24586,-1.8937 12.33413,-0.69937c5.08826,1.19433 11.79721,6.36355 11.79721,6.36355c0,0 -8.05724,-3.83822 -12.16372,-4.80211z" data-paper-data="{&quot;index&quot;:null}" fill="#000000" stroke="none" stroke-width="0" stroke-linecap="butt"/><path d="M194.99475,107.96719c0,0 6.70895,-5.16922 11.79721,-6.36355c5.08827,-1.19433 12.33413,0.69937 12.33413,0.69937c0,0 -8.03812,-0.06028 -11.96762,0.86207c-4.10648,0.96389 -12.16372,4.80211 -12.16372,4.80211z" data-paper-data="{&quot;index&quot;:null}" fill="#000000" stroke="none" stroke-width="0" stroke-linecap="butt"/><path d="M120.70645,309.63907v-29h227v29z" fill="#949494" stroke="none" stroke-width="0" stroke-linecap="butt"/><text transform="translate(131.70645,301.63907) scale(0.5,0.5)" font-size="40" xml:space="preserve" fill="#000000" fill-rule="nonzero" stroke="none" stroke-width="1" stroke-linecap="butt" stroke-linejoin="miter" stroke-miterlimit="10" stroke-dasharray="" stroke-dashoffset="0" font-family="Sans Serif" font-weight="normal" text-anchor="start" style="mix-blend-mode: normal"><tspan x="0" dy="0">Original sprunki raddy</tspan></text></g></g></svg>