<svg version="1.1" xmlns="http://www.w3.org/2000/svg" xmlns:xlink="http://www.w3.org/1999/xlink" width="41.625" height="41.5" viewBox="0,0,41.625,41.5"><g transform="translate(-219.1875,-159.25)"><g data-paper-data="{&quot;isPaintingLayer&quot;:true}" stroke-miterlimit="10" stroke-dasharray="" stroke-dashoffset="0" style="mix-blend-mode: normal"><path d="M259.09524,180.00003c0,10.54601 -8.54924,19.09522 -19.09522,19.09522c-10.54601,0 -19.09522,-8.54922 -19.09522,-19.09522c0,-10.54601 8.54922,-19.09522 19.09522,-19.09522c10.54601,0 19.09522,8.54922 19.09522,19.09522" fill="#727272" fill-rule="evenodd" stroke="#ffffff" stroke-width="0" stroke-linecap="round" stroke-linejoin="round"/><path d="M219.1875,200.75v-41.5h41.625v41.5z" fill="none" fill-rule="nonzero" stroke="none" stroke-width="0" stroke-linecap="butt" stroke-linejoin="miter"/><path d="M225.12903,181.11959c0,0 0.53015,-3.79623 4.5706,-7.76161c3.96031,-3.88673 10.33262,-3.59323 10.33262,-3.59323c0,0 4.06454,0.1182 8.06382,2.4687c5.64718,3.31903 6.77489,8.30549 6.77489,8.30549c0,0 -1.52296,3.62607 -5.28981,6.48825c-4.50664,3.4243 -9.80697,3.18917 -9.80697,3.18917c0,0 -3.99879,0.49823 -9.14855,-3.0516c-4.15273,-2.86256 -5.49661,-6.04518 -5.49661,-6.04518z" fill="none" fill-rule="nonzero" stroke="#ffffff" stroke-width="2" stroke-linecap="round" stroke-linejoin="miter"/><path d="M245.48387,180c0,2.70798 -2.45521,4.90323 -5.48387,4.90323c-3.02866,0 -5.48387,-2.19525 -5.48387,-4.90323c0,-2.70798 2.45521,-4.90323 5.48387,-4.90323c3.02866,0 5.48387,2.19525 5.48387,4.90323z" fill="none" fill-rule="nonzero" stroke="#ffffff" stroke-width="2.5" stroke-linecap="butt" stroke-linejoin="miter"/></g></g></svg>