<svg version="1.1" xmlns="http://www.w3.org/2000/svg" xmlns:xlink="http://www.w3.org/1999/xlink" width="132.15896" height="267.22501" viewBox="0,0,132.15896,267.22501"><g transform="translate(-170.30682,-46.38751)"><g data-paper-data="{&quot;isPaintingLayer&quot;:true}" fill-rule="nonzero" stroke-linejoin="miter" stroke-miterlimit="10" stroke-dasharray="" stroke-dashoffset="0" style="mix-blend-mode: normal"><path d="M179.28375,313.61252v-267.22501h123.18203v267.22501z" fill-opacity="0.01" fill="#000000" stroke="none" stroke-width="0" stroke-linecap="butt"/><g stroke="#000000" stroke-linecap="butt"><path d="M206.75006,307.5l15.14285,-131.8421l37.78325,-0.15789l13.57389,132z" fill="#b2764d" stroke-width="2"/><path d="M219.70029,204.11263l3.12142,-26.32765l35.83075,-0.14203l2.76735,26.1059c0,0 -7.51543,4.19603 -21.55904,4.50964c-12.48458,0.27879 -20.16049,-4.14586 -20.16049,-4.14586z" fill="#a06138" stroke-width="0"/></g><path d="M171.5361,137.17949c0,-33.30185 28.7599,-60.29833 64.23702,-60.29833c35.47712,0 64.23702,26.99649 64.23702,60.29833c0,33.30185 -28.7599,60.29833 -64.23702,60.29833c-35.47712,0 -64.23702,-26.99649 -64.23702,-60.29833z" fill="#000000" stroke="#000000" stroke-width="2" stroke-linecap="butt"/><g><path d="M171.48716,137.17949c0,-33.30185 26.4543,-60.29833 59.08731,-60.29833c32.63301,0 59.08731,26.99649 59.08731,60.29833c0,33.30185 -26.4543,60.29833 -59.08731,60.29833c-32.63301,0 -59.08731,-26.99649 -59.08731,-60.29833z" fill="#b2764d" stroke="#000000" stroke-width="2" stroke-linecap="butt"/><path d="M172.15225,136.9c0,-0.72799 4.78926,55.91939 58.28103,56.93429c51.10914,0.9697 58.42187,-57.95314 58.42187,-56.93429c0,32.80479 -26.12484,59.39833 -58.35145,59.39833c-32.22661,0 -58.35145,-26.59354 -58.35145,-59.39833z" fill="#a06138" stroke="#000000" stroke-width="0" stroke-linecap="butt"/><path d="M196.60176,111.74865c0,0 4.43147,-1.34167 9.174,-2.35894c6.45119,-1.38379 9.90663,-0.13029 9.90663,-0.13029l2.67129,63.89022c0,0 -4.67013,1.65949 -7.25064,1.65949c-3.33141,0 -11.44838,-1.65949 -11.44838,-1.65949z" fill="none" stroke="#9d6138" stroke-width="2.5" stroke-linecap="round"/><path d="M256.88621,108.08209c5.10237,0.52304 6.49773,1.59221 6.49773,1.59221l-0.76323,61.81586c0,0 -6.03045,0.82975 -8.77708,0.82975c-2.42981,0 -6.86903,-0.82975 -6.86903,-0.82975l2.67129,-63.89022c0,0 3.82141,0.13168 7.24033,0.48215z" fill="none" stroke="#9d6138" stroke-width="2.5" stroke-linecap="round"/><path d="M195.57561,108.46716c0,0 6.17111,-5.16922 10.85147,-6.36355c4.68036,-1.19433 11.34534,0.69937 11.34534,0.69937c0,0 -7.39373,-0.06028 -11.00821,0.86207c-3.77728,0.96388 -11.18859,4.80211 -11.18859,4.80211z" fill="#000000" stroke="none" stroke-width="0" stroke-linecap="butt"/><path d="M254.3847,103.66506c-3.61448,-0.92235 -11.00821,-0.86207 -11.00821,-0.86207c0,0 6.66498,-1.8937 11.34534,-0.69937c4.68035,1.19433 10.85146,6.36355 10.85146,6.36355c0,0 -7.41131,-3.83822 -11.18859,-4.80211z" data-paper-data="{&quot;index&quot;:null}" fill="#000000" stroke="none" stroke-width="0" stroke-linecap="butt"/></g><path d="M183.95107,137.27563c0,-12.968 9.66988,-23.48065 21.59827,-23.48065c11.9284,0 21.59827,10.51265 21.59827,23.48065c0,12.968 -9.66988,23.48065 -21.59827,23.48065c-11.9284,0 -21.59827,-10.51265 -21.59827,-23.48065z" fill="#b2764d" stroke="#000000" stroke-width="2" stroke-linecap="butt"/><path d="M219.01223,176.65643h23.09663" fill="none" stroke="#000000" stroke-width="2" stroke-linecap="round"/><path d="M255.45806,160.75627c-11.9284,0 -21.59827,-10.51265 -21.59827,-23.48065c0,-12.968 9.66988,-23.48065 21.59827,-23.48065c11.9284,0 21.59827,10.51265 21.59827,23.48065c0,12.968 -9.66988,23.48065 -21.59827,23.48065z" data-paper-data="{&quot;index&quot;:null}" fill="#b2764d" stroke="#000000" stroke-width="2" stroke-linecap="butt"/><g fill="#b4b3b4" stroke="#b6b4b2" stroke-width="0.5" stroke-linecap="round"><path d="M177.35574,158.5851c0,0 1.21106,3.07549 1.95947,4.40033c0.61634,1.09105 2.21216,2.98433 2.21216,2.98433l-3.0339,1.79627c0,0 -1.55163,-2.53986 -2.10113,-3.76467c-0.52378,-1.16746 -1.1224,-3.4204 -1.1224,-3.4204z"/><path d="M172.99452,154.79298c0,0 -1.00403,-2.6996 -1.29288,-4.01709c-0.27971,-1.27578 -0.4137,-3.76675 -0.4137,-3.76675l3.30464,-0.5422c0,0 -0.09618,2.66703 0.11438,3.97255c0.20469,1.26922 1.13184,3.75473 1.13184,3.75473l-2.84428,0.59875z"/><path d="M173.95432,130.04437c0,0 -0.41229,2.99796 -0.44565,4.43757c-0.02933,1.26557 0.25602,3.74544 0.25602,3.74544h-3.03391c0,0 -0.18847,-0.161 -0.17396,-4.40509c0.00978,-2.85922 0.36357,-3.57833 0.36357,-3.57833z"/><path d="M172.06981,123.05888c0,0 0.78484,-4.90945 2.65467,-7.18508c1.86983,-2.27563 1.89513,-0.58001 3.41314,-0.19958c1.518,0.38043 0.79676,0.52018 0.56886,1.19751c-0.2279,0.67733 -3.79238,8.38259 -3.79238,8.38259z"/></g><g stroke-linecap="butt"><path d="M276.12852,152.29889c0,-5.50854 4.32346,-9.97411 9.65672,-9.97411c5.33326,0 9.65672,4.46556 9.65672,9.97411c0,5.50854 -4.32346,9.97411 -9.65672,9.97411c-5.33326,0 -9.65672,-4.46556 -9.65672,-9.97411z" fill="#ffe902" stroke="#f6c002" stroke-width="2"/><path d="M291.36746,148.82548c1.012,2.07517 0.97661,4.3818 -0.07904,5.15199c-1.05565,0.7702 -2.73182,-0.28769 -3.74382,-2.36286c-1.012,-2.07517 -0.9766,-4.3818 0.07905,-5.15199c1.05565,-0.7702 2.73181,0.28769 3.74381,2.36286z" fill="#fff26a" stroke="none" stroke-width="0"/></g></g></g></svg>