<svg version="1.1" xmlns="http://www.w3.org/2000/svg" xmlns:xlink="http://www.w3.org/1999/xlink" width="105.10964" height="68.676" viewBox="0,0,105.10964,68.676"><g transform="translate(-267.44518,-160.72868)"><g data-paper-data="{&quot;isPaintingLayer&quot;:true}" fill-rule="nonzero" stroke-linejoin="miter" stroke-miterlimit="10" stroke-dasharray="" stroke-dashoffset="0" style="mix-blend-mode: normal"><path d="M327.16326,169.06278c0,4.60279 -3.23474,8.3341 -7.225,8.3341c-3.99026,0 -7.225,-3.7313 -7.225,-8.3341c0,-4.60279 3.23474,-8.3341 7.225,-8.3341c3.99026,0 7.225,3.7313 7.225,8.3341z" fill="#000000" stroke="none" stroke-width="0" stroke-linecap="butt"/><path d="M367.12991,169.7128c0,2.12002 -5.10023,3.83864 -11.39167,3.83864c-6.29144,0 -11.39167,-1.71861 -11.39167,-3.83864c0,-2.12002 5.10023,-3.83864 11.39167,-3.83864c6.29144,0 11.39167,1.71861 11.39167,3.83864z" fill="#000000" stroke="none" stroke-width="0" stroke-linecap="butt"/><path d="M273.67708,175.81921c-5.30563,-0.2 -5.23184,-7.55 -5.23184,-7.55c0,0 10.4676,-2 14.63184,-2c4.20523,0 12.67775,1.4 12.67775,1.4c0,0 -12.97858,8.493 -22.07775,8.15z" fill="#ffffff" stroke="#000000" stroke-width="2" stroke-linecap="round"/><path d="M368.55392,192.00549c3.01835,0.47109 3.0009,5.21373 3.0009,5.21373l-22.94292,0.83333c0,0 17.04904,-6.49858 19.94202,-6.04706z" fill="#000000" stroke="#000000" stroke-width="2" stroke-linecap="round"/><path d="M296.32992,189.06278c0,4.60279 -3.23474,8.3341 -7.225,8.3341c-3.99026,0 -7.225,-3.7313 -7.225,-8.3341c0,-4.60279 3.23474,-8.3341 7.225,-8.3341c3.99026,0 7.225,3.7313 7.225,8.3341z" fill="#000000" stroke="none" stroke-width="0" stroke-linecap="butt"/><path d="M283.45025,186.01121c0,0 0.9507,-1.67843 2.37633,-2.77013c1.08274,-0.82913 2.5639,-1.73381 3.38913,-1.72956c0.93069,0.0048 2.54737,0.73036 3.71081,1.70549c1.20164,1.00714 1.93549,2.26479 1.93549,2.26479" fill="none" stroke="#ffffff" stroke-width="1" stroke-linecap="round"/><path d="M319.82409,204.69814c-4.04708,0 -12.19201,-18.16667 -12.19201,-18.16667c0,0 7.1723,2.16667 12.03184,2.16667c4.43113,0 13.07775,-2.16667 13.07775,-2.16667c0,0 -8.61094,18.16667 -12.91758,18.16667z" fill="#000000" stroke="#000000" stroke-width="2" stroke-linecap="round"/><path d="M323.07457,228.40468c-7.02718,-0.18958 -18.88861,-11.53622 -18.36942,-13.31311c0.35798,-1.22516 3.31285,2.10014 8.38393,4.22938c3.36049,1.411 8.95708,1.78541 10.63383,1.80504c3.89816,0.04564 8.5882,-1.10805 11.95462,-2.58036c4.09316,-1.79017 6.52027,-3.906 6.87942,-3.06405c0.97793,2.29257 -11.29723,13.14393 -19.48238,12.92311z" fill="#000000" stroke="#000000" stroke-width="2" stroke-linecap="round"/><path d="M323.90984,223.58572c-11.45488,-0.31186 -17.98974,-8.28574 -16.97156,-7.51977c4.47863,3.36927 7.3465,4.44774 16.37941,4.5535c8.53315,0.09991 14.31191,-2.13603 18.66894,-5.00452c0,0 -9.18983,8.21274 -18.07679,7.97079z" fill="#ffffff" stroke="#000000" stroke-width="0" stroke-linecap="round"/><path d="M320.24652,227.2442l0.05066,-1.62086c0,0 2.25483,-0.39242 3.34573,-0.41743c1.11794,-0.02563 3.28281,0.26547 3.28281,0.26547l-0.1013,1.77281c0,0 -2.0609,0.70912 -3.14041,0.70912c-1.11215,0 -3.43748,-0.70912 -3.43748,-0.70912z" fill="#fb8c8c" stroke="#000000" stroke-width="0" stroke-linecap="butt"/><path d="M323.60035,225.65917l0.04503,2.02608" fill="none" stroke="#6c3c3c" stroke-width="0.25" stroke-linecap="round"/></g></g></svg>