<svg version="1.1" xmlns="http://www.w3.org/2000/svg" xmlns:xlink="http://www.w3.org/1999/xlink" width="198.51822" height="256.04425" viewBox="0,0,198.51822,256.04425"><g transform="translate(-106.71882,-52.03608)"><g data-paper-data="{&quot;isPaintingLayer&quot;:true}" fill-rule="nonzero" stroke-linejoin="miter" stroke-miterlimit="10" stroke-dasharray="" stroke-dashoffset="0" style="mix-blend-mode: normal"><g stroke-width="2"><path d="M218.89412,187.72072l41.41765,0.2301l11.35535,119.12951h-66.95856z" fill="#1700ff" stroke="#000000" stroke-linecap="round"/><path d="M224.98107,208.01619c0,0 8.59931,-2.75209 13.15649,-2.72677c4.92858,0.02738 15.38818,2.88535 15.38818,2.88535c0,0 5.58598,21.88621 6.76513,34.2567c1.39353,14.61968 1.06086,47.84628 1.06086,47.84628c0,0 -15.49885,2.79985 -23.21318,2.79985c-7.66781,0 -22.93404,-2.79985 -22.93404,-2.79985c0,0 0.14928,-30.704 1.84788,-44.99643c1.54583,-13.00673 7.92867,-37.26512 7.92867,-37.26512z" fill="#fddfbd" stroke="#000000" stroke-linecap="round"/><g data-paper-data="{&quot;index&quot;:null}"><path d="M272.4027,306.75354l-14.08066,0.16331l-13.87186,-116.74087l14.04726,-0.84509l1.68723,8.3627l11.21659,90.17129z" data-paper-data="{&quot;index&quot;:null}" fill="#ef2a2e" stroke="#000000" stroke-linecap="round"/><path d="M253.39258,253.46184l-1.23923,-11.83468l13.92315,-1.45792l1.23923,11.83468z" fill="#ffffff" stroke="none" stroke-linecap="butt"/><path d="M259.38973,306.90173l-14.34371,-111.07183l3.47099,-0.44824l14.34371,111.07183z" fill="#ffffff" stroke="none" stroke-linecap="butt"/></g><path d="M207.65709,287.61555l11.21659,-90.17129l1.07154,-8.36271l14.66295,0.8451l-13.87187,116.74088l-14.08066,-0.16331z" data-paper-data="{&quot;index&quot;:null}" fill="#ef2a2e" stroke="#000000" stroke-linecap="round"/><path d="M212.35831,249.90754l1.23922,-11.83468l13.92316,1.45792l-1.23923,11.83468z" fill="#ffffff" stroke="none" stroke-linecap="butt"/><path d="M215.58192,305.28067l14.34371,-111.07182l3.47099,0.44824l-14.34372,111.07182z" fill="#ffffff" stroke="none" stroke-linecap="butt"/><path d="M230.00205,210.50741c-0.43413,3.26352 -3.06035,5.60658 -5.86584,5.23338c-2.80548,-0.3732 -4.72786,-3.32133 -4.29372,-6.58485c0.43413,-3.26352 3.06034,-5.60659 5.86585,-5.2334c2.80548,0.3732 4.72783,3.32134 4.29371,6.58486z" fill="none" stroke="#ffea00" stroke-linecap="butt"/></g><path d="M146.19122,249.25432c0,0 -11.71063,-54.7197 -3.56169,-86.44847c3.79823,-14.78883 80.85797,-79.76977 80.85797,-79.76977l4.57593,114.46084c0,0 -23.47659,-8.18929 -40.68726,11.23402c-12.06416,13.61517 -41.18496,40.52339 -41.18496,40.52339z" data-paper-data="{&quot;index&quot;:null}" fill="#1700ff" stroke="#000000" stroke-width="2" stroke-linecap="butt"/><path d="M109.30853,197.58518c0,0 13.32613,-54.34886 34.49684,-79.3473c9.86771,-11.6518 107.55238,-36.52004 107.55238,-36.52004l-45.80091,104.99762c0,0 -17.5548,-17.60808 -41.51337,-7.63519c-16.79425,6.9907 -54.73494,18.50491 -54.73494,18.50491z" data-paper-data="{&quot;index&quot;:null}" fill="#1700ff" stroke="#000000" stroke-width="2" stroke-linecap="butt"/><path d="M108.68201,110.66579c0,0 40.71997,-38.38318 72.07634,-47.86467c14.61526,-4.41934 110.13251,27.78593 110.13251,27.78593l-95.50413,63.2549c0,0 -5.16865,-24.32078 -30.70054,-28.96779c-17.89709,-3.25742 -56.00418,-14.20837 -56.00418,-14.20837z" data-paper-data="{&quot;index&quot;:null}" fill="#1700ff" stroke="#000000" stroke-width="2" stroke-linecap="butt"/><g stroke="#000000" stroke-width="2" stroke-linecap="round"><path d="M185.33445,102.34214l-12.45006,-47.67785l44.28077,24.73038z" fill="#1700ff"/><path d="M189.54199,98.81963l-8.64588,-33.10962l30.75056,17.17389z" fill="#ffebb5"/></g><g data-paper-data="{&quot;index&quot;:null}" stroke="#000000" stroke-width="2" stroke-linecap="round"><path d="M262.37068,85.55418l39.92085,-31.28426l-4.92277,49.03006z" fill="#1700ff"/><path d="M268.36261,88.14754l27.72281,-21.72517l-3.41857,34.04866z" fill="#ffebb5"/></g><path d="M175.76299,133.49653c0,-33.30185 28.7599,-60.29833 64.23702,-60.29833c35.47712,0 64.23702,26.99649 64.23702,60.29833c0,33.30185 -28.7599,60.29833 -64.23702,60.29833c-35.47712,0 -64.23702,-26.99649 -64.23702,-60.29833z" fill="#1700ff" stroke="#000000" stroke-width="2" stroke-linecap="butt"/><path d="M176.48606,133.55035c0,-0.72799 5.20666,55.91939 63.36046,56.93429c55.56352,0.9697 63.51358,-57.95314 63.51358,-56.93429c0,32.80479 -28.40173,59.39833 -63.43702,59.39833c-35.03529,0 -63.43702,-26.59354 -63.43702,-59.39833z" fill="#0f00b5" stroke="#000000" stroke-width="0" stroke-linecap="butt"/><path d="M296.47852,162.65037c0,11.59798 -27.76376,30 -56.66667,30c-28.9029,0 -56.66667,-17.73535 -56.66667,-29.33333c0,-8.69465 19.83465,-4.15515 38.60464,-7.34549c6.26771,-1.06532 10.82674,-5.32117 18.06203,-5.32117c10.96773,0 19.14745,4.02052 27.55789,6.33448c13.75333,3.78393 29.10878,-1.53139 29.10878,5.66552z" fill="#fddfbd" stroke="#000000" stroke-width="2" stroke-linecap="butt"/><g><path d="M237.28789,132.46195c0,13.0892 -10.50787,23.70013 -23.47001,23.70013c-12.96214,0 -23.47001,-10.61092 -23.47001,-23.70013c0,-13.0892 10.50787,-23.70012 23.47001,-23.70012c12.96214,0 23.47001,10.61091 23.47001,23.70013z" fill="#ffffff" stroke="#000000" stroke-width="2" stroke-linecap="butt"/><path d="M291.88155,131.7585c0,13.0892 -10.50787,23.70012 -23.47001,23.70012c-12.96214,0 -23.47001,-10.61092 -23.47001,-23.70012c0,-13.0892 10.50787,-23.70012 23.47001,-23.70012c12.96214,0 23.47001,10.61091 23.47001,23.70013z" fill="#ffffff" stroke="#000000" stroke-width="2" stroke-linecap="butt"/><path d="M245.00151,155.88496c0,2.20914 -1.79086,4 -4,4c-2.20914,0 -4,-1.79086 -4,-4c0,-2.20914 1.79086,-4 4,-4c2.20914,0 4,1.79086 4,4z" fill="#000000" stroke="#000000" stroke-width="2" stroke-linecap="butt"/><path d="M226.89437,179.04846c0,0 -26.61983,6.31139 -30.47573,3.42748c-3.105,-2.3223 4.76801,-19.41391 4.76801,-19.41391c0,0 4.19601,8.58475 7.84696,10.85511c4.66653,2.9019 17.86076,5.13132 17.86076,5.13132z" data-paper-data="{&quot;index&quot;:null}" fill="#ffffff" stroke="#000000" stroke-width="2" stroke-linecap="round"/><path d="M200.76581,125.154l9.52408,-0.83087l20.26567,9.44806l-17.2049,11.08553l-11.40577,-0.02461l13.83162,-10.17947z" fill="#000000" stroke="none" stroke-width="0" stroke-linecap="butt"/><path d="M262.87819,132.98597l13.83162,10.17947l-11.40578,0.02461l-17.2049,-11.08553l20.26566,-9.44806l9.52409,0.83087z" data-paper-data="{&quot;index&quot;:null}" fill="#000000" stroke="none" stroke-width="0" stroke-linecap="butt"/></g></g></g></svg>