<svg version="1.1" xmlns="http://www.w3.org/2000/svg" xmlns:xlink="http://www.w3.org/1999/xlink" width="219.65818" height="277.01533" viewBox="0,0,219.65818,277.01533"><defs><linearGradient x1="118.66134" y1="149.63067" x2="151.19491" y2="151.24344" gradientUnits="userSpaceOnUse" id="color-1"><stop offset="0" stop-color="#050409"/><stop offset="1" stop-color="#131313"/></linearGradient><linearGradient x1="174.02315" y1="155.79873" x2="174.65034" y2="143.14678" gradientUnits="userSpaceOnUse" id="color-2"><stop offset="0" stop-color="#ededed"/><stop offset="1" stop-color="#a1a1a1"/></linearGradient><linearGradient x1="185.22749" y1="38.01848" x2="196.59776" y2="68.54309" gradientUnits="userSpaceOnUse" id="color-3"><stop offset="0" stop-color="#050409"/><stop offset="1" stop-color="#131313"/></linearGradient><linearGradient x1="201.43088" y1="91.31412" x2="213.30156" y2="86.89236" gradientUnits="userSpaceOnUse" id="color-4"><stop offset="0" stop-color="#ededed"/><stop offset="1" stop-color="#a1a1a1"/></linearGradient><linearGradient x1="326.62458" y1="223.3825" x2="300.2118" y2="204.31947" gradientUnits="userSpaceOnUse" id="color-5"><stop offset="0" stop-color="#050409"/><stop offset="1" stop-color="#131313"/></linearGradient><linearGradient x1="283.54211" y1="188.07136" x2="276.12873" y2="198.343" gradientUnits="userSpaceOnUse" id="color-6"><stop offset="0" stop-color="#ededed"/><stop offset="1" stop-color="#a1a1a1"/></linearGradient><linearGradient x1="240.00007" y1="175.50004" x2="240.00007" y2="307.50004" gradientUnits="userSpaceOnUse" id="color-7"><stop offset="0" stop-color="#000000"/><stop offset="1" stop-color="#9d5148"/></linearGradient><linearGradient x1="241.84449" y1="77.53272" x2="241.84449" y2="198.15235" gradientUnits="userSpaceOnUse" id="color-8"><stop offset="0" stop-color="#000000"/><stop offset="1" stop-color="#9d5148"/></linearGradient><linearGradient x1="214.68072" y1="112.40394" x2="214.68072" y2="137.7892" gradientUnits="userSpaceOnUse" id="color-9"><stop offset="0" stop-color="#000000"/><stop offset="1" stop-color="#9d5148"/></linearGradient><linearGradient x1="268.87264" y1="115.09036" x2="268.87264" y2="140.72665" gradientUnits="userSpaceOnUse" id="color-10"><stop offset="0" stop-color="#000000"/><stop offset="1" stop-color="#9d5148"/></linearGradient><radialGradient cx="272.3251" cy="189.02241" r="19.6296" gradientUnits="userSpaceOnUse" id="color-11"><stop offset="0" stop-color="#4a0000"/><stop offset="1" stop-color="#be0000"/></radialGradient><radialGradient cx="181.15587" cy="149.88045" r="26.37529" gradientUnits="userSpaceOnUse" id="color-12"><stop offset="0" stop-color="#4a0000"/><stop offset="1" stop-color="#be0000"/></radialGradient><radialGradient cx="215.42557" cy="89.97651" r="21.65502" gradientUnits="userSpaceOnUse" id="color-13"><stop offset="0" stop-color="#4a0000"/><stop offset="1" stop-color="#be0000"/></radialGradient><linearGradient x1="318.82411" y1="108.07139" x2="318.82411" y2="131.21675" gradientUnits="userSpaceOnUse" id="color-14"><stop offset="0" stop-color="#000000"/><stop offset="1" stop-color="#9d5148"/></linearGradient><linearGradient x1="255.25492" y1="58.93971" x2="255.25492" y2="120.12895" gradientUnits="userSpaceOnUse" id="color-15"><stop offset="0" stop-color="#000000"/><stop offset="1" stop-color="#9d5148"/></linearGradient></defs><g transform="translate(-118.45974,-36.5972)"><g data-paper-data="{&quot;isPaintingLayer&quot;:true}" fill-rule="nonzero" stroke-linejoin="miter" stroke-miterlimit="10" stroke-dasharray="" stroke-dashoffset="0" style="mix-blend-mode: normal"><g stroke="none" stroke-width="0" stroke-linecap="butt"><path d="M118.45975,153.69734l0.40319,-8.13339l32.53357,1.61276l-0.40319,8.13339z" fill="url(#color-1)"/><path d="M181.70794,143.88098c7.5719,1.48025 16.78486,12.6778 16.78486,12.6778l-47.91904,-1.92249l0.62719,-12.65194c0,0 22.57473,0.34592 30.507,1.89663z" data-paper-data="{&quot;index&quot;:null}" fill="url(#color-2)"/></g><g stroke="none" stroke-width="0" stroke-linecap="butt"><path d="M181.41192,39.43977l7.63115,-2.84257l11.37026,30.52461l-7.63115,2.84256z" fill="url(#color-3)"/><path d="M215.41507,93.66597c1.63129,7.5408 -5.0161,20.42785 -5.0161,20.42785l-17.16349,-44.78108l11.87068,-4.42176c0,0 8.59998,20.8753 10.30891,28.775z" data-paper-data="{&quot;index&quot;:null}" fill="url(#color-4)"/></g><g stroke="none" stroke-width="0" stroke-linecap="butt"><path d="M329.00748,220.0809l-4.76575,6.6032l-26.41278,-19.06303l4.76576,-6.6032z" fill="url(#color-5)"/><path d="M270.60815,193.8852c-5.54586,-5.36359 -7.17859,-19.77184 -7.17859,-19.77184l39.15025,27.69817l-7.4134,10.27164c0,0 -18.74844,-12.5791 -24.55827,-18.19797z" data-paper-data="{&quot;index&quot;:null}" fill="url(#color-6)"/></g><path d="M179.28378,313.61253v-267.22501h123.18203v267.22501z" fill-opacity="0.01" fill="#000000" stroke="none" stroke-width="0" stroke-linecap="butt"/><path d="M206.75007,307.50003l15.14285,-131.8421l37.78325,-0.15789l13.57389,132z" fill="url(#color-7)" stroke="#000000" stroke-width="0" stroke-linecap="butt"/><path d="M177.68626,134.66206c1.64883,-33.26101 31.71009,-58.80043 67.1437,-57.0439c35.43361,1.75653 62.8216,30.14385 61.17277,63.40485c-1.64883,33.26101 -31.71009,58.80043 -67.1437,57.0439c-35.43361,-1.75653 -62.8216,-30.14385 -61.17277,-63.40485z" fill="url(#color-8)" stroke="#000000" stroke-width="0" stroke-linecap="butt"/><path d="M191.21509,135.42897c0.64207,-12.9521 11.66232,-22.93135 24.61442,-22.28929c12.9521,0.64207 22.93135,11.66232 22.28929,24.61442c-0.64207,12.9521 -11.66232,22.93135 -24.61442,22.28929c-12.9521,-0.64207 -22.93135,-11.66232 -22.28929,-24.61442z" fill="#959595" stroke="#000000" stroke-width="0" stroke-linecap="butt"/><path d="M197.93441,142.58505c0.45195,-9.11688 8.209,-16.1412 17.32588,-15.68925c9.11688,0.45195 16.1412,8.20901 15.68925,17.32589c-0.45195,9.11688 -8.20901,16.1412 -17.32589,15.68925c-9.11688,-0.45195 -16.14119,-8.20901 -15.68924,-17.32589z" fill="#000000" stroke="#000000" stroke-width="2" stroke-linecap="butt"/><path d="M239.67796,181.3265c17.95657,0.85329 14.03783,9.14391 14.03783,9.14391c0,0 -18.22845,1.2469 -28.11795,-1.69126c-0.18829,-1.50455 -0.21581,-8.132 14.08011,-7.45266z" fill="#000000" stroke="#000000" stroke-width="2" stroke-linecap="round"/><path d="M267.69624,162.72978c-12.9521,-0.64207 -22.93135,-11.66232 -22.28929,-24.61442c0.64207,-12.9521 11.66232,-22.93135 24.61442,-22.28929c12.9521,0.64207 22.93135,11.66232 22.28929,24.61442c-0.64207,12.9521 -11.66232,22.93135 -24.61442,22.28929z" data-paper-data="{&quot;index&quot;:null}" fill="#959595" stroke="#000000" stroke-width="0" stroke-linecap="butt"/><path d="M267.59068,162.58621c-9.11687,-0.45194 -16.14119,-8.20901 -15.68924,-17.32589c0.45195,-9.11688 8.20901,-16.1412 17.32588,-15.68925c9.11687,0.45194 16.14119,8.20901 15.68924,17.32589c-0.45195,9.11688 -8.20901,16.1412 -17.32588,15.68925z" data-paper-data="{&quot;index&quot;:null}" fill="#000000" stroke="#000000" stroke-width="2" stroke-linecap="butt"/><path d="M190.50693,135.39387c0.64207,-12.9521 12.40559,-23.60441 25.35767,-22.96235c12.9521,0.64207 23.6044,12.40558 22.96233,25.35768c0,0 -47.67284,-1.13019 -47.61186,-2.36023z" fill="url(#color-9)" stroke="#000000" stroke-width="0" stroke-linecap="butt"/><path d="M244.69885,138.08029c0.64207,-12.9521 12.40559,-23.60441 25.35767,-22.96235c12.9521,0.64207 23.6044,12.40558 22.96233,25.35768c-0.0601,1.21231 -47.61186,-2.36023 -47.61186,-2.36023z" data-paper-data="{&quot;index&quot;:null}" fill="url(#color-10)" stroke="#000000" stroke-width="0" stroke-linecap="butt"/><path d="M205.26361,107.28155c0,0 6.95666,-4.83071 12.09782,-5.77165c5.14116,-0.94094 12.28438,1.30919 12.28438,1.30919c0,0 -8.02528,-0.45819 -11.99562,0.26848c-4.14917,0.75938 -12.38656,4.19398 -12.38656,4.19398z" fill="#000000" stroke="none" stroke-width="0" stroke-linecap="butt"/><path d="M269.35745,105.65083c-3.87901,-1.11577 -11.91026,-1.45355 -11.91026,-1.45355c0,0 7.33073,-1.53262 12.35363,-0.08783c5.02289,1.44479 11.46767,6.93984 11.46767,6.93984c0,0 -7.85732,-4.23244 -11.91104,-5.39846z" data-paper-data="{&quot;index&quot;:null}" fill="#000000" stroke="none" stroke-width="0" stroke-linecap="butt"/><path d="M222.15682,234.43786c0,0 16.09555,12.12494 23.49385,18.26012c6.91591,5.73514 19.54642,17.43182 19.54642,17.43182" fill="none" stroke="#810000" stroke-width="2" stroke-linecap="round"/><path d="M218.48265,247.03501l35.69194,-2.88684l0.52489,5.24882" fill="none" stroke="#810000" stroke-width="2" stroke-linecap="round"/><path d="M251.0253,246.77257v-2.09953" fill="none" stroke="#810000" stroke-width="2" stroke-linecap="round"/><path d="M253.12483,253.85848l-0.52489,-8.92299" fill="none" stroke="#810000" stroke-width="2" stroke-linecap="round"/><path d="M223.73147,249.65942l0.26244,-3.14929" fill="none" stroke="#810000" stroke-width="2" stroke-linecap="round"/><path d="M225.83099,247.5599v4.19905" fill="none" stroke="#810000" stroke-width="2" stroke-linecap="round"/><path d="M227.66808,246.24769l1.04976,11.80983" fill="none" stroke="#810000" stroke-width="2" stroke-linecap="round"/><path d="M230.29248,246.51013l-1.3122,7.61078" fill="none" stroke="#810000" stroke-width="2" stroke-linecap="round"/><path d="M263.36,268.29269v2.36196" fill="none" stroke="#810000" stroke-width="2" stroke-linecap="round"/><path d="M244.66946,195.8244l-0.50355,-3.63989l3.65673,-0.18808l-0.38683,8.45895" fill="none" stroke="#810000" stroke-width="2" stroke-linecap="round"/><path d="M281.78013,185.08433c0,0 -7.86953,5.77175 -12.02042,7.61216c-4.00208,1.77444 -13.24219,3.51532 -13.24219,3.51532l6.91171,-3.32208l-6.01809,-1.1915l1.63225,-2.08462l-8.11432,-2.60716l9.45274,-2.09978l-7.08539,-5.59298l7.25957,2.34413l-5.08962,-6.35483l9.13921,3.74817l-0.21255,-4.13845l1.96092,-0.11209l2.95502,-2.44812l2.81164,4.27779l1.1294,-0.8083l1.24148,1.15262l4.88515,-6.03727l-0.56495,6.4861l1.29954,0.06968l1.59338,2.69198l9.12407,-4.07232l-9.04855,8.97156z" fill="url(#color-11)" stroke="none" stroke-width="0" stroke-linecap="round"/><path d="M179.50552,138.50455l1.45129,-8.07371l2.22688,-2.51724l-1.96253,7.7856l1.84783,-0.17116l7.56873,-14.86505l-5.17069,14.19564l4.14192,1.25637l-3.4053,5.08646l2.97426,-1.69191l0.7084,1.6117l2.13593,-0.68241l-1.72864,3.06746l1.50775,1.38856l-5.66043,2.87255l6.31683,-0.21238l-3.07821,3.78885l1.76987,1.40156l-1.38856,1.50775l2.08395,0.36607l-0.11694,2.35906l-2.09696,-0.10395l5.3898,7.88731l-0.86432,1.53374l-2.2811,-1.68966l-3.96001,-4.92604l4.97175,11.01974l0.11919,2.89629l-1.54672,-0.6022l-7.09469,-10.59946l-2.33309,-0.64118l-5.56767,-25.50125z" fill="url(#color-12)" stroke="#000000" stroke-width="0" stroke-linecap="round"/><path d="M239.90496,91.98932l-6.36732,3.48113l3.57995,4.37391l-3.64742,1.01817l2.21422,3.70671l-6.88799,-2.13993l-1.30474,2.13346l-3.67877,-2.3805l-0.84678,0.95718l-1.59472,-0.07905l0.45967,2.82042l-2.21251,0.28998l-2.27351,-2.51067l-0.69684,1.96377l-1.58484,-0.27839l-2.62449,-7.52383l-0.79395,7.95387l-1.60461,0.12029l-0.69037,-6.22897l-4.61107,8.36413l-5.83199,-3.28656l2.34097,-2.88141l-1.8847,-2.29156l4.70171,-6.16151l-7.83187,4.80735l0.19764,-3.98681l7.19433,-4.03963l16.90102,-6.35607z" fill="url(#color-13)" stroke="#000000" stroke-width="0" stroke-linecap="round"/><g stroke="#000000" stroke-width="0" stroke-linecap="round"><path d="M338.11793,121.02812l-3.17501,10.18863l-34.81139,-11.40422l-0.60124,-11.74114z" fill="url(#color-14)"/><path d="M208.24949,88.22456c0,0 8.94016,-22.04699 31.63366,-27.31575c23.40729,-5.43448 44.14878,0.18342 55.87027,19.30505c11.72148,19.12163 4.02868,39.91509 4.02868,39.91509l-91.53262,-31.90439z" fill="url(#color-15)"/></g></g></g></svg>