<svg version="1.1" xmlns="http://www.w3.org/2000/svg" xmlns:xlink="http://www.w3.org/1999/xlink" width="164.4481" height="264.65847" viewBox="0,0,164.4481,264.65847"><g transform="translate(-148.09347,-42.67076)"><g data-paper-data="{&quot;isPaintingLayer&quot;:true}" fill-rule="nonzero" stroke-linecap="butt" stroke-linejoin="miter" stroke-miterlimit="10" stroke-dasharray="" stroke-dashoffset="0" style="mix-blend-mode: normal"><path d="M302.46224,139.34633c4.87315,25.04656 -1.38105,35.60927 -1.38105,35.60927c0,0 -13.5384,-20.78821 -21.94471,-31.55989c-8.69067,-11.13607 -29.37461,-34.19976 -29.37461,-34.19976l30.60018,-18.54552c0,0 16.709,20.98676 22.10018,48.69589z" data-paper-data="{&quot;index&quot;:null}" fill="#b3946b" stroke="#000000" stroke-width="2"/><path d="M185.01941,95.81517l32.88512,15.1065c0,0 -17.41181,25.12733 -24.53206,37.1199c-6.88728,11.60014 -17.51382,33.69737 -17.51382,33.69737c0,0 -7.63749,-9.81019 -6.18886,-35.19921c1.60262,-28.08799 15.34963,-50.72456 15.34963,-50.72456z" data-paper-data="{&quot;index&quot;:null}" fill="#b3946b" stroke="#000000" stroke-width="2"/><path d="M291.75989,185.53834c-7.3881,24.25296 -17.90022,30.59161 -17.90022,30.59161c0,0 -2.31875,-24.57331 -4.75858,-37.95748c-2.52239,-13.83694 -10.13631,-43.75102 -10.13631,-43.75102l35.92058,-1.94583c0,0 5.04805,26.23157 -3.12545,53.06272z" data-paper-data="{&quot;index&quot;:null}" fill="#b3946b" stroke="#000000" stroke-width="2"/><path d="M174.99349,138.97019l35.92058,-1.94583c0,0 -3.51075,30.51672 -4.14251,44.52451c-0.61109,13.54944 0.41193,38.19294 0.41193,38.19294c0,0 -11.2927,-5.15749 -21.90808,-28.43518c-11.74385,-25.75223 -10.28193,-52.33644 -10.28193,-52.33644z" fill="#b3946b" stroke="#000000" stroke-width="2"/><path d="M206.31362,306.32923l13.32751,-131.8421l37.78108,-0.15789l15.3914,132z" fill="#e6be8a" stroke="#000000" stroke-width="2"/><path d="M217.84031,202.94186l2.75891,-26.32765l35.8288,-0.14203l3.1268,26.1059c0,0 -7.45765,4.19603 -21.49694,4.50964c-12.48074,0.27879 -20.21757,-4.14586 -20.21757,-4.14586z" fill="#cca97a" stroke="#000000" stroke-width="0"/><path d="M170.93158,139.00241c-2.25786,-33.25317 24.60825,-61.76468 60.00711,-63.68225c35.39886,-1.91757 65.92567,23.48496 68.18352,56.73812c2.25786,33.25317 -24.60825,61.76468 -60.00711,63.68225c-35.39886,1.91757 -65.92567,-23.48496 -68.18352,-56.73812z" fill="#e6be8a" stroke="#000000" stroke-width="2"/><path d="M171.65669,139.01708c-0.04936,-0.72693 8.9865,55.55622 67.08081,53.42638c55.50669,-2.03497 59.44426,-61.30138 59.51334,-60.28402c2.22415,32.75684 -24.31189,60.84664 -59.26989,62.74032c-34.958,1.89368 -65.10011,-23.12584 -67.32426,-55.88268z" fill="#cca97a" stroke="#000000" stroke-width="0"/><path d="M184.48101,138.69886c-0.87922,-12.94904 8.89747,-24.01454 21.83687,-24.71547c12.93939,-0.70093 24.1416,9.22813 25.02083,22.17718c0.87922,12.94904 -8.89747,24.01454 -21.83687,24.71547c-12.93939,0.70093 -24.1416,-9.22813 -25.02083,-22.17718z" fill="#ffffff" stroke="#000000" stroke-width="2"/><path d="M263.64058,157.94331c-12.93939,0.70093 -24.1416,-9.22813 -25.02083,-22.17718c-0.87922,-12.94904 8.89747,-24.01454 21.83687,-24.71547c12.93939,-0.70093 24.1416,9.22813 25.02083,22.17718c0.87922,12.94904 -8.89747,24.01454 -21.83687,24.71547z" data-paper-data="{&quot;index&quot;:null}" fill="#ffffff" stroke="#000000" stroke-width="2"/><path d="M198.42866,138.53741c-0.44343,-6.53081 4.4874,-12.11163 11.01333,-12.46515c6.52595,-0.35351 12.17571,4.65417 12.61915,11.18497c0.44343,6.53081 -4.4874,12.11163 -11.01334,12.46515c-6.52595,0.35351 -12.17571,-4.65417 -12.61914,-11.18497z" fill="#000000" stroke="none" stroke-width="0"/><path d="M261.66158,146.45065c-6.52594,0.35351 -12.17571,-4.65417 -12.61914,-11.18497c-0.44343,-6.53081 4.4874,-12.11163 11.01333,-12.46515c6.52594,-0.35351 12.17571,4.65417 12.61914,11.18497c0.44343,6.53081 -4.4874,12.11163 -11.01333,12.46515z" data-paper-data="{&quot;index&quot;:null}" fill="#000000" stroke="none" stroke-width="0"/><path d="M195.10547,106.91608c0,0 6.34368,-5.52429 11.33974,-6.9919c4.99607,-1.46761 12.35434,0.03168 12.35434,0.03168c0,0 -8.02448,0.37427 -11.88277,1.50767c-4.03207,1.18444 -11.81131,5.45255 -11.81131,5.45255z" fill="#000000" stroke="none" stroke-width="0"/><path d="M258.57335,98.66529c-3.98336,-0.70861 -11.99966,-0.21395 -11.99966,-0.21395c0,0 7.10148,-2.28258 12.2595,-1.36502c5.15801,0.91756 12.20264,5.7166 12.20264,5.7166c0,0 -8.2997,-3.39711 -12.46247,-4.13763z" data-paper-data="{&quot;index&quot;:null}" fill="#000000" stroke="none" stroke-width="0"/><path d="M238.61924,135.75859c-0.87922,-12.94905 8.89746,-24.01454 21.83687,-24.71547c12.9394,-0.70093 24.14161,9.22812 25.02084,22.17718c0.04109,0.60517 -6.36754,-17.11186 -24.01295,-15.5294c-13.55249,0.2984 -20.51647,11.96821 -22.53287,16.40042c-0.47515,1.04444 -0.3119,1.66727 -0.3119,1.66727z" data-paper-data="{&quot;index&quot;:null}" fill="#e6be8a" stroke="#000000" stroke-width="2"/><path d="M184.32467,138.69974c-0.87922,-12.94905 8.89746,-24.01454 21.83687,-24.71547c12.9394,-0.70093 24.14161,9.22812 25.02084,22.17718c0.04109,0.60517 -6.36754,-17.11186 -24.01295,-15.5294c-13.55249,0.2984 -20.51647,11.96821 -22.53287,16.40042c-0.47515,1.04444 -0.3119,1.66727 -0.3119,1.66727z" data-paper-data="{&quot;index&quot;:null}" fill="#e6be8a" stroke="#000000" stroke-width="2"/><path d="M173.65515,103.65235c-3.54171,-29.20927 -2.17277,-52.94241 49.01752,-58.85476c58.31341,-6.73505 58.30148,17.71209 61.84319,46.92135c0,0 -110.7143,13.14094 -110.86071,11.93341z" fill="#804400" stroke="#000000" stroke-width="2"/><path d="M149.66819,111.11307l3.37786,-8.08586l154.42085,-16.28662l3.53157,7.00635z" fill="#804400" stroke="#000000" stroke-width="2"/><path d="M246.12885,180.6155c0.19713,2.59595 -3.54708,1.39126 -8.03174,1.6703c-4.48466,0.27904 -8.01155,1.93615 -8.20869,-0.6598c-0.19713,-2.59595 3.27862,-4.92658 7.76327,-5.20562c4.48466,-0.27904 8.28002,1.59917 8.47714,4.19511z" fill="#000000" stroke="none" stroke-width="0"/></g></g></svg>