<svg version="1.1" xmlns="http://www.w3.org/2000/svg" xmlns:xlink="http://www.w3.org/1999/xlink" width="131.908" height="249.74917" viewBox="0,0,131.908,249.74917"><defs><linearGradient x1="319.92305" y1="175.45918" x2="319.92305" y2="307.45912" gradientUnits="userSpaceOnUse" id="color-1"><stop offset="0" stop-color="#4c7b64"/><stop offset="1" stop-color="#2b2b2b"/></linearGradient><linearGradient x1="320.08155" y1="221.49563" x2="320.08155" y2="308.14563" gradientUnits="userSpaceOnUse" id="color-2"><stop offset="0" stop-color="#6b6dd3"/><stop offset="1" stop-color="#000000"/></linearGradient><linearGradient x1="355.96016" y1="194.55737" x2="355.96016" y2="302.11987" gradientUnits="userSpaceOnUse" id="color-3"><stop offset="0" stop-color="#4b7b64"/><stop offset="1" stop-color="#000000"/></linearGradient><linearGradient x1="284.13221" y1="194.4685" x2="284.13221" y2="302.02621" gradientUnits="userSpaceOnUse" id="color-4"><stop offset="0" stop-color="#4b7b64"/><stop offset="1" stop-color="#000000"/></linearGradient><linearGradient x1="334.35723" y1="85.7469" x2="318.99527" y2="204.8741" gradientUnits="userSpaceOnUse" id="color-5"><stop offset="0" stop-color="#000000"/><stop offset="1" stop-color="#ffdac9"/></linearGradient><linearGradient x1="326.62547" y1="145.10153" x2="319.02703" y2="204.02506" gradientUnits="userSpaceOnUse" id="color-6"><stop offset="0" stop-color="#000000"/><stop offset="1" stop-color="#7e647b"/></linearGradient><radialGradient cx="305.08901" cy="141.36084" r="23.48065" gradientUnits="userSpaceOnUse" id="color-7"><stop offset="0" stop-color="#c7c7c7"/><stop offset="1" stop-color="#c79797"/></radialGradient><radialGradient cx="350.48744" cy="148.97966" r="23.48065" gradientUnits="userSpaceOnUse" id="color-8"><stop offset="0" stop-color="#c7c7c7"/><stop offset="1" stop-color="#c79797"/></radialGradient><linearGradient x1="337.15143" y1="59.8915" x2="329.56091" y2="118.75362" gradientUnits="userSpaceOnUse" id="color-9"><stop offset="0" stop-color="#4c7b64"/><stop offset="1" stop-color="#000000"/></linearGradient><linearGradient x1="336.59238" y1="64.18191" x2="332.35916" y2="97.00916" gradientUnits="userSpaceOnUse" id="color-10"><stop offset="0" stop-color="#daffed"/><stop offset="1" stop-color="#161a18"/></linearGradient><linearGradient x1="336.56886" y1="69.2286" x2="333.92959" y2="89.69526" gradientUnits="userSpaceOnUse" id="color-11"><stop offset="0" stop-color="#49705e"/><stop offset="1" stop-color="#13160e"/></linearGradient><linearGradient x1="325.0005" y1="154.18805" x2="320.43347" y2="189.60392" gradientUnits="userSpaceOnUse" id="color-12"><stop offset="0" stop-color="#000000"/><stop offset="1" stop-color="#ffdac9"/></linearGradient></defs><g transform="translate(-261.52617,-58.90265)"><g data-paper-data="{&quot;isPaintingLayer&quot;:true}" stroke-linecap="butt" stroke-linejoin="miter" stroke-miterlimit="10" stroke-dasharray="" stroke-dashoffset="0" style="mix-blend-mode: normal"><path d="M286.67305,307.45912l15.14285,-131.8421l37.78325,-0.15789l13.57389,132z" fill="url(#color-1)" fill-rule="nonzero" stroke="#000000" stroke-width="2"/><path d="M299.53999,204.07182l3.12142,-26.32765l35.83075,-0.14203l2.76735,26.1059c0,0 -7.51543,4.19603 -21.55904,4.50964c-12.48458,0.27879 -20.16049,-4.14586 -20.16049,-4.14586z" fill="#2f4b3d" fill-rule="nonzero" stroke="#000000" stroke-width="0"/><path d="M286.20349,307.39563l9.625,-85.15c0,0 16.14032,5.36651 24.41538,5.23987c8.05433,-0.12327 24.59071,-5.98987 24.59071,-5.98987l9.125,86.65z" fill="url(#color-2)" fill-rule="nonzero" stroke="#000000" stroke-width="1"/><path d="M330.77702,225.84332l-2.72223,-31.57302l7.33053,-1.11111l3.5,30.46191c0,0 1.97994,9.94622 -2.77415,10.47275c-4.71963,0.52271 -5.33415,-8.25053 -5.33415,-8.25053z" data-paper-data="{&quot;index&quot;:null}" fill="#6b6dd3" fill-rule="nonzero" stroke="#000000" stroke-width="1"/><path d="M301.66589,224.12111l3.5,-30.4619l8.21942,0.55556l-2.61111,32.12857c0,0 -1.38805,9.70344 -6.18894,8.77837c-5.22617,-1.00701 -2.91937,-11.0006 -2.91937,-11.0006z" fill="#6b6dd3" fill-rule="nonzero" stroke="#000000" stroke-width="1"/><path d="M338.7852,228.05325c0,1.99603 -1.54283,3.61412 -3.44602,3.61412c-1.90319,0 -3.44603,-1.6181 -3.44603,-3.61412c0,-1.99603 1.54284,-3.61412 3.44603,-3.61412c1.90319,0 3.44602,1.61809 3.44602,3.61412z" fill="#c6a438" fill-rule="nonzero" stroke="none" stroke-width="0"/><path d="M309.37397,228.76993c0,1.99603 -1.54283,3.61412 -3.44602,3.61412c-1.90319,0 -3.44603,-1.6181 -3.44603,-3.61412c0,-1.99603 1.54284,-3.61412 3.44603,-3.61412c1.90319,0 3.44602,1.61809 3.44602,3.61412z" fill="#c6a438" fill-rule="nonzero" stroke="none" stroke-width="0"/><path d="M308.84898,229.41992c0,1.99602 -1.54284,3.61412 -3.44602,3.61412c-1.90319,0 -3.44602,-1.6181 -3.44602,-3.61412c0,-1.99602 1.54284,-3.61412 3.44602,-3.61412c1.90319,0 3.44602,1.6181 3.44602,3.61412z" fill="#edd459" fill-rule="nonzero" stroke="none" stroke-width="0"/><path d="M338.53667,228.70117c0,1.87521 -1.44945,3.39537 -3.23744,3.39537c-1.78799,0 -3.23745,-1.52016 -3.23745,-3.39537c0,-1.87521 1.44946,-3.39537 3.23745,-3.39537c1.78799,0 3.23744,1.52016 3.23744,3.39537z" fill="#edd459" fill-rule="nonzero" stroke="none" stroke-width="0"/><path d="M341.61102,194.55737c0.90641,1.442 13.27591,-0.94411 14.53458,0.88889c0.31862,-0.594 9.30076,33.378 9.72787,35c-0.5926,-0.963 5.60783,49.33333 5.60783,49.33333c0,0 0.50768,22.79733 0.91556,22.33333c-0.88787,-0.49 -11.18842,-0.32367 -12.13122,-0.16667c0.5308,-15.625 -11.71487,-68.29133 -19.1124,-79.33333c2.25366,-15.345 -5.00951,-26.28055 0.45778,-28.05555z" fill="url(#color-3)" fill-rule="evenodd" stroke="none" stroke-width="1"/><path d="M341.52136,194.59507c0.91572,1.34757 13.41232,-0.88229 14.68393,0.83068c0.10385,-0.17908 1.11865,3.00386 2.46032,7.4491c-6.17155,-0.51975 -13.01437,-2.82677 -18.35267,1.21834c-0.00693,0.00525 -0.01384,0.01053 -0.02073,0.01584c-0.98219,-5.21007 -1.76061,-8.6161 1.22914,-9.51396z" fill="#2f4b3d" fill-rule="nonzero" stroke="none" stroke-width="1"/><path d="M387.45586,301.10947c0.01927,0.00566 0.03664,0.01141 0.05206,0.01725c-0.01724,0.01347 -0.0346,0.00734 -0.05206,-0.01725z" fill="#2f4b3d" fill-rule="nonzero" stroke="none" stroke-width="1"/><path d="M298.93917,222.52405c-7.39753,11.042 -19.6432,63.70833 -19.1124,79.33333c-0.9428,-0.157 -11.24335,-0.32333 -12.13122,0.16667c0.40788,0.464 7.11599,-72.62966 6.52339,-71.66666c0.42711,-1.622 9.40925,-35.594 9.72787,-35c1.25867,-1.833 13.62817,0.55311 14.53458,-0.88889c5.46729,1.775 -1.79588,12.71055 0.45778,28.05555z" data-paper-data="{&quot;index&quot;:null}" fill="url(#color-4)" fill-rule="evenodd" stroke="none" stroke-width="1"/><path d="M298.57106,194.50619c2.98975,0.89786 2.21133,4.30389 1.22914,9.51396c-0.00689,-0.00531 -0.0138,-0.01059 -0.02073,-0.01584c-5.3383,-4.04511 -12.18112,-1.73809 -18.35267,-1.21834c1.34167,-4.44524 2.35647,-7.62818 2.46032,-7.4491c1.27161,-1.71297 13.76821,0.51689 14.68393,-0.83068z" data-paper-data="{&quot;index&quot;:null}" fill="#2f4b3d" fill-rule="nonzero" stroke="none" stroke-width="1"/><g><path d="M272.97189,105.9121c0.61939,-1.8926 2.75046,-15.08719 18.42376,-25.89294c8.46247,-5.83435 18.32034,-14.44452 39.80693,-12.33068c31.86078,3.59324 42.17098,16.6193 49.19978,26.31524c9.64041,13.29855 8.89642,24.05417 10.68313,29.57755c0.18141,0.56078 -118.13213,-17.6125 -118.11359,-17.66917z" fill="#a8530c" fill-rule="nonzero" stroke="none" stroke-width="1.5"/><path d="M262.99766,136.85528c2.70509,-20.97716 16.5909,-37.94796 35.37851,-46.37717c1.30085,-1.60136 20.79796,-6.58131 34.22385,-4.95519c13.42588,1.62611 25.4775,6.21123 34.54888,13.28479c16.53737,12.89529 26.01816,33.15005 23.26773,54.47879c-4.25915,33.02836 -36.23558,56.12489 -71.42136,51.58753c-35.18577,-4.53736 -60.25676,-34.9904 -55.99761,-68.01875z" fill="url(#color-5)" fill-rule="nonzero" stroke="#000000" stroke-width="2"/><path d="M263.70772,137.00119c0.09311,-0.72201 -1.98792,56.12607 55.5585,64.57023c54.9832,8.06805 70.40392,-49.35413 70.27361,-48.34365c-4.19557,32.53539 -35.76525,55.27808 -70.51282,50.79723c-34.74757,-4.48085 -59.51486,-34.48844 -55.31929,-67.02383z" fill="url(#color-6)" fill-rule="nonzero" stroke="#000000" stroke-width="0"/><path d="M265.12731,148.93531c0,0 -2.14631,-8.18079 -1.64259,-12.08698c0.77114,-5.97997 14.77333,-40.91561 14.77333,-40.91561l9.4467,1.21819c0,0 -4.72298,7.62398 -5.94319,12.15402c-1.08368,4.02322 -1.01717,13.68657 -1.01717,13.68657l-2.40638,2.46897l-2.74943,-2.17403z" fill="#3a2f2b" fill-rule="nonzero" stroke="#000000" stroke-width="0"/><path d="M296.61398,141.62333c1.65855,-12.8615 8.90019,-22.52736 16.17465,-21.58928c7.27447,0.93807 11.82706,12.12485 10.16852,24.98635c-1.65855,12.8615 -8.90019,22.52736 -16.17465,21.58928c-7.27447,-0.93807 -11.82706,-12.12485 -10.16852,-24.98635z" fill="url(#color-7)" fill-rule="nonzero" stroke="#000000" stroke-width="2"/><path d="M264.81452,144.34588c0,0 -2.02803,-7.72995 -1.55207,-11.42087c0.72864,-5.65041 13.95917,-38.66075 13.95917,-38.66075l8.92609,1.15105c0,0 -4.46271,7.20382 -5.61565,11.4842c-1.02396,3.8015 -0.96111,12.93231 -0.96111,12.93231l-2.27377,2.3329l-2.59791,-2.05422z" fill="#766058" fill-rule="nonzero" stroke="#000000" stroke-width="1.5"/><path d="M340.26386,170.92716c-7.21969,-0.93101 -11.72789,-12.11206 -10.06934,-24.97356c1.65855,-12.8615 8.85579,-22.53309 16.07547,-21.60207c7.21969,0.93101 11.72789,12.11206 10.06934,24.97356c-1.65855,12.8615 -8.85579,22.53309 -16.07547,21.60207z" data-paper-data="{&quot;index&quot;:null}" fill="url(#color-8)" fill-rule="nonzero" stroke="#000000" stroke-width="2"/><path d="M290.19195,113.14676c0,0 11.95046,-2.75843 16.7555,-0.70213c4.80505,2.05631 10.83536,7.41854 10.83536,7.41854c0,0 -7.7556,-4.356 -11.46639,-5.94402c-3.87791,-1.65954 -16.12448,-0.77241 -16.12448,-0.77241z" fill="#000000" fill-rule="nonzero" stroke="none" stroke-width="0"/><path d="M353.26696,120.32986c-3.97598,0.69518 -11.34445,3.90778 -11.34445,3.90778c0,0 5.91975,-4.5875 11.06821,-5.48768c5.14845,-0.90018 13.34857,1.21851 13.34857,1.21851c0,0 -8.91728,-0.36509 -13.07232,0.3614z" data-paper-data="{&quot;index&quot;:null}" fill="#000000" fill-rule="nonzero" stroke="none" stroke-width="0"/><path d="M380.19762,137.78461l-3.21101,1.40541l-1.70131,-2.99868c0,0 2.51582,-9.33035 2.48825,-13.49687c-0.03106,-4.69139 -2.66541,-13.26413 -2.66541,-13.26413l9.4467,1.21819c0,0 4.6813,37.34494 3.91015,43.32492c-0.50372,3.90619 -4.6552,11.27485 -4.6552,11.27485z" data-paper-data="{&quot;index&quot;:null}" fill="#3a2f2b" fill-rule="nonzero" stroke="#000000" stroke-width="0"/><path d="M382.00202,136.30043l-3.03406,1.32795l-1.60755,-2.83341c0,0 2.37718,-8.81616 2.35113,-12.75306c-0.02934,-4.43284 -2.51852,-12.53314 -2.51852,-12.53314l8.92609,1.15105c0,0 4.42331,35.28688 3.69465,40.93729c-0.47595,3.69091 -4.39866,10.65349 -4.39866,10.65349z" data-paper-data="{&quot;index&quot;:null}" fill="#766058" fill-rule="nonzero" stroke="#000000" stroke-width="1.5"/><path d="M271.21151,92.97983c19.40956,-21.33557 42.24047,-36.14447 65.03089,-33.20555c22.74909,2.93359 42.05402,17.42653 54.75101,42.60225c1.76572,3.50109 2.91311,23.4026 0.79654,24.24825c-3.16464,1.26438 -53.45268,-17.76279 -61.49186,-18.79947c-8.36926,-1.07925 -58.27263,3.76835 -61.7687,2.64705c-2.51741,-0.80739 -0.21597,-14.30683 2.68214,-17.49253z" fill="url(#color-9)" fill-rule="nonzero" stroke="#000000" stroke-width="1"/><path d="M352.74127,82.95093c-1.16897,9.065 -10.29433,15.35908 -20.38204,14.05823c-10.08771,-1.30085 -17.31779,-9.70404 -16.14882,-18.76903c1.16897,-9.065 10.29433,-15.35908 20.38204,-14.05823c10.08771,1.30085 17.31779,9.70404 16.14882,18.76903z" fill="url(#color-10)" fill-rule="nonzero" stroke="none" stroke-width="0"/><path d="M281.46619,109.42574l3.93372,-8.35119c0,0 8.72592,-2.12522 9.3981,-2.22476c5.01616,-0.74291 26.54245,-4.8558 37.87544,-3.39435c10.94568,1.41149 31.21111,10.58974 36.67035,12.88065c0.9094,0.38161 6.95634,5.68481 6.95634,5.68481l0.67673,8.99374c0,0 -8.26311,-4.08918 -9.05639,-4.18921c-1.87369,-0.23627 -5.65437,-1.69448 -10.58758,-3.47751c-7.14111,-2.58102 -17.77915,1.24385 -27.46197,0.02285c-9.86771,-1.24433 -18.74556,-7.76224 -25.77453,-7.15948c-4.84609,0.41557 -8.29909,0.84741 -9.36839,0.71256c-0.72213,-0.09106 -13.26182,0.50193 -13.26182,0.50193z" fill="#141d18" fill-rule="nonzero" stroke="#000000" stroke-width="0"/><path d="M343.17814,90.8879l-18.00742,-3.04919l2.14959,-19.80275l5.42837,0.75149l-1.95442,13.34894l12.98342,1.90725z" data-paper-data="{&quot;index&quot;:null}" fill="url(#color-11)" fill-rule="evenodd" stroke="none" stroke-width="1"/><path d="M324.21299,176.82816c0,0 -27.77207,18.68757 -41.67583,9.99634c-13.90376,-8.69122 -8.97292,-41.65682 -8.97292,-41.65682c0,0 12.26737,16.9374 20.71399,22.21737c8.43629,5.27352 29.93478,9.44312 29.93478,9.44312z" fill="#000000" fill-rule="nonzero" stroke="none" stroke-width="0"/><path d="M353.20966,174.8967c9.38528,-2.92561 25.3366,-16.02309 25.3366,-16.02309c0,0 -3.54648,32.70428 -18.99535,37.52006c-15.44887,4.81578 -37.28198,-19.97708 -37.28198,-19.97708c0,0 21.56691,1.40215 30.94072,-1.51989z" data-paper-data="{&quot;index&quot;:null}" fill="#000000" fill-rule="nonzero" stroke="none" stroke-width="0"/><path d="M308.35004,178.65953c-1.82298,-9.62447 12.74331,-24.97529 12.74331,-24.97529c0,0 2.84487,0.75217 4.29967,0.98873c1.53639,0.24984 4.49526,0.22383 4.49526,0.22383c0,0 8.10613,20.75167 5.25743,26.99408c-6.72952,14.74654 -24.9727,6.39311 -26.79567,-3.23135z" fill="url(#color-12)" fill-rule="nonzero" stroke="#000000" stroke-width="2"/><g fill="#000000" fill-rule="nonzero" stroke="none" stroke-width="1" font-family="Inter, -apple-system, BlinkMacSystemFont, &quot;Segoe UI&quot;, Roboto, Oxygen, Ubuntu, Cantarell, &quot;Fira Sans&quot;, &quot;Droid Sans&quot;, &quot;Helvetica Neue&quot;, sans-serif, emoji" font-weight="400" font-size="16" text-anchor="start"/><g data-paper-data="{&quot;index&quot;:null}" fill="#000000" fill-rule="nonzero" stroke="none" stroke-width="1" font-family="Inter, -apple-system, BlinkMacSystemFont, &quot;Segoe UI&quot;, Roboto, Oxygen, Ubuntu, Cantarell, &quot;Fira Sans&quot;, &quot;Droid Sans&quot;, &quot;Helvetica Neue&quot;, sans-serif, emoji" font-weight="400" font-size="16" text-anchor="start"/><path d="M321.37457,154.84457l1.88657,-4.72574l5.3962,0.89752l0.49472,4.94491c0,0 -2.91722,0.4265 -4.31927,0.19953c-1.31375,-0.21268 -3.45819,-1.31623 -3.45819,-1.31623z" fill="#907b72" fill-rule="nonzero" stroke="#000000" stroke-width="0"/></g></g></g></svg>