<svg version="1.1" xmlns="http://www.w3.org/2000/svg" xmlns:xlink="http://www.w3.org/1999/xlink" width="139.08884" height="249.65963" viewBox="0,0,139.08884,249.65963"><defs><linearGradient x1="319.92305" y1="175.45918" x2="319.92305" y2="307.45912" gradientUnits="userSpaceOnUse" id="color-1"><stop offset="0" stop-color="#4c7b64"/><stop offset="1" stop-color="#2b2b2b"/></linearGradient><linearGradient x1="320.08155" y1="221.49563" x2="320.08155" y2="308.14563" gradientUnits="userSpaceOnUse" id="color-2"><stop offset="0" stop-color="#6b6dd3"/><stop offset="1" stop-color="#000000"/></linearGradient><linearGradient x1="355.96016" y1="194.55737" x2="355.96016" y2="302.11987" gradientUnits="userSpaceOnUse" id="color-3"><stop offset="0" stop-color="#4b7b64"/><stop offset="1" stop-color="#000000"/></linearGradient><linearGradient x1="284.13221" y1="194.4685" x2="284.13221" y2="302.02621" gradientUnits="userSpaceOnUse" id="color-4"><stop offset="0" stop-color="#4b7b64"/><stop offset="1" stop-color="#000000"/></linearGradient><linearGradient x1="310.01089" y1="85.54234" x2="321.8938" y2="205.06672" gradientUnits="userSpaceOnUse" id="color-5"><stop offset="0" stop-color="#000000"/><stop offset="1" stop-color="#ffdac9"/></linearGradient><linearGradient x1="315.85577" y1="145.11238" x2="321.73338" y2="204.23237" gradientUnits="userSpaceOnUse" id="color-6"><stop offset="0" stop-color="#000000"/><stop offset="1" stop-color="#7e647b"/></linearGradient><radialGradient cx="294.03036" cy="146.32196" r="23.48065" gradientUnits="userSpaceOnUse" id="color-7"><stop offset="0" stop-color="#c7c7c7"/><stop offset="1" stop-color="#c79797"/></radialGradient><radialGradient cx="339.97784" cy="143.51257" r="23.48065" gradientUnits="userSpaceOnUse" id="color-8"><stop offset="0" stop-color="#c7c7c7"/><stop offset="1" stop-color="#c79797"/></radialGradient><linearGradient x1="306.90575" y1="59.72244" x2="312.77723" y2="118.78081" gradientUnits="userSpaceOnUse" id="color-9"><stop offset="0" stop-color="#4c7b64"/><stop offset="1" stop-color="#000000"/></linearGradient><linearGradient x1="307.32808" y1="64.02846" x2="310.60259" y2="96.96516" gradientUnits="userSpaceOnUse" id="color-10"><stop offset="0" stop-color="#daffed"/><stop offset="1" stop-color="#161a18"/></linearGradient><linearGradient x1="308.44262" y1="68.9506" x2="310.48416" y2="89.4855" gradientUnits="userSpaceOnUse" id="color-11"><stop offset="0" stop-color="#49705e"/><stop offset="1" stop-color="#13160e"/></linearGradient><linearGradient x1="316.32059" y1="154.33135" x2="319.85331" y2="189.8653" gradientUnits="userSpaceOnUse" id="color-12"><stop offset="0" stop-color="#000000"/><stop offset="1" stop-color="#ffdac9"/></linearGradient></defs><g transform="translate(-248.41908,-58.99219)"><g data-paper-data="{&quot;isPaintingLayer&quot;:true}" stroke-linecap="butt" stroke-linejoin="miter" stroke-miterlimit="10" stroke-dasharray="" stroke-dashoffset="0" style="mix-blend-mode: normal"><path d="M286.67305,307.45912l15.14285,-131.8421l37.78325,-0.15789l13.57389,132z" fill="url(#color-1)" fill-rule="nonzero" stroke="#000000" stroke-width="2"/><path d="M299.53999,204.07182l3.12142,-26.32765l35.83075,-0.14203l2.76735,26.1059c0,0 -7.51543,4.19603 -21.55904,4.50964c-12.48458,0.27879 -20.16049,-4.14586 -20.16049,-4.14586z" fill="#2f4b3d" fill-rule="nonzero" stroke="#000000" stroke-width="0"/><path d="M286.20349,307.39563l9.625,-85.15c0,0 16.14032,5.36651 24.41538,5.23987c8.05433,-0.12327 24.59071,-5.98987 24.59071,-5.98987l9.125,86.65z" fill="url(#color-2)" fill-rule="nonzero" stroke="#000000" stroke-width="1"/><path d="M330.77702,225.84332l-2.72223,-31.57302l7.33053,-1.11111l3.5,30.46191c0,0 1.97994,9.94622 -2.77415,10.47275c-4.71963,0.52271 -5.33415,-8.25053 -5.33415,-8.25053z" data-paper-data="{&quot;index&quot;:null}" fill="#6b6dd3" fill-rule="nonzero" stroke="#000000" stroke-width="1"/><path d="M301.66589,224.12111l3.5,-30.4619l8.21942,0.55556l-2.61111,32.12857c0,0 -1.38805,9.70344 -6.18894,8.77837c-5.22617,-1.00701 -2.91937,-11.0006 -2.91937,-11.0006z" fill="#6b6dd3" fill-rule="nonzero" stroke="#000000" stroke-width="1"/><path d="M338.7852,228.05325c0,1.99603 -1.54283,3.61412 -3.44602,3.61412c-1.90319,0 -3.44603,-1.6181 -3.44603,-3.61412c0,-1.99603 1.54284,-3.61412 3.44603,-3.61412c1.90319,0 3.44602,1.61809 3.44602,3.61412z" fill="#c6a438" fill-rule="nonzero" stroke="none" stroke-width="0"/><path d="M309.37397,228.76993c0,1.99603 -1.54283,3.61412 -3.44602,3.61412c-1.90319,0 -3.44603,-1.6181 -3.44603,-3.61412c0,-1.99603 1.54284,-3.61412 3.44603,-3.61412c1.90319,0 3.44602,1.61809 3.44602,3.61412z" fill="#c6a438" fill-rule="nonzero" stroke="none" stroke-width="0"/><path d="M308.84898,229.41992c0,1.99602 -1.54284,3.61412 -3.44602,3.61412c-1.90319,0 -3.44602,-1.6181 -3.44602,-3.61412c0,-1.99602 1.54284,-3.61412 3.44602,-3.61412c1.90319,0 3.44602,1.6181 3.44602,3.61412z" fill="#edd459" fill-rule="nonzero" stroke="none" stroke-width="0"/><path d="M338.53667,228.70117c0,1.87521 -1.44945,3.39537 -3.23744,3.39537c-1.78799,0 -3.23745,-1.52016 -3.23745,-3.39537c0,-1.87521 1.44946,-3.39537 3.23745,-3.39537c1.78799,0 3.23744,1.52016 3.23744,3.39537z" fill="#edd459" fill-rule="nonzero" stroke="none" stroke-width="0"/><path d="M341.61102,194.55737c0.90641,1.442 13.27591,-0.94411 14.53458,0.88889c0.31862,-0.594 9.30076,33.378 9.72787,35c-0.5926,-0.963 5.60783,49.33333 5.60783,49.33333c0,0 0.50768,22.79733 0.91556,22.33333c-0.88787,-0.49 -11.18842,-0.32367 -12.13122,-0.16667c0.5308,-15.625 -11.71487,-68.29133 -19.1124,-79.33333c2.25366,-15.345 -5.00951,-26.28055 0.45778,-28.05555z" fill="url(#color-3)" fill-rule="evenodd" stroke="none" stroke-width="1"/><path d="M341.52136,194.59507c0.91572,1.34757 13.41232,-0.88229 14.68393,0.83068c0.10385,-0.17908 1.11865,3.00386 2.46032,7.4491c-6.17155,-0.51975 -13.01437,-2.82677 -18.35267,1.21834c-0.00693,0.00525 -0.01384,0.01053 -0.02073,0.01584c-0.98219,-5.21007 -1.76061,-8.6161 1.22914,-9.51396z" fill="#2f4b3d" fill-rule="nonzero" stroke="none" stroke-width="1"/><path d="M387.45586,301.10947c0.01927,0.00566 0.03664,0.01141 0.05206,0.01725c-0.01724,0.01347 -0.0346,0.00734 -0.05206,-0.01725z" fill="#2f4b3d" fill-rule="nonzero" stroke="none" stroke-width="1"/><path d="M298.93917,222.52405c-7.39753,11.042 -19.6432,63.70833 -19.1124,79.33333c-0.9428,-0.157 -11.24335,-0.32333 -12.13122,0.16667c0.40788,0.464 7.11599,-72.62966 6.52339,-71.66666c0.42711,-1.622 9.40925,-35.594 9.72787,-35c1.25867,-1.833 13.62817,0.55311 14.53458,-0.88889c5.46729,1.775 -1.79588,12.71055 0.45778,28.05555z" data-paper-data="{&quot;index&quot;:null}" fill="url(#color-4)" fill-rule="evenodd" stroke="none" stroke-width="1"/><path d="M298.57106,194.50619c2.98975,0.89786 2.21133,4.30389 1.22914,9.51396c-0.00689,-0.00531 -0.0138,-0.01059 -0.02073,-0.01584c-5.3383,-4.04511 -12.18112,-1.73809 -18.35267,-1.21834c1.34167,-4.44524 2.35647,-7.62818 2.46032,-7.4491c1.27161,-1.71297 13.76821,0.51689 14.68393,-0.83068z" data-paper-data="{&quot;index&quot;:null}" fill="#2f4b3d" fill-rule="nonzero" stroke="none" stroke-width="1"/><path d="M254.74998,119.02408c0.17689,-1.9835 -0.72075,-15.31891 12.1138,-29.37916c6.92975,-7.59155 14.59336,-18.202 36.00352,-20.98533c31.85085,-3.68019 44.83166,6.68693 53.86493,14.5492c12.38966,10.78356 14.08898,21.43012 17.07461,26.40868c0.30313,0.50546 -119.06215,9.466 -119.05686,9.40661z" fill="#a8530c" fill-rule="nonzero" stroke="none" stroke-width="1.5"/><path d="M252.00655,151.41913c-2.09247,-21.0471 7.61107,-40.7109 24.01544,-53.15768c0.90645,-1.85335 18.77948,-11.09954 32.22642,-12.54127c13.44693,-1.44174 26.22188,0.30914 36.65413,5.15613c19.01827,8.8362 32.82026,26.43296 34.9478,47.83281c3.29457,33.13848 -22.65346,62.84776 -57.95655,66.35753c-35.30308,3.50977 -66.59267,-20.50905 -69.88724,-53.64752z" fill="url(#color-5)" fill-rule="nonzero" stroke="#000000" stroke-width="2"/><path d="M252.73122,151.40125c-0.07202,-0.72442 10.71326,55.12997 68.68218,50.3867c55.38688,-4.53199 57.46867,-63.95228 57.56946,-62.93843c3.2454,32.64386 -22.38609,61.91674 -57.24951,65.3828c-34.86342,3.46606 -65.75673,-20.18722 -69.00213,-52.83108z" fill="url(#color-6)" fill-rule="nonzero" stroke="#000000" stroke-width="0"/><path d="M256.80407,162.70834c0,0 -3.93492,-7.48655 -4.32456,-11.40576c-0.5965,-5.99991 5.1714,-43.19253 5.1714,-43.19253l9.47819,-0.94231c0,0 -2.88312,8.49231 -3.05092,13.1808c-0.14902,4.16395 2.09376,13.56367 2.09376,13.56367l-1.78799,2.94781l-3.16868,-1.49841z" fill="#3a2f2b" fill-rule="nonzero" stroke="#000000" stroke-width="0"/><path d="M285.83255,148.48785c-1.28293,-12.90438 3.59383,-23.9537 10.89255,-24.67932c7.29872,-0.72563 14.25552,9.14722 15.53845,22.0516c1.28293,12.90438 -3.59383,23.9537 -10.89255,24.67932c-7.29872,0.72563 -14.25552,-9.14722 -15.53845,-22.0516z" fill="url(#color-7)" fill-rule="nonzero" stroke="#000000" stroke-width="2"/><path d="M255.46493,158.3075c0,0 -3.71807,-7.07397 -4.08624,-10.77719c-0.56363,-5.66925 4.8864,-40.81219 4.8864,-40.81219l8.95585,-0.89038c0,0 -2.72424,8.02429 -2.88278,12.4544c-0.14081,3.93447 1.97838,12.81618 1.97838,12.81618l-1.68946,2.78535l-2.99406,-1.41583z" fill="#766058" fill-rule="nonzero" stroke="#000000" stroke-width="1.5"/><path d="M334.96398,167.19961c-7.24376,0.72016 -14.15601,-9.15711 -15.43894,-22.06149c-1.28293,-12.90438 3.54928,-23.94927 10.79304,-24.66943c7.24376,-0.72016 14.15601,9.15711 15.43894,22.06149c1.28293,12.90438 -3.54928,23.94927 -10.79304,24.66943z" data-paper-data="{&quot;index&quot;:null}" fill="url(#color-8)" fill-rule="nonzero" stroke="#000000" stroke-width="2"/><path d="M273.15755,122.19143c0,0 11.02126,-5.38092 16.16612,-4.46052c5.14488,0.92041 12.2286,4.78552 12.2286,4.78552c0,0 -8.53783,-2.49591 -12.51105,-3.20671c-4.15217,-0.74281 -15.88368,2.8817 -15.88368,2.8817z" fill="#000000" fill-rule="nonzero" stroke="none" stroke-width="0"/><path d="M336.22858,114.97348c-3.71699,1.57342 -10.17179,6.36411 -10.17179,6.36411c0,0 4.73347,-5.80369 9.54657,-7.8411c4.81309,-2.03741 13.27974,-1.82142 13.27974,-1.82142c0,0 -8.77012,1.65413 -12.65451,3.29842z" data-paper-data="{&quot;index&quot;:null}" fill="#000000" fill-rule="nonzero" stroke="none" stroke-width="0"/><path d="M366.40036,125.90932l-2.81163,2.09296l-2.33339,-2.53807c0,0 0.34816,-9.65731 -0.61778,-13.71041c-1.08763,-4.56368 -5.58638,-12.32209 -5.58638,-12.32209l9.47819,-0.94231c0,0 12.97787,35.32894 13.57437,41.32886c0.38964,3.91921 -1.99423,12.03396 -1.99423,12.03396z" data-paper-data="{&quot;index&quot;:null}" fill="#3a2f2b" fill-rule="nonzero" stroke="#000000" stroke-width="0"/><path d="M367.82381,124.05664l-2.65669,1.97762l-2.2048,-2.39819c0,0 0.32898,-9.1251 -0.58373,-12.95483c-1.02769,-4.31217 -5.27851,-11.64302 -5.27851,-11.64302l8.95585,-0.89038c0,0 12.26266,33.38198 12.82628,39.05123c0.36817,3.70321 -1.88433,11.37077 -1.88433,11.37077z" data-paper-data="{&quot;index&quot;:null}" fill="#766058" fill-rule="nonzero" stroke="#000000" stroke-width="1.5"/><path d="M250.12014,106.82133c14.1014,-25.16124 33.00715,-44.73487 55.87355,-47.00821c22.82494,-2.26922 44.89965,7.49975 62.94419,29.16597c2.50938,3.01304 8.11277,22.14387 6.24126,23.4448c-2.79824,1.94511 -56.0808,-5.25826 -64.14678,-4.45635c-8.39716,0.83483 -55.92392,16.80522 -59.58276,16.50074c-2.63461,-0.21923 -3.43497,-13.89003 -1.32944,-17.64696z" fill="url(#color-9)" fill-rule="nonzero" stroke="#000000" stroke-width="1"/><path d="M327.29173,78.67481c0.90423,9.09522 -6.56773,17.28408 -16.68907,18.29033c-10.12134,1.00625 -19.05935,-5.55116 -19.96358,-14.64638c-0.90423,-9.09522 6.56773,-17.28408 16.68907,-18.29033c10.12134,-1.00625 19.05935,5.55116 19.96358,14.64638z" fill="url(#color-10)" fill-rule="nonzero" stroke="none" stroke-width="0"/><path d="M263.81764,120.53282l1.95026,-9.02292c0,0 8.0224,-4.03724 8.65485,-4.28572c4.71965,-1.85437 24.76507,-10.71315 36.13585,-11.84361c10.98217,-1.09183 32.79481,3.28272 38.62992,4.28424c0.97201,0.16683 8.05863,3.97067 8.05863,3.97067l2.68638,8.6098c0,0 -8.97214,-2.12157 -9.76756,-2.04024c-1.87873,0.19211 -5.89079,-0.37647 -11.09894,-1.00174c-7.53909,-0.9051 -17.04134,5.21902 -26.75021,6.2118c-9.89426,1.01173 -20.01273,-3.33753 -26.72499,-1.16604c-4.62773,1.49712 -7.89456,2.6961 -8.96674,2.80573c-0.72407,0.07404 -12.80746,3.47804 -12.80746,3.47804z" fill="#141d18" fill-rule="nonzero" stroke="#000000" stroke-width="0"/><path d="M319.76354,88.56296l-18.23132,1.08789l-2.36898,-19.7777l5.45807,-0.49132l1.10453,13.44597l13.07922,-1.06811z" data-paper-data="{&quot;index&quot;:null}" fill="url(#color-11)" fill-rule="evenodd" stroke="none" stroke-width="1"/><path d="M320.6561,176.56641c0,0 -22.84557,24.46617 -38.35046,19.13228c-15.50489,-5.33388 -18.13091,-38.5626 -18.13091,-38.5626c0,0 15.76918,13.7367 25.18849,16.97706c9.4078,3.23641 31.29289,2.45326 31.29289,2.45326z" fill="#000000" fill-rule="nonzero" stroke="none" stroke-width="0"/><path d="M348.47135,168.14921c8.4844,-4.96564 21.0733,-21.32132 21.0733,-21.32132c0,0 3.91586,32.66211 -10.0501,40.83594c-13.96595,8.17383 -40.82525,-11.06023 -40.82525,-11.06023c0,0 21.32801,-3.49481 29.80204,-8.45439z" data-paper-data="{&quot;index&quot;:null}" fill="#000000" fill-rule="nonzero" stroke="none" stroke-width="0"/><path d="M305.61408,181.92595c-3.94529,-8.96595 6.78634,-27.20483 6.78634,-27.20483c0,0 2.9412,0.09162 4.41188,-0.00579c1.55317,-0.10287 4.43004,-0.7951 4.43004,-0.7951c0,0 12.57469,18.39071 11.20624,25.11456c-3.2327,15.88384 -22.88922,11.85711 -26.83451,2.89116z" fill="url(#color-12)" fill-rule="nonzero" stroke="#000000" stroke-width="2"/><g fill="#000000" fill-rule="nonzero" stroke="none" stroke-width="1" font-family="Inter, -apple-system, BlinkMacSystemFont, &quot;Segoe UI&quot;, Roboto, Oxygen, Ubuntu, Cantarell, &quot;Fira Sans&quot;, &quot;Droid Sans&quot;, &quot;Helvetica Neue&quot;, sans-serif, emoji" font-weight="400" font-size="16" text-anchor="start"/><g data-paper-data="{&quot;index&quot;:null}" fill="#000000" fill-rule="nonzero" stroke="none" stroke-width="1" font-family="Inter, -apple-system, BlinkMacSystemFont, &quot;Segoe UI&quot;, Roboto, Oxygen, Ubuntu, Cantarell, &quot;Fira Sans&quot;, &quot;Droid Sans&quot;, &quot;Helvetica Neue&quot;, sans-serif, emoji" font-weight="400" font-size="16" text-anchor="start"/><path d="M312.93593,155.78821l0.77291,-5.02935l5.45964,-0.3418l1.5965,4.70617c0,0 -2.74603,1.07303 -4.16316,1.1679c-1.32788,0.08889 -3.66587,-0.50293 -3.66587,-0.50293z" fill="#907b72" fill-rule="nonzero" stroke="#000000" stroke-width="0"/></g></g></svg>