<svg version="1.1" xmlns="http://www.w3.org/2000/svg" xmlns:xlink="http://www.w3.org/1999/xlink" width="136.34941" height="267.22501" viewBox="0,0,136.34941,267.22501"><defs><linearGradient x1="240.00003" y1="175.50001" x2="240.00003" y2="307.50001" gradientUnits="userSpaceOnUse" id="color-1"><stop offset="0" stop-color="#1a110e"/><stop offset="1" stop-color="#5d3d27"/></linearGradient><linearGradient x1="241.56865" y1="82.22183" x2="243.60953" y2="205.14911" gradientUnits="userSpaceOnUse" id="color-2"><stop offset="0" stop-color="#19110c"/><stop offset="1" stop-color="#714a2f"/></linearGradient><radialGradient cx="301.756" cy="151.67597" r="10.62949" gradientUnits="userSpaceOnUse" id="color-3"><stop offset="0" stop-color="#ffe902"/><stop offset="1" stop-color="#6a6101"/></radialGradient></defs><g transform="translate(-176.05571,-46.38751)"><g data-paper-data="{&quot;isPaintingLayer&quot;:true}" fill-rule="nonzero" stroke-linejoin="miter" stroke-miterlimit="10" stroke-dasharray="" stroke-dashoffset="0" style="mix-blend-mode: normal"><path d="M179.28373,313.61252v-267.22501h123.18203v267.22501z" fill-opacity="0.01" fill="#000000" stroke="none" stroke-width="0" stroke-linecap="butt"/><path d="M206.75004,307.5l15.14285,-131.8421l37.78325,-0.15789l13.57389,132z" fill="url(#color-1)" stroke="#000000" stroke-width="0" stroke-linecap="butt"/><g><g><path d="M177.11064,144.77257c-0.56357,-33.94543 28.29525,-61.95035 64.458,-62.55074c36.16275,-0.60039 65.93532,26.43112 66.49889,60.37654c0.56357,33.94543 -28.29525,61.95035 -64.458,62.55074c-36.16275,0.60039 -65.93532,-26.43112 -66.49889,-60.37654z" fill="url(#color-2)" stroke="#000000" stroke-width="0" stroke-linecap="butt"/><path d="M204.50402,117.94503c0,0 4.89048,-1.30581 10.13056,-2.32132c7.12801,-1.38142 10.9762,-0.30116 10.9762,-0.30116l3.92815,58.25112c0,0 -5.15013,1.60022 -8.00975,1.64769c-3.69175,0.06129 -12.71182,-1.30367 -12.71182,-1.30367z" fill="none" stroke="#36251c" stroke-width="2.5" stroke-linecap="round"/><path d="M271.25355,113.49015c5.66219,0.3834 7.22467,1.33335 7.22467,1.33335l0.09071,56.42143c0,0 -6.67016,0.8681 -9.71387,0.91864c-2.69263,0.04471 -7.62458,-0.63078 -7.62458,-0.63078l1.9923,-58.3494c0,0 4.23675,0.04985 8.03077,0.30675z" fill="none" stroke="#36251c" stroke-width="2.5" stroke-linecap="round"/><path d="M184.08448,126.19401l0.50283,-2.55265" fill="none" stroke="#000000" stroke-width="1.5" stroke-linecap="round"/><path d="M184.61144,125.09486l2.95523,2.8587" fill="none" stroke="#000000" stroke-width="1.5" stroke-linecap="round"/><path d="M181.81307,131.68379l2.35891,-0.22091l1.47158,1.06599" fill="none" stroke="#000000" stroke-width="1.5" stroke-linecap="round"/><path d="M178.50583,140.462l2.51041,-2.04077l-0.4998,2.73433l1.09313,0.16358l0.04224,2.5436l2.00458,0.33018" fill="none" stroke="#000000" stroke-width="1.5" stroke-linecap="round"/><path d="M178.61441,147.00268l1.44444,-0.56919l1.67137,2.15307" fill="none" stroke="#000000" stroke-width="1.5" stroke-linecap="round"/><path d="M179.85534,156.06887l-0.32416,2.36794l-1.26576,0.38449" fill="none" stroke="#000000" stroke-width="1.5" stroke-linecap="round"/><path d="M179.96998,162.97292l1.62611,-0.57221l1.11425,1.43538" fill="none" stroke="#000000" stroke-width="1.5" stroke-linecap="round"/><path d="M188.68416,173.36892l-1.28989,-1.069l-3.82445,-0.48172l1.78972,-1.66533l0.69657,-1.82892l0.13945,-2.54661l-0.03317,-1.99854l2.68004,-2.77054" fill="none" stroke="#000000" stroke-width="1.5" stroke-linecap="round"/><path d="M185.25324,174.69802l0.87826,-1.83193" fill="none" stroke="#000000" stroke-width="1.5" stroke-linecap="round"/><path d="M291.14759,154.54254c-0.09745,-5.86969 4.58187,-10.70702 10.45157,-10.80447c5.8697,-0.09745 10.70702,4.58187 10.80447,10.45157c0.09745,5.86969 -4.58187,10.70702 -10.45157,10.80447c-5.8697,0.09745 -10.70702,-4.58187 -10.80447,-10.45157z" fill="url(#color-3)" stroke="#f6c002" stroke-width="0" stroke-linecap="butt"/><path d="M183.76932,166.48732c0,0 1.35139,3.11335 2.17679,4.45047c0.67973,1.10115 2.42393,3.0026 2.42393,3.0026l-3.22468,1.88503c0,0 -1.70773,-2.56131 -2.31803,-3.8c-0.58172,-1.1807 -1.2621,-3.46651 -1.2621,-3.46651z" fill="#b4b3b4" stroke="#b6b4b2" stroke-width="0.5" stroke-linecap="round"/><path d="M179.02598,162.69959c0,0 -1.12291,-2.73389 -1.45511,-4.0717c-0.32169,-1.29545 -0.5076,-3.83217 -0.5076,-3.83217l3.53637,-0.61154c0,0 -0.05805,2.72028 0.18995,4.04729c0.24109,1.2901 1.27789,3.80714 1.27789,3.80714l-3.04151,0.66098z" fill="#b4b3b4" stroke="#b6b4b2" stroke-width="0.5" stroke-linecap="round"/><path d="M179.63693,137.45561c0,0 -0.39161,3.06324 -0.40304,4.53126c-0.01004,1.29055 0.33808,3.81326 0.33808,3.81326l-3.25508,0.05405c0,0 -0.20494,-0.16076 -0.26118,-4.48712c-0.03789,-2.91465 0.32952,-3.65396 0.32952,-3.65396z" fill="#b4b3b4" stroke="#b6b4b2" stroke-width="0.5" stroke-linecap="round"/><path d="M236.32198,89.00502c1.12705,-0.50978 3.19037,-2.61434 4.44913,-2.6845c1.61599,-0.77046 3.47619,-2.1616 4.8103,-3.00735c0.10207,-0.10552 0.19213,-0.22286 0.2735,-0.34575c0.01452,-0.19495 0.21807,-0.19833 0.21807,-0.19833c1.06575,-0.01769 3.47968,-0.16631 4.13746,0.87104c0.0169,0.01724 0.02901,0.03564 0.03746,0.05434l0.07364,0.05712c0,0 0.15996,0.15473 0.00522,0.31469c-0.07486,0.07737 -0.15093,0.08111 -0.20953,0.06434c-0.88885,1.63436 -2.2622,2.04546 -3.87421,2.88519c-1.18739,0.59134 -4.98055,1.31628 -5.59179,2.53152c-1.8089,0.70985 -3.51224,2.55479 -5.16316,2.73325c-0.34496,-0.00475 -0.59158,0.19881 -0.82189,0.4411c0.63195,0.73685 3.55288,1.04407 4.42724,1.02956c1.85919,0.00626 4.83927,0.24827 6.52312,1.01997c2.19905,0.69006 4.95273,0.11119 7.02273,1.10721c1.38544,-0.04016 6.07968,0.3484 6.13323,2.09051c-0.00554,1.64167 -4.3562,2.27824 -5.58209,2.28807c-0.64095,0.22555 -1.5789,0.25967 -2.29403,0.28415c-0.04001,0.08492 -0.13416,0.11805 -0.13416,0.11805c-1.67706,0.58732 -3.48436,1.39189 -5.04564,2.18841c-1.46126,0.02426 -2.97778,1.53234 -4.25193,2.15877c-0.36331,0.17862 -0.41243,0.71054 -0.9328,0.60782c-0.09751,0.30959 -1.8679,1.8004 -0.92496,2.14701l0.10442,0.18527c1.53882,0.06242 3.19459,1.07724 4.65288,1.53418c2.28233,0.72235 4.11973,1.37361 6.54793,1.36758c0.43369,0.20791 1.02171,0.03317 1.27586,0.60419c0.4979,1.11869 -0.77912,1.11698 -0.81708,1.82747c-0.05477,1.02557 0.77138,1.94596 -0.76226,2.63965c-0.77332,1.61301 -2.1344,2.94586 -2.96755,4.68369c-0.89736,1.87176 -1.30873,3.7962 -2.12981,5.59199c-0.23099,0.45082 -0.3508,1.43517 -0.09191,1.90162l0.01657,0.1357c0.60804,1.1873 1.06025,4.13033 1.07813,4.8849c0.01888,1.13673 0.96731,3.67295 0.01122,4.6025c-0.54781,0.53261 -1.06866,0.31328 -1.46292,1.13562c-1.9592,1.0551 -3.45829,-0.74175 -5.47881,-0.7082c-0.16727,0.00278 -0.33454,0.00555 -0.5018,0.00833c0.39452,0.27968 0.91392,0.92588 1.31274,1.27417c0.18129,-0.07491 0.27557,0.10607 0.27557,0.10607c0.01006,0.03578 0.02236,0.07119 0.03674,0.10624c0.05126,0.01962 0.09719,0.02559 0.13661,0.0148l0.28393,0.18396c0,0 0.15996,0.15473 0.00522,0.31469c-0.00979,0.01013 -0.01962,0.01901 -0.02942,0.02672c0.92919,0.88868 2.97146,1.61142 3.53194,2.68735c1.58355,0.65386 3.4366,2.61345 3.46748,4.47279c-1.208,2.4333 -4.60651,0.20385 -5.33666,-1.4104c-0.11495,-0.05511 -0.19557,-0.11259 -0.25872,-0.17895c0.39572,1.18084 1.6594,2.15833 1.68708,3.82574c0.01224,0.73733 0.80092,1.99822 0.50348,2.57826c-0.98814,1.92708 -2.52307,-1.13352 -2.77908,-1.62498c-0.05548,-1.95689 -2.19823,-3.19621 -2.19046,-5.49907c0.31486,-0.68858 1.00781,-1.05633 0.83303,-1.88724c-0.23538,-1.11906 -2.01885,-1.45059 -2.41009,-2.41488c-1.3545,0.02249 -3.84797,-3.67516 -3.16829,-4.89487c2.21469,-0.2394 4.42606,-0.35368 6.65502,-0.39069c0.54177,-0.009 1.08358,-0.018 1.62535,-0.02698c-0.01206,-0.10219 0.06599,-0.18287 0.06599,-0.18287l0.05882,0.03294c-0.02118,-1.27561 -0.04236,-2.55123 -0.06353,-3.82684c-0.03599,-2.1678 0.57332,-4.50117 0.51089,-6.58861c0.68581,-2.21015 0.37796,-4.51574 1.39229,-6.63147c0.28888,-0.56379 2.22512,-3.95691 1.13336,-3.89558c-0.00702,0.00067 -0.0111,0.00074 -0.0111,0.00074c-1.2211,0.02028 -1.64486,-0.63342 -2.65794,-0.82619c-0.77519,-0.14752 -1.25028,0.51469 -1.98814,0.52693c-0.18794,0.04454 0.41953,2.02948 0.32918,2.42214c-0.24058,1.04552 -0.99852,2.47207 -0.93019,3.4729c-0.53861,1.17797 0.06685,2.99011 -0.70983,4.04219c-0.70762,0.95853 -1.58622,1.15844 -2.12461,0.07974c-0.06376,-2.07451 0.5752,-4.68517 1.39187,-6.47131c1.05118,-2.19262 -0.63104,-3.75474 1.28163,-5.73199c0.05841,-0.12568 -4.11696,-1.64229 -5.03142,-1.94311c-0.76251,-0.72525 -2.27593,-2.06788 -1.60998,-3.36664c0.27248,-0.53142 1.69916,-0.71968 2.17267,-0.9825c1.85389,-0.96574 2.77541,-2.09285 4.6115,-3.02158c0.58087,-0.60047 1.96213,-1.32644 2.78014,-1.43555c1.30787,-0.60951 2.74589,-1.06908 4.11191,-1.78441c0.41111,-0.2133 0.69764,-0.54769 1.09872,-0.75913c0.00866,-0.00456 0.01815,-0.0096 0.02834,-0.01502c-0.47274,0.04718 -1.12566,-0.01157 -1.31267,-0.041c-0.86997,-0.13695 -1.75035,-0.83615 -2.63324,-0.82149c-2.1051,-0.96998 -4.55837,-0.4658 -6.56931,-1.49618c-1.9898,0.05031 -3.87335,-1.51799 -5.82864,-1.50848c-3.05521,-1.39696 -0.61747,-3.30017 1.11564,-4.26215c0.77715,-0.40484 1.57163,-0.72254 2.34903,-1.10419c-0.09637,-0.1938 0.09736,-0.29471 0.09736,-0.29471z" fill="#000000" stroke="none" stroke-width="0.5" stroke-linecap="butt"/><path d="M177.4968,130.36868c0,0 0.75897,-5.01831 2.7266,-7.37122c1.96763,-2.35291 2.02347,-0.62498 3.65858,-0.26423c1.63511,0.36074 0.86366,0.51604 0.63059,1.21051c-0.23305,0.69448 -3.92699,8.61214 -3.92699,8.61214z" fill="#b4b3b4" stroke="#b6b4b2" stroke-width="0.5" stroke-linecap="round"/><path d="M254.23943,82.27673c0.01783,-0.03046 0.03443,-0.06052 0.04968,-0.09008c0.00003,0.02731 -0.01772,0.05757 -0.04968,0.09008z" fill-opacity="0.43044" fill="#9966ff" stroke="none" stroke-width="0.5" stroke-linecap="butt"/></g><path d="M190.92434,144.64125c-0.21946,-13.21861 10.31844,-24.11233 23.53706,-24.3318c13.21861,-0.21946 24.11233,10.31844 24.3318,23.53706c0.21946,13.21861 -10.31844,24.11233 -23.53706,24.3318c-13.21861,0.21946 -24.11233,-10.31844 -24.3318,-23.53706z" fill="#b6b6b6" stroke="#000000" stroke-width="0" stroke-linecap="butt"/><path d="M270.56319,167.26007c-13.21861,0.21946 -24.11233,-10.31844 -24.3318,-23.53706c-0.21946,-13.21861 10.31844,-24.11233 23.53706,-24.3318c13.21861,-0.21946 24.11233,10.31844 24.3318,23.53706c0.21946,13.21861 -10.31844,24.11233 -23.53706,24.3318z" data-paper-data="{&quot;index&quot;:null}" fill="#b6b6b6" stroke="#000000" stroke-width="0" stroke-linecap="butt"/><path d="M204.60457,144.41413c-0.09402,-5.66324 4.42072,-10.33043 10.08396,-10.42445c5.66324,-0.09402 10.33044,4.42072 10.42446,10.08396c0.09402,5.66324 -4.42073,10.33043 -10.08397,10.42445c-5.66324,0.09402 -10.33043,-4.42072 -10.42445,-10.08396z" fill="none" stroke="#ffffff" stroke-width="2" stroke-linecap="butt"/><path d="M270.33606,153.57985c-5.66324,0.09402 -10.33044,-4.42072 -10.42446,-10.08396c-0.09402,-5.66324 4.42074,-10.33043 10.08397,-10.42445c5.66324,-0.09402 10.33043,4.42072 10.42445,10.08396c0.09402,5.66324 -4.42073,10.33043 -10.08396,10.42445z" data-paper-data="{&quot;index&quot;:null}" fill="none" stroke="#ffffff" stroke-width="2" stroke-linecap="butt"/><path d="M234.75347,203.0032c0,0 -0.4385,-3.67473 8.97957,-4.02611c9.10123,-0.33957 8.46227,3.73653 8.46227,3.73653l-17.44183,0.28958z" fill="#000000" stroke="#000000" stroke-width="1.5" stroke-linecap="round"/></g></g></g></svg>