<svg version="1.1" xmlns="http://www.w3.org/2000/svg" xmlns:xlink="http://www.w3.org/1999/xlink" width="132.15896" height="267.22501" viewBox="0,0,132.15896,267.22501"><g transform="translate(-170.30682,-46.38751)"><g data-paper-data="{&quot;isPaintingLayer&quot;:true}" fill-rule="nonzero" stroke-linejoin="miter" stroke-miterlimit="10" stroke-dasharray="" stroke-dashoffset="0" style="mix-blend-mode: normal"><path d="M179.28375,313.61252v-267.22501h123.18203v267.22501z" fill-opacity="0.01" fill="#000000" stroke="none" stroke-width="0" stroke-linecap="butt"/><g stroke="#000000" stroke-linecap="butt"><path d="M206.75006,307.5l15.14285,-131.8421l37.78325,-0.15789l13.57389,132z" fill="#b2764d" stroke-width="2"/><path d="M219.70029,204.11263l3.12142,-26.32765l35.83075,-0.14203l2.76735,26.1059c0,0 -7.51543,4.19603 -21.55904,4.50964c-12.48458,0.27879 -20.16049,-4.14586 -20.16049,-4.14586z" fill="#a06138" stroke-width="0"/></g><path d="M171.5361,137.17949c0,-33.30185 28.7599,-60.29833 64.23702,-60.29833c35.47712,0 64.23702,26.99649 64.23702,60.29833c0,33.30185 -28.7599,60.29833 -64.23702,60.29833c-35.47712,0 -64.23702,-26.99649 -64.23702,-60.29833z" fill="#000000" stroke="#000000" stroke-width="2" stroke-linecap="butt"/><g><path d="M171.48716,137.17949c0,-33.30185 26.03416,-60.29833 58.14891,-60.29833c32.11475,0 58.14891,26.99649 58.14891,60.29833c0,33.30185 -26.03416,60.29833 -58.14891,60.29833c-32.11475,0 -58.14891,-26.99649 -58.14891,-60.29833z" fill="#b2764d" stroke="#000000" stroke-width="2" stroke-linecap="butt"/><path d="M172.14169,136.9c0,-0.72799 4.7132,55.91939 57.35544,56.93429c50.29745,0.9697 57.49404,-57.95314 57.49404,-56.93429c0,32.80479 -25.70994,59.39833 -57.42474,59.39833c-31.7148,0 -57.42474,-26.59354 -57.42474,-59.39833z" fill="#a06138" stroke="#000000" stroke-width="0" stroke-linecap="butt"/><path d="M196.2029,111.74865c0,0 4.36109,-1.34167 9.0283,-2.35894c6.34874,-1.38379 9.7493,-0.13029 9.7493,-0.13029l2.62887,63.89022c0,0 -4.59596,1.65949 -7.13549,1.65949c-3.2785,0 -11.26656,-1.65949 -11.26656,-1.65949z" fill="none" stroke="#9d6138" stroke-width="2.5" stroke-linecap="round"/><path d="M255.52994,108.08209c5.02134,0.52304 6.39454,1.59221 6.39454,1.59221l-0.75111,61.81586c0,0 -5.93468,0.82975 -8.63769,0.82975c-2.39122,0 -6.75994,-0.82975 -6.75994,-0.82975l2.62887,-63.89022c0,0 3.76072,0.13168 7.12534,0.48215z" fill="none" stroke="#9d6138" stroke-width="2.5" stroke-linecap="round"/><path d="M195.19305,108.46716c0,0 6.0731,-5.16922 10.67913,-6.36355c4.60603,-1.19433 11.16516,0.69937 11.16516,0.69937c0,0 -7.27631,-0.06028 -10.83338,0.86207c-3.71729,0.96388 -11.0109,4.80211 -11.0109,4.80211z" fill="#000000" stroke="none" stroke-width="0" stroke-linecap="butt"/><path d="M253.06816,103.66506c-3.55708,-0.92235 -10.83338,-0.86207 -10.83338,-0.86207c0,0 6.55913,-1.8937 11.16516,-0.69937c4.60602,1.19433 10.67912,6.36355 10.67912,6.36355c0,0 -7.29361,-3.83822 -11.0109,-4.80211z" data-paper-data="{&quot;index&quot;:null}" fill="#000000" stroke="none" stroke-width="0" stroke-linecap="butt"/></g><path d="M183.75312,137.27563c0,-12.968 9.51631,-23.48065 21.25526,-23.48065c11.73896,0 21.25526,10.51265 21.25526,23.48065c0,12.968 -9.51631,23.48065 -21.25526,23.48065c-11.73896,0 -21.25526,-10.51265 -21.25526,-23.48065z" fill="#b2764d" stroke="#000000" stroke-width="2" stroke-linecap="butt"/><path d="M218.25746,176.65643h22.72982" fill="none" stroke="#000000" stroke-width="2" stroke-linecap="round"/><path d="M254.12447,160.75627c-11.73896,0 -21.25526,-10.51265 -21.25526,-23.48065c0,-12.968 9.51631,-23.48065 21.25526,-23.48065c11.73896,0 21.25526,10.51265 21.25526,23.48065c0,12.968 -9.51631,23.48065 -21.25526,23.48065z" data-paper-data="{&quot;index&quot;:null}" fill="#b2764d" stroke="#000000" stroke-width="2" stroke-linecap="butt"/><g stroke-linecap="butt"><path d="M274.46665,152.29889c0,-5.50854 4.2548,-9.97411 9.50336,-9.97411c5.24856,0 9.50336,4.46556 9.50336,9.97411c0,5.50854 -4.2548,9.97411 -9.50336,9.97411c-5.24856,0 -9.50336,-4.46556 -9.50336,-9.97411z" fill="#ffe902" stroke="#f6c002" stroke-width="2"/><path d="M289.46358,148.82548c0.99593,2.07517 0.9611,4.3818 -0.07778,5.15199c-1.03888,0.7702 -2.68843,-0.28769 -3.68436,-2.36286c-0.99593,-2.07517 -0.96109,-4.3818 0.07779,-5.15199c1.03888,-0.7702 2.68842,0.28769 3.68435,2.36286z" fill="#fff26a" stroke="none" stroke-width="0"/></g><g fill="#b4b3b4" stroke="#b6b4b2" stroke-width="0.5" stroke-linecap="round"><path d="M177.35574,158.5851c0,0 1.21106,3.07549 1.95947,4.40033c0.61634,1.09105 2.21216,2.98433 2.21216,2.98433l-3.0339,1.79627c0,0 -1.55163,-2.53986 -2.10113,-3.76467c-0.52378,-1.16746 -1.1224,-3.4204 -1.1224,-3.4204z"/><path d="M172.99452,154.79298c0,0 -1.00403,-2.6996 -1.29288,-4.01709c-0.27971,-1.27578 -0.4137,-3.76675 -0.4137,-3.76675l3.30464,-0.5422c0,0 -0.09618,2.66703 0.11438,3.97255c0.20469,1.26922 1.13184,3.75473 1.13184,3.75473l-2.84428,0.59875z"/><path d="M173.95432,130.04437c0,0 -0.41229,2.99796 -0.44565,4.43757c-0.02933,1.26557 0.25602,3.74544 0.25602,3.74544h-3.03391c0,0 -0.18847,-0.161 -0.17396,-4.40509c0.00978,-2.85922 0.36357,-3.57833 0.36357,-3.57833z"/><path d="M172.06981,123.05888c0,0 0.78484,-4.90945 2.65467,-7.18508c1.86983,-2.27563 1.89513,-0.58001 3.41314,-0.19958c1.518,0.38043 0.79676,0.52018 0.56886,1.19751c-0.2279,0.67733 -3.79238,8.38259 -3.79238,8.38259z"/></g></g></g></svg>