<svg version="1.1" xmlns="http://www.w3.org/2000/svg" xmlns:xlink="http://www.w3.org/1999/xlink" width="34.17311" height="34.17311" viewBox="0,0,34.17311,34.17311"><g transform="translate(-222.91345,-162.91345)"><g data-paper-data="{&quot;isPaintingLayer&quot;:true}" stroke-miterlimit="10" stroke-dasharray="" stroke-dashoffset="0" style="mix-blend-mode: normal"><path d="M229.98312,162.91346h20.03379c3.9166,0 7.06966,3.15307 7.06966,7.06966v20.03379c0,3.91659 -3.15306,7.06966 -7.06966,7.06966h-20.03379c-3.91659,0 -7.06966,-3.15307 -7.06966,-7.06966v-20.03379c0,-3.91659 3.15307,-7.06966 7.06966,-7.06966z" fill="#9f4848" fill-rule="evenodd" stroke="none" stroke-width="4.43922" stroke-linecap="round" stroke-linejoin="round"/><g data-paper-data="{&quot;index&quot;:null}" fill-rule="nonzero" stroke="none" stroke-width="0" stroke-linecap="butt" stroke-linejoin="miter"><path d="M247.93352,185.86317l3.35156,3.35156l-2.01901,2.01901l-3.35156,-3.35156z" fill="#6f3332"/><path d="M251.49446,187.22863l1.53445,1.53445l-4.21451,4.21451l-1.53445,-1.53445z" fill="#c74f4f"/></g><g data-paper-data="{&quot;index&quot;:null}" fill-rule="nonzero" stroke="none" stroke-width="0" stroke-linecap="butt" stroke-linejoin="miter"><path d="M249.35918,178.40993h4.73982v2.85532h-4.73982z" fill="#6f3332"/><path d="M252.84266,176.85749l2.17004,-0.00001v5.96021h-2.17004z" fill="#c74f4f"/></g><g data-paper-data="{&quot;index&quot;:null}" fill-rule="nonzero" stroke="none" stroke-width="0" stroke-linecap="butt" stroke-linejoin="miter"><path d="M241.43882,189.53681v4.73982h-2.85532v-4.73982z" fill="#6f3332"/><path d="M242.99127,193.0203v2.17004h-5.96021v-2.17004z" fill="#c74f4f"/></g><g fill-rule="nonzero" stroke="none" stroke-width="0" stroke-linecap="butt" stroke-linejoin="miter"><path d="M233.49022,187.8072l-3.35156,3.35156l-2.01901,-2.01902l3.35156,-3.35156z" fill="#6f3332"/><path d="M232.12476,191.36814l-1.53445,1.53445l-4.21451,-4.21451l1.53445,-1.53445z" fill="#c74f4f"/></g><g fill-rule="nonzero" stroke="none" stroke-width="0" stroke-linecap="butt" stroke-linejoin="miter"><path d="M232.31669,174.01172l-3.35156,-3.35156l2.01902,-2.01902l3.35156,3.35156z" fill="#6f3332"/><path d="M228.75575,172.64626l-1.53445,-1.53445l4.21451,-4.21451l1.53445,1.53445z" fill="#c74f4f"/></g><g data-paper-data="{&quot;index&quot;:null}" fill-rule="nonzero" stroke="none" stroke-width="0" stroke-linecap="butt" stroke-linejoin="miter"><path d="M244.85791,171.61737l3.35156,-3.35156l2.01902,2.01901l-3.35156,3.35156z" fill="#6f3332"/><path d="M246.22336,168.05642l1.53445,-1.53445l4.21451,4.21451l-1.53445,1.53445z" fill="#c74f4f"/></g><g fill-rule="nonzero" stroke="none" stroke-width="0" stroke-linecap="butt" stroke-linejoin="miter"><path d="M230.6408,181.59007h-4.73982v-2.85532h4.73982z" fill="#6f3332"/><path d="M227.15732,183.14251l-2.17004,0.00001v-5.96021h2.17004z" fill="#c74f4f"/></g><g fill-rule="nonzero" stroke="none" stroke-width="0" stroke-linecap="butt" stroke-linejoin="miter"><path d="M238.56116,170.46319v-4.73982h2.85532v4.73982z" fill="#6f3332"/><path d="M237.00871,166.97968v-2.17004h5.96021v2.17004z" fill="#c74f4f"/></g><path d="M230.0838,180.22919c0,-5.56018 4.50742,-10.06761 10.06761,-10.06761c5.56018,0 10.06761,4.50742 10.06761,10.06761c0,5.56018 -4.50742,10.06761 -10.06761,10.06761c-5.56018,0 -10.06761,-4.50742 -10.06761,-10.06761z" fill="#6f3332" fill-rule="nonzero" stroke="#c74f4f" stroke-width="3" stroke-linecap="butt" stroke-linejoin="miter"/></g></g></svg>