<svg version="1.1" xmlns="http://www.w3.org/2000/svg" xmlns:xlink="http://www.w3.org/1999/xlink" width="315.92036" height="307.90137" viewBox="0,0,315.92036,307.90137"><defs><linearGradient x1="240.00009" y1="175.50005" x2="240.00009" y2="307.50005" gradientUnits="userSpaceOnUse" id="color-1"><stop offset="0" stop-color="#12201e"/><stop offset="1" stop-color="#345756"/></linearGradient><linearGradient x1="240.42699" y1="196.10054" x2="240.42699" y2="228.8309" gradientUnits="userSpaceOnUse" id="color-2"><stop offset="0" stop-color="#203535"/><stop offset="1" stop-color="#274746"/></linearGradient><linearGradient x1="239.57317" y1="184.43145" x2="239.57317" y2="207.48501" gradientUnits="userSpaceOnUse" id="color-3"><stop offset="0" stop-color="#203535"/><stop offset="1" stop-color="#274746"/></linearGradient><linearGradient x1="325.88095" y1="63.32012" x2="334.50544" y2="106.48515" gradientUnits="userSpaceOnUse" id="color-4"><stop offset="0" stop-color="#1d1c17"/><stop offset="1" stop-color="#616051"/></linearGradient><linearGradient x1="308.26009" y1="49.42569" x2="324.01973" y2="128.30185" gradientUnits="userSpaceOnUse" id="color-5"><stop offset="0" stop-color="#0e1411"/><stop offset="1" stop-color="#244343"/></linearGradient><radialGradient cx="253.37176" cy="174.80276" r="71.31655" gradientUnits="userSpaceOnUse" id="color-6"><stop offset="0" stop-color="#000000"/><stop offset="1" stop-color="#345756"/></radialGradient><linearGradient x1="237.00314" y1="81.85498" x2="260.63161" y2="200.11424" gradientUnits="userSpaceOnUse" id="color-7"><stop offset="0" stop-color="#0f1b1b"/><stop offset="1" stop-color="#345756"/></linearGradient><linearGradient x1="217.57315" y1="123.46555" x2="226.77426" y2="169.51665" gradientUnits="userSpaceOnUse" id="color-8"><stop offset="0" stop-color="#784752"/><stop offset="1" stop-color="#4c1e20"/></linearGradient><linearGradient x1="270.77989" y1="112.8347" x2="279.981" y2="158.8858" gradientUnits="userSpaceOnUse" id="color-9"><stop offset="0" stop-color="#190505"/><stop offset="1" stop-color="#000000"/></linearGradient><linearGradient x1="233.41557" y1="88.51777" x2="239.67857" y2="119.86371" gradientUnits="userSpaceOnUse" id="color-10"><stop offset="0" stop-color="#141e20"/><stop offset="1" stop-color="#0e1717"/></linearGradient><linearGradient x1="273.2166" y1="52.66603" x2="276.4432" y2="68.81492" gradientUnits="userSpaceOnUse" id="color-11"><stop offset="0" stop-color="#3b5456"/><stop offset="1" stop-color="#253e3d"/></linearGradient><linearGradient x1="314.99618" y1="7.17436" x2="317.2473" y2="18.44104" gradientUnits="userSpaceOnUse" id="color-12"><stop offset="0" stop-color="#3b5456"/><stop offset="1" stop-color="#253e3d"/></linearGradient><linearGradient x1="270.41268" y1="64.53195" x2="272.17604" y2="73.35752" gradientUnits="userSpaceOnUse" id="color-13"><stop offset="0" stop-color="#3b5456"/><stop offset="1" stop-color="#253e3d"/></linearGradient><linearGradient x1="337.3385" y1="62.31085" x2="339.06436" y2="70.94862" gradientUnits="userSpaceOnUse" id="color-14"><stop offset="0" stop-color="#3b5456"/><stop offset="1" stop-color="#253e3d"/></linearGradient><linearGradient x1="290.15144" y1="22.48796" x2="305.24572" y2="98.03401" gradientUnits="userSpaceOnUse" id="color-15"><stop offset="0" stop-color="#404135"/><stop offset="1" stop-color="#1b1816"/></linearGradient><radialGradient cx="248.43426" cy="199.97144" r="2.15987" gradientUnits="userSpaceOnUse" id="color-16"><stop offset="0" stop-color="#000000"/><stop offset="1" stop-color="#350604"/></radialGradient><radialGradient cx="269.4716" cy="196.29134" r="4.21522" gradientUnits="userSpaceOnUse" id="color-17"><stop offset="0" stop-color="#000000"/><stop offset="1" stop-color="#350604"/></radialGradient><radialGradient cx="226.86303" cy="186.24885" r="16.49954" gradientUnits="userSpaceOnUse" id="color-18"><stop offset="0" stop-color="#000000"/><stop offset="1" stop-color="#350604"/></radialGradient><linearGradient x1="251.78469" y1="132.9269" x2="253.81571" y2="143.09206" gradientUnits="userSpaceOnUse" id="color-19"><stop offset="0" stop-color="#3b5456"/><stop offset="1" stop-color="#253e3d"/></linearGradient><linearGradient x1="273.17782" y1="102.5944" x2="282.42817" y2="158.88641" gradientUnits="userSpaceOnUse" id="color-20"><stop offset="0" stop-color="#1b1816"/><stop offset="1" stop-color="#404135"/></linearGradient><linearGradient x1="292.98028" y1="123.85821" x2="296.97582" y2="143.85563" gradientUnits="userSpaceOnUse" id="color-21"><stop offset="0" stop-color="#3b5456"/><stop offset="1" stop-color="#253e3d"/></linearGradient><linearGradient x1="284.82215" y1="129.51511" x2="288.04035" y2="145.62213" gradientUnits="userSpaceOnUse" id="color-22"><stop offset="0" stop-color="#3b5456"/><stop offset="1" stop-color="#253e3d"/></linearGradient><linearGradient x1="190.29426" y1="55.6066" x2="192.54538" y2="66.87328" gradientUnits="userSpaceOnUse" id="color-23"><stop offset="0" stop-color="#3b5456"/><stop offset="1" stop-color="#253e3d"/></linearGradient><linearGradient x1="185.00796" y1="73.13119" x2="298.36024" y2="50.48315" gradientUnits="userSpaceOnUse" id="color-24"><stop offset="0" stop-color="#213331"/><stop offset="1" stop-color="#172322"/></linearGradient><linearGradient x1="209.58182" y1="78.12799" x2="286.99903" y2="62.65987" gradientUnits="userSpaceOnUse" id="color-25"><stop offset="0" stop-color="#213331"/><stop offset="1" stop-color="#121b1b"/></linearGradient><linearGradient x1="180.75738" y1="64.24835" x2="191.95106" y2="120.27213" gradientUnits="userSpaceOnUse" id="color-26"><stop offset="0" stop-color="#404135"/><stop offset="1" stop-color="#1b1816"/></linearGradient></defs><g transform="translate(-31.44413,-5.71114)"><g data-paper-data="{&quot;isPaintingLayer&quot;:true}" fill-rule="nonzero" stroke-linejoin="miter" stroke-miterlimit="10" stroke-dasharray="" stroke-dashoffset="0" style="mix-blend-mode: normal"><path d="M178.409,313.61251v-267.22501h123.18203v267.22501z" fill-opacity="0.01" fill="#000000" stroke="none" stroke-width="0" stroke-linecap="butt"/><g stroke="#000000" stroke-width="0"><path d="M206.7501,307.50004l15.14285,-131.8421l37.78325,-0.15789l13.57389,132z" fill="url(#color-1)" stroke-linecap="butt"/><g stroke-linecap="round"><path d="M262.4844,196.10054l6.54607,27.89196l-29.31501,4.8384l-27.89196,-4.8384l4.8384,-21.91511z" fill="url(#color-2)"/><path d="M266.46898,184.43145l1.70767,17.07671l-29.0304,5.97685l-25.89967,-5.12301l-2.27689,-15.08443z" fill="url(#color-3)"/></g></g><path d="M31.44413,61.27491l2.64784,3.53045" fill="none" stroke="none" stroke-width="0" stroke-linecap="round"/><g><path d="M327.32512,63.03158l11.84057,6.64524l3.9467,3.04945l3.23883,12.86941l-1.79939,11.87359l-9.2441,8.85557l-12.73956,-4.46317l-7.31472,-11.55441l-0.38283,-11.93819l3.08232,-7.95817z" fill="url(#color-4)" stroke="#000000" stroke-width="0" stroke-linecap="round"/><path d="M282.05605,46.59531c0,0 9.09401,6.88767 10.11954,3.52416c2.7864,-9.13887 -1.63307,-23.47785 -1.63307,-23.47785l5.72444,-1.97825c0,0 3.78976,26.47308 1.51867,30.59448c-2.2711,4.12142 -16.26639,1.18062 -16.26639,1.18062z" fill="#101b1b" stroke="#000000" stroke-width="0" stroke-linecap="round"/><path d="M298.53282,78.69413c0,0 23.20986,44.10806 27.33754,39.15332c4.24396,-5.09435 -2.21297,-69.31217 -2.21297,-69.31217l6.41175,-3.46708c0,0 7.85685,79.71312 -1.90949,82.40049c-8.60993,2.36917 -35.82858,-44.25644 -35.82858,-44.25644z" fill="url(#color-5)" stroke="#000000" stroke-width="0" stroke-linecap="round"/><path d="M310.51086,147.14501l13.26461,16.03428l-24.49094,5.46827l18.51714,12.11026l-60.25794,3.41602l-62.63826,20.27656l10.23055,-17.85411l-21.22913,4.52908l7.7991,-22.82996z" fill="url(#color-6)" stroke="#000000" stroke-width="0" stroke-linecap="round"/><path d="M185.8254,153.57055c-6.52483,-32.65639 16.38823,-64.76455 51.17775,-71.71557c34.78951,-6.95102 68.28138,13.8873 74.80621,46.54369c6.52483,32.65639 -16.38822,64.76455 -51.17773,71.71558c-34.78951,6.95102 -68.28138,-13.8873 -74.80621,-46.54368z" fill="url(#color-7)" stroke="#000000" stroke-width="0" stroke-linecap="butt"/><path d="M199.14815,151.09165c-2.5408,-12.71666 5.70833,-25.08529 18.425,-27.62611c12.71666,-2.5408 25.08529,5.70833 27.62611,18.425c2.5408,12.71666 -5.70833,25.08529 -18.425,27.62611c-12.71666,2.5408 -25.08529,-5.70833 -27.62611,-18.425z" fill="url(#color-8)" stroke="#000000" stroke-width="0" stroke-linecap="butt"/><path d="M203.13128,134.9662c-0.68722,-3.43952 1.62293,-4.33987 3.26969,-6.00622c2.63885,-2.67025 6.07788,-5.06663 11.5895,-6.16786c5.32447,-1.06384 8.54815,0.00393 11.75294,1.29315c2.18289,0.87813 5.07822,0.77767 5.80284,4.40435c1.78848,8.95117 -4.01805,17.65732 -12.96919,19.44579c-8.95116,1.78847 -17.65731,-4.01804 -19.44578,-12.96919z" fill="#000000" stroke="none" stroke-width="0" stroke-linecap="butt"/><path d="M279.981,158.8858c-12.71666,2.5408 -25.08529,-5.70833 -27.6261,-18.42499c-2.5408,-12.71666 5.70833,-25.08529 18.42499,-27.6261c12.71666,-2.5408 25.08529,5.70832 27.62611,18.425c2.5408,12.71666 -5.70833,25.08529 -18.425,27.62611z" data-paper-data="{&quot;index&quot;:null}" fill="url(#color-9)" stroke="#000000" stroke-width="0" stroke-linecap="butt"/><path d="M246.95795,87.39435l-4.69257,31.95251l-8.15187,-20.20827l-11.13919,6.02339l3.59386,-15.27607" fill="url(#color-10)" stroke="#000000" stroke-width="0" stroke-linecap="round"/><path d="M271.58075,64.51404l-3.7158,-10.77874l10.32668,3.79493l1.91325,10.55309z" fill="url(#color-11)" stroke="#000000" stroke-width="0" stroke-linecap="round"/><path d="M309.92395,19.90427l3.68219,-9.91361l8.71339,-4.27952l-3.26949,11.97914z" fill="url(#color-12)" stroke="#000000" stroke-width="0" stroke-linecap="round"/><path d="M280.22317,67.14859l-7.48379,6.09638l-9.83855,-3.30663l8.63852,-5.63149z" fill="url(#color-13)" stroke="#000000" stroke-width="0" stroke-linecap="round"/><path d="M339.44159,62.08593l7.9229,5.44685l-9.05123,3.56592l-9.61252,-7.06202z" fill="url(#color-14)" stroke="#000000" stroke-width="0" stroke-linecap="round"/><path d="M297.2523,73.77647l-15.43034,-6.35709l-0.80262,-22.39102l8.82182,17.90428l19.81854,2.07139l10.28988,-11.49605l-5.19133,-15.48296l-15.17717,-11.65217l-8.57389,4.33533l2.67447,-8.92557l15.93615,-1.61072l19.08991,14.17369l3.47636,17.39896l-3.93577,11.79984l-42.92314,38.46982l-11.64845,-4.49047l-6.9068,-10.94461z" fill="url(#color-15)" stroke="#000000" stroke-width="0" stroke-linecap="round"/><g stroke="#000000" stroke-width="0" stroke-linecap="round"><path d="M239.17379,193.82007c0,0 -0.00064,-13.33149 16.79891,-16.11023c19.12274,-3.163 21.9661,11.55901 21.9661,11.55901c0,0 -3.75409,5.22558 -18.37072,8.1594c-20.42378,4.09942 -20.39429,-3.60818 -20.39429,-3.60818z" fill="#000000"/><path d="M242.40662,194.85527c0,0 2.66756,1.1603 4.53947,1.26791c4.86896,0.27988 8.86371,-0.27195 12.66696,-0.9895c3.58048,-0.67552 6.98384,-1.43909 11.01725,-3.63274c1.57124,-0.85456 5.1102,-3.13774 5.1102,-3.13774l0.61385,2.23091c0,0 -3.5085,2.17385 -5.24453,3.02714c-4.57659,2.24945 -8.59441,2.89031 -12.58829,3.61299c-3.86284,0.69897 -7.69291,1.52667 -12.58928,0.93332c-1.78143,-0.21588 -3.62283,-2.11608 -3.62283,-2.11608l0.09721,-1.19621z" fill="#9d9d9d"/></g><path d="M247.53911,198.45077c1.13207,-0.5905 3.09723,1.76994 2.8445,2.72606c-0.27111,1.02562 -2.17832,1.05857 -2.91485,0.61191c-0.94759,-0.57465 -0.72303,-2.221 -0.90878,-3.13549c0,0 -0.09797,-0.49031 0.39235,-0.58827c0.45673,-0.09126 0.57301,0.32795 0.58679,0.3858z" fill="url(#color-16)" stroke="none" stroke-width="0.5" stroke-linecap="butt"/><path d="M267.32961,196.0835l0.72695,-0.22062c1.69726,2.18668 2.55233,0.09982 2.94248,-1.64091l-0.09302,-0.46551c-0.05411,-0.27078 0.12156,-0.53416 0.39234,-0.58826c0.19573,-0.03911 0.3876,0.04183 0.49936,0.19196l0.3101,0.39887l-0.02216,0.01721l0.05941,0.03789c0.58691,1.38293 2.24502,1.68391 1.27624,3.08576c-1.91906,0.72751 -3.33056,2.00097 -5.48097,2.43063c-0.64912,0.12969 -1.86279,0.62123 -2.23211,-0.38077c-0.18244,-0.49495 0.79112,-1.94301 0.62599,-2.75006c0,0 -0.09798,-0.49031 0.39234,-0.58826c0.49031,-0.09797 0.58827,0.39234 0.58827,0.39234c0.005,0.02552 0.00995,0.05213 0.0148,0.07974z" fill="url(#color-17)" stroke="none" stroke-width="0.5" stroke-linecap="butt"/><path d="M225.42207,166.45491c1.73469,-0.02485 3.37514,2.9434 2.45648,4.44664c-0.4524,0.74029 -1.48081,1.18319 -2.15161,1.68837c-0.61385,0.13554 -1.22601,0.25785 -1.84482,0.3686l-0.53175,-0.13472c-0.46879,0.23026 -1.05807,0.35576 -1.76187,0.32212c-2.4365,0.46396 -4.62087,-2.91755 -3.29769,-5.10458c0.93517,-1.5457 3.18345,-0.93445 4.30977,0.13979c0.61838,-0.92812 1.65734,-1.70955 2.82148,-1.72622z" fill="#350604" stroke="none" stroke-width="0.5" stroke-linecap="butt"/><path d="M231.33384,197.98461c-0.19092,-0.2951 -0.52842,-0.61027 -0.5923,-0.92857c-0.37912,-1.88911 -0.75503,-3.77888 -1.13256,-5.66831c-1.33556,-6.6844 -2.26129,-13.42493 -3.58598,-20.05494c0,0 -0.19593,-0.98062 0.78468,-1.17655c0.98061,-0.19592 1.17655,0.78468 1.17655,0.78468c1.32472,6.63013 2.25018,13.36932 3.58599,20.05494c0.44486,2.22654 0.94719,4.45008 1.33419,6.68744c0.01467,0.0848 0.0816,0.28321 0.15064,0.52392c1.6438,0.31437 3.01209,1.01369 1.81554,2.90802c-0.78137,1.23703 -3.00241,0.10151 -4.05465,-1.00158c-0.16547,-0.04014 -0.32766,-0.08275 -0.48339,-0.1244c-0.92895,0.48195 -2.75614,0.22108 -4.13526,-0.48885c-0.86162,-0.44354 -1.45617,-3.67201 -1.99824,-4.80289c-1.89271,-3.99767 -2.96255,-7.66414 -3.82214,-12.04151c0.00057,-2.99253 -0.22647,-6.31388 -0.74504,-9.28013c-0.32034,-0.2124 -0.16254,-0.59546 -0.16254,-0.59546l0.03676,-0.08703c-0.01241,-0.06399 -0.02497,-0.12776 -0.03768,-0.19133c0,0 -0.08706,-0.43572 0.31371,-0.56774c1.17841,-3.14075 4.10337,-0.2206 3.99555,2.35665c-0.17399,3.15037 0.80418,8.5903 2.15928,11.4525c0.51304,2.48828 1.31203,5.1832 2.33505,7.49914c0.57776,1.30796 1.50609,2.41688 1.74542,3.84096c0.2337,0.30059 0.41789,0.57695 0.55775,0.83023c0.22863,0.02336 0.48561,0.04552 0.75859,0.07083z" fill="url(#color-18)" stroke="none" stroke-width="0.5" stroke-linecap="butt"/><g stroke="#000000" stroke-width="0" stroke-linecap="round"><path d="M261.80195,132.48083l-4.76185,9.96698l-13.33155,0.64035l8.09636,-10.1653z" fill="url(#color-19)"/><path d="M279.41451,156.98112l-11.56357,-9.50217l-7.0059,-15.85229l7.06136,-22.76489l13.54966,-7.62772l9.49591,5.44101l-0.00273,1.20071l-9.99789,1.24284l-4.77978,18.38912l5.67717,15.07044l16.26069,2.33278c0,0 -2.76757,3.79488 -5.99257,8.05292c-1.9049,2.51508 -7.83822,5.61844 -7.83822,5.61844z" fill="url(#color-20)"/><path d="M290.08028,134.5968l5.62885,-11.28381l4.65714,12.25873l-7.15085,9.39108z" fill="url(#color-21)"/><path d="M293.38121,144.55502l-9.22315,-2.51906l-4.67673,-11.45374l10.72925,3.82524z" fill="url(#color-22)"/></g><path d="M185.16265,64.91376l6.02449,-12.25502l10.69456,-2.17746l-3.56945,10.47788z" fill="url(#color-23)" stroke="#000000" stroke-width="0" stroke-linecap="round"/><path d="M294.19205,29.62149c0,0 -18.07066,21.23356 -39.24023,36.70792c-9.16717,6.70095 -21.26227,3.83009 -29.10558,8.43612c-4.89141,2.87251 -8.45448,10.70775 -11.4151,12.5225c-9.33772,5.72373 -25.25498,6.70481 -25.25498,6.70481" fill="none" stroke="url(#color-24)" stroke-width="2.5" stroke-linecap="round"/><path d="M283.48134,45.05406c0,0 -5.52001,2.69898 -16.30869,11.45647c-2.26974,1.84242 -7.85406,10.85638 -11.05819,12.95967c-7.72076,5.06815 -18.84098,5.87159 -24.97994,10.51849c-3.61812,2.73874 -2.4885,4.73354 -7.65969,9.76362c-4.68665,4.55876 -10.37533,5.98146 -10.37533,5.98146" fill="none" stroke="url(#color-25)" stroke-width="2.5" stroke-linecap="round"/><path d="M161.38598,104.37432c0,0 -0.74095,-0.20579 -0.80199,-1.88387c-0.1158,-3.18394 0.4402,-3.07351 0.4402,-3.07351l3.34517,-0.03967l-1.28927,-2.25724l3.38545,0.16186l-1.00723,-1.89445l5.60261,-2.37683l-3.62685,-2.4189l16.84852,-9.02476l1.57533,-18.33773l8.54037,20.71754l-0.32312,3.62725l-10.07722,7.25269l30.71105,0.57008c0,0 2.06259,3.77493 -0.99912,14.04989c-1.11263,3.73395 -10.41102,8.55812 -10.41102,8.55812l-41.91291,-13.6305z" fill="url(#color-26)" stroke="#000000" stroke-width="0" stroke-linecap="round"/></g></g></g></svg>