<svg version="1.1" xmlns="http://www.w3.org/2000/svg" xmlns:xlink="http://www.w3.org/1999/xlink" width="229.85339" height="538.24792" viewBox="0,0,229.85339,538.24792"><defs><linearGradient x1="263.59894" y1="123.224" x2="252.91919" y2="314.89505" gradientUnits="userSpaceOnUse" id="color-1"><stop offset="0" stop-color="#0e0000"/><stop offset="1" stop-color="#000000"/></linearGradient><linearGradient x1="263.98745" y1="122.76196" x2="255.33618" y2="278.02756" gradientUnits="userSpaceOnUse" id="color-2"><stop offset="0" stop-color="#710000"/><stop offset="1" stop-color="#0d0000"/></linearGradient><linearGradient x1="264.30949" y1="110.47172" x2="263.44974" y2="125.90184" gradientUnits="userSpaceOnUse" id="color-3"><stop offset="0" stop-color="#0e0000"/><stop offset="1" stop-color="#000000"/></linearGradient><linearGradient x1="267.1679" y1="23.88566" x2="259.79247" y2="122.37096" gradientUnits="userSpaceOnUse" id="color-4"><stop offset="0" stop-color="#0e0000"/><stop offset="1" stop-color="#000000"/></linearGradient><linearGradient x1="266.72154" y1="45.06411" x2="281.05764" y2="-146.36818" gradientUnits="userSpaceOnUse" id="color-5"><stop offset="0" stop-color="#0e0000"/><stop offset="1" stop-color="#000000"/></linearGradient><linearGradient x1="267.04667" y1="45.57275" x2="278.65982" y2="-109.49944" gradientUnits="userSpaceOnUse" id="color-6"><stop offset="0" stop-color="#710000"/><stop offset="1" stop-color="#0d0000"/></linearGradient><linearGradient x1="251.03013" y1="55.79496" x2="168.6241" y2="-117.5864" gradientUnits="userSpaceOnUse" id="color-7"><stop offset="0" stop-color="#0e0000"/><stop offset="1" stop-color="#000000"/></linearGradient><linearGradient x1="251.56457" y1="56.07565" x2="184.81051" y2="-84.37414" gradientUnits="userSpaceOnUse" id="color-8"><stop offset="0" stop-color="#710000"/><stop offset="1" stop-color="#0d0000"/></linearGradient><linearGradient x1="278.61122" y1="57.78941" x2="385.92185" y2="-101.38433" gradientUnits="userSpaceOnUse" id="color-9"><stop offset="0" stop-color="#0e0000"/><stop offset="1" stop-color="#000000"/></linearGradient><linearGradient x1="278.04094" y1="57.98737" x2="364.96929" y2="-70.95336" gradientUnits="userSpaceOnUse" id="color-10"><stop offset="0" stop-color="#710000"/><stop offset="1" stop-color="#0d0000"/></linearGradient></defs><g transform="translate(-160.98537,155.51945)"><g data-paper-data="{&quot;isPaintingLayer&quot;:true}" fill-rule="nonzero" stroke-width="4" stroke-linejoin="miter" stroke-miterlimit="10" stroke-dasharray="" stroke-dashoffset="0" style="mix-blend-mode: normal"><path d="M220.80446,120.83953l85.56208,5.25114l-53.56791,188.79766z" fill="url(#color-1)" stroke="url(#color-2)" stroke-linecap="round"/><path d="M220.74929,121.8297c0,0 -9.55745,3.60487 -9.71912,1.17857c-0.14348,-2.15317 8.79718,-15.01506 8.79718,-15.01506l88.9643,4.95702c0,0 4.77891,12.72672 4.25334,14.94763c-0.52882,2.23468 -7.41657,-1.58061 -7.41657,-1.58061z" fill="url(#color-3)" stroke="#710000" stroke-linecap="butt"/><path d="M214.23754,69.4406c2.03667,-27.19595 25.7344,-47.59159 52.93035,-45.55493c27.19596,2.03667 47.5916,25.7344 45.55494,52.93035c-2.03667,27.19596 -19.71599,47.82224 -52.93036,45.55493c-33.25334,-2.26996 -47.59159,-25.73441 -45.55492,-52.93036z" fill="url(#color-4)" stroke="#710000" stroke-linecap="butt"/><path d="M280.93725,-146.37719l28.56153,194.16055l-85.51842,-5.92006z" data-paper-data="{&quot;index&quot;:null}" fill="url(#color-5)" stroke="url(#color-6)" stroke-linecap="round"/><path d="M168.51507,-117.53457l58.17089,91.40247l39.02816,70.75192l-53.39492,29.57398l-27.73487,-90.47009z" data-paper-data="{&quot;index&quot;:null}" fill="url(#color-7)" stroke="url(#color-8)" stroke-linecap="round"/><path d="M355.05032,-3.58139l-40.9003,85.33009l-46.93174,-37.32944c0,0 19.57385,-27.26865 28.38509,-38.79421c7.11307,-9.30427 19.28288,-25.22301 19.28288,-25.22301l71.13571,-81.71887z" data-paper-data="{&quot;index&quot;:null}" fill="url(#color-9)" stroke="url(#color-10)" stroke-linecap="round"/><g fill="#060000" stroke="#710000"><path d="M163.66656,347.73327c-0.47977,-11.58167 8.07952,-21.43571 19.1177,-22.00962c11.03818,-0.5739 20.37531,8.34966 20.85507,19.93133c0.47977,11.58167 -5.27009,20.36278 -19.1177,22.00962c-12.88871,1.5328 -20.37531,-8.34966 -20.85507,-19.93133z" stroke-linecap="butt"/><path d="M197.45167,286.35377c3.19627,19.55608 6.35319,54.63506 6.35319,54.63506l-40.62111,1.83555c0,0 3.10924,-34.3509 6.0152,-53.77163c3.50167,-23.40186 13.54287,-76.93618 13.54287,-76.93618c0,0 10.97063,51.35918 14.70985,74.23719z" stroke-linecap="round"/></g><g data-paper-data="{&quot;index&quot;:null}" fill="#060000" stroke="#710000"><path d="M285.69713,380.72847c-13.58769,-3.13736 -18.35237,-12.48972 -16.62069,-23.95125c1.73168,-11.46152 11.98062,-19.32099 22.89165,-17.55461c10.91103,1.76638 18.35237,12.48972 16.62069,23.95125c-1.73168,11.46152 -10.24485,20.47473 -22.89165,17.55461z" stroke-linecap="butt"/><path d="M304.31828,226.28881c0,0 4.18228,54.30707 5.12802,77.95055c0.78485,19.62125 0.15427,54.10681 0.15427,54.10681l-40.18316,-6.22557c0,0 6.93874,-34.53049 12.23487,-53.62518c6.19577,-22.33826 22.666,-72.2066 22.666,-72.2066z" stroke-linecap="round"/></g><path d="M237.9256,79.00603c0.07836,-1.04641 0.99018,-1.83117 2.03659,-1.7528c1.04641,0.07836 1.83117,0.99018 1.7528,2.03659c-0.07836,1.04641 -0.99018,1.83117 -2.03659,1.7528c-1.04641,-0.07836 -1.83117,-0.99018 -1.7528,-2.03659z" fill="#710000" stroke="#710000" stroke-linecap="butt"/><path d="M282.66485,81.23058c0.07836,-1.04641 0.99018,-1.83117 2.03659,-1.7528c1.04641,0.07836 1.83117,0.99018 1.7528,2.03659c-0.07836,1.04641 -0.99018,1.83117 -2.03659,1.7528c-1.04641,-0.07836 -1.83117,-0.99018 -1.7528,-2.03659z" fill="#710000" stroke="#710000" stroke-linecap="butt"/></g></g></svg>