<svg version="1.1" xmlns="http://www.w3.org/2000/svg" xmlns:xlink="http://www.w3.org/1999/xlink" width="137.25246" height="267.22501" viewBox="0,0,137.25246,267.22501"><g transform="translate(-174.83993,-46.38751)"><g data-paper-data="{&quot;isPaintingLayer&quot;:true}" fill-rule="nonzero" stroke-linejoin="miter" stroke-miterlimit="10" stroke-dasharray="" stroke-dashoffset="0" style="mix-blend-mode: normal"><path d="M179.28372,313.61252v-267.22501h123.18203v267.22501z" fill-opacity="0.01" fill="#000000" stroke="none" stroke-width="0" stroke-linecap="butt"/><g stroke="#000000" stroke-linecap="butt"><path d="M206.75003,307.5l15.14285,-131.8421l37.78325,-0.15789l13.57389,132z" fill="#b2764d" stroke-width="2"/><path d="M219.70026,204.11263l3.12142,-26.32765l35.83075,-0.14203l2.76735,26.1059c0,0 -7.51543,4.19603 -21.55904,4.50964c-12.48458,0.27879 -20.16049,-4.14586 -20.16049,-4.14586z" fill="#a06138" stroke-width="0"/></g><g><path d="M175.83994,137.17949c0,-33.30185 28.7599,-60.29833 64.23702,-60.29833c35.47712,0 64.23702,26.99649 64.23702,60.29833c0,33.30185 -28.7599,60.29833 -64.23702,60.29833c-35.47712,0 -64.23702,-26.99649 -64.23702,-60.29833z" fill="#b2764d" stroke="#000000" stroke-width="2" stroke-linecap="butt"/><path d="M176.563,136.9c0,-0.72799 5.20666,55.91939 63.36046,56.93429c55.56352,0.9697 63.51358,-57.95314 63.51358,-56.93429c0,32.80479 -28.40173,59.39833 -63.43702,59.39833c-35.03529,0 -63.43702,-26.59354 -63.43702,-59.39833z" fill="#a06138" stroke="#000000" stroke-width="0" stroke-linecap="butt"/><path d="M203.14339,111.74865c0,0 4.81769,-1.34167 9.97355,-2.35894c7.01343,-1.38379 10.77003,-0.13029 10.77003,-0.13029l2.9041,63.89022c0,0 -5.07715,1.65949 -7.88256,1.65949c-3.62176,0 -12.44615,-1.65949 -12.44615,-1.65949z" fill="none" stroke="#9d6138" stroke-width="2.5" stroke-linecap="round"/><path d="M268.68188,108.08209c5.54706,0.52304 7.06403,1.59221 7.06403,1.59221l-0.82975,61.81586c0,0 -6.55603,0.82975 -9.54204,0.82975c-2.64158,0 -7.46769,-0.82975 -7.46769,-0.82975l2.9041,-63.89022c0,0 4.15446,0.13168 7.87135,0.48215z" fill="none" stroke="#9d6138" stroke-width="2.5" stroke-linecap="round"/><path d="M202.02781,108.46716c0,0 6.70895,-5.16922 11.79722,-6.36355c5.08827,-1.19433 12.33413,0.69937 12.33413,0.69937c0,0 -8.03812,-0.06028 -11.96762,0.86207c-4.10648,0.96388 -12.16372,4.80211 -12.16372,4.80211z" fill="#000000" stroke="none" stroke-width="0" stroke-linecap="butt"/><path d="M265.96236,103.66506c-3.9295,-0.92235 -11.96762,-0.86207 -11.96762,-0.86207c0,0 7.24586,-1.8937 12.33413,-0.69937c5.08826,1.19433 11.79721,6.36355 11.79721,6.36355c0,0 -8.05724,-3.83822 -12.16372,-4.80211z" data-paper-data="{&quot;index&quot;:null}" fill="#000000" stroke="none" stroke-width="0" stroke-linecap="butt"/><path d="M182.01698,158.5851c0,0 1.27471,3.07549 2.06246,4.40033c0.64873,1.09105 2.32843,2.98433 2.32843,2.98433l-3.19336,1.79627c0,0 -1.63318,-2.53986 -2.21157,-3.76467c-0.55131,-1.16746 -1.18139,-3.4204 -1.18139,-3.4204z" fill="#b4b3b4" stroke="#b6b4b2" stroke-width="0.5" stroke-linecap="round"/><path d="M177.42653,154.79298c0,0 -1.0568,-2.6996 -1.36083,-4.01709c-0.29441,-1.27578 -0.43544,-3.76675 -0.43544,-3.76675l3.47833,-0.5422c0,0 -0.10123,2.66703 0.12039,3.97255c0.21545,1.26922 1.19133,3.75473 1.19133,3.75473l-2.99378,0.59875z" fill="#b4b3b4" stroke="#b6b4b2" stroke-width="0.5" stroke-linecap="round"/><path d="M178.43678,130.04437c0,0 -0.43396,2.99796 -0.46907,4.43757c-0.03087,1.26557 0.26948,3.74544 0.26948,3.74544h-3.19337c0,0 -0.19838,-0.161 -0.1831,-4.40509c0.01029,-2.85922 0.38268,-3.57833 0.38268,-3.57833z" fill="#b4b3b4" stroke="#b6b4b2" stroke-width="0.5" stroke-linecap="round"/><path d="M176.45322,123.05888c0,0 0.82609,-4.90945 2.7942,-7.18508c1.96811,-2.27563 1.99474,-0.58001 3.59253,-0.19958c1.59779,0.38043 0.83864,0.52018 0.59876,1.19751c-0.23988,0.67733 -3.99171,8.38259 -3.99171,8.38259z" fill="#b4b3b4" stroke="#b6b4b2" stroke-width="0.5" stroke-linecap="round"/></g><path d="M189.39015,137.27563c0,-12.968 10.51265,-23.48065 23.48065,-23.48065c12.968,0 23.48065,10.51265 23.48065,23.48065c0,12.968 -10.51265,23.48065 -23.48065,23.48065c-12.968,0 -23.48065,-10.51265 -23.48065,-23.48065z" fill="#ffffff" stroke="#000000" stroke-width="2" stroke-linecap="butt"/><path d="M196.45554,137c0,-9.12808 7.39976,-16.52784 16.52783,-16.52784c9.12808,0 16.52784,7.39977 16.52784,16.52784c0,9.12808 -7.39977,16.52784 -16.52784,16.52784c-9.12808,0 -16.52783,-7.39977 -16.52783,-16.52784z" fill="#000000" stroke="none" stroke-width="0" stroke-linecap="butt"/><path d="M227.50703,176.65643h25.10959" fill="none" stroke="#000000" stroke-width="2" stroke-linecap="round"/><path d="M267.12926,160.75627c-12.968,0 -23.48065,-10.51265 -23.48065,-23.48065c0,-12.968 10.51265,-23.48065 23.48065,-23.48065c12.968,0 23.48065,10.51265 23.48065,23.48065c0,12.968 -10.51265,23.48065 -23.48065,23.48065z" data-paper-data="{&quot;index&quot;:null}" fill="#ffffff" stroke="#000000" stroke-width="2" stroke-linecap="butt"/><path d="M267.01667,153.52784c-9.12807,0 -16.52783,-7.39977 -16.52783,-16.52784c0,-9.12808 7.39977,-16.52784 16.52783,-16.52784c9.12807,0 16.52783,7.39977 16.52783,16.52784c0,9.12808 -7.39977,16.52784 -16.52783,16.52784z" data-paper-data="{&quot;index&quot;:null}" fill="#000000" stroke="none" stroke-width="0" stroke-linecap="butt"/><path d="M189.39015,137.27563c0,-12.968 10.51265,-23.48065 23.48065,-23.48065c12.968,0 23.48065,10.51265 23.48065,23.48065c0,0 -46.96131,1.23155 -46.96131,0z" fill="#b2764d" stroke="#000000" stroke-width="2" stroke-linecap="butt"/><path d="M243.6486,137.27563c0,-12.968 10.51265,-23.48065 23.48065,-23.48065c12.968,0 23.48065,10.51265 23.48065,23.48065c0,1.2138 -46.96131,0 -46.96131,0z" data-paper-data="{&quot;index&quot;:null}" fill="#b2764d" stroke="#000000" stroke-width="2" stroke-linecap="butt"/><g stroke-linecap="butt"><path d="M291.14417,152.69016c0,-5.50854 4.46556,-9.97411 9.97411,-9.97411c5.50855,0 9.97411,4.46556 9.97411,9.97411c0,5.50854 -4.46556,9.97411 -9.97411,9.97411c-5.50855,0 -9.97411,-4.46556 -9.97411,-9.97411z" fill="#ffe902" stroke="#f6c002" stroke-width="2"/><path d="M306.88399,149.21675c1.04526,2.07517 1.00871,4.3818 -0.08164,5.15199c-1.09035,0.7702 -2.82161,-0.28769 -3.86687,-2.36286c-1.04526,-2.07517 -1.0087,-4.3818 0.08165,-5.15199c1.09035,-0.7702 2.8216,0.28769 3.86686,2.36286z" fill="#fff26a" stroke="none" stroke-width="0"/></g></g></g></svg>