<svg version="1.1" xmlns="http://www.w3.org/2000/svg" xmlns:xlink="http://www.w3.org/1999/xlink" width="169.07883" height="287.75583" viewBox="0,0,169.07883,287.75583"><defs><linearGradient x1="296.44642" y1="124.41218" x2="296.44642" y2="208.97988" gradientUnits="userSpaceOnUse" id="color-1"><stop offset="0" stop-color="#000004"/><stop offset="1" stop-color="#000000"/></linearGradient><linearGradient x1="183.48963" y1="118.40688" x2="183.48963" y2="202.97456" gradientUnits="userSpaceOnUse" id="color-2"><stop offset="0" stop-color="#000004"/><stop offset="1" stop-color="#000000"/></linearGradient><linearGradient x1="261.23323" y1="139.50902" x2="261.23323" y2="224.0767" gradientUnits="userSpaceOnUse" id="color-3"><stop offset="0" stop-color="#000004"/><stop offset="1" stop-color="#000000"/></linearGradient><linearGradient x1="284.70869" y1="129.87159" x2="284.70869" y2="214.43929" gradientUnits="userSpaceOnUse" id="color-4"><stop offset="0" stop-color="#000004"/><stop offset="1" stop-color="#000000"/></linearGradient><linearGradient x1="217.97071" y1="136.77928" x2="217.97071" y2="221.34699" gradientUnits="userSpaceOnUse" id="color-5"><stop offset="0" stop-color="#000004"/><stop offset="1" stop-color="#000000"/></linearGradient><linearGradient x1="194.98332" y1="124.95817" x2="194.98332" y2="209.52585" gradientUnits="userSpaceOnUse" id="color-6"><stop offset="0" stop-color="#000004"/><stop offset="1" stop-color="#000000"/></linearGradient><linearGradient x1="193.04603" y1="122.03888" x2="193.04603" y2="206.60658" gradientUnits="userSpaceOnUse" id="color-7"><stop offset="0" stop-color="#000004"/><stop offset="1" stop-color="#000000"/></linearGradient><linearGradient x1="286.40191" y1="122.03891" x2="286.40191" y2="206.60659" gradientUnits="userSpaceOnUse" id="color-8"><stop offset="0" stop-color="#000004"/><stop offset="1" stop-color="#000000"/></linearGradient><linearGradient x1="309.87739" y1="112.40148" x2="309.87739" y2="196.96918" gradientUnits="userSpaceOnUse" id="color-9"><stop offset="0" stop-color="#000004"/><stop offset="1" stop-color="#000000"/></linearGradient><linearGradient x1="309.87739" y1="112.40148" x2="309.87739" y2="196.96918" gradientUnits="userSpaceOnUse" id="color-10"><stop offset="0" stop-color="#000004"/><stop offset="1" stop-color="#000000"/></linearGradient><linearGradient x1="170.05865" y1="110.21776" x2="170.05865" y2="194.78544" gradientUnits="userSpaceOnUse" id="color-11"><stop offset="0" stop-color="#000004"/><stop offset="1" stop-color="#000000"/></linearGradient><linearGradient x1="170.05865" y1="110.21776" x2="170.05865" y2="194.78544" gradientUnits="userSpaceOnUse" id="color-12"><stop offset="0" stop-color="#000004"/><stop offset="1" stop-color="#000000"/></linearGradient><linearGradient x1="242.36614" y1="33.6281" x2="242.36614" y2="208.45837" gradientUnits="userSpaceOnUse" id="color-13"><stop offset="0" stop-color="#000000"/><stop offset="1" stop-color="#38365f"/></linearGradient><linearGradient x1="239.9533" y1="175.56764" x2="239.9533" y2="307.56764" gradientUnits="userSpaceOnUse" id="color-14"><stop offset="0" stop-color="#000000"/><stop offset="1" stop-color="#666666"/></linearGradient><linearGradient x1="239.95331" y1="175.64659" x2="239.95331" y2="307.48871" gradientUnits="userSpaceOnUse" id="color-15"><stop offset="0" stop-color="#000000"/><stop offset="1" stop-color="#484556"/></linearGradient><linearGradient x1="240.04497" y1="79.60696" x2="240.04497" y2="200.20362" gradientUnits="userSpaceOnUse" id="color-16"><stop offset="0" stop-color="#1a1a1a"/><stop offset="1" stop-color="#808080"/></linearGradient><linearGradient x1="291.0779" y1="107.73878" x2="291.0779" y2="208.08844" gradientUnits="userSpaceOnUse" id="color-17"><stop offset="0" stop-color="#000000"/><stop offset="1" stop-color="#38365f"/></linearGradient><linearGradient x1="235.52615" y1="83.34628" x2="235.52615" y2="206.58844" gradientUnits="userSpaceOnUse" id="color-18"><stop offset="0" stop-color="#000000"/><stop offset="1" stop-color="#38365f"/></linearGradient><linearGradient x1="239.80851" y1="71.34774" x2="239.80851" y2="142.2314" gradientUnits="userSpaceOnUse" id="color-19"><stop offset="0" stop-color="#000000"/><stop offset="1" stop-color="#1d1c31"/></linearGradient><linearGradient x1="239.80851" y1="71.34774" x2="239.80851" y2="142.2314" gradientUnits="userSpaceOnUse" id="color-20"><stop offset="0" stop-color="#000000"/><stop offset="1" stop-color="#1d1c31"/></linearGradient></defs><g transform="translate(-156.62767,-19.81181)"><g data-paper-data="{&quot;isPaintingLayer&quot;:true}" fill-rule="nonzero" stroke-linejoin="miter" stroke-miterlimit="10" stroke-dasharray="" stroke-dashoffset="0" style="mix-blend-mode: normal"><g stroke-width="0" stroke-linecap="butt"><path d="M301.22907,175.59819c0.93064,-0.49464 0.61664,7.84684 -6.43359,9.41733c-2.49427,12.24401 9.97403,19.40005 14.8417,22.07737c2.06358,1.13502 -9.74513,2.4351 -13.34019,0.90092c-1.07952,-0.46069 -5.45612,-5.59971 -5.62686,-5.55314c-0.47547,0.02218 -1.00489,1.77191 -0.65221,3.19406c0.44491,1.79407 1.83235,3.34417 1.35023,3.34514c-14.91798,0.0302 -5.27218,-84.52659 -5.42871,-84.56687c-0.91677,-0.23597 -5.7591,50.16544 15.28962,51.18517z" data-paper-data="{&quot;index&quot;:null}" fill="url(#color-1)" stroke="none"/><path d="M193.99663,118.40768c-0.15652,0.04028 9.48927,84.59707 -5.42871,84.56687c-0.48212,-0.00098 0.90532,-1.55107 1.35023,-3.34514c0.35268,-1.42215 -0.17674,-3.1719 -0.65221,-3.19406c-0.17074,-0.04657 -4.54734,5.09245 -5.62687,5.55314c-3.59505,1.53418 -15.40377,0.2341 -13.34019,-0.90092c4.86768,-2.67733 17.33597,-9.83336 14.8417,-22.07737c-7.05023,-1.57049 -7.36423,-9.91197 -6.43359,-9.41733c21.04872,-1.01973 16.20638,-51.42113 15.28962,-51.18517z" data-paper-data="{&quot;index&quot;:null}" fill="url(#color-2)" stroke="none"/><path d="M271.74021,139.50982c-0.15652,0.04028 9.48928,84.59707 -5.42871,84.56687c-0.48212,-0.00098 0.90532,-1.55107 1.35023,-3.34514c0.35268,-1.42215 -0.17674,-3.1719 -0.6522,-3.19406c-0.17074,-0.04657 -4.54734,5.09245 -5.62687,5.55314c-3.59505,1.53418 -15.40377,0.2341 -13.34019,-0.90092c4.86768,-2.67733 17.33597,-9.83336 14.8417,-22.07737c-7.05023,-1.57049 -7.36423,-9.91197 -6.43359,-9.41732c21.04872,-1.01973 16.20638,-51.42113 15.28962,-51.18518z" data-paper-data="{&quot;index&quot;:null}" fill="url(#color-3)" stroke="none"/><path d="M289.49134,181.0576c0.93064,-0.49464 0.61664,7.84684 -6.43359,9.41733c-2.49427,12.24401 9.97403,19.40005 14.8417,22.07737c2.06358,1.13502 -9.74513,2.4351 -13.34019,0.90092c-1.07952,-0.46069 -5.45613,-5.59971 -5.62687,-5.55314c-0.47546,0.02218 -1.00488,1.77191 -0.65221,3.19406c0.44491,1.79407 1.83235,3.34417 1.35023,3.34514c-14.91799,0.0302 -5.27218,-84.52659 -5.42871,-84.56687c-0.91676,-0.23597 -5.7591,50.16544 15.28962,51.18517z" data-paper-data="{&quot;index&quot;:null}" fill="url(#color-4)" stroke="none"/><path d="M222.75335,187.96531c0.93064,-0.49464 0.61664,7.84683 -6.43359,9.41732c-2.49427,12.24401 9.97404,19.40005 14.8417,22.07737c2.06358,1.13502 -9.74513,2.4351 -13.34019,0.90092c-1.07953,-0.46069 -5.45612,-5.59971 -5.62687,-5.55314c-0.47546,0.02218 -1.00488,1.77191 -0.6522,3.19406c0.44491,1.79407 1.83235,3.34417 1.35023,3.34514c-14.91798,0.0302 -5.27218,-84.52659 -5.42871,-84.56687c-0.91677,-0.23597 -5.7591,50.16545 15.28962,51.18518z" data-paper-data="{&quot;index&quot;:null}" fill="url(#color-5)" stroke="none"/><path d="M205.49032,124.95897c-0.15652,0.04028 9.48927,84.59707 -5.42871,84.56687c-0.48212,-0.00098 0.90532,-1.55107 1.35023,-3.34514c0.35268,-1.42215 -0.17674,-3.1719 -0.6522,-3.19406c-0.17074,-0.04657 -4.54734,5.09245 -5.62687,5.55314c-3.59505,1.53418 -15.40377,0.2341 -13.34019,-0.90092c4.86768,-2.67733 17.33597,-9.83336 14.8417,-22.07737c-7.05023,-1.57049 -7.36423,-9.91197 -6.43359,-9.41733c21.04872,-1.01973 16.20639,-51.42113 15.28962,-51.18517z" data-paper-data="{&quot;index&quot;:null}" fill="url(#color-6)" stroke="none"/><path d="M197.82867,173.2249c0.93064,-0.49464 0.61664,7.84683 -6.43359,9.41732c-2.49427,12.24401 9.97404,19.40005 14.8417,22.07737c2.06358,1.13502 -9.74513,2.4351 -13.34019,0.90092c-1.07953,-0.46069 -5.45612,-5.59971 -5.62686,-5.55314c-0.47546,0.02218 -1.00489,1.77191 -0.65221,3.19406c0.44491,1.79407 1.83235,3.34417 1.35023,3.34514c-14.91798,0.0302 -5.27218,-84.52659 -5.42871,-84.56687c-0.91677,-0.23597 -5.7591,50.16545 15.28962,51.18518z" data-paper-data="{&quot;index&quot;:null}" fill="url(#color-7)" stroke="none"/><path d="M296.90891,122.03971c-0.15652,0.04028 9.48928,84.59707 -5.42871,84.56687c-0.48212,-0.00098 0.90532,-1.55107 1.35023,-3.34514c0.35268,-1.42215 -0.17674,-3.1719 -0.65221,-3.19406c-0.17074,-0.04657 -4.54734,5.09245 -5.62687,5.55314c-3.59505,1.53418 -15.40377,0.2341 -13.34019,-0.90092c4.86768,-2.67733 17.33596,-9.83336 14.8417,-22.07737c-7.05023,-1.57049 -7.36423,-9.91197 -6.43359,-9.41732c21.04872,-1.01973 16.20639,-51.42113 15.28962,-51.18518z" data-paper-data="{&quot;index&quot;:null}" fill="url(#color-8)" stroke="none"/><path d="M314.66004,163.58748c0.93064,-0.49464 0.61664,7.84684 -6.43359,9.41733c-2.49427,12.24401 9.97404,19.40005 14.8417,22.07737c2.06358,1.13502 -9.74513,2.4351 -13.34019,0.90092c-1.07952,-0.46069 -5.45613,-5.59971 -5.62687,-5.55314c-0.47546,0.02218 -1.00488,1.77191 -0.6522,3.19406c0.44491,1.79407 1.83235,3.34417 1.35023,3.34514c-14.91799,0.0302 -5.27218,-84.52659 -5.42871,-84.56687c-0.91676,-0.23597 -5.7591,50.16544 15.28962,51.18517z" data-paper-data="{&quot;index&quot;:null}" fill="url(#color-9)" stroke="url(#color-10)"/><path d="M180.56565,110.21856c-0.15652,0.04028 9.48927,84.59707 -5.42871,84.56687c-0.48212,-0.00098 0.90532,-1.55107 1.35023,-3.34514c0.35268,-1.42215 -0.17674,-3.1719 -0.65221,-3.19406c-0.17074,-0.04657 -4.54734,5.09245 -5.62687,5.55314c-3.59505,1.53418 -15.40377,0.2341 -13.34019,-0.90092c4.86768,-2.67733 17.33597,-9.83336 14.8417,-22.07737c-7.05023,-1.57049 -7.36423,-9.91197 -6.43359,-9.41733c21.04872,-1.01973 16.20638,-51.42113 15.28962,-51.18517z" data-paper-data="{&quot;index&quot;:null}" fill="url(#color-11)" stroke="url(#color-12)"/></g><path d="M160.02345,125.482c0,0 11.19584,12.62254 13.35214,-3.21771c4.67523,-20.23318 7.34823,-34.03227 28.06475,-43.32359c6.17414,-2.76909 9.95134,-6.7433 29.6321,-3.35764c0.24144,0.04154 0.35692,0.05342 0.36286,0.03777c0.06961,-0.18337 -14.88819,-4.14551 -18.46139,-8.50348c-3.91011,-4.76888 -5.41845,-10.51999 -4.61095,-13.84526c6.53248,-18.81072 34.14034,-19.08391 36.01807,-19.48342c19.30974,-2.10832 45.48468,17.06325 4.92227,27.1663c-2.05566,0.51201 27.50938,-11.40873 -11.40892,-14.0594c-19.78575,2.60711 -27.68716,8.81808 -4.274,22.39772c6.74771,-0.59946 15.65379,-0.92751 16.56562,-1.61709c22.08812,2.63953 24.51248,6.58172 32.18506,11.3592c6.17518,3.8451 14.06649,10.52308 18.44144,19.63532c3.37192,7.0231 2.06955,16.50787 5.69805,23.52708c6.92091,13.38824 15.05593,2.03251 15.05593,2.03251c0,0 1.44682,8.76553 -1.41643,14.63621c-2.05695,4.21747 -7.30611,6.21507 -12.39886,5.78189c-0.11182,0.59282 -0.36027,10.08548 4.33635,12.21282c3.96083,1.79406 12.64871,-1.42264 12.64871,-1.42264c0,0 -14.65164,6.37914 -15.62705,10.57541c-1.7558,7.55362 19.13588,-1.13314 16.3392,1.26495c-1.37818,1.18175 -7.26428,5.56839 -12.77969,6.82385c-5.31453,1.20974 -10.28488,-0.70231 -10.54628,-0.03679c-3.49395,8.89536 -10.36285,18.18124 -10.36285,18.18124c0,0 -2.29192,-5.28642 -3.77673,-3.14158c-6.07718,8.77862 -11.2964,15.30957 -11.2964,15.30957c0,0 -2.40974,-4.97718 -4.47106,-3.86765c-9.32569,5.01966 -20.06286,7.91078 -31.65348,7.91078c-12.60656,0 -24.772,-3.56633 -35.27102,-9.52744c-2.72845,-1.54916 -0.82623,4.38789 -0.82623,4.38789c0,0 -7.93843,-5.19677 -13.15685,-11.00681c-6.08759,-6.77777 -9.73663,-14.57056 -12.13914,-18.68944c-0.34082,-0.58431 -4.01999,1.58785 -5.934,2.01254c-2.96082,0.65696 -4.48364,-0.08182 -4.48364,-0.08182c0,0 2.67098,-3.37669 3.55098,-5.15497c0.94364,-1.90688 1.93325,-5.92746 1.93325,-5.92746c0,0 -2.66402,1.90888 -4.05965,2.38502c-1.48595,0.50696 -4.60208,0.57008 -4.60208,0.57008c0,0 4.39229,-5.64339 5.74307,-11.5602c0.39327,-1.72262 4.12301,-9.97893 -0.21176,-9.96905c-17.00132,0.5205 -11.08139,-20.4147 -11.08139,-20.4147z" fill="url(#color-13)" stroke="#000000" stroke-width="0" stroke-linecap="butt"/><g stroke="#000000"><path d="M206.70331,307.56764l15.14285,-131.8421l37.78325,-0.15789l13.57389,132z" fill="url(#color-14)" stroke-width="0" stroke-linecap="butt"/><path d="M254.78024,218.98872l3,-28" fill="none" stroke-width="2" stroke-linecap="round"/><path d="M206.70332,307.48868l15.14285,-131.8421c0,0 5.99728,36.24339 22.93006,36.88329c22.40943,0.0925 16.85318,-20.54117 16.85318,-20.54117l11.57389,115.5z" fill="url(#color-15)" stroke-width="0" stroke-linecap="butt"/><path d="M262.53022,218.98871c0,0 -13.46231,2.23056 -18.94179,0.78011c-5.83188,-1.54373 -16.55821,-8.78011 -16.55821,-8.78011" fill="none" stroke-width="0.5" stroke-linecap="round"/><path d="M254.03024,224.48871c0,0 -4.70146,1.09587 -6.9358,0.66619c-2.08924,-0.40177 -6.0642,-3.16619 -6.0642,-3.16619" fill="none" stroke-width="1" stroke-linecap="round"/><path d="M246.03024,253.98871c0,0 -11.53456,-5.08122 -15.43624,-7.19463c-0.81083,-0.4392 -11.56376,-14.30537 -11.56376,-14.30537" fill="none" stroke-width="0.5" stroke-linecap="round"/><path d="M239.03024,254.98871c0,0 -8.40896,-2.62721 -11.78907,-4.40177c-3.28377,-1.72398 -8.21093,-6.09823 -8.21093,-6.09823" fill="none" stroke-width="1" stroke-linecap="round"/><path d="M211.53024,302.48871l55.5,0.5" fill="none" stroke-width="1" stroke-linecap="round"/><path d="M265.53022,274.98871c0,0 -8.1762,1.73819 -11.98388,1.58887c-4.55699,-0.1787 -13.51612,-2.58887 -13.51612,-2.58887" fill="none" stroke-width="0.5" stroke-linecap="round"/><path d="M258.03022,256.48871l9.5,-2" fill="none" stroke-width="1" stroke-linecap="round"/><path d="M230.53024,268.48871h-5.5" fill="none" stroke-width="1" stroke-linecap="round"/><path d="M253.03024,295.98871c0,0 -15.2639,-4.18633 -21.85382,-7.86642c-6.22229,-3.47479 -16.64618,-13.63358 -16.64618,-13.63358" fill="none" stroke-width="1" stroke-linecap="round"/><path d="M256.03022,284.48871c0,0 -12.443,-0.2942 -18.02819,-1.90206c-5.40917,-1.55718 -14.97181,-7.59794 -14.97181,-7.59794" fill="none" stroke-width="1" stroke-linecap="round"/><path d="M224.03024,296.98871c0,0 -3.69928,-1.61165 -4.92301,-3.06483c-1.41506,-1.68037 -3.07699,-6.43517 -3.07699,-6.43517" fill="none" stroke-width="1" stroke-linecap="round"/></g><path d="M175.80795,139.90529c0,-33.30185 28.7599,-60.29833 64.23702,-60.29833c35.47712,0 64.23702,26.99649 64.23702,60.29833c0,33.30185 -28.7599,60.29833 -64.23702,60.29833c-35.47712,0 -64.23702,-26.99649 -64.23702,-60.29833z" fill="url(#color-16)" stroke="#000000" stroke-width="0" stroke-linecap="butt"/><g fill="none" stroke="#000000" stroke-width="2" stroke-linecap="round"><path d="M185.74497,146.61277l3.6,2.6"/><path d="M290.14496,149.01277l4.2,-3.4"/></g><path d="M189.35816,147.84226c0,-12.968 10.51265,-23.48065 23.48065,-23.48065c12.968,0 23.48065,10.51265 23.48065,23.48065c0,12.968 -10.51265,23.48065 -23.48065,23.48065c-12.968,0 -23.48065,-10.51265 -23.48065,-23.48065z" fill="#808080" stroke="#000000" stroke-width="0" stroke-linecap="butt"/><path d="M267.09727,171.32289c-12.968,0 -23.48065,-10.51265 -23.48065,-23.48065c0,-12.968 10.51265,-23.48065 23.48065,-23.48065c12.968,0 23.48065,10.51265 23.48065,23.48065c0,12.968 -10.51265,23.48065 -23.48065,23.48065z" data-paper-data="{&quot;index&quot;:null}" fill="#808080" stroke="#000000" stroke-width="0" stroke-linecap="butt"/><path d="M201.99583,119.0338c0,0 6.70895,-5.16922 11.79721,-6.36355c5.08827,-1.19433 12.33413,0.69937 12.33413,0.69937c0,0 -8.03812,-0.06028 -11.96762,0.86207c-4.10648,0.96389 -12.16372,4.80211 -12.16372,4.80211z" fill="#000000" stroke="none" stroke-width="0" stroke-linecap="butt"/><path d="M265.93037,114.2317c-3.9295,-0.92235 -11.96762,-0.86207 -11.96762,-0.86207c0,0 7.24586,-1.8937 12.33413,-0.69937c5.08826,1.19433 11.79721,6.36355 11.79721,6.36355c0,0 -8.05724,-3.83822 -12.16372,-4.80211z" data-paper-data="{&quot;index&quot;:null}" fill="#000000" stroke="none" stroke-width="0" stroke-linecap="butt"/><path d="" fill="#4e45f0" stroke="#4e45f0" stroke-width="3" stroke-linecap="butt"/><g stroke-width="0" stroke-linecap="butt"><path d="M293.43379,107.73879c1.4959,3.53791 10.36325,23.16855 10.87876,30.74225c1.3055,19.18006 -2.47754,29.60306 -3.31715,29.81873c-0.14335,0.03682 7.19076,39.81626 -6.47188,39.78866c-0.44155,-0.0009 0.82914,-1.41758 1.23661,-3.05725c0.323,-1.29976 -0.16187,-2.8989 -0.59733,-2.91917c-0.15637,-0.04256 -4.16468,4.65417 -5.15337,5.07521c-3.29253,1.40214 -14.10754,0.21395 -12.21761,-0.82339c4.45806,-2.4469 15.87714,-8.98706 13.59277,-20.1773c-6.45695,-1.43533 -6.74453,-9.0589 -5.8922,-8.60682c19.27747,-0.93197 8.01888,-40.29434 5.70114,-44.53114c-0.37946,-0.69364 1.5761,-24.68185 2.24026,-25.30979z" data-paper-data="{&quot;index&quot;:null}" fill="url(#color-17)" stroke="#000000"/><path d="M180.34727,116.20234c11.42496,-22.68233 31.40973,-33.07142 60.56473,-32.85267c24.16321,0.18129 39.14424,9.27509 47.64651,17.23625c16.95139,15.39084 2.38278,33.77341 2.38278,33.77341c0,0 -1.39549,-9.64566 -12.29994,-18.70175c-14.08553,-11.69796 -14.04993,-10.46858 -14.04993,-10.46858c0,0 4.52448,1.92314 -5.04548,20.37673c-3.18352,5.5078 -14.90293,13.71054 -19.935,14.71329c-1.14365,-4.66817 5.20699,-21.99612 -20.82215,-35.68813c-8.3093,12.11788 -21.13836,8.72953 -31.11009,26.95768c-4.31775,14.2368 -12.07633,56.09917 12.20114,40.53114c0.85233,-0.45208 -0.93525,12.6715 -12.3922,12.60682c-0.11292,0.55313 -0.19235,1.09489 -0.2408,1.62536c-0.93171,10.20143 9.59588,16.22599 13.83357,18.55194c1.88993,1.03734 -8.92508,2.22553 -12.21761,0.82339c-0.98869,-0.42103 -4.99699,-5.11777 -5.15337,-5.07521c-0.43545,0.02026 -0.92032,1.61941 -0.59732,2.91917c0.40747,1.63967 1.67816,3.05635 1.23661,3.05725c-13.66263,0.02759 -6.32853,-39.75184 -6.47188,-39.78866c-0.83962,-0.21566 -4.62265,-10.63867 -3.31715,-29.81873c0.70354,-10.33633 5.78759,-20.77871 5.78759,-20.77871z" fill="url(#color-18)" stroke="#000000"/><path d="M176.84727,112.20234c11.42496,-22.68233 34.90973,-41.07142 64.06473,-40.85267c44.16321,1.68129 48.64424,21.27509 57.14651,29.23625c1.48878,1.35172 5.60958,28.14353 7.24043,30.98652c-2.70669,1.46908 -17.31348,-21.46664 -19.88509,-19.99969l-0.67624,-0.40575l-0.67074,-0.57492l-0.0219,-0.02696l-0.07637,-0.05728l-0.45149,-0.38699l-0.1935,-0.09675l-0.15584,-0.11688l-0.11239,-0.56194l-1.08403,-0.68983l-0.83621,-0.97558l-0.76349,-0.04242l-1.51956,-0.96699l-0.23857,-0.17893l-0.5361,-0.53611l-0.02203,-0.11014l-0.24231,-0.1542l-0.19703,-0.19703l-1.97029,-1.18217l-1.9385,-1.23359l-0.26434,-0.08811l-0.29716,-0.1783l-0.24583,-0.15643l-1.26479,-1.47558l-0.49813,-0.02768l-0.6199,-0.53134l-0.41641,-0.2082l-0.05572,-0.09753l-0.27864,-0.06966l-0.24922,-0.12461l-2.24302,-0.49845l-1.17239,-0.2931l-0.39445,-0.25102l-1.5,-0.5l-1.60277,-0.12329l-1.0684,-0.2671l-0.32883,-0.10961l-0.15832,-0.01217l-0.00395,-0.00099h-0.00889l-0.45887,-0.0353l-0.57108,-0.2705l-2.5,-0.5l-0.90866,0.04327l-0.09134,-0.04327l-0.92194,-0.18439l-0.03922,-0.00981h-0.00981l-1.52903,-0.30581l-0.99488,0.04738l-0.96628,-0.24157h-11.5098l-1.52903,-0.30581l-0.99488,0.04738l-0.96628,-0.24157h-18.84752l-0.09346,-0.0623l-0.28037,0.0623h-0.27864l-2.22912,0.55728l-1.22834,0.27296l-0.19419,-0.05297l-0.25442,0.15265l-0.56606,0.12579l-0.24922,0.12461l-0.27864,0.06966l-0.05573,0.09753l-0.41641,0.2082l-1.22051,1.04615l-0.64104,0.38462l-0.13845,0.06923l-0.05384,0.04615l-0.54509,0.32705l-0.16621,0.16621l-0.35289,0.0196l-1.29004,1.50504l-0.56826,0.48709l-0.1417,0.00787l-0.36696,0.42812l-0.42812,0.36696l-0.00787,0.1417l-0.88059,1.02736l-1.74016,1.91417l0.01055,0.15292l-0.29513,0.59027c-1.2038,0.66209 -2.29917,1.31846 -3.17367,1.81948c-2.26415,1.29717 -13.99782,12.72056 -14.84836,13.89727c-3.47858,4.81248 -4.32324,7.43887 -7.34534,13.01801c-0.60444,1.11586 -2.17777,4.09173 -3.56112,7.1953c0.03888,-1.66954 0.11712,-3.4201 0.2417,-5.2504c0.70354,-10.33633 0.78759,-14.77871 0.78759,-14.77871z" fill="url(#color-19)" stroke="url(#color-20)"/><path d="M246.04497,77.78924l6.43886,11.04007l17.04179,2.18167l-12.34913,9.5523l4.11084,14.46899l-15.24236,-8.11922l-15.24235,8.11922l4.11083,-14.46899l-12.34913,-9.5523l17.04179,-2.18167z" fill="#e21d29" stroke="#000000"/></g><path d="M248.32148,187.00601c0,3.31371 -3.97811,6 -8.88536,6c-4.90724,0 -8.88536,-2.68629 -8.88536,-6c0,-3.31371 3.97811,-6 8.88536,-6c4.90724,0 8.88536,2.68629 8.88536,6z" fill="#1a164d" stroke="#000000" stroke-width="2" stroke-linecap="butt"/><g stroke-width="0" stroke-linecap="butt"><path d="M225.26703,52.12431l-4.27368,-11.82386l8.12001,-6.26806l6.12561,7.69263l0.28581,-18.01289l12.35586,-1.43677l0.4443,19.3003l7.80017,-8.3009l7.88518,6.47871l-1.67194,7.6965l-16.64102,17.08186l-6.60519,0.40841z" fill="#ffffff" stroke="none"/><path d="M223.07123,43.31067c-0.89842,-1.95052 0.82008,-3.40574 2.08522,-4.46528c1.30957,-1.09675 4.92217,-3.00009 4.92217,-3.00009c0,0 3.53614,7.70161 5.24661,6.88417c0.8462,-0.4044 0.72692,-9.7223 0.99156,-15.68669c0.07461,-1.68141 3.70903,-3.01186 5.33739,-3.09682c4.12605,-0.21529 5.377,0.66952 5.68221,2.7023c0.36813,2.4518 -1.0687,16.14402 0.25578,16.92344c0.81337,0.47864 8.29698,-8.60539 8.29698,-8.60539c0,0 3.527,3.08611 4.6553,4.43128c0.88349,1.05333 1.73081,2.63023 1.32102,3.55192c-0.61514,1.38361 -11.4177,20.07776 -20.08201,19.94338c-8.49145,-0.1317 -17.99396,-18.02285 -18.71221,-19.58222z" fill="#00ffff" stroke="#ffffff"/><path d="M218.73824,42.41499c-1.09484,-2.40236 2.7567,-4.37946 4.29841,-5.68445c1.59586,-1.35082 6.35574,-5.01981 7.66626,-3.5689c2.34617,2.59749 3.26237,3.70135 3.26237,3.70135c0,0 -0.32463,-4.48473 -0.2501,-11.83116c0.03694,-3.64145 4.73583,-4.89236 6.71383,-5.08216c5.55249,-0.53282 9.01104,0.48654 9.67426,2.92558c0.76255,2.8043 0.46981,14.62238 0.46981,14.62238c0,0 2.62292,-3.70026 5.20453,-5.2593c2.40752,-1.45392 7.29529,3.94373 8.67022,5.60051c1.07663,1.29731 2.10916,3.66772 1.6098,4.80291c-0.74962,1.70413 -13.64514,24.3006 -24.20348,24.1351c-10.34769,-0.1622 -22.24063,-22.44125 -23.1159,-24.36183zM241.80926,63.89382c9.72171,-0.03865 21.62348,-20.27861 21.57111,-21.62284c-0.09926,-2.54759 -6.5135,-7.60127 -6.5135,-7.60127c0,0 -7.82347,9.50806 -8.60002,8.40073c-1.20024,-1.7115 -0.35794,-15.92402 -0.6757,-18.46679c-0.33919,-2.71418 -10.00205,-1.68692 -11.1671,0.21036c-0.80116,1.30467 0.2078,17.37451 -0.87302,18.22157c-1.56524,1.22668 -6.29077,-8.09342 -6.29077,-8.09342c0,0 -7.2012,4.77323 -7.65785,6.57095c-0.49726,1.95759 10.9781,22.41742 20.20687,22.38073z" fill="#1542b7" stroke="#1542b7"/></g><g fill="#000000" stroke="#000000" stroke-width="2" stroke-linecap="butt"><path d="M232.23104,162.48613c-19.91597,15.94693 -31.60956,4.62667 -36.27597,0.39768c0,0 7.20137,0.15176 17.31554,-0.18738c7.91514,-0.2654 19.35824,-1.21901 18.96043,-0.2103z" data-paper-data="{&quot;index&quot;:null}"/><path d="M285.24734,162.94323c-4.66641,4.22899 -16.36001,15.54924 -36.27598,-0.39768c-0.4372,-1.10859 9.49217,0.44514 18.33394,0.79767c9.48379,0.37813 17.94204,-0.39999 17.94204,-0.39999z" data-paper-data="{&quot;index&quot;:null}"/><path d="M190.47275,143.62357c-5,-6.968 23.42478,-34.07989 42.48065,-9.48065c0.53655,0.69263 -6.98634,3.78598 -16.40711,5.92907c-12.58922,3.8984 -26.57355,3.84626 -26.57355,3.05158z"/><path d="M290.11719,143.12357c0,0.79468 -13.98433,0.84682 -26.57355,-3.05158c-9.42077,-2.14309 -16.94366,-5.23644 -16.40711,-5.92907c19.05587,-24.59924 47.48065,2.51265 42.48065,9.48065z" data-paper-data="{&quot;index&quot;:null}"/></g><g fill="#003300" stroke="none" stroke-width="0" stroke-linecap="butt"><path d="M207.66575,150.41278c0,-2.62336 2.12665,-4.75001 4.75,-4.75001c2.62336,0 4.75,2.12666 4.75,4.75001c0,2.62336 -2.12665,4.75 -4.75,4.75c-2.62336,0 -4.75,-2.12665 -4.75,-4.75z"/><path d="M262.92419,150.41277c0,-2.62336 2.12664,-4.75001 4.75,-4.75001c2.62336,0 4.75,2.12666 4.75,4.75001c0,2.62336 -2.12665,4.75 -4.75,4.75c-2.62336,0 -4.75,-2.12665 -4.75,-4.75z"/></g><g fill="none" stroke="#ffffff" stroke-width="1" stroke-linecap="butt"><path d="M263.57786,83.23865l-6.13769,-0.10917l-11.33817,-17.13661l-1.08457,2.12733"/><path d="M276.25378,84.46392l4.23977,3.36991l-3.72796,3.54401l2.36073,3.23733l-3.47047,3.9908l3.98288,4.72524"/><path d="M232.33516,83.72932l-3.32317,-2.53059l3.73816,-3.58343l-3.26013,-2.6822"/><path d="M230.55212,124.4836l0.02377,2.38774l17.78305,-10.2947l5.54416,2.63543" data-paper-data="{&quot;index&quot;:null}"/></g></g></g></svg>