<svg version="1.1" xmlns="http://www.w3.org/2000/svg" xmlns:xlink="http://www.w3.org/1999/xlink" width="34.17311" height="34.17311" viewBox="0,0,34.17311,34.17311"><g transform="translate(-222.91345,-162.91344)"><g data-paper-data="{&quot;isPaintingLayer&quot;:true}" stroke-miterlimit="10" stroke-dasharray="" stroke-dashoffset="0" style="mix-blend-mode: normal"><path d="M229.98313,162.91345h20.03378c3.9166,0 7.06966,3.15307 7.06966,7.06966v20.03379c0,3.91659 -3.15306,7.06966 -7.06966,7.06966h-20.03378c-3.91659,0 -7.06967,-3.15307 -7.06967,-7.06966v-20.03379c0,-3.91659 3.15308,-7.06966 7.06967,-7.06966z" fill-opacity="0.09677" fill="#191919" fill-rule="evenodd" stroke="none" stroke-width="4.43922" stroke-linecap="round" stroke-linejoin="round"/><path d="M240.90887,176.95397c4.45234,1.03031 9.87899,5.39177 9.87899,5.39177c0,0 -3.29403,2.80363 -10.71231,1.34845c-5.93149,-1.16353 -10.86348,-6.53638 -10.86348,-6.53638c0,0 4.75715,-1.80975 11.6968,-0.20384z" fill="none" fill-rule="nonzero" stroke="#ffffff" stroke-width="2" stroke-linecap="round" stroke-linejoin="miter"/><path d="M235.61242,178.93229c0.58967,-2.47744 2.99272,-3.17445 5.47015,-2.58478c2.47744,0.58967 4.09111,2.24271 3.50144,4.72015c-0.58967,2.47744 -3.07604,4.00778 -5.55348,3.41811c-2.47744,-0.58967 -4.00778,-3.07604 -3.41811,-5.55348z" fill="#ffffff" fill-rule="nonzero" stroke="none" stroke-width="0" stroke-linecap="butt" stroke-linejoin="miter"/></g></g></svg>