<svg version="1.1" xmlns="http://www.w3.org/2000/svg" xmlns:xlink="http://www.w3.org/1999/xlink" width="164.46635" height="293.8095" viewBox="0,0,164.46635,293.8095"><defs><linearGradient x1="240.00007" y1="175.50003" x2="240.00007" y2="307.50003" gradientUnits="userSpaceOnUse" id="color-1"><stop offset="0" stop-color="#000000"/><stop offset="1" stop-color="#1a9138"/></linearGradient><linearGradient x1="235.59399" y1="76.65558" x2="241.33423" y2="199.08832" gradientUnits="userSpaceOnUse" id="color-2"><stop offset="0" stop-color="#000000"/><stop offset="1" stop-color="#1a9138"/></linearGradient><linearGradient x1="210.1621" y1="115.13602" x2="212.36146" y2="162.04579" gradientUnits="userSpaceOnUse" id="color-3"><stop offset="0" stop-color="#ffffff"/><stop offset="1" stop-color="#8c1906"/></linearGradient><linearGradient x1="207.16981" y1="150.89536" x2="215.35375" y2="126.28644" gradientUnits="userSpaceOnUse" id="color-4"><stop offset="0" stop-color="#8c1906"/><stop offset="1" stop-color="#ffffff"/></linearGradient><linearGradient x1="209.83776" y1="108.21841" x2="210.96309" y2="132.22005" gradientUnits="userSpaceOnUse" id="color-5"><stop offset="0" stop-color="#000000"/><stop offset="1" stop-color="#1a9138"/></linearGradient><linearGradient x1="264.361" y1="112.59492" x2="265.48595" y2="136.58867" gradientUnits="userSpaceOnUse" id="color-6"><stop offset="0" stop-color="#000000"/><stop offset="1" stop-color="#1a9138"/></linearGradient><linearGradient x1="166.08274" y1="118.07183" x2="168.20587" y2="163.35541" gradientUnits="userSpaceOnUse" id="color-7"><stop offset="0" stop-color="#000000"/><stop offset="1" stop-color="#1a9138"/></linearGradient><linearGradient x1="309.40721" y1="111.35209" x2="311.53032" y2="156.63567" gradientUnits="userSpaceOnUse" id="color-8"><stop offset="0" stop-color="#000000"/><stop offset="1" stop-color="#1a9138"/></linearGradient><radialGradient cx="261.79541" cy="153.18183" r="30.77202" gradientUnits="userSpaceOnUse" id="color-9"><stop offset="0" stop-color="#5f0000"/><stop offset="1" stop-color="#4a0000"/></radialGradient></defs><g transform="translate(-156.57336,-22.43859)"><g data-paper-data="{&quot;isPaintingLayer&quot;:true}" fill-rule="nonzero" stroke-linejoin="miter" stroke-miterlimit="10" stroke-dasharray="" stroke-dashoffset="0" style="mix-blend-mode: normal"><path d="M250.30584,107.02924c0,0 -11.1315,-26.72252 -15.95197,-38.29463c-3.99659,-9.5943 9.12315,-24.64356 9.12315,-24.64356l9.90256,5.61982c0,0 -16.68393,5.57461 -12.8171,14.85739c4.87146,11.69452 16.51286,39.64109 16.51286,39.64109z" fill="#8bd19c" stroke="#000000" stroke-width="0" stroke-linecap="butt"/><path d="M253.92803,57.77193c-9.75703,0 -17.66667,-7.90964 -17.66667,-17.66667c0,-9.75703 7.90964,-17.66667 17.66667,-17.66667c9.75703,0 17.66667,7.90964 17.66667,17.66667c0,9.75703 -7.90964,17.66667 -17.66667,17.66667z" fill="#116025" stroke="#000000" stroke-width="0" stroke-linecap="butt"/><path d="M206.75007,307.50002l15.14285,-131.8421l37.78325,-0.15789l13.57389,132z" fill="url(#color-1)" stroke="#000000" stroke-width="0" stroke-linecap="butt"/><path d="M239.47103,45.81638c-0.04668,-0.03507 -0.09357,-0.07574 -0.14046,-0.12263c-0.70711,-0.7071 0,-1.41422 0,-1.41422c1.92697,-1.75715 1.70011,-5.55527 3.37028,-7.774c0.68632,-0.91174 1.93255,-1.2589 3.01355,-1.62459c4.89173,-1.65481 10.07037,-1.21978 14.94261,0.03136c2.089,1.39267 4.37947,2.22312 6.43829,3.85413c0.58598,0.46422 1.62712,0.68058 1.73576,1.42022c0.19617,1.3356 -2.98098,2.49237 -3.72686,2.86021c-1.94786,0.96061 -3.3191,2.4588 -5.56957,2.91302c-3.68567,0.7439 -7.82549,0.34261 -11.60057,0.34261c-2.21099,0 -4.42198,0 -6.63297,0h-0.94757c0,0 -0.61825,0 -0.8825,-0.48612zM241.72851,44.3025c2.06852,0 4.13704,0 6.20557,0c4.46654,0 9.69012,0.61508 13.80535,-1.17633c1.15897,-0.50451 2.61926,-1.55442 3.70574,-2.16828c0.18289,-0.10334 0.49337,-0.30588 0.77791,-0.47783c-0.49121,-0.15944 -1.11695,-0.71108 -1.51692,-1.01053c-1.58664,-1.18788 -3.2772,-1.67416 -4.85825,-2.72819c-4.40467,-1.0684 -9.06126,-1.41827 -13.48443,0.03136c-0.7066,0.23158 -1.63274,0.28021 -2.04014,0.90226c-1.34396,2.05209 -1.50856,4.58081 -2.59483,6.62754z" fill="#000000" stroke="none" stroke-width="0" stroke-linecap="butt"/><path d="M244.27485,37.66274c0.4074,-0.62205 1.33622,-0.67853 2.04282,-0.91011c4.42317,-1.44963 9.16894,-1.10456 13.57361,-0.03616c1.58105,1.05403 3.27814,1.56221 4.86478,2.75009c0.39997,0.29945 1.02577,0.85557 1.51698,1.01501c-0.28454,0.17195 -0.59512,0.37667 -0.77801,0.48001c-1.08648,0.61386 -2.55003,1.6782 -3.70901,2.18271c-4.11523,1.79141 -9.42648,1.18672 -13.89302,1.18672c-2.06852,0 -4.14327,-0.01231 -6.2118,-0.01231c1.08627,-2.04673 1.24968,-4.60388 2.59364,-6.65597z" fill="#ff0000" stroke="none" stroke-width="0" stroke-linecap="butt"/><path d="M260.40124,40.10526c0,2.53713 -2.89815,4.59389 -6.4732,4.59389c-3.57505,0 -6.47321,-2.05676 -6.47321,-4.59389c0,-2.53713 2.89816,-4.59388 6.47321,-4.59388c3.57505,0 6.4732,2.05675 6.4732,4.59388z" fill="#000000" stroke="#000000" stroke-width="0" stroke-linecap="butt"/><path d="M187.23205,316.24809l-12.51506,-266.93178l123.04687,-5.76904l12.51507,266.93179z" fill-opacity="0.01" fill="#000000" stroke="none" stroke-width="0" stroke-linecap="butt"/><path d="M174.29757,140.88038c-1.58513,-33.80886 25.85822,-62.5633 61.2964,-64.22482c35.4382,-1.66152 65.45153,24.39908 67.03666,58.20793c1.58513,33.80886 -25.85822,62.5633 -61.2964,64.22482c-35.4382,1.66152 -65.45153,-24.39907 -67.03666,-58.20793z" fill="url(#color-2)" stroke="#000000" stroke-width="0" stroke-linecap="butt"/><path d="M174.85919,137.41988c-0.03715,-0.79226 8.05422,60.61304 66.196,58.99403c55.55203,-1.54692 60.48685,-66.04478 60.53884,-64.93597c1.67385,35.70136 -25.33979,65.97319 -60.33663,67.61401c-34.99685,1.64083 -64.72434,-25.97071 -66.3982,-61.67206z" fill="#8e0000" stroke-opacity="0.59608" stroke="#8f0000" stroke-width="14.5" stroke-linecap="butt"/><path d="M187.8069,139.69059c-0.60734,-12.95378 9.40144,-23.94723 22.35521,-24.55457c12.95378,-0.60734 23.94723,9.40144 24.55457,22.35521c0.60734,12.95378 -9.40144,23.94724 -22.3552,24.55457c-12.95378,0.60734 -23.94724,-9.40144 -24.55457,-22.35521z" fill="url(#color-3)" stroke="#000000" stroke-width="0" stroke-linecap="butt"/><path d="M238.76763,160.80773c-12.95378,0.60734 3.84548,-10.7045 3.23815,-23.65826c-0.60734,-12.95378 9.40144,-23.94723 22.3552,-24.55457c12.95378,-0.60734 23.94723,9.40144 24.55457,22.3552c0.60733,12.95378 -37.19414,25.25029 -50.14792,25.85763z" fill="#696969" stroke="#000000" stroke-width="0" stroke-linecap="butt"/><path d="M223.56624,142.68287c-2.25993,6.79556 -9.60086,10.47241 -16.39642,8.21248c-6.79556,-2.25993 -10.47241,-9.60086 -8.21248,-16.39642c2.25993,-6.79556 9.60086,-10.47241 16.39642,-8.21248c6.79556,2.25993 10.47242,9.60086 8.21249,16.39642z" fill="url(#color-4)" stroke="#000000" stroke-width="0" stroke-linecap="butt"/><path d="M187.48256,132.77298c-0.60734,-12.95378 9.40143,-23.94723 22.3552,-24.55456c12.95378,-0.60734 23.94723,9.40143 24.55457,22.3552c0,0 -46.85209,3.42956 -46.90978,2.19935z" fill="url(#color-5)" stroke="#000000" stroke-width="0" stroke-linecap="butt"/><path d="M242.0058,137.14947c-0.60734,-12.95378 9.40144,-23.94723 22.3552,-24.55457c12.95378,-0.60734 23.94723,9.40144 24.55457,22.3552c0.05685,1.21247 -46.90978,2.19935 -46.90978,2.19935z" fill="url(#color-6)" stroke="#000000" stroke-width="0" stroke-linecap="butt"/><path d="M245.69194,278.45729c63.63867,-6.20506 56.99199,-147.87475 56.99199,-147.87475l8.24461,-9.14249c0,0 9.14453,169.07213 -64.51977,172.30652c-74.03015,3.25044 -81.25176,-164.01269 -81.25176,-164.01269l7.67933,6.20691c0,0 11.22573,148.52568 72.85559,142.51652z" fill="#8bd19c" stroke="#000000" stroke-width="0" stroke-linecap="butt"/><path d="M156.60166,141.20792c-0.58628,-12.50473 8.00901,-23.06707 19.19814,-23.59167c1.01313,-0.04749 3.30816,45.22803 2.12311,45.28359c-11.18913,0.5246 -20.73498,-9.18721 -21.32126,-21.69191z" fill="url(#color-7)" stroke="#000000" stroke-width="0" stroke-linecap="butt"/><path d="M172.77976,164.47577l-2.26362,-48.2803l10.12986,-0.47494l2.26362,48.28031z" fill="#8bd19c" stroke="#000000" stroke-width="0" stroke-linecap="butt"/><path d="M301.81325,157.09125c-1.18505,0.05557 -3.13623,-45.23609 -2.12311,-45.28358c11.18913,-0.5246 20.735,9.18721 21.32128,21.69192c0.58628,12.50472 -8.00903,23.06706 -19.19815,23.59166z" fill="url(#color-8)" stroke="#000000" stroke-width="0" stroke-linecap="butt"/><path d="M296.58934,158.67097l-2.26362,-48.2803l10.12986,-0.47494l2.26362,48.28031z" fill="#8bd19c" stroke="#000000" stroke-width="0" stroke-linecap="butt"/><path d="M253.45982,83.22094l5.82713,21.08356l-24.34576,-10.37118l1.86264,11.25846l-23.81776,-16.90308" fill="none" stroke="#000000" stroke-width="0" stroke-linecap="round"/><path d="M199.0815,110.32185c0,0 6.45949,-5.47774 11.48623,-6.90907c5.02676,-1.43133 12.35335,0.12095 12.35335,0.12095c0,0 -8.03213,0.31624 -11.91412,1.42161c-4.05683,1.15515 -11.92547,5.36651 -11.92547,5.36651z" fill="#000000" stroke="none" stroke-width="0" stroke-linecap="butt"/><path d="M262.72094,102.53075c-3.96839,-0.7373 -11.99486,-0.30064 -11.99486,-0.30064c0,0 7.14922,-2.23097 12.28785,-1.27625c5.13861,0.95471 12.08229,5.80405 12.08229,5.80405c0,0 -8.22816,-3.45665 -12.37528,-4.22716z" fill="#000000" stroke="none" stroke-width="0" stroke-linecap="butt"/><path d="M246.61546,156.0632c0.69271,-0.04576 1.38523,-0.0893 2.07693,-0.12033c0.66823,-0.02998 3.73287,-0.00596 4.61531,-0.51011c1.69377,-0.96766 3.08389,-2.54454 4.94461,-3.13015c3.09011,-0.97253 7.41489,-1.01849 10.93347,-2.1373c0.32837,-0.25975 0.75756,-0.46863 1.29441,-0.48098c0.76025,-0.32961 1.46335,-0.73041 2.08392,-1.22725c1.46102,-1.1697 2.23275,-3.11928 3.81397,-4.12053c1.68613,-1.06769 3.82429,-1.95111 5.88134,-2.69698c0.3249,-0.48839 0.68725,-0.93239 1.108,-1.30614c0.05271,-0.07716 0.11553,-0.14806 0.19088,-0.2113c0.17242,-0.1447 0.35193,-0.27833 0.53731,-0.40283l-0.11373,-0.12073l1.82055,-1.71474c0.42037,-0.40071 0.98148,-0.65761 1.60715,-0.68695c1.32512,-0.06213 2.45756,0.91914 2.60169,2.21941c1.15123,0.74578 1.84314,2.21149 2.12234,4.39317c0.61839,4.83236 -3.11957,5.61438 -5.72568,7.97256c-1.8438,1.6684 -2.3164,5.67524 -2.83572,7.83892c-2.75712,3.67965 -5.72226,9.05495 -11.65041,7.48718c-1.46175,-0.38657 -3.8353,-2.98079 -5.14206,-4.8234c-0.00581,-0.00136 -0.01162,-0.00272 -0.01743,-0.00409c-0.92424,0.19363 -1.84184,0.39941 -2.74697,0.62474c-2.65812,0.66171 -5.06689,2.62953 -7.5044,3.83955c-3.49439,0.87432 -8.86537,1.98484 -12.5021,1.22781c-0.92211,-0.19195 -1.9103,-0.40549 -2.80648,-0.70484c-0.14269,0.03253 -0.29023,0.05294 -0.44155,0.06004l-2.72476,0.12775l-0.00715,-0.15237c-0.28594,0.03628 -0.57455,0.05089 -0.86655,0.03787c-1.21804,-0.05429 -2.08822,-1.29304 -2.96972,-2.13536c-3.23675,-3.09292 -4.66778,-8.40837 0.47313,-10.91732c1.22677,-0.5987 2.73792,-0.15502 4.09518,-0.00924c2.61692,0.28107 5.21057,1.32343 7.85452,1.78395z" fill="url(#color-9)" stroke="none" stroke-width="0" stroke-linecap="butt"/></g></g></svg>