<svg version="1.1" xmlns="http://www.w3.org/2000/svg" xmlns:xlink="http://www.w3.org/1999/xlink" width="34.67311" height="34.67311" viewBox="0,0,34.67311,34.67311"><defs><linearGradient x1="239.99996" y1="162.91346" x2="239.99996" y2="197.08657" gradientUnits="userSpaceOnUse" id="color-1"><stop offset="0" stop-color="#000000"/><stop offset="1" stop-color="#4a2254"/></linearGradient><radialGradient cx="237.3655" cy="180.42777" r="10.15306" gradientUnits="userSpaceOnUse" id="color-2"><stop offset="0" stop-color="#000000"/><stop offset="1" stop-color="#3a0000"/></radialGradient></defs><g transform="translate(-222.66344,-162.66345)"><g data-paper-data="{&quot;isPaintingLayer&quot;:true}" stroke-miterlimit="10" stroke-dasharray="" stroke-dashoffset="0" style="mix-blend-mode: normal"><path d="M229.98311,162.91346h20.03379c3.9166,0 7.06966,3.15307 7.06966,7.06966v20.03379c0,3.91659 -3.15306,7.06966 -7.06966,7.06966h-20.03379c-3.91659,0 -7.06966,-3.15307 -7.06966,-7.06966v-20.03379c0,-3.91659 3.15307,-7.06966 7.06966,-7.06966z" fill="url(#color-1)" fill-rule="evenodd" stroke="#a349ba" stroke-width="0.5" stroke-linecap="round" stroke-linejoin="round"/><path d="M227.21244,187.30587v-13.7562h20.30612v13.7562z" fill="url(#color-2)" fill-rule="nonzero" stroke="#737373" stroke-width="0.25" stroke-linecap="butt" stroke-linejoin="miter"/><g fill-rule="nonzero" stroke-linejoin="miter"><path d="M225.97142,189.46593v-18.93181h28.05721v18.93181zM227.26321,187.27422l20.29335,-0.13575l-0.20385,-13.48335l-20.08905,-0.00045z" fill="#9d829c" stroke="#725771" stroke-width="0.25" stroke-linecap="butt"/><path d="M248.07864,176.24814c0,-0.3275 0,-1.33624 0,-1.88179c0,-0.2158 0.20061,-0.35913 0.41624,-0.35913c0.62411,0 3.69876,0 4.72381,0c0.20938,0 0.33324,0.27715 0.33324,0.50388c0,0.31839 0,1.1998 0,1.73703c0,0.25712 -0.17802,0.43541 -0.46821,0.43541c-1.14909,0 -4.05693,0 -4.63383,0c-0.19492,0 -0.37125,-0.23394 -0.37125,-0.43541z" fill="#725771" stroke="#725771" stroke-width="0" stroke-linecap="butt"/><path d="M248.42058,187.67689c0,-0.43691 0,-1.08432 0,-1.32164c0,-0.17387 0.18284,-0.38284 0.37738,-0.38284c0.54506,0 3.15689,0 4.07202,0c0.19886,0 0.3176,0.27026 0.3176,0.47724c0,0.23982 0,0.82182 0,1.22724c0,0.24604 -0.15051,0.42704 -0.3176,0.42704c-0.47667,0 -2.81139,0 -3.89497,0c-0.33813,0 -0.55443,-0.17982 -0.55443,-0.42704z" fill="none" stroke="#725771" stroke-width="0.25" stroke-linecap="butt"/><path d="M248.44442,185.13635c0,-1.3427 0,-6.60478 0,-7.48012c0,-0.24105 0.19371,-0.44831 0.39781,-0.44831c0.54283,0 3.0352,0 4.02776,0c0.2538,0 0.40954,0.18453 0.40954,0.40405c0,0.82546 0,5.95448 0,7.43586c0,0.25352 -0.12873,0.4002 -0.27676,0.4002c-0.4907,0 -3.22087,0 -4.2048,0c-0.2207,0 -0.35354,-0.11288 -0.35354,-0.31168z" fill="#ffdeff" stroke="#725771" stroke-width="0.25" stroke-linecap="butt"/><path d="M253.13555,188.74362c0,-0.13445 0.10899,-0.24344 0.24344,-0.24344c0.13445,0 0.24344,0.10899 0.24344,0.24344c0,0.13445 -0.10899,0.24344 -0.24344,0.24344c-0.13445,0 -0.24344,-0.10899 -0.24344,-0.24344z" fill="#725771" stroke="none" stroke-width="0.25" stroke-linecap="butt"/><path d="M226.62519,188.56658c0,-0.18334 0.14862,-0.33196 0.33196,-0.33196c0.18334,0 0.33196,0.14862 0.33196,0.33196c0,0.18334 -0.14862,0.33196 -0.33196,0.33196c-0.18334,0 -0.33196,-0.14862 -0.33196,-0.33196z" fill="#725771" stroke="none" stroke-width="0.25" stroke-linecap="butt"/><path d="M226.31537,171.23838c0,-0.12222 0.09908,-0.22131 0.22131,-0.22131c0.12222,0 0.22131,0.09908 0.22131,0.22131c0,0.12222 -0.09908,0.22131 -0.22131,0.22131c-0.12222,0 -0.22131,-0.09908 -0.22131,-0.22131z" fill="#725771" stroke="none" stroke-width="0.25" stroke-linecap="butt"/><path d="M253.13625,171.09182c0,-0.16297 0.13211,-0.29509 0.29509,-0.29509c0.16297,0 0.29509,0.13211 0.29509,0.29509c0,0.16297 -0.13211,0.29509 -0.29509,0.29509c-0.16297,0 -0.29509,-0.13212 -0.29509,-0.29509z" fill="#725771" stroke="none" stroke-width="0.25" stroke-linecap="butt"/><path d="M250.80942,185.21322v-7.92273" fill="none" stroke="#725771" stroke-width="0.25" stroke-linecap="round"/><path d="M253.06673,183.13295h-4.51463" fill="none" stroke="#725771" stroke-width="0.25" stroke-linecap="round"/><path d="M253.19951,181.22973h-4.60315" fill="none" stroke="#725771" stroke-width="0.25" stroke-linecap="round"/><path d="M248.50784,179.28223h4.64741" fill="none" stroke="#725771" stroke-width="0.25" stroke-linecap="round"/></g></g></g></svg>