<svg version="1.1" xmlns="http://www.w3.org/2000/svg" xmlns:xlink="http://www.w3.org/1999/xlink" width="186.94524" height="295.77542" viewBox="0,0,186.94524,295.77542"><defs><linearGradient x1="266.08484" y1="17.83717" x2="266.08484" y2="82.81201" gradientUnits="userSpaceOnUse" id="color-1"><stop offset="0" stop-color="#000000"/><stop offset="1" stop-color="#4f5763"/></linearGradient><linearGradient x1="294.84156" y1="44.42061" x2="294.84156" y2="59.86633" gradientUnits="userSpaceOnUse" id="color-2"><stop offset="0" stop-color="#9ad4d4"/><stop offset="1" stop-color="#46bdb7"/></linearGradient><linearGradient x1="240" y1="88.9878" x2="240" y2="271.01232" gradientUnits="userSpaceOnUse" id="color-3"><stop offset="0" stop-color="#000000"/><stop offset="1" stop-color="#17b2c5"/></linearGradient><linearGradient x1="240.00004" y1="175.50009" x2="240.00004" y2="307.50005" gradientUnits="userSpaceOnUse" id="color-4"><stop offset="0" stop-color="#0c070c"/><stop offset="1" stop-color="#3dcadc"/></linearGradient><linearGradient x1="240.46918" y1="175.50009" x2="240.46918" y2="224.13938" gradientUnits="userSpaceOnUse" id="color-5"><stop offset="0" stop-color="#000000"/><stop offset="1" stop-color="#0c070c" stop-opacity="0.14012"/></linearGradient><linearGradient x1="239.62915" y1="76.54783" x2="239.62915" y2="197.14459" gradientUnits="userSpaceOnUse" id="color-6"><stop offset="0" stop-color="#070b0d"/><stop offset="1" stop-color="#15b3c1"/></linearGradient><linearGradient x1="214.6432" y1="200.98638" x2="218.00584" y2="200.98638" gradientUnits="userSpaceOnUse" id="color-7"><stop offset="0" stop-color="#ffffff"/><stop offset="1" stop-color="#ffffff" stop-opacity="0.16069"/></linearGradient><linearGradient x1="267.06199" y1="196.92591" x2="270.77356" y2="196.92591" gradientUnits="userSpaceOnUse" id="color-8"><stop offset="0" stop-color="#ffffff" stop-opacity="0.08004"/><stop offset="1" stop-color="#ffffff"/></linearGradient></defs><g transform="translate(-146.52738,-17.83709)"><g data-paper-data="{&quot;isPaintingLayer&quot;:true}" fill-rule="nonzero" stroke-linejoin="miter" stroke-miterlimit="10" stroke-dasharray="" stroke-dashoffset="0" style="mix-blend-mode: normal"><path d="M178.40899,313.61251v-267.22501c0,0 47.08901,0 68.65763,0c19.22089,0 54.5244,0 54.5244,0v267.22501z" fill-opacity="0.01" fill="#000000" stroke="none" stroke-width="0" stroke-linecap="butt"/><g stroke-linecap="round"><path d="M231.54125,77.87717l13.98193,-47.4289l19.7392,-12.61115l35.36605,9.8696l-4.66064,16.17517l-33.99527,-8.77298l-12.06285,47.70305z" fill="url(#color-1)" stroke="#000000" stroke-width="0"/><path d="M238.39515,55.94479c0,0 5.91854,3.19208 8.82857,4.20828c2.84581,0.99377 8.44322,1.82315 8.44322,1.82315l-2.53968,8.64338c0,0 -7.37365,-0.24245 -10.28023,-1.57662c-2.64278,-1.21308 -7.19344,-4.59937 -7.19344,-4.59937z" fill="#2d1723" stroke="#000000" stroke-width="0"/><path d="M243.32995,38.67298c0,0 5.70006,1.39391 8.33373,2.13557c2.86379,0.80646 8.21654,2.52508 8.21654,2.52508l-1.91909,6.30557c0,0 -6.04806,-0.30252 -8.73467,-1.02658c-2.7378,-0.73785 -7.54144,-3.35992 -7.54144,-3.35992z" fill="#2d1723" stroke="#000000" stroke-width="0"/><path d="M280.61508,22.49783c0,0 -1.26124,6.30882 -2.20833,9.10273c-0.87488,2.5809 -3.27477,7.07244 -3.27477,7.07244l-8.15239,-2.26552c0,0 1.47076,-5.74053 2.53582,-8.4934c1.00776,-2.60478 3.69216,-7.60417 3.69216,-7.60417z" fill="#2d1723" stroke="#000000" stroke-width="0"/><path d="M294.87117,26.06186c0,0 -1.553,5.68788 -2.48588,8.43987c-0.89309,2.63461 -2.99723,7.7353 -2.99723,7.7353l-7.12804,-2.4674c0,0 1.20187,-5.00919 1.98326,-7.49124c0.77204,-2.45238 2.67738,-7.31316 2.67738,-7.31316z" fill="#2d1723" stroke="#000000" stroke-width="0"/><path d="M266.08484,17.83709l-4.11233,17.54595l-15.631,-5.48173z" fill="#0b090b" stroke="#000000" stroke-width="0"/><path d="M231.54125,77.87717l13.98193,-47.4289l19.7392,-12.61115l35.36605,9.8696l-4.66064,16.17517l-33.99527,-8.77298l-12.06285,47.70305z" fill="none" stroke="#000000" stroke-width="0"/><path d="M300.6256,27.48675l-4.72668,17.46814l4.72667,-17.87916" fill="none" stroke="#9ad4d4" stroke-width="1"/><path d="M293.44124,49.71629l0.4413,-5.29568l2.35932,0.15279l-0.86555,15.29293" fill="none" stroke="url(#color-2)" stroke-width="1"/></g><g stroke-linecap="round"><path d="M302.42136,119.02464l22.87988,23.28845l-19.61133,22.47131l-1.22571,67.00536l29.00842,13.07422l-21.65417,4.49426l12.66565,21.65417c0,0 -85.41974,0 -116.59013,0c-20.86918,0 -52.26225,0 -52.26225,0l13.35304,-21.18123l-22.45738,-6.06956l27.91998,-11.53216v-64.94431l-20.02956,-24.27824l22.45738,-22.45738l71.01387,-31.56172z" fill="url(#color-3)" stroke="#000000" stroke-width="0"/><path d="M202.8477,270.96889c0,0 4.95381,-38.48853 5.68043,-54.39498c0.55345,-12.11557 -1.69707,-32.80545 -1.69707,-32.80545l70.85492,-5.03762c0,0 -3.54934,23.03061 -3.82275,33.09039c-0.44305,16.30151 1.41807,59.33696 1.41807,59.33696l-0.49499,0.0008" fill="#0f7784" stroke="#004c5d" stroke-width="1.5"/><path d="M164.08365,151.72082l-1.29333,7.50129l-2.58665,-10.34661l-3.62132,8.79462l-1.03466,-12.93327" fill="#083d44" stroke="#004c5d" stroke-width="0"/><path d="M325.48774,141.86577l-0.51733,14.48526l-2.32799,-11.38127h-2.58665l-1.29332,13.45059l-3.10399,-6.98396" fill="#083d44" stroke="#004c5d" stroke-width="0"/><path d="M151.25175,243.08684l-3.08915,9.70873l-0.4413,-9.26743" fill="#1499a9" stroke="#004c5d" stroke-width="0"/><path d="M157.29449,244.09261l-2.60927,7.50163l-0.65231,-7.50163" fill="#1499a9" stroke="#004c5d" stroke-width="0"/><path d="M181.88618,269.08549l-4.12603,6.0015l-1.12528,-5.6264l-3.37584,-0.37509l-0.90646,5.67987l-1.95695,13.04631l-1.63079,-10.11089l-1.63079,3.14643l-1.20048,-12.60505" fill="#17b0c3" stroke="#004c5d" stroke-width="0"/><path d="M200.18095,268.35992l-2.64784,15.00441l-2.20654,-14.5631" fill="#17b0c3" stroke="#004c5d" stroke-width="0"/><path d="M322.42277,245.85335l-2.64783,9.70873l-1.32392,-11.47396" fill="#1499a9" stroke="#004c5d" stroke-width="0"/><path d="M332.13151,244.52943l-2.20653,7.5022l-1.32392,-6.61959" fill="#1499a9" stroke="#004c5d" stroke-width="0"/><path d="M322.86408,270.56649l-1.32392,11.03265l-2.64784,-11.91527l-2.20653,4.85437l-0.88261,-5.29567" fill="#17b0c3" stroke="#004c5d" stroke-width="0"/><path d="M306.97706,269.24253l-1.76522,17.65225l-3.08915,-18.09355" fill="#17b0c3" stroke="#004c5d" stroke-width="0"/><path d="M304.66388,233.64158l24.73642,10.9489" fill="none" stroke="#ffffff" stroke-width="1"/><path d="M321.54949,267.57446l-10.13788,-15.40957" fill="none" stroke="#ffffff" stroke-width="1"/><path d="M174.42225,234.43041l-23.51987,9.32684" fill="none" stroke="#ffffff" stroke-width="1"/><path d="M158.15108,269.3916l11.61665,-16.45692" fill="none" stroke="#ffffff" stroke-width="1"/><path d="M193.95377,269.36868l-10.27538,-0.20551" fill="none" stroke="#ffffff" stroke-width="1"/><path d="M173.5663,162.55212l-6.77638,-8.22846" fill="none" stroke="#ffffff" stroke-width="1"/><path d="M158.97753,150.44099l-2.47088,6.00071l-0.88246,-10.2365" fill="none" stroke="#ffffff" stroke-width="1"/><path d="M163.60643,154.91897l-0.91474,3.65898l-0.54885,-4.39078" fill="none" stroke="#ffffff" stroke-width="1"/><path d="M313.69481,153.3007l-6.73607,7.65463" fill="none" stroke="#ffffff" stroke-width="1"/><path d="M319.13201,157.36793v-5.1733" fill="none" stroke="#ffffff" stroke-width="1"/><path d="M325.62025,153.18079v-7.70479" fill="none" stroke="#ffffff" stroke-width="1"/><path d="M319.40583,146.73084l1.87522,-1.36379" fill="none" stroke="#ffffff" stroke-width="1"/></g><g><path d="M261.4104,218.91844c0,0 17.96897,-5.32978 23.45881,-4.36443c7.75629,1.36389 19.36716,16.09383 19.36716,16.09383c0,0 -17.06641,3.00055 -22.64048,3.00055c-5.57407,0 -20.18549,-14.72995 -20.18549,-14.72995z" fill="#000000" stroke="none" stroke-width="0" stroke-linecap="butt"/><path d="M270.41204,233.92116l0.54555,-7.63775" fill="none" stroke="#000000" stroke-width="1" stroke-linecap="round"/><path d="M275.86758,229.8295l0.27278,3.81888" fill="none" stroke="#000000" stroke-width="1" stroke-linecap="round"/><path d="M287.59699,236.64893l0.54555,-3.00054" fill="none" stroke="#000000" stroke-width="1" stroke-linecap="round"/><path d="M290.59752,247.55999l0.54556,-14.72995" fill="none" stroke="#000000" stroke-width="1" stroke-linecap="round"/></g><g><path d="M264.13767,208.02362c0,0 10.65045,-15.42265 15.53138,-18.11464c6.89598,-3.80336 25.17838,0.38448 25.17838,0.38448c0,0 -11.40869,13.04252 -15.74965,16.53914c-4.34096,3.49662 -24.96011,1.19102 -24.96011,1.19102z" fill="#000000" stroke="none" stroke-width="0" stroke-linecap="butt"/><path d="M277.94836,208.40871l-0.10226,3.73686" fill="none" stroke="#000000" stroke-width="1" stroke-linecap="round"/><path d="M281.92193,207.29233l0.05455,2.80294" fill="none" stroke="#000000" stroke-width="1" stroke-linecap="round"/><path d="M294.19615,202.72589l0.34024,4.91326" fill="none" stroke="#000000" stroke-width="1" stroke-linecap="round"/><path d="M296.69564,213.45625l-0.03771,-14.20745" fill="none" stroke="#000000" stroke-width="1" stroke-linecap="round"/></g><g><path d="M175.53202,189.40997c0,0 18.27841,-4.14613 23.69357,-2.82469c7.65078,1.867 18.27594,17.32305 18.27594,17.32305c0,0 -17.2258,1.88074 -22.788,1.51709c-5.5622,-0.36365 -19.18152,-16.01546 -19.18152,-16.01546z" fill="#000000" stroke="none" stroke-width="0" stroke-linecap="butt"/><path d="M179.34405,190.1325l-0.49458,8.30773" fill="none" stroke="#000000" stroke-width="1" stroke-linecap="round"/><path d="M191.69813,201.61072l-0.45032,10.07043" fill="none" stroke="#000000" stroke-width="1" stroke-linecap="round"/><path d="" fill="none" stroke="#000000" stroke-width="1" stroke-linecap="round"/><path d="M194.18347,206.77053l0.21096,-3.45261" fill="none" stroke="#000000" stroke-width="1" stroke-linecap="round"/></g><g><path d="M175.15267,228.57685c0,0 12.63221,-13.84622 17.83146,-15.85569c7.34574,-2.83908 24.89674,3.77499 24.89674,3.77499c0,0 -13.06268,11.3856 -17.83536,14.26515c-4.77268,2.87955 -24.89285,-2.18445 -24.89285,-2.18445z" fill="#000000" stroke="none" stroke-width="0" stroke-linecap="butt"/><path d="M181.74139,228.8671l-0.11305,13.66428" fill="none" stroke="#000000" stroke-width="1" stroke-linecap="round"/><path d="M186.47631,232.95288l-0.22716,-3.36505" fill="none" stroke="#000000" stroke-width="1" stroke-linecap="round"/><path d="" fill="none" stroke="#000000" stroke-width="1" stroke-linecap="round"/><path d="M208.8936,222.65042l0.62747,3.89175" fill="none" stroke="#000000" stroke-width="1" stroke-linecap="round"/></g><g><path d="M206.75005,307.50005l15.14285,-131.8421l37.78325,-0.15789l13.57389,132z" fill="url(#color-4)" stroke="#000000" stroke-width="0" stroke-linecap="butt"/><path d="M211.85284,263.0723c2.78578,-24.25449 10.04006,-87.41435 10.04006,-87.41435l37.78325,-0.15789c0,0 6.61373,64.31555 9.11464,88.63585c0.10917,1.0617 -14.40378,-4.06526 -28.80287,-4.33219c-14.1849,-0.26295 -28.2593,4.35014 -28.13508,3.26858z" fill-opacity="0.14012" fill="#0c070c" stroke="#000000" stroke-width="0" stroke-linecap="butt"/><path d="M217.07677,217.58988c2.51065,-21.85917 4.81613,-41.9319 4.81613,-41.9319l37.78325,-0.15789c0,0 1.98225,19.27649 4.18669,40.71367c0.24136,2.34717 -11.32567,7.51272 -23.01786,7.90066c-11.96137,0.39687 -24.05372,-4.03865 -23.7682,-6.52454z" fill="url(#color-5)" stroke="#000000" stroke-width="0" stroke-linecap="butt"/><path d="M215.00769,252.05269l-5.73698,52.07414" fill="none" stroke="#ffffff" stroke-width="1" stroke-linecap="round"/><path d="M265.13765,252.12426l5.29568,51.19153" fill="none" stroke="#ffffff" stroke-width="1" stroke-linecap="round"/></g><g><path d="M175.39213,136.84618c0,-33.30185 28.7599,-60.29833 64.23702,-60.29833c35.47712,0 64.23702,26.99649 64.23702,60.29833c0,33.30185 -28.7599,60.29833 -64.23702,60.29833c-35.47712,0 -64.23702,-26.99649 -64.23702,-60.29833z" fill="url(#color-6)" stroke="#000000" stroke-width="0" stroke-linecap="butt"/><path d="M230.03559,147.63477v-13.2589h17.79484v13.2589z" fill="#29353c" stroke="none" stroke-width="0" stroke-linecap="butt"/><path d="M177.26369,148.63155c0,0 -2.3493,-4.15042 -1.78806,-14.2111c1.25588,-22.5127 13.28227,-58.79888 65.45573,-57.7731c44.82983,0.93387 59.19813,30.4443 62.10312,52.79084c1.83667,14.12858 -0.49139,21.15347 -0.49139,21.15347c0,0 -23.48814,5.58175 -61.88274,5.91951c-34.39482,0.30257 -63.39665,-7.87962 -63.39665,-7.87962z" fill-opacity="0.20144" fill="#000000" stroke="none" stroke-width="0" stroke-linecap="butt"/><path d="M189.85638,141.71778c0,-12.968 10.51265,-23.48065 23.48065,-23.48065c12.968,0 23.48065,10.51265 23.48065,23.48065c0,12.968 -10.51265,23.48065 -23.48065,23.48065c-12.968,0 -23.48065,-10.51265 -23.48065,-23.48065z" fill="#5a5e6b" stroke="#000000" stroke-width="0" stroke-linecap="butt"/><path d="M266.68143,164.2455c-12.968,0 -23.48065,-10.51265 -23.48065,-23.48065c0,-12.968 10.51265,-23.48065 23.48065,-23.48065c12.968,0 23.48065,10.51265 23.48065,23.48065c0,12.968 -10.51265,23.48065 -23.48065,23.48065z" data-paper-data="{&quot;index&quot;:null}" fill="#5a5e6b" stroke="#000000" stroke-width="0" stroke-linecap="butt"/><path d="M189.85638,138.22861c0,-12.968 10.51265,-23.48065 23.48065,-23.48065c12.968,0 23.48065,10.51265 23.48065,23.48065c0,12.968 -10.51265,23.48065 -23.48065,23.48065c-12.968,0 -23.48065,-10.51265 -23.48065,-23.48065z" fill="#000000" stroke="#000000" stroke-width="0" stroke-linecap="butt"/><path d="M266.68143,160.75628c-12.968,0 -23.48065,-10.51265 -23.48065,-23.48065c0,-12.968 10.51265,-23.48065 23.48065,-23.48065c12.968,0 23.48065,10.51265 23.48065,23.48065c0,12.968 -10.51265,23.48065 -23.48065,23.48065z" data-paper-data="{&quot;index&quot;:null}" fill="#000004" stroke="#000000" stroke-width="0" stroke-linecap="butt"/><path d="M174.93973,133.88457c0,0 0.39158,-10.59768 5.77447,-22.324c7.62205,-16.60423 24.71309,-36.00998 60.21717,-35.4491c55.92741,0.88353 62.63903,52.79084 62.63903,52.79084c0,0 -32.09821,-8.51909 -63.51028,-8.34118c-29.52376,0.16721 -55.55898,9.5255 -62.99721,12.45592c-1.38307,0.54488 -2.12317,0.86753 -2.12317,0.86753z" fill-opacity="0.20144" fill="#000000" stroke="none" stroke-width="0" stroke-linecap="butt"/><path d="M244.73909,128.63977l-1.0507,-1.65111h-3.30221l-3.00201,-3.45231" fill="none" stroke="#000000" stroke-width="1" stroke-linecap="round"/><path d="M240.38618,127.28888l-1.65111,2.25151" fill="none" stroke="#000000" stroke-width="1" stroke-linecap="round"/><path d="M254.49563,117.53234l1.05071,-4.95332l2.25151,-4.50302l0.9006,4.50302l1.35091,2.70181l15.91066,1.80121l0.7505,-1.80121l0.4503,-2.55171l0.7505,2.40161l-0.7505,3.00202l1.65111,0.6004l1.3509,-3.00201l1.95131,4.80322h2.70181l2.70182,-4.35292l3.90262,1.501l-3.75252,0.3002l-1.35091,3.60242l-3.60242,1.50101l7.05473,5.40362l1.35091,-1.3509l4.80322,4.95332l-4.80322,-4.95332l-0.45031,3.60242l-1.501,0.9006l-2.85191,13.35896l3.75252,0.1501l2.55171,4.80322l-6.00403,-1.20081l-2.70181,1.35091l1.20081,0.9006l0.3002,3.15211l7.20483,-0.9006l-6.90463,1.35091l2.40161,1.501l0.3002,2.85191l-0.3002,-3.00201l-3.15211,-1.80121l-4.50302,-0.6004l-10.65715,3.60242l-0.9006,4.35292l3.75252,2.85191l-4.20281,-3.00201l-1.95131,2.55172l2.10141,4.20281l-2.10141,-4.95332l1.50101,-1.65111l-2.70181,-1.80121l-3.00201,2.55171l0.6004,2.85191l-0.6004,-2.25151l2.70181,-3.30222v-1.501l-7.50503,-0.9006l-4.35292,4.80322l2.10141,-6.60443l-4.95332,-3.00201l-1.20081,1.501l-3.75251,-3.75251l4.95332,5.85393l0.6004,1.8012l-1.80121,3.60242h-4.05272l-0.6004,0.90061l0.7505,-1.05071l3.90262,0.1501l1.9513,-3.90261l-5.70382,-7.35493l0.1501,-1.80121l1.65111,-1.35091l-1.65111,-2.85191l-0.9006,1.95131l-0.75051,2.85191l-2.70181,1.0507l-0.4503,2.10141l0.6004,-2.10141l2.85192,-1.20081l-0.1501,-4.80322l-3.30221,-1.65111l2.40161,-2.85192v-1.65111l-2.40161,-0.1501l0.3002,-3.75252l5.10342,-1.50101z" fill="#000000" stroke="#000000" stroke-width="1" stroke-linecap="round"/><path d="M219.70628,190.64321l-5.3243,19.36109v-18.39303l-3.87222,3.38819l-1.93611,-5.80832" fill="#14a8b5" stroke="#004c5d" stroke-width="0" stroke-linecap="round"/><path d="M282.14577,180.47864l-4.84027,13.55276l-0.96805,-10.16457l-2.42014,2.42014l-5.80833,17.90901l-1.93611,-13.55276" fill="#14a8b5" stroke="#004c5d" stroke-width="0" stroke-linecap="round"/><path d="M209.72855,191.41578l1.03467,2.84532" fill="none" stroke="#ffffff" stroke-width="1" stroke-linecap="round"/><path d="M218.00585,196.3304l-3.10398,11.38127l-0.25867,-13.45059" fill="none" stroke="url(#color-7)" stroke-width="1" stroke-linecap="round"/><path d="M270.77356,192.70911l-2.32799,9.05328l-1.38358,-9.67296" fill="none" stroke="url(#color-8)" stroke-width="1" stroke-linecap="round"/><path d="M278.01619,191.93311l2.06932,-6.46663" fill="none" stroke="#ffffff" stroke-width="1" stroke-linecap="round"/></g><path d="M266.02385,139.77708c0,-0.37099 0.30075,-0.67174 0.67174,-0.67174c0.37099,0 0.67174,0.30075 0.67174,0.67174c0,0.37099 -0.30075,0.67174 -0.67174,0.67174c-0.37099,0 -0.67174,-0.30075 -0.67174,-0.67174z" fill="#ffffff" stroke="none" stroke-width="0" stroke-linecap="butt"/><path d="M211.40689,140.06836c0,-0.37099 0.30075,-0.67174 0.67174,-0.67174c0.37099,0 0.67174,0.30075 0.67174,0.67174c0,0.37099 -0.30075,0.67174 -0.67174,0.67174c-0.37099,0 -0.67174,-0.30075 -0.67174,-0.67174z" fill="#ffffff" stroke="none" stroke-width="0" stroke-linecap="butt"/></g></g></svg>