<svg version="1.1" xmlns="http://www.w3.org/2000/svg" xmlns:xlink="http://www.w3.org/1999/xlink" width="35.5361" height="35.53588" viewBox="0,0,35.5361,35.53588"><defs><linearGradient x1="239.24999" y1="174.46036" x2="239.24999" y2="184.03965" gradientUnits="userSpaceOnUse" id="color-1"><stop offset="0" stop-color="#1f020d"/><stop offset="1" stop-color="#6b062b"/></linearGradient></defs><g transform="translate(-221.91346,-161.9135)"><g data-paper-data="{&quot;isPaintingLayer&quot;:true}" stroke-miterlimit="10" stroke-dasharray="" stroke-dashoffset="0" style="mix-blend-mode: normal"><path d="M257.44955,169.71891v20.49804c0,4.00745 -3.22497,7.23243 -7.23242,7.23243h-20.5c-3.66107,0 -6.66147,-2.69385 -7.1543,-6.21484c0.7952,3.03475 3.54108,5.26367 6.83204,5.26367h20.0332c3.9166,0 7.07032,-3.15372 7.07032,-7.07031v-20.03321c0,-3.2976 -2.23906,-6.0451 -5.28321,-6.83398c3.52994,0.48496 6.23438,3.49081 6.23438,7.15821z" fill-opacity="0.29839" fill="#000000" fill-rule="evenodd" stroke="none" stroke-width="4.54219" stroke-linecap="round" stroke-linejoin="round"/><path d="M229.23314,162.1635h20.03378c3.9166,0 7.06966,3.15307 7.06966,7.06966v20.03379c0,3.91659 -3.15306,7.06966 -7.06966,7.06966h-20.03378c-3.91659,0 -7.06967,-3.15307 -7.06967,-7.06966v-20.03379c0,-3.91659 3.15308,-7.06966 7.06967,-7.06966z" fill="#000000" fill-rule="evenodd" stroke="#520422" stroke-width="0.5" stroke-linecap="round" stroke-linejoin="round"/><path d="M225.69886,184.03965c0,0 0.73922,-1.81617 1.92582,-3.60808c0.85872,-1.29677 2.02997,-2.58084 2.95014,-3.15468c0.1012,-0.06311 1.40652,-0.99837 1.50686,-1.05389c2.56021,-1.4169 5.60089,-1.74604 7.35895,-1.7624c0.83918,-0.00781 2.87386,0.17389 5.08617,1.00108c1.45985,0.54585 3.02795,1.4655 4.27086,2.46709c2.8084,2.26311 4.00347,6.11088 4.00347,6.11088l-4.76373,-0.28308l-1.15367,-3.82213l-0.04697,3.71046l-4.1212,0.15458l0.28445,-3.44293l-1.51502,3.35084l-10.85485,0.08449l-0.4416,-2.27083l-0.46187,2.30956z" fill="url(#color-1)" fill-rule="nonzero" stroke="#000000" stroke-width="0" stroke-linecap="butt" stroke-linejoin="miter"/></g></g></svg>