<svg version="1.1" xmlns="http://www.w3.org/2000/svg" xmlns:xlink="http://www.w3.org/1999/xlink" width="34.1731" height="34.1731" viewBox="0,0,34.1731,34.1731"><g transform="translate(-222.91346,-162.91346)"><g data-paper-data="{&quot;isPaintingLayer&quot;:true}" stroke-miterlimit="10" stroke-dasharray="" stroke-dashoffset="0" style="mix-blend-mode: normal"><path d="M229.98316,162.91346h20.0338c3.9166,0 7.0696,3.1531 7.0696,7.0697v20.0338c0,3.9165 -3.153,7.0696 -7.0696,7.0696h-20.0338c-3.9166,0 -7.0697,-3.1531 -7.0697,-7.0696v-20.0338c0,-3.9166 3.1531,-7.0697 7.0697,-7.0697z" fill-opacity="0.09677" fill="#191919" fill-rule="evenodd" stroke="none" stroke-width="4.43922" stroke-linecap="round" stroke-linejoin="round"/><path d="M224.62501,185.49874v-6.125h3.25v-4.75l24.37426,-0.12126l0.12574,4.74626l3,0.125v6.125z" fill="#000000" fill-rule="nonzero" stroke="#ffffff" stroke-width="0.5" stroke-linecap="butt" stroke-linejoin="miter"/><path d="M244.83785,178.93065l-8.30557,0.17326c0,0 0.3541,-4.0038 0.4101,-4.52527l7.63151,-0.03797c-0.0008,1.60838 0.26396,4.38998 0.26396,4.38998z" fill="#000000" fill-rule="nonzero" stroke="#ffffff" stroke-width="0.5" stroke-linecap="butt" stroke-linejoin="miter"/></g></g></svg>