<svg version="1.1" xmlns="http://www.w3.org/2000/svg" xmlns:xlink="http://www.w3.org/1999/xlink" width="148.76639" height="267.22501" viewBox="0,0,148.76639,267.22501"><g transform="translate(-171.44411,-46.38751)"><g data-paper-data="{&quot;isPaintingLayer&quot;:true}" fill-rule="nonzero" stroke-linejoin="miter" stroke-miterlimit="10" stroke-dasharray="" stroke-dashoffset="0" style="mix-blend-mode: normal"><path d="M179.28372,313.61252v-267.22501h123.18203v267.22501z" fill-opacity="0.01" fill="#000000" stroke="none" stroke-width="0" stroke-linecap="butt"/><g stroke="#000000" stroke-linecap="butt"><path d="M206.75003,307.5l15.14285,-131.8421l37.78325,-0.15789l13.57389,132z" fill="#b2764d" stroke-width="2"/><path d="M219.70026,204.11263l3.12142,-26.32765l35.83075,-0.14203l2.76735,26.1059c0,0 -7.51543,4.19603 -21.55904,4.50964c-12.48458,0.27879 -20.16049,-4.14586 -20.16049,-4.14586z" fill="#a06138" stroke-width="0"/></g><g><path d="M172.44412,132.93472c0,-33.30185 28.7599,-60.29833 64.23702,-60.29833c35.47712,0 64.23702,26.99649 64.23702,60.29833c0,33.30185 -28.7599,60.29833 -64.23702,60.29833c-35.47712,0 -64.23702,-26.99649 -64.23702,-60.29833z" fill="#b2764d" stroke="#000000" stroke-width="2" stroke-linecap="butt"/><path d="M173.16719,132.65523c0,-0.72799 5.20666,55.91939 63.36046,56.93429c55.56352,0.9697 63.51358,-57.95314 63.51358,-56.93429c0,32.80479 -28.40173,59.39833 -63.43702,59.39833c-35.03529,0 -63.43702,-26.59354 -63.43702,-59.39833z" fill="#a06138" stroke="#000000" stroke-width="0" stroke-linecap="butt"/><path d="M199.74757,107.50388c0,0 4.81769,-1.34167 9.97355,-2.35894c7.01343,-1.38379 10.77003,-0.13029 10.77003,-0.13029l2.9041,63.89022c0,0 -5.07715,1.65949 -7.88256,1.65949c-3.62176,0 -12.44615,-1.65949 -12.44615,-1.65949z" fill="none" stroke="#9d6138" stroke-width="2.5" stroke-linecap="round"/><path d="M265.28607,103.83732c5.54706,0.52304 7.06403,1.59221 7.06403,1.59221l-0.82975,61.81586c0,0 -6.55603,0.82975 -9.54204,0.82975c-2.64158,0 -7.46769,-0.82975 -7.46769,-0.82975l2.9041,-63.89022c0,0 4.15446,0.13168 7.87135,0.48215z" fill="none" stroke="#9d6138" stroke-width="2.5" stroke-linecap="round"/><path d="M198.632,104.22239c0,0 6.70895,-5.16922 11.79722,-6.36355c5.08827,-1.19433 12.33413,0.69937 12.33413,0.69937c0,0 -8.03812,-0.06028 -11.96762,0.86207c-4.10648,0.96388 -12.16372,4.80211 -12.16372,4.80211z" fill="#000000" stroke="none" stroke-width="0" stroke-linecap="butt"/><path d="M262.56654,99.42029c-3.9295,-0.92235 -11.96762,-0.86207 -11.96762,-0.86207c0,0 7.24586,-1.8937 12.33413,-0.69937c5.08826,1.19433 11.79721,6.36355 11.79721,6.36355c0,0 -8.05724,-3.83822 -12.16372,-4.80211z" data-paper-data="{&quot;index&quot;:null}" fill="#000000" stroke="none" stroke-width="0" stroke-linecap="butt"/><path d="M178.62117,154.34033c0,0 1.27471,3.07549 2.06246,4.40033c0.64873,1.09105 2.32843,2.98433 2.32843,2.98433l-3.19336,1.79627c0,0 -1.63318,-2.53986 -2.21157,-3.76467c-0.55131,-1.16746 -1.18139,-3.4204 -1.18139,-3.4204z" fill="#b4b3b4" stroke="#b6b4b2" stroke-width="0.5" stroke-linecap="round"/><path d="M174.03071,150.54821c0,0 -1.0568,-2.6996 -1.36083,-4.01709c-0.29441,-1.27578 -0.43544,-3.76675 -0.43544,-3.76675l3.47833,-0.5422c0,0 -0.10123,2.66703 0.12039,3.97255c0.21545,1.26922 1.19133,3.75473 1.19133,3.75473l-2.99378,0.59875z" fill="#b4b3b4" stroke="#b6b4b2" stroke-width="0.5" stroke-linecap="round"/><path d="M175.04096,125.7996c0,0 -0.43396,2.99796 -0.46907,4.43757c-0.03087,1.26557 0.26948,3.74544 0.26948,3.74544h-3.19337c0,0 -0.19838,-0.161 -0.1831,-4.40509c0.01029,-2.85922 0.38268,-3.57833 0.38268,-3.57833z" fill="#b4b3b4" stroke="#b6b4b2" stroke-width="0.5" stroke-linecap="round"/><path d="M173.0574,118.81411c0,0 0.82609,-4.90945 2.7942,-7.18508c1.96811,-2.27563 1.99474,-0.58001 3.59253,-0.19958c1.59779,0.38043 0.83864,0.52018 0.59876,1.19751c-0.23988,0.67733 -3.99171,8.38259 -3.99171,8.38259z" fill="#b4b3b4" stroke="#b6b4b2" stroke-width="0.5" stroke-linecap="round"/></g><path d="M185.99433,133.03086c0,-12.968 10.51265,-23.48065 23.48065,-23.48065c12.968,0 23.48065,10.51265 23.48065,23.48065c0,12.968 -10.51265,23.48065 -23.48065,23.48065c-12.968,0 -23.48065,-10.51265 -23.48065,-23.48065z" fill="#ffffff" stroke="#000000" stroke-width="2" stroke-linecap="butt"/><path d="M199.0024,136.15105c0,-9.12808 7.39976,-16.52784 16.52783,-16.52784c9.12808,0 16.52784,7.39977 16.52784,16.52784c0,9.12808 -7.39977,16.52784 -16.52784,16.52784c-9.12808,0 -16.52783,-7.39977 -16.52783,-16.52784z" fill="#000000" stroke="none" stroke-width="0" stroke-linecap="butt"/><path d="M224.11121,172.41166h25.10959" fill="none" stroke="#000000" stroke-width="2" stroke-linecap="round"/><path d="M263.73344,156.5115c-12.968,0 -23.48065,-10.51265 -23.48065,-23.48065c0,-12.968 10.51265,-23.48065 23.48065,-23.48065c12.968,0 23.48065,10.51265 23.48065,23.48065c0,12.968 -10.51265,23.48065 -23.48065,23.48065z" data-paper-data="{&quot;index&quot;:null}" fill="#ffffff" stroke="#000000" stroke-width="2" stroke-linecap="butt"/><path d="M269.56354,152.67889c-9.12807,0 -16.52783,-7.39977 -16.52783,-16.52784c0,-9.12808 7.39977,-16.52784 16.52783,-16.52784c9.12807,0 16.52783,7.39977 16.52783,16.52784c0,9.12808 -7.39977,16.52784 -16.52783,16.52784z" data-paper-data="{&quot;index&quot;:null}" fill="#000000" stroke="none" stroke-width="0" stroke-linecap="butt"/><path d="M185.99433,133.03086c0,-12.968 10.51265,-23.48065 23.48065,-23.48065c12.968,0 23.48065,10.51265 23.48065,23.48065c0,0 -46.96131,1.23155 -46.96131,0z" fill="#b2764d" stroke="#000000" stroke-width="2" stroke-linecap="butt"/><path d="M240.25279,133.03086c0,-12.968 10.51265,-23.48065 23.48065,-23.48065c12.968,0 23.48065,10.51265 23.48065,23.48065c0,1.2138 -46.96131,0 -46.96131,0z" data-paper-data="{&quot;index&quot;:null}" fill="#b2764d" stroke="#000000" stroke-width="2" stroke-linecap="butt"/><g stroke-linecap="butt"><path d="M288.97262,153.23319c-2.64423,-4.83241 -0.87036,-10.89343 3.96205,-13.53765c4.83241,-2.64423 10.89342,-0.87036 13.53765,3.96205c2.64423,4.83241 0.87036,10.89343 -3.96205,13.53765c-4.83241,2.64423 -10.89342,0.87036 -13.53765,-3.96205z" fill="#ffe902" stroke="#f6c002" stroke-width="2"/><path d="M301.11315,142.63064c1.91309,1.31871 2.98826,3.35976 2.40145,4.5588c-0.58679,1.19906 -2.61337,1.10206 -4.52647,-0.21664c-1.91309,-1.31871 -2.98825,-3.35977 -2.40144,-4.55882c0.58679,-1.19906 2.61336,-1.10205 4.52645,0.21666z" fill="#fff26a" stroke="none" stroke-width="0"/></g><path d="M307.37143,133.94208l8.21533,0.56014l-2.61397,6.1615l5.60136,3.17411l-4.10767,4.10767l2.24055,2.05383" fill="none" stroke="#ffffff" stroke-width="2" stroke-linecap="round"/><path d="M292.80789,168.85725l5.04123,-2.80068l5.41465,4.6678l2.24055,-8.96218l3.17411,0.93356l0.56014,-2.24055l1.4937,0.18671" fill="none" stroke="#ffffff" stroke-width="2" stroke-linecap="round"/></g></g></svg>