<svg version="1.1" xmlns="http://www.w3.org/2000/svg" xmlns:xlink="http://www.w3.org/1999/xlink" width="279.18345" height="324.05354" viewBox="0,0,279.18345,324.05354"><g transform="translate(-37.48229,-3.47682)"><g data-paper-data="{&quot;isPaintingLayer&quot;:true}" fill-rule="nonzero" stroke-linecap="butt" stroke-linejoin="miter" stroke-miterlimit="10" stroke-dasharray="" stroke-dashoffset="0" style="mix-blend-mode: normal"><path d="M178.409,312.30005v-267.22501h123.18203v267.22501z" fill-opacity="0.01" fill="#000000" stroke="none" stroke-width="0"/><path d="M194.86943,326.53035l12.2908,-196.65405l66.44766,-1.15228l11.52271,197.80634z" fill="#ffffff" stroke="#000000" stroke-width="2"/><path d="M315.66574,109.71151c0,42.10722 -33.87671,76.24187 -75.66574,76.24187c-41.78904,0 -75.66574,-34.13465 -75.66574,-76.24187c0,-42.10722 33.8767,-76.24186 75.66574,-76.24186c41.78904,0 75.66574,34.13465 75.66574,76.24187z" fill="#ffffff" stroke="#000000" stroke-width="2"/><text transform="translate(49.70747,43.61621) scale(0.5,0.5)" font-size="40" xml:space="preserve" fill="#000000" fill-rule="nonzero" stroke="none" stroke-width="1" stroke-linecap="butt" stroke-linejoin="miter" stroke-miterlimit="10" stroke-dasharray="" stroke-dashoffset="0" font-family="Sans Serif" font-weight="normal" text-anchor="start" style="mix-blend-mode: normal"><tspan x="0" dy="0">im a base</tspan></text><path d="M172.07045,70.58796c-2.42534,0.60638 -3.03173,-1.81896 -3.03173,-1.81896l-0.03906,-0.75624c-3.52361,-5.33041 -7.89307,-8.07412 -13.32326,-11.28595c-2.09148,-1.23706 -7.03786,-3.8794 -8.53047,-5.94068c-2.77737,-3.8355 -1.41662,-9.10233 -0.82499,-13.26784c0.35558,-3.56339 0.90857,-7.1075 0.75377,-10.69914c-0.06087,-1.41236 0.0921,-3.03219 -1.04986,-4.1139c-6.99464,-6.62564 -16.81795,-7.76624 -25.88897,-9.06299c-15.70374,-2.24494 -31.58079,-5.40552 -47.50861,-5.15406c-3.22661,0.04831 -6.48242,-0.30916 -9.68012,0.12448c-5.56975,0.75531 -10.468,5.07592 -14.68718,8.44695c-0.45607,0.36439 -5.202,3.87289 -5.82601,5.15354c-0.2787,0.57197 0.10341,1.26995 0.09926,1.90619c-0.03582,5.48731 0.48666,8.16592 3.08868,13.0388c3.19404,5.98158 6.49503,10.95096 10.63676,16.31165c0.88471,1.14508 1.53963,2.49739 2.61642,3.46406c0.52333,0.46981 1.33886,0.43263 1.99783,0.67831c4.09172,1.52551 7.40474,3.54289 11.79903,3.34391c19.21252,-0.54889 38.18302,-5.89875 57.47066,-4.89059c6.65348,0.34778 16.767,2.84257 20.46755,8.97366c0.73055,1.21038 0.67808,2.74502 1.01711,4.11753c0,0 0.54231,2.44047 -1.89816,2.98278c-2.44047,0.54231 -2.98278,-1.89816 -2.98278,-1.89816c-0.17307,-0.93204 -0.05371,-1.9703 -0.5192,-2.79611c-2.49877,-4.43293 -11.88718,-6.17275 -16.40507,-6.38999c-19.12471,-0.9196 -37.94751,4.3543 -57.00732,4.89883c-5.13735,0.08249 -9.00552,-1.78612 -13.7468,-3.67903c-1.06143,-0.42377 -2.29262,-0.58094 -3.16442,-1.31998c-1.43927,-1.22009 -2.39232,-2.91853 -3.5723,-4.39086c-4.4102,-5.50281 -7.83076,-10.83114 -11.12475,-17.05999c-2.88568,-5.45674 -3.92064,-9.31376 -3.67155,-15.51423c0.04822,-1.20035 -0.26633,-2.50724 0.24171,-3.59584c1.32252,-2.83386 5.06552,-5.40112 7.35989,-7.23881c5.03501,-4.03283 10.51611,-8.49922 17.0983,-9.49161c0.19779,-0.02982 9.92494,-0.16904 10.31764,-0.17492c16.20104,-0.23023 32.31684,2.91867 48.29128,5.20386c10.04765,1.43735 21.53091,2.89799 28.94716,10.72369c4.26643,4.50198 2.03322,13.31944 1.49365,18.70441c-0.30005,2.08792 -1.83195,7.54619 -0.05687,9.77757c2.47099,3.10618 7.92252,4.9431 11.19572,7.00874c4.59415,2.89927 7.72442,5.8453 10.73686,10.33269l0.72919,2.31651c0,0 0.60638,2.42534 -1.81896,3.03173z" fill="#000000" stroke="none" stroke-width="0.5"/></g></g></svg>