<svg version="1.1" xmlns="http://www.w3.org/2000/svg" xmlns:xlink="http://www.w3.org/1999/xlink" width="40.62487" height="39.51376" viewBox="0,0,40.62487,39.51376"><g transform="translate(-299.59498,-159.68755)"><g data-paper-data="{&quot;isPaintingLayer&quot;:true}" stroke-miterlimit="10" stroke-dasharray="" stroke-dashoffset="0" style="mix-blend-mode: normal"><path d="M339.09526,180.00003c0,10.54601 -8.54924,19.09522 -19.09522,19.09522c-10.54601,0 -19.09522,-8.54922 -19.09522,-19.09522c0,-10.54601 8.54922,-19.09522 19.09522,-19.09522c10.54601,0 19.09522,8.54922 19.09522,19.09522" fill="#727272" fill-rule="evenodd" stroke="none" stroke-width="0.07853" stroke-linecap="round" stroke-linejoin="round"/><path d="M310.79868,189.20132v-18.40265h18.40265v18.40265z" fill="#727272" fill-rule="nonzero" stroke="#ffffff" stroke-width="0" stroke-linecap="butt" stroke-linejoin="miter"/><path d="M314.01894,175.48434c-0.77611,0.10216 -1.55222,0.20432 -2.32833,0.30648c0,0 -0.22802,0.02974 -0.50555,-0.03116c-0.13256,0.60188 -0.25695,1.17419 -0.38758,1.68126c0,0 -0.32769,1.26979 -1.59748,0.9421c-1.26979,-0.32769 -0.9421,-1.59748 -0.9421,-1.59748c0.50602,-1.95757 1.4238,-7.90118 3.77136,-8.84023c4.18286,-1.67318 5.20028,5.63389 5.8053,8.24357l0.13048,1.09425c0,0 0.14483,1.30337 -1.15854,1.4482c-1.30337,0.14483 -1.4482,-1.15854 -1.4482,-1.15854l-0.07936,-0.79414c-0.09953,-0.43347 -0.20986,-0.8639 -0.32763,-1.29229zM313.84896,172.86707l0.31283,-0.00059c-0.10103,-0.31986 -0.20233,-0.63972 -0.30245,-0.95999c-0.17315,-0.55387 -0.40244,-2.03778 -0.74838,-1.57186c-0.55653,0.74956 -0.95669,1.74026 -1.27296,2.7925c0.67032,-0.08669 1.34065,-0.17338 2.01097,-0.26006z" fill="#ffffff" fill-rule="nonzero" stroke="none" stroke-width="0.5" stroke-linecap="butt" stroke-linejoin="miter"/><path d="M328.67398,168.82524c1.04911,-0.78684 1.83595,0.26227 1.83595,0.26227l0.4886,0.7331c0.85933,2.29228 1.24309,4.9495 -0.08486,7.20975c-1.67439,2.84988 -5.44288,3.33108 -7.88881,0.95362c-1.59239,-1.5478 -1.31195,-5.99068 -1.37919,-7.96103c0,0 -0.04369,-1.31066 1.26698,-1.35435c1.31066,-0.04369 1.35435,1.26698 1.35435,1.26698c0.04134,1.27239 -0.27985,5.26486 0.71903,6.30691c1.07362,1.12002 2.99715,0.77288 3.65143,-0.51515c0.82363,-1.62139 0.55952,-3.36361 -0.08486,-4.95996l-0.14088,-0.10619c0,0 -0.78684,-1.04911 0.26227,-1.83595z" fill="#ffffff" fill-rule="nonzero" stroke="none" stroke-width="0.5" stroke-linecap="butt" stroke-linejoin="miter"/><path d="M319.31904,183.08741c0.21559,1.29355 -1.07796,1.50913 -1.07796,1.50913l-0.69715,0.11438c-0.71606,0.08128 -1.43188,0.16196 -2.14775,0.24107c0.33771,1.7873 0.72912,3.48633 1.35915,5.21444c0.21455,0.28829 0.60645,1.00536 -0.11064,1.7224c-0.92733,0.92726 -1.85459,-0.00007 -1.85459,-0.00007l-0.40547,-0.5717c-0.7534,-2.01598 -1.21203,-3.99515 -1.60368,-6.08488c-0.72838,0.07509 -1.45718,0.14734 -2.18669,0.21575c0,0 -1.30566,0.12241 -1.42807,-1.18326c-0.12241,-1.30567 1.18326,-1.42807 1.18326,-1.42807c2.30357,-0.2159 4.59988,-0.47079 6.89864,-0.73173l0.5618,-0.09544c0,0 1.29355,-0.21559 1.50914,1.07796z" fill="#ffffff" fill-rule="nonzero" stroke="none" stroke-width="0.5" stroke-linecap="butt" stroke-linejoin="miter"/><path d="M325.72902,185.34313c-0.1648,0.38421 -0.33394,0.76705 -0.45307,1.16574c-0.14501,0.48528 -0.2155,0.9889 -0.28836,1.48875c-0.60075,4.12115 6.88393,-3.10233 2.61036,-3.77806c-0.2662,-0.04209 -0.9294,0.06795 -1.30841,0.35496c-0.346,0.26201 -0.41374,0.6979 -0.56052,0.76861zM328.35069,181.62401c7.55213,2.29964 0.00082,13.93331 -5.41936,9.37071c-0.81332,-0.68463 -0.68698,-1.98793 -0.76124,-3.02144c-0.09256,-1.28812 0.65047,-2.92889 1.10397,-4.09524c0,0 0.52419,-1.46353 2.2141,-2.04843c1.48912,-0.41392 1.38937,-0.48456 2.86253,-0.20559z" fill="#ffffff" fill-rule="nonzero" stroke="none" stroke-width="0.5" stroke-linecap="butt" stroke-linejoin="miter"/><path d="M299.59498,199.20132v-39.51376h40.62487v39.51376z" fill="none" fill-rule="nonzero" stroke="#ffffff" stroke-width="0" stroke-linecap="butt" stroke-linejoin="miter"/></g></g></svg>