<svg version="1.1" xmlns="http://www.w3.org/2000/svg" xmlns:xlink="http://www.w3.org/1999/xlink" width="35.52405" height="35.5237" viewBox="0,0,35.52405,35.5237"><defs><linearGradient x1="239.66115" y1="168.47119" x2="239.66115" y2="194.12471" gradientUnits="userSpaceOnUse" id="color-1"><stop offset="0" stop-color="#191919"/><stop offset="1" stop-color="#808080"/></linearGradient><linearGradient x1="243.92005" y1="164.46282" x2="243.92005" y2="168.57139" gradientUnits="userSpaceOnUse" id="color-2"><stop offset="0" stop-color="#191919"/><stop offset="1" stop-color="#808080"/></linearGradient></defs><g transform="translate(-222.16348,-162.16347)"><g data-paper-data="{&quot;isPaintingLayer&quot;:true}" stroke-linecap="round" stroke-miterlimit="10" stroke-dasharray="" stroke-dashoffset="0" style="mix-blend-mode: normal"><path d="M257.68752,169.95671v20.49804c0,4.00745 -3.22497,7.23243 -7.23242,7.23243h-20.5c-3.66107,0 -6.66147,-2.69385 -7.1543,-6.21484c0.7952,3.03475 3.54108,5.26367 6.83204,5.26367h20.0332c3.9166,0 7.07032,-3.15372 7.07032,-7.07031v-20.03321c0,-3.2976 -2.23906,-6.0451 -5.28321,-6.83398c3.52994,0.48496 6.23438,3.49081 6.23438,7.15821z" fill-opacity="0.29839" fill="#000000" fill-rule="evenodd" stroke="none" stroke-width="4.54219" stroke-linejoin="round"/><path d="M229.48314,162.41348h20.03379c3.9166,0 7.06966,3.15307 7.06966,7.06966v20.03379c0,3.91659 -3.15306,7.06966 -7.06966,7.06966h-20.03379c-3.91659,0 -7.06966,-3.15307 -7.06966,-7.06966v-20.03379c0,-3.91659 3.15307,-7.06966 7.06966,-7.06966z" fill="#000000" fill-rule="evenodd" stroke="#753434" stroke-width="0.5" stroke-linejoin="round"/><path d="M239.76136,168.47119l11.72446,5.01045l-4.00836,20.54286l-15.13157,0.10021l-4.50941,-20.54286z" fill="none" fill-rule="nonzero" stroke="url(#color-1)" stroke-width="1" stroke-linejoin="miter"/><path d="M239.66116,168.57139l2.60544,-3.50732l5.91234,-0.60125l-3.60753,3.60753z" fill="none" fill-rule="nonzero" stroke="url(#color-2)" stroke-width="1" stroke-linejoin="miter"/></g></g></svg>