<svg version="1.1" xmlns="http://www.w3.org/2000/svg" xmlns:xlink="http://www.w3.org/1999/xlink" width="151" height="267.22501" viewBox="0,0,151,267.22501"><defs><linearGradient x1="320.00009" y1="175.50001" x2="320.00009" y2="307.50001" gradientUnits="userSpaceOnUse" id="color-1"><stop offset="0" stop-color="#000000"/><stop offset="1" stop-color="#050066"/></linearGradient><linearGradient x1="320.57732" y1="163.59024" x2="320.57732" y2="250.64544" gradientUnits="userSpaceOnUse" id="color-2"><stop offset="0" stop-color="#000000"/><stop offset="1" stop-color="#030033"/></linearGradient><linearGradient x1="320.84724" y1="49.27256" x2="320.84724" y2="210.77256" gradientUnits="userSpaceOnUse" id="color-3"><stop offset="0" stop-color="#000000"/><stop offset="1" stop-color="#04004d"/></linearGradient><linearGradient x1="320.07703" y1="76.54783" x2="320.07703" y2="197.14449" gradientUnits="userSpaceOnUse" id="color-4"><stop offset="0" stop-color="#000000"/><stop offset="1" stop-color="#060080"/></linearGradient><linearGradient x1="319.72459" y1="137.81081" x2="319.72459" y2="170.21455" gradientUnits="userSpaceOnUse" id="color-5"><stop offset="0" stop-color="#000000" stop-opacity="0.99608"/><stop offset="1" stop-color="#000000" stop-opacity="0"/></linearGradient><linearGradient x1="292.64864" y1="113.79498" x2="292.64864" y2="137.82299" gradientUnits="userSpaceOnUse" id="color-6"><stop offset="0" stop-color="#01001a"/><stop offset="1" stop-color="#050066"/></linearGradient><linearGradient x1="346.90708" y1="113.79498" x2="346.90708" y2="137.8151" gradientUnits="userSpaceOnUse" id="color-7"><stop offset="0" stop-color="#01001a"/><stop offset="1" stop-color="#050066"/></linearGradient></defs><g transform="translate(-245.34722,-46.38751)"><g data-paper-data="{&quot;isPaintingLayer&quot;:true}" fill-rule="nonzero" stroke-linejoin="miter" stroke-miterlimit="10" stroke-dasharray="" stroke-dashoffset="0" style="mix-blend-mode: normal"><path d="M259.28378,313.61252v-267.22501h123.18203v267.22501z" fill-opacity="0.01" fill="#000000" stroke="none" stroke-width="0" stroke-linecap="butt"/><path d="M286.7501,307.5l15.14285,-131.8421l37.78325,-0.15789l13.57389,132z" fill="url(#color-1)" stroke="#000000" stroke-width="0" stroke-linecap="butt"/><path d="M290.42392,250.08801l8.20157,-86.27259l44.60128,-0.22518l7.50395,87.0552l-30.23979,-11.89646z" fill="url(#color-2)" stroke="#000000" stroke-width="0" stroke-linecap="butt"/><path d="M396.34723,130.02256c0,44.597 -33.8025,80.75 -75.5,80.75c-41.6975,0 -75.5,-36.15301 -75.5,-80.75c0,-44.59699 33.8025,-80.75 75.5,-80.75c41.6975,0 75.5,36.15301 75.5,80.75z" fill="url(#color-3)" stroke="none" stroke-width="0" stroke-linecap="butt"/><path d="M388.02018,135.16667c0,38.06162 -30.45365,68.91667 -68.02013,68.91667c-37.56647,0 -68.02013,-30.85504 -68.02013,-68.91667c0,-38.06162 30.45365,-68.91667 68.02013,-68.91667c37.56647,0 68.02013,30.85504 68.02013,68.91667z" fill="#000000" stroke="none" stroke-width="0" stroke-linecap="butt"/><path d="M255.84001,136.84616c0,-33.30185 28.7599,-60.29833 64.23702,-60.29833c35.47712,0 64.23702,26.99649 64.23702,60.29833c0,33.30185 -28.7599,60.29833 -64.23702,60.29833c-35.47712,0 -64.23702,-26.99649 -64.23702,-60.29833z" fill="url(#color-4)" stroke="#000000" stroke-width="0" stroke-linecap="butt"/><path d="M255.06939,153.93399c0,0 -10.68891,-17.44383 63.30237,-16.04312c73.53117,1.392 66.35363,16.54276 66.35363,16.54276c0,0 -16.14318,15.30513 -35.91046,15.75467c-20.36858,0.46321 -30.04172,-5.35757 -30.04172,-5.35757c0,0 -11.17729,6.08713 -25.63229,5.26528c-30.2718,-1.72111 -38.07153,-16.16202 -38.07153,-16.16202z" fill="url(#color-5)" stroke="none" stroke-width="0" stroke-linecap="butt"/><path d="M255.06939,148.93399c0,0 -8.28891,-79.84383 65.70236,-78.44312c73.53117,1.392 63.95363,78.94276 63.95363,78.94276c0,0 -16.14318,15.30513 -35.91046,15.75467c-20.36858,0.46321 -30.04172,-5.35757 -30.04172,-5.35757c0,0 -11.17729,6.08713 -25.63229,5.26528c-30.2718,-1.72111 -38.07153,-16.16202 -38.07153,-16.16202z" fill="#000000" stroke="none" stroke-width="0" stroke-linecap="butt"/><path d="M269.14022,137.52563c0,-12.968 10.51265,-23.48065 23.48065,-23.48065c12.968,0 23.48065,10.51265 23.48065,23.48065c0,12.968 -10.51265,23.48065 -23.48065,23.48065c-12.968,0 -23.48065,-10.51265 -23.48065,-23.48065z" fill="#808080" stroke="#000000" stroke-width="0" stroke-linecap="butt"/><path d="M276.45561,137c0,-9.12808 7.39976,-16.52784 16.52783,-16.52784c9.12808,0 16.52784,7.39977 16.52784,16.52784c0,9.12808 -7.39977,16.52784 -16.52784,16.52784c-9.12808,0 -16.52783,-7.39977 -16.52783,-16.52784z" fill="#000000" stroke="none" stroke-width="0" stroke-linecap="butt"/><path d="M307.50709,176.65643c0,0 7.87204,-0.49798 12.15094,-0.49798c4.08165,0 12.95865,0.49798 12.95865,0.49798" fill="none" stroke="#000000" stroke-width="2" stroke-linecap="round"/><path d="M346.8793,161.00627c-12.968,0 -23.48065,-10.51265 -23.48065,-23.48065c0,-12.968 10.51265,-23.48065 23.48065,-23.48065c12.968,0 23.48065,10.51265 23.48065,23.48065c0,12.968 -10.51265,23.48065 -23.48065,23.48065z" data-paper-data="{&quot;index&quot;:null}" fill="#808080" stroke="#000000" stroke-width="0" stroke-linecap="butt"/><path d="M347.01672,153.52784c-9.12807,0 -16.52783,-7.39977 -16.52783,-16.52784c0,-9.12808 7.39977,-16.52784 16.52783,-16.52784c9.12807,0 16.52783,7.39977 16.52783,16.52784c0,9.12808 -7.39977,16.52784 -16.52783,16.52784z" data-paper-data="{&quot;index&quot;:null}" fill="#000000" stroke="none" stroke-width="0" stroke-linecap="butt"/><path d="M269.16799,137.27563c0,-12.968 10.51265,-23.48065 23.48065,-23.48065c12.968,0 23.48065,10.51265 23.48065,23.48065c0,0 -46.96131,1.23155 -46.96131,0z" fill="#000000" stroke="url(#color-6)" stroke-width="0" stroke-linecap="butt"/><path d="M323.42644,137.27563c0,-12.968 10.51265,-23.48065 23.48065,-23.48065c12.968,0 23.48065,10.51265 23.48065,23.48065c0,1.2138 -46.96131,0 -46.96131,0z" data-paper-data="{&quot;index&quot;:null}" fill="#000000" stroke="url(#color-7)" stroke-width="0" stroke-linecap="butt"/><path d="M281.59798,106.01557c0,0 7.59834,-3.74113 12.82228,-3.90615c5.22395,-0.16501 11.95254,3.12355 11.95254,3.12355c0,0 -7.86762,-1.64791 -11.9019,-1.52047c-4.21598,0.13318 -12.87293,2.30307 -12.87293,2.30307z" fill="#000000" stroke="none" stroke-width="0" stroke-linecap="butt"/><path d="M345.62425,103.73004c-4.03603,0.04644 -11.82537,2.03168 -11.82537,2.03168c0,0 6.58071,-3.57532 11.80692,-3.63546c5.2262,-0.06014 12.97862,3.35026 12.97862,3.35026c0,0 -8.74237,-1.79502 -12.96017,-1.74649z" data-paper-data="{&quot;index&quot;:null}" fill="#000000" stroke="none" stroke-width="0" stroke-linecap="butt"/></g></g></svg>