<svg version="1.1" xmlns="http://www.w3.org/2000/svg" xmlns:xlink="http://www.w3.org/1999/xlink" width="35.5034" height="35.47554" viewBox="0,0,35.5034,35.47554"><defs><linearGradient x1="239.62502" y1="162.53848" x2="239.62502" y2="196.71158" gradientUnits="userSpaceOnUse" id="color-1"><stop offset="0" stop-color="#000000"/><stop offset="1" stop-color="#472c80"/></linearGradient></defs><g transform="translate(-222.28848,-162.28847)"><g data-paper-data="{&quot;isPaintingLayer&quot;:true}" stroke-miterlimit="10" stroke-dasharray="" stroke-dashoffset="0" style="mix-blend-mode: normal"><path d="M257.79186,170.03355v20.49804c0,4.00745 -3.22497,7.23243 -7.23242,7.23243h-20.5c-3.66107,0 -6.66147,-2.69385 -7.1543,-6.21484c0.7952,3.03475 3.54108,5.26367 6.83204,5.26367h20.0332c3.9166,0 7.07032,-3.15372 7.07032,-7.07031v-20.03321c0,-3.2976 -2.23906,-6.0451 -5.28321,-6.83398c3.52994,0.48496 6.23438,3.49081 6.23438,7.15821z" fill-opacity="0.29839" fill="#000000" fill-rule="evenodd" stroke="none" stroke-width="4.54219" stroke-linecap="round" stroke-linejoin="round"/><path d="M229.60815,162.53848h20.03378c3.9166,0 7.06966,3.15307 7.06966,7.06966v20.03379c0,3.91659 -3.15306,7.06966 -7.06966,7.06966h-20.03378c-3.91659,0 -7.06967,-3.15307 -7.06967,-7.06966v-20.03379c0,-3.91659 3.15308,-7.06966 7.06967,-7.06966z" fill="url(#color-1)" fill-rule="evenodd" stroke="#472d80" stroke-width="0.5" stroke-linecap="round" stroke-linejoin="round"/><g fill-rule="nonzero" stroke="#000000" stroke-width="0" stroke-linecap="butt" stroke-linejoin="miter"><path d="M231.98281,174.67768c0,0 0.03396,-1.24992 1.75873,-2.42973c1.36402,-0.93304 5.94088,-1.71156 8.40536,-2.96169c1.9581,-0.99327 2.03268,-2.59394 2.03268,-2.59394c0,0 3.13314,3.22978 4.06197,6.41325c0.56279,1.92891 -0.24471,2.47427 -0.24471,2.47427c0,0 2.01252,1.96315 2.90002,4.02932c0.71037,1.65381 -0.02297,2.93403 -0.02297,2.93403c0,0 2.83629,1.71952 1.90709,5.28051c-0.89756,3.43979 -4.50055,7.08823 -15.61904,2.76202c-14.77994,-5.75089 -11.2597,-12.04813 -8.03171,-14.62603c1.25915,-1.00557 2.85257,-1.282 2.85257,-1.282z" fill="#472d80"/><path d="M241.07366,180.75838c0,0 6.60181,3.02308 6.46436,-0.85285c-0.18324,-5.1672 -6.17454,-5.78468 -6.17454,-5.78468c0,0 3.94406,0.81489 4.40234,-1.78602c0.43806,-2.48618 -1.58623,-5.64253 -1.58623,-5.64253c0,0 3.13314,3.22978 4.06197,6.41325c0.56279,1.92891 -0.24471,2.47427 -0.24471,2.47427c0,0 2.01252,1.96315 2.90002,4.02932c0.71037,1.65381 -0.02297,2.93403 -0.02297,2.93403c0,0 2.83629,1.71952 1.90709,5.28051c-0.89756,3.43979 -4.50055,7.08823 -15.61904,2.76202c-13.93797,-5.42327 -11.60138,-11.33243 -8.58279,-14.15004c0.18235,-0.17021 0.55107,-0.47599 0.55107,-0.47599c0,0 -3.3695,3.38375 2.60533,9.07595c4.75881,4.53371 15.79478,7.2586 17.19014,3.08503c1.09217,-3.26673 -7.85206,-7.36227 -7.85206,-7.36227z" fill="#000000"/><path d="M230.95859,174.94017l0.88998,-0.42568l0.34286,-0.64049c0,0 -0.39272,1.19325 0.98322,2.43639c2.13304,1.92717 3.83427,2.70991 3.83427,2.70991c0,0 -2.21881,-0.89919 -4.25299,-2.27954c-1.68506,-1.14344 -1.79733,-1.80059 -1.79733,-1.80059z" fill="#000000"/></g></g></g></svg>