<svg version="1.1" xmlns="http://www.w3.org/2000/svg" xmlns:xlink="http://www.w3.org/1999/xlink" width="34.17311" height="34.17311" viewBox="0,0,34.17311,34.17311"><g transform="translate(-222.91345,-162.91344)"><g data-paper-data="{&quot;isPaintingLayer&quot;:true}" stroke-miterlimit="10" stroke-dasharray="" stroke-dashoffset="0" style="mix-blend-mode: normal"><path d="M229.98312,162.91345h20.03379c3.9166,0 7.06966,3.15307 7.06966,7.06966v20.03379c0,3.91659 -3.15306,7.06966 -7.06966,7.06966h-20.03379c-3.91659,0 -7.06966,-3.15307 -7.06966,-7.06966v-20.03379c0,-3.91659 3.15307,-7.06966 7.06966,-7.06966z" fill="#b2764d" fill-rule="evenodd" stroke="#ffffff" stroke-width="0" stroke-linecap="round" stroke-linejoin="round"/><path d="M229.95965,191.28547v-23.3422c0,0 1.16777,-0.77079 4.07137,-0.64232c2.65392,0.11742 4.13047,0.64232 4.13047,0.64232v23.3422c0,0 -1.81989,0.77079 -4.3874,0.77079c-2.85753,0 -3.81444,-0.77079 -3.81444,-0.77079z" fill="none" fill-rule="nonzero" stroke="#9d6138" stroke-width="1" stroke-linecap="butt" stroke-linejoin="miter"/><path d="M242.15425,191.28547v-23.3422c0,0 1.59899,-0.77079 4.59484,-0.64232c2.53034,0.1085 3.60701,0.64232 3.60701,0.64232v23.3422c0,0 -1.07434,0.77079 -3.47855,0.77079c-2.99585,0 -4.72331,-0.77079 -4.72331,-0.77079z" fill="none" fill-rule="nonzero" stroke="#9d6138" stroke-width="1" stroke-linecap="butt" stroke-linejoin="miter"/><g fill-rule="nonzero" stroke-linecap="butt" stroke-linejoin="miter"><path d="M251.41803,185.50418c0,-1.47105 1.19252,-2.66356 2.66356,-2.66356c1.47105,0 2.66356,1.19252 2.66356,2.66356c0,1.47105 -1.19252,2.66356 -2.66356,2.66356c-1.47105,0 -2.66356,-1.19252 -2.66356,-2.66356z" fill="#ffe902" stroke="#f6c002" stroke-width="0.5"/><path d="M255.62132,184.57661c0.27913,0.55417 0.26937,1.17015 -0.0218,1.37583c-0.29118,0.20568 -0.7535,-0.07683 -1.03264,-0.631c-0.27913,-0.55417 -0.26937,-1.17015 0.02181,-1.37583c0.29118,-0.20568 0.7535,0.07683 1.03264,0.631z" fill="#fff26a" stroke="none" stroke-width="0"/></g></g></g></svg>