<svg version="1.1" xmlns="http://www.w3.org/2000/svg" xmlns:xlink="http://www.w3.org/1999/xlink" width="34.67311" height="34.67311" viewBox="0,0,34.67311,34.67311"><defs><linearGradient x1="240.02703" y1="176.47044" x2="239.94558" y2="186.90717" gradientUnits="userSpaceOnUse" id="color-1"><stop offset="0" stop-color="#9e9e9e"/><stop offset="1" stop-color="#090909"/></linearGradient></defs><g transform="translate(-222.66344,-162.66344)"><g data-paper-data="{&quot;isPaintingLayer&quot;:true}" stroke-miterlimit="10" stroke-dasharray="" stroke-dashoffset="0" style="mix-blend-mode: normal"><path d="M229.98311,162.91345h20.03379c3.9166,0 7.06966,3.15307 7.06966,7.06966v20.03379c0,3.91659 -3.15306,7.06966 -7.06966,7.06966h-20.03379c-3.91659,0 -7.06966,-3.15307 -7.06966,-7.06966v-20.03379c0,-3.91659 3.15307,-7.06966 7.06966,-7.06966z" fill="#000000" fill-rule="evenodd" stroke="#ffffff" stroke-width="0.5" stroke-linecap="round" stroke-linejoin="round"/><path d="M253.1953,181.79189c0,0 -6.48331,4.91322 -13.77843,4.85628c-7.29513,-0.05694 -12.63955,-5.06247 -12.63955,-5.06247c0,0 5.68571,-8.41002 12.98083,-8.35309c7.29513,0.05694 13.43715,8.55927 13.43715,8.55927z" fill="url(#color-1)" fill-rule="nonzero" stroke="none" stroke-width="0" stroke-linecap="butt" stroke-linejoin="miter"/><path d="M237.13675,180.08909c-0.14825,-4.76114 1.01348,-8.66073 2.59477,-8.70997c1.5813,-0.04923 2.98336,3.77053 3.1316,8.53168c0.03788,1.21668 -0.00978,2.3771 -0.12813,3.43138c-0.34477,3.07136 -1.28944,5.24194 -2.46665,5.2786c-1.58129,0.04924 -2.98336,-3.77052 -3.13161,-8.53167z" fill="#000000" fill-rule="nonzero" stroke="none" stroke-width="0" stroke-linecap="butt" stroke-linejoin="miter"/></g></g></svg>