<svg version="1.1" xmlns="http://www.w3.org/2000/svg" xmlns:xlink="http://www.w3.org/1999/xlink" width="35.39905" height="35.39871" viewBox="0,0,35.39905,35.39871"><defs><linearGradient x1="240.55723" y1="167.20245" x2="240.55723" y2="186.52933" gradientUnits="userSpaceOnUse" id="color-1"><stop offset="0" stop-color="#000000"/><stop offset="1" stop-color="#363636"/></linearGradient><linearGradient x1="238.46092" y1="183.56385" x2="238.46092" y2="190.21066" gradientUnits="userSpaceOnUse" id="color-2"><stop offset="0" stop-color="#000000"/><stop offset="1" stop-color="#252525"/></linearGradient><linearGradient x1="238.25641" y1="185.81353" x2="238.25641" y2="191.54002" gradientUnits="userSpaceOnUse" id="color-3"><stop offset="0" stop-color="#1d1d1d"/><stop offset="1" stop-color="#959595"/></linearGradient></defs><g transform="translate(-222.28848,-162.28847)"><g data-paper-data="{&quot;isPaintingLayer&quot;:true}" stroke-linecap="round" stroke-miterlimit="10" stroke-dasharray="" stroke-dashoffset="0" style="mix-blend-mode: normal"><path d="M257.68753,169.95672v20.49804c0,4.00745 -3.22497,7.23243 -7.23242,7.23243h-20.5c-3.66107,0 -6.66147,-2.69385 -7.1543,-6.21484c0.7952,3.03475 3.54108,5.26367 6.83204,5.26367h20.0332c3.9166,0 7.07032,-3.15372 7.07032,-7.07031v-20.03321c0,-3.2976 -2.23906,-6.0451 -5.28321,-6.83398c3.52994,0.48496 6.23438,3.49081 6.23438,7.15821z" fill-opacity="0.29839" fill="#000000" fill-rule="evenodd" stroke="none" stroke-width="4.54219" stroke-linejoin="round"/><path d="M229.60815,162.53848h20.03379c3.9166,0 7.06966,3.15307 7.06966,7.06966v20.03379c0,3.91659 -3.15306,7.06966 -7.06966,7.06966h-20.03379c-3.91659,0 -7.06966,-3.15307 -7.06966,-7.06966v-20.03379c0,-3.91659 3.15307,-7.06966 7.06966,-7.06966z" fill="#000000" fill-rule="evenodd" stroke="#3d3d3d" stroke-width="0.5" stroke-linejoin="round"/><path d="M234.16607,183.56384l12.78232,-16.36137l-2.65872,19.32686z" fill="url(#color-1)" fill-rule="nonzero" stroke="#000000" stroke-width="0" stroke-linejoin="miter"/><path d="M228.84862,184.58644l5.4197,-1.02259l10.12359,3.17002l3.68131,3.47679z" fill="url(#color-2)" fill-rule="nonzero" stroke="#000000" stroke-width="0" stroke-linejoin="miter"/><path d="M243.98289,189.18807l-0.81807,2.35195l-10.22585,-2.65873l-0.40903,-3.06776z" fill="url(#color-3)" fill-rule="nonzero" stroke="#000000" stroke-width="0" stroke-linejoin="miter"/></g></g></svg>