<svg version="1.1" xmlns="http://www.w3.org/2000/svg" xmlns:xlink="http://www.w3.org/1999/xlink" width="34.17311" height="34.17311" viewBox="0,0,34.17311,34.17311"><g transform="translate(-222.91344,-162.91344)"><g data-paper-data="{&quot;isPaintingLayer&quot;:true}" stroke-miterlimit="10" stroke-dasharray="" stroke-dashoffset="0" style="mix-blend-mode: normal"><path d="M229.98311,162.91345h20.03379c3.9166,0 7.06966,3.15307 7.06966,7.06966v20.03379c0,3.91659 -3.15306,7.06966 -7.06966,7.06966h-20.03379c-3.91659,0 -7.06966,-3.15307 -7.06966,-7.06966v-20.03379c0,-3.91659 3.15307,-7.06966 7.06966,-7.06966z" fill="#490090" fill-rule="evenodd" stroke="#ffffff" stroke-width="0" stroke-linecap="round" stroke-linejoin="round"/><path d="M229.93611,185.80995c-0.65478,-0.90077 -2.76005,-2.25971 -2.76005,-2.25971l2.30271,-2.75629l-3.2274,-2.64029l7.06793,-0.14899l1.96221,-2.09635l-4.25615,-5.37585l7.28449,2.59479l-1.65116,-2.55527l6.32804,2.79857l4.66754,1.94908c0,0 6.20123,3.71446 5.30829,6.75593c-0.00578,0.88445 0.75685,6.45876 -0.01276,7.06951c-1.86251,1.47805 -1.49745,-2.58918 -1.97892,-2.87765c-0.16049,-0.09616 -1.36684,-2.54018 -1.56456,-2.55147c-1.81587,-0.10366 -2.75885,-0.99426 -5.52838,-0.77822c-5.05428,0.39426 -5.38182,1.96606 -8.13695,1.54112c-1.04193,-0.1607 -5.25066,2.12098 -5.80332,1.36069z" data-paper-data="{&quot;index&quot;:null}" fill="#5922e0" fill-rule="nonzero" stroke="#000000" stroke-width="0.5" stroke-linecap="butt" stroke-linejoin="miter"/><g fill-rule="nonzero" stroke="#000000" stroke-linecap="butt" stroke-linejoin="miter"><g stroke-width="0.5"><path d="M228.4081,185.3002l-1.7788,-1.91428l0.6229,-0.83801l26.20836,-1.32581l0.28797,2.58752z" data-paper-data="{&quot;origPos&quot;:null}" fill="#cdb3ff"/><path d="M227.58161,184.34938l-0.95192,-0.97356l0.64748,-0.82917l26.18338,-1.32454l0.1761,1.69804z" data-paper-data="{&quot;origPos&quot;:null}" fill="#5500f7"/></g><path d="M242.85835,182.56283c0.02182,0.41269 -0.50547,0.77789 -1.17773,0.81569c-0.67226,0.0378 -1.23492,-0.26611 -1.25674,-0.6788c-0.02182,-0.41269 0.50547,-0.77789 1.17773,-0.81569c0.67226,-0.0378 1.23492,0.26611 1.25674,0.6788z" data-paper-data="{&quot;origPos&quot;:null}" fill="#ffffff" stroke-width="0.5"/><text transform="translate(241.0154,182.79213) rotate(-3.2302) scale(0.01136,0.01046) skewX(-0.19888)" font-size="40" xml:space="preserve" fill="#4b00ff" fill-rule="nonzero" stroke="#000000" stroke-width="1" stroke-linecap="butt" stroke-linejoin="miter" stroke-miterlimit="10" stroke-dasharray="" stroke-dashoffset="0" font-family="Sans Serif" font-weight="normal" text-anchor="start" style="mix-blend-mode: normal"><tspan x="0" dy="0">MHS2</tspan></text></g></g></g></svg>