<svg version="1.1" xmlns="http://www.w3.org/2000/svg" xmlns:xlink="http://www.w3.org/1999/xlink" width="34.17311" height="34.17311" viewBox="0,0,34.17311,34.17311"><g transform="translate(-222.91345,-162.91345)"><g data-paper-data="{&quot;isPaintingLayer&quot;:true}" stroke-miterlimit="10" stroke-dasharray="" stroke-dashoffset="0" style="mix-blend-mode: normal"><path d="M229.98313,162.91346h20.03378c3.9166,0 7.06966,3.15307 7.06966,7.06966v20.03379c0,3.91659 -3.15306,7.06966 -7.06966,7.06966h-20.03378c-3.91659,0 -7.06967,-3.15307 -7.06967,-7.06966v-20.03379c0,-3.91659 3.15308,-7.06966 7.06967,-7.06966z" fill-opacity="0.09677" fill="#191919" fill-rule="evenodd" stroke="none" stroke-width="4.43922" stroke-linecap="round" stroke-linejoin="round"/><path d="M253.19531,181.7919c0,0 -6.48331,4.91322 -13.77843,4.85628c-7.29513,-0.05694 -12.63955,-5.06247 -12.63955,-5.06247c0,0 5.68571,-8.41002 12.98083,-8.35309c7.29513,0.05694 13.43715,8.55927 13.43715,8.55927z" fill="#000000" fill-rule="nonzero" stroke="#ffffff" stroke-width="0.5" stroke-linecap="butt" stroke-linejoin="miter"/><path d="M237.13676,180.00986c-0.14825,-3.70461 1.01348,-6.73885 2.59477,-6.77716c1.5813,-0.03831 2.98336,2.93382 3.1316,6.63844c0.03788,0.94669 -0.00978,1.8496 -0.12813,2.66993c-0.34477,2.3898 -1.28944,4.07871 -2.46665,4.10724c-1.58129,0.03831 -2.98336,-2.93381 -3.13161,-6.63843z" fill="#000000" fill-rule="nonzero" stroke="#ffffff" stroke-width="0.5" stroke-linecap="butt" stroke-linejoin="miter"/></g></g></svg>