<svg version="1.1" xmlns="http://www.w3.org/2000/svg" xmlns:xlink="http://www.w3.org/1999/xlink" width="130.47404" height="267.22501" viewBox="0,0,130.47404,267.22501"><defs><linearGradient x1="237.79577" y1="230.37437" x2="242.20428" y2="271.30431" gradientUnits="userSpaceOnUse" id="color-1"><stop offset="0" stop-color="#2b2d33"/><stop offset="1" stop-color="#aeb0b9"/></linearGradient><radialGradient cx="240.66633" cy="251.39411" r="1.87123" gradientUnits="userSpaceOnUse" id="color-2"><stop offset="0" stop-color="#ffffff"/><stop offset="1" stop-color="#969696"/></radialGradient><radialGradient cx="253.54004" cy="228.38473" r="1.87123" gradientUnits="userSpaceOnUse" id="color-3"><stop offset="0" stop-color="#56585a"/><stop offset="1" stop-color="#4f5052"/></radialGradient><radialGradient cx="253.54004" cy="228.38473" r="1.87123" gradientUnits="userSpaceOnUse" id="color-4"><stop offset="0" stop-color="#acaeb4"/><stop offset="1" stop-color="#696a6e"/></radialGradient><radialGradient cx="254.37948" cy="257.46146" r="4.91667" gradientUnits="userSpaceOnUse" id="color-5"><stop offset="0" stop-color="#acaeb4"/><stop offset="1" stop-color="#696a6e"/></radialGradient></defs><g transform="translate(-175.0614,-46.38752)"><g data-paper-data="{&quot;isPaintingLayer&quot;:true}" fill-rule="nonzero" stroke-linejoin="miter" stroke-miterlimit="10" stroke-dasharray="" stroke-dashoffset="0" style="mix-blend-mode: normal"><path d="M178.409,313.61253v-267.22501h123.18203v267.22501z" fill-opacity="0.01" fill="#000000" stroke="none" stroke-width="0" stroke-linecap="butt"/><path d="M230.46509,198.6948v-7.66667h19.66667v7.66667z" fill="#8f95cd" stroke="#000000" stroke-width="1.5" stroke-linecap="butt"/><path d="M205.87532,307.50005l14.14285,-102.8421l39.28325,-0.15789l13.07389,103z" fill="#ff7e52" stroke="#000000" stroke-width="2" stroke-linecap="butt"/><path d="M250.85397,208.09068c0.34203,19.95645 -23.38153,17.88935 -23.46096,0.13765z" fill="#8b8b8b" stroke="#000000" stroke-width="0" stroke-linecap="butt"/><path d="M260.5064,207.00024c0,3.31371 -9.21547,6 -20.58334,6c-11.36786,0 -20.58333,-2.68629 -20.58333,-6c0,-3.31371 9.21547,-6 20.58333,-6c11.36786,0 20.58334,2.68629 20.58334,6z" fill="#751d00" stroke="#000000" stroke-width="1.5" stroke-linecap="butt"/><path d="M230.46509,208.33352v-7.66667h19.66667v7.66667z" fill="#8f95cd" stroke="#000000" stroke-width="1.5" stroke-linecap="butt"/><g stroke-linecap="butt"><path d="M237.79577,230.37437c11.30249,-1.21737 21.45184,6.95822 22.66922,18.26072c1.21737,11.30249 -6.95822,21.45184 -18.26071,22.66922c-11.30249,1.21737 -21.45185,-6.95822 -22.66923,-18.26071c-1.21737,-11.30249 6.95822,-21.45185 18.26072,-22.66923z" fill="url(#color-1)" stroke="#b43307" stroke-width="1"/><path d="M238.94698,241.06255c5.39957,-0.58158 10.24825,3.32417 10.82983,8.72374c0.58158,5.39957 -3.32417,10.24826 -8.72374,10.82984c-5.39957,0.58158 -10.24826,-3.32417 -10.82984,-8.72375c-0.58158,-5.39957 3.32417,-10.24825 8.72375,-10.82983z" fill="#f65c52" stroke="#000000" stroke-width="1"/><path d="M239.79964,248.97888c1.02751,-0.11067 1.95019,0.63257 2.06086,1.66008c0.11067,1.02751 -0.63257,1.95019 -1.66008,2.06086c-1.02751,0.11067 -1.95019,-0.63257 -2.06086,-1.66008c-0.11067,-1.02751 0.63257,-1.95019 1.66008,-2.06086z" fill="url(#color-2)" stroke="#000000" stroke-width="0"/><path d="M239.15512,242.99497c4.33232,-0.46663 8.22265,2.66714 8.68928,6.99946c0.46663,4.33232 -2.66714,8.22265 -6.99946,8.68928c-4.33232,0.46663 -8.22265,-2.66714 -8.68928,-6.99946c-0.46663,-4.33232 2.66714,-8.22265 6.99946,-8.68928z" fill="none" stroke="#c44b40" stroke-width="1"/><text transform="translate(242.22947,245.58187) rotate(83.85245) scale(0.06663,0.06663)" font-size="40" xml:space="preserve" fill="#fbff00" fill-rule="nonzero" stroke="none" stroke-width="1" stroke-linecap="butt" stroke-linejoin="miter" stroke-miterlimit="10" stroke-dasharray="" stroke-dashoffset="0" font-family="Sans Serif" font-weight="normal" text-anchor="start" style="mix-blend-mode: normal"><tspan x="0" dy="0">Sprunki</tspan></text></g><path d="M254.37948,230.21156l4.66667,12.16667l-3.83333,12.5" fill="none" stroke="#a9abb2" stroke-width="1.5" stroke-linecap="round"/><path d="M251.66881,228.38473c0,-1.03345 0.83778,-1.87123 1.87123,-1.87123c1.03345,0 1.87123,0.83778 1.87123,1.87123c0,1.03345 -0.83778,1.87123 -1.87123,1.87123c-1.03345,0 -1.87123,-0.83778 -1.87123,-1.87123z" fill="url(#color-3)" stroke="url(#color-4)" stroke-width="0.5" stroke-linecap="butt"/><path d="M251.1538,261.60024l2.95406,-9.37913l3.4973,1.10151l-2.95406,9.37913z" fill="#ffc772" stroke="url(#color-5)" stroke-width="0" stroke-linecap="butt"/><g stroke="#000000" stroke-linecap="butt"><path d="M176.06141,175.49446c0,-14.03446 28.7599,-25.41163 64.23702,-25.41163c35.47712,0 64.23702,11.37718 64.23702,25.41163c0,14.03446 -28.7599,25.41163 -64.23702,25.41163c-35.47712,0 -64.23702,-11.37718 -64.23702,-25.41163z" fill="#ff7e52" stroke-width="2"/><path d="M176.78448,175.51711c0,-0.3068 5.20666,23.56621 63.36046,23.99392c55.56352,0.40866 63.51358,-24.42329 63.51358,-23.99392c0,13.82498 -28.40173,25.03234 -63.43702,25.03234c-35.03529,0 -63.43702,-11.20736 -63.43702,-25.03234z" fill="#bd5b3a" stroke-width="0"/><path d="M240.41178,150.19887c0,-14.03446 11.68289,-25.41163 26.09447,-25.41163c14.41158,0 26.09447,11.37717 26.09447,25.41163c0,14.03446 -11.68289,25.41163 -26.09447,25.41163c-14.41158,0 -26.09447,-11.37717 -26.09447,-25.41163z" fill="#9c8686" stroke-width="1.5"/><path d="M186.40059,150.16825c0,-14.03446 11.68289,-25.41163 26.09447,-25.41163c14.41158,0 26.09447,11.37717 26.09447,25.41163c0,14.03446 -11.68289,25.41163 -26.09447,25.41163c-14.41158,0 -26.09447,-11.37717 -26.09447,-25.41163z" fill="#9c8686" stroke-width="1.5"/></g><path d="M201.50216,116.49304c0,0 6.91046,-4.89656 12.04245,-5.88629c5.13199,-0.98972 12.29626,1.19246 12.29626,1.19246c0,0 -8.02927,-0.38195 -11.99254,0.38239c-4.14177,0.79876 -12.34617,4.31143 -12.34617,4.31143z" fill="#ffde00" stroke="#000000" stroke-width="0.5" stroke-linecap="butt"/><path d="M265.23135,112.19383c-3.94876,-0.83603 -11.98364,-0.59966 -11.98364,-0.59966c0,0 7.20263,-2.05199 12.31585,-0.96943c5.1132,1.08256 11.9338,6.10355 11.9338,6.10355c0,0 -8.1394,-3.66078 -12.26601,-4.53446z" data-paper-data="{&quot;index&quot;:null}" fill="#ffde00" stroke="#000000" stroke-width="0.5" stroke-linecap="butt"/><g stroke-linecap="butt"><path d="M188.81384,145.82055c0,-12.968 10.51265,-23.48065 23.48065,-23.48065c12.968,0 23.48065,10.51265 23.48065,23.48065c0,12.968 -10.51265,23.48065 -23.48065,23.48065c-12.968,0 -23.48065,-10.51265 -23.48065,-23.48065z" fill="#ffffff" stroke="#000000" stroke-width="2"/><path d="M195.87924,145.54485c0,-9.12808 7.39976,-16.52784 16.52783,-16.52784c9.12808,0 16.52784,7.39977 16.52784,16.52784c0,9.12808 -7.39977,16.52784 -16.52784,16.52784c-9.12808,0 -16.52783,-7.39977 -16.52783,-16.52784z" fill="#000000" stroke="none" stroke-width="0"/><path d="M266.55292,169.30114c-12.968,0 -23.48065,-10.51265 -23.48065,-23.48065c0,-12.968 10.51265,-23.48065 23.48065,-23.48065c12.968,0 23.48065,10.51265 23.48065,23.48065c0,12.968 -10.51265,23.48065 -23.48065,23.48065z" data-paper-data="{&quot;index&quot;:null}" fill="#ffffff" stroke="#000000" stroke-width="2"/><path d="M266.44034,162.07271c-9.12807,0 -16.52783,-7.39977 -16.52783,-16.52784c0,-9.12808 7.39977,-16.52784 16.52783,-16.52784c9.12807,0 16.52783,7.39977 16.52783,16.52784c0,9.12808 -7.39977,16.52784 -16.52783,16.52784z" data-paper-data="{&quot;index&quot;:null}" fill="#000000" stroke="none" stroke-width="0"/></g><g fill="#6e9be9" stroke="#000000" stroke-width="2" stroke-linecap="butt"><path d="M188.81385,145.82058c0,-12.968 10.51265,-23.48065 23.48065,-23.48065c12.968,0 23.48065,10.51265 23.48065,23.48065c0,0 -46.96131,1.23155 -46.96131,0z"/><path d="M243.07231,145.82058c0,-12.968 10.51265,-23.48065 23.48065,-23.48065c12.968,0 23.48065,10.51265 23.48065,23.48065c0,1.2138 -46.96131,0 -46.96131,0z" data-paper-data="{&quot;index&quot;:null}"/></g><g><path d="M240.38068,197.65402c-19.05035,0 -24.77262,-17.6037 -24.77262,-17.6037c0,0 16.33092,0.78694 24.57701,0.78694c8.16201,0 24.64983,-0.78694 24.64983,-0.78694c0,0 -5.40388,17.6037 -24.45423,17.6037z" fill="#ffffff" stroke="#000000" stroke-width="2" stroke-linecap="round"/><path d="M222.8525,190.52917l-5.29554,-6.00523c0,0 12.59293,0.85312 22.94255,0.85312c10.21943,0 22.38648,-1.17982 22.38648,-1.17982l-5.95749,6.76228c0,0 -5.67699,0.75432 -15.96234,0.75432c-10.28535,0 -18.11366,-1.18468 -18.11366,-1.18468z" fill="#000000" stroke="none" stroke-width="0" stroke-linecap="butt"/></g></g></g></svg>