<svg version="1.1" xmlns="http://www.w3.org/2000/svg" xmlns:xlink="http://www.w3.org/1999/xlink" width="130.46991" height="249.87959" viewBox="0,0,130.46991,249.87959"><defs><linearGradient x1="319.92305" y1="175.45918" x2="319.92305" y2="307.45912" gradientUnits="userSpaceOnUse" id="color-1"><stop offset="0" stop-color="#4c7b64"/><stop offset="1" stop-color="#2b2b2b"/></linearGradient><linearGradient x1="320.08155" y1="221.49563" x2="320.08155" y2="308.14563" gradientUnits="userSpaceOnUse" id="color-2"><stop offset="0" stop-color="#6b6dd3"/><stop offset="1" stop-color="#000000"/></linearGradient><linearGradient x1="355.96016" y1="194.55737" x2="355.96016" y2="302.11987" gradientUnits="userSpaceOnUse" id="color-3"><stop offset="0" stop-color="#4b7b64"/><stop offset="1" stop-color="#000000"/></linearGradient><linearGradient x1="284.13221" y1="194.4685" x2="284.13221" y2="302.02621" gradientUnits="userSpaceOnUse" id="color-4"><stop offset="0" stop-color="#4b7b64"/><stop offset="1" stop-color="#000000"/></linearGradient><linearGradient x1="324.20606" y1="85.29039" x2="322.83999" y2="205.39623" gradientUnits="userSpaceOnUse" id="color-5"><stop offset="0" stop-color="#000000"/><stop offset="1" stop-color="#ffdac9"/></linearGradient><linearGradient x1="323.44822" y1="145.14169" x2="322.77254" y2="204.54928" gradientUnits="userSpaceOnUse" id="color-6"><stop offset="0" stop-color="#000000"/><stop offset="1" stop-color="#7e647b"/></linearGradient><radialGradient cx="301.62249" cy="143.93782" r="23.48065" gradientUnits="userSpaceOnUse" id="color-7"><stop offset="0" stop-color="#c7c7c7"/><stop offset="1" stop-color="#c79797"/></radialGradient><radialGradient cx="347.59963" cy="146.21088" r="23.48065" gradientUnits="userSpaceOnUse" id="color-8"><stop offset="0" stop-color="#c7c7c7"/><stop offset="1" stop-color="#c79797"/></radialGradient><linearGradient x1="323.96627" y1="59.28556" x2="323.29128" y2="118.63123" gradientUnits="userSpaceOnUse" id="color-9"><stop offset="0" stop-color="#4c7b64"/><stop offset="1" stop-color="#000000"/></linearGradient><linearGradient x1="323.91133" y1="63.61188" x2="323.53488" y2="96.70881" gradientUnits="userSpaceOnUse" id="color-10"><stop offset="0" stop-color="#daffed"/><stop offset="1" stop-color="#161a18"/></linearGradient><linearGradient x1="324.47645" y1="68.62689" x2="324.24174" y2="89.26168" gradientUnits="userSpaceOnUse" id="color-11"><stop offset="0" stop-color="#49705e"/><stop offset="1" stop-color="#13160e"/></linearGradient><linearGradient x1="322.89389" y1="154.3557" x2="322.48777" y2="190.06252" gradientUnits="userSpaceOnUse" id="color-12"><stop offset="0" stop-color="#000000"/><stop offset="1" stop-color="#ffdac9"/></linearGradient></defs><g transform="translate(-258.29246,-58.77223)"><g data-paper-data="{&quot;isPaintingLayer&quot;:true}" stroke-linecap="butt" stroke-linejoin="miter" stroke-miterlimit="10" stroke-dasharray="" stroke-dashoffset="0" style="mix-blend-mode: normal"><path d="M286.67305,307.45912l15.14285,-131.8421l37.78325,-0.15789l13.57389,132z" fill="url(#color-1)" fill-rule="nonzero" stroke="#000000" stroke-width="2"/><path d="M299.53999,204.07182l3.12142,-26.32765l35.83075,-0.14203l2.76735,26.1059c0,0 -7.51543,4.19603 -21.55904,4.50964c-12.48458,0.27879 -20.16049,-4.14586 -20.16049,-4.14586z" fill="#2f4b3d" fill-rule="nonzero" stroke="#000000" stroke-width="0"/><path d="M286.20349,307.39563l9.625,-85.15c0,0 16.14032,5.36651 24.41538,5.23987c8.05433,-0.12327 24.59071,-5.98987 24.59071,-5.98987l9.125,86.65z" fill="url(#color-2)" fill-rule="nonzero" stroke="#000000" stroke-width="1"/><path d="M330.77702,225.84332l-2.72223,-31.57302l7.33053,-1.11111l3.5,30.46191c0,0 1.97994,9.94622 -2.77415,10.47275c-4.71963,0.52271 -5.33415,-8.25053 -5.33415,-8.25053z" data-paper-data="{&quot;index&quot;:null}" fill="#6b6dd3" fill-rule="nonzero" stroke="#000000" stroke-width="1"/><path d="M301.66589,224.12111l3.5,-30.4619l8.21942,0.55556l-2.61111,32.12857c0,0 -1.38805,9.70344 -6.18894,8.77837c-5.22617,-1.00701 -2.91937,-11.0006 -2.91937,-11.0006z" fill="#6b6dd3" fill-rule="nonzero" stroke="#000000" stroke-width="1"/><path d="M338.7852,228.05325c0,1.99603 -1.54283,3.61412 -3.44602,3.61412c-1.90319,0 -3.44603,-1.6181 -3.44603,-3.61412c0,-1.99603 1.54284,-3.61412 3.44603,-3.61412c1.90319,0 3.44602,1.61809 3.44602,3.61412z" fill="#c6a438" fill-rule="nonzero" stroke="none" stroke-width="0"/><path d="M309.37397,228.76993c0,1.99603 -1.54283,3.61412 -3.44602,3.61412c-1.90319,0 -3.44603,-1.6181 -3.44603,-3.61412c0,-1.99603 1.54284,-3.61412 3.44603,-3.61412c1.90319,0 3.44602,1.61809 3.44602,3.61412z" fill="#c6a438" fill-rule="nonzero" stroke="none" stroke-width="0"/><path d="M308.84898,229.41992c0,1.99602 -1.54284,3.61412 -3.44602,3.61412c-1.90319,0 -3.44602,-1.6181 -3.44602,-3.61412c0,-1.99602 1.54284,-3.61412 3.44602,-3.61412c1.90319,0 3.44602,1.6181 3.44602,3.61412z" fill="#edd459" fill-rule="nonzero" stroke="none" stroke-width="0"/><path d="M338.53667,228.70117c0,1.87521 -1.44945,3.39537 -3.23744,3.39537c-1.78799,0 -3.23745,-1.52016 -3.23745,-3.39537c0,-1.87521 1.44946,-3.39537 3.23745,-3.39537c1.78799,0 3.23744,1.52016 3.23744,3.39537z" fill="#edd459" fill-rule="nonzero" stroke="none" stroke-width="0"/><path d="M341.61102,194.55737c0.90641,1.442 13.27591,-0.94411 14.53458,0.88889c0.31862,-0.594 9.30076,33.378 9.72787,35c-0.5926,-0.963 5.60783,49.33333 5.60783,49.33333c0,0 0.50768,22.79733 0.91556,22.33333c-0.88787,-0.49 -11.18842,-0.32367 -12.13122,-0.16667c0.5308,-15.625 -11.71487,-68.29133 -19.1124,-79.33333c2.25366,-15.345 -5.00951,-26.28055 0.45778,-28.05555z" fill="url(#color-3)" fill-rule="evenodd" stroke="none" stroke-width="1"/><path d="M341.52136,194.59507c0.91572,1.34757 13.41232,-0.88229 14.68393,0.83068c0.10385,-0.17908 1.11865,3.00386 2.46032,7.4491c-6.17155,-0.51975 -13.01437,-2.82677 -18.35267,1.21834c-0.00693,0.00525 -0.01384,0.01053 -0.02073,0.01584c-0.98219,-5.21007 -1.76061,-8.6161 1.22914,-9.51396z" fill="#2f4b3d" fill-rule="nonzero" stroke="none" stroke-width="1"/><path d="M387.45586,301.10947c0.01927,0.00566 0.03664,0.01141 0.05206,0.01725c-0.01724,0.01347 -0.0346,0.00734 -0.05206,-0.01725z" fill="#2f4b3d" fill-rule="nonzero" stroke="none" stroke-width="1"/><path d="M298.93917,222.52405c-7.39753,11.042 -19.6432,63.70833 -19.1124,79.33333c-0.9428,-0.157 -11.24335,-0.32333 -12.13122,0.16667c0.40788,0.464 7.11599,-72.62966 6.52339,-71.66666c0.42711,-1.622 9.40925,-35.594 9.72787,-35c1.25867,-1.833 13.62817,0.55311 14.53458,-0.88889c5.46729,1.775 -1.79588,12.71055 0.45778,28.05555z" data-paper-data="{&quot;index&quot;:null}" fill="url(#color-4)" fill-rule="evenodd" stroke="none" stroke-width="1"/><path d="M298.57106,194.50619c2.98975,0.89786 2.21133,4.30389 1.22914,9.51396c-0.00689,-0.00531 -0.0138,-0.01059 -0.02073,-0.01584c-5.3383,-4.04511 -12.18112,-1.73809 -18.35267,-1.21834c1.34167,-4.44524 2.35647,-7.62818 2.46032,-7.4491c1.27161,-1.71297 13.76821,0.51689 14.68393,-0.83068z" data-paper-data="{&quot;index&quot;:null}" fill="#2f4b3d" fill-rule="nonzero" stroke="none" stroke-width="1"/><g><path d="M265.59089,112.476c0.39447,-1.95191 0.97242,-15.30499 15.27877,-27.86465c7.72441,-6.78133 16.51103,-16.48227 38.09752,-16.88834c32.06243,-0.14647 43.82122,11.58848 51.93269,20.39867c11.12535,12.08369 11.64062,22.85268 14.05921,28.13004c0.24556,0.5358 -119.37999,-3.71728 -119.36819,-3.77572z" fill="#a8530c" fill-rule="nonzero" stroke="none" stroke-width="1.5"/><path d="M259.2929,144.37116c0.24055,-21.14949 12.05271,-39.6237 29.72925,-50.18618c1.10525,-1.74213 19.88865,-8.96161 33.41256,-8.91213c13.52391,0.04946 26.02796,3.19799 35.8623,9.16551c17.92824,10.87894 29.70621,29.89 29.46162,51.39395c-0.37875,33.29969 -29.44381,59.96734 -64.91864,59.56386c-35.47483,-0.40349 -63.92583,-27.72532 -63.54708,-61.025z" fill="url(#color-5)" fill-rule="nonzero" stroke="#000000" stroke-width="2"/><path d="M260.01513,144.43328c0.00829,-0.72795 4.57035,55.97499 62.70884,57.65122c55.5489,1.60157 64.16858,-57.22706 64.15699,-56.20827c-0.37309,32.80267 -29.07544,59.07147 -64.10846,58.673c-35.03303,-0.39846 -63.13046,-27.3133 -62.75737,-60.11596z" fill="url(#color-6)" fill-rule="nonzero" stroke="#000000" stroke-width="0"/><path d="M262.81664,156.12045c0,0 -3.08561,-7.8747 -3.04082,-11.81298c0.06857,-6.02909 9.90149,-42.35916 9.90149,-42.35916l9.52431,0.10833c0,0 -3.80175,8.12271 -4.4854,12.76412c-0.60716,4.12214 0.58572,13.71181 0.58572,13.71181l-2.10206,2.73273l-2.98418,-1.83859z" fill="#3a2f2b" fill-rule="nonzero" stroke="#000000" stroke-width="0"/><path d="M293.23589,145.18677c0.14749,-12.96716 6.21261,-23.41151 13.54684,-23.32808c7.33423,0.08341 13.16022,10.66302 13.01274,23.63017c-0.14749,12.96716 -6.21261,23.41151 -13.54684,23.32808c-7.33423,-0.08341 -13.16022,-10.66302 -13.01274,-23.63017z" fill="url(#color-7)" fill-rule="nonzero" stroke="#000000" stroke-width="2"/><path d="M261.97083,151.5988c0,0 -2.91556,-7.44073 -2.87324,-11.16197c0.06479,-5.69683 9.35581,-40.02475 9.35581,-40.02475l8.99942,0.10235c0,0 -3.59225,7.67506 -4.2382,12.06068c-0.57369,3.89496 0.55345,12.95616 0.55345,12.95616l-1.98623,2.58213l-2.81972,-1.73728z" fill="#766058" fill-rule="nonzero" stroke="#000000" stroke-width="1.5"/><path d="M340.00503,169.20081c-7.279,-0.08279 -13.06024,-10.66187 -12.91275,-23.62904c0.14749,-12.96716 6.16786,-23.41202 13.44684,-23.32922c7.279,0.08279 13.06024,10.66187 12.91275,23.62904c-0.14749,12.96716 -6.16786,23.41202 -13.44684,23.32922z" data-paper-data="{&quot;index&quot;:null}" fill="url(#color-8)" fill-rule="nonzero" stroke="#000000" stroke-width="2"/><path d="M283.53709,117.65333c0,0 11.54728,-4.13312 16.55932,-2.65115c5.01205,1.48197 11.6265,6.10445 11.6265,6.10445c0,0 -8.21064,-3.42192 -12.08128,-4.56641c-4.04497,-1.19603 -16.10455,1.1131 -16.10455,1.1131z" fill="#000000" fill-rule="nonzero" stroke="none" stroke-width="0"/><path d="M347.01941,117.43242c-3.86779,1.15406 -10.81138,5.20397 -10.81138,5.20397c0,0 5.34443,-5.24649 10.3528,-6.74088c5.00836,-1.49439 13.39959,-0.34634 13.39959,-0.34634c0,0 -8.89902,0.67722 -12.941,1.88327z" data-paper-data="{&quot;index&quot;:null}" fill="#000000" fill-rule="nonzero" stroke="none" stroke-width="0"/><path d="M375.80171,131.62779l-3.02523,1.77025l-2.03937,-2.77983c0,0 1.41067,-9.56006 0.89744,-13.69495c-0.5779,-4.65576 -4.19392,-12.86283 -4.19392,-12.86283l9.52431,0.10833c0,0 9.00405,36.5443 8.93548,42.57341c-0.04479,3.93828 -3.30871,11.74076 -3.30871,11.74076z" data-paper-data="{&quot;index&quot;:null}" fill="#3a2f2b" fill-rule="nonzero" stroke="#000000" stroke-width="0"/><path d="M377.42074,129.94332l-2.85852,1.67268l-1.92698,-2.62663c0,0 1.33293,-9.03322 0.84799,-12.94022c-0.54604,-4.39917 -3.9628,-12.15396 -3.9628,-12.15396l8.99942,0.10235c0,0 8.50784,34.53037 8.44303,40.2272c-0.04231,3.72123 -3.12638,11.09372 -3.12638,11.09372z" data-paper-data="{&quot;index&quot;:null}" fill="#766058" fill-rule="nonzero" stroke="#000000" stroke-width="1.5"/><path d="M262.33453,99.83723c16.78927,-23.45332 37.73761,-40.82345 60.71524,-40.5621c22.93598,0.26087 43.79919,12.40384 59.34524,35.92726c2.16193,3.27131 5.62215,22.90326 3.61863,23.98995c-2.99562,1.62477 -55.1593,-11.40864 -63.26453,-11.50082c-8.43802,-0.09597 -57.43569,10.53765 -61.03866,9.83167c-2.59438,-0.50834 -1.88278,-14.18405 0.62409,-17.68596z" fill="url(#color-9)" fill-rule="nonzero" stroke="#000000" stroke-width="1"/><path d="M342.13865,80.36978c-0.10395,9.13947 -8.43312,16.4547 -18.60371,16.33902c-10.17059,-0.11568 -18.33121,-7.61846 -18.22726,-16.75792c0.10395,-9.13947 8.43312,-16.4547 18.60371,-16.33902c10.17059,0.11568 18.33121,7.61846 18.22726,16.75792z" fill="url(#color-10)" fill-rule="nonzero" stroke="none" stroke-width="0"/><path d="M274.43696,114.97518l2.93307,-8.75292c0,0 8.41858,-3.12823 9.07456,-3.30547c4.89531,-1.32277 25.79516,-7.91771 37.22125,-7.78775c11.0356,0.12552 32.23304,6.87805 37.92217,8.51675c0.94769,0.27297 7.57178,4.83486 7.57178,4.83486l1.72085,8.85348c0,0 -8.68357,-3.09775 -9.4831,-3.10459c-1.88845,-0.01617 -5.81339,-1.02358 -10.92086,-2.2192c-7.39336,-1.7307 -17.51282,3.30855 -27.27197,3.22496c-9.94549,-0.08519 -19.52282,-5.52341 -26.43354,-4.10514c-4.76457,0.97782 -8.14366,1.80936 -9.22139,1.80012c-0.72782,-0.00623 -13.11282,2.04494 -13.11282,2.04494z" fill="#141d18" fill-rule="nonzero" stroke="#000000" stroke-width="0"/><path d="M333.56627,89.36773l-18.24013,-0.92859l-0.17422,-19.91831l5.47897,0.11338l-0.3845,13.48578l13.11725,0.38027z" data-paper-data="{&quot;index&quot;:null}" fill="url(#color-11)" fill-rule="evenodd" stroke="none" stroke-width="1"/><path d="M324.75176,176.9332c0,0 -25.40351,21.79851 -40.22588,14.78785c-14.82237,-7.01065 -13.76919,-40.32633 -13.76919,-40.32633c0,0 14.15871,15.39139 23.16339,19.6504c8.99367,4.25381 30.83171,5.88809 30.83171,5.88809z" fill="#000000" fill-rule="nonzero" stroke="none" stroke-width="0"/><path d="M353.3254,171.63369c8.98011,-4.00005 23.29534,-18.86822 23.29534,-18.86822c0,0 0.29127,32.89472 -14.49065,39.4791c-14.78192,6.58438 -39.35712,-15.49345 -39.35712,-15.49345c0,0 21.58328,-1.12227 30.55242,-5.11744z" data-paper-data="{&quot;index&quot;:null}" fill="#000000" fill-rule="nonzero" stroke="none" stroke-width="0"/><path d="M309.21057,180.60182c-2.93283,-9.34624 9.74408,-26.29088 9.74408,-26.29088c0,0 2.91317,0.4153 4.38564,0.48061c1.55504,0.06898 4.4907,-0.30188 4.4907,-0.30188c0,0 10.47063,19.66487 8.36928,26.19687c-4.96406,15.43065 -24.05686,9.26149 -26.98967,-0.08473z" fill="url(#color-12)" fill-rule="nonzero" stroke="#000000" stroke-width="2"/><g fill="#000000" fill-rule="nonzero" stroke="none" stroke-width="1" font-family="Inter, -apple-system, BlinkMacSystemFont, &quot;Segoe UI&quot;, Roboto, Oxygen, Ubuntu, Cantarell, &quot;Fira Sans&quot;, &quot;Droid Sans&quot;, &quot;Helvetica Neue&quot;, sans-serif, emoji" font-weight="400" font-size="16" text-anchor="start"/><g data-paper-data="{&quot;index&quot;:null}" fill="#000000" fill-rule="nonzero" stroke="none" stroke-width="1" font-family="Inter, -apple-system, BlinkMacSystemFont, &quot;Segoe UI&quot;, Roboto, Oxygen, Ubuntu, Cantarell, &quot;Fira Sans&quot;, &quot;Droid Sans&quot;, &quot;Helvetica Neue&quot;, sans-serif, emoji" font-weight="400" font-size="16" text-anchor="start"/><path d="M319.36926,155.43056l1.32264,-4.91349l5.46405,0.26216l1.06796,4.85349c0,0 -2.84759,0.76376 -4.26654,0.70183c-1.32958,-0.05803 -3.58808,-0.904 -3.58808,-0.904z" fill="#907b72" fill-rule="nonzero" stroke="#000000" stroke-width="0"/></g></g></g></svg>