<svg version="1.1" xmlns="http://www.w3.org/2000/svg" xmlns:xlink="http://www.w3.org/1999/xlink" width="35.17311" height="35.17311" viewBox="0,0,35.17311,35.17311"><g transform="translate(-222.41344,-162.41344)"><g data-paper-data="{&quot;isPaintingLayer&quot;:true}" stroke-miterlimit="10" stroke-dasharray="" stroke-dashoffset="0" style="mix-blend-mode: normal"><path d="M229.98311,162.91345h20.03379c3.9166,0 7.06966,3.15307 7.06966,7.06966v20.03379c0,3.91659 -3.15306,7.06966 -7.06966,7.06966h-20.03379c-3.91659,0 -7.06966,-3.15307 -7.06966,-7.06966v-20.03379c0,-3.91659 3.15307,-7.06966 7.06966,-7.06966z" fill="#d60000" fill-rule="evenodd" stroke="#ffffff" stroke-width="1" stroke-linecap="round" stroke-linejoin="round"/><path d="M251.66665,179.99995c0,5.79008 -5.22335,10.48387 -11.66667,10.48387c-6.44332,0 -11.66667,-4.69379 -11.66667,-10.48387c0,-5.79008 5.22335,-10.48387 11.66667,-10.48387c6.44332,0 11.66667,4.69379 11.66667,10.48387z" fill="#ffffff" fill-rule="nonzero" stroke="none" stroke-width="0" stroke-linecap="butt" stroke-linejoin="miter"/><path d="M246.47827,183.76239l-2.79773,-0.49362l-0.99608,-4.41241c0,0 -1.22515,2.65923 -2.43512,3.87006c-0.85415,-1.2328 -1.85275,-2.73348 -2.60528,-3.91629c-0.65024,1.66781 -1.18741,4.3692 -1.18741,4.3692l-2.60333,-0.06911c0,0 1.43039,-5.93712 2.56147,-8.81328c1.3087,1.66683 2.65492,3.2388 4.03911,4.71633c0.89168,-1.21244 3.28291,-5.09875 3.44582,-5.02029c0.2535,0.12208 2.2408,7.11104 2.57856,9.76938z" fill="#d9130c" fill-rule="evenodd" stroke="none" stroke-width="1" stroke-linecap="butt" stroke-linejoin="miter"/></g></g></svg>