<svg version="1.1" xmlns="http://www.w3.org/2000/svg" xmlns:xlink="http://www.w3.org/1999/xlink" width="122.68021" height="234.79397" viewBox="0,0,122.68021,234.79397"><g transform="translate(-171.49979,-75.23758)"><g data-paper-data="{&quot;isPaintingLayer&quot;:true}" fill-rule="nonzero" stroke="none" stroke-width="0" stroke-linecap="butt" stroke-linejoin="miter" stroke-miterlimit="10" stroke-dasharray="" stroke-dashoffset="0" style="mix-blend-mode: normal"><path d="M281.3533,243.59819c3.15329,5.02762 -3.20266,14.69295 -14.19638,21.58813c-10.99372,6.89517 -22.46214,8.40913 -25.61542,3.38151c-3.15329,-5.02762 3.20266,-14.69296 14.19638,-21.58813c10.99372,-6.89517 22.46214,-8.40913 25.61542,-3.38151z" data-paper-data="{&quot;index&quot;:null}" fill="#016539"/><path d="M293.58354,213.86777c-2.75937,5.25414 -14.31001,4.62206 -25.79906,-1.41178c-11.48904,-6.03384 -18.56584,-15.18455 -15.80647,-20.43869c2.75937,-5.25414 14.31002,-4.62206 25.79906,1.41178c11.48904,6.03384 18.56583,15.18455 15.80646,20.43869z" data-paper-data="{&quot;index&quot;:null}" fill="#016539"/><path d="M250.24801,230.92449c-3.33643,4.90799 -14.74126,2.9724 -25.4734,-4.32327c-10.73213,-7.29567 -16.72753,-17.18868 -13.3911,-22.09667c3.33643,-4.90799 14.74126,-2.97239 25.47339,4.32327c10.73214,7.29566 16.72754,17.18868 13.39111,22.09667z" data-paper-data="{&quot;index&quot;:null}" fill="#016539"/><path d="M233.39472,310.03154c0,0 2.5385,-11.25883 1.92694,-24.92637c-0.43011,-9.61241 -3.89821,-19.88306 -4.64675,-29.59571c-0.39966,-5.18586 1.20514,-10.33581 1.72876,-14.51717c1.6977,-13.55696 13.38298,-28.68586 17.94509,-46.78739c1.41872,-5.62916 0.41,-10.94535 0.28995,-15.67222c-0.30262,-11.91553 -2.62991,-20.08635 -2.62991,-20.08635l15.18717,-17.19303c0,0 7.84519,11.59984 7.26873,30.97615c-0.15247,5.12524 0.22012,11.32169 -0.51848,18.07279c-0.39984,3.65469 -2.34078,7.26934 -2.09827,11.42602c0.3234,5.54325 -16.18371,40.80426 -15.69373,46.05589c0.71465,7.65972 6.48987,16.73478 9.58706,25.56156c2.19531,6.25648 2.04706,13.24374 2.23977,15.70622c0.73681,9.41487 -0.78508,20.97963 -0.78508,20.97963z" fill="#22ac4e"/><path d="M237.11877,127.38118c-9.74351,-3.76324 -14.86882,-13.99454 -11.4477,-22.85228c1.75182,-4.53567 9.65558,-12.4629 17.91232,-16.94943c7.86789,-4.27523 16.14683,-5.2217 16.14683,-5.2217c0,0 3.25951,6.17511 3.99471,13.64765c0.7907,8.03657 -0.99671,17.56141 -2.76948,22.15135c-3.42111,8.85773 -14.09316,12.98765 -23.83667,9.22441z" data-paper-data="{&quot;index&quot;:null}" fill="#abb6c5"/><path d="M239.41522,130.07203c-0.12402,-9.73203 6.94759,-17.71278 15.79489,-17.82552c4.53032,-0.05773 14.1273,4.02919 20.87085,9.61453c6.42596,5.32231 10.11547,12.15443 10.11547,12.15443c0,0 -4.21046,4.96047 -10.41842,8.18761c-6.67654,3.47073 -15.53428,5.22779 -20.1188,5.2862c-8.8473,0.11274 -16.11997,-7.68523 -16.24399,-17.41726z" fill="#bfcddb"/><path d="M229.18886,118.34368c-8.37184,6.24581 -19.7615,5.1393 -25.43951,-2.47147c-2.90747,-3.89715 -5.41186,-14.80764 -4.81551,-24.18564c0.56827,-8.93636 4.1734,-16.44898 4.1734,-16.44898c0,0 6.96264,0.5272 13.68014,3.882c7.22453,3.60802 14.33684,10.19076 17.2791,14.13454c5.67801,7.61077 3.49423,18.84374 -4.87762,25.08955z" fill="#96a2ac"/><path d="M256.99122,139.45925c2.32149,4.3383 5.26182,13.57259 5.4612,21.6455c0.18539,7.50634 -2.29341,14.03411 -2.29341,14.03411c0,0 -8.33252,0.07445 -16.66473,-3.20514c-8.744,-3.44167 -17.55902,-10.34138 -19.85306,-14.6284c-4.48005,-8.37214 -0.6462,-19.15407 8.56315,-24.08213c9.20935,-4.92806 20.30681,-2.13608 24.78686,6.23606z" data-paper-data="{&quot;index&quot;:null}" fill="#abb6c5"/><path d="M225.11155,133.15835c10.4289,-0.5796 19.31034,6.63627 19.83724,16.11709c0.26981,4.85472 -3.67172,15.33208 -9.3508,22.81878c-5.41163,7.13412 -12.56765,11.40352 -12.56765,11.40352c0,0 -5.5118,-4.28677 -9.25681,-10.79479c-4.02769,-6.99924 -6.31809,-16.4158 -6.59113,-21.3286c-0.52691,-9.48082 7.50024,-17.6364 17.92915,-18.21599z" fill="#bfcddb"/><path d="M220.13772,130.15601c8.06436,6.63807 9.70981,17.96242 3.6752,25.29366c-3.09007,3.75401 -13.0868,8.79146 -22.33589,10.45191c-8.8135,1.58225 -16.9697,-0.1245 -16.9697,-0.1245c0,0 -1.1508,-6.88709 0.50275,-14.21138c1.77835,-7.87713 6.47215,-16.35567 9.59919,-20.1546c6.0346,-7.33124 17.46408,-7.89317 25.52844,-1.2551z" fill="#abb6c5"/><path d="M221.64614,125.11094c0,10.44499 -7.69758,18.91233 -17.19303,18.91233c-4.86222,0 -15.10472,-4.51685 -22.26475,-10.60262c-6.82283,-5.79916 -10.68856,-13.18108 -10.68856,-13.18108c0,0 4.58602,-5.26542 11.29183,-8.64354c7.21195,-3.63309 16.7411,-5.39744 21.66148,-5.39744c9.49545,0 17.19303,8.46734 17.19303,18.91233z" fill="#bfcddb"/><path d="M244.28364,127.54662c0,8.62503 -6.92782,15.617 -15.47373,15.617c-8.5459,0 -15.47373,-6.99197 -15.47373,-15.617c0,-8.62503 6.92782,-15.617 15.47373,-15.617c8.5459,0 15.47373,6.99197 15.47373,15.617z" fill="#f4d01a"/><path d="M243.99708,127.40335c0,8.70416 -6.92782,15.76028 -15.47373,15.76028c-8.5459,0 -14.32753,-10.02927 -14.32753,-10.02927c0,0 5.83481,-0.07766 10.22578,-0.66879c3.3638,-0.45285 5.28834,-1.20703 6.65505,-2.45849c1.39548,-1.2778 3.55219,-3.86105 3.92667,-8.05807c0.36098,-4.04566 -1.03552,-9.73284 -1.03552,-9.73284c0,0 10.02927,6.48302 10.02927,15.18718z" fill="#eda915"/><path d="M233.39472,309.07637c0,0 18.42064,-9.21387 22.08965,-17.84103c3.37457,-7.93478 -0.88491,-32.01876 -0.88491,-32.01876c0,0 7.56449,10.49867 9.27547,19.00467c1.62799,8.09341 0.7538,30.85512 0.7538,30.85512z" fill="#016539"/></g></g></svg>