<svg version="1.1" xmlns="http://www.w3.org/2000/svg" xmlns:xlink="http://www.w3.org/1999/xlink" width="144" height="321.11268" viewBox="0,0,144,321.11268"><defs><linearGradient x1="368.16674" y1="225.16688" x2="368.16674" y2="355.50027" gradientUnits="userSpaceOnUse" id="color-1"><stop offset="0" stop-color="#000000"/><stop offset="1" stop-color="#402200"/></linearGradient><linearGradient x1="273.16679" y1="224.50023" x2="273.16679" y2="354.83366" gradientUnits="userSpaceOnUse" id="color-2"><stop offset="0" stop-color="#000000"/><stop offset="1" stop-color="#402200"/></linearGradient><linearGradient x1="320.00014" y1="216.33352" x2="320.00014" y2="235.66688" gradientUnits="userSpaceOnUse" id="color-3"><stop offset="0" stop-color="#1a0e00"/><stop offset="1" stop-color="#593000"/></linearGradient><linearGradient x1="320.00011" y1="177.90021" x2="320.00011" y2="210.65021" gradientUnits="userSpaceOnUse" id="color-4"><stop offset="0" stop-color="#000000"/><stop offset="1" stop-color="#454747"/></linearGradient><linearGradient x1="320.97512" y1="207.80019" x2="320.97512" y2="219.20019" gradientUnits="userSpaceOnUse" id="color-5"><stop offset="0" stop-color="#18191a"/><stop offset="1" stop-color="#5e6061"/></linearGradient><linearGradient x1="320.00012" y1="119.06241" x2="320.00012" y2="196.93792" gradientUnits="userSpaceOnUse" id="color-6"><stop offset="0" stop-color="#17171a"/><stop offset="1" stop-color="#5e6061"/></linearGradient></defs><g transform="translate(-248,-46.38749)"><g data-paper-data="{&quot;isPaintingLayer&quot;:true}" stroke-miterlimit="10" stroke-dasharray="" stroke-dashoffset="0" style="mix-blend-mode: normal"><path d="M248,367.50018v-316h144v316z" fill="none" fill-rule="nonzero" stroke="none" stroke-width="0" stroke-linecap="butt" stroke-linejoin="miter"/><path d="M258.40899,313.61251v-267.22501h123.18203v267.22501z" fill-opacity="0.01" fill="#000000" fill-rule="nonzero" stroke="none" stroke-width="0" stroke-linecap="butt" stroke-linejoin="miter"/><path d="M312.04364,360.79719c0,0 -4.67938,-21.11975 1.4357,-46.3743c3.6733,-15.17028 18.69854,-35.02836 20.03884,-43.72523c2.35721,-15.29534 -2.13056,-43.75197 -2.13056,-43.75197l5.92999,0.91389c0,0 4.6573,30.36412 2.66854,43.26865c-1.51969,9.86086 -16.48135,27.03455 -20.87867,44.52962c-5.81091,23.11915 -1.13385,46.05324 -1.13385,46.05324z" fill="#000000" fill-rule="nonzero" stroke="#000000" stroke-width="0" stroke-linecap="butt" stroke-linejoin="miter"/><path d="M374.00005,355.50027h-11.66667v-130.33333h11.66667z" fill="url(#color-1)" fill-rule="nonzero" stroke="#000000" stroke-width="0" stroke-linecap="butt" stroke-linejoin="miter"/><path d="M279.00012,354.83366h-11.66666v-130.33333h11.66666z" fill="url(#color-2)" fill-rule="nonzero" stroke="#000000" stroke-width="0" stroke-linecap="butt" stroke-linejoin="miter"/><path d="M254.83348,235.66688v-19.33333h130.33333v19.33333z" fill="url(#color-3)" fill-rule="nonzero" stroke="#000000" stroke-width="0" stroke-linecap="butt" stroke-linejoin="miter"/><path d="M312.90011,210.65021v-32.75h14.2v32.75z" fill="url(#color-4)" fill-rule="nonzero" stroke="#000000" stroke-width="0" stroke-linecap="butt" stroke-linejoin="miter"/><path d="M284.50012,219.20019l5.73764,-11.4h61.26981l5.94255,11.4z" fill="url(#color-5)" fill-rule="nonzero" stroke="#000000" stroke-width="0" stroke-linecap="butt" stroke-linejoin="miter"/><path d="M293.29812,119.06241h53.404c8.92534,0 16.1107,7.18538 16.1107,16.1107v45.654c0,8.92532 -7.18535,16.1107 -16.1107,16.1107h-53.404c-8.92532,0 -16.1107,-7.18538 -16.1107,-16.1107v-45.654c0,-8.92532 7.18538,-16.1107 16.1107,-16.1107z" fill="url(#color-6)" fill-rule="evenodd" stroke="#000000" stroke-width="0" stroke-linecap="round" stroke-linejoin="round"/><path d="M298.2877,126.33835h43.4249c7.25755,0 13.10025,5.84271 13.10025,13.10025v37.12307c0,7.25753 -5.8427,13.10025 -13.10025,13.10025h-43.4249c-7.25753,0 -13.10025,-5.84271 -13.10025,-13.10025v-37.12307c0,-7.25753 5.84271,-13.10025 13.10025,-13.10025z" fill="#000000" fill-rule="evenodd" stroke="#000000" stroke-width="2" stroke-linecap="round" stroke-linejoin="round"/><path d="M302.18616,150.66857c0,-2.25387 1.82712,-4.08101 4.08101,-4.08101c2.25387,0 4.08101,1.82712 4.08101,4.08101c0,2.25387 -1.82713,4.08101 -4.08101,4.08101c-2.25387,0 -4.08101,-1.82713 -4.08101,-4.08101z" fill="#ff0000" fill-rule="nonzero" stroke="none" stroke-width="0" stroke-linecap="butt" stroke-linejoin="miter"/><path d="M329.65194,150.66857c0,-2.25387 1.82713,-4.08101 4.08101,-4.08101c2.25387,0 4.081,1.82712 4.081,4.08101c0,2.25387 -1.82712,4.08101 -4.081,4.08101c-2.25387,0 -4.08101,-1.82713 -4.08101,-4.08101z" fill="#ff0000" fill-rule="nonzero" stroke="none" stroke-width="0" stroke-linecap="butt" stroke-linejoin="miter"/><path d="M296.6,156.80001c0,-12.92346 10.47654,-23.4 23.4,-23.4c12.92346,0 23.4,10.47654 23.4,23.4c0,12.92346 -10.47654,23.4 -23.4,23.4c-12.92346,0 -23.4,-10.47654 -23.4,-23.4z" fill="none" fill-rule="nonzero" stroke="#ff0000" stroke-width="2" stroke-linecap="butt" stroke-linejoin="miter"/><path d="M308.93958,170.92916c0,0 1.74894,-13.68814 11.2,-13.8c8.87266,-0.10501 10.8,13.8 10.8,13.8" fill="none" fill-rule="nonzero" stroke="#ff0000" stroke-width="2" stroke-linecap="round" stroke-linejoin="miter"/><path d="M300.32947,126.68836h39.34136c6.57507,0 11.86834,5.70431 11.86834,12.78993v36.2437c0,7.08561 -5.29327,12.78993 -11.86834,12.78993h-39.34136c-6.57506,0 -11.86834,-5.70431 -11.86834,-12.78993v-36.2437c0,-7.08561 5.29328,-12.78993 11.86834,-12.78993z" fill-opacity="0.49994" fill="#000000" fill-rule="evenodd" stroke="#000000" stroke-width="2" stroke-linecap="round" stroke-linejoin="round"/></g></g></svg>