<svg version="1.1" xmlns="http://www.w3.org/2000/svg" xmlns:xlink="http://www.w3.org/1999/xlink" width="35.0299" height="35.03088" viewBox="0,0,35.0299,35.03088"><g transform="translate(-222.41346,-162.41346)"><g data-paper-data="{&quot;isPaintingLayer&quot;:true}" stroke-linecap="round" stroke-miterlimit="10" stroke-dasharray="" stroke-dashoffset="0" style="mix-blend-mode: normal"><path d="M229.48313,162.41347h20.03379c3.9166,0 7.06966,3.15307 7.06966,7.06966v20.03379c0,3.91659 -3.15306,7.06966 -7.06966,7.06966h-20.03379c-3.91659,0 -7.06966,-3.15307 -7.06966,-7.06966v-20.03379c0,-3.91659 3.15307,-7.06966 7.06966,-7.06966z" fill="#345756" fill-rule="evenodd" stroke="none" stroke-width="4.43922" stroke-linejoin="round"/><g fill-rule="nonzero" stroke="#000000" stroke-width="1" stroke-linejoin="miter"><path d="M239.09765,168.34119l5.22682,4.48013l1.65931,1.9082l0.33186,6.72019l-2.07413,5.72461l-5.47571,3.48455l-5.89054,-3.48455l-2.48896,-6.4713l0.99559,-5.9735l2.32303,-3.65048z" fill="#345756"/><path d="M243.66075,185.92984l-12.52777,-10.12177l9.29212,-5.80757" fill="none"/><path d="M234.11974,170.99608l12.02997,10.20474l-9.45805,7.54985" fill="none"/><path d="M240.674,188.66769l-9.87288,-7.88171l11.11735,-9.54101" fill="none"/><path d="M236.6087,169.66863l9.20915,6.05647l-12.85962,10.70253" fill="none"/></g><path d="M257.44336,169.71388v20.49804c0,4.00745 -3.22497,7.23243 -7.23242,7.23243h-20.5c-3.66107,0 -6.66147,-2.69385 -7.1543,-6.21484c0.7952,3.03475 3.54108,5.26367 6.83204,5.26367h20.0332c3.9166,0 7.07032,-3.15372 7.07032,-7.07031v-20.03321c0,-3.2976 -2.23906,-6.0451 -5.28321,-6.83398c3.52994,0.48496 6.23438,3.49081 6.23438,7.15821z" fill-opacity="0.29839" fill="#000000" fill-rule="evenodd" stroke="none" stroke-width="4.54219" stroke-linejoin="round"/></g></g></svg>