<svg version="1.1" xmlns="http://www.w3.org/2000/svg" xmlns:xlink="http://www.w3.org/1999/xlink" width="35.125" height="35.12434" viewBox="0,0,35.125,35.12434"><g transform="translate(-222.4375,-162.43783)"><g data-paper-data="{&quot;isPaintingLayer&quot;:true}" stroke-miterlimit="10" stroke-dasharray="" stroke-dashoffset="0" style="mix-blend-mode: normal"><path d="M229.50717,162.43783h20.03378c3.9166,0 7.06966,3.15307 7.06966,7.06966v20.03379c0,3.91659 -3.15307,7.06966 -7.06966,7.06966h-20.03378c-3.91659,0 -7.06967,-3.15307 -7.06967,-7.06966v-20.03379c0,-3.91659 3.15308,-7.06966 7.06967,-7.06966z" fill="#e0ffda" fill-rule="evenodd" stroke="none" stroke-width="4.43922" stroke-linecap="round" stroke-linejoin="round"/><g fill-rule="nonzero" stroke="#000000" stroke-width="0.5" stroke-linecap="butt" stroke-linejoin="miter"><path d="M234.88139,171.68922c0,-3.25404 2.10441,-4.12989 4.70034,-4.12989c2.59593,0 4.70034,0.87584 4.70034,4.12989c0,3.25404 -2.10441,7.65406 -4.70034,7.65406c-2.59593,0 -4.70034,-4.40001 -4.70034,-7.65406z" fill="#ff3838"/><path d="M228.41897,187.55232c-3.25405,0 -4.12989,-2.10441 -4.12989,-4.70034c0,-2.59593 0.87583,-4.70034 4.12989,-4.70034c3.25405,0 7.65406,2.10441 7.65406,4.70034c0,2.59593 -4.40001,4.70034 -7.65406,4.70034z" fill="#7400ff"/><path d="M250.7445,178.15164c3.25405,0 4.12989,2.10441 4.12989,4.70034c0,2.59593 -0.87583,4.70034 -4.12989,4.70034c-3.25405,0 -7.65406,-2.10441 -7.65406,-4.70034c0,-2.59593 4.40001,-4.70034 7.65406,-4.70034z" fill="#fbff23"/><path d="M228.36483,178.28236c-2.30096,-2.30096 -1.43222,-4.40831 0.40338,-6.24391c1.8356,-1.8356 3.94295,-2.70433 6.24391,-0.40338c2.30096,2.30096 3.92419,6.90028 2.0886,8.73588c-1.8356,1.8356 -6.43492,0.21236 -8.73588,-2.0886z" fill="#ff00dd"/><path d="M244.15136,171.63508c2.30096,-2.30096 4.40832,-1.43223 6.24391,0.40338c1.8356,1.8356 2.70433,3.94295 0.40338,6.24391c-2.30096,2.30096 -6.90028,3.92419 -8.73588,2.0886c-1.8356,-1.8356 -0.21236,-6.43492 2.0886,-8.73588z" fill="#ff8715"/></g><path d="M257.56249,169.8317v20.49804c0,4.00745 -3.22497,7.23243 -7.23242,7.23243h-20.5c-3.66107,0 -6.66147,-2.69385 -7.1543,-6.21484c0.7952,3.03475 3.54108,5.26367 6.83204,5.26367h20.0332c3.9166,0 7.07032,-3.15372 7.07032,-7.07031v-20.03321c0,-3.2976 -2.23906,-6.0451 -5.28321,-6.83398c3.52994,0.48496 6.23438,3.49081 6.23438,7.15821z" fill-opacity="0.29839" fill="#000000" fill-rule="evenodd" stroke="none" stroke-width="4.54219" stroke-linecap="round" stroke-linejoin="round"/><path d="M228.85846,187.84031c0,-5.6464 4.8763,-10.5314 10.89152,-10.5314c6.01522,0 10.89153,4.88501 10.89153,10.5314" fill="#ffffff" fill-rule="nonzero" stroke="#000000" stroke-width="0.5" stroke-linecap="butt" stroke-linejoin="miter"/></g></g></svg>