<svg version="1.1" xmlns="http://www.w3.org/2000/svg" xmlns:xlink="http://www.w3.org/1999/xlink" width="132.7448" height="255.99554" viewBox="0,0,132.7448,255.99554"><defs><linearGradient x1="319.92305" y1="175.4592" x2="319.92305" y2="307.45914" gradientUnits="userSpaceOnUse" id="color-1"><stop offset="0" stop-color="#4c7b64"/><stop offset="1" stop-color="#2b2b2b"/></linearGradient><linearGradient x1="320.08155" y1="221.49565" x2="320.08155" y2="308.14565" gradientUnits="userSpaceOnUse" id="color-2"><stop offset="0" stop-color="#6b6dd3"/><stop offset="1" stop-color="#000000"/></linearGradient><linearGradient x1="355.96016" y1="194.5574" x2="355.96016" y2="302.11987" gradientUnits="userSpaceOnUse" id="color-3"><stop offset="0" stop-color="#4b7b64"/><stop offset="1" stop-color="#000000"/></linearGradient><linearGradient x1="284.13221" y1="194.46852" x2="284.13221" y2="302.02621" gradientUnits="userSpaceOnUse" id="color-4"><stop offset="0" stop-color="#4b7b64"/><stop offset="1" stop-color="#000000"/></linearGradient><linearGradient x1="320.00014" y1="79.15671" x2="320.00014" y2="199.27034" gradientUnits="userSpaceOnUse" id="color-5"><stop offset="0" stop-color="#000000"/><stop offset="1" stop-color="#ffdac9"/></linearGradient><linearGradient x1="319.92305" y1="139.01276" x2="319.92305" y2="198.42422" gradientUnits="userSpaceOnUse" id="color-6"><stop offset="0" stop-color="#000000"/><stop offset="1" stop-color="#7e647b"/></linearGradient><linearGradient x1="302.99388" y1="115.92084" x2="302.99388" y2="162.88212" gradientUnits="userSpaceOnUse" id="color-7"><stop offset="0" stop-color="#1a1a1a"/><stop offset="1" stop-color="#ffffff"/></linearGradient><linearGradient x1="336.75251" y1="115.9208" x2="336.75251" y2="162.88203" gradientUnits="userSpaceOnUse" id="color-8"><stop offset="0" stop-color="#1a1a1a"/><stop offset="1" stop-color="#ffffff"/></linearGradient><linearGradient x1="319.46461" y1="53.1563" x2="319.46461" y2="112.50581" gradientUnits="userSpaceOnUse" id="color-9"><stop offset="0" stop-color="#4c7b64"/><stop offset="1" stop-color="#000000"/></linearGradient><linearGradient x1="319.45894" y1="57.48297" x2="319.45894" y2="90.58204" gradientUnits="userSpaceOnUse" id="color-10"><stop offset="0" stop-color="#daffed"/><stop offset="1" stop-color="#161a18"/></linearGradient><linearGradient x1="320.08101" y1="62.49123" x2="320.08101" y2="83.12734" gradientUnits="userSpaceOnUse" id="color-11"><stop offset="0" stop-color="#49705e"/><stop offset="1" stop-color="#13160e"/></linearGradient><linearGradient x1="319.47362" y1="148.23249" x2="319.47362" y2="183.94163" gradientUnits="userSpaceOnUse" id="color-12"><stop offset="0" stop-color="#000000"/><stop offset="1" stop-color="#ffdac9"/></linearGradient><linearGradient x1="302.25347" y1="137.45811" x2="302.25347" y2="112.4225" gradientUnits="userSpaceOnUse" id="color-13"><stop offset="0" stop-color="#edcbbb"/><stop offset="1" stop-color="#453a36"/></linearGradient><linearGradient x1="337.35414" y1="138.36894" x2="337.35414" y2="113.33334" gradientUnits="userSpaceOnUse" id="color-14"><stop offset="0" stop-color="#edcbbb"/><stop offset="1" stop-color="#453a36"/></linearGradient></defs><g transform="translate(-254.76321,-52.65629)"><g data-paper-data="{&quot;isPaintingLayer&quot;:true}" stroke-linecap="butt" stroke-linejoin="miter" stroke-miterlimit="10" stroke-dasharray="" stroke-dashoffset="0" style="mix-blend-mode: normal"><path d="M286.67305,307.45914l15.14285,-131.8421l37.78325,-0.15789l13.57389,132z" fill="url(#color-1)" fill-rule="nonzero" stroke="#000000" stroke-width="2"/><path d="M299.53999,204.07184l3.12142,-26.32765l35.83075,-0.14203l2.76735,26.1059c0,0 -7.51543,4.19603 -21.55904,4.50964c-12.48458,0.27879 -20.16049,-4.14586 -20.16049,-4.14586z" fill="#2f4b3d" fill-rule="nonzero" stroke="#000000" stroke-width="0"/><path d="M286.20349,307.39565l9.625,-85.15c0,0 16.14032,5.36651 24.41538,5.23987c8.05433,-0.12327 24.59071,-5.98987 24.59071,-5.98987l9.125,86.65z" fill="url(#color-2)" fill-rule="nonzero" stroke="#000000" stroke-width="1"/><path d="M330.77702,225.84334l-2.72223,-31.57302l7.33053,-1.11111l3.5,30.46191c0,0 1.97994,9.94622 -2.77415,10.47275c-4.71963,0.52271 -5.33415,-8.25053 -5.33415,-8.25053z" data-paper-data="{&quot;index&quot;:null}" fill="#6b6dd3" fill-rule="nonzero" stroke="#000000" stroke-width="1"/><path d="M301.66589,224.12113l3.5,-30.4619l8.21942,0.55556l-2.61111,32.12857c0,0 -1.38805,9.70344 -6.18894,8.77837c-5.22617,-1.00701 -2.91937,-11.0006 -2.91937,-11.0006z" fill="#6b6dd3" fill-rule="nonzero" stroke="#000000" stroke-width="1"/><path d="M338.78529,228.05328c0,1.99603 -1.54283,3.61412 -3.44602,3.61412c-1.90319,0 -3.44603,-1.6181 -3.44603,-3.61412c0,-1.99603 1.54284,-3.61412 3.44603,-3.61412c1.90319,0 3.44602,1.61809 3.44602,3.61412z" fill="#c6a438" fill-rule="nonzero" stroke="none" stroke-width="0"/><path d="M309.37397,228.76996c0,1.99603 -1.54283,3.61412 -3.44602,3.61412c-1.90319,0 -3.44603,-1.6181 -3.44603,-3.61412c0,-1.99603 1.54284,-3.61412 3.44603,-3.61412c1.90319,0 3.44602,1.61809 3.44602,3.61412z" fill="#c6a438" fill-rule="nonzero" stroke="none" stroke-width="0"/><path d="M308.84905,229.41995c0,1.99602 -1.54284,3.61412 -3.44602,3.61412c-1.90319,0 -3.44602,-1.6181 -3.44602,-3.61412c0,-1.99602 1.54284,-3.61412 3.44602,-3.61412c1.90319,0 3.44602,1.6181 3.44602,3.61412z" fill="#edd459" fill-rule="nonzero" stroke="none" stroke-width="0"/><path d="M338.53673,228.7012c0,1.87521 -1.44945,3.39537 -3.23744,3.39537c-1.78799,0 -3.23745,-1.52016 -3.23745,-3.39537c0,-1.87521 1.44946,-3.39537 3.23745,-3.39537c1.78799,0 3.23744,1.52016 3.23744,3.39537z" fill="#edd459" fill-rule="nonzero" stroke="none" stroke-width="0"/><path d="M341.61108,194.5574c0.90641,1.442 13.27591,-0.94411 14.53458,0.88889c0.31862,-0.594 9.30076,33.378 9.72787,35c-0.5926,-0.963 5.60783,49.33333 5.60783,49.33333c0,0 0.50768,22.79733 0.91556,22.33333c-0.88787,-0.49 -11.18842,-0.32367 -12.13122,-0.16667c0.5308,-15.625 -11.71487,-68.29133 -19.1124,-79.33333c2.25366,-15.345 -5.00951,-26.28055 0.45778,-28.05555z" fill="url(#color-3)" fill-rule="evenodd" stroke="none" stroke-width="1"/><path d="M341.52142,194.5951c0.91572,1.34757 13.41232,-0.88229 14.68393,0.83068c0.10385,-0.17908 1.11865,3.00386 2.46032,7.4491c-6.17155,-0.51975 -13.01437,-2.82677 -18.35267,1.21834c-0.00693,0.00525 -0.01384,0.01053 -0.02073,0.01584c-0.98219,-5.21007 -1.76061,-8.6161 1.22914,-9.51396z" fill="#2f4b3d" fill-rule="nonzero" stroke="none" stroke-width="1"/><path d="M387.45595,301.10947c0.01927,0.00566 0.03664,0.01141 0.05206,0.01725c-0.01724,0.01347 -0.0346,0.00734 -0.05206,-0.01725z" fill="#2f4b3d" fill-rule="nonzero" stroke="none" stroke-width="1"/><path d="M298.93917,222.52408c-7.39753,11.042 -19.6432,63.70833 -19.1124,79.33333c-0.9428,-0.157 -11.24335,-0.32333 -12.13122,0.16667c0.40788,0.464 7.11599,-72.62966 6.52339,-71.66666c0.42711,-1.622 9.40925,-35.594 9.72787,-35c1.25867,-1.833 13.62817,0.55311 14.53458,-0.88889c5.46729,1.775 -1.79588,12.71055 0.45778,28.05555z" data-paper-data="{&quot;index&quot;:null}" fill="url(#color-4)" fill-rule="evenodd" stroke="none" stroke-width="1"/><path d="M298.57106,194.50621c2.98975,0.89786 2.21133,4.30389 1.22914,9.51396c-0.00689,-0.00531 -0.0138,-0.01059 -0.02073,-0.01584c-5.3383,-4.04511 -12.18112,-1.73809 -18.35267,-1.21834c1.34167,-4.44524 2.35647,-7.62818 2.46032,-7.4491c1.27161,-1.71297 13.76821,0.51689 14.68393,-0.83068z" data-paper-data="{&quot;index&quot;:null}" fill="#2f4b3d" fill-rule="nonzero" stroke="none" stroke-width="1"/><g><path d="M261.69795,107.00721c0.37225,-1.95627 0.79829,-15.31507 14.96087,-28.03661c7.64679,-6.86874 16.3225,-16.66898 37.90299,-17.32053c32.05868,-0.51111 43.95019,11.08935 52.16133,19.80672c11.26206,11.95638 11.89977,22.71882 14.37822,27.96833c0.25164,0.53297 -119.41455,-2.35933 -119.40341,-2.4179z" fill="#a8530c" fill-rule="nonzero" stroke="none" stroke-width="1.5"/><path d="M255.76321,138.97193c0,-21.15086 11.60129,-39.75822 29.15655,-50.52104c1.08536,-1.75458 19.78544,-9.18722 33.30904,-9.29157c13.5236,-0.10435 26.06266,2.90177 35.96422,8.75705c18.0508,10.67434 30.04423,29.55022 30.04423,51.05556c0,33.30185 -28.7599,60.29833 -64.23702,60.29833c-35.47712,0 -64.23702,-26.99649 -64.23702,-60.29833z" fill="url(#color-5)" fill-rule="nonzero" stroke="#000000" stroke-width="2"/><path d="M256.486,139.02583c0,-0.72799 5.20666,55.91939 63.36046,56.93429c55.56352,0.9697 63.51358,-57.95314 63.51358,-56.93429c0,32.80479 -28.40173,59.39833 -63.43702,59.39833c-35.03529,0 -63.43702,-26.59354 -63.43702,-59.39833z" fill="url(#color-6)" fill-rule="nonzero" stroke="#000000" stroke-width="0"/><path d="M259.42026,150.68038c0,0 -3.17497,-7.83911 -3.17497,-11.77764c0,-6.02949 9.41909,-42.46903 9.41909,-42.46903h9.52492c0,0 -3.70913,8.16542 -4.33994,12.81431c-0.56023,4.12878 0.74163,13.70427 0.74163,13.70427l-2.07085,2.75646l-3.0049,-1.80454z" fill="#3a2f2b" fill-rule="nonzero" stroke="#000000" stroke-width="0"/><path d="M289.71317,139.40146c0,-12.968 5.94595,-23.48065 13.28065,-23.48065c7.3347,0 13.28065,10.51265 13.28065,23.48065c0,12.968 -5.94595,23.48065 -13.28065,23.48065c-7.3347,0 -13.28065,-10.51265 -13.28065,-23.48065z" fill="url(#color-7)" fill-rule="nonzero" stroke="#000000" stroke-width="2"/><path d="M258.52306,146.16865c0,0 -3,-7.4071 -3,-11.12857c0,-5.6972 8.9,-40.12857 8.9,-40.12857h9c0,0 -3.50472,7.71542 -4.10076,12.10811c-0.52936,3.90124 0.70076,12.94903 0.70076,12.94903l-1.95673,2.60455l-2.8393,-1.70509z" fill="#766058" fill-rule="nonzero" stroke="#000000" stroke-width="1.5"/><path d="M336.75251,162.88203c-7.27947,0 -13.18065,-10.51265 -13.18065,-23.48065c0,-12.968 5.90118,-23.48065 13.18065,-23.48065c7.27947,0 13.18065,10.51265 13.18065,23.48065c0,12.968 -5.90118,23.48065 -13.18065,23.48065z" data-paper-data="{&quot;index&quot;:null}" fill="url(#color-8)" fill-rule="nonzero" stroke="#000000" stroke-width="2"/><path d="M279.95187,108.9801c0,0 11.49953,-4.26418 16.5281,-2.83931c5.02858,1.42488 11.69518,5.97183 11.69518,5.97183c0,0 -8.24902,-3.32832 -12.13243,-4.4287c-4.05831,-1.14994 -16.09085,1.29618 -16.09085,1.29618z" fill="#000000" fill-rule="nonzero" stroke="none" stroke-width="0"/><path d="M343.17764,106.78721c-3.85442,1.19798 -10.7515,5.32659 -10.7515,5.32659c0,0 5.28441,-5.30693 10.27546,-6.85819c4.99104,-1.55125 13.39479,-0.49871 13.39479,-0.49871c0,0 -8.89074,0.77838 -12.91875,2.03032z" data-paper-data="{&quot;index&quot;:null}" fill="#000000" fill-rule="nonzero" stroke="none" stroke-width="0"/><path d="M372.11954,124.90431l-3.0049,1.80454l-2.07085,-2.75646c0,0 1.30186,-9.57549 0.74163,-13.70427c-0.63081,-4.64889 -4.33994,-12.81431 -4.33994,-12.81431h9.52492c0,0 9.41909,36.43954 9.41909,42.46903c0,3.93853 -3.17497,11.77764 -3.17497,11.77764z" data-paper-data="{&quot;index&quot;:null}" fill="#3a2f2b" fill-rule="nonzero" stroke="#000000" stroke-width="0"/><path d="M373.71928,123.20154l-2.8393,1.70509l-1.95673,-2.60455c0,0 1.23012,-9.04779 0.70076,-12.94903c-0.59604,-4.39269 -4.10076,-12.10811 -4.10076,-12.10811h9c0,0 8.9,34.43137 8.9,40.12857c0,3.72147 -3,11.12857 -3,11.12857z" data-paper-data="{&quot;index&quot;:null}" fill="#766058" fill-rule="nonzero" stroke="#000000" stroke-width="1.5"/><path d="M258.29805,94.40629c16.52144,-23.64275 37.27087,-41.25 60.25,-41.25c22.93746,0 43.93743,11.90491 59.75,35.25c2.19899,3.24651 5.88227,22.83784 3.89123,23.94724c-2.97694,1.65874 -55.28548,-10.78057 -63.39123,-10.78057c-8.43856,0 -57.31213,11.19019 -60.9229,10.52524c-2.6,-0.4788 -2.04397,-14.16171 0.42291,-17.69191z" fill="url(#color-9)" fill-rule="nonzero" stroke="#000000" stroke-width="1"/><path d="M337.87568,74.03247c0,9.14006 -8.24543,16.54954 -18.41667,16.54954c-10.17124,0 -18.41667,-7.40948 -18.41667,-16.54954c0,-9.14006 8.24543,-16.54954 18.41667,-16.54954c10.17124,0 18.41667,7.40948 18.41667,16.54954z" fill="url(#color-10)" fill-rule="nonzero" stroke="none" stroke-width="0"/><path d="M270.57187,109.40562l2.83334,-8.78572c0,0 8.38245,-3.22377 9.03638,-3.40847c4.87995,-1.37836 25.70344,-8.21057 37.13028,-8.21057c11.03631,0 32.30917,6.51103 38.01657,8.0849c0.95074,0.26217 7.62628,4.74844 7.62628,4.74844l1.82143,8.83333c0,0 -8.71824,-2.99878 -9.5178,-2.99654c-1.88852,0.0053 -5.82465,-0.9574 -10.94539,-2.09485c-7.41256,-1.64651 -17.47406,3.50751 -27.23352,3.53491c-9.94581,0.02792 -19.58437,-5.30103 -26.47853,-3.80424c-4.75314,1.03195 -8.12256,1.90186 -9.20032,1.90488c-0.72784,0.00204 -13.08872,2.19393 -13.08872,2.19393z" fill="#141d18" fill-rule="nonzero" stroke="#000000" stroke-width="0"/><path d="M329.40612,83.12734l-18.24951,-0.72108l-0.40074,-19.91504l5.4799,0.05106l-0.23111,13.48928l13.12073,0.23107z" data-paper-data="{&quot;index&quot;:null}" fill="url(#color-11)" fill-rule="evenodd" stroke="none" stroke-width="1"/><path d="M321.58808,170.7874c0,0 -25.15395,22.08602 -40.05509,15.24439c-14.90114,-6.84162 -14.22695,-40.16713 -14.22695,-40.16713c0,0 14.33284,15.22937 23.38537,19.38569c9.04147,4.15125 30.89668,5.53705 30.89668,5.53705z" fill="#000000" fill-rule="nonzero" stroke="none" stroke-width="0"/><path d="M350.09965,165.16327c8.93403,-4.10191 23.07925,-19.13193 23.07925,-19.13193c0,0 0.66537,32.88928 -14.04072,39.64135c-14.70608,6.75207 -39.53078,-15.04484 -39.53078,-15.04484c0,0 21.56913,-1.36767 30.49224,-5.46458z" data-paper-data="{&quot;index&quot;:null}" fill="#000000" fill-rule="nonzero" stroke="none" stroke-width="0"/><path d="M306.08961,174.63253c-3.03893,-9.31228 9.44444,-26.4 9.44444,-26.4c0,0 2.91771,0.38215 4.39081,0.43071c1.55573,0.05129 4.48697,-0.35293 4.48697,-0.35293c0,0 10.6936,19.54451 8.66667,26.1c-4.78824,15.48611 -23.94996,9.5345 -26.98889,0.22222z" fill="url(#color-12)" fill-rule="nonzero" stroke="#000000" stroke-width="2"/><g fill="#000000" fill-rule="nonzero" stroke="none" stroke-width="1" font-family="Inter, -apple-system, BlinkMacSystemFont, &quot;Segoe UI&quot;, Roboto, Oxygen, Ubuntu, Cantarell, &quot;Fira Sans&quot;, &quot;Droid Sans&quot;, &quot;Helvetica Neue&quot;, sans-serif, emoji" font-weight="400" font-size="16" text-anchor="start"/><g data-paper-data="{&quot;index&quot;:null}" fill="#000000" fill-rule="nonzero" stroke="none" stroke-width="1" font-family="Inter, -apple-system, BlinkMacSystemFont, &quot;Segoe UI&quot;, Roboto, Oxygen, Ubuntu, Cantarell, &quot;Fira Sans&quot;, &quot;Droid Sans&quot;, &quot;Helvetica Neue&quot;, sans-serif, emoji" font-weight="400" font-size="16" text-anchor="start"/><path d="M315.96137,149.34737l1.26667,-4.92821l5.46667,0.2l1.12308,4.84103c0,0 -2.83871,0.7961 -4.25828,0.75031c-1.33016,-0.04291 -3.59813,-0.86313 -3.59813,-0.86313z" fill="#907b72" fill-rule="nonzero" stroke="#000000" stroke-width="0"/></g><path d="M303.76543,114.97375c15.69018,-3.40079 12.62874,25.25955 12.62874,25.25955c-0.04038,0.61529 2.15668,-19.08661 -12.57566,-19.51608c-14.11754,-0.41156 -14.39595,21.07973 -14.39595,21.07973c0.8492,-12.94018 1.66914,-24.0762 14.34287,-26.82319z" data-paper-data="{&quot;index&quot;:null}" fill="url(#color-13)" fill-rule="nonzero" stroke="#000000" stroke-width="1.5"/><path d="M323.32444,140.69969c0,0 -3.17255,-28.21589 12.51763,-24.8151c12.67372,2.74699 13.71589,12.99412 14.56509,25.9343c0,0 -0.73873,-21.88017 -14.85627,-21.46862c-14.73234,0.42948 -12.18607,20.96471 -12.22645,20.34943z" data-paper-data="{&quot;index&quot;:null}" fill="url(#color-14)" fill-rule="nonzero" stroke="#000000" stroke-width="1.5"/><g fill="#fff700" fill-rule="nonzero" stroke="#000000" stroke-width="0"><path d="M292.24352,139.77823c0,0 5.00938,-3.03415 6.941,-4.84734c1.75824,-1.65043 4.17756,-5.58948 4.17756,-5.58948c0,0 2.22171,4.5528 4.04448,6.2638c1.88155,1.76618 7.07408,4.17301 7.07408,4.17301c0,0 -4.5339,2.27893 -6.34666,3.98054c-1.89018,1.77429 -4.77189,6.45628 -4.77189,6.45628c0,0 -2.34634,-4.61192 -4.17532,-6.32875c-1.87601,-1.76099 -6.94324,-4.10807 -6.94324,-4.10807z"/><path d="M295.50007,147.64023c0,0 1.3967,-5.68764 1.48044,-8.33561c0.07623,-2.41029 -0.99838,-6.90634 -0.99838,-6.90634c0,0 4.7903,1.64833 7.28905,1.5693c2.57933,-0.08158 7.95289,-2.05136 7.95289,-2.05136c0,0 -1.59451,4.8174 -1.6731,7.30244c-0.08195,2.59117 1.19104,7.93951 1.19104,7.93951c0,0 -4.92023,-1.602 -7.4275,-1.52271c-2.57175,0.08134 -7.81445,2.00477 -7.81445,2.00477z"/><path d="M295.87555,139.77823c0,-3.85121 3.32595,-6.97323 7.42872,-6.97323c4.10277,0 7.42872,3.12202 7.42872,6.97323c0,3.85121 -3.32595,6.97323 -7.42872,6.97323c-4.10277,0 -7.42872,-3.12202 -7.42872,-6.97323z"/></g><g fill="#fff700" fill-rule="nonzero" stroke="#000000" stroke-width="0"><path d="M325.55857,139.93958c0,0 5.00937,-3.03415 6.94099,-4.84734c1.75824,-1.65043 4.17756,-5.58948 4.17756,-5.58948c0,0 2.2217,4.55279 4.04447,6.2638c1.88155,1.76618 7.07408,4.17301 7.07408,4.17301c0,0 -4.5339,2.27892 -6.34666,3.98054c-1.89018,1.77428 -4.77189,6.45628 -4.77189,6.45628c0,0 -2.34634,-4.61191 -4.17532,-6.32875c-1.87601,-1.76099 -6.94324,-4.10807 -6.94324,-4.10807z"/><path d="M328.8151,147.80158c0,0 1.39669,-5.68763 1.48044,-8.33561c0.07623,-2.41029 -0.99838,-6.90634 -0.99838,-6.90634c0,0 4.7903,1.64833 7.28906,1.5693c2.57934,-0.08157 7.9529,-2.05136 7.9529,-2.05136c0,0 -1.59451,4.8174 -1.6731,7.30244c-0.08195,2.59117 1.19104,7.93951 1.19104,7.93951c0,0 -4.92023,-1.602 -7.42749,-1.52271c-2.57175,0.08133 -7.81445,2.00476 -7.81445,2.00476z"/><path d="M329.19057,139.93958c0,-3.8512 3.32596,-6.97323 7.42872,-6.97323c4.10276,0 7.42871,3.12202 7.42871,6.97323c0,3.8512 -3.32595,6.97323 -7.42871,6.97323c-4.10276,0 -7.42872,-3.12203 -7.42872,-6.97323z"/></g></g></g></svg>