<svg version="1.1" xmlns="http://www.w3.org/2000/svg" xmlns:xlink="http://www.w3.org/1999/xlink" width="170.38381" height="267.22501" viewBox="0,0,170.38381,267.22501"><defs><linearGradient x1="243.74638" y1="106.77622" x2="239.61852" y2="186.52996" gradientUnits="userSpaceOnUse" id="color-1"><stop offset="0" stop-color="#ffffff" stop-opacity="0.06754"/><stop offset="1" stop-color="#666666" stop-opacity="0.33367"/></linearGradient></defs><g transform="translate(-172.5775,-46.38751)"><g data-paper-data="{&quot;isPaintingLayer&quot;:true}" fill-rule="nonzero" stroke-linejoin="miter" stroke-miterlimit="10" stroke-dasharray="" stroke-dashoffset="0" style="mix-blend-mode: normal"><path d="M179.28374,313.61252v-267.22501h123.18203v267.22501z" fill-opacity="0.01" fill="#000000" stroke="none" stroke-width="0" stroke-linecap="butt"/><path d="M178.05044,144.95522l140.07608,10.00417c0,0 -10.09411,42.39996 -11.87995,46.26928c-1.78584,3.86932 -10.62943,2.50104 -10.62943,2.50104c0,0 1.22278,10.99558 -0.62526,15.00625c-1.84804,4.01068 -5.17444,5.97702 -9.17043,6.25261c-3.996,0.27559 -8.96213,-5.00208 -8.96213,-5.00208l-8.75365,10.62943l-53.14714,0.62526l-10.00417,-10.62943l-3.1263,3.1263c0,0 -3.08747,4.306 -8.545,1.66748c-3.77966,-1.82733 -4.58548,-7.92008 -4.58548,-7.92008l-0.62526,-14.38099c0,0 -8.14888,-0.39257 -10.62943,-2.50104c-2.48055,-2.10847 -1.87578,-8.12839 -1.87578,-8.12839z" fill="#874e8b" stroke="#000000" stroke-width="2" stroke-linecap="round"/><path d="M206.75005,307.5l15.14285,-131.8421l37.78325,-0.15789l13.57389,132z" fill="#d477dc" stroke="#000000" stroke-width="2" stroke-linecap="butt"/><path d="M219.70028,204.11263l3.12142,-26.32765l35.83075,-0.14203l2.76735,26.1059c0,0 -7.51543,4.19603 -21.55904,4.50964c-12.48458,0.27879 -20.16049,-4.14586 -20.16049,-4.14586z" fill="#9c58a0" stroke="#000000" stroke-width="0" stroke-linecap="butt"/><path d="M177.65271,123.26423c2.7697,-11.51313 8.75312,-21.80262 16.98404,-30.05026c13.51757,-13.54504 29.63639,6.14026 50.99768,7.23365c22.34942,1.14397 45.19832,-15.69105 57.17348,0.31184c8.65924,11.5717 13.44229,25.81773 12.6658,40.98769c-1.28251,25.05615 -17.39532,46.05625 -39.98764,55.92882c-1.33902,-0.93319 -2.56452,-1.70809 -3.55431,-2.25783c-5.25743,-2.92004 -11.17157,-4.76903 -17.40784,-5.13474c-6.65662,-0.39036 -13.31633,-0.73124 -19.97801,-1.02259c-6.12741,-0.26799 -12.7309,1.16383 -18.83803,1.53955c-3.44833,0.21214 -6.90211,0.377 -10.34963,0.60891c-13.46674,-9.06664 -23.35358,-22.14953 -27.40739,-37.56109c-1.59017,-6.04542 3.90454,-11.46068 4.23863,-17.98758z" fill="#d477dc" stroke="#000000" stroke-width="2" stroke-linecap="butt"/><path d="M314.53735,141.39504c-1.27866,24.98093 -17.56006,45.86711 -40.29527,55.43758c-0.79461,-0.52292 -1.52799,-0.97373 -2.16902,-1.3354c34.75083,-13.71663 42.51002,-54.9956 42.46429,-54.10219z" fill="#9c58a0" stroke="#000000" stroke-width="0" stroke-linecap="butt"/><path d="M176.81603,134.34568c0.03231,-0.63127 1.63703,38.66754 34.4341,56.71161c-1.31543,0.07342 -2.63091,0.14713 -3.94581,0.22746c-19.38827,-12.31122 -31.68767,-33.5071 -30.48829,-56.93908z" fill="#9c58a0" stroke="#000000" stroke-width="0" stroke-linecap="butt"/><path d="M190.71897,135.46612c0.72053,-14.07672 12.71607,-24.90406 26.79279,-24.18354c14.07672,0.72052 24.90406,12.71607 24.18353,26.79279c-0.72053,14.07672 -12.71607,24.90406 -26.79279,24.18354c-14.07672,-0.72053 -24.90405,-12.71607 -24.18353,-26.79279z" fill="#ffffff" stroke="#000000" stroke-width="2" stroke-linecap="butt"/><path d="M273.79986,165.27362c-14.07672,-0.72053 -24.90406,-12.71607 -24.18354,-26.79279c0.72053,-14.07672 12.71607,-24.90406 26.79279,-24.18354c14.07672,0.72052 24.90406,12.71607 24.18354,26.79279c-0.72053,14.07672 -12.71607,24.90406 -26.79279,24.18353z" data-paper-data="{&quot;index&quot;:null}" fill="#ffffff" stroke="#000000" stroke-width="2" stroke-linecap="butt"/><path d="M205.72183,121.7346c0.35385,-6.91296 6.24475,-12.23016 13.1577,-11.87632c6.91296,0.35385 12.23017,6.24475 11.87632,13.1577c-0.35385,6.91296 -6.24475,12.23017 -13.1577,11.87632c-6.91296,-0.35385 -12.23016,-6.24475 -11.87632,-13.1577z" fill="#000000" stroke="none" stroke-width="0" stroke-linecap="butt"/><path d="M280.94398,165.3956c-6.91295,-0.35385 -12.23015,-6.24475 -11.87631,-13.1577c0.35384,-6.91296 6.24474,-12.23017 13.15769,-11.87633c6.91295,0.35385 12.23015,6.24476 11.87631,13.15771c-0.35384,6.91296 -6.24475,12.23017 -13.15769,11.87632z" data-paper-data="{&quot;index&quot;:null}" fill="#000000" stroke="none" stroke-width="0" stroke-linecap="butt"/><path d="M255.34433,169.26767c0.93481,3.57163 -1.51599,29.61749 -1.51599,29.61749c-7.48707,-0.5187 -14.99593,-0.73291 -22.49631,-1.04036c0,0 1.22501,-23.22162 3.03058,-28.32839c0.40788,-1.15363 10.56584,0.39239 10.56584,0.39239z" fill="#000000" stroke="none" stroke-width="0" stroke-linecap="butt"/><path d="M180.57048,99.31168l130.02424,4.18112c0,0 4.20142,14.48893 -2.21717,17.70112c-6.41859,3.21219 -12.24164,-7.5545 -17.51818,-7.82458c-5.27654,-0.27008 -1.65187,4.88954 -12.84318,3.30142c-11.19131,-1.58813 -14.48827,-8.36446 -25.3391,-8.71976c-10.85083,-0.35531 -7.27607,5.72962 -20.40504,5.88345c-7.46819,0.0875 -25.20635,-2.77475 -25.20635,-2.77475c0,0 -7.45137,5.88567 -22.09811,4.8071c-3.77211,-0.27778 -5.21195,-9.17409 -5.21195,-9.17409z" fill="#874d8a" stroke="#000000" stroke-width="2" stroke-linecap="round"/><g><path d="M173.62731,195.67222l5.61814,-109.7601l162.66605,8.32617l-5.61814,109.7601zM181.76709,183.3488l117.69417,5.23519l2.81945,-78.23231l-116.46928,-5.96421z" fill="#9d829c" stroke="#725771" stroke-width="2" stroke-linecap="butt"/><path d="M305.71986,125.60048c0.09719,-1.89875 0.39653,-7.74708 0.55843,-10.90995c0.06404,-1.25115 1.26962,-2.02255 2.51977,-1.95856c3.6184,0.18521 21.44412,1.09763 27.38702,1.40182c1.2139,0.06213 1.84978,1.70572 1.7825,3.02021c-0.09449,1.84593 -0.35605,6.95601 -0.51548,10.07072c-0.0763,1.49072 -1.16132,2.47153 -2.84371,2.38541c-6.66205,-0.341 -23.52067,-1.20392 -26.86537,-1.37512c-1.13007,-0.05784 -2.08293,-1.46649 -2.02315,-2.63453z" fill="#725771" stroke="#725771" stroke-width="0" stroke-linecap="butt"/><path d="M304.31079,191.96192c0.12966,-2.53306 0.32178,-6.28653 0.3922,-7.66241c0.0516,-1.00805 1.17363,-2.16532 2.30154,-2.10758c3.16008,0.16175 18.30257,0.93683 23.60816,1.2084c1.15293,0.05901 1.76115,1.66109 1.69973,2.86113c-0.07117,1.39041 -0.24388,4.76465 -0.36419,7.11509c-0.07301,1.42647 -0.99934,2.4312 -1.96808,2.38161c-2.76356,-0.14146 -16.29948,-0.8343 -22.5817,-1.15586c-1.96035,-0.10034 -3.16103,-1.20709 -3.08767,-2.64039z" fill="none" stroke="#725771" stroke-width="2" stroke-linecap="butt"/><path d="M305.20292,177.23983c0.39846,-7.7845 1.96001,-38.29224 2.21978,-43.36714c0.07153,-1.39753 1.25611,-2.54164 2.43938,-2.48108c3.14716,0.16109 17.59702,0.90072 23.35154,1.19527c1.47147,0.07532 2.31962,1.19137 2.25448,2.46406c-0.24496,4.78572 -1.76704,34.52206 -2.20664,43.11054c-0.07524,1.46981 -0.86509,2.28203 -1.72332,2.2381c-2.8449,-0.14562 -18.6735,-0.95581 -24.37797,-1.2478c-1.27956,-0.06549 -2.01623,-0.75935 -1.95724,-1.91192z" fill="#ffdeff" stroke="#725771" stroke-width="2" stroke-linecap="butt"/><path d="M331.32998,199.54571c0.0399,-0.77947 0.70413,-1.37902 1.48361,-1.33912c0.77947,0.0399 1.37902,0.70412 1.33912,1.4836c-0.0399,0.77947 -0.70412,1.37902 -1.4836,1.33912c-0.77947,-0.0399 -1.37903,-0.70412 -1.33913,-1.4836z" fill="#725771" stroke="none" stroke-width="0" stroke-linecap="butt"/><path d="M177.68458,190.65212c0.05441,-1.06292 0.96018,-1.88048 2.02309,-1.82607c1.06292,0.05441 1.88047,0.96018 1.82606,2.0231c-0.05441,1.06292 -0.96017,1.88047 -2.02309,1.82606c-1.06292,-0.05441 -1.88047,-0.96017 -1.82606,-2.02309z" fill="#725771" stroke="none" stroke-width="0" stroke-linecap="butt"/><path d="M181.03058,90.09725c0.03627,-0.70861 0.64012,-1.25365 1.34872,-1.21738c0.70861,0.03627 1.25365,0.64012 1.21738,1.34873c-0.03627,0.70861 -0.64013,1.25365 -1.34873,1.21738c-0.70861,-0.03627 -1.25365,-0.64012 -1.21738,-1.34872z" fill="#725771" stroke="none" stroke-width="0" stroke-linecap="butt"/><path d="M336.57234,97.20677c0.04836,-0.94486 0.85352,-1.67162 1.79839,-1.62325c0.94486,0.04837 1.67162,0.85353 1.62325,1.79839c-0.04836,0.94486 -0.85353,1.67163 -1.79839,1.62326c-0.94486,-0.04837 -1.67161,-0.85354 -1.62325,-1.7984z" fill="#725771" stroke="none" stroke-width="0" stroke-linecap="butt"/><path d="M321.24264,132.45409l-2.35112,45.93325" fill="none" stroke="#725771" stroke-width="2" stroke-linecap="round"/><path d="M332.59598,166.99651l-26.17425,-1.33975" fill="none" stroke="#725771" stroke-width="2" stroke-linecap="round"/><path d="M307.24314,154.63565l26.68747,1.36602" fill="none" stroke="#725771" stroke-width="2" stroke-linecap="round"/><path d="M334.25193,144.69768l-26.94408,-1.37915" fill="none" stroke="#725771" stroke-width="2" stroke-linecap="round"/></g><g stroke-linecap="butt"><path d="M180.0914,183.5167l4.12786,-79.75374l119.05417,6.02651l-4.12786,79.75374z" fill="url(#color-1)" stroke="#725771" stroke-width="2"/><path d="M202.29767,183.40129l-15.97236,-78.63975l15.79874,0.79973l15.97236,78.63976z" fill-opacity="0.11593" fill="#ffffff" stroke="none" stroke-width="0"/><path d="M232.92774,184.95179l-15.97236,-78.63976l15.79874,0.79973l15.97243,78.63976z" fill-opacity="0.11593" fill="#ffffff" stroke="none" stroke-width="0"/></g></g></g></svg>