<svg version="1.1" xmlns="http://www.w3.org/2000/svg" xmlns:xlink="http://www.w3.org/1999/xlink" width="172.56315" height="267.22501" viewBox="0,0,172.56315,267.22501"><defs><linearGradient x1="204.81694" y1="110.8878" x2="210.54693" y2="190.52661" gradientUnits="userSpaceOnUse" id="color-1"><stop offset="0" stop-color="#ffffff" stop-opacity="0.06754"/><stop offset="1" stop-color="#666666" stop-opacity="0.33367"/></linearGradient></defs><g transform="translate(-154.47802,-46.3875)"><g data-paper-data="{&quot;isPaintingLayer&quot;:true}" fill-rule="nonzero" stroke-linejoin="miter" stroke-miterlimit="10" stroke-dasharray="" stroke-dashoffset="0" style="mix-blend-mode: normal"><g><path d="M179.14715,313.61251v-267.22501h123.18203v267.22501z" fill-opacity="0.01" fill="#000000" stroke="none" stroke-width="0" stroke-linecap="butt"/><path d="M160.92315,141.641l157.06677,13.31838c0,0 -10.09411,42.39996 -11.87995,46.26928c-1.78584,3.86932 -10.62943,2.50104 -10.62943,2.50104c0,0 1.22278,10.99558 -0.62526,15.00625c-1.84804,4.01068 -5.17444,5.97702 -9.17043,6.25261c-3.996,0.27559 -8.96213,-5.00208 -8.96213,-5.00208l-8.75365,10.62943l-53.14714,0.62526l-10.00417,-10.62943l-3.1263,3.1263c0,0 -3.08747,4.306 -8.545,1.66748c-3.77966,-1.82733 -4.58548,-7.92008 -4.58548,-7.92008l-0.62526,-14.38099c0,0 -8.14888,-0.39257 -10.62943,-2.50104c-2.48055,-2.10847 -9.60894,-7.02365 -9.60894,-7.02365z" fill="#874e8b" stroke="#000000" stroke-width="2" stroke-linecap="round"/><path d="M206.75006,307.50001l15.14285,-131.8421l37.78325,-0.15789l13.57389,132z" fill="#d477dc" stroke="#000000" stroke-width="2" stroke-linecap="butt"/><path d="M219.70029,204.11264l3.12142,-26.32765l35.83075,-0.14203l2.76735,26.1059c0,0 -7.51543,4.19603 -21.55904,4.50964c-12.48458,0.27879 -20.16049,-4.14586 -20.16049,-4.14586z" fill="#9c58a0" stroke="#000000" stroke-width="0" stroke-linecap="butt"/></g><path d="M158.57808,134.16348c1.32733,-11.76697 5.99488,-22.71635 13.14476,-31.91694c11.7422,-15.11005 30.16768,2.435 51.50057,0.88321c22.3197,-1.62358 42.91577,-21.15029 56.77472,-6.748c10.02142,10.4143 16.5264,23.96098 17.62844,39.11076c1.82021,25.02283 -11.57714,47.85129 -32.778,60.43713c-1.44397,-0.76077 -2.75575,-1.37847 -3.80583,-1.80183c-5.57766,-2.24873 -11.67482,-3.35355 -17.90852,-2.94665c-6.6539,0.43432 -13.30475,0.91811 -19.95145,1.4513c-6.11363,0.49042 -12.48987,2.72642 -18.50392,3.85313c-3.39578,0.63618 -6.80279,1.22611 -10.19533,1.88181c-14.48294,-7.33497 -25.9091,-19.09739 -31.8343,-33.89068c-2.32425,-5.8029 2.45998,-11.855 1.98584,-18.37322z" fill="#d477dc" stroke="#000000" stroke-width="2" stroke-linecap="butt"/><path d="M296.6539,135.25869c1.81474,24.94771 -11.76396,47.68393 -33.14391,59.98762c-0.85308,-0.42083 -1.63649,-0.77766 -2.31728,-1.05745c32.79189,-17.90135 35.39628,-59.82241 35.4612,-58.93018z" fill="#9c58a0" stroke="#000000" stroke-width="0" stroke-linecap="butt"/><path d="M159.11568,145.26348c-0.04586,-0.63043 6.3976,38.16974 41.17118,52.02737c-1.2963,0.23523 -2.59263,0.47077 -3.88755,0.71278c-20.75968,-9.82379 -35.58142,-29.33934 -37.28363,-52.74016z" fill="#9c58a0" stroke="#000000" stroke-width="0" stroke-linecap="butt"/><path d="M173.0506,144.6592c-1.02261,-14.058 9.54468,-26.28326 23.60269,-27.30587c14.058,-1.02261 26.28326,9.54467 27.30586,23.60268c1.02261,14.058 -9.54468,26.28327 -23.60268,27.30586c-14.058,1.02261 -26.28326,-9.54468 -27.30586,-23.60268z" fill="#ffffff" stroke="#000000" stroke-width="2" stroke-linecap="butt"/><path d="M259.17552,163.98325c-14.058,1.02261 -26.28326,-9.54468 -27.30585,-23.60268c-1.02261,-14.058 9.54467,-26.28326 23.60268,-27.30586c14.058,-1.02261 26.28327,9.54468 27.30587,23.60269c1.0226,14.058 -9.54468,26.28326 -23.60269,27.30587z" data-paper-data="{&quot;index&quot;:null}" fill="#ffffff" stroke="#000000" stroke-width="2" stroke-linecap="butt"/><path d="M227.49202,170.7186c1.77017,-2.96584 6.65375,-4.63712 8.69837,0.37872c2.04462,5.01584 1.53395,17.83255 1.53395,17.83255c-7.47751,0.66115 -6.06598,1.30069 -13.52022,2.17221c0,0 1.51773,-17.41765 3.28791,-20.3835z" data-paper-data="{&quot;index&quot;:null}" fill="#000000" stroke="none" stroke-width="0" stroke-linecap="butt"/><path d="M158.5405,110.30992l129.54593,-11.90097c0,0 5.95779,13.85951 -0.0152,17.83943c-5.97299,3.97994 -13.08054,-5.98561 -18.35007,-5.60231c-5.26953,0.38331 -1.03566,5.05605 -12.33743,4.86152c-11.30176,-0.19454 -15.40996,-6.51207 -26.22166,-5.52522c-10.8117,0.98683 -6.51317,6.58395 -19.52274,8.35724c-7.40027,1.0087 -25.35608,0.35792 -25.35608,0.35792c0,0 -6.66786,6.76045 -21.33572,7.49811c-3.77756,0.18998 -6.30454,-8.46056 -6.30454,-8.46056z" fill="#874d8a" stroke="#000000" stroke-width="2" stroke-linecap="round"/><path d="M297.43104,109.02997c0,0 2.06664,-0.69059 3.19398,-0.82105c1.23368,-0.14277 3.91788,-0.00197 3.91788,-0.00197c0,0 -1.55868,8.7076 -3.0842,8.85193c-1.4177,0.13412 -4.02765,-8.02891 -4.02765,-8.02891z" fill="#ffdeff" stroke="none" stroke-width="0" stroke-linecap="butt"/><path d="M300.36725,119.33971c-0.05055,-0.53433 0.4402,-1.01781 1.09612,-1.07986c0.65593,-0.06205 1.22864,0.3208 1.27919,0.85514c0.05055,0.53433 -0.4402,1.01781 -1.09612,1.07986c-0.65593,0.06205 -1.22864,-0.3208 -1.27919,-0.85514z" fill="#ffdeff" stroke="none" stroke-width="0" stroke-linecap="butt"/><g><path d="M163.52147,206.51466l-7.97354,-109.61417l162.44978,-11.8169l7.97354,109.61417zM170.0778,193.28067l117.44028,-9.33295l-6.85907,-77.98203l-116.31475,8.45831z" fill="#9d829c" stroke="#725771" stroke-width="2" stroke-linecap="butt"/><path d="M285.95417,120.67334c-0.13794,-1.89621 -0.56279,-7.73678 -0.79255,-10.89544c-0.09088,-1.24948 1.01025,-2.1638 2.25873,-2.25462c3.61359,-0.26287 21.41561,-1.55781 27.35062,-1.98953c1.21229,-0.08818 2.04618,1.46434 2.14167,2.77707c0.1341,1.84348 0.50532,6.94675 0.73158,10.05733c0.1083,1.48874 -0.84736,2.59597 -2.52752,2.7182c-6.65318,0.48397 -23.48939,1.70867 -26.82965,1.95165c-1.12857,0.08209 -2.24803,-1.19814 -2.33288,-2.36463z" fill="#725771" stroke="#725771" stroke-width="0" stroke-linecap="butt"/><path d="M292.74749,186.70124c-0.18402,-2.52969 -0.45668,-6.27817 -0.55663,-7.65223c-0.07323,-1.00671 0.89738,-2.29363 2.02379,-2.37557c3.15587,-0.22956 18.27824,-1.32959 23.57676,-1.71501c1.1514,-0.08376 1.95273,1.43099 2.0399,2.62945c0.101,1.38856 0.34613,4.75832 0.51688,7.10564c0.10363,1.42456 -0.6916,2.53595 -1.65904,2.60633c-2.75988,0.20076 -16.2778,1.18407 -22.55169,1.64044c-1.95776,0.14241 -3.28586,-0.80766 -3.38998,-2.23906z" fill="none" stroke="#725771" stroke-width="2" stroke-linecap="butt"/><path d="M291.81552,171.98157c-0.56551,-7.77416 -2.78176,-38.24132 -3.15042,-43.30949c-0.10153,-1.39568 0.93276,-2.67726 2.11446,-2.76321c3.14298,-0.22863 17.57363,-1.27835 23.32048,-1.69638c1.46951,-0.10689 2.44896,0.89592 2.54141,2.16692c0.34766,4.77934 2.50786,34.47616 3.13177,43.05322c0.10679,1.46785 -0.57678,2.37137 -1.43387,2.43371c-2.84112,0.20667 -18.64867,1.35654 -24.34557,1.77094c-1.27786,0.09295 -2.09454,-0.50466 -2.17827,-1.65569z" fill="#ffdeff" stroke="#725771" stroke-width="2" stroke-linecap="butt"/><path d="M320.49619,190.89178c-0.05663,-0.77844 0.52852,-1.4554 1.30697,-1.51201c0.77843,-0.05662 1.4554,0.52853 1.51201,1.30697c0.05663,0.77844 -0.52852,1.4554 -1.30697,1.51201c-0.77843,0.05662 -1.4554,-0.52853 -1.51201,-1.30697z" fill="#725771" stroke="none" stroke-width="0" stroke-linecap="butt"/><path d="M166.92802,201.03211c-0.07722,-1.0615 0.7207,-1.98461 1.78221,-2.06183c1.0615,-0.07722 1.98461,0.7207 2.06183,1.78222c0.07722,1.0615 -0.7207,1.9846 -1.78222,2.06182c-1.0615,0.07722 -1.9846,-0.72069 -2.06182,-1.78221z" fill="#725771" stroke="none" stroke-width="0" stroke-linecap="butt"/><path d="M157.83601,100.83321c-0.05149,-0.70767 0.48048,-1.32308 1.18813,-1.37455c0.70767,-0.05148 1.32308,0.48048 1.37455,1.18813c0.05149,0.70767 -0.48048,1.32308 -1.18813,1.37455c-0.70767,0.05148 -1.32307,-0.48048 -1.37455,-1.18813z" fill="#725771" stroke="none" stroke-width="0" stroke-linecap="butt"/><path d="M313.06578,88.68838c-0.06864,-0.94361 0.64066,-1.76419 1.58426,-1.83284c0.94361,-0.06864 1.76419,0.64066 1.83284,1.58426c0.06864,0.94361 -0.64066,1.7642 -1.58426,1.83285c-0.94361,0.06864 -1.76418,-0.64067 -1.83283,-1.58427z" fill="#725771" stroke="none" stroke-width="0" stroke-linecap="butt"/><path d="M302.20425,125.55844l3.33682,45.87218" fill="none" stroke="#725771" stroke-width="2" stroke-linecap="round"/><path d="M291.5952,160.33664l26.13946,-1.90143" fill="none" stroke="#725771" stroke-width="2" stroke-linecap="round"/><path d="M291.04989,149.29845l26.65198,-1.93872" fill="none" stroke="#725771" stroke-width="2" stroke-linecap="round"/><path d="M316.62537,136.10253l-26.90825,1.95736" fill="none" stroke="#725771" stroke-width="2" stroke-linecap="round"/></g><path d="M297.43104,109.02997c0,0 2.06664,-0.69059 3.19398,-0.82105c1.23368,-0.14277 3.91788,-0.00197 3.91788,-0.00197c0,0 -1.55868,8.7076 -3.0842,8.85193c-1.4177,0.13412 -4.02765,-8.02891 -4.02765,-8.02891z" fill-opacity="0.50302" fill="#ffdeff" stroke="none" stroke-width="0" stroke-linecap="butt"/><path d="M300.36725,119.33971c-0.05055,-0.53433 0.4402,-1.01781 1.09612,-1.07986c0.65593,-0.06205 1.22864,0.3208 1.27919,0.85514c0.05055,0.53433 -0.4402,1.01781 -1.09612,1.07986c-0.65593,0.06205 -1.22864,-0.3208 -1.27919,-0.85514z" fill-opacity="0.50302" fill="#ffdeff" stroke="none" stroke-width="0" stroke-linecap="butt"/><g fill="#000000" stroke="none" stroke-width="0" stroke-linecap="butt"><path d="M174.59184,146.15388c-0.50219,-6.90377 4.6873,-12.90747 11.59106,-13.40967c6.90377,-0.50219 12.90747,4.6873 13.40967,11.59107c0.50219,6.90377 -4.68731,12.90747 -11.59107,13.40967c-6.90377,0.50219 -12.90746,-4.68731 -13.40966,-11.59107z"/><path d="M248.54349,154.02602c-6.90375,0.50219 -12.90745,-4.68731 -13.40965,-11.59107c-0.50219,-6.90377 4.6873,-12.90747 11.59106,-13.40967c6.90375,-0.50219 12.90746,4.68731 13.40966,11.59107c0.50219,6.90377 -4.68731,12.90747 -11.59106,13.40966z" data-paper-data="{&quot;index&quot;:null}"/></g><g stroke-linecap="butt"><path d="M169.51538,193.49516l-5.73002,-79.6388l81.38094,-17.13988l8.78208,97.55846z" fill="url(#color-1)" stroke="#725771" stroke-width="2"/><path d="M185.06275,194.0768l-19.73008,-79.43944l10.79171,-3.42502l19.60734,83.25856z" fill-opacity="0.11593" fill="#ffffff" stroke="none" stroke-width="0"/><path d="M205.10768,193.27585l-19.8403,-83.34978l12.11472,-3.4743l19.48111,86.98419z" fill-opacity="0.11593" fill="#ffffff" stroke="none" stroke-width="0"/></g></g></g></svg>