<svg version="1.1" xmlns="http://www.w3.org/2000/svg" xmlns:xlink="http://www.w3.org/1999/xlink" width="168" height="258.16221" viewBox="0,0,168,258.16221"><defs><linearGradient x1="319.92305" y1="175.45919" x2="319.92305" y2="307.45912" gradientUnits="userSpaceOnUse" id="color-1"><stop offset="0" stop-color="#4c7b64"/><stop offset="1" stop-color="#2b2b2b"/></linearGradient><linearGradient x1="320.08155" y1="221.49564" x2="320.08155" y2="308.14565" gradientUnits="userSpaceOnUse" id="color-2"><stop offset="0" stop-color="#6b6dd3"/><stop offset="1" stop-color="#000000"/></linearGradient><linearGradient x1="355.96012" y1="194.55739" x2="355.96012" y2="302.11987" gradientUnits="userSpaceOnUse" id="color-3"><stop offset="0" stop-color="#4b7b64"/><stop offset="1" stop-color="#000000"/></linearGradient><linearGradient x1="284.13221" y1="194.46851" x2="284.13221" y2="302.02621" gradientUnits="userSpaceOnUse" id="color-4"><stop offset="0" stop-color="#4b7b64"/><stop offset="1" stop-color="#000000"/></linearGradient><linearGradient x1="320.00014" y1="76.99004" x2="320.00014" y2="197.10367" gradientUnits="userSpaceOnUse" id="color-5"><stop offset="0" stop-color="#000000"/><stop offset="1" stop-color="#ffdac9"/></linearGradient><linearGradient x1="319.92305" y1="136.84608" x2="319.92305" y2="196.25755" gradientUnits="userSpaceOnUse" id="color-6"><stop offset="0" stop-color="#000000"/><stop offset="1" stop-color="#7e647b"/></linearGradient><linearGradient x1="302.99388" y1="113.75418" x2="302.99388" y2="160.71544" gradientUnits="userSpaceOnUse" id="color-7"><stop offset="0" stop-color="#1a1a1a"/><stop offset="1" stop-color="#ffffff"/></linearGradient><linearGradient x1="336.75243" y1="113.75414" x2="336.75243" y2="160.71535" gradientUnits="userSpaceOnUse" id="color-8"><stop offset="0" stop-color="#1a1a1a"/><stop offset="1" stop-color="#ffffff"/></linearGradient><linearGradient x1="319.46461" y1="50.98963" x2="319.46461" y2="110.33915" gradientUnits="userSpaceOnUse" id="color-9"><stop offset="0" stop-color="#4c7b64"/><stop offset="1" stop-color="#000000"/></linearGradient><linearGradient x1="319.45887" y1="55.3163" x2="319.45887" y2="88.41538" gradientUnits="userSpaceOnUse" id="color-10"><stop offset="0" stop-color="#daffed"/><stop offset="1" stop-color="#161a18"/></linearGradient><linearGradient x1="320.08099" y1="60.32456" x2="320.08099" y2="80.96067" gradientUnits="userSpaceOnUse" id="color-11"><stop offset="0" stop-color="#49705e"/><stop offset="1" stop-color="#13160e"/></linearGradient><linearGradient x1="319.47355" y1="146.06581" x2="319.47355" y2="181.77496" gradientUnits="userSpaceOnUse" id="color-12"><stop offset="0" stop-color="#000000"/><stop offset="1" stop-color="#ffdac9"/></linearGradient></defs><g transform="translate(-236.25,-50.48962)"><g data-paper-data="{&quot;isPaintingLayer&quot;:true}" stroke-linecap="butt" stroke-linejoin="miter" stroke-miterlimit="10" stroke-dasharray="" stroke-dashoffset="0" style="mix-blend-mode: normal"><path d="M286.67305,307.45912l15.14285,-131.8421l37.78325,-0.15789l13.57389,132z" fill="url(#color-1)" fill-rule="nonzero" stroke="#000000" stroke-width="2"/><path d="M299.53999,204.07183l3.12142,-26.32765l35.83075,-0.14203l2.76735,26.1059c0,0 -7.51543,4.19603 -21.55904,4.50964c-12.48458,0.27879 -20.16049,-4.14586 -20.16049,-4.14586z" fill="#2f4b3d" fill-rule="nonzero" stroke="#000000" stroke-width="0"/><path d="M286.20349,307.39565l9.625,-85.15c0,0 16.14032,5.36651 24.41538,5.23987c8.05433,-0.12327 24.59071,-5.98987 24.59071,-5.98987l9.125,86.65z" fill="url(#color-2)" fill-rule="nonzero" stroke="#000000" stroke-width="1"/><path d="M330.77702,225.84333l-2.72223,-31.57302l7.33053,-1.11111l3.5,30.46191c0,0 1.97994,9.94622 -2.77415,10.47275c-4.71963,0.52271 -5.33415,-8.25053 -5.33415,-8.25053z" data-paper-data="{&quot;index&quot;:null}" fill="#6b6dd3" fill-rule="nonzero" stroke="#000000" stroke-width="1"/><path d="M301.66589,224.12113l3.5,-30.4619l8.21942,0.55556l-2.61111,32.12857c0,0 -1.38805,9.70344 -6.18894,8.77837c-5.22617,-1.00701 -2.91937,-11.0006 -2.91937,-11.0006z" fill="#6b6dd3" fill-rule="nonzero" stroke="#000000" stroke-width="1"/><path d="M338.78521,228.05327c0,1.99603 -1.54283,3.61412 -3.44602,3.61412c-1.90319,0 -3.44603,-1.6181 -3.44603,-3.61412c0,-1.99603 1.54284,-3.61412 3.44603,-3.61412c1.90319,0 3.44602,1.61809 3.44602,3.61412z" fill="#c6a438" fill-rule="nonzero" stroke="none" stroke-width="0"/><path d="M309.37397,228.76995c0,1.99603 -1.54283,3.61412 -3.44602,3.61412c-1.90319,0 -3.44603,-1.6181 -3.44603,-3.61412c0,-1.99603 1.54284,-3.61412 3.44603,-3.61412c1.90319,0 3.44602,1.61809 3.44602,3.61412z" fill="#c6a438" fill-rule="nonzero" stroke="none" stroke-width="0"/><path d="M308.84899,229.41994c0,1.99602 -1.54284,3.61412 -3.44602,3.61412c-1.90319,0 -3.44602,-1.6181 -3.44602,-3.61412c0,-1.99602 1.54284,-3.61412 3.44602,-3.61412c1.90319,0 3.44602,1.6181 3.44602,3.61412z" fill="#edd459" fill-rule="nonzero" stroke="none" stroke-width="0"/><path d="M338.53662,228.70119c0,1.87521 -1.44945,3.39537 -3.23744,3.39537c-1.78799,0 -3.23745,-1.52016 -3.23745,-3.39537c0,-1.87521 1.44946,-3.39537 3.23745,-3.39537c1.78799,0 3.23744,1.52016 3.23744,3.39537z" fill="#edd459" fill-rule="nonzero" stroke="none" stroke-width="0"/><path d="M341.61097,194.55739c0.90641,1.442 13.27591,-0.94411 14.53458,0.88889c0.31862,-0.594 9.30076,33.378 9.72787,35c-0.5926,-0.963 18.86551,-1.36934 19.27339,-1.83334c-0.88787,-0.49 -5.93842,13.17633 -6.88122,13.33333c0.39035,-11.49051 -24.12885,16.98694 -30.54825,-3.28215c-2.30981,-7.29318 -4.60671,-13.12938 -6.56415,-16.05118c2.25366,-15.345 -5.00951,-26.28055 0.45778,-28.05555z" fill="url(#color-3)" fill-rule="evenodd" stroke="none" stroke-width="1"/><path d="M341.52131,194.59509c0.91572,1.34757 13.41232,-0.88229 14.68393,0.83068c0.10385,-0.17908 1.11865,3.00386 2.46032,7.4491c-6.17155,-0.51975 -13.01437,-2.82677 -18.35267,1.21834c-0.00693,0.00525 -0.01384,0.01053 -0.02073,0.01584c-0.98219,-5.21007 -1.76061,-8.6161 1.22914,-9.51396z" fill="#2f4b3d" fill-rule="nonzero" stroke="none" stroke-width="1"/><path d="M387.45587,301.10947c0.01927,0.00566 0.03664,0.01141 0.05206,0.01725c-0.01724,0.01347 -0.0346,0.00734 -0.05206,-0.01725z" fill="#2f4b3d" fill-rule="nonzero" stroke="none" stroke-width="1"/><path d="M298.93917,222.52407c-1.48828,2.22149 -3.17279,6.12776 -4.91001,11.07822c-6.89769,19.65594 -35.8764,-5.97637 -35.45239,6.50511c-0.9428,-0.157 1.25665,-6.32333 0.36878,-5.83333c0.40788,0.464 15.86599,-4.87966 15.27339,-3.91666c0.42711,-1.622 9.40925,-35.594 9.72787,-35c1.25867,-1.833 13.62817,0.55311 14.53458,-0.88889c5.46729,1.775 -1.79588,12.71055 0.45778,28.05555z" data-paper-data="{&quot;index&quot;:null}" fill="url(#color-4)" fill-rule="evenodd" stroke="none" stroke-width="1"/><path d="M298.57106,194.5062c2.98975,0.89786 2.21133,4.30389 1.22914,9.51396c-0.00689,-0.00531 -0.0138,-0.01059 -0.02073,-0.01584c-5.3383,-4.04511 -12.18112,-1.73809 -18.35267,-1.21834c1.34167,-4.44524 2.35647,-7.62818 2.46032,-7.4491c1.27161,-1.71297 13.76821,0.51689 14.68393,-0.83068z" data-paper-data="{&quot;index&quot;:null}" fill="#2f4b3d" fill-rule="nonzero" stroke="none" stroke-width="1"/><g><path d="M261.69795,104.84055c0.37225,-1.95627 0.79829,-15.31507 14.96087,-28.03661c7.64679,-6.86874 16.3225,-16.66898 37.90299,-17.32053c32.05868,-0.51111 43.95019,11.08935 52.16133,19.80672c11.26206,11.95638 11.89977,22.71882 14.37822,27.96833c0.25164,0.53297 -119.41455,-2.35933 -119.40341,-2.4179z" fill="#a8530c" fill-rule="nonzero" stroke="none" stroke-width="1.5"/><path d="M255.76313,136.80525c0,-21.15086 11.60129,-39.75822 29.15655,-50.52104c1.08536,-1.75458 19.78544,-9.18722 33.30904,-9.29157c13.5236,-0.10435 26.06266,2.90177 35.96422,8.75705c18.0508,10.67434 30.04423,29.55022 30.04423,51.05556c0,33.30185 -28.7599,60.29833 -64.23702,60.29833c-35.47712,0 -64.23702,-26.99649 -64.23702,-60.29833z" fill="url(#color-5)" fill-rule="nonzero" stroke="#000000" stroke-width="2"/><path d="M256.486,136.85915c0,-0.72799 5.20666,55.91939 63.36046,56.93429c55.56352,0.9697 63.51358,-57.95314 63.51358,-56.93429c0,32.80479 -28.40173,59.39833 -63.43702,59.39833c-35.03529,0 -63.43702,-26.59354 -63.43702,-59.39833z" fill="url(#color-6)" fill-rule="nonzero" stroke="#000000" stroke-width="0"/><path d="M259.42026,148.5137c0,0 -3.17497,-7.83911 -3.17497,-11.77764c0,-6.02949 9.41909,-42.46903 9.41909,-42.46903h9.52492c0,0 -3.70913,8.16542 -4.33994,12.81431c-0.56023,4.12878 0.74163,13.70427 0.74163,13.70427l-2.07085,2.75646l-3.0049,-1.80454z" fill="#3a2f2b" fill-rule="nonzero" stroke="#000000" stroke-width="0"/><path d="M289.71317,137.23478c0,-12.968 5.94595,-23.48065 13.28065,-23.48065c7.3347,0 13.28065,10.51265 13.28065,23.48065c0,12.968 -5.94595,23.48065 -13.28065,23.48065c-7.3347,0 -13.28065,-10.51265 -13.28065,-23.48065z" fill="url(#color-7)" fill-rule="nonzero" stroke="#000000" stroke-width="2"/><path d="M258.52306,144.00197c0,0 -3,-7.4071 -3,-11.12857c0,-5.6972 8.9,-40.12857 8.9,-40.12857h9c0,0 -3.50472,7.71542 -4.10076,12.10811c-0.52936,3.90124 0.70076,12.94903 0.70076,12.94903l-1.95673,2.60455l-2.8393,-1.70509z" fill="#766058" fill-rule="nonzero" stroke="#000000" stroke-width="1.5"/><path d="M336.75243,160.71535c-7.27947,0 -13.18065,-10.51265 -13.18065,-23.48065c0,-12.968 5.90118,-23.48065 13.18065,-23.48065c7.27947,0 13.18065,10.51265 13.18065,23.48065c0,12.968 -5.90118,23.48065 -13.18065,23.48065z" data-paper-data="{&quot;index&quot;:null}" fill="url(#color-8)" fill-rule="nonzero" stroke="#000000" stroke-width="2"/><path d="M279.70187,109.81344c0,0 11.49953,-4.26418 16.5281,-2.83931c5.02858,1.42488 11.69518,5.97183 11.69518,5.97183c0,0 -8.24902,-3.32832 -12.13243,-4.4287c-4.05831,-1.14994 -16.09085,1.29618 -16.09085,1.29618z" fill="#000000" fill-rule="nonzero" stroke="none" stroke-width="0"/><path d="M343.17753,108.87055c-3.85442,1.19798 -10.7515,5.32659 -10.7515,5.32659c0,0 5.28441,-5.30693 10.27546,-6.85819c4.99104,-1.55125 13.39479,-0.49871 13.39479,-0.49871c0,0 -8.89074,0.77838 -12.91875,2.03032z" data-paper-data="{&quot;index&quot;:null}" fill="#000000" fill-rule="nonzero" stroke="none" stroke-width="0"/><path d="M372.11944,122.73765l-3.0049,1.80454l-2.07085,-2.75646c0,0 1.30186,-9.57549 0.74163,-13.70427c-0.63081,-4.64889 -4.33994,-12.81431 -4.33994,-12.81431h9.52492c0,0 9.41909,36.43954 9.41909,42.46903c0,3.93853 -3.17497,11.77764 -3.17497,11.77764z" data-paper-data="{&quot;index&quot;:null}" fill="#3a2f2b" fill-rule="nonzero" stroke="#000000" stroke-width="0"/><path d="M373.71917,121.03488l-2.8393,1.70509l-1.95673,-2.60455c0,0 1.23012,-9.04779 0.70076,-12.94903c-0.59604,-4.39269 -4.10076,-12.10811 -4.10076,-12.10811h9c0,0 8.9,34.43137 8.9,40.12857c0,3.72147 -3,11.12857 -3,11.12857z" data-paper-data="{&quot;index&quot;:null}" fill="#766058" fill-rule="nonzero" stroke="#000000" stroke-width="1.5"/><path d="M258.29805,92.23963c16.52144,-23.64275 37.27087,-41.25 60.25,-41.25c22.93746,0 43.93743,11.90491 59.75,35.25c2.19899,3.24651 5.88227,22.83784 3.89123,23.94724c-2.97694,1.65874 -55.28548,-10.78057 -63.39123,-10.78057c-8.43856,0 -57.31213,11.19019 -60.9229,10.52524c-2.6,-0.4788 -2.04397,-14.16171 0.42291,-17.69191z" fill="url(#color-9)" fill-rule="nonzero" stroke="#000000" stroke-width="1"/><path d="M337.87557,71.8658c0,9.14006 -8.24543,16.54954 -18.41667,16.54954c-10.17124,0 -18.41667,-7.40948 -18.41667,-16.54954c0,-9.14006 8.24543,-16.54954 18.41667,-16.54954c10.17124,0 18.41667,7.40948 18.41667,16.54954z" fill="url(#color-10)" fill-rule="nonzero" stroke="none" stroke-width="0"/><path d="M270.57187,107.23896l2.83334,-8.78572c0,0 8.38245,-3.22377 9.03638,-3.40847c4.87995,-1.37836 25.70344,-8.21057 37.13028,-8.21057c11.03631,0 32.30917,6.51103 38.01657,8.0849c0.95074,0.26217 7.62628,4.74844 7.62628,4.74844l1.82143,8.83333c0,0 -8.71824,-2.99878 -9.5178,-2.99654c-1.88852,0.0053 -5.82465,-0.9574 -10.94539,-2.09485c-7.41256,-1.64651 -17.47406,3.50751 -27.23352,3.53491c-9.94581,0.02792 -19.58437,-5.30103 -26.47853,-3.80424c-4.75314,1.03195 -8.12256,1.90186 -9.20032,1.90488c-0.72784,0.00204 -13.08872,2.19393 -13.08872,2.19393z" fill="#141d18" fill-rule="nonzero" stroke="#000000" stroke-width="0"/><path d="M329.40612,80.96067l-18.24951,-0.72108l-0.40074,-19.91504l5.4799,0.05106l-0.23111,13.48928l13.12073,0.23107z" data-paper-data="{&quot;index&quot;:null}" fill="url(#color-11)" fill-rule="evenodd" stroke="none" stroke-width="1"/><path d="M321.58806,168.62073c0,0 -25.15395,22.08602 -40.05509,15.24439c-14.90114,-6.84162 -14.22695,-40.16713 -14.22695,-40.16713c0,0 14.33284,15.22937 23.38537,19.38569c9.04147,4.15125 30.89668,5.53705 30.89668,5.53705z" fill="#000000" fill-rule="nonzero" stroke="none" stroke-width="0"/><path d="M350.09954,162.9966c8.93403,-4.10191 23.07925,-19.13193 23.07925,-19.13193c0,0 0.66537,32.88928 -14.04072,39.64135c-14.70608,6.75207 -39.53078,-15.04484 -39.53078,-15.04484c0,0 21.56913,-1.36767 30.49224,-5.46458z" data-paper-data="{&quot;index&quot;:null}" fill="#000000" fill-rule="nonzero" stroke="none" stroke-width="0"/><path d="M306.08961,172.46586c-3.03893,-9.31228 9.44444,-26.4 9.44444,-26.4c0,0 2.91771,0.38215 4.39081,0.43071c1.55573,0.05129 4.48697,-0.35293 4.48697,-0.35293c0,0 10.6936,19.54451 8.66667,26.1c-4.78824,15.48611 -23.94996,9.5345 -26.98889,0.22222z" fill="url(#color-12)" fill-rule="nonzero" stroke="#000000" stroke-width="2"/><g stroke="none" stroke-width="1"><path d="M327.79616,151.12258c1.52338,-0.83587 3.18137,-1.20669 4.97595,-1.11349c-0.74533,0.78516 -1.7337,1.30778 -2.9651,1.56786c0.03756,0.03471 0.0751,0.0692 0.11263,0.10348c-0.42771,0.09392 -0.84493,0.21511 -1.24981,0.36165c-0.29017,-0.29495 -0.5814,-0.60144 -0.87367,-0.91949z" fill="#2f2d2e" fill-rule="nonzero"/><path d="M335.22533,125.94709c-0.66683,0.01517 -0.99216,0.35597 -0.97699,1.02249c-1.35246,-1.4114 -3.03319,-2.04003 -5.0442,-1.88574c-0.35566,-0.99216 -1.03766,-1.64352 -2.04498,-1.95398c0.10231,-0.13988 0.20532,-0.27743 0.30903,-0.41266c0.94609,0.27093 1.94853,0.40567 2.98416,0.3821c0.22853,-0.0052 0.45511,-0.01804 0.67948,-0.03824c1.63049,0.56687 2.99498,1.5289 4.0935,2.88603z" fill="#7c82e2" fill-rule="nonzero"/><path d="M329.20421,125.08384c2.01101,-0.15429 3.69174,0.47434 5.0442,1.88574c1.91692,3.05148 2.49262,6.37264 1.7271,9.96329c-1.34428,-4.39275 -4.22962,-6.66101 -8.65704,-6.80482c-0.42991,-2.18878 0.19901,-3.87013 1.88574,-5.0442z" fill="#4c4ebf" fill-rule="evenodd"/><path d="M327.15918,123.12986c1.00732,0.31046 1.68932,0.96182 2.04498,1.95398c-1.68673,1.17408 -2.31564,2.85542 -1.88574,5.0442c4.42742,0.14381 7.31276,2.41207 8.65704,6.80482c0.76551,-3.59064 0.18981,-6.91181 -1.7271,-9.96329c-0.01517,-0.66652 0.31017,-1.00732 0.97699,-1.02249c2.9023,4.55165 3.84983,9.53138 2.84059,14.93924c-0.2331,3.99834 -1.99738,7.03926 -5.29384,9.12279c-1.79458,-0.0932 -3.45258,0.27762 -4.97595,1.11349c-5.49643,-9.27536 -5.70876,-18.60665 -0.63698,-27.99276z" fill="#0e0e12" fill-rule="evenodd"/><path d="M328.91677,134.68983c3.65664,-0.23325 4.6905,1.24362 3.10159,4.43059c-1.28152,0.51929 -2.61138,0.71659 -3.98759,0.59087c-0.17473,-1.78849 0.12028,-3.46163 0.886,-5.02146z" fill="#fbf9f9" fill-rule="evenodd"/></g><g data-paper-data="{&quot;index&quot;:null}" stroke="none" stroke-width="1"><path d="M310.74816,152.34939c-0.40442,-0.1478 -0.82126,-0.27029 -1.24867,-0.36554c0.03764,-0.03416 0.07527,-0.06853 0.11294,-0.10312c-1.23059,-0.26392 -2.21731,-0.78962 -2.96019,-1.5771c1.79487,-0.0876 3.4517,0.28839 4.97246,1.129c-0.29326,0.31714 -0.58544,0.62272 -0.87653,0.91676z" fill="#2f2d2e" fill-rule="nonzero"/><path d="M304.27405,126.23411c1.10275,-1.3537 2.47024,-2.31147 4.10249,-2.87324c0.22431,0.0209 0.45084,0.03444 0.67935,0.04036c1.03555,0.0268 2.33253,-0.22247 3.27946,-0.49045c0.10329,0.13556 0.32352,0.62637 0.42539,0.76657c-1.00829,0.30732 -2.10407,0.72125 -2.46283,1.7123c-2.01052,-0.16056 -3.69321,0.46282 -5.05006,1.86999c0.01725,-0.66648 -0.30703,-1.00827 -0.9738,-1.02553z" fill="#7c82e2" fill-rule="nonzero"/><path d="M312.16787,130.43965c-4.42784,0.13001 -7.32025,2.38925 -8.67822,6.77779c-0.75432,-3.59302 -0.16825,-6.91237 1.75817,-9.95785c1.35685,-1.40717 3.03954,-2.03055 5.05006,-1.86999c1.68306,1.17933 2.30672,2.86263 1.86999,5.05006z" fill="#4c4ebf" fill-rule="evenodd"/><path d="M311.62469,151.43266c-1.52076,-0.84062 -3.17759,-1.21661 -4.97246,-1.129c-3.28994,-2.0938 -5.04472,-5.14021 -5.26535,-9.13926c-0.99237,-5.41098 -0.02931,-10.38773 2.88717,-14.93031c0.66677,0.01726 0.99105,0.35905 0.9738,1.02553c-1.92642,3.04549 -2.51249,6.36484 -1.75817,9.95785c1.35798,-4.38854 4.25038,-6.64778 8.67822,-6.77779c0.43673,-2.18743 -0.18694,-3.87073 -1.86999,-5.05006c0.35876,-0.99105 1.34278,-1.64028 2.35107,-1.9476c5.04248,9.40188 4.50105,18.73246 -1.02428,27.99063z" fill="#0e0e12" fill-rule="evenodd"/><path d="M311.42573,140.02068c-1.3766,0.12143 -2.70583,-0.08002 -3.98573,-0.60331c-1.57896,-3.19191 -0.5405,-4.66554 3.1154,-4.42089c0.76085,1.56221 1.05063,3.23626 0.87033,5.02419z" fill="#fbf9f9" fill-rule="evenodd"/></g><path d="M315.96137,147.18069l1.26667,-4.92821l5.46667,0.2l1.12308,4.84103c0,0 -2.83871,0.7961 -4.25828,0.75031c-1.33016,-0.04291 -3.59813,-0.86313 -3.59813,-0.86313z" fill="#907b72" fill-rule="nonzero" stroke="#000000" stroke-width="0"/></g><g fill-rule="evenodd" stroke="none" stroke-width="1"><path d="M362.25,187.01001c1.21324,0 2.42676,0 3.64,0c1.64696,0.77219 3.0002,1.87216 4.06,3.29988c1.9194,3.40563 3.41264,6.95936 4.48,10.66116c1.14576,2.71357 2.68576,5.20963 4.62,7.4882c2.26016,0.03888 4.50016,-0.17265 6.72,-0.63459c4.26076,0.52024 6.54724,2.72017 6.86,6.59977c1.92752,0.78918 3.60752,1.88906 5.04,3.29988c0.86044,1.70604 0.9072,3.44051 0.14,5.20366c0.16184,0.4597 0.30184,0.92524 0.42,1.3961c1.30676,1.01535 2.61324,2.0307 3.92,3.04605c0.868,1.20547 0.91476,2.43252 0.14,3.68064c0.76748,0.84807 1.42072,1.7365 1.96,2.66529c0,0.08453 0,0.16931 0,0.25384c-0.65912,1.02652 -0.65912,2.04187 0,3.04605c0,0.93082 0,1.86139 0,2.79221c-1.55008,2.83892 -3.79008,5.16584 -6.72,6.98052c-4.04572,2.59574 -8.43248,4.49952 -13.16,5.71134c-1.58676,0 -3.17324,0 -4.76,0c-1.35268,-0.59499 -2.61268,-1.35651 -3.78,-2.28453c-0.7672,-1.08592 -1.28044,-2.27032 -1.54,-3.55372c-1.91212,-0.76075 -3.31212,-1.98755 -4.2,-3.68064c-2.65944,-0.8006 -4.75944,-2.28123 -6.3,-4.44215c-1.5638,-1.96851 -2.4038,-4.16851 -2.52,-6.59977c-3.60752,-4.27741 -4.16752,-8.84648 -1.68,-13.70721c0.94332,-0.8831 1.9698,-1.47556 3.08,-1.77686c0.51772,-0.64322 0.9842,-1.31995 1.4,-2.0307c0.43204,-0.47671 0.94528,-0.85746 1.54,-1.14227c-1.88412,-1.96165 -4.03088,-3.65389 -6.44,-5.07674c-0.98,-0.88843 -1.96,-1.77686 -2.94,-2.66529c-2.47828,-5.50992 -1.91828,-10.75587 1.68,-15.73791c1.15556,-1.34483 2.60232,-2.27556 4.34,-2.79221z" fill="#040404" opacity="0.971"/><path d="M260.05,252.50001c-1.02668,0 -2.05332,0 -3.08,0c-6.89251,-1.70832 -12.91251,-4.8389 -18.06,-9.39198c-0.89355,-1.28543 -1.78022,-2.55462 -2.66,-3.80756c0,-0.93082 0,-1.86139 0,-2.79221c0.39133,-0.32415 0.578,-0.74704 0.56,-1.26919c-0.62256,-1.76239 -0.20256,-3.28542 1.26,-4.56907c0.15483,-0.72572 0.10817,-1.44484 -0.14,-2.15762c0.08289,-0.47924 0.22289,-0.94478 0.42,-1.3961c1.49332,-1.18466 2.98668,-2.36906 4.48,-3.55372c0.13065,-1.31361 0.08397,-2.62518 -0.14,-3.93448c0.00565,-1.61745 0.75233,-2.88664 2.24,-3.80756c1.17989,-0.51377 2.34657,-1.06383 3.5,-1.64994c0.3171,-3.88348 2.60377,-6.08339 6.86,-6.59977c2.32705,0.42294 4.66038,0.71907 7,0.88843c2.04543,-2.56414 3.77216,-5.31403 5.18,-8.24971c1.1116,-3.45213 2.60484,-6.75202 4.48,-9.89965c2.0762,-2.85567 4.92268,-3.74411 8.54,-2.66529c1.05784,0.5361 2.03784,1.17069 2.94,1.90378c3.87184,5.08862 4.52508,10.50384 1.96,16.24558c-2.76052,2.37059 -5.70052,4.5282 -8.82,6.47285c-0.24528,0.40259 -0.52528,0.78334 -0.84,1.14227c0.791,0.76024 1.53776,1.56414 2.24,2.41145c-0.1974,0.39522 -0.01092,0.6912 0.56,0.88843c3.11696,1.27122 4.6102,3.59814 4.48,6.98052c-0.06188,3.21536 -1.22864,6.0497 -3.5,8.50355c-0.51128,4.0152 -2.51776,7.27294 -6.02,9.77273c-0.99344,0.4927 -2.01992,0.91559 -3.08,1.26919c-1.07492,1.753 -2.66168,2.89527 -4.76,3.4268c0.0574,2.0538 -0.87612,3.61921 -2.8,4.69599c-0.95009,0.41122 -1.88342,0.79197 -2.8,1.14227z" fill="#040404" opacity="0.971"/><path d="M363.93,206.30163c-0.18676,0.50767 -0.37324,1.01535 -0.56,1.52302c-5.27184,-3.12532 -6.90536,-7.44056 -4.9,-12.9457c0.8218,-1.87741 2.0818,-3.44274 3.78,-4.69599c2.0454,-0.56552 3.67864,-0.01553 4.9,1.64994c0.46676,0.76151 0.93324,1.52302 1.4,2.28453c1.02788,3.00683 2.19436,5.96827 3.5,8.8843c-1.11552,-0.11668 -2.23552,0.01023 -3.36,0.38076c-1.62988,0.92988 -3.21664,1.90292 -4.76,2.91913z" fill="#fbfbfb"/><path d="M277.13,190.05605c1.83876,-0.03373 3.28524,0.64318 4.34,2.0307c2.61128,3.75888 3.07804,7.73566 1.4,11.93035c-1.5358,1.75315 -3.30904,3.27618 -5.32,4.56907c0.11816,-0.65939 0.11816,-1.3363 0,-2.0307c-1.75056,-1.16562 -3.57056,-2.22326 -5.46,-3.17297c-0.98056,-0.07158 -1.9138,-0.11389 -2.8,-0.12692c1.55148,-3.58459 3.18472,-7.13831 4.9,-10.66116c0.76664,-1.0764 1.74664,-1.92251 2.94,-2.53837z" fill="#fbfbfb"/><path d="M372.61,204.52477c1.10152,1.78254 2.31476,3.51709 3.64,5.20366c-2.82856,0.81246 -5.62856,1.70088 -8.4,2.66529c-0.85596,-1.41182 -1.97596,-2.63868 -3.36,-3.68064c2.408,-1.21787 4.928,-2.23321 7.56,-3.04605c0.21476,-0.37327 0.40124,-0.75402 0.56,-1.14227z" fill="#fafafa"/><path d="M268.45,204.52477c0.4956,0.34418 0.86884,0.80953 1.12,1.3961c2.55444,0.79997 4.9812,1.81532 7.28,3.04605c-1.38628,1.0436 -2.50628,2.27047 -3.36,3.68064c-2.72552,-1.00685 -5.47876,-1.93757 -8.26,-2.79221c1.19952,-1.66344 2.27276,-3.4403 3.22,-5.33058z" fill="#f8f8f8"/><path d="M363.93,206.30163c0.08624,0.6153 -0.00728,1.20759 -0.28,1.77686c-0.16996,-0.03138 -0.2632,-0.11598 -0.28,-0.25384c0.18676,-0.50767 0.37324,-1.01535 0.56,-1.52302z" fill="#6d6d6d"/><path d="M275.45,227.8778c-0.8708,0.14926 -1.7108,0.31857 -2.52,0.50767c-1.26364,1.1047 -2.38364,2.33149 -3.36,3.68064c-1.41204,0.02995 -1.92556,0.66455 -1.54,1.90378c2.14312,0.92955 3.91636,0.50641 5.32,-1.26919c0.85232,-1.25954 1.45908,-2.61351 1.82,-4.0614c0.18676,0 0.37324,0 0.56,0c1.52292,3.94412 0.49616,7.2864 -3.08,10.02657c-0.48076,0.39573 -1.04076,0.60718 -1.68,0.63459c0.01204,-0.86558 -0.12796,-1.71162 -0.42,-2.53837c-0.4284,-0.7242 -1.03516,-0.89351 -1.82,-0.50767c-0.7266,-2.02587 -1.94012,-3.76034 -3.64,-5.20366c-2.34859,-1.2339 -4.77526,-2.33378 -7.28,-3.29988c-1.41095,-0.89503 -2.71763,-1.91038 -3.92,-3.04605c-1.99758,-0.97347 -2.7909,-0.4234 -2.38,1.64994c0.0334,1.11841 0.54676,2.00684 1.54,2.66529c3.91026,1.69056 7.83025,3.38263 11.76,5.07674c0.74676,0.50767 1.49324,1.01535 2.24,1.52302c-0.40068,0.11803 -0.72716,0.32973 -0.98,0.63459c-0.56,1.18466 -1.12,2.36906 -1.68,3.55372c-1.02211,0.66023 -1.25543,1.50652 -0.7,2.53837c1.28772,-0.16753 2.50096,-0.46376 3.64,-0.88843c-0.79492,1.0387 -1.82168,1.8426 -3.08,2.41145c-1.13369,-0.3079 -1.97369,-0.9425 -2.52,-1.90378c-0.70263,-0.3607 -1.35599,-0.78385 -1.96,-1.26919c-2.00261,-0.78106 -3.96261,-1.6271 -5.88,-2.53837c-0.88667,-0.97296 -1.77332,-1.94617 -2.66,-2.91913c-1.41868,-1.49434 -2.39867,-1.32528 -2.94,0.50767c0.23366,2.16066 1.35366,3.8106 3.36,4.94983c3.32548,1.3857 6.68548,2.69702 10.08,3.93448c1.46656,3.07194 0.34655,4.59496 -3.36,4.56907c-1.35483,0.03148 -2.66149,-0.18022 -3.92,-0.63459c0.74668,-0.50767 1.49332,-1.01535 2.24,-1.52302c-6.3716,-0.0066 -11.92492,-1.91038 -16.66,-5.71134c-0.09332,-0.84604 -0.18668,-1.69233 -0.28,-2.53837c-1.08358,-1.51389 -1.27025,-3.12144 -0.56,-4.82291c0.75768,-0.60185 1.41103,-1.27858 1.96,-2.0307c0.09332,-1.35371 0.18668,-2.70768 0.28,-4.0614c1.76131,-1.00418 3.25463,-2.27337 4.48,-3.80756c0.26824,-0.65363 0.40824,-1.33036 0.42,-2.0307c-0.23324,-1.26639 -0.27989,-2.53558 -0.14,-3.80756c1.47837,-0.73004 3.01837,-1.36463 4.62,-1.90378c0.32667,-0.29623 0.65332,-0.5922 0.98,-0.88843c0.32497,-1.24786 0.51162,-2.51705 0.56,-3.80756c0.44221,-0.39121 0.95556,-0.68734 1.54,-0.88843c6.80588,0.48496 13.3392,2.00811 19.6,4.56907c1.12252,1.31462 2.52252,2.32997 4.2,3.04605c-0.44856,0.49117 -0.77532,1.04099 -0.98,1.64994c0.00924,1.83727 -0.64428,3.44508 -1.96,4.82291c-3.49552,-2.32591 -7.27552,-4.22969 -11.34,-5.71134c-1.68,-1.01535 -3.36,-2.0307 -5.04,-3.04605c-1.6345,-0.37568 -2.42782,0.17439 -2.38,1.64994c0.33538,1.07779 1.03538,1.8817 2.1,2.41145c3.46374,1.86621 7.1036,3.38923 10.92,4.56907c2.25344,0.9359 4.4002,1.99338 6.44,3.17297z" fill="#fbfbfb"/><path d="M365.61,228.13163c-0.18788,-0.34192 -0.18788,-0.63815 0,-0.88843c3.69068,-1.73574 7.51744,-3.17423 11.48,-4.31523c2.44636,-1.0453 4.82636,-2.18757 7.14,-3.4268c0.28,-0.50767 0.56,-1.01535 0.84,-1.52302c0.21364,-1.6634 -0.5796,-2.21321 -2.38,-1.64994c-4.23332,2.51147 -8.71332,4.62669 -13.44,6.34593c-1.06512,0.58509 -2.0916,1.21969 -3.08,1.90378c-1.29388,-1.47276 -1.90064,-3.1651 -1.82,-5.07674c-0.23324,-0.42315 -0.46676,-0.84604 -0.7,-1.26919c1.59572,-0.81304 2.99572,-1.87078 4.2,-3.17297c6.19052,-2.41475 12.63052,-3.76864 19.32,-4.0614c0.58436,0.20108 1.09788,0.49721 1.54,0.88843c0.04844,1.29051 0.23492,2.55969 0.56,3.80756c0.42,0.38076 0.84,0.76151 1.26,1.14227c1.4854,0.58839 2.93216,1.22299 4.34,1.90378c0.04788,1.18161 0.00112,2.36627 -0.14,3.55372c-0.01344,2.06827 0.92008,3.71821 2.8,4.94983c0.63112,0.34953 1.2376,0.73029 1.82,1.14227c-0.68684,2.40181 -0.0336,4.43251 1.96,6.09209c0.69412,1.69817 0.50736,3.30598 -0.56,4.82291c-0.09324,0.84604 -0.18676,1.69233 -0.28,2.53837c-1.8508,1.70731 -4.04404,2.93436 -6.58,3.68064c-3.22784,1.21131 -6.58784,1.80377 -10.08,1.77686c0.60116,0.56783 1.2544,1.07551 1.96,1.52302c-1.47756,0.29445 -2.97108,0.5059 -4.48,0.63459c-3.10296,-0.46046 -4.12972,-2.06827 -3.08,-4.82291c4.30948,-1.14658 8.41596,-2.712 12.32,-4.69599c1.34764,-1.46312 1.8144,-3.11306 1.4,-4.94983c-0.53788,-0.28963 -1.09788,-0.33202 -1.68,-0.12692c-1.14828,1.23289 -2.36152,2.41755 -3.64,3.55372c-2.04372,0.84426 -4.09696,1.6903 -6.16,2.53837c-1.12504,0.76684 -2.15152,1.61288 -3.08,2.53837c-0.38416,0.10204 -0.7574,0.22896 -1.12,0.38076c-1.52936,-0.52747 -2.50936,-1.45804 -2.94,-2.79221c0.99008,0.80796 2.15684,1.23111 3.5,1.26919c0.55552,-1.03185 0.322,-1.87814 -0.7,-2.53837c-0.38892,-1.12805 -0.85568,-2.22793 -1.4,-3.29988c-0.33992,-0.39319 -0.75992,-0.68917 -1.26,-0.88843c1.23144,-0.86152 2.5382,-1.62304 3.92,-2.28453c3.5322,-1.20776 6.98544,-2.56147 10.36,-4.0614c1.3972,-1.2136 1.91044,-2.69423 1.54,-4.44215c-0.57344,-0.58053 -1.1802,-0.62292 -1.82,-0.12692c-1.31908,1.11181 -2.71908,2.12716 -4.2,3.04605c-2.56284,1.03489 -5.08284,2.13477 -7.56,3.29988c-1.7164,1.46185 -2.9764,3.19632 -3.78,5.20366c-0.4774,-0.3206 -0.94416,-0.40538 -1.4,-0.25384c-0.61544,1.03921 -1.03544,2.13909 -1.26,3.29988c-3.50896,-2.216 -5.1422,-5.26205 -4.9,-9.13814c0.34636,-0.74831 0.76636,-1.4253 1.26,-2.0307z" fill="#fbfbfb"/><path d="M361.41,220.26268c0.18564,1.01992 0.5124,2.03527 0.98,3.04605c1.00156,0.72927 2.07508,1.36387 3.22,1.90378c-0.89012,1.16537 -1.91688,2.22311 -3.08,3.17297c-1.34568,-2.5866 -1.71892,-5.29428 -1.12,-8.12279z" fill="#f1f1f1"/><path d="M279.37,220.51652c0.80836,2.85922 0.4816,5.65143 -0.98,8.37663c-0.91644,-1.15953 -1.89644,-2.25966 -2.94,-3.29988c1.08724,-0.64246 2.16076,-1.31919 3.22,-2.0307c0.55692,-0.95265 0.79016,-1.968 0.7,-3.04605z" fill="#f1f1f1"/><path d="M253.61,226.86245c0.31545,0.15789 0.59545,0.36933 0.84,0.63459c-0.55703,0.13174 -0.83703,-0.0797 -0.84,-0.63459z" fill="#b0b0b0"/><path d="M386.89,227.11628c0.20692,-0.03325 0.39368,0.00914 0.56,0.12692c-0.35448,0.50336 -0.82096,0.7572 -1.4,0.76151c0.3388,-0.26374 0.6188,-0.55996 0.84,-0.88843z" fill="#9f9f9f"/><path d="M275.45,227.8778c0.01596,0.28151 0.1092,0.53534 0.28,0.76151c-0.18676,0 -0.37324,0 -0.56,0c-0.68544,-0.24698 -1.4322,-0.33151 -2.24,-0.25384c0.8092,-0.18911 1.6492,-0.35842 2.52,-0.50767z" fill="#7b7b7b"/><path d="M365.61,228.13163c0.97384,-0.08021 1.90736,0.04671 2.8,0.38076c0.95928,1.2306 1.98576,2.41526 3.08,3.55372c0.427,0.25612 0.89376,0.38304 1.4,0.38076c0,0.50767 0,1.01535 0,1.52302c-3.04192,0.79984 -5.14192,-0.13073 -6.3,-2.79221c-0.41356,-0.99758 -0.74032,-2.01293 -0.98,-3.04605z" fill="#080808"/><path d="M272.93,228.38547c0.8078,-0.07767 1.55456,0.00685 2.24,0.25384c-0.36092,1.44789 -0.96768,2.80186 -1.82,4.0614c-1.40364,1.77559 -3.17688,2.19874 -5.32,1.26919c-0.38556,-1.23923 0.12796,-1.87383 1.54,-1.90378c0.97636,-1.34914 2.09636,-2.57594 3.36,-3.68064z" fill="#060606"/><path d="M249.69,248.18477c0.37767,-0.32923 0.75099,-0.28684 1.12,0.12692c-0.39998,0.14697 -0.7733,0.10458 -1.12,-0.12692z" fill="#8c8c8c"/></g></g></g></svg>