<svg version="1.1" xmlns="http://www.w3.org/2000/svg" xmlns:xlink="http://www.w3.org/1999/xlink" width="173.76278" height="288.56457" viewBox="0,0,173.76278,288.56457"><defs><linearGradient x1="286.68341" y1="124.2148" x2="286.68341" y2="208.52127" gradientUnits="userSpaceOnUse" id="color-1"><stop offset="0" stop-color="#000004"/><stop offset="1" stop-color="#000000"/></linearGradient><linearGradient x1="173.77715" y1="121.67195" x2="173.77715" y2="206.51378" gradientUnits="userSpaceOnUse" id="color-2"><stop offset="0" stop-color="#000004"/><stop offset="1" stop-color="#000000"/></linearGradient><linearGradient x1="252.25954" y1="139.83462" x2="252.25954" y2="224.67645" gradientUnits="userSpaceOnUse" id="color-3"><stop offset="0" stop-color="#000004"/><stop offset="1" stop-color="#000000"/></linearGradient><linearGradient x1="275.15934" y1="130.11189" x2="275.15934" y2="214.41836" gradientUnits="userSpaceOnUse" id="color-4"><stop offset="0" stop-color="#000004"/><stop offset="1" stop-color="#000000"/></linearGradient><linearGradient x1="208.72845" y1="139.52523" x2="208.72845" y2="223.8317" gradientUnits="userSpaceOnUse" id="color-5"><stop offset="0" stop-color="#000004"/><stop offset="1" stop-color="#000000"/></linearGradient><linearGradient x1="185.50915" y1="127.78624" x2="185.50915" y2="212.62807" gradientUnits="userSpaceOnUse" id="color-6"><stop offset="0" stop-color="#000004"/><stop offset="1" stop-color="#000000"/></linearGradient><linearGradient x1="183.26691" y1="125.73286" x2="183.26691" y2="210.03933" gradientUnits="userSpaceOnUse" id="color-7"><stop offset="0" stop-color="#000004"/><stop offset="1" stop-color="#000000"/></linearGradient><linearGradient x1="276.75324" y1="121.43009" x2="276.75324" y2="206.27192" gradientUnits="userSpaceOnUse" id="color-8"><stop offset="0" stop-color="#000004"/><stop offset="1" stop-color="#000000"/></linearGradient><linearGradient x1="299.65305" y1="111.70736" x2="299.65305" y2="196.01383" gradientUnits="userSpaceOnUse" id="color-9"><stop offset="0" stop-color="#000004"/><stop offset="1" stop-color="#000000"/></linearGradient><linearGradient x1="160.04762" y1="113.99387" x2="160.04762" y2="198.8357" gradientUnits="userSpaceOnUse" id="color-10"><stop offset="0" stop-color="#000004"/><stop offset="1" stop-color="#000000"/></linearGradient><linearGradient x1="229.85863" y1="30.62509" x2="229.85863" y2="205.45536" gradientUnits="userSpaceOnUse" id="color-11"><stop offset="0" stop-color="#000000"/><stop offset="1" stop-color="#38365f"/></linearGradient><linearGradient x1="228.73866" y1="176.23835" x2="244.00226" y2="307.3529" gradientUnits="userSpaceOnUse" id="color-12"><stop offset="0" stop-color="#000000"/><stop offset="1" stop-color="#666666"/></linearGradient><linearGradient x1="228.7478" y1="176.31678" x2="243.99315" y2="307.27449" gradientUnits="userSpaceOnUse" id="color-13"><stop offset="0" stop-color="#000000"/><stop offset="1" stop-color="#484556"/></linearGradient><linearGradient x1="227.53745" y1="76.60395" x2="227.53745" y2="197.20061" gradientUnits="userSpaceOnUse" id="color-14"><stop offset="0" stop-color="#1a1a1a"/><stop offset="1" stop-color="#808080"/></linearGradient><linearGradient x1="283.91819" y1="91.67628" x2="283.91819" y2="192.30174" gradientUnits="userSpaceOnUse" id="color-15"><stop offset="0" stop-color="#000000"/><stop offset="1" stop-color="#38365f"/></linearGradient><linearGradient x1="220.40916" y1="73.65909" x2="220.40916" y2="203.99313" gradientUnits="userSpaceOnUse" id="color-16"><stop offset="0" stop-color="#000000"/><stop offset="1" stop-color="#38365f"/></linearGradient><linearGradient x1="217.89757" y1="73.65909" x2="217.89757" y2="141.4396" gradientUnits="userSpaceOnUse" id="color-17"><stop offset="0" stop-color="#000000"/><stop offset="1" stop-color="#1d1c31"/></linearGradient></defs><g transform="translate(-141.04029,-22.63314)"><g data-paper-data="{&quot;isPaintingLayer&quot;:true}" fill-rule="nonzero" stroke-linejoin="miter" stroke-miterlimit="10" stroke-dasharray="" stroke-dashoffset="0" style="mix-blend-mode: normal"><g stroke-linecap="butt"><path d="M290.9961,174.78921c0.91137,-0.5293 0.91138,7.81809 -6.07478,9.65268c-2.03191,12.32917 10.69676,19.01112 15.6617,21.50343c2.10482,1.05659 -9.64663,2.79997 -13.29686,1.40211c-1.09609,-0.41975 -5.66291,-5.3905 -5.83177,-5.33754c-0.4743,0.04005 -0.93752,1.80846 -0.5316,3.21633c0.51208,1.77606 1.95685,3.27287 1.47511,3.29198c-14.90629,0.59136 -8.44814,-84.26844 -8.60608,-84.3028c-0.925,-0.20132 -3.86792,50.34658 17.20427,50.57378z" data-paper-data="{&quot;index&quot;:null}" fill="url(#color-1)" stroke="none" stroke-width="0"/><path d="M181.68818,121.67301c-0.15489,0.04614 12.6649,84.18023 -2.24366,84.71123c-0.48182,0.01716 0.84633,-1.58403 1.22344,-3.39356c0.29893,-1.43441 -0.29593,-3.16301 -0.7719,-3.16726c-0.17237,-0.04011 -4.35256,5.25991 -5.41399,5.76088c-3.53479,1.66833 -15.38406,0.81339 -13.36464,-0.39846c4.76352,-2.85855 16.95379,-10.47854 14.0007,-22.62005c-7.10432,-1.30416 -7.73188,-9.62793 -6.78329,-9.16865c20.99546,-1.81081 14.26056,-51.99438 13.35333,-51.7241z" data-paper-data="{&quot;index&quot;:null}" fill="url(#color-2)" stroke="none" stroke-width="0"/><path d="M260.17057,139.83568c-0.15489,0.04614 12.66491,84.18023 -2.24366,84.71123c-0.48182,0.01716 0.84633,-1.58403 1.22344,-3.39356c0.29893,-1.43441 -0.29593,-3.16301 -0.77189,-3.16726c-0.17237,-0.04011 -4.35256,5.25991 -5.41399,5.76088c-3.53479,1.66833 -15.38406,0.81339 -13.36464,-0.39846c4.76352,-2.85855 16.95379,-10.47854 14.0007,-22.62005c-7.10432,-1.30416 -7.73188,-9.62793 -6.78329,-9.16864c20.99546,-1.81081 14.26056,-51.99438 13.35333,-51.72411z" data-paper-data="{&quot;index&quot;:null}" fill="url(#color-3)" stroke="none" stroke-width="0"/><path d="M279.47204,180.6863c0.91137,-0.5293 0.91138,7.81809 -6.07478,9.65268c-2.03191,12.32917 10.69676,19.01112 15.6617,21.50343c2.10482,1.05659 -9.64663,2.79997 -13.29686,1.40211c-1.09609,-0.41975 -5.66292,-5.3905 -5.83178,-5.33754c-0.47429,0.04005 -0.93751,1.80846 -0.5316,3.21633c0.51208,1.77606 1.95685,3.27287 1.47511,3.29198c-14.9063,0.59136 -8.44814,-84.26844 -8.60608,-84.3028c-0.92499,-0.20132 -3.86792,50.34658 17.20427,50.57378z" data-paper-data="{&quot;index&quot;:null}" fill="url(#color-4)" stroke="none" stroke-width="0"/><path d="M213.04114,190.09965c0.91137,-0.5293 0.91138,7.81808 -6.07478,9.65267c-2.03191,12.32917 10.69677,19.01112 15.6617,21.50343c2.10482,1.05659 -9.64663,2.79997 -13.29686,1.40211c-1.0961,-0.41975 -5.66291,-5.3905 -5.83178,-5.33754c-0.47429,0.04005 -0.93751,1.80846 -0.53159,3.21633c0.51208,1.77606 1.95685,3.27287 1.47511,3.29198c-14.90629,0.59136 -8.44814,-84.26844 -8.60608,-84.3028c-0.925,-0.20132 -3.86791,50.34659 17.20427,50.57379z" data-paper-data="{&quot;index&quot;:null}" fill="url(#color-5)" stroke="none" stroke-width="0"/><path d="M193.42018,127.7873c-0.15489,0.04614 12.6649,84.18023 -2.24366,84.71123c-0.48182,0.01716 0.84633,-1.58403 1.22344,-3.39356c0.29893,-1.43441 -0.29593,-3.16301 -0.77189,-3.16726c-0.17237,-0.04011 -4.35256,5.25991 -5.41399,5.76088c-3.53479,1.66833 -15.38406,0.81339 -13.36464,-0.39846c4.76352,-2.85855 16.95379,-10.47854 14.0007,-22.62005c-7.10432,-1.30416 -7.73188,-9.62793 -6.78329,-9.16865c20.99546,-1.81081 14.26057,-51.99438 13.35333,-51.7241z" data-paper-data="{&quot;index&quot;:null}" fill="url(#color-6)" stroke="none" stroke-width="0"/><path d="M187.5796,176.30728c0.91137,-0.5293 0.91138,7.81808 -6.07478,9.65267c-2.03191,12.32917 10.69677,19.01112 15.6617,21.50343c2.10482,1.05659 -9.64663,2.79997 -13.29686,1.40211c-1.0961,-0.41975 -5.66291,-5.3905 -5.83177,-5.33754c-0.47429,0.04005 -0.93752,1.80846 -0.5316,3.21633c0.51208,1.77606 1.95685,3.27287 1.47511,3.29198c-14.90629,0.59136 -8.44814,-84.26844 -8.60608,-84.3028c-0.925,-0.20132 -3.86791,50.34659 17.20427,50.57379z" data-paper-data="{&quot;index&quot;:null}" fill="url(#color-7)" stroke="none" stroke-width="0"/><path d="M284.66427,121.43115c-0.15489,0.04614 12.66491,84.18023 -2.24366,84.71123c-0.48182,0.01716 0.84633,-1.58403 1.22344,-3.39356c0.29893,-1.43441 -0.29593,-3.16301 -0.7719,-3.16726c-0.17237,-0.04011 -4.35256,5.25991 -5.41399,5.76088c-3.53479,1.66833 -15.38406,0.81339 -13.36464,-0.39846c4.76352,-2.85855 16.95378,-10.47854 14.0007,-22.62005c-7.10432,-1.30416 -7.73188,-9.62793 -6.78329,-9.16864c20.99546,-1.81081 14.26057,-51.99438 13.35333,-51.72411z" data-paper-data="{&quot;index&quot;:null}" fill="url(#color-8)" stroke="none" stroke-width="0"/><path d="M303.96574,162.28177c0.91137,-0.5293 0.91138,7.81809 -6.07478,9.65268c-2.03191,12.32917 10.69677,19.01112 15.6617,21.50343c2.10482,1.05659 -9.64663,2.79997 -13.29686,1.40211c-1.09609,-0.41975 -5.66292,-5.3905 -5.83178,-5.33754c-0.47429,0.04005 -0.93751,1.80846 -0.53159,3.21633c0.51208,1.77606 1.95685,3.27287 1.47511,3.29198c-14.9063,0.59136 -8.44814,-84.26844 -8.60608,-84.3028c-0.92499,-0.20132 -3.86792,50.34658 17.20427,50.57378z" data-paper-data="{&quot;index&quot;:null}" fill="url(#color-9)" stroke="#000000" stroke-width="2"/><path d="M167.95865,113.99493c-0.15489,0.04614 12.6649,84.18023 -2.24366,84.71123c-0.48182,0.01716 0.84633,-1.58403 1.22344,-3.39356c0.29893,-1.43441 -0.29593,-3.16301 -0.7719,-3.16726c-0.17237,-0.04011 -4.35256,5.25991 -5.41399,5.76088c-3.53479,1.66833 -15.38406,0.81339 -13.36464,-0.39846c4.76352,-2.85855 16.95379,-10.47854 14.0007,-22.62005c-7.10432,-1.30416 -7.73188,-9.62793 -6.78329,-9.16865c20.99546,-1.81081 14.26056,-51.99438 13.35333,-51.7241z" data-paper-data="{&quot;index&quot;:null}" fill="url(#color-10)" stroke="#000000" stroke-width="2"/></g><path d="M147.51593,122.47899c0,0 11.19584,12.62254 13.35214,-3.21771c4.67523,-20.23318 7.34823,-34.03227 28.06475,-43.32359c6.17414,-2.76909 9.95134,-6.7433 29.6321,-3.35764c0.24144,0.04154 0.35692,0.05342 0.36286,0.03777c0.06961,-0.18337 -14.88819,-4.14551 -18.46139,-8.50348c-3.91011,-4.76888 -5.41845,-10.51999 -4.61095,-13.84526c6.53248,-18.81072 34.14034,-19.08391 36.01807,-19.48342c19.30974,-2.10832 45.48468,17.06325 4.92227,27.1663c-2.05566,0.51201 27.50938,-11.40873 -11.40892,-14.0594c-19.78575,2.60711 -27.68716,8.81808 -4.274,22.39772c6.74771,-0.59946 15.65379,-0.92751 16.56562,-1.61709c22.08812,2.63953 24.51248,6.58172 32.18506,11.3592c6.17518,3.8451 14.06649,10.52308 18.44144,19.63532c3.37192,7.0231 2.06955,16.50787 5.69805,23.52708c6.92091,13.38824 15.05593,2.03251 15.05593,2.03251c0,0 1.44682,8.76553 -1.41643,14.63621c-2.05695,4.21747 -7.30611,6.21507 -12.39886,5.78189c-0.11182,0.59282 -0.36027,10.08548 4.33635,12.21282c3.96083,1.79406 12.64871,-1.42264 12.64871,-1.42264c0,0 -14.65164,6.37914 -15.62705,10.57541c-1.7558,7.55362 19.13588,-1.13314 16.3392,1.26495c-1.37818,1.18175 -7.26428,5.56839 -12.77969,6.82385c-5.31453,1.20974 -10.28488,-0.70231 -10.54628,-0.03679c-3.49395,8.89536 -10.36285,18.18124 -10.36285,18.18124c0,0 -2.29192,-5.28642 -3.77673,-3.14158c-6.07718,8.77862 -11.2964,15.30957 -11.2964,15.30957c0,0 -2.40974,-4.97718 -4.47106,-3.86765c-9.32569,5.01966 -20.06286,7.91078 -31.65348,7.91078c-12.60656,0 -24.772,-3.56633 -35.27102,-9.52744c-2.72845,-1.54916 -0.82623,4.38789 -0.82623,4.38789c0,0 -7.93843,-5.19677 -13.15685,-11.00681c-6.08759,-6.77777 -9.73663,-14.57056 -12.13914,-18.68944c-0.34082,-0.58431 -4.01999,1.58785 -5.934,2.01254c-2.96082,0.65696 -4.48364,-0.08182 -4.48364,-0.08182c0,0 2.67098,-3.37669 3.55098,-5.15497c0.94364,-1.90688 1.93325,-5.92746 1.93325,-5.92746c0,0 -2.66402,1.90888 -4.05965,2.38502c-1.48595,0.50696 -4.60208,0.57008 -4.60208,0.57008c0,0 4.39229,-5.64339 5.74307,-11.5602c0.39327,-1.72262 4.12301,-9.97893 -0.21176,-9.96905c-17.00132,0.5205 -11.08139,-20.4147 -11.08139,-20.4147z" fill="url(#color-11)" stroke="#000000" stroke-width="0" stroke-linecap="butt"/><g stroke="#000000"><path d="M210.97533,311.19771l-0.20409,-132.70872l37.51155,-4.52583l28.74645,129.54494z" fill="url(#color-12)" stroke-width="0" stroke-linecap="butt"/><path d="M248.48707,217.65367l-0.25786,-28.15907" fill="none" stroke-width="2" stroke-linecap="round"/><path d="M210.9662,311.11927l-0.20408,-132.70872c0,0 10.14799,35.30678 27.04118,33.9844c22.26981,-2.4994 14.36488,-22.35217 14.36488,-22.35217l24.85191,113.38689z" fill="url(#color-13)" stroke-width="0" stroke-linecap="butt"/><path d="M256.18508,216.7575c0,0 -13.11408,3.77229 -18.72452,2.96518c-5.97127,-0.85902 -17.4624,-6.80653 -17.4624,-6.80653" fill="none" stroke-width="0.5" stroke-linecap="round"/><path d="M248.37809,223.2035c0,0 -4.5432,1.63216 -6.81224,1.46373c-2.12168,-0.15749 -6.38964,-2.44373 -6.38964,-2.44373" fill="none" stroke-width="1" stroke-linecap="round"/><path d="M243.84293,253.43068c0,0 -12.04475,-3.71335 -16.16463,-5.36142c-0.85617,-0.34249 -13.14037,-12.87226 -13.14037,-12.87226" fill="none" stroke-width="0.5" stroke-linecap="round"/><path d="M237.00552,255.23341c0,0 -8.65634,-1.63723 -12.21898,-3.00903c-3.4611,-1.3327 -8.86101,-5.10787 -8.86101,-5.10787" fill="none" stroke-width="1" stroke-linecap="round"/><path d="M215.18258,305.59469l55.18552,-5.92101" fill="none" stroke-width="1" stroke-linecap="round"/><path d="M265.64042,272.03496c0,0 -7.92035,2.67197 -11.71976,2.96395c-4.54708,0.34944 -13.72481,-1.00859 -13.72481,-1.00859" fill="none" stroke-width="0.5" stroke-linecap="round"/><path d="M256.05152,254.5263l9.205,-3.0851" fill="none" stroke-width="1" stroke-linecap="round"/><path d="M230.12359,269.62573l-5.4631,0.63599" fill="none" stroke-width="1" stroke-linecap="round"/><path d="M255.65258,294.3395c0,0 -15.64559,-2.39324 -22.61684,-5.28662c-6.58235,-2.73198 -18.11102,-11.61727 -18.11102,-11.61727" fill="none" stroke-width="1" stroke-linecap="round"/><path d="M257.30267,282.56973c0,0 -12.39356,1.1466 -18.1272,0.19536c-5.55295,-0.92125 -15.74996,-5.81573 -15.74996,-5.81573" fill="none" stroke-width="1" stroke-linecap="round"/><path d="M226.96275,298.68616c0,0 -3.86083,-1.17308 -5.24439,-2.47501c-1.59988,-1.50547 -3.80047,-6.0362 -3.80047,-6.0362" fill="none" stroke-width="1" stroke-linecap="round"/></g><path d="M163.30043,136.90228c0,-33.30185 28.7599,-60.29833 64.23702,-60.29833c35.47712,0 64.23702,26.99649 64.23702,60.29833c0,33.30185 -28.7599,60.29833 -64.23702,60.29833c-35.47712,0 -64.23702,-26.99649 -64.23702,-60.29833z" fill="url(#color-14)" stroke="#000000" stroke-width="0" stroke-linecap="butt"/><g fill="none" stroke="#000000" stroke-width="2" stroke-linecap="round"><path d="M176.83745,138.70226l-3.6,-2.6"/><path d="M277.63744,138.50227l4.2,-3.4"/></g><path d="M176.85064,137.33175c0,-12.968 10.51265,-23.48065 23.48065,-23.48065c12.968,0 23.48065,10.51265 23.48065,23.48065c0,12.968 -10.51265,23.48065 -23.48065,23.48065c-12.968,0 -23.48065,-10.51265 -23.48065,-23.48065z" fill="#808080" stroke="#000000" stroke-width="0" stroke-linecap="butt"/><path d="M239.83176,165.98422c16.57734,-0.52251 18.30332,12.19264 18.30332,12.19264l-41.68696,8.74255c0,0 5.30202,-20.36526 23.38364,-20.93519z" data-paper-data="{&quot;index&quot;:null}" fill="#1a164d" stroke="#000000" stroke-width="2" stroke-linecap="round"/><path d="M254.58975,160.81238c-12.968,0 -23.48065,-10.51265 -23.48065,-23.48065c0,-12.968 10.51265,-23.48065 23.48065,-23.48065c12.968,0 23.48065,10.51265 23.48065,23.48065c0,12.968 -10.51265,23.48065 -23.48065,23.48065z" data-paper-data="{&quot;index&quot;:null}" fill="#808080" stroke="#000000" stroke-width="0" stroke-linecap="butt"/><path d="M189.48831,108.52329c0,0 6.70895,-5.16922 11.79721,-6.36355c5.08827,-1.19433 12.33413,0.69937 12.33413,0.69937c0,0 -8.03812,-0.06028 -11.96762,0.86207c-4.10648,0.96389 -12.16372,4.80211 -12.16372,4.80211z" fill="#000000" stroke="none" stroke-width="0" stroke-linecap="butt"/><path d="M253.42285,103.72119c-3.9295,-0.92235 -11.96762,-0.86207 -11.96762,-0.86207c0,0 7.24586,-1.8937 12.33413,-0.69937c5.08826,1.19433 11.79721,6.36355 11.79721,6.36355c0,0 -8.05724,-3.83822 -12.16372,-4.80211z" data-paper-data="{&quot;index&quot;:null}" fill="#000000" stroke="none" stroke-width="0" stroke-linecap="butt"/><path d="" fill="#4e45f0" stroke="#4e45f0" stroke-width="3" stroke-linecap="butt"/><path d="M275.06344,91.67629c1.94542,3.31208 13.30214,21.61554 14.803,29.05692c3.80083,18.84496 1.41236,29.67296 0.60814,29.9965c-0.13731,0.05523 12.33246,38.53508 -1.21662,40.29321c-0.43788,0.05681 0.63677,-1.51377 0.82647,-3.19263c0.15037,-1.33082 -0.53932,-2.85289 -0.9737,-2.81607c-0.16059,-0.02177 -3.52074,5.15851 -4.44592,5.70514c-3.08106,1.82039 -13.9586,2.05575 -12.22044,0.78032c4.10006,-3.00852 14.56651,-10.98488 10.83934,-21.78062c-6.58915,-0.5792 -7.87055,-8.0998 -6.96644,-7.76299c18.99036,-3.44324 2.68427,-40.99672 -0.16727,-44.89429c-0.46685,-0.63811 -1.66295,-24.67615 -1.08655,-25.3855z" data-paper-data="{&quot;index&quot;:null}" fill="url(#color-15)" stroke="#000000" stroke-width="0" stroke-linecap="butt"/><path d="M164.05278,114.84589c8.36275,-23.98087 26.81845,-36.89256 55.752,-40.48579c23.97968,-2.97802 40.02065,4.08001 49.4904,10.86178c18.81735,13.04357 6.776,33.17238 6.776,33.17238c0,0 -2.64406,-9.38057 -14.63848,-16.93396c-15.49348,-9.75688 -15.29752,-8.5427 -15.29752,-8.5427c0,0 4.737,1.31536 -2.33929,20.86135c-2.43643,5.8766 -12.98337,15.54054 -17.84124,17.1923c-1.74389,-4.47867 2.28779,-22.48795 -25.30746,-32.66094c-6.65443,13.09985 -19.81626,11.41712 -27.32035,30.79209c-2.4202,14.67896 -4.64148,57.19625 17.39328,38.58904c0.78593,-0.55959 0.72874,12.68505 -10.63841,14.11816c-0.03966,0.56314 -0.04761,1.11064 -0.02632,1.64289c0.40945,10.23571 11.63407,14.8328 16.13939,16.58501c2.00929,0.78146 -8.55769,3.3728 -12.00522,2.41298c-1.03523,-0.28822 -5.62294,-4.42085 -5.77243,-4.35822c-0.42907,0.07699 -0.70079,1.72579 -0.2107,2.9722c0.61825,1.57236 2.06319,2.81082 1.62554,2.86943c-13.54185,1.81284 -11.4692,-38.58389 -11.61613,-38.60167c-0.8606,-0.10408 -5.97332,-9.94332 -7.18554,-29.12951c-0.65329,-10.33962 3.02251,-21.35686 3.02251,-21.35686z" fill="url(#color-16)" stroke="#000000" stroke-width="0" stroke-linecap="butt"/><path d="M164.05278,114.84589c8.36275,-23.98087 26.81845,-36.89256 55.752,-40.48579c23.97968,-2.97802 40.02065,4.08001 49.4904,10.86178c1.65267,1.14557 3.55907,3.20591 5.54746,5.81139c-2.4915,1.8102 -4.8715,3.70173 -7.22935,5.49218l-0.72346,-0.31389l-0.74013,-0.48233l-0.02524,-0.02387l-0.0832,-0.0468l-0.4982,-0.32467l-0.20448,-0.07063l-0.16978,-0.09551l-0.18486,-0.54243l-1.16488,-0.54225l-0.95653,-0.85793l-0.76249,0.05773l-1.6329,-0.76011l-0.25991,-0.14622l-0.60156,-0.46145l-0.03624,-0.10632l-0.26039,-0.12121l-0.22109,-0.16959l-2.10789,-0.91454l-2.08309,-0.96968l-0.27359,-0.05281l-0.31791,-0.13794l-0.26416,-0.12296l-1.44678,-1.29763l-0.49748,0.03766l-0.68402,-0.44577l-0.44005,-0.152l-0.06799,-0.08941l-0.28535,-0.03265l-0.26337,-0.09097l-2.28893,-0.20105l-1.20064,-0.13737l-0.42388,-0.19732l-1.55248,-0.29969l-1.60514,0.08722l-1.09414,-0.12518l-0.34033,-0.0657l-0.15855,0.00862l-0.00404,-0.00047l-0.00881,0.00116l-0.45955,0.02497l-0.60153,-0.19355l-2.54391,-0.16901l-0.89522,0.16165l-0.09622,-0.03097l-0.93813,-0.06232l-0.04017,-0.00459l-0.00973,0.00128l-1.55588,-0.10337l-0.98016,0.17698l-0.98956,-0.11323l-11.4111,1.50415l-1.55588,-0.10337l-0.98016,0.17698l-0.98956,-0.11323l-18.68589,2.46308l-0.1008,-0.04956l-0.26982,0.0984l-0.27625,0.03641l-2.13717,0.84381l-1.18213,0.43115l-0.19944,-0.02713l-0.23229,0.18458l-0.54476,0.19868l-0.2308,0.15611l-0.26715,0.10548l-0.04251,0.10398l-0.38563,0.26083l-1.07333,1.19668l-0.58529,0.46509l-0.12821,0.08672l-0.04734,0.05278l-0.49768,0.39548l-0.14307,0.18651l-0.34731,0.06554l-1.08229,1.66072l-0.49973,0.55718l-0.13946,0.02632l-0.30787,0.4724l-0.37649,0.41975l0.01072,0.14152l-0.73878,1.13363l-1.47508,2.12517l0.03045,0.15023l-0.21545,0.62377c-1.10695,0.81373 -2.10715,1.60762 -2.90867,2.21862c-2.07521,1.58193 -12.2154,14.44077 -12.90487,15.71854c-2.81983,5.22581 -3.31402,7.94005 -5.5811,13.86629c-0.45343,1.18528 -1.62437,4.34124 -2.59027,7.59898c-0.17964,-1.66031 -0.33083,-3.40608 -0.44651,-5.23696c-0.65329,-10.33962 3.02251,-21.35686 3.02251,-21.35686z" fill="url(#color-17)" stroke="#4e45f0" stroke-width="0" stroke-linecap="butt"/><path d="M224.16709,68.17659l7.82641,10.10393l17.18076,-0.06413l-10.99488,11.08422l5.96645,13.80768l-16.17269,-6.05765l-14.05058,10.04153l2.18471,-14.88213l-13.49156,-7.85654l16.61052,-4.39006z" fill="#e21d29" stroke="#000000" stroke-width="0" stroke-linecap="butt"/><g stroke-width="0" stroke-linecap="butt"><path d="M156.77256,29.68124l12.60903,-4.43389l6.58828,8.69002l-8.23439,6.44079l19.14621,0.47038l1.41313,13.14835l-20.52155,0.29386l8.75227,8.36882l-6.96019,8.32254l-8.16641,-1.84854l-18.00526,-17.84838l-0.37308,-7.02551z" data-paper-data="{&quot;index&quot;:null}" fill="#ffffff" stroke="none"/><path d="M166.16231,27.42844c2.08182,-0.93705 3.61294,0.90329 4.7276,2.258c1.15381,1.40229 3.14377,5.26032 3.14377,5.26032c0,0 -8.22,3.68792 -7.36682,5.51382c0.42208,0.9033 10.3287,0.86266 16.66678,1.19914c1.78674,0.09486 3.1675,3.97078 3.24278,5.70261c0.19072,4.38823 -0.76145,5.70991 -2.92525,6.01557c-2.60982,0.36867 -17.15223,-1.28536 -17.99305,0.11543c-0.51636,0.86023 9.07135,8.89978 9.07135,8.89978c0,0 -3.31334,3.72089 -4.75378,4.9079c-1.12792,0.92947 -2.81211,1.81564 -3.78813,1.37149c-1.46517,-0.66673 -21.23835,-12.32336 -21.01541,-21.53284c0.21851,-9.02573 19.3258,-18.96208 20.99014,-19.71123z" data-paper-data="{&quot;index&quot;:null}" fill="#c24b99" stroke="#ffffff"/><path d="M167.15455,22.8305c2.56398,-1.14167 4.63015,2.97103 6.00318,4.62203c1.42124,1.70898 5.27761,6.80295 3.72309,8.1827c-2.78299,2.47012 -3.96493,3.4339 -3.96493,3.4339c0,0 4.77056,-0.30363 12.57959,-0.15649c3.87075,0.07295 5.15709,5.07972 5.34059,7.18422c0.51508,5.90759 -0.60054,9.57481 -3.19952,10.2573c-2.9882,0.7847 -15.54885,0.36425 -15.54885,0.36425c0,0 3.90937,2.82255 5.54285,5.58137c1.52334,2.57278 -4.25989,7.71889 -6.03387,9.16522c-1.38908,1.13254 -3.91852,2.20826 -5.12069,1.66692c-1.80468,-0.81266 -25.70693,-14.73032 -25.43337,-25.95297c0.26811,-10.99874 24.0621,-23.43571 26.1119,-24.34842zM144.10787,47.15786c-0.04879,10.33514 21.35752,23.17462 22.78701,23.13137c2.70917,-0.08196 8.14086,-6.85398 8.14086,-6.85398c0,0 -10.03533,-8.40475 -8.851,-9.22003c1.83053,-1.2601 16.93154,-0.23328 19.63761,-0.54756c2.88847,-0.33549 1.88578,-10.61721 -0.12038,-11.87328c-1.37955,-0.86374 -18.47214,0.06027 -19.36261,-1.09655c-1.28956,-1.67528 8.66197,-6.61266 8.66197,-6.61266c0,0 -5.00766,-7.69948 -6.91454,-8.20155c-2.07643,-0.54672 -23.93263,11.46314 -23.97896,21.27426z" data-paper-data="{&quot;index&quot;:null}" fill="#481145" stroke="#1542b7"/></g><g fill="#000000" stroke="#000000" stroke-width="2" stroke-linecap="butt"><path d="M219.16728,152.17569c-19.91597,15.94693 -31.60956,4.62667 -36.27597,0.39768c0,0 7.20137,0.15176 17.31554,-0.18738c7.91514,-0.2654 19.35824,-1.21901 18.96043,-0.2103z" data-paper-data="{&quot;index&quot;:null}"/><path d="M272.18358,152.63279c-4.66641,4.22899 -16.36001,15.54924 -36.27598,-0.39768c-0.4372,-1.10859 9.49217,0.44514 18.33394,0.79767c9.48379,0.37813 17.94204,-0.39999 17.94204,-0.39999z" data-paper-data="{&quot;index&quot;:null}"/><path d="M177.40899,133.31313c-5,-6.968 23.42478,-34.07989 42.48065,-9.48065c0.53655,0.69263 -6.98634,3.78598 -16.40711,5.92907c-12.58922,3.8984 -26.57355,3.84626 -26.57355,3.05158z"/><path d="M277.05345,132.81313c0,0.79468 -13.98433,0.84682 -26.57355,-3.05158c-9.42077,-2.14309 -16.94366,-5.23644 -16.40711,-5.92907c19.05587,-24.59924 47.48065,2.51265 42.48065,9.48065z" data-paper-data="{&quot;index&quot;:null}"/></g><g fill="#003300" stroke="none" stroke-width="0" stroke-linecap="butt"><path d="M180.49074,138.70227c0,-2.62336 2.12665,-4.75001 4.75,-4.75001c2.62336,0 4.75,2.12666 4.75,4.75001c0,2.62336 -2.12665,4.75 -4.75,4.75c-2.62336,0 -4.75,-2.12665 -4.75,-4.75z"/><path d="M235.74919,138.70227c0,-2.62336 2.12664,-4.75001 4.75,-4.75001c2.62336,0 4.75,2.12666 4.75,4.75001c0,2.62336 -2.12665,4.75 -4.75,4.75c-2.62336,0 -4.75,-2.12665 -4.75,-4.75z"/></g><g fill="none" stroke="#ffffff" stroke-width="1" stroke-linecap="butt"><path d="M246.92928,70.38514l-6.13572,0.19016l-12.16007,-16.56352l-0.97957,2.17768"/><path d="M255.55173,91.67087l4.2085,-4.52546l-3.2718,-4.15523l2.51573,-3.11841l-3.55076,-3.72152l4.39901,-3.15921" data-paper-data="{&quot;index&quot;:null}"/><path d="M208.28064,74.39826l3.38701,-2.52008l-3.55904,-3.76141l3.44259,-2.36558" data-paper-data="{&quot;index&quot;:null}"/><path d="M212.27882,117.04204l0.14014,2.38374l17.26005,-11.14935l5.66604,2.36203" data-paper-data="{&quot;index&quot;:null}"/></g></g></g></svg>