<svg version="1.1" xmlns="http://www.w3.org/2000/svg" xmlns:xlink="http://www.w3.org/1999/xlink" width="160.60694" height="354.30193" viewBox="0,0,160.60694,354.30193"><defs><linearGradient x1="179.05514" y1="89.57444" x2="199.99976" y2="82.84224" gradientUnits="userSpaceOnUse" id="color-1"><stop offset="0" stop-color="#ffffff"/><stop offset="1" stop-color="#e2e2e2"/></linearGradient></defs><g transform="translate(-152.10867,-12.13193)"><g data-paper-data="{&quot;isPaintingLayer&quot;:true}" fill-rule="nonzero" stroke-linecap="butt" stroke-linejoin="miter" stroke-miterlimit="10" stroke-dasharray="" stroke-dashoffset="0" style="mix-blend-mode: normal"><path d="M207.03581,310.3019l8.66278,-132l37.78325,0.15789l20.05396,131.8421z" data-paper-data="{&quot;index&quot;:null}" fill="#fff1a4" stroke="#000000" stroke-width="2"/><path d="M255.6745,206.91457c0,0 -6.99398,4.42465 -19.47856,4.14586c-14.04361,-0.31361 -21.55904,-4.50964 -21.55904,-4.50964l2.08542,-26.1059l35.83075,0.14203l3.80334,26.32765z" data-paper-data="{&quot;index&quot;:null}" fill="#caaa81" stroke="#000000" stroke-width="0"/><path d="M169.66807,159.86742l-16.20026,-12.09022l17.6387,-26.37528z" data-paper-data="{&quot;index&quot;:null}" fill="#fff1a4" stroke="#000000" stroke-width="2"/><path d="M293.71778,121.40193l17.63869,26.37527l-16.20025,12.09021z" data-paper-data="{&quot;index&quot;:null}" fill="#fff1a4" stroke="#000000" stroke-width="2"/><path d="M285.47068,17.21977c0,0 0.785,50.53324 2.41568,70.58749c1.13292,13.9325 6.43112,38.21054 6.43112,38.21054c-7.46558,-1.40108 -59.4538,-43.22819 -59.4538,-43.22819c0,0 15.66425,-27.68938 24.50626,-39.14569c7.92676,-10.2705 26.10077,-26.4242 26.10077,-26.4242z" data-paper-data="{&quot;index&quot;:null}" fill="#fff1a4" stroke="#000000" stroke-width="2"/><path d="M178.58544,17.09473c0,0 18.17401,16.1537 26.10077,26.4242c8.84201,11.45631 24.50626,39.14569 24.50626,39.14569c0,0 -51.98822,41.82711 -59.4538,43.22819c0,0 5.2982,-24.27803 6.43112,-38.21054c1.63068,-20.05425 2.41567,-70.5875 2.41567,-70.5875z" data-paper-data="{&quot;index&quot;:null}" fill="#fff1a4" stroke="#000000" stroke-width="2"/><path d="M281.93155,27.71978c0,0 0.73302,50.53324 2.25571,70.58749c1.0579,13.9325 6.00523,38.21054 6.00523,38.21054c-6.97119,-1.40108 -55.51658,-43.22819 -55.51658,-43.22819c0,0 14.62691,-27.68938 22.88337,-39.14569c7.40183,-10.2705 24.3723,-26.4242 24.3723,-26.4242z" data-paper-data="{&quot;index&quot;:null}" fill="#caaa81" stroke="#000000" stroke-width="2"/><path d="M182.12464,27.59473c0,0 16.97048,16.1537 24.3723,26.4242c8.25646,11.45631 22.88337,39.14569 22.88337,39.14569c0,0 -48.5454,41.82711 -55.51658,43.22819c0,0 4.94734,-24.27803 6.00523,-38.21054c1.52269,-20.05425 2.2557,-70.5875 2.2557,-70.5875z" data-paper-data="{&quot;index&quot;:null}" fill="#caaa81" stroke="#000000" stroke-width="2"/><path d="M232.65589,199.94643c-35.47712,0 -64.23702,-26.99648 -64.23702,-60.29833c0,-33.30184 28.7599,-60.29833 64.23702,-60.29833c35.47712,0 64.23702,26.99648 64.23702,60.29833c0,33.30184 -28.7599,60.29833 -64.23702,60.29833z" data-paper-data="{&quot;index&quot;:null}" fill="#fff1a4" stroke="#000000" stroke-width="2"/><path d="M259.29393,163.55819c-12.968,0 -23.48065,-10.51265 -23.48065,-23.48065c0,-12.968 10.51265,-23.48065 23.48065,-23.48065c12.968,0 23.48065,10.51265 23.48065,23.48065c0,12.968 -10.51265,23.48065 -23.48065,23.48065z" data-paper-data="{&quot;index&quot;:null}" fill="#ffffff" stroke="#000000" stroke-width="2"/><path d="M252.86689,157.01241c-9.12807,0 -16.52784,-7.39976 -16.52784,-16.52784c0,-9.12807 7.39976,-16.52784 16.52784,-16.52784c9.12807,0 16.52783,7.39976 16.52783,16.52784c0,9.12807 -7.39975,16.52784 -16.52783,16.52784z" data-paper-data="{&quot;index&quot;:null}" fill="#000000" stroke="none" stroke-width="0"/><path d="M181.55494,140.07754c0,-12.968 10.51265,-23.48065 23.48065,-23.48065c12.968,0 23.48065,10.51265 23.48065,23.48065c0,12.968 -10.51265,23.48065 -23.48065,23.48065c-12.968,0 -23.48065,-10.51265 -23.48065,-23.48065z" data-paper-data="{&quot;index&quot;:null}" fill="#ffffff" stroke="#000000" stroke-width="2"/><path d="M181.96449,140.48458c0,-9.12807 7.39976,-16.52784 16.52783,-16.52784c9.12806,0 16.52783,7.39976 16.52783,16.52784c0,9.12807 -7.39976,16.52784 -16.52783,16.52784c-9.12806,0 -16.52783,-7.39976 -16.52783,-16.52784z" data-paper-data="{&quot;index&quot;:null}" fill="#000000" stroke="none" stroke-width="0"/><path d="M257.97319,106.46699c-3.9295,-0.92235 -11.96762,-0.86207 -11.96762,-0.86207c0,0 7.24586,-1.8937 12.33413,-0.69937c5.08826,1.19433 11.79721,6.36355 11.79721,6.36355c0,0 -8.05724,-3.83822 -12.16372,-4.80211z" data-paper-data="{&quot;index&quot;:null}" fill="#000000" stroke="none" stroke-width="0"/><path d="M194.03877,111.26911c0,0 6.70895,-5.16922 11.79721,-6.36355c5.08827,-1.19433 12.33413,0.69937 12.33413,0.69937c0,0 -8.03812,-0.06028 -11.96762,0.86207c-4.10648,0.96389 -12.16372,4.80211 -12.16372,4.80211z" data-paper-data="{&quot;index&quot;:null}" fill="#000000" stroke="none" stroke-width="0"/><path d="M282.82023,140.06694c0,1.23155 -46.96131,0 -46.96131,0c0,-12.968 10.51265,-23.48065 23.48065,-23.48065c12.968,0 23.48065,10.51265 23.48065,23.48065z" data-paper-data="{&quot;index&quot;:null}" fill="#fff1a4" stroke="#000000" stroke-width="2"/><path d="M228.35111,140.06694c0,0 -46.96131,1.2138 -46.96131,0c0,-12.968 10.51265,-23.48065 23.48065,-23.48065c12.968,0 23.48065,10.51265 23.48065,23.48065z" data-paper-data="{&quot;index&quot;:null}" fill="#fff1a4" stroke="#000000" stroke-width="2"/><path d="M252.07178,179.31694l26.71935,-9.35879l-3.21053,7.03375z" data-paper-data="{&quot;index&quot;:null}" fill="#000000" stroke="#000000" stroke-width="2"/><path d="M273.50649,310.3019l-0.66011,55.06235l-61.29109,-4.17689l-4.54879,-50.88547z" fill="#fff1a4" stroke="#000000" stroke-width="2"/><path d="M180.13449,98.63031c2.2676,-2.89337 -0.5999,-4.74567 -0.28802,-8.14974c0.68418,-7.46741 2.13908,-16.04352 4.04799,-14.54746c0.07709,0.06042 0.73903,-5.09059 2.46491,-5.77659c1.27026,-0.5049 3.75617,3.47122 5.35774,3.19808c1.07009,-0.1825 1.94182,-0.25308 3.08536,-0.13128c5.02084,0.53476 9.62839,4.99025 12.40008,6.80224c1.84622,1.20695 1.35495,-1.06871 5.12261,-0.70826c5.69794,0.54512 -2.43296,13.64553 -2.19377,14.35071c1.56109,4.60231 -9.35252,7.32376 -12.85215,12.75853c-1.77827,2.76158 -0.26187,-0.54553 -4.61522,1.0539c-2.09809,0.77085 -7.66944,9.63808 -10.25714,12.06526c-2.35626,2.2101 -1.80173,-2.01184 -2.43762,-1.20048c-4.09657,5.22705 3.0326,-7.29317 -0.50125,-5.10999c-2.71336,1.67629 -10.3629,16.28636 -11.56994,15.34036c-2.77909,-2.17804 4.99442,-20.70479 12.23642,-29.94527z" fill="#000000" stroke="#000000" stroke-width="2"/><path d="M199.99976,82.84224c0.63377,1.97172 -4.54108,4.32717 -10.32478,6.18621c-5.7837,1.85904 -8.98608,2.01771 -9.61985,0.04599c-0.63377,-1.97172 1.54108,-6.82717 7.32478,-8.68621c5.7837,-1.85904 11.98608,0.48229 12.61984,2.45401z" fill="url(#color-1)" stroke="none" stroke-width="0"/><path d="M189.23108,86.95475c-1.03335,-4.65002 -0.61905,-8.69783 0.92534,-9.04103c1.54439,-0.3432 3.63405,3.14818 4.66739,7.7982c1.03334,4.65003 0.61905,8.69783 -0.92534,9.04103c-1.54438,0.3432 -3.63405,-3.14817 -4.66739,-7.79819z" fill="#000000" stroke="none" stroke-width="0"/></g></g></svg>