<svg version="1.1" xmlns="http://www.w3.org/2000/svg" xmlns:xlink="http://www.w3.org/1999/xlink" width="164.693" height="262.32513" viewBox="0,0,164.693,262.32513"><g transform="translate(-150.95142,-45.17077)"><g data-paper-data="{&quot;isPaintingLayer&quot;:true}" fill-rule="nonzero" stroke-linecap="butt" stroke-linejoin="miter" stroke-miterlimit="10" stroke-dasharray="" stroke-dashoffset="0" style="mix-blend-mode: normal"><path d="M304.95395,141.84633c4.52828,25.04656 -1.87135,35.60927 -1.87135,35.60927c0,0 -13.25217,-20.78821 -21.51016,-31.55989c-8.53734,-11.13607 -28.90371,-34.19976 -28.90371,-34.19976l30.85554,-18.54552c0,0 16.42003,20.98676 21.42968,48.69589z" data-paper-data="{&quot;index&quot;:null}" fill="#b3946b" stroke="#000000" stroke-width="2"/><path d="M188.11049,98.31517l32.67712,15.1065c0,0 -17.75779,25.12733 -25.04317,37.1199c-7.047,11.60014 -17.97779,33.69737 -17.97779,33.69737c0,0 -7.50241,-9.81019 -5.7042,-35.19921c1.98936,-28.08799 16.04806,-50.72456 16.04806,-50.72456z" data-paper-data="{&quot;index&quot;:null}" fill="#b3946b" stroke="#000000" stroke-width="2"/><path d="M293.61558,188.03834c-7.72204,24.25296 -18.32144,30.59161 -18.32144,30.59161c0,0 -1.9804,-24.57331 -4.23595,-37.95748c-2.33187,-13.83694 -9.53391,-43.75102 -9.53391,-43.75102l35.94737,-1.94583c0,0 4.68686,26.23157 -3.85607,53.06272z" data-paper-data="{&quot;index&quot;:null}" fill="#b3946b" stroke="#000000" stroke-width="2"/><path d="M177.49038,141.47019l35.94737,-1.94583c0,0 -3.93093,30.51672 -4.75557,44.52451c-0.79765,13.54944 -0.11395,38.19294 -0.11395,38.19294c0,0 -11.22169,-5.15749 -21.51656,-28.43518c-11.38926,-25.75223 -9.56131,-52.33644 -9.56131,-52.33644z" fill="#b3946b" stroke="#000000" stroke-width="2"/><path d="M206.50613,306.49589l15.14285,-131.8421l37.78325,-0.15789l13.57389,132z" fill="#e6be8a" stroke="#000000" stroke-width="2"/><path d="M219.45636,203.10852l3.12142,-26.32765l35.83075,-0.14203l2.76735,26.1059c0,0 -7.51543,4.19603 -21.55904,4.50964c-12.48458,0.27879 -20.16049,-4.14586 -20.16049,-4.14586z" fill="#cca97a" stroke="#000000" stroke-width="0"/><path d="M173.42802,141.50241c-1.79999,-33.25317 25.45869,-61.76468 60.88395,-63.68225c35.42526,-1.91757 65.6023,23.48496 67.40229,56.73812c1.79999,33.25317 -25.45869,61.76468 -60.88395,63.68225c-35.42526,1.91757 -65.6023,-23.48496 -67.40229,-56.73812z" fill="#e6be8a" stroke="#000000" stroke-width="2"/><path d="M174.15293,141.51708c-0.03935,-0.72693 8.22154,55.55622 66.34518,53.42638c55.53471,-2.03497 60.28832,-61.30138 60.34339,-60.28402c1.77312,32.75684 -25.14969,60.84664 -60.13376,62.74032c-34.98407,1.89368 -64.78169,-23.12584 -66.55481,-55.88268z" fill="#cca97a" stroke="#000000" stroke-width="0"/><path d="M186.98163,141.19886c-0.70093,-12.94904 9.22813,-24.01454 22.17718,-24.71547c12.94904,-0.70093 24.01454,9.22813 24.71547,22.17718c0.70093,12.94904 -9.22813,24.01454 -22.17718,24.71547c-12.94904,0.70093 -24.01454,-9.22813 -24.71547,-22.17718z" fill="#ffffff" stroke="#000000" stroke-width="2"/><path d="M189.60513,141.54174c-0.49338,-9.11474 6.4956,-16.90364 15.61033,-17.39702c9.11474,-0.49338 16.90364,6.49561 17.39702,15.61034c0.49338,9.11474 -6.49561,16.90364 -15.61034,17.39702c-9.11474,0.49338 -16.90363,-6.49561 -17.39701,-15.61034z" fill="#000000" stroke="none" stroke-width="0"/><path d="M265.87623,160.44331c-12.94904,0.70093 -24.01454,-9.22813 -24.71547,-22.17718c-0.70093,-12.94904 9.22813,-24.01454 22.17718,-24.71547c12.94904,-0.70093 24.01454,9.22813 24.71547,22.17718c0.70093,12.94904 -9.22813,24.01454 -22.17718,24.71547z" data-paper-data="{&quot;index&quot;:null}" fill="#ffffff" stroke="#000000" stroke-width="2"/><path d="M260.95645,153.98153c-9.11473,0.49338 -16.90363,-6.49561 -17.39701,-15.61034c-0.49338,-9.11474 6.49561,-16.90364 15.61033,-17.39702c9.11473,-0.49338 16.90363,6.49561 17.39701,15.61034c0.49338,9.11474 -6.49561,16.90364 -15.61033,17.39702z" data-paper-data="{&quot;index&quot;:null}" fill="#000000" stroke="none" stroke-width="0"/><path d="M198.04371,111.74942c0,0 6.41974,-5.52429 11.43601,-6.9919c5.01628,-1.46761 12.3539,0.03168 12.3539,0.03168c0,0 -8.02963,0.37427 -11.90353,1.50767c-4.04838,1.18444 -11.88638,5.45255 -11.88638,5.45255z" fill="#000000" stroke="none" stroke-width="0"/><path d="M261.62519,103.49863c-3.97361,-0.70861 -11.99672,-0.21395 -11.99672,-0.21395c0,0 7.13291,-2.28258 12.2783,-1.36502c5.14538,0.91756 12.12392,5.7166 12.12392,5.7166c0,0 -8.25292,-3.39711 -12.4055,-4.13763z" data-paper-data="{&quot;index&quot;:null}" fill="#000000" stroke="none" stroke-width="0"/><path d="M241.16034,138.25859c-0.70093,-12.94905 9.22812,-24.01454 22.17718,-24.71547c12.94905,-0.70093 24.01455,9.22812 24.71548,22.17718c0.03276,0.60517 -6.13192,-17.11186 -23.79913,-15.5294c-13.5566,0.2984 -20.68126,11.96821 -22.75869,16.40042c-0.48954,1.04444 -0.33485,1.66727 -0.33485,1.66727z" data-paper-data="{&quot;index&quot;:null}" fill="#e6be8a" stroke="#000000" stroke-width="2"/><path d="M186.82528,141.19974c-0.70093,-12.94905 9.22812,-24.01454 22.17718,-24.71547c12.94905,-0.70093 24.01455,9.22812 24.71548,22.17718c0.03276,0.60517 -6.13192,-17.11186 -23.79913,-15.5294c-13.5566,0.2984 -20.68126,11.96821 -22.75869,16.40042c-0.48954,1.04444 -0.33485,1.66727 -0.33485,1.66727z" data-paper-data="{&quot;index&quot;:null}" fill="#e6be8a" stroke="#000000" stroke-width="2"/><path d="M176.63832,106.15235c-3.13953,-29.20927 -1.44381,-52.94241 49.82789,-58.85476c58.40614,-6.73505 58.0576,17.71209 61.19713,46.92135c0,0 -110.89523,13.14094 -111.02502,11.93341z" fill="#804400" stroke="#000000" stroke-width="2"/><path d="M152.54864,113.61307l3.48919,-8.08586l154.6451,-16.28662l3.4351,7.00635z" fill="#804400" stroke="#000000" stroke-width="2"/><path d="M244.8073,182.63071c0.52611,3.80417 -1.30893,7.20082 -4.09864,7.58664c-2.78972,0.38581 -5.47773,-2.38531 -6.00384,-6.18948c-0.52611,-3.80417 1.30893,-7.20082 4.09864,-7.58664c2.78972,-0.38581 5.47773,2.38532 6.00384,6.18948z" fill="#000000" stroke="none" stroke-width="0"/></g></g></svg>