<svg version="1.1" xmlns="http://www.w3.org/2000/svg" xmlns:xlink="http://www.w3.org/1999/xlink" width="34.67311" height="34.67311" viewBox="0,0,34.67311,34.67311"><defs><radialGradient cx="237.24901" cy="175.01098" r="12.53722" gradientUnits="userSpaceOnUse" id="color-1"><stop offset="0" stop-color="#b4c6fe"/><stop offset="1" stop-color="#6993fe"/></radialGradient><linearGradient x1="240.00001" y1="167.36841" x2="240.00001" y2="192.44286" gradientUnits="userSpaceOnUse" id="color-2"><stop offset="0" stop-color="#000000"/><stop offset="1" stop-color="#000000" stop-opacity="0.5"/></linearGradient></defs><g transform="translate(-222.66347,-162.66346)"><g data-paper-data="{&quot;isPaintingLayer&quot;:true}" stroke-miterlimit="10" stroke-dasharray="" stroke-dashoffset="0" style="mix-blend-mode: normal"><path d="M229.98313,162.91346h20.03379c3.9166,0 7.06966,3.15307 7.06966,7.06966v20.03379c0,3.91659 -3.15306,7.06966 -7.06966,7.06966h-20.03379c-3.91659,0 -7.06966,-3.15307 -7.06966,-7.06966v-20.03379c0,-3.91659 3.15307,-7.06966 7.06966,-7.06966z" fill="#000000" fill-rule="evenodd" stroke="#807600" stroke-width="0.5" stroke-linecap="round" stroke-linejoin="round"/><g fill-rule="nonzero" stroke="none" stroke-width="0" stroke-linecap="butt" stroke-linejoin="miter"><path d="M227.46278,179.90563c0,-6.18084 4.47268,-11.31702 10.35802,-12.34849c0.54816,0.80446 1.47167,1.3327 2.51856,1.3327c0.3603,0 0.70598,-0.06257 1.02678,-0.17743c1.0256,1.91799 3.04782,3.22291 5.37481,3.22291c0.2241,0 0.44537,-0.0121 0.6632,-0.03569c0.44189,1.1367 1.54663,1.94239 2.83956,1.94239c0.23683,0 0.46735,-0.02703 0.68863,-0.07818c1.02192,1.81512 1.60488,3.91038 1.60488,6.1418c0,6.92412 -5.61311,12.53723 -12.53722,12.53723c-3.0201,0 -5.7908,-1.06787 -7.95509,-2.84662c0.02202,-0.10306 0.0336,-0.20999 0.0336,-0.31962c0,-0.84098 -0.68176,-1.52274 -1.52274,-1.52274c-0.10554,0 -0.20858,0.01074 -0.30808,0.03118c-1.74172,-2.15303 -2.78493,-4.8944 -2.78493,-7.87942z" fill="url(#color-1)"/><path d="M227.46278,179.90563c0,-6.18084 4.47268,-11.31702 10.35802,-12.34849c0.54816,0.80446 1.47167,1.3327 2.51856,1.3327c0.3603,0 0.70598,-0.06257 1.02678,-0.17743c1.0256,1.91799 3.04782,3.22291 5.37481,3.22291c0.2241,0 0.44537,-0.0121 0.6632,-0.03569c0.44189,1.1367 1.54663,1.94239 2.83956,1.94239c0.23683,0 0.46735,-0.02703 0.68863,-0.07818c1.02192,1.81512 1.60488,3.91038 1.60488,6.1418c0,6.92412 -5.61311,12.53723 -12.53722,12.53723c-3.0201,0 -5.7908,-1.06787 -7.95509,-2.84662c0.02202,-0.10306 0.0336,-0.20999 0.0336,-0.31962c0,-0.84098 -0.68176,-1.52274 -1.52274,-1.52274c-0.10554,0 -0.20858,0.01074 -0.30808,0.03118c-1.74172,-2.15303 -2.78493,-4.8944 -2.78493,-7.87942z" fill="url(#color-2)"/></g></g></g></svg>