<svg version="1.1" xmlns="http://www.w3.org/2000/svg" xmlns:xlink="http://www.w3.org/1999/xlink" width="166.64469" height="297.43972" viewBox="0,0,166.64469,297.43972"><defs><linearGradient x1="233.6665" y1="26.49817" x2="233.6665" y2="129.62926" gradientUnits="userSpaceOnUse" id="color-1"><stop offset="0" stop-color="#000000"/><stop offset="1" stop-color="#6122e0"/></linearGradient><linearGradient x1="241.25683" y1="178.30204" x2="241.25683" y2="310.30199" gradientUnits="userSpaceOnUse" id="color-2"><stop offset="0" stop-color="#000000"/><stop offset="1" stop-color="#fff1a4"/></linearGradient><linearGradient x1="212.47215" y1="15.55775" x2="226.51692" y2="123.44553" gradientUnits="userSpaceOnUse" id="color-3"><stop offset="0" stop-color="#000000"/><stop offset="1" stop-color="#cabf81"/></linearGradient><linearGradient x1="211.68924" y1="26.24827" x2="225.73397" y2="134.136" gradientUnits="userSpaceOnUse" id="color-4"><stop offset="0" stop-color="#000000"/><stop offset="1" stop-color="#caaa81"/></linearGradient><linearGradient x1="262.80454" y1="114.1929" x2="267.77006" y2="152.33651" gradientUnits="userSpaceOnUse" id="color-5"><stop offset="0" stop-color="#000000"/><stop offset="1" stop-color="#d6ca89"/></linearGradient><linearGradient x1="123.72808" y1="132.29779" x2="128.69355" y2="170.44138" gradientUnits="userSpaceOnUse" id="color-6"><stop offset="0" stop-color="#000000"/><stop offset="1" stop-color="#000000"/></linearGradient><linearGradient x1="147.90825" y1="24.08877" x2="161.95298" y2="131.97652" gradientUnits="userSpaceOnUse" id="color-7"><stop offset="0" stop-color="#242217"/><stop offset="1" stop-color="#1e1c13"/></linearGradient><linearGradient x1="151.40202" y1="34.22255" x2="165.44676" y2="142.11026" gradientUnits="userSpaceOnUse" id="color-8"><stop offset="0" stop-color="#242217"/><stop offset="1" stop-color="#1e1c13"/></linearGradient><linearGradient x1="187.8289" y1="81.54615" x2="203.39672" y2="201.13382" gradientUnits="userSpaceOnUse" id="color-9"><stop offset="0" stop-color="#191710"/><stop offset="1" stop-color="#ded28e"/></linearGradient><linearGradient x1="169.97082" y1="141.79574" x2="171.31816" y2="152.14547" gradientUnits="userSpaceOnUse" id="color-10"><stop offset="0" stop-color="#9e9e9e"/><stop offset="1" stop-color="#090909"/></linearGradient></defs><g transform="translate(-108.31017,-12.86228)"><g data-paper-data="{&quot;isPaintingLayer&quot;:true}" fill-rule="nonzero" stroke-linecap="butt" stroke-linejoin="miter" stroke-miterlimit="10" stroke-dasharray="" stroke-dashoffset="0" style="mix-blend-mode: normal"><path d="" data-paper-data="{&quot;index&quot;:null}" fill="url(#color-1)" stroke="#000000" stroke-width="0"/><path d="M208.00684,310.30199l-15.89393,-125.33994l36.78291,-15.66305l45.61101,141.003z" fill="url(#color-2)" stroke="#000000" stroke-width="0"/><path d="M233.17754,12.86234c0,0 7.30176,50.00911 11.50761,69.68505c2.92199,13.66969 11.30992,37.06063 11.30992,37.06063c-7.58397,-0.42562 -64.53667,-35.19161 -64.53667,-35.19161c0,0 11.95877,-29.47979 19.24789,-41.98167c6.53462,-11.20783 22.47128,-29.57246 22.47128,-29.57246z" data-paper-data="{&quot;index&quot;:null}" fill="url(#color-3)" stroke="#000000" stroke-width="0"/><path d="M231.02347,23.73142c0,0 7.25022,50.01582 11.34896,69.7057c2.84758,13.67937 10.88759,37.11561 10.88759,37.11561c-7.09372,-0.48945 -60.6324,-35.69985 -60.6324,-35.69985c0,0 10.9301,-29.34588 17.63858,-41.77217c6.01407,-11.14006 20.75726,-29.34933 20.75726,-29.34933z" data-paper-data="{&quot;index&quot;:null}" fill="url(#color-4)" stroke="#000000" stroke-width="0"/><path d="M254.05897,115.3314l20.89589,23.87762l-14.50398,14.08034z" data-paper-data="{&quot;index&quot;:null}" fill="url(#color-5)" stroke="#000000" stroke-width="0"/><path d="M136.01273,169.48857l-17.62543,-9.89776l14.08633,-28.43157c0,0 1.72278,18.65804 2.37479,25.71948c0.45655,4.94445 1.16432,12.60983 1.16432,12.60983z" data-paper-data="{&quot;index&quot;:null}" fill="url(#color-6)" stroke="#000000" stroke-width="0"/><path d="M127.2028,26.78418c0,0 20.10723,13.67246 29.29348,22.83376c10.24692,10.21903 29.35453,35.65465 29.35453,35.65465c0,0 -46.15377,48.1883 -53.37602,50.54139c0,0 2.11981,-24.75884 1.44472,-38.72102c-0.97176,-20.09696 -6.71668,-70.30871 -6.71668,-70.30871z" data-paper-data="{&quot;index&quot;:null}" fill="url(#color-7)" stroke="#000000" stroke-width="0"/><path d="M132.06775,36.73946c0,0 18.91377,13.82782 27.57947,23.05687c9.66627,10.29463 27.74522,35.86415 27.74522,35.86415c0,0 -42.73974,47.74386 -49.47174,50.03312c0,0 1.77188,-24.71356 1.02238,-38.66604c-1.07885,-20.083 -6.8753,-70.28807 -6.8753,-70.28807z" data-paper-data="{&quot;index&quot;:null}" fill="url(#color-8)" stroke="#000000" stroke-width="0"/><path d="M131.91326,149.63226c-4.29893,-33.02321 20.73535,-63.50643 55.91563,-68.08616c35.18028,-4.57974 67.18452,18.47824 71.48345,51.50144c4.29894,33.02321 -20.73534,63.50642 -55.91563,68.08616c-35.18028,4.57973 -67.18453,-18.47825 -71.48345,-51.50144z" data-paper-data="{&quot;index&quot;:null}" fill="url(#color-9)" stroke="#000000" stroke-width="0"/><path d="M145.34565,148.32492c-1.67404,-12.85949 7.39357,-24.64126 20.25307,-26.3153c12.8595,-1.67404 24.64127,7.39357 26.31531,20.25307c1.67404,12.8595 -7.39357,24.64127 -20.25307,26.3153c-12.8595,1.67404 -24.64126,-7.39357 -26.3153,-20.25307z" fill="#000000" stroke="#000000" stroke-width="0"/><path d="M225.85572,161.51474c-12.8595,1.67404 -24.64126,-7.39357 -26.3153,-20.25307c-1.67404,-12.85949 7.39357,-24.64126 20.25307,-26.3153c12.8595,-1.67404 24.64127,7.39357 26.3153,20.25307c1.67404,12.8595 -7.39357,24.64127 -20.25307,26.3153z" data-paper-data="{&quot;index&quot;:null}" fill="#bfbfbf" stroke="#000000" stroke-width="0"/><path d="M152.70677,147.0805c-1.17834,-9.05171 5.20426,-17.34478 14.25596,-18.52314c9.05171,-1.17834 17.34479,5.20427 18.52314,14.25596c1.17834,9.05171 -5.20427,17.34478 -14.25597,18.52314c-9.05171,1.17834 -17.34477,-5.20427 -18.52313,-14.25597z" fill="#000000" stroke="none" stroke-width="0"/><path d="M222.17982,142.92006c-0.8028,0.10451 -1.69269,-1.64747 -1.98764,-3.91314c-0.29495,-2.26568 0.11675,-4.18711 0.91956,-4.29161c0.8028,-0.10451 1.69269,1.64748 1.98764,3.91315c0.29495,2.26568 -0.11674,4.1871 -0.91956,4.29161z" data-paper-data="{&quot;index&quot;:null}" fill="#bfbfbf" stroke="#000000" stroke-width="2"/><path d="M221.06003,96.11067c-4.01568,-0.40738 -11.97877,0.69005 -11.97877,0.69005c0,0 6.94076,-2.81322 12.14064,-2.28574c5.19987,0.52749 12.51998,4.78739 12.51998,4.78739c0,0 -8.4853,-2.766 -12.68185,-3.19171z" data-paper-data="{&quot;index&quot;:null}" fill="#000000" stroke="none" stroke-width="0"/><path d="M146.2014,180.5658c-1.75996,-1.80028 0.04478,13.7981 -1.38663,11.79371c-1.20118,-1.68199 -5.68618,-20.93306 -6.66387,-22.78954c-2.21369,-4.20351 -5.09938,-1.16473 -6.22745,-6.4977c-0.44191,-2.08918 -1.74113,-16.29443 -1.81034,-18.16713c-0.0202,-0.54666 -2.64227,-4.15463 -1.42451,-11.67131c0.23752,-1.46611 2.85736,-6.60623 3.22345,-8.04281c0.50382,-1.97698 -2.16188,-2.90409 -1.2629,-4.62693c1.74487,-3.3439 7.20628,-6.87046 7.27747,-7.16385c1.78516,-7.35546 10.93734,-20.46462 22.58813,-26.91841c0.32499,-0.18002 9.09889,1.35601 9.44924,1.18501c9.58206,-4.67649 19.28831,-7.66833 19.28831,-7.66833c0,0 -6.08667,4.58634 -3.51608,5.69802c1.80051,0.77865 5.32694,-0.27983 5.73288,1.31474c0.7568,2.97268 -5.80601,8.39014 -5.56485,11.07316c0.31103,3.46009 -2.22957,4.0668 -2.78712,6.29624c-0.37932,1.51678 1.19134,4.57899 1.18122,6.70711c-0.02189,4.60271 -1.33145,1.07622 -1.94402,5.3027c-0.47811,3.29879 -2.18736,0.26171 -3.2937,1.9599c-0.62124,0.95357 -0.49011,6.58256 -1.21504,7.90562c-10.61175,19.36745 -33.0422,24.00499 -32.61573,23.92076c3.56815,-0.70488 39.39408,4.13212 42.04077,8.99164c0.01396,0.02563 -0.10102,1.87829 -0.68354,3.87636c-0.57957,1.98791 -1.62622,4.12033 -1.8021,4.52356c-0.45225,1.03682 -1.15349,-4.20134 -1.8793,-2.4207c-0.69859,1.71385 -1.6639,2.95829 -2.25615,4.84886c-1.1645,3.71732 -0.79078,6.48125 -2.14912,7.74351c-0.22835,0.21219 -0.90498,-2.34631 -1.82723,-4.81893c-1.67072,-4.47921 0.22709,-9.04954 -0.02411,-8.48241c-0.49928,1.12721 -1.60177,4.4442 -2.40313,5.03651c-0.75073,0.5549 -1.22218,-1.63242 -1.11788,-0.15079c0.29328,4.16526 3.64671,11.58879 1.7351,11.83936c-0.55491,0.07273 -3.91255,-9.68556 -5.88305,-12.41663c-0.76979,-1.06689 -0.23003,7.2039 -0.63554,7.8324c-0.52259,0.80993 -1.92697,-5.7865 -2.49878,-5.89095c-3.75764,-0.68633 -0.34788,9.70306 -1.83671,8.00434c-2.07844,-2.37145 -0.92341,-7.08338 -2.66275,-9.46833c-1.2953,-1.77611 -2.47747,-0.67203 -3.52634,-1.4346c-0.88134,-0.64077 -1.75987,-3.30075 -1.63391,-3.19377c2.50354,2.12623 -0.57525,0.18779 0.43737,4.71378c0.48803,2.18128 8.54493,8.87112 10.61046,11.75575c1.8808,2.62662 -2.23146,1.5213 -1.51084,2.25845c4.64247,4.74884 -6.83064,-3.96601 -5.13151,-0.1756c0.77358,1.72572 9.39478,7.19332 14.46156,11.36781c3.4782,2.86569 4.09706,5.12803 4.09706,5.12803c0,0 6.01393,2.96697 3.32347,1.98479c-1.48808,-0.54324 -5.32466,-1.80586 -7.49418,-1.07797c-1.38339,0.46412 0.75802,2.65649 -1.12606,2.00739c-1.84272,-0.63486 -9.18283,-6.78592 -9.95462,-7.2078c-4.16325,-2.27572 -3.64523,7.75583 -7.63687,4.52538c-0.99644,-0.80642 -1.99312,-6.53642 -4.33385,-11.48416c-1.83774,-3.88452 -5.1209,-7.20655 -5.72669,-7.82621z" fill="#000000" stroke="#000000" stroke-width="0"/><path d="M183.74337,145.26537c0,0 -5.75009,5.75409 -12.98438,6.69584c-7.23431,0.94176 -13.21334,-3.28546 -13.21334,-3.28546c0,0 4.48152,-9.10888 11.71583,-10.05063c7.23431,-0.94176 14.48189,6.64023 14.48189,6.64023z" fill="url(#color-10)" stroke="none" stroke-width="0"/><path d="M109.38579,74.29626c0.61434,-0.0929 1.12909,-0.05754 1.14974,0.07898c0.02065,0.13652 -0.46064,0.32251 -1.07498,0.4154c-0.61434,0.0929 -1.12909,0.05754 -1.14974,-0.07898c-0.02065,-0.13652 0.46065,-0.32251 1.07498,-0.4154z" fill="#000000" stroke="none" stroke-width="0.5"/><path d="M168.14978,146.57186c-0.76163,-4.70218 -0.11302,-8.7191 1.44869,-8.97205c1.56172,-0.25295 3.44513,3.35385 4.20676,8.05603c0.19462,1.20161 0.29716,2.35847 0.3159,3.41922c0.05459,3.09017 -0.60197,5.36454 -1.76461,5.55285c-1.56171,0.25295 -3.44513,-3.35384 -4.20676,-8.05603z" fill="#000000" stroke="none" stroke-width="0"/><path d="M229.2778,142.91936c0,0 -1.40411,3.13729 -2.9931,4.54235c-1.58901,1.40506 -4.5428,2.12121 -4.5428,2.12121c0,0 2.88451,-1.52374 4.11165,-2.60882c1.2824,-1.13395 3.42427,-4.05474 3.42427,-4.05474z" data-paper-data="{&quot;index&quot;:null}" fill="#000000" stroke="none" stroke-width="0"/><path d="M218.50085,190.31859c-3.6819,2.05811 -25.39537,-6.85464 -25.39537,-6.85464c0,0 3.22746,-4.37904 6.85764,-7.4308c0.8994,-0.75609 1.82351,-1.43072 2.7294,-1.93708c4.56219,-2.55014 12.04935,-2.72635 12.04935,-2.72635c0,0 7.10894,17.06298 3.58572,19.03239z" data-paper-data="{&quot;index&quot;:null}" fill="#000000" stroke="none" stroke-width="0"/></g></g></svg>