<svg version="1.1" xmlns="http://www.w3.org/2000/svg" xmlns:xlink="http://www.w3.org/1999/xlink" width="34.17311" height="34.17311" viewBox="0,0,34.17311,34.17311"><g transform="translate(-222.91344,-162.91344)"><g data-paper-data="{&quot;isPaintingLayer&quot;:true}" stroke-miterlimit="10" stroke-dasharray="" stroke-dashoffset="0" style="mix-blend-mode: normal"><path d="M229.98312,162.91345h20.03378c3.9166,0 7.06966,3.15307 7.06966,7.06966v20.03379c0,3.91659 -3.15306,7.06966 -7.06966,7.06966h-20.03378c-3.91659,0 -7.06967,-3.15307 -7.06967,-7.06966v-20.03379c0,-3.91659 3.15308,-7.06966 7.06967,-7.06966z" fill-opacity="0.09677" fill="#191919" fill-rule="evenodd" stroke="none" stroke-width="4.43922" stroke-linecap="round" stroke-linejoin="round"/><path d="M252.58485,187.06878c-1.28331,4.45092 -6.51663,1.86212 -13.32686,-0.10143c-6.81024,-1.96355 -12.61849,-2.55831 -11.33518,-7.00923c1.28331,-4.45092 4.13749,-12.72616 15.98244,-9.10897c11.54481,3.52554 9.96291,11.76871 8.6796,16.21962z" fill="#000000" fill-rule="nonzero" stroke="#ffffff" stroke-width="0.5" stroke-linecap="butt" stroke-linejoin="miter"/><path d="M254.57297,188.82338c-0.54516,1.8908 -7.51167,1.54241 -15.56013,-0.77815c-8.04846,-2.32056 -14.13109,-5.73455 -13.58592,-7.62535c0.54516,-1.8908 7.51167,-1.54241 15.56013,0.77815c8.04846,2.32056 14.13109,5.73455 13.58592,7.62535z" fill="#000000" fill-rule="nonzero" stroke="#ffffff" stroke-width="0.5" stroke-linecap="butt" stroke-linejoin="miter"/><path d="M252.14918,188.12454c-0.36195,1.25538 -6.09478,0.70475 -12.80462,-1.22986c-6.70984,-1.93461 -11.85582,-4.5206 -11.49386,-5.77597c0.36195,-1.25538 6.09478,-0.70475 12.80462,1.22986c6.70984,1.93461 11.85582,4.5206 11.49386,5.77597z" fill="#000000" fill-rule="nonzero" stroke="#ffffff" stroke-width="0.5" stroke-linecap="butt" stroke-linejoin="miter"/></g></g></svg>