<svg version="1.1" xmlns="http://www.w3.org/2000/svg" xmlns:xlink="http://www.w3.org/1999/xlink" width="181.0349" height="278.85361" viewBox="0,0,181.0349,278.85361"><defs><linearGradient x1="151.05301" y1="164.2594" x2="202.05299" y2="164.2594" gradientUnits="userSpaceOnUse" id="color-1"><stop offset="0" stop-color="#666666"/><stop offset="1" stop-color="#000000"/></linearGradient><linearGradient x1="277.053" y1="164.2594" x2="328.053" y2="164.2594" gradientUnits="userSpaceOnUse" id="color-2"><stop offset="0" stop-color="#000000"/><stop offset="1" stop-color="#666666"/></linearGradient><linearGradient x1="186.37953" y1="38.8622" x2="186.37953" y2="135.01635" gradientUnits="userSpaceOnUse" id="color-3"><stop offset="0" stop-color="#666666"/><stop offset="1" stop-color="#000000"/></linearGradient><linearGradient x1="287.26918" y1="35.15142" x2="287.26918" y2="134.96048" gradientUnits="userSpaceOnUse" id="color-4"><stop offset="0" stop-color="#666666"/><stop offset="1" stop-color="#000000"/></linearGradient><linearGradient x1="239.15485" y1="175.89252" x2="239.15485" y2="307.89252" gradientUnits="userSpaceOnUse" id="color-5"><stop offset="0" stop-color="#000000"/><stop offset="1" stop-color="#666666"/></linearGradient><linearGradient x1="239.15487" y1="77.09418" x2="239.15487" y2="197.69085" gradientUnits="userSpaceOnUse" id="color-6"><stop offset="0" stop-color="#1a1a1a"/><stop offset="1" stop-color="#808080"/></linearGradient><radialGradient cx="282.1569" cy="181.81543" r="13.527" gradientUnits="userSpaceOnUse" id="color-7"><stop offset="0" stop-color="#1a0000"/><stop offset="1" stop-color="#800000"/></radialGradient><linearGradient x1="215.82846" y1="236.87139" x2="232.32846" y2="236.87139" gradientUnits="userSpaceOnUse" id="color-8"><stop offset="0" stop-color="#1a0000"/><stop offset="1" stop-color="#800000"/></linearGradient><linearGradient x1="237.692" y1="235.25082" x2="241.5303" y2="235.25082" gradientUnits="userSpaceOnUse" id="color-9"><stop offset="0" stop-color="#1a0000"/><stop offset="1" stop-color="#800000"/></linearGradient><linearGradient x1="226.8612" y1="216.73492" x2="229.3612" y2="216.73492" gradientUnits="userSpaceOnUse" id="color-10"><stop offset="0" stop-color="#1a0000"/><stop offset="1" stop-color="#800000"/></linearGradient><linearGradient x1="239.2897" y1="248.48092" x2="241.7897" y2="248.48092" gradientUnits="userSpaceOnUse" id="color-11"><stop offset="0" stop-color="#1a0000"/><stop offset="1" stop-color="#800000"/></linearGradient><linearGradient x1="228.5685" y1="242.19632" x2="235.3757" y2="242.19632" gradientUnits="userSpaceOnUse" id="color-12"><stop offset="0" stop-color="#1a0000"/><stop offset="1" stop-color="#800000"/></linearGradient></defs><g transform="translate(-147.01811,-35.15142)"><g data-paper-data="{&quot;isPaintingLayer&quot;:true}" fill-rule="nonzero" stroke-linejoin="miter" stroke-miterlimit="10" stroke-dasharray="" stroke-dashoffset="0" style="mix-blend-mode: normal"><path d="M202.05299,184.7594l-34,-2l16,-20.33333l-33,-6.66667l25.66667,-12" fill="url(#color-1)" stroke="#000000" stroke-width="0" stroke-linecap="round"/><path d="M302.38634,143.7594l25.66667,12l-33,6.66667l16,20.33333l-34,2" data-paper-data="{&quot;index&quot;:null}" fill="url(#color-2)" stroke="#000000" stroke-width="0" stroke-linecap="round"/><path d="M176.45013,135.01635l-29.43202,-96.15415l78.72285,40.19039" fill="url(#color-3)" stroke="#000000" stroke-width="0" stroke-linecap="round"/><path d="M251.33167,80.05849l71.87502,-44.90707l-21.40426,99.80907" data-paper-data="{&quot;index&quot;:null}" fill="url(#color-4)" stroke="#000000" stroke-width="0" stroke-linecap="round"/><path d="M178.43857,314.00503v-267.22501h123.18203v267.22501z" fill-opacity="0.01" fill="#000000" stroke="none" stroke-width="0" stroke-linecap="butt"/><path d="M205.90487,307.89251l15.14285,-131.8421l37.78325,-0.15789l13.57389,132z" fill="url(#color-5)" stroke="#000000" stroke-width="0" stroke-linecap="butt"/><path d="M174.91785,137.39251c0,-33.30185 28.7599,-60.29833 64.23702,-60.29833c35.47713,0 64.23702,26.99648 64.23702,60.29833c0,33.30185 -28.75989,60.29834 -64.23702,60.29834c-35.47712,0 -64.23702,-26.99649 -64.23702,-60.29834z" fill="url(#color-6)" stroke="#000000" stroke-width="0" stroke-linecap="butt"/><path d="M293.46225,169.61231c-5.73727,8.50299 -13.67842,15.56595 -23.06959,20.48125c0,0 -6.52779,-5.76002 -2.9808,-8.63654c4.29641,-3.48429 5.31451,2.22492 8.53413,0.18158c2.93046,-1.85982 4.62866,-7.14493 6.96297,-9.34754c4.18064,-3.94478 10.55328,-2.67876 10.55328,-2.67876z" fill="url(#color-7)" stroke="#000000" stroke-width="0" stroke-linecap="butt"/><path d="M184.5604,134.76822l3.6,2.6" fill="none" stroke="#000000" stroke-width="2" stroke-linecap="round"/><path d="M188.54498,137.66813c0,-12.96801 10.51265,-23.48065 23.48066,-23.48065c12.96801,0 23.48065,10.51264 23.48065,23.48065c0,12.96801 -10.51264,23.48066 -23.48065,23.48066c-12.96801,0 -23.48066,-10.51265 -23.48066,-23.48066z" fill="#808080" stroke="#000000" stroke-width="0" stroke-linecap="butt"/><path d="M293.4938,133.76822l-4.2,3.4" fill="none" stroke="#000000" stroke-width="2" stroke-linecap="round"/><path d="M266.28409,161.1488c-12.96801,0 -23.48065,-10.51265 -23.48065,-23.48066c0,-12.96801 10.51264,-23.48065 23.48065,-23.48065c12.96801,0 23.48066,10.51264 23.48066,23.48065c0,12.96801 -10.51265,23.48066 -23.48066,23.48066z" data-paper-data="{&quot;index&quot;:null}" fill="#808080" stroke="#000000" stroke-width="0" stroke-linecap="butt"/><path d="M199.6104,137.39251c0,-11.1991 5.6089,-20.2778 12.5278,-20.2778c6.919,0 12.5279,9.0786 12.5279,20.2778c0,11.1991 -5.6089,20.2779 -12.5279,20.2779c-6.9189,0 -12.5278,-9.0787 -12.5278,-20.2779z" fill="none" stroke="#000000" stroke-width="1.5" stroke-linecap="butt"/><path d="M277.6994,137.39251c0,10.2327 -5.0493,18.5278 -11.2779,18.5278c-6.2285,0 -11.2778,-8.2952 -11.2778,-18.5278c0,-10.2327 5.0492,-18.5279 11.2778,-18.5279c6.2286,0 11.2779,8.2952 11.2779,18.5279z" data-paper-data="{&quot;index&quot;:null}" fill="none" stroke="#000000" stroke-width="1.5" stroke-linecap="butt"/><path d="M201.18268,100.60968c0,0 6.70895,-5.16922 11.79721,-6.36355c5.08827,-1.19433 12.33413,0.69937 12.33413,0.69937c0,0 -8.03812,-0.06028 -11.96762,0.86207c-4.10648,0.96389 -12.16372,4.80211 -12.16372,4.80211z" fill="#000000" stroke="none" stroke-width="0" stroke-linecap="butt"/><path d="M265.11721,95.80758c-3.9295,-0.92235 -11.96762,-0.86207 -11.96762,-0.86207c0,0 7.24586,-1.8937 12.33413,-0.69937c5.08826,1.19433 11.79721,6.36355 11.79721,6.36355c0,0 -8.05724,-3.83822 -12.16372,-4.80211z" data-paper-data="{&quot;index&quot;:null}" fill="#000000" stroke="none" stroke-width="0" stroke-linecap="butt"/><path d="M212.32846,252.62139l3.5,-32.5c0,0 14.76097,4.31685 15.17857,7.46429c0.26388,1.98879 -11.22333,-1.41952 -11.86672,3.14801c-0.66511,4.72171 16.21886,3.25015 16.29986,5.2733c0.07161,1.78869 -14.86287,1.56078 -15.19641,4.46468c-0.31381,2.73211 3.84057,2.20496 4.06988,4.96097c0.17582,2.11311 8.92402,0.85204 9.12197,3.58161c0.18234,2.51443 -21.10715,3.60714 -21.10715,3.60714z" fill="url(#color-8)" stroke="none" stroke-width="0" stroke-linecap="butt"/><path d="M241.3468,236.21502c-0.6071,1.0927 -1.6998,0.4856 -1.6998,0.4856l-1.2857,-0.7143c0,0 -1.0927,-0.607 -0.4857,-1.6997c0.6071,-1.0927 1.6998,-0.4857 1.6998,-0.4857l1.2857,0.7143c0,0 1.0927,0.6071 0.4856,1.6998z" fill="url(#color-9)" stroke="none" stroke-width="0.5" stroke-linecap="butt"/><path d="M226.8612,216.73492c0,-0.6903 0.5596,-1.25 1.25,-1.25c0.6904,0 1.25,0.5597 1.25,1.25c0,0.6904 -0.5596,1.25 -1.25,1.25c-0.6904,0 -1.25,-0.5596 -1.25,-1.25z" fill="url(#color-10)" stroke="none" stroke-width="0.5" stroke-linecap="butt"/><path d="M239.2897,248.48092c0,-0.6903 0.5597,-1.25 1.25,-1.25c0.6904,0 1.25,0.5597 1.25,1.25c0,0.6904 -0.5596,1.25 -1.25,1.25c-0.6903,0 -1.25,-0.5596 -1.25,-1.25z" fill="url(#color-11)" stroke="none" stroke-width="0.5" stroke-linecap="butt"/><path d="M235.3085,242.98302c-0.3592,1.1973 -1.5565,0.8381 -1.5565,0.8381l-1.319,-0.4011c-0.9488,-0.1019 -1.8922,-0.2532 -2.8311,-0.4235c0,0 -1.2299,-0.2236 -1.0063,-1.4534c0.2236,-1.2299 1.4535,-1.0063 1.4535,-1.0063c0.9561,0.1743 1.9176,0.3232 2.8831,0.4336l1.5382,0.4561c0,0 1.1972,0.3592 0.8381,1.5565z" fill="url(#color-12)" stroke="none" stroke-width="0.5" stroke-linecap="butt"/><path d="M271.7714,169.54892c0,0 -10.5456,11.477 -32.4429,11.5c-19.8973,0.021 -33.1667,-11.25 -33.1667,-11.25" fill="none" stroke="#000000" stroke-width="2" stroke-linecap="round"/></g></g></svg>