<svg version="1.1" xmlns="http://www.w3.org/2000/svg" xmlns:xlink="http://www.w3.org/1999/xlink" width="178.84867" height="287.27508" viewBox="0,0,178.84867,287.27508"><g transform="translate(-175.29266,-22.63311)"><g data-paper-data="{&quot;isPaintingLayer&quot;:true}" fill-rule="nonzero" stroke-linejoin="miter" stroke-miterlimit="10" stroke-dasharray="" stroke-dashoffset="0" style="mix-blend-mode: normal"><g fill="#302b87" stroke-linecap="butt"><path d="M319.20774,172.02203c0.89168,-0.56184 1.19284,7.78013 -5.72258,9.86556c-1.58579,12.39446 11.37567,18.61284 16.42727,20.92441c2.14157,0.97998 -9.53933,3.14619 -13.23763,1.88091c-1.11052,-0.37993 -5.85371,-5.1827 -6.02054,-5.12366c-0.47256,0.05714 -0.87166,1.84111 -0.41521,3.23341c0.57582,1.75643 2.07367,3.20014 1.59292,3.23661c-14.87525,1.12875 -11.48283,-83.90879 -11.64189,-83.93743c-0.93167,-0.16781 -2.04902,50.45335 19.01764,49.92016z" data-paper-data="{&quot;index&quot;:null}" stroke="none" stroke-width="0"/><path d="M208.05467,122.88396c-0.15313,0.05169 15.69367,83.6685 0.81396,84.73703c-0.48088,0.03453 0.78863,-1.61354 1.1002,-3.43548c0.24699,-1.44426 -0.40985,-3.15028 -0.88566,-3.13735c-0.1737,-0.03389 -4.15996,5.41352 -5.20261,5.95245c-3.4723,1.79478 -15.34471,1.36788 -13.3703,0.08395c4.65729,-3.02855 16.56471,-11.08337 13.17551,-23.11043c-7.14676,-1.047 -8.07419,-9.34271 -7.10965,-8.91795c20.91646,-2.56709 12.37545,-52.47502 11.47856,-52.17218z" data-paper-data="{&quot;index&quot;:null}" stroke="none" stroke-width="0"/><path d="M287.14122,138.20336c-0.15313,0.05169 15.69369,83.6685 0.81396,84.73703c-0.48088,0.03453 0.78863,-1.61354 1.1002,-3.43548c0.24699,-1.44426 -0.40985,-3.15028 -0.88565,-3.13734c-0.1737,-0.03389 -4.15996,5.41352 -5.20261,5.95245c-3.4723,1.79478 -15.34471,1.36788 -13.3703,0.08395c4.65729,-3.02855 16.56471,-11.08337 13.17551,-23.11043c-7.14676,-1.047 -8.07419,-9.34271 -7.10965,-8.91794c20.91646,-2.56709 12.37545,-52.47502 11.47856,-52.1722z" data-paper-data="{&quot;index&quot;:null}" stroke="none" stroke-width="0"/><path d="M307.90392,178.33101c0.89168,-0.56184 1.19284,7.78013 -5.72258,9.86556c-1.58579,12.39446 11.37567,18.61284 16.42727,20.92441c2.14157,0.97998 -9.53933,3.14619 -13.23763,1.88091c-1.11052,-0.37993 -5.85372,-5.1827 -6.02055,-5.12367c-0.47255,0.05714 -0.87165,1.84112 -0.41521,3.23341c0.57582,1.75643 2.07367,3.20014 1.59292,3.23661c-14.87526,1.12876 -11.48283,-83.90879 -11.64189,-83.93743c-0.93166,-0.16781 -2.04902,50.45335 19.01764,49.92016z" data-paper-data="{&quot;index&quot;:null}" stroke="none" stroke-width="0"/><path d="M241.85588,190.13491c0.89168,-0.56184 1.19284,7.78012 -5.72258,9.86555c-1.58579,12.39446 11.37568,18.61283 16.42727,20.92441c2.14157,0.97998 -9.53933,3.14619 -13.23763,1.88091c-1.11053,-0.37993 -5.85371,-5.1827 -6.02055,-5.12367c-0.47255,0.05714 -0.87165,1.84112 -0.4152,3.23341c0.57582,1.75643 2.07367,3.20014 1.59292,3.23661c-14.87525,1.12875 -11.48283,-83.90879 -11.64189,-83.93743c-0.93167,-0.16781 -2.04901,50.45336 19.01764,49.92017z" data-paper-data="{&quot;index&quot;:null}" stroke="none" stroke-width="0"/><path d="M219.99964,128.57101c-0.15313,0.05169 15.69367,83.6685 0.81396,84.73703c-0.48088,0.03453 0.78863,-1.61354 1.1002,-3.43548c0.24699,-1.44426 -0.40985,-3.15028 -0.88565,-3.13734c-0.1737,-0.03389 -4.15996,5.41352 -5.20261,5.95245c-3.4723,1.79478 -15.34471,1.36788 -13.3703,0.08395c4.65729,-3.02855 16.56471,-11.08337 13.17551,-23.11043c-7.14676,-1.047 -8.07419,-9.34271 -7.10965,-8.91795c20.91646,-2.56709 12.37546,-52.47502 11.47856,-52.17218z" data-paper-data="{&quot;index&quot;:null}" stroke="none" stroke-width="0"/><path d="M215.91332,177.2701c0.89168,-0.56184 1.19284,7.78012 -5.72258,9.86555c-1.58579,12.39446 11.37568,18.61283 16.42727,20.92441c2.14157,0.97998 -9.53933,3.14619 -13.23763,1.88091c-1.11053,-0.37993 -5.85371,-5.1827 -6.02054,-5.12366c-0.47255,0.05714 -0.87166,1.84111 -0.41521,3.23341c0.57582,1.75643 2.07367,3.20014 1.59292,3.23661c-14.87525,1.12875 -11.48283,-83.90879 -11.64189,-83.93743c-0.93167,-0.16781 -2.04901,50.45336 19.01764,49.92017z" data-paper-data="{&quot;index&quot;:null}" stroke="none" stroke-width="0"/><path d="M310.95498,118.92714c-0.15313,0.05169 15.69369,83.6685 0.81396,84.73703c-0.48088,0.03453 0.78863,-1.61354 1.1002,-3.43548c0.24699,-1.44426 -0.40985,-3.15028 -0.88566,-3.13735c-0.1737,-0.03389 -4.15996,5.41352 -5.20261,5.95245c-3.4723,1.79478 -15.34471,1.36788 -13.3703,0.08395c4.65729,-3.02855 16.5647,-11.08337 13.17551,-23.11043c-7.14676,-1.047 -8.07419,-9.34271 -7.10965,-8.91794c20.91646,-2.56709 12.37546,-52.47502 11.47856,-52.1722z" data-paper-data="{&quot;index&quot;:null}" stroke="none" stroke-width="0"/><path d="M331.71767,159.05479c0.89168,-0.56184 1.19284,7.78013 -5.72258,9.86556c-1.58579,12.39446 11.37568,18.61283 16.42727,20.92441c2.14157,0.97998 -9.53933,3.14619 -13.23763,1.88091c-1.11052,-0.37993 -5.85372,-5.1827 -6.02055,-5.12367c-0.47255,0.05714 -0.87165,1.84112 -0.4152,3.23341c0.57582,1.75643 2.07367,3.20014 1.59292,3.23661c-14.87526,1.12876 -11.48283,-83.90879 -11.64189,-83.93743c-0.93166,-0.16781 -2.04902,50.45335 19.01764,49.92016z" data-paper-data="{&quot;index&quot;:null}" stroke="#000000" stroke-width="2"/><path d="M194.05707,115.7062c-0.15313,0.05169 15.69367,83.6685 0.81396,84.73703c-0.48088,0.03453 0.78863,-1.61354 1.1002,-3.43548c0.24699,-1.44426 -0.40985,-3.15028 -0.88566,-3.13735c-0.1737,-0.03389 -4.15996,5.41352 -5.20261,5.95245c-3.4723,1.79478 -15.34471,1.36788 -13.3703,0.08395c4.65729,-3.02855 16.56471,-11.08337 13.17551,-23.11043c-7.14676,-1.047 -8.07419,-9.34271 -7.10965,-8.91795c20.91646,-2.56709 12.37545,-52.47502 11.47856,-52.17218z" data-paper-data="{&quot;index&quot;:null}" stroke="#000000" stroke-width="2"/></g><path d="M179.54296,122.47898c0,0 11.19584,12.62254 13.35214,-3.21771c4.67523,-20.23318 7.34823,-34.03227 28.06475,-43.32359c6.17414,-2.76909 9.95134,-6.7433 29.6321,-3.35764c0.24144,0.04154 0.35692,0.05342 0.36286,0.03777c0.06961,-0.18337 -14.88819,-4.14551 -18.46139,-8.50348c-3.91011,-4.76888 -5.41845,-10.51999 -4.61095,-13.84526c6.53248,-18.81072 34.14034,-19.08391 36.01807,-19.48342c19.30974,-2.10832 45.48468,17.06325 4.92227,27.1663c-2.05566,0.51201 27.50938,-11.40873 -11.40892,-14.0594c-19.78575,2.60711 -27.68716,8.81808 -4.274,22.39772c6.74771,-0.59946 15.65379,-0.92751 16.56562,-1.61709c22.08812,2.63953 24.51248,6.58172 32.18506,11.3592c6.17518,3.8451 14.06649,10.52308 18.44144,19.63532c3.37192,7.0231 2.06955,16.50787 5.69805,23.52708c6.92091,13.38824 15.05593,2.03251 15.05593,2.03251c0,0 1.44682,8.76553 -1.41643,14.63621c-2.05695,4.21747 -7.30611,6.21507 -12.39886,5.78189c-0.11182,0.59282 -0.36027,10.08548 4.33635,12.21282c3.96083,1.79406 12.64871,-1.42264 12.64871,-1.42264c0,0 -14.65164,6.37914 -15.62705,10.57541c-1.7558,7.55362 19.13588,-1.13314 16.3392,1.26495c-1.37818,1.18175 -7.26428,5.56839 -12.77969,6.82385c-5.31453,1.20974 -10.28488,-0.70231 -10.54628,-0.03679c-3.49395,8.89536 -10.36285,18.18124 -10.36285,18.18124c0,0 -2.29192,-5.28642 -3.77673,-3.14158c-6.07718,8.77862 -11.2964,15.30957 -11.2964,15.30957c0,0 -2.40974,-4.97718 -4.47106,-3.86765c-9.32569,5.01966 -20.06286,7.91078 -31.65348,7.91078c-12.60656,0 -24.772,-3.56633 -35.27102,-9.52744c-2.72845,-1.54916 -0.82623,4.38789 -0.82623,4.38789c0,0 -7.93843,-5.19677 -13.15685,-11.00681c-6.08759,-6.77777 -9.73663,-14.57056 -12.13914,-18.68944c-0.34082,-0.58431 -4.01999,1.58785 -5.934,2.01254c-2.96082,0.65696 -4.48364,-0.08182 -4.48364,-0.08182c0,0 2.67098,-3.37669 3.55098,-5.15497c0.94364,-1.90688 1.93325,-5.92746 1.93325,-5.92746c0,0 -2.66402,1.90888 -4.05965,2.38502c-1.48595,0.50696 -4.60208,0.57008 -4.60208,0.57008c0,0 4.39229,-5.64339 5.74307,-11.5602c0.39327,-1.72262 4.12301,-9.97893 -0.21176,-9.96905c-17.00132,0.5205 -11.08139,-20.4147 -11.08139,-20.4147z" fill="#4e45f0" stroke="#000000" stroke-width="2" stroke-linecap="butt"/><g stroke="#000000"><path d="M203.69906,303.00199l26.60999,-130.01367l37.65242,3.14557l1.98304,132.68127z" fill="#ffffff" stroke-width="2" stroke-linecap="butt"/><path d="M225.63741,201.14248l5.41093,-25.95399l35.706,2.99068l0.47468,26.24787c0,0 -7.85345,3.523 -21.87071,2.60777c-12.46116,-0.81365 -19.7209,-5.89234 -19.7209,-5.89234z" fill="#e6e6e6" stroke-width="0" stroke-linecap="butt"/><path d="M259.32825,219.04349l5.43615,-27.63056" fill="none" stroke-width="2" stroke-linecap="round"/><path d="M203.69906,303.00199l26.60999,-130.01367c0,0 2.80607,36.6289 19.61809,38.74653c28.70327,3.61546 20.12227,-19.35626 20.12227,-19.35626l-0.10491,116.43654z" fill="#94869a" stroke-width="2" stroke-linecap="butt"/><path d="M267.04855,219.72094c0,0 -13.60576,1.0452 -18.93747,-0.87868c-5.67461,-2.04762 -15.7273,-10.19395 -15.7273,-10.19395" fill="none" stroke-width="0.5" stroke-linecap="round"/><path d="M258.10032,224.45685c0,0 -4.77927,0.68069 -6.96748,0.05734c-2.04613,-0.58287 -5.76421,-3.68417 -5.76421,-3.68417" fill="none" stroke-width="1" stroke-linecap="round"/><path d="M247.55217,253.1446c0,0 -11.04622,-6.07009 -14.74823,-8.51646c-0.76934,-0.5084 -10.26898,-15.26146 -10.26898,-15.26146" fill="none" stroke-width="0.5" stroke-linecap="round"/><path d="M240.49155,253.52886c0,0 -8.14711,-3.35223 -11.35918,-5.41548c-3.1205,-2.00445 -7.64643,-6.79264 -7.64643,-6.79264" fill="none" stroke-width="1" stroke-linecap="round"/><path d="M264.18841,303.79274l-55.24383,-5.34965" fill="none" stroke-width="1" stroke-linecap="round"/><path d="M265.14179,275.76883c0,0 -8.29685,1.0168 -12.07691,0.53521c-4.52394,-0.57636 -13.23806,-3.76048 -13.23806,-3.76048" fill="none" stroke-width="0.5" stroke-linecap="round"/><path d="M268.92616,255.52215l-9.63846,1.16189" fill="none" stroke-width="1" stroke-linecap="round"/><path d="M230.84398,266.23416l-5.47895,-0.48078" fill="none" stroke-width="1" stroke-linecap="round"/><path d="M250.85391,295.59574c0,0 -14.83951,-5.50462 -21.08251,-9.74668c-5.89471,-4.00542 -15.39067,-15.03654 -15.39067,-15.03654" fill="none" stroke-width="1" stroke-linecap="round"/><path d="M254.84772,284.40201c0,0 -12.36965,-1.38079 -17.7929,-3.47073c-5.25235,-2.02407 -14.25032,-8.87764 -14.25032,-8.87764" fill="none" stroke-width="1" stroke-linecap="round"/><path d="M221.87751,294.05684c0,0 -3.54423,-1.92886 -4.63625,-3.48345c-1.26275,-1.79764 -2.50267,-6.6795 -2.50267,-6.6795" fill="none" stroke-width="1" stroke-linecap="round"/></g><path d="M195.32745,136.90227c0,-33.30185 28.7599,-60.29833 64.23702,-60.29833c35.47712,0 64.23702,26.99649 64.23702,60.29833c0,33.30185 -28.7599,60.29833 -64.23702,60.29833c-35.47712,0 -64.23702,-26.99649 -64.23702,-60.29833z" fill="#ffffff" stroke="#000000" stroke-width="2" stroke-linecap="butt"/><path d="M196.05052,136.95608c0,-0.72799 5.20666,55.91939 63.36046,56.93429c55.56352,0.9697 63.51358,-57.95314 63.51358,-56.93429c0,32.80479 -28.40173,59.39833 -63.43702,59.39833c-35.03529,0 -63.43702,-26.59354 -63.43702,-59.39833z" fill="#e6e6e6" stroke="#000000" stroke-width="0" stroke-linecap="butt"/><path d="M208.87767,137.33175c0,-12.968 10.51265,-23.48065 23.48065,-23.48065c12.968,0 23.48065,10.51265 23.48065,23.48065c0,12.968 -10.51265,23.48065 -23.48065,23.48065c-12.968,0 -23.48065,-10.51265 -23.48065,-23.48065z" fill="#ffffff" stroke="#000000" stroke-width="2" stroke-linecap="butt"/><path d="M222.34091,137.0561c0,-9.12808 7.39976,-16.52784 16.52783,-16.52784c9.12808,0 16.52784,7.39977 16.52784,16.52784c0,9.12808 -7.39977,16.52784 -16.52784,16.52784c-9.12808,0 -16.52783,-7.39977 -16.52783,-16.52784z" fill="#005a00" stroke="none" stroke-width="0" stroke-linecap="butt"/><path d="M286.61678,160.81237c-12.968,0 -23.48065,-10.51265 -23.48065,-23.48065c0,-12.968 10.51265,-23.48065 23.48065,-23.48065c12.968,0 23.48065,10.51265 23.48065,23.48065c0,12.968 -10.51265,23.48065 -23.48065,23.48065z" data-paper-data="{&quot;index&quot;:null}" fill="#ffffff" stroke="#000000" stroke-width="2" stroke-linecap="butt"/><path d="M292.40352,153.58395c-9.12807,0 -16.52783,-7.39977 -16.52783,-16.52784c0,-9.12808 7.39977,-16.52784 16.52783,-16.52784c9.12807,0 16.52783,7.39977 16.52783,16.52784c0,9.12808 -7.39977,16.52784 -16.52783,16.52784z" data-paper-data="{&quot;index&quot;:null}" fill="#005a00" stroke="none" stroke-width="0" stroke-linecap="butt"/><path d="M221.51534,108.52328c0,0 6.70895,-5.16922 11.79721,-6.36355c5.08827,-1.19433 12.33413,0.69937 12.33413,0.69937c0,0 -8.03812,-0.06028 -11.96762,0.86207c-4.10648,0.96389 -12.16372,4.80211 -12.16372,4.80211z" fill="#000000" stroke="none" stroke-width="0" stroke-linecap="butt"/><path d="M285.44988,103.72118c-3.9295,-0.92235 -11.96762,-0.86207 -11.96762,-0.86207c0,0 7.24586,-1.8937 12.33413,-0.69937c5.08826,1.19433 11.79721,6.36355 11.79721,6.36355c0,0 -8.05724,-3.83822 -12.16372,-4.80211z" data-paper-data="{&quot;index&quot;:null}" fill="#000000" stroke="none" stroke-width="0" stroke-linecap="butt"/><path d="M208.87767,137.34455c0,-12.968 10.51265,-23.48065 23.48065,-23.48065c12.968,0 23.48065,10.51265 23.48065,23.48065c0,0 -12.04444,-8.1588 -23.93388,-8.00696c-11.58733,0.14798 -23.02743,8.61481 -23.02743,8.00696z" fill="#000000" stroke="#000000" stroke-width="2" stroke-linecap="butt"/><path d="M263.13612,137.34987c0,-12.968 10.51265,-23.48065 23.48065,-23.48065c12.968,0 23.48065,10.51265 23.48065,23.48065c0,0 -11.01671,-8.18575 -22.37833,-8.02772c-12.09602,0.16824 -24.58298,8.66278 -24.58298,8.02772z" fill="#000000" stroke="#000000" stroke-width="2" stroke-linecap="butt"/><g fill="none" stroke="#000000" stroke-width="2" stroke-linecap="round"><path d="M205.26448,136.10226l3.6,2.6"/><path d="M313.86447,135.10226l-4.2,3.4"/></g><path d="" fill="#4e45f0" stroke="#4e45f0" stroke-width="3" stroke-linecap="butt"/><g stroke-linecap="butt"><path d="M311.22965,96.05382c1.61154,3.48676 11.12015,22.81492 11.88463,30.36756c1.93603,19.1267 -1.50193,29.66858 -2.33398,29.91173c-0.14205,0.04151 8.49727,39.55802 -5.15888,39.98012c-0.44135,0.01363 0.78203,-1.4441 1.13531,-3.09627c0.28005,-1.30966 -0.25719,-2.89201 -0.69308,-2.89794c-0.15768,-0.03738 -4.00926,4.78871 -4.98353,5.24205c-3.24461,1.50973 -14.09286,0.67813 -12.23809,-0.42086c4.37511,-2.59231 15.57276,-9.50473 12.92135,-20.61371c-6.50069,-1.22204 -7.03903,-8.83202 -6.17228,-8.40824c19.23635,-1.56591 6.68838,-40.53641 4.23247,-44.69464c-0.40207,-0.68079 0.76294,-24.72034 1.40605,-25.36981z" data-paper-data="{&quot;index&quot;:null}" fill="#4e45f0" stroke="#000000" stroke-width="2"/><path d="M198.48291,108.23461c10.67226,-23.04605 30.30431,-34.08725 59.45071,-34.82815c24.15609,-0.61405 39.42828,7.98178 48.18797,15.65881c17.44873,14.82461 3.49301,33.6767 3.49301,33.6767c0,0 -1.71218,-9.59451 -12.90878,-18.28683c-14.4629,-11.22805 -14.38686,-10.00051 -14.38686,-10.00051c0,0 4.58531,1.77318 -4.37211,20.53176c-3.00053,5.60959 -14.44363,14.19359 -19.43996,15.36142c-1.29666,-4.62799 4.48025,-22.15556 -21.98542,-34.98351c-7.90599,12.38478 -20.8396,9.4205 -30.20602,27.96695c-3.84686,14.37118 -10.22348,56.46623 13.52845,40.10762c0.83698,-0.47989 -0.51771,12.69541 -11.97058,13.00782c-0.09465,0.55655 -0.1562,1.10063 -0.18718,1.63241c-0.59545,10.22658 10.12471,15.90138 14.43666,18.08661c1.92306,0.97457 -8.84698,2.51805 -12.18389,1.22504c-1.00201,-0.38825 -5.16272,-4.95053 -5.31762,-4.90285c-0.43456,0.03457 -0.86652,1.64882 -0.50092,2.93725c0.46121,1.62537 1.77785,2.99946 1.33657,3.01491c-13.65431,0.47722 -7.63339,-39.52203 -7.77788,-39.55411c-0.84626,-0.18792 -4.97028,-10.48076 -4.29673,-29.69342c0.36299,-10.35389 5.10061,-20.95793 5.10061,-20.95793z" fill="#4e45f0" stroke="#000000" stroke-width="2"/><path d="M198.48291,108.23461c10.67226,-23.04605 30.30431,-34.08725 59.45071,-34.82815c24.15609,-0.61405 39.42828,7.98178 48.18797,15.65881c1.53247,1.30199 3.22781,3.53921 4.95134,6.32699c-2.65688,1.55736 -5.21078,3.20658 -7.73271,4.75738l-0.68921,-0.38326l-0.6893,-0.55254l-0.02277,-0.02624l-0.07821,-0.05473l-0.464,-0.37192l-0.19658,-0.09033l-0.15961,-0.1117l-0.13083,-0.55793l-1.10614,-0.65378l-0.86786,-0.94753l-0.76448,-0.01726l-1.55055,-0.91645l-0.24433,-0.17099l-0.55346,-0.51818l-0.02564,-0.10937l-0.24728,-0.14614l-0.2034,-0.19044l-2.00814,-1.11668l-1.97805,-1.16913l-0.2671,-0.07937l-0.30286,-0.16842l-0.25084,-0.14825l-1.31267,-1.43315l-0.49877,-0.01127l-0.63706,-0.51065l-0.42303,-0.19439l-0.05891,-0.09565l-0.28077,-0.06046l-0.2532,-0.11633l-2.25821,-0.42436l-1.18139,-0.25436l-0.40251,-0.2379l-1.51565,-0.45036l-1.60596,-0.07049l-1.07661,-0.23178l-0.33225,-0.09873l-0.15862,-0.00696l-0.00397,-0.00086l-0.00888,0.00028l-0.45978,-0.02017l-0.57966,-0.25155l-2.51511,-0.41745l-0.90675,0.07315l-0.09273,-0.04025l-0.92752,-0.15395l-0.03952,-0.0085l-0.00981,0.00032l-1.53826,-0.25532l-0.99279,0.08008l-0.9737,-0.20964l-11.50357,0.3788l-1.53826,-0.25532l-0.99279,0.08008l-0.9737,-0.20964l-18.83733,0.62031l-0.09548,-0.05919l-0.27816,0.07149l-0.27848,0.00919l-2.20955,0.63034l-1.2187,0.31324l-0.19583,-0.04654l-0.24926,0.16094l-0.5616,0.14432l-0.24499,0.13275l-0.2762,0.07879l-0.05248,0.09933l-0.40934,0.2218l-1.18542,1.08574l-0.62805,0.4055l-0.1361,0.07374l-0.05229,0.0479l-0.53404,0.34481l-0.16064,0.17159l-0.35207,0.0312l-1.23981,1.54668l-0.55193,0.50553l-0.14137,0.01254l-0.35268,0.43996l-0.41581,0.38085l-0.00319,0.14188l-0.84629,1.05578l-1.67621,1.97041l0.01558,0.15249l-0.27553,0.59967c-1.18136,0.70136 -2.25453,1.39341 -3.11206,1.92295c-2.22023,1.37098 -13.57159,13.17436 -14.38294,14.37842c-3.31831,4.92437 -4.07606,7.57712 -6.91292,13.2527c-0.56739,1.13514 -2.04192,4.16119 -3.32239,7.30861c-0.01608,-1.66992 0.0045,-3.4221 0.06879,-5.25552c0.36299,-10.35389 5.10061,-20.95793 5.10061,-20.95793z" fill="#4e45f0" stroke="#4e45f0" stroke-width="4"/><path d="M262.88083,67.68017l6.79871,10.82218l17.10437,1.61963l-12.02806,9.95356l4.5848,14.32585l-15.50132,-7.61318l-14.96687,8.61648l3.63242,-14.59644l-12.65682,-9.14069l16.96075,-2.74135z" fill="#ffe938" stroke="#000000" stroke-width="2"/></g><g stroke-width="0" stroke-linecap="butt"><path d="M338.40909,66.22811l-12.60904,4.43389l-6.58827,-8.69002l8.23439,-6.44079l-19.14621,-0.47039l-1.41313,-13.14836l20.52155,-0.29386l-8.75227,-8.36882l6.96019,-8.32255l8.16641,1.84854l18.00527,17.84838l0.37308,7.02552z" fill="#ffffff" stroke="none"/><path d="M329.01934,68.4809c-2.08182,0.93705 -3.61294,-0.90329 -4.7276,-2.258c-1.15381,-1.40229 -3.14377,-5.26032 -3.14377,-5.26032c0,0 8.22,-3.68792 7.36682,-5.51382c-0.42209,-0.90329 -10.32869,-0.86266 -16.66678,-1.19914c-1.78675,-0.09486 -3.16751,-3.97078 -3.24278,-5.70261c-0.19072,-4.38824 0.76145,-5.7099 2.92525,-6.01557c2.60982,-0.36867 17.15224,1.28536 17.99306,-0.11543c0.51636,-0.86024 -9.07135,-8.89978 -9.07135,-8.89978c0,0 3.31334,-3.72089 4.75378,-4.9079c1.12792,-0.92947 2.81211,-1.81564 3.78813,-1.37149c1.46517,0.66673 21.23835,12.32337 21.01541,21.53283c-0.21851,9.02573 -19.3258,18.96209 -20.99015,19.71123z" fill="#f9393f" stroke="#ffffff"/><path d="M328.0271,73.07886c-2.56397,1.14167 -4.63015,-2.97104 -6.00319,-4.62204c-1.42123,-1.70898 -5.27761,-6.80295 -3.72309,-8.1827c2.783,-2.47012 3.96493,-3.4339 3.96493,-3.4339c0,0 -4.77056,0.30362 -12.5796,0.15649c-3.87075,-0.07295 -5.15709,-5.07972 -5.3406,-7.18422c-0.51508,-5.9076 0.60054,-9.57482 3.19952,-10.2573c2.9882,-0.78471 15.54885,-0.36425 15.54885,-0.36425c0,0 -3.90937,-2.82255 -5.54285,-5.58138c-1.52335,-2.57278 4.2599,-7.71889 6.03387,-9.16522c1.38908,-1.13254 3.91852,-2.20826 5.12069,-1.66693c1.80467,0.81266 25.70693,14.73033 25.43338,25.95297c-0.26811,10.99875 -24.0621,23.43571 -26.11191,24.34843zM351.07378,48.75149c0.0488,-10.33514 -21.35752,-23.17462 -22.78701,-23.13138c-2.70917,0.08196 -8.14086,6.85398 -8.14086,6.85398c0,0 10.03534,8.40475 8.851,9.22003c-1.83052,1.2601 -16.93155,0.23329 -19.63761,0.54757c-2.88847,0.33549 -1.88578,10.61721 0.12038,11.87328c1.37954,0.86374 18.47214,-0.06026 19.36261,1.09655c1.28955,1.67528 -8.66197,6.61267 -8.66197,6.61267c0,0 5.00766,7.69947 6.91453,8.20155c2.07643,0.54672 23.93264,-11.46314 23.97897,-21.27427z" fill="#651038" stroke="#1542b7"/></g><path d="M268.7107,188.90371c-16.57734,0.52251 -18.30332,-12.19264 -18.30332,-12.19264l41.68696,-8.74255c0,0 -5.30202,20.36526 -23.38364,20.93519z" fill="#2a2580" stroke="#000000" stroke-width="2" stroke-linecap="round"/></g></g></svg>