<svg version="1.1" xmlns="http://www.w3.org/2000/svg" xmlns:xlink="http://www.w3.org/1999/xlink" width="133.49166" height="267.22501" viewBox="0,0,133.49166,267.22501"><defs><linearGradient x1="240.00003" y1="175.50001" x2="240.00003" y2="307.50001" gradientUnits="userSpaceOnUse" id="color-1"><stop offset="0" stop-color="#1a110e"/><stop offset="1" stop-color="#5d3d27"/></linearGradient><linearGradient x1="240.07697" y1="76.38374" x2="240.07697" y2="196.9804" gradientUnits="userSpaceOnUse" id="color-2"><stop offset="0" stop-color="#19110c"/><stop offset="1" stop-color="#714a2f"/></linearGradient><radialGradient cx="297.976" cy="145.48235" r="10.42652" gradientUnits="userSpaceOnUse" id="color-3"><stop offset="0" stop-color="#ffe902"/><stop offset="1" stop-color="#6a6101"/></radialGradient></defs><g transform="translate(-174.88629,-46.38751)"><g data-paper-data="{&quot;isPaintingLayer&quot;:true}" fill-rule="nonzero" stroke-linejoin="miter" stroke-miterlimit="10" stroke-dasharray="" stroke-dashoffset="0" style="mix-blend-mode: normal"><path d="M179.28373,313.61252v-267.22501h123.18203v267.22501z" fill-opacity="0.01" fill="#000000" stroke="none" stroke-width="0" stroke-linecap="butt"/><path d="M206.75004,307.5l15.14285,-131.8421l37.78325,-0.15789l13.57389,132z" fill="url(#color-1)" stroke="#000000" stroke-width="0" stroke-linecap="butt"/><g><path d="M175.83995,136.68207c0,-33.30185 28.7599,-60.29833 64.23702,-60.29833c35.47712,0 64.23702,26.99649 64.23702,60.29833c0,33.30185 -28.7599,60.29833 -64.23702,60.29833c-35.47712,0 -64.23702,-26.99649 -64.23702,-60.29833z" fill="url(#color-2)" stroke="#000000" stroke-width="0" stroke-linecap="butt"/><path d="M203.1434,110.81647c0,0 4.81769,-1.20107 9.97355,-2.11173c7.01343,-1.23878 10.77003,-0.11664 10.77003,-0.11664l2.9041,57.19493c0,0 -5.07715,1.48559 -7.88256,1.48559c-3.62176,0 -12.44615,-1.48559 -12.44615,-1.48559z" fill="none" stroke="#36251c" stroke-width="2.5" stroke-linecap="round"/><path d="M268.6819,107.53415c5.54706,0.46823 7.06403,1.42535 7.06403,1.42535l-0.82975,55.33794c0,0 -6.55603,0.7428 -9.54204,0.7428c-2.64158,0 -7.46769,-0.7428 -7.46769,-0.7428l2.9041,-57.19492c0,0 4.15446,0.11788 7.87135,0.43162z" fill="none" stroke="#36251c" stroke-width="2.5" stroke-linecap="round"/><path d="M182.9822,118.57433l0.53472,-2.49537" fill="none" stroke="#000000" stroke-width="1.5" stroke-linecap="round"/><path d="M183.51692,117.50489l2.85186,2.85185" fill="none" stroke="#000000" stroke-width="1.5" stroke-linecap="round"/><path d="M180.66507,123.92156l2.31714,-0.17825l1.42593,1.06945" fill="none" stroke="#000000" stroke-width="1.5" stroke-linecap="round"/><path d="M177.27849,132.47712l2.49537,-1.96065l-0.53472,2.67361l1.06945,0.17824v2.49537l1.96065,0.35648" fill="none" stroke="#000000" stroke-width="1.5" stroke-linecap="round"/><path d="M177.27849,138.89379l1.42593,-0.53472l1.60417,2.13889" fill="none" stroke="#000000" stroke-width="1.5" stroke-linecap="round"/><path d="M178.34794,147.80584l-0.35649,2.31713l-1.24768,0.35648" fill="none" stroke="#000000" stroke-width="1.5" stroke-linecap="round"/><path d="M178.34794,154.579l1.60416,-0.53473l1.06945,1.42593" fill="none" stroke="#000000" stroke-width="1.5" stroke-linecap="round"/><path d="M186.72527,164.91698l-1.24769,-1.06945l-3.74306,-0.53473l1.78241,-1.60416l0.71296,-1.78241l0.17824,-2.49537v-1.96065l2.67361,-2.67362" fill="none" stroke="#000000" stroke-width="1.5" stroke-linecap="round"/><path d="M184.22989,164.38224l-0.8912,1.78241" fill="none" stroke="#000000" stroke-width="1.5" stroke-linecap="round"/><path d="M287.52491,148.12105c0,-5.7584 4.66811,-10.42652 10.42652,-10.42652c5.75841,0 10.42652,4.66811 10.42652,10.42652c0,5.7584 -4.66811,10.42652 -10.42652,10.42652c-5.75841,0 -10.42652,-4.66811 -10.42652,-10.42652z" fill="url(#color-3)" stroke="#f6c002" stroke-width="0" stroke-linecap="butt"/><path d="M182.017,158.08768c0,0 1.27471,3.07549 2.06246,4.40033c0.64873,1.09105 2.32843,2.98433 2.32843,2.98433l-3.19336,1.79627c0,0 -1.63318,-2.53986 -2.21157,-3.76467c-0.55131,-1.16746 -1.18139,-3.4204 -1.18139,-3.4204z" fill="#b4b3b4" stroke="#b6b4b2" stroke-width="0.5" stroke-linecap="round"/><path d="M177.42654,154.29556c0,0 -1.0568,-2.6996 -1.36083,-4.01709c-0.29441,-1.27578 -0.43544,-3.76675 -0.43544,-3.76675l3.47833,-0.5422c0,0 -0.10123,2.66703 0.12039,3.97255c0.21545,1.26922 1.19133,3.75473 1.19133,3.75473l-2.99378,0.59875z" fill="#b4b3b4" stroke="#b6b4b2" stroke-width="0.5" stroke-linecap="round"/><path d="M178.43679,129.54695c0,0 -0.43396,2.99796 -0.46907,4.43757c-0.03087,1.26557 0.26948,3.74544 0.26948,3.74544h-3.19337c0,0 -0.19838,-0.161 -0.1831,-4.40509c0.01029,-2.85922 0.38268,-3.57833 0.38268,-3.57833z" fill="#b4b3b4" stroke="#b6b4b2" stroke-width="0.5" stroke-linecap="round"/><path d="M234.82074,82.95107c1.11368,-0.48163 3.17159,-2.51212 4.40729,-2.56044c1.59746,-0.72933 3.44454,-2.06343 4.76676,-2.87118c0.10183,-0.10183 0.19206,-0.21545 0.27387,-0.33465c0.01741,-0.19097 0.2171,-0.19097 0.2171,-0.19097c1.04555,0 3.41548,-0.10645 4.04372,0.92166c0.01629,0.01718 0.02787,0.03543 0.03585,0.05391l0.0713,0.05722c0,0 0.15437,0.15436 0,0.30873c-0.07468,0.07467 -0.14935,0.0771 -0.20655,0.0597c-0.89837,1.58845 -2.25201,1.96929 -3.84669,2.76663c-1.17418,0.56063 -4.90621,1.20988 -5.52548,2.39179c-1.78567,0.66675 -3.4863,2.44847 -5.10838,2.59662c-0.33826,-0.01028 -0.58345,0.18536 -0.81327,0.41924c0.6078,0.73297 3.46756,1.08185 4.32534,1.08185c1.82334,0.03642 4.74217,0.3223 6.38107,1.10658c2.14553,0.7126 4.85568,0.1897 6.86966,1.20028c1.35946,-0.01682 5.9571,0.4407 5.98125,2.15017c-0.03216,1.61001 -4.30953,2.1635 -5.51201,2.15318c-0.63231,0.21077 -1.55276,0.22897 -2.25455,0.24133c-0.04063,0.08264 -0.1335,0.1136 -0.1335,0.1136c-1.65438,0.54872 -3.44003,1.30838 -4.98424,2.06417c-1.43356,0 -2.94547,1.45438 -4.20532,2.04802c-0.35923,0.16927 -0.41607,0.69016 -0.92475,0.58094c-0.10068,0.30205 -1.8613,1.73537 -0.94214,2.09066l0.09939,0.18341c1.50822,0.08628 3.11562,1.10854 4.53842,1.58044c2.22668,0.74563 4.01814,1.41428 6.39974,1.44791c0.42196,0.21098 1.00153,0.04917 1.24149,0.61334c0.47011,1.10529 -0.78233,1.08281 -0.83112,1.77903c-0.07042,1.00496 0.72486,1.9211 -0.79058,2.57649c-0.78471,1.56941 -2.14133,2.85446 -2.98676,4.5453c-0.91058,1.82116 -1.34537,3.7019 -2.17991,5.44978c-0.23389,0.43839 -0.36743,1.40185 -0.12111,1.86355l0.01405,0.13336c0.57701,1.17437 0.97261,4.06818 0.97785,4.80852c0,1.11518 0.8889,3.61807 -0.06394,4.51418c-0.54595,0.51345 -1.05322,0.28985 -1.45328,1.08996c-1.93871,1.00291 -3.3797,-0.7838 -5.36193,-0.7838c-0.1641,0 -0.32819,0 -0.49229,0c0.38238,0.28072 0.88127,0.92296 1.26675,1.27104c0.17903,-0.07052 0.26854,0.10851 0.26854,0.10851c0.00929,0.03526 0.02077,0.07018 0.03431,0.1048c0.04996,0.02008 0.0949,0.02668 0.13375,0.01674l0.27547,0.18505c0,0 0.15437,0.15436 0,0.30873c-0.00977,0.00977 -0.01955,0.01832 -0.02929,0.02573c0.89686,0.88673 2.88808,1.62882 3.42026,2.69319c1.54245,0.66707 3.32797,2.61915 3.32797,4.44324c-1.22439,2.36684 -4.52124,0.12492 -5.21107,-1.47017c-0.11184,-0.05592 -0.18998,-0.11361 -0.25083,-0.17972c0.36889,1.16457 1.59234,2.14385 1.59234,3.77964c0,0.72335 0.75297,1.97284 0.45182,2.53689c-1.00051,1.87393 -2.45609,-1.1528 -2.69918,-1.63899c-0.02254,-1.92016 -2.10391,-3.17054 -2.0588,-5.42899c0.32001,-0.67022 1.00563,-1.01961 0.84775,-1.83738c-0.21264,-1.10137 -1.95641,-1.45558 -2.32443,-2.40769c-1.32881,0 -3.71413,-3.66714 -3.02766,-4.85233c2.176,-0.19873 4.34671,-0.27481 6.5334,-0.27481c0.53151,0 1.06303,0 1.59454,0c-0.01016,-0.10042 0.06769,-0.17828 0.06769,-0.17828l0.05716,0.03326c0,-1.25143 0,-2.50286 0,-3.75429c0,-2.1267 0.6356,-4.40528 0.60835,-6.4536c0.70861,-2.15649 0.44423,-4.42275 1.4735,-6.48129c0.29251,-0.54825 2.24676,-3.84459 1.175,-3.80222c-0.0069,0.00054 -0.0109,0.00055 -0.0109,0.00055c-1.19795,0 -1.60292,-0.64802 -2.59338,-0.85359c-0.75788,-0.1573 -1.23462,0.48443 -1.95849,0.48443c-0.18506,0.04062 0.37842,1.99729 0.28341,2.38092c-0.25298,1.02149 -1.01956,2.40828 -0.96885,3.39097c-0.54744,1.14655 0.01687,2.9337 -0.762,3.95289c-0.70962,0.92857 -1.57458,1.11033 -2.08505,0.04361c-0.02875,-2.03566 0.64042,-4.58571 1.47048,-6.3242c1.06667,-2.13335 -0.55777,-3.69281 1.35033,-5.6009c0.05934,-0.12231 -4.01105,-1.67774 -4.90302,-1.98767c-0.73604,-0.72372 -2.1985,-2.06518 -1.52421,-3.32812c0.2759,-0.51676 1.6782,-0.67818 2.14688,-0.92823c1.83397,-0.91698 2.75612,-2.00741 4.57202,-2.88839c0.57947,-0.57947 1.94599,-1.26899 2.75006,-1.36267c1.29264,-0.5765 2.7105,-1.00381 4.0619,-1.68314c0.40668,-0.20251 0.69314,-0.5258 1.08996,-0.72664c0.00857,-0.00434 0.01796,-0.00912 0.02804,-0.01427c-0.46442,0.03857 -1.10383,-0.02968 -1.28675,-0.06159c-0.85101,-0.14849 -1.70308,-0.84857 -2.56922,-0.84857c-2.04883,-0.98561 -4.46313,-0.53107 -6.41862,-1.57438c-1.95235,0.01694 -3.77415,-1.55187 -5.69199,-1.57438c-2.97371,-1.41984 -0.55186,-3.24677 1.16359,-4.16202c0.7688,-0.38441 1.55317,-0.68306 2.32184,-1.0447c-0.09136,-0.19164 0.10028,-0.28746 0.10028,-0.28746z" fill="#000000" stroke="none" stroke-width="0.5" stroke-linecap="butt"/><path d="M176.45323,122.56146c0,0 0.82609,-4.90945 2.7942,-7.18508c1.96811,-2.27563 1.99474,-0.58001 3.59253,-0.19958c1.59779,0.38043 0.83864,0.52018 0.59876,1.19751c-0.23988,0.67733 -3.99171,8.38259 -3.99171,8.38259z" fill="#b4b3b4" stroke="#b6b4b2" stroke-width="0.5" stroke-linecap="round"/><path d="M252.50321,76.64391c0.01798,-0.02958 0.03476,-0.05879 0.05019,-0.08754c-0.00042,0.02678 -0.01832,0.05617 -0.05019,0.08754z" fill-opacity="0.43044" fill="#9966ff" stroke="none" stroke-width="0.5" stroke-linecap="butt"/></g><path d="M189.39015,136.77821c0,-12.968 10.51265,-23.48065 23.48065,-23.48065c12.968,0 23.48065,10.51265 23.48065,23.48065c0,12.968 -10.51265,23.48065 -23.48065,23.48065c-12.968,0 -23.48065,-10.51265 -23.48065,-23.48065z" fill="#b6b6b6" stroke="#000000" stroke-width="0" stroke-linecap="butt"/><path d="M267.12926,160.25885c-12.968,0 -23.48065,-10.51265 -23.48065,-23.48065c0,-12.968 10.51265,-23.48065 23.48065,-23.48065c12.968,0 23.48065,10.51265 23.48065,23.48065c0,12.968 -10.51265,23.48065 -23.48065,23.48065z" data-paper-data="{&quot;index&quot;:null}" fill="#b6b6b6" stroke="#000000" stroke-width="0" stroke-linecap="butt"/><path d="M200.25036,136.77821c0,-6.97008 5.65035,-12.62044 12.62043,-12.62044c6.97008,0 12.62044,5.65036 12.62044,12.62044c0,6.97008 -5.65036,12.62044 -12.62044,12.62044c-6.97008,0 -12.62043,-5.65036 -12.62043,-12.62044z" fill="none" stroke="#ffffff" stroke-width="2" stroke-linecap="butt"/><path d="M267.12926,149.39864c-6.97008,0 -12.62044,-5.65036 -12.62044,-12.62044c0,-6.97008 5.65037,-12.62044 12.62044,-12.62044c6.97008,0 12.62043,5.65036 12.62043,12.62044c0,6.97008 -5.65037,12.62044 -12.62043,12.62044z" data-paper-data="{&quot;index&quot;:null}" fill="none" stroke="#ffffff" stroke-width="2" stroke-linecap="butt"/><path d="M234.94659,188.54155c0,0 -0.23132,-2.09129 6.63795,-1.93646c7.36413,0.16598 7.05282,1.93646 7.05282,1.93646" fill="none" stroke="#000000" stroke-width="1.5" stroke-linecap="round"/></g></g></svg>