<svg version="1.1" xmlns="http://www.w3.org/2000/svg" xmlns:xlink="http://www.w3.org/1999/xlink" width="142.72592" height="247.57757" viewBox="0,0,142.72592,247.57757"><defs><linearGradient x1="319.92305" y1="175.45918" x2="319.92305" y2="307.45912" gradientUnits="userSpaceOnUse" id="color-1"><stop offset="0" stop-color="#4c7b64"/><stop offset="1" stop-color="#2b2b2b"/></linearGradient><linearGradient x1="320.08155" y1="221.49563" x2="320.08155" y2="308.14563" gradientUnits="userSpaceOnUse" id="color-2"><stop offset="0" stop-color="#6b6dd3"/><stop offset="1" stop-color="#000000"/></linearGradient><linearGradient x1="355.96016" y1="194.55737" x2="355.96016" y2="302.11987" gradientUnits="userSpaceOnUse" id="color-3"><stop offset="0" stop-color="#4b7b64"/><stop offset="1" stop-color="#000000"/></linearGradient><linearGradient x1="284.13221" y1="194.4685" x2="284.13221" y2="302.02621" gradientUnits="userSpaceOnUse" id="color-4"><stop offset="0" stop-color="#4b7b64"/><stop offset="1" stop-color="#000000"/></linearGradient><linearGradient x1="305.31275" y1="87.73693" x2="321.52243" y2="206.75175" gradientUnits="userSpaceOnUse" id="color-5"><stop offset="0" stop-color="#000000"/><stop offset="1" stop-color="#ffdac9"/></linearGradient><linearGradient x1="313.31411" y1="147.05582" x2="321.33186" y2="205.92376" gradientUnits="userSpaceOnUse" id="color-6"><stop offset="0" stop-color="#000000"/><stop offset="1" stop-color="#7e647b"/></linearGradient><radialGradient cx="291.54692" cy="149.0561" r="23.48065" gradientUnits="userSpaceOnUse" id="color-7"><stop offset="0" stop-color="#c7c7c7"/><stop offset="1" stop-color="#c79797"/></radialGradient><radialGradient cx="337.3623" cy="144.58227" r="23.48065" gradientUnits="userSpaceOnUse" id="color-8"><stop offset="0" stop-color="#c7c7c7"/><stop offset="1" stop-color="#c79797"/></radialGradient><linearGradient x1="301.27329" y1="62.04662" x2="309.28268" y2="120.85321" gradientUnits="userSpaceOnUse" id="color-9"><stop offset="0" stop-color="#4c7b64"/><stop offset="1" stop-color="#000000"/></linearGradient><linearGradient x1="301.8515" y1="66.33449" x2="306.31832" y2="99.13077" gradientUnits="userSpaceOnUse" id="color-10"><stop offset="0" stop-color="#daffed"/><stop offset="1" stop-color="#161a18"/></linearGradient><linearGradient x1="303.14381" y1="71.21297" x2="305.92871" y2="91.66033" gradientUnits="userSpaceOnUse" id="color-11"><stop offset="0" stop-color="#49705e"/><stop offset="1" stop-color="#13160e"/></linearGradient><linearGradient x1="314.11295" y1="156.25186" x2="318.932" y2="191.63433" gradientUnits="userSpaceOnUse" id="color-12"><stop offset="0" stop-color="#000000"/><stop offset="1" stop-color="#ffdac9"/></linearGradient></defs><g transform="translate(-244.782,-61.07424)"><g data-paper-data="{&quot;isPaintingLayer&quot;:true}" stroke-linecap="butt" stroke-linejoin="miter" stroke-miterlimit="10" stroke-dasharray="" stroke-dashoffset="0" style="mix-blend-mode: normal"><path d="M286.67305,307.45912l15.14285,-131.8421l37.78325,-0.15789l13.57389,132z" fill="url(#color-1)" fill-rule="nonzero" stroke="#000000" stroke-width="2"/><path d="M299.53999,204.07182l3.12142,-26.32765l35.83075,-0.14203l2.76735,26.1059c0,0 -7.51543,4.19603 -21.55904,4.50964c-12.48458,0.27879 -20.16049,-4.14586 -20.16049,-4.14586z" fill="#2f4b3d" fill-rule="nonzero" stroke="#000000" stroke-width="0"/><path d="M286.20349,307.39563l9.625,-85.15c0,0 16.14032,5.36651 24.41538,5.23987c8.05433,-0.12327 24.59071,-5.98987 24.59071,-5.98987l9.125,86.65z" fill="url(#color-2)" fill-rule="nonzero" stroke="#000000" stroke-width="1"/><path d="M330.77702,225.84332l-2.72223,-31.57302l7.33053,-1.11111l3.5,30.46191c0,0 1.97994,9.94622 -2.77415,10.47275c-4.71963,0.52271 -5.33415,-8.25053 -5.33415,-8.25053z" data-paper-data="{&quot;index&quot;:null}" fill="#6b6dd3" fill-rule="nonzero" stroke="#000000" stroke-width="1"/><path d="M301.66589,224.12111l3.5,-30.4619l8.21942,0.55556l-2.61111,32.12857c0,0 -1.38805,9.70344 -6.18894,8.77837c-5.22617,-1.00701 -2.91937,-11.0006 -2.91937,-11.0006z" fill="#6b6dd3" fill-rule="nonzero" stroke="#000000" stroke-width="1"/><path d="M338.7852,228.05325c0,1.99603 -1.54283,3.61412 -3.44602,3.61412c-1.90319,0 -3.44603,-1.6181 -3.44603,-3.61412c0,-1.99603 1.54284,-3.61412 3.44603,-3.61412c1.90319,0 3.44602,1.61809 3.44602,3.61412z" fill="#c6a438" fill-rule="nonzero" stroke="none" stroke-width="0"/><path d="M309.37397,228.76993c0,1.99603 -1.54283,3.61412 -3.44602,3.61412c-1.90319,0 -3.44603,-1.6181 -3.44603,-3.61412c0,-1.99603 1.54284,-3.61412 3.44603,-3.61412c1.90319,0 3.44602,1.61809 3.44602,3.61412z" fill="#c6a438" fill-rule="nonzero" stroke="none" stroke-width="0"/><path d="M308.84898,229.41992c0,1.99602 -1.54284,3.61412 -3.44602,3.61412c-1.90319,0 -3.44602,-1.6181 -3.44602,-3.61412c0,-1.99602 1.54284,-3.61412 3.44602,-3.61412c1.90319,0 3.44602,1.6181 3.44602,3.61412z" fill="#edd459" fill-rule="nonzero" stroke="none" stroke-width="0"/><path d="M338.53667,228.70117c0,1.87521 -1.44945,3.39537 -3.23744,3.39537c-1.78799,0 -3.23745,-1.52016 -3.23745,-3.39537c0,-1.87521 1.44946,-3.39537 3.23745,-3.39537c1.78799,0 3.23744,1.52016 3.23744,3.39537z" fill="#edd459" fill-rule="nonzero" stroke="none" stroke-width="0"/><path d="M341.61102,194.55737c0.90641,1.442 13.27591,-0.94411 14.53458,0.88889c0.31862,-0.594 9.30076,33.378 9.72787,35c-0.5926,-0.963 5.60783,49.33333 5.60783,49.33333c0,0 0.50768,22.79733 0.91556,22.33333c-0.88787,-0.49 -11.18842,-0.32367 -12.13122,-0.16667c0.5308,-15.625 -11.71487,-68.29133 -19.1124,-79.33333c2.25366,-15.345 -5.00951,-26.28055 0.45778,-28.05555z" fill="url(#color-3)" fill-rule="evenodd" stroke="none" stroke-width="1"/><path d="M341.52136,194.59507c0.91572,1.34757 13.41232,-0.88229 14.68393,0.83068c0.10385,-0.17908 1.11865,3.00386 2.46032,7.4491c-6.17155,-0.51975 -13.01437,-2.82677 -18.35267,1.21834c-0.00693,0.00525 -0.01384,0.01053 -0.02073,0.01584c-0.98219,-5.21007 -1.76061,-8.6161 1.22914,-9.51396z" fill="#2f4b3d" fill-rule="nonzero" stroke="none" stroke-width="1"/><path d="M387.45586,301.10947c0.01927,0.00566 0.03664,0.01141 0.05206,0.01725c-0.01724,0.01347 -0.0346,0.00734 -0.05206,-0.01725z" fill="#2f4b3d" fill-rule="nonzero" stroke="none" stroke-width="1"/><path d="M298.93917,222.52405c-7.39753,11.042 -19.6432,63.70833 -19.1124,79.33333c-0.9428,-0.157 -11.24335,-0.32333 -12.13122,0.16667c0.40788,0.464 7.11599,-72.62966 6.52339,-71.66666c0.42711,-1.622 9.40925,-35.594 9.72787,-35c1.25867,-1.833 13.62817,0.55311 14.53458,-0.88889c5.46729,1.775 -1.79588,12.71055 0.45778,28.05555z" data-paper-data="{&quot;index&quot;:null}" fill="url(#color-4)" fill-rule="evenodd" stroke="none" stroke-width="1"/><path d="M298.57106,194.50619c2.98975,0.89786 2.21133,4.30389 1.22914,9.51396c-0.00689,-0.00531 -0.0138,-0.01059 -0.02073,-0.01584c-5.3383,-4.04511 -12.18112,-1.73809 -18.35267,-1.21834c1.34167,-4.44524 2.35647,-7.62818 2.46032,-7.4491c1.27161,-1.71297 13.76821,0.51689 14.68393,-0.83068z" data-paper-data="{&quot;index&quot;:null}" fill="#2f4b3d" fill-rule="nonzero" stroke="none" stroke-width="1"/><g><path d="M251.30242,123.20069c0.10484,-1.98861 -1.27582,-15.2827 11.04039,-29.79914c6.64988,-7.83787 13.92366,-18.71926 35.2188,-22.2772c31.69644,-4.83285 45.04467,5.0567 54.35713,12.5862c12.77258,10.32715 14.85688,20.90508 18.0211,25.77209c0.32126,0.49413 -118.64054,13.77759 -118.63741,13.71805z" fill="#a8530c" fill-rule="nonzero" stroke="none" stroke-width="1.5"/><path d="M249.73561,155.67392c-2.85437,-20.95737 6.12967,-40.96014 22.07187,-53.99364c0.83864,-1.885 18.3646,-11.77328 31.75041,-13.70172c13.3858,-1.92845 26.21584,-0.64201 36.81701,3.82347c19.32621,8.14069 33.75727,25.22534 36.65948,46.53396c4.49418,32.9972 -20.35937,63.62795 -55.51195,68.41569c-35.15257,4.78774 -67.29263,-18.08056 -71.78681,-51.07775z" fill="url(#color-5)" fill-rule="nonzero" stroke="#000000" stroke-width="2"/><path d="M250.45915,155.62978c-0.09824,-0.72133 12.70551,54.70519 70.46429,47.86278c55.18609,-6.53763 55.11162,-65.99433 55.24911,-64.9848c4.4271,32.50469 -20.12594,62.68785 -54.84073,67.41596c-34.71479,4.72811 -66.44557,-17.78926 -70.87267,-50.29395z" fill="url(#color-6)" fill-rule="nonzero" stroke="#000000" stroke-width="0"/><path d="M254.93938,166.78173c0,0 -4.20383,-7.33892 -4.73535,-11.24143c-0.8137,-5.97433 3.60161,-43.35166 3.60161,-43.35166l9.43778,-1.28542c0,0 -2.57325,8.59128 -2.57091,13.28277c0.00208,4.16662 2.58427,13.47882 2.58427,13.47882l-1.67991,3.01071l-3.22094,-1.38251z" fill="#3a2f2b" fill-rule="nonzero" stroke="#000000" stroke-width="0"/><path d="M283.43305,151.51786c-1.75007,-12.84937 2.72278,-24.06827 9.99038,-25.05811c7.2676,-0.98984 14.57787,8.62422 16.32794,21.47359c1.75007,12.84937 -2.72278,24.06827 -9.99038,25.05811c-7.2676,0.98984 -14.57787,-8.62422 -16.32794,-21.47359z" fill="url(#color-7)" fill-rule="nonzero" stroke="#000000" stroke-width="2"/><path d="M253.44152,162.43234c0,0 -3.97216,-6.93448 -4.47439,-10.62191c-0.76886,-5.64508 3.40312,-40.96255 3.40312,-40.96255l8.91767,-1.21458c0,0 -2.43145,8.11781 -2.42922,12.55075c0.00197,3.93699 2.44186,12.736 2.44186,12.736l-1.58734,2.84479l-3.04344,-1.30632z" fill="#766058" fill-rule="nonzero" stroke="#000000" stroke-width="1.5"/><path d="M333.21075,168.43555c-7.21288,0.98238 -14.47878,-8.63772 -16.22885,-21.48708c-1.75007,-12.84937 2.67842,-24.06223 9.8913,-25.04461c7.21288,-0.98238 14.47878,8.63772 16.22885,21.48708c1.75007,12.84937 -2.67842,24.06223 -9.8913,25.04461z" data-paper-data="{&quot;index&quot;:null}" fill="url(#color-8)" fill-rule="nonzero" stroke="#000000" stroke-width="2"/><path d="M269.81274,125.6984c0,0 10.81887,-5.77707 15.99372,-5.04385c5.17487,0.73322 12.3941,4.3389 12.3941,4.3389c0,0 -8.62273,-2.18464 -12.61911,-2.75088c-4.17638,-0.59174 -15.76873,3.45583 -15.76873,3.45583z" fill="#000000" fill-rule="nonzero" stroke="none" stroke-width="0"/><path d="M332.58053,116.19792c-3.65748,1.70718 -9.9343,6.72881 -9.9343,6.72881c0,0 4.51988,-5.97153 9.25593,-8.18215c4.73604,-2.21062 13.20495,-2.30181 13.20495,-2.30181c0,0 -8.70436,1.97109 -12.52657,3.75517z" data-paper-data="{&quot;index&quot;:null}" fill="#000000" fill-rule="nonzero" stroke="none" stroke-width="0"/><path d="M363.12905,126.03238l-2.73388,2.19355l-2.4239,-2.45178c0,0 -0.00229,-9.66358 -1.11458,-13.67899c-1.25242,-4.52123 -6.02957,-12.11139 -6.02957,-12.11139l9.43778,-1.28542c0,0 14.25055,34.83506 15.06424,40.8094c0.53151,3.9025 -1.5565,12.09837 -1.5565,12.09837z" data-paper-data="{&quot;index&quot;:null}" fill="#3a2f2b" fill-rule="nonzero" stroke="#000000" stroke-width="0"/><path d="M364.48438,124.12929l-2.58322,2.07266l-2.29032,-2.31665c0,0 -0.00216,-9.13103 -1.05316,-12.92514c-1.1834,-4.27206 -5.69727,-11.44393 -5.69727,-11.44393l8.91767,-1.21458c0,0 13.4652,32.91531 14.23405,38.56039c0.50223,3.68742 -1.47073,11.43163 -1.47073,11.43163z" data-paper-data="{&quot;index&quot;:null}" fill="#766058" fill-rule="nonzero" stroke="#000000" stroke-width="1.5"/><path d="M246.23309,111.17387c13.17965,-25.65608 31.36312,-45.90246 54.13203,-49.00356c22.72763,-3.09548 45.1421,5.86652 63.9605,26.8641c2.617,2.92005 8.91049,21.83509 7.08739,23.20304c-2.72586,2.04531 -56.2346,-3.22102 -64.26619,-2.12712c-8.36136,1.13881 -55.27769,18.82226 -58.94516,18.65067c-2.64083,-0.12354 -3.93644,-13.75632 -1.96854,-17.58714z" fill="url(#color-9)" fill-rule="nonzero" stroke="#000000" stroke-width="1"/><path d="M322.33317,80.24722c1.23348,9.05645 -5.9366,17.51089 -16.01479,18.88353c-10.07819,1.37264 -19.24813,-4.85632 -20.4816,-13.91276c-1.23348,-9.05645 5.9366,-17.51089 16.01479,-18.88353c10.07819,-1.37264 19.24813,4.85632 20.4816,13.91276z" fill="url(#color-10)" fill-rule="nonzero" stroke="none" stroke-width="0"/><path d="M260.41883,124.3796l1.62176,-9.08771c0,0 7.87071,-4.32552 8.49373,-4.59677c4.6493,-2.02431 24.36026,-11.60421 35.68257,-13.14629c10.93535,-1.48938 32.89229,2.09125 38.75988,2.8805c0.97742,0.13147 8.19733,3.67581 8.19733,3.67581l2.99685,8.50671c0,0 -9.04318,-1.7948 -9.83512,-1.68468c-1.87053,0.26012 -5.90057,-0.16259 -11.12797,-0.59858c-7.56695,-0.6311 -16.84086,5.8336 -26.50734,7.17782c-9.85106,1.36988 -20.1206,-2.60957 -26.7497,-0.19608c-4.57039,1.66396 -7.79159,2.98062 -8.85909,3.12907c-0.72091,0.10025 -12.6729,3.94022 -12.6729,3.94022z" fill="#141d18" fill-rule="nonzero" stroke="#000000" stroke-width="0"/><path d="M315.16853,90.40188l-18.17987,1.74834l-3.08466,-19.67878l5.43666,-0.68894l1.59142,13.39707l13.03188,-1.54173z" data-paper-data="{&quot;index&quot;:null}" fill="url(#color-11)" fill-rule="evenodd" stroke="none" stroke-width="1"/><path d="M319.25197,178.31507c0,0 -21.94327,25.27858 -37.6314,20.51048c-15.68813,-4.76808 -19.51747,-37.87971 -19.51747,-37.87971c0,0 16.25697,13.15579 25.7876,16.05243c9.51898,2.8931 31.36127,1.3168 31.36127,1.3168z" fill="#000000" fill-rule="nonzero" stroke="none" stroke-width="0"/><path d="M346.74367,168.89468c8.29874,-5.27006 20.28622,-22.07152 20.28622,-22.07152c0,0 5.09778,32.49862 -8.56256,41.17355c-13.66034,8.67493 -41.1995,-9.57242 -41.1995,-9.57242c0,0 21.18724,-4.26598 29.47584,-9.52961z" data-paper-data="{&quot;index&quot;:null}" fill="#000000" fill-rule="nonzero" stroke="none" stroke-width="0"/><path d="M304.41421,184.21659c-4.26785,-8.81698 5.79529,-27.43304 5.79529,-27.43304c0,0 2.94259,-0.0151 4.40877,-0.16578c1.54842,-0.15913 4.39829,-0.95523 4.39829,-0.95523c0,0 13.23336,17.92259 12.10965,24.69164c-2.65454,15.99063 -22.44416,12.67939 -26.71201,3.86242z" fill="url(#color-12)" fill-rule="nonzero" stroke="#000000" stroke-width="2"/><g fill="#000000" fill-rule="nonzero" stroke="none" stroke-width="1" font-family="Inter, -apple-system, BlinkMacSystemFont, &quot;Segoe UI&quot;, Roboto, Oxygen, Ubuntu, Cantarell, &quot;Fira Sans&quot;, &quot;Droid Sans&quot;, &quot;Helvetica Neue&quot;, sans-serif, emoji" font-weight="400" font-size="16" text-anchor="start"/><g data-paper-data="{&quot;index&quot;:null}" fill="#000000" fill-rule="nonzero" stroke="none" stroke-width="1" font-family="Inter, -apple-system, BlinkMacSystemFont, &quot;Segoe UI&quot;, Roboto, Oxygen, Ubuntu, Cantarell, &quot;Fira Sans&quot;, &quot;Droid Sans&quot;, &quot;Helvetica Neue&quot;, sans-serif, emoji" font-weight="400" font-size="16" text-anchor="start"/><path d="M310.78335,157.83051l0.59001,-5.05407l5.44365,-0.53957l1.76612,4.64518c0,0 -2.70531,1.17191 -4.11807,1.31811c-1.32378,0.13699 -3.6817,-0.36966 -3.6817,-0.36966z" fill="#907b72" fill-rule="nonzero" stroke="#000000" stroke-width="0"/></g></g></g></svg>