<svg version="1.1" xmlns="http://www.w3.org/2000/svg" xmlns:xlink="http://www.w3.org/1999/xlink" width="175" height="294.5" viewBox="0,0,175,294.5"><g transform="translate(-152.5,-33.5)"><g data-paper-data="{&quot;isPaintingLayer&quot;:true}" fill-rule="nonzero" stroke-linecap="butt" stroke-linejoin="miter" stroke-miterlimit="10" stroke-dasharray="" stroke-dashoffset="0" style="mix-blend-mode: normal"><path d="M152.5,328v-294.5h175v294.5z" fill="none" stroke="#000000" stroke-width="0"/><path d="M307.15506,147.21946c3.16787,25.12672 -3.79332,35.27639 -3.79332,35.27639c0,0 -12.10918,-21.36529 -19.77288,-32.51081c-7.92295,-11.52255 -27.01293,-35.53106 -27.01293,-35.53106l31.81283,-16.76525c0,0 15.26168,21.73291 18.7663,49.53072z" data-paper-data="{&quot;index&quot;:null}" fill="#b3946b" stroke="#000000" stroke-width="2"/><path d="M192.8353,97.68876l31.81283,16.76525c0,0 -19.08998,24.0085 -27.01292,35.53106c-7.6637,11.14552 -19.77288,32.51081 -19.77288,32.51081c0,0 -6.96119,-10.14966 -3.79332,-35.27639c3.50463,-27.79782 18.7663,-49.53072 18.7663,-49.53072z" data-paper-data="{&quot;index&quot;:null}" fill="#b3946b" stroke="#000000" stroke-width="2"/><path d="M178.409,313.68543v-265.87083h123.18203v265.87083z" fill-opacity="0.01" fill="#000000" stroke="none" stroke-width="0"/><path d="M293.33655,192.50048c-9.02164,23.67951 -19.94816,29.40682 -19.94816,29.40682c0,0 -0.6493,-24.51954 -2.17813,-37.93772c-1.58056,-13.87209 -7.1552,-43.97838 -7.1552,-43.97838h36c0,0 3.26217,26.31253 -6.71851,52.50928z" data-paper-data="{&quot;index&quot;:null}" fill="#b3946b" stroke="#000000" stroke-width="2"/><path d="M179.89815,139.99119h36c0,0 -5.57464,30.1063 -7.1552,43.97838c-1.52884,13.41818 -2.17814,37.93772 -2.17814,37.93772c0,0 -10.92652,-5.72732 -19.94816,-29.40682c-9.98068,-26.19675 -6.71851,-52.50928 -6.71851,-52.50928z" fill="#b3946b" stroke="#000000" stroke-width="2"/><path d="M206.75008,307.60391l15.14285,-131.17398l37.78325,-0.15709l13.57389,131.33108z" fill="#e6be8a" stroke="#000000" stroke-width="2"/><path d="M219.70031,204.74049l3.12142,-26.19423l35.83075,-0.14131l2.76735,25.97361c0,0 -7.51543,4.17477 -21.55904,4.48679c-12.48458,0.27738 -20.16049,-4.12485 -20.16049,-4.12485z" fill="#cca97a" stroke="#000000" stroke-width="0"/><path d="M175.83999,140.79969c0,-33.13309 28.7599,-59.99276 64.23702,-59.99276c35.47712,0 64.23702,26.85968 64.23702,59.99276c0,33.13309 -28.7599,59.99276 -64.23702,59.99276c-35.47712,0 -64.23702,-26.85968 -64.23702,-59.99276z" fill="#e6be8a" stroke="#000000" stroke-width="2"/><path d="M176.56305,140.85325c0,-0.7243 5.20666,55.63601 63.36046,56.64577c55.56352,0.96479 63.51358,-57.65946 63.51358,-56.64577c0,32.63855 -28.40173,59.09732 -63.43702,59.09732c-35.03529,0 -63.43702,-26.45878 -63.43702,-59.09732z" fill="#cca97a" stroke="#000000" stroke-width="0"/><path d="M189.3902,141.22698c0,-12.90228 10.51265,-23.36166 23.48065,-23.36166c12.968,0 23.48065,10.45938 23.48065,23.36166c0,12.90228 -10.51265,23.36166 -23.48065,23.36166c-12.968,0 -23.48065,-10.45938 -23.48065,-23.36166z" fill="#ffffff" stroke="#000000" stroke-width="2"/><path d="M196.45559,140.95275c0,-9.08182 7.39976,-16.44408 16.52783,-16.44408c9.12808,0 16.52784,7.36227 16.52784,16.44408c0,9.08182 -7.39977,16.44408 -16.52784,16.44408c-9.12808,0 -16.52783,-7.36227 -16.52783,-16.44408z" fill="#000000" stroke="none" stroke-width="0"/><path d="M267.12929,164.58864c-12.968,0 -23.48065,-10.45938 -23.48065,-23.36166c0,-12.90228 10.51265,-23.36166 23.48065,-23.36166c12.968,0 23.48065,10.45938 23.48065,23.36166c0,12.90228 -10.51265,23.36166 -23.48065,23.36166z" data-paper-data="{&quot;index&quot;:null}" fill="#ffffff" stroke="#000000" stroke-width="2"/><path d="M267.01671,157.3968c-9.12807,0 -16.52783,-7.36227 -16.52783,-16.44408c0,-9.08182 7.39977,-16.44408 16.52783,-16.44408c9.12807,0 16.52783,7.36227 16.52783,16.44408c0,9.08182 -7.39977,16.44408 -16.52783,16.44408z" data-paper-data="{&quot;index&quot;:null}" fill="#000000" stroke="none" stroke-width="0"/><path d="M202.02787,112.5645c0,0 6.70895,-5.14302 11.79721,-6.3313c5.08827,-1.18828 12.33413,0.69583 12.33413,0.69583c0,0 -8.03812,-0.05997 -11.96762,0.8577c-4.10648,0.95901 -12.16372,4.77777 -12.16372,4.77777z" fill="#000000" stroke="none" stroke-width="0"/><path d="M265.96236,107.78674c-3.9295,-0.91768 -11.96762,-0.8577 -11.96762,-0.8577c0,0 7.24586,-1.8841 12.33413,-0.69583c5.08826,1.18828 11.79721,6.3313 11.79721,6.3313c0,0 -8.05724,-3.81877 -12.16372,-4.77777z" data-paper-data="{&quot;index&quot;:null}" fill="#000000" stroke="none" stroke-width="0"/><path d="M189.24018,141.31893c0,-12.90229 10.51265,-23.36166 23.48066,-23.36166c12.96801,0 23.48065,10.45937 23.48065,23.36166c0,0 -46.9613,0.65673 -46.9613,0z" fill="#e6be8a" stroke="#000000" stroke-width="2"/><path d="M243.64863,141.21944c0,-12.90229 10.51264,-23.36166 23.48065,-23.36166c12.96801,0 23.48066,10.45937 23.48066,23.36166z" data-paper-data="{&quot;index&quot;:null}" fill="#e6be8a" stroke="#000000" stroke-width="2"/><path d="M183.59626,102.90884c0,-29.22864 4.22233,-52.52599 55.83225,-52.92312c58.79142,-0.45241 55.83225,23.69449 55.83225,52.92312c0,0 -111.6645,1.20833 -111.6645,0z" fill="#804400" stroke="#000000" stroke-width="2"/><path d="M158.84722,107.72787l4.33333,-7.62782l155.5,0.33164l2.66667,7.29617z" fill="#804400" stroke="#000000" stroke-width="2"/><path d="M249.125,183.53581c0,4.23147 -4.08541,7.66174 -9.125,7.66174c-5.0396,0 -9.125,-3.43027 -9.125,-7.66174c0,-4.23147 4.08541,-7.66174 9.125,-7.66174c5.0396,0 9.125,3.43028 9.125,7.66174z" fill="#000000" stroke="none" stroke-width="0"/></g></g></svg>