<svg version="1.1" xmlns="http://www.w3.org/2000/svg" xmlns:xlink="http://www.w3.org/1999/xlink" width="230.93823" height="291.45346" viewBox="0,0,230.93823,291.45346"><g transform="translate(-125.6542,-22.15906)"><g data-paper-data="{&quot;isPaintingLayer&quot;:true}" fill-rule="nonzero" stroke-linejoin="miter" stroke-miterlimit="10" stroke-dasharray="" stroke-dashoffset="0" style="mix-blend-mode: normal"><path d="M178.409,313.61251v-267.22501h123.18203v267.22501z" fill-opacity="0.01" fill="#000000" stroke="none" stroke-width="0" stroke-linecap="butt"/><g stroke="#000000" stroke-width="2"><path d="M206.75009,307.50002l15.14285,-131.8421l37.78325,-0.15789l13.57389,132z" fill="#345756" stroke-linecap="butt"/><g fill="#274746" stroke-linecap="round"><path d="M262.4844,196.10052l6.54607,27.89196l-29.31501,4.8384l-27.89196,-4.8384l4.8384,-21.91511z"/><path d="M266.46897,184.43143l1.70767,17.07671l-29.0304,5.97685l-25.89967,-5.12301l-2.27689,-15.08443z"/></g></g><path d="M296.67096,47.84282c0,0 6.05368,14.23697 6.43213,7.96666c0.3985,-6.60279 0.18586,-14.73888 0.18586,-14.73888l6.0343,-0.51961c0,0 0.41085,19.90715 -2.79843,23.34873c-3.20928,3.44158 -12.77946,-6.64326 -12.77946,-6.64326z" fill="#244343" stroke="#000000" stroke-width="2" stroke-linecap="round"/><path d="M197.38901,44.43972c0,0 -0.38655,-13.24888 22.59843,-13.95761c22.14004,4.21646 29.54275,24.22594 49.64454,26.10904c20.37488,1.90868 41.58438,-20.39311 41.58438,-20.39311l0.47014,5.6567c0,0 -18.88436,22.47862 -42.90266,20.67594c-15.69291,-1.17782 -41.15797,-27.33541 -49.3738,-26.81879c-17.60742,1.10715 -24.51073,13.48642 -24.51073,13.48642z" fill="#355656" stroke="#000000" stroke-width="2" stroke-linecap="round"/><path d="M177.77514,26.19917c3.56714,-1.00756 14.01841,1.26023 26.25201,1.25459c6.15608,-0.00283 16.46133,-5.23953 22.7231,-4.14401c13.187,2.30711 29.77444,22.05578 46.64935,29.85789c12.21744,5.64873 24.07195,-4.88339 24.07195,-4.88339l-1.00977,5.20763c0,0 -11.41562,10.76813 -25.3426,4.40525c-16.35813,-7.47361 -32.26817,-27.15253 -44.25206,-29.29119c-5.54452,-0.98949 -16.56436,4.57542 -23.46491,4.80092c-14.91725,0.48749 -29.4128,-1.77165 -29.4128,-1.77165z" fill="#2b4f4b" stroke="#000000" stroke-width="2" stroke-linecap="round"/><g><path d="M153.2288,66.72244c0,0 3.64732,-5.12718 6.14967,3.56326c3.20819,11.14179 2.10803,34.33687 4.72248,34.36399c4.82479,0.05006 13.52238,-75.34834 13.52238,-75.34834l4.12245,3.42416c0,0 -8.16513,83.94702 -17.91631,82.93305c-7.58927,-0.78916 -10.60066,-48.93614 -10.60066,-48.93614z" fill="#244343" stroke="#000000" stroke-width="2" stroke-linecap="round"/><path d="M304.5208,88.72453c0,0 11.72916,48.44219 16.94236,44.64616c5.36005,-3.90298 14.78961,-67.75207 14.78961,-67.75207l7.06455,-1.79536c0,0 -11.85812,79.21676 -21.98507,79.4364c-8.92785,0.19363 -23.92916,-51.66928 -23.92916,-51.66928z" fill="#244343" stroke="#000000" stroke-width="2" stroke-linecap="round"/><path d="M299.41075,158.02738l8.9448,18.78932l-25.08472,-0.68152l14.99691,16.26762l-59.26621,-11.41074l-65.69405,4.35716l14.28288,-14.81327l-21.6923,-0.79525l13.1409,-20.23239z" fill="#345756" stroke="#000000" stroke-width="2" stroke-linecap="round"/><path d="M176.93443,133.79293c1.6521,-33.26084 31.71587,-58.79731 67.14931,-57.0373c35.43344,1.76001 62.81863,30.15003 61.16654,63.41087c-1.6521,33.26084 -31.71587,58.79731 -67.14931,57.0373c-35.43344,-1.76001 -62.81863,-30.15003 -61.16654,-63.41087z" fill="#345756" stroke="#000000" stroke-width="2" stroke-linecap="butt"/><path d="M190.45906,134.6444c0.64334,-12.95203 11.66457,-22.93021 24.61661,-22.28687c12.95203,0.64334 22.93021,11.66457 22.28687,24.61661c-0.64334,12.95203 -11.66457,22.93021 -24.61661,22.28687c-12.95203,-0.64334 -22.93021,-11.66457 -22.28687,-24.61661z" fill="#ffffff" stroke="#000000" stroke-width="2" stroke-linecap="butt"/><path d="M197.85319,128.20126c0.45284,-9.11684 8.21059,-16.14039 17.32742,-15.68755c9.11684,0.45284 16.14039,8.2106 15.68755,17.32743c-0.45284,9.11684 -8.2106,16.14039 -17.32743,15.68755c-9.11684,-0.45284 -16.14038,-8.2106 -15.68754,-17.32743z" fill="#000000" stroke="none" stroke-width="0" stroke-linecap="butt"/><path d="M251.64159,177.36305l-25.07867,-1.24568" fill="none" stroke="#000000" stroke-width="2" stroke-linecap="round"/><path d="M266.93751,161.95273c-12.95203,-0.64334 -22.93021,-11.66457 -22.28687,-24.61661c0.64334,-12.95203 11.66457,-22.93021 24.61661,-22.28687c12.95203,0.64334 22.93021,11.66457 22.28687,24.61661c-0.64334,12.95203 -11.66457,22.93021 -24.61661,22.28687z" data-paper-data="{&quot;index&quot;:null}" fill="#ffffff" stroke="#000000" stroke-width="2" stroke-linecap="butt"/><path d="M267.50747,148.20929c-9.11683,-0.45284 -16.14038,-8.2106 -15.68754,-17.32743c0.45284,-9.11684 8.2106,-16.14039 17.32742,-15.68755c9.11683,0.45284 16.14038,8.2106 15.68754,17.32743c-0.45284,9.11684 -8.2106,16.14039 -17.32742,15.68755z" data-paper-data="{&quot;index&quot;:null}" fill="#000000" stroke="none" stroke-width="0" stroke-linecap="butt"/><path d="M190.35881,134.98227c0.64334,-12.95204 11.66457,-22.93021 24.61662,-22.28687c12.95204,0.64334 22.93021,11.66456 22.28687,24.61661c0,0 -11.58934,-13.85622 -23.57401,-14.31658c-11.46881,-0.44055 -23.35628,12.52656 -23.32947,11.98684z" fill="#345756" stroke="#000000" stroke-width="2" stroke-linecap="butt"/><path d="M244.63865,137.57827c0.64334,-12.95204 11.66456,-22.93021 24.61661,-22.28687c12.95204,0.64334 22.93022,11.66457 22.28688,24.61661c-0.01501,0.30226 -11.03788,-13.81433 -22.74464,-14.47136c-11.73745,-0.65876 -24.15885,12.14163 -24.15885,12.14163z" data-paper-data="{&quot;index&quot;:null}" fill="#345756" stroke="#000000" stroke-width="2" stroke-linecap="butt"/><path d="M252.38334,84.55942l-12.35752,29.83748l-2.96718,-21.58757l-12.2733,3.11911l7.21744,-13.93496" fill="#345756" stroke="#000000" stroke-width="2" stroke-linecap="round"/><path d="M290.96527,74.01819l-9.11493,-5.62933l-0.96954,-11.35996l9.08643,6.20309l-0.72324,10.70071z" fill="#3b5456" stroke="#000000" stroke-width="2" stroke-linecap="round"/><path d="M329.93119,34.49984l5.99284,-8.71343l9.49492,-2.02081l-6.09734,10.81721z" fill="#3b5456" stroke="#000000" stroke-width="2" stroke-linecap="round"/><path d="M288.87196,73.70266l-8.0314,3.43558l-8.73243,-5.61033l9.75268,-3.35009z" fill="#3b5456" stroke="#000000" stroke-width="2" stroke-linecap="round"/><path d="M199.27168,69.46368l0.34073,-10.71971l9.65642,-5.27212l-2.09051,11.20796l-9.62792,4.69836z" fill="#3b5456" stroke="#000000" stroke-width="2" stroke-linecap="round"/><path d="M145.41129,42.8677l-8.85915,5.04189l-8.86719,-3.27845l6.98075,-5.44289z" fill="#3b5456" stroke="#000000" stroke-width="2" stroke-linecap="round"/><path d="M207.1888,64.46879l9.37269,4.30006l-9.24541,4.71736l-7.65141,-4.21456z" fill="#3b5456" stroke="#000000" stroke-width="2" stroke-linecap="round"/><path d="M348.24762,82.61524l6.35189,7.21761l-9.64818,1.24629l-7.59566,-9.19665z" fill="#3b5456" stroke="#000000" stroke-width="2" stroke-linecap="round"/><path d="M336.26737,80.57172l9.85803,9.33692l3.08199,3.92136l-0.00381,13.2707l-4.64601,11.07406l-11.12766,6.32848l-11.26292,-7.44064l-4.26984,-12.99146l2.54571,-11.66989l4.93337,-6.96383z" fill="#616051" stroke="#000000" stroke-width="2" stroke-linecap="round"/><path d="M343.53528,115.66641l-23.68827,-21.16487l18.87296,-10.53122" fill="none" stroke="#000000" stroke-width="2" stroke-linecap="round"/><path d="M326.2015,85.31455l22.69955,21.27959l-19.3703,13.94713" fill="none" stroke="#000000" stroke-width="2" stroke-linecap="round"/><path d="M337.3837,120.76752l-18.67755,-16.49236l22.83384,-17.7072" fill="none" stroke="#000000" stroke-width="2" stroke-linecap="round"/><path d="M331.23442,82.94315l17.54865,12.83183l-26.37962,19.82481" fill="none" stroke="#000000" stroke-width="2" stroke-linecap="round"/><path d="M162.60184,63.67924l2.19319,-10.78107l7.22174,8.82242l-2.19651,7.81032z" fill="#3b5456" stroke="#000000" stroke-width="2" stroke-linecap="round"/><path d="M171.86217,61.57655l9.32883,-4.39439l-2.35242,10.10925l-8.68739,2.24037z" fill="#3b5456" stroke="#000000" stroke-width="2" stroke-linecap="round"/><path d="M215.18135,85.79768l-5.22244,11.84122l-10.86155,6.15445l-48.11319,-31.74025l-5.62804,-11.09286l0.88022,-17.721l16.7983,-16.82661l15.99977,-0.75003l3.95782,8.4353l-9.11817,-3.02751l-13.29887,13.75719l-2.85828,16.078l11.86842,9.85807l19.29855,-4.963l6.09328,-19.00684l2.49848,22.26566l-14.32786,8.55687z" fill="#404135" stroke="#000000" stroke-width="2" stroke-linecap="round"/><path d="M304.48066,83.64305l-13.40938,-9.93461l4.69265,-21.90847l4.17976,19.51711l18.71173,6.851l12.78691,-8.63342l-1.25093,-16.28211l-11.87011,-15.00735l-9.37331,2.10902l4.77425,-8.00157l15.84669,2.33187l15.04815,18.40845l-0.88022,17.721l-6.69961,10.48054l-51.02175,26.81612l-10.1982,-7.20051l-4.0233,-12.30046z" fill="#404135" stroke="#000000" stroke-width="2" stroke-linecap="round"/></g><path d="M194.79877,46.9556l6.60451,-8.45036l10.90636,1.44673l-8.305,7.81125z" fill="#3b5456" stroke="#000000" stroke-width="2" stroke-linecap="round"/></g></g></svg>