<svg version="1.1" xmlns="http://www.w3.org/2000/svg" xmlns:xlink="http://www.w3.org/1999/xlink" width="175" height="297" viewBox="0,0,175,297"><g transform="translate(-152.5,-31)"><g data-paper-data="{&quot;isPaintingLayer&quot;:true}" fill-rule="nonzero" stroke-linecap="butt" stroke-linejoin="miter" stroke-miterlimit="10" stroke-dasharray="" stroke-dashoffset="0" style="mix-blend-mode: normal"><path d="M152.5,328v-297h175v297z" fill="none" stroke="#000000" stroke-width="0"/><path d="M307.15506,143.67808c3.16787,25.34002 -3.79332,35.57585 -3.79332,35.57585c0,0 -12.10918,-21.54666 -19.77288,-32.78679c-7.92295,-11.62037 -27.01293,-35.83268 -27.01293,-35.83268l31.81283,-16.90757c0,0 15.26168,21.9174 18.7663,49.95119z" data-paper-data="{&quot;index&quot;:null}" fill="#b3946b" stroke="#000000" stroke-width="2"/><g stroke="#000000"><path d="M206.75007,307.43077l15.14285,-132.28751l37.78325,-0.15842l13.57389,132.44595z" fill="#e6be8a" stroke-width="2"/><path d="M219.7003,203.69415l3.12142,-26.41659l35.83075,-0.14251l2.76735,26.1941c0,0 -7.51543,4.21021 -21.55904,4.52488c-12.48458,0.27973 -20.16049,-4.15987 -20.16049,-4.15987z" fill="#cca97a" stroke-width="0"/></g><path d="M192.83529,93.72693l31.81283,16.90757c0,0 -19.08998,24.2123 -27.01292,35.83268c-7.6637,11.24014 -19.77288,32.78679 -19.77288,32.78679c0,0 -6.96119,-10.23582 -3.79332,-35.57585c3.50463,-28.03379 18.7663,-49.95119 18.7663,-49.95119z" data-paper-data="{&quot;index&quot;:null}" fill="#b3946b" stroke="#000000" stroke-width="2"/><path d="M178.40899,314.56728v-268.1278h123.18203v268.1278z" fill-opacity="0.01" fill="#000000" stroke="none" stroke-width="0"/><path d="M293.33655,189.34347c-9.02164,23.88053 -19.94816,29.65645 -19.94816,29.65645c0,0 -0.6493,-24.72769 -2.17813,-38.25977c-1.58056,-13.98985 -7.1552,-44.35171 -7.1552,-44.35171h36c0,0 3.26217,26.5359 -6.71851,52.95503z" data-paper-data="{&quot;index&quot;:null}" fill="#b3946b" stroke="#000000" stroke-width="2"/><path d="M179.89814,136.38842h36c0,0 -5.57464,30.36187 -7.1552,44.35171c-1.52884,13.53208 -2.17814,38.25977 -2.17814,38.25977c0,0 -10.92652,-5.77594 -19.94816,-29.65645c-9.98068,-26.41913 -6.71851,-52.95503 -6.71851,-52.95503z" fill="#b3946b" stroke="#000000" stroke-width="2"/><path d="M175.83998,136.20043c0,-33.41436 28.7599,-60.50204 64.23702,-60.50204c35.47712,0 64.23702,27.08769 64.23702,60.50204c0,33.41436 -28.7599,60.50204 -64.23702,60.50204c-35.47712,0 -64.23702,-27.08769 -64.23702,-60.50204z" fill="#e6be8a" stroke="#000000" stroke-width="2"/><path d="M176.56304,136.25442c0,-0.73045 5.20666,56.10831 63.36046,57.12664c55.56352,0.97298 63.51358,-58.14893 63.51358,-57.12664c0,32.91562 -28.40173,59.599 -63.43702,59.599c-35.03529,0 -63.43702,-26.68338 -63.43702,-59.599z" fill="#cca97a" stroke="#000000" stroke-width="0"/><path d="M189.39019,136.63133c0,-13.01181 10.51265,-23.55998 23.48065,-23.55998c12.968,0 23.48065,10.54817 23.48065,23.55998c0,13.01181 -10.51265,23.55998 -23.48065,23.55998c-12.968,0 -23.48065,-10.54817 -23.48065,-23.55998z" fill="#ffffff" stroke="#000000" stroke-width="2"/><path d="M196.45558,136.35478c0,-9.15892 7.39976,-16.58368 16.52783,-16.58368c9.12808,0 16.52784,7.42477 16.52784,16.58368c0,9.15892 -7.39977,16.58368 -16.52784,16.58368c-9.12808,0 -16.52783,-7.42477 -16.52783,-16.58368z" fill="#000000" stroke="none" stroke-width="0"/><path d="M267.12928,160.19131c-12.968,0 -23.48065,-10.54817 -23.48065,-23.55998c0,-13.01181 10.51265,-23.55998 23.48065,-23.55998c12.968,0 23.48065,10.54817 23.48065,23.55998c0,13.01181 -10.51265,23.55998 -23.48065,23.55998z" data-paper-data="{&quot;index&quot;:null}" fill="#ffffff" stroke="#000000" stroke-width="2"/><path d="M267.01671,152.93842c-9.12807,0 -16.52783,-7.42477 -16.52783,-16.58368c0,-9.15892 7.39977,-16.58368 16.52783,-16.58368c9.12807,0 16.52783,7.42477 16.52783,16.58368c0,9.15892 -7.39977,16.58368 -16.52783,16.58368z" data-paper-data="{&quot;index&quot;:null}" fill="#000000" stroke="none" stroke-width="0"/><path d="M202.02786,107.72555c0,0 6.70895,-5.18668 11.79721,-6.38505c5.08827,-1.19836 12.33413,0.70173 12.33413,0.70173c0,0 -8.03812,-0.06048 -11.96762,0.86498c-4.10648,0.96715 -12.16372,4.81833 -12.16372,4.81833z" fill="#000000" stroke="none" stroke-width="0"/><path d="M265.96236,102.90721c-3.9295,-0.92547 -11.96762,-0.86498 -11.96762,-0.86498c0,0 7.24586,-1.9001 12.33413,-0.70173c5.08826,1.19836 11.79721,6.38505 11.79721,6.38505c0,0 -8.05724,-3.85119 -12.16372,-4.81833z" data-paper-data="{&quot;index&quot;:null}" fill="#000000" stroke="none" stroke-width="0"/><path d="M189.24017,136.72406c0,-13.01182 10.51265,-23.55998 23.48066,-23.55998c12.96801,0 23.48065,10.54816 23.48065,23.55998c0,0 -11.70863,-7.71893 -23.43307,-7.56426c-11.75617,0.15508 -23.52823,8.18295 -23.52823,7.56426z" fill="#e6be8a" stroke="#000000" stroke-width="2"/><path d="M243.64862,136.62373c0,-13.01182 10.51264,-23.55998 23.48065,-23.55998c12.96801,0 23.48066,10.54816 23.48066,23.55998c0,0.60811 -11.37275,-7.40933 -22.92496,-7.55644c-11.92261,-0.15183 -24.03635,7.55644 -24.03635,7.55644z" data-paper-data="{&quot;index&quot;:null}" fill="#e6be8a" stroke="#000000" stroke-width="2"/><path d="M183.59625,97.98791c0,-29.47676 4.22233,-52.97188 55.83225,-53.37238c58.79142,-0.45625 55.83225,23.89564 55.83225,53.37238c0,0 -111.6645,1.21858 -111.6645,0z" fill="#804400" stroke="#000000" stroke-width="2"/><path d="M158.84721,102.84784l4.33333,-7.69257l155.5,0.33446l2.66667,7.3581z" fill="#804400" stroke="#000000" stroke-width="2"/><path d="M249.125,178.99837c0,4.26739 -4.08541,7.72678 -9.125,7.72678c-5.0396,0 -9.125,-3.45939 -9.125,-7.72678c0,-4.26739 4.08541,-7.72678 9.125,-7.72678c5.0396,0 9.125,3.4594 9.125,7.72678z" fill="#000000" stroke="none" stroke-width="0"/></g></g></svg>