<svg version="1.1" xmlns="http://www.w3.org/2000/svg" xmlns:xlink="http://www.w3.org/1999/xlink" width="35.5361" height="35.59901" viewBox="0,0,35.5361,35.59901"><defs><linearGradient x1="239.24998" y1="163.58187" x2="239.24998" y2="194.79185" gradientUnits="userSpaceOnUse" id="color-1"><stop offset="0" stop-color="#191701"/><stop offset="1" stop-color="#807607"/></linearGradient></defs><g transform="translate(-221.91346,-161.85036)"><g data-paper-data="{&quot;isPaintingLayer&quot;:true}" stroke-miterlimit="10" stroke-dasharray="" stroke-dashoffset="0" style="mix-blend-mode: normal"><path d="M257.44955,169.7189v20.49804c0,4.00745 -3.22497,7.23243 -7.23242,7.23243h-20.5c-3.66107,0 -6.66147,-2.69385 -7.1543,-6.21484c0.7952,3.03475 3.54108,5.26367 6.83204,5.26367h20.0332c3.9166,0 7.07032,-3.15372 7.07032,-7.07031v-20.03321c0,-3.2976 -2.23906,-6.0451 -5.28321,-6.83398c3.52994,0.48496 6.23438,3.49081 6.23438,7.15821z" fill-opacity="0.29839" fill="#000000" fill-rule="evenodd" stroke="none" stroke-width="4.54219" stroke-linecap="round" stroke-linejoin="round"/><path d="M229.23313,162.10036h20.03378c3.9166,0 7.06966,3.15307 7.06966,7.06966v20.03379c0,3.91659 -3.15306,7.06966 -7.06966,7.06966h-20.03378c-3.91659,0 -7.06967,-3.15307 -7.06967,-7.06966v-20.03379c0,-3.91659 3.15308,-7.06966 7.06967,-7.06966z" fill="#000000" fill-rule="evenodd" stroke="#190566" stroke-width="0.5" stroke-linecap="round" stroke-linejoin="round"/><path d="M239.72289,163.58187l-0.11597,12.76026l5.14397,-1.03671l-8.15134,19.48643l1.67398,-14.49929l-4.52443,1.39219z" fill="url(#color-1)" fill-rule="nonzero" stroke="#000000" stroke-width="0" stroke-linecap="butt" stroke-linejoin="miter"/></g></g></svg>