<svg version="1.1" xmlns="http://www.w3.org/2000/svg" xmlns:xlink="http://www.w3.org/1999/xlink" width="130.47404" height="267.22501" viewBox="0,0,130.47404,267.22501"><defs><radialGradient cx="235.48347" cy="242.80314" r="20.58333" gradientUnits="userSpaceOnUse" id="color-1"><stop offset="0" stop-color="#b4c6fe"/><stop offset="1" stop-color="#6993fe"/></radialGradient></defs><g transform="translate(-174.76298,-46.38749)"><g data-paper-data="{&quot;isPaintingLayer&quot;:true}" fill-rule="nonzero" stroke-linejoin="miter" stroke-miterlimit="10" stroke-dasharray="" stroke-dashoffset="0" style="mix-blend-mode: normal"><path d="M178.40899,313.6125v-267.22501h123.18203v267.22501z" fill-opacity="0.01" fill="#000000" stroke="none" stroke-width="0" stroke-linecap="butt"/><path d="M230.46507,198.69451v-7.66667h19.66667v7.66667z" fill="#aca9ca" stroke="#000000" stroke-width="1.5" stroke-linecap="butt"/><path d="M205.8753,307.49998l14.14285,-102.8421l39.28325,-0.15789l13.07389,103zM239.75022,275.99998c13.80712,0 25,-11.19288 25,-25c0,-13.80712 -11.19288,-25 -25,-25c-13.80712,0 -25,11.19288 -25,25c0,13.80712 11.19288,25 25,25z" fill="#dfb85c" stroke="#000000" stroke-width="2" stroke-linecap="butt"/><path d="M175.76298,166.94953c0,-14.03446 28.7599,-25.41163 64.23702,-25.41163c35.47712,0 64.23702,11.37718 64.23702,25.41163c0,14.03446 -28.7599,25.41163 -64.23702,25.41163c-35.47712,0 -64.23702,-11.37718 -64.23702,-25.41163z" fill="#edb35b" stroke="#000000" stroke-width="2" stroke-linecap="butt"/><path d="M176.48605,166.97222c0,-0.3068 5.20666,23.56621 63.36046,23.99392c55.56352,0.40866 63.51358,-24.42329 63.51358,-23.99392c0,13.82498 -28.40173,25.03234 -63.43702,25.03234c-35.03529,0 -63.43702,-11.20736 -63.43702,-25.03234z" fill="#b68944" stroke="#000000" stroke-width="0" stroke-linecap="butt"/><path d="M240.11335,141.65396c0,-14.03446 11.68289,-25.41163 26.09447,-25.41163c14.41158,0 26.09447,11.37717 26.09447,25.41163c0,14.03446 -11.68289,25.41163 -26.09447,25.41163c-14.41158,0 -26.09447,-11.37717 -26.09447,-25.41163z" fill="#9a9a9a" stroke="#000000" stroke-width="1.5" stroke-linecap="butt"/><path d="M186.10216,141.62333c0,-14.03446 11.68289,-25.41163 26.09447,-25.41163c14.41158,0 26.09447,11.37717 26.09447,25.41163c0,14.03446 -11.68289,25.41163 -26.09447,25.41163c-14.41158,0 -26.09447,-11.37717 -26.09447,-25.41163z" fill="#9a9a9a" stroke="#000000" stroke-width="1.5" stroke-linecap="butt"/><path d="M188.51542,137.27561c0,-12.968 10.51265,-23.48065 23.48065,-23.48065c12.968,0 23.48065,10.51265 23.48065,23.48065c0,12.968 -10.51265,23.48065 -23.48065,23.48065c-12.968,0 -23.48065,-10.51265 -23.48065,-23.48065z" fill="#ffffff" stroke="#000000" stroke-width="2" stroke-linecap="butt"/><path d="M195.58081,136.99998c0,-9.12808 7.39976,-16.52784 16.52783,-16.52784c9.12808,0 16.52784,7.39977 16.52784,16.52784c0,9.12808 -7.39977,16.52784 -16.52784,16.52784c-9.12808,0 -16.52783,-7.39977 -16.52783,-16.52784z" fill="#000000" stroke="none" stroke-width="0" stroke-linecap="butt"/><path d="M267.99189,172.65641c0,0 -11.85428,4.17064 -18.37102,4.80089c-7.20129,0.69646 -22.98857,-0.80089 -22.98857,-0.80089" fill="none" stroke="#000000" stroke-width="2" stroke-linecap="round"/><path d="M266.25451,160.75625c-12.968,0 -23.48065,-10.51265 -23.48065,-23.48065c0,-12.968 10.51265,-23.48065 23.48065,-23.48065c12.968,0 23.48065,10.51265 23.48065,23.48065c0,12.968 -10.51265,23.48065 -23.48065,23.48065z" data-paper-data="{&quot;index&quot;:null}" fill="#ffffff" stroke="#000000" stroke-width="2" stroke-linecap="butt"/><path d="M266.14193,153.52782c-9.12807,0 -16.52783,-7.39977 -16.52783,-16.52784c0,-9.12808 7.39977,-16.52784 16.52783,-16.52784c9.12807,0 16.52783,7.39977 16.52783,16.52784c0,9.12808 -7.39977,16.52784 -16.52783,16.52784z" data-paper-data="{&quot;index&quot;:null}" fill="#000000" stroke="none" stroke-width="0" stroke-linecap="butt"/><path d="M188.51542,137.27561c0,-12.968 10.51265,-23.48065 23.48065,-23.48065c12.968,0 23.48065,10.51265 23.48065,23.48065c0,0 -46.96131,1.23155 -46.96131,0z" fill="#dd6448" stroke="#000000" stroke-width="2" stroke-linecap="butt"/><path d="M242.77388,137.27561c0,-12.968 10.51265,-23.48065 23.48065,-23.48065c12.968,0 23.48065,10.51265 23.48065,23.48065c0,1.2138 -46.96131,0 -46.96131,0z" data-paper-data="{&quot;index&quot;:null}" fill="#dd6448" stroke="#000000" stroke-width="2" stroke-linecap="butt"/><path d="M201.1531,108.46715c0,0 6.70895,-5.16922 11.79721,-6.36355c5.08827,-1.19433 12.33413,0.69937 12.33413,0.69937c0,0 -8.03812,-0.06028 -11.96762,0.86207c-4.10648,0.96389 -12.16372,4.80211 -12.16372,4.80211z" fill="#00ffff" stroke="#000000" stroke-width="0.5" stroke-linecap="butt"/><path d="M265.08758,103.66504c-3.9295,-0.92235 -11.96762,-0.86207 -11.96762,-0.86207c0,0 7.24586,-1.8937 12.33413,-0.69937c5.08826,1.19433 11.79721,6.36355 11.79721,6.36355c0,0 -8.05724,-3.83822 -12.16372,-4.80211z" data-paper-data="{&quot;index&quot;:null}" fill="#00ffff" stroke="#000000" stroke-width="0.5" stroke-linecap="butt"/><path d="M219.41667,250.83907c0,-11.36786 9.21547,-20.58333 20.58334,-20.58333c11.36786,0 20.58333,9.21547 20.58333,20.58333c0,11.36786 -9.21547,20.58334 -20.58333,20.58334c-11.36786,0 -20.58334,-9.21547 -20.58334,-20.58334z" fill="url(#color-1)" stroke="none" stroke-width="0" stroke-linecap="butt"/><path d="M260.5064,207c0,3.31371 -9.21547,6 -20.58334,6c-11.36786,0 -20.58333,-2.68629 -20.58333,-6c0,-3.31371 9.21547,-6 20.58333,-6c11.36786,0 20.58334,2.68629 20.58334,6z" fill="#6d4726" stroke="#000000" stroke-width="1.5" stroke-linecap="butt"/><path d="M230.46507,208.33333v-7.66667h19.66667v7.66667z" fill="#aca9ca" stroke="#000000" stroke-width="1.5" stroke-linecap="butt"/><path d="M217.62522,226.66666l21.66666,-9.33333l22,9.66666" fill="none" stroke="#7a5a15" stroke-width="2" stroke-linecap="round"/><path d="M266.25453,274.33332l-27.32338,12.00572l-26.90938,-11.59173" data-paper-data="{&quot;index&quot;:null}" fill="none" stroke="#7a5a15" stroke-width="2" stroke-linecap="round"/></g></g></svg>