<svg version="1.1" xmlns="http://www.w3.org/2000/svg" xmlns:xlink="http://www.w3.org/1999/xlink" width="165.80868" height="267.22501" viewBox="0,0,165.80868,267.22501"><defs><linearGradient x1="239.28387" y1="105.08425" x2="238.61632" y2="184.93961" gradientUnits="userSpaceOnUse" id="color-1"><stop offset="0" stop-color="#ffffff" stop-opacity="0.06754"/><stop offset="1" stop-color="#666666" stop-opacity="0.33367"/></linearGradient></defs><g transform="translate(-171.36522,-46.38751)"><g data-paper-data="{&quot;isPaintingLayer&quot;:true}" fill-rule="nonzero" stroke-linejoin="miter" stroke-miterlimit="10" stroke-dasharray="" stroke-dashoffset="0" style="mix-blend-mode: normal"><path d="M179.28374,313.61252v-267.22501h123.18203v267.22501z" fill-opacity="0.01" fill="#000000" stroke="none" stroke-width="0" stroke-linecap="butt"/><path d="M174.3166,144.95522l143.80992,10.00417c0,0 -10.09411,42.39996 -11.87995,46.26928c-1.78584,3.86932 -10.62943,2.50104 -10.62943,2.50104c0,0 1.22278,10.99558 -0.62526,15.00625c-1.84804,4.01068 -5.17444,5.97702 -9.17043,6.25261c-3.996,0.27559 -8.96213,-5.00208 -8.96213,-5.00208l-8.75365,10.62943l-53.14714,0.62526l-10.00417,-10.62943l-3.1263,3.1263c0,0 -3.08747,4.306 -8.545,1.66748c-3.77966,-1.82733 -4.58548,-7.92008 -4.58548,-7.92008l-0.62526,-14.38099c0,0 -8.14888,-0.39257 -10.62943,-2.50104c-2.48055,-2.10847 -1.87578,-8.12839 -1.87578,-8.12839z" fill="#874e8b" stroke="#000000" stroke-width="2" stroke-linecap="round"/><path d="M206.75005,307.5l15.14285,-131.8421l37.78325,-0.15789l13.57389,132z" fill="#d477dc" stroke="#000000" stroke-width="2" stroke-linecap="butt"/><path d="M219.70028,204.11263l3.12142,-26.32765l35.83075,-0.14203l2.76735,26.1059c0,0 -7.51543,4.19603 -21.55904,4.50964c-12.48458,0.27879 -20.16049,-4.14586 -20.16049,-4.14586z" fill="#9c58a0" stroke="#000000" stroke-width="0" stroke-linecap="butt"/><path d="M173.29846,124.41203c2.27476,-11.62105 7.81264,-22.15703 15.68329,-30.74916c12.9259,-14.11077 29.87187,4.86713 51.26039,5.04594c22.3779,0.18707 44.48589,-17.60975 57.13451,-2.13367c9.14622,11.19077 14.53417,25.2192 14.4072,40.40849c-0.20973,25.08808 -15.40964,46.75809 -37.55905,57.58786c-1.37771,-0.87507 -2.63523,-1.59686 -3.64762,-2.10375c-5.3775,-2.69252 -11.36531,-4.28687 -17.61152,-4.38553c-6.66722,-0.10531 -13.33542,-0.16105 -20.00347,-0.16722c-6.13327,-0.00568 -12.66948,1.70725 -18.75495,2.34383c-3.4361,0.35943 -6.87968,0.67186 -10.31413,1.051c-13.84219,-8.4824 -24.27952,-21.13046 -28.98875,-36.35454c-1.84727,-5.97188 3.41081,-11.61719 3.46544,-18.1524z" fill="#d477dc" stroke="#000000" stroke-width="2" stroke-linecap="butt"/><path d="M310.83328,136.67188c-0.2091,25.01276 -15.58232,46.57616 -37.88741,57.11023c-0.81625,-0.48846 -1.56823,-0.90748 -2.22415,-1.2414c34.13239,-15.19033 40.11905,-56.76338 40.11157,-55.86883z" fill="#9c58a0" stroke="#000000" stroke-width="0" stroke-linecap="butt"/><path d="M172.93649,135.51912c0.00528,-0.63207 3.28928,38.56215 36.82806,55.18702c-1.31108,0.12961 -2.62221,0.25952 -3.93247,0.39601c-19.89706,-11.47074 -33.09173,-32.1212 -32.8956,-55.58304z" fill="#9c58a0" stroke="#000000" stroke-width="0" stroke-linecap="butt"/><path d="M186.87462,136.04393c0.11783,-14.09466 11.63932,-25.42512 25.73398,-25.30729c14.09466,0.11783 25.42512,11.63932 25.30729,25.73398c-0.11783,14.09466 -11.63932,25.42512 -25.73398,25.30729c-14.09466,-0.11783 -25.42512,-11.63932 -25.30729,-25.73398z" fill="#ffffff" stroke="#000000" stroke-width="2" stroke-linecap="butt"/><path d="M271.15432,162.2709c-14.09466,-0.11783 -25.42512,-11.63932 -25.30729,-25.73398c0.11783,-14.09466 11.63932,-25.42512 25.73398,-25.30729c14.09466,0.11783 25.42512,11.63932 25.30729,25.73398c-0.11783,14.09466 -11.63932,25.42512 -25.73398,25.30729z" data-paper-data="{&quot;index&quot;:null}" fill="#ffffff" stroke="#000000" stroke-width="2" stroke-linecap="butt"/><path d="M209.94698,145.0852c0.05786,-6.92177 5.71597,-12.48606 12.63773,-12.42819c6.92177,0.05786 12.48606,5.71598 12.42819,12.63774c-0.05786,6.92177 -5.71598,12.48606 -12.63774,12.42819c-6.92177,-0.05786 -12.48605,-5.71598 -12.42818,-12.63774z" fill="#000000" stroke="none" stroke-width="0" stroke-linecap="butt"/><path d="M282.51901,144.26844c-6.92176,-0.05786 -12.48605,-5.71598 -12.42818,-12.63774c0.05786,-6.92177 5.71597,-12.48606 12.63773,-12.42819c6.92176,0.05786 12.48605,5.71598 12.42818,12.63774c-0.05786,6.92177 -5.71598,12.48606 -12.63773,12.42819z" data-paper-data="{&quot;index&quot;:null}" fill="#000000" stroke="none" stroke-width="0" stroke-linecap="butt"/><path d="M252.8865,167.05062c1.08671,3.52839 -0.2479,29.65524 -0.2479,29.65524c-7.50239,-0.19801 -15.01355,-0.09088 -22.52022,-0.07727c0,0 0.23072,-23.25277 1.81624,-28.43209c0.35818,-1.17002 10.57296,-0.05985 10.57296,-0.05985z" fill="#000000" stroke="none" stroke-width="0" stroke-linecap="butt"/><path d="M175.18914,100.35662l130.08408,-1.38366c0,0 4.81726,14.29598 -1.45809,17.77974c-6.27534,3.48377 -12.55353,-7.02402 -17.8368,-7.06819c-5.28326,-0.04416 -1.44124,4.95571 -12.69023,3.84768c-11.24899,-1.10804 -14.83274,-7.73716 -25.68885,-7.62805c-10.8561,0.10909 -7.02436,6.03557 -20.13474,6.75076c-7.45761,0.40682 -25.30196,-1.69418 -25.30196,-1.69418c0,0 -7.19283,6.19897 -21.87229,5.74781c-3.78054,-0.1162 -5.59955,-8.94278 -5.59955,-8.94278z" fill="#874d8a" stroke="#000000" stroke-width="2" stroke-linecap="round"/><g><path d="M172.37354,196.92592l0.91872,-109.89995l162.87331,1.36154l-0.91872,109.89995zM179.97881,184.26564l117.81038,0.19678l-0.52902,-78.28132l-116.61779,-0.97751z" fill="#9d829c" stroke="#725771" stroke-width="2" stroke-linecap="butt"/><path d="M301.34834,121.26889c0.01589,-1.90116 0.06484,-7.75695 0.09132,-10.92385c0.01047,-1.25274 1.18196,-2.075 2.43369,-2.06453c3.62301,0.03029 21.47144,0.17949 27.42192,0.22923c1.21545,0.01016 1.92103,1.62505 1.91003,2.94121c-0.01546,1.84828 -0.05823,6.96486 -0.0843,10.08355c-0.01247,1.49262 -1.05456,2.51894 -2.7391,2.50485c-6.67054,-0.05576 -23.55064,-0.19687 -26.8996,-0.22487c-1.13151,-0.00946 -2.14375,-1.37605 -2.13397,-2.54559z" fill="#725771" stroke="#725771" stroke-width="0" stroke-linecap="butt"/><path d="M302.77876,187.62988c0.02121,-2.53629 0.05262,-6.29454 0.06414,-7.67217c0.00844,-1.00933 1.07995,-2.21353 2.20931,-2.20409c3.1641,0.02645 18.32589,0.1532 23.63823,0.19761c1.1544,0.00965 1.83058,1.58426 1.82053,2.78583c-0.01164,1.39218 -0.03988,4.77072 -0.05955,7.12417c-0.01194,1.42828 -0.89445,2.47171 -1.86442,2.4636c-2.76708,-0.02313 -16.32025,-0.13643 -22.61048,-0.18901c-1.96285,-0.01641 -3.20976,-1.07079 -3.19776,-2.50592z" fill="none" stroke="#725771" stroke-width="2" stroke-linecap="butt"/><path d="M303.04043,172.88311c0.06515,-7.79442 0.32051,-38.34103 0.36299,-43.42241c0.01169,-1.39931 1.14626,-2.59304 2.33104,-2.58314c3.15117,0.02634 17.61944,0.14729 23.38129,0.19545c1.47333,0.01232 2.36845,1.09107 2.3578,2.36538c-0.04006,4.79181 -0.28896,34.56605 -0.36084,43.16546c-0.0123,1.47168 -0.7667,2.31694 -1.62601,2.30976c-2.84852,-0.02381 -18.69728,-0.15631 -24.40904,-0.20404c-1.28118,-0.01071 -2.04686,-0.67242 -2.03721,-1.82646z" fill="#ffdeff" stroke="#725771" stroke-width="2" stroke-linecap="butt"/><path d="M330.09757,194.05115c0.00653,-0.78046 0.6445,-1.40787 1.42497,-1.40135c0.78046,0.00653 1.40787,0.6445 1.40135,1.42497c-0.00653,0.78046 -0.6445,1.40787 -1.42497,1.40135c-0.78046,-0.00653 -1.40787,-0.6445 -1.40135,-1.42497z" fill="#725771" stroke="none" stroke-width="0" stroke-linecap="butt"/><path d="M176.21239,191.73692c0.0089,-1.06427 0.87887,-1.91982 1.94313,-1.91092c1.06427,0.0089 1.91982,0.87887 1.91092,1.94314c-0.0089,1.06427 -0.87887,1.91981 -1.94314,1.91091c-1.06427,-0.0089 -1.91981,-0.87886 -1.91091,-1.94313z" fill="#725771" stroke="none" stroke-width="0" stroke-linecap="butt"/><path d="M175.25472,91.13094c0.00593,-0.70951 0.58592,-1.27988 1.29542,-1.27395c0.70951,0.00593 1.27988,0.58592 1.27395,1.29542c-0.00593,0.70951 -0.58592,1.27988 -1.29542,1.27395c-0.70951,-0.00593 -1.27988,-0.58592 -1.27395,-1.29542z" fill="#725771" stroke="none" stroke-width="0" stroke-linecap="butt"/><path d="M330.95824,91.58165c0.00791,-0.94606 0.78126,-1.70658 1.72732,-1.69868c0.94606,0.00791 1.70658,0.78126 1.69868,1.72732c-0.00791,0.94606 -0.78126,1.70659 -1.72732,1.69869c-0.94606,-0.00791 -1.70659,-0.78127 -1.69868,-1.72733z" fill="#725771" stroke="none" stroke-width="0" stroke-linecap="butt"/><path d="M317.15004,127.45235l-0.38447,45.99178" fill="none" stroke="#725771" stroke-width="2" stroke-linecap="round"/><path d="M303.76273,161.25849l26.2076,0.21909" fill="none" stroke="#725771" stroke-width="2" stroke-linecap="round"/><path d="M330.83349,150.43574l-26.72146,-0.22338" fill="none" stroke="#725771" stroke-width="2" stroke-linecap="round"/><path d="M330.67106,139.12834l-26.97841,-0.22553" fill="none" stroke="#725771" stroke-width="2" stroke-linecap="round"/></g><g stroke-linecap="butt"><path d="M179.67224,184.44686l0.66755,-79.85536l117.88816,0.98549l-0.66755,79.85536z" fill="url(#color-1)" stroke="#725771" stroke-width="2"/><path d="M201.60803,183.39233l-19.14466,-77.89224l15.64399,0.13078l19.14466,77.89224z" fill-opacity="0.11593" fill="#ffffff" stroke="none" stroke-width="0"/><path d="M231.93815,183.64584l-19.14466,-77.89224l15.64399,0.13078l19.14466,77.89224z" fill-opacity="0.11593" fill="#ffffff" stroke="none" stroke-width="0"/></g></g></g></svg>