<svg viewBox="0,0,170.32928,277.00995" height="277.00995" width="170.32928" xmlns:xlink="http://www.w3.org/1999/xlink" xmlns="http://www.w3.org/2000/svg" version="1.1"><defs><linearGradient id="color-1" gradientUnits="userSpaceOnUse" y2="210.42528" x2="296.40149" y1="125.85757" x1="296.40149"><stop stop-color="#000004" offset="0"></stop><stop stop-color="#000000" offset="1"></stop></linearGradient><linearGradient id="color-2" gradientUnits="userSpaceOnUse" y2="204.41996" x2="183.44469" y1="119.85227" x1="183.44469"><stop stop-color="#000004" offset="0"></stop><stop stop-color="#000000" offset="1"></stop></linearGradient><linearGradient id="color-3" gradientUnits="userSpaceOnUse" y2="225.5221" x2="261.1883" y1="140.95441" x1="261.1883"><stop stop-color="#000004" offset="0"></stop><stop stop-color="#000000" offset="1"></stop></linearGradient><linearGradient id="color-4" gradientUnits="userSpaceOnUse" y2="215.88469" x2="284.66375" y1="131.31698" x1="284.66375"><stop stop-color="#000004" offset="0"></stop><stop stop-color="#000000" offset="1"></stop></linearGradient><linearGradient id="color-5" gradientUnits="userSpaceOnUse" y2="222.79239" x2="217.92577" y1="138.22468" x1="217.92577"><stop stop-color="#000004" offset="0"></stop><stop stop-color="#000000" offset="1"></stop></linearGradient><linearGradient id="color-6" gradientUnits="userSpaceOnUse" y2="210.97125" x2="194.93838" y1="126.40356" x1="194.93838"><stop stop-color="#000004" offset="0"></stop><stop stop-color="#000000" offset="1"></stop></linearGradient><linearGradient id="color-7" gradientUnits="userSpaceOnUse" y2="208.05198" x2="193.00109" y1="123.48427" x1="193.00109"><stop stop-color="#000004" offset="0"></stop><stop stop-color="#000000" offset="1"></stop></linearGradient><linearGradient id="color-8" gradientUnits="userSpaceOnUse" y2="208.05199" x2="286.357" y1="123.4843" x1="286.357"><stop stop-color="#000004" offset="0"></stop><stop stop-color="#000000" offset="1"></stop></linearGradient><linearGradient id="color-9" gradientUnits="userSpaceOnUse" y2="198.41458" x2="309.83246" y1="113.84687" x1="309.83246"><stop stop-color="#000004" offset="0"></stop><stop stop-color="#000000" offset="1"></stop></linearGradient><linearGradient id="color-10" gradientUnits="userSpaceOnUse" y2="196.23084" x2="170.01371" y1="111.66315" x1="170.01371"><stop stop-color="#000004" offset="0"></stop><stop stop-color="#000000" offset="1"></stop></linearGradient><linearGradient id="color-11" gradientUnits="userSpaceOnUse" y2="205.39926" x2="243.57165" y1="30.56899" x1="243.57165"><stop stop-color="#000000" offset="0"></stop><stop stop-color="#38365f" offset="1"></stop></linearGradient><linearGradient id="color-12" gradientUnits="userSpaceOnUse" y2="307.57894" x2="239.92308" y1="175.57894" x1="239.92308"><stop stop-color="#000000" offset="0"></stop><stop stop-color="#666666" offset="1"></stop></linearGradient><linearGradient id="color-13" gradientUnits="userSpaceOnUse" y2="307.50001" x2="239.92309" y1="175.65789" x1="239.92309"><stop stop-color="#000000" offset="0"></stop><stop stop-color="#484556" offset="1"></stop></linearGradient><linearGradient id="color-14" gradientUnits="userSpaceOnUse" y2="197.14449" x2="240.00002" y1="76.54783" x1="240.00002"><stop stop-color="#1a1a1a" offset="0"></stop><stop stop-color="#808080" offset="1"></stop></linearGradient><linearGradient id="color-15" gradientUnits="userSpaceOnUse" y2="199.02333" x2="291.03297" y1="98.67367" x1="291.03297"><stop stop-color="#000000" offset="0"></stop><stop stop-color="#38365f" offset="1"></stop></linearGradient><linearGradient id="color-16" gradientUnits="userSpaceOnUse" y2="197.52333" x2="235.4812" y1="74.28117" x1="235.4812"><stop stop-color="#000000" offset="0"></stop><stop stop-color="#38365f" offset="1"></stop></linearGradient></defs><g transform="translate(-156.58273,-30.569)"><g style="mix-blend-mode: normal" stroke-dashoffset="0" stroke-dasharray="" stroke-miterlimit="10" stroke-linejoin="miter" fill-rule="nonzero" data-paper-data="{&quot;isPaintingLayer&quot;:true}"><g stroke-linecap="butt" stroke-width="0"><path stroke="none" fill="url(#color-1)" data-paper-data="{&quot;index&quot;:null}" d="M301.18413,177.04359c0.93064,-0.49464 0.61664,7.84684 -6.43359,9.41733c-2.49427,12.24401 9.97403,19.40005 14.8417,22.07737c2.06358,1.13502 -9.74513,2.4351 -13.34019,0.90092c-1.07952,-0.46069 -5.45612,-5.59971 -5.62686,-5.55314c-0.47547,0.02218 -1.00489,1.77191 -0.65221,3.19406c0.44491,1.79407 1.83235,3.34417 1.35023,3.34514c-14.91798,0.0302 -5.27218,-84.52659 -5.42871,-84.56687c-0.91677,-0.23597 -5.7591,50.16544 15.28962,51.18517z"></path><path stroke="none" fill="url(#color-2)" data-paper-data="{&quot;index&quot;:null}" d="M193.95169,119.85308c-0.15652,0.04028 9.48927,84.59707 -5.42871,84.56687c-0.48212,-0.00098 0.90532,-1.55107 1.35023,-3.34514c0.35268,-1.42215 -0.17674,-3.1719 -0.65221,-3.19406c-0.17074,-0.04657 -4.54734,5.09245 -5.62687,5.55314c-3.59505,1.53418 -15.40377,0.2341 -13.34019,-0.90092c4.86768,-2.67733 17.33597,-9.83336 14.8417,-22.07737c-7.05023,-1.57049 -7.36423,-9.91197 -6.43359,-9.41733c21.04872,-1.01973 16.20638,-51.42113 15.28962,-51.18517z"></path><path stroke="none" fill="url(#color-3)" data-paper-data="{&quot;index&quot;:null}" d="M271.69529,140.95522c-0.15652,0.04028 9.48928,84.59707 -5.42871,84.56687c-0.48212,-0.00098 0.90532,-1.55107 1.35023,-3.34514c0.35268,-1.42215 -0.17674,-3.1719 -0.6522,-3.19406c-0.17074,-0.04657 -4.54734,5.09245 -5.62687,5.55314c-3.59505,1.53418 -15.40377,0.2341 -13.34019,-0.90092c4.86768,-2.67733 17.33597,-9.83336 14.8417,-22.07737c-7.05023,-1.57049 -7.36423,-9.91197 -6.43359,-9.41732c21.04872,-1.01973 16.20638,-51.42113 15.28962,-51.18518z"></path><path stroke="none" fill="url(#color-4)" data-paper-data="{&quot;index&quot;:null}" d="M289.4464,182.503c0.93064,-0.49464 0.61664,7.84684 -6.43359,9.41733c-2.49427,12.24401 9.97403,19.40005 14.8417,22.07737c2.06358,1.13502 -9.74513,2.4351 -13.34019,0.90092c-1.07952,-0.46069 -5.45613,-5.59971 -5.62687,-5.55314c-0.47546,0.02218 -1.00488,1.77191 -0.65221,3.19406c0.44491,1.79407 1.83235,3.34417 1.35023,3.34514c-14.91799,0.0302 -5.27218,-84.52659 -5.42871,-84.56687c-0.91676,-0.23597 -5.7591,50.16544 15.28962,51.18517z"></path><path stroke="none" fill="url(#color-5)" data-paper-data="{&quot;index&quot;:null}" d="M222.70841,189.41071c0.93064,-0.49464 0.61664,7.84683 -6.43359,9.41732c-2.49427,12.24401 9.97404,19.40005 14.8417,22.07737c2.06358,1.13502 -9.74513,2.4351 -13.34019,0.90092c-1.07953,-0.46069 -5.45612,-5.59971 -5.62687,-5.55314c-0.47546,0.02218 -1.00488,1.77191 -0.6522,3.19406c0.44491,1.79407 1.83235,3.34417 1.35023,3.34514c-14.91798,0.0302 -5.27218,-84.52659 -5.42871,-84.56687c-0.91677,-0.23597 -5.7591,50.16545 15.28962,51.18518z"></path><path stroke="none" fill="url(#color-6)" data-paper-data="{&quot;index&quot;:null}" d="M205.44538,126.40437c-0.15652,0.04028 9.48927,84.59707 -5.42871,84.56687c-0.48212,-0.00098 0.90532,-1.55107 1.35023,-3.34514c0.35268,-1.42215 -0.17674,-3.1719 -0.6522,-3.19406c-0.17074,-0.04657 -4.54734,5.09245 -5.62687,5.55314c-3.59505,1.53418 -15.40377,0.2341 -13.34019,-0.90092c4.86768,-2.67733 17.33597,-9.83336 14.8417,-22.07737c-7.05023,-1.57049 -7.36423,-9.91197 -6.43359,-9.41733c21.04872,-1.01973 16.20639,-51.42113 15.28962,-51.18517z"></path><path stroke="none" fill="url(#color-7)" data-paper-data="{&quot;index&quot;:null}" d="M197.78373,174.6703c0.93064,-0.49464 0.61664,7.84683 -6.43359,9.41732c-2.49427,12.24401 9.97404,19.40005 14.8417,22.07737c2.06358,1.13502 -9.74513,2.4351 -13.34019,0.90092c-1.07953,-0.46069 -5.45612,-5.59971 -5.62686,-5.55314c-0.47546,0.02218 -1.00489,1.77191 -0.65221,3.19406c0.44491,1.79407 1.83235,3.34417 1.35023,3.34514c-14.91798,0.0302 -5.27218,-84.52659 -5.42871,-84.56687c-0.91677,-0.23597 -5.7591,50.16545 15.28962,51.18518z"></path><path stroke="none" fill="url(#color-8)" data-paper-data="{&quot;index&quot;:null}" d="M296.864,123.48511c-0.15652,0.04028 9.48928,84.59707 -5.42871,84.56687c-0.48212,-0.00098 0.90532,-1.55107 1.35023,-3.34514c0.35268,-1.42215 -0.17674,-3.1719 -0.65221,-3.19406c-0.17074,-0.04657 -4.54734,5.09245 -5.62687,5.55314c-3.59505,1.53418 -15.40377,0.2341 -13.34019,-0.90092c4.86768,-2.67733 17.33596,-9.83336 14.8417,-22.07737c-7.05023,-1.57049 -7.36423,-9.91197 -6.43359,-9.41732c21.04872,-1.01973 16.20639,-51.42113 15.28962,-51.18518z"></path><path stroke="#000000" fill="url(#color-9)" data-paper-data="{&quot;index&quot;:null}" d="M314.6151,165.03289c0.93064,-0.49464 0.61664,7.84684 -6.43359,9.41733c-2.49427,12.24401 9.97404,19.40005 14.8417,22.07737c2.06358,1.13502 -9.74513,2.4351 -13.34019,0.90092c-1.07952,-0.46069 -5.45613,-5.59971 -5.62687,-5.55314c-0.47546,0.02218 -1.00488,1.77191 -0.6522,3.19406c0.44491,1.79407 1.83235,3.34417 1.35023,3.34514c-14.91799,0.0302 -5.27218,-84.52659 -5.42871,-84.56687c-0.91676,-0.23597 -5.7591,50.16544 15.28962,51.18517z"></path><path stroke="#000000" fill="url(#color-10)" data-paper-data="{&quot;index&quot;:null}" d="M180.52071,111.66396c-0.15652,0.04028 9.48927,84.59707 -5.42871,84.56687c-0.48212,-0.00098 0.90532,-1.55107 1.35023,-3.34514c0.35268,-1.42215 -0.17674,-3.1719 -0.65221,-3.19406c-0.17074,-0.04657 -4.54734,5.09245 -5.62687,5.55314c-3.59505,1.53418 -15.40377,0.2341 -13.34019,-0.90092c4.86768,-2.67733 17.33597,-9.83336 14.8417,-22.07737c-7.05023,-1.57049 -7.36423,-9.91197 -6.43359,-9.41733c21.04872,-1.01973 16.20638,-51.42113 15.28962,-51.18517z"></path></g><path stroke-linecap="butt" stroke-width="0" stroke="#000000" fill="url(#color-11)" d="M161.22896,122.42289c0,0 11.19584,12.62254 13.35214,-3.21771c4.67523,-20.23318 7.34823,-34.03227 28.06475,-43.32359c6.17414,-2.76909 9.95134,-6.7433 29.6321,-3.35764c0.24144,0.04154 0.35692,0.05342 0.36286,0.03777c0.06961,-0.18337 -14.88819,-4.14551 -18.46139,-8.50348c-3.91011,-4.76888 -5.41845,-10.51999 -4.61095,-13.84526c6.53248,-18.81072 34.14034,-19.08391 36.01807,-19.48342c19.30974,-2.10832 45.48468,17.06325 4.92227,27.1663c-2.05566,0.51201 27.50938,-11.40873 -11.40892,-14.0594c-19.78575,2.60711 -27.68716,8.81808 -4.274,22.39772c6.74771,-0.59946 15.65379,-0.92751 16.56562,-1.61709c22.08812,2.63953 24.51248,6.58172 32.18506,11.3592c6.17518,3.8451 14.06649,10.52308 18.44144,19.63532c3.37192,7.0231 2.06955,16.50787 5.69805,23.52708c6.92091,13.38824 15.05593,2.03251 15.05593,2.03251c0,0 1.44682,8.76553 -1.41643,14.63621c-2.05695,4.21747 -7.30611,6.21507 -12.39886,5.78189c-0.11182,0.59282 -0.36027,10.08548 4.33635,12.21282c3.96083,1.79406 12.64871,-1.42264 12.64871,-1.42264c0,0 -14.65164,6.37914 -15.62705,10.57541c-1.7558,7.55362 19.13588,-1.13314 16.3392,1.26495c-1.37818,1.18175 -7.26428,5.56839 -12.77969,6.82385c-5.31453,1.20974 -10.28488,-0.70231 -10.54628,-0.03679c-3.49395,8.89536 -10.36285,18.18124 -10.36285,18.18124c0,0 -2.29192,-5.28642 -3.77673,-3.14158c-6.07718,8.77862 -11.2964,15.30957 -11.2964,15.30957c0,0 -2.40974,-4.97718 -4.47106,-3.86765c-9.32569,5.01966 -20.06286,7.91078 -31.65348,7.91078c-12.60656,0 -24.772,-3.56633 -35.27102,-9.52744c-2.72845,-1.54916 -0.82623,4.38789 -0.82623,4.38789c0,0 -7.93843,-5.19677 -13.15685,-11.00681c-6.08759,-6.77777 -9.73663,-14.57056 -12.13914,-18.68944c-0.34082,-0.58431 -4.01999,1.58785 -5.934,2.01254c-2.96082,0.65696 -4.48364,-0.08182 -4.48364,-0.08182c0,0 2.67098,-3.37669 3.55098,-5.15497c0.94364,-1.90688 1.93325,-5.92746 1.93325,-5.92746c0,0 -2.66402,1.90888 -4.05965,2.38502c-1.48595,0.50696 -4.60208,0.57008 -4.60208,0.57008c0,0 4.39229,-5.64339 5.74307,-11.5602c0.39327,-1.72262 4.12301,-9.97893 -0.21176,-9.96905c-17.00132,0.5205 -11.08139,-20.4147 -11.08139,-20.4147z"></path><path stroke-linecap="butt" stroke-width="0" stroke="#000000" fill="url(#color-12)" d="M206.67309,307.57894l15.14285,-131.8421l37.78325,-0.15789l13.57389,132z"></path><path stroke-linecap="round" stroke-width="2" stroke="#000000" fill="none" d="M254.75002,219.00002l3,-28"></path><path stroke-linecap="butt" stroke-width="0" stroke="#000000" fill="url(#color-13)" d="M206.6731,307.49998l15.14285,-131.8421c0,0 5.99728,36.24339 22.93006,36.88329c22.40943,0.0925 16.85318,-20.54117 16.85318,-20.54117l11.57389,115.5z"></path><path stroke-linecap="round" stroke-width="0.5" stroke="#000000" fill="none" d="M262.50002,219.00001c0,0 -13.46231,2.23056 -18.94179,0.78011c-5.83188,-1.54373 -16.55821,-8.78011 -16.55821,-8.78011"></path><path stroke-linecap="round" stroke-width="1" stroke="#000000" fill="none" d="M254.00002,224.50001c0,0 -4.70146,1.09587 -6.9358,0.66619c-2.08924,-0.40177 -6.0642,-3.16619 -6.0642,-3.16619"></path><path stroke-linecap="round" stroke-width="0.5" stroke="#000000" fill="none" d="M246.00002,254.00001c0,0 -11.53456,-5.08122 -15.43624,-7.19463c-0.81083,-0.4392 -11.56376,-14.30537 -11.56376,-14.30537"></path><path stroke-linecap="round" stroke-width="1" stroke="#000000" fill="none" d="M239.00002,255.00001c0,0 -8.40896,-2.62721 -11.78907,-4.40177c-3.28377,-1.72398 -8.21093,-6.09823 -8.21093,-6.09823"></path><path stroke-linecap="round" stroke-width="1" stroke="#000000" fill="none" d="M211.50002,302.50001l55.5,0.5"></path><path stroke-linecap="round" stroke-width="0.5" stroke="#000000" fill="none" d="M265.50002,275.00001c0,0 -8.1762,1.73819 -11.98388,1.58887c-4.55699,-0.1787 -13.51612,-2.58887 -13.51612,-2.58887"></path><path stroke-linecap="round" stroke-width="1" stroke="#000000" fill="none" d="M267.50002,254.50001l-9.5,2"></path><path stroke-linecap="round" stroke-width="1" stroke="#000000" fill="none" d="M230.50002,268.50001h-5.5"></path><path stroke-linecap="round" stroke-width="1" stroke="#000000" fill="none" d="M253.00002,296.00001c0,0 -15.2639,-4.18633 -21.85382,-7.86642c-6.22229,-3.47479 -16.64618,-13.63358 -16.64618,-13.63358"></path><path stroke-linecap="round" stroke-width="1" stroke="#000000" fill="none" d="M256.00002,284.50001c0,0 -12.443,-0.2942 -18.02819,-1.90206c-5.40917,-1.55718 -14.97181,-7.59794 -14.97181,-7.59794"></path><path stroke-linecap="round" stroke-width="1" stroke="#000000" fill="none" d="M224.00002,297.00001c0,0 -3.69928,-1.61165 -4.92301,-3.06483c-1.41506,-1.68037 -3.07699,-6.43517 -3.07699,-6.43517"></path><path stroke-linecap="butt" stroke-width="0" stroke="#000000" fill="url(#color-14)" d="M175.763,136.84616c0,-33.30185 28.7599,-60.29833 64.23702,-60.29833c35.47712,0 64.23702,26.99649 64.23702,60.29833c0,33.30185 -28.7599,60.29833 -64.23702,60.29833c-35.47712,0 -64.23702,-26.99649 -64.23702,-60.29833z"></path><g stroke-linecap="round" stroke-width="2" stroke="#000000" fill="none"><path d="M189.30003,138.64614l-3.6,-2.6"></path><path d="M290.10002,138.44616l4.2,-3.4"></path></g><path stroke-linecap="butt" stroke-width="0" stroke="#000000" fill="#808080" d="M189.31321,137.27563c0,-12.968 10.51265,-23.48065 23.48065,-23.48065c12.968,0 23.48065,10.51265 23.48065,23.48065c0,12.968 -10.51265,23.48065 -23.48065,23.48065c-12.968,0 -23.48065,-10.51265 -23.48065,-23.48065z"></path><path stroke-linecap="butt" stroke-width="0" stroke="none" fill="#003300" d="M213.37719,137.84563c0,-2.62336 2.12665,-4.75001 4.75,-4.75001c2.62336,0 4.75,2.12666 4.75,4.75001c0,2.62336 -2.12665,4.75 -4.75,4.75c-2.62336,0 -4.75,-2.12665 -4.75,-4.75z"></path><path stroke-linecap="round" stroke-width="2" stroke="#000000" fill="none" d="M219.1801,178.51905c0,0 5.54729,-3.80431 12.48651,-5.35454c3.13318,-0.69996 7.08661,1.41704 8.3334,1.41704c1.98093,0 3.27385,-2.84169 8.43905,-1.65135c6.14057,1.41512 13.35062,5.15135 13.35062,5.15135"></path><path stroke-linecap="butt" stroke-width="0" stroke="#000000" fill="#808080" data-paper-data="{&quot;index&quot;:null}" d="M267.05231,160.75627c-12.968,0 -23.48065,-10.51265 -23.48065,-23.48065c0,-12.968 10.51265,-23.48065 23.48065,-23.48065c12.968,0 23.48065,10.51265 23.48065,23.48065c0,12.968 -10.51265,23.48065 -23.48065,23.48065z"></path><path stroke-linecap="butt" stroke-width="2" stroke="#000000" fill="#000000" d="M189.31321,137.27565c-4.5,-12.468 23.42478,-37.07989 42.48065,-12.48065c0.53655,0.69263 -8.98634,6.78598 -15.90711,8.92907c-12.58922,3.8984 -26.57355,4.34626 -26.57355,3.55158z"></path><path stroke-linecap="butt" stroke-width="0" stroke="none" fill="#003300" d="M255.63564,138.64614c0,-2.62336 2.12664,-4.75001 4.75,-4.75001c2.62336,0 4.75,2.12666 4.75,4.75001c0,2.62336 -2.12665,4.75 -4.75,4.75c-2.62336,0 -4.75,-2.12665 -4.75,-4.75z"></path><path stroke-linecap="butt" stroke-width="0" stroke="none" fill="#000000" d="M201.95088,108.46716c0,0 6.70895,-5.16922 11.79721,-6.36355c5.08827,-1.19433 12.33413,0.69937 12.33413,0.69937c0,0 -8.03812,-0.06028 -11.96762,0.86207c-4.10648,0.96389 -12.16372,4.80211 -12.16372,4.80211z"></path><path stroke-linecap="butt" stroke-width="2" stroke="#000000" fill="#000000" data-paper-data="{&quot;index&quot;:null}" d="M289.57012,137.27565c0,0.70747 -12.35085,1.12792 -24.41993,-2.41689c-8.94069,-2.62596 -18.70439,-9.23284 -18.06072,-10.06377c19.05587,-24.59924 46.98065,0.01265 42.48065,12.48065z"></path><path stroke-linecap="butt" stroke-width="0" stroke="none" fill="#000000" data-paper-data="{&quot;index&quot;:null}" d="M265.88541,103.66506c-3.9295,-0.92235 -11.96762,-0.86207 -11.96762,-0.86207c0,0 7.24586,-1.8937 12.33413,-0.69937c5.08826,1.19433 11.79721,6.36355 11.79721,6.36355c0,0 -8.05724,-3.83822 -12.16372,-4.80211z"></path><path stroke-linecap="butt" stroke-width="0" stroke="#000000" fill="url(#color-15)" data-paper-data="{&quot;index&quot;:null}" d="M293.38888,98.67368c1.4959,3.53791 10.36325,23.16855 10.87876,30.74225c1.3055,19.18006 -2.47754,29.60306 -3.31715,29.81873c-0.14335,0.03682 7.19076,39.81626 -6.47188,39.78866c-0.44155,-0.0009 0.82914,-1.41758 1.23661,-3.05725c0.323,-1.29976 -0.16187,-2.8989 -0.59733,-2.91917c-0.15637,-0.04256 -4.16468,4.65417 -5.15337,5.07521c-3.29253,1.40214 -14.10754,0.21395 -12.21761,-0.82339c4.45806,-2.4469 15.87714,-8.98706 13.59277,-20.1773c-6.45695,-1.43533 -6.74453,-9.0589 -5.8922,-8.60682c19.27747,-0.93197 8.01888,-40.29434 5.70114,-44.53114c-0.37946,-0.69364 1.5761,-24.68185 2.24026,-25.30979z"></path><path stroke-linecap="butt" stroke-width="0" stroke="#000000" fill="url(#color-16)" d="M180.30233,107.13723c11.42496,-22.68233 31.40973,-33.07142 60.56473,-32.85267c24.16321,0.18129 39.14424,9.27509 47.64651,17.23625c16.95139,15.39084 2.38278,33.77341 2.38278,33.77341c0,0 -1.39549,-9.64566 -12.29994,-18.70175c-14.08553,-11.69796 -14.04993,-10.46858 -14.04993,-10.46858c0,0 4.52448,1.92314 -5.04548,20.37673c-3.18352,5.5078 -14.90293,13.71054 -19.935,14.71329c-1.14365,-4.66817 5.20699,-21.99612 -20.82215,-35.68813c-8.3093,12.11788 -21.13836,8.72953 -31.11009,26.95768c-4.31775,14.2368 -12.07633,56.09917 12.20114,40.53114c0.85233,-0.45208 -0.93525,12.6715 -12.3922,12.60682c-0.11292,0.55313 -0.19235,1.09489 -0.2408,1.62536c-0.93171,10.20143 9.59588,16.22599 13.83357,18.55194c1.88993,1.03734 -8.92508,2.22553 -12.21761,0.82339c-0.98869,-0.42103 -4.99699,-5.11777 -5.15337,-5.07521c-0.43545,0.02026 -0.92032,1.61941 -0.59732,2.91917c0.40747,1.63967 1.67816,3.05635 1.23661,3.05725c-13.66263,0.02759 -6.32853,-39.75184 -6.47188,-39.78866c-0.83962,-0.21566 -4.62265,-10.63867 -3.31715,-29.81873c0.70354,-10.33633 5.78759,-20.77871 5.78759,-20.77871z"></path><path stroke-linecap="butt" stroke-width="0" stroke="#000000" fill="#e21d29" d="M246.00003,68.72416l6.43886,11.04007l17.04179,2.18167l-12.34913,9.5523l4.11084,14.46899l-15.24236,-8.11922l-15.24235,8.11922l4.11083,-14.46899l-12.34913,-9.5523l17.04179,-2.18167z"></path><path stroke-linecap="butt" stroke-width="2" stroke="#000000" fill="#000000" data-paper-data="{&quot;index&quot;:null}" d="M231.15546,151.80488c-19.91597,15.94693 -31.60956,4.62667 -36.27597,0.39768c0,0 7.20137,0.15176 17.31554,-0.18738c7.91514,-0.2654 19.35824,-1.21901 18.96043,-0.2103z"></path><path stroke-linecap="butt" stroke-width="2" stroke="#000000" fill="#000000" data-paper-data="{&quot;index&quot;:null}" d="M284.17176,152.26197c-4.66641,4.22899 -16.36001,15.54924 -36.27598,-0.39768c-0.4372,-1.10859 9.49217,0.44514 18.33394,0.79767c9.48379,0.37813 17.94204,-0.39999 17.94204,-0.39999z"></path></g></g></svg>