<svg version="1.1" xmlns="http://www.w3.org/2000/svg" xmlns:xlink="http://www.w3.org/1999/xlink" width="34.17311" height="34.17311" viewBox="0,0,34.17311,34.17311"><g transform="translate(-222.91345,-162.91344)"><g data-paper-data="{&quot;isPaintingLayer&quot;:true}" stroke-miterlimit="10" stroke-dasharray="" stroke-dashoffset="0" style="mix-blend-mode: normal"><path d="M229.98312,162.91345h20.03378c3.9166,0 7.06966,3.15307 7.06966,7.06966v20.03379c0,3.91659 -3.15307,7.06966 -7.06966,7.06966h-20.03378c-3.91659,0 -7.06967,-3.15307 -7.06967,-7.06966v-20.03379c0,-3.91659 3.15308,-7.06966 7.06967,-7.06966z" fill="#e0ffda" fill-rule="evenodd" stroke="none" stroke-width="4.43922" stroke-linecap="round" stroke-linejoin="round"/><g fill-rule="nonzero" stroke="#000000" stroke-width="0.5" stroke-linecap="butt" stroke-linejoin="miter"><path d="M235.35734,172.16484c0,-3.25404 2.10441,-4.12989 4.70034,-4.12989c2.59593,0 4.70034,0.87584 4.70034,4.12989c0,3.25404 -2.10441,7.65406 -4.70034,7.65406c-2.59593,0 -4.70034,-4.40001 -4.70034,-7.65406z" fill="#ff3838"/><path d="M228.89492,188.02794c-3.25405,0 -4.12989,-2.10441 -4.12989,-4.70034c0,-2.59593 0.87583,-4.70034 4.12989,-4.70034c3.25405,0 7.65406,2.10441 7.65406,4.70034c0,2.59593 -4.40001,4.70034 -7.65406,4.70034z" fill="#7400ff"/><path d="M251.22045,178.62726c3.25405,0 4.12989,2.10441 4.12989,4.70034c0,2.59593 -0.87583,4.70034 -4.12989,4.70034c-3.25405,0 -7.65406,-2.10441 -7.65406,-4.70034c0,-2.59593 4.40001,-4.70034 7.65406,-4.70034z" fill="#fbff23"/><path d="M228.84078,178.75798c-2.30096,-2.30096 -1.43222,-4.40831 0.40338,-6.24391c1.8356,-1.8356 3.94295,-2.70433 6.24391,-0.40338c2.30096,2.30096 3.92419,6.90028 2.0886,8.73588c-1.8356,1.8356 -6.43492,0.21236 -8.73588,-2.0886z" fill="#ff00dd"/><path d="M244.62731,172.1107c2.30096,-2.30096 4.40832,-1.43223 6.24391,0.40338c1.8356,1.8356 2.70433,3.94295 0.40338,6.24391c-2.30096,2.30096 -6.90028,3.92419 -8.73588,2.0886c-1.8356,-1.8356 -0.21236,-6.43492 2.0886,-8.73588z" fill="#ff8715"/></g><path d="M229.33441,188.31593c0,-5.6464 4.8763,-10.5314 10.89152,-10.5314c6.01522,0 10.89153,4.88501 10.89153,10.5314" fill="#ffffff" fill-rule="nonzero" stroke="#000000" stroke-width="0.5" stroke-linecap="butt" stroke-linejoin="miter"/></g></g></svg>