<svg viewBox="0,0,680.18017,321.68845" height="321.68845" width="680.18017" xmlns:xlink="http://www.w3.org/1999/xlink" xmlns="http://www.w3.org/2000/svg" version="1.1"><g transform="translate(6.28462,8.58297)"><g style="mix-blend-mode: normal" stroke-dashoffset="0" stroke-dasharray="" stroke-miterlimit="10" stroke-linejoin="miter" stroke-linecap="butt" stroke="none" fill-rule="nonzero" data-paper-data="{&quot;isPaintingLayer&quot;:true}"><path stroke-width="NaN" fill="#00eaff" data-paper-data="{&quot;index&quot;:null}" d="M-0.26758,313.10547v-310.99511h643.53817v310.99511z"></path><path stroke-width="0" fill="#00800b" data-paper-data="{&quot;index&quot;:null}" d="M194.00517,147.03865c-81.6776,0 -147.89039,-58.22593 -147.89039,-91.81081c0,-33.58488 66.21279,-29.81081 147.89039,-29.81081c81.6776,0 147.89039,-3.77407 147.89039,29.81081c0,33.58488 -66.21278,91.81081 -147.89039,91.81081z"></path><path stroke-width="0" fill="#00b30f" data-paper-data="{&quot;index&quot;:null}" d="M455.50516,139.03865c-77.53547,0 -140.39039,-50.22593 -140.39039,-83.81081c0,-33.58488 62.85492,-37.81081 140.39039,-37.81081c77.53547,0 140.39039,4.22593 140.39039,37.81081c0,33.58488 -62.85492,83.81081 -140.39039,83.81081z"></path><path stroke-width="0" fill="#00e613" data-paper-data="{&quot;index&quot;:null}" d="M134.10577,113.03865c-77.53547,0 -140.39039,-27.22593 -140.39039,-60.81081c0,-33.58488 62.85492,-60.81081 140.39039,-60.81081c77.53547,0 140.39039,27.22593 140.39039,60.81081c0,33.58488 -62.85492,60.81081 -140.39039,60.81081z"></path><path stroke-width="0" fill="#00e613" data-paper-data="{&quot;index&quot;:null}" d="M533.50516,113.03865c-77.53547,0 -140.39039,-27.22593 -140.39039,-60.81081c0,-33.58488 62.85492,-60.81081 140.39039,-60.81081c77.53547,0 140.39039,27.22593 140.39039,60.81081c0,33.58488 -62.85492,60.81081 -140.39039,60.81081z"></path><path stroke-width="0" fill="#00ff15" data-paper-data="{&quot;index&quot;:null}" d="M320.29196,113.03866c-77.53547,0 -140.39039,-27.22593 -140.39039,-60.81081c0,-33.58489 62.85492,-60.81082 140.39039,-60.81082c77.53547,0 140.39039,27.22593 140.39039,60.81082c0,33.58488 -62.85492,60.81081 -140.39039,60.81081z"></path><g stroke-width="0" fill="#ffffff" data-paper-data="{&quot;index&quot;:null}"><path d="M161.72926,229.69437c-19.51406,0 -35.33334,-7.01421 -35.33334,-15.66667c0,-8.65246 15.81928,-15.66667 35.33334,-15.66667c19.51406,0 35.33333,7.01421 35.33333,15.66667c0,8.65246 -15.81927,15.66667 -35.33333,15.66667z"></path><path d="M135.22927,214.02771c-10.21727,0 -18.5,-3.20863 -18.5,-7.16667c0,-3.95804 8.28273,-7.16666 18.5,-7.16666c10.21727,0 18.5,3.20862 18.5,7.16666c0,3.95804 -8.28273,7.16667 -18.5,7.16667z"></path><path d="M176.39591,204.0277c0,-3.31371 7.3873,-6 16.5,-6c9.1127,0 16.5,2.68629 16.5,6c0,3.31371 -7.3873,6 -16.5,6c-9.1127,0 -16.5,-2.68629 -16.5,-6z"></path><path d="M211.0626,199.36105c0,2.02505 -22.08728,3.66667 -49.33333,3.66667c-27.24605,0 -49.33334,-1.64162 -49.33334,-3.66667c0,-2.02505 22.08729,-3.66666 49.33334,-3.66666c27.24605,0 49.33333,1.64162 49.33333,3.66666z"></path></g><g stroke-width="0" fill="#ffffff" data-paper-data="{&quot;index&quot;:null}"><path d="M516.85427,218.78031c0,7.13224 -16.8383,12.91406 -37.60938,12.91406c-20.77109,0 -37.60938,-5.78182 -37.60938,-12.91406c0,-7.13224 16.8383,-12.91406 37.60938,-12.91406c20.77108,0 37.60937,5.78182 37.60937,12.91406z"></path><path d="M471.99488,211.53031c0,2.87792 -10.04211,5.21094 -22.42969,5.21094c-12.38758,0 -22.42969,-2.33302 -22.42969,-5.21094c0,-2.87792 10.04211,-5.21094 22.42969,-5.21094c12.38758,0 22.42969,2.33302 22.42969,5.21094z"></path><path d="M499.18239,213.11623c0,-3.7538 5.57895,-6.79687 12.46094,-6.79687c6.88199,0 12.46094,3.04307 12.46094,6.79688c0,3.75381 -5.57895,6.79688 -12.46094,6.79688c-6.88199,0 -12.46094,-3.04306 -12.46094,-6.79687z"></path><path d="M525.46363,207.45219c0,2.62767 -24.14164,4.75781 -53.92187,4.75781c-29.78023,0 -53.92188,-2.13015 -53.92188,-4.75781c0,-2.62767 24.14164,-4.75781 53.92188,-4.75781c29.78023,0 53.92188,2.13015 53.92188,4.75781z"></path></g><g stroke-width="0" fill="#ffffff" data-paper-data="{&quot;index&quot;:null}"><path d="M344.81954,218.28031c-19.88225,0 -36,-5.59644 -36,-12.5c0,-6.90356 16.11775,-12.5 36,-12.5c19.88225,0 36,5.59644 36,12.5c0,6.90356 -16.11775,12.5 -36,12.5z"></path><path d="M318.31953,206.78031c-8.28427,0 -15,-2.79822 -15,-6.25c0,-3.45178 6.71573,-6.25 15,-6.25c8.28427,0 15,2.79822 15,6.25c0,3.45178 -6.71573,6.25 -15,6.25z"></path><path d="M357.81954,201.28031c0,-3.03757 5.93222,-5.5 13.25,-5.5c7.31777,0 13.25,2.46243 13.25,5.5c0,3.03757 -5.93223,5.5 -13.25,5.5c-7.31777,0 -13.25,-2.46243 -13.25,-5.5z"></path><path d="M381.31954,196.03031c0,2.34721 -19.92333,4.25 -44.5,4.25c-24.57667,0 -44.5,-1.90279 -44.5,-4.25c0,-2.34721 19.92333,-4.25 44.5,-4.25c24.57667,0 44.5,1.90279 44.5,4.25z"></path></g></g></g></svg>