<svg version="1.1" xmlns="http://www.w3.org/2000/svg" xmlns:xlink="http://www.w3.org/1999/xlink" width="34.67311" height="34.67311" viewBox="0,0,34.67311,34.67311"><defs><linearGradient x1="240.16113" y1="168.97118" x2="240.16113" y2="194.62469" gradientUnits="userSpaceOnUse" id="color-1"><stop offset="0" stop-color="#191919"/><stop offset="1" stop-color="#808080"/></linearGradient><linearGradient x1="244.42004" y1="164.96281" x2="244.42004" y2="169.07138" gradientUnits="userSpaceOnUse" id="color-2"><stop offset="0" stop-color="#191919"/><stop offset="1" stop-color="#808080"/></linearGradient></defs><g transform="translate(-222.66347,-162.66346)"><g data-paper-data="{&quot;isPaintingLayer&quot;:true}" stroke-linecap="round" stroke-miterlimit="10" stroke-dasharray="" stroke-dashoffset="0" style="mix-blend-mode: normal"><path d="M229.98313,162.91346h20.03379c3.9166,0 7.06966,3.15307 7.06966,7.06966v20.03379c0,3.91659 -3.15306,7.06966 -7.06966,7.06966h-20.03379c-3.91659,0 -7.06966,-3.15307 -7.06966,-7.06966v-20.03379c0,-3.91659 3.15307,-7.06966 7.06966,-7.06966z" fill="#000000" fill-rule="evenodd" stroke="#753434" stroke-width="0.5" stroke-linejoin="round"/><path d="M240.26134,168.97118l11.72446,5.01045l-4.00836,20.54286l-15.13157,0.10021l-4.50941,-20.54286z" fill="none" fill-rule="nonzero" stroke="url(#color-1)" stroke-width="1" stroke-linejoin="miter"/><path d="M240.16114,169.07138l2.60544,-3.50732l5.91234,-0.60125l-3.60753,3.60753z" fill="none" fill-rule="nonzero" stroke="url(#color-2)" stroke-width="1" stroke-linejoin="miter"/></g></g></svg>