<svg version="1.1" xmlns="http://www.w3.org/2000/svg" xmlns:xlink="http://www.w3.org/1999/xlink" width="35.1731" height="35.1731" viewBox="0,0,35.1731,35.1731"><defs><linearGradient x1="240.00005" y1="162.91345" x2="240.00005" y2="197.08655" gradientUnits="userSpaceOnUse" id="color-1"><stop offset="0" stop-color="#000000"/><stop offset="1" stop-color="#5e5e5e"/></linearGradient><linearGradient x1="240.00002" y1="167.19196" x2="240.00002" y2="193.29404" gradientUnits="userSpaceOnUse" id="color-2"><stop offset="0" stop-color="#121200"/><stop offset="1" stop-color="#4c4c00"/></linearGradient><linearGradient x1="240.00002" y1="167.19196" x2="240.00002" y2="193.29404" gradientUnits="userSpaceOnUse" id="color-3"><stop offset="0" stop-color="#434300"/><stop offset="1" stop-color="#0e0c05" stop-opacity="0.47451"/></linearGradient><linearGradient x1="240.76021" y1="166.70595" x2="240.76021" y2="172.74899" gradientUnits="userSpaceOnUse" id="color-4"><stop offset="0" stop-color="#303436"/><stop offset="1" stop-color="#a0aeb1"/></linearGradient></defs><g transform="translate(-222.41344,-162.41344)"><g data-paper-data="{&quot;isPaintingLayer&quot;:true}" stroke-miterlimit="10" stroke-dasharray="" stroke-dashoffset="0" style="mix-blend-mode: normal"><path d="M229.98315,162.91345h20.0338c3.9166,0 7.0696,3.1531 7.0696,7.0697v20.0338c0,3.9166 -3.153,7.0696 -7.0696,7.0696h-20.0338c-3.9166,0 -7.0697,-3.153 -7.0697,-7.0696v-20.0338c0,-3.9166 3.1531,-7.0697 7.0697,-7.0697z" fill="url(#color-1)" fill-rule="evenodd" stroke="#fffff3" stroke-width="1" stroke-linecap="round" stroke-linejoin="round"/><g fill-rule="nonzero" stroke-width="0" stroke-linejoin="miter"><path d="M248.44414,181.08682c-0.69664,6.94191 -4.77535,12.26312 -9.2371,12.20678c-0.09438,-1.43106 -0.30666,-2.80202 -0.94383,-3.70113c-0.5417,-0.76439 -1.26966,-1.46417 -2.09668,-1.96538v-0.75757h-0.51191l0.39246,-0.68085c-1.18907,-1.10635 -1.94699,-3.20601 -3.56721,-3.31905c-0.33196,-0.02316 -0.63335,0.01191 -0.90764,0.09559c-0.09164,-1.14489 -0.082,-2.34188 0.04099,-3.56743c0.3014,-3.00332 2.32874,-5.59361 3.65334,-7.686c1.8478,-2.91887 3.36199,-4.76507 6.06912,-4.4934c2.69403,0.27036 3.97758,2.8196 5.212,6.02208c0.89521,2.32244 2.19989,4.82276 1.89647,7.84635z" fill="url(#color-2)" stroke="url(#color-3)" stroke-linecap="butt"/><path d="M244.30996,167.17082l4.14136,5.57817l-15.38221,-1.14484l4.733,-4.89818z" fill="url(#color-4)" stroke="#474e4f" stroke-linecap="round"/></g></g></g></svg>