<svg version="1.1" xmlns="http://www.w3.org/2000/svg" xmlns:xlink="http://www.w3.org/1999/xlink" width="34.17311" height="34.17311" viewBox="0,0,34.17311,34.17311"><g transform="translate(-222.91345,-162.91345)"><g data-paper-data="{&quot;isPaintingLayer&quot;:true}" stroke-linecap="round" stroke-miterlimit="10" stroke-dasharray="" stroke-dashoffset="0" style="mix-blend-mode: normal"><path d="M229.98313,162.91346h20.03378c3.9166,0 7.06966,3.15307 7.06966,7.06966v20.03379c0,3.91659 -3.15306,7.06966 -7.06966,7.06966h-20.03378c-3.91659,0 -7.06967,-3.15307 -7.06967,-7.06966v-20.03379c0,-3.91659 3.15308,-7.06966 7.06967,-7.06966z" fill-opacity="0.09677" fill="#191919" fill-rule="evenodd" stroke="none" stroke-width="4.43922" stroke-linejoin="round"/><path d="M239.03289,168.35104l8.96757,1.05501l-0.26375,5.97838c0,0 -4.52378,-2.58364 -7.64881,-2.63752c-3.12503,-0.05388 -7.64881,2.37377 -7.64881,2.37377l-1.14293,-4.13212z" fill="#000000" fill-rule="nonzero" stroke="#ffffff" stroke-width="0.5" stroke-linejoin="miter"/><path d="M229.53783,169.66981c0,0 6.23338,-4.69679 10.638,-4.65962c4.40461,0.03717 10.19841,4.83545 10.19841,4.83545l1.49459,23.12226l-4.5717,2.0221l-0.26375,-23.64977c0,0 -4.15761,-2.19793 -7.03339,-2.19793c-2.87578,0 -7.03339,2.19793 -7.03339,2.19793l-0.08792,23.64977l-4.74754,-2.11002l1.40668,-23.21018z" fill="#000000" fill-rule="nonzero" stroke="#ffffff" stroke-width="0.5" stroke-linejoin="miter"/></g></g></svg>