<svg version="1.1" xmlns="http://www.w3.org/2000/svg" xmlns:xlink="http://www.w3.org/1999/xlink" width="130.47404" height="267.22501" viewBox="0,0,130.47404,267.22501"><g transform="translate(-174.84001,-46.3875)"><g data-paper-data="{&quot;isPaintingLayer&quot;:true}" fill-rule="nonzero" stroke-linejoin="miter" stroke-miterlimit="10" stroke-dasharray="" stroke-dashoffset="0" style="mix-blend-mode: normal"><path d="M206.75011,307.50001l15.14285,-131.8421l37.78325,-0.15789l13.57389,132z" fill="#f55959" stroke="#000000" stroke-width="2" stroke-linecap="butt"/><path d="M219.15149,209.00503l2.38962,-26.69355l38.57499,-0.69088l2.03555,27.20359c0,0 -8.24723,4.01308 -22.29084,4.32669c-12.48458,0.27879 -20.16049,-4.14586 -20.16049,-4.14586z" fill="#c14646" stroke="#000000" stroke-width="0" stroke-linecap="butt"/><path d="M175.84001,140.15445c0,-33.30185 28.7599,-60.29833 64.23702,-60.29833c35.47712,0 64.23702,26.99649 64.23702,60.29833c0,33.30185 -28.7599,60.29833 -64.23702,60.29833c-35.47712,0 -64.23702,-26.99649 -64.23702,-60.29833z" fill="#f55959" stroke="#000000" stroke-width="2" stroke-linecap="butt"/><path d="M176.56307,140.20829c0,-0.72799 5.20666,55.91939 63.36046,56.93429c55.56352,0.9697 63.51358,-57.95314 63.51358,-56.93429c0,32.80479 -28.40173,59.39833 -63.43702,59.39833c-35.03529,0 -63.43702,-26.59354 -63.43702,-59.39833z" fill="#c14646" stroke="#000000" stroke-width="0" stroke-linecap="butt"/><path d="M189.39023,140.33392c0,-12.968 10.51265,-23.48065 23.48065,-23.48065c12.968,0 23.48065,10.51265 23.48065,23.48065c0,12.968 -10.51265,23.48065 -23.48065,23.48065c-12.968,0 -23.48065,-10.51265 -23.48065,-23.48065z" fill="#ffffff" stroke="#000000" stroke-width="2" stroke-linecap="butt"/><path d="M192.16579,144.86582c0,-9.12808 7.39976,-16.52784 16.52783,-16.52784c9.12808,0 16.52784,7.39977 16.52784,16.52784c0,9.12808 -7.39977,16.52784 -16.52784,16.52784c-9.12808,0 -16.52783,-7.39977 -16.52783,-16.52784z" fill="#000000" stroke="none" stroke-width="0" stroke-linecap="butt"/><path d="M267.12929,163.81455c-12.968,0 -23.48065,-10.51265 -23.48065,-23.48065c0,-12.968 10.51265,-23.48065 23.48065,-23.48065c12.968,0 23.48065,10.51265 23.48065,23.48065c0,12.968 -10.51265,23.48065 -23.48065,23.48065z" data-paper-data="{&quot;index&quot;:null}" fill="#ffffff" stroke="#000000" stroke-width="2" stroke-linecap="butt"/><path d="M270.13293,151.519c-9.12807,0 -16.52783,-7.39977 -16.52783,-16.52784c0,-9.12808 7.39977,-16.52784 16.52783,-16.52784c9.12807,0 16.52783,7.39977 16.52783,16.52784c0,9.12808 -7.39977,16.52784 -16.52783,16.52784z" data-paper-data="{&quot;index&quot;:null}" fill="#000000" stroke="none" stroke-width="0" stroke-linecap="butt"/><path d="M237.10075,87.55198c0,0 3.94374,-4.41539 6.15893,-5.82654c1.70375,-1.08535 6.00533,-1.9225 6.00533,-1.9225c0,0 1.8295,-11.09465 6.5606,-13.17397c3.26219,-1.43374 8.82121,1.08869 15.29929,0.75412c6.78098,-0.35022 14.41504,-3.52307 14.41504,-3.52307c0,0 -9.83937,6.98324 -14.32812,10.08674c-2.10865,1.45792 -7.8441,5.17206 -11.8109,6.19881c-5.7135,1.47885 -10.48646,0.14021 -10.48646,0.14021c0,0 -3.17144,0.79237 -4.95661,1.63926c-2.43966,1.15739 -6.85709,5.62695 -6.85709,5.62695z" fill="#71f17b" stroke="#000000" stroke-width="2" stroke-linecap="round"/><path d="M246.53238,182.31312c0,4.06738 -2.58169,7.36465 -5.76637,7.36465c-3.18468,0 -5.76637,-3.29727 -5.76637,-7.36465c0,-4.06738 2.58169,-7.36465 5.76637,-7.36465c3.18468,0 5.76637,3.29727 5.76637,7.36465z" fill="#000000" stroke="#000000" stroke-width="2" stroke-linecap="butt"/><path d="M178.40899,313.61251v-267.22501h123.18203v267.22501z" fill-opacity="0.01" fill="#000000" stroke="none" stroke-width="0" stroke-linecap="butt"/></g></g></svg>