<svg version="1.1" xmlns="http://www.w3.org/2000/svg" xmlns:xlink="http://www.w3.org/1999/xlink" width="130.47404" height="267.22501" viewBox="0,0,130.47404,267.22501"><g transform="translate(-174.83997,-46.3875)"><g data-paper-data="{&quot;isPaintingLayer&quot;:true}" fill-rule="nonzero" stroke-linejoin="miter" stroke-miterlimit="10" stroke-dasharray="" stroke-dashoffset="0" style="mix-blend-mode: normal"><path d="M206.75007,307.50001l15.14285,-131.8421l37.78325,-0.15789l13.57389,132z" fill="#f55959" stroke="#000000" stroke-width="2" stroke-linecap="butt"/><path d="M219.15145,209.00503l2.38962,-26.69355l38.57499,-0.69088l2.03555,27.20359c0,0 -8.24723,4.01308 -22.29084,4.32669c-12.48458,0.27879 -20.16049,-4.14586 -20.16049,-4.14586z" fill="#c14646" stroke="#000000" stroke-width="0" stroke-linecap="butt"/><path d="M175.83997,141.73856c0,-33.30185 28.7599,-60.29833 64.23702,-60.29833c35.47712,0 64.23702,26.99649 64.23702,60.29833c0,33.30185 -28.7599,60.29833 -64.23702,60.29833c-35.47712,0 -64.23702,-26.99649 -64.23702,-60.29833z" fill="#f55959" stroke="#000000" stroke-width="2" stroke-linecap="butt"/><path d="M176.56303,141.7924c0,-0.72799 5.20666,55.91939 63.36046,56.93429c55.56352,0.9697 63.51358,-57.95314 63.51358,-56.93429c0,32.80479 -28.40173,59.39833 -63.43702,59.39833c-35.03529,0 -63.43702,-26.59354 -63.43702,-59.39833z" fill="#c14646" stroke="#000000" stroke-width="0" stroke-linecap="butt"/><path d="M189.39019,141.91803c0,-12.968 10.51265,-23.48065 23.48065,-23.48065c12.968,0 23.48065,10.51265 23.48065,23.48065c0,12.968 -10.51265,23.48065 -23.48065,23.48065c-12.968,0 -23.48065,-10.51265 -23.48065,-23.48065z" fill="#ffffff" stroke="#000000" stroke-width="2" stroke-linecap="butt"/><path d="M192.16575,146.44993c0,-9.12808 7.39976,-16.52784 16.52783,-16.52784c9.12808,0 16.52784,7.39977 16.52784,16.52784c0,9.12808 -7.39977,16.52784 -16.52784,16.52784c-9.12808,0 -16.52783,-7.39977 -16.52783,-16.52784z" fill="#000000" stroke="none" stroke-width="0" stroke-linecap="butt"/><path d="M267.12926,165.39866c-12.968,0 -23.48065,-10.51265 -23.48065,-23.48065c0,-12.968 10.51265,-23.48065 23.48065,-23.48065c12.968,0 23.48065,10.51265 23.48065,23.48065c0,12.968 -10.51265,23.48065 -23.48065,23.48065z" data-paper-data="{&quot;index&quot;:null}" fill="#ffffff" stroke="#000000" stroke-width="2" stroke-linecap="butt"/><path d="M270.13289,153.10311c-9.12807,0 -16.52783,-7.39977 -16.52783,-16.52784c0,-9.12808 7.39977,-16.52784 16.52783,-16.52784c9.12807,0 16.52783,7.39977 16.52783,16.52784c0,9.12808 -7.39977,16.52784 -16.52783,16.52784z" data-paper-data="{&quot;index&quot;:null}" fill="#000000" stroke="none" stroke-width="0" stroke-linecap="butt"/><path d="M238.73353,90.74594c0,0 2.92631,-5.53713 4.78059,-7.47136c1.42617,-1.48766 5.40181,-3.15005 5.40181,-3.15005c0,0 -0.42455,-12.52055 3.71984,-15.62349c2.85764,-2.13954 8.70547,-0.3228 14.87515,-1.80746c6.45816,-1.55408 13.18142,-6.36038 13.18142,-6.36038c0,0 -8.0954,9.37822 -11.80476,13.56608c-1.74252,1.96731 -6.53161,7.04183 -10.14766,8.85509c-5.2083,2.61169 -10.0663,1.96175 -10.0663,1.96175c0,0 -2.89663,1.41833 -4.44815,2.6577c-2.12034,1.69376 -5.49194,7.37213 -5.49194,7.37213z" fill="#71f17b" stroke="#000000" stroke-width="2" stroke-linecap="round"/><path d="M246.81539,184.46332c0,5.70876 -2.86682,10.33663 -6.40322,10.33663c-3.5364,0 -6.40322,-4.62787 -6.40322,-10.33663c0,-5.70876 2.86682,-10.33663 6.40322,-10.33663c3.5364,0 6.40322,4.62787 6.40322,10.33663z" fill="#000000" stroke="#000000" stroke-width="2" stroke-linecap="butt"/><path d="M178.40899,313.61251v-267.22501h123.18203v267.22501z" fill-opacity="0.01" fill="#000000" stroke="none" stroke-width="0" stroke-linecap="butt"/></g></g></svg>