<svg version="1.1" xmlns="http://www.w3.org/2000/svg" xmlns:xlink="http://www.w3.org/1999/xlink" width="34.67311" height="34.67311" viewBox="0,0,34.67311,34.67311"><defs><linearGradient x1="240.00001" y1="162.91345" x2="240.00001" y2="197.08656" gradientUnits="userSpaceOnUse" id="color-1"><stop offset="0" stop-color="#000000"/><stop offset="1" stop-color="#1f8893"/></linearGradient></defs><g transform="translate(-222.66345,-162.66344)"><g data-paper-data="{&quot;isPaintingLayer&quot;:true}" stroke-miterlimit="10" stroke-dasharray="" stroke-dashoffset="0" style="mix-blend-mode: normal"><path d="M229.98312,162.91345h20.03379c3.9166,0 7.06966,3.15307 7.06966,7.06966v20.03379c0,3.91659 -3.15306,7.06966 -7.06966,7.06966h-20.03379c-3.91659,0 -7.06966,-3.15307 -7.06966,-7.06966v-20.03379c0,-3.91659 3.15307,-7.06966 7.06966,-7.06966z" fill="url(#color-1)" fill-rule="evenodd" stroke="#34e4f6" stroke-width="0.5" stroke-linecap="round" stroke-linejoin="round"/><path d="M229.54312,190.01191v-17.86607l21.63597,-2.45864l-3.44208,20.32471z" fill="#36ebff" fill-rule="nonzero" stroke="#ffffff" stroke-width="0" stroke-linecap="butt" stroke-linejoin="miter"/><path d="M241.93157,173.4748h4.15533v2.85679l-15.45264,10.90775v-5.45387z" fill="#ffffff" fill-rule="nonzero" stroke="#ffffff" stroke-width="0.5" stroke-linecap="round" stroke-linejoin="miter"/><path d="M246.0869,177.63013v2.85679l-12.07643,8.44052h-3.50606z" fill="#ffffff" fill-rule="nonzero" stroke="#ffffff" stroke-width="0.5" stroke-linecap="round" stroke-linejoin="miter"/><path d="M233.49105,169.31947h17.2706l-4.15533,2.8568h-16.62133v17.5303h16.75118l0.51942,-0.90897l0.38956,-16.36162l3.66838,-2.59709v16.52394l-4.31765,4.31765h-17.72509l-0.58434,-0.58435v-18.43928z" fill="#001aff" fill-rule="nonzero" stroke="#001aff" stroke-width="0.5" stroke-linecap="round" stroke-linejoin="miter"/></g></g></svg>