<svg version="1.1" xmlns="http://www.w3.org/2000/svg" xmlns:xlink="http://www.w3.org/1999/xlink" width="153.07144" height="277.57269" viewBox="0,0,153.07144,277.57269"><g transform="translate(-163.46428,-36.03984)"><g data-paper-data="{&quot;isPaintingLayer&quot;:true}" fill-rule="nonzero" stroke-linejoin="miter" stroke-miterlimit="10" stroke-dasharray="" stroke-dashoffset="0" style="mix-blend-mode: normal"><path d="M206.29232,307.6391l15.14285,-131.8421l37.78325,-0.15789l13.57389,132z" fill="#000000" stroke="#000000" stroke-width="2" stroke-linecap="butt"/><path d="M242.64683,208.41187l5.67771,27.72055l-7.51461,10.85443l-7.68159,-10.52045l5.60621,-27.98305z" fill="#ffffff" stroke="#ffffff" stroke-width="2" stroke-linecap="round"/><path d="M250.16144,195.91269l-7.44708,8.88771l-4.27948,-0.01859l-8.31239,-9.03612z" fill="#ffffff" stroke="#ffffff" stroke-width="2" stroke-linecap="round"/><path d="M175.38223,140.36112c0,-33.30185 28.7599,-60.29833 64.23702,-60.29833c35.47712,0 64.23702,26.99649 64.23702,60.29833c0,33.30185 -28.7599,60.29833 -64.23702,60.29833c-35.47712,0 -64.23702,-26.99649 -64.23702,-60.29833z" fill="#000000" stroke="#000000" stroke-width="2" stroke-linecap="butt"/><path d="M188.93244,140.7906c0,-12.968 10.51265,-23.48065 23.48065,-23.48065c12.968,0 23.48065,10.51265 23.48065,23.48065c0,12.968 -10.51265,23.48065 -23.48065,23.48065c-12.968,0 -23.48065,-10.51265 -23.48065,-23.48065z" fill="#ffffff" stroke="#000000" stroke-width="2" stroke-linecap="butt"/><path d="M193.72761,140.51496c0,-9.12808 7.39976,-16.52784 16.52783,-16.52784c9.12808,0 16.52784,7.39977 16.52784,16.52784c0,9.12808 -7.39977,16.52784 -16.52784,16.52784c-9.12808,0 -16.52783,-7.39977 -16.52783,-16.52784z" fill="#000000" stroke="none" stroke-width="0" stroke-linecap="butt"/><path d="M227.04932,176.79558h25.10959" fill="none" stroke="#000000" stroke-width="2" stroke-linecap="round"/><path d="M266.67152,164.27124c-12.968,0 -23.48065,-10.51265 -23.48065,-23.48065c0,-12.968 10.51265,-23.48065 23.48065,-23.48065c12.968,0 23.48065,10.51265 23.48065,23.48065c0,12.968 -10.51265,23.48065 -23.48065,23.48065z" data-paper-data="{&quot;index&quot;:null}" fill="#ffffff" stroke="#000000" stroke-width="2" stroke-linecap="butt"/><path d="M264.73221,157.30992c-9.12807,0 -16.52783,-7.39977 -16.52783,-16.52784c0,-9.12808 7.39977,-16.52784 16.52783,-16.52784c9.12807,0 16.52783,7.39977 16.52783,16.52784c0,9.12808 -7.39977,16.52784 -16.52783,16.52784z" data-paper-data="{&quot;index&quot;:null}" fill="#000000" stroke="none" stroke-width="0" stroke-linecap="butt"/><path d="M188.93244,145.2745c0,-12.968 1.97197,-32.67755 23.27723,-32.83785c22.33092,-0.16802 23.68407,19.86985 23.68407,32.83785c0,0 -46.96131,1.23155 -46.96131,0z" fill="#000000" stroke="#000000" stroke-width="2" stroke-linecap="butt"/><path d="M315.53572,100.20276c0,11.69732 -33.8185,21.17989 -75.53572,21.17989c-41.71723,0 -75.53572,-9.48255 -75.53572,-21.17988c0,-11.69732 33.8185,-21.17988 75.53572,-21.17988c41.71723,0 75.53572,9.48255 75.53572,21.17989z" fill="#000000" stroke="#000000" stroke-width="2" stroke-linecap="butt"/><path d="M193.52759,90.23959l0.57654,-38.57998c0,0 11.1085,-9.89048 45.6775,-10.08224c34.91573,-0.19369 47.14524,9.2785 47.14524,9.2785l-0.57654,38.17811z" fill="#000000" stroke="#000000" stroke-width="2" stroke-linecap="round"/><path d="M227.50713,176.65646h25.10959" fill="none" stroke="#000000" stroke-width="2" stroke-linecap="round"/><path d="M242.6743,144.89397c0,-12.968 1.97197,-32.67755 23.27723,-32.83785c22.33092,-0.16802 23.68407,19.86985 23.68407,32.83785c0,0 -46.96131,1.23155 -46.96131,0z" fill="#000000" stroke="#000000" stroke-width="2" stroke-linecap="butt"/><path d="M179.28375,313.61253v-277.57269h123.18203v277.57269z" fill="none" stroke="none" stroke-width="0" stroke-linecap="butt"/></g></g></svg>