<svg version="1.1" xmlns="http://www.w3.org/2000/svg" xmlns:xlink="http://www.w3.org/1999/xlink" width="200.10662" height="333.63158" viewBox="0,0,200.10662,333.63158"><g transform="translate(-140.38577,-12.05265)"><g data-paper-data="{&quot;isPaintingLayer&quot;:true}" fill-rule="nonzero" stroke-linejoin="miter" stroke-miterlimit="10" stroke-dasharray="" stroke-dashoffset="0" style="mix-blend-mode: normal"><path d="M193.60381,132.93639l12.56422,-110.43247l36.57934,102.75499l17.07104,2.79421l4.9186,-9.9017l-11.73097,-102.21154l62.80094,91.59669l-19.79808,87.83486l41.40248,80.18831l-23.90901,-5.1784l24.52673,38.6648l-67.54278,-25.9185l-30.06475,50.64582l-11.12739,-38.27862l-16.5965,11.69471l9.2548,-129.4061z" fill="#584941" stroke="#000000" stroke-width="2" stroke-linecap="round"/><path d="M227.19131,318.24437l-82.52748,-164.9801l26.51468,29.82357l-22.4653,-72.85492l41.80338,71.99543l2.75687,-41.93057l38.80195,162.07944z" fill="#584941" stroke="#000000" stroke-width="2" stroke-linecap="round"/><path d="M251.4018,194.01468l25.81032,0.60024l15.60624,150.06003l-72.02881,-0.60024l27.0108,-139.85595z" fill="#a3948c" stroke="#000000" stroke-width="2" stroke-linecap="round"/><g><path d="M195.67121,187.56591l111.64466,-6.0024l30.61225,64.82593l-22.20889,7.80312l-10.80432,-57.62305l-100.84034,-2.40096l-14.40576,61.22449l-21.60864,-5.40216l24.0096,-49.81993z" fill="#c8b8b2" stroke="#000000" stroke-width="2" stroke-linecap="round"/><g><path d="M318.76371,122.36811l-2.48387,81.96801h-124.81492l-0.62097,-85.69383z" fill="#c8b8b2" stroke="#000000" stroke-width="2" stroke-linecap="round"/><path d="M198.67986,150.3142c0,-0.04369 -4.23161,-7.74066 -4.23161,-7.74066l11.19055,4.53331c0,0 38.62676,1.76501 38.62676,2.05328c0,14.1019 -9.70075,31.59262 -23.80266,31.59262c-14.1019,0 -21.78303,-16.33665 -21.78303,-30.43855z" fill="#000000" stroke="none" stroke-width="0" stroke-linecap="butt"/><path d="M283.16723,179.59869c-14.1019,0 -23.80266,-17.49071 -23.80266,-31.59261c0,-0.28828 38.62676,-2.05328 38.62676,-2.05328l11.19055,-4.53331c0,0 -4.23162,7.69697 -4.23162,7.74066c0,14.1019 -7.68113,30.43855 -21.78303,30.43855z" data-paper-data="{&quot;index&quot;:null}" fill="#000000" stroke="none" stroke-width="0" stroke-linecap="butt"/><path d="M226.67536,140.37732c0,0 5.87742,-5.37467 9.21866,-6.59979c2.67424,-0.98055 9.27703,-0.18196 9.27703,-0.18196" fill="none" stroke="#000000" stroke-width="2" stroke-linecap="round"/><path d="M248.04815,131.12948c0,0 0.99253,1.70503 1.06619,2.44168c0.0609,0.60894 -0.65518,1.66848 -0.65518,1.66848" fill="none" stroke="#000000" stroke-width="2" stroke-linecap="round"/><path d="M275.25587,191.46277c0,0 -14.20722,8.2203 -20.96177,8.2203c-7.13103,0 -20.75627,-8.2203 -20.75627,-8.2203" fill="none" stroke="#000000" stroke-width="2" stroke-linecap="round"/></g></g></g></g></svg>