<svg version="1.1" xmlns="http://www.w3.org/2000/svg" xmlns:xlink="http://www.w3.org/1999/xlink" width="35.6492" height="35.40965" viewBox="0,0,35.6492,35.40965"><defs><linearGradient x1="239.67116" y1="163.71149" x2="239.67116" y2="180.81725" gradientUnits="userSpaceOnUse" id="color-1"><stop offset="0" stop-color="#0e0819"/><stop offset="1" stop-color="#472680"/></linearGradient><linearGradient x1="250.82294" y1="171.84161" x2="250.82294" y2="182.73765" gradientUnits="userSpaceOnUse" id="color-2"><stop offset="0" stop-color="#0e0819"/><stop offset="1" stop-color="#472680"/></linearGradient><linearGradient x1="227.73429" y1="172.06195" x2="227.73429" y2="182.6151" gradientUnits="userSpaceOnUse" id="color-3"><stop offset="0" stop-color="#0e0819"/><stop offset="1" stop-color="#472680"/></linearGradient><linearGradient x1="239.51859" y1="175.13132" x2="239.51859" y2="187.51247" gradientUnits="userSpaceOnUse" id="color-4"><stop offset="0" stop-color="#0f081a"/><stop offset="1" stop-color="#4a2680"/></linearGradient></defs><g transform="translate(-221.80036,-162.0397)"><g data-paper-data="{&quot;isPaintingLayer&quot;:true}" stroke-miterlimit="10" stroke-dasharray="" stroke-dashoffset="0" style="mix-blend-mode: normal"><path d="M257.44955,169.71889v20.49804c0,4.00745 -3.22497,7.23243 -7.23242,7.23243h-20.5c-3.66107,0 -6.66147,-2.69385 -7.1543,-6.21484c0.7952,3.03475 3.54108,5.26367 6.83204,5.26367h20.0332c3.9166,0 7.07032,-3.15372 7.07032,-7.07031v-20.03321c0,-3.2976 -2.23906,-6.0451 -5.28321,-6.83398c3.52994,0.48496 6.23438,3.49081 6.23438,7.15821z" fill-opacity="0.29839" fill="#000000" fill-rule="evenodd" stroke="none" stroke-width="4.54219" stroke-linecap="round" stroke-linejoin="round"/><path d="M229.27152,162.2897h20.03379c3.9166,0 7.06966,3.15307 7.06966,7.06966v20.03379c0,3.91659 -3.15306,7.06966 -7.06966,7.06966h-20.03379c-3.91659,0 -7.06966,-3.15307 -7.06966,-7.06966v-20.03379c0,-3.91659 3.15307,-7.06966 7.06966,-7.06966z" fill="#000000" fill-rule="evenodd" stroke="#452680" stroke-width="0.5" stroke-linecap="round" stroke-linejoin="round"/><path d="M239.6448,180.8171c-1.3192,-0.01459 -2.3768,-1.09583 -2.36222,-2.41502c0.01459,-1.3192 2.55133,-14.69059 2.55133,-14.69059c0,0 2.24051,13.4242 2.22592,14.7434c-0.01459,1.3192 -1.09583,2.3768 -2.41502,2.36221z" data-paper-data="{&quot;index&quot;:null}" fill="url(#color-1)" fill-rule="nonzero" stroke="#000000" stroke-width="0" stroke-linecap="butt" stroke-linejoin="miter"/><path d="M245.22428,181.98928c-0.7826,-0.90426 -0.68396,-2.27175 0.2203,-3.05435c0.90426,-0.7826 11.50507,-7.09332 11.50507,-7.09332c0,0 -7.76676,9.58538 -8.67104,10.36797c-0.90426,0.7826 -2.27176,0.68396 -3.05435,-0.2203z" data-paper-data="{&quot;index&quot;:null}" fill="url(#color-2)" fill-rule="nonzero" stroke="#000000" stroke-width="0" stroke-linecap="butt" stroke-linejoin="miter"/><path d="M230.19854,182.10366c-0.87582,-0.75796 -8.39817,-10.04171 -8.39817,-10.04171c0,0 10.26722,6.11212 11.14303,6.8701c0.87581,0.75797 0.97134,2.08242 0.21337,2.95823c-0.75796,0.87581 -2.08241,0.97134 -2.95822,0.21337z" data-paper-data="{&quot;index&quot;:null}" fill="url(#color-3)" fill-rule="nonzero" stroke="#000000" stroke-width="0" stroke-linecap="butt" stroke-linejoin="miter"/><path d="M226.32871,187.51247c0,-6.83792 5.90532,-12.38115 13.18989,-12.38115c7.28457,0 13.18989,5.54323 13.18989,12.38115" fill="url(#color-4)" fill-rule="nonzero" stroke="#000000" stroke-width="0" stroke-linecap="butt" stroke-linejoin="miter"/></g></g></svg>