<svg version="1.1" xmlns="http://www.w3.org/2000/svg" xmlns:xlink="http://www.w3.org/1999/xlink" width="302.75693" height="286.34071" viewBox="0,0,302.75693,286.34071"><defs><linearGradient x1="226.14482" y1="176.62704" x2="236.63709" y2="308.20939" gradientUnits="userSpaceOnUse" id="color-1"><stop offset="0" stop-color="#12201e"/><stop offset="1" stop-color="#345756"/></linearGradient><linearGradient x1="228.20783" y1="197.12842" x2="230.80947" y2="229.75522" gradientUnits="userSpaceOnUse" id="color-2"><stop offset="0" stop-color="#203535"/><stop offset="1" stop-color="#274746"/></linearGradient><linearGradient x1="226.42918" y1="185.56413" x2="228.26164" y2="208.54474" gradientUnits="userSpaceOnUse" id="color-3"><stop offset="0" stop-color="#203535"/><stop offset="1" stop-color="#274746"/></linearGradient><linearGradient x1="314.60339" y1="83.76319" x2="311.47434" y2="127.67002" gradientUnits="userSpaceOnUse" id="color-4"><stop offset="0" stop-color="#1d1c17"/><stop offset="1" stop-color="#616051"/></linearGradient><linearGradient x1="301.29718" y1="65.69403" x2="295.57944" y2="145.92571" gradientUnits="userSpaceOnUse" id="color-5"><stop offset="0" stop-color="#0e1411"/><stop offset="1" stop-color="#244343"/></linearGradient><radialGradient cx="215.13063" cy="172.03059" r="71.31655" gradientUnits="userSpaceOnUse" id="color-6"><stop offset="0" stop-color="#000000"/><stop offset="1" stop-color="#345756"/></radialGradient><linearGradient x1="223.9922" y1="78.06946" x2="215.41952" y2="198.36105" gradientUnits="userSpaceOnUse" id="color-7"><stop offset="0" stop-color="#0f1b1b"/><stop offset="1" stop-color="#345756"/></linearGradient><linearGradient x1="194.22492" y1="113.03905" x2="190.88665" y2="159.88157" gradientUnits="userSpaceOnUse" id="color-8"><stop offset="0" stop-color="#784752"/><stop offset="1" stop-color="#4c1e20"/></linearGradient><linearGradient x1="248.34604" y1="116.89602" x2="245.00777" y2="163.73853" gradientUnits="userSpaceOnUse" id="color-9"><stop offset="0" stop-color="#190505"/><stop offset="1" stop-color="#000000"/></linearGradient><linearGradient x1="218.76644" y1="83.54257" x2="216.49418" y2="115.42721" gradientUnits="userSpaceOnUse" id="color-10"><stop offset="0" stop-color="#141e20"/><stop offset="1" stop-color="#0e1717"/></linearGradient><linearGradient x1="266.64876" y1="59.5269" x2="265.47814" y2="75.95332" gradientUnits="userSpaceOnUse" id="color-11"><stop offset="0" stop-color="#3b5456"/><stop offset="1" stop-color="#253e3d"/></linearGradient><linearGradient x1="318.99478" y1="26.74091" x2="318.17805" y2="38.20121" gradientUnits="userSpaceOnUse" id="color-12"><stop offset="0" stop-color="#3b5456"/><stop offset="1" stop-color="#253e3d"/></linearGradient><linearGradient x1="260.79904" y1="70.22469" x2="260.15927" y2="79.20194" gradientUnits="userSpaceOnUse" id="color-13"><stop offset="0" stop-color="#3b5456"/><stop offset="1" stop-color="#253e3d"/></linearGradient><linearGradient x1="325.91846" y1="85.82791" x2="325.29232" y2="94.61414" gradientUnits="userSpaceOnUse" id="color-14"><stop offset="0" stop-color="#3b5456"/><stop offset="1" stop-color="#253e3d"/></linearGradient><linearGradient x1="290.97897" y1="34.91905" x2="285.50259" y2="111.76338" gradientUnits="userSpaceOnUse" id="color-15"><stop offset="0" stop-color="#404135"/><stop offset="1" stop-color="#1b1816"/></linearGradient><radialGradient cx="203.6966" cy="194.98933" r="2.15987" gradientUnits="userSpaceOnUse" id="color-16"><stop offset="0" stop-color="#000000"/><stop offset="1" stop-color="#350604"/></radialGradient><radialGradient cx="224.95675" cy="197.01882" r="4.21522" gradientUnits="userSpaceOnUse" id="color-17"><stop offset="0" stop-color="#000000"/><stop offset="1" stop-color="#350604"/></radialGradient><radialGradient cx="186.53585" cy="176.03845" r="16.49954" gradientUnits="userSpaceOnUse" id="color-18"><stop offset="0" stop-color="#000000"/><stop offset="1" stop-color="#350604"/></radialGradient><linearGradient x1="224.70342" y1="131.23269" x2="223.96653" y2="141.57254" gradientUnits="userSpaceOnUse" id="color-19"><stop offset="0" stop-color="#3b5456"/><stop offset="1" stop-color="#253e3d"/></linearGradient><linearGradient x1="253.37328" y1="107.65802" x2="247.3672" y2="164.38796" gradientUnits="userSpaceOnUse" id="color-20"><stop offset="0" stop-color="#1b1816"/><stop offset="1" stop-color="#404135"/></linearGradient><linearGradient x1="266.82908" y1="133.41125" x2="265.37945" y2="153.75233" gradientUnits="userSpaceOnUse" id="color-21"><stop offset="0" stop-color="#3b5456"/><stop offset="1" stop-color="#253e3d"/></linearGradient><linearGradient x1="257.46306" y1="136.70262" x2="256.29544" y2="153.08644" gradientUnits="userSpaceOnUse" id="color-22"><stop offset="0" stop-color="#3b5456"/><stop offset="1" stop-color="#253e3d"/></linearGradient><linearGradient x1="185.91458" y1="40.37606" x2="185.09786" y2="51.83635" gradientUnits="userSpaceOnUse" id="color-23"><stop offset="0" stop-color="#3b5456"/><stop offset="1" stop-color="#253e3d"/></linearGradient><linearGradient x1="176.17099" y1="55.87182" x2="291.47128" y2="64.08876" gradientUnits="userSpaceOnUse" id="color-24"><stop offset="0" stop-color="#213331"/><stop offset="1" stop-color="#172322"/></linearGradient><linearGradient x1="198.54048" y1="67.20532" x2="277.28813" y2="72.81734" gradientUnits="userSpaceOnUse" id="color-25"><stop offset="0" stop-color="#213331"/><stop offset="1" stop-color="#121b1b"/></linearGradient><linearGradient x1="174.42775" y1="46.17989" x2="170.36658" y2="103.16646" gradientUnits="userSpaceOnUse" id="color-26"><stop offset="0" stop-color="#404135"/><stop offset="1" stop-color="#1b1816"/></linearGradient></defs><g transform="translate(-31.44413,-27.2718)"><g data-paper-data="{&quot;isPaintingLayer&quot;:true}" fill-rule="nonzero" stroke-linejoin="miter" stroke-miterlimit="10" stroke-dasharray="" stroke-dashoffset="0" style="mix-blend-mode: normal"><path d="M178.409,313.61251v-267.22501h123.18203v267.22501z" fill-opacity="0.01" fill="#000000" stroke="none" stroke-width="0" stroke-linecap="butt"/><path d="M34.09197,64.80536l-2.64784,-3.53045" fill="none" stroke="none" stroke-width="0" stroke-linecap="round"/><g stroke="#000000" stroke-width="0"><path d="M203.49231,310.85231l4.61522,-132.6286l37.65115,-3.16066l24.02321,130.5034z" fill="url(#color-1)" stroke-linecap="butt"/><g stroke-linecap="round"><path d="M250.19546,195.37515l8.74241,27.28338l-28.83767,7.15325l-28.1883,-2.60604l3.08113,-22.23036z" fill="url(#color-2)"/><path d="M253.23989,183.42626l3.05964,16.88694l-28.46347,8.26548l-26.22493,-3.04811l-3.4687,-14.85572z" fill="url(#color-3)"/></g></g><g><path d="M316.07237,83.86788l9.65487,9.54683l2.99691,3.98674l-0.28932,13.26755l-4.88317,10.97153l-11.26123,6.08762l-11.10023,-7.68122l-3.98937,-13.08032l2.79619,-11.61243l5.08204,-6.85609z" fill="url(#color-4)" stroke="#000000" stroke-width="0" stroke-linecap="round"/><path d="M276.78145,56.01716c0,0 6.94232,9.05235 8.82295,6.08114c5.10977,-8.073 4.65034,-23.07056 4.65034,-23.07056l6.04407,-0.38967c0,0 -3.36499,26.53041 -6.64756,29.90215c-3.28257,3.37175 -15.99724,-3.17453 -15.99724,-3.17453z" fill="#101b1b" stroke="#000000" stroke-width="0" stroke-linecap="round"/><path d="M284.15776,91.33581c0,0 10.68429,48.68331 15.97794,45.00032c5.44279,-3.78676 16.24378,-67.41821 16.24378,-67.41821l7.10154,-1.64298c0,0 -13.55963,78.94333 -23.68895,78.94506c-8.92995,0.00152 -22.81203,-52.17213 -22.81203,-52.17213z" fill="url(#color-5)" stroke="#000000" stroke-width="0" stroke-linecap="round"/><path d="M277.55795,160.51269l8.53852,18.97741l-25.06427,-1.22101l14.64347,16.5865l-59.00701,-12.68313l-65.77257,2.94283l14.59827,-14.50256l-21.67017,-1.26174l13.57314,-19.94499z" fill="url(#color-6)" stroke="#000000" stroke-width="0" stroke-linecap="round"/><path d="M155.63135,133.64894c2.36727,-33.21761 32.97347,-58.10138 68.36085,-55.57949c35.38738,2.52191 62.15544,31.49451 59.78817,64.71211c-2.36727,33.21761 -32.97346,58.10139 -68.36084,55.57949c-35.38738,-2.52191 -62.15544,-31.49451 -59.78817,-64.7121z" fill="url(#color-7)" stroke="#000000" stroke-width="0" stroke-linecap="butt"/><path d="M169.13453,134.79118c0.92185,-12.9352 12.15519,-22.67397 25.09038,-21.75213c12.9352,0.92185 22.67397,12.15519 21.75213,25.09038c-0.92185,12.9352 -12.15519,22.67397 -25.09038,21.75213c-12.9352,-0.92185 -22.67397,-12.15519 -21.75213,-25.09038z" fill="url(#color-8)" stroke="#000000" stroke-width="0" stroke-linecap="butt"/><path d="M177.25062,120.29896c0.24933,-3.49862 2.71552,-3.75423 4.74517,-4.92432c3.2524,-1.87501 7.20372,-3.27379 12.81007,-2.87425c5.41596,0.38597 8.24117,2.27026 10.98942,4.36306c1.87193,1.42548 4.69028,2.09628 4.42738,5.78528c-0.64886,9.105 -8.55593,15.96001 -17.6609,15.31114c-9.10499,-0.64886 -15.96,-8.55592 -15.31112,-17.66091z" fill="#000000" stroke="none" stroke-width="0" stroke-linecap="butt"/><path d="M245.00777,163.73853c-12.9352,-0.92185 -22.67397,-12.15519 -21.75211,-25.09037c0.92185,-12.9352 12.15519,-22.67397 25.09037,-21.75211c12.9352,0.92185 22.67396,12.15518 21.75213,25.09038c-0.92185,12.9352 -12.15519,22.67397 -25.09038,21.75213z" data-paper-data="{&quot;index&quot;:null}" fill="url(#color-9)" stroke="#000000" stroke-width="0" stroke-linecap="butt"/><path d="M232.12199,86.05l-12.99657,29.56471l-2.50206,-21.6464l-12.33756,2.85434l7.51556,-13.77645" fill="url(#color-10)" stroke="#000000" stroke-width="0" stroke-linecap="round"/><path d="M261.93005,70.51713l-0.72492,-11.37818l8.9509,6.39714l-0.95329,10.68268z" fill="url(#color-11)" stroke="#000000" stroke-width="0" stroke-linecap="round"/><path d="M310.72884,37.67035l6.17891,-8.58249l9.53621,-1.81606l-6.32865,10.68352z" fill="url(#color-12)" stroke="#000000" stroke-width="0" stroke-linecap="round"/><path d="M269.56464,75.34886l-8.83234,3.89393l-8.60969,-5.79689l9.82248,-3.13951z" fill="url(#color-13)" stroke="#000000" stroke-width="0" stroke-linecap="round"/><path d="M328.00591,86.16865l6.19515,7.3526l-9.67275,1.03843l-7.39605,-9.35793z" fill="url(#color-14)" stroke="#000000" stroke-width="0" stroke-linecap="round"/><path d="M284.22694,86.25464l-13.19255,-10.22079l5.1629,-21.80245l3.75891,19.60252l18.56002,7.25197l12.96969,-8.35633l-0.90035,-16.30527l-11.54449,-15.25924l-9.4165,1.90688l4.9453,-7.897l15.79285,2.67226l14.64864,18.72794l-1.26125,17.69797l-6.92354,10.33398l-51.58685,25.71225l-10.04094,-7.41824l-3.75774,-12.38418z" fill="url(#color-15)" stroke="#000000" stroke-width="0" stroke-linecap="round"/><g stroke="#000000" stroke-width="0" stroke-linecap="round"><path d="M196.39854,186.6028c0,0 3.53412,-12.85452 20.46916,-11.07955c19.27698,2.02044 18.11515,16.96942 18.11515,16.96942c0,0 -5.00525,4.04318 -19.87663,2.99653c-20.77973,-1.4625 -18.70768,-8.88642 -18.70768,-8.88642z" fill="#000000"/><path d="M199.2412,188.4581c0,0 2.26445,1.82606 4.04082,2.42613c4.62048,1.56083 8.61859,2.08793 12.47595,2.40446c3.63144,0.298 7.11545,0.46413 11.58612,-0.58158c1.74158,-0.40737 5.75925,-1.67051 5.75925,-1.67051l0.00037,2.31383c0,0 -3.95932,1.16579 -5.85946,1.52825c-5.00921,0.95551 -9.05316,0.50812 -13.0957,0.146c-3.90992,-0.35025 -7.82237,-0.56768 -12.38616,-2.43803c-1.66043,-0.68048 -2.93211,-3.00091 -2.93211,-3.00091l0.41089,-1.12761z" fill="#9d9d9d"/></g><path d="M203.23668,193.28574c1.24811,-0.26921 2.51709,2.52779 2.01989,3.38269c-0.53334,0.91703 -2.38102,0.44313 -2.97277,-0.18285c-0.76131,-0.80532 -0.10828,-2.33321 -0.04491,-3.26422c0,0 0.03554,-0.49875 0.53429,-0.46318c0.46457,0.0331 0.46554,0.46814 0.4635,0.52758z" fill="url(#color-16)" stroke="none" stroke-width="0.5" stroke-linecap="butt"/><path d="M222.94652,196.25048l0.75942,-0.01998c1.05673,2.55842 2.43452,0.77297 3.27224,-0.80201l0.03374,-0.47351c0.01962,-0.27544 0.25883,-0.48282 0.53428,-0.46317c0.1991,0.01418 0.36263,0.14309 0.43059,0.31748l0.19324,0.46681l-0.02592,0.01073l0.04724,0.05228c0.19923,1.48905 1.71819,2.2189 0.41239,3.3137c-2.04327,0.19264 -3.7419,1.04629 -5.92927,0.89041c-0.66027,-0.04706 -1.96084,0.10509 -2.05127,-0.95897c-0.04468,-0.52561 1.27798,-1.66371 1.33274,-2.48566c0,0 0.03553,-0.49874 0.53428,-0.46317c0.49875,0.03554 0.46318,0.53428 0.46318,0.53428c-0.00196,0.02593 -0.00424,0.0529 -0.00688,0.08082z" fill="url(#color-17)" stroke="none" stroke-width="0.5" stroke-linecap="butt"/><path d="M190.39465,156.57089c1.6792,0.43598 2.47393,3.73294 1.18957,4.93881c-0.63248,0.59384 -1.74152,0.74822 -2.52227,1.05745c-0.62782,-0.03207 -1.25049,-0.07645 -1.87652,-0.13372l-0.477,-0.27089c-0.51307,0.09774 -1.11453,0.06249 -1.78422,-0.15656c-2.4723,-0.19867 -3.68192,-4.03831 -1.82623,-5.79624c1.31154,-1.24244 3.31728,-0.05694 4.11846,1.27748c0.84233,-0.73094 2.05129,-1.20894 3.17819,-0.91634z" fill="#350604" stroke="none" stroke-width="0.5" stroke-linecap="butt"/><path d="M187.73499,188.53958c-0.10584,-0.33516 -0.3477,-0.72854 -0.32489,-1.05237c0.13533,-1.92202 0.27394,-3.84382 0.41088,-5.76572c0.48455,-6.79927 1.37915,-13.54401 1.85976,-20.28796c0,0 0.07107,-0.99747 1.06853,-0.92638c0.99746,0.07109 0.92638,1.06853 0.92638,1.06853c-0.48061,6.74408 -1.37511,13.48745 -1.85975,20.28796c-0.16142,2.2648 -0.26661,4.54195 -0.48669,6.80185c-0.00835,0.08566 0.00359,0.29471 0.00634,0.54511c1.50161,0.73895 2.63552,1.77604 0.97952,3.28533c-1.08139,0.98558 -2.92187,-0.6982 -3.64397,-2.04079c-0.14891,-0.08257 -0.29399,-0.16666 -0.43311,-0.24811c-1.02349,0.21841 -2.7161,-0.5176 -3.85765,-1.56778c-0.71319,-0.65611 -0.43045,-3.92668 -0.65328,-5.16081c-0.76502,-4.35642 -0.82444,-8.17533 -0.49265,-12.62394c0.79399,-2.88526 1.45571,-6.14794 1.74216,-9.14554c-0.25257,-0.28974 0.00116,-0.61724 0.00116,-0.61724l0.05853,-0.07417c0.00499,-0.06498 0.00979,-0.12982 0.0144,-0.19447c0,0 0.03158,-0.44321 0.45301,-0.46424c1.96899,-2.7159 4.015,0.87527 3.22769,3.33171c-1.00307,2.99148 -1.50225,8.49607 -0.95454,11.61513c-0.16507,2.53524 -0.10922,5.34556 0.26314,7.84985c0.21028,1.41433 0.81139,2.72971 0.66455,4.16627c0.14563,0.3518 0.24997,0.66711 0.31766,0.94839c0.21426,0.08315 0.45616,0.17264 0.71267,0.26942z" fill="url(#color-18)" stroke="none" stroke-width="0.5" stroke-linecap="butt"/><g stroke="#000000" stroke-width="0" stroke-linecap="round"><path d="M234.48042,133.45859l-7.23408,8.3477l-13.02419,-2.91731l10.50184,-7.65479z" fill="url(#color-19)"/><path d="M244.96657,161.75182l-8.63028,-12.22807l-2.55205,-17.14249l12.84454,-20.07786l15.08712,-3.76215l7.71341,7.76404l-0.321,1.15701l-9.9696,-1.4525l-9.48443,16.46364l1.47817,16.03631l15.0602,6.56067c0,0 -3.6747,2.92526 -7.91326,6.17583c-2.50359,1.91999 -9.04737,3.33911 -9.04737,3.33911z" fill="url(#color-20)"/><path d="M261.18562,142.99658l8.41919,-9.38751l1.24016,13.05478l-9.38489,7.15898z" fill="url(#color-21)"/><path d="M261.72807,153.47362l-8.22515,-4.87434l-1.47248,-12.2838l9.33102,6.53311z" fill="url(#color-22)"/></g><path d="M178.49892,47.98951l9.05818,-10.21907l10.88914,0.73604l-6.21982,9.15646z" fill="url(#color-23)" stroke="#000000" stroke-width="0" stroke-linecap="round"/><path d="M292.98356,42.8686c0,0 -23.05381,15.68233 -47.5686,24.9899c-10.61577,4.03052 -21.51679,-1.9445 -30.30063,0.41709c-5.47797,1.47279 -10.99096,8.08287 -14.32678,9.0477c-10.52111,3.04305 -26.12881,-0.23131 -26.12881,-0.23131" fill="none" stroke="url(#color-24)" stroke-width="2.5" stroke-linecap="round"/><path d="M278.56438,54.90898c0,0 -6.03806,1.13881 -18.76259,6.72232c-2.67702,1.17467 -10.45143,8.38539 -14.09857,9.56384c-8.78822,2.83966 -19.72346,0.66591 -26.87478,3.51881c-4.21479,1.6814 -3.65449,3.90431 -9.97429,7.38328c-5.72762,3.15298 -11.58993,3.01644 -11.58993,3.01644" fill="none" stroke="url(#color-25)" stroke-width="2.5" stroke-linecap="round"/><path d="M145.11061,79.73357c0,0 -0.65986,-0.39489 -0.27379,-2.02908c0.73254,-3.10069 1.23935,-2.84678 1.23935,-2.84678l3.23597,0.84869l-0.64464,-2.51829l3.22136,1.05369l-0.46889,-2.09371l6.03229,-0.80627l-2.8557,-3.29395l18.63834,-4.23452l6.38103,-17.26371l2.74162,22.24046l-1.27329,3.41176l-11.63955,4.32122l29.46074,8.69246c0,0 0.98788,4.18671 -4.68858,13.28213c-2.06284,3.30531 -12.30752,5.49143 -12.30752,5.49143l-36.7988,-24.25551z" fill="url(#color-26)" stroke="#000000" stroke-width="0" stroke-linecap="round"/></g></g></g></svg>