<svg version="1.1" xmlns="http://www.w3.org/2000/svg" xmlns:xlink="http://www.w3.org/1999/xlink" width="149.76572" height="287.11436" viewBox="0,0,149.76572,287.11436"><defs><linearGradient x1="239.58978" y1="175.50005" x2="239.58978" y2="307.50002" gradientUnits="userSpaceOnUse" id="color-1"><stop offset="0" stop-color="#000000"/><stop offset="1" stop-color="#3900bf"/></linearGradient><linearGradient x1="240.00005" y1="76.54783" x2="240.00005" y2="197.1445" gradientUnits="userSpaceOnUse" id="color-2"><stop offset="0" stop-color="#000000"/><stop offset="1" stop-color="#3900bf"/></linearGradient><linearGradient x1="214.01528" y1="133.73323" x2="214.01528" y2="149.88897" gradientUnits="userSpaceOnUse" id="color-3"><stop offset="0" stop-color="#4d00ff"/><stop offset="1" stop-color="#4d00ff" stop-opacity="0"/></linearGradient><linearGradient x1="233.66649" y1="26.49816" x2="233.66649" y2="129.62926" gradientUnits="userSpaceOnUse" id="color-4"><stop offset="0" stop-color="#000000"/><stop offset="1" stop-color="#6122e0"/></linearGradient><linearGradient x1="233.66649" y1="26.49816" x2="233.66649" y2="129.62926" gradientUnits="userSpaceOnUse" id="color-5"><stop offset="0" stop-color="#000000"/><stop offset="1" stop-color="#6122e0"/></linearGradient><linearGradient x1="235.9338" y1="84.72027" x2="235.9338" y2="106.93201" gradientUnits="userSpaceOnUse" id="color-6"><stop offset="0" stop-color="#cdb3ff"/><stop offset="1" stop-color="#695a80"/></linearGradient><linearGradient x1="235.63017" y1="84.72027" x2="235.63017" y2="101.75327" gradientUnits="userSpaceOnUse" id="color-7"><stop offset="0" stop-color="#5500f7"/><stop offset="1" stop-color="#310078"/></linearGradient><linearGradient x1="243.84332" y1="88.3082" x2="243.84332" y2="96.48268" gradientUnits="userSpaceOnUse" id="color-8"><stop offset="0" stop-color="#808080"/><stop offset="1" stop-color="#ffffff"/></linearGradient></defs><g transform="translate(-160.02173,-26.49816)"><g data-paper-data="{&quot;isPaintingLayer&quot;:true}" fill-rule="nonzero" stroke-linejoin="miter" stroke-miterlimit="10" stroke-dasharray="" stroke-dashoffset="0" style="mix-blend-mode: normal"><path d="M178.87345,313.61253v-267.22501h46.76529c4.24647,5.47822 9.15791,6.75099 17.85251,4.81885c0.5148,-0.1144 1.00204,-0.24201 1.46509,-0.3815c-1.76925,4.27468 -3.46221,9.11315 -1.42225,12.93807c5.67609,10.64268 16.26497,10.56011 27.45735,9.09101c2.66459,-0.34975 4.79701,-2.19534 7.55446,-2.51856c6.25153,-0.73277 13.27201,-3.13303 18.08586,-7.39133c4.12575,-3.64962 3.67915,-12.41904 -0.29903,-16.55654h5.72275v267.22501z" fill-opacity="0.01" fill="#000000" stroke="none" stroke-width="0" stroke-linecap="butt"/><path d="M206.33978,307.50002l15.14285,-131.8421l37.78325,-0.15789l13.57389,132z" fill="url(#color-1)" stroke="#000000" stroke-width="0" stroke-linecap="butt"/><path d="M175.76303,136.84617c0,-33.30185 28.7599,-60.29833 64.23702,-60.29833c35.47712,0 64.23702,26.99649 64.23702,60.29833c0,33.30185 -28.7599,60.29833 -64.23702,60.29833c-35.47712,0 -64.23702,-26.99649 -64.23702,-60.29833z" fill="url(#color-2)" stroke="#000000" stroke-width="0" stroke-linecap="butt"/><path d="M188.97991,137.27565c0,-12.968 10.51265,-23.48065 23.48065,-23.48065c12.968,0 23.48065,10.51265 23.48065,23.48065c0,12.968 -10.51265,23.48065 -23.48065,23.48065c-12.968,0 -23.48065,-10.51265 -23.48065,-23.48065z" fill="#bcbcbc" stroke="#000000" stroke-width="0" stroke-linecap="butt"/><path d="M196.04528,137c0,-9.12808 7.39976,-16.52784 16.52783,-16.52784c9.12808,0 16.52784,7.39977 16.52784,16.52784c0,9.12808 -7.39977,16.52784 -16.52784,16.52784c-9.12808,0 -16.52783,-7.39977 -16.52783,-16.52784z" fill="#ffffff" stroke="none" stroke-width="0" stroke-linecap="butt"/><path d="M266.71898,160.75632c-12.968,0 -23.48065,-10.51265 -23.48065,-23.48065c0,-12.968 10.51265,-23.48065 23.48065,-23.48065c12.968,0 23.48065,10.51265 23.48065,23.48065c0,12.968 -10.51265,23.48065 -23.48065,23.48065z" data-paper-data="{&quot;index&quot;:null}" fill="#bcbcbc" stroke="#000000" stroke-width="0" stroke-linecap="butt"/><path d="M266.60642,153.52785c-9.12807,0 -16.52783,-7.39977 -16.52783,-16.52784c0,-9.12808 7.39977,-16.52784 16.52783,-16.52784c9.12807,0 16.52783,7.39977 16.52783,16.52784c0,9.12808 -7.39977,16.52784 -16.52783,16.52784z" data-paper-data="{&quot;index&quot;:null}" fill="#ffffff" stroke="none" stroke-width="0" stroke-linecap="butt"/><path d="M196.3055,113.0352c0,0 7.26665,-4.35048 12.45956,-4.9425c5.19292,-0.59202 12.16809,2.1348 12.16809,2.1348c0,0 -7.9761,-0.99845 -11.98642,-0.54125c-4.19094,0.4778 -12.64124,3.34894 -12.64124,3.34894z" fill="#000000" stroke="none" stroke-width="0" stroke-linecap="butt"/><path d="M267.32329,107.69967c-4.02693,-0.27482 -11.94952,1.08441 -11.94952,1.08441c0,0 6.8443,-3.04042 12.05873,-2.68457c5.21442,0.35585 12.67094,4.37222 12.67094,4.37222c0,0 -8.57184,-2.48487 -12.78014,-2.77207z" data-paper-data="{&quot;index&quot;:null}" fill="#000000" stroke="none" stroke-width="0" stroke-linecap="butt"/><path d="M218.96435,181.01877c0,0 5.90005,-7.67982 10.22825,-8.91373c3.88339,-1.1071 14.55151,1.84937 14.55151,1.84937" data-paper-data="{&quot;index&quot;:null}" fill="none" stroke="#000000" stroke-width="2" stroke-linecap="round"/><g><g stroke-width="0" stroke-linecap="butt"><path d="M190.11002,150.29271v-16.8901h4.16133v16.8901z" data-paper-data="{&quot;origPos&quot;:null}" fill="#d1d1d1" stroke="#000000"/><path d="M191.48403,134.87428c0,0.15308 -0.10638,0.27718 -0.23758,0.27718c-0.13121,0 -0.23758,-0.1241 -0.23758,-0.27718c0,-0.15308 0.10638,-0.27718 0.23758,-0.27718c0.13121,0 0.23758,0.12411 0.23758,0.27718z" data-paper-data="{&quot;origPos&quot;:null}" fill="#bcbcbc" stroke="none"/><path d="M193.38473,134.87428c0,0.15308 -0.10638,0.27719 -0.23758,0.27719c-0.13121,0 -0.2376,-0.1241 -0.2376,-0.27719c0,-0.15308 0.10638,-0.27718 0.2376,-0.27718c0.13121,0 0.23758,0.12409 0.23758,0.27718z" data-paper-data="{&quot;origPos&quot;:null}" fill="#bcbcbc" stroke="none"/><path d="M191.40485,149.20853c0,0.15308 -0.10638,0.27718 -0.23758,0.27718c-0.13121,0 -0.23758,-0.12411 -0.23758,-0.27718c0,-0.15309 0.10638,-0.27718 0.23758,-0.27718c0.13121,0 0.23758,0.12409 0.23758,0.27718z" data-paper-data="{&quot;origPos&quot;:null}" fill="#bcbcbc" stroke="none"/><path d="M193.46389,149.20853c0,0.15308 -0.10638,0.27718 -0.23758,0.27718c-0.13121,0 -0.23758,-0.12411 -0.23758,-0.27718c0,-0.15309 0.10638,-0.27718 0.23758,-0.27718c0.13121,0 0.23758,0.12409 0.23758,0.27718z" data-paper-data="{&quot;origPos&quot;:null}" fill="#bcbcbc" stroke="none"/></g><g stroke-width="0" stroke-linecap="butt"><path d="M174.99173,149.91949v-16.15575l-14.96998,-9.89532l15.14887,0.02235l14.31235,9.87296v16.15575z" fill="#282828" stroke="#000000"/><path d="M176.87649,146.45754v-9.23187h10.65985v9.23187z" fill="#000000" stroke="none"/><path d="M178.81463,146.49248v-4.40612h1.76962v4.40612z" data-paper-data="{&quot;origPos&quot;:null}" fill="#ff0000" stroke="none"/><path d="M180.48593,146.49248v-7.95548h1.76964v7.95548z" data-paper-data="{&quot;origPos&quot;:null}" fill="#21ff00" stroke="none"/><path d="M182.25559,146.49248v-3.0598h1.76962v3.0598z" data-paper-data="{&quot;origPos&quot;:null}" fill="#edff00" stroke="none"/><path d="M184.02521,146.49248v-6.36439h1.76962v6.36439z" data-paper-data="{&quot;origPos&quot;:null}" fill="#0017ff" stroke="none"/></g><g><path d="M194.62837,149.88897v-16.15575h18.04059l20.73322,7.53935l-20.73322,8.6164z" data-paper-data="{&quot;origPos&quot;:null}" fill="url(#color-3)" stroke="#000000" stroke-width="0" stroke-linecap="butt"/><path d="M201.90895,138.20054c0,1.45329 -1.15073,2.63144 -2.57023,2.63144c-1.4195,0 -2.57023,-1.17813 -2.57023,-2.63144c0,-1.45329 1.15073,-2.63142 2.57023,-2.63142c1.4195,0 2.57023,1.17813 2.57023,2.63142z" data-paper-data="{&quot;origPos&quot;:null}" fill="none" stroke="#4200d6" stroke-width="1" stroke-linecap="butt"/><path d="M202.76571,140.70964l-4.89569,-3.42699" data-paper-data="{&quot;origPos&quot;:null}" fill="none" stroke="#4200d6" stroke-width="1" stroke-linecap="round"/><path d="M213.53622,146.08462c0,1.21108 -0.95895,2.19285 -2.14186,2.19285c-1.18292,0 -2.14185,-0.98178 -2.14185,-2.19285c0,-1.21108 0.95894,-2.19285 2.14185,-2.19285c1.18292,0 2.14186,0.98177 2.14186,2.19285z" data-paper-data="{&quot;origPos&quot;:null}" fill="none" stroke="#4200d6" stroke-width="1" stroke-linecap="butt"/><path d="M208.15094,143.89174l3.30458,2.31321" data-paper-data="{&quot;origPos&quot;:null}" fill="none" stroke="#4200d6" stroke-width="1" stroke-linecap="round"/><path d="M226.02021,141.13798c0,0.84495 -0.68496,1.52991 -1.52989,1.52991c-0.84495,0 -1.52991,-0.68496 -1.52991,-1.52991c0,-0.84494 0.68496,-1.52989 1.52991,-1.52989c0.84495,0 1.52989,0.68496 1.52989,1.52989z" fill="none" stroke="#4200d6" stroke-width="1" stroke-linecap="butt"/><path d="M219.28864,141.07677l5.63004,0.12239" fill="none" stroke="#4200d6" stroke-width="1" stroke-linecap="round"/></g></g><path d="M180.09099,109.70837c-3.56634,-4.90613 -15.03283,-12.30773 -15.03283,-12.30773l12.54189,-15.01237l-17.57831,-14.38058l38.49612,-0.81149l10.68733,-11.41797l-23.18148,-29.28006l35.64586,12.69731c0.16297,0.72968 0.41104,1.43753 0.77174,2.11385c5.16787,9.68976 10.11926,12.32608 21.04994,9.89704c0.5148,-0.1144 1.00204,-0.24201 1.46509,-0.3815c-1.76925,4.27468 -3.46221,9.11315 -1.42225,12.93807c5.67609,10.64268 16.26497,10.56011 27.45735,9.09101c2.66459,-0.34975 4.79701,-2.19534 7.55446,-2.51856c4.98741,-0.5846 10.46423,-2.2305 14.91956,-5.03446c7.60303,7.04874 14.41163,15.99361 12.04116,24.0677c-0.03147,4.81722 4.12225,35.17822 -0.06948,38.50469c-10.14431,8.05031 -8.15598,-14.10218 -10.77834,-15.67335c-0.87411,-0.52372 -7.4446,-13.83529 -8.52153,-13.89679c-9.89032,-0.56462 -15.02633,-5.41531 -30.11079,-4.23865c-27.52856,2.14738 -29.31255,10.70833 -44.31862,8.39385c-5.67499,-0.87528 -28.59817,11.55211 -31.60832,7.41114z" data-paper-data="{&quot;index&quot;:null}" fill="url(#color-4)" stroke="#000000" stroke-width="0" stroke-linecap="butt"/><path d="" data-paper-data="{&quot;index&quot;:null}" fill="url(#color-5)" stroke="#000000" stroke-width="0" stroke-linecap="butt"/><g stroke="#000000" stroke-width="0" stroke-linecap="butt"><g><path d="M171.76858,106.93201l-9.68841,-10.42631l3.39269,-4.56429l142.74613,-7.22113l1.56847,14.09317z" data-paper-data="{&quot;origPos&quot;:null}" fill="url(#color-6)"/><path d="M167.26699,101.75327l-5.18469,-5.3026l3.52654,-4.51615l142.61009,-7.21424l0.95912,9.24853z" data-paper-data="{&quot;origPos&quot;:null}" fill="url(#color-7)"/></g><path d="M250.47311,92.02266c0.11883,2.24776 -2.75306,4.23683 -6.41462,4.44272c-3.66154,0.20589 -6.72611,-1.44938 -6.84494,-3.69714c-0.11883,-2.24776 2.75306,-4.23684 6.41462,-4.44273c3.66155,-0.20589 6.72611,1.44939 6.84495,3.69715z" data-paper-data="{&quot;origPos&quot;:null}" fill="url(#color-8)"/><text transform="translate(240.43532,93.27156) rotate(-3.22042) scale(0.06186,0.05695) skewX(-0.1802)" font-size="40" xml:space="preserve" fill="#ff0000" fill-rule="nonzero" stroke="#000000" stroke-width="0" stroke-linecap="butt" stroke-linejoin="miter" stroke-miterlimit="10" stroke-dasharray="" stroke-dashoffset="0" font-family="Sans Serif" font-weight="normal" text-anchor="start" style="mix-blend-mode: normal"><tspan x="0" dy="0">RUN </tspan><tspan x="0" dy="48px"> </tspan></text></g><path d="M240.19996,61.8973l0.22643,0.11321l-0.6683,1.3366c-0.20043,0.42281 -0.63114,0.7152 -1.13014,0.7152c-0.69036,0 -1.25,-0.55964 -1.25,-1.25v-1.70103c0,-1.71166 0.22177,-3.59458 0.00937,-5.29057c-0.07873,-0.62864 0.27422,-1.47944 -0.20904,-1.88912c-0.16479,-0.1397 -0.37749,0.23571 -0.59156,0.26474c-0.94944,0.12874 -1.92571,0.12499 -2.87438,-0.00937c-0.8574,-0.12143 -5.62878,-1.76965 -6.19523,-2.41927c-0.30131,-0.34554 -0.40231,-0.79986 -0.47441,-1.26987c-0.15768,-0.0296 -0.31155,-0.07397 -0.46011,-0.13892c-3.55331,-1.55345 -6.14313,-7.48152 -6.21494,-11.02083c0,0 0,-1.25 1.25,-1.25c1.25,0 1.25,1.25 1.25,1.25c-0.07449,2.3917 2.19519,7.69193 4.67165,8.71113c0.00732,0.00301 0.01465,0.00598 0.022,0.00891c0.08228,-0.03248 0.17366,-0.05949 0.27512,-0.07978c0.50763,-0.10153 0.84708,0.04923 1.07058,0.26072c0.69792,-0.01251 1.41277,-0.0917 2.04776,0.156c0.55414,0.21617 1.73058,1.47219 2.51709,1.63368c2.68271,0.55081 6.14925,-0.03344 8.89838,-0.03344c0.71003,0.08825 1.59422,-0.20935 2.13009,0.26474c1.56823,1.38743 0.64724,2.44338 0.47137,3.85964c-0.28972,2.33299 -1.26793,4.37064 -1.02062,6.83887c0.08647,0.86299 0.83963,1.51845 1.22741,2.29425c0.40313,0.8065 0.66178,2.64958 1.44312,3.40525c1.894,1.83178 5.21419,3.07246 7.80857,3.07858l0.13562,0.08722l0.01482,-0.05927l1.33546,0.33386c0.47517,0.10783 0.84752,0.48637 0.94635,0.9649c0.57234,0.10459 1.13027,0.27408 1.59098,0.44259c4.69767,1.71829 9.23796,-0.93495 13.95877,-1.37748c0.32431,-0.2232 0.65049,-0.42954 1.00181,-0.40931c0.78989,-0.4851 1.81378,-0.76863 2.68968,-0.97906c1.75635,-0.42196 3.78805,0.18131 5.57776,-0.02407c1.87509,-0.21518 3.43012,-1.68006 5.16235,-2.31317c0.88042,-0.32178 3.43305,0.01234 4.09762,-0.50144c1.28208,-0.99118 -1.42757,-3.34493 2.57203,-2.97322c2.80097,0.26031 1.69951,4.54113 1.35662,5.86464c-0.75385,0.68952 -1.25135,1.91614 -2.26155,2.06856c-0.64929,0.09797 -0.70105,-1.14708 -1.22532,-1.54246c-0.51632,-0.38938 -1.30931,0.14275 -1.89448,0.41803c-1.91099,0.89897 -3.60963,1.60937 -5.66632,2.11667c-1.57844,0.38934 -4.18038,-0.01077 -5.59234,0.6187c-0.94945,0.42328 -1.56215,1.51861 -2.57261,1.76274c-3.30356,0.79817 -7.43166,0.37364 -10.83358,0.37364c-1.55373,-0.03675 -2.72949,0.50433 -3.85433,0.91846c-0.03055,1.98956 -0.58398,3.41476 -1.35959,4.92252v1.07397c0,0.69036 -0.55964,1.25 -1.25,1.25c-0.69036,0 -1.25,-0.55964 -1.25,-1.25v-1.36082c0,-2.04989 -0.35535,-3.24268 -0.9817,-4.57242l-0.01301,0.01301l-1.36082,-1.36082l0.45643,-0.45643c-0.03289,-0.06348 -0.06615,-0.1278 -0.09976,-0.19304c-0.67049,0.01751 -1.34321,0.02787 -1.46101,-0.03847c-0.08415,-0.04738 -0.16568,-0.09829 -0.24497,-0.15225l-0.02686,0.05372l-1.3366,-0.6683c-0.36616,-0.17358 -0.63451,-0.51986 -0.69985,-0.93364c-2.39183,-0.58221 -4.90668,-1.81667 -6.41879,-3.36183c-1.05502,-1.07808 -1.2842,-2.73019 -1.95894,-4.07929c-0.51972,-1.03914 -1.33131,-1.99867 -1.49424,-3.14905c-0.07318,-0.51673 -0.08981,-1.0035 -0.06547,-1.47124c-0.38622,0.81457 -0.75148,1.46812 -1.20435,2.10452zM240.03081,56.1114c0.08173,-0.47428 0.13885,-0.94957 0.21305,-1.4241l-0.33803,-0.06394c0.06921,0.47416 0.10752,0.97679 0.12498,1.48805zM292.64416,67.49414c0.00266,-0.01984 0.00548,-0.04074 0.00845,-0.06261c-0.01478,0.00841 -0.02962,0.01678 -0.04453,0.02511c0.01278,0.01252 0.02479,0.02503 0.03608,0.0375z" fill="#420000" stroke="none" stroke-width="0.5" stroke-linecap="butt"/><path d="M256.42949,84.92572c0,-0.69036 0.55964,-1.25 1.25,-1.25c0.69036,0 1.25,0.55964 1.25,1.25c0,0.69036 -0.55964,1.25 -1.25,1.25c-0.69036,0 -1.25,-0.55964 -1.25,-1.25z" fill="#420000" stroke="none" stroke-width="0.5" stroke-linecap="butt"/><path d="M236.69753,66.55459c0,-0.69036 0.55964,-1.25 1.25,-1.25c0.69036,0 1.25,0.55964 1.25,1.25c0,0.69036 -0.55964,1.25 -1.25,1.25c-0.69036,0 -1.25,-0.55964 -1.25,-1.25z" fill="#420000" stroke="none" stroke-width="0.5" stroke-linecap="butt"/><text transform="translate(296.95761,49.17079) scale(0.5,0.5)" font-size="40" xml:space="preserve" fill="#ff0000" fill-rule="nonzero" stroke="none" stroke-width="1" stroke-linecap="butt" stroke-linejoin="miter" stroke-miterlimit="10" stroke-dasharray="" stroke-dashoffset="0" font-family="Sans Serif" font-weight="normal" text-anchor="start" style="mix-blend-mode: normal"><tspan x="0" dy="0"> </tspan></text></g></g></svg>