<svg version="1.1" xmlns="http://www.w3.org/2000/svg" xmlns:xlink="http://www.w3.org/1999/xlink" width="35.62838" height="35.60052" viewBox="0,0,35.62838,35.60052"><g transform="translate(-222.1635,-162.1635)"><g data-paper-data="{&quot;isPaintingLayer&quot;:true}" stroke-miterlimit="10" stroke-dasharray="" stroke-dashoffset="0" style="mix-blend-mode: normal"><path d="M257.79187,170.03355v20.49804c0,4.00745 -3.22497,7.23243 -7.23242,7.23243h-20.5c-3.66107,0 -6.66147,-2.69385 -7.1543,-6.21484c0.7952,3.03475 3.54108,5.26367 6.83204,5.26367h20.0332c3.9166,0 7.07032,-3.15372 7.07032,-7.07031v-20.03321c0,-3.2976 -2.23906,-6.0451 -5.28321,-6.83398c3.52994,0.48496 6.23438,3.49081 6.23438,7.15821z" fill-opacity="0.29839" fill="#000000" fill-rule="evenodd" stroke="none" stroke-width="4.54219" stroke-linecap="round" stroke-linejoin="round"/><path d="M229.48317,162.4135h20.03378c3.9166,0 7.06966,3.15307 7.06966,7.06966v20.03379c0,3.91659 -3.15306,7.06966 -7.06966,7.06966h-20.03378c-3.91659,0 -7.06967,-3.15307 -7.06967,-7.06966v-20.03379c0,-3.91659 3.15308,-7.06966 7.06967,-7.06966z" fill="#000000" fill-rule="evenodd" stroke="#808080" stroke-width="0.5" stroke-linecap="round" stroke-linejoin="round"/><g fill="#ffffff" fill-rule="nonzero" stroke="none" stroke-width="0" stroke-linecap="butt" stroke-linejoin="miter"><path d="M250.33111,178.59759c0,0 -4.97966,1.63603 -11.30983,0.07003c-6.16126,-1.52421 -10.35228,-5.24971 -10.35228,-5.24971c0,0 2.66441,0.28589 11.10018,2.38755c6.86049,1.7092 10.56193,2.79214 10.56193,2.79214z"/><path d="M246.12427,184.00974c0,0 -2.36069,2.64243 -8.69085,1.07643c-6.49908,-1.60779 -7.18656,-5.0043 -7.18656,-5.0043c0,0 2.82891,1.77531 7.72554,2.98668c5.16589,1.27797 8.15189,0.9412 8.15189,0.9412z"/></g></g></g></svg>