<svg version="1.1" xmlns="http://www.w3.org/2000/svg" xmlns:xlink="http://www.w3.org/1999/xlink" width="182.59718" height="267.22501" viewBox="0,0,182.59718,267.22501"><defs><linearGradient x1="239.12534" y1="204.50006" x2="239.12534" y2="307.50003" gradientUnits="userSpaceOnUse" id="color-1"><stop offset="0" stop-color="#bd1990"/><stop offset="1" stop-color="#5bd8de"/></linearGradient><radialGradient cx="235.48351" cy="242.80324" r="20.58333" gradientUnits="userSpaceOnUse" id="color-2"><stop offset="0" stop-color="#b5ffbf"/><stop offset="1" stop-color="#69ff83"/></radialGradient><radialGradient cx="212.1087" cy="137.00016" r="16.52784" gradientUnits="userSpaceOnUse" id="color-3"><stop offset="0" stop-color="#00fff3"/><stop offset="1" stop-color="#005f69"/></radialGradient><radialGradient cx="266.14198" cy="137.00016" r="16.52784" gradientUnits="userSpaceOnUse" id="color-4"><stop offset="0" stop-color="#00feff"/><stop offset="1" stop-color="#005f69"/></radialGradient><linearGradient x1="224.08711" y1="226.33262" x2="224.08711" y2="277.15585" gradientUnits="userSpaceOnUse" id="color-5"><stop offset="0" stop-color="#00848c"/><stop offset="1" stop-color="#83008c"/></linearGradient><linearGradient x1="224.08711" y1="226.33262" x2="224.08711" y2="277.15585" gradientUnits="userSpaceOnUse" id="color-6"><stop offset="0" stop-color="#00848c"/><stop offset="1" stop-color="#83008c"/></linearGradient><linearGradient x1="253.94014" y1="226.33262" x2="253.94014" y2="277.15585" gradientUnits="userSpaceOnUse" id="color-7"><stop offset="0" stop-color="#00848c"/><stop offset="1" stop-color="#83008c"/></linearGradient><linearGradient x1="253.94014" y1="226.33262" x2="253.94014" y2="277.15585" gradientUnits="userSpaceOnUse" id="color-8"><stop offset="0" stop-color="#00848c"/><stop offset="1" stop-color="#83008c"/></linearGradient></defs><g transform="translate(-148.81482,-46.38752)"><g data-paper-data="{&quot;isPaintingLayer&quot;:true}" stroke-linecap="butt" stroke-linejoin="miter" stroke-miterlimit="10" stroke-dasharray="" stroke-dashoffset="0" style="mix-blend-mode: normal"><path d="M178.40907,313.61253v-267.22501h123.18203v267.22501z" fill-opacity="0.01" fill="#000000" fill-rule="nonzero" stroke="none" stroke-width="0"/><path d="M213.9056,250.83914c0,-14.41157 11.68289,-26.09447 26.09448,-26.09447c14.41158,0 26.09446,11.68289 26.09446,26.09447c0,14.41157 -11.68289,26.09447 -26.09446,26.09447c-14.41157,0 -26.09448,-11.68288 -26.09448,-26.09447z" fill="#006e0f" fill-rule="nonzero" stroke="none" stroke-width="0"/><path d="M205.87534,307.50003c0,0 9.0587,-69.99129 11.14213,-85.14132c0.67237,-4.88929 -14.99928,-19.36744 -14.99928,-19.36744l75.28325,0.50878c0,0 -16.23075,14.72701 -15.49222,20.54539c2.04548,16.11489 10.56611,83.45461 10.56611,83.45461zM239.75026,276.00003c13.80712,0 25,-11.19288 25,-25c0,-13.80712 -11.19288,-25 -25,-25c-13.80712,0 -25,11.19288 -25,25c0,13.80712 11.19288,25 25,25z" fill="url(#color-1)" fill-rule="nonzero" stroke="#000000" stroke-width="2"/><path d="M219.41671,250.83914c0,-11.36786 9.21547,-20.58333 20.58334,-20.58333c11.36786,0 20.58333,9.21547 20.58333,20.58333c0,11.36786 -9.21547,20.58334 -20.58333,20.58334c-11.36786,0 -20.58334,-9.21547 -20.58334,-20.58334z" fill="url(#color-2)" fill-rule="nonzero" stroke="none" stroke-width="0"/><path d="M230.46515,198.6948c0,0 0,-2.57967 0,-3.86222c0,-1.27293 0,-3.80445 0,-3.80445h19.66667v7.66667z" fill="#7a513b" fill-rule="nonzero" stroke="#000000" stroke-width="1.5"/><path d="M169.00866,148.35978c0,-38.54209 31.83474,-69.88018 71.10463,-69.99539c39.27045,-0.11521 71.10491,31.03624 71.10491,69.57834l-47.97785,0.1407c-0.22479,-1.41753 -0.53906,-2.86252 -0.68903,-4.39274c-1.05867,-10.80244 -13.12779,-18.56187 -22.92177,-18.378c-9.25328,0.17372 -22.55169,9.68347 -22.0068,20.603c0.01816,0.36383 0.1646,0.67837 0.36841,0.97251c0.00185,0.01463 0.00372,0.02926 0.00563,0.04388c-0.09198,0.42036 -0.16379,0.84899 -0.21427,1.28467z" fill="#fd1717" fill-rule="evenodd" stroke="#000000" stroke-width="0"/><path d="M177.99072,148.33909c0,-34.09532 27.8843,-61.78938 62.28135,-61.85627c34.39718,-0.06719 62.28134,27.51828 62.28134,61.61361l-39.29897,0.07661c-0.22555,-1.44625 -0.55,-2.91988 -0.70313,-4.48236c-1.05867,-10.80244 -13.12779,-18.56187 -22.92177,-18.378c-9.25328,0.17372 -22.55169,9.68347 -22.0068,20.603c0.01816,0.36383 0.1646,0.67837 0.36841,0.97251c0.00185,0.01463 0.00372,0.02926 0.00563,0.04388c-0.09514,0.43479 -0.1687,0.87843 -0.21939,1.32957z" fill="#ff7f00" fill-rule="evenodd" stroke="#000000" stroke-width="0"/><path d="M185.85821,148.30525c0,-30.19081 24.42408,-54.6888 54.55298,-54.71825c30.1289,-0.02899 54.55284,24.42221 54.55284,54.61301l-31.70066,0.03054c-0.22584,-1.4647 -0.55689,-2.95668 -0.71204,-4.53988c-1.05867,-10.80244 -13.12778,-18.56187 -22.92177,-18.378c-9.25328,0.17372 -22.55169,9.68347 -22.0068,20.603c0.01816,0.36383 0.1646,0.67837 0.36841,0.97251c0.00185,0.01463 0.00372,0.02926 0.00563,0.04388c-0.09604,0.4389 -0.17008,0.88683 -0.22083,1.34238z" fill="#fed000" fill-rule="evenodd" stroke="#000000" stroke-width="0"/><path d="M193.5328,148.11757c0,-25.48705 21.05994,-46.14849 47.03843,-46.14849c25.97892,0 47.03887,20.66144 47.03887,46.14849h-24.36436c-0.22512,-1.42847 -0.54327,-2.88439 -0.69443,-4.4269c-1.05867,-10.80244 -13.12779,-18.56187 -22.92177,-18.378c-9.25328,0.17372 -22.55169,9.68347 -22.0068,20.603c0.01816,0.36383 0.1646,0.67837 0.36841,0.97251c0.00185,0.01463 0.00372,0.02926 0.00563,0.04388c-0.08499,0.38843 -0.15277,0.78392 -0.2024,1.18552z" fill="#62bd00" fill-rule="evenodd" stroke="#000000" stroke-width="0"/><path d="M201.99577,148.09357c0,-21.23644 17.25484,-38.45163 38.53923,-38.45163c21.28481,0 38.53923,17.21519 38.53923,38.45163h-15.83229c-0.22489,-1.42078 -0.54031,-2.86902 -0.69063,-4.40289c-1.05867,-10.80244 -13.12779,-18.56187 -22.92177,-18.378c-9.25328,0.17372 -22.55169,9.68347 -22.0068,20.603c0.01816,0.36383 0.1646,0.67837 0.36841,0.97251c0.00185,0.01463 0.00372,0.02926 0.00563,0.04388c-0.08329,0.38069 -0.15006,0.76816 -0.19941,1.16151z" fill="#0088eb" fill-rule="evenodd" stroke="#000000" stroke-width="0"/><path d="M210.01592,148.18963c0,-16.98175 13.66386,-30.7486 30.51906,-30.7486c16.8552,0 30.51906,13.76684 30.51906,30.7486h-7.62958c0,-12.73642 -10.24793,-23.06111 -22.88947,-23.06111c-7.23941,0 -13.69386,3.38603 -17.88819,8.67197c-3.16747,3.44603 -5.2462,7.66347 -5.02407,12.11522c0.00802,0.16069 0.04107,0.31177 0.09303,0.45573c-0.04645,0.59992 -0.0701,1.20627 -0.0701,1.8182z" fill="#801096" fill-rule="evenodd" stroke="#000000" stroke-width="0"/><g fill="#ffffff" fill-rule="nonzero" stroke="none" stroke-width="0"><path d="M321.40074,147.46526c0,6.18731 -11.31225,11.20312 -25.26661,11.20312c-13.95436,0 -25.26661,-5.01581 -25.26661,-11.20312c0,-6.18731 11.31225,-11.20312 25.26662,-11.20312c13.95436,0 25.26661,5.01581 25.26661,11.20312z"/><path d="M290.41337,152.59008c0,2.83037 -5.92292,5.12483 -13.22921,5.12483c-7.30629,0 -13.22922,-2.29446 -13.22922,-5.12483c0,-2.83037 5.92293,-5.12483 13.22922,-5.12483c7.30629,0 13.22921,2.29447 13.22921,5.12483z"/><path d="M318.42116,150.32565c6.51642,0 11.79903,1.92095 11.79903,4.29056c0,2.36961 -5.28261,4.29056 -11.79903,4.29056c-6.51642,0 -11.79903,-1.92095 -11.79903,-4.29056c0,-2.36961 5.28261,-4.29056 11.79903,-4.29056z"/><path d="M296.1341,160.57529c-19.48345,0 -35.27791,-1.1739 -35.27791,-2.62199c0,-1.44809 15.79446,-2.62202 35.27791,-2.62202c19.48345,0 35.2779,1.17392 35.2779,2.62202c0,1.44809 -15.79444,2.62199 -35.27789,2.62199z"/></g><g fill="#ffffff" fill-rule="nonzero" stroke="none" stroke-width="0"><path d="M209.35931,148.92915c0,6.18731 -11.31224,11.20312 -25.2666,11.20312c-13.95436,0 -25.26661,-5.01581 -25.26661,-11.20312c0,-6.18731 11.31225,-11.20312 25.26661,-11.20312c13.95436,0 25.26661,5.01581 25.26661,11.20312z"/><path d="M178.37199,154.05397c0,2.83037 -5.92292,5.12482 -13.22922,5.12482c-7.3063,0 -13.22921,-2.29446 -13.22921,-5.12482c0,-2.83037 5.92292,-5.12483 13.22921,-5.12483c7.3063,0 13.22922,2.29447 13.22922,5.12483z"/><path d="M206.37978,151.78949c6.51642,0 11.79903,1.92094 11.79903,4.29055c0,2.36961 -5.2826,4.29056 -11.79902,4.29056c-6.51642,0 -11.79903,-1.92095 -11.79903,-4.29056c0,-2.36961 5.28261,-4.29055 11.79903,-4.29055z"/><path d="M184.09273,162.03913c-19.48345,0 -35.27791,-1.1739 -35.27791,-2.622c0,-1.4481 15.79446,-2.62201 35.27791,-2.62201c19.48345,0 35.2779,1.17391 35.2779,2.62201c0,1.44809 -15.79445,2.622 -35.2779,2.622z"/></g><path d="M175.76305,166.94968c0,-14.03446 28.7599,-25.41163 64.23702,-25.41163c35.47712,0 64.23702,11.37718 64.23702,25.41163c0,14.03446 -28.7599,25.41163 -64.23702,25.41163c-35.47712,0 -64.23702,-11.37718 -64.23702,-25.41163z" fill="#00ff1a" fill-rule="nonzero" stroke="#000000" stroke-width="2"/><path d="M260.5064,207.00032c0,3.31371 -9.21547,6 -20.58334,6c-11.36786,0 -20.58333,-2.68629 -20.58333,-6c0,-3.31371 9.21547,-6 20.58333,-6c11.36786,0 20.58334,2.68629 20.58334,6z" fill="#750072" fill-rule="nonzero" stroke="#000000" stroke-width="1.5"/><path d="M176.48611,166.97233c0,-0.3068 5.20666,23.56621 63.36046,23.99392c55.56352,0.40866 63.51358,-24.42329 63.51358,-23.99392c0,13.82498 -28.40173,25.03234 -63.43702,25.03234c-35.03529,0 -63.43702,-11.20736 -63.43702,-25.03234z" fill="#00bb14" fill-rule="nonzero" stroke="#000000" stroke-width="0"/><path d="M284.39921,161.89305c-4.75591,4.11382 -10.81942,-0.30719 -18.28107,-0.30719c-6.3863,0 -16.90344,4.43253 -21.43889,0.72305c-3.54945,-2.90304 -3.68759,-5.5944 -3.7897,-11.11139c-0.06185,-3.34176 -3.19921,-8.40849 -3.19921,-11.35662c0,-14.03446 13.01622,-23.74497 27.42781,-23.74497c10.15037,0 27.53012,7.56734 28.96368,21.14801c0.80309,6.50666 -5.53588,11.81375 -5.53588,12.59696c0,6.76807 0.28301,8.22045 -4.14673,12.05214z" data-paper-data="{&quot;index&quot;:null}" fill="#f6f6f6" fill-rule="nonzero" stroke="#000000" stroke-width="1.5"/><path d="M188.76889,149.95684c0,-0.78321 -6.33897,-6.09029 -5.53588,-12.59695c1.43356,-13.58067 18.81332,-21.14801 28.96368,-21.14801c14.41158,0 27.42781,9.7105 27.42781,23.74496c0,2.94813 -3.13736,8.01487 -3.19921,11.35662c-0.10211,5.51699 -0.24025,8.20834 -3.7897,11.11139c-4.53545,3.70948 -15.05259,-0.72305 -21.43889,-0.72305c-7.46165,0 -13.52516,4.421 -18.28107,0.30718c-4.42974,-3.83169 -4.14674,-5.28408 -4.14674,-12.05214z" fill="#f6f6f6" fill-rule="nonzero" stroke="#000000" stroke-width="1.5"/><path d="M188.51548,137.27584c0,-12.968 10.51265,-23.48065 23.48065,-23.48065c12.968,0 23.48065,10.51265 23.48065,23.48065c0,12.968 -10.51265,23.48065 -23.48065,23.48065c-12.968,0 -23.48065,-10.51265 -23.48065,-23.48065z" fill="#ffffff" fill-rule="nonzero" stroke="#000000" stroke-width="2"/><path d="M195.58089,137.00009c0,-9.12808 7.39976,-16.52784 16.52783,-16.52784c9.12808,0 16.52784,7.39977 16.52784,16.52784c0,9.12808 -7.39977,16.52784 -16.52784,16.52784c-9.12808,0 -16.52783,-7.39977 -16.52783,-16.52784z" fill="url(#color-3)" fill-rule="nonzero" stroke="none" stroke-width="0"/><path d="M266.25453,160.75641c-12.968,0 -23.48065,-10.51265 -23.48065,-23.48065c0,-12.968 10.51265,-23.48065 23.48065,-23.48065c12.968,0 23.48065,10.51265 23.48065,23.48065c0,12.968 -10.51265,23.48065 -23.48065,23.48065z" data-paper-data="{&quot;index&quot;:null}" fill="#ffffff" fill-rule="nonzero" stroke="#000000" stroke-width="2"/><path d="M266.14198,153.52794c-9.12807,0 -16.52783,-7.39977 -16.52783,-16.52784c0,-9.12808 7.39977,-16.52784 16.52783,-16.52784c9.12807,0 16.52783,7.39977 16.52783,16.52784c0,9.12808 -7.39977,16.52784 -16.52783,16.52784z" data-paper-data="{&quot;index&quot;:null}" fill="url(#color-4)" fill-rule="nonzero" stroke="none" stroke-width="0"/><path d="M201.15318,108.46741c0,0 6.70895,-5.16922 11.79721,-6.36355c5.08827,-1.19433 12.33413,0.69937 12.33413,0.69937c0,0 -8.03812,-0.06028 -11.96762,0.86207c-4.10648,0.96389 -12.16372,4.80211 -12.16372,4.80211z" fill="#d1fffd" fill-rule="nonzero" stroke="#000000" stroke-width="0.5"/><path d="M265.08763,103.6653c-3.9295,-0.92235 -11.96762,-0.86207 -11.96762,-0.86207c0,0 7.24586,-1.8937 12.33413,-0.69937c5.08826,1.19433 11.79721,6.36355 11.79721,6.36355c0,0 -8.05724,-3.83822 -12.16372,-4.80211z" data-paper-data="{&quot;index&quot;:null}" fill="#d1fffd" fill-rule="nonzero" stroke="#000000" stroke-width="0.5"/><path d="M230.46515,208.33359v-7.66667h19.66667v7.66667z" fill="#7a513b" fill-rule="nonzero" stroke="#000000" stroke-width="1.5"/><path d="M210.87114,270.17384l4.48845,-43.34252l20.44735,-1.49614v51.82069z" fill="url(#color-5)" fill-rule="nonzero" stroke="url(#color-6)" stroke-width="1.5"/><path d="M242.22032,277.15585l-0.49871,-52.31941l20.44735,2.9923l5.48587,42.8438z" fill="url(#color-7)" fill-rule="nonzero" stroke="url(#color-8)" stroke-width="1.5"/><g fill="#6de2e8" fill-rule="nonzero" stroke="#000000" stroke-width="2"><path d="M188.493,136.60365c0,-12.96801 10.51265,-23.48065 23.48066,-23.48065c12.96801,0 23.48065,10.51264 23.48065,23.48065c0,0 -7.7034,-9.593 -23.92315,-9.48244c-15.92464,0.10855 -23.03816,10.09048 -23.03816,9.48244z"/><path d="M266.6746,127.45455c-16.21975,-0.11056 -23.92315,9.48244 -23.92315,9.48244c0,-12.96801 10.51264,-23.48065 23.48065,-23.48065c12.96801,0 23.48066,10.51264 23.48066,23.48065c0,0.60804 -7.11352,-9.37389 -23.03816,-9.48244z" data-paper-data="{&quot;index&quot;:null}"/></g><g data-paper-data="{&quot;index&quot;:null}" fill="#6de2e8" fill-rule="nonzero" stroke="#000000" stroke-width="2"><path d="M212.05277,148.0358c16.21975,0.11056 23.92315,-9.48244 23.92315,-9.48244c0,12.96801 -10.51264,23.48065 -23.48065,23.48065c-12.96801,0 -23.48066,-10.51264 -23.48066,-23.48065c0,-0.60804 7.11352,9.37389 23.03816,9.48244z"/><path d="M290.23438,138.22001c0,12.96801 -10.51265,23.48065 -23.48066,23.48065c-12.96801,0 -23.48065,-10.51264 -23.48065,-23.48065c0,0 7.7034,9.593 23.92315,9.48244c15.92464,-0.10855 23.03816,-10.09048 23.03816,-9.48244z" data-paper-data="{&quot;index&quot;:null}"/></g><path d="M259.64163,175.73326c0,3.81501 -8.82831,6.90769 -19.71857,6.90769c-10.89027,0 -19.71857,-3.09267 -19.71857,-6.90769c0,-3.81501 8.82831,-6.90769 19.71857,-6.90769c10.89027,0 19.71857,3.09267 19.71857,6.90769z" fill="#000000" fill-rule="nonzero" stroke="#000000" stroke-width="2"/></g></g></svg>