<svg version="1.1" xmlns="http://www.w3.org/2000/svg" xmlns:xlink="http://www.w3.org/1999/xlink" width="130.47404" height="258.1622" viewBox="0,0,130.47404,258.1622"><g transform="translate(-254.52301,-50.4895)"><g data-paper-data="{&quot;isPaintingLayer&quot;:true}" stroke-linecap="butt" stroke-linejoin="miter" stroke-miterlimit="10" stroke-dasharray="" stroke-dashoffset="0" style="mix-blend-mode: normal"><path d="M286.58704,307.45908l13.57389,-132l37.78325,0.15789l15.14285,131.8421z" data-paper-data="{&quot;index&quot;:null}" fill="#eb160f" fill-rule="nonzero" stroke="#000000" stroke-width="2"/><path d="M340.13678,204.07172c0,0 -7.67591,4.42465 -20.16049,4.14586c-14.04361,-0.31361 -21.55904,-4.50964 -21.55904,-4.50964l2.76735,-26.1059l35.83075,0.14203l3.12142,26.32765z" data-paper-data="{&quot;index&quot;:null}" fill="#9e0a01" fill-rule="nonzero" stroke="#000000" stroke-width="0"/><path d="M285.8005,308.14552l9.125,-86.65c0,0 16.53638,5.8666 24.59071,5.98987c8.27506,0.12664 24.41538,-5.23987 24.41538,-5.23987l9.625,85.15z" data-paper-data="{&quot;index&quot;:null}" fill="#2841ac" fill-rule="nonzero" stroke="#000000" stroke-width="1"/><path d="M303.64891,234.09375c-4.75409,-0.52653 -2.77415,-10.47275 -2.77415,-10.47275l3.5,-30.46191l7.33053,1.11111l-2.72223,31.57302c0,0 -0.61452,8.77324 -5.33415,8.25053z" data-paper-data="{&quot;index&quot;:null}" fill="#263996" fill-rule="nonzero" stroke="#000000" stroke-width="1"/><path d="M335.17482,235.12159c-4.80089,0.92507 -6.18894,-8.77837 -6.18894,-8.77837l-2.61111,-32.12857l8.21942,-0.55556l3.5,30.4619c0,0 2.3068,9.99359 -2.91937,11.0006z" data-paper-data="{&quot;index&quot;:null}" fill="#263996" fill-rule="nonzero" stroke="#000000" stroke-width="1"/><path d="M378.06213,104.84044c0.01114,0.05857 -119.65505,2.95087 -119.40341,2.4179c2.47845,-5.24951 3.11616,-16.01195 14.37822,-27.96833c8.21114,-8.71737 20.10265,-20.31783 52.16133,-19.80672c21.58049,0.65155 30.2562,10.45179 37.90299,17.32053c14.16258,12.72154 14.58862,26.08034 14.96087,28.03661z" data-paper-data="{&quot;index&quot;:null}" fill="#a8530c" fill-rule="nonzero" stroke="none" stroke-width="1.5"/><path d="M319.76003,197.10358c-35.47712,0 -64.23702,-26.99648 -64.23702,-60.29833c0,-21.50534 11.99343,-40.38122 30.04423,-51.05556c9.90156,-5.85528 22.44062,-8.8614 35.96422,-8.75705c13.5236,0.10435 32.22368,7.53699 33.30904,9.29157c17.55526,10.76282 29.15655,29.37018 29.15655,50.52104c0,33.30184 -28.7599,60.29833 -64.23702,60.29833z" data-paper-data="{&quot;index&quot;:null}" fill="#ffdac9" fill-rule="nonzero" stroke="#000000" stroke-width="2"/><path d="M319.83706,196.25741c-35.03529,0 -63.43702,-26.59354 -63.43702,-59.39833c0,-1.01885 7.95006,57.90399 63.51358,56.93429c58.1538,-1.0149 63.36046,-57.66228 63.36046,-56.93429c0,32.80479 -28.40173,59.39833 -63.43702,59.39833z" data-paper-data="{&quot;index&quot;:null}" fill="#d8b9ab" fill-rule="nonzero" stroke="#000000" stroke-width="0"/><path d="M373.24486,121.73752l-3.0049,1.80454l-2.07085,-2.75646c0,0 1.30186,-9.57549 0.74163,-13.70427c-0.63081,-4.64889 -4.33994,-12.81431 -4.33994,-12.81431h9.52492c0,0 9.41909,36.43954 9.41909,42.46903c0,3.93853 -3.17497,11.77764 -3.17497,11.77764z" data-paper-data="{&quot;index&quot;:null}" fill="#5c2d06" fill-rule="nonzero" stroke="#000000" stroke-width="0"/><path d="M346.96625,160.71537c-12.968,0 -23.48065,-10.51265 -23.48065,-23.48065c0,-12.968 10.51265,-23.48065 23.48065,-23.48065c12.968,0 23.48065,10.51265 23.48065,23.48065c0,12.968 -10.51265,23.48065 -23.48065,23.48065z" data-paper-data="{&quot;index&quot;:null}" fill="#ffffff" fill-rule="nonzero" stroke="#000000" stroke-width="2"/><path d="M374.53306,118.7014l-2.8393,1.70509l-1.95673,-2.60455c0,0 1.23012,-9.04779 0.70076,-12.94903c-0.59604,-4.39269 -4.10076,-12.10811 -4.10076,-12.10811h9c0,0 8.9,34.43137 8.9,40.12857c0,3.72147 -3,11.12857 -3,11.12857z" data-paper-data="{&quot;index&quot;:null}" fill="#a8530c" fill-rule="nonzero" stroke="#000000" stroke-width="1.5"/><path d="M360.71479,140.62576c0,6.91893 -6.20584,12.52784 -13.86116,12.52784c-7.65531,0 -13.86118,-5.6089 -13.86118,-12.52784c0,-6.91893 6.20586,-12.52783 13.86118,-12.52783c7.65531,0 13.86117,5.60889 13.86117,12.52783z" data-paper-data="{&quot;index&quot;:null}" fill="#000000" fill-rule="nonzero" stroke="none" stroke-width="0"/><path d="M269.22709,137.2347c0,-12.968 10.51265,-23.48065 23.48065,-23.48065c12.968,0 23.48065,10.51265 23.48065,23.48065c0,12.968 -10.51265,23.48065 -23.48065,23.48065c-12.968,0 -23.48065,-10.51265 -23.48065,-23.48065z" data-paper-data="{&quot;index&quot;:null}" fill="#ffffff" fill-rule="nonzero" stroke="#000000" stroke-width="2"/><path d="M279.62581,140.29243c0,-6.55074 5.90738,-11.86117 13.1945,-11.86117c7.28711,0 13.19449,5.31042 13.19449,11.86117c0,6.55074 -5.90737,11.86117 -13.19449,11.86117c-7.28712,0 -13.1945,-5.31042 -13.1945,-11.86117z" data-paper-data="{&quot;index&quot;:null}" fill="#000000" fill-rule="nonzero" stroke="none" stroke-width="0"/><path d="M343.96739,108.51714c-3.88341,1.10038 -12.13243,4.4287 -12.13243,4.4287c0,0 6.6666,-4.54695 11.69518,-5.97183c5.02857,-1.42487 16.5281,2.83931 16.5281,2.83931c0,0 -12.03254,-2.44612 -16.09085,-1.29618z" data-paper-data="{&quot;index&quot;:null}" fill="#000000" fill-rule="nonzero" stroke="none" stroke-width="0"/><path d="M296.58266,108.87044c-4.02801,-1.25194 -12.91875,-2.03032 -12.91875,-2.03032c0,0 8.40375,-1.05254 13.39479,0.49871c4.99105,1.55126 10.27546,6.85819 10.27546,6.85819c0,0 -6.89708,-4.12861 -10.7515,-5.32659z" data-paper-data="{&quot;index&quot;:null}" fill="#000000" fill-rule="nonzero" stroke="none" stroke-width="0"/><path d="M260.54577,149.5137c0,0 -3.17497,-7.83911 -3.17497,-11.77764c0,-6.02949 9.41909,-42.46903 9.41909,-42.46903h9.52492c0,0 -3.70913,8.16542 -4.33994,12.81431c-0.56023,4.12878 0.74163,13.70427 0.74163,13.70427l-2.07085,2.75646l-3.0049,-1.80454z" data-paper-data="{&quot;index&quot;:null}" fill="#5c2d06" fill-rule="nonzero" stroke="#000000" stroke-width="0"/><path d="M259.33702,146.33529c0,0 -3,-7.4071 -3,-11.12857c0,-5.6972 8.9,-40.12857 8.9,-40.12857h9c0,0 -3.50472,7.71542 -4.10076,12.10811c-0.52936,3.90124 0.70076,12.94903 0.70076,12.94903l-1.95673,2.60455l-2.8393,-1.70509z" data-paper-data="{&quot;index&quot;:null}" fill="#a8530c" fill-rule="nonzero" stroke="#000000" stroke-width="1.5"/><path d="M370.7018,137.2009c0,0.61661 -8.79939,-15.67498 -23.52823,-15.13879c-14.11419,0.51381 -23.43307,15.13879 -23.43307,15.13879c0,-12.96801 10.51264,-23.48065 23.48065,-23.48065c12.96801,0 23.48066,10.51264 23.48066,23.48065z" data-paper-data="{&quot;index&quot;:null}" fill="#ffdac9" fill-rule="nonzero" stroke="#000000" stroke-width="2"/><path d="M292.35386,122.09615c-15.55265,0.10618 -22.92496,15.73706 -22.92496,15.131c0,-12.96801 10.51265,-23.48065 23.48066,-23.48065c12.96801,0 23.48065,10.51264 23.48065,23.48065c0,0 -8.08384,-15.23991 -24.03635,-15.131z" data-paper-data="{&quot;index&quot;:null}" fill="#ffdac9" fill-rule="nonzero" stroke="#000000" stroke-width="2"/><path d="M381.46202,92.23951c2.46688,3.5302 3.02291,17.21311 0.42291,17.69191c-3.61077,0.66495 -52.48434,-10.52524 -60.9229,-10.52524c-8.10575,0 -60.41429,12.43931 -63.39123,10.78057c-1.99104,-1.1094 1.69224,-20.70073 3.89123,-23.94724c15.81257,-23.34509 36.81254,-35.25 59.75,-35.25c22.97913,0 43.72856,17.60725 60.25,41.25z" data-paper-data="{&quot;index&quot;:null}" fill="#d60000" fill-rule="nonzero" stroke="#000000" stroke-width="1"/><path d="M320.30129,55.31624c10.17124,0 18.41667,7.40948 18.41667,16.54954c0,9.14006 -8.24543,16.54954 -18.41667,16.54954c-10.17124,0 -18.41667,-7.40948 -18.41667,-16.54954c0,-9.14006 8.24543,-16.54954 18.41667,-16.54954z" data-paper-data="{&quot;index&quot;:null}" fill="#ffffff" fill-rule="nonzero" stroke="none" stroke-width="0"/><path d="M304.42098,224.43903c1.90319,0 3.44603,1.61809 3.44603,3.61412c0,1.99602 -1.54284,3.61412 -3.44603,3.61412c-1.90319,0 -3.44602,-1.61809 -3.44602,-3.61412c0,-1.99603 1.54283,-3.61412 3.44602,-3.61412z" data-paper-data="{&quot;index&quot;:null}" fill="#c6a438" fill-rule="nonzero" stroke="none" stroke-width="0"/><path d="M333.83211,225.1557c1.90319,0 3.44603,1.61809 3.44603,3.61412c0,1.99602 -1.54284,3.61412 -3.44603,3.61412c-1.90319,0 -3.44602,-1.61809 -3.44602,-3.61412c0,-1.99603 1.54283,-3.61412 3.44602,-3.61412z" data-paper-data="{&quot;index&quot;:null}" fill="#c6a438" fill-rule="nonzero" stroke="none" stroke-width="0"/><path d="M356.0995,105.04493c-1.07776,-0.00302 -4.44718,-0.87293 -9.20032,-1.90488c-6.89416,-1.49679 -16.53272,3.83216 -26.47853,3.80424c-9.75946,-0.0274 -19.82096,-5.18142 -27.23352,-3.53491c-5.12074,1.13745 -9.05687,2.10015 -10.94539,2.09485c-0.79956,-0.00224 -9.5178,2.99654 -9.5178,2.99654l1.82143,-8.83333c0,0 6.67554,-4.48627 7.62628,-4.74844c5.7074,-1.57387 26.98026,-8.0849 38.01657,-8.0849c11.42684,0 32.25033,6.83221 37.13028,8.21057c0.65393,0.1847 9.03638,3.40847 9.03638,3.40847l2.83334,8.78572c0,0 -12.36088,-2.19189 -13.08872,-2.19393z" data-paper-data="{&quot;index&quot;:null}" fill="#9f0000" fill-rule="nonzero" stroke="#000000" stroke-width="0"/><path d="M310.07484,77.80503c0.53317,-4.19639 3.67028,-15.22896 4.07044,-15.42167c0.25717,-0.12385 4.03189,6.01097 5.43947,7.92489c2.18504,-2.33239 4.31014,-4.81386 6.37602,-7.44507c1.78549,4.54022 4.04346,13.91239 4.04346,13.91239l-4.10954,0.1091c0,0 -0.84796,-4.26434 -1.87441,-6.8971c-1.18792,1.86714 -2.76429,4.23608 -4.11262,6.18214c-1.91002,-1.91139 -3.84401,-6.10917 -3.84401,-6.10917l-1.57239,6.96531l-4.41641,0.77921z" data-paper-data="{&quot;index&quot;:null}" fill="#d9130c" fill-rule="evenodd" stroke="none" stroke-width="1"/><path d="M334.35717,225.8057c1.90318,0 3.44602,1.6181 3.44602,3.61412c0,1.99602 -1.54283,3.61412 -3.44602,3.61412c-1.90318,0 -3.44602,-1.6181 -3.44602,-3.61412c0,-1.99602 1.54283,-3.61412 3.44602,-3.61412z" data-paper-data="{&quot;index&quot;:null}" fill="#edd459" fill-rule="nonzero" stroke="none" stroke-width="0"/><path d="M304.46101,225.3057c1.78799,0 3.23745,1.52016 3.23745,3.39537c0,1.87521 -1.44946,3.39537 -3.23745,3.39537c-1.78799,0 -3.23744,-1.52016 -3.23744,-3.39537c0,-1.87521 1.44945,-3.39537 3.23744,-3.39537z" data-paper-data="{&quot;index&quot;:null}" fill="#edd459" fill-rule="nonzero" stroke="none" stroke-width="0"/><path d="M343.53989,306.85907l-0.13333,-40.23333l0.02222,-43.93333l9.41111,84.23333z" data-paper-data="{&quot;index&quot;:null}" fill="#142779" fill-rule="nonzero" stroke="none" stroke-width="0"/><path d="M286.40653,307.51304l8.98254,-85.1619l0.45079,44.8619l-0.13333,40.23333z" data-paper-data="{&quot;index&quot;:null}" fill="#142779" fill-rule="nonzero" stroke="none" stroke-width="0"/><path d="M320.27952,171.575c3.99026,0 7.225,3.73131 7.225,8.3341c0,4.6028 -3.23474,8.3341 -7.225,8.3341c-3.99026,0 -7.225,-3.73131 -7.225,-8.3341c0,-4.6028 3.23474,-8.3341 7.225,-8.3341z" data-paper-data="{&quot;index&quot;:null}" fill="#000000" fill-rule="nonzero" stroke="none" stroke-width="0"/><path d="M365.92115,166.77415c0,0 -29.0118,8.13551 -46.28436,8.6299c-16.61889,0.47568 -47.21564,-8.73392 -47.21564,-8.73392c0,0 -1.88963,-3.0465 -2.86638,-4.62124c-1.02127,-1.64652 -1.67908,-7.32482 -1.67908,-7.32482c0,0 2.22022,4.4261 5.04909,5.17554c2.39726,0.6351 1.4011,0.23663 5.1391,1.11273c0.7739,0.18138 3.79196,-0.07943 4.60694,0.10523c11.0128,2.49534 25.51914,5.17945 36.58061,5.06719c10.78423,-0.10944 25.31635,-2.58871 36.66895,-4.91425c0.82028,-0.16803 4.17952,-0.00194 4.96399,-0.16741c2.77455,-0.58526 2.75321,-0.70412 4.93146,-1.20336c4.88542,-1.11971 5.7985,-5.33129 5.7985,-5.33129c0,0 0.14184,5.11525 -1.02778,6.53651c-1.41014,1.71353 -4.6654,5.66917 -4.6654,5.66917z" data-paper-data="{&quot;index&quot;:null}" fill="#191100" fill-rule="nonzero" stroke="none" stroke-width="0"/><path d="M344.67131,163.66302c5.7943,-1.23819 11.46754,0.31306 12.67155,3.46482c1.20401,3.15176 -2.51715,6.71051 -8.31144,7.9487c-5.7943,1.23819 -11.46755,-0.31306 -12.67156,-3.46482c-1.20401,-3.15175 2.51716,-6.71051 8.31145,-7.9487z" data-paper-data="{&quot;index&quot;:null}" fill="#191100" fill-rule="nonzero" stroke="none" stroke-width="0"/><path d="M308.5164,173.07298c-0.13208,-3.41004 4.64379,-6.28902 10.66721,-6.4304c6.02342,-0.14138 11.01344,2.50839 11.14553,5.91842c0.13209,3.41003 -4.64378,6.28901 -10.6672,6.43039c-6.02342,0.14138 -11.01344,-2.50839 -11.14553,-5.91842z" data-paper-data="{&quot;index&quot;:null}" fill="#191100" fill-rule="nonzero" stroke="none" stroke-width="0"/><path d="M294.28077,163.69496c5.85865,1.00752 9.77618,4.29074 8.75004,7.33328c-1.02614,3.04254 -6.60737,4.69225 -12.46602,3.68474c-5.85866,-1.00752 -9.77619,-4.29073 -8.75005,-7.33327c1.02614,-3.04254 6.60738,-4.69226 12.46603,-3.68475z" data-paper-data="{&quot;index&quot;:null}" fill="#191100" fill-rule="nonzero" stroke="none" stroke-width="0"/></g></g></svg>