<svg version="1.1" xmlns="http://www.w3.org/2000/svg" xmlns:xlink="http://www.w3.org/1999/xlink" width="223.43912" height="334.77203" viewBox="0,0,223.43912,334.77203"><g transform="translate(-126.58492,-10.9122)"><g data-paper-data="{&quot;isPaintingLayer&quot;:true}" fill-rule="nonzero" stroke-linejoin="miter" stroke-miterlimit="10" stroke-dasharray="" stroke-dashoffset="0" style="mix-blend-mode: normal"><path d="M202.7091,120.88993l34.77431,-105.56485l14.90328,108.04873l16.14521,6.2097l6.83067,-8.69357l9.31454,-102.46001l42.84691,102.46001l-37.25819,81.968l24.21782,86.93577l-22.35491,-9.93552l16.14522,42.84692l-60.85503,-39.1211l-39.74206,43.46788l-3.10485,-39.74206l-18.62909,8.07261l35.39527,-124.81492z" fill="#584941" stroke="#000000" stroke-width="2" stroke-linecap="round"/><path d="M226.79194,320.25775l-95.43818,-157.86315l28.81152,27.61104l-28.21128,-70.82833l47.41897,68.42737l-0.60024,-42.01681l51.62065,158.46339z" fill="#584941" stroke="#000000" stroke-width="2" stroke-linecap="round"/><path d="M206.38932,187.56591l111.64466,-6.0024l30.61225,64.82593l-22.20889,7.80312l-10.80432,-57.62305l-100.84034,-2.40096l-14.40576,61.22449l-21.60864,-5.40216l24.0096,-49.81993z" fill="#c8b8b2" stroke="#000000" stroke-width="2" stroke-linecap="round"/><path d="M251.4018,194.01468l25.81032,0.60024l15.60624,150.06003l-72.02881,-0.60024l27.0108,-139.85595z" fill="#a3948c" stroke="#000000" stroke-width="2" stroke-linecap="round"/><path d="M329.48182,122.36811l-2.48387,81.96801h-124.81492l-0.62097,-85.69383z" fill="#c8b8b2" stroke="#000000" stroke-width="2" stroke-linecap="round"/><path d="M209.39797,150.3142c0,-0.04369 -4.23161,-7.74066 -4.23161,-7.74066l11.19055,4.53331c0,0 38.62676,1.76501 38.62676,2.05328c0,14.1019 -9.70075,31.59262 -23.80266,31.59262c-14.1019,0 -21.78303,-16.33665 -21.78303,-30.43855z" fill="#000000" stroke="none" stroke-width="0" stroke-linecap="butt"/><path d="M293.88534,179.59869c-14.1019,0 -23.80266,-17.49071 -23.80266,-31.59261c0,-0.28828 38.62676,-2.05328 38.62676,-2.05328l11.19055,-4.53331c0,0 -4.23162,7.69697 -4.23162,7.74066c0,14.1019 -7.68113,30.43855 -21.78303,30.43855z" data-paper-data="{&quot;index&quot;:null}" fill="#000000" stroke="none" stroke-width="0" stroke-linecap="butt"/><path d="M237.39347,140.37732c0,0 5.87742,-5.37467 9.21866,-6.59979c2.67424,-0.98055 9.27703,-0.18196 9.27703,-0.18196" fill="none" stroke="#000000" stroke-width="2" stroke-linecap="round"/><path d="M258.76626,131.12948c0,0 0.99253,1.70503 1.06619,2.44168c0.0609,0.60894 -0.65518,1.66848 -0.65518,1.66848" fill="none" stroke="#000000" stroke-width="2" stroke-linecap="round"/><path d="M285.97398,191.46277c0,0 -14.20722,8.2203 -20.96177,8.2203c-7.13103,0 -20.75627,-8.2203 -20.75627,-8.2203" fill="none" stroke="#000000" stroke-width="2" stroke-linecap="round"/></g></g></svg>