<svg version="1.1" xmlns="http://www.w3.org/2000/svg" xmlns:xlink="http://www.w3.org/1999/xlink" width="35.04902" height="35.04871" viewBox="0,0,35.04902,35.04871"><g transform="translate(-222.51347,-162.51346)"><g data-paper-data="{&quot;isPaintingLayer&quot;:true}" stroke="none" stroke-miterlimit="10" stroke-dasharray="" stroke-dashoffset="0" style="mix-blend-mode: normal"><path d="M257.56248,169.8317v20.49804c0,4.00745 -3.22497,7.23243 -7.23242,7.23243h-20.5c-3.66107,0 -6.66147,-2.69385 -7.1543,-6.21484c0.7952,3.03475 3.54108,5.26367 6.83204,5.26367h20.0332c3.9166,0 7.07032,-3.15372 7.07032,-7.07031v-20.03321c0,-3.2976 -2.23906,-6.0451 -5.28321,-6.83398c3.52994,0.48496 6.23438,3.49081 6.23438,7.15821z" fill-opacity="0.29839" fill="#000000" fill-rule="evenodd" stroke-width="4.54219" stroke-linecap="round" stroke-linejoin="round"/><g><path d="M229.58313,162.51347h20.03379c3.9166,0 7.06966,3.15307 7.06966,7.06966v20.03379c0,3.91659 -3.15306,7.06966 -7.06966,7.06966h-20.03379c-3.91659,0 -7.06966,-3.15307 -7.06966,-7.06966v-20.03379c0,-3.91659 3.15307,-7.06966 7.06966,-7.06966z" fill="#a4afbc" fill-rule="evenodd" stroke-width="4.43922" stroke-linecap="round" stroke-linejoin="round"/><path d="M241.67432,179.10181c-2.44369,-0.94383 -3.72912,-3.50985 -2.8711,-5.73139c0.43936,-1.13755 2.42163,-3.12571 4.49244,-4.25094c1.97328,-1.07223 4.04965,-1.30961 4.04965,-1.30961c0,0 0.81749,1.54873 1.00188,3.42285c0.19831,2.01558 -0.24998,4.40443 -0.69459,5.55559c-0.85802,2.22153 -3.53459,3.25732 -5.97827,2.3135z" data-paper-data="{&quot;index&quot;:null}" fill="#abb6c5" fill-rule="nonzero" stroke-width="0" stroke-linecap="butt" stroke-linejoin="miter"/><path d="M242.25028,179.77668c-0.0311,-2.44081 1.74247,-4.44239 3.96138,-4.47067c1.13621,-0.01448 3.54315,1.01053 5.23444,2.41134c1.61164,1.33484 2.53697,3.04835 2.53697,3.04835c0,0 -1.05599,1.24409 -2.61296,2.05346c-1.67449,0.87046 -3.89602,1.31114 -5.04582,1.32579c-2.21892,0.02828 -4.04291,-1.92747 -4.07402,-4.36827z" fill="#bfcddb" fill-rule="nonzero" stroke-width="0" stroke-linecap="butt" stroke-linejoin="miter"/><path d="M239.68549,176.83519c-2.09967,1.56646 -4.95621,1.28894 -6.38027,-0.61985c-0.7292,-0.97741 -1.3573,-3.71378 -1.20774,-6.06579c0.14252,-2.24125 1.04669,-4.12543 1.04669,-4.12543c0,0 1.74624,0.13222 3.431,0.97361c1.81192,0.9049 3.5957,2.55586 4.33362,3.54496c1.42405,1.90879 0.87636,4.72604 -1.22331,6.2925z" fill="#96a2ac" fill-rule="nonzero" stroke-width="0" stroke-linecap="butt" stroke-linejoin="miter"/><path d="M246.65836,182.131c0.58223,1.08805 1.31967,3.40403 1.36968,5.42872c0.0465,1.8826 -0.57519,3.51978 -0.57519,3.51978c0,0 -2.08981,0.01867 -4.17954,-0.80385c-2.19301,-0.86318 -4.40383,-2.59363 -4.97918,-3.66882c-1.1236,-2.09975 -0.16207,-4.80387 2.14765,-6.03983c2.30972,-1.23596 5.09298,-0.53573 6.21658,1.56401z" data-paper-data="{&quot;index&quot;:null}" fill="#abb6c5" fill-rule="nonzero" stroke-width="0" stroke-linecap="butt" stroke-linejoin="miter"/><path d="M238.66289,180.55073c2.61558,-0.14536 4.84306,1.66439 4.97521,4.04219c0.06767,1.21757 -0.92087,3.84531 -2.34519,5.72298c-1.35724,1.78925 -3.15199,2.86002 -3.15199,2.86002c0,0 -1.38237,-1.07513 -2.32162,-2.70735c-1.01015,-1.75542 -1.58459,-4.11711 -1.65307,-5.34924c-0.13215,-2.3778 1.88107,-4.42324 4.49666,-4.5686z" fill="#bfcddb" fill-rule="nonzero" stroke-width="0" stroke-linecap="butt" stroke-linejoin="miter"/><path d="M237.41545,179.79774c2.02255,1.66484 2.43523,4.505 0.92175,6.34369c-0.77499,0.94151 -3.28219,2.20491 -5.60187,2.62135c-2.21044,0.39683 -4.25603,-0.03122 -4.25603,-0.03122c0,0 -0.28862,-1.72729 0.12609,-3.56424c0.44601,-1.9756 1.62322,-4.10203 2.40749,-5.0548c1.51349,-1.83869 4.38002,-1.97962 6.40257,-0.31478z" fill="#abb6c5" fill-rule="nonzero" stroke-width="0" stroke-linecap="butt" stroke-linejoin="miter"/><path d="M237.79376,178.53243c0,2.61962 -1.93056,4.74324 -4.31204,4.74324c-1.21945,0 -3.78829,-1.13283 -5.58403,-2.65915c-1.71118,-1.45444 -2.68071,-3.30583 -2.68071,-3.30583c0,0 1.15018,-1.32058 2.83201,-2.16781c1.80877,-0.91118 4.19869,-1.35369 5.43273,-1.35369c2.38147,0 4.31204,2.12362 4.31204,4.74324z" fill="#bfcddb" fill-rule="nonzero" stroke-width="0" stroke-linecap="butt" stroke-linejoin="miter"/><path d="M243.47128,179.1433c0,2.16317 -1.73751,3.91677 -3.88083,3.91677c-2.14332,0 -3.88083,-1.7536 -3.88083,-3.91677c0,-2.16317 1.73751,-3.91677 3.88083,-3.91677c2.14332,0 3.88083,1.7536 3.88083,3.91677z" fill="#f4d01a" fill-rule="nonzero" stroke-width="0" stroke-linecap="butt" stroke-linejoin="miter"/><path d="M243.39941,179.10737c0,2.18302 -1.73751,3.9527 -3.88083,3.9527c-2.14332,0 -3.59337,-2.51536 -3.59337,-2.51536c0,0 1.46338,-0.01948 2.56464,-0.16773c0.84365,-0.11358 1.32632,-0.30272 1.6691,-0.61659c0.34999,-0.32047 0.89089,-0.96836 0.98481,-2.02098c0.09053,-1.01466 -0.25971,-2.44101 -0.25971,-2.44101c0,0 2.51536,1.62595 2.51536,3.80897z" fill="#eda915" fill-rule="nonzero" stroke-width="0" stroke-linecap="butt" stroke-linejoin="miter"/></g></g></g></svg>