<svg version="1.1" xmlns="http://www.w3.org/2000/svg" xmlns:xlink="http://www.w3.org/1999/xlink" width="157.88866" height="293.442" viewBox="0,0,157.88866,293.442"><defs><linearGradient x1="233.6665" y1="26.49817" x2="233.6665" y2="129.62926" gradientUnits="userSpaceOnUse" id="color-1"><stop offset="0" stop-color="#000000"/><stop offset="1" stop-color="#6122e0"/></linearGradient><linearGradient x1="272.95561" y1="16.86001" x2="272.95561" y2="125.65809" gradientUnits="userSpaceOnUse" id="color-2"><stop offset="0" stop-color="#000000"/><stop offset="1" stop-color="#cabf81"/></linearGradient><linearGradient x1="270.79919" y1="27.36001" x2="270.79919" y2="136.15806" gradientUnits="userSpaceOnUse" id="color-3"><stop offset="0" stop-color="#000000"/><stop offset="1" stop-color="#caaa81"/></linearGradient><linearGradient x1="310.13405" y1="121.40202" x2="310.13405" y2="159.86748" gradientUnits="userSpaceOnUse" id="color-4"><stop offset="0" stop-color="#000000"/><stop offset="1" stop-color="#d6ca89"/></linearGradient><linearGradient x1="169.88407" y1="121.40203" x2="169.88407" y2="159.86748" gradientUnits="userSpaceOnUse" id="color-5"><stop offset="0" stop-color="#000000"/><stop offset="1" stop-color="#000000"/></linearGradient><linearGradient x1="207.83063" y1="16.98506" x2="207.83063" y2="125.78314" gradientUnits="userSpaceOnUse" id="color-6"><stop offset="0" stop-color="#242217"/><stop offset="1" stop-color="#1e1c13"/></linearGradient><linearGradient x1="209.98701" y1="27.48506" x2="209.98701" y2="136.28311" gradientUnits="userSpaceOnUse" id="color-7"><stop offset="0" stop-color="#242217"/><stop offset="1" stop-color="#1e1c13"/></linearGradient><linearGradient x1="240.25649" y1="178.30201" x2="240.25649" y2="310.30199" gradientUnits="userSpaceOnUse" id="color-8"><stop offset="0" stop-color="#000000"/><stop offset="1" stop-color="#fff1a4"/></linearGradient><linearGradient x1="240.00009" y1="79.34983" x2="240.00009" y2="199.94653" gradientUnits="userSpaceOnUse" id="color-9"><stop offset="0" stop-color="#191710"/><stop offset="1" stop-color="#ded28e"/></linearGradient><linearGradient x1="214.51382" y1="141.00011" x2="214.51382" y2="151.43716" gradientUnits="userSpaceOnUse" id="color-10"><stop offset="0" stop-color="#9e9e9e"/><stop offset="1" stop-color="#090909"/></linearGradient></defs><g transform="translate(-161.06473,-16.85997)"><g data-paper-data="{&quot;isPaintingLayer&quot;:true}" fill-rule="nonzero" stroke-linecap="butt" stroke-linejoin="miter" stroke-miterlimit="10" stroke-dasharray="" stroke-dashoffset="0" style="mix-blend-mode: normal"><path d="" data-paper-data="{&quot;index&quot;:null}" fill="url(#color-1)" stroke="#000000" stroke-width="0"/><path d="M293.83572,16.86001c0,0 0.78499,50.53325 2.41567,70.5875c1.13292,13.93251 6.43112,38.21054 6.43112,38.21054c-7.46558,-1.40108 -59.4538,-43.22819 -59.4538,-43.22819c0,0 15.66425,-27.68938 24.50626,-39.14569c7.92676,-10.2705 26.10077,-26.4242 26.10077,-26.4242z" data-paper-data="{&quot;index&quot;:null}" fill="url(#color-2)" stroke="#000000" stroke-width="0"/><path d="M290.29654,27.36005c0,0 0.73301,50.53325 2.2557,70.5875c1.05789,13.93251 6.00523,38.21054 6.00523,38.21054c-6.97118,-1.40108 -55.51658,-43.22819 -55.51658,-43.22819c0,0 14.62691,-27.68938 22.88337,-39.14569c7.40182,-10.2705 24.3723,-26.4242 24.3723,-26.4242z" data-paper-data="{&quot;index&quot;:null}" fill="url(#color-3)" stroke="#000000" stroke-width="0"/><path d="M301.31469,121.40202l17.6387,26.37528l-16.20026,12.09022z" data-paper-data="{&quot;index&quot;:null}" fill="url(#color-4)" stroke="#000000" stroke-width="0"/><path d="M177.26498,159.86748l-16.20025,-12.09021l17.63869,-26.37527c0,0 -0.70021,18.72432 -0.96521,25.81085c-0.18555,4.96201 -0.47323,12.65463 -0.47323,12.65463z" data-paper-data="{&quot;index&quot;:null}" fill="url(#color-5)" stroke="#000000" stroke-width="0"/><path d="M186.9505,16.98506c0,0 18.17401,16.1537 26.10077,26.4242c8.84201,11.45631 24.50626,39.14569 24.50626,39.14569c0,0 -51.98822,41.82711 -59.4538,43.22819c0,0 5.2982,-24.27804 6.43112,-38.21054c1.63068,-20.05425 2.41568,-70.58749 2.41568,-70.58749z" data-paper-data="{&quot;index&quot;:null}" fill="url(#color-6)" stroke="#000000" stroke-width="0"/><path d="M190.48963,27.48506c0,0 16.97047,16.1537 24.3723,26.4242c8.25646,11.45631 22.88337,39.14569 22.88337,39.14569c0,0 -48.54539,41.82711 -55.51658,43.22819c0,0 4.94733,-24.27804 6.00523,-38.21054c1.52269,-20.05425 2.25571,-70.58749 2.25571,-70.58749z" data-paper-data="{&quot;index&quot;:null}" fill="url(#color-7)" stroke="#000000" stroke-width="0"/><path d="M207.0065,310.30196l15.14285,-131.8421l37.78325,-0.15789l13.57389,132z" fill="url(#color-8)" stroke="#000000" stroke-width="0"/><path d="M175.76307,139.64811c0,-33.30185 28.7599,-60.29833 64.23702,-60.29833c35.47712,0 64.23702,26.99649 64.23702,60.29833c0,33.30185 -28.7599,60.29833 -64.23702,60.29833c-35.47712,0 -64.23702,-26.99649 -64.23702,-60.29833z" data-paper-data="{&quot;index&quot;:null}" fill="url(#color-9)" stroke="#000000" stroke-width="0"/><path d="M271.07308,98.08228c-3.9295,-0.92235 -11.96762,-0.86207 -11.96762,-0.86207c0,0 7.24586,-1.8937 12.33413,-0.69937c5.08826,1.19433 11.79721,6.36355 11.79721,6.36355c0,0 -8.05724,-3.83822 -12.16372,-4.80211z" data-paper-data="{&quot;index&quot;:null}" fill="#000000" stroke="none" stroke-width="0"/><path d="M185.93846,172.16727c-1.51284,-2.01241 -1.73679,13.68843 -2.89747,11.51604c-0.974,-1.82298 -2.93635,-21.49194 -3.6662,-23.4591c-1.65254,-4.4541 -4.90637,-1.81327 -5.33657,-7.24724c-0.16853,-2.12876 0.37689,-16.38285 0.55002,-18.24881c0.05053,-0.54469 -2.08384,-4.46095 0.09405,-11.75754c0.42479,-1.42319 3.68624,-6.1821 4.23473,-7.5594c0.75482,-1.8954 -1.76891,-3.15887 -0.65504,-4.75124c2.16193,-3.09066 8.03288,-5.88271 8.14136,-6.16446c2.71973,-7.06348 13.48759,-18.88148 25.87403,-23.77728c0.34552,-0.13657 8.84771,2.51923 9.21722,2.39489c10.10557,-3.40041 20.11683,-5.11424 20.11683,-5.11424c0,0 -6.6278,3.76223 -4.22222,5.19645c1.68494,1.00457 5.3185,0.41017 5.5152,2.04379c0.36671,3.0455 -6.84052,7.57043 -6.94772,10.26213c-0.13824,3.47129 -2.73589,3.74496 -3.57658,5.88377c-0.57195,1.45511 0.59027,4.69447 0.30552,6.80347c-0.61587,4.56138 -1.45924,0.89534 -2.61227,5.00737c-0.89995,3.20946 -2.20285,-0.02285 -3.51915,1.51832c-0.73914,0.8654 -1.33575,6.46422 -2.2254,7.68262c-13.02311,17.83553 -35.86454,19.53872 -35.43076,19.51024c3.62928,-0.23836 38.53105,9.18293 40.52828,14.34345c0.01054,0.02723 -0.34264,1.84953 -1.17822,3.75568c-0.83134,1.89646 -2.1445,3.87592 -2.37097,4.25308c-0.58232,0.96976 -0.60149,-4.31509 -1.55109,-2.64304c-0.91398,1.60933 -2.03187,2.71874 -2.86321,4.51704c-1.63462,3.53589 -1.62081,6.32495 -3.13075,7.40129c-0.25383,0.18094 -0.59452,-2.4435 -1.18988,-5.01448c-1.07851,-4.65741 1.3934,-8.9445 1.07109,-8.41455c-0.64061,1.05332 -2.16206,4.20024 -3.03319,4.68415c-0.81608,0.45334 -1.00124,-1.77654 -1.08905,-0.29384c-0.24687,4.16827 2.1202,11.96258 0.19223,11.96428c-0.55966,0.00049 -2.62951,-10.10959 -4.23096,-13.07219c-0.62561,-1.15734 -1.15805,7.11392 -1.64131,7.68483c-0.62277,0.73571 -1.16386,-5.98684 -1.71741,-6.16423c-3.63761,-1.16566 -1.59754,9.57697 -2.85462,7.70026c-1.75491,-2.61992 -0.0013,-7.14331 -1.41821,-9.73284c-1.05519,-1.92846 -2.36999,-0.98623 -3.31165,-1.87781c-0.79126,-0.74918 -1.31905,-3.50031 -1.20796,-3.37797c2.20811,2.43162 -0.59468,0.11196 -0.1748,4.73079c0.20236,2.22603 7.32827,9.89997 9.00414,13.02709c1.52598,2.84743 -2.40917,1.22051 -1.78974,2.04451c3.9906,5.30839 -6.26151,-4.8146 -5.06591,-0.83655c0.54433,1.81114 8.38758,8.3459 12.87309,13.13954c3.07917,3.29071 3.40081,5.61401 3.40081,5.61401c0,0 5.5806,3.71848 3.03944,2.39721c-1.40551,-0.7308 -5.04699,-2.4781 -7.29232,-2.03637c-1.43173,0.28166 0.40875,2.73213 -1.37578,1.84523c-1.74535,-0.86742 -8.22999,-7.91456 -8.94086,-8.43254c-3.83465,-2.79412 -4.61594,7.22038 -8.15716,3.50168c-0.884,-0.92831 -1.13265,-6.73901 -2.8151,-11.94752c-1.32091,-4.08925 -4.14776,-7.80731 -4.66848,-8.49999z" fill="#000000" stroke="#000000" stroke-width="0"/><path d="M166.48218,61.16274c0.62132,0 1.125,0.11193 1.125,0.25c0,0.13807 -0.50368,0.25 -1.125,0.25c-0.62132,0 -1.125,-0.11193 -1.125,-0.25c0,-0.13807 0.50368,-0.25 1.125,-0.25z" fill="#000000" stroke="none" stroke-width="0.5"/><path d="M189.6466,144.28768c0,-12.968 10.51265,-23.48065 23.48065,-23.48065c12.968,0 23.48065,10.51265 23.48065,23.48065c0,12.968 -10.51265,23.48065 -23.48065,23.48065c-12.968,0 -23.48065,-10.51265 -23.48065,-23.48065z" fill="#000000" stroke="#000000" stroke-width="0"/><path d="M267.38561,167.26745c-12.968,0 -23.48065,-9.33571 -23.48065,-20.85189c0,-11.51618 -1.86115,15.44617 23.17637,14.4554c12.95515,-0.51265 23.78493,-25.97158 23.78493,-14.4554c0,11.51618 -10.51265,20.85189 -23.48065,20.85189z" data-paper-data="{&quot;index&quot;:null}" fill="#000000" stroke="#000000" stroke-width="0"/><path d="M227.72322,146.21863c0,0 -6.44477,4.96367 -13.74011,4.96367c-7.29535,0 -12.67867,-4.96367 -12.67867,-4.96367c0,0 5.6199,-8.45414 12.91524,-8.45414c7.29535,0 13.50354,8.45414 13.50354,8.45414z" fill="url(#color-10)" stroke="none" stroke-width="0"/><path d="M212.09146,145.50122c-0.14825,-4.76114 1.01348,-8.66073 2.59477,-8.70997c1.5813,-0.04923 2.98336,3.77053 3.1316,8.53168c0.03788,1.21668 -0.00978,2.3771 -0.12813,3.43138c-0.34477,3.07136 -1.28944,5.24194 -2.46665,5.2786c-1.58129,0.04924 -2.98336,-3.77052 -3.13161,-8.53167z" fill="#000000" stroke="none" stroke-width="0"/><path d="M228.71162,188.71367c0,0 6.68417,-2.53573 11.90986,-2.46411c1.53254,0.021 3.27338,0.27083 4.96854,0.61346c4.085,0.82567 7.90465,2.19027 7.90465,2.19027l-10.84328,0.98008z" data-paper-data="{&quot;index&quot;:null}" fill="#000000" stroke="none" stroke-width="0"/><path d="M288.34573,159.48028c0,0 -1.79735,2.92979 -3.55443,4.11797c-1.75709,1.18818 -4.77863,1.51703 -4.77863,1.51703c0,0 3.05707,-1.13863 4.41401,-2.05622c1.41805,-0.95892 3.91905,-3.57878 3.91905,-3.57878z" data-paper-data="{&quot;index&quot;:null}" fill="#000000" stroke="none" stroke-width="0"/></g></g></svg>