<svg version="1.1" xmlns="http://www.w3.org/2000/svg" xmlns:xlink="http://www.w3.org/1999/xlink" width="311.46055" height="300.8274" viewBox="0,0,311.46055,300.8274"><defs><linearGradient x1="245.64958" y1="176.66356" x2="238.69373" y2="308.48016" gradientUnits="userSpaceOnUse" id="color-1"><stop offset="0" stop-color="#12201e"/><stop offset="1" stop-color="#345756"/></linearGradient><linearGradient x1="244.99033" y1="197.25793" x2="243.26558" y2="229.94281" gradientUnits="userSpaceOnUse" id="color-2"><stop offset="0" stop-color="#203535"/><stop offset="1" stop-color="#274746"/></linearGradient><linearGradient x1="244.75261" y1="185.56006" x2="243.53778" y2="208.58159" gradientUnits="userSpaceOnUse" id="color-3"><stop offset="0" stop-color="#203535"/><stop offset="1" stop-color="#274746"/></linearGradient><linearGradient x1="325.80493" y1="70.41889" x2="329.37234" y2="114.29229" gradientUnits="userSpaceOnUse" id="color-4"><stop offset="0" stop-color="#1d1c17"/><stop offset="1" stop-color="#616051"/></linearGradient><linearGradient x1="309.91178" y1="54.57725" x2="316.43056" y2="134.74782" gradientUnits="userSpaceOnUse" id="color-5"><stop offset="0" stop-color="#0e1411"/><stop offset="1" stop-color="#244343"/></linearGradient><radialGradient cx="240.87259" cy="172.75393" r="71.31655" gradientUnits="userSpaceOnUse" id="color-6"><stop offset="0" stop-color="#000000"/><stop offset="1" stop-color="#345756"/></radialGradient><linearGradient x1="235.3786" y1="78.5359" x2="245.15221" y2="198.73587" gradientUnits="userSpaceOnUse" id="color-7"><stop offset="0" stop-color="#0f1b1b"/><stop offset="1" stop-color="#345756"/></linearGradient><linearGradient x1="211.26033" y1="117.61624" x2="215.06626" y2="164.42307" gradientUnits="userSpaceOnUse" id="color-8"><stop offset="0" stop-color="#784752"/><stop offset="1" stop-color="#4c1e20"/></linearGradient><linearGradient x1="265.34023" y1="113.21892" x2="269.14617" y2="160.02574" gradientUnits="userSpaceOnUse" id="color-9"><stop offset="0" stop-color="#190505"/><stop offset="1" stop-color="#000000"/></linearGradient><linearGradient x1="231.04354" y1="84.73836" x2="233.63415" y2="116.59872" gradientUnits="userSpaceOnUse" id="color-10"><stop offset="0" stop-color="#141e20"/><stop offset="1" stop-color="#0e1717"/></linearGradient><linearGradient x1="274.72883" y1="53.73731" x2="276.06346" y2="70.15122" gradientUnits="userSpaceOnUse" id="color-11"><stop offset="0" stop-color="#3b5456"/><stop offset="1" stop-color="#253e3d"/></linearGradient><linearGradient x1="321.49576" y1="13.39035" x2="322.42691" y2="24.84192" gradientUnits="userSpaceOnUse" id="color-12"><stop offset="0" stop-color="#3b5456"/><stop offset="1" stop-color="#253e3d"/></linearGradient><linearGradient x1="270.56954" y1="65.19867" x2="271.29894" y2="74.16907" gradientUnits="userSpaceOnUse" id="color-13"><stop offset="0" stop-color="#3b5456"/><stop offset="1" stop-color="#253e3d"/></linearGradient><linearGradient x1="337.30227" y1="70.74333" x2="338.01615" y2="79.52287" gradientUnits="userSpaceOnUse" id="color-14"><stop offset="0" stop-color="#3b5456"/><stop offset="1" stop-color="#253e3d"/></linearGradient><linearGradient x1="295.04469" y1="25.72357" x2="301.28825" y2="102.50938" gradientUnits="userSpaceOnUse" id="color-15"><stop offset="0" stop-color="#404135"/><stop offset="1" stop-color="#1b1816"/></linearGradient><radialGradient cx="233.05347" cy="197.18143" r="2.15987" gradientUnits="userSpaceOnUse" id="color-16"><stop offset="0" stop-color="#000000"/><stop offset="1" stop-color="#350604"/></radialGradient><radialGradient cx="254.37546" cy="195.96248" r="4.21522" gradientUnits="userSpaceOnUse" id="color-17"><stop offset="0" stop-color="#000000"/><stop offset="1" stop-color="#350604"/></radialGradient><radialGradient cx="213.21664" cy="181.05297" r="16.49954" gradientUnits="userSpaceOnUse" id="color-18"><stop offset="0" stop-color="#000000"/><stop offset="1" stop-color="#350604"/></radialGradient><linearGradient x1="244.14594" y1="130.97604" x2="244.98604" y2="141.30801" gradientUnits="userSpaceOnUse" id="color-19"><stop offset="0" stop-color="#3b5456"/><stop offset="1" stop-color="#253e3d"/></linearGradient><linearGradient x1="268.90798" y1="103.32524" x2="271.57679" y2="160.30976" gradientUnits="userSpaceOnUse" id="color-20"><stop offset="0" stop-color="#1b1816"/><stop offset="1" stop-color="#404135"/></linearGradient><linearGradient x1="286.11459" y1="126.73933" x2="287.7673" y2="147.06492" gradientUnits="userSpaceOnUse" id="color-21"><stop offset="0" stop-color="#3b5456"/><stop offset="1" stop-color="#253e3d"/></linearGradient><linearGradient x1="277.35622" y1="131.41336" x2="278.68738" y2="147.7847" gradientUnits="userSpaceOnUse" id="color-22"><stop offset="0" stop-color="#3b5456"/><stop offset="1" stop-color="#253e3d"/></linearGradient><linearGradient x1="192.02391" y1="47.05469" x2="192.95505" y2="58.50626" gradientUnits="userSpaceOnUse" id="color-23"><stop offset="0" stop-color="#3b5456"/><stop offset="1" stop-color="#253e3d"/></linearGradient><linearGradient x1="184.74361" y1="63.84914" x2="299.95609" y2="54.48106" gradientUnits="userSpaceOnUse" id="color-24"><stop offset="0" stop-color="#213331"/><stop offset="1" stop-color="#172322"/></linearGradient><linearGradient x1="208.57343" y1="71.65827" x2="287.26109" y2="65.26008" gradientUnits="userSpaceOnUse" id="color-25"><stop offset="0" stop-color="#213331"/><stop offset="1" stop-color="#121b1b"/></linearGradient><linearGradient x1="181.55038" y1="54.53379" x2="186.1805" y2="111.47697" gradientUnits="userSpaceOnUse" id="color-26"><stop offset="0" stop-color="#404135"/><stop offset="1" stop-color="#1b1816"/></linearGradient></defs><g transform="translate(-35.19545,-12.78511)"><g data-paper-data="{&quot;isPaintingLayer&quot;:true}" fill-rule="nonzero" stroke-linejoin="miter" stroke-miterlimit="10" stroke-dasharray="" stroke-dashoffset="0" style="mix-blend-mode: normal"><path d="M178.409,313.61251v-267.22501h123.18203v267.22501z" fill-opacity="0.01" fill="#000000" stroke="none" stroke-width="0" stroke-linecap="butt"/><g stroke="#000000" stroke-width="0"><path d="M205.48994,306.72802l22.06934,-130.86095l37.73907,1.83335l6.59918,132.53188z" fill="url(#color-1)" stroke-linecap="butt"/><g stroke-linecap="round"><path d="M267.01709,198.42026l5.06718,28.19816l-29.52925,3.2869l-27.59824,-6.30147l5.98651,-21.62969z" fill="url(#color-2)"/><path d="M271.61105,186.97735l0.80542,17.14297l-29.30502,4.43877l-25.59372,-6.48069l-1.47884,-15.18346z" fill="url(#color-3)"/></g></g><path d="M37.84329,65.87717l-2.64784,-3.53045" fill="none" stroke="none" stroke-width="0" stroke-linecap="round"/><g><path d="M327.2728,70.29954l10.99131,7.97181l3.56698,3.48601l1.7266,13.15791l-3.16239,11.58531l-10.20748,7.7254l-12.13695,-5.90854l-5.92736,-12.3238l1.00234,-11.90219l3.98323,-7.54765z" fill="url(#color-4)" stroke="#000000" stroke-width="0" stroke-linecap="round"/><path d="M284.21185,48.73116c0,0 8.23514,7.89452 9.6433,4.67241c3.82604,-8.75467 1.09694,-23.509 1.09694,-23.509l5.91503,-1.30198c0,0 0.69836,26.73385 -2.03477,30.5645c-2.73313,3.83066 -16.29367,-0.71117 -16.29367,-0.71117z" fill="#101b1b" stroke="#000000" stroke-width="0" stroke-linecap="round"/><path d="M296.86032,82.5222c0,0 17.94543,46.49925 22.61915,42.05588c4.80538,-4.56856 5.82912,-69.10207 5.82912,-69.10207l6.77014,-2.70119c0,0 -1.42777,80.08666 -11.43962,81.62488c-8.82638,1.35609 -30.46206,-48.10803 -30.46206,-48.10803z" fill="url(#color-5)" stroke="#000000" stroke-width="0" stroke-linecap="round"/><path d="M300.83033,151.89969l11.31839,17.46259l-24.95943,2.59512l16.99003,14.17328l-60.24809,-3.58557l-64.56506,12.88585l12.22943,-16.54915l-21.6108,2.04001l10.3906,-21.7731z" fill="url(#color-6)" stroke="#000000" stroke-width="0" stroke-linecap="round"/><path d="M176.23969,143.8419c-2.69891,-33.19231 23.77849,-62.4308 59.13891,-65.306c35.36042,-2.8752 66.21361,21.70167 68.91252,54.89397c2.69891,33.19231 -23.77848,62.4308 -59.1389,65.306c-35.36042,2.8752 -66.21361,-21.70167 -68.91252,-54.89396z" fill="url(#color-7)" stroke="#000000" stroke-width="0" stroke-linecap="butt"/><path d="M189.75988,142.92262c-1.05097,-12.92534 8.57511,-24.2554 21.50045,-25.30638c12.92534,-1.05097 24.2554,8.57511 25.30638,21.50045c1.05097,12.92534 -8.57511,24.2554 -21.50045,25.30638c-12.92534,1.05097 -24.2554,-8.57511 -25.30638,-21.50045z" fill="url(#color-8)" stroke="#000000" stroke-width="0" stroke-linecap="butt"/><path d="M195.58373,127.36697c-0.28426,-3.49597 2.11462,-4.1227 3.94329,-5.58714c2.93034,-2.34668 6.62376,-4.32864 12.22583,-4.78415c5.41185,-0.44004 8.49018,0.99388 11.5241,2.64558c2.06651,1.12503 4.95398,1.36056 5.25372,5.04675c0.73978,9.09806 -6.03594,17.07317 -15.13399,17.81295c-9.09805,0.73978 -17.07316,-6.03594 -17.81294,-15.13399z" fill="#000000" stroke="none" stroke-width="0" stroke-linecap="butt"/><path d="M269.14617,160.02574c-12.92534,1.05097 -24.2554,-8.57511 -25.30637,-21.50045c-1.05097,-12.92534 8.57511,-24.2554 21.50045,-25.30637c12.92534,-1.05097 24.2554,8.5751 25.30638,21.50045c1.05097,12.92534 -8.57511,24.2554 -21.50045,25.30638z" data-paper-data="{&quot;index&quot;:null}" fill="url(#color-9)" stroke="#000000" stroke-width="0" stroke-linecap="butt"/><path d="M244.62489,85.19088l-8.36149,31.19405l-5.75666,-21.01638l-11.76182,4.6928l5.33883,-14.75708" fill="url(#color-10)" stroke="#000000" stroke-width="0" stroke-linecap="round"/><path d="M271.73183,65.31615l-2.44249,-11.13655l9.81769,4.96535l0.6782,10.70366z" fill="url(#color-11)" stroke="#000000" stroke-width="0" stroke-linecap="round"/><path d="M314.9834,25.44716l4.80553,-9.42045l9.15037,-3.2416l-4.63482,11.51989z" fill="url(#color-12)" stroke="#000000" stroke-width="0" stroke-linecap="round"/><path d="M280.01098,68.93387l-8.13947,5.18864l-9.3894,-4.42381l9.23259,-4.59315z" fill="url(#color-13)" stroke="#000000" stroke-width="0" stroke-linecap="round"/><path d="M339.41724,70.76349l7.23877,6.32777l-9.4033,2.49368l-8.72997,-8.12774z" fill="url(#color-14)" stroke="#000000" stroke-width="0" stroke-linecap="round"/><path d="M296.15795,77.48934l-14.59028,-8.10133l1.79593,-22.33331l6.68892,18.80548l19.44529,4.35268l11.55203,-10.227l-3.36329,-15.98l-13.72558,-13.33147l-9.01829,3.3132l3.69017,-8.55578l16.01545,0.24571l17.31997,16.28916l1.43795,17.68449l-5.27585,11.26463l-47.08959,33.23994l-11.05002,-5.80928l-5.59281,-11.67085z" fill="url(#color-15)" stroke="#000000" stroke-width="0" stroke-linecap="round"/><g stroke="#000000" stroke-width="0" stroke-linecap="round"><path d="M224.56772,189.99898c0,0 1.54331,-13.24185 18.55163,-14.0563c19.36039,-0.92707 20.47961,14.02517 20.47961,14.02517c0,0 -4.33401,4.75565 -19.19206,5.97694c-20.76112,1.70651 -19.83918,-5.9458 -19.83918,-5.9458z" fill="#000000"/><path d="M227.6589,191.40162c0,0 2.51523,1.46143 4.36209,1.7851c4.80378,0.84188 8.83557,0.75641 12.69632,0.48415c3.63462,-0.25631 7.10351,-0.62059 11.36382,-2.33236c1.65964,-0.66684 5.43921,-2.52481 5.43921,-2.52481l0.35135,2.28699c0,0 -3.73665,1.7529 -5.55982,2.39939c-4.8063,1.70429 -8.87131,1.87552 -12.92202,2.1308c-3.9178,0.2469 -7.81795,0.62546 -12.61266,-0.53095c-1.74444,-0.42074 -3.35338,-2.52142 -3.35338,-2.52142l0.23509,-1.1769z" fill="#9d9d9d"/></g><path d="M232.34046,195.56732c1.19284,-0.45541 2.87141,2.11672 2.50965,3.03715c-0.38806,0.98732 -2.28626,0.79917 -2.9661,0.27022c-0.87467,-0.68053 -0.46095,-2.28979 -0.53954,-3.21964c0,0 -0.04052,-0.49836 0.45784,-0.53888c0.46423,-0.03775 0.53117,0.39211 0.53816,0.45116z" fill="url(#color-16)" stroke="none" stroke-width="0.5" stroke-linecap="butt"/><path d="M252.27195,195.50796l0.7476,-0.13495c1.43259,2.36853 2.5236,0.39473 3.11272,-1.28909l-0.03848,-0.47315c-0.02238,-0.27523 0.1826,-0.51649 0.45783,-0.53887c0.19895,-0.01618 0.38014,0.08643 0.47376,0.2485l0.26182,0.4321l-0.024,0.01453l0.05461,0.04452c0.4228,1.4416 2.03489,1.93258 0.91028,3.2128c-1.9904,0.50036 -3.53988,1.60179 -5.72559,1.77952c-0.65978,0.05365 -1.92221,0.40131 -2.173,-0.63672c-0.12389,-0.51276 1.01082,-1.83831 0.94027,-2.65905c0,0 -0.04053,-0.49836 0.45783,-0.53887c0.49836,-0.04052 0.53888,0.45783 0.53888,0.45783c0.00201,0.02593 0.00384,0.05293 0.00547,0.08092z" fill="url(#color-17)" stroke="none" stroke-width="0.5" stroke-linecap="butt"/><path d="M214.07776,161.22533c1.72589,0.17622 3.01155,3.31447 1.92498,4.70122c-0.53509,0.68291 -1.60787,1.00374 -2.33267,1.42783c-0.62542,0.06353 -1.24762,0.11412 -1.87509,0.15247l-0.51257,-0.1954c-0.4923,0.17442 -1.09216,0.23083 -1.78732,0.1159c-2.47384,0.17867 -4.25189,-3.43307 -2.68432,-5.45215c1.10789,-1.427 3.27025,-0.55949 4.26458,0.63797c0.72171,-0.85026 1.84417,-1.50611 3.00241,-1.38784z" fill="#350604" stroke="none" stroke-width="0.5" stroke-linecap="butt"/><path d="M216.29822,193.22754c-0.15546,-0.31523 -0.45418,-0.66736 -0.48077,-0.99092c-0.15779,-1.92031 -0.31231,-3.84089 -0.46847,-5.76133c-0.55244,-6.79409 -0.6913,-13.59648 -1.23924,-20.3353c0,0 -0.08105,-0.99671 0.91566,-1.07775c0.99671,-0.08104 1.07775,0.91566 1.07775,0.91566c0.54795,6.73894 0.68671,13.53996 1.23925,20.3353c0.18401,2.26308 0.42544,4.52983 0.55073,6.79695c0.00475,0.08593 0.04826,0.29076 0.08895,0.53784c1.59633,0.50262 2.87443,1.35571 1.46654,3.09872c-0.91938,1.13821 -2.99396,-0.2469 -3.91137,-1.46442c-0.15971,-0.05904 -0.31587,-0.12014 -0.46573,-0.17955c-0.97851,0.37113 -2.7632,-0.0996 -4.05082,-0.96448c-0.80446,-0.54034 -1.02111,-3.81594 -1.42856,-5.00199c-1.41699,-4.18997 -2.05501,-7.95567 -2.40187,-12.40314c0.34714,-2.97232 0.50628,-6.29762 0.33472,-9.30397c-0.29359,-0.24807 -0.09248,-0.61027 -0.09248,-0.61027l0.0466,-0.08219c-0.00492,-0.06499 -0.01001,-0.12979 -0.01526,-0.19441c0,0 -0.03601,-0.44287 0.37735,-0.52758c1.53422,-2.98315 4.10131,0.25611 3.69574,2.80353c-0.53767,3.10901 -0.1961,8.62562 0.81842,11.62551c0.22141,2.53095 0.70292,5.30027 1.45085,7.7191c0.4224,1.36607 1.21605,2.57504 1.28885,4.01726c0.19732,0.32564 0.34826,0.62147 0.45785,0.88923c0.22439,0.04968 0.47707,0.10145 0.74529,0.15821z" fill="url(#color-18)" stroke="none" stroke-width="0.5" stroke-linecap="butt"/><g stroke="#000000" stroke-width="0" stroke-linecap="round"><path d="M254.14745,131.6931l-5.8841,9.34843l-13.31601,-0.90792l9.21915,-9.15924z" fill="url(#color-19)"/><path d="M268.80407,158.06828l-10.38529,-10.77743l-5.12287,-16.55699l9.65029,-21.79392l14.34186,-6.00717l8.80188,6.50414l-0.14177,1.19231l-10.07456,0.07661l-6.8773,17.71183l3.89362,15.62651l15.88111,4.20027c0,0 -3.18844,3.44883 -6.88488,7.30472c-2.18336,2.27754 -8.43617,4.67287 -8.43617,4.67287z" fill="url(#color-20)"/><path d="M281.99045,137.0698l6.89777,-10.556l3.2061,12.71559l-8.19034,8.49973z" fill="url(#color-21)"/><path d="M284.11588,147.3433l-8.86935,-3.57026l-3.31878,-11.91829l10.21405,5.04209z" fill="url(#color-22)"/></g><path d="M185.84893,55.70491l7.40324,-11.47485l10.87477,-0.92425l-4.75889,9.994z" fill="url(#color-23)" stroke="#000000" stroke-width="0" stroke-linecap="round"/><path d="M298.23196,33.27706c0,0 -20.40817,18.99788 -43.22741,31.91641c-9.88154,5.59419 -21.56276,1.34188 -29.88674,5.00858c-5.19117,2.2867 -9.63768,9.65657 -12.78854,11.11624c-9.93777,4.60379 -25.86154,3.73485 -25.86154,3.73485" fill="none" stroke="url(#color-24)" stroke-width="2.5" stroke-linecap="round"/><path d="M285.80606,47.36536c0,0 -5.79543,2.04154 -17.52575,9.49064c-2.46785,1.56716 -9.0585,9.87373 -12.48467,11.59179c-8.25576,4.13988 -19.3942,3.65007 -26.03003,7.55473c-3.91095,2.30128 -3.01996,4.41349 -8.7389,8.81084c-5.18307,3.98531 -10.99824,4.73962 -10.99824,4.73962" fill="none" stroke="url(#color-25)" stroke-width="2.5" stroke-linecap="round"/><path d="M157.66225,92.14633c0,0 -0.71214,-0.29022 -0.57842,-1.96408c0.25372,-3.17592 0.79319,-3.00185 0.79319,-3.00185l3.32726,0.34801l-1.01918,-2.39136l3.34393,0.55285l-0.78105,-1.99836l5.84018,-1.71198l-3.3223,-2.82265l17.78032,-7.01277l3.68845,-18.03189l6.08356,21.56722l-0.74102,3.56542l-10.84936,6.03682l30.43838,4.12296c0,0 1.61153,3.9884 -2.61955,13.83964c-1.53759,3.57997 -11.3321,7.29481 -11.3321,7.29481l-40.0523,-18.3928z" fill="url(#color-26)" stroke="#000000" stroke-width="0" stroke-linecap="round"/></g></g></g></svg>