<svg version="1.1" xmlns="http://www.w3.org/2000/svg" xmlns:xlink="http://www.w3.org/1999/xlink" width="180.16808" height="286.14364" viewBox="0,0,180.16808,286.14364"><g transform="translate(-142.37364,-24.2998)"><g data-paper-data="{&quot;isPaintingLayer&quot;:true}" fill-rule="nonzero" stroke-linejoin="miter" stroke-miterlimit="10" stroke-dasharray="" stroke-dashoffset="0" style="mix-blend-mode: normal"><g fill="#302b87" stroke-linecap="butt"><path d="M298.94047,175.34796c0.91703,-0.51943 0.82687,7.82748 -6.1787,9.58649c-2.16498,12.30651 10.49076,19.12557 15.42847,21.67137c2.09328,1.07927 -9.67631,2.6956 -13.31124,1.25838c-1.09149,-0.43156 -5.60435,-5.45137 -5.77377,-5.40023c-0.47471,0.03492 -0.957,1.79823 -0.56632,3.2104c0.49286,1.78149 1.92139,3.29382 1.43946,3.30772c-14.91181,0.43029 -7.5373,-84.35479 -7.69485,-84.39085c-0.92277,-0.2113 -4.41158,50.30185 16.65692,50.75668z" data-paper-data="{&quot;index&quot;:null}" stroke="none" stroke-width="0"/><path d="M190.21274,121.05402c-0.15538,0.04446 11.75477,84.31213 -3.15866,84.68204c-0.48197,0.01195 0.8634,-1.5748 1.26002,-3.38014c0.31441,-1.4311 -0.26173,-3.16603 -0.73764,-3.17541c-0.17192,-0.04198 -4.40913,5.21258 -5.4759,5.70205c-3.55261,1.63005 -15.39196,0.64715 -13.35955,-0.54282c4.79413,-2.80692 17.066,-10.29478 14.24425,-22.46748c-7.08982,-1.38083 -7.62742,-9.71089 -6.68384,-9.24139c21.0138,-1.58389 14.82142,-51.83729 13.91132,-51.57683z" data-paper-data="{&quot;index&quot;:null}" stroke="none" stroke-width="0"/><path d="M268.49432,140.06346c-0.15538,0.04446 11.75478,84.31213 -3.15866,84.68204c-0.48197,0.01195 0.8634,-1.5748 1.26002,-3.38014c0.31441,-1.4311 -0.26173,-3.16603 -0.73763,-3.17541c-0.17192,-0.04198 -4.40913,5.21258 -5.4759,5.70205c-3.55261,1.63005 -15.39196,0.64715 -13.35955,-0.54282c4.79413,-2.80692 17.066,-10.29478 14.24425,-22.46748c-7.08982,-1.38083 -7.62742,-9.71089 -6.68384,-9.24138c21.0138,-1.58389 14.82142,-51.83729 13.91132,-51.57684z" data-paper-data="{&quot;index&quot;:null}" stroke="none" stroke-width="0"/><path d="M287.35337,181.1202c0.91703,-0.51943 0.82687,7.82748 -6.1787,9.58649c-2.16498,12.30651 10.49076,19.12557 15.42847,21.67137c2.09328,1.07927 -9.67631,2.6956 -13.31124,1.25838c-1.09149,-0.43156 -5.60436,-5.45137 -5.77378,-5.40023c-0.4747,0.03492 -0.95699,1.79823 -0.56632,3.2104c0.49286,1.78149 1.92139,3.29382 1.43946,3.30772c-14.91182,0.43029 -7.5373,-84.35479 -7.69485,-84.39085c-0.92276,-0.2113 -4.41158,50.30185 16.65692,50.75668z" data-paper-data="{&quot;index&quot;:null}" stroke="none" stroke-width="0"/><path d="M220.82466,189.81536c0.91703,-0.51943 0.82687,7.82747 -6.1787,9.58648c-2.16498,12.30651 10.49077,19.12557 15.42847,21.67137c2.09328,1.07927 -9.67631,2.6956 -13.31124,1.25838c-1.0915,-0.43156 -5.60435,-5.45137 -5.77378,-5.40023c-0.4747,0.03492 -0.95699,1.79823 -0.56631,3.2104c0.49286,1.78149 1.92139,3.29382 1.43946,3.30772c-14.91181,0.43029 -7.5373,-84.35479 -7.69485,-84.39085c-0.92277,-0.2113 -4.41158,50.30186 16.65692,50.75669z" data-paper-data="{&quot;index&quot;:null}" stroke="none" stroke-width="0"/><path d="M201.87801,127.29469c-0.15538,0.04446 11.75477,84.31213 -3.15866,84.68204c-0.48197,0.01195 0.8634,-1.5748 1.26002,-3.38014c0.31441,-1.4311 -0.26173,-3.16603 -0.73763,-3.17541c-0.17192,-0.04198 -4.40913,5.21258 -5.4759,5.70205c-3.55261,1.63005 -15.39196,0.64715 -13.35955,-0.54282c4.79413,-2.80692 17.066,-10.29478 14.24425,-22.46748c-7.08982,-1.38083 -7.62742,-9.71089 -6.68384,-9.24139c21.0138,-1.58389 14.82143,-51.83729 13.91132,-51.57683z" data-paper-data="{&quot;index&quot;:null}" stroke="none" stroke-width="0"/><path d="M195.51359,175.74873c0.91703,-0.51943 0.82687,7.82747 -6.1787,9.58648c-2.16498,12.30651 10.49077,19.12557 15.42847,21.67137c2.09328,1.07927 -9.67631,2.6956 -13.31124,1.25838c-1.0915,-0.43156 -5.60435,-5.45137 -5.77377,-5.40023c-0.4747,0.03492 -0.957,1.79823 -0.56632,3.2104c0.49286,1.78149 1.92139,3.29382 1.43946,3.30772c-14.91181,0.43029 -7.5373,-84.35479 -7.69485,-84.39085c-0.92277,-0.2113 -4.41158,50.30186 16.65692,50.75669z" data-paper-data="{&quot;index&quot;:null}" stroke="none" stroke-width="0"/><path d="M293.18542,121.92461c-0.15538,0.04446 11.75478,84.31213 -3.15866,84.68204c-0.48197,0.01195 0.8634,-1.5748 1.26002,-3.38014c0.31441,-1.4311 -0.26173,-3.16603 -0.73764,-3.17541c-0.17192,-0.04198 -4.40913,5.21258 -5.4759,5.70205c-3.55261,1.63005 -15.39196,0.64715 -13.35955,-0.54282c4.79413,-2.80692 17.06599,-10.29478 14.24425,-22.46748c-7.08982,-1.38083 -7.62742,-9.71089 -6.68384,-9.24138c21.0138,-1.58389 14.82143,-51.83729 13.91132,-51.57684z" data-paper-data="{&quot;index&quot;:null}" stroke="none" stroke-width="0"/><path d="M312.04445,162.98134c0.91703,-0.51943 0.82687,7.82748 -6.1787,9.58649c-2.16498,12.30651 10.49077,19.12557 15.42847,21.67137c2.09328,1.07927 -9.67631,2.6956 -13.31124,1.25838c-1.09149,-0.43156 -5.60436,-5.45137 -5.77378,-5.40023c-0.4747,0.03492 -0.95699,1.79823 -0.56631,3.2104c0.49286,1.78149 1.92139,3.29382 1.43946,3.30772c-14.91182,0.43029 -7.5373,-84.35479 -7.69485,-84.39085c-0.92276,-0.2113 -4.41158,50.30185 16.65692,50.75668z" data-paper-data="{&quot;index&quot;:null}" stroke="#000000" stroke-width="2"/><path d="M176.56694,113.22807c-0.15538,0.04446 11.75477,84.31213 -3.15866,84.68204c-0.48197,0.01195 0.8634,-1.5748 1.26002,-3.38014c0.31441,-1.4311 -0.26173,-3.16603 -0.73764,-3.17541c-0.17192,-0.04198 -4.40913,5.21258 -5.4759,5.70205c-3.55261,1.63005 -15.39196,0.64715 -13.35955,-0.54282c4.79413,-2.80692 17.066,-10.29478 14.24425,-22.46748c-7.08982,-1.38083 -7.62742,-9.71089 -6.68384,-9.24139c21.0138,-1.58389 14.82142,-51.83729 13.91132,-51.57683z" data-paper-data="{&quot;index&quot;:null}" stroke="#000000" stroke-width="2"/></g><path d="M152.51593,122.47898c0,0 11.19584,12.62254 13.35214,-3.21771c4.67523,-20.23318 7.34823,-34.03227 28.06475,-43.32359c6.17414,-2.76909 9.95134,-6.7433 29.6321,-3.35764c0.24144,0.04154 0.35692,0.05342 0.36286,0.03777c0.06961,-0.18337 -14.88819,-4.14551 -18.46139,-8.50348c-3.91011,-4.76888 -5.41845,-10.51999 -4.61095,-13.84526c6.53248,-18.81072 34.14034,-19.08391 36.01807,-19.48342c19.30974,-2.10832 45.48468,17.06325 4.92227,27.1663c-2.05566,0.51201 27.50938,-11.40873 -11.40892,-14.0594c-19.78575,2.60711 -27.68716,8.81808 -4.274,22.39772c6.74771,-0.59946 15.65379,-0.92751 16.56562,-1.61709c22.08812,2.63953 24.51248,6.58172 32.18506,11.3592c6.17518,3.8451 14.06649,10.52308 18.44144,19.63532c3.37192,7.0231 2.06955,16.50787 5.69805,23.52708c6.92091,13.38824 15.05593,2.03251 15.05593,2.03251c0,0 1.44682,8.76553 -1.41643,14.63621c-2.05695,4.21747 -7.30611,6.21507 -12.39886,5.78189c-0.11182,0.59282 -0.36027,10.08548 4.33635,12.21282c3.96083,1.79406 12.64871,-1.42264 12.64871,-1.42264c0,0 -14.65164,6.37914 -15.62705,10.57541c-1.7558,7.55362 19.13588,-1.13314 16.3392,1.26495c-1.37818,1.18175 -7.26428,5.56839 -12.77969,6.82385c-5.31453,1.20974 -10.28488,-0.70231 -10.54628,-0.03679c-3.49395,8.89536 -10.36285,18.18124 -10.36285,18.18124c0,0 -2.29192,-5.28642 -3.77673,-3.14158c-6.07718,8.77862 -11.2964,15.30957 -11.2964,15.30957c0,0 -2.40974,-4.97718 -4.47106,-3.86765c-9.32569,5.01966 -20.06286,7.91078 -31.65348,7.91078c-12.60656,0 -24.772,-3.56633 -35.27102,-9.52744c-2.72845,-1.54916 -0.82623,4.38789 -0.82623,4.38789c0,0 -7.93843,-5.19677 -13.15685,-11.00681c-6.08759,-6.77777 -9.73663,-14.57056 -12.13914,-18.68944c-0.34082,-0.58431 -4.01999,1.58785 -5.934,2.01254c-2.96082,0.65696 -4.48364,-0.08182 -4.48364,-0.08182c0,0 2.67098,-3.37669 3.55098,-5.15497c0.94364,-1.90688 1.93325,-5.92746 1.93325,-5.92746c0,0 -2.66402,1.90888 -4.05965,2.38502c-1.48595,0.50696 -4.60208,0.57008 -4.60208,0.57008c0,0 4.39229,-5.64339 5.74307,-11.5602c0.39327,-1.72262 4.12301,-9.97893 -0.21176,-9.96905c-17.00132,0.5205 -11.08139,-20.4147 -11.08139,-20.4147z" fill="#4e45f0" stroke="#000000" stroke-width="2" stroke-linecap="butt"/><g stroke="#000000"><path d="M209.13606,309.37213l6.47422,-132.55086l37.69176,-2.63249l22.1912,130.82738z" fill="#ffffff" stroke-width="2" stroke-linecap="butt"/><path d="M215.28625,205.35854l1.39017,-26.47557l35.7445,-2.48877l4.47143,25.86856c0,0 -7.22443,4.67931 -21.21734,5.91215c-12.43951,1.09597 -20.38876,-2.81638 -20.38876,-2.81638z" fill="#e6e6e6" stroke-width="0" stroke-linecap="butt"/><path d="M252.47213,189.77666l-1.15946,28.13637" fill="none" stroke-width="2" stroke-linecap="round"/><path d="M209.13606,309.37213l6.47422,-132.55086c0,0 8.35846,35.77271 25.29679,35.30207c28.91891,-0.80351 16.9355,-22.19818 16.9355,-22.19818l17.65065,115.09099z" fill="#94869a" stroke-width="2" stroke-linecap="butt"/><path d="M259.04602,217.40536c0,0 -13.28729,3.1076 -18.85,2.01919c-5.92048,-1.1584 -17.09777,-7.67663 -17.09777,-7.67663" fill="none" stroke-width="0.5" stroke-linecap="round"/><path d="M250.92455,223.45033c0,0 -4.61958,1.40148 -6.87727,1.11908c-2.11107,-0.26405 -6.25857,-2.76217 -6.25857,-2.76217" fill="none" stroke-width="1" stroke-linecap="round"/><path d="M244.87408,253.411c0,0 -11.84262,-4.31476 -15.87436,-6.16805c-0.83786,-0.38514 -12.47598,-13.51718 -12.47598,-13.51718" fill="none" stroke-width="0.5" stroke-linecap="round"/><path d="M237.95462,254.86738c0,0 -8.563,-2.07076 -12.05209,-3.6201c-3.38964,-1.50518 -8.59276,-5.54729 -8.59276,-5.54729" fill="none" stroke-width="1" stroke-linecap="round"/><path d="M213.6251,304.06671l55.41355,-3.13652" fill="none" stroke-width="1" stroke-linecap="round"/><path d="M265.70777,273.08859c0,0 -8.04478,2.27003 -11.85407,2.37045c-4.55891,0.12019 -13.65667,-1.69796 -13.65667,-1.69796" fill="none" stroke-width="0.5" stroke-linecap="round"/><path d="M257.01207,255.1196l9.34859,-2.61799" fill="none" stroke-width="1" stroke-linecap="round"/><path d="M224.86898,269.25544l5.48819,-0.36027" fill="none" stroke-width="1" stroke-linecap="round"/><path d="M254.6102,294.86228c0,0 -15.50533,-3.17751 -22.32216,-6.41803c-6.43654,-3.05975 -17.50347,-12.51392 -17.50347,-12.51392" fill="none" stroke-width="1" stroke-linecap="round"/><path d="M256.85046,283.19047c0,0 -12.43555,0.52149 -18.11406,-0.71707c-5.49955,-1.19951 -15.43735,-6.60092 -15.43735,-6.60092" fill="none" stroke-width="1" stroke-linecap="round"/><path d="M225.73798,297.75973c0,0 -3.7969,-1.36588 -5.11319,-2.73577c-1.52209,-1.58407 -3.49191,-6.21979 -3.49191,-6.21979" fill="none" stroke-width="1" stroke-linecap="round"/></g><path d="M168.30042,136.90227c0,-33.30185 28.7599,-60.29833 64.23702,-60.29833c35.47712,0 64.23702,26.99649 64.23702,60.29833c0,33.30185 -28.7599,60.29833 -64.23702,60.29833c-35.47712,0 -64.23702,-26.99649 -64.23702,-60.29833z" fill="#ffffff" stroke="#000000" stroke-width="2" stroke-linecap="butt"/><path d="M169.02349,136.95608c0,-0.72799 5.20666,55.91939 63.36046,56.93429c55.56352,0.9697 63.51358,-57.95314 63.51358,-56.93429c0,32.80479 -28.40173,59.39833 -63.43702,59.39833c-35.03529,0 -63.43702,-26.59354 -63.43702,-59.39833z" fill="#e6e6e6" stroke="#000000" stroke-width="0" stroke-linecap="butt"/><path d="M181.85064,137.33175c0,-12.968 10.51265,-23.48065 23.48065,-23.48065c12.968,0 23.48065,10.51265 23.48065,23.48065c0,12.968 -10.51265,23.48065 -23.48065,23.48065c-12.968,0 -23.48065,-10.51265 -23.48065,-23.48065z" fill="#ffffff" stroke="#000000" stroke-width="2" stroke-linecap="butt"/><path d="M182.93391,137.0561c0,-9.12808 7.39976,-16.52784 16.52783,-16.52784c9.12808,0 16.52784,7.39977 16.52784,16.52784c0,9.12808 -7.39977,16.52784 -16.52784,16.52784c-9.12808,0 -16.52783,-7.39977 -16.52783,-16.52784z" fill="#005a00" stroke="none" stroke-width="0" stroke-linecap="butt"/><path d="M239.75144,186.90372c-16.57734,0.52251 -17.80332,-9.19264 -17.80332,-9.19264l40.68696,-6.74255c0,0 -4.80202,15.36526 -22.88364,15.93519z" fill="#2a2580" stroke="#000000" stroke-width="2" stroke-linecap="round"/><path d="M259.58975,160.81237c-12.968,0 -23.48065,-10.51265 -23.48065,-23.48065c0,-12.968 10.51265,-23.48065 23.48065,-23.48065c12.968,0 23.48065,10.51265 23.48065,23.48065c0,12.968 -10.51265,23.48065 -23.48065,23.48065z" data-paper-data="{&quot;index&quot;:null}" fill="#ffffff" stroke="#000000" stroke-width="2" stroke-linecap="butt"/><path d="M252.99652,153.58395c-9.12807,0 -16.52783,-7.39977 -16.52783,-16.52784c0,-9.12808 7.39977,-16.52784 16.52783,-16.52784c9.12807,0 16.52783,7.39977 16.52783,16.52784c0,9.12808 -7.39977,16.52784 -16.52783,16.52784z" data-paper-data="{&quot;index&quot;:null}" fill="#005a00" stroke="none" stroke-width="0" stroke-linecap="butt"/><path d="M181.85064,137.33175c0,-12.968 10.51265,-23.48065 23.48065,-23.48065c12.968,0 23.48065,10.51265 23.48065,23.48065c0,0 -12.04444,-4.1588 -23.93388,-4.00696c-11.58733,0.14798 -23.02743,4.61481 -23.02743,4.00696z" fill="#000000" stroke="#000000" stroke-width="2" stroke-linecap="butt"/><path d="M236.10909,137.3361c0,-12.968 10.51265,-23.48065 23.48065,-23.48065c12.968,0 23.48065,10.51265 23.48065,23.48065c0,0 -11.01671,-4.18575 -22.37833,-4.02772c-12.09602,0.16824 -24.58298,4.66278 -24.58298,4.02772z" fill="#000000" stroke="#000000" stroke-width="2" stroke-linecap="butt"/><path d="M194.48831,108.52328c0,0 6.70895,-5.16922 11.79721,-6.36355c5.08827,-1.19433 12.33413,0.69937 12.33413,0.69937c0,0 -8.03812,-0.06028 -11.96762,0.86207c-4.10648,0.96389 -12.16372,4.80211 -12.16372,4.80211z" fill="#000000" stroke="none" stroke-width="0" stroke-linecap="butt"/><path d="M258.42285,103.72118c-3.9295,-0.92235 -11.96762,-0.86207 -11.96762,-0.86207c0,0 7.24586,-1.8937 12.33413,-0.69937c5.08826,1.19433 11.79721,6.36355 11.79721,6.36355c0,0 -8.05724,-3.83822 -12.16372,-4.80211z" data-paper-data="{&quot;index&quot;:null}" fill="#000000" stroke="none" stroke-width="0" stroke-linecap="butt"/><g fill="none" stroke="#000000" stroke-width="2" stroke-linecap="round"><path d="M178.23745,136.10226l3.6,2.6"/><path d="M286.83744,135.10226l-4.2,3.4"/></g><path d="" fill="#4e45f0" stroke="#4e45f0" stroke-width="3" stroke-linecap="butt"/><g stroke-linecap="butt"><path d="M283.24899,95.2786c1.69336,3.44777 11.6554,22.54618 12.5979,30.07867c2.38681,19.07569 -0.80144,29.69574 -1.62752,29.95848c-0.14104,0.04485 9.42834,39.34651 -4.21405,40.09071c-0.4409,0.02404 0.74774,-1.46214 1.06194,-3.12221c0.24906,-1.31592 -0.32536,-2.88513 -0.76127,-2.88077c-0.15852,-0.03366 -3.89514,4.88198 -4.85846,5.35819c-3.20808,1.58587 -14.07293,1.01049 -12.24462,-0.13196c4.31273,-2.69482 15.34415,-9.86954 12.43133,-20.91288c-6.52772,-1.06831 -7.24547,-8.66346 -6.36895,-8.26025c19.19405,-2.01938 5.73002,-40.68296 3.17667,-44.78207c-0.41803,-0.67111 0.17941,-24.73147 0.80703,-25.39592z" data-paper-data="{&quot;index&quot;:null}" fill="#4e45f0" stroke="#000000" stroke-width="2"/><path d="M170.82107,110.11642c10.12549,-23.29146 29.49152,-34.79283 58.61233,-36.22127c24.13488,-1.18388 39.60565,7.04919 48.54404,14.51738c17.79368,14.40875 4.28669,33.5849 4.28669,33.5849c0,0 -1.9381,-9.55144 -13.33669,-17.97713c-14.72382,-10.88365 -14.61882,-9.65824 -14.61882,-9.65824c0,0 4.62588,1.66449 -3.88642,20.6292c-2.86732,5.67883 -14.10469,14.53046 -19.07207,15.81585c-1.40551,-4.59611 3.95621,-22.25511 -22.80478,-34.455c-7.61155,12.56789 -20.61151,9.90961 -29.5377,28.67191c-3.50668,14.45795 -8.88824,56.69174 14.47108,39.77723c0.82543,-0.4995 -0.218,12.7041 -11.66031,13.28666c-0.08149,0.55863 -0.13019,1.10401 -0.1486,1.63637c-0.35399,10.23778 10.4971,15.65804 14.85942,17.74092c1.94551,0.92893 -8.78511,2.7261 -12.15159,1.5122c-1.01089,-0.36451 -5.27809,-4.82734 -5.43183,-4.77601c-0.43362,0.04482 -0.82737,1.66881 -0.43147,2.94826c0.49943,1.61404 1.84813,2.95667 1.40733,2.98252c-13.63925,0.79928 -8.56384,-39.3309 -8.70904,-39.35957c-0.85046,-0.16789 -5.21621,-10.36057 -4.99619,-29.58376c0.11857,-10.35956 4.60465,-21.07245 4.60465,-21.07245z" fill="#4e45f0" stroke="#000000" stroke-width="2"/><path d="M170.82107,110.11642c10.12549,-23.29146 29.49152,-34.79283 58.61233,-36.22127c24.13488,-1.18388 39.60565,7.04919 48.54404,14.51738c1.56277,1.26547 3.31043,3.46206 5.09926,6.2084c-2.61939,1.61962 -5.13366,3.32865 -7.6183,4.93853l-0.69807,-0.3669l-0.70215,-0.53611l-0.02339,-0.02569l-0.07948,-0.05287l-0.47264,-0.36087l-0.19865,-0.08567l-0.1622,-0.10789l-0.14395,-0.55469l-1.12126,-0.6275l-0.88998,-0.92679l-0.76467,0.00079l-1.57175,-0.87961l-0.24829,-0.16517l-0.56553,-0.50497l-0.02822,-0.10872l-0.25064,-0.14026l-0.20784,-0.18558l-2.03392,-1.06898l-2.00509,-1.12213l-0.2689,-0.07304l-0.30676,-0.16123l-0.25427,-0.14229l-1.34612,-1.40177l-0.4989,0.00051l-0.64892,-0.49547l-0.42751,-0.18435l-0.06114,-0.09423l-0.28212,-0.05381l-0.25587,-0.11033l-2.2676,-0.37096l-1.18707,-0.22641l-0.408,-0.22834l-1.52585,-0.41447l-1.60718,-0.03257l-1.08178,-0.20631l-0.33449,-0.09086l-0.15875,-0.00321l-0.00399,-0.00077l-0.00887,0.0005l-0.46013,-0.00932l-0.58544,-0.23781l-2.52426,-0.35799l-0.90477,0.09453l-0.09365,-0.03805l-0.93089,-0.13202l-0.03972,-0.00757l-0.0098,0.00055l-1.54386,-0.21896l-0.99062,0.10349l-0.97838,-0.18661l-11.49143,0.65014l-1.54386,-0.21896l-0.99062,0.10349l-0.97838,-0.18661l-18.81744,1.06462l-0.09683,-0.05693l-0.27639,0.07803l-0.27819,0.01574l-2.19407,0.6823l-1.21096,0.34191l-0.19687,-0.0419l-0.24539,0.16677l-0.55804,0.15755l-0.24179,0.13849l-0.27427,0.08529l-0.05013,0.10053l-0.40398,0.23139l-1.15948,1.11342l-0.61831,0.42021l-0.13431,0.07693l-0.05114,0.04911l-0.52575,0.35732l-0.15656,0.17534l-0.35123,0.0395l-1.20296,1.57551l-0.53984,0.51841l-0.14103,0.01586l-0.34219,0.44816l-0.4067,0.39055l0.00015,0.14192l-0.82115,1.07546l-1.62925,2.00941l0.01918,0.15209l-0.26131,0.606c-1.16448,0.72903 -2.22102,1.44622 -3.06582,1.99584c-2.18726,1.42299 -13.25694,13.49093 -14.03966,14.71381c-3.20119,5.00129 -3.89614,7.67119 -6.59828,13.41213c-0.54044,1.14822 -1.94317,4.20821 -3.14901,7.38497c-0.05549,-1.66907 -0.07625,-3.42126 -0.05525,-5.25567c0.11857,-10.35956 4.60465,-21.07245 4.60465,-21.07245z" fill="#4e45f0" stroke="#4e45f0" stroke-width="4"/><path d="M234.2441,68.0537l7.05219,10.65874l17.13782,1.21557l-11.78984,10.2346l4.92156,14.21368l-15.67664,-7.24528l-14.75939,8.96724l3.28698,-14.67809l-12.86898,-8.83949l16.89134,-3.14081z" fill="#ffe938" stroke="#000000" stroke-width="2"/></g><g stroke-width="0" stroke-linecap="butt"><path d="M156.96214,30.83551l11.69235,-4.11154l6.10931,8.05825l-7.63575,5.97254l17.75427,0.43619l1.31039,12.19246l-19.02962,0.2725l8.11597,7.7604l-6.45418,7.71749l-7.57271,-1.71415l-16.69627,-16.55079l-0.34596,-6.51476z" data-paper-data="{&quot;index&quot;:null}" fill="#ffffff" stroke="none"/><path d="M165.66926,28.74649c1.93047,-0.86893 3.35028,0.83762 4.3839,2.09384c1.06993,1.30034 2.91522,4.87789 2.91522,4.87789c0,0 -7.6224,3.41981 -6.83125,5.11296c0.3914,0.83762 9.57779,0.79994 15.45509,1.11196c1.65685,0.08796 2.93723,3.6821 3.00703,5.28803c0.17685,4.06921 -0.70609,5.29479 -2.71258,5.57823c-2.42008,0.34187 -15.90526,-1.19192 -16.68495,0.10704c-0.47882,0.7977 8.41186,8.25276 8.41186,8.25276c0,0 -3.07246,3.45038 -4.40818,4.55109c-1.04592,0.8619 -2.60767,1.68364 -3.51273,1.27178c-1.35865,-0.61826 -19.69432,-11.42745 -19.48758,-19.96739c0.20262,-8.36955 17.92081,-17.58353 19.46415,-18.27821z" data-paper-data="{&quot;index&quot;:null}" fill="#c24b99" stroke="#ffffff"/><path d="M166.58936,24.48281c2.37757,-1.05867 4.29354,2.75504 5.56675,4.28601c1.31791,1.58474 4.89393,6.30837 3.45242,7.58781c-2.58067,2.29054 -3.67668,3.18425 -3.67668,3.18425c0,0 4.42374,-0.28155 11.66505,-0.14511c3.58935,0.06765 4.78217,4.71042 4.95233,6.66192c0.47763,5.47811 -0.55688,8.87872 -2.96691,9.51159c-2.77096,0.72766 -14.41844,0.33777 -14.41844,0.33777c0,0 3.62516,2.61735 5.13988,5.17561c1.4126,2.38574 -3.9502,7.15772 -5.5952,8.4989c-1.28809,1.0502 -3.63364,2.04772 -4.74841,1.54574c-1.67347,-0.75358 -23.83802,-13.65942 -23.58435,-24.06618c0.24862,-10.19913 22.31277,-21.73192 24.21355,-22.57828zM145.21819,47.04157c-0.04525,9.58377 19.80482,21.48981 21.13038,21.44971c2.51221,-0.076 7.54901,-6.35569 7.54901,-6.35569c0,0 -9.30576,-7.79372 -8.20753,-8.54973c1.69744,-1.16849 15.70061,-0.21633 18.20995,-0.50776c2.67848,-0.3111 1.74868,-9.84533 -0.11163,-11.01008c-1.27925,-0.80095 -17.1292,0.05588 -17.95493,-1.01683c-1.1958,-1.55349 8.03224,-6.13192 8.03224,-6.13192c0,0 -4.6436,-7.13971 -6.41184,-7.60529c-1.92547,-0.50697 -22.19272,10.62977 -22.23568,19.72761z" data-paper-data="{&quot;index&quot;:null}" fill="#481145" stroke="#1542b7"/></g></g></g></svg>