<svg version="1.1" xmlns="http://www.w3.org/2000/svg" xmlns:xlink="http://www.w3.org/1999/xlink" width="168.19341" height="373.16342" viewBox="0,0,168.19341,373.16342"><defs><linearGradient x1="239.98966" y1="184.3485" x2="239.98966" y2="316.34846" gradientUnits="userSpaceOnUse" id="color-1"><stop offset="0" stop-color="#000000"/><stop offset="1" stop-color="#3f2222"/></linearGradient><linearGradient x1="249.05754" y1="276.64358" x2="249.05754" y2="304.29044" gradientUnits="userSpaceOnUse" id="color-2"><stop offset="0" stop-color="#1a0c12"/><stop offset="1" stop-color="#4d2637"/></linearGradient><linearGradient x1="245.70968" y1="269.56989" x2="245.70968" y2="282.7453" gradientUnits="userSpaceOnUse" id="color-3"><stop offset="0" stop-color="#1a0c12"/><stop offset="1" stop-color="#4d2637"/></linearGradient><linearGradient x1="233.83019" y1="267.84193" x2="233.83019" y2="281.01743" gradientUnits="userSpaceOnUse" id="color-4"><stop offset="0" stop-color="#1a0c12"/><stop offset="1" stop-color="#4d2637"/></linearGradient><linearGradient x1="230.15834" y1="266.33002" x2="230.15834" y2="279.50543" gradientUnits="userSpaceOnUse" id="color-5"><stop offset="0" stop-color="#1a0c12"/><stop offset="1" stop-color="#4d2637"/></linearGradient><linearGradient x1="233.07421" y1="262.65819" x2="233.07421" y2="274.96961" gradientUnits="userSpaceOnUse" id="color-6"><stop offset="0" stop-color="#1a0c12"/><stop offset="1" stop-color="#4d2637"/></linearGradient><linearGradient x1="252.94539" y1="247.10687" x2="252.94539" y2="277.99352" gradientUnits="userSpaceOnUse" id="color-7"><stop offset="0" stop-color="#1a0c12"/><stop offset="1" stop-color="#4d2637"/></linearGradient><linearGradient x1="242.14331" y1="183.01693" x2="242.14331" y2="250.25159" gradientUnits="userSpaceOnUse" id="color-8"><stop offset="0" stop-color="#000000"/><stop offset="1" stop-color="#3a213e"/></linearGradient><linearGradient x1="240.00005" y1="175.50006" x2="240.00005" y2="307.50005" gradientUnits="userSpaceOnUse" id="color-9"><stop offset="0" stop-color="#000000"/><stop offset="1" stop-color="#935399"/></linearGradient><radialGradient cx="245.05776" cy="164.10745" r="64.40652" gradientUnits="userSpaceOnUse" id="color-10"><stop offset="0" stop-color="#000000"/><stop offset="1" stop-color="#270000"/></radialGradient><linearGradient x1="238.76029" y1="262.27727" x2="238.76029" y2="419.55094" gradientUnits="userSpaceOnUse" id="color-11"><stop offset="0" stop-color="#4d4948"/><stop offset="1" stop-color="#1a1716"/></linearGradient><radialGradient cx="242.45679" cy="236.64491" r="1.98299" gradientUnits="userSpaceOnUse" id="color-12"><stop offset="0" stop-color="#000000"/><stop offset="1" stop-color="#7c0000"/></radialGradient><radialGradient cx="242.45679" cy="236.64491" r="1.98299" gradientUnits="userSpaceOnUse" id="color-13"><stop offset="0" stop-color="#000000" stop-opacity="0"/><stop offset="1" stop-color="#000000" stop-opacity="0"/></radialGradient><radialGradient cx="250.21629" cy="231.64431" r="1.12082" gradientUnits="userSpaceOnUse" id="color-14"><stop offset="0" stop-color="#000000"/><stop offset="1" stop-color="#7c0000"/></radialGradient><radialGradient cx="226.50668" cy="223.97103" r="1.72434" gradientUnits="userSpaceOnUse" id="color-15"><stop offset="0" stop-color="#000000"/><stop offset="1" stop-color="#7c0000"/></radialGradient><radialGradient cx="223.66151" cy="243.54223" r="1.29325" gradientUnits="userSpaceOnUse" id="color-16"><stop offset="0" stop-color="#000000"/><stop offset="1" stop-color="#7c0000"/></radialGradient><radialGradient cx="250.64738" cy="224.31587" r="8.44925" gradientUnits="userSpaceOnUse" id="color-17"><stop offset="0" stop-color="#000000"/><stop offset="1" stop-color="#7c0000"/></radialGradient><radialGradient cx="215.81578" cy="235.86895" r="9.7425" gradientUnits="userSpaceOnUse" id="color-18"><stop offset="0" stop-color="#000000"/><stop offset="1" stop-color="#7c0000"/></radialGradient><linearGradient x1="272.24743" y1="145.98847" x2="272.87374" y2="169.2863" gradientUnits="userSpaceOnUse" id="color-19"><stop offset="0" stop-color="#553f34"/><stop offset="1" stop-color="#4a2722"/></linearGradient><linearGradient x1="252.37524" y1="140.01932" x2="253.36516" y2="176.8432" gradientUnits="userSpaceOnUse" id="color-20"><stop offset="0" stop-color="#7f6d5d"/><stop offset="1" stop-color="#3e342d"/></linearGradient><linearGradient x1="215.55415" y1="142.87052" x2="216.04181" y2="161.01082" gradientUnits="userSpaceOnUse" id="color-21"><stop offset="0" stop-color="#000000"/><stop offset="1" stop-color="#5f302c"/></linearGradient><linearGradient x1="276.38771" y1="137.64604" x2="276.99422" y2="160.20763" gradientUnits="userSpaceOnUse" id="color-22"><stop offset="0" stop-color="#000000"/><stop offset="1" stop-color="#5f302c"/></linearGradient><linearGradient x1="255.25659" y1="172.87665" x2="255.88149" y2="196.1221" gradientUnits="userSpaceOnUse" id="color-23"><stop offset="0" stop-color="#553f34"/><stop offset="1" stop-color="#4a2722"/></linearGradient><linearGradient x1="248.18012" y1="166.41616" x2="248.90304" y2="193.30822" gradientUnits="userSpaceOnUse" id="color-24"><stop offset="0" stop-color="#7f6d5d"/><stop offset="1" stop-color="#3e342d"/></linearGradient><linearGradient x1="244.87864" y1="174.15357" x2="245.4013" y2="193.59634" gradientUnits="userSpaceOnUse" id="color-25"><stop offset="0" stop-color="#5d2f2b"/><stop offset="1" stop-color="#000000"/></linearGradient><linearGradient x1="256.90652" y1="102.91935" x2="259.94393" y2="215.90776" gradientUnits="userSpaceOnUse" id="color-26"><stop offset="0" stop-color="#221c21"/><stop offset="1" stop-color="#4d404c"/></linearGradient><radialGradient cx="321.95459" cy="131.97465" r="15.88689" gradientUnits="userSpaceOnUse" id="color-27"><stop offset="0" stop-color="#3c2d3b"/><stop offset="1" stop-color="#191319"/></radialGradient><radialGradient cx="323.7208" cy="200.09444" r="13.83682" gradientUnits="userSpaceOnUse" id="color-28"><stop offset="0" stop-color="#000000" stop-opacity="0"/><stop offset="1" stop-color="#000000" stop-opacity="0.19657"/></radialGradient><radialGradient cx="323.16592" cy="166.94825" r="23.91791" gradientUnits="userSpaceOnUse" id="color-29"><stop offset="0" stop-color="#605460"/><stop offset="1" stop-color="#332a32"/></radialGradient><linearGradient x1="322.52319" y1="143.03903" x2="323.80866" y2="190.85758" gradientUnits="userSpaceOnUse" id="color-30"><stop offset="0" stop-color="#806a7f"/><stop offset="1" stop-color="#5d4d5c"/></linearGradient><linearGradient x1="245.324" y1="202.48043" x2="245.65832" y2="214.91639" gradientUnits="userSpaceOnUse" id="color-31"><stop offset="0" stop-color="#000000"/><stop offset="1" stop-color="#630000"/></linearGradient><radialGradient cx="196.63946" cy="215.26128" r="1.57732" gradientUnits="userSpaceOnUse" id="color-32"><stop offset="0" stop-color="#000000"/><stop offset="1" stop-color="#630000"/></radialGradient><linearGradient x1="322.52319" y1="143.03903" x2="323.80866" y2="190.85758" gradientUnits="userSpaceOnUse" id="color-33"><stop offset="0" stop-color="#322931"/><stop offset="1" stop-color="#453944"/></linearGradient></defs><g transform="translate(-174.61864,-46.38752)"><g data-paper-data="{&quot;isPaintingLayer&quot;:true}" fill-rule="nonzero" stroke-linejoin="miter" stroke-miterlimit="10" stroke-dasharray="" stroke-dashoffset="0" style="mix-blend-mode: normal"><path d="M180.1931,313.61253v-267.22501h123.18203v267.22501z" fill-opacity="0.01" fill="#000000" stroke="none" stroke-width="0" stroke-linecap="butt"/><path d="M221.65255,184.5064l38.26309,-0.15789l11.57983,111.19652c-1.79994,-0.81338 -3.51553,-1.59229 -4.85732,-2.45196c-1.18727,-0.76067 -1.43337,-8.87639 -1.83874,-10.18216c-1.8957,-6.10631 -7.55414,-3.04021 -11.03343,-5.32934c-1.6778,-1.10388 -2.57948,-3.08938 -4.59716,-3.61621c-1.68197,-0.43918 -3.5478,-1.90359 -5.09504,-1.11803c-2.7486,1.39551 -5.58247,3.18991 -8.29501,5.0623c-2.27706,1.57179 -0.23206,6.53578 -3.70594,8.08028c-5.65423,2.51389 -5.53911,-2.86544 -8.47262,-4.52071c-5.15365,-2.90801 -9.87069,-1.30998 -13.46001,2.01324z" fill="url(#color-1)" stroke="#000000" stroke-width="0" stroke-linecap="butt"/><path d="M246.03368,304.29044v-27.64684h6.04775v27.64684z" fill="url(#color-2)" stroke="none" stroke-width="0" stroke-linecap="butt"/><path d="M245.70968,269.56989c8.70806,0 15.76734,2.94942 15.76734,6.58772c0,3.6383 -7.05928,6.58772 -15.76734,6.58772c-8.70806,0 -15.76734,-2.94942 -15.76734,-6.58772c0,-3.6383 7.05928,-6.58772 15.76734,-6.58772z" fill="url(#color-3)" stroke="none" stroke-width="0" stroke-linecap="butt"/><path d="M233.83019,267.84191c7.03802,0 12.74347,-1.15441 12.74347,2.4839c0,3.6383 -5.92144,13.28344 -12.95946,13.28344c-11.57383,0 -12.52747,-5.54131 -12.52747,-9.17962c0,-3.6383 5.70544,-6.58772 12.74347,-6.58772z" fill="url(#color-4)" stroke="none" stroke-width="0" stroke-linecap="butt"/><path d="M230.15834,266.33002c8.70806,0 15.76734,2.94943 15.76734,6.58772c0,3.63829 -7.05928,6.58772 -15.76734,6.58772c-8.70806,0 -15.76734,-2.94943 -15.76734,-6.58772c0,-3.63829 7.05928,-6.58772 15.76734,-6.58772z" fill="url(#color-5)" stroke="none" stroke-width="0" stroke-linecap="butt"/><path d="M233.07421,262.65819c6.61133,0 11.97088,2.75602 11.97088,6.15574c0,3.39973 -5.35955,6.15574 -11.97088,6.15574c-6.61134,0 -11.97089,-2.75602 -11.97089,-6.15574c0,-3.39972 5.35956,-6.15574 11.97089,-6.15574z" fill="url(#color-6)" stroke="none" stroke-width="0" stroke-linecap="butt"/><path d="M252.94539,247.10687c7.21696,0 13.06745,6.91423 13.06745,15.44335c0,8.52913 -5.85049,15.44335 -13.06745,15.44335c-7.21696,0 -13.06745,-6.91423 -13.06745,-15.44335c0,-8.52913 5.85049,-15.44335 13.06745,-15.44335z" fill="url(#color-7)" stroke="none" stroke-width="0" stroke-linecap="butt"/><path d="M296.59783,196.07491c0,0 -0.33942,7.5719 -3.88961,8.89054c-3.55019,1.31864 -5.83441,-5.27875 -5.83441,-5.27875l-3.33395,4.16744v5.00092l-1.9448,1.66698c0,0 2.34568,9.2973 -0.58088,8.46114c-2.92656,-0.83616 -3.30873,-9.57246 -3.30873,-9.57246c0,0 2.17241,9.97794 -2.07107,12.22449c-4.24348,2.24654 -7.37512,-7.22356 -7.37512,-7.22356l0.55566,23.61548l-31.11688,12.22449l-22.22633,-10.27968l-2.22264,-2.77829l0.83349,-23.33766c0,0 -3.53924,8.70391 -6.94573,6.94573c-3.40649,-1.75818 -1.66698,-11.391 -1.66698,-11.391c0,0 0.02799,8.80427 -3.61178,8.61271c-3.63977,-0.19156 -1.66698,-8.89053 -1.66698,-8.89053l-1.66697,-1.38914v-5.00093l-3.05612,-3.05612c0,0 -2.88219,5.52811 -5.83441,5.00092c-2.95222,-0.52719 -1.94481,-6.39007 -1.94481,-6.39007l12.22448,-15.28061z" fill="url(#color-8)" stroke="#000000" stroke-width="0" stroke-linecap="round"/><path d="M221.89291,175.65796l37.78325,-0.15789l11.43462,111.19652c-1.77737,-0.81337 -3.47144,-1.5923 -4.7964,-2.45196c-1.17238,-0.76067 -1.4154,-8.87639 -1.81569,-10.18216c-1.87193,-6.10631 -7.4594,-3.0402 -10.89506,-5.32934c-1.65676,-1.10388 -2.54713,-3.08938 -4.53951,-3.61621c-1.66088,-0.43918 -3.50331,-1.90359 -5.03115,-1.11803c-2.71413,1.3955 -5.51246,3.18992 -8.19098,5.06231c-2.2485,1.57179 -0.22915,6.53577 -3.65947,8.08028c-5.58333,2.51389 -5.46965,-2.86544 -8.36637,-4.52071c-5.08902,-2.90801 -9.7469,-1.30998 -13.29121,2.01325z" fill="url(#color-9)" stroke="#000000" stroke-width="0" stroke-linecap="butt"/><path d="M181.77506,206.77806l-2.20111,-81.87955l128.76651,-3.46156l2.20112,81.87955z" fill="url(#color-10)" stroke="none" stroke-width="0" stroke-linecap="butt"/><path d="M233.76029,419.55094c0,0 -0.28483,-36.20281 -0.02387,-72.15242c0.08799,-12.12082 0.86954,-24.63388 0.89684,-35.15544c0.00754,-2.90811 -0.93352,-7.82757 -0.92296,-10.45149c0.03131,-7.78053 0.76251,-14.62955 0.76251,-18.76319c0,-9.9535 -0.71252,-20.75109 -0.71252,-20.75109h10c0,0 -0.47502,11.60541 -0.47502,21.93863c0,2.46206 0.71684,6.39707 0.72465,10.21264c0.01165,5.69044 -0.93656,15.05748 -0.94177,22.80137c-0.00549,8.16664 0.73047,18.02775 0.77166,27.07476c0.16828,36.96355 -0.07953,75.24624 -0.07953,75.24624z" fill="url(#color-11)" stroke="#000000" stroke-width="0" stroke-linecap="butt"/><path d="M210.73705,274.43584l2.3217,-18.57364c0,0 -0.01784,8.18509 8.21526,8.03667c7.51718,-0.13551 11.07275,-9.10823 11.07275,-9.10823c0,0 -0.15395,6.04961 8.57245,5.71497c8.00637,-0.30703 6.25074,-7.3223 6.25074,-7.3223c0,0 1.50582,10.01365 11.07275,10.17978c8.85171,0.15371 9.46541,-9.28682 9.46541,-9.28682l3.21467,32.50387l-5.0006,-2.5003c0,0 -0.11912,-6.91945 -3.57185,-11.07275c-3.45274,-4.15329 -5.45718,-2.45393 -8.75104,-3.75045c-3.29386,-1.29652 -4.69432,-5.11246 -8.57245,-5.0006c-3.87813,0.11187 -5.82939,2.41788 -8.92963,5.71497c-3.10025,3.29709 -0.82867,3.96142 -2.3217,6.25074c-1.49304,2.28933 -2.26912,1.58717 -4.10763,1.78593c-1.83851,0.19876 -2.5003,-1.07156 -2.5003,-1.07156c0,0 -4.59741,-5.11007 -8.57245,-5.71497c-3.97504,-0.6049 -7.85808,3.21467 -7.85808,3.21467z" fill="#000000" stroke="#000000" stroke-width="0.5" stroke-linecap="round"/><path d="M240.4738,236.64491c0,-1.09517 0.88781,-1.98299 1.98299,-1.98299c1.09517,0 1.98299,0.88781 1.98299,1.98299c0,1.09517 -0.88781,1.98299 -1.98299,1.98299c-1.09517,0 -1.98299,-0.88781 -1.98299,-1.98299z" fill="url(#color-12)" stroke="url(#color-13)" stroke-width="0" stroke-linecap="butt"/><path d="M249.09548,231.64431c0,-0.61901 0.50181,-1.12082 1.12082,-1.12082c0.61901,0 1.12082,0.50181 1.12082,1.12082c0,0.61901 -0.50181,1.12082 -1.12082,1.12082c-0.61901,0 -1.12082,-0.50181 -1.12082,-1.12082z" fill="url(#color-14)" stroke="none" stroke-width="0" stroke-linecap="butt"/><path d="M224.78234,223.97103c0,-0.95232 0.77201,-1.72434 1.72434,-1.72434c0.95232,0 1.72434,0.77201 1.72434,1.72434c0,0.95232 -0.77201,1.72434 -1.72434,1.72434c-0.95232,0 -1.72434,-0.77201 -1.72434,-1.72434z" fill="url(#color-15)" stroke="none" stroke-width="0" stroke-linecap="butt"/><path d="M222.36826,243.54223c0,-0.71424 0.57901,-1.29325 1.29325,-1.29325c0.71424,0 1.29325,0.57901 1.29325,1.29325c0,0.71424 -0.57901,1.29325 -1.29325,1.29325c-0.71424,0 -1.29325,-0.57901 -1.29325,-1.29325z" fill="url(#color-16)" stroke="none" stroke-width="0" stroke-linecap="butt"/><path d="M250.64738,219.83262c1.25028,-0.37955 3.7596,-1.92718 6.38004,-2.24164c2.62044,-0.31445 2.35313,0.03636 2.24164,1.20704c-0.11149,1.17067 -2.07597,1.08669 -2.5865,2.41407c-0.51053,1.32738 1.13063,1.14875 0.86217,2.0692c-0.26847,0.92046 -1.33343,1.17348 -2.0692,2.0692c-0.73577,0.89572 -0.69331,2.24838 -1.89677,2.75894c-1.20346,0.51056 -2.34183,-0.75964 -3.79354,-0.34487c-1.45171,0.41478 -2.53901,2.66691 -4.65571,2.75894c-2.1167,0.09203 1.48611,-1.39195 0.68973,-2.5865c-0.79637,-1.19456 -1.89384,0.2757 -2.75894,-0.5173c-0.86509,-0.793 0.84577,-0.63831 0.68973,-1.37947c-0.15603,-0.74116 -1.76708,-1.05695 -1.37947,-1.89677c0.38761,-0.83982 2.07594,-1.59246 3.44867,-2.5865c1.37273,-0.99405 0.86572,-0.78954 1.5519,-1.0346c0.68618,-0.24506 2.02596,-0.31018 3.27624,-0.68973z" fill="url(#color-17)" stroke="#000000" stroke-width="0" stroke-linecap="round"/><path d="M216.16067,228.4543c0,0 3.11089,-1.65756 3.96597,-1.67935c0.85508,-0.02179 0.71982,-0.63789 1.0346,1.5519c0.31478,2.18979 -0.46368,4.01506 0,5.64532c0.46367,1.63026 2.29474,2.28163 2.5865,3.44867c0.29176,1.16705 0.35902,1.54514 -1.0346,2.75894c-1.39362,1.2138 -3.53754,1.09373 -4.31084,1.89677c-0.7733,0.80304 0.57555,1.74696 -0.17243,2.75894c-0.74799,1.01198 -1.75742,1.89558 -2.75894,1.20704c-1.00152,-0.68855 0.21802,-2.42249 0,-3.10381c-0.21802,-0.68132 -1.37947,-1.20704 -1.37947,-1.20704l2.0692,-13.27739z" fill="url(#color-18)" stroke="#000000" stroke-width="0" stroke-linecap="round"/><path d="M218.37485,248.74503c0,-0.71807 0.58211,-1.30017 1.30017,-1.30017c0.71807,0 1.30017,0.58211 1.30017,1.30017c0,0.71807 -0.58211,1.30017 -1.30017,1.30017c-0.71807,0 -1.30017,-0.58211 -1.30017,-1.30017z" fill="#000000" stroke="none" stroke-width="0" stroke-linecap="butt"/><path d="M262.58074,255.94597c0,-0.71807 0.58211,-1.30017 1.30017,-1.30017c0.71807,0 1.30017,0.58211 1.30017,1.30017c0,0.71807 -0.58211,1.30017 -1.30017,1.30017c-0.71807,0 -1.30017,-0.58211 -1.30017,-1.30017z" fill="#000000" stroke="none" stroke-width="0" stroke-linecap="butt"/><g stroke-width="0"><path d="M221.02197,153.11858l97.8264,-8.38285l6.07941,20.32884c-1.55214,-0.06094 -3.34163,0.16817 -5.44183,0.7286c-0.91825,0.24504 -1.21399,1.29277 -1.58395,2.28266l-3.07435,-14.72753l-43.26847,0.16262l-13.492,9.86772l-5.18045,-6.61431l-23.22533,1.37476l-4.60796,5.37665l-3.00614,-0.16933l-1.62738,-4.70875z" fill="url(#color-19)" stroke="#57372f" stroke-linecap="butt"/><path d="M303.15384,156.41363l-4.68859,2.37724l-0.1223,4.75578l-5.20866,1.64081l2.16221,-3.30985l-3.31656,-2.41217l-0.08735,-3.24937l-6.55248,-1.82491l2.62719,4.68189l-4.72219,1.12747l-3.38375,-4.91167l-2.27645,-0.93934l-5.59435,5.90343l-4.62008,-4.37818l-14.30098,-1.61661l-4.52734,8.37606l-3.22249,1.08716l-0.22174,-8.2484l-8.66767,3.23459l1.08716,3.22248l3.2964,1.66232l-4.37818,4.62008l-2.74947,0.07392l-0.82376,-2.72931l-2.0332,-1.19601l0.04164,-7.75521l-5.05277,-1.86521l-7.35744,5.45057l-3.08138,6.33613l-1.9929,0.30371l-5.81474,-11.5999l3.82855,12.15354l-7.52541,-0.79823l-3.04512,-10.92393l-2.95237,1.8303l0.05375,1.9996l1.29007,1.46612l-4.5878,6.1265l-0.10618,-13.25413l-6.62103,4.9305l0.64772,5.48549l2.06009,2.19582l-1.92571,2.80322l-4.81627,-2.37184l5.82679,-25.16984l122.1577,3.46967l10.68394,29.80972c-0.24693,-0.0577 -0.48336,-0.13268 -0.70408,-0.23421c-1.38691,-0.63791 -2.57663,-2.13177 -3.96278,-2.77889c-1.55446,-0.72569 -3.36152,-1.10579 -5.22179,-1.14657z" fill="url(#color-20)" stroke="#57372f" stroke-linecap="butt"/><path d="M185.70424,161.41107c-4.41904,-1.12156 -3.1329,-8.80165 -3.19833,-11.23589c-0.06544,-2.43424 0.68432,-25.90669 0.68432,-25.90669l65.78263,-3.7001c0,0 0.68518,28.0497 -0.08566,30.71859c-0.77085,2.66889 -1.09592,3.91007 -3.79103,5.8945c-2.69511,1.98443 -6.62592,2.51737 -8.08565,2.85035c-1.45973,0.33298 -0.79386,0.90525 -3.6906,-0.16408c-2.89675,-1.06934 -5.66728,-3.46056 -6.94694,-3.76274c-1.27965,-0.30219 1.56347,0.79147 -2.06243,1.63524c-3.62589,0.84377 -6.2405,1.40082 -9.4507,1.04396c-3.2102,-0.35686 -5.73705,-2.66997 -7.71504,-2.95219c-1.97798,-0.28221 -1.18021,1.90594 -4.70767,1.17975c-3.52744,-0.72618 -2.8803,-5.01821 -7.73626,-3.74152c-4.85595,1.2767 -4.57758,9.26236 -8.99663,8.14082z" fill="url(#color-21)" stroke="#61352d" stroke-linecap="round"/><path d="M306.75808,117.23114c0,0 0.45452,36.3203 -2.40584,40.46377c-2.86036,4.14347 -11.65121,0.21868 -12.89941,0.08347c-1.24822,-0.13521 -2.01277,-1.5 -2.6806,-1.77104c-0.66783,-0.27105 0.80893,-0.02175 -1.57865,0.04244c-2.38757,0.06418 -2.14491,0.91399 -6.05151,0.16268c-3.9066,-0.7513 -5.93709,-3.48031 -9.56388,-3.16579c-3.62679,0.31453 -5.55884,3.91172 -8.03615,4.69212c-2.47731,0.7804 -3.10753,0.88694 -6.58479,-0.08628c-3.47726,-0.97323 -6.1146,-0.57718 -8.00643,-3.99756c-1.89185,-3.42038 -3.14216,-33.1402 -3.14216,-33.1402z" fill="url(#color-22)" stroke="#61352d" stroke-linecap="round"/></g><g stroke-width="0"><path d="M308.79057,194.69977l-86.30714,-0.4313l-35.49848,-8.55072l11.45207,-11.31366l2.05336,1.94586l-6.0136,8.91628l39.57965,2.18772l9.58012,-6.51084l4.49912,-0.12095l1.18795,6.97177l57.29263,0.46089l13.25841,-16.61991c1.27186,0.84831 2.63165,1.53605 4.0196,2.01733z" fill="url(#color-23)" stroke="#57372f" stroke-linecap="butt"/><path d="M186.85542,177.26928l2.67573,-4.6742l-1.70714,-3.95608l3.58306,-0.69662l1.50182,3.7615l-1.40611,7.24136l-2.90257,3.67981l12.11552,4.07649l0.09783,-3.80451l6.20503,-7.37037l6.59312,-0.37734l0.06451,2.39945l-5.31277,3.3444l3.32827,4.7129l3.03156,1.11909l3.22721,-6.48992l2.98857,-0.48054l0.50203,3.78838l0.08063,2.99931l11.58231,-8.31532l5.3977,7.25856l14.27739,2.61767l0.63856,-6.02013l3.50243,-3.69594l7.13278,4.81073l6.45337,-5.57616l2.24788,1.74047l-1.37819,0.83744l1.70175,3.75614l4.62044,0.67619l4.02703,-6.51141l6.92746,4.61615l5.13431,-2.53921l-2.0748,-2.7456l2.69185,-4.07434l2.62091,0.72994l0.8912,3.37771l0.30316,-3.60993l3.58843,-0.49666l0.46979,2.58866l-1.48676,4.24204l10.25977,-8.97666c0.06817,2.28211 0.63378,4.35129 2.42735,5.80172c0.32777,0.26506 0.65247,0.51377 0.97406,0.74659l-12.49066,14.10078l-112.32224,-0.48236l-6.90996,-5.81741z" fill="url(#color-24)" stroke="#57372f" stroke-linecap="butt"/><path d="M306.98905,177.24484c0.33464,1.66574 -0.17772,29.70314 -0.17772,29.70314l-122.82733,2.05118c0,0 -2.7497,-24.3698 -1.08049,-29.982c1.66921,-5.61219 2.62377,-2.48786 5.27809,-1.3926c2.65432,1.09526 4.57043,6.17294 8.95025,7.26366c4.37981,1.09074 8.32378,-2.29399 13.7143,-1.61939c5.39052,0.67461 2.26764,3.00256 4.79598,3.93589c2.52834,0.93334 2.78757,-0.52923 4.67839,-0.43844c1.89082,0.09081 4.76889,1.32473 7.84491,1.03982c3.07601,-0.28489 6.68207,-2.606 11.18108,-2.802c4.49902,-0.19601 4.47955,1.64502 7.55765,1.98559c3.0781,0.34056 6.5435,0.74986 10.63177,0.02688c4.08828,-0.72299 5.97684,-3.3953 10.21853,-3.71416c4.24169,-0.31887 9.64924,3.05681 15.68141,1.7672c6.03217,-1.28962 11.44644,-6.61915 19.4493,-9.27783c8.00288,-2.65869 3.76924,-0.21267 4.10388,1.45308z" fill="url(#color-25)" stroke="#61352d" stroke-linecap="round"/></g><g><path d="M194.53654,106.2805c0,0 1.88501,13.80527 -0.62171,17.54971c-0.87946,1.3137 -7.00508,0.55636 -9.17551,1.40759c-4.46938,1.75286 -5.83326,4.39101 -5.83326,4.39101c0,0 -1.20027,-7.91172 -0.88243,-9.56441c0.31784,-1.6527 1.99331,-1.229 3.2598,-2.79732c1.2665,-1.56833 1.35554,-3.14399 2.59016,-4.44682c1.23462,-1.30284 2.59582,-1.06997 3.89587,-2.39755c1.30004,-1.32758 0.93661,-3.13313 2.39305,-4.02465c1.45645,-0.89152 4.37403,-0.11758 4.37403,-0.11758z" fill="#44221f" stroke="#a87469" stroke-width="0" stroke-linecap="round"/><path d="M179.99185,218.05707c0,0 -1.8212,-67.7469 -2.40422,-89.43499c-0.02122,-0.78906 -2.96899,-1.89213 -2.96899,-1.89213c0,0 5.05997,-2.64134 5.61247,-4.0795c0.65391,-1.70207 -0.30631,-3.80621 -0.30631,-3.80621c0,0 4.02472,0.6928 5.44635,0.9367c1.22571,0.21028 0.0159,-6.48385 0.0159,-6.48385c0,0 5.94935,1.99368 7.01741,1.33221c2.09659,-1.29847 2.06557,-10.03148 2.06557,-10.03148c0,0 1.80752,3.07798 2.813,3.05094c29.93116,-0.80462 142.57561,-3.83278 142.57561,-3.83278l2.9534,109.8641zM187.1464,205.13674l117.74419,-3.95357l-3.28639,-78.2141l-116.57985,3.13129z" fill="url(#color-26)" stroke="#725771" stroke-width="0" stroke-linecap="butt"/><path d="M306.21427,137.64037c-0.0511,-1.90054 -0.20846,-7.75442 -0.29357,-10.92029c-0.03367,-1.25235 1.10813,-2.11535 2.35946,-2.14899c3.62183,-0.09737 21.46443,-0.57702 27.41298,-0.73692c1.21506,-0.03266 1.97709,1.55636 2.01245,2.8721c0.04968,1.84769 0.18717,6.9626 0.27098,10.08026c0.04011,1.49212 -0.96516,2.55452 -2.64915,2.59978c-6.66836,0.17926 -23.54295,0.63289 -26.89084,0.72288c-1.13114,0.03041 -2.1909,-1.29969 -2.22233,-2.46883z" fill="url(#color-27)" stroke="#725771" stroke-width="0" stroke-linecap="butt"/><path d="M309.98863,204.17284c-0.06816,-2.53546 -0.16915,-6.29248 -0.20618,-7.66966c-0.02713,-1.00902 1.00131,-2.25021 2.13028,-2.28055c3.16305,-0.08503 18.31994,-0.49248 23.63053,-0.63524c1.15403,-0.03103 1.88526,1.51878 1.91754,2.71996c0.03741,1.39172 0.12821,4.76916 0.19145,7.12184c0.03838,1.42781 -0.80681,2.50169 -1.77648,2.52775c-2.76618,0.07436 -16.31492,0.43859 -22.60309,0.60762c-1.96221,0.05275 -3.2455,-0.95707 -3.28405,-2.39172z" fill="url(#color-28)" stroke="#332733" stroke-width="0" stroke-linecap="butt"/><path d="M309.73064,189.42599c-0.20947,-7.79186 -1.03036,-38.32854 -1.16692,-43.40824c-0.0376,-1.39887 1.0542,-2.6318 2.23859,-2.66365c3.15014,-0.08469 17.61369,-0.4735 23.37365,-0.62834c1.47286,-0.03959 2.4054,1.00696 2.43966,2.28085c0.12877,4.79025 0.92892,34.55477 1.16002,43.15138c0.03954,1.47121 -0.6846,2.34252 -1.54364,2.3656c-2.84758,0.07655 -18.6912,0.50246 -24.4011,0.65596c-1.28077,0.03443 -2.06928,-0.5999 -2.10029,-1.75356z" fill="url(#color-29)" stroke="url(#color-30)" stroke-width="2" stroke-linecap="butt"/><path d="M337.5167,209.62773c-0.02097,-0.78022 0.59451,-1.4297 1.37472,-1.45067c0.78021,-0.02097 1.42969,0.5945 1.45067,1.37472c0.02097,0.78022 -0.59451,1.4297 -1.37473,1.45067c-0.78021,0.02097 -1.42968,-0.5945 -1.45066,-1.37472z" fill="#2e232e" stroke="none" stroke-width="0" stroke-linecap="butt"/><path d="M183.64551,212.73599c-0.0286,-1.06392 0.8107,-1.94959 1.87461,-1.9782c1.06392,-0.0286 1.94959,0.81069 1.97819,1.87462c0.0286,1.06392 -0.81069,1.94959 -1.87462,1.97819c-1.06392,0.0286 -1.94959,-0.81069 -1.97819,-1.87461z" fill="#2e232e" stroke="none" stroke-width="0" stroke-linecap="butt"/><path d="M334.76703,107.1915c-0.02542,-0.94576 0.72064,-1.73304 1.66642,-1.75848c0.94575,-0.02542 1.73304,0.72063 1.75848,1.66641c0.02542,0.94576 -0.72064,1.73307 -1.66641,1.7585c-0.94575,0.02542 -1.73305,-0.72066 -1.75849,-1.66643z" fill="#2e232e" stroke="none" stroke-width="0" stroke-linecap="butt"/><path d="M323.46702,189.50314l-1.23596,-45.97677" fill="none" stroke-opacity="0.16069" stroke="#40303f" stroke-width="2" stroke-linecap="round"/><path d="M336.24204,177.07885l-26.19905,0.7043" fill="none" stroke-opacity="0.16069" stroke="#40303f" stroke-width="2" stroke-linecap="round"/><path d="M310.00292,166.73152l26.71275,-0.7181" fill="none" stroke-opacity="0.16069" stroke="#40303f" stroke-width="2" stroke-linecap="round"/><path d="M336.15503,154.7188l-26.96961,0.72501" fill="none" stroke-opacity="0.16069" stroke="#40303f" stroke-width="2" stroke-linecap="round"/><path d="M306.53099,105.24673c0,0 -7.58878,4.87612 -11.38621,5.71615c-2.91002,0.64374 -9.45312,-1.10622 -9.45312,-1.10622l7.01982,-4.71488" fill="#44221f" stroke="#725771" stroke-width="0" stroke-linecap="round"/><path d="M304.51733,200.88917l0.0803,7.88981l-2.48004,1.83726l-3.81178,-0.65636l-4.11212,-2.4189l-12.72769,6.41279l-8.00544,-6.10836l-4.82282,-0.62917l-1.53015,-0.46475l-3.03313,0.08154l-2.26804,0.31391l-10.62272,0.03262l-2.57517,-1.70137l-6.81094,0.68898l-2.00169,0.81264l-5.06966,0.1363l-0.53151,3.81928l-2.50076,1.33556l-2.8602,-0.2402l-3.27927,-4.03393l-2.99817,6.42225l-2.86873,-0.55706l-1.695,-4.07651l-3.8789,-2.74948l-7.29616,-0.12094l-2.18391,1.32705l-5.70337,0.15332l-2.80059,1.97779l-2.24352,-0.89094l-4.75282,0.12776l-2.88576,-1.19076l-0.10221,-3.80224z" fill="url(#color-31)" stroke="#9e4138" stroke-width="0" stroke-linecap="round"/><path d="M195.06271,215.30367c-0.02341,-0.87082 0.66354,-1.59573 1.53437,-1.61913c0.87082,-0.02341 1.59573,0.66354 1.61913,1.53437c0.02341,0.87082 -0.66354,1.59573 -1.53437,1.61913c-0.87082,0.02341 -1.59573,-0.66354 -1.61913,-1.53437z" fill="url(#color-32)" stroke="none" stroke-width="0" stroke-linecap="butt"/><path d="M309.73064,189.42599c-0.20947,-7.79186 -1.03036,-38.32854 -1.16692,-43.40824c-0.0376,-1.39887 1.0542,-2.6318 2.23859,-2.66365c3.15014,-0.08469 17.61369,-0.4735 23.37365,-0.62834c1.47286,-0.03959 2.4054,1.00696 2.43966,2.28085c0.12877,4.79025 0.92892,34.55477 1.16002,43.15138c0.03954,1.47121 -0.6846,2.34252 -1.54364,2.3656c-2.84758,0.07655 -18.6912,0.50246 -24.4011,0.65596c-1.28077,0.03443 -2.06928,-0.5999 -2.10029,-1.75356z" fill="none" stroke="url(#color-33)" stroke-width="2.5" stroke-linecap="butt"/></g></g></g></svg>