<svg version="1.1" xmlns="http://www.w3.org/2000/svg" xmlns:xlink="http://www.w3.org/1999/xlink" width="35.50339" height="35.47555" viewBox="0,0,35.50339,35.47555"><defs><radialGradient cx="219.71854" cy="182.47707" r="5.9622" gradientUnits="userSpaceOnUse" id="color-1"><stop offset="0" stop-color="#000000"/><stop offset="1" stop-color="#2f0b05"/></radialGradient><linearGradient x1="239.62503" y1="178.55392" x2="239.62503" y2="180.69616" gradientUnits="userSpaceOnUse" id="color-2"><stop offset="0" stop-color="#800000"/><stop offset="1" stop-color="#ff0000"/></linearGradient></defs><g transform="translate(-222.28848,-162.28848)"><g data-paper-data="{&quot;isPaintingLayer&quot;:true}" stroke-miterlimit="10" stroke-dasharray="" stroke-dashoffset="0" style="mix-blend-mode: normal"><path d="M257.79186,170.03357v20.49804c0,4.00745 -3.22497,7.23243 -7.23242,7.23243h-20.5c-3.66107,0 -6.66147,-2.69385 -7.1543,-6.21484c0.7952,3.03475 3.54108,5.26367 6.83204,5.26367h20.0332c3.9166,0 7.07032,-3.15372 7.07032,-7.07031v-20.03321c0,-3.2976 -2.23906,-6.0451 -5.28321,-6.83398c3.52994,0.48496 6.23438,3.49081 6.23438,7.15821z" fill-opacity="0.29839" fill="#000000" fill-rule="evenodd" stroke="none" stroke-width="4.54219" stroke-linecap="round" stroke-linejoin="round"/><path d="" data-paper-data="{&quot;index&quot;:null}" fill="url(#color-1)" fill-rule="nonzero" stroke="#000000" stroke-width="1" stroke-linecap="butt" stroke-linejoin="miter"/><path d="" fill="none" fill-rule="nonzero" stroke="#000000" stroke-width="0.25" stroke-linecap="round" stroke-linejoin="miter"/><path d="" fill="#000000" fill-rule="nonzero" stroke="none" stroke-width="0" stroke-linecap="butt" stroke-linejoin="miter"/><path d="M229.60814,162.53849h20.03379c3.9166,0 7.06966,3.15307 7.06966,7.06966v20.03379c0,3.91659 -3.15306,7.06966 -7.06966,7.06966h-20.03379c-3.91659,0 -7.06966,-3.15307 -7.06966,-7.06966v-20.03379c0,-3.91659 3.15307,-7.06966 7.06966,-7.06966z" fill="#000000" fill-rule="evenodd" stroke="#ff0000" stroke-width="0.5" stroke-linecap="round" stroke-linejoin="round"/><path d="M253.02876,179.88695c0,0 -2.17749,-1.08814 -5.09509,-0.86662c-3.08918,0.23454 -6.99174,1.7767 -9.41123,1.6706c-2.18425,-0.09577 -5.04871,-1.53148 -7.52082,-1.95947c-2.61587,-0.45287 -4.78031,0.10353 -4.78031,0.10353" fill="none" fill-rule="nonzero" stroke="url(#color-2)" stroke-width="2" stroke-linecap="round" stroke-linejoin="miter"/></g></g></svg>