<svg version="1.1" xmlns="http://www.w3.org/2000/svg" xmlns:xlink="http://www.w3.org/1999/xlink" width="165.02749" height="264.43777" viewBox="0,0,165.02749,264.43777"><g transform="translate(-151.76305,-42.44778)"><g data-paper-data="{&quot;isPaintingLayer&quot;:true}" fill-rule="nonzero" stroke-linejoin="miter" stroke-miterlimit="10" stroke-dasharray="" stroke-dashoffset="0" style="mix-blend-mode: normal"><path d="M305.17064,140.15039c4.00294,25.13587 -2.61642,35.56229 -2.61642,35.56229c0,0 -12.81406,-21.06109 -20.84474,-32.00329c-8.30234,-11.31236 -28.1814,-34.79736 -28.1814,-34.79736l31.23703,-17.89549c0,0 15.97707,21.32591 20.40553,49.13385z" data-paper-data="{&quot;index&quot;:null}" fill="#b3946b" stroke="#000000" stroke-width="2" stroke-linecap="butt"/><path d="M189.25888,94.43261l32.3537,15.78729c0,0 -18.27994,24.75006 -25.81479,36.58749c-7.2883,11.45007 -18.67931,33.31362 -18.67931,33.31362c0,0 -7.29539,-9.9651 -4.96605,-35.31091c2.57695,-28.04019 17.10646,-50.37748 17.10646,-50.37748z" data-paper-data="{&quot;index&quot;:null}" fill="#b3946b" stroke="#000000" stroke-width="2" stroke-linecap="butt"/><path d="M292.86249,186.34486c-8.22808,24.08598 -18.95786,30.20135 -18.95786,30.20135c0,0 -1.46552,-24.60938 -3.44038,-38.03784c-2.04168,-13.88273 -8.61589,-43.94102 -8.61589,-43.94102l35.98023,-1.19284c0,0 4.13667,26.32394 -4.96609,52.97036z" data-paper-data="{&quot;index&quot;:null}" fill="#b3946b" stroke="#000000" stroke-width="2" stroke-linecap="butt"/><path d="M177.73765,137.35584l35.98023,-1.19284c0,0 -4.56894,30.42774 -5.68665,44.41519c-1.08113,13.52977 -0.9135,38.18218 -0.9135,38.18218c0,0 -11.11126,-5.39129 -20.91655,-28.8794c-10.84764,-25.98502 -8.46355,-52.52514 -8.46355,-52.52514z" fill="#b3946b" stroke="#000000" stroke-width="2" stroke-linecap="butt"/><path d="M205.64323,305.88554l15.14285,-131.8421l37.78325,-0.15789l13.57389,132z" fill="#e6be8a" stroke="#000000" stroke-width="2" stroke-linecap="butt"/><path d="M218.59346,202.49817l3.12142,-26.32765l35.83075,-0.14203l2.76735,26.1059c0,0 -7.51543,4.19603 -21.55904,4.50964c-12.48458,0.27879 -20.16049,-4.14586 -20.16049,-4.14586z" fill="#cca97a" stroke="#000000" stroke-width="0" stroke-linecap="butt"/><path d="M173.68074,137.05306c-1.10344,-33.28357 26.74616,-61.21817 62.2038,-62.39369c35.45764,-1.17552 65.09626,24.8532 66.1997,58.13675c1.10344,33.28357 -26.74616,61.21817 -62.2038,62.39369c-35.45764,1.17552 -65.09626,-24.8532 -66.1997,-58.13675z" fill="#e6be8a" stroke="#000000" stroke-width="2" stroke-linecap="butt"/><path d="M174.39995,137.33284c-0.02412,-0.72759 7.05667,55.71616 65.21216,54.80361c55.56514,-0.8719 61.55845,-60.02581 61.59221,-59.00752c1.08697,32.78678 -26.418,60.3068 -61.43405,61.46767c-35.01605,1.16087 -64.28335,-24.47698 -65.37032,-57.26376z" fill="#cca97a" stroke="#000000" stroke-width="0" stroke-linecap="butt"/><path d="M177.62515,102.0279c-2.52735,-29.26859 -0.33514,-52.96103 51.0491,-57.79871c58.53434,-5.51084 57.67407,18.92365 60.20142,48.19223c0,0 -111.14603,10.81647 -111.25051,9.60648z" fill="#804400" stroke="#000000" stroke-width="2" stroke-linecap="butt"/><path d="M153.38456,108.98267l3.6577,-8.01104l154.95217,-13.04555l3.28767,7.07673z" fill="#804400" stroke="#000000" stroke-width="2" stroke-linecap="butt"/><g fill="none" stroke="#987343" stroke-linecap="round"><g stroke-width="1.5"><g><path d="M183.02387,158.87269l2.04503,1.9337"/><path d="M192.85211,161.84602l-5.70456,-5.39399"/></g><g><path d="M283.61699,155.47786l2.04504,1.9337"/><path d="M287.74067,153.0572l5.70456,5.39399"/></g></g><g stroke-width="1"><g><path d="M188.07347,160.61925l-2.04503,-1.9337"/><path d="M190.15212,156.26488l5.70456,5.39399"/></g><g><path d="M286.62156,155.29072l2.04504,1.9337"/><path d="M290.74524,152.87006l5.70456,5.39399"/></g></g></g><path d="M245.3061,177.86141c-6.77196,5.04069 -12.06605,-0.1756 -12.06605,-0.1756" data-paper-data="{&quot;index&quot;:null}" fill="none" stroke="#000000" stroke-width="2" stroke-linecap="round"/><path d="M195.54599,113.4193c0,0 6.53398,-5.38868 11.57988,-6.75095c5.04591,-1.36227 12.35053,0.2903 12.35053,0.2903c0,0 -8.03571,0.20609 -11.93248,1.25814c-4.07229,1.09943 -11.99792,5.20251 -11.99792,5.20251z" fill="#000000" stroke="none" stroke-width="0" stroke-linecap="butt"/><path d="M264.31134,105.35635c-3.9579,-0.79164 -11.98961,-0.46505 -11.98961,-0.46505c0,0 7.17913,-2.13275 12.30419,-1.10767c5.12504,1.02508 12.00159,5.96916 12.00159,5.96916c0,0 -8.17999,-3.56914 -12.31616,-4.39643z" data-paper-data="{&quot;index&quot;:null}" fill="#000000" stroke="none" stroke-width="0" stroke-linecap="butt"/><path d="M288.24052,133.91857c0.42969,12.96088 -9.72885,23.81609 -22.68974,24.24577c-12.96088,0.42969 -23.81609,-9.72885 -24.24577,-22.68974c-0.42969,-12.96088 9.72885,-23.81609 22.68974,-24.24577c12.96088,-0.42969 23.81609,9.72885 24.24577,22.68974z" data-paper-data="{&quot;index&quot;:null}" fill="none" stroke="#000000" stroke-width="2" stroke-linecap="butt"/><path d="M209.76609,113.02668c12.96088,-0.42969 23.81609,9.72885 24.24577,22.68974c0.42969,12.96088 -9.72885,23.81609 -22.68974,24.24577c-12.96088,0.42969 -23.81609,-9.72885 -24.24577,-22.68974c-0.42969,-12.96088 9.72885,-23.81609 22.68974,-24.24577z" data-paper-data="{&quot;index&quot;:null}" fill="none" stroke="#000000" stroke-width="2" stroke-linecap="butt"/><path d="M234.01212,135.72397c0.42969,12.96089 -9.72884,23.81609 -22.68974,24.24577c-12.96089,0.42969 -23.8161,-9.72884 -24.24578,-22.68974c-0.02008,-0.60572 5.77234,17.23648 23.46881,16.02423c13.55988,-0.01453 20.92728,-11.53262 23.09705,-15.92037c0.5113,-1.03396 0.36968,-1.65989 0.36968,-1.65989z" data-paper-data="{&quot;index&quot;:null}" fill="#e6be8a" stroke="#000000" stroke-width="2" stroke-linecap="butt"/><path d="M288.39685,133.92098c0.42969,12.96089 -9.72884,23.81609 -22.68974,24.24577c-12.96089,0.42969 -23.8161,-9.72884 -24.24578,-22.68974c-0.02008,-0.60572 5.77234,17.23648 23.46881,16.02423c13.55988,-0.01453 20.92728,-11.53262 23.09705,-15.92037c0.5113,-1.03396 0.36968,-1.65989 0.36968,-1.65989z" data-paper-data="{&quot;index&quot;:null}" fill="#e6be8a" stroke="#000000" stroke-width="2" stroke-linecap="butt"/></g></g></svg>