<svg version="1.1" xmlns="http://www.w3.org/2000/svg" xmlns:xlink="http://www.w3.org/1999/xlink" width="133.2239" height="267.22501" viewBox="0,0,133.2239,267.22501"><g transform="translate(-173.69591,-46.38752)"><g data-paper-data="{&quot;isPaintingLayer&quot;:true}" fill-rule="nonzero" stroke-linejoin="miter" stroke-miterlimit="10" stroke-dasharray="" stroke-dashoffset="0" style="mix-blend-mode: normal"><path d="M179.19907,313.61253v-267.22501h123.18203c0,0 0,100.78169 0,147.27808c0,42.15174 0,119.94693 0,119.94693z" fill-opacity="0.01" fill="#000000" stroke="none" stroke-width="0" stroke-linecap="butt"/><path d="M194.57863,212.79623v-71.09004h90.04739v71.09005z" fill="#9e5243" stroke="#000000" stroke-width="2" stroke-linecap="butt"/><g stroke="#000000" stroke-width="2"><g stroke-linecap="butt"><path d="M206.66539,307.50005l15.14285,-131.8421l37.78325,-0.15789l13.57389,132z" fill="#c99489"/><path d="M218.41514,215.02585l4.32191,-36.53173l35.83075,-0.14203l3.96783,35.70974c0,0 -9.9164,19.82083 -23.96,20.13444c-14.04361,0.31361 -20.16048,-19.17042 -20.16048,-19.17042z" fill="#fbfdfa"/></g><path d="M259.36213,195.76134c0,0 -12.61935,19.2201 -19.14806,19.13246c-6.31094,-0.08471 -19.39307,-19.64979 -19.39307,-19.64979" fill="none" stroke-linecap="round"/><path d="M240.10624,228.65334l0.32971,-17.3096" fill="none" stroke-linecap="round"/><path d="M244.72214,215.30019l-8.90208,-0.49456" fill="none" stroke-linecap="round"/></g><path d="M201.94319,102.98446c0,0 6.70895,-5.16922 11.79721,-6.36355c5.08827,-1.19433 12.33413,0.69937 12.33413,0.69937c0,0 -8.03812,-0.06028 -11.96762,0.86207c-4.10648,0.96389 -12.16372,4.80211 -12.16372,4.80211z" fill="#000000" stroke="none" stroke-width="0" stroke-linecap="butt"/><path d="M265.87766,98.18235c-3.9295,-0.92235 -11.96762,-0.86207 -11.96762,-0.86207c0,0 7.24586,-1.8937 12.33413,-0.69937c5.08826,1.19433 11.79721,6.36355 11.79721,6.36355c0,0 -8.05724,-3.83822 -12.16372,-4.80211z" data-paper-data="{&quot;index&quot;:null}" fill="#000000" stroke="none" stroke-width="0" stroke-linecap="butt"/><path d="M189.25425,136.48394l-3.6,-2.6" fill="none" stroke="#000000" stroke-width="2" stroke-linecap="round"/><path d="M290.05423,136.28385l4.2,-3.4" fill="none" stroke="#000000" stroke-width="2" stroke-linecap="round"/><path d="M189.25425,141.17547l-3.6,-2.6" fill="none" stroke="#000000" stroke-width="2" stroke-linecap="round"/><path d="M294.25425,137.57545l-4.2,3.4" fill="none" stroke="#000000" stroke-width="2" stroke-linecap="round"/><g><g><path d="M181.59069,135.1874c0,-30.90251 26.6878,-55.95393 59.60885,-55.95393c32.92105,0 59.60885,25.05143 59.60885,55.95393c0,30.90251 -26.6878,55.95394 -59.60885,55.95394c-32.92106,0 -59.60885,-25.05144 -59.60885,-55.95394z" fill="#c99489" stroke="#000000" stroke-width="2" stroke-linecap="butt"/><path d="M182.26165,135.23742c0,-0.67554 4.83153,51.89049 58.79545,52.83227c51.56027,0.89983 58.93754,-53.77771 58.93754,-52.83227c0,30.44126 -26.35543,55.11878 -58.86649,55.11878c-32.51105,0 -58.86649,-24.67752 -58.86649,-55.11878z" fill="#a27871" stroke="#000000" stroke-width="0" stroke-linecap="butt"/><path d="M199.90113,103.91791c0,0 22.79558,-10.09274 39.55264,-10.09274c16.75705,0 41.73486,10.09274 41.73486,10.09274l0.27277,21.27659c0,0 -26.87765,-11.29883 -42.55319,-11.45663c-15.67554,-0.15781 -38.73431,10.63829 -38.73431,10.63829l-0.27278,-20.45826z" fill="#fffffd" stroke="#000000" stroke-width="2" stroke-linecap="round"/><path d="M262.74,163.37737c-11.25705,0 -20.38269,-9.12564 -20.38269,-20.38269c0,-11.25706 9.12563,-20.3827 20.38269,-20.3827c11.25706,0 20.3827,9.12564 20.3827,20.3827c0,11.25706 -9.12564,20.38269 -20.3827,20.38269z" data-paper-data="{&quot;index&quot;:null}" fill="#ffffff" stroke="#000000" stroke-width="2" stroke-linecap="butt"/><path d="M263.01328,159.71703c-8.77811,0 -15.89418,-7.11608 -15.89418,-15.8942c0,-8.77812 7.11608,-15.89419 15.89418,-15.89419c8.77812,0 15.89418,7.11608 15.89418,15.89419c0,8.77812 -7.11607,15.8942 -15.89418,15.8942z" data-paper-data="{&quot;index&quot;:null}" fill="#000000" stroke="none" stroke-width="0" stroke-linecap="butt"/><path d="M242.35731,142.99467c0,-11.25706 9.12565,-20.3827 20.3827,-20.3827c11.25706,0 20.3827,13.14105 20.3827,24.3981c0,0.21925 -6.60122,-3.46687 -14.82562,-4.30854c-11.57467,-1.18451 -25.93977,0.29314 -25.93977,0.29314z" data-paper-data="{&quot;index&quot;:null}" fill="#000000" stroke="#000000" stroke-width="2" stroke-linecap="butt"/><path d="M196.02015,142.99461c0,-11.25706 9.12564,-20.3827 20.38269,-20.3827c11.25706,0 20.38269,9.12564 20.38269,20.3827c0,11.25706 -9.12563,20.38269 -20.38269,20.38269c-11.25706,0 -20.38269,-9.12564 -20.38269,-20.38269z" data-paper-data="{&quot;index&quot;:null}" fill="#ffffff" stroke="#000000" stroke-width="2" stroke-linecap="butt"/><path d="M200.23538,143.82286c0,-8.77811 7.11607,-15.89419 15.89418,-15.89419c8.7781,0 15.89418,7.11607 15.89418,15.89419c0,8.77811 -7.11607,15.8942 -15.89418,15.8942c-8.77811,0 -15.89418,-7.11607 -15.89418,-15.8942z" data-paper-data="{&quot;index&quot;:null}" fill="#000000" stroke="none" stroke-width="0" stroke-linecap="butt"/><path d="M236.78554,142.99467c0,0 -14.3651,-1.47764 -25.93977,-0.29314c-8.22441,0.84167 -14.82563,4.52778 -14.82563,4.30854c0,-11.25706 9.12565,-24.3981 20.3827,-24.3981c11.25706,0 20.3827,9.12565 20.3827,20.3827z" data-paper-data="{&quot;index&quot;:null}" fill="#000000" stroke="#000000" stroke-width="2" stroke-linecap="butt"/><path d="M180.52882,100.09602c0,0 27.39256,-31.12756 63.89158,-30.97773c33.59504,0.13791 55.17909,31.94579 55.17909,31.94579l6.29236,123.42691l-23.71733,15.48887l-1.93611,-136.01162c0,0 -23.46259,-8.71249 -39.69022,-8.71249c-16.22763,0 -40.65828,8.71249 -40.65828,8.71249l-2.90416,136.49564l-22.26525,-15.48887l5.80833,-124.87899z" fill="#9b5548" stroke="#000000" stroke-width="2" stroke-linecap="round"/></g><path d="M253.11364,175.44166l-12.85977,11.12545l-12.85977,-11.12545z" fill="#000000" stroke="none" stroke-width="0" stroke-linecap="butt"/></g></g></g></svg>