<svg version="1.1" xmlns="http://www.w3.org/2000/svg" xmlns:xlink="http://www.w3.org/1999/xlink" width="142.98043" height="296.8345" viewBox="0,0,142.98043,296.8345"><g transform="translate(-174.84004,-11.66555)"><g data-paper-data="{&quot;isPaintingLayer&quot;:true}" fill-rule="nonzero" stroke-linejoin="miter" stroke-miterlimit="10" stroke-dasharray="" stroke-dashoffset="0" style="mix-blend-mode: normal"><path d="M315.16956,16.26385l-19.48684,56.26316l-19.14394,-11.54545z" fill="#b1b1b1" stroke="#000000" stroke-width="2" stroke-linecap="round"/><path d="M292.67512,79.99923l-3.49242,12.52778l-21.75,-15.5l8.25594,-2.151l-6.08359,-9.07564z" fill="#cccccc" stroke="#000000" stroke-width="2" stroke-linecap="round"/><path d="M206.75015,307.50004l15.14285,-131.8421l37.78325,-0.15789l3.15646,30.69516l-14.2002,13.8515l12.65506,6.61153l-6.92997,6.53781l10.54034,5.24648l8.3522,69.05752z" fill="#f4f4f4" stroke="#000000" stroke-width="2" stroke-linecap="butt"/><path d="M219.70036,204.11268l3.12142,-26.32765l35.83075,-0.14203l2.76735,26.1059c0,0 -7.51543,4.19603 -21.55904,4.50964c-12.48458,0.27879 -20.16049,-4.14586 -20.16049,-4.14586z" fill="#cccccc" stroke="#000000" stroke-width="0" stroke-linecap="butt"/><path d="M175.84005,130.36958c0,-33.30185 28.7599,-60.29833 64.23702,-60.29833c35.47712,0 64.23702,26.99649 64.23702,60.29833c0,33.30185 -28.7599,60.29833 -64.23702,60.29833c-35.47712,0 -64.23702,-26.99649 -64.23702,-60.29833z" fill="#f4f4f4" stroke="#000000" stroke-width="2" stroke-linecap="butt"/><path d="M176.5631,130.42342c0,-0.72799 5.20666,55.91939 63.36046,56.93429c55.56352,0.9697 63.51358,-57.95314 63.51358,-56.93429c0,32.80479 -28.40173,59.39833 -63.43702,59.39833c-35.03529,0 -63.43702,-26.59354 -63.43702,-59.39833z" fill="#cccccc" stroke="#000000" stroke-width="0" stroke-linecap="butt"/><path d="M189.39027,130.54905c0,-12.968 10.51265,-23.48065 23.48065,-23.48065c12.968,0 23.48065,10.51265 23.48065,23.48065c0,12.968 -10.51265,23.48065 -23.48065,23.48065c-12.968,0 -23.48065,-10.51265 -23.48065,-23.48065z" fill="#ffffff" stroke="#000000" stroke-width="2" stroke-linecap="butt"/><path d="M196.45565,130.52339c0,-9.12808 7.39976,-16.52784 16.52783,-16.52784c9.12808,0 16.52784,7.39977 16.52784,16.52784c0,9.12808 -7.39977,16.52784 -16.52784,16.52784c-9.12808,0 -16.52783,-7.39977 -16.52783,-16.52784z" fill="#000000" stroke="none" stroke-width="0" stroke-linecap="butt"/><path d="M267.12932,154.02968c-12.968,0 -23.48065,-10.51265 -23.48065,-23.48065c0,-12.968 10.51265,-23.48065 23.48065,-23.48065c12.968,0 23.48065,10.51265 23.48065,23.48065c0,12.968 -10.51265,23.48065 -23.48065,23.48065z" data-paper-data="{&quot;index&quot;:null}" fill="#ffffff" stroke="#000000" stroke-width="2" stroke-linecap="butt"/><path d="M267.01671,147.05126c-9.12807,0 -16.52783,-7.39977 -16.52783,-16.52784c0,-9.12808 7.39977,-16.52784 16.52783,-16.52784c9.12807,0 16.52783,7.39977 16.52783,16.52784c0,9.12808 -7.39977,16.52784 -16.52783,16.52784z" data-paper-data="{&quot;index&quot;:null}" fill="#000000" stroke="none" stroke-width="0" stroke-linecap="butt"/><path d="M272.68271,58.52701l27.25,16.5l2,11.5l-38.25,-24.25z" fill="#646464" stroke="#000000" stroke-width="2" stroke-linecap="round"/><path d="M230.68864,179.2038l9.83696,-14.61218l9.49355,14.61218z" fill="#000000" stroke="#000000" stroke-width="2" stroke-linecap="round"/></g></g></svg>