<svg version="1.1" xmlns="http://www.w3.org/2000/svg" xmlns:xlink="http://www.w3.org/1999/xlink" width="34.17311" height="34.17311" viewBox="0,0,34.17311,34.17311"><g transform="translate(-222.91344,-162.91344)"><g data-paper-data="{&quot;isPaintingLayer&quot;:true}" fill="#8f4445" stroke-linecap="round" stroke-miterlimit="10" stroke-dasharray="" stroke-dashoffset="0" style="mix-blend-mode: normal"><path d="M229.98312,162.91345h20.03378c3.9166,0 7.06966,3.15307 7.06966,7.06966v20.03379c0,3.91659 -3.15307,7.06966 -7.06966,7.06966h-20.03378c-3.91659,0 -7.06967,-3.15307 -7.06967,-7.06966c0,0 0,-7.18141 0,-10.61384c0,-3.23363 0,-9.41995 0,-9.41995c0,-3.91659 3.15308,-7.06966 7.06967,-7.06966z" fill-rule="evenodd" stroke="none" stroke-width="4.43922" stroke-linejoin="round"/><path d="M233.06508,169.98017l15.21446,0.07802l0.27308,6.1248l-8.62153,-2.57476l-6.70997,2.45772z" fill-rule="nonzero" stroke="#000000" stroke-width="0.5" stroke-linejoin="miter"/><path d="M228.80887,193.17058l1.13073,-22.40894c0,0 5.86111,-5.11729 10.38213,-5.13967c4.52102,-0.02238 10.38213,5.03687 10.38213,5.03687l1.43911,22.82012l-4.21453,1.85028l-0.51397,-23.43688l-6.68157,-1.85028l-7.40112,2.15866l-0.10279,23.1285z" fill-rule="nonzero" stroke="#000000" stroke-width="0.5" stroke-linejoin="miter"/></g></g></svg>