<svg version="1.1" xmlns="http://www.w3.org/2000/svg" xmlns:xlink="http://www.w3.org/1999/xlink" width="35.64902" height="35.49716" viewBox="0,0,35.64902,35.49716"><defs><linearGradient x1="239.13702" y1="162.19718" x2="239.13702" y2="196.3703" gradientUnits="userSpaceOnUse" id="color-1"><stop offset="0" stop-color="#000000"/><stop offset="1" stop-color="#552222"/></linearGradient><linearGradient x1="249.11476" y1="182.05922" x2="249.11476" y2="186.68557" gradientUnits="userSpaceOnUse" id="color-2"><stop offset="0" stop-color="#c74f4e"/><stop offset="1" stop-color="#602626"/></linearGradient><linearGradient x1="235.17566" y1="171.88185" x2="235.17566" y2="184.66441" gradientUnits="userSpaceOnUse" id="color-3"><stop offset="0" stop-color="#c74f4e"/><stop offset="1" stop-color="#602626"/></linearGradient><linearGradient x1="226.99889" y1="175.35266" x2="226.99889" y2="179.17842" gradientUnits="userSpaceOnUse" id="color-4"><stop offset="0" stop-color="#c74f4e"/><stop offset="1" stop-color="#602626"/></linearGradient></defs><g transform="translate(-221.80049,-161.94718)"><g data-paper-data="{&quot;isPaintingLayer&quot;:true}" stroke-linecap="round" stroke-miterlimit="10" stroke-dasharray="" stroke-dashoffset="0" style="mix-blend-mode: normal"><path d="M257.4495,169.71387v20.49804c0,4.00745 -3.22497,7.23243 -7.23242,7.23243h-20.5c-3.66107,0 -6.66147,-2.69385 -7.1543,-6.21484c0.7952,3.03475 3.54108,5.26367 6.83204,5.26367h20.0332c3.9166,0 7.07032,-3.15372 7.07032,-7.07031v-20.03321c0,-3.2976 -2.23906,-6.0451 -5.28321,-6.83398c3.52994,0.48496 6.23438,3.49081 6.23438,7.15821z" fill-opacity="0.29839" fill="#000000" fill-rule="evenodd" stroke="none" stroke-width="4.54219" stroke-linejoin="round"/><path d="M229.12015,162.19718h20.03379c3.9166,0 7.06966,3.15307 7.06966,7.06966v20.03379c0,3.91659 -3.15306,7.06966 -7.06966,7.06966h-20.03379c-3.91659,0 -7.06966,-3.15307 -7.06966,-7.06966v-20.03379c0,-3.91659 3.15307,-7.06966 7.06966,-7.06966z" fill="url(#color-1)" fill-rule="evenodd" stroke="#bb4a49" stroke-width="0.5" stroke-linejoin="round"/><g fill-rule="nonzero" stroke-linejoin="miter"><path d="M253.35722,184.44785l-0.57747,2.23771l-7.65152,-2.09334l-0.25593,-2.53301z" fill="url(#color-2)" stroke="#000000" stroke-width="0"/><path d="M224.91668,178.7453c0,0 1.69726,-4.86433 6.54907,-6.24721c5.00442,-1.42638 9.55077,-0.43369 12.29099,3.5764c2.74022,4.01008 1.29931,8.58991 1.29931,8.58991z" fill="url(#color-3)" stroke="#000000" stroke-width="0"/><path d="M227.29875,175.35266c0,0 0.46165,0.68824 0.30698,1.1832c-0.19625,0.62801 -1.24537,2.64256 -1.24537,2.64256" fill="url(#color-4)" stroke-opacity="0.06391" stroke="#000000" stroke-width="0.5"/></g></g></g></svg>