<svg version="1.1" xmlns="http://www.w3.org/2000/svg" xmlns:xlink="http://www.w3.org/1999/xlink" width="168.73537" height="267.22501" viewBox="0,0,168.73537,267.22501"><defs><linearGradient x1="209.87738" y1="107.73576" x2="212.63973" y2="187.53264" gradientUnits="userSpaceOnUse" id="color-1"><stop offset="0" stop-color="#ffffff" stop-opacity="0.06754"/><stop offset="1" stop-color="#666666" stop-opacity="0.33367"/></linearGradient></defs><g transform="translate(-160.12826,-46.3875)"><g data-paper-data="{&quot;isPaintingLayer&quot;:true}" fill-rule="nonzero" stroke-linejoin="miter" stroke-miterlimit="10" stroke-dasharray="" stroke-dashoffset="0" style="mix-blend-mode: normal"><g><path d="M179.14715,313.61251v-267.22501h123.18203v267.22501z" fill-opacity="0.01" fill="#000000" stroke="none" stroke-width="0" stroke-linecap="butt"/><path d="M168.10395,147.71706l149.88598,7.24233c0,0 -10.09411,42.39996 -11.87995,46.26928c-1.78584,3.86932 -10.62943,2.50104 -10.62943,2.50104c0,0 1.22278,10.99558 -0.62526,15.00625c-1.84804,4.01068 -5.17444,5.97702 -9.17043,6.25261c-3.996,0.27559 -8.96213,-5.00208 -8.96213,-5.00208l-8.75365,10.62943l-53.14714,0.62526l-10.00417,-10.62943l-3.1263,3.1263c0,0 -3.08747,4.306 -8.545,1.66748c-3.77966,-1.82733 -4.58548,-7.92008 -4.58548,-7.92008l-0.62526,-14.38099c0,0 -8.14888,-0.39257 -10.62943,-2.50104c-2.48055,-2.10847 -7.95184,-7.57602 -7.95184,-7.57602z" fill="#874e8b" stroke="#000000" stroke-width="2" stroke-linecap="round"/><path d="M206.75006,307.50001l15.14285,-131.8421l37.78325,-0.15789l13.57389,132z" fill="#d477dc" stroke="#000000" stroke-width="2" stroke-linecap="butt"/><path d="M219.70029,204.11264l3.12142,-26.32765l35.83075,-0.14203l2.76735,26.1059c0,0 -7.51543,4.19603 -21.55904,4.50964c-12.48458,0.27879 -20.16049,-4.14586 -20.16049,-4.14586z" fill="#9c58a0" stroke="#000000" stroke-width="0" stroke-linecap="butt"/></g><path d="M162.80437,129.2746c1.76431,-11.70942 6.83609,-22.47752 14.32341,-31.40566c12.29637,-14.66261 30.05617,3.55597 51.43203,2.79914c22.36466,-0.79185 43.67313,-19.53858 56.98651,-4.63052c9.62692,10.78002 15.62327,24.55939 16.16076,39.73969c0.88775,25.07323 -13.34985,47.38731 -35.0044,59.17547c-1.41466,-0.81398 -2.70254,-1.48007 -3.73614,-1.94221c-5.49011,-2.45474 -11.54193,-3.78569 -17.78646,-3.61106c-6.66545,0.1864 -13.3297,0.42235 -19.99164,0.70782c-6.12765,0.26257 -12.58268,2.25973 -18.63449,3.16186c-3.4171,0.50937 -6.84371,0.9721 -10.2583,1.5011c-14.19994,-7.86886 -25.18046,-20.04834 -30.55104,-35.05188c-2.10669,-5.88537 2.89945,-11.75524 2.6682,-18.28659z" fill="#d477dc" stroke="#000000" stroke-width="2" stroke-linecap="butt"/><path d="M300.74379,135.5074c0.88508,24.99796 -13.53032,47.21312 -35.35333,58.71265c-0.83683,-0.45229 -1.60642,-0.83802 -2.27632,-1.14295c33.43536,-16.66864 37.59799,-58.46374 37.62966,-57.56971z" fill="#9c58a0" stroke="#000000" stroke-width="0" stroke-linecap="butt"/><path d="M162.92852,140.38689c-0.02237,-0.6317 4.97272,38.38138 39.20652,53.52347c-1.30416,0.18683 -2.60835,0.37396 -3.91138,0.56762c-20.37972,-10.58953 -34.46494,-30.64314 -35.29514,-54.0911z" fill="#9c58a0" stroke="#000000" stroke-width="0" stroke-linecap="butt"/><path d="M176.87628,140.30163c-0.49875,-14.08632 10.51617,-25.90986 24.6025,-26.40861c14.08632,-0.49875 25.90986,10.51616 26.4086,24.60249c0.49875,14.08632 -10.51617,25.90987 -24.60249,26.4086c-14.08632,0.49875 -25.90986,-10.51617 -26.4086,-24.60249z" fill="#ffffff" stroke="#000000" stroke-width="2" stroke-linecap="butt"/><path d="M262.22242,162.81733c-14.08632,0.49875 -25.90986,-10.51617 -26.40859,-24.60249c-0.49875,-14.08632 10.51616,-25.90986 24.60249,-26.4086c14.08632,-0.49875 25.90987,10.51617 26.40861,24.6025c0.49874,14.08632 -10.51617,25.90986 -24.6025,26.40861z" data-paper-data="{&quot;index&quot;:null}" fill="#ffffff" stroke="#000000" stroke-width="2" stroke-linecap="butt"/><path d="M230.31022,168.36895c1.87931,-2.89791 6.82171,-4.3863 8.67825,0.70216c1.85654,5.08845 0.86927,17.87728 0.86927,17.87728c-7.49693,0.38242 -6.11018,1.07405 -13.59169,1.66757c0,0 2.16486,-17.3491 4.04418,-20.24702z" data-paper-data="{&quot;index&quot;:null}" fill="#000000" stroke="none" stroke-width="0" stroke-linecap="butt"/><path d="M163.6545,105.43616l129.89908,-7.07181c0,0 5.4379,14.07162 -0.67906,17.82651c-6.11696,3.7549 -12.84873,-6.46824 -18.12888,-6.28131c-5.28014,0.18694 -1.2231,5.01401 -12.5098,4.39903c-11.28669,-0.61499 -15.15695,-7.08102 -25.99788,-6.4972c-10.84093,0.5838 -6.75367,6.33701 -19.82022,7.62493c-7.43268,0.73261 -25.35184,-0.58593 -25.35184,-0.58593c0,0 -6.91482,6.50763 -21.59998,6.69893c-3.78201,0.04927 -5.98532,-8.68932 -5.98532,-8.68932z" fill="#874d8a" stroke="#000000" stroke-width="2" stroke-linecap="round"/><path d="M302.49647,109.32575c0,0 2.09091,-0.6132 3.22232,-0.70162c1.23814,-0.09676 3.91524,0.14383 3.91524,0.14383c0,0 -1.88164,8.64356 -3.41148,8.73102c-1.42171,0.08127 -3.72607,-8.17323 -3.72607,-8.17323z" fill="#ffdeff" stroke="none" stroke-width="0" stroke-linecap="butt"/><path d="M305.04698,119.73762c-0.03063,-0.53584 0.47777,-1.00072 1.13555,-1.03832c0.65778,-0.0376 1.21585,0.3663 1.24648,0.90215c0.03063,0.53584 -0.47777,1.00072 -1.13555,1.03832c-0.65778,0.0376 -1.21585,-0.3663 -1.24648,-0.90215z" fill="#ffdeff" stroke="none" stroke-width="0" stroke-linecap="butt"/><g><path d="M165.05186,201.75962l-3.88884,-109.83497l162.77701,-5.76332l3.88884,109.83497zM172.09614,188.77879l117.70625,-4.95607l-3.9523,-78.18327l-116.54895,4.12392z" fill="#9d829c" stroke="#725771" stroke-width="2" stroke-linecap="butt"/><path d="M290.59425,120.53396c-0.06728,-1.90003 -0.27448,-7.75236 -0.38654,-10.91739c-0.04432,-1.252 1.09007,-2.12471 2.34107,-2.169c3.62087,-0.12821 21.45875,-0.75977 27.40571,-0.97033c1.21473,-0.043 1.99027,1.53947 2.03684,2.85485c0.0654,1.84719 0.24645,6.96074 0.3568,10.07759c0.05282,1.49174 -0.94338,2.56264 -2.62692,2.62226c-6.66658,0.23604 -23.53671,0.83335 -26.88369,0.95186c-1.13084,0.04003 -2.20189,-1.28097 -2.24327,-2.44981z" fill="#725771" stroke="#725771" stroke-width="0" stroke-linecap="butt"/><path d="M294.92571,186.76893c-0.08975,-2.53479 -0.22273,-6.29082 -0.27148,-7.66764c-0.03572,-1.00874 0.98211,-2.25865 2.11079,-2.29861c3.16223,-0.11196 18.31506,-0.64846 23.62425,-0.83644c1.15372,-0.04085 1.89812,1.50267 1.94063,2.70354c0.04926,1.39136 0.16881,4.7679 0.25209,7.11995c0.05054,1.42743 -0.78549,2.50846 -1.75488,2.54279c-2.76544,0.09791 -16.31059,0.57749 -22.59712,0.80007c-1.9617,0.06946 -3.25353,-0.92938 -3.30431,-2.36366z" fill="none" stroke="#725771" stroke-width="2" stroke-linecap="butt"/><path d="M294.54216,172.02477c-0.27581,-7.78982 -1.35672,-38.31835 -1.53652,-43.39673c-0.04952,-1.39849 1.03175,-2.64069 2.21583,-2.68261c3.14931,-0.11151 17.60903,-0.62348 23.36746,-0.82736c1.47247,-0.05213 2.41392,0.98643 2.45901,2.25999c0.16956,4.78897 1.22313,34.54561 1.52742,43.13994c0.05209,1.47081 -0.66463,2.34826 -1.52344,2.37866c-2.84684,0.1008 -18.68623,0.66161 -24.39461,0.86372c-1.28043,0.04533 -2.07431,-0.58226 -2.11515,-1.73561z" fill="#ffdeff" stroke="#725771" stroke-width="2" stroke-linecap="butt"/><path d="M322.49924,191.9892c-0.02762,-0.78001 0.58231,-1.43472 1.36233,-1.46233c0.78,-0.02761 1.43472,0.58232 1.46233,1.36233c0.02762,0.78001 -0.58231,1.43472 -1.36233,1.46233c-0.78,0.02761 -1.43472,-0.58232 -1.46233,-1.36233z" fill="#725771" stroke="none" stroke-width="0" stroke-linecap="butt"/><path d="M168.66008,196.40764c-0.03766,-1.06364 0.79406,-1.95642 1.8577,-1.99408c1.06364,-0.03766 1.95642,0.79406 1.99408,1.85771c0.03766,1.06364 -0.79406,1.95641 -1.85771,1.99407c-1.06364,0.03766 -1.95641,-0.79405 -1.99407,-1.8577z" fill="#725771" stroke="none" stroke-width="0" stroke-linecap="butt"/><path d="M163.30316,95.93979c-0.02512,-0.7091 0.52938,-1.30428 1.23846,-1.32938c0.7091,-0.02511 1.30428,0.52938 1.32938,1.23846c0.02512,0.7091 -0.52938,1.30428 -1.23846,1.32938c-0.7091,0.02511 -1.30427,-0.52938 -1.32938,-1.23846z" fill="#725771" stroke="none" stroke-width="0" stroke-linecap="butt"/><path d="M318.87737,89.58008c-0.03348,-0.94551 0.70587,-1.73913 1.65137,-1.77261c0.94551,-0.03348 1.73913,0.70587 1.77261,1.65137c0.03348,0.94551 -0.70587,1.73914 -1.65137,1.77262c-0.94551,0.03348 -1.73912,-0.70588 -1.7726,-1.65138z" fill="#725771" stroke="none" stroke-width="0" stroke-linecap="butt"/><path d="M306.65128,126.0204l1.62743,45.96458" fill="none" stroke="#725771" stroke-width="2" stroke-linecap="round"/><path d="M320.94746,159.45236l-26.19211,0.92736" fill="none" stroke="#725771" stroke-width="2" stroke-linecap="round"/><path d="M294.62118,149.32887l26.70567,-0.94555" fill="none" stroke="#725771" stroke-width="2" stroke-linecap="round"/><path d="M320.67002,137.09387l-26.96245,0.95464" fill="none" stroke="#725771" stroke-width="2" stroke-linecap="round"/></g><path d="M302.49647,109.32575c0,0 2.09091,-0.6132 3.22232,-0.70162c1.23814,-0.09676 3.91524,0.14383 3.91524,0.14383c0,0 -1.88164,8.64356 -3.41148,8.73102c-1.42171,0.08127 -3.72607,-8.17323 -3.72607,-8.17323z" fill="#ffdeff" stroke="none" stroke-width="0" stroke-linecap="butt"/><path d="M305.04698,119.73762c-0.03063,-0.53584 0.47777,-1.00072 1.13555,-1.03832c0.65778,-0.0376 1.21585,0.3663 1.24648,0.90215c0.03063,0.53584 -0.47777,1.00072 -1.13555,1.03832c-0.65778,0.0376 -1.21585,-0.3663 -1.24648,-0.90215z" fill="#ffdeff" stroke="none" stroke-width="0" stroke-linecap="butt"/><g fill="#000000" stroke="none" stroke-width="0" stroke-linecap="butt"><path d="M182.70762,141.23164c-0.24493,-6.91768 5.16439,-12.7241 12.08206,-12.96903c6.91768,-0.24493 12.7241,5.16439 12.96903,12.08207c0.24493,6.91768 -5.1644,12.7241 -12.08207,12.96903c-6.91768,0.24493 -12.72409,-5.1644 -12.96902,-12.08207z"/><path d="M256.31509,151.85037c-6.91766,0.24493 -12.72408,-5.1644 -12.96901,-12.08207c-0.24493,-6.91768 5.16439,-12.7241 12.08206,-12.96903c6.91766,-0.24493 12.72409,5.1644 12.96902,12.08207c0.24493,6.91768 -5.1644,12.7241 -12.08206,12.96902z" data-paper-data="{&quot;index&quot;:null}"/></g><g stroke-linecap="butt"><path d="M171.52612,188.97219l-2.76238,-79.79687l81.96241,-14.0995l5.14546,97.8177z" fill="url(#color-1)" stroke="#725771" stroke-width="2"/><path d="M187.04108,190.13201l-16.76016,-80.11865l10.91169,-3.02105l16.49538,83.93055z" fill-opacity="0.11593" fill="#ffffff" stroke="none" stroke-width="0"/><path d="M207.10193,190.07757l-16.72479,-84.03038l12.23562,-3.02106l16.23059,87.64891z" fill-opacity="0.11593" fill="#ffffff" stroke="none" stroke-width="0"/></g></g></g></svg>