<svg version="1.1" xmlns="http://www.w3.org/2000/svg" xmlns:xlink="http://www.w3.org/1999/xlink" width="34.67311" height="34.67311" viewBox="0,0,34.67311,34.67311"><defs><linearGradient x1="240.93222" y1="167.57745" x2="240.93222" y2="186.90432" gradientUnits="userSpaceOnUse" id="color-1"><stop offset="0" stop-color="#000000"/><stop offset="1" stop-color="#363636"/></linearGradient><linearGradient x1="238.83591" y1="183.93884" x2="238.83591" y2="190.58565" gradientUnits="userSpaceOnUse" id="color-2"><stop offset="0" stop-color="#000000"/><stop offset="1" stop-color="#252525"/></linearGradient><linearGradient x1="238.6314" y1="186.18852" x2="238.6314" y2="191.91501" gradientUnits="userSpaceOnUse" id="color-3"><stop offset="0" stop-color="#1d1d1d"/><stop offset="1" stop-color="#959595"/></linearGradient></defs><g transform="translate(-222.66347,-162.66346)"><g data-paper-data="{&quot;isPaintingLayer&quot;:true}" stroke-linecap="round" stroke-miterlimit="10" stroke-dasharray="" stroke-dashoffset="0" style="mix-blend-mode: normal"><path d="M229.98314,162.91347h20.03379c3.9166,0 7.06966,3.15307 7.06966,7.06966v20.03379c0,3.91659 -3.15306,7.06966 -7.06966,7.06966h-20.03379c-3.91659,0 -7.06966,-3.15307 -7.06966,-7.06966v-20.03379c0,-3.91659 3.15307,-7.06966 7.06966,-7.06966z" fill="#000000" fill-rule="evenodd" stroke="#3d3d3d" stroke-width="0.5" stroke-linejoin="round"/><path d="M234.54106,183.93883l12.78232,-16.36137l-2.65872,19.32686z" fill="url(#color-1)" fill-rule="nonzero" stroke="#000000" stroke-width="0" stroke-linejoin="miter"/><path d="M229.22361,184.96143l5.4197,-1.02259l10.12359,3.17002l3.68131,3.47679z" fill="url(#color-2)" fill-rule="nonzero" stroke="#000000" stroke-width="0" stroke-linejoin="miter"/><path d="M244.35788,189.56306l-0.81807,2.35195l-10.22585,-2.65873l-0.40903,-3.06776z" fill="url(#color-3)" fill-rule="nonzero" stroke="#000000" stroke-width="0" stroke-linejoin="miter"/></g></g></svg>