<svg version="1.1" xmlns="http://www.w3.org/2000/svg" xmlns:xlink="http://www.w3.org/1999/xlink" width="217.26021" height="270.48179" viewBox="0,0,217.26021,270.48179"><defs><linearGradient x1="115.20029" y1="163.44027" x2="147.70602" y2="161.33971" gradientUnits="userSpaceOnUse" id="color-1"><stop offset="0" stop-color="#050409"/><stop offset="1" stop-color="#131313"/></linearGradient><linearGradient x1="170.90438" y1="163.26718" x2="170.08749" y2="150.62607" gradientUnits="userSpaceOnUse" id="color-2"><stop offset="0" stop-color="#ededed"/><stop offset="1" stop-color="#a1a1a1"/></linearGradient><linearGradient x1="168.63065" y1="44.97706" x2="183.40121" y2="74.00919" gradientUnits="userSpaceOnUse" id="color-3"><stop offset="0" stop-color="#050409"/><stop offset="1" stop-color="#131313"/></linearGradient><linearGradient x1="190.79464" y1="96.08217" x2="202.08491" y2="90.33807" gradientUnits="userSpaceOnUse" id="color-4"><stop offset="0" stop-color="#ededed"/><stop offset="1" stop-color="#a1a1a1"/></linearGradient><linearGradient x1="330.2063" y1="213.04331" x2="301.79548" y2="197.11035" gradientUnits="userSpaceOnUse" id="color-5"><stop offset="0" stop-color="#050409"/><stop offset="1" stop-color="#131313"/></linearGradient><linearGradient x1="283.38482" y1="182.8651" x2="277.18869" y2="193.91375" gradientUnits="userSpaceOnUse" id="color-6"><stop offset="0" stop-color="#ededed"/><stop offset="1" stop-color="#a1a1a1"/></linearGradient><linearGradient x1="240.00008" y1="175.50002" x2="240.00008" y2="307.50002" gradientUnits="userSpaceOnUse" id="color-7"><stop offset="0" stop-color="#000000"/><stop offset="1" stop-color="#9d5148"/></linearGradient><linearGradient x1="236.24132" y1="77.39086" x2="236.24132" y2="198.02619" gradientUnits="userSpaceOnUse" id="color-8"><stop offset="0" stop-color="#000000"/><stop offset="1" stop-color="#9d5148"/></linearGradient><linearGradient x1="209.07456" y1="115.37273" x2="209.07456" y2="141.29384" gradientUnits="userSpaceOnUse" id="color-9"><stop offset="0" stop-color="#000000"/><stop offset="1" stop-color="#9d5148"/></linearGradient><linearGradient x1="263.22013" y1="111.87379" x2="263.22013" y2="137.61986" gradientUnits="userSpaceOnUse" id="color-10"><stop offset="0" stop-color="#000000"/><stop offset="1" stop-color="#9d5148"/></linearGradient><radialGradient cx="272.34895" cy="185.08664" r="19.6296" gradientUnits="userSpaceOnUse" id="color-11"><stop offset="0" stop-color="#4a0000"/><stop offset="1" stop-color="#be0000"/></radialGradient><radialGradient cx="177.31715" cy="156.57555" r="26.37529" gradientUnits="userSpaceOnUse" id="color-12"><stop offset="0" stop-color="#4a0000"/><stop offset="1" stop-color="#be0000"/></radialGradient><radialGradient cx="204.54615" cy="93.16043" r="21.65502" gradientUnits="userSpaceOnUse" id="color-13"><stop offset="0" stop-color="#4a0000"/><stop offset="1" stop-color="#be0000"/></radialGradient><linearGradient x1="310.06961" y1="101.56528" x2="310.06961" y2="120.52971" gradientUnits="userSpaceOnUse" id="color-14"><stop offset="0" stop-color="#000000"/><stop offset="1" stop-color="#9d5148"/></linearGradient><linearGradient x1="244.99628" y1="57.3108" x2="244.99628" y2="113.51583" gradientUnits="userSpaceOnUse" id="color-15"><stop offset="0" stop-color="#000000"/><stop offset="1" stop-color="#9d5148"/></linearGradient></defs><g transform="translate(-114.93771,-43.13074)"><g data-paper-data="{&quot;isPaintingLayer&quot;:true}" fill-rule="nonzero" stroke-linejoin="miter" stroke-miterlimit="10" stroke-dasharray="" stroke-dashoffset="0" style="mix-blend-mode: normal"><g stroke="none" stroke-width="0" stroke-linecap="butt"><path d="M115.46286,167.50346l-0.52514,-8.12643l32.50572,-2.10055l0.52514,8.12643z" fill="url(#color-1)"/><path d="M177.1828,150.55223c7.69117,0.60883 18.11872,10.68504 18.11872,10.68504l-47.82647,3.54395l-0.81688,-12.64111c0,0 22.46741,-2.22569 30.52463,-1.58787z" data-paper-data="{&quot;index&quot;:null}" fill="url(#color-2)"/></g><g stroke="none" stroke-width="0" stroke-linecap="butt"><path d="M165.00162,46.82338l7.25803,-3.69264l14.77056,29.03214l-7.25803,3.69263z" fill="url(#color-3)"/><path d="M204.95563,96.82712c2.47896,7.30613 -2.65849,20.86602 -2.65849,20.86602l-22.14876,-42.53661l11.29027,-5.7441c0,0 10.92004,19.76084 13.51697,27.4147z" data-paper-data="{&quot;index&quot;:null}" fill="url(#color-4)"/></g><g stroke="none" stroke-width="0" stroke-linecap="butt"><path d="M332.19793,209.49195l-3.98323,7.10271l-28.41083,-15.93296l3.98324,-7.10271z" fill="url(#color-5)"/><path d="M271.1966,190.11325c-6.12029,-4.69753 -9.38229,-18.82632 -9.38229,-18.82632l42.04834,23.06226l-6.19615,11.04866c0,0 -20.05832,-10.36349 -26.46991,-15.28459z" data-paper-data="{&quot;index&quot;:null}" fill="url(#color-6)"/></g><path d="M179.28377,313.61253v-267.22501h123.18203v267.22501z" fill-opacity="0.01" fill="#000000" stroke="none" stroke-width="0" stroke-linecap="butt"/><path d="M206.75008,307.50001l15.14285,-131.8421l37.78325,-0.15789l13.57389,132z" fill="url(#color-7)" stroke="#000000" stroke-width="0" stroke-linecap="butt"/><path d="M172.138,141.85095c-2.14752,-33.23253 24.81161,-62.02745 60.21488,-64.31525c35.40328,-2.2878 65.84423,22.79788 67.99175,56.0304c2.14752,33.23253 -24.81161,62.02745 -60.21488,64.31525c-35.40328,2.2878 -65.84423,-22.79788 -67.99175,-56.0304z" fill="url(#color-8)" stroke="#000000" stroke-width="0" stroke-linecap="butt"/><path d="M185.6662,141.07308c-0.83626,-12.94101 8.97658,-24.1097 21.91759,-24.94596c12.94101,-0.83626 24.1097,8.97658 24.94596,21.91759c0.83626,12.94101 -8.97658,24.1097 -21.91759,24.94596c-12.94101,0.83626 -24.1097,-8.97658 -24.94596,-21.91759z" fill="#959595" stroke="#000000" stroke-width="0" stroke-linecap="butt"/><path d="M193.15634,147.41789c-0.58864,-9.10908 6.31853,-16.97062 15.42761,-17.55926c9.10908,-0.58864 16.97062,6.31854 17.55926,15.42762c0.58864,9.10908 -6.31854,16.97062 -15.42762,17.55926c-9.10908,0.58864 -16.97061,-6.31855 -17.55925,-15.42762z" fill="#000000" stroke="#000000" stroke-width="2" stroke-linecap="butt"/><path d="M238.25156,174.90415c16.02525,-1.09652 13.80435,13.07881 13.80435,13.07881c0,0 -15.94972,4.5871 -25.14719,1.13323c-0.39323,-2.44729 -1.41549,-13.33906 11.34284,-14.21205z" fill="#000000" stroke="#000000" stroke-width="2" stroke-linecap="round"/><path d="M264.75766,159.49171c-12.94101,0.83626 -24.1097,-8.97658 -24.94596,-21.91759c-0.83626,-12.94101 8.97658,-24.1097 21.91759,-24.94596c12.94101,-0.83626 24.1097,8.97658 24.94596,21.91759c0.83626,12.94101 -8.97658,24.1097 -21.91759,24.94596z" data-paper-data="{&quot;index&quot;:null}" fill="#959595" stroke="#000000" stroke-width="0" stroke-linecap="butt"/><path d="M264.63642,159.3611c-9.10907,0.58864 -16.97061,-6.31855 -17.55925,-15.42762c-0.58864,-9.10908 6.31854,-16.97062 15.42761,-17.55926c9.10907,-0.58864 16.97061,6.31855 17.55925,15.42762c0.58864,9.10908 -6.31854,16.97062 -15.42761,17.55926z" data-paper-data="{&quot;index&quot;:null}" fill="#000000" stroke="#000000" stroke-width="2" stroke-linecap="butt"/><path d="M184.95865,141.1188c-0.83626,-12.94101 9.63841,-24.86298 22.57941,-25.69924c12.94101,-0.83626 24.86297,9.63841 25.69923,22.57942c0,0 -47.49169,4.30308 -47.57111,3.07409z" fill="url(#color-9)" stroke="#000000" stroke-width="0" stroke-linecap="butt"/><path d="M239.10417,137.61986c-0.83626,-12.94101 9.63841,-24.86298 22.57941,-25.69924c12.94101,-0.83626 24.86297,9.63841 25.69923,22.57942c0.07827,1.21127 -47.57111,3.07409 -47.57111,3.07409z" data-paper-data="{&quot;index&quot;:null}" fill="url(#color-10)" stroke="#000000" stroke-width="0" stroke-linecap="butt"/><path d="M196.41981,111.50961c0,0 6.36164,-5.5911 11.3623,-7.11107c5.00066,-1.51997 12.35356,-0.09747 12.35356,-0.09747c0,0 -8.02528,0.4582 -11.88712,1.63203c-4.03578,1.22669 -11.82873,5.57651 -11.82873,5.57651z" fill="#000000" stroke="none" stroke-width="0" stroke-linecap="butt"/><path d="M259.91157,102.59459c-3.9808,-0.66703 -11.9983,-0.08853 -11.9983,-0.08853c0,0 7.10866,-2.35702 12.26336,-1.4933c5.15469,0.86372 12.18302,5.58954 12.18302,5.58954c0,0 -8.28798,-3.31065 -12.44807,-4.00772z" data-paper-data="{&quot;index&quot;:null}" fill="#000000" stroke="none" stroke-width="0" stroke-linecap="butt"/><path d="M222.15681,234.43785c0,0 16.09555,12.12494 23.49385,18.26012c6.91591,5.73514 19.54642,17.43182 19.54642,17.43182" fill="none" stroke="#810000" stroke-width="2" stroke-linecap="round"/><path d="M218.48264,247.035l35.69194,-2.88684l0.52489,5.24882" fill="none" stroke="#810000" stroke-width="2" stroke-linecap="round"/><path d="M251.02529,246.77257v-2.09953" fill="none" stroke="#810000" stroke-width="2" stroke-linecap="round"/><path d="M253.12481,253.85847l-0.52489,-8.92299" fill="none" stroke="#810000" stroke-width="2" stroke-linecap="round"/><path d="M223.99389,246.51012l-0.26244,3.14929" fill="none" stroke="#810000" stroke-width="2" stroke-linecap="round"/><path d="M225.83098,247.55989v4.19905" fill="none" stroke="#810000" stroke-width="2" stroke-linecap="round"/><path d="M227.66806,246.24768l1.04976,11.80983" fill="none" stroke="#810000" stroke-width="2" stroke-linecap="round"/><path d="M230.29247,246.51012l-1.3122,7.61078" fill="none" stroke="#810000" stroke-width="2" stroke-linecap="round"/><path d="M263.36,268.29269v2.36196" fill="none" stroke="#810000" stroke-width="2" stroke-linecap="round"/><path d="M244.72544,194.18225l-0.91456,-3.55892l3.61156,-0.60305l0.57845,8.44801" fill="none" stroke="#810000" stroke-width="2" stroke-linecap="round"/><path d="M281.29433,180.09802c0,0 -7.16148,6.62992 -11.07593,8.93081c-3.77412,2.21841 -12.75604,4.99965 -12.75604,4.99965l6.48869,-4.08715l-6.11459,-0.4988l1.38438,-2.25685l-8.35833,-1.66668l9.15232,-3.162l-7.67592,-4.7502l7.4792,1.50264l-5.77983,-5.73425l9.50642,2.68363l-0.68219,-4.08737l1.93542,-0.33455l2.65719,-2.76855l3.28025,3.92998l1.03006,-0.93159l1.3646,1.00383l4.16626,-6.55405l0.17694,6.50826l1.29903,-0.07868l1.88942,2.49314l8.60128,-5.08432l-7.96865,9.94313z" fill="url(#color-11)" stroke="none" stroke-width="0" stroke-linecap="round"/><path d="M174.38277,145.46141l0.52294,-8.18642l1.92591,-2.75434l-1.06366,7.95838l1.81634,-0.38036l5.82767,-15.6299l-3.5214,14.6919l4.25801,0.77679l-2.80426,5.44098l2.76236,-2.01943l0.88723,1.5206l2.04438,-0.92108l-1.36829,3.24428l1.65599,1.20793l-5.2967,3.49813l6.25161,-0.92996l-2.62697,4.11458l1.91789,1.19101l-1.20793,1.65599l2.11207,0.1265l0.15231,2.35704l-2.09516,0.13539l6.25248,7.22261l-0.68414,1.62214l-2.45859,-1.41906l-4.49494,-4.44332l6.19367,10.38227l0.44806,2.86391l-1.60521,-0.42224l-8.25497,-9.72309l-2.3909,-0.37147l-8.43394,-24.70185z" fill="url(#color-12)" stroke="#000000" stroke-width="0" stroke-linecap="round"/><path d="M229.09555,92.37402l-5.92973,4.18321l4.05451,3.93804l-3.50784,1.42669l2.62171,3.43061l-7.08679,-1.34206l-1.05344,2.26809l-3.9258,-1.94633l-0.73234,1.04734l-1.59336,0.10296l0.77769,2.74977l-2.16513,0.53992l-2.54449,-2.2356l-0.46881,2.03032l-1.60623,-0.0962l-3.46377,-7.17623l0.11648,7.99254l-1.5805,0.30214l-1.39484,-6.10992l-3.62913,8.83459l-6.16816,-2.60143l1.99781,-3.12913l-2.13327,-2.06216l3.96988,-6.6566l-7.23383,5.6675l-0.25741,-3.9834l6.68781,-4.83221l16.06777,-8.23837z" fill="url(#color-13)" stroke="#000000" stroke-width="0" stroke-linecap="round"/><g stroke="#000000" stroke-width="0" stroke-linecap="round"><path d="M329.9754,110.04592l-1.99475,10.48379l-35.88317,-7.36802l-1.93366,-11.59641z" fill="url(#color-14)"/><path d="M197.21729,92.23662c0,0 6.37277,-22.92126 28.31913,-30.73866c22.63665,-8.06329 43.88278,-4.84261 57.70444,12.82068c13.82166,17.66328 8.54548,39.19719 8.54548,39.19719l-94.56906,-21.2792z" fill="url(#color-15)"/></g></g></g></svg>