<svg version="1.1" xmlns="http://www.w3.org/2000/svg" xmlns:xlink="http://www.w3.org/1999/xlink" width="170.49775" height="267.22501" viewBox="0,0,170.49775,267.22501"><defs><linearGradient x1="206.49746" y1="108.91152" x2="210.60419" y2="188.65052" gradientUnits="userSpaceOnUse" id="color-1"><stop offset="0" stop-color="#ffffff" stop-opacity="0.06754"/><stop offset="1" stop-color="#666666" stop-opacity="0.33367"/></linearGradient></defs><g transform="translate(-156.47271,-46.3875)"><g data-paper-data="{&quot;isPaintingLayer&quot;:true}" fill-rule="nonzero" stroke-linejoin="miter" stroke-miterlimit="10" stroke-dasharray="" stroke-dashoffset="0" style="mix-blend-mode: normal"><g><path d="M179.14715,313.61251v-267.22501h123.18203v267.22501z" fill-opacity="0.01" fill="#000000" stroke="none" stroke-width="0" stroke-linecap="butt"/><path d="M163.13263,151.58364l154.8573,3.37574c0,0 -10.09411,42.39996 -11.87995,46.26928c-1.78584,3.86932 -10.62943,2.50104 -10.62943,2.50104c0,0 1.22278,10.99558 -0.62526,15.00625c-1.84804,4.01068 -5.17444,5.97702 -9.17043,6.25261c-3.996,0.27559 -8.96213,-5.00208 -8.96213,-5.00208l-8.75365,10.62943l-53.14714,0.62526l-10.00417,-10.62943l-3.1263,3.1263c0,0 -3.08747,4.306 -8.545,1.66748c-3.77966,-1.82733 -4.58548,-7.92008 -4.58548,-7.92008l-0.62526,-14.38099c0,0 -8.14888,-0.39257 -10.62943,-2.50104c-2.48055,-2.10847 -10.16131,-5.36655 -10.16131,-5.36655z" fill="#874e8b" stroke="#000000" stroke-width="2" stroke-linecap="round"/><path d="M206.75006,307.50001l15.14285,-131.8421l37.78325,-0.15789l13.57389,132z" fill="#d477dc" stroke="#000000" stroke-width="2" stroke-linecap="butt"/><path d="M219.70029,204.11264l3.12142,-26.32765l35.83075,-0.14203l2.76735,26.1059c0,0 -7.51543,4.19603 -21.55904,4.50964c-12.48458,0.27879 -20.16049,-4.14586 -20.16049,-4.14586z" fill="#9c58a0" stroke="#000000" stroke-width="0" stroke-linecap="butt"/></g><path d="M159.79412,131.24059c1.56672,-11.73749 6.45632,-22.58953 13.79212,-31.64259c12.04752,-14.86775 30.11183,3.04895 51.4719,1.93199c22.34814,-1.16864 43.33765,-20.2718 56.90039,-5.59022c9.80722,10.61626 16.03494,24.29262 16.82818,39.4617c1.31017,25.05471 -12.54937,47.60556 -34.00218,59.75697c-1.42818,-0.79002 -2.7271,-1.43431 -3.76834,-1.87897c-5.5307,-2.36187 -11.60409,-3.59065 -17.84479,-3.3108c-6.66137,0.2987 -13.32069,0.64693 -19.97687,1.04463c-6.12235,0.3658 -12.54281,2.47146 -18.57856,3.47544c-3.40803,0.56688 -6.82635,1.0873 -10.23154,1.67376c-14.33054,-7.62844 -25.51475,-19.62114 -31.13741,-34.53205c-2.20557,-5.84904 2.70093,-11.80244 2.35965,-18.32896z" fill="#d477dc" stroke="#000000" stroke-width="2" stroke-linecap="butt"/><path d="M297.81899,135.1479c1.30623,24.9795 -12.73274,47.43443 -34.35886,59.3001c-0.84433,-0.43812 -1.62031,-0.81083 -2.29526,-1.10443c33.1497,-17.22973 36.6074,-59.08905 36.65413,-58.19568z" fill="#9c58a0" stroke="#000000" stroke-width="0" stroke-linecap="butt"/><path d="M160.10552,142.34923c-0.03301,-0.63123 5.61883,38.29213 40.10295,52.85515c-1.30082,0.20878 -2.60168,0.41787 -3.90126,0.63345c-20.55528,-10.24458 -34.97646,-30.05797 -36.20169,-53.48861z" fill="#9c58a0" stroke="#000000" stroke-width="0" stroke-linecap="butt"/><path d="M174.04986,142.02891c-0.73607,-14.07591 10.07804,-26.0834 24.15396,-26.81947c14.07591,-0.73607 26.0834,10.07803 26.81946,24.15395c0.73607,14.07591 -10.07804,26.08341 -24.15395,26.81946c-14.07591,0.73607 -26.0834,-10.07804 -26.81946,-24.15395z" fill="#ffffff" stroke="#000000" stroke-width="2" stroke-linecap="butt"/><path d="M259.76332,163.10314c-14.07591,0.73607 -26.0834,-10.07804 -26.81945,-24.15395c-0.73607,-14.07591 10.07803,-26.0834 24.15395,-26.81946c14.07591,-0.73607 26.08341,10.07804 26.81947,24.15396c0.73606,14.07591 -10.07804,26.0834 -24.15396,26.81947z" data-paper-data="{&quot;index&quot;:null}" fill="#ffffff" stroke="#000000" stroke-width="2" stroke-linecap="butt"/><path d="M227.94921,169.19176c1.83021,-2.92917 6.74682,-4.50063 8.68885,0.55581c1.94203,5.05644 1.17042,17.86009 1.17042,17.86009c-7.48943,0.50871 -6.09121,1.17687 -13.56166,1.89638c0,0 1.87218,-17.38312 3.7024,-20.3123z" data-paper-data="{&quot;index&quot;:null}" fill="#000000" stroke="none" stroke-width="0" stroke-linecap="butt"/><path d="M160.24239,107.3912l129.76145,-9.25992c0,0 5.67426,13.97798 -0.37855,17.83542c-6.05281,3.85746 -12.95591,-6.25079 -18.23216,-5.9749c-5.27624,0.2759 -1.13843,5.03391 -12.43389,4.60922c-11.29545,-0.42469 -15.27413,-6.82459 -26.10368,-6.05815c-10.82956,0.76641 -6.64592,6.44992 -19.68891,7.95787c-7.41928,0.85776 -25.35811,-0.15861 -25.35811,-0.15861c0,0 -6.80417,6.62324 -21.48401,7.06199c-3.78065,0.113 -6.13091,-8.58722 -6.13091,-8.58722z" fill="#874d8a" stroke="#000000" stroke-width="2" stroke-linecap="round"/><path d="M299.13019,108.94044c0,0 2.08028,-0.64835 3.21004,-0.75582c1.23633,-0.11761 3.91711,0.07783 3.91711,0.07783c0,0 -1.73571,8.67405 -3.26386,8.78727c-1.42014,0.10522 -3.86328,-8.10928 -3.86328,-8.10928z" fill="#ffdeff" stroke="none" stroke-width="0" stroke-linecap="butt"/><path d="M301.8558,119.30784c-0.03966,-0.53525 0.46084,-1.00863 1.11789,-1.05731c0.65706,-0.04868 1.22185,0.34576 1.26151,0.88102c0.03966,0.53525 -0.46084,1.00863 -1.11789,1.05731c-0.65706,0.04868 -1.22185,-0.34576 -1.26151,-0.88102z" fill="#ffdeff" stroke="none" stroke-width="0" stroke-linecap="butt"/><g><path d="M163.26284,203.67744l-5.73927,-109.75384l162.65677,-8.50568l5.73927,109.75384zM170.08736,190.57975l117.60601,-6.939l-5.26931,-78.10556l-116.4629,6.08746z" fill="#9d829c" stroke="#725771" stroke-width="2" stroke-linecap="butt"/><path d="M287.41855,120.34763c-0.09929,-1.89863 -0.40509,-7.74664 -0.57047,-10.90932c-0.06541,-1.25107 1.05411,-2.14277 2.30418,-2.20815c3.61819,-0.18921 21.4429,-1.1213 27.38547,-1.43204c1.21383,-0.06347 2.01593,1.50571 2.08466,2.82012c0.09652,1.84583 0.36372,6.9556 0.52658,10.07014c0.07795,1.49064 -0.90006,2.57817 -2.58236,2.66616c-6.66166,0.34836 -23.51932,1.22989 -26.86384,1.40478c-1.13001,0.05909 -2.22316,-1.24368 -2.28423,-2.41166z" fill="#725771" stroke="#725771" stroke-width="0" stroke-linecap="butt"/><path d="M292.86561,186.5002c-0.13246,-2.53291 -0.32871,-6.28617 -0.40065,-7.66198c-0.05271,-1.00799 0.94391,-2.27488 2.07176,-2.33386c3.15989,-0.16523 18.30153,-0.95702 23.6068,-1.23444c1.15287,-0.06029 1.92318,1.47047 1.98592,2.67045c0.0727,1.39033 0.24914,4.76438 0.37205,7.11469c0.07459,1.42638 -0.74311,2.52134 -1.71178,2.572c-2.7634,0.14451 -16.29854,0.85228 -22.58042,1.18077c-1.96025,0.1025 -3.26873,-0.87442 -3.34367,-2.30764z" fill="none" stroke="#725771" stroke-width="2" stroke-linecap="butt"/><path d="M292.23364,171.7646c-0.40705,-7.78407 -2.00229,-38.29005 -2.26764,-43.36467c-0.07308,-1.39746 0.9871,-2.65771 2.1703,-2.71957c3.14698,-0.16457 17.59602,-0.92015 23.35019,-1.22104c1.47138,-0.07694 2.4302,0.94561 2.49675,2.21823c0.25024,4.78543 1.80513,34.52009 2.25422,43.10808c0.07687,1.46972 -0.62496,2.35913 -1.48314,2.404c-2.84474,0.14876 -18.67243,0.97642 -24.37659,1.2747c-1.27949,0.0669 -2.08383,-0.54722 -2.1441,-1.69971z" fill="#ffdeff" stroke="#725771" stroke-width="2" stroke-linecap="butt"/><path d="M320.5232,191.25505c-0.04076,-0.77943 0.55805,-1.44433 1.3375,-1.48508c0.77942,-0.04075 1.44433,0.55806 1.48508,1.3375c0.04076,0.77943 -0.55805,1.44433 -1.3375,1.48508c-0.77942,0.04075 -1.44433,-0.55806 -1.48508,-1.3375z" fill="#725771" stroke="none" stroke-width="0" stroke-linecap="butt"/><path d="M166.78035,198.26541c-0.05558,-1.06285 0.76097,-1.96952 1.82384,-2.0251c1.06285,-0.05558 1.96952,0.76097 2.0251,1.82385c0.05558,1.06285 -0.76097,1.96951 -1.82385,2.02509c-1.06285,0.05558 -1.96951,-0.76096 -2.02509,-1.82384z" fill="#725771" stroke="none" stroke-width="0" stroke-linecap="butt"/><path d="M159.73107,97.90211c-0.03707,-0.70857 0.50733,-1.31302 1.21588,-1.35007c0.70857,-0.03706 1.31302,0.50733 1.35007,1.21588c0.03707,0.70857 -0.50733,1.31302 -1.21588,1.35007c-0.70857,0.03706 -1.31301,-0.50733 -1.35007,-1.21588z" fill="#725771" stroke="none" stroke-width="0" stroke-linecap="butt"/><path d="M315.176,88.92151c-0.04941,-0.94481 0.67646,-1.75078 1.62126,-1.80019c0.94481,-0.04941 1.75078,0.67646 1.80019,1.62126c0.04941,0.94481 -0.67646,1.75079 -1.62126,1.8002c-0.94481,0.04941 -1.75076,-0.67647 -1.80018,-1.62127z" fill="#725771" stroke="none" stroke-width="0" stroke-linecap="butt"/><path d="M303.56576,125.5627l2.40181,45.93063" fill="none" stroke="#725771" stroke-width="2" stroke-linecap="round"/><path d="M292.25055,160.11761l26.17277,-1.36863" fill="none" stroke="#725771" stroke-width="2" stroke-linecap="round"/><path d="M318.61612,147.67512l-26.68594,1.39547" fill="none" stroke="#725771" stroke-width="2" stroke-linecap="round"/><path d="M317.76913,136.39834l-26.94254,1.40889" fill="none" stroke="#725771" stroke-width="2" stroke-linecap="round"/></g><path d="M299.13019,108.94044c0,0 2.08028,-0.64835 3.21004,-0.75582c1.23633,-0.11761 3.91711,0.07783 3.91711,0.07783c0,0 -1.73571,8.67405 -3.26386,8.78727c-1.42014,0.10522 -3.86328,-8.10928 -3.86328,-8.10928z" fill-opacity="0.50302" fill="#ffdeff" stroke="none" stroke-width="0" stroke-linecap="butt"/><path d="M301.8558,119.30784c-0.03966,-0.53525 0.46084,-1.00863 1.11789,-1.05731c0.65706,-0.04868 1.22185,0.34576 1.26151,0.88102c0.03966,0.53525 -0.46084,1.00863 -1.11789,1.05731c-0.65706,0.04868 -1.22185,-0.34576 -1.26151,-0.88102z" fill-opacity="0.50302" fill="#ffdeff" stroke="none" stroke-width="0" stroke-linecap="butt"/><g fill="#000000" stroke="none" stroke-width="0" stroke-linecap="butt"><path d="M173.06317,143.91875c-0.36147,-6.91257 4.94923,-12.80932 11.86178,-13.1708c6.91257,-0.36147 12.80932,4.94923 13.1708,11.86179c0.36147,6.91257 -4.94924,12.80932 -11.86179,13.1708c-6.91257,0.36147 -12.80931,-4.94924 -13.17079,-11.86179z"/><path d="M246.83914,153.2955c-6.91255,0.36147 -12.8093,-4.94924 -13.17078,-11.86179c-0.36147,-6.91257 4.94923,-12.80932 11.86178,-13.1708c6.91255,-0.36147 12.80931,4.94924 13.17079,11.86179c0.36147,6.91257 -4.94924,12.80932 -11.86178,13.17079z" data-paper-data="{&quot;index&quot;:null}"/></g><g stroke-linecap="butt"><path d="M169.52068,190.78273l-4.10675,-79.73899l81.71316,-15.47876l6.79319,97.71709z" fill="url(#color-1)" stroke="#725771" stroke-width="2"/><path d="M185.05298,191.68091l-18.10797,-79.82482l10.85923,-3.2045l17.90747,83.64065z" fill-opacity="0.11593" fill="#ffffff" stroke="none" stroke-width="0"/><path d="M205.11007,191.28841l-18.13852,-83.7366l12.18297,-3.22683l17.70538,87.36294z" fill-opacity="0.11593" fill="#ffffff" stroke="none" stroke-width="0"/></g></g></g></svg>