<svg version="1.1" xmlns="http://www.w3.org/2000/svg" xmlns:xlink="http://www.w3.org/1999/xlink" width="142.98045" height="295.63702" viewBox="0,0,142.98045,295.63702"><g transform="translate(-174.84,-18.14217)"><g data-paper-data="{&quot;isPaintingLayer&quot;:true}" fill-rule="nonzero" stroke-linejoin="miter" stroke-miterlimit="10" stroke-dasharray="" stroke-dashoffset="0" style="mix-blend-mode: normal"><path d="M315.16954,22.74047l-19.48684,56.26316l-19.14394,-11.54545z" fill="#b1b1b1" stroke="#000000" stroke-width="2" stroke-linecap="round"/><path d="M292.67512,86.47585l-3.49242,12.52778l-21.75,-15.5l8.25594,-2.151l-6.08359,-9.07564z" fill="#cccccc" stroke="#000000" stroke-width="2" stroke-linecap="round"/><path d="M206.7501,307.50003l15.14285,-131.8421l37.78325,-0.15789l3.15646,30.69516l-14.2002,13.8515l12.65506,6.61153l-6.92997,6.53781l10.54034,5.24648l8.3522,69.05752z" fill="#f4f4f4" stroke="#000000" stroke-width="2" stroke-linecap="butt"/><path d="M219.70032,204.11267l3.12142,-26.32765l35.83075,-0.14203l2.76735,26.1059c0,0 -7.51543,4.19603 -21.55904,4.50964c-12.48458,0.27879 -20.16049,-4.14586 -20.16049,-4.14586z" fill="#cccccc" stroke="#000000" stroke-width="0" stroke-linecap="butt"/><path d="M175.84,136.8462c0,-33.30185 28.7599,-60.29833 64.23702,-60.29833c35.47712,0 64.23702,26.99649 64.23702,60.29833c0,33.30185 -28.7599,60.29833 -64.23702,60.29833c-35.47712,0 -64.23702,-26.99649 -64.23702,-60.29833z" fill="#f4f4f4" stroke="#000000" stroke-width="2" stroke-linecap="butt"/><path d="M176.56306,136.90004c0,-0.72799 5.20666,55.91939 63.36046,56.93429c55.56352,0.9697 63.51358,-57.95314 63.51358,-56.93429c0,32.80479 -28.40173,59.39833 -63.43702,59.39833c-35.03529,0 -63.43702,-26.59354 -63.43702,-59.39833z" fill="#cccccc" stroke="#000000" stroke-width="0" stroke-linecap="butt"/><path d="M189.39022,137.02567c0,-12.968 10.51265,-23.48065 23.48065,-23.48065c12.968,0 23.48065,10.51265 23.48065,23.48065c0,12.968 -10.51265,23.48065 -23.48065,23.48065c-12.968,0 -23.48065,-10.51265 -23.48065,-23.48065z" fill="#ffffff" stroke="#000000" stroke-width="2" stroke-linecap="butt"/><path d="M196.4556,137.00001c0,-9.12808 7.39976,-16.52784 16.52783,-16.52784c9.12808,0 16.52784,7.39977 16.52784,16.52784c0,9.12808 -7.39977,16.52784 -16.52784,16.52784c-9.12808,0 -16.52783,-7.39977 -16.52783,-16.52784z" fill="#000000" stroke="none" stroke-width="0" stroke-linecap="butt"/><path d="M267.12928,160.5063c-12.968,0 -23.48065,-10.51265 -23.48065,-23.48065c0,-12.968 10.51265,-23.48065 23.48065,-23.48065c12.968,0 23.48065,10.51265 23.48065,23.48065c0,12.968 -10.51265,23.48065 -23.48065,23.48065z" data-paper-data="{&quot;index&quot;:null}" fill="#ffffff" stroke="#000000" stroke-width="2" stroke-linecap="butt"/><path d="M267.01671,153.52788c-9.12807,0 -16.52783,-7.39977 -16.52783,-16.52784c0,-9.12808 7.39977,-16.52784 16.52783,-16.52784c9.12807,0 16.52783,7.39977 16.52783,16.52784c0,9.12808 -7.39977,16.52784 -16.52783,16.52784z" data-paper-data="{&quot;index&quot;:null}" fill="#000000" stroke="none" stroke-width="0" stroke-linecap="butt"/><path d="M189.30686,137.3681c0,-12.96801 10.51265,-23.48065 23.48066,-23.48065c12.96801,0 23.48065,10.51264 23.48065,23.48065c0,0 -6.95852,0.35366 -23.43307,0.21121c-16.22494,-0.14029 -23.52823,0.4054 -23.52823,-0.21121z" fill="#cccccc" stroke="#000000" stroke-width="2" stroke-linecap="butt"/><path d="M243.64865,137.26809c0,-12.96801 10.51264,-23.48065 23.48065,-23.48065c12.96801,0 23.48066,10.51264 23.48066,23.48065c0,0.60606 -8.64198,0.80793 -23.69419,0.41131c-15.05221,-0.39662 -23.26712,-0.41131 -23.26712,-0.41131z" data-paper-data="{&quot;index&quot;:null}" fill="#cccccc" stroke="#000000" stroke-width="2" stroke-linecap="butt"/><path d="M224.53397,177.76122h30.80645" fill="none" stroke="#000000" stroke-width="2" stroke-linecap="round"/><path d="M272.68269,65.00363l27.25,16.5l2,11.5l-38.25,-24.25z" fill="#646464" stroke="#000000" stroke-width="2" stroke-linecap="round"/><path d="M179.07568,313.7792v-267.22501h123.18203v267.22501z" fill-opacity="0.01" fill="#000000" stroke="none" stroke-width="0" stroke-linecap="butt"/></g></g></svg>