<svg version="1.1" xmlns="http://www.w3.org/2000/svg" xmlns:xlink="http://www.w3.org/1999/xlink" width="211.69603" height="327.74654" viewBox="0,0,211.69603,327.74654"><g transform="translate(-131.36125,-17.93771)"><g data-paper-data="{&quot;isPaintingLayer&quot;:true}" fill-rule="nonzero" stroke-linejoin="miter" stroke-miterlimit="10" stroke-dasharray="" stroke-dashoffset="0" style="mix-blend-mode: normal"><path d="M196.08787,135.3539l18.78405,-109.54611l30.7148,104.65772l16.88589,3.75433l5.47023,-9.60795l-5.93683,-102.71109l57.525,94.99888l-24.7295,86.57585l36.80535,82.39962l-23.57821,-6.52108l22.30281,39.98889l-65.97036,-29.69355l-32.87842,48.86612l-8.9467,-38.84621l-17.23079,10.73825l16.55201,-128.67641z" fill="#584941" stroke="#000000" stroke-width="2" stroke-linecap="round"/><path d="M228.91997,316.69618l-92.88631,-159.37802l28.36362,28.07095l-27.06822,-71.273l46.31205,69.18134l0.07576,-42.02103l49.06479,159.2733z" fill="#584941" stroke="#000000" stroke-width="2" stroke-linecap="round"/><path d="M251.40181,194.01468l25.81032,0.60024l15.60624,150.06003l-72.02881,-0.60024l27.0108,-139.85595z" fill="#a3948c" stroke="#000000" stroke-width="2" stroke-linecap="round"/><g><path d="M199.42255,187.56591l111.64466,-6.0024l30.61225,64.82593l-22.20889,7.80312l-10.80432,-57.62305l-100.84034,-2.40096l-14.40576,61.22449l-21.60864,-5.40216l24.0096,-49.81993z" fill="#c8b8b2" stroke="#000000" stroke-width="2" stroke-linecap="round"/><g><path d="M322.51505,122.36811l-2.48387,81.96801h-124.81492l-0.62097,-85.69383z" fill="#c8b8b2" stroke="#000000" stroke-width="2" stroke-linecap="round"/><path d="M202.4312,150.3142c0,-0.04369 -4.23161,-7.74066 -4.23161,-7.74066l11.19055,4.53331c0,0 38.62676,1.76501 38.62676,2.05328c0,14.1019 -9.70075,31.59262 -23.80266,31.59262c-14.1019,0 -21.78303,-16.33665 -21.78303,-30.43855z" fill="#000000" stroke="none" stroke-width="0" stroke-linecap="butt"/><path d="M286.91857,179.59869c-14.1019,0 -23.80266,-17.49071 -23.80266,-31.59261c0,-0.28828 38.62676,-2.05328 38.62676,-2.05328l11.19055,-4.53331c0,0 -4.23162,7.69697 -4.23162,7.74066c0,14.1019 -7.68113,30.43855 -21.78303,30.43855z" data-paper-data="{&quot;index&quot;:null}" fill="#000000" stroke="none" stroke-width="0" stroke-linecap="butt"/><path d="M230.4267,140.37732c0,0 5.87742,-5.37467 9.21866,-6.59979c2.67424,-0.98055 9.27703,-0.18196 9.27703,-0.18196" fill="none" stroke="#000000" stroke-width="2" stroke-linecap="round"/><path d="M251.79949,131.12948c0,0 0.99253,1.70503 1.06619,2.44168c0.0609,0.60894 -0.65518,1.66848 -0.65518,1.66848" fill="none" stroke="#000000" stroke-width="2" stroke-linecap="round"/><path d="M279.00721,191.46277c0,0 -14.20722,8.2203 -20.96177,8.2203c-7.13103,0 -20.75627,-8.2203 -20.75627,-8.2203" fill="none" stroke="#000000" stroke-width="2" stroke-linecap="round"/></g></g></g></g></svg>