<svg version="1.1" xmlns="http://www.w3.org/2000/svg" xmlns:xlink="http://www.w3.org/1999/xlink" width="169.62062" height="267.22501" viewBox="0,0,169.62062,267.22501"><defs><linearGradient x1="222.7159" y1="105.94643" x2="219.15702" y2="185.71176" gradientUnits="userSpaceOnUse" id="color-1"><stop offset="0" stop-color="#ffffff" stop-opacity="0.06754"/><stop offset="1" stop-color="#666666" stop-opacity="0.33367"/></linearGradient></defs><g transform="translate(-169.54999,-46.3875)"><g data-paper-data="{&quot;isPaintingLayer&quot;:true}" fill-rule="nonzero" stroke-linejoin="miter" stroke-miterlimit="10" stroke-dasharray="" stroke-dashoffset="0" style="mix-blend-mode: normal"><g><path d="M179.14715,313.61251v-267.22501h123.18203v267.22501z" fill-opacity="0.01" fill="#000000" stroke="none" stroke-width="0" stroke-linecap="butt"/><path d="M174.18001,144.95522l143.80992,10.00417c0,0 -10.09411,42.39996 -11.87995,46.26928c-1.78584,3.86932 -10.62943,2.50104 -10.62943,2.50104c0,0 1.22278,10.99558 -0.62526,15.00625c-1.84804,4.01068 -5.17444,5.97702 -9.17043,6.25261c-3.996,0.27559 -8.96213,-5.00208 -8.96213,-5.00208l-8.75365,10.62943l-53.14714,0.62526l-10.00417,-10.62943l-3.1263,3.1263c0,0 -3.08747,4.306 -8.545,1.66748c-3.77966,-1.82733 -4.58548,-7.92008 -4.58548,-7.92008l-0.62526,-14.38099c0,0 -8.14888,-0.39257 -10.62943,-2.50104c-2.48055,-2.10847 -1.87578,-8.12839 -1.87578,-8.12839z" fill="#874e8b" stroke="#000000" stroke-width="2" stroke-linecap="round"/><path d="M206.75006,307.50001l15.14285,-131.8421l37.78325,-0.15789l13.57389,132z" fill="#d477dc" stroke="#000000" stroke-width="2" stroke-linecap="butt"/><path d="M219.70029,204.11264l3.12142,-26.32765l35.83075,-0.14203l2.76735,26.1059c0,0 -7.51543,4.19603 -21.55904,4.50964c-12.48458,0.27879 -20.16049,-4.14586 -20.16049,-4.14586z" fill="#9c58a0" stroke="#000000" stroke-width="0" stroke-linecap="butt"/></g><path d="M179.06487,313.61251v-267.22501h123.18203v267.22501z" fill-opacity="0.01" fill="#000000" stroke="none" stroke-width="0" stroke-linecap="butt"/><path d="M174.08652,123.69392c2.68509,-11.53315 8.59282,-21.86629 16.76296,-30.17414c13.41776,-13.64392 29.68067,5.92251 51.04941,6.85905c22.35721,0.97986 45.08192,-16.02245 57.17423,-0.10792c8.74396,11.5078 13.63146,25.71835 12.96638,40.89359c-1.09853,25.06488 -17.05673,46.18272 -39.57595,56.22089c-1.34583,-0.92334 -2.57698,-1.68922 -3.57079,-2.23168c-5.27871,-2.88136 -11.20628,-4.68689 -17.44505,-5.00679c-6.65931,-0.34147 -13.32134,-0.63346 -19.98498,-0.8759c-6.12922,-0.223 -12.72201,1.25726 -18.82622,1.67781c-3.44669,0.23745 -6.89916,0.42766 -10.3449,0.68488c-13.53295,-8.96753 -23.51556,-21.97749 -27.68241,-37.35886c-1.63451,-6.03358 3.8203,-11.48903 4.10645,-18.0182z" fill="#d477dc" stroke="#000000" stroke-width="2" stroke-linecap="butt"/><path d="M311.10058,140.8193c-1.09523,24.98963 -17.22285,45.9948 -39.88718,55.73192c-0.79843,-0.51707 -1.53509,-0.96247 -2.17877,-1.31944c34.6492,-13.9714 42.10511,-55.30622 42.06596,-54.41248z" fill="#9c58a0" stroke="#000000" stroke-width="0" stroke-linecap="butt"/><path d="M173.33121,134.78121c0.02767,-0.63149 1.92086,38.65448 34.84951,56.45728c-1.31485,0.08307 -2.62976,0.16645 -3.94403,0.25642c-19.47813,-12.16854 -31.93281,-33.27356 -30.90549,-56.71371z" fill="#9c58a0" stroke="#000000" stroke-width="0" stroke-linecap="butt"/><path d="M187.24201,135.79958c0.61715,-14.08163 12.53289,-24.99675 26.61453,-24.37959c14.08163,0.61715 24.99675,12.53288 24.37958,26.61452c-0.61715,14.08163 -12.53289,24.99676 -26.61452,24.37958c-14.08163,-0.61715 -24.99675,-12.53289 -24.37958,-26.61452z" fill="#ffffff" stroke="#000000" stroke-width="2" stroke-linecap="butt"/><path d="M270.5395,164.99629c-14.08163,-0.61715 -24.99675,-12.53289 -24.37957,-26.61452c0.61715,-14.08163 12.53288,-24.99675 26.61452,-24.37958c14.08163,0.61715 24.99676,12.53289 24.37959,26.61453c-0.61716,14.08163 -12.53289,24.99675 -26.61453,24.37959z" data-paper-data="{&quot;index&quot;:null}" fill="#ffffff" stroke="#000000" stroke-width="2" stroke-linecap="butt"/><path d="M238.28814,168.00602c2.10267,-2.74016 7.14732,-3.8329 8.59551,1.38648c1.44818,5.21937 -0.54769,17.89002 -0.54769,17.89002c-7.50369,-0.21185 -6.176,0.58732 -13.68101,0.58713c0,0 3.53053,-17.12347 5.63321,-19.86364z" data-paper-data="{&quot;index&quot;:null}" fill="#000000" stroke="none" stroke-width="0" stroke-linecap="butt"/><path d="M176.8198,99.99744l130.05142,3.22641c0,0 4.30768,14.4577 -2.08715,17.71692c-6.39483,3.25923 -12.29677,-7.46441 -17.57516,-7.69576c-5.27838,-0.23135 -1.61592,4.90154 -12.81859,3.39562c-11.20267,-1.50593 -14.54928,-8.25786 -25.40242,-8.53348c-10.85314,-0.27563 -7.23381,5.78288 -20.3613,6.0331c-7.46734,0.14233 -25.22604,-2.58963 -25.22604,-2.58963c0,0 -7.40796,5.94022 -22.06223,4.9692c-3.77406,-0.25007 -5.27917,-9.13557 -5.27917,-9.13557z" fill="#874d8a" stroke="#000000" stroke-width="2" stroke-linecap="round"/><path d="M314.91895,114.85835c0,0 2.13287,-0.44587 3.26773,-0.44451c1.24191,0.00149 3.89159,0.45311 3.89159,0.45311c0,0 -2.55952,8.46762 -4.09148,8.43378c-1.42368,-0.03145 -3.06782,-8.44238 -3.06782,-8.44238z" fill="#ffdeff" stroke="none" stroke-width="0" stroke-linecap="butt"/><path d="M316.6378,125.43936c0.01186,-0.53658 0.55544,-0.95979 1.21413,-0.94523c0.65869,0.01455 1.18306,0.46134 1.17121,0.99793c-0.01186,0.53658 -0.55544,0.95979 -1.21413,0.94523c-0.65869,-0.01455 -1.18306,-0.46134 -1.17121,-0.99793z" fill="#ffdeff" stroke="none" stroke-width="0" stroke-linecap="butt"/><g><path d="M170.59282,196.12958l4.81217,-109.79839l162.7228,7.13171l-4.81217,109.79839zM178.64192,183.74668l117.72943,4.37097l2.24501,-78.25091l-116.50993,-5.10896z" fill="#9d829c" stroke="#725771" stroke-width="2" stroke-linecap="butt"/><path d="M302.16737,125.08988c0.08324,-1.8994 0.33965,-7.74978 0.47832,-10.91375c0.05486,-1.25158 1.25474,-2.03182 2.50532,-1.97701c3.61966,0.15863 21.4516,0.94017 27.39658,1.20072c1.21432,0.05323 1.86225,1.69209 1.80462,3.00703c-0.08093,1.84657 -0.30497,6.95842 -0.44154,10.07423c-0.06535,1.49124 -1.14315,2.47998 -2.82613,2.40623c-6.66436,-0.29208 -23.52887,-1.0312 -26.87474,-1.17784c-1.13046,-0.04955 -2.09365,-1.45114 -2.04244,-2.61959z" fill="#725771" stroke="#725771" stroke-width="0" stroke-linecap="butt"/><path d="M301.24554,191.45993c0.11105,-2.53395 0.27562,-6.28872 0.33594,-7.66509c0.04419,-1.0084 1.15771,-2.17388 2.28601,-2.12443c3.16118,0.13855 18.30896,0.80244 23.61638,1.03505c1.15334,0.05055 1.7733,1.64812 1.72068,2.84859c-0.06096,1.3909 -0.2089,4.76631 -0.31195,7.11758c-0.06254,1.42695 -0.98147,2.43846 -1.95054,2.396c-2.76452,-0.12117 -16.30516,-0.71462 -22.58959,-0.99005c-1.96105,-0.08594 -3.16981,-1.18385 -3.10697,-2.61765z" fill="none" stroke="#725771" stroke-width="2" stroke-linecap="butt"/><path d="M302.02957,176.73164c0.34129,-7.78723 1.67882,-38.30559 1.90132,-43.38228c0.06127,-1.39802 1.23742,-2.55079 2.4211,-2.49891c3.14826,0.13798 17.60317,0.77149 23.35968,1.02379c1.47198,0.06452 2.32832,1.1743 2.27252,2.44743c-0.20982,4.78738 -1.51354,34.53411 -1.89008,43.12557c-0.06443,1.47032 -0.84831,2.28832 -1.70684,2.25069c-2.84589,-0.12472 -18.68001,-0.81869 -24.38649,-1.0688c-1.28,-0.0561 -2.02175,-0.74453 -1.97122,-1.8975z" fill="#ffdeff" stroke="#725771" stroke-width="2" stroke-linecap="butt"/><path d="M328.31969,198.84513c0.03417,-0.77975 0.69398,-1.38416 1.47374,-1.34998c0.77974,0.03418 1.38416,0.69399 1.34998,1.47374c-0.03417,0.77975 -0.69398,1.38416 -1.47374,1.34998c-0.77974,-0.03418 -1.38416,-0.69399 -1.34998,-1.47374z" fill="#725771" stroke="none" stroke-width="0" stroke-linecap="butt"/><path d="M174.61312,191.0798c0.0466,-1.06329 0.94634,-1.88747 2.00963,-1.84087c1.06329,0.0466 1.88747,0.94634 1.84087,2.00964c-0.0466,1.06329 -0.94634,1.88746 -2.00963,1.84086c-1.06329,-0.0466 -1.88746,-0.94633 -1.84086,-2.00962z" fill="#725771" stroke="none" stroke-width="0" stroke-linecap="butt"/><path d="M177.2208,90.50304c0.03105,-0.70886 0.6309,-1.25831 1.33974,-1.22724c0.70886,0.03106 1.25831,0.6309 1.22724,1.33974c-0.03105,0.70886 -0.6309,1.25831 -1.33974,1.22724c-0.70886,-0.03106 -1.2583,-0.6309 -1.22724,-1.33974z" fill="#725771" stroke="none" stroke-width="0" stroke-linecap="butt"/><path d="M332.81055,96.47043c0.04142,-0.9452 0.84124,-1.67784 1.78642,-1.63642c0.9452,0.04142 1.67784,0.84124 1.63642,1.78642c-0.04142,0.9452 -0.84124,1.67785 -1.78642,1.63643c-0.9452,-0.04142 -1.67783,-0.84125 -1.63641,-1.78643z" fill="#725771" stroke="none" stroke-width="0" stroke-linecap="butt"/><path d="M315.72622,177.77864l2.01384,-45.94927" fill="none" stroke="#725771" stroke-width="2" stroke-linecap="round"/><path d="M303.16331,165.13993l26.18339,1.14755" fill="none" stroke="#725771" stroke-width="2" stroke-linecap="round"/><path d="M330.60055,155.28314l-26.69678,-1.17005" fill="none" stroke="#725771" stroke-width="2" stroke-linecap="round"/><path d="M330.83886,143.97713l-26.95347,-1.1813" fill="none" stroke="#725771" stroke-width="2" stroke-linecap="round"/></g><path d="M314.91895,114.85835c0,0 2.13287,-0.44587 3.26773,-0.44451c1.24191,0.00149 3.89159,0.45311 3.89159,0.45311c0,0 -2.55952,8.46762 -4.09148,8.43378c-1.42368,-0.03145 -3.06782,-8.44238 -3.06782,-8.44238z" fill="#ffdeff" stroke="none" stroke-width="0" stroke-linecap="butt"/><path d="M316.6378,125.43936c0.01186,-0.53658 0.55544,-0.95979 1.21413,-0.94523c0.65869,0.01455 1.18306,0.46134 1.17121,0.99793c-0.01186,0.53658 -0.55544,0.95979 -1.21413,0.94523c-0.65869,-0.01455 -1.18306,-0.46134 -1.17121,-0.99793z" fill="#ffdeff" stroke="none" stroke-width="0" stroke-linecap="butt"/><g fill="#000000" stroke="none" stroke-width="0" stroke-linecap="butt"><path d="M205.19606,138.08617c0.30308,-6.91538 6.15478,-12.27568 13.07015,-11.9726c6.91538,0.30308 12.27568,6.15478 11.9726,13.07016c-0.30308,6.91538 -6.15479,12.27568 -13.07016,11.9726c-6.91538,-0.30308 -12.27567,-6.15479 -11.97259,-13.07016z"/><path d="M277.73283,154.49456c-6.91536,-0.30308 -12.27566,-6.15479 -11.97258,-13.07016c0.30308,-6.91538 6.15478,-12.27568 13.07015,-11.9726c6.91536,0.30308 12.27567,6.15479 11.97259,13.07016c-0.30308,6.91538 -6.15479,12.27568 -13.07015,11.97259z" data-paper-data="{&quot;index&quot;:null}"/></g><g stroke-linecap="butt"><path d="M178.05838,183.89439l3.55885,-79.76532l82.82093,-7.57143l-2.60883,97.91819z" fill="url(#color-1)" stroke="#725771" stroke-width="2"/><path d="M193.43297,186.27793l-10.36961,-81.19343l11.11648,-2.14838l9.8041,84.97243z" fill-opacity="0.11593" fill="#ffffff" stroke="none" stroke-width="0"/><path d="M213.43525,187.81064l-10.0249,-85.0901l12.43626,-2.04366l9.24599,88.65819z" fill-opacity="0.11593" fill="#ffffff" stroke="none" stroke-width="0"/></g></g></g></svg>