<svg version="1.1" xmlns="http://www.w3.org/2000/svg" xmlns:xlink="http://www.w3.org/1999/xlink" width="231.54056" height="292.75834" viewBox="0,0,231.54056,292.75834"><g transform="translate(-125.07603,-20.85417)"><g data-paper-data="{&quot;isPaintingLayer&quot;:true}" fill-rule="nonzero" stroke-linejoin="miter" stroke-miterlimit="10" stroke-dasharray="" stroke-dashoffset="0" style="mix-blend-mode: normal"><path d="M178.409,313.61251v-267.22501h123.18203v267.22501z" fill-opacity="0.01" fill="#000000" stroke="none" stroke-width="0" stroke-linecap="butt"/><g stroke="#000000" stroke-width="2"><path d="M206.75009,307.50002l15.14285,-131.8421l37.78325,-0.15789l13.57389,132z" fill="#345756" stroke-linecap="butt"/><g fill="#274746" stroke-linecap="round"><path d="M262.4844,196.10052l6.54607,27.89196l-29.31501,4.8384l-27.89196,-4.8384l4.8384,-21.91511z"/><path d="M266.46897,184.43143l1.70767,17.07671l-29.0304,5.97685l-25.89967,-5.12301l-2.27689,-15.08443z"/></g></g><path d="M296.11638,47.06164c0,0 6.24776,14.15288 6.54044,7.87797c0.30819,-6.60762 -0.01567,-14.74004 -0.01567,-14.74004l6.02663,-0.60206c0,0 0.68298,19.89968 -2.47895,23.38481c-3.16192,3.48513 -12.86909,-6.46792 -12.86909,-6.46792z" fill="#244343" stroke="#000000" stroke-width="2" stroke-linecap="round"/><path d="M196.79719,45.01624c0,0 -1.00419,-1.10727 21.96895,-2.13018c22.19562,3.91337 30.46333,7.35972 50.58898,8.96781c20.39907,1.62994 41.1461,-16.63478 41.1461,-16.63478l0.54744,5.64974c0,0 -18.41969,18.40974 -42.46038,16.93561c-15.70755,-0.96316 -42.11997,-10.3101 -50.32797,-9.6812c-17.59063,1.34778 -23.88751,1.68517 -23.88751,1.68517z" fill="#355656" stroke="#000000" stroke-width="2" stroke-linecap="round"/><path d="M176.93577,27.04555c19.1235,3.2568 29.6687,5.43385 48.49856,8.46351c13.21731,2.12661 30.71223,3.88282 47.69223,11.45348c12.29353,5.48117 23.79639,0.52955 23.79639,0.52955l-0.93848,5.22095c0,0 -11.09597,6.15945 -25.10863,-0.01242c-16.45878,-7.24927 -33.55445,-10.26051 -45.56646,-12.23512c-20.16411,-3.31474 -52.08464,-7.93263 -52.08464,-7.93263z" fill="#2b4f4b" stroke="#000000" stroke-width="2" stroke-linecap="round"/><path d="M152.94575,67.90063c0,0 3.57688,-5.17657 6.19781,3.47885c3.36022,11.09688 2.57729,34.30484 5.19186,34.29622c4.82502,-0.01591 12.49096,-75.52617 12.49096,-75.52617l4.16888,3.36748c0,0 -7.01665,84.0508 -16.78078,83.17025c-7.59935,-0.68533 -11.26872,-48.78664 -11.26872,-48.78664z" fill="#244343" stroke="#000000" stroke-width="2" stroke-linecap="round"/><path d="M304.52442,87.83221c0,0 12.39036,48.2773 17.55117,44.41035c5.30618,-3.97589 13.86193,-67.94794 13.86193,-67.94794l7.03934,-1.89178c0,0 -10.77397,79.37148 -20.89697,79.72955c-8.92437,0.31567 -24.63335,-51.33729 -24.63335,-51.33729z" fill="#244343" stroke="#000000" stroke-width="2" stroke-linecap="round"/><path d="M300.36236,157.19844l9.20085,18.66528l-25.09169,-0.3385l15.21792,16.06107l-59.41668,-10.59939l-65.62834,5.25492l14.07902,-15.00716l-21.70114,-0.4986l12.86306,-20.41016z" fill="#345756" stroke="#000000" stroke-width="2" stroke-linecap="round"/><path d="M177.56615,134.64074c1.1972,-33.28032 30.90904,-59.22543 66.36322,-57.95003c35.45419,1.2754 63.22497,29.28836 62.02777,62.56868c-1.1972,33.28032 -30.90904,59.22543 -66.36322,57.95003c-35.45419,-1.2754 -63.22497,-29.28836 -62.02777,-62.56868z" fill="#345756" stroke="#000000" stroke-width="2" stroke-linecap="butt"/><path d="M191.10116,135.30723c0.4662,-12.95962 11.34998,-23.08754 24.3096,-22.62134c12.95962,0.4662 23.08754,11.34998 22.62134,24.3096c-0.4662,12.95962 -11.34998,23.08754 -24.3096,22.62134c-12.95962,-0.4662 -23.08754,-11.34998 -22.62134,-24.3096z" fill="#ffffff" stroke="#000000" stroke-width="2" stroke-linecap="butt"/><path d="M198.4065,128.7636c0.32815,-9.12218 7.98915,-16.25113 17.11132,-15.92298c9.12218,0.32815 16.25113,7.98916 15.92298,17.11133c-0.32815,9.12218 -7.98916,16.25113 -17.11133,15.92298c-9.12218,-0.32815 -16.25112,-7.98916 -15.92297,-17.11133z" fill="#000000" stroke="none" stroke-width="0" stroke-linecap="butt"/><path d="M252.86202,177.1854l-25.09336,-0.90269" fill="none" stroke="#000000" stroke-width="2" stroke-linecap="round"/><path d="M267.94581,161.5674c-12.95962,-0.4662 -23.08754,-11.34998 -22.62134,-24.3096c0.4662,-12.95962 11.34998,-23.08754 24.3096,-22.62134c12.95962,0.4662 23.08754,11.34998 22.62134,24.3096c-0.4662,12.95962 -11.34998,23.08754 -24.3096,22.62134z" data-paper-data="{&quot;index&quot;:null}" fill="#ffffff" stroke="#000000" stroke-width="2" stroke-linecap="butt"/><path d="M268.32782,147.81745c-9.12217,-0.32815 -16.25112,-7.98916 -15.92297,-17.11133c0.32815,-9.12218 7.98916,-16.25113 17.11132,-15.92298c9.12217,0.32815 16.25112,7.98916 15.92297,17.11133c-0.32815,9.12218 -7.98916,16.25113 -17.11132,15.92298z" data-paper-data="{&quot;index&quot;:null}" fill="#000000" stroke="none" stroke-width="0" stroke-linecap="butt"/><path d="M191.00554,135.64644c0.4662,-12.95963 11.34998,-23.08754 24.30961,-22.62134c12.95963,0.4662 23.08754,11.34997 22.62134,24.3096c0,0 -11.77769,-13.69647 -23.76754,-13.99294c-11.47376,-0.28371 -23.18283,12.84471 -23.16341,12.30468z" fill="#345756" stroke="#000000" stroke-width="2" stroke-linecap="butt"/><path d="M245.3158,137.50009c0.4662,-12.95963 11.34997,-23.08754 24.3096,-22.62134c12.95963,0.4662 23.08755,11.34997 22.62135,24.3096c-0.01088,0.30243 -11.22571,-13.66213 -22.94036,-14.15905c-11.74536,-0.49823 -23.99059,12.47079 -23.99059,12.47079z" data-paper-data="{&quot;index&quot;:null}" fill="#345756" stroke="#000000" stroke-width="2" stroke-linecap="butt"/><path d="M252.3349,84.3803l-11.94843,30.00364l-3.26205,-21.54499l-12.22951,3.28661l7.02624,-14.03234" fill="#345756" stroke="#000000" stroke-width="2" stroke-linecap="round"/><path d="M290.76908,73.31257l-9.19105,-5.50419l-1.12476,-11.34564l9.17039,6.07828l-0.57687,10.70959z" fill="#3b5456" stroke="#000000" stroke-width="2" stroke-linecap="round"/><path d="M329.19108,33.26518l5.87315,-8.79454l9.46641,-2.15043l-5.94888,10.89956z" fill="#3b5456" stroke="#000000" stroke-width="2" stroke-linecap="round"/><path d="M288.67166,73.02569l-7.98368,3.54507l-8.80831,-5.49042l9.70596,-3.48311z" fill="#3b5456" stroke="#000000" stroke-width="2" stroke-linecap="round"/><path d="M199.02181,70.01212l0.19414,-10.72336l9.58344,-5.40365l-1.93708,11.23549l-9.56278,4.82955z" fill="#3b5456" stroke="#000000" stroke-width="2" stroke-linecap="round"/><path d="M144.80284,44.15499l-8.78938,5.16254l-8.91118,-3.15691l6.90568,-5.53782z" fill="#3b5456" stroke="#000000" stroke-width="2" stroke-linecap="round"/><path d="M206.8699,64.90945l9.4306,4.17152l-9.18005,4.84332l-7.70831,-4.10956z" fill="#3b5456" stroke="#000000" stroke-width="2" stroke-linecap="round"/><path d="M348.16363,81.12566l6.44997,7.1301l-9.63024,1.37808l-7.72069,-9.09195z" fill="#3b5456" stroke="#000000" stroke-width="2" stroke-linecap="round"/><path d="M336.15655,79.24613l9.98476,9.20127l3.13531,3.87885l0.17763,13.26951l-4.49417,11.13654l-11.04009,6.48003l-11.3636,-7.28596l-4.44706,-12.93187l2.38593,-11.7036l4.8377,-7.03063z" fill="#616051" stroke="#000000" stroke-width="2" stroke-linecap="round"/><path d="M343.90361,114.23816l-23.97542,-20.83903l18.72721,-10.78827" fill="none" stroke="#000000" stroke-width="2" stroke-linecap="round"/><path d="M326.15648,84.12613l22.98836,20.96726l-19.17781,14.21065" fill="none" stroke="#000000" stroke-width="2" stroke-linecap="round"/><path d="M337.82233,119.4229l-18.90128,-16.23546l22.58961,-18.01773" fill="none" stroke="#000000" stroke-width="2" stroke-linecap="round"/><path d="M331.15649,81.68614l17.72245,12.59071l-26.10611,20.18362" fill="none" stroke="#000000" stroke-width="2" stroke-linecap="round"/><path d="M162.27631,64.72956l2.04558,-10.81005l7.34169,8.72286l-2.08953,7.83962z" fill="#3b5456" stroke="#000000" stroke-width="2" stroke-linecap="round"/><path d="M171.50702,62.50047l9.26788,-4.52152l-2.21399,10.14047l-8.65595,2.35893z" fill="#3b5456" stroke="#000000" stroke-width="2" stroke-linecap="round"/><path d="M215.15331,86.12707l-5.06006,11.91151l-10.7764,6.30237l-48.54264,-31.07948l-5.77917,-11.01488l0.63786,-17.73138l16.56668,-17.0547l15.98802,-0.96871l4.07278,8.3804l-9.15871,-2.90256l-13.10954,13.93772l-2.6382,16.11557l12.00209,9.69488l19.22889,-5.22638l5.83285,-19.08837l2.80266,22.22942l-14.20953,8.75196z" fill="#404135" stroke="#000000" stroke-width="2" stroke-linecap="round"/><path d="M304.41482,82.75176l-13.54395,-9.75035l4.39268,-21.97057l4.4462,19.45814l18.80365,6.59453l12.66768,-8.80743l-1.47342,-16.26348l-12.07417,-14.84366l-9.3436,2.23697l4.66441,-8.0661l15.87709,2.115l15.29842,18.20099l-0.63786,17.73138l-6.55569,10.57116l-50.65035,27.51118l-10.29569,-7.0604l-4.1911,-12.2443z" fill="#404135" stroke="#000000" stroke-width="2" stroke-linecap="round"/><path d="M194.24159,47.56729l6.48836,-8.53986l10.92512,1.29749l-8.19743,7.92406z" fill="#3b5456" stroke="#000000" stroke-width="2" stroke-linecap="round"/></g></g></svg>