<svg version="1.1" xmlns="http://www.w3.org/2000/svg" xmlns:xlink="http://www.w3.org/1999/xlink" width="171.07883" height="310.24957" viewBox="0,0,171.07883,310.24957"><g transform="translate(-155.62764,1.69346)"><g data-paper-data="{&quot;isPaintingLayer&quot;:true}" fill-rule="nonzero" stroke-linejoin="miter" stroke-miterlimit="10" stroke-dasharray="" stroke-dashoffset="0" style="mix-blend-mode: normal"><g fill="#302b87" stroke-linecap="butt"><path d="M301.22905,175.59819c0.93064,-0.49464 0.61664,7.84684 -6.43359,9.41733c-2.49427,12.24401 9.97403,19.40005 14.8417,22.07737c2.06358,1.13502 -9.74513,2.4351 -13.34019,0.90092c-1.07952,-0.46069 -5.45612,-5.59971 -5.62686,-5.55314c-0.47547,0.02218 -1.00489,1.77191 -0.65221,3.19406c0.44491,1.79407 1.83235,3.34417 1.35023,3.34514c-14.91798,0.0302 -5.27218,-84.52659 -5.42871,-84.56687c-0.91677,-0.23597 -5.7591,50.16544 15.28962,51.18517z" data-paper-data="{&quot;index&quot;:null}" stroke="none" stroke-width="0"/><path d="M193.99661,118.40768c-0.15652,0.04028 9.48927,84.59707 -5.42871,84.56687c-0.48212,-0.00098 0.90532,-1.55107 1.35023,-3.34514c0.35268,-1.42215 -0.17674,-3.1719 -0.65221,-3.19406c-0.17074,-0.04657 -4.54734,5.09245 -5.62687,5.55314c-3.59505,1.53418 -15.40377,0.2341 -13.34019,-0.90092c4.86768,-2.67733 17.33597,-9.83336 14.8417,-22.07737c-7.05023,-1.57049 -7.36423,-9.91197 -6.43359,-9.41733c21.04872,-1.01973 16.20638,-51.42113 15.28962,-51.18517z" data-paper-data="{&quot;index&quot;:null}" stroke="none" stroke-width="0"/><path d="M271.74021,139.50982c-0.15652,0.04028 9.48928,84.59707 -5.42871,84.56687c-0.48212,-0.00098 0.90532,-1.55107 1.35023,-3.34514c0.35268,-1.42215 -0.17674,-3.1719 -0.6522,-3.19406c-0.17074,-0.04657 -4.54734,5.09245 -5.62687,5.55314c-3.59505,1.53418 -15.40377,0.2341 -13.34019,-0.90092c4.86768,-2.67733 17.33597,-9.83336 14.8417,-22.07737c-7.05023,-1.57049 -7.36423,-9.91197 -6.43359,-9.41732c21.04872,-1.01973 16.20638,-51.42113 15.28962,-51.18518z" data-paper-data="{&quot;index&quot;:null}" stroke="none" stroke-width="0"/><path d="M289.49132,181.0576c0.93064,-0.49464 0.61664,7.84684 -6.43359,9.41733c-2.49427,12.24401 9.97403,19.40005 14.8417,22.07737c2.06358,1.13502 -9.74513,2.4351 -13.34019,0.90092c-1.07952,-0.46069 -5.45613,-5.59971 -5.62687,-5.55314c-0.47546,0.02218 -1.00488,1.77191 -0.65221,3.19406c0.44491,1.79407 1.83235,3.34417 1.35023,3.34514c-14.91799,0.0302 -5.27218,-84.52659 -5.42871,-84.56687c-0.91676,-0.23597 -5.7591,50.16544 15.28962,51.18517z" data-paper-data="{&quot;index&quot;:null}" stroke="none" stroke-width="0"/><path d="M222.75333,187.96531c0.93064,-0.49464 0.61664,7.84683 -6.43359,9.41732c-2.49427,12.24401 9.97404,19.40005 14.8417,22.07737c2.06358,1.13502 -9.74513,2.4351 -13.34019,0.90092c-1.07953,-0.46069 -5.45612,-5.59971 -5.62687,-5.55314c-0.47546,0.02218 -1.00488,1.77191 -0.6522,3.19406c0.44491,1.79407 1.83235,3.34417 1.35023,3.34514c-14.91798,0.0302 -5.27218,-84.52659 -5.42871,-84.56687c-0.91677,-0.23597 -5.7591,50.16545 15.28962,51.18518z" data-paper-data="{&quot;index&quot;:null}" stroke="none" stroke-width="0"/><path d="M205.4903,124.95897c-0.15652,0.04028 9.48927,84.59707 -5.42871,84.56687c-0.48212,-0.00098 0.90532,-1.55107 1.35023,-3.34514c0.35268,-1.42215 -0.17674,-3.1719 -0.6522,-3.19406c-0.17074,-0.04657 -4.54734,5.09245 -5.62687,5.55314c-3.59505,1.53418 -15.40377,0.2341 -13.34019,-0.90092c4.86768,-2.67733 17.33597,-9.83336 14.8417,-22.07737c-7.05023,-1.57049 -7.36423,-9.91197 -6.43359,-9.41733c21.04872,-1.01973 16.20639,-51.42113 15.28962,-51.18517z" data-paper-data="{&quot;index&quot;:null}" stroke="none" stroke-width="0"/><path d="M197.82865,173.2249c0.93064,-0.49464 0.61664,7.84683 -6.43359,9.41732c-2.49427,12.24401 9.97404,19.40005 14.8417,22.07737c2.06358,1.13502 -9.74513,2.4351 -13.34019,0.90092c-1.07953,-0.46069 -5.45612,-5.59971 -5.62686,-5.55314c-0.47546,0.02218 -1.00489,1.77191 -0.65221,3.19406c0.44491,1.79407 1.83235,3.34417 1.35023,3.34514c-14.91798,0.0302 -5.27218,-84.52659 -5.42871,-84.56687c-0.91677,-0.23597 -5.7591,50.16545 15.28962,51.18518z" data-paper-data="{&quot;index&quot;:null}" stroke="none" stroke-width="0"/><path d="M296.90891,122.03971c-0.15652,0.04028 9.48928,84.59707 -5.42871,84.56687c-0.48212,-0.00098 0.90532,-1.55107 1.35023,-3.34514c0.35268,-1.42215 -0.17674,-3.1719 -0.65221,-3.19406c-0.17074,-0.04657 -4.54734,5.09245 -5.62687,5.55314c-3.59505,1.53418 -15.40377,0.2341 -13.34019,-0.90092c4.86768,-2.67733 17.33596,-9.83336 14.8417,-22.07737c-7.05023,-1.57049 -7.36423,-9.91197 -6.43359,-9.41732c21.04872,-1.01973 16.20639,-51.42113 15.28962,-51.18518z" data-paper-data="{&quot;index&quot;:null}" stroke="none" stroke-width="0"/><path d="M314.66002,163.58749c0.93064,-0.49464 0.61664,7.84684 -6.43359,9.41733c-2.49427,12.24401 9.97404,19.40005 14.8417,22.07737c2.06358,1.13502 -9.74513,2.4351 -13.34019,0.90092c-1.07952,-0.46069 -5.45613,-5.59971 -5.62687,-5.55314c-0.47546,0.02218 -1.00488,1.77191 -0.6522,3.19406c0.44491,1.79407 1.83235,3.34417 1.35023,3.34514c-14.91799,0.0302 -5.27218,-84.52659 -5.42871,-84.56687c-0.91676,-0.23597 -5.7591,50.16544 15.28962,51.18517z" data-paper-data="{&quot;index&quot;:null}" stroke="#000000" stroke-width="2"/><path d="M180.56563,110.21856c-0.15652,0.04028 9.48927,84.59707 -5.42871,84.56687c-0.48212,-0.00098 0.90532,-1.55107 1.35023,-3.34514c0.35268,-1.42215 -0.17674,-3.1719 -0.65221,-3.19406c-0.17074,-0.04657 -4.54734,5.09245 -5.62687,5.55314c-3.59505,1.53418 -15.40377,0.2341 -13.34019,-0.90092c4.86768,-2.67733 17.33597,-9.83336 14.8417,-22.07737c-7.05023,-1.57049 -7.36423,-9.91197 -6.43359,-9.41733c21.04872,-1.01973 16.20638,-51.42113 15.28962,-51.18517z" data-paper-data="{&quot;index&quot;:null}" stroke="#000000" stroke-width="2"/></g><path d="M160.02343,115.48199c0,0 11.19584,12.62254 13.35214,-3.21771c4.67523,-20.23318 7.34823,-34.03227 28.06475,-43.32359c6.17414,-2.76909 9.95134,-6.7433 29.6321,-3.35764c0.24144,0.04154 0.35692,0.05342 0.36286,0.03777c0.06961,-0.18337 -14.88819,-4.14551 -18.46139,-8.50348c-3.91011,-4.76888 -5.41845,-10.51999 -4.61095,-13.84526c6.53248,-18.81072 34.14034,-19.08391 36.01807,-19.48342c19.30974,-2.10832 45.48468,17.06325 4.92227,27.1663c-2.05566,0.51201 27.50938,-11.40873 -11.40892,-14.0594c-19.78575,2.60711 -27.68716,8.81808 -4.274,22.39772c6.74771,-0.59946 15.65379,-0.92751 16.56562,-1.61709c22.08812,2.63953 24.51248,6.58172 32.18506,11.3592c6.17518,3.8451 14.06649,10.52308 18.44144,19.63532c3.37192,7.0231 2.06955,16.50787 5.69805,23.52708c6.92091,13.38824 15.05593,2.03251 15.05593,2.03251c0,0 1.44682,8.76553 -1.41643,14.63621c-2.05695,4.21747 -7.30611,6.21507 -12.39886,5.78189c-0.11182,0.59282 -0.36027,10.08548 4.33635,12.21282c3.96083,1.79406 12.64871,-1.42264 12.64871,-1.42264c0,0 -14.65164,6.37914 -15.62705,10.57541c-1.7558,7.55362 19.13588,-1.13314 16.3392,1.26495c-1.37818,1.18175 -7.26428,5.56839 -12.77969,6.82385c-5.31453,1.20974 -10.28488,-0.70231 -10.54628,-0.03679c-3.49395,8.89536 -10.36285,18.18124 -10.36285,18.18124c0,0 -2.29192,-5.28642 -3.77673,-3.14158c-6.07718,8.77862 -11.2964,15.30957 -11.2964,15.30957c0,0 -2.40974,-4.97718 -4.47106,-3.86765c-9.32569,5.01966 -20.06286,7.91078 -31.65348,7.91078c-12.60656,0 -24.772,-3.56633 -35.27102,-9.52744c-2.72845,-1.54916 -0.82623,4.38789 -0.82623,4.38789c0,0 -7.93843,-5.19677 -13.15685,-11.00681c-6.08759,-6.77777 -9.73663,-14.57056 -12.13914,-18.68944c-0.34082,-0.58431 -4.01999,1.58785 -5.934,2.01254c-2.96082,0.65696 -4.48364,-0.08182 -4.48364,-0.08182c0,0 2.67098,-3.37669 3.55098,-5.15497c0.94364,-1.90688 1.93325,-5.92746 1.93325,-5.92746c0,0 -2.66402,1.90888 -4.05965,2.38502c-1.48595,0.50696 -4.60208,0.57008 -4.60208,0.57008c0,0 4.39229,-5.64339 5.74307,-11.5602c0.39327,-1.72262 4.12301,-9.97893 -0.21176,-9.96905c-17.00132,0.5205 -11.08139,-20.4147 -11.08139,-20.4147z" fill="#4e45f0" stroke="#000000" stroke-width="2" stroke-linecap="butt"/><g stroke="#000000"><path d="M206.71803,307.55609l15.14285,-131.8421l37.78325,-0.15789l13.57389,132z" fill="#ffffff" stroke-width="2" stroke-linecap="butt"/><path d="M219.66826,204.16875l3.12142,-26.32765l35.83075,-0.14203l2.76735,26.1059c0,0 -7.51543,4.19603 -21.55904,4.50964c-12.48458,0.27879 -20.16049,-4.14586 -20.16049,-4.14586z" fill="#e6e6e6" stroke-width="0" stroke-linecap="butt"/><path d="M257.79495,191.05612l-3,28" fill="none" stroke-width="2" stroke-linecap="round"/><path d="M206.71803,307.55609l15.14285,-131.8421c0,0 5.99728,36.24339 22.93006,36.88329c28.90943,1.0925 18.35318,-21.04117 18.35318,-21.04117l10.07389,116z" fill="#94869a" stroke-width="2" stroke-linecap="butt"/><path d="M262.54495,219.05611c0,0 -13.46231,2.23056 -18.94179,0.78011c-5.83188,-1.54373 -16.55821,-8.78011 -16.55821,-8.78011" fill="none" stroke-width="0.5" stroke-linecap="round"/><path d="M254.04495,224.55611c0,0 -4.70146,1.09587 -6.9358,0.66619c-2.08924,-0.40177 -6.0642,-3.16619 -6.0642,-3.16619" fill="none" stroke-width="1" stroke-linecap="round"/><path d="M246.04495,254.05611c0,0 -11.53456,-5.08122 -15.43624,-7.19463c-0.81083,-0.4392 -11.56376,-14.30537 -11.56376,-14.30537" fill="none" stroke-width="0.5" stroke-linecap="round"/><path d="M239.04495,255.05611c0,0 -8.40896,-2.62721 -11.78907,-4.40177c-3.28377,-1.72398 -8.21093,-6.09823 -8.21093,-6.09823" fill="none" stroke-width="1" stroke-linecap="round"/><path d="M211.54495,302.55611l55.5,0.5" fill="none" stroke-width="1" stroke-linecap="round"/><path d="M265.54495,275.05611c0,0 -8.1762,1.73819 -11.98388,1.58887c-4.55699,-0.1787 -13.51612,-2.58887 -13.51612,-2.58887" fill="none" stroke-width="0.5" stroke-linecap="round"/><path d="M267.54495,254.55611l-9.5,2" fill="none" stroke-width="1" stroke-linecap="round"/><path d="M225.04495,268.55611h5.5" fill="none" stroke-width="1" stroke-linecap="round"/><path d="M253.04495,296.05611c0,0 -15.2639,-4.18633 -21.85382,-7.86642c-6.22229,-3.47479 -16.64618,-13.63358 -16.64618,-13.63358" fill="none" stroke-width="1" stroke-linecap="round"/><path d="M256.04495,284.55611c0,0 -12.443,-0.2942 -18.02819,-1.90206c-5.40917,-1.55718 -14.97181,-7.59794 -14.97181,-7.59794" fill="none" stroke-width="1" stroke-linecap="round"/><path d="M224.04495,297.05611c0,0 -3.69928,-1.61165 -4.92301,-3.06483c-1.41506,-1.68037 -3.07699,-6.43517 -3.07699,-6.43517" fill="none" stroke-width="1" stroke-linecap="round"/></g><path d="M175.80793,129.90528c0,-33.30185 28.7599,-60.29833 64.23702,-60.29833c35.47712,0 64.23702,26.99649 64.23702,60.29833c0,33.30185 -28.7599,60.29833 -64.23702,60.29833c-35.47712,0 -64.23702,-26.99649 -64.23702,-60.29833z" fill="#ffffff" stroke="#000000" stroke-width="2" stroke-linecap="butt"/><path d="M176.53099,129.95909c0,-0.72799 5.20666,45.40888 63.36046,46.42378c55.56352,0.9697 63.51358,-47.44263 63.51358,-46.42378c0,32.80479 -28.40173,59.39833 -63.43702,59.39833c-35.03529,0 -63.43702,-26.59354 -63.43702,-59.39833z" fill="#e6e6e6" stroke="#000000" stroke-width="0" stroke-linecap="butt"/><path d="M189.35814,118.32275c0,-12.968 10.51265,-23.48065 23.48065,-23.48065c12.968,0 23.48065,10.51265 23.48065,23.48065c0,12.968 -10.51265,23.48065 -23.48065,23.48065c-12.968,0 -23.48065,-10.51265 -23.48065,-23.48065z" fill="#ffffff" stroke="#000000" stroke-width="2" stroke-linecap="butt"/><path d="M196.42353,111.0471c0,-9.12808 7.39976,-16.52784 16.52783,-16.52784c9.12808,0 16.52784,7.39977 16.52784,16.52784c0,9.12808 -7.39977,16.52784 -16.52784,16.52784c-9.12808,0 -16.52783,-7.39977 -16.52783,-16.52784z" fill="#005a00" stroke="none" stroke-width="0" stroke-linecap="butt"/><path d="M267.09725,141.80337c-12.968,0 -23.48065,-10.51265 -23.48065,-23.48065c0,-12.968 10.51265,-23.48065 23.48065,-23.48065c12.968,0 23.48065,10.51265 23.48065,23.48065c0,12.968 -10.51265,23.48065 -23.48065,23.48065z" data-paper-data="{&quot;index&quot;:null}" fill="#ffffff" stroke="#000000" stroke-width="2" stroke-linecap="butt"/><path d="M266.98465,127.57495c-9.12807,0 -16.52783,-7.39977 -16.52783,-16.52784c0,-9.12808 7.39977,-16.52784 16.52783,-16.52784c9.12807,0 16.52783,7.39977 16.52783,16.52784c0,9.12808 -7.39977,16.52784 -16.52783,16.52784z" data-paper-data="{&quot;index&quot;:null}" fill="#005a00" stroke="none" stroke-width="0" stroke-linecap="butt"/><path d="M189.35815,118.32275c0,-12.968 10.51265,-23.48065 23.48065,-23.48065c12.968,0 23.48065,10.51265 23.48065,23.48065c0,0 -12.6372,-14.16859 -24.80058,-14.02153c-11.28426,0.13644 -22.16073,14.61421 -22.16073,14.02153z" fill="#000000" stroke="#000000" stroke-width="2" stroke-linecap="butt"/><path d="M243.61659,118.3271c0,-12.968 10.51265,-23.48065 23.48065,-23.48065c12.968,0 23.48065,10.51265 23.48065,23.48065c0,0 -10.80946,-14.21652 -22.05629,-14.05758c-12.19537,0.17235 -24.90502,14.69827 -24.90502,14.05758z" fill="#000000" stroke="#000000" stroke-width="2" stroke-linecap="butt"/><path d="M201.99581,89.51428c0,0 6.70895,-5.16922 11.79721,-6.36355c5.08827,-1.19433 12.33413,0.69937 12.33413,0.69937c0,0 -8.03812,-0.06028 -11.96762,0.86207c-4.10648,0.96389 -12.16372,4.80211 -12.16372,4.80211z" fill="#000000" stroke="none" stroke-width="0" stroke-linecap="butt"/><path d="M265.93035,84.71218c-3.9295,-0.92235 -11.96762,-0.86207 -11.96762,-0.86207c0,0 7.24586,-1.8937 12.33413,-0.69937c5.08826,1.19433 11.79721,6.36355 11.79721,6.36355c0,0 -8.05724,-3.83822 -12.16372,-4.80211z" data-paper-data="{&quot;index&quot;:null}" fill="#000000" stroke="none" stroke-width="0" stroke-linecap="butt"/><g fill="none" stroke="#000000" stroke-width="2" stroke-linecap="round"><path d="M189.34495,119.69326l-3.6,-2.6"/><path d="M294.34493,116.09326l-4.2,3.4"/></g><path d="" fill="#4e45f0" stroke="#4e45f0" stroke-width="3" stroke-linecap="butt"/><g stroke-linecap="butt"><path d="M293.43379,87.95396c1.4959,3.09153 10.36325,20.2453 10.87876,26.86341c1.3055,16.76006 -2.47754,25.86795 -3.31715,26.05641c-0.14335,0.03218 7.19076,34.79251 -6.47188,34.7684c-0.44155,-0.00078 0.82914,-1.23872 1.23661,-2.67151c0.323,-1.13577 -0.16187,-2.53314 -0.59733,-2.55085c-0.15637,-0.03719 -4.16468,4.06693 -5.15337,4.43485c-3.29253,1.22523 -14.10754,0.18696 -12.21761,-0.7195c4.45806,-2.13817 15.87714,-7.85313 13.59277,-17.63147c-6.45695,-1.25423 -6.74453,-7.91591 -5.8922,-7.52087c19.27747,-0.81438 8.01888,-35.21028 5.70114,-38.91251c-0.37946,-0.60612 1.5761,-21.56766 2.24026,-22.11638z" data-paper-data="{&quot;index&quot;:null}" fill="#4e45f0" stroke="#000000" stroke-width="2"/><path d="M180.34725,95.34963c11.42496,-19.82043 31.40973,-28.8987 60.56473,-28.70755c24.16321,0.15842 39.14424,8.10482 47.64651,15.0615c16.95139,13.44893 2.38278,29.51212 2.38278,29.51212c0,0 -1.39549,-8.42864 -12.29994,-16.34209c-14.08553,-10.22199 -14.04993,-9.14772 -14.04993,-9.14772c0,0 4.52448,1.68049 -5.04548,17.80574c-3.18352,4.81286 -14.90293,11.98064 -19.935,12.85687c-1.14365,-4.07917 5.20699,-19.2208 -20.82215,-31.18525c-8.3093,10.58893 -21.13836,7.6281 -31.11009,23.55635c-4.31775,12.4405 -12.07633,49.02096 12.20114,35.4172c0.85233,-0.39504 -0.93525,11.0727 -12.3922,11.01618c-0.11292,0.48334 -0.19235,0.95674 -0.2408,1.42028c-0.93171,8.91429 9.59588,14.17871 13.83357,16.21119c1.88993,0.90646 -8.92508,1.94473 -12.21761,0.7195c-0.98869,-0.36791 -4.99699,-4.47204 -5.15337,-4.43485c-0.43545,0.0177 -0.92032,1.41508 -0.59732,2.55085c0.40747,1.43278 1.67816,2.67072 1.23661,2.67151c-13.66263,0.02411 -6.32853,-34.73623 -6.47188,-34.7684c-0.83962,-0.18845 -4.62265,-9.29636 -3.31715,-26.05641c0.70354,-9.03216 5.78759,-18.157 5.78759,-18.157z" fill="#4e45f0" stroke="#000000" stroke-width="2"/><path d="M180.34725,95.34963c11.42496,-19.82043 31.40973,-28.8987 60.56473,-28.70755c24.16321,0.15842 39.14424,8.10482 47.64651,15.0615c1.48878,1.18117 3.10958,3.18381 4.74043,5.66809c-2.70669,1.28372 -5.31348,2.65064 -7.88509,3.93249l-0.67624,-0.35456l-0.67074,-0.50238l-0.0219,-0.02356l-0.07637,-0.05005l-0.45149,-0.33816l-0.1935,-0.08455l-0.15584,-0.10214l-0.11239,-0.49104l-1.08403,-0.60279l-0.83621,-0.85248l-0.76349,-0.03707l-1.51956,-0.84498l-0.23857,-0.15636l-0.5361,-0.46847l-0.02203,-0.09624l-0.24231,-0.13475l-0.19703,-0.17217l-1.97029,-1.03301l-1.9385,-1.07794l-0.26434,-0.07699l-0.29716,-0.1558l-0.24583,-0.13669l-1.26479,-1.2894l-0.49813,-0.02419l-0.6199,-0.46429l-0.41641,-0.18193l-0.05572,-0.08523l-0.27864,-0.06087l-0.24922,-0.10889l-2.24302,-0.43556l-1.17239,-0.25611l-0.39445,-0.21935l-1.5,-0.43692l-1.60277,-0.10773l-1.0684,-0.2334l-0.32883,-0.09578l-0.15832,-0.01063l-0.00395,-0.00087h-0.00889l-0.45887,-0.03084l-0.57108,-0.23637l-2.5,-0.43692l-0.90866,0.03781l-0.09134,-0.03781l-0.92194,-0.16113l-0.03922,-0.00857h-0.00981l-1.52903,-0.26723l-0.99488,0.0414l-0.96628,-0.21109h-11.5098l-1.52903,-0.26723l-0.99488,0.0414l-0.96628,-0.21109h-18.84752l-0.09346,-0.05444l-0.28037,0.05444h-0.27864l-2.22912,0.48696l-1.22834,0.23852l-0.19419,-0.04629l-0.25442,0.13339l-0.56606,0.10992l-0.24922,0.10889l-0.27864,0.06087l-0.05573,0.08523l-0.41641,0.18193l-1.22051,0.91415l-0.64104,0.33609l-0.13845,0.06049l-0.05384,0.04032l-0.54509,0.28579l-0.16621,0.14524l-0.35289,0.01713l-1.29004,1.31514l-0.56826,0.42563l-0.1417,0.00687l-0.36696,0.3741l-0.42812,0.32065l-0.00787,0.12382l-0.88059,0.89774l-1.74016,1.67265l0.01055,0.13362l-0.29513,0.5158c-1.2038,0.57855 -2.29917,1.1521 -3.17367,1.58992c-2.26415,1.1335 -13.99782,11.11556 -14.84836,12.14381c-3.47858,4.20528 -4.32324,6.50029 -7.34534,11.37548c-0.60444,0.97507 -2.17777,3.57547 -3.56112,6.28744c0.03888,-1.45889 0.11712,-2.98858 0.2417,-4.58794c0.70354,-9.03216 5.78759,-18.157 5.78759,-18.157z" fill="#4e45f0" stroke="#4e45f0" stroke-width="4"/><path d="M246.04495,61.78325l6.43886,9.64711l17.04179,1.90641l-12.34913,8.34705l4.11084,12.64339l-15.24236,-7.0948l-15.24235,7.0948l4.11083,-12.64339l-12.34913,-8.34705l17.04179,-1.90641z" fill="#ffe938" stroke="#000000" stroke-width="2"/></g><path d="M254.5228,154.07093c0,0 -4.74929,16.96641 -14.96735,17.14268c-8.42331,0.14532 -14.14224,-17.14268 -14.14224,-17.14268z" fill="#2a2580" stroke="#000000" stroke-width="2" stroke-linecap="round"/><g stroke-width="0" stroke-linecap="butt"><path d="M260.24337,14.22805l4.52524,12.78175l-8.80143,6.70229l-6.55171,-8.33952l-0.4358,19.42403l-13.33538,1.46197l-0.34247,-20.81761l-8.47089,8.89688l-8.45792,-7.04282l1.85762,-8.28847l18.06751,-18.30412l7.12628,-0.39368z" data-paper-data="{&quot;index&quot;:null}" fill="#ffffff" stroke="none"/><path d="M262.54903,23.74867c0.95508,2.1099 -0.90854,3.66712 -2.28043,4.80083c-1.42006,1.17353 -5.32957,3.2006 -5.32957,3.2006c0,0 -3.75901,-8.33088 -5.60947,-7.46142c-0.91544,0.43014 -0.85281,10.47989 -1.18045,16.91033c-0.09236,1.81278 -4.02134,3.22189 -5.77805,3.30197c-4.45127,0.20295 -5.7941,-0.76013 -6.10886,-2.95454c-0.37964,-2.64675 1.26688,-17.403 -0.15599,-18.25294c-0.8738,-0.52196 -9.00884,9.22174 -9.00884,9.22174c0,0 -3.78184,-3.3532 -4.98913,-4.81189c-0.94535,-1.14222 -1.84796,-2.84884 -1.39951,-3.83993c0.6732,-1.4878 12.45565,-21.57205 21.79874,-21.36576c9.15668,0.20216 19.27799,19.56423 20.04155,21.25101z" data-paper-data="{&quot;index&quot;:null}" fill="#12fa05" stroke="#ffffff"/><path d="M267.21561,24.74532c1.16371,2.59858 -3.00398,4.70352 -4.6759,6.09996c-1.73062,1.44549 -6.88992,5.36861 -8.29297,3.7946c-2.51184,-2.81789 -3.4921,-4.01484 -3.4921,-4.01484c0,0 0.31834,4.83886 0.18593,12.76112c-0.06563,3.92687 -5.14202,5.24264 -7.27654,5.43332c-5.99188,0.5353 -9.71454,-0.58854 -10.4125,-3.22362c-0.8025,-3.02971 -0.40311,-15.77287 -0.40311,-15.77287c0,0 -2.8549,3.97198 -5.65008,5.63506c-2.60669,1.55094 -7.8397,-4.3048 -9.31077,-6.10129c-1.1519,-1.40672 -2.24865,-3.9704 -1.70208,-5.19111c0.8205,-1.83251 14.88774,-26.11041 26.27323,-25.85714c11.15835,0.24822 23.82652,24.35933 24.75687,26.43678zM242.48674,1.41801c-10.48466,-0.02717 -23.4635,21.71638 -23.41655,23.16643c0.089,2.74815 6.97067,8.24373 6.97067,8.24373c0,0 8.50458,-10.19859 9.3342,-8.99888c1.28228,1.85428 0.27325,17.17583 0.59791,19.92034c0.34657,2.92952 10.77479,1.89009 12.04468,-0.14778c0.87325,-1.40135 -0.10106,-18.73906 1.07057,-19.64491c1.69671,-1.31183 6.72698,8.77292 6.72698,8.77292c0,0 7.79996,-5.0967 8.30517,-7.03222c0.55014,-2.10764 -11.68058,-24.25387 -21.63365,-24.27968z" data-paper-data="{&quot;index&quot;:null}" fill="#0a4447" stroke="#1542b7"/></g></g></g></svg>