<svg version="1.1" xmlns="http://www.w3.org/2000/svg" xmlns:xlink="http://www.w3.org/1999/xlink" width="132.1388" height="267.22501" viewBox="0,0,132.1388,267.22501"><g transform="translate(-178.40899,-46.3875)"><g data-paper-data="{&quot;isPaintingLayer&quot;:true}" fill-rule="nonzero" stroke-linejoin="miter" stroke-miterlimit="10" stroke-dasharray="" stroke-dashoffset="0" style="mix-blend-mode: normal"><path d="M206.75007,307.50001l15.14285,-131.8421l37.78325,-0.15789l13.57389,132z" fill="#f55959" stroke="#000000" stroke-width="2" stroke-linecap="butt"/><path d="M219.70029,204.11266l3.12142,-26.32765l35.83075,-0.14203l2.76735,26.1059c0,0 -7.51543,4.19603 -21.55904,4.50964c-12.48458,0.27879 -20.16049,-4.14586 -20.16049,-4.14586z" fill="#c14646" stroke="#000000" stroke-width="0" stroke-linecap="butt"/><path d="M181.07375,136.84619c0,-33.30185 28.7599,-60.29833 64.23702,-60.29833c35.47712,0 64.23702,26.99649 64.23702,60.29833c0,33.30185 -28.7599,60.29833 -64.23702,60.29833c-35.47712,0 -64.23702,-26.99649 -64.23702,-60.29833z" fill="#f55959" stroke="#000000" stroke-width="2" stroke-linecap="butt"/><path d="M181.79681,136.90003c0,-0.72799 5.20666,55.91939 63.36046,56.93429c55.56352,0.9697 63.51358,-57.95314 63.51358,-56.93429c0,32.80479 -28.40173,59.39833 -63.43702,59.39833c-35.03529,0 -63.43702,-26.59354 -63.43702,-59.39833z" fill="#c14646" stroke="#000000" stroke-width="0" stroke-linecap="butt"/><path d="M194.62397,137.02566c0,-12.968 10.51265,-23.48065 23.48065,-23.48065c12.968,0 23.48065,10.51265 23.48065,23.48065c0,12.968 -10.51265,23.48065 -23.48065,23.48065c-12.968,0 -23.48065,-10.51265 -23.48065,-23.48065z" fill="#ffffff" stroke="#000000" stroke-width="2" stroke-linecap="butt"/><path d="M274.9557,169.81435c0,0 -10.78878,18.37433 -29.66119,18.68614c-18.54375,-0.78947 -24.74878,-15.30103 -24.74878,-15.30103z" fill="#000000" stroke="#000000" stroke-width="2" stroke-linecap="round"/><path d="M272.36304,160.50629c-12.968,0 -23.48065,-10.51265 -23.48065,-23.48065c0,-12.968 10.51265,-23.48065 23.48065,-23.48065c12.968,0 23.48065,10.51265 23.48065,23.48065c0,12.968 -10.51265,23.48065 -23.48065,23.48065z" data-paper-data="{&quot;index&quot;:null}" fill="#ffffff" stroke="#000000" stroke-width="2" stroke-linecap="butt"/><path d="M243.8474,85.10841c0,0 4.10396,-4.332 6.41486,-5.68651c1.77736,-1.04178 6.27496,-1.75147 6.27496,-1.75147c0,0 1.85549,-11.13897 6.79599,-13.08874c3.40658,-1.3444 9.23818,1.37582 16.01641,1.24171c7.09516,-0.14039 15.06808,-3.10252 15.06808,-3.10252c0,0 -10.26066,6.73818 -14.94205,9.72913c-2.19915,1.40504 -8.18207,4.97308 -12.32827,5.88462c-5.9719,1.31291 -10.97448,-0.18797 -10.97448,-0.18797c0,0 -3.31502,0.69999 -5.17888,1.49858c-2.54719,1.09136 -7.14663,5.46316 -7.14663,5.46316z" fill="#71f17b" stroke="#000000" stroke-width="2" stroke-linecap="round"/><path d="M197.33052,141.55756c0,-9.12808 7.39976,-16.52784 16.52783,-16.52784c9.12808,0 16.52784,7.39977 16.52784,16.52784c0,9.12808 -7.39977,16.52784 -16.52784,16.52784c-9.12808,0 -16.52783,-7.39977 -16.52783,-16.52784z" fill="#000000" stroke="none" stroke-width="0" stroke-linecap="butt"/><path d="M275.29766,148.21074c-9.12807,0 -16.52783,-7.39977 -16.52783,-16.52784c0,-9.12808 7.39977,-16.52784 16.52783,-16.52784c9.12807,0 16.52783,7.39977 16.52783,16.52784c0,9.12808 -7.39977,16.52784 -16.52783,16.52784z" data-paper-data="{&quot;index&quot;:null}" fill="#000000" stroke="none" stroke-width="0" stroke-linecap="butt"/><path d="M178.40899,313.61251v-267.22501h123.18203v267.22501z" fill-opacity="0.01" fill="#000000" stroke="none" stroke-width="0" stroke-linecap="butt"/></g></g></svg>