<svg version="1.1" xmlns="http://www.w3.org/2000/svg" xmlns:xlink="http://www.w3.org/1999/xlink" width="165.37305" height="264.18085" viewBox="0,0,165.37305,264.18085"><g transform="translate(-153.48014,-42.40957)"><g data-paper-data="{&quot;isPaintingLayer&quot;:true}" fill-rule="nonzero" stroke-linejoin="miter" stroke-miterlimit="10" stroke-dasharray="" stroke-dashoffset="0" style="mix-blend-mode: normal"><path d="M305.94623,141.91382c3.26771,25.24198 -3.65309,35.47079 -3.65309,35.47079c0,0 -12.19399,-21.42606 -19.90193,-32.59796c-7.96868,-11.54982 -27.15393,-35.60494 -27.15393,-35.60494l31.74596,-16.9763c0,0 15.34793,21.78307 18.963,49.7084z" data-paper-data="{&quot;index&quot;:null}" fill="#b3946b" stroke="#000000" stroke-width="2" stroke-linecap="butt"/><path d="M191.41799,92.83294l31.87921,16.72472c0,0 -18.99442,24.20607 -26.8715,35.81857c-7.61933,11.2325 -19.64352,32.75433 -19.64352,32.75433c0,0 -7.00148,-10.17375 -3.93348,-35.44079c3.39413,-27.95305 18.5693,-49.85682 18.5693,-49.85682z" data-paper-data="{&quot;index&quot;:null}" fill="#b3946b" stroke="#000000" stroke-width="2" stroke-linecap="butt"/><path d="M292.29527,187.72944c-8.92746,23.83561 -19.83113,29.63525 -19.83113,29.63525c0,0 -0.74674,-24.64167 -2.32889,-38.12204c-1.63568,-13.9364 -7.32992,-44.17374 -7.32992,-44.17374l35.99972,-0.14235c0,0 3.36672,26.43345 -6.50977,52.80288z" data-paper-data="{&quot;index&quot;:null}" fill="#b3946b" stroke="#000000" stroke-width="2" stroke-linecap="butt"/><path d="M178.64907,135.40168l35.99972,-0.14235c0,0 -5.45494,30.28145 -6.98036,44.23032c-1.4755,13.49246 -2.02735,38.13926 -2.02735,38.13926c0,0 -10.9492,-5.71325 -20.06488,-29.47749c-10.08472,-26.29051 -6.92714,-52.74976 -6.92714,-52.74976z" fill="#b3946b" stroke="#000000" stroke-width="2" stroke-linecap="butt"/><path d="M205.51905,305.59042l15.14285,-131.8421l37.78325,-0.15789l13.57389,132z" fill="#e6be8a" stroke="#000000" stroke-width="2" stroke-linecap="butt"/><path d="M218.46928,202.20305l3.12142,-26.32765l35.83075,-0.14203l2.76735,26.1059c0,0 -7.51543,4.19603 -21.55904,4.50964c-12.48458,0.27879 -20.16049,-4.14586 -20.16049,-4.14586z" fill="#cca97a" stroke="#000000" stroke-width="0" stroke-linecap="butt"/><path d="M174.60272,134.98064c-0.13168,-33.3016 28.52125,-60.41158 63.9981,-60.55187c35.47684,-0.14029 64.34326,26.74227 64.47495,60.04385c0.13168,33.3016 -28.52125,60.41158 -63.9981,60.55187c-35.47684,0.14029 -64.34326,-26.74227 -64.47495,-60.04385z" fill="#e6be8a" stroke="#000000" stroke-width="2" stroke-linecap="butt"/><path d="M175.31346,135.28129c-0.00288,-0.72798 5.42774,55.89836 63.58509,56.68331c55.56692,0.74999 63.28392,-58.20383 63.28795,-57.18499c0.12972,32.80454 -28.16664,59.51018 -63.20165,59.64871c-35.03501,0.13853 -63.54168,-26.34249 -63.67139,-59.14702z" fill="#cca97a" stroke="#000000" stroke-width="0" stroke-linecap="butt"/><path d="M179.56756,100.0855c-1.67215,-29.32988 1.21052,-52.94825 52.71405,-56.28437c58.67023,-3.80033 57.09727,20.59865 58.76942,49.92852c0,0 -111.41434,7.56837 -111.48347,6.35585z" fill="#804400" stroke="#000000" stroke-width="2" stroke-linecap="butt"/><path d="M155.13434,106.32991l3.88992,-7.90089l155.26688,-8.51814l3.07975,7.16966z" fill="#804400" stroke="#000000" stroke-width="2" stroke-linecap="butt"/><g fill="none" stroke="#987343" stroke-linecap="round"><g stroke-width="1.5"><g><path d="M185.29285,159.05619l-1.98773,-1.99256"/><path d="M193.04241,160.3225l-5.54472,-5.55816"/></g><g><path d="M283.95447,156.60578l1.98774,1.99256"/><path d="M288.14704,154.30649l5.54472,5.55816"/></g></g><g stroke-width="1"><g><path d="M188.30161,158.9568l-1.98773,-1.99256"/><path d="M190.50644,154.66495l5.54472,5.55816"/></g><g><path d="M286.96322,156.5064l1.98774,1.99256"/><path d="M291.15579,154.20711l5.54472,5.55816"/></g></g></g><path d="M245.0067,177.8618c-6.91617,4.84092 -12.05579,-0.52764 -12.05579,-0.52764" data-paper-data="{&quot;index&quot;:null}" fill="none" stroke="#000000" stroke-width="2" stroke-linecap="round"/><path d="M197.14834,111.99502c0,0 6.68845,-5.19571 11.77196,-6.41015c5.08352,-1.21444 12.3368,0.65059 12.3368,0.65059c0,0 -8.0383,-0.0285 -11.96411,0.90939c-4.10264,0.98012 -12.14463,4.85017 -12.14463,4.85017z" fill="#000000" stroke="none" stroke-width="0" stroke-linecap="butt"/><path d="M266.1197,105.94223c-3.93311,-0.9068 -11.97093,-0.81474 -11.97093,-0.81474c0,0 7.23831,-1.92234 12.33127,-0.74813c5.09294,1.1742 11.82229,6.31685 11.82229,6.31685c0,0 -8.07235,-3.80633 -12.18262,-4.75397z" data-paper-data="{&quot;index&quot;:null}" fill="#000000" stroke="none" stroke-width="0" stroke-linecap="butt"/><path d="M289.20518,135.19059c0.05128,12.9679 -10.41971,23.52204 -23.38762,23.57331c-12.9679,0.05128 -23.52204,-10.41971 -23.57331,-23.38762c-0.05128,-12.9679 10.41971,-23.52204 23.38762,-23.57331c12.9679,-0.05128 23.52204,10.41971 23.57331,23.38762z" data-paper-data="{&quot;index&quot;:null}" fill="none" stroke="#000000" stroke-width="2" stroke-linecap="butt"/><path d="M211.37384,112.01754c12.9679,-0.05128 23.52204,10.41971 23.57331,23.38762c0.05128,12.9679 -10.41971,23.52204 -23.38762,23.57331c-12.9679,0.05128 -23.52204,-10.41971 -23.57331,-23.38762c-0.05128,-12.9679 10.41971,-23.52204 23.38762,-23.57331z" data-paper-data="{&quot;index&quot;:null}" fill="none" stroke="#000000" stroke-width="2" stroke-linecap="butt"/><path d="M234.94719,135.41272c0.05128,12.96791 -10.4197,23.52204 -23.38762,23.57331c-12.96791,0.05128 -23.52205,-10.4197 -23.57332,-23.38762c-0.0024,-0.60605 5.26688,17.39759 22.99119,16.70228c13.55453,0.38118 21.25491,-10.917 23.55181,-15.23957c0.54126,-1.0186 0.41796,-1.64839 0.41796,-1.64839z" data-paper-data="{&quot;index&quot;:null}" fill="#e6be8a" stroke="#000000" stroke-width="2" stroke-linecap="butt"/><path d="M289.36137,135.19757c0.05128,12.96791 -10.4197,23.52204 -23.38762,23.57331c-12.96791,0.05128 -23.52205,-10.4197 -23.57332,-23.38762c-0.0024,-0.60605 5.26688,17.39759 22.99119,16.70228c13.55453,0.38118 21.25491,-10.917 23.55181,-15.23957c0.54126,-1.0186 0.41796,-1.64839 0.41796,-1.64839z" data-paper-data="{&quot;index&quot;:null}" fill="#e6be8a" stroke="#000000" stroke-width="2" stroke-linecap="butt"/></g></g></svg>