<svg version="1.1" xmlns="http://www.w3.org/2000/svg" xmlns:xlink="http://www.w3.org/1999/xlink" width="35.5361" height="35.53589" viewBox="0,0,35.5361,35.53589"><defs><linearGradient x1="239.6691" y1="166.47606" x2="239.6691" y2="188.24091" gradientUnits="userSpaceOnUse" id="color-1"><stop offset="0" stop-color="#27201d"/><stop offset="1" stop-color="#584941"/></linearGradient><linearGradient x1="239.72593" y1="180.96104" x2="239.72593" y2="192.97525" gradientUnits="userSpaceOnUse" id="color-2"><stop offset="0" stop-color="#2e2a29"/><stop offset="1" stop-color="#615957"/></linearGradient></defs><g transform="translate(-221.91346,-161.91346)"><g data-paper-data="{&quot;isPaintingLayer&quot;:true}" stroke-linecap="round" stroke-miterlimit="10" stroke-dasharray="" stroke-dashoffset="0" style="mix-blend-mode: normal"><path d="M257.44955,169.71889v20.49804c0,4.00745 -3.22497,7.23243 -7.23242,7.23243h-20.5c-3.66107,0 -6.66147,-2.69385 -7.1543,-6.21484c0.7952,3.03475 3.54108,5.26367 6.83204,5.26367h20.0332c3.9166,0 7.07032,-3.15372 7.07032,-7.07031v-20.03321c0,-3.2976 -2.23906,-6.0451 -5.28321,-6.83398c3.52994,0.48496 6.23438,3.49081 6.23438,7.15821z" fill-opacity="0.29839" fill="#000000" fill-rule="evenodd" stroke="none" stroke-width="4.54219" stroke-linejoin="round"/><path d="M229.23314,162.16347h20.03378c3.9166,0 7.06966,3.15307 7.06966,7.06966v20.03379c0,3.91659 -3.15307,7.06966 -7.06966,7.06966h-20.03378c-3.91659,0 -7.06967,-3.15307 -7.06967,-7.06966c0,0 0,-7.18141 0,-10.61384c0,-3.23363 0,-9.41995 0,-9.41995c0,-3.91659 3.15308,-7.06966 7.06967,-7.06966z" fill="#000000" fill-rule="evenodd" stroke="#615956" stroke-width="0.5" stroke-linejoin="round"/><path d="M230.91963,181.27616l4.87533,-14.8001l2.08943,15.14834l2.26354,0.87059l0.95765,-1.21883l1.30589,-14.36481l6.0071,14.36481l-14.88716,6.96475z" fill="url(#color-1)" fill-rule="nonzero" stroke="#000000" stroke-width="0" stroke-linejoin="miter"/><path d="M248.69306,181.4834l-0.34824,11.49185h-17.49895l-0.08706,-12.0142z" fill="url(#color-2)" fill-rule="nonzero" stroke="#000000" stroke-width="0" stroke-linejoin="miter"/></g></g></svg>