<svg version="1.1" xmlns="http://www.w3.org/2000/svg" xmlns:xlink="http://www.w3.org/1999/xlink" width="147.34851" height="267.22501" viewBox="0,0,147.34851,267.22501"><g transform="translate(-173.79169,-46.38751)"><g data-paper-data="{&quot;isPaintingLayer&quot;:true}" fill-rule="nonzero" stroke-linejoin="miter" stroke-miterlimit="10" stroke-dasharray="" stroke-dashoffset="0" style="mix-blend-mode: normal"><path d="M179.28373,313.61252v-267.22501h123.18203v267.22501z" fill-opacity="0.01" fill="#000000" stroke="none" stroke-width="0" stroke-linecap="butt"/><g stroke="#000000" stroke-linecap="butt"><path d="M206.75004,307.5l15.14285,-131.8421l37.78325,-0.15789l13.57389,132z" fill="#b2764d" stroke-width="2"/><path d="M219.70027,204.11263l3.12142,-26.32765l35.83075,-0.14203l2.76735,26.1059c0,0 -7.51543,4.19603 -21.55904,4.50964c-12.48458,0.27879 -20.16049,-4.14586 -20.16049,-4.14586z" fill="#a06138" stroke-width="0"/></g><g><path d="M174.79169,134.49976c0,-33.30185 28.7599,-60.29833 64.23702,-60.29833c35.47712,0 64.23702,26.99649 64.23702,60.29833c0,33.30185 -28.7599,60.29833 -64.23702,60.29833c-35.47712,0 -64.23702,-26.99649 -64.23702,-60.29833z" fill="#b2764d" stroke="#000000" stroke-width="2" stroke-linecap="butt"/><path d="M175.51476,134.22027c0,-0.72799 5.20666,55.91939 63.36046,56.93429c55.56352,0.9697 63.51358,-57.95314 63.51358,-56.93429c0,32.80479 -28.40173,59.39833 -63.43702,59.39833c-35.03529,0 -63.43702,-26.59354 -63.43702,-59.39833z" fill="#a06138" stroke="#000000" stroke-width="0" stroke-linecap="butt"/><path d="M202.09514,109.06892c0,0 4.81769,-1.34167 9.97355,-2.35894c7.01343,-1.38379 10.77003,-0.13029 10.77003,-0.13029l2.9041,63.89022c0,0 -5.07715,1.65949 -7.88256,1.65949c-3.62176,0 -12.44615,-1.65949 -12.44615,-1.65949z" fill="none" stroke="#9d6138" stroke-width="2.5" stroke-linecap="round"/><path d="M267.63364,105.40236c5.54706,0.52304 7.06403,1.59221 7.06403,1.59221l-0.82975,61.81586c0,0 -6.55603,0.82975 -9.54204,0.82975c-2.64158,0 -7.46769,-0.82975 -7.46769,-0.82975l2.9041,-63.89022c0,0 4.15446,0.13168 7.87135,0.48215z" fill="none" stroke="#9d6138" stroke-width="2.5" stroke-linecap="round"/><path d="M200.97957,105.78743c0,0 6.70895,-5.16922 11.79722,-6.36355c5.08827,-1.19433 12.33413,0.69937 12.33413,0.69937c0,0 -8.03812,-0.06028 -11.96762,0.86207c-4.10648,0.96388 -12.16372,4.80211 -12.16372,4.80211z" fill="#000000" stroke="none" stroke-width="0" stroke-linecap="butt"/><path d="M264.91411,100.98533c-3.9295,-0.92235 -11.96762,-0.86207 -11.96762,-0.86207c0,0 7.24586,-1.8937 12.33413,-0.69937c5.08826,1.19433 11.79721,6.36355 11.79721,6.36355c0,0 -8.05724,-3.83822 -12.16372,-4.80211z" data-paper-data="{&quot;index&quot;:null}" fill="#000000" stroke="none" stroke-width="0" stroke-linecap="butt"/><path d="M180.96874,155.90537c0,0 1.27471,3.07549 2.06246,4.40033c0.64873,1.09105 2.32843,2.98433 2.32843,2.98433l-3.19336,1.79627c0,0 -1.63318,-2.53986 -2.21157,-3.76467c-0.55131,-1.16746 -1.18139,-3.4204 -1.18139,-3.4204z" fill="#b4b3b4" stroke="#b6b4b2" stroke-width="0.5" stroke-linecap="round"/><path d="M176.37828,152.11325c0,0 -1.0568,-2.6996 -1.36083,-4.01709c-0.29441,-1.27578 -0.43544,-3.76675 -0.43544,-3.76675l3.47833,-0.5422c0,0 -0.10123,2.66703 0.12039,3.97255c0.21545,1.26922 1.19133,3.75473 1.19133,3.75473l-2.99378,0.59875z" fill="#b4b3b4" stroke="#b6b4b2" stroke-width="0.5" stroke-linecap="round"/><path d="M177.38853,127.36464c0,0 -0.43396,2.99796 -0.46907,4.43757c-0.03087,1.26557 0.26948,3.74544 0.26948,3.74544h-3.19337c0,0 -0.19838,-0.161 -0.1831,-4.40509c0.01029,-2.85922 0.38268,-3.57833 0.38268,-3.57833z" fill="#b4b3b4" stroke="#b6b4b2" stroke-width="0.5" stroke-linecap="round"/><path d="M175.40497,120.37915c0,0 0.82609,-4.90945 2.7942,-7.18508c1.96811,-2.27563 1.99474,-0.58001 3.59253,-0.19958c1.59779,0.38043 0.83864,0.52018 0.59876,1.19751c-0.23988,0.67733 -3.99171,8.38259 -3.99171,8.38259z" fill="#b4b3b4" stroke="#b6b4b2" stroke-width="0.5" stroke-linecap="round"/></g><path d="M188.3419,134.5959c0,-12.968 10.51265,-23.48065 23.48065,-23.48065c12.968,0 23.48065,10.51265 23.48065,23.48065c0,12.968 -10.51265,23.48065 -23.48065,23.48065c-12.968,0 -23.48065,-10.51265 -23.48065,-23.48065z" fill="#ffffff" stroke="#000000" stroke-width="2" stroke-linecap="butt"/><path d="M201.34997,137.71609c0,-9.12808 7.39976,-16.52784 16.52783,-16.52784c9.12808,0 16.52784,7.39977 16.52784,16.52784c0,9.12808 -7.39977,16.52784 -16.52784,16.52784c-9.12808,0 -16.52783,-7.39977 -16.52783,-16.52784z" fill="#000000" stroke="none" stroke-width="0" stroke-linecap="butt"/><path d="M251.56837,173.9767h-25.10959" fill="none" stroke="#000000" stroke-width="2" stroke-linecap="round"/><path d="M266.08101,158.07654c-12.968,0 -23.48065,-10.51265 -23.48065,-23.48065c0,-12.968 10.51265,-23.48065 23.48065,-23.48065c12.968,0 23.48065,10.51265 23.48065,23.48065c0,12.968 -10.51265,23.48065 -23.48065,23.48065z" data-paper-data="{&quot;index&quot;:null}" fill="#ffffff" stroke="#000000" stroke-width="2" stroke-linecap="butt"/><path d="M271.91111,154.24393c-9.12807,0 -16.52783,-7.39977 -16.52783,-16.52784c0,-9.12808 7.39977,-16.52784 16.52783,-16.52784c9.12807,0 16.52783,7.39977 16.52783,16.52784c0,9.12808 -7.39977,16.52784 -16.52783,16.52784z" data-paper-data="{&quot;index&quot;:null}" fill="#000000" stroke="none" stroke-width="0" stroke-linecap="butt"/><path d="M188.3419,134.5959c0,-12.968 10.51265,-23.48065 23.48065,-23.48065c12.968,0 23.48065,10.51265 23.48065,23.48065c0,0 -46.96131,1.23155 -46.96131,0z" fill="#b2764d" stroke="#000000" stroke-width="2" stroke-linecap="butt"/><path d="M242.60036,134.5959c0,-12.968 10.51265,-23.48065 23.48065,-23.48065c12.968,0 23.48065,10.51265 23.48065,23.48065c0,1.2138 -46.96131,0 -46.96131,0z" data-paper-data="{&quot;index&quot;:null}" fill="#b2764d" stroke="#000000" stroke-width="2" stroke-linecap="butt"/><g stroke-linecap="butt"><path d="M296.66336,140.63614c5.17728,-1.88146 10.89953,0.79033 12.78098,5.96761c1.88146,5.17728 -0.79033,10.89952 -5.96761,12.78098c-5.17728,1.88146 -10.89953,-0.79033 -12.78098,-5.96761c-1.88146,-5.17728 0.79033,-10.89952 5.96761,-12.78098z" fill="#ffe902" stroke="#f6c002" stroke-width="2"/><path d="M305.30387,154.24305c-1.59337,1.69118 -3.77377,2.44466 -4.87004,1.68294c-1.0963,-0.7617 -0.69334,-2.75019 0.90002,-4.44138c1.59337,-1.69118 3.77377,-2.44465 4.87006,-1.68293c1.0963,0.7617 0.69333,2.75017 -0.90003,4.44135z" fill="#fff26a" stroke="none" stroke-width="0"/></g><path d="M311.95894,139.13046l4.57188,0.72188l-1.44375,3.85l3.60938,4.57188l-3.36875,2.8875l4.81251,4.33126" fill="none" stroke="#ffffff" stroke-width="2" stroke-linecap="round"/><path d="M294.15267,167.28362l3.36875,6.97813l3.12813,-7.94063l3.12813,2.8875l1.44375,-4.81251l1.925,0.48125" fill="none" stroke="#ffffff" stroke-width="2" stroke-linecap="round"/></g></g></svg>