<svg version="1.1" xmlns="http://www.w3.org/2000/svg" xmlns:xlink="http://www.w3.org/1999/xlink" width="34.17311" height="34.17311" viewBox="0,0,34.17311,34.17311"><g transform="translate(-222.91345,-162.91345)"><g data-paper-data="{&quot;isPaintingLayer&quot;:true}" stroke-miterlimit="10" stroke-dasharray="" stroke-dashoffset="0" style="mix-blend-mode: normal"><g><path d="M229.98313,162.91346h20.03378c3.9166,0 7.06966,3.15307 7.06966,7.06966v20.03379c0,3.91659 -3.15306,7.06966 -7.06966,7.06966h-20.03378c-3.91659,0 -7.06967,-3.15307 -7.06967,-7.06966v-20.03379c0,-3.91659 3.15308,-7.06966 7.06967,-7.06966z" fill-opacity="0.09677" fill="#191919" fill-rule="evenodd" stroke="none" stroke-width="4.43922" stroke-linecap="round" stroke-linejoin="round"/><path d="M247.22432,164.27163c0.73104,0 1.4033,0 1.4033,0c3.78022,0 6.82351,2.90244 6.82351,6.50771v18.44134c0,3.60527 -3.04327,6.50771 -6.82351,6.50771h-19.33622c-0.24836,0 -0.60737,-0.01253 -0.84872,-0.03696c-0.01508,-0.00153 5.00671,-8.89122 9.95922,-17.2131c4.35817,-7.32319 8.71406,-14.20669 8.82242,-14.20669z" fill="#808080" fill-rule="evenodd" stroke="none" stroke-width="4.43922" stroke-linecap="round" stroke-linejoin="round"/><path d="M234.33036,166.41096c5.53881,-1.48992 4.59663,3.54678 6.3636,5.23198c0.70541,0.67277 2.87923,0.96459 3.95159,2.08234c1.38439,1.443 1.73759,3.77425 3.13756,4.97358c1.65744,1.41992 6.835,2.86355 5.3089,5.81472c-1.52611,2.95118 -13.288,3.29078 -18.54221,-1.77887c-3.48562,-3.36318 -2.08382,-15.82224 -0.21944,-16.32375z" fill="#808080" fill-rule="nonzero" stroke="none" stroke-width="0" stroke-linecap="butt" stroke-linejoin="miter"/><path d="M234.65951,173.63106c0,0 -11.42952,11.12578 -9.98426,5.33662c1.05434,-4.22329 6.1175,-9.02297 8.77936,-11.31046c0.98694,-0.84814 2.63124,-0.61844 2.63124,-0.61844" fill="none" fill-rule="nonzero" stroke="#808080" stroke-width="0.5" stroke-linecap="round" stroke-linejoin="miter"/><path d="M252.10455,182.73472c0,0 0.71983,2.00972 0.2463,2.70107c-1.80881,2.64084 -6.62188,8.94726 -10.99858,8.39072c-5.52248,-0.70226 6.14416,-11.30107 6.14416,-11.30107" fill="none" fill-rule="nonzero" stroke="#000000" stroke-width="0.5" stroke-linecap="round" stroke-linejoin="miter"/><text transform="translate(232.87663,176.16858) rotate(43.64307) scale(0.321,0.21577) skewX(-1.82509)" font-size="40" xml:space="preserve" fill="#ffffff" fill-rule="nonzero" stroke="none" stroke-width="1" stroke-linecap="butt" stroke-linejoin="miter" stroke-miterlimit="10" stroke-dasharray="" stroke-dashoffset="0" font-family="Handwriting" font-weight="normal" text-anchor="start" style="mix-blend-mode: normal"><tspan x="0" dy="0">W</tspan></text><path d="M242.27799,172.41973c0.8353,0.31818 1.77157,0.68428 2.36759,1.30553c1.38439,1.443 1.73759,3.77425 3.13756,4.97359c1.65744,1.41992 6.835,2.86354 5.30889,5.81472c-1.44594,2.79612 -12.08039,3.2479 -17.66264,-1.02421c-0.18156,-0.13894 6.57258,-11.17476 6.8486,-11.06961z" fill="#000000" fill-rule="nonzero" stroke="none" stroke-width="0" stroke-linecap="butt" stroke-linejoin="miter"/><text transform="translate(232.87663,176.16857) rotate(43.64304) scale(0.32099,0.21577) skewX(-1.82515)" font-size="40" xml:space="preserve" fill="#808080" fill-rule="nonzero" stroke="none" stroke-width="1" stroke-linecap="butt" stroke-linejoin="miter" stroke-miterlimit="10" stroke-dasharray="" stroke-dashoffset="0" font-family="Handwriting" font-weight="normal" text-anchor="start" style="mix-blend-mode: normal"><tspan x="0" dy="0">W</tspan></text><path d="M235.3087,178.75712c-3.70768,-2.58637 2.74239,-5.744 3.08148,-5.744c0.33908,0 0.68305,0.70572 0.68305,0.70572c0,0 -4.3263,2.11001 -3.96493,3.65035c0.0596,0.25403 0.06239,2.13576 3.33269,0.85306c-0.20676,0.30439 -0.5987,1.06625 -0.5987,1.06625c0,0 -1.10419,0.46575 -2.53359,-0.53136z" fill="#000000" fill-rule="nonzero" stroke="none" stroke-width="0" stroke-linecap="butt" stroke-linejoin="miter"/></g></g></g></svg>