<svg version="1.1" xmlns="http://www.w3.org/2000/svg" xmlns:xlink="http://www.w3.org/1999/xlink" width="151" height="267.22501" viewBox="0,0,151,267.22501"><defs><linearGradient x1="320.0001" y1="175.50001" x2="320.0001" y2="307.50001" gradientUnits="userSpaceOnUse" id="color-1"><stop offset="0" stop-color="#000000"/><stop offset="1" stop-color="#050066"/></linearGradient><linearGradient x1="320.57732" y1="163.59024" x2="320.57732" y2="250.64544" gradientUnits="userSpaceOnUse" id="color-2"><stop offset="0" stop-color="#000000"/><stop offset="1" stop-color="#030033"/></linearGradient><linearGradient x1="320.84727" y1="52.27256" x2="320.84727" y2="213.77256" gradientUnits="userSpaceOnUse" id="color-3"><stop offset="0" stop-color="#000000"/><stop offset="1" stop-color="#04004d"/></linearGradient><linearGradient x1="320.07705" y1="79.54783" x2="320.07705" y2="200.14449" gradientUnits="userSpaceOnUse" id="color-4"><stop offset="0" stop-color="#000000"/><stop offset="1" stop-color="#060080"/></linearGradient><linearGradient x1="319.72461" y1="140.81081" x2="319.72461" y2="173.21455" gradientUnits="userSpaceOnUse" id="color-5"><stop offset="0" stop-color="#000000" stop-opacity="0.99608"/><stop offset="1" stop-color="#000000" stop-opacity="0"/></linearGradient></defs><g transform="translate(-245.34728,-46.38751)"><g data-paper-data="{&quot;isPaintingLayer&quot;:true}" fill-rule="nonzero" stroke-linecap="butt" stroke-linejoin="miter" stroke-miterlimit="10" stroke-dasharray="" stroke-dashoffset="0" style="mix-blend-mode: normal"><path d="M259.28382,313.61252v-267.22501h123.18203v267.22501z" fill-opacity="0.01" fill="#000000" stroke="none" stroke-width="0"/><path d="M286.75014,307.5l15.14285,-131.8421l37.78325,-0.15789l13.57389,132z" fill="url(#color-1)" stroke="#000000" stroke-width="0"/><path d="M290.42395,250.08801l8.20157,-86.27259l44.60128,-0.22518l7.50395,87.0552l-30.23979,-11.89646z" fill="url(#color-2)" stroke="#000000" stroke-width="0"/><path d="M396.34728,133.02256c0,44.597 -33.8025,80.75 -75.5,80.75c-41.6975,0 -75.5,-36.15301 -75.5,-80.75c0,-44.59699 33.8025,-80.75 75.5,-80.75c41.6975,0 75.5,36.15301 75.5,80.75z" fill="url(#color-3)" stroke="none" stroke-width="0"/><path d="M388.02023,138.16667c0,38.06162 -30.45365,68.91667 -68.02013,68.91667c-37.56647,0 -68.02013,-30.85504 -68.02013,-68.91667c0,-38.06162 30.45365,-68.91667 68.02013,-68.91667c37.56647,0 68.02013,30.85504 68.02013,68.91667z" fill="#000000" stroke="none" stroke-width="0"/><path d="M255.84004,139.84616c0,-33.30185 28.7599,-60.29833 64.23702,-60.29833c35.47712,0 64.23702,26.99649 64.23702,60.29833c0,33.30185 -28.7599,60.29833 -64.23702,60.29833c-35.47712,0 -64.23702,-26.99649 -64.23702,-60.29833z" fill="url(#color-4)" stroke="#000000" stroke-width="0"/><path d="M255.06944,156.93399c0,0 -10.68891,-17.44383 63.30237,-16.04312c73.53117,1.392 66.35363,16.54276 66.35363,16.54276c0,0 -16.14318,15.30513 -35.91046,15.75467c-20.36858,0.46321 -30.04172,-5.35757 -30.04172,-5.35757c0,0 -11.17729,6.08713 -25.63229,5.26528c-30.2718,-1.72111 -38.07153,-16.16202 -38.07153,-16.16202z" fill="url(#color-5)" stroke="none" stroke-width="0"/><path d="M255.06944,151.93399c0,0 -8.28891,-79.84383 65.70236,-78.44312c73.53117,1.392 63.95363,78.94276 63.95363,78.94276c0,0 -16.14318,15.30513 -35.91046,15.75467c-20.36858,0.46321 -30.04172,-5.35757 -30.04172,-5.35757c0,0 -11.17729,6.08713 -25.63229,5.26528c-30.2718,-1.72111 -38.07153,-16.16202 -38.07153,-16.16202z" fill="#000000" stroke="none" stroke-width="0"/><path d="M281.59799,109.01557c0,0 7.59834,-3.74113 12.82228,-3.90615c5.22395,-0.16501 11.95254,3.12355 11.95254,3.12355c0,0 -7.86762,-1.64791 -11.9019,-1.52047c-4.21598,0.13318 -12.87293,2.30307 -12.87293,2.30307z" fill="#000000" stroke="none" stroke-width="0"/><path d="M345.62429,106.73004c-4.03603,0.04644 -11.82537,2.03168 -11.82537,2.03168c0,0 6.58071,-3.57532 11.80692,-3.63546c5.2262,-0.06014 12.97862,3.35026 12.97862,3.35026c0,0 -8.74237,-1.79502 -12.96017,-1.74649z" data-paper-data="{&quot;index&quot;:null}" fill="#000000" stroke="none" stroke-width="0"/><path d="M331.50001,184.33333c0,4.05009 -5.14873,7.33333 -11.5,7.33333c-6.35127,0 -11.5,-3.28325 -11.5,-7.33333c0,-4.05009 5.14873,-7.33333 11.5,-7.33333c6.35127,0 11.5,3.28325 11.5,7.33333z" fill="#000000" stroke="none" stroke-width="NaN"/><path d="M269.14024,140.52563c0,-12.968 10.51265,-23.48065 23.48065,-23.48065c12.968,0 23.48065,10.51265 23.48065,23.48065c0,12.968 -10.51265,23.48065 -23.48065,23.48065c-12.968,0 -23.48065,-10.51265 -23.48065,-23.48065z" fill="#808080" stroke="#000000" stroke-width="0"/><path d="M276.45565,140c0,-9.12808 7.39976,-16.52784 16.52783,-16.52784c9.12808,0 16.52784,7.39977 16.52784,16.52784c0,9.12808 -7.39977,16.52784 -16.52784,16.52784c-9.12808,0 -16.52783,-7.39977 -16.52783,-16.52784z" fill="#000000" stroke="none" stroke-width="0"/><path d="M346.87936,164.00627c-12.968,0 -23.48065,-10.51265 -23.48065,-23.48065c0,-12.968 10.51265,-23.48065 23.48065,-23.48065c12.968,0 23.48065,10.51265 23.48065,23.48065c0,12.968 -10.51265,23.48065 -23.48065,23.48065z" data-paper-data="{&quot;index&quot;:null}" fill="#808080" stroke="#000000" stroke-width="0"/><path d="M269.30701,140.05056c0,-12.96801 10.51265,-23.48065 23.48066,-23.48065c12.96801,0 23.48065,10.51264 23.48065,23.48065c0,0 -5.87479,16.18483 -24.09973,16.79454c-18.22494,0.60971 -22.86157,-16.17793 -22.86157,-16.79454z" fill="#000000" stroke="#000000" stroke-width="0.5"/><path d="M347.01678,156.52784c-9.12807,0 -16.52783,-7.39977 -16.52783,-16.52784c0,-9.12808 7.39977,-16.52784 16.52783,-16.52784c9.12807,0 16.52783,7.39977 16.52783,16.52784c0,9.12808 -7.39977,16.52784 -16.52783,16.52784z" data-paper-data="{&quot;index&quot;:null}" fill="#000000" stroke="none" stroke-width="0"/><path d="M323.64862,139.55056c0,-12.96801 10.51264,-23.48065 23.48065,-23.48065c12.96801,0 23.48066,10.51264 23.48066,23.48065c0,0.60606 -6.03889,16.90023 -23.59162,16.80233c-17.55273,-0.0979 -23.36969,-16.80233 -23.36969,-16.80233z" data-paper-data="{&quot;index&quot;:null}" fill="#000000" stroke="#000000" stroke-width="0.5"/></g></g></svg>