<svg version="1.1" xmlns="http://www.w3.org/2000/svg" xmlns:xlink="http://www.w3.org/1999/xlink" width="193.26248" height="297.87576" viewBox="0,0,193.26248,297.87576"><defs><linearGradient x1="245.40216" y1="88.98771" x2="245.40216" y2="271.01232" gradientUnits="userSpaceOnUse" id="color-1"><stop offset="0" stop-color="#2ce9f9"/><stop offset="1" stop-color="#13c3fe"/></linearGradient><linearGradient x1="245.81554" y1="182.37406" x2="245.81554" y2="270.54578" gradientUnits="userSpaceOnUse" id="color-2"><stop offset="0" stop-color="#1f89a0"/><stop offset="1" stop-color="#0188ee"/></linearGradient><linearGradient x1="240.00004" y1="175.50002" x2="240.00004" y2="307.50002" gradientUnits="userSpaceOnUse" id="color-3"><stop offset="0" stop-color="#35e7f8"/><stop offset="1" stop-color="#00b3f8"/></linearGradient><linearGradient x1="245.47914" y1="76.54784" x2="245.47914" y2="197.1445" gradientUnits="userSpaceOnUse" id="color-4"><stop offset="0" stop-color="#2bebff"/><stop offset="1" stop-color="#20c6ff"/></linearGradient><linearGradient x1="188.17013" y1="131.6008" x2="188.17013" y2="177.42732" gradientUnits="userSpaceOnUse" id="color-5"><stop offset="0" stop-color="#26dffa"/><stop offset="1" stop-color="#1fd6fb"/></linearGradient><linearGradient x1="303.18597" y1="130.71819" x2="303.18597" y2="176.5447" gradientUnits="userSpaceOnUse" id="color-6"><stop offset="0" stop-color="#26dffa"/><stop offset="1" stop-color="#1fd6fb"/></linearGradient></defs><g transform="translate(-148.8302,-15.73676)"><g data-paper-data="{&quot;isPaintingLayer&quot;:true}" fill-rule="nonzero" stroke-linejoin="miter" stroke-miterlimit="10" stroke-dasharray="" stroke-dashoffset="0" style="mix-blend-mode: normal"><path d="M178.40899,313.61251v-267.22501h123.18203v267.22501z" fill-opacity="0.01" fill="#000000" stroke="none" stroke-width="0" stroke-linecap="butt"/><path d="M307.82352,119.02455l22.87988,23.28845l-19.61133,22.47131l-1.22571,67.00536l29.00842,13.07422l-21.65417,4.49426l12.66565,21.65417h-168.85238l13.35304,-21.18123l-22.45738,-6.06956l27.91998,-11.53216v-64.94431l-20.02956,-24.27824l22.45738,-22.45738l71.01387,-31.56172z" fill="url(#color-1)" stroke="#000000" stroke-width="2" stroke-linecap="round"/><path d="M283.08814,182.37406l-2.40468,88.17172l-72.14051,-0.80156l3.20624,-80.95768z" fill="url(#color-2)" stroke="#000000" stroke-width="0" stroke-linecap="round"/><path d="M236.94341,77.87714l13.98193,-47.4289l19.7392,-12.61115l35.36605,9.8696l-4.66064,16.17517l-33.99527,-8.77298l-12.06285,47.70305z" fill="#fffeff" stroke="#000000" stroke-width="0" stroke-linecap="round"/><path d="M243.79731,55.9447l17.27179,6.03142l-3.28987,10.14376l-16.72348,-7.67636z" fill="#fb9ee8" stroke="#000000" stroke-width="0" stroke-linecap="round"/><path d="M248.73211,38.67291l16.17517,4.66065l-1.91909,6.30557l-15.90102,-4.38649z" fill="#fb9ee8" stroke="#000000" stroke-width="0" stroke-linecap="round"/><path d="M286.01724,22.49774l-5.48311,16.17517l-7.4022,-3.01571l5.47778,-15.34738z" fill="#fb9ee8" stroke="#000000" stroke-width="0" stroke-linecap="round"/><path d="M300.27333,26.06177l-5.48311,16.17517l-7.12804,-2.4674l4.66064,-14.8044z" fill="#fb9ee8" stroke="#000000" stroke-width="0" stroke-linecap="round"/><path d="M271.487,17.83708l-4.11233,17.54595l-15.631,-5.48173z" fill="#efdce8" stroke="#000000" stroke-width="2" stroke-linecap="round"/><path d="M236.94341,77.87714l13.98193,-47.4289l19.7392,-12.61115l35.36605,9.8696l-4.66064,16.17517l-33.99527,-8.77298l-12.06285,47.70305z" fill="none" stroke="#000000" stroke-width="2" stroke-linecap="round"/><g fill="#05fdfb" stroke="#14b4d2" stroke-width="2" stroke-linecap="round"><path d="M209.57907,198.09336l1.70892,15.58054l-16.69344,1.83098l-1.6845,-15.35796z"/><path d="M205.656,209.56125l4.93985,3.96332l-16.24829,1.78216l-4.71726,-3.98773z"/><path d="M211.31241,213.89648l-4.91543,-3.74075l-1.78216,-16.24829l4.93985,3.96332z" data-paper-data="{&quot;index&quot;:null}"/><path d="M204.14524,193.73371l1.70892,15.58054l-16.69344,1.83098l-1.6845,-15.35797z"/></g><g data-paper-data="{&quot;index&quot;:null}" fill="#05fdfb" stroke="#14b4d2" stroke-width="2" stroke-linecap="round"><path d="M217.56136,232.42883l0.35768,15.44593l-16.78905,0.38878l-0.36285,-15.66979z"/><path d="M222.28726,243.07015l-4.14955,4.57557l-16.34134,0.37842l4.3734,-4.58076z"/><path d="M200.76194,232.3699l4.3734,-4.58076l0.37841,16.34134l-4.37859,4.3569z" data-paper-data="{&quot;index&quot;:null}"/><path d="M222.37211,227.39l0.35767,15.44593l-16.78904,0.38878l-0.36285,-15.66979z"/></g><g data-paper-data="{&quot;index&quot;:null}" fill="#05fdfb" stroke="#14b4d2" stroke-width="2" stroke-linecap="round"><path d="M296.24964,192.41172l10.0931,11.69761l-12.71478,10.97076l-10.23938,-11.86712z"/><path d="M306.66154,197.62364l-0.29554,6.16987l-12.37572,10.67821l0.46507,-6.31615z"/><path d="M283.2423,203.04341l0.46507,-6.31614l10.67821,12.37572l-0.61135,6.14661z" data-paper-data="{&quot;index&quot;:null}"/><path d="M296.76123,185.46396l10.09309,11.69761l-12.71478,10.97077l-10.23937,-11.86713z"/></g><g data-paper-data="{&quot;index&quot;:null}" fill="#05fdfb" stroke="#14b4d2" stroke-width="2" stroke-linecap="round"><path d="M283.24133,241.98574l-11.75381,-10.0276l10.89956,-12.77587l11.92415,10.17292z"/><path d="M272.15821,238.41692l-0.64568,-6.1431l10.6089,-12.43519l0.50035,6.31345z"/><path d="M294.48156,229.50052l0.50035,6.31345l-12.4352,-10.60891l-0.32999,-6.16811z" data-paper-data="{&quot;index&quot;:null}"/><path d="M283.79171,248.93053l-11.7538,-10.02759l10.89956,-12.77586l11.92415,10.17291z"/></g><path d="M206.75005,307.50001l15.14285,-131.8421l37.78325,-0.15789l13.57389,132z" fill="url(#color-3)" stroke="#000000" stroke-width="2" stroke-linecap="butt"/><path d="M219.70028,204.11264l3.12142,-26.32765l35.83075,-0.14203l2.76735,26.1059c0,0 -7.51543,4.19603 -21.55904,4.50964c-12.48458,0.27879 -20.16049,-4.14586 -20.16049,-4.14586z" fill="#2a9eba" stroke="#000000" stroke-width="0" stroke-linecap="butt"/><path d="M181.24212,136.84617c0,-33.30185 28.7599,-60.29833 64.23702,-60.29833c35.47712,0 64.23702,26.99649 64.23702,60.29833c0,33.30185 -28.7599,60.29833 -64.23702,60.29833c-35.47712,0 -64.23702,-26.99649 -64.23702,-60.29833z" fill="url(#color-4)" stroke="#000000" stroke-width="2" stroke-linecap="butt"/><path d="M181.96518,136.90001c0,-0.72799 5.20666,55.91939 63.36046,56.93429c55.56352,0.9697 63.51358,-57.95314 63.51358,-56.93429c0,32.80479 -28.40173,59.39833 -63.43702,59.39833c-35.03529,0 -63.43702,-26.59354 -63.43702,-59.39833z" fill="#2a9eba" stroke="#000000" stroke-width="0" stroke-linecap="butt"/><path d="M194.79233,137.27564c0,-12.968 10.51265,-23.48065 23.48065,-23.48065c12.968,0 23.48065,10.51265 23.48065,23.48065c0,12.968 -10.51265,23.48065 -23.48065,23.48065c-12.968,0 -23.48065,-10.51265 -23.48065,-23.48065z" fill="#ffffff" stroke="#000000" stroke-width="2" stroke-linecap="butt"/><path d="M272.53142,160.75627c-12.968,0 -23.48065,-10.51265 -23.48065,-23.48065c0,-12.968 10.51265,-23.48065 23.48065,-23.48065c12.968,0 23.48065,10.51265 23.48065,23.48065c0,12.968 -10.51265,23.48065 -23.48065,23.48065z" data-paper-data="{&quot;index&quot;:null}" fill="#ffffff" stroke="#000000" stroke-width="2" stroke-linecap="butt"/><path d="M207.43,108.46717c0,0 6.70895,-5.16922 11.79721,-6.36355c5.08827,-1.19433 12.33413,0.69937 12.33413,0.69937c0,0 -8.03812,-0.06028 -11.96762,0.86207c-4.10648,0.96389 -12.16372,4.80211 -12.16372,4.80211z" fill="#000000" stroke="none" stroke-width="0" stroke-linecap="butt"/><path d="M271.36452,103.66507c-3.9295,-0.92235 -11.96762,-0.86207 -11.96762,-0.86207c0,0 7.24586,-1.8937 12.33413,-0.69937c5.08826,1.19433 11.79721,6.36355 11.79721,6.36355c0,0 -8.05724,-3.83822 -12.16372,-4.80211z" data-paper-data="{&quot;index&quot;:null}" fill="#000000" stroke="none" stroke-width="0" stroke-linecap="butt"/><path d="M216.21817,117.68049c10.81745,0 19.58673,8.76929 19.58673,19.58673c0,10.81745 -8.76928,19.58674 -19.58673,19.58674c-10.25083,0 -18.66242,-7.87466 -19.5155,-17.90468c2.51935,0.17219 5.02652,0.16734 7.57188,0.16667c0.95852,5.58301 5.82282,9.83129 11.67937,9.83129c6.54498,0 11.85075,-5.30576 11.85075,-11.85075c0,-6.54498 -5.30577,-11.85075 -11.85075,-11.85075c-6.22754,0 -11.33316,4.80356 -11.81377,10.90761c-2.50949,0.00131 -4.9811,0.00751 -7.46695,-0.17523c0.66378,-10.21654 9.16065,-18.29763 19.54497,-18.29763z" fill="#000000" stroke="none" stroke-width="0" stroke-linecap="butt"/><path d="M270.3326,116.79788c10.81745,0 19.58673,8.76929 19.58673,19.58673c0,10.81745 -8.76928,19.58673 -19.58673,19.58673c-10.25083,0 -18.66242,-7.87466 -19.5155,-17.90468c2.51935,0.17219 5.02652,0.16734 7.57188,0.16666c0.95852,5.58301 5.82281,9.83129 11.67936,9.83129c6.54498,0 11.85075,-5.30577 11.85075,-11.85075c0,-6.54498 -5.30577,-11.85075 -11.85075,-11.85075c-6.22754,0 -11.33315,4.80357 -11.81376,10.90762c-2.50949,0.00131 -4.9811,0.00751 -7.46696,-0.17523c0.66378,-10.21654 9.16065,-18.29763 19.54497,-18.29763z" fill="#000000" stroke="none" stroke-width="0" stroke-linecap="butt"/><path d="M173.57658,140.60244c0,0 5.26431,-6.30735 7.49248,-8.48092c1.7944,-1.75043 4.85921,-3.56807 4.85921,-3.56807l14.02249,46.308c0,0 -11.74095,-1.24995 -13.68143,-3.99766c-8.48522,-12.01499 -12.69276,-30.26135 -12.69276,-30.26135z" fill="url(#color-5)" stroke="#000000" stroke-width="0" stroke-linecap="round"/><path d="M317.77953,139.71982c0,0 -4.20753,18.24636 -12.69275,30.26135c-1.94049,2.74771 -13.68143,3.99766 -13.68143,3.99766l14.0225,-46.308c0,0 3.06481,1.81764 4.85921,3.56807c2.22818,2.17357 7.49248,8.48093 7.49248,8.48093z" data-paper-data="{&quot;index&quot;:null}" fill="url(#color-6)" stroke="#000000" stroke-width="0" stroke-linecap="round"/><path d="M235.29881,176.33187c0,0 6.39916,0.63384 9.73558,0.57318c3.52944,-0.06417 10.89458,-0.94827 10.89458,-0.94827c0,0 -5.63208,18.58429 -15.00375,18.75469c-9.37168,0.17039 -5.62641,-18.37959 -5.62641,-18.37959z" fill="#000000" stroke="#000000" stroke-width="2" stroke-linecap="round"/><path d="M198.3167,124.89669c4.14291,-6.6647 11.53144,-11.1017 19.95628,-11.1017c8.03781,0 16.6327,4.78888 20.49025,11.69787c0.07081,0.12683 -40.69154,-0.20202 -40.44653,-0.59617z" fill="#2a9eb8" stroke="#000000" stroke-width="2" stroke-linecap="butt"/><path d="M252.21411,125.49726c4.0653,-6.9974 11.64186,-11.70229 20.3173,-11.70229c8.63927,0 16.1888,4.66574 20.26627,11.61488c0.29244,0.4984 -40.79245,0.44693 -40.58357,0.0874z" data-paper-data="{&quot;index&quot;:null}" fill="#2a9eb8" stroke="#000000" stroke-width="2" stroke-linecap="butt"/></g></g></svg>