<svg version="1.1" xmlns="http://www.w3.org/2000/svg" xmlns:xlink="http://www.w3.org/1999/xlink" width="135.69459" height="258.16221" viewBox="0,0,135.69459,258.16221"><defs><linearGradient x1="319.92305" y1="175.45922" x2="319.92305" y2="307.45912" gradientUnits="userSpaceOnUse" id="color-1"><stop offset="0" stop-color="#4c7b64"/><stop offset="1" stop-color="#2b2b2b"/></linearGradient><linearGradient x1="320.08155" y1="221.49566" x2="320.08155" y2="308.14563" gradientUnits="userSpaceOnUse" id="color-2"><stop offset="0" stop-color="#6b6dd3"/><stop offset="1" stop-color="#000000"/></linearGradient><linearGradient x1="355.96012" y1="194.55737" x2="355.96012" y2="302.11987" gradientUnits="userSpaceOnUse" id="color-3"><stop offset="0" stop-color="#4b7b64"/><stop offset="1" stop-color="#000000"/></linearGradient><linearGradient x1="284.13221" y1="194.46853" x2="284.13221" y2="302.02621" gradientUnits="userSpaceOnUse" id="color-4"><stop offset="0" stop-color="#4b7b64"/><stop offset="1" stop-color="#000000"/></linearGradient><linearGradient x1="320.00014" y1="76.99004" x2="320.00014" y2="197.10365" gradientUnits="userSpaceOnUse" id="color-5"><stop offset="0" stop-color="#000000"/><stop offset="1" stop-color="#ffdac9"/></linearGradient><linearGradient x1="319.92305" y1="136.84608" x2="319.92305" y2="196.25757" gradientUnits="userSpaceOnUse" id="color-6"><stop offset="0" stop-color="#000000"/><stop offset="1" stop-color="#7e647b"/></linearGradient><linearGradient x1="302.99388" y1="113.75416" x2="302.99388" y2="160.71544" gradientUnits="userSpaceOnUse" id="color-7"><stop offset="0" stop-color="#1a1a1a"/><stop offset="1" stop-color="#ffffff"/></linearGradient><linearGradient x1="336.75242" y1="113.75412" x2="336.75242" y2="160.71535" gradientUnits="userSpaceOnUse" id="color-8"><stop offset="0" stop-color="#1a1a1a"/><stop offset="1" stop-color="#ffffff"/></linearGradient><linearGradient x1="319.46461" y1="50.98961" x2="319.46461" y2="110.33913" gradientUnits="userSpaceOnUse" id="color-9"><stop offset="0" stop-color="#4c7b64"/><stop offset="1" stop-color="#000000"/></linearGradient><linearGradient x1="319.45887" y1="55.31628" x2="319.45887" y2="88.41537" gradientUnits="userSpaceOnUse" id="color-10"><stop offset="0" stop-color="#daffed"/><stop offset="1" stop-color="#161a18"/></linearGradient><linearGradient x1="320.08099" y1="60.32454" x2="320.08099" y2="80.96067" gradientUnits="userSpaceOnUse" id="color-11"><stop offset="0" stop-color="#49705e"/><stop offset="1" stop-color="#13160e"/></linearGradient><linearGradient x1="319.47355" y1="146.06581" x2="319.47355" y2="181.77494" gradientUnits="userSpaceOnUse" id="color-12"><stop offset="0" stop-color="#000000"/><stop offset="1" stop-color="#ffdac9"/></linearGradient></defs><g transform="translate(-251.81333,-50.48961)"><g data-paper-data="{&quot;isPaintingLayer&quot;:true}" stroke-linecap="butt" stroke-linejoin="miter" stroke-miterlimit="10" stroke-dasharray="" stroke-dashoffset="0" style="mix-blend-mode: normal"><path d="M286.67305,307.45912l15.14285,-131.8421l37.78325,-0.15789l13.57389,132z" fill="url(#color-1)" fill-rule="nonzero" stroke="#000000" stroke-width="2"/><path d="M299.53999,204.07186l3.12142,-26.32765l35.83075,-0.14203l2.76735,26.1059c0,0 -7.51543,4.19603 -21.55904,4.50964c-12.48458,0.27879 -20.16049,-4.14586 -20.16049,-4.14586z" fill="#2f4b3d" fill-rule="nonzero" stroke="#000000" stroke-width="0"/><path d="M286.20349,307.39563l9.625,-85.15c0,0 16.14032,5.36651 24.41538,5.23987c8.05433,-0.12327 24.59071,-5.98987 24.59071,-5.98987l9.125,86.65z" fill="url(#color-2)" fill-rule="nonzero" stroke="#000000" stroke-width="1"/><path d="M330.77702,225.84335l-2.72223,-31.57302l7.33053,-1.11111l3.5,30.46191c0,0 1.97994,9.94622 -2.77415,10.47275c-4.71963,0.52271 -5.33415,-8.25053 -5.33415,-8.25053z" data-paper-data="{&quot;index&quot;:null}" fill="#6b6dd3" fill-rule="nonzero" stroke="#000000" stroke-width="1"/><path d="M301.66589,224.12111l3.5,-30.4619l8.21942,0.55556l-2.61111,32.12857c0,0 -1.38805,9.70344 -6.18894,8.77837c-5.22617,-1.00701 -2.91937,-11.0006 -2.91937,-11.0006z" fill="#6b6dd3" fill-rule="nonzero" stroke="#000000" stroke-width="1"/><path d="M338.7852,228.05325c0,1.99603 -1.54283,3.61412 -3.44602,3.61412c-1.90319,0 -3.44603,-1.6181 -3.44603,-3.61412c0,-1.99603 1.54284,-3.61412 3.44603,-3.61412c1.90319,0 3.44602,1.61809 3.44602,3.61412z" fill="#c6a438" fill-rule="nonzero" stroke="none" stroke-width="0"/><path d="M309.37397,228.76993c0,1.99603 -1.54283,3.61412 -3.44602,3.61412c-1.90319,0 -3.44603,-1.6181 -3.44603,-3.61412c0,-1.99603 1.54284,-3.61412 3.44603,-3.61412c1.90319,0 3.44602,1.61809 3.44602,3.61412z" fill="#c6a438" fill-rule="nonzero" stroke="none" stroke-width="0"/><path d="M308.84898,229.41992c0,1.99602 -1.54284,3.61412 -3.44602,3.61412c-1.90319,0 -3.44602,-1.6181 -3.44602,-3.61412c0,-1.99602 1.54284,-3.61412 3.44602,-3.61412c1.90319,0 3.44602,1.6181 3.44602,3.61412z" fill="#edd459" fill-rule="nonzero" stroke="none" stroke-width="0"/><path d="M338.53662,228.70117c0,1.87521 -1.44945,3.39537 -3.23744,3.39537c-1.78799,0 -3.23745,-1.52016 -3.23745,-3.39537c0,-1.87521 1.44946,-3.39537 3.23745,-3.39537c1.78799,0 3.23744,1.52016 3.23744,3.39537z" fill="#edd459" fill-rule="nonzero" stroke="none" stroke-width="0"/><path d="M341.61097,194.55737c0.90641,1.442 13.27591,-0.94411 14.53458,0.88889c0.31862,-0.594 9.30076,33.378 9.72787,35c-0.5926,-0.963 5.60783,49.33333 5.60783,49.33333c0,0 0.50768,22.79733 0.91556,22.33333c-0.88787,-0.49 -11.18842,-0.32367 -12.13122,-0.16667c0.5308,-15.625 -11.71487,-68.29133 -19.1124,-79.33333c2.25366,-15.345 -5.00951,-26.28055 0.45778,-28.05555z" fill="url(#color-3)" fill-rule="evenodd" stroke="none" stroke-width="1"/><path d="M341.52131,194.59507c0.91572,1.34757 13.41232,-0.88229 14.68393,0.83068c0.10385,-0.17908 1.11865,3.00386 2.46032,7.4491c-6.17155,-0.51975 -13.01437,-2.82677 -18.35267,1.21834c-0.00693,0.00525 -0.01384,0.01053 -0.02073,0.01584c-0.98219,-5.21007 -1.76061,-8.6161 1.22914,-9.51396z" fill="#2f4b3d" fill-rule="nonzero" stroke="none" stroke-width="1"/><path d="M387.45586,301.10947c0.01927,0.00566 0.03664,0.01141 0.05206,0.01725c-0.01724,0.01347 -0.0346,0.00734 -0.05206,-0.01725z" fill="#2f4b3d" fill-rule="nonzero" stroke="none" stroke-width="1"/><path d="M298.93917,222.52405c-7.39753,11.042 -13.8932,11.70833 -13.3624,27.33333c-0.9428,-0.157 -10.99335,-5.57333 -11.88122,-5.08333c0.40788,0.464 1.11599,-15.37966 0.52339,-14.41666c0.42711,-1.622 9.40925,-35.594 9.72787,-35c1.25867,-1.833 13.62817,0.55311 14.53458,-0.88889c5.46729,1.775 -1.79588,12.71055 0.45778,28.05555z" data-paper-data="{&quot;index&quot;:null}" fill="url(#color-4)" fill-rule="evenodd" stroke="none" stroke-width="1"/><path d="M298.57106,194.50623c2.98975,0.89786 2.21133,4.30389 1.22914,9.51396c-0.00689,-0.00531 -0.0138,-0.01059 -0.02073,-0.01584c-5.3383,-4.04511 -12.18112,-1.73809 -18.35267,-1.21834c1.34167,-4.44524 2.35647,-7.62818 2.46032,-7.4491c1.27161,-1.71297 13.76821,0.51689 14.68393,-0.83068z" data-paper-data="{&quot;index&quot;:null}" fill="#2f4b3d" fill-rule="nonzero" stroke="none" stroke-width="1"/><g><path d="M261.69795,104.84053c0.37225,-1.95627 0.79829,-15.31507 14.96087,-28.03661c7.64679,-6.86874 16.3225,-16.66898 37.90299,-17.32053c32.05868,-0.51111 43.95019,11.08935 52.16133,19.80672c11.26206,11.95638 11.89977,22.71882 14.37822,27.96833c0.25164,0.53297 -119.41455,-2.35933 -119.40341,-2.4179z" fill="#a8530c" fill-rule="nonzero" stroke="none" stroke-width="1.5"/><path d="M255.76312,136.80525c0,-21.15086 11.60129,-39.75822 29.15655,-50.52104c1.08536,-1.75458 19.78544,-9.18722 33.30904,-9.29157c13.5236,-0.10435 26.06266,2.90177 35.96422,8.75705c18.0508,10.67434 30.04423,29.55022 30.04423,51.05556c0,33.30185 -28.7599,60.29833 -64.23702,60.29833c-35.47712,0 -64.23702,-26.99649 -64.23702,-60.29833z" fill="url(#color-5)" fill-rule="nonzero" stroke="#000000" stroke-width="2"/><path d="M256.486,136.85915c0,-0.72799 5.20666,55.91939 63.36046,56.93429c55.56352,0.9697 63.51358,-57.95314 63.51358,-56.93429c0,32.80479 -28.40173,59.39833 -63.43702,59.39833c-35.03529,0 -63.43702,-26.59354 -63.43702,-59.39833z" fill="url(#color-6)" fill-rule="nonzero" stroke="#000000" stroke-width="0"/><path d="M259.42026,148.5137c0,0 -3.17497,-7.83911 -3.17497,-11.77764c0,-6.02949 9.41909,-42.46903 9.41909,-42.46903h9.52492c0,0 -3.70913,8.16542 -4.33994,12.81431c-0.56023,4.12878 0.74163,13.70427 0.74163,13.70427l-2.07085,2.75646l-3.0049,-1.80454z" fill="#3a2f2b" fill-rule="nonzero" stroke="#000000" stroke-width="0"/><path d="M289.71317,137.23478c0,-12.968 5.94595,-23.48065 13.28065,-23.48065c7.3347,0 13.28065,10.51265 13.28065,23.48065c0,12.968 -5.94595,23.48065 -13.28065,23.48065c-7.3347,0 -13.28065,-10.51265 -13.28065,-23.48065z" fill="url(#color-7)" fill-rule="nonzero" stroke="#000000" stroke-width="2"/><path d="M258.52306,144.00197c0,0 -3,-7.4071 -3,-11.12857c0,-5.6972 8.9,-40.12857 8.9,-40.12857h9c0,0 -3.50472,7.71542 -4.10076,12.10811c-0.52936,3.90124 0.70076,12.94903 0.70076,12.94903l-1.95673,2.60455l-2.8393,-1.70509z" fill="#766058" fill-rule="nonzero" stroke="#000000" stroke-width="1.5"/><path d="M336.75242,160.71535c-7.27947,0 -13.18065,-10.51265 -13.18065,-23.48065c0,-12.968 5.90118,-23.48065 13.18065,-23.48065c7.27947,0 13.18065,10.51265 13.18065,23.48065c0,12.968 -5.90118,23.48065 -13.18065,23.48065z" data-paper-data="{&quot;index&quot;:null}" fill="url(#color-8)" fill-rule="nonzero" stroke="#000000" stroke-width="2"/><path d="M279.70187,109.81342c0,0 11.49953,-4.26418 16.5281,-2.83931c5.02858,1.42488 11.69518,5.97183 11.69518,5.97183c0,0 -8.24902,-3.32832 -12.13243,-4.4287c-4.05831,-1.14994 -16.09085,1.29618 -16.09085,1.29618z" fill="#000000" fill-rule="nonzero" stroke="none" stroke-width="0"/><path d="M343.17753,108.87053c-3.85442,1.19798 -10.7515,5.32659 -10.7515,5.32659c0,0 5.28441,-5.30693 10.27546,-6.85819c4.99104,-1.55125 13.39479,-0.49871 13.39479,-0.49871c0,0 -8.89074,0.77838 -12.91875,2.03032z" data-paper-data="{&quot;index&quot;:null}" fill="#000000" fill-rule="nonzero" stroke="none" stroke-width="0"/><path d="M372.11944,122.73763l-3.0049,1.80454l-2.07085,-2.75646c0,0 1.30186,-9.57549 0.74163,-13.70427c-0.63081,-4.64889 -4.33994,-12.81431 -4.33994,-12.81431h9.52492c0,0 9.41909,36.43954 9.41909,42.46903c0,3.93853 -3.17497,11.77764 -3.17497,11.77764z" data-paper-data="{&quot;index&quot;:null}" fill="#3a2f2b" fill-rule="nonzero" stroke="#000000" stroke-width="0"/><path d="M373.71917,121.03486l-2.8393,1.70509l-1.95673,-2.60455c0,0 1.23012,-9.04779 0.70076,-12.94903c-0.59604,-4.39269 -4.10076,-12.10811 -4.10076,-12.10811h9c0,0 8.9,34.43137 8.9,40.12857c0,3.72147 -3,11.12857 -3,11.12857z" data-paper-data="{&quot;index&quot;:null}" fill="#766058" fill-rule="nonzero" stroke="#000000" stroke-width="1.5"/><path d="M258.29805,92.23961c16.52144,-23.64275 37.27087,-41.25 60.25,-41.25c22.93746,0 43.93743,11.90491 59.75,35.25c2.19899,3.24651 5.88227,22.83784 3.89123,23.94724c-2.97694,1.65874 -55.28548,-10.78057 -63.39123,-10.78057c-8.43856,0 -57.31213,11.19019 -60.9229,10.52524c-2.6,-0.4788 -2.04397,-14.16171 0.42291,-17.69191z" fill="url(#color-9)" fill-rule="nonzero" stroke="#000000" stroke-width="1"/><path d="M337.87557,71.8658c0,9.14006 -8.24543,16.54954 -18.41667,16.54954c-10.17124,0 -18.41667,-7.40948 -18.41667,-16.54954c0,-9.14006 8.24543,-16.54954 18.41667,-16.54954c10.17124,0 18.41667,7.40948 18.41667,16.54954z" fill="url(#color-10)" fill-rule="nonzero" stroke="none" stroke-width="0"/><path d="M270.57187,107.23894l2.83334,-8.78572c0,0 8.38245,-3.22377 9.03638,-3.40847c4.87995,-1.37836 25.70344,-8.21057 37.13028,-8.21057c11.03631,0 32.30917,6.51103 38.01657,8.0849c0.95074,0.26217 7.62628,4.74844 7.62628,4.74844l1.82143,8.83333c0,0 -8.71824,-2.99878 -9.5178,-2.99654c-1.88852,0.0053 -5.82465,-0.9574 -10.94539,-2.09485c-7.41256,-1.64651 -17.47406,3.50751 -27.23352,3.53491c-9.94581,0.02792 -19.58437,-5.30103 -26.47853,-3.80424c-4.75314,1.03195 -8.12256,1.90186 -9.20032,1.90488c-0.72784,0.00204 -13.08872,2.19393 -13.08872,2.19393z" fill="#141d18" fill-rule="nonzero" stroke="#000000" stroke-width="0"/><path d="M329.40612,80.96067l-18.24951,-0.72108l-0.40074,-19.91504l5.4799,0.05106l-0.23111,13.48928l13.12073,0.23107z" data-paper-data="{&quot;index&quot;:null}" fill="url(#color-11)" fill-rule="evenodd" stroke="none" stroke-width="1"/><path d="M321.58806,168.62075c0,0 -25.15395,22.08602 -40.05509,15.24439c-14.90114,-6.84162 -14.22695,-40.16713 -14.22695,-40.16713c0,0 14.33284,15.22937 23.38537,19.38569c9.04147,4.15125 30.89668,5.53705 30.89668,5.53705z" fill="#000000" fill-rule="nonzero" stroke="none" stroke-width="0"/><path d="M350.09954,162.99658c8.93403,-4.10191 23.07925,-19.13193 23.07925,-19.13193c0,0 0.66537,32.88928 -14.04072,39.64135c-14.70608,6.75207 -39.53078,-15.04484 -39.53078,-15.04484c0,0 21.56913,-1.36767 30.49224,-5.46458z" data-paper-data="{&quot;index&quot;:null}" fill="#000000" fill-rule="nonzero" stroke="none" stroke-width="0"/><path d="M306.08961,172.46584c-3.03893,-9.31228 9.44444,-26.4 9.44444,-26.4c0,0 2.91771,0.38215 4.39081,0.43071c1.55573,0.05129 4.48697,-0.35293 4.48697,-0.35293c0,0 10.6936,19.54451 8.66667,26.1c-4.78824,15.48611 -23.94996,9.5345 -26.98889,0.22222z" fill="url(#color-12)" fill-rule="nonzero" stroke="#000000" stroke-width="2"/><g stroke="none" stroke-width="1"><path d="M327.79616,151.12257c1.52338,-0.83587 3.18137,-1.20669 4.97595,-1.11349c-0.74533,0.78516 -1.7337,1.30778 -2.9651,1.56786c0.03756,0.03471 0.0751,0.0692 0.11263,0.10348c-0.42771,0.09392 -0.84493,0.21511 -1.24981,0.36165c-0.29017,-0.29495 -0.5814,-0.60144 -0.87367,-0.91949z" fill="#2f2d2e" fill-rule="nonzero"/><path d="M335.22533,125.94707c-0.66683,0.01517 -0.99216,0.35597 -0.97699,1.02249c-1.35246,-1.4114 -3.03319,-2.04003 -5.0442,-1.88574c-0.35566,-0.99216 -1.03766,-1.64352 -2.04498,-1.95398c0.10231,-0.13988 0.20532,-0.27743 0.30903,-0.41266c0.94609,0.27093 1.94853,0.40567 2.98416,0.3821c0.22853,-0.0052 0.45511,-0.01804 0.67948,-0.03824c1.63049,0.56687 2.99498,1.5289 4.0935,2.88603z" fill="#7c82e2" fill-rule="nonzero"/><path d="M329.20421,125.08382c2.01101,-0.15429 3.69174,0.47434 5.0442,1.88574c1.91692,3.05148 2.49262,6.37264 1.7271,9.96329c-1.34428,-4.39275 -4.22962,-6.66101 -8.65704,-6.80482c-0.42991,-2.18878 0.19901,-3.87013 1.88574,-5.0442z" fill="#4c4ebf" fill-rule="evenodd"/><path d="M327.15918,123.12984c1.00732,0.31046 1.68932,0.96182 2.04498,1.95398c-1.68673,1.17408 -2.31564,2.85542 -1.88574,5.0442c4.42742,0.14381 7.31276,2.41207 8.65704,6.80482c0.76551,-3.59064 0.18981,-6.91181 -1.7271,-9.96329c-0.01517,-0.66652 0.31017,-1.00732 0.97699,-1.02249c2.9023,4.55165 3.84983,9.53138 2.84059,14.93924c-0.2331,3.99834 -1.99738,7.03926 -5.29384,9.12279c-1.79458,-0.0932 -3.45258,0.27762 -4.97595,1.11349c-5.49643,-9.27536 -5.70876,-18.60665 -0.63698,-27.99276z" fill="#0e0e12" fill-rule="evenodd"/><path d="M328.91677,134.68983c3.65664,-0.23325 4.6905,1.24362 3.10159,4.43059c-1.28152,0.51929 -2.61138,0.71659 -3.98759,0.59087c-0.17473,-1.78849 0.12028,-3.46163 0.886,-5.02146z" fill="#fbf9f9" fill-rule="evenodd"/></g><g data-paper-data="{&quot;index&quot;:null}" stroke="none" stroke-width="1"><path d="M310.74816,152.34939c-0.40442,-0.1478 -0.82126,-0.27029 -1.24867,-0.36554c0.03764,-0.03416 0.07527,-0.06853 0.11294,-0.10312c-1.23059,-0.26392 -2.21731,-0.78962 -2.96019,-1.5771c1.79487,-0.0876 3.4517,0.28839 4.97246,1.129c-0.29326,0.31714 -0.58544,0.62272 -0.87653,0.91676z" fill="#2f2d2e" fill-rule="nonzero"/><path d="M304.27405,126.23409c1.10275,-1.3537 2.47024,-2.31147 4.10249,-2.87324c0.22431,0.0209 0.45084,0.03444 0.67935,0.04036c1.03555,0.0268 2.33253,-0.22247 3.27946,-0.49045c0.10329,0.13556 0.32352,0.62637 0.42539,0.76657c-1.00829,0.30732 -2.10407,0.72125 -2.46283,1.7123c-2.01052,-0.16056 -3.69321,0.46282 -5.05006,1.86999c0.01725,-0.66648 -0.30703,-1.00827 -0.9738,-1.02553z" fill="#7c82e2" fill-rule="nonzero"/><path d="M312.16787,130.43965c-4.42784,0.13001 -7.32025,2.38925 -8.67822,6.77779c-0.75432,-3.59302 -0.16825,-6.91237 1.75817,-9.95785c1.35685,-1.40717 3.03954,-2.03055 5.05006,-1.86999c1.68306,1.17933 2.30672,2.86263 1.86999,5.05006z" fill="#4c4ebf" fill-rule="evenodd"/><path d="M311.62469,151.43264c-1.52076,-0.84062 -3.17759,-1.21661 -4.97246,-1.129c-3.28994,-2.0938 -5.04472,-5.14021 -5.26535,-9.13926c-0.99237,-5.41098 -0.02931,-10.38773 2.88717,-14.93031c0.66677,0.01726 0.99105,0.35905 0.9738,1.02553c-1.92642,3.04549 -2.51249,6.36484 -1.75817,9.95785c1.35798,-4.38854 4.25038,-6.64778 8.67822,-6.77779c0.43673,-2.18743 -0.18694,-3.87073 -1.86999,-5.05006c0.35876,-0.99105 1.34278,-1.64028 2.35107,-1.9476c5.04248,9.40188 4.50105,18.73246 -1.02428,27.99063z" fill="#0e0e12" fill-rule="evenodd"/><path d="M311.42573,140.02068c-1.3766,0.12143 -2.70583,-0.08002 -3.98573,-0.60331c-1.57896,-3.19191 -0.5405,-4.66554 3.1154,-4.42089c0.76085,1.56221 1.05063,3.23626 0.87033,5.02419z" fill="#fbf9f9" fill-rule="evenodd"/></g><path d="M315.96137,147.18068l1.26667,-4.92821l5.46667,0.2l1.12308,4.84103c0,0 -2.83871,0.7961 -4.25828,0.75031c-1.33016,-0.04291 -3.59813,-0.86313 -3.59813,-0.86313z" fill="#907b72" fill-rule="nonzero" stroke="#000000" stroke-width="0"/></g><g fill-rule="evenodd" stroke="none" stroke-width="1"><path d="M311.95092,225.70006c-0.44817,0.47113 -0.51163,0.9785 -0.19068,1.52181c-0.90316,0.98983 -1.32297,2.12621 -1.25948,3.4092c0.05819,0.83696 -0.08349,1.65149 -0.4251,2.44363c-0.44817,0.47113 -0.51163,0.9785 -0.19068,1.52181c-0.06066,1.2679 -0.37333,2.49693 -0.93763,3.68732c-0.44817,0.47113 -0.51163,0.9785 -0.19068,1.52181c-0.67288,3.87602 -0.44244,7.72945 0.69163,11.56054c0.35511,2.78403 0.40573,5.54505 0.15117,8.28251c-0.44817,0.47113 -0.51163,0.9785 -0.19068,1.52181c-0.44817,0.47113 -0.51163,0.9785 -0.19068,1.52181c0.09591,0.65278 -0.06056,1.26714 -0.46881,1.84365c-1.84659,2.69506 -3.87177,5.25523 -6.07512,7.68069c-1.47609,0.20919 -2.96905,0.41842 -4.47798,0.62789c-0.76924,-0.52419 -1.58388,-0.66599 -2.44363,-0.4251c-0.34314,0.17459 -0.6504,0.09685 -0.92183,-0.23441c-0.77326,-0.93525 -1.69508,-1.16967 -2.7655,-0.70323c-1.84365,-0.46881 -3.6436,-0.33766 -5.39981,0.39349c-1.1561,-0.21704 -2.24888,-0.03697 -3.27803,0.54046c-0.18552,0.21467 -0.38531,0.22924 -0.59998,0.04372c-2.03195,-0.77658 -3.82672,-1.95255 -5.38402,-3.52824c-0.38366,-1.41602 -0.88556,-2.78693 -1.50601,-4.11241c-0.47113,-0.44817 -0.9785,-0.51163 -1.52181,-0.19068c-1.49215,-0.58165 -2.90421,-1.33302 -4.23568,-2.25479c-0.98097,0.62975 -1.99814,1.15625 -3.05152,1.57949c-1.00989,-0.32456 -2.02433,-0.45179 -3.04362,-0.38138c-0.34305,0.17467 -0.65053,0.09675 -0.92183,-0.23441c-1.71652,-1.48335 -3.43308,-2.96672 -5.1496,-4.45007c-0.7192,-0.77161 -1.28466,-1.63523 -1.69669,-2.59061c0.11101,-0.86712 -0.23988,-1.54533 -1.05299,-2.03435c-2.93068,-6.39487 -3.97232,-13.10476 -3.12553,-20.12907c1.33504,-5.95587 5.02369,-9.14008 11.06564,-9.55226c3.07312,-4.50988 7.18553,-6.01589 12.33725,-4.51802c4.08261,-4.11253 8.90956,-5.46953 14.48089,-4.07106c1.33826,0.57016 2.55016,1.33631 3.63569,2.29851c3.08459,-2.988 6.68708,-3.90392 10.80753,-2.74785c3.48341,1.59165 5.98007,4.12395 7.48999,7.59693c0.11473,0.87003 0.12676,1.72372 0.03583,2.56085z" fill="#1a1a1a"/><path d="M304.73906,217.65146c5.52114,4.0455 7.35473,9.66953 2.90398,14.79455c-2.22749,2.93713 -12.67993,0.52642 -12.51941,-2.23069c0.02088,-0.35869 -0.57322,-3.90762 -0.47676,-4.13807c-0.38868,-0.61332 -0.87874,-1.13053 -1.47019,-1.55158c-1.00565,1.43996 -1.54269,3.03728 -1.61109,4.79194c2.0452,8.74841 2.48631,17.56257 1.32374,26.44281c-1.17279,4.4376 -3.97076,6.04899 -8.39366,4.83382c-0.82922,-0.34159 -1.47292,-0.89784 -1.9311,-1.66878c-1.8672,-6.99154 -2.63833,-14.12291 -2.31301,-21.39461c-0.37501,-1.07426 -1.09687,-1.32324 -2.1655,-0.74695c-0.25783,7.50403 0.4814,14.88922 2.21765,22.15552c-1.76109,3.00552 -4.27103,3.7414 -7.5295,2.20739c-0.82922,-0.34159 -1.47292,-0.89784 -1.9311,-1.66878c-1.31338,-2.2959 -2.19555,-4.74483 -2.64644,-7.34672c-0.78833,-4.61157 -1.07728,-9.26495 -0.86652,-13.96045c-0.89597,-0.29302 -1.64222,-0.18849 -2.239,0.31395c-0.35341,7.62271 0.68579,14.986 3.11763,22.08994c-1.46615,0.81314 -2.97327,0.82236 -4.52171,0.02792c-2.54386,-1.76147 -4.51868,-4.03022 -5.92447,-6.80627c-2.31849,-5.31715 -3.42673,-10.86572 -3.32412,-16.64641c0.13459,-3.37999 1.33052,-6.28191 3.58776,-8.70575c4.36873,-0.82356 8.03741,-2.9004 11.00612,-6.23051c0.8854,-0.26555 1.77079,-0.53117 2.65619,-0.79673c1.79285,0.48871 3.61464,0.65754 5.46539,0.50648c4.93624,-5.48659 10.32876,-5.98009 16.17758,-1.48045c0.63768,0.04367 1.23041,-0.10003 1.77807,-0.43116c2.71795,-2.85986 5.92775,-3.64665 9.62944,-2.36041z" fill="#fbfbfb"/><path d="M311.95092,225.70006c0.32094,0.54332 0.25748,1.05068 -0.19068,1.52181c-0.32094,-0.54332 -0.25748,-1.05068 0.19068,-1.52181z" fill="#b7b7b7" opacity="0.745"/><path d="M311.76024,227.22188c-0.06865,1.229 -0.48846,2.36539 -1.25948,3.4092c-0.06348,-1.28298 0.35632,-2.41936 1.25948,-3.4092z" fill="#777777"/><path d="M310.07566,233.07472c0.32094,0.54332 0.25748,1.05068 -0.19068,1.52181c-0.32094,-0.54332 -0.25748,-1.05068 0.19068,-1.52181z" fill="#d1d1d1" opacity="0.416"/><path d="M305.47125,265.07641c-1.11252,1.2874 -2.22503,2.5748 -3.33756,3.8622c-0.91263,0.96371 -2.0373,1.39731 -3.37337,1.30136c-5.01899,-1.86295 -10.10879,-2.04486 -15.26971,-0.54599c-3.93534,-0.47171 -5.14196,-2.54493 -3.6199,-6.22024c0.83709,-0.45668 1.54698,-1.06151 2.12969,-1.8139c3.14948,2.47147 6.43204,2.68434 9.84804,0.63949c1.41979,-1.11407 2.37139,-2.54053 2.85477,-4.27939c1.99659,0.016 3.46942,0.91394 4.41847,2.69384c1.04208,0.42705 1.67396,0.12978 1.89529,-0.89207c-1.29072,-2.24456 -3.16102,-3.76708 -5.61051,-4.56727c0.93215,-0.73322 1.94191,-1.35979 3.02966,-1.87948c1.36788,-0.98893 2.28052,-2.26167 2.73757,-3.81848c-0.50728,-0.06355 -1.01453,-0.12713 -1.52181,-0.19068c-1.01194,1.15411 -2.20715,1.99528 -3.58591,2.52318c0.12994,-5.1162 -0.40126,-6.32798 -1.07459,-11.42609c4.28964,2.09943 7.36619,2.38716 11.04697,-0.69534c-0.7819,3.07187 -0.14115,1.50201 -0.4146,4.63933c1.22261,5.7415 1.64536,11.54141 1.26791,17.3994c-0.35652,1.15161 -0.83007,2.24154 -1.42041,3.27013z" fill="#f9f9f9"/><path d="M308.94734,238.28382c0.32094,0.54332 0.25748,1.05068 -0.19068,1.52181c-0.32094,-0.54332 -0.25748,-1.05068 0.19068,-1.52181z" fill="#acacac" opacity="0.804"/><path d="M309.59946,259.64871c0.32094,0.54332 0.25748,1.05068 -0.19068,1.52181c-0.32094,-0.54332 -0.25748,-1.05068 0.19068,-1.52181z" fill="#8a8a8a" opacity="0.945"/><path d="M309.40878,261.17053c0.32094,0.54332 0.25748,1.05068 -0.19068,1.52181c-0.32094,-0.54332 -0.25748,-1.05068 0.19068,-1.52181z" fill="#c6c6c6" opacity="0.592"/><path d="M308.74927,264.53597c-1.00329,3.38338 -3.02846,5.94352 -6.07512,7.68069c2.20335,-2.42544 4.22853,-4.98562 6.07512,-7.68069z" fill="#959595"/><path d="M305.47125,265.07641c-0.32868,1.60277 -1.18761,2.92203 -2.57664,3.95754c-0.27791,0.07242 -0.53146,0.04054 -0.7609,-0.09534c1.11252,-1.2874 2.22503,-2.5748 3.33756,-3.8622z" fill="#aeaeae" opacity="0.682"/><path d="M302.67415,272.21664c-1.39242,1.00561 -2.88478,1.21478 -4.47798,0.62789c1.50894,-0.20948 3.0019,-0.4187 4.47798,-0.62789z" fill="#d8d8d8" opacity="0.678"/><path d="M298.19617,272.84454c-0.85975,0.24089 -1.67441,0.09909 -2.44363,-0.4251c0.85975,-0.24089 1.67441,-0.09909 2.44363,0.4251z" fill="#c5c5c5" opacity="0.973"/><path d="M294.83069,272.18503c-0.96045,0.01782 -1.88228,-0.21659 -2.7655,-0.70323c1.07041,-0.46644 1.99224,-0.23203 2.7655,0.70323z" fill="#d0d0d0" opacity="0.835"/><path d="M292.06521,271.4818c-1.78538,0.33096 -3.58532,0.46212 -5.39981,0.39349c1.75622,-0.73114 3.55616,-0.86231 5.39981,-0.39349z" fill="#e3e3e3" opacity="0.059"/><path d="M286.66539,271.8753c-1.04603,0.57746 -2.13881,0.75751 -3.27803,0.54046c1.02915,-0.57743 2.12192,-0.75749 3.27803,-0.54046z" fill="#dddddd" opacity="0.086"/><path d="M275.89737,264.81881c-0.54332,0.32094 -1.05068,0.25748 -1.52181,-0.19068c0.54332,-0.32094 1.05068,-0.25748 1.52181,0.19068z" fill="#e2e2e2" opacity="0.349"/><path d="M274.37556,264.62814c-0.20724,0.16779 -0.45357,0.23602 -0.73904,0.20465c-1.19724,-0.56629 -2.39474,-1.13225 -3.59198,-1.69854c-0.88483,0.74262 -1.87022,1.01549 -2.95618,0.81859c1.05338,-0.42325 2.07055,-0.94974 3.05152,-1.57949c1.33147,0.92178 2.74352,1.67315 4.23568,2.25479z" fill="#d5d5d5" opacity="0.698"/><path d="M282.78738,272.45946c-2.61213,0.03142 -4.4069,-1.14456 -5.38402,-3.52824c1.5573,1.57568 3.35205,2.75166 5.38402,3.52824z" fill="#c3c3c3" opacity="0.294"/><path d="M255.22362,254.26202c0.81311,0.48902 1.164,1.16723 1.05299,2.03435c-0.68799,-0.53943 -1.0389,-1.21767 -1.05299,-2.03435z" fill="#a2a2a2"/><path d="M267.08836,263.95281c-1.06454,0.47546 -2.07926,0.34854 -3.04362,-0.38138c1.01928,-0.07041 2.03373,0.05681 3.04362,0.38138z" fill="#e9e9e9" opacity="0.369"/><path d="M257.97331,258.88699c1.71652,1.48335 3.43308,2.96672 5.1496,4.45007c-2.41842,-0.66304 -4.13495,-2.14639 -5.1496,-4.45007z" fill="#b5b5b5"/></g></g></g></svg>