<svg version="1.1" xmlns="http://www.w3.org/2000/svg" xmlns:xlink="http://www.w3.org/1999/xlink" width="142.98043" height="283.23102" viewBox="0,0,142.98043,283.23102"><g transform="translate(-174.84002,-25.26903)"><g data-paper-data="{&quot;isPaintingLayer&quot;:true}" fill-rule="nonzero" stroke="#000000" stroke-linejoin="miter" stroke-miterlimit="10" stroke-dasharray="" stroke-dashoffset="0" style="mix-blend-mode: normal"><path d="M315.16955,29.86733l-19.48684,56.26316l-19.14394,-11.54545z" fill="#b1b1b1" stroke-width="2" stroke-linecap="round"/><path d="M292.67512,93.60271l-3.49242,12.52778l-21.75,-15.5l8.25594,-2.151l-6.08359,-9.07564z" fill="#cccccc" stroke-width="2" stroke-linecap="round"/><path d="M206.75013,307.50004l15.14285,-131.8421l37.78325,-0.15789l3.15646,30.69516l-14.2002,13.8515l12.65506,6.61153l-6.92997,6.53781l10.54034,5.24648l8.3522,69.05752z" fill="#f4f4f4" stroke-width="2" stroke-linecap="butt"/><path d="M219.27171,209.89922l1.91165,-26.69058l38.37128,-0.02105l2.16246,22.59755c0,0 -8.24129,7.94633 -22.2849,8.25994c-12.48458,0.27879 -20.16049,-4.14586 -20.16049,-4.14586z" fill="#cccccc" stroke-width="0" stroke-linecap="butt"/><path d="M175.84002,143.97306c0,-33.30185 28.7599,-60.29833 64.23702,-60.29833c35.47712,0 64.23702,26.99649 64.23702,60.29833c0,33.30185 -28.7599,60.29833 -64.23702,60.29833c-35.47712,0 -64.23702,-26.99649 -64.23702,-60.29833z" fill="#f4f4f4" stroke-width="2" stroke-linecap="butt"/><path d="M176.56309,144.0269c0,-0.72799 5.20666,55.91939 63.36046,56.93429c55.56352,0.9697 63.51358,-57.95314 63.51358,-56.93429c0,32.80479 -28.40173,59.39833 -63.43702,59.39833c-35.03529,0 -63.43702,-26.59354 -63.43702,-59.39833z" fill="#cccccc" stroke-width="0" stroke-linecap="butt"/><path d="M189.39025,144.15253c0,-12.968 10.51265,-23.48065 23.48065,-23.48065c12.968,0 23.48065,10.51265 23.48065,23.48065c0,12.968 -10.51265,23.48065 -23.48065,23.48065c-12.968,0 -23.48065,-10.51265 -23.48065,-23.48065z" fill="#cccccc" stroke-width="2" stroke-linecap="butt"/><path d="M267.12931,167.63316c-12.968,0 -23.48065,-10.51265 -23.48065,-23.48065c0,-12.968 10.51265,-23.48065 23.48065,-23.48065c12.968,0 23.48065,10.51265 23.48065,23.48065c0,12.968 -10.51265,23.48065 -23.48065,23.48065z" data-paper-data="{&quot;index&quot;:null}" fill="#cccccc" stroke-width="2" stroke-linecap="butt"/><path d="M233.91715,196.72483l6.55107,-19.29308l6.32238,19.29308z" fill="#000000" stroke-width="2" stroke-linecap="round"/><path d="M272.6827,72.13049l27.25,16.5l2,11.5l-38.25,-24.25z" fill="#646464" stroke-width="2" stroke-linecap="round"/></g></g></svg>