<svg version="1.1" xmlns="http://www.w3.org/2000/svg" xmlns:xlink="http://www.w3.org/1999/xlink" width="144" height="321.11268" viewBox="0,0,144,321.11268"><defs><linearGradient x1="368.16674" y1="225.16689" x2="368.16674" y2="355.50028" gradientUnits="userSpaceOnUse" id="color-1"><stop offset="0" stop-color="#000000"/><stop offset="1" stop-color="#402200"/></linearGradient><linearGradient x1="273.16679" y1="224.50024" x2="273.16679" y2="354.83367" gradientUnits="userSpaceOnUse" id="color-2"><stop offset="0" stop-color="#000000"/><stop offset="1" stop-color="#402200"/></linearGradient><linearGradient x1="320.00014" y1="216.33353" x2="320.00014" y2="235.66689" gradientUnits="userSpaceOnUse" id="color-3"><stop offset="0" stop-color="#1a0e00"/><stop offset="1" stop-color="#593000"/></linearGradient><linearGradient x1="320.00011" y1="177.90022" x2="320.00011" y2="210.65022" gradientUnits="userSpaceOnUse" id="color-4"><stop offset="0" stop-color="#000000"/><stop offset="1" stop-color="#454747"/></linearGradient><linearGradient x1="320.97512" y1="207.8002" x2="320.97512" y2="219.2002" gradientUnits="userSpaceOnUse" id="color-5"><stop offset="0" stop-color="#18191a"/><stop offset="1" stop-color="#5e6061"/></linearGradient><linearGradient x1="320.00012" y1="119.06242" x2="320.00012" y2="196.93793" gradientUnits="userSpaceOnUse" id="color-6"><stop offset="0" stop-color="#17171a"/><stop offset="1" stop-color="#5e6061"/></linearGradient></defs><g transform="translate(-248,-46.3875)"><g data-paper-data="{&quot;isPaintingLayer&quot;:true}" stroke-miterlimit="10" stroke-dasharray="" stroke-dashoffset="0" style="mix-blend-mode: normal"><path d="M248,367.50019v-316h144v316z" fill="none" fill-rule="nonzero" stroke="none" stroke-width="0" stroke-linecap="butt" stroke-linejoin="miter"/><path d="M258.40899,313.61251v-267.22501h123.18203v267.22501z" fill-opacity="0.01" fill="#000000" fill-rule="nonzero" stroke="none" stroke-width="0" stroke-linecap="butt" stroke-linejoin="miter"/><path d="M312.04364,360.7972c0,0 -4.67938,-21.11975 1.4357,-46.3743c3.6733,-15.17028 18.69854,-35.02836 20.03884,-43.72523c2.35721,-15.29534 -2.13056,-43.75197 -2.13056,-43.75197l5.92999,0.91389c0,0 4.6573,30.36412 2.66854,43.26865c-1.51969,9.86086 -16.48135,27.03455 -20.87867,44.52962c-5.81091,23.11915 -1.13385,46.05324 -1.13385,46.05324z" fill="#000000" fill-rule="nonzero" stroke="#000000" stroke-width="0" stroke-linecap="butt" stroke-linejoin="miter"/><path d="M374.00005,355.50028h-11.66667v-130.33333h11.66667z" fill="url(#color-1)" fill-rule="nonzero" stroke="#000000" stroke-width="0" stroke-linecap="butt" stroke-linejoin="miter"/><path d="M279.00012,354.83367h-11.66666v-130.33333h11.66666z" fill="url(#color-2)" fill-rule="nonzero" stroke="#000000" stroke-width="0" stroke-linecap="butt" stroke-linejoin="miter"/><path d="M254.83348,235.66689v-19.33333h130.33333v19.33333z" fill="url(#color-3)" fill-rule="nonzero" stroke="#000000" stroke-width="0" stroke-linecap="butt" stroke-linejoin="miter"/><path d="M312.90011,210.65022v-32.75h14.2v32.75z" fill="url(#color-4)" fill-rule="nonzero" stroke="#000000" stroke-width="0" stroke-linecap="butt" stroke-linejoin="miter"/><path d="M284.50012,219.2002l5.73764,-11.4h61.26981l5.94255,11.4z" fill="url(#color-5)" fill-rule="nonzero" stroke="#000000" stroke-width="0" stroke-linecap="butt" stroke-linejoin="miter"/><path d="M293.29812,119.06242h53.404c8.92534,0 16.1107,7.18538 16.1107,16.1107v45.654c0,8.92532 -7.18535,16.1107 -16.1107,16.1107h-53.404c-8.92532,0 -16.1107,-7.18538 -16.1107,-16.1107v-45.654c0,-8.92532 7.18538,-16.1107 16.1107,-16.1107z" fill="url(#color-6)" fill-rule="evenodd" stroke="#000000" stroke-width="0" stroke-linecap="round" stroke-linejoin="round"/><path d="M298.2877,126.33836h43.4249c7.25755,0 13.10025,5.84271 13.10025,13.10025v37.12307c0,7.25753 -5.8427,13.10025 -13.10025,13.10025h-43.4249c-7.25753,0 -13.10025,-5.84271 -13.10025,-13.10025v-37.12307c0,-7.25753 5.84271,-13.10025 13.10025,-13.10025z" fill="#000000" fill-rule="evenodd" stroke="#000000" stroke-width="2" stroke-linecap="round" stroke-linejoin="round"/><path d="M292.8,158.00001c0,-15.02214 12.17786,-27.2 27.2,-27.2c15.02214,0 27.2,12.17786 27.2,27.2c0,15.02214 -12.17786,27.2 -27.2,27.2c-15.02214,0 -27.2,-12.17786 -27.2,-27.2z" fill="#ff0000" fill-rule="nonzero" stroke="#ff0000" stroke-width="0" stroke-linecap="butt" stroke-linejoin="miter"/><path d="M306.73958,167.17916c-1.25,0 -1.25,-1.25 -1.25,-1.25l0.00765,-0.33804c0.2531,-2.20594 0.76951,-4.61203 1.77056,-6.70603c-2.08601,-2.93597 -3.99254,-5.99649 -5.97892,-9.07881c0,0 -0.67713,-1.05071 0.37359,-1.72784c1.05071,-0.67713 1.72784,0.37359 1.72784,0.37359c1.7733,2.75167 3.47894,5.48944 5.31261,8.13235c0.62426,-0.6877 2.35346,-2.19455 2.60249,-2.55732c1.75105,-2.55084 2.63355,-5.81796 3.65545,-8.71392c0,0 0.41603,-1.17874 1.59476,-0.76271c1.17874,0.41603 0.76271,1.59476 0.76271,1.59476c-1.09235,3.09438 -2.0584,6.56406 -3.94455,9.28608c-0.7695,1.11052 -2.02704,1.8092 -2.85597,2.87609c-0.10122,0.13028 -0.19875,0.26449 -0.29273,0.40225c1.18819,1.60224 2.4459,3.15963 3.8197,4.65289l1.21472,1.32034c0,0 0.84632,0.91991 -0.07359,1.76623c-0.91991,0.84632 -1.76623,-0.07359 -1.76623,-0.07359l-1.21472,-1.32034c-1.14237,-1.2417 -2.2069,-2.52554 -3.2188,-3.84153c-0.54559,1.52643 -0.84648,3.17838 -1.00421,4.65359l0.00765,0.06196c0,0 0,1.25 -1.25,1.25z" fill="#000000" fill-rule="nonzero" stroke="none" stroke-width="0.5" stroke-linecap="butt" stroke-linejoin="miter"/><path d="M333.33958,162.97916c-1.25,0 -1.25,-1.25 -1.25,-1.25v-0.2c0,-2.71115 0.36526,-5.51909 1.01484,-8.21732c-1.48356,-3.01166 -3.07103,-5.92482 -5.44872,-8.2988c0,0 -0.88388,-0.88388 0,-1.76777c0.88388,-0.88388 1.76777,0 1.76777,0c1.96652,1.96941 3.39773,4.26529 4.66714,6.672c0.0259,-0.07565 0.05202,-0.15113 0.07835,-0.22643c1.03481,-2.95931 2.83185,-5.4778 3.12683,-8.68606c0,0 0.12438,-1.2438 1.36818,-1.11942c1.2438,0.12438 1.11942,1.36818 1.11942,1.36818c-0.36854,3.45482 -2.13547,6.12665 -3.27317,9.31394c-0.29932,0.83855 -0.56696,1.70307 -0.80056,2.58411c1.44594,2.96885 2.89644,5.96038 5.00602,8.5967l0.27391,0.98087c0,0 0,1.25 -1.25,1.25c-0.86922,0 -1.134,-0.60443 -1.21466,-0.97268c-1.43526,-1.85806 -2.56203,-3.89911 -3.60483,-5.97898c-0.21673,1.50687 -0.33051,3.02177 -0.33051,4.50166v0.2c0,0 0,1.25 -1.25,1.25z" fill="#000000" fill-rule="nonzero" stroke="none" stroke-width="0.5" stroke-linecap="butt" stroke-linejoin="miter"/><path d="M333.11212,176.87303c0.03306,0.12657 0.06569,0.25287 0.09795,0.37893c0.4702,0.03205 0.92689,0.14383 1.36175,0.3501c-0.25348,-0.52891 -0.47338,-1.06227 -0.68652,-1.507c-0.09111,-0.1901 -0.18144,-0.37626 -0.27149,-0.5589c-0.50247,-0.74359 -1.2015,-1.80221 -2.00636,-2.7061c0.01681,0.03511 0.03362,0.07021 0.05043,0.10532c0.25754,0.29902 0.44777,0.73496 0.57775,1.24976c0.21473,0.49529 0.4083,0.99717 0.55793,1.51293c0.00778,0.00507 0.01557,0.01009 0.02338,0.01506l0.36986,0.59242c0,0 0.16626,0.33252 -0.07468,0.56747zM330.37529,172.56557c0.00282,-0.00084 0.00564,-0.00168 0.00846,-0.0025c-0.19006,-0.40218 -0.37418,-0.80626 -0.53938,-1.21613c-0.26273,-0.13767 -0.52916,-0.23551 -0.79707,-0.28209c0.49716,0.47549 0.91203,0.94935 1.19239,1.31584c0.04537,0.05975 0.09055,0.12148 0.13561,0.18488zM321.98001,169.97918c0.36166,-1.06855 0.89373,-1.91127 1.68999,-1.73271c0.39099,0.08768 0.62004,0.4514 0.7683,0.92701c0.04027,-0.01577 0.08081,-0.03021 0.12159,-0.04333c-0.1798,-0.58902 -0.33546,-1.18602 -0.46474,-1.7783c-0.28273,0.15008 -0.51814,0.29959 -0.55981,0.3291c-0.15109,0.107 -0.34474,0.15506 -0.55516,0.17634c-0.20785,0.13617 -0.40252,0.28697 -0.57267,0.46362c-0.39914,0.4144 -0.3709,1.06598 -0.42748,1.65827zM326.83297,169.44763c0.41349,0.20259 0.82029,0.46444 1.20509,0.75456c0.47253,-0.09245 0.94603,-0.06023 1.41126,0.06559c-0.15251,-0.39375 -0.32679,-0.75107 -0.51476,-1.10866c-0.59091,-0.4913 -1.19068,-0.89705 -1.40363,-0.76801c-0.08235,0.0499 -0.16301,0.11067 -0.24199,0.18002l0.01033,0.01072c0.08687,0.08995 0.14032,0.21239 0.14032,0.34732c0,0.27614 -0.22386,0.5 -0.5,0.5c-0.03878,0 -0.07653,-0.00441 -0.11277,-0.01277c0.00237,0.01029 0.00443,0.02071 0.00615,0.03123zM326.43313,164.64907c0.00055,0.09177 0.00824,0.20298 0.02099,0.329c0.54877,-0.02492 1.11095,-0.01419 1.3214,0.11025c0.80638,0.47683 1.60032,2.15888 2.15707,3.57794c0.40946,0.36461 0.77187,0.74392 1.04003,1.04106c1.48544,1.64598 2.82208,3.64136 3.94673,5.73626c0.75826,0.85911 1.87695,2.07991 1.69318,2.64785c-0.04282,0.13234 -0.13489,0.23875 -0.26394,0.32382c0.08825,0.20618 0.17424,0.4122 0.25792,0.61784l0.02708,-0.01693l0.52591,0.84146c0.05067,0.07819 0.08009,0.17143 0.08009,0.27154c0,0.08612 -0.02177,0.16716 -0.06011,0.2379c2.01828,1.4742 -0.79969,2.56528 -2.46534,2.98189c0.44333,1.6413 0.96205,3.28189 1.67328,4.95783c0.84274,1.47181 2.28909,-1.31602 0.02681,-3.59797c-1.66193,-1.67637 -3.84343,1.49764 -4.8013,-0.82746c-0.49394,0.06771 -0.99848,0.12991 -1.51007,0.18475c-0.20831,0.69812 -0.48438,1.33678 -0.88298,1.6771c-1.23216,1.05201 -3.08844,0.18473 -4.42637,-0.97771c-0.06597,0.03207 -0.14004,0.05005 -0.21832,0.05005c-0.27174,0 -0.49285,-0.21678 -0.49983,-0.48684l-0.00188,-0.06255c-0.9048,-0.05192 -1.78874,-0.14894 -2.63226,-0.30121c-0.88972,1.77673 -2.08886,3.69126 -2.99399,3.16982c-0.17393,-0.1002 -0.24375,-0.37427 -0.25431,-0.72088c-0.21124,-0.61808 -0.43121,-1.5274 -0.58096,-2.14657c-0.53794,0.43061 -1.13223,0.46084 -1.678,-0.44581c-0.59653,-0.99097 0.71477,-2.59806 1.56648,-3.72326c0.10278,-1.09196 0.35212,-2.05895 0.86886,-2.98075c-0.08801,-0.10432 -0.17545,-0.21667 -0.26217,-0.33738c-0.45928,-0.91617 -1.20353,-2.15157 -0.9556,-3.2652c-0.07491,-0.49325 -0.11037,-1.03365 -0.1082,-1.64685c0.23191,-0.7393 1.11528,-1.22755 2.20124,-1.45119c0.24823,-0.85424 0.68067,-1.67677 1.2406,-2.41052c0.02232,-0.20576 0.05455,-0.36405 0.10086,-0.43075c0.10888,-0.1568 0.27651,-0.21798 0.46993,-0.24024c0.79259,-0.83788 1.75558,-1.50931 2.77879,-1.90346c0.01945,-0.48819 0.09412,-1.0987 0.25849,-1.13785c0.33501,-0.07979 0.64397,-0.01106 0.92545,0.15886l0.26884,-0.53768c0.08017,-0.16912 0.25246,-0.28608 0.45206,-0.28608c0.22492,0 0.41515,0.14851 0.47799,0.35282l0.19635,0.58906l-0.02568,0.00856zM320.43933,169.85576c-0.07163,0.13675 -0.12946,0.28206 -0.17911,0.4319c0.0594,-0.00327 0.11898,-0.00585 0.17868,-0.00773c0.00045,-0.11672 0.00068,-0.23364 0.00068,-0.35076c0,-0.02118 -0.0001,-0.04577 -0.00025,-0.07341zM318.5246,184.04611c0.01573,-0.09508 0.03116,-0.19343 0.04639,-0.29479c-0.04686,0.02602 -0.09407,0.05214 -0.14162,0.07838c0.03663,0.06944 0.06808,0.14181 0.09523,0.21641zM329.3646,183.03997c0.13097,-0.60957 0.22777,-1.2178 0.3341,-1.62925c0.09425,-0.35431 0.17056,-0.69768 0.22819,-1.02911c-0.20028,-0.38532 -0.41609,-0.71475 -0.63729,-0.81487c-0.2067,0.13965 -0.41138,0.28775 -0.6133,0.44258c-0.18165,0.61257 -0.36465,1.22475 -0.54877,1.83658l-0.28493,0.94681c-0.03118,0.11298 -0.10101,0.20992 -0.19437,0.2757c0.57286,-0.00018 1.14523,-0.00768 1.71637,-0.02844zM319.13881,173.15185c-0.65348,0.43561 -1.01343,0.91408 -0.58403,2.15825c0.07892,0.09386 0.16305,0.18788 0.2503,0.28203c0.21279,-0.85042 0.46971,-1.71051 0.58071,-2.59645c-0.04042,0.02457 -0.0801,0.04901 -0.11894,0.07343l-0.11862,0.12199c-0.0032,-0.01308 -0.00634,-0.02616 -0.00943,-0.03925zM321.43958,175.72916c0,0.1178 0.00026,0.23454 0.00068,0.35028c0.03321,0.01418 0.06733,0.03064 0.10238,0.04947c0.20004,-0.6537 0.58231,-1.27551 1.11435,-1.70832c0.10386,-0.08449 0.22275,-0.15952 0.35456,-0.22556c0.09952,-0.62053 0.12103,-1.4769 0.17831,-2.29325c-0.14559,-0.08937 -0.32752,-0.16919 -0.53532,-0.23893c-0.14266,0.62723 -0.28312,1.25368 -0.41121,1.88534l-0.00367,0.96321c-0.0009,0.27538 -0.22441,0.49834 -0.5,0.49834c-0.11259,0 -0.2165,-0.03722 -0.30007,-0.10002zM322.86636,170.62089c0.15368,0.05435 0.30093,0.11519 0.44017,0.18258c0.06932,-0.42788 0.17044,-0.79529 0.32748,-1.04368c-0.05934,-0.25811 -0.13022,-0.45522 -0.22485,-0.54793c-0.37496,-0.3674 -0.44878,0.68445 -0.5428,1.40904zM316.7452,183.23681c0.34608,0.58593 0.74752,0.05725 1.06421,-0.62476c-0.21303,-0.05728 -0.36983,-0.25177 -0.36983,-0.48289l0,-0.12674c-0.36345,0.41845 -0.83449,0.99717 -0.69438,1.23439zM318.01912,172.45858c0.25757,-0.07251 0.53915,-0.07312 0.82046,-0.11847v-0.41095h0.16995c0.00291,-0.17341 0.01441,-0.34688 0.03407,-0.51996c-0.57345,0.10188 -0.97517,0.29236 -1.00776,0.58105c0.00054,0.1355 -0.0066,0.29512 -0.01671,0.46833zM329.05756,184.16661c-1.06415,0.09025 -2.14775,0.14438 -3.22015,0.14649c0.99919,0.78876 2.18912,1.34216 2.82189,0.60202c0.15831,-0.18518 0.28838,-0.44669 0.39827,-0.74851zM326.92089,171.99464c0.00039,0.00463 0.00078,0.00926 0.00116,0.01389c0.18841,-0.2241 0.3619,-0.34149 0.51753,-0.3721v-0.14454c-0.12699,0.09781 -0.2533,0.21264 -0.3787,0.34573c-0.04751,0.05043 -0.09415,0.10285 -0.13999,0.15702zM335.92987,180.42796c-0.59227,-0.15013 -1.30723,-0.26459 -2.0438,-0.40354c0.18686,0.78479 0.37295,1.56399 0.57069,2.34143c1.49147,-0.35221 3.29528,-0.9391 1.72927,-1.48313c-0.08345,-0.16001 -0.16888,-0.3115 -0.25615,-0.45476zM333.47859,182.57686c-0.23469,-0.92196 -0.45385,-1.84693 -0.67713,-2.78098c-0.30552,-0.07385 -0.60622,-0.15705 -0.89478,-0.25396c-0.17103,0.42587 -0.37764,0.75679 -0.61354,0.94078c-0.0604,0.04711 -0.12114,0.10438 -0.18274,0.16385c0.1182,0.21281 0.23452,0.4225 0.34999,0.61873c0.27976,0.47541 0.5326,0.99092 0.7723,1.52911c0.238,-0.03462 0.47556,-0.07337 0.71263,-0.11669c0.08842,-0.01616 0.28022,-0.05083 0.53327,-0.10084zM325.20174,181.96398c0.14055,-0.163 0.2871,-0.32717 0.43905,-0.4915c0.00246,-0.46973 0.00856,-0.93915 0.0172,-1.40838c-0.012,-0.04292 -0.01842,-0.08818 -0.01842,-0.13493v-0.45972c-0.08156,-0.05133 -0.16602,-0.11322 -0.25355,-0.18672c-0.02502,-0.02101 -0.04832,-0.04427 -0.06994,-0.06959l-0.13097,0.29468c-0.00864,0.71608 0.0713,1.6205 0.01662,2.45617zM328.12299,167.50513c-0.23065,-0.59647 -0.5256,-1.35239 -0.81934,-1.53513c-0.24218,-0.15066 -0.49645,-0.24719 -0.75881,-0.29736c0.0808,0.55394 0.1821,1.19593 0.21963,1.73959c0.0228,0.07646 0.04411,0.15106 0.06391,0.2233c0.10617,-0.0752 0.21304,-0.13298 0.31985,-0.16831c0.30142,-0.09968 0.6332,-0.07295 0.97475,0.0379zM333.73291,183.54907c-0.35781,0.06298 -0.72548,0.12424 -1.10125,0.18289c0.99847,2.43225 1.89634,5.10625 3.83268,6.57978c0.21518,0.16375 -0.32612,-0.43292 -0.46274,-0.66627c-0.17331,-0.29603 -0.3399,-0.59596 -0.50984,-0.89394c-0.75106,-1.75752 -1.29431,-3.47843 -1.75885,-5.20247zM328.15868,179.072c0.36487,-0.40627 0.69716,-0.56892 1.00421,-0.56072c0.06478,-0.03997 0.12973,-0.07924 0.19484,-0.11776c-0.38085,-0.03343 -0.76594,-0.06412 -1.14657,-0.0869c-0.01098,0.13505 -0.02187,0.2702 -0.03271,0.40548c-0.00937,0.11692 -0.01547,0.23723 -0.01977,0.3599zM325.17212,167.05523c0.05044,0.1448 0.10187,0.29628 0.15289,0.4524c-0.02523,-0.15339 -0.06185,-0.28919 -0.11303,-0.40074c-0.00963,-0.02099 -0.02306,-0.03809 -0.03986,-0.05166zM329.42572,173.4769c0.05162,0.24524 0.09992,0.4915 0.14659,0.73842c0.03557,-0.338 0.07007,-0.65337 0.09362,-0.92501c-0.0734,-0.10403 -0.14749,-0.20589 -0.22265,-0.30487c-0.00123,-0.00163 -0.00246,-0.00326 -0.00369,-0.0049v0.14861h-0.00394c-0.00225,0.11737 -0.00552,0.23325 -0.00992,0.34774zM327.03016,183.06605c0.01328,0.0001 0.02656,0.0002 0.03985,0.00029c-0.00989,-0.00708 -0.01952,-0.01451 -0.02886,-0.02227zM330.37489,182.98811c0.27369,-0.0185 0.547,-0.04087 0.81984,-0.06778c-0.17763,-0.38265 -0.36497,-0.75106 -0.56745,-1.09881c-0.07748,0.32736 -0.15728,0.73512 -0.25239,1.16659zM334.96391,179.22647c-0.22408,-0.20377 -0.45557,-0.37006 -0.69308,-0.50213c-0.24305,-0.00647 -0.48192,-0.01912 -0.70372,-0.03313c0.02424,0.1002 0.04835,0.20027 0.07237,0.30022c0.44873,0.08936 0.90078,0.16353 1.32443,0.23505zM326.97783,170.63535c-0.05654,-0.03662 -0.11331,-0.07206 -0.17024,-0.10619l-0.07432,0c0.01448,0.08167 0.02826,0.16362 0.04136,0.24582c0.06754,-0.04975 0.13529,-0.09627 0.20319,-0.13963zM320.22714,171.31944c-0.08148,-0.00019 -0.16227,0.00072 -0.24206,0.00273c-0.02925,0.10594 -0.06074,0.2096 -0.09647,0.30956c0.01676,-0.0017 0.03376,-0.00257 0.05097,-0.00257c0.02084,0 0.04139,0.00128 0.06157,0.00375c0.08433,-0.10027 0.1591,-0.20504 0.22599,-0.31347zM332.52023,178.62914c-0.09965,-0.00023 -0.20352,-0.00227 -0.31116,-0.00584c0.10927,0.03749 0.22136,0.07284 0.33565,0.1063c-0.00815,-0.03347 -0.01631,-0.06696 -0.02449,-0.10046zM330.98064,177.55463c0.02902,0.00188 0.05786,0.00375 0.08652,0.0056c0.03203,-0.47921 0.07099,-1.31505 0.06803,-2.12346c-0.21143,-0.26996 -0.41086,-0.55682 -0.60504,-0.84781c-0.02727,0.31564 -0.05814,0.65172 -0.08097,0.98256c0.3083,0.45423 0.46829,1.17782 0.53146,1.98311zM322.97744,177.99538c0.00684,-0.48238 0.02268,-0.96489 0.05208,-1.44464c-0.20377,0.28714 -0.42731,0.55004 -0.66617,0.77846c-0.02958,0.48469 0.11286,0.86499 0.54867,0.90643c0.02226,-0.0799 0.04405,-0.15999 0.06542,-0.24025zM328.82629,176.59841c-0.11555,0.28133 -0.25134,0.55931 -0.41047,0.83638c0.21958,0.00289 0.43805,0.00849 0.65394,0.01601c-0.08301,-0.27535 -0.16611,-0.56174 -0.24348,-0.85239zM323.03618,182.35989c-0.00025,-0.02221 -0.00051,-0.04444 -0.00079,-0.06669c-0.08015,-0.25522 -0.14053,-0.51487 -0.18334,-0.77791c-0.00992,0.00572 -0.01993,0.01126 -0.03002,0.01662c-0.13123,0.3045 -0.28865,0.6431 -0.46285,0.96636c0.22573,-0.04662 0.45135,-0.09301 0.677,-0.13838zM321.51753,179.89819c-0.04733,-0.23503 -0.0875,-0.47713 -0.12152,-0.71465c-0.02078,0.30382 -0.04983,0.60301 -0.09016,0.89898c0.02795,0.27803 0.06023,0.58213 0.08197,0.88807c0.15564,-0.27727 0.13626,-0.7681 0.12971,-1.0724z" fill="#000000" fill-rule="nonzero" stroke="none" stroke-width="0.5" stroke-linecap="butt" stroke-linejoin="miter"/><path d="M300.32947,126.68837h39.34136c6.57507,0 11.86834,5.70431 11.86834,12.78993v36.2437c0,7.08561 -5.29327,12.78993 -11.86834,12.78993h-39.34136c-6.57506,0 -11.86834,-5.70431 -11.86834,-12.78993v-36.2437c0,-7.08561 5.29328,-12.78993 11.86834,-12.78993z" fill-opacity="0.49994" fill="#000000" fill-rule="evenodd" stroke="#000000" stroke-width="2" stroke-linecap="round" stroke-linejoin="round"/></g></g></svg>