<svg version="1.1" xmlns="http://www.w3.org/2000/svg" xmlns:xlink="http://www.w3.org/1999/xlink" width="226.43593" height="479.12942" viewBox="0,0,226.43593,479.12942"><defs><linearGradient x1="237.61655" y1="168.00583" x2="237.61655" y2="359.97418" gradientUnits="userSpaceOnUse" id="color-1"><stop offset="0" stop-color="#0e0000"/><stop offset="1" stop-color="#000000"/></linearGradient><linearGradient x1="237.97875" y1="167.52289" x2="237.97875" y2="323.02932" gradientUnits="userSpaceOnUse" id="color-2"><stop offset="0" stop-color="#710000"/><stop offset="1" stop-color="#0d0000"/></linearGradient><linearGradient x1="237.61655" y1="155.23377" x2="237.61655" y2="170.68782" gradientUnits="userSpaceOnUse" id="color-3"><stop offset="0" stop-color="#0e0000"/><stop offset="1" stop-color="#000000"/></linearGradient><linearGradient x1="237.85802" y1="69.99499" x2="237.85802" y2="168.75607" gradientUnits="userSpaceOnUse" id="color-4"><stop offset="0" stop-color="#0e0000"/><stop offset="1" stop-color="#000000"/></linearGradient><linearGradient x1="238.9945" y1="91.14763" x2="238.9945" y2="-100.82071" gradientUnits="userSpaceOnUse" id="color-5"><stop offset="0" stop-color="#0e0000"/><stop offset="1" stop-color="#000000"/></linearGradient><linearGradient x1="239.35671" y1="91.63057" x2="239.35671" y2="-63.87586" gradientUnits="userSpaceOnUse" id="color-6"><stop offset="0" stop-color="#710000"/><stop offset="1" stop-color="#0d0000"/></linearGradient><linearGradient x1="224.14828" y1="103.02034" x2="129.02433" y2="-63.72282" gradientUnits="userSpaceOnUse" id="color-7"><stop offset="0" stop-color="#0e0000"/><stop offset="1" stop-color="#000000"/></linearGradient><linearGradient x1="224.70219" y1="103.26034" x2="147.64581" y2="-31.8121" gradientUnits="userSpaceOnUse" id="color-8"><stop offset="0" stop-color="#710000"/><stop offset="1" stop-color="#0d0000"/></linearGradient><linearGradient x1="251.8013" y1="102.94948" x2="346.92525" y2="-63.79368" gradientUnits="userSpaceOnUse" id="color-9"><stop offset="0" stop-color="#0e0000"/><stop offset="1" stop-color="#000000"/></linearGradient><linearGradient x1="251.24739" y1="103.18948" x2="328.30377" y2="-31.88296" gradientUnits="userSpaceOnUse" id="color-10"><stop offset="0" stop-color="#710000"/><stop offset="1" stop-color="#0d0000"/></linearGradient></defs><g transform="translate(-124.75683,109.98797)"><g data-paper-data="{&quot;isPaintingLayer&quot;:true}" fill-rule="nonzero" stroke-width="4" stroke-linejoin="miter" stroke-miterlimit="10" stroke-dasharray="" stroke-dashoffset="0" style="mix-blend-mode: normal"><path d="M194.75569,168.00583l85.72171,0.48294l-42.98159,191.48541z" fill="url(#color-1)" stroke="url(#color-2)" stroke-linecap="round"/><path d="M194.75569,168.99754c0,0 -9.3421,4.131 -9.6385,1.71745c-0.26304,-2.14185 7.94822,-15.48122 7.94822,-15.48122h89.10229c0,0 5.47953,12.44115 5.07833,14.68786c-0.40368,2.26064 -7.49302,-1.16556 -7.49302,-1.16556z" fill="url(#color-3)" stroke="#710000" stroke-linecap="butt"/><path d="M188.47748,119.37553c0,-27.27211 22.10842,-49.38053 49.38053,-49.38053c27.27212,0 49.38054,22.10842 49.38054,49.38053c0,27.27212 -16.08959,49.16108 -49.38054,49.38054c-33.33,0.21972 -49.38053,-22.10843 -49.38053,-49.38054z" fill="url(#color-4)" stroke="#710000" stroke-linecap="butt"/><path d="M238.87377,-100.82071l42.98159,191.48541l-85.72172,0.48294z" data-paper-data="{&quot;index&quot;:null}" fill="url(#color-5)" stroke="url(#color-6)" stroke-linecap="round"/><path d="M128.91947,-63.66299l64.83434,86.80306l44.2029,67.63975l-51.03725,33.4789l-34.41368,-88.14623z" data-paper-data="{&quot;index&quot;:null}" fill="url(#color-7)" stroke="url(#color-8)" stroke-linecap="round"/><path d="M323.44381,36.04162l-34.41368,88.14623l-49.58843,-33.72036c0,0 17.48278,-28.65427 25.40869,-40.80566c6.39837,-9.80949 17.34539,-26.59261 17.34539,-26.59261l64.83434,-86.80306z" data-paper-data="{&quot;index&quot;:null}" fill="url(#color-9)" stroke="url(#color-10)" stroke-linecap="round"/><g fill="#060000" stroke="#710000"><path d="M177.98694,321.17386c-1.73168,-11.46152 5.70966,-22.18486 16.62069,-23.95125c10.91103,-1.76638 21.15997,6.09309 22.89165,17.55461c1.73168,11.46152 -3.033,20.81388 -16.62069,23.95125c-12.64679,2.92012 -21.15997,-6.09309 -22.89165,-17.55461z" stroke-linecap="butt"/><path d="M204.92344,256.49541c5.29613,19.0947 12.23487,53.62519 12.23487,53.62519l-40.18316,6.22557c0,0 -0.63058,-34.48556 0.15427,-54.10681c0.94574,-23.64348 5.12802,-77.95055 5.12802,-77.95055c0,0 16.47023,49.86834 22.666,72.2066z" stroke-linecap="round"/></g><g data-paper-data="{&quot;index&quot;:null}" fill="#060000" stroke="#710000"><path d="M277.69713,339.72847c-13.58769,-3.13736 -18.35237,-12.48972 -16.62069,-23.95125c1.73168,-11.46152 11.98062,-19.32099 22.89165,-17.55461c10.91103,1.76638 18.35237,12.48972 16.62069,23.95125c-1.73168,11.46152 -10.24485,20.47473 -22.89165,17.55461z" stroke-linecap="butt"/><path d="M296.31828,185.28881c0,0 4.18228,54.30707 5.12802,77.95055c0.78485,19.62125 0.15427,54.10681 0.15427,54.10681l-40.18316,-6.22557c0,0 6.93874,-34.53049 12.23487,-53.62518c6.19577,-22.33826 22.666,-72.2066 22.666,-72.2066z" stroke-linecap="round"/></g><path d="M217.4,134.82418c0,-1.04934 0.85066,-1.9 1.9,-1.9c1.04934,0 1.9,0.85066 1.9,1.9c0,1.04934 -0.85066,1.9 -1.9,1.9c-1.04934,0 -1.9,-0.85066 -1.9,-1.9z" fill="#710000" stroke="#710000" stroke-linecap="butt"/><path d="M255.2,134.22417c0,-1.04934 0.85066,-1.9 1.9,-1.9c1.04934,0 1.9,0.85066 1.9,1.9c0,1.04934 -0.85066,1.9 -1.9,1.9c-1.04934,0 -1.9,-0.85066 -1.9,-1.9z" fill="#710000" stroke="#710000" stroke-linecap="butt"/></g></g></svg>