<svg version="1.1" xmlns="http://www.w3.org/2000/svg" xmlns:xlink="http://www.w3.org/1999/xlink" width="221.31803" height="243.05051" viewBox="0,0,221.31803,243.05051"><defs><linearGradient x1="239.62567" y1="186.70345" x2="239.62567" y2="303.61003" gradientUnits="userSpaceOnUse" id="color-1"><stop offset="0" stop-color="#000000"/><stop offset="1" stop-color="#0f175d"/></linearGradient><linearGradient x1="239.73111" y1="203.9109" x2="239.73111" y2="289.89504" gradientUnits="userSpaceOnUse" id="color-2"><stop offset="0" stop-color="#000000"/><stop offset="1" stop-color="#e6caad"/></linearGradient><radialGradient cx="238.42693" cy="236.17769" r="8.50413" gradientUnits="userSpaceOnUse" id="color-3"><stop offset="0" stop-color="#5f0000"/><stop offset="1" stop-color="#5f0000" stop-opacity="0"/></radialGradient><radialGradient cx="240.00107" cy="223.00461" r="17.22688" gradientUnits="userSpaceOnUse" id="color-4"><stop offset="0" stop-color="#5f0000"/><stop offset="1" stop-color="#5f0000" stop-opacity="0"/></radialGradient><radialGradient cx="247.17123" cy="237.51168" r="20.39802" gradientUnits="userSpaceOnUse" id="color-5"><stop offset="0" stop-color="#5f0000"/><stop offset="1" stop-color="#5f0000" stop-opacity="0"/></radialGradient><radialGradient cx="240.83481" cy="255.52045" r="20.39802" gradientUnits="userSpaceOnUse" id="color-6"><stop offset="0" stop-color="#5f0000"/><stop offset="1" stop-color="#5f0000" stop-opacity="0"/></radialGradient><radialGradient cx="246.96988" cy="234.60836" r="8.50414" gradientUnits="userSpaceOnUse" id="color-7"><stop offset="0" stop-color="#5f0000"/><stop offset="1" stop-color="#5f0000" stop-opacity="0"/></radialGradient><radialGradient cx="239.06386" cy="230.64139" r="20.39802" gradientUnits="userSpaceOnUse" id="color-8"><stop offset="0" stop-color="#5f0000"/><stop offset="1" stop-color="#5f0000" stop-opacity="0"/></radialGradient><radialGradient cx="233.82239" cy="248.99877" r="20.39802" gradientUnits="userSpaceOnUse" id="color-9"><stop offset="0" stop-color="#5f0000"/><stop offset="1" stop-color="#5f0000" stop-opacity="0"/></radialGradient><linearGradient x1="259.44835" y1="190.08966" x2="259.44835" y2="305.25903" gradientUnits="userSpaceOnUse" id="color-10"><stop offset="0" stop-color="#000000"/><stop offset="1" stop-color="#6b6d91"/></linearGradient><linearGradient x1="260.12655" y1="238.07409" x2="260.12655" y2="251.09349" gradientUnits="userSpaceOnUse" id="color-11"><stop offset="0" stop-color="#000000"/><stop offset="1" stop-color="#919191"/></linearGradient><linearGradient x1="255.06725" y1="193.60392" x2="255.06725" y2="304.33963" gradientUnits="userSpaceOnUse" id="color-12"><stop offset="0" stop-color="#000000"/><stop offset="1" stop-color="#919191"/></linearGradient><linearGradient x1="222.43057" y1="188.03631" x2="222.43057" y2="303.20569" gradientUnits="userSpaceOnUse" id="color-13"><stop offset="0" stop-color="#000000"/><stop offset="1" stop-color="#6b6d91"/></linearGradient><linearGradient x1="221.75238" y1="236.02077" x2="221.75238" y2="249.04018" gradientUnits="userSpaceOnUse" id="color-14"><stop offset="0" stop-color="#000000"/><stop offset="1" stop-color="#919191"/></linearGradient><linearGradient x1="226.20865" y1="193.0582" x2="226.20865" y2="302.28633" gradientUnits="userSpaceOnUse" id="color-15"><stop offset="0" stop-color="#000000"/><stop offset="1" stop-color="#919191"/></linearGradient><linearGradient x1="157.94092" y1="97.83417" x2="208.40882" y2="253.56221" gradientUnits="userSpaceOnUse" id="color-16"><stop offset="0" stop-color="#000000"/><stop offset="1" stop-color="#0f175d"/></linearGradient><linearGradient x1="158.96068" y1="101.95547" x2="192.93422" y2="206.7871" gradientUnits="userSpaceOnUse" id="color-17"><stop offset="0" stop-color="#000000"/><stop offset="1" stop-color="#0f175d"/></linearGradient><linearGradient x1="177.65372" y1="72.11996" x2="206.16054" y2="160.08302" gradientUnits="userSpaceOnUse" id="color-18"><stop offset="0" stop-color="#000000"/><stop offset="1" stop-color="#0f175d"/></linearGradient><linearGradient x1="191.32389" y1="65.08528" x2="191.32389" y2="111.43256" gradientUnits="userSpaceOnUse" id="color-19"><stop offset="0" stop-color="#000000"/><stop offset="1" stop-color="#0f175d"/></linearGradient><linearGradient x1="193.22658" y1="75.35622" x2="193.22658" y2="107.54183" gradientUnits="userSpaceOnUse" id="color-20"><stop offset="0" stop-color="#000000"/><stop offset="1" stop-color="#e6caad"/></linearGradient><linearGradient x1="289.26643" y1="65.1027" x2="289.26643" y2="111.44997" gradientUnits="userSpaceOnUse" id="color-21"><stop offset="0" stop-color="#000000"/><stop offset="1" stop-color="#0f175d"/></linearGradient><linearGradient x1="287.36372" y1="75.3737" x2="287.36372" y2="107.55931" gradientUnits="userSpaceOnUse" id="color-22"><stop offset="0" stop-color="#000000"/><stop offset="1" stop-color="#e6caad"/></linearGradient><linearGradient x1="240.00001" y1="76.54783" x2="240.00001" y2="197.14449" gradientUnits="userSpaceOnUse" id="color-23"><stop offset="0" stop-color="#000000"/><stop offset="1" stop-color="#0f175d"/></linearGradient><linearGradient x1="239.33333" y1="154" x2="239.33333" y2="196" gradientUnits="userSpaceOnUse" id="color-24"><stop offset="0" stop-color="#000000"/><stop offset="1" stop-color="#e6caad"/></linearGradient><radialGradient cx="267.15686" cy="139.74227" r="3.95041" gradientUnits="userSpaceOnUse" id="color-25"><stop offset="0" stop-color="#c71c1b"/><stop offset="1" stop-color="#c71c1b" stop-opacity="0"/></radialGradient><radialGradient cx="267.18834" cy="139.94699" r="1.01373" gradientUnits="userSpaceOnUse" id="color-26"><stop offset="0" stop-color="#ffffff"/><stop offset="1" stop-color="#ffffff" stop-opacity="0"/></radialGradient><radialGradient cx="217.09571" cy="140.6993" r="3.95041" gradientUnits="userSpaceOnUse" id="color-27"><stop offset="0" stop-color="#c71c1b"/><stop offset="1" stop-color="#c71c1b" stop-opacity="0"/></radialGradient><radialGradient cx="217.12719" cy="140.90403" r="1.01373" gradientUnits="userSpaceOnUse" id="color-28"><stop offset="0" stop-color="#ffffff"/><stop offset="1" stop-color="#ffffff" stop-opacity="0"/></radialGradient></defs><g transform="translate(-92.85922,-63.21888)"><g data-paper-data="{&quot;isPaintingLayer&quot;:true}" fill-rule="nonzero" stroke-linejoin="miter" stroke-miterlimit="10" stroke-dasharray="" stroke-dashoffset="0" style="mix-blend-mode: normal"><g stroke-width="2"><path d="M220.72848,186.70345l40.56644,0.22537l11.12198,116.68122h-65.58245z" fill="url(#color-1)" stroke="#000000" stroke-linecap="round"/><path d="M226.69035,206.58181c0,0 8.42256,-2.69554 12.88609,-2.67074c4.82728,0.02681 15.07191,2.82604 15.07191,2.82604c0,0 5.4712,21.43641 6.62611,33.55266c1.36489,14.31922 1.03905,46.86297 1.03905,46.86297c0,0 -15.18032,2.74232 -22.73611,2.74232c-7.51022,0 -22.46271,-2.74232 -22.46271,-2.74232c0,0 0.14621,-30.07298 1.8099,-44.07168c1.51406,-12.73943 7.76572,-36.49925 7.76572,-36.49925z" fill="url(#color-2)" stroke="#000000" stroke-linecap="round"/><g stroke="none" stroke-linecap="butt"><path d="M246.26409,236.17769c0,4.6967 -3.50881,8.50414 -7.83716,8.50414c-4.32834,0 -7.83716,-3.80744 -7.83716,-8.50414c0,-4.6967 3.50881,-8.50414 7.83716,-8.50414c4.32834,0 7.83716,3.80744 7.83716,8.50414z" fill="url(#color-3)"/><path d="M244.76833,207.86154c3.79266,1.19398 4.73283,8.94168 2.09994,17.30497c-2.63288,8.36329 -7.84182,14.17517 -11.63447,12.98119c-3.79266,-1.19398 -4.73283,-8.94169 -2.09995,-17.30498c2.63288,-8.36329 7.84182,-14.17516 11.63448,-12.98117z" fill="url(#color-4)"/><path d="M235.60542,238.33676c-1.37539,-10.29042 2.6878,-19.00189 9.07541,-19.45757c6.3876,-0.45568 12.68078,7.51699 14.05619,17.80741c1.37539,10.29042 -2.6878,19.0019 -9.0754,19.45757c-6.3876,0.45567 -12.68079,-7.51698 -14.05618,-17.80742z" data-paper-data="{&quot;index&quot;:null}" fill="url(#color-5)"/><path d="M243.32519,236.88796c6.3876,0.45567 10.45081,9.16714 9.07541,19.45757c-1.37539,10.29044 -7.66859,18.26308 -14.05618,17.80741c-6.3876,-0.45567 -10.45082,-9.16714 -9.0754,-19.45757c1.37539,-10.29044 7.66858,-18.26308 14.05619,-17.80741z" data-paper-data="{&quot;index&quot;:null}" fill="url(#color-6)"/><path d="M251.88647,227.6695c3.53164,2.5024 4.1934,7.63759 1.47805,11.46982c-2.71535,3.83221 -7.77956,4.91029 -11.31121,2.40789c-3.53164,-2.50239 -4.1934,-7.63761 -1.47805,-11.46982c2.71535,-3.83221 7.77957,-4.91028 11.31121,-2.40789z" data-paper-data="{&quot;index&quot;:null}" fill="url(#color-7)"/><path d="M226.25968,244.40456c-4.94843,-4.06472 -3.22733,-13.52182 3.84421,-21.12301c7.07155,-7.60118 16.81569,-10.46805 21.76414,-6.40333c4.94845,4.06472 3.22735,13.52184 -3.84421,21.12302c-7.07155,7.60119 -16.81571,10.46804 -21.76416,6.40332z" data-paper-data="{&quot;index&quot;:null}" fill="url(#color-8)"/><path d="M243.73639,255.01218c-4.82704,9.19153 -13.17882,13.95047 -18.65415,10.62934c-5.47533,-3.32113 -6.00087,-13.46466 -1.17382,-22.65619c4.82704,-9.19153 13.17882,-13.95045 18.65417,-10.62933c5.47533,3.32111 6.00086,13.46464 1.1738,22.65617z" data-paper-data="{&quot;index&quot;:null}" fill="url(#color-9)"/></g><g data-paper-data="{&quot;index&quot;:null}"><path d="M273.13737,305.09904l-13.79128,0.15999l-13.58676,-114.34165l14.36159,-0.82773l1.04955,8.19084l10.98607,88.31813z" data-paper-data="{&quot;index&quot;:null}" fill="url(#color-10)" stroke="#000000" stroke-linecap="round"/><path d="M253.91491,251.09349l-1.21375,-11.59145l13.63702,-1.42795l1.21376,11.59144z" fill="url(#color-11)" stroke="none" stroke-linecap="butt"/><path d="M260.39186,304.33963l-14.04892,-110.29671l3.39966,-0.43901l14.04894,110.59821z" fill="url(#color-12)" stroke="none" stroke-linecap="butt"/></g><path d="M209.72239,284.54527l10.98608,-88.31812l3.16016,-8.19084l12.25098,0.82773l-13.58679,114.34166l-13.79128,-0.15994z" data-paper-data="{&quot;index&quot;:null}" fill="url(#color-13)" stroke="#000000" stroke-linecap="round"/><path d="M214.327,247.61222l1.21376,-11.59145l13.63701,1.42795l-1.21375,11.59146z" fill="url(#color-14)" stroke="none" stroke-linecap="butt"/><path d="M217.48436,301.84731l14.04894,-108.78911l3.39964,0.43902l-14.04892,108.78911z" fill="url(#color-15)" stroke="none" stroke-linecap="butt"/><path d="M220.06709,223.02872l6.7999,-8.33246" fill="none" stroke="#ff0000" stroke-linecap="round"/><path d="M225.97414,223.44174l-4.05542,-10.1436" fill="none" stroke="#ff0000" stroke-linecap="round"/></g><path d="M165.05686,254.64976c0,0 -26.68266,-50.15575 -26.58466,-82.91414c0.04568,-15.26873 65.07884,-86.68587 65.07884,-86.68587l35.05325,109.81567c0,0 -38.18502,9.47955 -52.74142,21.84798c-14.89625,12.6572 -20.80602,37.93635 -20.80602,37.93635z" data-paper-data="{&quot;index&quot;:null}" fill="url(#color-16)" stroke="#000000" stroke-width="2" stroke-linecap="butt"/><path d="M115.33953,217.47281c0,0 -0.49117,-55.95691 14.95887,-85.39606c7.2013,-13.72163 104.34289,-51.33438 104.34289,-51.33438l-19.9534,113.03924c0,0 -24.8685,-32.36636 -47.19953,-16.8048c-15.65339,10.9082 -52.14883,40.49599 -52.14883,40.49599z" data-paper-data="{&quot;index&quot;:null}" fill="url(#color-17)" stroke="#000000" stroke-width="2" stroke-linecap="butt"/><path d="M95.51747,130.98741c0,0 34.19705,-36.6953 64.36811,-53.60089c14.06278,-7.87972 124.04607,7.48846 124.04607,7.48846l-84.71263,77.15373c0,0 -4.16532,-41.44192 -32.00423,-39.66362c-19.51424,1.24653 -71.69731,8.62231 -71.69731,8.62231z" data-paper-data="{&quot;index&quot;:null}" fill="url(#color-18)" stroke="#000000" stroke-width="2" stroke-linecap="butt"/><g stroke="#000000" stroke-width="2" stroke-linecap="round"><g><path d="M184.88678,111.43256l-16.73652,-46.34728l46.34726,20.59879z" fill="url(#color-19)"/><path d="M188.75636,107.54183l-11.62259,-32.18561l32.18562,14.30473z" fill="url(#color-20)"/></g><g data-paper-data="{&quot;index&quot;:null}"><path d="M266.0928,85.7015l46.34726,-20.5988l-16.73652,46.34727z" fill="url(#color-21)"/><path d="M271.27092,89.67842l32.18559,-14.30472l-11.62257,32.18561z" fill="url(#color-22)"/></g></g><path d="M175.76299,136.84616c0,-33.30185 28.7599,-60.29833 64.23702,-60.29833c35.47712,0 64.23702,26.99649 64.23702,60.29833c0,33.30185 -28.7599,60.29833 -64.23702,60.29833c-35.47712,0 -64.23702,-26.99649 -64.23702,-60.29833z" fill="url(#color-23)" stroke="#000000" stroke-width="2" stroke-linecap="butt"/><path d="M296,166c0,11.59798 -27.76376,30 -56.66667,30c-28.9029,0 -56.66667,-17.73535 -56.66667,-29.33333c0,-8.69465 19.83465,-4.15515 38.60464,-7.34549c6.26771,-1.06532 10.82674,-5.32117 18.06203,-5.32117c10.96773,0 19.14745,4.02052 27.55789,6.33448c13.75333,3.78393 29.10878,-1.53139 29.10878,5.66552z" fill="url(#color-24)" stroke="#000000" stroke-width="2" stroke-linecap="butt"/><path d="M244.5,155.66668c0,2.20914 -1.79086,4 -4,4c-2.20914,0 -4,-1.79086 -4,-4c0,-2.20914 1.79086,-4 4,-4c2.20914,0 4,1.79086 4,4z" fill="#000000" stroke="#000000" stroke-width="2" stroke-linecap="butt"/><g stroke-width="2"><g data-paper-data="{&quot;index&quot;:null}" fill="#000000" stroke="#000000" stroke-linecap="butt"><path d="M245.4662,136.31678c-0.54005,-12.80884 9.30494,-23.62599 21.98941,-24.16079c12.68448,-0.5348 23.40505,9.4153 23.9451,22.2241c0.54005,12.80882 -9.30495,23.62598 -21.98942,24.16078c-12.68448,0.53479 -23.40504,-9.41529 -23.94508,-22.22411z"/><path d="M254.01787,135.84343c-0.3277,-7.77235 5.80819,-14.34295 13.70491,-14.67589c7.89671,-0.33294 14.5639,5.69786 14.89159,13.47021c0.3277,7.77232 -5.80817,14.343 -13.70489,14.67593c-7.89671,0.33294 -14.56392,-5.69789 -14.89161,-13.47025z"/></g><path d="M279.83977,162.32414l-0.93333,-6.3027" data-paper-data="{&quot;index&quot;:null}" fill="none" stroke="#000000" stroke-linecap="round"/><path d="M272.40991,164.56706l-0.62822,-6.98315" data-paper-data="{&quot;index&quot;:null}" fill="none" stroke="#000000" stroke-linecap="round"/><path d="M257.05716,155.64007l1.0356,16.64594" data-paper-data="{&quot;index&quot;:null}" fill="none" stroke="#000000" stroke-linecap="round"/><path d="M264.99113,165.15571l-0.23882,-5.6644" data-paper-data="{&quot;index&quot;:null}" fill="none" stroke="#000000" stroke-linecap="round"/><g stroke="none" stroke-linecap="butt"><path d="M263.20862,139.6107c0.07267,-2.18056 1.89925,-3.88932 4.0798,-3.81664c2.18056,0.07267 3.88932,1.89924 3.81664,4.07981c-0.07267,2.18056 -1.89925,3.88933 -4.07981,3.81665c-2.18056,-0.07267 -3.8893,-1.89926 -3.81663,-4.07982z" fill="url(#color-25)"/><path d="M268.72957,139.99228c-0.02907,0.87222 -0.7597,1.55573 -1.63192,1.52667c-0.87222,-0.02907 -1.55575,-0.75971 -1.52668,-1.63194c0.02907,-0.87222 0.75971,-1.55572 1.63194,-1.52665c0.87222,0.02907 1.55571,0.7597 1.52665,1.63191z" fill="#c71c1b"/><path d="M266.17516,139.91323c0.01865,-0.55957 0.48739,-0.99805 1.04694,-0.9794c0.55957,0.01865 0.99804,0.48739 0.9794,1.04694c-0.01865,0.55957 -0.48738,0.99804 -1.04694,0.97939c-0.55957,-0.01865 -0.99805,-0.48738 -0.97941,-1.04692z" fill="url(#color-26)"/></g></g><g data-paper-data="{&quot;index&quot;:null}" fill="none" stroke="none" stroke-width="1" stroke-linecap="butt" font-family="sans-serif" font-weight="normal" font-size="12" text-anchor="start"><g/><g data-paper-data="{&quot;index&quot;:null}"/></g><g data-paper-data="{&quot;index&quot;:null}" stroke-width="2" stroke-linecap="round"><path d="M278.15625,177.21011l9.99194,-8.33762c0,0 16.10559,22.07864 6.72465,24.12436c-15.06955,3.28625 -90.77501,-6.71207 -90.77501,-6.71207z" fill="#7d714d" stroke="#000000"/><path d="M287.59817,171.33398l5.0056,17.71152l-16.6657,-9.13811l-4.39119,10.90449l-17.75023,-8.35871l-9.48966,6.8199l-16.69353,-5.05003l-4.8791,3.31271" fill="none" stroke="#4e4528"/></g><g stroke-width="2"><path d="M193.54694,137.4464c-0.54005,-12.80884 9.30496,-23.626 21.98942,-24.1608c12.68447,-0.5348 23.40504,9.41529 23.9451,22.22409c0.54005,12.80883 -9.30495,23.62597 -21.98943,24.16077c-12.68447,0.5348 -23.40506,-9.41526 -23.94509,-22.22408z" data-paper-data="{&quot;index&quot;:null}" fill="#000000" stroke="#000000" stroke-linecap="butt"/><path d="M201.83251,154.92675l-0.44162,5.35929" data-paper-data="{&quot;index&quot;:null}" fill="none" stroke="#000000" stroke-linecap="round"/><path d="M208.57517,159.16611l-0.6765,7.70575" data-paper-data="{&quot;index&quot;:null}" fill="none" stroke="#000000" stroke-linecap="round"/><path d="M219.1518,166.39606l-0.25287,-5.9976" data-paper-data="{&quot;index&quot;:null}" fill="none" stroke="#000000" stroke-linecap="round"/><path d="M228.69209,153.33048l-0.36743,15.03613" data-paper-data="{&quot;index&quot;:null}" fill="none" stroke="#000000" stroke-linecap="round"/><g stroke="none" stroke-linecap="butt"><path d="M213.14747,140.56773c0.07267,-2.18056 1.89925,-3.88932 4.0798,-3.81664c2.18056,0.07267 3.88932,1.89924 3.81664,4.07981c-0.07267,2.18056 -1.89925,3.88933 -4.07981,3.81665c-2.18056,-0.07267 -3.8893,-1.89926 -3.81663,-4.07982z" fill="url(#color-27)"/><path d="M218.66842,140.94931c-0.02907,0.87222 -0.7597,1.55573 -1.63192,1.52667c-0.87222,-0.02907 -1.55575,-0.75971 -1.52668,-1.63194c0.02907,-0.87222 0.75971,-1.55572 1.63194,-1.52665c0.87222,0.02907 1.55571,0.7597 1.52665,1.63191z" fill="#c71c1b"/><path d="M216.11402,140.87027c0.01865,-0.55957 0.48739,-0.99805 1.04694,-0.9794c0.55957,0.01865 0.99804,0.48739 0.9794,1.04694c-0.01865,0.55957 -0.48738,0.99804 -1.04694,0.97939c-0.55957,-0.01865 -0.99805,-0.48738 -0.97941,-1.04692z" fill="url(#color-28)"/></g></g></g></g></svg>