<svg version="1.1" xmlns="http://www.w3.org/2000/svg" xmlns:xlink="http://www.w3.org/1999/xlink" width="34.67311" height="34.67311" viewBox="0,0,34.67311,34.67311"><defs><linearGradient x1="239.99999" y1="162.91345" x2="239.99999" y2="197.08655" gradientUnits="userSpaceOnUse" id="color-1"><stop offset="0" stop-color="#000000"/><stop offset="1" stop-color="#379898"/></linearGradient></defs><g transform="translate(-222.66345,-162.66344)"><g data-paper-data="{&quot;isPaintingLayer&quot;:true}" stroke-miterlimit="10" stroke-dasharray="" stroke-dashoffset="0" style="mix-blend-mode: normal"><path d="M229.98312,162.91345h20.03378c3.9166,0 7.06966,3.15307 7.06966,7.06966v20.03379c0,3.91659 -3.15306,7.06966 -7.06966,7.06966h-20.03378c-3.91659,0 -7.06967,-3.15307 -7.06967,-7.06966v-20.03379c0,-3.91659 3.15308,-7.06966 7.06967,-7.06966z" fill="url(#color-1)" fill-rule="evenodd" stroke="#379898" stroke-width="0.5" stroke-linecap="round" stroke-linejoin="round"/><g fill-rule="nonzero" stroke="#000000" stroke-width="1" stroke-linejoin="miter"><path d="M227.05476,188.13403z" fill="#000000" stroke-linecap="butt"/><path d="M244.90378,176.43259c0,0 0.4862,-0.159 1.39386,-0.38064c0.82904,-0.20244 1.55275,-0.23184 1.55275,-0.23184l0.2472,0.30137c0,0 -2.57721,0.29564 -4.70953,1.77145c-1.70495,1.18002 -2.37702,2.43236 -2.37702,2.43236l-0.67089,-1.19706c0,0 0.61166,-0.99746 1.93575,-1.81607c1.37108,-0.84767 2.40109,-1.15641 2.40109,-1.15641z" data-paper-data="{&quot;index&quot;:null}" fill="#000000" stroke-linecap="butt"/><path d="M235.1268,190.12361c0,0 -1.49367,-0.24903 -2.61353,-1.69968c-0.6247,-0.80922 0.24089,-1.00254 0.24089,-1.00254" fill="none" stroke-linecap="round"/><path d="M236.17832,187.04154c-0.44028,-0.79215 -0.15503,-1.79122 0.63712,-2.2315c0.79215,-0.44028 1.79122,-0.15503 2.2315,0.63712c0.44028,0.79215 0.15503,1.79122 -0.63712,2.2315c-0.79215,0.44028 -1.79122,0.15503 -2.2315,-0.63712z" fill="#000000" stroke-linecap="butt"/><path d="M243.92581,182.57528c-0.4615,-0.8027 -0.1849,-1.82753 0.6178,-2.28902c0.8027,-0.4615 1.82753,-0.1849 2.28902,0.6178c0.4615,0.8027 0.1849,1.82752 -0.6178,2.28902c-0.8027,0.4615 -1.82753,0.1849 -2.28902,-0.6178z" fill="#000000" stroke-linecap="butt"/><path d="M234.78854,187.59422c0,0 -1.45804,-2.57792 1.57421,-4.24918c2.72451,-1.50356 4.26178,1.11456 4.26178,1.11456z" fill="#ffffff" stroke-linecap="butt"/><path d="M242.42757,183.25191c0,0 -1.619,-2.65328 1.69867,-4.42619c2.82124,-1.49565 4.2994,1.18578 4.2994,1.18578z" fill="#ffffff" stroke-linecap="butt"/><path d="M234.15453,184.16491c0,0 0.66183,-1.0698 1.91403,-1.96509c1.38759,-0.9921 2.20155,-1.29085 2.20155,-1.29085l0.76151,1.13004c0,0 -1.20382,0.43419 -2.36885,1.16445c-1.55809,0.97664 -1.65784,1.49614 -2.79402,2.32302c-0.97354,0.70852 -1.89276,1.1484 -1.89276,1.1484l-0.20903,-0.34651c0,0 1.03602,-0.56761 1.47937,-0.87644c0.36592,-0.2549 0.97868,-0.91815 0.97868,-0.91815z" fill="#000000" stroke-linecap="butt"/><path d="M249.53901,179.31241c-0.6858,-1.87131 -0.90044,-2.74682 -0.30511,-2.99089c0.59532,-0.24407 1.2017,0.91926 1.77283,2.76709c0.5428,1.75617 -0.28598,3.56542 -0.28598,3.56542c0,0 -0.49593,-1.47031 -1.18173,-3.34163z" data-paper-data="{&quot;index&quot;:null}" fill="#ffffff" stroke-linecap="butt"/><path d="M248.99058,178.08656c0,0 0.60258,-0.65078 0.9876,0.29624c0.69021,1.69767 0.15389,3.1138 0.15389,3.1138" data-paper-data="{&quot;index&quot;:null}" fill="none" stroke-linecap="round"/><g stroke-linecap="butt"><path d="M236.61927,182.06918c-1.33176,0.77216 -3.0581,1.32792 -4.65452,1.71728c-0.72662,-0.6893 -1.28209,-1.81388 -1.51473,-2.43829c-0.46412,-1.24574 -0.51185,-2.28069 -0.24777,-3.36592c1.88597,-0.45713 3.99234,-1.11645 5.55762,-2.0204v0c1.56336,-0.90284 3.71067,-2.70374 5.57456,-4.38613c0.19132,0.06047 0.38279,0.12557 0.55871,0.23766c1.02842,0.65526 1.87938,1.88944 2.47383,2.92339c0.20609,0.35847 0.41919,0.69894 0.59026,1.06209c-2.72411,2.26545 -6.19274,5.02653 -8.33797,6.27034z" fill="#379898"/><path d="M230.02062,184.20011c-0.23549,-0.07165 -0.46567,-0.1767 -0.68843,-0.32703c-0.65439,-0.67762 -1.07158,-1.72382 -1.54225,-2.54247c-0.23488,-0.40854 -0.53848,-0.95982 -0.40559,-1.43281c0.14785,-0.54779 0.38072,-1.03446 0.69683,-1.45899c0.5381,-0.10225 1.13693,-0.22584 1.7667,-0.37241c-0.23591,1.09323 -0.16838,2.15458 0.29429,3.39644c0.25455,0.68323 0.77457,1.69945 1.463,2.40907c-0.5572,0.12905 -1.09315,0.23771 -1.58456,0.3282z" fill="#328b8b"/><path d="M243.42698,169.63365c0.23005,0.01816 0.46027,0.03111 0.66715,0.08667c0.78862,0.21181 1.68515,0.88973 2.09785,1.5997c0.39627,0.68925 1.15145,1.57921 1.04685,2.39935c-0.00618,0.04848 -0.01707,0.11091 -0.03174,0.1817c-0.57204,0.4891 -1.25001,1.06377 -1.99007,1.68134c-0.16828,-0.34247 -0.36914,-0.66827 -0.56527,-1.00939c-0.61848,-1.07575 -1.51087,-2.35672 -2.58235,-3.03687c-0.14335,-0.091 -0.3054,-0.14912 -0.47017,-0.20038c0.66583,-0.60556 1.2889,-1.18912 1.82774,-1.70211z" fill="#328b8b"/><path d="M245.32368,167.78532c0,0 1.8534,0.38035 2.65335,1.58833c0.9226,1.39321 1.04338,2.95837 1.04338,2.95837c0,0 -0.55532,0.4894 -1.44784,1.25588c-0.00088,-0.87163 -0.67624,-1.70192 -1.09656,-2.43299c-0.46373,-0.78164 -1.41588,-1.51324 -2.29134,-1.7504c-0.13276,-0.03596 -0.29072,-0.04936 -0.45592,-0.05915c0.96639,-0.92646 1.59493,-1.56005 1.59493,-1.56005z" fill="#000f70"/><path d="M227.42742,184.5841c0,0 -1.63642,-1.99604 -1.89078,-3.04634c-0.20977,-0.86622 0.10019,-2.70453 0.10019,-2.70453c0,0 0.79797,-0.09599 1.99035,-0.31045c-0.24569,0.38883 -0.4332,0.81959 -0.56,1.28942c-0.29713,1.13791 1.27381,3.50145 2.05328,4.31207c0.1,0.06826 0.20103,0.12829 0.30299,0.18097c-1.18768,0.19954 -1.99602,0.27886 -1.99602,0.27886z" fill="#328b8b"/></g><g stroke-linecap="butt"><path d="M237.17612,181.81784c1.67499,-1.80559 3.91441,-5.59384 5.28173,-8.03382c0.21778,-0.04879 0.43423,-0.10246 0.64126,-0.11008c0.78918,-0.02906 1.81097,0.34189 2.39475,0.88037c0.56269,0.52402 1.51429,1.13121 1.65141,1.91896c0.0081,0.04657 0.01584,0.10736 0.02247,0.17696c-1.84083,2.90892 -5.32574,8.26195 -7.45645,10.56677c-1.44486,1.56292 -3.76112,2.94699 -5.49075,3.85032c-0.23805,0.00091 -0.48072,-0.03056 -0.72944,-0.10599c-0.79792,-0.43969 -1.4817,-1.28762 -2.15004,-1.91001c-0.33353,-0.3106 -0.77125,-0.73353 -0.78326,-1.20853c-0.01952,-0.54839 0.05697,-1.06453 0.22809,-1.54697c1.93421,-1.02419 4.72268,-2.68043 6.39024,-4.478z" fill="#308484"/><path d="M244.52771,167.07112c0,0 2.72009,0.72744 3.80371,1.61577c1.24978,1.02455 2.04773,4.66687 2.04773,4.66687c0,0 -2.35663,1.9401 -2.96297,2.90287c-0.24928,-0.80527 -1.11009,-1.38007 -1.70693,-1.93588c-0.65137,-0.59017 -1.73985,-0.99486 -2.61653,-0.96448c-0.13295,0.00461 -0.28274,0.03726 -0.43821,0.0753c0.629,-1.13167 1.02926,-1.89637 1.02926,-1.89637z" fill="#2c7a7a"/><path d="M231.38946,192.92888c0,0 -1.53731,-2.14567 -2.07176,-3.04381c-0.44079,-0.74073 -0.71111,-2.58493 -0.71111,-2.58493c0,0 0.74284,-0.25922 1.78365,-0.79731c-0.11621,0.42938 -0.16671,0.88092 -0.14997,1.35126c0.04978,1.1363 2.17531,2.87278 3.12674,3.39973c0.11188,0.03458 0.22235,0.06126 0.33159,0.08088c-1.04072,0.52296 -1.76515,0.82669 -1.76515,0.82669z" fill="#2c7a7a"/></g><g stroke-linecap="butt"><path d="M242.51339,182.83736c0.44956,-0.77947 0.85711,-1.57567 1.24746,-2.41543c0.54007,-1.16662 1.54087,-2.04675 2.13751,-3.17595c0.10516,-0.19903 0.18183,-0.4222 0.2608,-0.64433c1.63532,0.11324 3.15753,0.17858 4.17006,0.21396c-0.64658,1.14785 -1.38126,2.23022 -1.93534,3.43388c-0.48807,1.06661 -0.98006,2.12419 -1.46121,3.18885c-1.32819,-0.15771 -2.89789,-0.36156 -4.41929,-0.60098z" fill="#000000"/><path d="M251.5806,176.85221c0,0 3.52559,2.05429 3.31174,3.21832c0.52167,1.10951 0.36704,2.90268 0.36704,2.90268c0,0 -6.21883,0.71113 -7.98804,0.50496c0.46609,-1.02945 0.94191,-2.05272 1.41408,-3.08457c0.56833,-1.25021 1.34022,-2.36962 2.00633,-3.56587c0.55832,0.01786 0.88886,0.02447 0.88886,0.02447z" fill="#1a2b77"/><path d="M239.08797,182.19634c0.25699,-0.68329 0.53267,-1.36559 0.90854,-1.95101c0.61521,-0.96212 1.23272,-2.01683 1.94618,-2.90819c0.27972,-0.34948 0.66779,-0.67128 0.98909,-1.02238c0.94453,0.10715 1.9387,0.19392 2.90309,0.2639c-0.06501,0.17203 -0.13368,0.3435 -0.22006,0.50699c-0.59937,1.13436 -1.5982,2.01916 -2.1447,3.19044c-0.26366,0.56723 -0.45305,1.21916 -0.7635,1.75744c-0.14875,0.25792 -0.3128,0.50953 -0.4857,0.75727c-1.12005,-0.18047 -2.20348,-0.38005 -3.13295,-0.59445z" fill="#1d3186"/><path d="M240.02869,175.86701c0.72594,0.15699 1.58982,0.28983 2.51362,0.40203c-0.29126,0.29327 -0.62072,0.57093 -0.85066,0.85822c-0.72016,0.89974 -1.34458,1.96409 -1.96552,2.93518c-0.39514,0.6203 -0.68304,1.34051 -0.95395,2.059c-0.03843,-0.00938 -0.07655,-0.01878 -0.11436,-0.02822c-0.95922,-0.23934 -2.15019,-0.59224 -3.42834,-0.99857c0.30803,-0.5929 0.61263,-1.18958 0.90219,-1.80421c0.18631,-0.39995 0.51814,-0.64317 0.74185,-1.01283c0.52475,-0.86712 0.88111,-1.95015 1.44521,-2.84149c0.61835,0.17268 1.19599,0.31975 1.70997,0.4309z" fill="#000000"/><path d="M231.73286,179.93244c0.44504,-0.67481 0.92946,-1.32775 1.37507,-1.99905c0.2902,-0.43732 0.51478,-0.94232 0.82943,-1.35955c0.44528,-0.59045 1.11943,-1.02873 1.51134,-1.66366c0.05858,-0.09491 0.11252,-0.19544 0.16297,-0.29986c0.82252,0.26753 1.63163,0.51859 2.38795,0.73546c-0.53125,0.87885 -0.88871,1.90965 -1.40061,2.75553c-0.22909,0.37855 -0.56221,0.63129 -0.7574,1.04184c-0.29742,0.63179 -0.60928,1.24356 -0.92493,1.85156c-1.03757,-0.33314 -2.12385,-0.69762 -3.18381,-1.06227z" fill="#1d3186"/><path d="M225.87367,177.83915c0.55955,-0.56491 1.14649,-1.10829 1.74155,-1.65035c1.11147,-1.01505 1.97541,-2.21646 2.93603,-3.34176c1.40516,0.51571 3.0939,1.11712 4.74869,1.66132c-0.03906,0.07725 -0.08031,0.15191 -0.12429,0.22317c-0.38553,0.62458 -1.05608,1.05772 -1.49486,1.63955c-0.31874,0.42266 -0.54633,0.93217 -0.84031,1.37492c-0.46271,0.69707 -0.96651,1.3745 -1.42572,2.07673c-2.23982,-0.77436 -4.32683,-1.53532 -5.54108,-1.98357z" fill="#000000"/><path d="M224.98903,174.70169c0.62672,-2.08677 2.19905,-3.12459 2.19905,-3.12459c0,0 1.25266,0.49145 3.03782,1.15019c-0.91783,1.0893 -1.75477,2.24057 -2.82842,3.2161c-0.63795,0.58123 -1.26439,1.16394 -1.85844,1.77197c-0.48108,-0.17832 -0.75785,-0.28254 -0.75785,-0.28254c0,0 -0.23419,-1.25933 0.20784,-2.73114z" fill="#1a2b77"/></g></g></g></g></svg>