<svg version="1.1" xmlns="http://www.w3.org/2000/svg" xmlns:xlink="http://www.w3.org/1999/xlink" width="34.67311" height="34.67311" viewBox="0,0,34.67311,34.67311"><defs><linearGradient x1="240" y1="162.91345" x2="240" y2="197.08656" gradientUnits="userSpaceOnUse" id="color-1"><stop offset="0" stop-color="#284135"/><stop offset="1" stop-color="#2b2b2b"/></linearGradient><radialGradient cx="239.97834" cy="179.99053" r="2.493" gradientUnits="userSpaceOnUse" id="color-2"><stop offset="0" stop-color="#ffffff"/><stop offset="1" stop-color="#000000"/></radialGradient><linearGradient x1="239.71508" y1="178.58878" x2="239.71508" y2="190.65228" gradientUnits="userSpaceOnUse" id="color-3"><stop offset="0" stop-color="#000000"/><stop offset="1" stop-color="#ffffff"/></linearGradient><linearGradient x1="240.28143" y1="169.35156" x2="240.28143" y2="181.41495" gradientUnits="userSpaceOnUse" id="color-4"><stop offset="0" stop-color="#ff7979"/><stop offset="1" stop-color="#000000"/></linearGradient></defs><g transform="translate(-222.66344,-162.66344)"><g data-paper-data="{&quot;isPaintingLayer&quot;:true}" stroke-miterlimit="10" stroke-dasharray="" stroke-dashoffset="0" style="mix-blend-mode: normal"><path d="M229.98311,162.91345h20.03379c3.9166,0 7.06966,3.15307 7.06966,7.06966v20.03379c0,3.91659 -3.15306,7.06966 -7.06966,7.06966h-20.03379c-3.91659,0 -7.06966,-3.15307 -7.06966,-7.06966v-20.03379c0,-3.91659 3.15307,-7.06966 7.06966,-7.06966z" fill="url(#color-1)" fill-rule="evenodd" stroke="#86d5af" stroke-width="0.5" stroke-linecap="round" stroke-linejoin="round"/><g fill-rule="nonzero" stroke="none" stroke-linecap="butt" stroke-linejoin="miter"><g stroke-width="1"><path d="M243.79332,181.68161l6.36964,1.35418c-1.59204,5.25164 -6.97586,8.49313 -12.44039,7.33137c-5.46454,-1.16176 -9.0592,-6.31207 -8.38195,-11.7582l6.50517,1.383c-0.00381,1.92158 1.33302,3.65264 3.28844,4.06837c1.95542,0.41572 3.87983,-0.61694 4.65909,-2.37872z" fill="#ffffff"/><path d="M247.59767,182.49041l2.56528,0.54538c-1.35346,4.46258 -5.43886,7.47422 -9.99173,7.56866c3.3867,-1.01014 6.2932,-4.04476 7.42645,-8.11403z" fill="#dfdfdf"/><path d="M242.39344,180.5088c-0.06277,0.29525 -0.17672,0.5695 -0.32806,0.80545c-0.53124,0.83308 -1.54519,1.29541 -2.57131,1.07725c-1.02611,-0.21815 -1.76532,-1.04814 -1.91068,-2.03012c-0.04124,-0.28195 -0.03479,-0.574 0.02798,-0.86925v0l-0.00484,-0.00103v0c0.06277,-0.29525 0.1757,-0.56466 0.32807,-0.80545c0.53124,-0.83308 1.54519,-1.29541 2.5713,-1.07726c1.02611,0.21815 1.76532,1.04814 1.91068,2.03012c0.04124,0.28195 0.03479,0.574 -0.02313,0.87028c-0.00484,-0.00103 -0.00484,-0.00103 0,0v0z" fill="#ffffff"/><path d="M236.20664,178.3183l-6.37449,-1.35521c1.59688,-5.25061 6.97102,-8.49416 12.44039,-7.33137c5.46937,1.16279 9.06404,6.3131 8.38576,11.76407l-6.50517,-1.383c0.00381,-1.92158 -1.33302,-3.65264 -3.28844,-4.06836c-1.95542,-0.41572 -3.87982,0.61694 -4.65806,2.37388z" fill="#ff1c1c"/><path d="M244.38394,170.3133c4.2495,1.87982 6.8564,6.36988 6.27058,11.07661l-2.70081,-0.57419c0.62359,-4.2181 -0.82853,-8.21478 -3.56977,-10.50242z" fill="#df1818"/></g><path d="M229.83218,176.96308l6.36964,1.35418c0.77824,-1.75694 2.70367,-2.79444 4.65909,-2.37872c1.95542,0.41572 3.29226,2.14679 3.28845,4.06837l6.50517,1.383c0.68209,-5.4451 -2.91258,-10.59541 -8.38195,-11.7582c-5.46454,-1.16176 -10.84352,2.08076 -12.44039,7.33137zM240.50588,177.6084c-1.02611,-0.21815 -2.03904,0.23934 -2.5713,1.07726c-0.15237,0.24079 -0.2653,0.5102 -0.32807,0.80545v0l0.00484,0.00103v0c-0.06277,0.29525 -0.06921,0.5873 -0.02798,0.86925c0.14639,0.97714 0.88457,1.81197 1.91068,2.03012c1.02611,0.21815 2.03904,-0.23934 2.57131,-1.07725c0.15237,-0.24079 0.26529,-0.5102 0.32806,-0.80545v0l-0.00484,-0.00103v0c0.06277,-0.29525 0.06921,-0.5873 0.02797,-0.86925c-0.14639,-0.97714 -0.88457,-1.81197 -1.91068,-2.03012zM250.16676,183.04166l-6.37448,-1.35521c-0.77824,1.75694 -2.70367,2.79444 -4.65909,2.37872c-1.95542,-0.41572 -3.29226,-2.14678 -3.28844,-4.06836l-6.50517,-1.383c-0.68209,5.4451 2.91258,10.59541 8.38195,11.7582c5.46937,1.16279 10.84938,-2.08457 12.44523,-7.33034zM252.37867,182.63166c-1.454,6.83914 -8.17801,11.19702 -15.01231,9.74405c-6.8343,-1.45297 -11.19805,-8.17317 -9.74508,-15.00747c1.45297,-6.8343 8.17317,-11.19805 15.00747,-9.74508c6.83914,1.454 11.20392,8.16936 9.74992,15.0085z" fill="#000000" stroke-width="1"/><path d="M240.51623,177.55949c1.02611,0.21815 1.80339,1.0945 1.94978,2.07164c0.04124,0.28195 0.03426,0.59179 -0.02851,0.88704v0l0.00484,0.00103v0c-0.06277,0.29525 -0.18241,0.58111 -0.33478,0.8219c-0.53227,0.83791 -1.59773,1.31747 -2.62384,1.09932c-1.02611,-0.21815 -1.80339,-1.0945 -1.94978,-2.07164c-0.04123,-0.28195 -0.03425,-0.59179 0.02852,-0.88704v0l-0.00484,-0.00103v0c0.06277,-0.29525 0.18242,-0.58111 0.33479,-0.8219c0.53226,-0.83792 1.59772,-1.31748 2.62383,-1.09933z" data-paper-data="{&quot;noHover&quot;:false,&quot;origItem&quot;:[&quot;Path&quot;,{&quot;applyMatrix&quot;:true,&quot;segments&quot;:[[[320.50591,177.60845],[0,0],[-1.02611,-0.21815]],[[317.93461,178.68571],[0.53226,-0.83792],[-0.15237,0.24079]],[[317.60654,179.49116],[0.06277,-0.29525],[0,0]],[317.60654,179.49116],[317.61138,179.49219],[[317.61138,179.49219],[0,0],[-0.06277,0.29525]],[[317.5834,180.36144],[-0.04123,-0.28195],[0.14639,0.97714]],[[319.49408,182.39156],[-1.02611,-0.21815],[1.02611,0.21815]],[[322.06539,181.31431],[-0.53227,0.83791],[0.15237,-0.24079]],[[322.39345,180.50886],[-0.06277,0.29525],[0,0]],[322.39345,180.50886],[322.38861,180.50783],[[322.38861,180.50783],[0,0],[0.06277,-0.29525]],[[322.41658,179.63858],[0.04124,0.28195],[-0.14639,-0.97714]],[[320.5059,177.60846],[1.02611,0.21815],[0,0]]],&quot;closed&quot;:true,&quot;fillColor&quot;:[0,0,0,1]}]}" fill="url(#color-2)" stroke-width="0.5"/><path d="M250.21623,183.03424c-1.59585,5.24577 -7.04163,8.54781 -12.511,7.38502c-5.46937,-1.16279 -9.091,-6.38539 -8.40891,-11.83049l6.51634,1.36971c-0.00382,1.92158 1.32876,3.65666 3.28418,4.07238c1.95542,0.41572 3.95787,-0.6166 4.73611,-2.37354l6.38329,1.37691z" data-paper-data="{&quot;noHover&quot;:false,&quot;origItem&quot;:[&quot;Path&quot;,{&quot;applyMatrix&quot;:true,&quot;segments&quot;:[[330.16679,183.04171],[[323.79231,181.6865],[0,0],[-0.77824,1.75694]],[[319.13323,184.06522],[1.95542,0.41572],[-1.95542,-0.41572]],[[315.84479,179.99686],[-0.00382,1.92158],[0,0]],[[309.33961,178.61385],[0,0],[-0.68209,5.4451]],[[317.72157,190.37205],[-5.46937,-1.16279],[5.46937,1.16279]],[[330.16679,183.04171],[-1.59585,5.24577],[0,0]]],&quot;closed&quot;:true,&quot;fillColor&quot;:[0,0,0,1]}]}" fill="url(#color-3)" stroke-width="0.5"/><path d="M242.28886,169.58445c5.46937,1.16279 9.09102,6.3854 8.40893,11.8305l-6.51634,-1.3697c0.00381,-1.92158 -1.32882,-3.6566 -3.28425,-4.07232c-1.95542,-0.41572 -3.95781,0.61652 -4.73605,2.37346l-6.37844,-1.37587c1.59688,-5.25061 7.04161,-8.54782 12.50615,-7.38607z" data-paper-data="{&quot;noHover&quot;:false,&quot;origItem&quot;:[&quot;Path&quot;,{&quot;applyMatrix&quot;:true,&quot;segments&quot;:[[[309.83219,176.96313],[1.59688,-5.25061],[0,0]],[[316.20183,178.31732],[0,0],[0.77824,-1.75694]],[[320.86092,175.9386],[-1.95542,-0.41572],[1.95542,0.41572]],[[324.14937,180.00696],[0.00381,-1.92158],[0,0]],[[330.65453,181.38996],[0,0],[0.68209,-5.4451]],[[322.27258,169.63176],[5.46937,1.16279],[-5.46454,-1.16176]]],&quot;closed&quot;:true,&quot;fillColor&quot;:[0,0,0,1]}]}" fill="url(#color-4)" stroke-width="0.5"/></g></g></g></svg>