<svg version="1.1" xmlns="http://www.w3.org/2000/svg" xmlns:xlink="http://www.w3.org/1999/xlink" width="232.91791" height="296.55144" viewBox="0,0,232.91791,296.55144"><g transform="translate(-120.21526,-17.06107)"><g data-paper-data="{&quot;isPaintingLayer&quot;:true}" fill-rule="nonzero" stroke-linejoin="miter" stroke-miterlimit="10" stroke-dasharray="" stroke-dashoffset="0" style="mix-blend-mode: normal"><path d="M178.409,313.61251v-267.22501h123.18203v267.22501z" fill-opacity="0.01" fill="#000000" stroke="none" stroke-width="0" stroke-linecap="butt"/><g stroke="#000000" stroke-width="2"><path d="M206.75009,307.50002l15.14285,-131.8421l37.78325,-0.15789l13.57389,132z" fill="#345756" stroke-linecap="butt"/><g fill="#274746" stroke-linecap="round"><path d="M262.4844,196.10052l6.54607,27.89196l-29.31501,4.8384l-27.89196,-4.8384l4.8384,-21.91511z"/><path d="M266.46897,184.43143l1.70767,17.07671l-29.0304,5.97685l-25.89967,-5.12301l-2.27689,-15.08443z"/></g></g><path d="M291.16512,45.06182c0,0 6.75252,13.91912 6.81943,7.63775c0.07045,-6.61443 -0.54556,-14.72995 -0.54556,-14.72995l6.00109,-0.81833c0,0 1.39793,19.86226 -1.63666,23.45881c-3.03459,3.59655 -13.09329,-6.00109 -13.09329,-6.00109z" fill="#244343" stroke="#000000" stroke-width="2" stroke-linecap="round"/><path d="M191.8366,46.58827c0,0 24.05764,15.63831 41.49733,13.50166c19.97465,-2.44723 71.78099,-27.38013 71.78099,-27.38013l0.75019,5.62641c0,0 -53.01411,26.68823 -73.71397,29.02531c-17.53081,1.97929 -42.5651,-15.89702 -42.5651,-15.89702z" fill="#355656" stroke="#000000" stroke-width="2" stroke-linecap="round"/><path d="M174.20719,30.83433c0,0 32.23507,18.53562 55.13879,21.38035c22.90372,2.84473 62.64066,-6.75169 62.64066,-6.75169l-0.75018,5.25131c0,0 -37.74204,11.43061 -62.64066,8.25207c-24.89862,-3.17854 -60.7652,-24.006 -60.7652,-24.006z" fill="#2b4f4b" stroke="#000000" stroke-width="2" stroke-linecap="round"/><path d="M148.8362,71.03433c0,0 3.38847,-5.30181 6.31887,3.25379c3.75698,10.96891 3.80888,34.19001 6.42145,34.0874c4.82133,-0.18936 9.76772,-75.9264 9.76772,-75.9264l4.28725,3.21543c0,0 -3.99049,84.24872 -13.77996,83.71976c-7.61908,-0.41169 -13.01532,-48.34999 -13.01532,-48.34999z" fill="#244343" stroke="#000000" stroke-width="2" stroke-linecap="round"/><path d="M301.03343,85.50377c0,0 14.11792,47.80066 19.13638,43.75068c5.15982,-4.16408 11.41024,-68.40235 11.41024,-68.40235l6.96678,-2.14362c0,0 -7.9136,79.7075 -18.01718,80.42926c-8.90725,0.6363 -26.463,-50.41854 -26.463,-50.41854z" fill="#244343" stroke="#000000" stroke-width="2" stroke-linecap="round"/><path d="M299.36777,154.97479l9.86592,18.32244l-25.08764,0.56377l15.78548,15.5036l-59.75932,-8.45651l-65.397,7.61086l13.53041,-15.5036l-21.70504,0.28188l12.121,-20.85939z" fill="#345756" stroke="#000000" stroke-width="2" stroke-linecap="round"/><path d="M175.83999,136.8462c0,-33.30185 28.7599,-60.29833 64.23702,-60.29833c35.47712,0 64.23702,26.99649 64.23702,60.29833c0,33.30185 -28.7599,60.29833 -64.23702,60.29833c-35.47712,0 -64.23702,-26.99649 -64.23702,-60.29833z" fill="#345756" stroke="#000000" stroke-width="2" stroke-linecap="butt"/><path d="M252.61667,176.65647c0,0 -5.16797,9.65131 -13.40228,9.65131c-7.46628,0 -13.56391,-9.65131 -13.56391,-9.65131z" fill="#000000" stroke="#000000" stroke-width="2" stroke-linecap="round"/><path d="M248.75354,83.93031l-10.86207,30.41379l-4.03448,-21.41379l-12.10345,3.72414l6.51724,-14.27586" fill="#345756" stroke="#000000" stroke-width="2" stroke-linecap="round"/><path d="M286.76502,71.48802l-9.38298,-5.17021l-1.53191,-11.29787l9.38298,5.74468l-0.19149,10.72341z" fill="#3b5456" stroke="#000000" stroke-width="2" stroke-linecap="round"/><path d="M323.72247,30.08524l5.55319,-9l9.38298,-2.48936l-5.55319,11.10638z" fill="#3b5456" stroke="#000000" stroke-width="2" stroke-linecap="round"/><path d="M284.65864,71.27673l-7.85107,3.82979l-9,-5.17021l9.57447,-3.82979z" fill="#3b5456" stroke="#000000" stroke-width="2" stroke-linecap="round"/><path d="M194.95838,71.48802l-0.19149,-10.72341l9.38298,-5.74468l-1.53191,11.29787l-9.38298,5.17021z" fill="#3b5456" stroke="#000000" stroke-width="2" stroke-linecap="round"/><path d="M139.84489,47.59678l-8.59811,5.47518l-9.01891,-2.83451l6.70213,-5.7825z" fill="#3b5456" stroke="#000000" stroke-width="2" stroke-linecap="round"/><path d="M202.61796,66.10651l9.57447,3.82979l-9,5.17021l-7.85107,-3.82979z" fill="#3b5456" stroke="#000000" stroke-width="2" stroke-linecap="round"/><path d="M344.40333,77.23272l6.70213,6.89361l-9.57447,1.7234l-8.04255,-8.80851z" fill="#3b5456" stroke="#000000" stroke-width="2" stroke-linecap="round"/><path d="M332.33645,75.78606l10.30909,8.83637l3.27273,3.76363l0.65455,13.25455l-4.09091,11.29091l-10.8,6.87273l-11.61818,-6.87273l-4.90909,-12.76364l1.96364,-11.78181l4.58182,-7.2z" fill="#616051" stroke="#000000" stroke-width="2" stroke-linecap="round"/><path d="M341.33645,110.47697l-24.70909,-19.96364l18.32727,-11.45454" fill="none" stroke="#000000" stroke-width="2" stroke-linecap="round"/><path d="M322.51827,81.02241l23.72727,20.12727l-18.65454,14.89091" fill="none" stroke="#000000" stroke-width="2" stroke-linecap="round"/><path d="M335.44552,115.87698l-19.47273,-15.54546l21.92727,-18.81818" fill="none" stroke="#000000" stroke-width="2" stroke-linecap="round"/><path d="M327.42735,78.40425l18.16363,11.94545l-25.36363,21.10909" fill="none" stroke="#000000" stroke-width="2" stroke-linecap="round"/><path d="M158.04674,67.52988l1.65564,-10.8766l7.65053,8.45329l-1.80634,7.90967z" fill="#3b5456" stroke="#000000" stroke-width="2" stroke-linecap="round"/><path d="M167.19135,64.97038l9.09934,-4.85178l-1.84801,10.21351l-8.56555,2.66859z" fill="#3b5456" stroke="#000000" stroke-width="2" stroke-linecap="round"/><path d="M211.65879,87.01263l-4.62857,12.08572l-10.54286,6.68571c0,0 -19.35884,-11.43475 -28.10299,-16.59969c-7.65277,-4.52029 -21.52558,-12.71459 -21.52558,-12.71459l-6.17142,-10.8v-17.74285l15.94285,-17.63925l15.94286,-1.54285l4.37142,8.22857l-9.25714,-2.57143l-12.6,14.4l-2.05714,16.2l12.34286,9.25714l19.02857,-5.91428l5.14285,-19.28572l3.6,22.11429l-13.88571,9.25714z" fill="#404135" stroke="#000000" stroke-width="2" stroke-linecap="round"/><path d="M300.74125,80.43054l-13.88572,-9.25714l3.6,-22.11429l5.14285,19.28572l19.02857,5.91428l12.34286,-9.25714l-2.05714,-16.2l-12.6,-14.4l-9.25714,2.57143l4.37142,-8.22857l15.94286,1.54285l15.94286,17.63925v17.74285l-6.17142,10.8l-49.62858,29.31428l-10.54286,-6.68571l-4.62857,-12.08572z" fill="#404135" stroke="#000000" stroke-width="2" stroke-linecap="round"/><path d="M189.37437,49.22956l6.17716,-8.76761l10.9647,0.90389l-7.90726,8.21364z" fill="#3b5456" stroke="#000000" stroke-width="2" stroke-linecap="round"/><path d="M189.39023,137.02568c0,-12.968 10.51265,-23.48065 23.48065,-23.48065c12.968,0 23.48065,10.51265 23.48065,23.48065c0,12.968 -10.51265,23.48065 -23.48065,23.48065c-12.968,0 -23.48065,-10.51265 -23.48065,-23.48065z" fill="#ffffff" stroke="#000000" stroke-width="2" stroke-linecap="butt"/><path d="M196.45561,130.22365c0,-9.12808 7.39976,-16.52784 16.52783,-16.52784c9.12808,0 16.52784,7.39977 16.52784,16.52784c0,9.12808 -7.39977,16.52784 -16.52784,16.52784c-9.12808,0 -16.52783,-7.39977 -16.52783,-16.52784z" fill="#000000" stroke="none" stroke-width="0" stroke-linecap="butt"/><path d="M267.12926,160.50631c-12.968,0 -23.48065,-10.51265 -23.48065,-23.48065c0,-12.968 10.51265,-23.48065 23.48065,-23.48065c12.968,0 23.48065,10.51265 23.48065,23.48065c0,12.968 -10.51265,23.48065 -23.48065,23.48065z" data-paper-data="{&quot;index&quot;:null}" fill="#ffffff" stroke="#000000" stroke-width="2" stroke-linecap="butt"/><path d="M267.01671,146.75151c-9.12807,0 -16.52783,-7.39977 -16.52783,-16.52784c0,-9.12808 7.39977,-16.52784 16.52783,-16.52784c9.12807,0 16.52783,7.39977 16.52783,16.52784c0,9.12808 -7.39977,16.52784 -16.52783,16.52784z" data-paper-data="{&quot;index&quot;:null}" fill="#000000" stroke="none" stroke-width="0" stroke-linecap="butt"/><path d="M189.30687,137.36811c0,-12.96801 10.51265,-23.48065 23.48066,-23.48065c12.96801,0 23.48065,10.51264 23.48065,23.48065c0,0 -12.26247,-13.26421 -24.25522,-13.12945c-11.47654,0.12896 -22.70608,13.66983 -22.70608,13.12945z" fill="#345756" stroke="#000000" stroke-width="2" stroke-linecap="butt"/><path d="M243.64866,137.26809c0,-12.96801 10.51264,-23.48065 23.48065,-23.48065c12.96801,0 23.48066,10.51264 23.48066,23.48065c0,0.30263 -11.70961,-13.24973 -23.43455,-13.32519c-11.75568,-0.07566 -23.52676,13.32519 -23.52676,13.32519z" data-paper-data="{&quot;index&quot;:null}" fill="#345756" stroke="#000000" stroke-width="2" stroke-linecap="butt"/></g></g></svg>