<svg version="1.1" xmlns="http://www.w3.org/2000/svg" xmlns:xlink="http://www.w3.org/1999/xlink" width="212.01021" height="251.40526" viewBox="0,0,212.01021,251.40526"><defs><linearGradient x1="239.62567" y1="186.70345" x2="239.62567" y2="303.61003" gradientUnits="userSpaceOnUse" id="color-1"><stop offset="0" stop-color="#000000"/><stop offset="1" stop-color="#0f175d"/></linearGradient><linearGradient x1="239.73111" y1="203.9109" x2="239.73111" y2="289.89504" gradientUnits="userSpaceOnUse" id="color-2"><stop offset="0" stop-color="#000000"/><stop offset="1" stop-color="#e6caad"/></linearGradient><radialGradient cx="238.42693" cy="236.17769" r="8.50413" gradientUnits="userSpaceOnUse" id="color-3"><stop offset="0" stop-color="#5f0000"/><stop offset="1" stop-color="#5f0000" stop-opacity="0"/></radialGradient><radialGradient cx="240.00107" cy="223.00461" r="17.22688" gradientUnits="userSpaceOnUse" id="color-4"><stop offset="0" stop-color="#5f0000"/><stop offset="1" stop-color="#5f0000" stop-opacity="0"/></radialGradient><radialGradient cx="247.17123" cy="237.51168" r="20.39802" gradientUnits="userSpaceOnUse" id="color-5"><stop offset="0" stop-color="#5f0000"/><stop offset="1" stop-color="#5f0000" stop-opacity="0"/></radialGradient><radialGradient cx="240.83481" cy="255.52045" r="20.39802" gradientUnits="userSpaceOnUse" id="color-6"><stop offset="0" stop-color="#5f0000"/><stop offset="1" stop-color="#5f0000" stop-opacity="0"/></radialGradient><radialGradient cx="246.96988" cy="234.60836" r="8.50414" gradientUnits="userSpaceOnUse" id="color-7"><stop offset="0" stop-color="#5f0000"/><stop offset="1" stop-color="#5f0000" stop-opacity="0"/></radialGradient><radialGradient cx="239.06386" cy="230.64139" r="20.39802" gradientUnits="userSpaceOnUse" id="color-8"><stop offset="0" stop-color="#5f0000"/><stop offset="1" stop-color="#5f0000" stop-opacity="0"/></radialGradient><radialGradient cx="233.82239" cy="248.99877" r="20.39802" gradientUnits="userSpaceOnUse" id="color-9"><stop offset="0" stop-color="#5f0000"/><stop offset="1" stop-color="#5f0000" stop-opacity="0"/></radialGradient><linearGradient x1="259.44835" y1="190.08966" x2="259.44835" y2="305.25903" gradientUnits="userSpaceOnUse" id="color-10"><stop offset="0" stop-color="#000000"/><stop offset="1" stop-color="#6b6d91"/></linearGradient><linearGradient x1="260.12655" y1="238.07409" x2="260.12655" y2="251.09349" gradientUnits="userSpaceOnUse" id="color-11"><stop offset="0" stop-color="#000000"/><stop offset="1" stop-color="#919191"/></linearGradient><linearGradient x1="255.06725" y1="193.60392" x2="255.06725" y2="304.33963" gradientUnits="userSpaceOnUse" id="color-12"><stop offset="0" stop-color="#000000"/><stop offset="1" stop-color="#919191"/></linearGradient><linearGradient x1="222.43057" y1="188.03631" x2="222.43057" y2="303.20569" gradientUnits="userSpaceOnUse" id="color-13"><stop offset="0" stop-color="#000000"/><stop offset="1" stop-color="#6b6d91"/></linearGradient><linearGradient x1="221.75238" y1="236.02077" x2="221.75238" y2="249.04018" gradientUnits="userSpaceOnUse" id="color-14"><stop offset="0" stop-color="#000000"/><stop offset="1" stop-color="#919191"/></linearGradient><linearGradient x1="226.20865" y1="193.0582" x2="226.20865" y2="302.28632" gradientUnits="userSpaceOnUse" id="color-15"><stop offset="0" stop-color="#000000"/><stop offset="1" stop-color="#919191"/></linearGradient><linearGradient x1="143.9759" y1="104.53367" x2="209.39026" y2="254.59763" gradientUnits="userSpaceOnUse" id="color-16"><stop offset="0" stop-color="#000000"/><stop offset="1" stop-color="#0f175d"/></linearGradient><linearGradient x1="145.39272" y1="108.53587" x2="189.42779" y2="209.55461" gradientUnits="userSpaceOnUse" id="color-17"><stop offset="0" stop-color="#000000"/><stop offset="1" stop-color="#0f175d"/></linearGradient><linearGradient x1="161.08701" y1="77.01958" x2="198.03635" y2="161.78329" gradientUnits="userSpaceOnUse" id="color-18"><stop offset="0" stop-color="#000000"/><stop offset="1" stop-color="#0f175d"/></linearGradient><linearGradient x1="174.00598" y1="68.68528" x2="178.52589" y2="114.81164" gradientUnits="userSpaceOnUse" id="color-19"><stop offset="0" stop-color="#000000"/><stop offset="1" stop-color="#0f175d"/></linearGradient><linearGradient x1="176.90125" y1="78.72171" x2="180.04008" y2="110.7539" gradientUnits="userSpaceOnUse" id="color-20"><stop offset="0" stop-color="#000000"/><stop offset="1" stop-color="#e6caad"/></linearGradient><linearGradient x1="271.48335" y1="59.15099" x2="276.00327" y2="105.27734" gradientUnits="userSpaceOnUse" id="color-21"><stop offset="0" stop-color="#000000"/><stop offset="1" stop-color="#0f175d"/></linearGradient><linearGradient x1="270.59137" y1="69.55859" x2="273.7302" y2="101.59078" gradientUnits="userSpaceOnUse" id="color-22"><stop offset="0" stop-color="#000000"/><stop offset="1" stop-color="#e6caad"/></linearGradient><linearGradient x1="223.56793" y1="75.34617" x2="235.32885" y2="195.36798" gradientUnits="userSpaceOnUse" id="color-23"><stop offset="0" stop-color="#000000"/><stop offset="1" stop-color="#0f175d"/></linearGradient><linearGradient x1="230.45778" y1="152.49416" x2="234.55374" y2="194.29396" gradientUnits="userSpaceOnUse" id="color-24"><stop offset="0" stop-color="#000000"/><stop offset="1" stop-color="#e6caad"/></linearGradient><radialGradient cx="256.75823" cy="135.59096" r="3.95041" gradientUnits="userSpaceOnUse" id="color-25"><stop offset="0" stop-color="#c71c1b"/><stop offset="1" stop-color="#c71c1b" stop-opacity="0"/></radialGradient><radialGradient cx="256.80952" cy="135.79164" r="1.01373" gradientUnits="userSpaceOnUse" id="color-26"><stop offset="0" stop-color="#ffffff"/><stop offset="1" stop-color="#ffffff" stop-opacity="0"/></radialGradient><radialGradient cx="207.02904" cy="141.42553" r="3.95041" gradientUnits="userSpaceOnUse" id="color-27"><stop offset="0" stop-color="#c71c1b"/><stop offset="1" stop-color="#c71c1b" stop-opacity="0"/></radialGradient><radialGradient cx="207.08033" cy="141.62622" r="1.01373" gradientUnits="userSpaceOnUse" id="color-28"><stop offset="0" stop-color="#ffffff"/><stop offset="1" stop-color="#ffffff" stop-opacity="0"/></radialGradient></defs><g transform="translate(-84.0832,-54.86412)"><g data-paper-data="{&quot;isPaintingLayer&quot;:true}" fill-rule="nonzero" stroke-linejoin="miter" stroke-miterlimit="10" stroke-dasharray="" stroke-dashoffset="0" style="mix-blend-mode: normal"><g stroke-width="2"><path d="M220.72848,186.70345l40.56644,0.22537l11.12198,116.68122h-65.58245z" fill="url(#color-1)" stroke="#000000" stroke-linecap="round"/><path d="M226.69035,206.58181c0,0 8.42256,-2.69554 12.88609,-2.67074c4.82728,0.02681 15.07191,2.82604 15.07191,2.82604c0,0 5.4712,21.43641 6.62611,33.55266c1.36489,14.31922 1.03905,46.86297 1.03905,46.86297c0,0 -15.18032,2.74232 -22.73611,2.74232c-7.51022,0 -22.46271,-2.74232 -22.46271,-2.74232c0,0 0.14621,-30.07298 1.8099,-44.07168c1.51406,-12.73943 7.76572,-36.49925 7.76572,-36.49925z" fill="url(#color-2)" stroke="#000000" stroke-linecap="round"/><g stroke="none" stroke-linecap="butt"><path d="M246.26409,236.17769c0,4.6967 -3.50881,8.50414 -7.83716,8.50414c-4.32834,0 -7.83716,-3.80744 -7.83716,-8.50414c0,-4.6967 3.50881,-8.50414 7.83716,-8.50414c4.32834,0 7.83716,3.80744 7.83716,8.50414z" fill="url(#color-3)"/><path d="M244.76833,207.86154c3.79266,1.19398 4.73283,8.94168 2.09994,17.30497c-2.63288,8.36329 -7.84182,14.17517 -11.63447,12.98119c-3.79266,-1.19398 -4.73283,-8.94169 -2.09995,-17.30498c2.63288,-8.36329 7.84182,-14.17516 11.63448,-12.98117z" fill="url(#color-4)"/><path d="M235.60542,238.33676c-1.37539,-10.29042 2.6878,-19.00189 9.07541,-19.45757c6.3876,-0.45568 12.68078,7.51699 14.05619,17.80741c1.37539,10.29042 -2.6878,19.0019 -9.0754,19.45757c-6.3876,0.45567 -12.68079,-7.51698 -14.05618,-17.80742z" data-paper-data="{&quot;index&quot;:null}" fill="url(#color-5)"/><path d="M243.32519,236.88796c6.3876,0.45567 10.45081,9.16714 9.07541,19.45757c-1.37539,10.29044 -7.66859,18.26308 -14.05618,17.80741c-6.3876,-0.45567 -10.45082,-9.16714 -9.0754,-19.45757c1.37539,-10.29044 7.66858,-18.26308 14.05619,-17.80741z" data-paper-data="{&quot;index&quot;:null}" fill="url(#color-6)"/><path d="M251.88647,227.6695c3.53164,2.5024 4.1934,7.63759 1.47805,11.46982c-2.71535,3.83221 -7.77956,4.91029 -11.31121,2.40789c-3.53164,-2.50239 -4.1934,-7.63761 -1.47805,-11.46982c2.71535,-3.83221 7.77957,-4.91028 11.31121,-2.40789z" data-paper-data="{&quot;index&quot;:null}" fill="url(#color-7)"/><path d="M226.25968,244.40456c-4.94843,-4.06472 -3.22733,-13.52182 3.84421,-21.12301c7.07155,-7.60118 16.81569,-10.46805 21.76414,-6.40333c4.94845,4.06472 3.22735,13.52184 -3.84421,21.12302c-7.07155,7.60119 -16.81571,10.46804 -21.76416,6.40332z" data-paper-data="{&quot;index&quot;:null}" fill="url(#color-8)"/><path d="M243.73639,255.01218c-4.82704,9.19153 -13.17882,13.95047 -18.65415,10.62934c-5.47533,-3.32113 -6.00087,-13.46466 -1.17382,-22.65619c4.82704,-9.19153 13.17882,-13.95045 18.65417,-10.62933c5.47533,3.32111 6.00086,13.46464 1.1738,22.65617z" data-paper-data="{&quot;index&quot;:null}" fill="url(#color-9)"/></g><g data-paper-data="{&quot;index&quot;:null}"><path d="M273.13737,305.09904l-13.79128,0.15999l-13.58676,-114.34165l14.36159,-0.82773l1.04955,8.19084l10.98607,88.31813z" data-paper-data="{&quot;index&quot;:null}" fill="url(#color-10)" stroke="#000000" stroke-linecap="round"/><path d="M253.91491,251.09349l-1.21375,-11.59145l13.63702,-1.42795l1.21376,11.59144z" fill="url(#color-11)" stroke="none" stroke-linecap="butt"/><path d="M260.39186,304.33963l-14.04892,-110.29671l3.39966,-0.43901l14.04894,110.59821z" fill="url(#color-12)" stroke="none" stroke-linecap="butt"/></g><path d="M209.72239,284.54526l10.98608,-88.31812l3.16016,-8.19084l12.25098,0.82773l-13.58679,114.34166l-13.79128,-0.15994z" data-paper-data="{&quot;index&quot;:null}" fill="url(#color-13)" stroke="#000000" stroke-linecap="round"/><path d="M214.327,247.61222l1.21376,-11.59145l13.63701,1.42795l-1.21375,11.59146z" fill="url(#color-14)" stroke="none" stroke-linecap="butt"/><path d="M217.48436,301.84731l14.04894,-108.78911l3.39964,0.43902l-14.04892,108.78911z" fill="url(#color-15)" stroke="none" stroke-linecap="butt"/><path d="M220.06709,223.02872l6.7999,-8.33246" fill="none" stroke="#ff0000" stroke-linecap="round"/><path d="M225.97414,223.44174l-4.05542,-10.1436" fill="none" stroke="#ff0000" stroke-linecap="round"/></g><path d="M166.35101,259.9078c0,0 -31.4468,-47.31451 -34.54396,-79.9263c-1.44359,-15.2004 56.31478,-92.61933 56.31478,-92.61933l45.59569,105.87372c0,0 -37.07853,13.15827 -50.35934,26.88733c-13.59088,14.04959 -17.00719,39.78458 -17.00719,39.78458z" data-paper-data="{&quot;index&quot;:null}" fill="url(#color-16)" stroke="#000000" stroke-width="2" stroke-linecap="butt"/><path d="M113.24507,227.75663c0,0 -5.9459,-55.64228 6.5595,-86.44783c5.8288,-14.35851 98.83925,-61.26549 98.83925,-61.26549l-8.83439,114.44633c0,0 -27.90642,-29.78683 -48.61339,-12.12167c-14.51498,12.38277 -47.95097,45.38866 -47.95097,45.38866z" data-paper-data="{&quot;index&quot;:null}" fill="url(#color-17)" stroke="#000000" stroke-width="2" stroke-linecap="butt"/><path d="M85.0832,143.61659c0,0 30.45542,-39.85538 58.83398,-59.62275c13.22729,-9.2136 124.18507,-4.64455 124.18507,-4.64455l-76.78458,85.04737c0,0 -8.187,-40.83816 -35.71978,-36.35341c-19.29966,3.14367 -70.51468,15.57333 -70.51468,15.57333z" data-paper-data="{&quot;index&quot;:null}" fill="url(#color-18)" stroke="#000000" stroke-width="2" stroke-linecap="butt"/><g stroke="#000000" stroke-width="2" stroke-linecap="round"><g><path d="M172.11947,115.43941l-21.17666,-44.49416l48.13519,15.98069z" fill="url(#color-19)"/><path d="M175.59117,111.18985l-14.70602,-30.89872l33.42724,11.09771z" fill="url(#color-20)"/></g><g data-paper-data="{&quot;index&quot;:null}"><path d="M250.42904,81.91156l44.11748,-25.02053l-12.13683,47.75854z" fill="url(#color-21)"/><path d="M255.97031,85.36454l30.63713,-17.37536l-8.42834,33.16566z" fill="url(#color-22)"/></g></g><path d="M165.51757,141.62164c-3.24769,-33.14311 22.74235,-62.81565 58.05036,-66.27548c35.30801,-3.45983 66.56359,20.60323 69.81128,53.74633c3.24769,33.14311 -22.74235,62.81565 -58.05036,66.27548c-35.30801,3.45983 -66.56359,-20.60323 -69.81128,-53.74633z" fill="url(#color-23)" stroke="#000000" stroke-width="2" stroke-linecap="butt"/><path d="M288.02461,158.91067c1.13107,11.5427 -24.70573,32.5646 -53.47087,35.38329c-28.76513,2.81869 -58.12616,-12.12452 -59.25722,-23.66722c-0.84793,-8.65321 19.33488,-6.06967 37.70427,-11.07531c6.13394,-1.67149 10.2562,-6.35166 17.457,-7.05726c10.91545,-1.0696 19.44827,2.13404 28.04429,3.61676c14.05679,2.42463 28.82068,-4.36286 29.52254,2.79975z" fill="url(#color-24)" stroke="#000000" stroke-width="2" stroke-linecap="butt"/><path d="M235.76236,153.64903c0.21544,2.19861 -1.39223,4.15558 -3.59084,4.37102c-2.19861,0.21544 -4.15558,-1.39223 -4.37102,-3.59084c-0.21544,-2.19861 1.39223,-4.15558 3.59084,-4.37102c2.19861,-0.21544 4.15558,1.39223 4.37102,3.59084z" fill="#000000" stroke="#000000" stroke-width="2" stroke-linecap="butt"/><g stroke-width="2"><g data-paper-data="{&quot;index&quot;:null}" fill="#000000" stroke="#000000" stroke-linecap="butt"><path d="M234.8369,134.29714c-1.78663,-12.69512 6.95651,-24.42082 19.52837,-26.19009c12.57186,-1.76928 24.21169,7.08789 25.99832,19.78297c1.78663,12.6951 -6.95652,24.42081 -19.52838,26.19008c-12.57186,1.76927 -24.21168,-7.08789 -25.9983,-19.78298z"/><path d="M243.30164,132.99206c-1.08412,-7.70334 4.38174,-14.84101 12.20835,-15.94248c7.8266,-1.10146 15.05015,4.25039 16.13426,11.95373c1.08412,7.70331 -4.38171,14.84106 -12.20833,15.94251c-7.8266,1.10146 -15.05017,-4.25042 -16.13428,-11.95377z"/></g><path d="M271.58293,156.82832l-1.54354,-6.18164" data-paper-data="{&quot;index&quot;:null}" fill="none" stroke="#000000" stroke-linecap="round"/><path d="M263.10098,152.89653l1.30624,6.8886" data-paper-data="{&quot;index&quot;:null}" fill="none" stroke="#000000" stroke-linecap="round"/><path d="M248.25707,152.39793l2.65402,16.4656" data-paper-data="{&quot;index&quot;:null}" fill="none" stroke="#000000" stroke-linecap="round"/><path d="M257.08121,161.09447l-0.79009,-5.61411" data-paper-data="{&quot;index&quot;:null}" fill="none" stroke="#000000" stroke-linecap="round"/><g stroke="none" stroke-linecap="butt"><path d="M252.81598,135.84506c-0.14033,-2.17725 1.5109,-4.056 3.68814,-4.19632c2.17725,-0.14033 4.056,1.51089 4.19632,3.68815c0.14033,2.17725 -1.5109,4.05601 -3.68815,4.19633c-2.17725,0.14033 -4.05598,-1.51091 -4.19631,-3.68816z" fill="url(#color-25)"/><path d="M258.34782,135.68641c0.05613,0.8709 -0.60436,1.6224 -1.47526,1.67854c-0.8709,0.05613 -1.62242,-0.60437 -1.67855,-1.47527c-0.05613,-0.8709 0.60437,-1.62239 1.47528,-1.67852c0.8709,-0.05613 1.62238,0.60436 1.67852,1.47525z" fill="#c71c1b"/><path d="M255.79788,135.85685c-0.03601,-0.55872 0.38773,-1.04082 0.94644,-1.07683c0.55872,-0.03601 1.04081,0.38774 1.07683,0.94644c0.03601,0.55872 -0.38773,1.04081 -0.94644,1.07682c-0.55872,0.03601 -1.04082,-0.38772 -1.07684,-0.94641z" fill="url(#color-26)"/></g></g><g data-paper-data="{&quot;index&quot;:null}" fill="none" stroke="none" stroke-width="1" stroke-linecap="butt" font-family="sans-serif" font-weight="normal" font-size="12" text-anchor="start"><g/><g data-paper-data="{&quot;index&quot;:null}"/></g><g data-paper-data="{&quot;index&quot;:null}" stroke-width="2" stroke-linecap="round"><path d="M271.35916,171.80751l9.1312,-9.27232c0,0 18.18199,20.40274 9.04527,23.35356c-14.67723,4.74021 -90.99689,2.17256 -90.99689,2.17256z" fill="#7d714d" stroke="#000000"/><path d="M280.18301,165.03859l6.70902,17.13893l-17.47743,-7.46927l-3.30682,11.28075l-18.48078,-6.58781l-8.77933,7.71285l-17.10645,-3.39796l-4.53278,3.77274" fill="none" stroke="#4e4528"/></g><g stroke-width="2"><path d="M183.27529,140.48468c-1.78663,-12.69512 6.95653,-24.42083 19.52837,-26.1901c12.57185,-1.76928 24.21168,7.08789 25.99832,19.78296c1.78663,12.69511 -6.95653,24.4208 -19.52839,26.19007c-12.57185,1.76928 -24.2117,-7.08785 -25.9983,-19.78295z" data-paper-data="{&quot;index&quot;:null}" fill="#000000" stroke="#000000" stroke-linecap="butt"/><path d="M193.30923,162.45049l-0.08314,-5.37681" data-paper-data="{&quot;index&quot;:null}" fill="none" stroke="#000000" stroke-linecap="round"/><path d="M200.35005,160.63527l0.07821,7.73499" data-paper-data="{&quot;index&quot;:null}" fill="none" stroke="#000000" stroke-linecap="round"/><path d="M210.74478,160.85494l0.83657,5.94435" data-paper-data="{&quot;index&quot;:null}" fill="none" stroke="#000000" stroke-linecap="round"/><path d="M220.90266,167.86588l-1.10069,-15.00029" data-paper-data="{&quot;index&quot;:null}" fill="none" stroke="#000000" stroke-linecap="round"/><g stroke="none" stroke-linecap="butt"><path d="M203.08679,141.67964c-0.14033,-2.17725 1.5109,-4.056 3.68814,-4.19632c2.17725,-0.14033 4.056,1.51089 4.19632,3.68815c0.14033,2.17725 -1.5109,4.05601 -3.68815,4.19633c-2.17725,0.14033 -4.05598,-1.51091 -4.19631,-3.68816z" fill="url(#color-27)"/><path d="M208.61863,141.52098c0.05613,0.8709 -0.60436,1.6224 -1.47526,1.67854c-0.8709,0.05613 -1.62242,-0.60437 -1.67855,-1.47527c-0.05613,-0.8709 0.60437,-1.62239 1.47528,-1.67852c0.8709,-0.05613 1.62238,0.60436 1.67852,1.47525z" fill="#c71c1b"/><path d="M206.0687,141.69143c-0.03601,-0.55872 0.38773,-1.04082 0.94644,-1.07683c0.55872,-0.03601 1.04081,0.38774 1.07683,0.94644c0.03601,0.55872 -0.38773,1.04081 -0.94644,1.07682c-0.55872,0.03601 -1.04082,-0.38772 -1.07684,-0.94641z" fill="url(#color-28)"/></g></g></g></g></svg>