<svg version="1.1" xmlns="http://www.w3.org/2000/svg" xmlns:xlink="http://www.w3.org/1999/xlink" width="166.01626" height="373.16341" viewBox="0,0,166.01626,373.16341"><defs><linearGradient x1="239.98966" y1="184.34849" x2="239.98966" y2="316.34846" gradientUnits="userSpaceOnUse" id="color-1"><stop offset="0" stop-color="#000000"/><stop offset="1" stop-color="#3f2222"/></linearGradient><linearGradient x1="249.05754" y1="276.64358" x2="249.05754" y2="304.29044" gradientUnits="userSpaceOnUse" id="color-2"><stop offset="0" stop-color="#1a0c12"/><stop offset="1" stop-color="#4d2637"/></linearGradient><linearGradient x1="245.70968" y1="269.56989" x2="245.70968" y2="282.7453" gradientUnits="userSpaceOnUse" id="color-3"><stop offset="0" stop-color="#1a0c12"/><stop offset="1" stop-color="#4d2637"/></linearGradient><linearGradient x1="233.83019" y1="267.84193" x2="233.83019" y2="281.01743" gradientUnits="userSpaceOnUse" id="color-4"><stop offset="0" stop-color="#1a0c12"/><stop offset="1" stop-color="#4d2637"/></linearGradient><linearGradient x1="230.15834" y1="266.33002" x2="230.15834" y2="279.50543" gradientUnits="userSpaceOnUse" id="color-5"><stop offset="0" stop-color="#1a0c12"/><stop offset="1" stop-color="#4d2637"/></linearGradient><linearGradient x1="233.07421" y1="262.65819" x2="233.07421" y2="274.96961" gradientUnits="userSpaceOnUse" id="color-6"><stop offset="0" stop-color="#1a0c12"/><stop offset="1" stop-color="#4d2637"/></linearGradient><linearGradient x1="252.94539" y1="247.10687" x2="252.94539" y2="277.99352" gradientUnits="userSpaceOnUse" id="color-7"><stop offset="0" stop-color="#1a0c12"/><stop offset="1" stop-color="#4d2637"/></linearGradient><linearGradient x1="242.14331" y1="183.01692" x2="242.14331" y2="250.25159" gradientUnits="userSpaceOnUse" id="color-8"><stop offset="0" stop-color="#000000"/><stop offset="1" stop-color="#3a213e"/></linearGradient><linearGradient x1="240.00005" y1="175.50006" x2="240.00005" y2="307.50005" gradientUnits="userSpaceOnUse" id="color-9"><stop offset="0" stop-color="#000000"/><stop offset="1" stop-color="#935399"/></linearGradient><radialGradient cx="242.16015" cy="161.73533" r="64.40652" gradientUnits="userSpaceOnUse" id="color-10"><stop offset="0" stop-color="#000000"/><stop offset="1" stop-color="#270000"/></radialGradient><linearGradient x1="238.76029" y1="262.27727" x2="238.76029" y2="419.55093" gradientUnits="userSpaceOnUse" id="color-11"><stop offset="0" stop-color="#4d4948"/><stop offset="1" stop-color="#1a1716"/></linearGradient><radialGradient cx="242.45679" cy="236.6449" r="1.98299" gradientUnits="userSpaceOnUse" id="color-12"><stop offset="0" stop-color="#000000"/><stop offset="1" stop-color="#7c0000"/></radialGradient><radialGradient cx="242.45679" cy="236.6449" r="1.98299" gradientUnits="userSpaceOnUse" id="color-13"><stop offset="0" stop-color="#000000" stop-opacity="0"/><stop offset="1" stop-color="#000000" stop-opacity="0"/></radialGradient><radialGradient cx="250.21629" cy="231.64431" r="1.12082" gradientUnits="userSpaceOnUse" id="color-14"><stop offset="0" stop-color="#000000"/><stop offset="1" stop-color="#7c0000"/></radialGradient><radialGradient cx="226.50668" cy="223.97102" r="1.72434" gradientUnits="userSpaceOnUse" id="color-15"><stop offset="0" stop-color="#000000"/><stop offset="1" stop-color="#7c0000"/></radialGradient><radialGradient cx="223.66151" cy="243.54223" r="1.29325" gradientUnits="userSpaceOnUse" id="color-16"><stop offset="0" stop-color="#000000"/><stop offset="1" stop-color="#7c0000"/></radialGradient><radialGradient cx="250.64738" cy="224.31587" r="8.44925" gradientUnits="userSpaceOnUse" id="color-17"><stop offset="0" stop-color="#000000"/><stop offset="1" stop-color="#7c0000"/></radialGradient><radialGradient cx="215.81578" cy="235.86894" r="9.7425" gradientUnits="userSpaceOnUse" id="color-18"><stop offset="0" stop-color="#000000"/><stop offset="1" stop-color="#7c0000"/></radialGradient><linearGradient x1="270.04443" y1="144.70469" x2="269.74981" y2="168.00907" gradientUnits="userSpaceOnUse" id="color-19"><stop offset="0" stop-color="#553f34"/><stop offset="1" stop-color="#4a2722"/></linearGradient><linearGradient x1="250.42358" y1="137.9551" x2="249.95791" y2="174.78934" gradientUnits="userSpaceOnUse" id="color-20"><stop offset="0" stop-color="#7f6d5d"/><stop offset="1" stop-color="#3e342d"/></linearGradient><linearGradient x1="213.51859" y1="139.34937" x2="213.28919" y2="157.49477" gradientUnits="userSpaceOnUse" id="color-21"><stop offset="0" stop-color="#000000"/><stop offset="1" stop-color="#5f302c"/></linearGradient><linearGradient x1="274.51106" y1="136.53234" x2="274.22575" y2="159.10028" gradientUnits="userSpaceOnUse" id="color-22"><stop offset="0" stop-color="#000000"/><stop offset="1" stop-color="#5f302c"/></linearGradient><linearGradient x1="252.00457" y1="170.90061" x2="251.71061" y2="194.1526" gradientUnits="userSpaceOnUse" id="color-23"><stop offset="0" stop-color="#553f34"/><stop offset="1" stop-color="#4a2722"/></linearGradient><linearGradient x1="245.18886" y1="164.16559" x2="244.84878" y2="191.06522" gradientUnits="userSpaceOnUse" id="color-24"><stop offset="0" stop-color="#7f6d5d"/><stop offset="1" stop-color="#3e342d"/></linearGradient><linearGradient x1="241.58427" y1="171.76653" x2="241.33839" y2="191.21477" gradientUnits="userSpaceOnUse" id="color-25"><stop offset="0" stop-color="#5d2f2b"/><stop offset="1" stop-color="#000000"/></linearGradient><linearGradient x1="256.41705" y1="101.06311" x2="254.9882" y2="214.08331" gradientUnits="userSpaceOnUse" id="color-26"><stop offset="0" stop-color="#221c21"/><stop offset="1" stop-color="#4d404c"/></linearGradient><radialGradient cx="320.26643" cy="132.66561" r="15.88689" gradientUnits="userSpaceOnUse" id="color-27"><stop offset="0" stop-color="#3c2d3b"/><stop offset="1" stop-color="#191319"/></radialGradient><radialGradient cx="319.34002" cy="200.802" r="13.83682" gradientUnits="userSpaceOnUse" id="color-28"><stop offset="0" stop-color="#000000" stop-opacity="0"/><stop offset="1" stop-color="#000000" stop-opacity="0.19657"/></radialGradient><radialGradient cx="320.0951" cy="167.65976" r="23.91791" gradientUnits="userSpaceOnUse" id="color-29"><stop offset="0" stop-color="#605460"/><stop offset="1" stop-color="#332a32"/></radialGradient><linearGradient x1="320.39746" y1="143.74382" x2="319.79274" y2="191.57582" gradientUnits="userSpaceOnUse" id="color-30"><stop offset="0" stop-color="#806a7f"/><stop offset="1" stop-color="#5d4d5c"/></linearGradient><linearGradient x1="240.91017" y1="200.08887" x2="240.75291" y2="212.52833" gradientUnits="userSpaceOnUse" id="color-31"><stop offset="0" stop-color="#000000"/><stop offset="1" stop-color="#630000"/></linearGradient><radialGradient cx="191.7587" cy="210.93634" r="1.57732" gradientUnits="userSpaceOnUse" id="color-32"><stop offset="0" stop-color="#000000"/><stop offset="1" stop-color="#630000"/></radialGradient><linearGradient x1="320.39746" y1="143.74382" x2="319.79274" y2="191.57582" gradientUnits="userSpaceOnUse" id="color-33"><stop offset="0" stop-color="#322931"/><stop offset="1" stop-color="#453944"/></linearGradient></defs><g transform="translate(-173.25271,-46.38752)"><g data-paper-data="{&quot;isPaintingLayer&quot;:true}" fill-rule="nonzero" stroke-linejoin="miter" stroke-miterlimit="10" stroke-dasharray="" stroke-dashoffset="0" style="mix-blend-mode: normal"><path d="M180.1931,313.61253v-267.22501h123.18203v267.22501z" fill-opacity="0.01" fill="#000000" stroke="none" stroke-width="0" stroke-linecap="butt"/><path d="M221.65255,184.50639l38.26309,-0.15789l11.57983,111.19652c-1.79994,-0.81338 -3.51553,-1.59229 -4.85732,-2.45196c-1.18727,-0.76067 -1.43337,-8.87639 -1.83874,-10.18216c-1.8957,-6.10631 -7.55414,-3.04021 -11.03343,-5.32934c-1.6778,-1.10388 -2.57948,-3.08938 -4.59716,-3.61621c-1.68197,-0.43918 -3.5478,-1.90359 -5.09504,-1.11803c-2.7486,1.39551 -5.58247,3.18991 -8.29501,5.0623c-2.27706,1.57179 -0.23206,6.53578 -3.70594,8.08028c-5.65423,2.51389 -5.53911,-2.86544 -8.47262,-4.52071c-5.15365,-2.90801 -9.87069,-1.30998 -13.46001,2.01324z" fill="url(#color-1)" stroke="#000000" stroke-width="0" stroke-linecap="butt"/><path d="M246.03368,304.29044v-27.64684h6.04775v27.64684z" fill="url(#color-2)" stroke="none" stroke-width="0" stroke-linecap="butt"/><path d="M245.70968,269.56989c8.70806,0 15.76734,2.94942 15.76734,6.58772c0,3.6383 -7.05928,6.58772 -15.76734,6.58772c-8.70806,0 -15.76734,-2.94942 -15.76734,-6.58772c0,-3.6383 7.05928,-6.58772 15.76734,-6.58772z" fill="url(#color-3)" stroke="none" stroke-width="0" stroke-linecap="butt"/><path d="M233.83019,267.84191c7.03802,0 12.74347,-1.15441 12.74347,2.4839c0,3.6383 -5.92144,13.28344 -12.95946,13.28344c-11.57383,0 -12.52747,-5.54131 -12.52747,-9.17962c0,-3.6383 5.70544,-6.58772 12.74347,-6.58772z" fill="url(#color-4)" stroke="none" stroke-width="0" stroke-linecap="butt"/><path d="M230.15834,266.33002c8.70806,0 15.76734,2.94943 15.76734,6.58772c0,3.63829 -7.05928,6.58772 -15.76734,6.58772c-8.70806,0 -15.76734,-2.94943 -15.76734,-6.58772c0,-3.63829 7.05928,-6.58772 15.76734,-6.58772z" fill="url(#color-5)" stroke="none" stroke-width="0" stroke-linecap="butt"/><path d="M233.07421,262.65819c6.61133,0 11.97088,2.75602 11.97088,6.15574c0,3.39973 -5.35955,6.15574 -11.97088,6.15574c-6.61134,0 -11.97089,-2.75602 -11.97089,-6.15574c0,-3.39972 5.35956,-6.15574 11.97089,-6.15574z" fill="url(#color-6)" stroke="none" stroke-width="0" stroke-linecap="butt"/><path d="M252.94539,247.10687c7.21696,0 13.06745,6.91423 13.06745,15.44335c0,8.52913 -5.85049,15.44335 -13.06745,15.44335c-7.21696,0 -13.06745,-6.91423 -13.06745,-15.44335c0,-8.52913 5.85049,-15.44335 13.06745,-15.44335z" fill="url(#color-7)" stroke="none" stroke-width="0" stroke-linecap="butt"/><path d="M296.59783,196.07491c0,0 -0.33942,7.5719 -3.88961,8.89054c-3.55019,1.31864 -5.83441,-5.27875 -5.83441,-5.27875l-3.33395,4.16744v5.00092l-1.9448,1.66698c0,0 2.34568,9.2973 -0.58088,8.46114c-2.92656,-0.83616 -3.30873,-9.57246 -3.30873,-9.57246c0,0 2.17241,9.97794 -2.07107,12.22449c-4.24348,2.24654 -7.37512,-7.22356 -7.37512,-7.22356l0.55566,23.61548l-31.11688,12.22449l-22.22633,-10.27968l-2.22264,-2.77829l0.83349,-23.33766c0,0 -3.53924,8.70391 -6.94573,6.94573c-3.40649,-1.75818 -1.66698,-11.391 -1.66698,-11.391c0,0 0.02799,8.80427 -3.61178,8.61271c-3.63977,-0.19156 -1.66698,-8.89053 -1.66698,-8.89053l-1.66697,-1.38914v-5.00093l-3.05612,-3.05612c0,0 -2.88219,5.52811 -5.83441,5.00092c-2.95222,-0.52719 -1.94481,-6.39007 -1.94481,-6.39007l12.22448,-15.28061z" fill="url(#color-8)" stroke="#000000" stroke-width="0" stroke-linecap="round"/><path d="M221.89291,175.65795l37.78325,-0.15789l11.43462,111.19652c-1.77737,-0.81337 -3.47144,-1.5923 -4.7964,-2.45196c-1.17238,-0.76067 -1.4154,-8.87639 -1.81569,-10.18216c-1.87193,-6.10631 -7.4594,-3.0402 -10.89506,-5.32934c-1.65676,-1.10388 -2.54713,-3.08938 -4.53951,-3.61621c-1.66088,-0.43918 -3.50331,-1.90359 -5.03115,-1.11803c-2.71413,1.3955 -5.51246,3.18992 -8.19098,5.06231c-2.2485,1.57179 -0.22915,6.53577 -3.65947,8.08028c-5.58333,2.51389 -5.46965,-2.86544 -8.36637,-4.52071c-5.08902,-2.90801 -9.7469,-1.30998 -13.29121,2.01325z" fill="url(#color-9)" stroke="#000000" stroke-width="0" stroke-linecap="butt"/><path d="M177.24105,201.87249l1.03546,-81.90258l128.80274,1.62838l-1.03545,81.90259z" fill="url(#color-10)" stroke="none" stroke-width="0" stroke-linecap="butt"/><path d="M233.76029,419.55093c0,0 -0.28483,-36.20281 -0.02387,-72.15242c0.08799,-12.12082 0.86954,-24.63388 0.89684,-35.15544c0.00754,-2.90811 -0.93352,-7.82757 -0.92296,-10.45149c0.03131,-7.78053 0.76251,-14.62955 0.76251,-18.76319c0,-9.9535 -0.71252,-20.75109 -0.71252,-20.75109h10c0,0 -0.47502,11.60541 -0.47502,21.93863c0,2.46206 0.71684,6.39707 0.72465,10.21264c0.01165,5.69044 -0.93656,15.05748 -0.94177,22.80137c-0.00549,8.16664 0.73047,18.02775 0.77166,27.07476c0.16828,36.96355 -0.07953,75.24624 -0.07953,75.24624z" fill="url(#color-11)" stroke="#000000" stroke-width="0" stroke-linecap="butt"/><path d="M210.73705,274.43584l2.3217,-18.57364c0,0 -0.01784,8.18509 8.21526,8.03667c7.51718,-0.13551 11.07275,-9.10823 11.07275,-9.10823c0,0 -0.15395,6.04961 8.57245,5.71497c8.00637,-0.30703 6.25074,-7.3223 6.25074,-7.3223c0,0 1.50582,10.01365 11.07275,10.17978c8.85171,0.15371 9.46541,-9.28682 9.46541,-9.28682l3.21467,32.50387l-5.0006,-2.5003c0,0 -0.11912,-6.91945 -3.57185,-11.07275c-3.45274,-4.15329 -5.45718,-2.45393 -8.75104,-3.75045c-3.29386,-1.29652 -4.69432,-5.11246 -8.57245,-5.0006c-3.87813,0.11187 -5.82939,2.41788 -8.92963,5.71497c-3.10025,3.29709 -0.82867,3.96142 -2.3217,6.25074c-1.49304,2.28933 -2.26912,1.58717 -4.10763,1.78593c-1.83851,0.19876 -2.5003,-1.07156 -2.5003,-1.07156c0,0 -4.59741,-5.11007 -8.57245,-5.71497c-3.97504,-0.6049 -7.85808,3.21467 -7.85808,3.21467z" fill="#000000" stroke="#000000" stroke-width="0.5" stroke-linecap="round"/><path d="M240.4738,236.6449c0,-1.09517 0.88781,-1.98299 1.98299,-1.98299c1.09517,0 1.98299,0.88781 1.98299,1.98299c0,1.09517 -0.88781,1.98299 -1.98299,1.98299c-1.09517,0 -1.98299,-0.88781 -1.98299,-1.98299z" fill="url(#color-12)" stroke="url(#color-13)" stroke-width="0" stroke-linecap="butt"/><path d="M249.09548,231.64431c0,-0.61901 0.50181,-1.12082 1.12082,-1.12082c0.61901,0 1.12082,0.50181 1.12082,1.12082c0,0.61901 -0.50181,1.12082 -1.12082,1.12082c-0.61901,0 -1.12082,-0.50181 -1.12082,-1.12082z" fill="url(#color-14)" stroke="none" stroke-width="0" stroke-linecap="butt"/><path d="M224.78234,223.97102c0,-0.95232 0.77201,-1.72434 1.72434,-1.72434c0.95232,0 1.72434,0.77201 1.72434,1.72434c0,0.95232 -0.77201,1.72434 -1.72434,1.72434c-0.95232,0 -1.72434,-0.77201 -1.72434,-1.72434z" fill="url(#color-15)" stroke="none" stroke-width="0" stroke-linecap="butt"/><path d="M222.36826,243.54223c0,-0.71424 0.57901,-1.29325 1.29325,-1.29325c0.71424,0 1.29325,0.57901 1.29325,1.29325c0,0.71424 -0.57901,1.29325 -1.29325,1.29325c-0.71424,0 -1.29325,-0.57901 -1.29325,-1.29325z" fill="url(#color-16)" stroke="none" stroke-width="0" stroke-linecap="butt"/><path d="M250.64738,219.83262c1.25028,-0.37955 3.7596,-1.92718 6.38004,-2.24164c2.62044,-0.31445 2.35313,0.03636 2.24164,1.20704c-0.11149,1.17067 -2.07597,1.08669 -2.5865,2.41407c-0.51053,1.32738 1.13063,1.14875 0.86217,2.0692c-0.26847,0.92046 -1.33343,1.17348 -2.0692,2.0692c-0.73577,0.89572 -0.69331,2.24838 -1.89677,2.75894c-1.20346,0.51056 -2.34183,-0.75964 -3.79354,-0.34487c-1.45171,0.41478 -2.53901,2.66691 -4.65571,2.75894c-2.1167,0.09203 1.48611,-1.39195 0.68973,-2.5865c-0.79637,-1.19456 -1.89384,0.2757 -2.75894,-0.5173c-0.86509,-0.793 0.84577,-0.63831 0.68973,-1.37947c-0.15603,-0.74116 -1.76708,-1.05695 -1.37947,-1.89677c0.38761,-0.83982 2.07594,-1.59246 3.44867,-2.5865c1.37273,-0.99405 0.86572,-0.78954 1.5519,-1.0346c0.68618,-0.24506 2.02596,-0.31018 3.27624,-0.68973z" fill="url(#color-17)" stroke="#000000" stroke-width="0" stroke-linecap="round"/><path d="M216.16067,228.4543c0,0 3.11089,-1.65756 3.96597,-1.67935c0.85508,-0.02179 0.71982,-0.63789 1.0346,1.5519c0.31478,2.18979 -0.46368,4.01506 0,5.64532c0.46367,1.63026 2.29474,2.28163 2.5865,3.44867c0.29176,1.16705 0.35902,1.54514 -1.0346,2.75894c-1.39362,1.2138 -3.53754,1.09373 -4.31084,1.89677c-0.7733,0.80304 0.57555,1.74696 -0.17243,2.75894c-0.74799,1.01198 -1.75742,1.89558 -2.75894,1.20704c-1.00152,-0.68855 0.21802,-2.42249 0,-3.10381c-0.21802,-0.68132 -1.37947,-1.20704 -1.37947,-1.20704l2.0692,-13.27739z" fill="url(#color-18)" stroke="#000000" stroke-width="0" stroke-linecap="round"/><path d="M218.37485,248.74502c0,-0.71807 0.58211,-1.30017 1.30017,-1.30017c0.71807,0 1.30017,0.58211 1.30017,1.30017c0,0.71807 -0.58211,1.30017 -1.30017,1.30017c-0.71807,0 -1.30017,-0.58211 -1.30017,-1.30017z" fill="#000000" stroke="none" stroke-width="0" stroke-linecap="butt"/><path d="M262.58074,255.94597c0,-0.71807 0.58211,-1.30017 1.30017,-1.30017c0.71807,0 1.30017,0.58211 1.30017,1.30017c0,0.71807 -0.58211,1.30017 -1.30017,1.30017c-0.71807,0 -1.30017,-0.58211 -1.30017,-1.30017z" fill="#000000" stroke="none" stroke-width="0" stroke-linecap="butt"/><g stroke-width="0"><path d="M218.57727,149.80545l98.08121,-4.51144l5.27152,20.55315c-1.54852,-0.12221 -3.34567,0.03602 -5.46637,0.51304c-0.92721,0.20857 -1.26412,1.2438 -1.6729,2.2183l-2.4901,-14.83749l-43.24111,-1.54693l-13.87131,9.32698l-4.91509,-6.81381l-23.26151,0.45611l-4.81678,5.1904l-2.9971,-0.28796l-1.44008,-4.76937z" fill="url(#color-19)" stroke="#57372f" stroke-linecap="butt"/><path d="M300.51484,156.34274l-4.77885,2.19015l-0.31009,4.74724l-5.26942,1.43375l2.29129,-3.22184l-3.21867,-2.54132l0.04109,-3.25028l-6.47527,-2.08236l2.44017,4.78203l-4.76305,0.94003l-3.18706,-5.04152l-2.23756,-1.02854l-5.82321,5.6778l-4.4435,-4.55729l-14.22595,-2.18034l-4.85472,8.19066l-3.26293,0.959l0.10431,-8.25072l-8.78869,2.88963l0.959,3.26292l3.22815,1.79125l-4.55729,4.4435l-2.75024,-0.03476l-0.71529,-2.75972l-1.98436,-1.2754l0.348,-7.74751l-4.97514,-2.06338l-7.56703,5.15564l-3.3293,6.20945l-2.00334,0.22474l-5.35192,-11.82057l3.34541,12.29531l-7.488,-1.09492l-2.61117,-11.03571l-3.02238,1.71223l-0.02529,2.00016l1.23114,1.51594l-4.82626,5.94046l0.41754,-13.24798l-6.81065,4.66507l0.4305,5.5068l1.97173,2.27549l-2.03495,2.72495l-4.7188,-2.56027l6.81664,-24.91999l121.92525,8.2931l9.49789,30.20854c-0.24446,-0.06741 -0.47774,-0.15167 -0.69428,-0.26184c-1.36062,-0.69221 -2.4904,-2.2319 -3.8499,-2.93328c-1.52458,-0.78654 -3.31521,-1.23773 -5.17242,-1.35197z" fill="url(#color-20)" stroke="#57372f" stroke-linecap="butt"/><path d="M182.9595,156.69615c-4.37128,-1.29527 -2.78272,-8.91855 -2.75193,-11.35348c0.03078,-2.43492 1.70729,-25.85943 1.70729,-25.85943l65.87745,-1.09831c0,0 -0.42353,28.05487 -1.29921,30.69122c-0.87569,2.63635 -1.24954,3.86372 -4.02095,5.74012c-2.77141,1.8764 -6.7202,2.25363 -8.19195,2.52868c-1.47175,0.27505 -0.829,0.87318 -3.68124,-0.30976c-2.85224,-1.18295 -5.52614,-3.68176 -6.79286,-4.03426c-1.26671,-0.35251 1.53098,0.85262 -2.12542,1.55248c-3.65639,0.69986 -6.29097,1.15318 -9.48457,0.66977c-3.1936,-0.48341 -5.62709,-2.89454 -7.59238,-3.25469c-1.96529,-0.36013 -1.25459,1.85782 -4.7506,0.99284c-3.496,-0.86497 -2.67979,-5.12809 -7.5824,-4.04424c-4.9026,1.08386 -4.93994,9.07428 -9.31123,7.77903z" fill="url(#color-21)" stroke="#61352d" stroke-linecap="round"/><path d="M305.66426,117.33324c0,0 -0.98076,36.3099 -4.00258,40.33713c-3.02182,4.02723 -11.65075,-0.2418 -12.89264,-0.42622c-1.2419,-0.18442 -1.95194,-1.57835 -2.60854,-1.87556c-0.6566,-0.29722 0.80916,0.01023 -1.57909,-0.01996c-2.38824,-0.0302 -2.17934,0.82854 -6.05321,-0.07653c-3.87387,-0.90505 -5.79496,-3.71215 -9.43134,-3.54116c-3.63638,0.171 -5.70904,3.68905 -8.21525,4.37097c-2.50621,0.68192 -3.14014,0.76348 -6.57624,-0.34636c-3.4361,-1.10985 -6.08702,-0.8183 -7.84225,-4.31075c-1.75524,-3.49245 -1.83042,-33.23847 -1.83042,-33.23847z" fill="url(#color-22)" stroke="#61352d" stroke-linecap="round"/></g><g stroke-width="0"><path d="M304.63458,194.82169l-86.22272,-3.84074l-35.13295,-9.9465l11.8901,-10.85239l1.97488,2.02546l-6.36116,8.67174l39.46232,3.7497l9.82987,-6.12727l4.50039,0.05689l0.91159,7.01326l57.22969,2.72401l13.90467,-16.08313c1.23735,0.8979 2.56891,1.63882 3.93676,2.17456z" fill="url(#color-23)" stroke="#57372f" stroke-linecap="butt"/><path d="M183.48326,172.58746l2.85831,-4.56484l-1.54951,-4.02044l3.60778,-0.55452l1.35204,3.8179l-1.6911,7.18015l-3.04568,3.56226l11.94501,4.55196l0.24806,-3.79767l6.49137,-7.11947l6.60288,-0.11657l-0.03034,2.40013l-5.44075,3.1319l3.13948,4.84071l2.98498,1.23799l3.48109,-6.35735l3.00522,-0.36209l0.35197,3.80526l-0.03793,3.00015l11.90178,-7.85124l5.10672,7.46614l14.16283,3.17969l0.8759,-5.9902l3.64571,-3.55468l6.93715,5.08877l6.66863,-5.31685l2.17736,1.82792l-1.4102,0.78234l1.55203,3.82044l4.59012,0.8582l4.28114,-6.34723l6.73968,4.88623l5.23062,-2.33438l-1.96471,-2.82543l2.85072,-3.96481l2.59003,0.83292l0.75706,3.41028l0.44554,-3.59513l3.60525,-0.3545l0.36715,2.6052l-1.65319,4.17999l10.6064,-8.56431c-0.02204,2.28302 0.46138,4.37293 2.19624,5.89309c0.31704,0.2778 0.63166,0.53915 0.9438,0.78449l-13.03799,13.5963l-112.21549,-4.91955l-6.67473,-6.08586z" fill="url(#color-24)" stroke="#57372f" stroke-linecap="butt"/><path d="M303.52407,177.30921c0.26857,1.67766 -1.35108,29.67293 -1.35108,29.67293l-122.81247,-2.80301c0,0 -1.78476,-24.45941 0.10487,-30.00128c1.88963,-5.54186 2.72001,-2.38226 5.32899,-1.18299c2.60898,1.19927 4.32298,6.34869 8.65629,7.61159c4.3333,1.26292 8.40791,-1.96335 13.76757,-1.07631c5.35966,0.88705 2.14725,3.0898 4.63674,4.12229c2.48949,1.0325 2.8063,-0.41869 4.69206,-0.25327c1.88576,0.16544 4.71283,1.5121 7.7977,1.34894c3.08486,-0.16314 6.77981,-2.33997 11.28305,-2.35808c4.50325,-0.01811 4.41106,1.82071 7.4733,2.28262c3.06224,0.4619 6.50877,1.00779 10.62241,0.44689c4.11365,-0.56091 6.10631,-3.15652 10.35729,-3.30755c4.25098,-0.15104 9.52094,3.43564 15.59935,2.38535c6.07841,-1.0503 11.69901,-6.16176 19.80066,-8.50219c8.10167,-2.34044 3.7747,-0.06359 4.04327,1.61408z" fill="url(#color-25)" stroke="#61352d" stroke-linecap="round"/></g><g><path d="M193.96297,101.95756c0,0 1.33813,13.86896 -1.31457,17.51145c-0.93067,1.27793 -7.02159,0.27917 -9.22396,1.04399c-4.53514,1.57492 -6.00218,4.15712 -6.00218,4.15712c0,0 -0.88676,-7.95296 -0.50388,-9.59181c0.38289,-1.63885 2.04031,-1.14929 3.36777,-2.66635c1.32747,-1.51707 1.47869,-3.08798 2.76382,-4.34102c1.28513,-1.25305 2.63607,-0.96658 3.98755,-2.24176c1.35147,-1.27518 1.05966,-3.09368 2.55019,-3.92696c1.49053,-0.83328 4.37526,0.05532 4.37526,0.05532z" fill="#44221f" stroke="#a87469" stroke-width="0" stroke-linecap="round"/><path d="M175.01363,213.07224c0,0 0.85673,-67.76596 1.131,-89.46015c0.00997,-0.78928 -2.89192,-2.00795 -2.89192,-2.00795c0,0 5.16037,-2.43937 5.76926,-3.85458c0.72064,-1.67491 -0.1557,-3.81534 -0.1557,-3.81534c0,0 3.99421,0.85127 5.40509,1.15114c1.21645,0.25854 0.27205,-6.47816 0.27205,-6.47816c0,0 5.86594,2.22717 6.9593,1.60841c2.14625,-1.21463 2.46028,-9.94204 2.46028,-9.94204c0,0 1.68451,3.14699 2.69027,3.15969c29.93958,0.37851 142.61572,1.80301 142.61572,1.80301l-1.38935,109.89501zM182.67304,200.44466l117.80846,0.70129l-0.19379,-78.28287l-116.61254,-1.47692z" fill="url(#color-26)" stroke="#725771" stroke-width="0" stroke-linecap="butt"/><path d="M304.31456,137.70505c0.02403,-1.90107 0.09806,-7.7566 0.13809,-10.92336c0.01583,-1.2527 1.19084,-2.06992 2.44252,-2.0541c3.62285,0.0458 21.47047,0.27144 27.42069,0.34667c1.2154,0.01537 1.91406,1.63325 1.89741,2.94936c-0.02336,1.84821 -0.08805,6.96456 -0.12748,10.0831c-0.01887,1.49254 -1.06533,2.51439 -2.74979,2.49309c-6.67024,-0.08433 -23.54957,-0.29773 -26.8984,-0.34007c-1.13146,-0.0143 -2.13784,-1.38523 -2.12306,-2.5547z" fill="url(#color-27)" stroke="#725771" stroke-width="0" stroke-linecap="butt"/><path d="M305.45745,204.33469c0.03206,-2.53617 0.07958,-6.29425 0.09699,-7.67182c0.01275,-1.0093 1.08943,-2.20889 2.21872,-2.19461c3.16394,0.04 18.32509,0.23168 23.63718,0.29884c1.15435,0.01459 1.82378,1.59208 1.80858,2.79359c-0.0176,1.39211 -0.06031,4.7705 -0.09006,7.12384c-0.01806,1.42821 -0.90502,2.46786 -1.87496,2.45559c-2.76696,-0.03498 -16.31951,-0.20631 -22.60945,-0.28584c-1.96276,-0.02481 -3.20515,-1.08454 -3.187,-2.5196z" fill="url(#color-28)" stroke="#332733" stroke-width="0" stroke-linecap="butt"/><path d="M305.78227,189.58916c0.09853,-7.79405 0.48471,-38.33932 0.54894,-43.42045c0.01769,-1.39926 1.15735,-2.5881 2.34208,-2.57313c3.15103,0.03983 17.61865,0.22274 23.38023,0.29558c1.47327,0.01863 2.36374,1.10121 2.34764,2.37545c-0.06058,4.7916 -0.43698,34.56449 -0.54569,43.16352c-0.01861,1.47162 -0.77661,2.31364 -1.63589,2.30277c-2.84838,-0.03601 -18.69646,-0.23637 -24.40796,-0.30858c-1.28113,-0.0162 -2.04396,-0.68118 -2.02937,-1.83517z" fill="url(#color-29)" stroke="url(#color-30)" stroke-width="2" stroke-linecap="butt"/><path d="M332.74852,210.87289c0.00987,-0.78044 0.65053,-1.4051 1.43096,-1.39523c0.78043,0.00987 1.40509,0.65052 1.39523,1.43096c-0.00987,0.78044 -0.65053,1.4051 -1.43097,1.39523c-0.78043,-0.00987 -1.40508,-0.65052 -1.39522,-1.43096z" fill="#2e232e" stroke="none" stroke-width="0" stroke-linecap="butt"/><path d="M178.87466,207.89966c0.01346,-1.06422 0.88709,-1.91604 1.9513,-1.90259c1.06422,0.01346 1.91604,0.88708 1.90258,1.95131c-0.01346,1.06422 -0.88708,1.91604 -1.95131,1.90258c-1.06422,-0.01346 -1.91604,-0.88708 -1.90258,-1.9513z" fill="#2e232e" stroke="none" stroke-width="0" stroke-linecap="butt"/><path d="M334.04799,108.408c0.01196,-0.94603 0.78855,-1.70322 1.73459,-1.69127c0.94602,0.01196 1.70322,0.78854 1.69127,1.73458c-0.01196,0.94603 -0.78855,1.70325 -1.73458,1.69129c-0.94602,-0.01196 -1.70323,-0.78857 -1.69128,-1.7346z" fill="#2e232e" stroke="none" stroke-width="0" stroke-linecap="butt"/><path d="M320.08631,144.21924l-0.58143,45.9897" fill="none" stroke-opacity="0.16069" stroke="#40303f" stroke-width="2" stroke-linecap="round"/><path d="M332.76077,178.29906l-26.20642,-0.33131" fill="none" stroke-opacity="0.16069" stroke="#40303f" stroke-width="2" stroke-linecap="round"/><path d="M333.67121,167.26098l-26.72027,-0.33781" fill="none" stroke-opacity="0.16069" stroke="#40303f" stroke-width="2" stroke-linecap="round"/><path d="M306.58002,155.61197l26.9772,0.34106" fill="none" stroke-opacity="0.16069" stroke="#40303f" stroke-width="2" stroke-linecap="round"/><path d="M305.91082,105.34921c0,0 -7.7755,4.5725 -11.60315,5.26185c-2.93318,0.52827 -9.40204,-1.47882 -9.40204,-1.47882l7.20061,-4.43386" fill="#44221f" stroke="#725771" stroke-width="0" stroke-linecap="round"/><path d="M300.12015,200.83743l-0.23147,7.88682l-2.55069,1.73785l-3.78287,-0.80644l-4.01335,-2.57947l-12.97111,5.90494l-7.75786,-6.41987l-4.7942,-0.81922l-1.51059,-0.52484l-3.03398,-0.03835l-2.27867,0.22406l-10.61572,-0.38708l-2.50594,-1.80178l-6.83284,0.41936l-2.03223,0.73292l-5.07109,-0.0641l-0.68198,3.7953l-2.55157,1.23572l-2.84848,-0.35301l-3.11734,-4.16034l-3.24956,6.29879l-2.84448,-0.66996l-1.53262,-4.14029l-3.76725,-2.90058l-7.28569,-0.4091l-2.23463,1.23973l-5.70497,-0.07213l-2.87654,1.8656l-2.20657,-0.97888l-4.75416,-0.06011l-2.83646,-1.30384l0.04809,-3.80331z" fill="url(#color-31)" stroke="#9e4138" stroke-width="0" stroke-linecap="round"/><path d="M190.1815,210.9164c0.01101,-0.87107 0.72607,-1.56827 1.59714,-1.55725c0.87107,0.01101 1.56827,0.72607 1.55725,1.59714c-0.01101,0.87107 -0.72607,1.56827 -1.59714,1.55725c-0.87107,-0.01101 -1.56827,-0.72607 -1.55725,-1.59714z" fill="url(#color-32)" stroke="none" stroke-width="0" stroke-linecap="butt"/><path d="M305.78227,189.58916c0.09853,-7.79405 0.48471,-38.33932 0.54894,-43.42045c0.01769,-1.39926 1.15735,-2.5881 2.34208,-2.57313c3.15103,0.03983 17.61865,0.22274 23.38023,0.29558c1.47327,0.01863 2.36374,1.10121 2.34764,2.37545c-0.06058,4.7916 -0.43698,34.56449 -0.54569,43.16352c-0.01861,1.47162 -0.77661,2.31364 -1.63589,2.30277c-2.84838,-0.03601 -18.69646,-0.23637 -24.40796,-0.30858c-1.28113,-0.0162 -2.04396,-0.68118 -2.02937,-1.83517z" fill="none" stroke="url(#color-33)" stroke-width="2.5" stroke-linecap="butt"/></g></g></g></svg>