<svg version="1.1" xmlns="http://www.w3.org/2000/svg" xmlns:xlink="http://www.w3.org/1999/xlink" width="150.96401" height="267.22501" viewBox="0,0,150.96401,267.22501"><defs><linearGradient x1="240.00003" y1="175.50001" x2="240.00003" y2="307.50001" gradientUnits="userSpaceOnUse" id="color-1"><stop offset="0" stop-color="#1a110e"/><stop offset="1" stop-color="#5d3d27"/></linearGradient><linearGradient x1="239.13075" y1="66.59835" x2="239.13075" y2="202.9982" gradientUnits="userSpaceOnUse" id="color-2"><stop offset="0" stop-color="#19110c"/><stop offset="1" stop-color="#714a2f"/></linearGradient><radialGradient cx="304.61697" cy="144.75177" r="11.79283" gradientUnits="userSpaceOnUse" id="color-3"><stop offset="0" stop-color="#ffe902"/><stop offset="1" stop-color="#6a6101"/></radialGradient></defs><g transform="translate(-165.418,-46.38751)"><g data-paper-data="{&quot;isPaintingLayer&quot;:true}" fill-rule="nonzero" stroke-linejoin="miter" stroke-miterlimit="10" stroke-dasharray="" stroke-dashoffset="0" style="mix-blend-mode: normal"><path d="M179.28373,313.61252v-267.22501h123.18203v267.22501z" fill-opacity="0.01" fill="#000000" stroke="none" stroke-width="0" stroke-linecap="butt"/><path d="M206.75004,307.5l15.14285,-131.8421l37.78325,-0.15789l13.57389,132z" fill="url(#color-1)" stroke="#000000" stroke-width="0" stroke-linecap="butt"/><g><g><g><path d="M166.47601,134.79827c0,-37.66578 32.52865,-68.19993 72.65475,-68.19993c40.1261,0 72.65475,30.53416 72.65475,68.19993c0,37.66578 -32.52865,68.19993 -72.65475,68.19993c-40.1261,0 -72.65475,-30.53416 -72.65475,-68.19993z" fill="url(#color-2)" stroke="#000000" stroke-width="0" stroke-linecap="butt"/><path d="M197.35734,105.5432c0,0 5.44901,-1.35846 11.2805,-2.38846c7.93249,-1.40111 12.18135,-0.13193 12.18135,-0.13193l3.28466,64.68986c0,0 -5.74246,1.68027 -8.9155,1.68027c-4.09636,0 -14.07711,-1.68027 -14.07711,-1.68027z" fill="none" stroke="#36251c" stroke-width="2.5" stroke-linecap="round"/><path d="M271.48412,101.83076c6.27396,0.52958 7.98972,1.61213 7.98972,1.61213l-0.93848,62.58952c0,0 -7.41514,0.84014 -10.79244,0.84014c-2.98774,0 -8.44627,-0.84014 -8.44627,-0.84014l3.28466,-64.68984c0,0 4.69887,0.13333 8.90283,0.48818z" fill="none" stroke="#36251c" stroke-width="2.5" stroke-linecap="round"/><path d="M175.15897,111.49529l-0.60479,2.82237" fill="none" stroke="#000000" stroke-width="1.5" stroke-linecap="round"/><path d="M178.38455,116.33365l-3.22558,-3.22557" fill="none" stroke="#000000" stroke-width="1.5" stroke-linecap="round"/><path d="M171.93341,120.36561l2.62078,-0.20161l1.61279,1.20959" fill="none" stroke="#000000" stroke-width="1.5" stroke-linecap="round"/><path d="M168.10305,130.04229l2.82237,-2.21757l-0.60479,3.02396l1.20959,0.20159v2.82237l2.21757,0.40319" fill="none" stroke="#000000" stroke-width="1.5" stroke-linecap="round"/><path d="M168.10305,137.29981l1.61279,-0.60479l1.81438,2.41918" fill="none" stroke="#000000" stroke-width="1.5" stroke-linecap="round"/><path d="M169.31265,147.37973l-0.4032,2.62077l-1.41118,0.40319" fill="none" stroke="#000000" stroke-width="1.5" stroke-linecap="round"/><path d="M169.31265,155.04045l1.81437,-0.60481l1.20959,1.61279" fill="none" stroke="#000000" stroke-width="1.5" stroke-linecap="round"/><path d="M178.78775,166.73314l-1.41119,-1.20959l-4.23356,-0.60481l2.01598,-1.81437l0.80639,-2.01598l0.20159,-2.82237v-2.21757l3.02396,-3.02397" fill="none" stroke="#000000" stroke-width="1.5" stroke-linecap="round"/><path d="M175.96537,166.12833l-1.00798,2.01598" fill="none" stroke="#000000" stroke-width="1.5" stroke-linecap="round"/><path d="M292.79635,147.73624c0,-6.51299 5.27982,-11.79283 11.79283,-11.79283c6.513,0 11.79283,5.27982 11.79283,11.79283c0,6.51299 -5.27982,11.79283 -11.79283,11.79283c-6.513,0 -11.79283,-5.27982 -11.79283,-11.79283z" fill="url(#color-3)" stroke="#f6c002" stroke-width="0" stroke-linecap="butt"/><path d="M173.4625,159.00892c0,0 1.44175,3.47851 2.33272,4.97696c0.73374,1.23402 2.63355,3.3754 2.63355,3.3754l-3.61183,2.03166c0,0 -1.84719,-2.87269 -2.50138,-4.25799c-0.62355,-1.32044 -1.3362,-3.86862 -1.3362,-3.86862z" fill="#b4b3b4" stroke="#b6b4b2" stroke-width="0.5" stroke-linecap="round"/><path d="M168.2705,154.71986c0,0 -1.19528,-3.05336 -1.53915,-4.54349c-0.33299,-1.44296 -0.4925,-4.26036 -0.4925,-4.26036l3.93414,-0.61325c0,0 -0.1145,3.01652 0.13616,4.49312c0.24368,1.43554 1.34744,4.24675 1.34744,4.24675l-3.38609,0.67722z" fill="#b4b3b4" stroke="#b6b4b2" stroke-width="0.5" stroke-linecap="round"/><path d="M169.41312,126.72815c0,0 -0.49082,3.39082 -0.53054,5.01907c-0.03492,1.43142 0.30479,4.23625 0.30479,4.23625h-3.61184c0,0 -0.22438,-0.18209 -0.2071,-4.98234c0.01164,-3.2339 0.43283,-4.04724 0.43283,-4.04724z" fill="#b4b3b4" stroke="#b6b4b2" stroke-width="0.5" stroke-linecap="round"/><path d="M233.18573,74.02627c1.25961,-0.54474 3.5872,-2.84131 4.98483,-2.89596c1.80679,-0.8249 3.89592,-2.33383 5.39141,-3.24743c0.11517,-0.11517 0.21722,-0.24368 0.30976,-0.3785c0.0197,-0.216 0.24555,-0.216 0.24555,-0.216c1.18256,0 3.86305,-0.1204 4.57361,1.04243c0.01843,0.01943 0.03152,0.04007 0.04055,0.06097l0.08065,0.06472c0,0 0.1746,0.17459 0,0.34918c-0.08446,0.08445 -0.16892,0.08721 -0.23362,0.06752c-1.0161,1.7966 -2.54712,2.22735 -4.35077,3.12917c-1.32804,0.63409 -5.54913,1.36842 -6.24955,2.70521c-2.01966,0.75412 -3.94315,2.76932 -5.77779,2.93688c-0.38258,-0.01163 -0.6599,0.20965 -0.91985,0.47418c0.68744,0.82902 3.92196,1.22362 4.89214,1.22362c2.06227,0.04119 5.3636,0.36454 7.21725,1.25159c2.42668,0.80598 5.49197,0.21455 7.76987,1.35756c1.53761,-0.01902 6.73773,0.49845 6.76505,2.43193c-0.03638,1.82099 -4.87426,2.44701 -6.23432,2.43533c-0.71517,0.23839 -1.75623,0.25898 -2.54999,0.27296c-0.04596,0.09346 -0.15099,0.12848 -0.15099,0.12848c-1.87118,0.62062 -3.89082,1.47983 -5.63738,2.33466c-1.62142,0 -3.33144,1.64496 -4.7564,2.3164c-0.40631,0.19146 -0.47059,0.7806 -1.04593,0.65707c-0.11387,0.34163 -2.10521,1.96277 -1.0656,2.36463l0.11242,0.20745c1.70586,0.09759 3.5239,1.25381 5.13314,1.78754c2.51847,0.84334 4.54469,1.59961 7.23837,1.63765c0.47725,0.23863 1.13277,0.05561 1.40417,0.69371c0.53172,1.25013 -0.88485,1.2247 -0.94003,2.01216c-0.07965,1.13665 0.81985,2.17284 -0.89418,2.91411c-0.88754,1.77507 -2.42193,3.22851 -3.37815,5.14093c-1.0299,2.05981 -1.52167,4.187 -2.46557,6.16393c-0.26454,0.49583 -0.41558,1.58555 -0.13698,2.10776l0.01589,0.15084c0.65262,1.32826 1.10006,4.60128 1.10599,5.43863c0,1.26132 1.00538,4.09218 -0.07232,5.10572c-0.61749,0.58073 -1.19124,0.32784 -1.64372,1.23279c-2.19276,1.13433 -3.82259,-0.88651 -6.06457,-0.88651c-0.18561,0 -0.3712,0 -0.5568,0c0.43249,0.3175 0.99675,1.04391 1.43275,1.4376c0.20249,-0.07976 0.30373,0.12273 0.30373,0.12273c0.01051,0.03989 0.02349,0.07938 0.0388,0.11853c0.05651,0.02271 0.10733,0.03017 0.15128,0.01893l0.31157,0.20929c0,0 0.1746,0.17459 0,0.34918c-0.01105,0.01105 -0.02211,0.02072 -0.03313,0.0291c1.01438,1.00293 3.26654,1.84226 3.86845,3.04611c1.74458,0.75448 3.76407,2.96237 3.76407,5.02549c-1.38484,2.677 -5.11371,0.14129 -5.89394,-1.66282c-0.12649,-0.06325 -0.21487,-0.12849 -0.2837,-0.20327c0.41723,1.31717 1.80101,2.42479 1.80101,4.27493c0,0.81814 0.85164,2.23136 0.51102,2.86933c-1.13162,2.11949 -2.77793,-1.30386 -3.05289,-1.85377c-0.02549,-2.17178 -2.37961,-3.58602 -2.32859,-6.14041c0.36195,-0.75805 1.13741,-1.15322 0.95884,-2.07815c-0.24051,-1.24569 -2.21278,-1.64632 -2.62903,-2.72319c-1.50294,0 -4.20084,-4.14769 -3.42441,-5.48819c2.46114,-0.22477 4.91632,-0.31082 7.38955,-0.31082c0.60116,0 1.20233,0 1.80349,0c-0.01149,-0.11358 0.07656,-0.20164 0.07656,-0.20164l0.06465,0.03762c0,-1.41542 0,-2.83084 0,-4.24626c0,-2.40539 0.71889,-4.98256 0.68807,-7.29929c0.80147,-2.43908 0.50244,-5.00232 1.66659,-7.33061c0.33084,-0.62009 2.54118,-4.3484 1.32897,-4.30047c-0.00781,0.00061 -0.01233,0.00062 -0.01233,0.00062c-1.35494,0 -1.81297,-0.73294 -2.93322,-0.96545c-0.85719,-0.17792 -1.39641,0.54791 -2.21513,0.54791c-0.20932,0.04594 0.428,2.25902 0.32055,2.69292c-0.28613,1.15534 -1.15317,2.72386 -1.0958,3.83533c-0.61918,1.2968 0.01908,3.31813 -0.86185,4.47089c-0.80261,1.05025 -1.78092,1.25583 -2.35828,0.04932c-0.03251,-2.30242 0.72434,-5.18663 1.66317,-7.15294c1.20645,-2.41291 -0.63086,-4.17672 1.52728,-6.33486c0.06712,-0.13834 -4.53667,-1.89759 -5.54552,-2.24814c-0.83249,-0.81856 -2.48659,-2.33581 -1.72395,-3.76424c0.31205,-0.58447 1.89811,-0.76705 2.42821,-1.04987c2.07429,-1.03714 3.11728,-2.27046 5.17115,-3.26689c0.65541,-0.65541 2.20099,-1.43528 3.11044,-1.54124c1.46203,-0.65204 3.06568,-1.13535 4.59417,-1.9037c0.45997,-0.22905 0.78397,-0.5947 1.23279,-0.82186c0.00969,-0.00491 0.02031,-0.01031 0.03172,-0.01614c-0.52527,0.04363 -1.24848,-0.03356 -1.45537,-0.06967c-0.96253,-0.16795 -1.92625,-0.95976 -2.90589,-0.95976c-2.31731,-1.11477 -5.04798,-0.60066 -7.25973,-1.78069c-2.20819,0.01916 -4.26872,-1.75523 -6.43788,-1.78069c-3.36339,-1.6059 -0.62417,-3.67223 1.31607,-4.70742c0.86955,-0.43478 1.7567,-0.77257 2.6261,-1.1816c-0.10333,-0.21675 0.11342,-0.32513 0.11342,-0.32513z" fill="#000000" stroke="none" stroke-width="0.5" stroke-linecap="butt"/><path d="M167.16965,118.82727c0,0 0.93435,-5.55279 3.16035,-8.12662c2.22602,-2.57383 2.25613,-0.65601 4.0633,-0.22573c1.80717,0.43028 0.94853,0.58835 0.67723,1.35443c-0.27132,0.76609 -4.51479,9.48106 -4.51479,9.48106z" fill="#b4b3b4" stroke="#b6b4b2" stroke-width="0.5" stroke-linecap="round"/><path d="M253.18534,66.89261c0.02033,-0.03346 0.03932,-0.06649 0.05677,-0.09901c-0.00047,0.03029 -0.02072,0.06353 -0.05677,0.09901z" fill-opacity="0.43044" fill="#9966ff" stroke="none" stroke-width="0.5" stroke-linecap="butt"/></g><path d="M239.38141,196.15391c10.10217,-0.20905 9.31832,4.30077 9.31832,4.30077h-19.35341c0,0 -0.41875,-4.08443 10.0351,-4.30077z" fill="#000000" stroke="#000000" stroke-width="1.5" stroke-linecap="round"/></g><path d="M194.13671,125.48029l36.22058,15.29313l-37.02547,10.46372" fill="none" stroke="#000000" stroke-width="2" stroke-linecap="round"/><path d="M287.50531,151.23717l-37.02547,-10.46373l36.22057,-15.29313" data-paper-data="{&quot;index&quot;:null}" fill="none" stroke="#000000" stroke-width="2" stroke-linecap="round"/></g></g></g></svg>