<svg version="1.1" xmlns="http://www.w3.org/2000/svg" xmlns:xlink="http://www.w3.org/1999/xlink" width="170.63017" height="372.7089" viewBox="0,0,170.63017,372.7089"><defs><linearGradient x1="239.98966" y1="184.80307" x2="239.98966" y2="316.80301" gradientUnits="userSpaceOnUse" id="color-1"><stop offset="0" stop-color="#000000"/><stop offset="1" stop-color="#3f2222"/></linearGradient><linearGradient x1="249.05754" y1="276.64358" x2="249.05754" y2="304.29044" gradientUnits="userSpaceOnUse" id="color-2"><stop offset="0" stop-color="#1a0c12"/><stop offset="1" stop-color="#4d2637"/></linearGradient><linearGradient x1="245.70968" y1="269.56989" x2="245.70968" y2="282.7453" gradientUnits="userSpaceOnUse" id="color-3"><stop offset="0" stop-color="#1a0c12"/><stop offset="1" stop-color="#4d2637"/></linearGradient><linearGradient x1="233.83019" y1="267.84193" x2="233.83019" y2="281.01743" gradientUnits="userSpaceOnUse" id="color-4"><stop offset="0" stop-color="#1a0c12"/><stop offset="1" stop-color="#4d2637"/></linearGradient><linearGradient x1="230.15834" y1="266.33002" x2="230.15834" y2="279.50543" gradientUnits="userSpaceOnUse" id="color-5"><stop offset="0" stop-color="#1a0c12"/><stop offset="1" stop-color="#4d2637"/></linearGradient><linearGradient x1="233.07421" y1="262.65819" x2="233.07421" y2="274.96961" gradientUnits="userSpaceOnUse" id="color-6"><stop offset="0" stop-color="#1a0c12"/><stop offset="1" stop-color="#4d2637"/></linearGradient><linearGradient x1="252.94539" y1="247.10687" x2="252.94539" y2="277.99352" gradientUnits="userSpaceOnUse" id="color-7"><stop offset="0" stop-color="#1a0c12"/><stop offset="1" stop-color="#4d2637"/></linearGradient><linearGradient x1="242.14331" y1="183.4715" x2="242.14331" y2="250.70614" gradientUnits="userSpaceOnUse" id="color-8"><stop offset="0" stop-color="#000000"/><stop offset="1" stop-color="#3a213e"/></linearGradient><linearGradient x1="240.00005" y1="175.50006" x2="240.00005" y2="307.50005" gradientUnits="userSpaceOnUse" id="color-9"><stop offset="0" stop-color="#000000"/><stop offset="1" stop-color="#935399"/></linearGradient><radialGradient cx="252.37931" cy="166.59301" r="64.40652" gradientUnits="userSpaceOnUse" id="color-10"><stop offset="0" stop-color="#000000"/><stop offset="1" stop-color="#270000"/></radialGradient><linearGradient x1="238.76029" y1="262.27727" x2="238.76029" y2="419.55096" gradientUnits="userSpaceOnUse" id="color-11"><stop offset="0" stop-color="#4d4948"/><stop offset="1" stop-color="#1a1716"/></linearGradient><radialGradient cx="242.45679" cy="236.64493" r="1.98299" gradientUnits="userSpaceOnUse" id="color-12"><stop offset="0" stop-color="#000000"/><stop offset="1" stop-color="#7c0000"/></radialGradient><radialGradient cx="242.45679" cy="236.64493" r="1.98299" gradientUnits="userSpaceOnUse" id="color-13"><stop offset="0" stop-color="#000000" stop-opacity="0"/><stop offset="1" stop-color="#000000" stop-opacity="0"/></radialGradient><radialGradient cx="250.21629" cy="231.64431" r="1.12082" gradientUnits="userSpaceOnUse" id="color-14"><stop offset="0" stop-color="#000000"/><stop offset="1" stop-color="#7c0000"/></radialGradient><radialGradient cx="226.50668" cy="223.97104" r="1.72434" gradientUnits="userSpaceOnUse" id="color-15"><stop offset="0" stop-color="#000000"/><stop offset="1" stop-color="#7c0000"/></radialGradient><radialGradient cx="223.66151" cy="243.54223" r="1.29325" gradientUnits="userSpaceOnUse" id="color-16"><stop offset="0" stop-color="#000000"/><stop offset="1" stop-color="#7c0000"/></radialGradient><radialGradient cx="250.64738" cy="224.31587" r="8.44925" gradientUnits="userSpaceOnUse" id="color-17"><stop offset="0" stop-color="#000000"/><stop offset="1" stop-color="#7c0000"/></radialGradient><radialGradient cx="215.81578" cy="235.86896" r="9.7425" gradientUnits="userSpaceOnUse" id="color-18"><stop offset="0" stop-color="#000000"/><stop offset="1" stop-color="#7c0000"/></radialGradient><linearGradient x1="280.77007" y1="156.21795" x2="279.91317" y2="179.50843" gradientUnits="userSpaceOnUse" id="color-19"><stop offset="0" stop-color="#553f34"/><stop offset="1" stop-color="#4a2722"/></linearGradient><linearGradient x1="261.31782" y1="148.99684" x2="259.96341" y2="185.80912" gradientUnits="userSpaceOnUse" id="color-20"><stop offset="0" stop-color="#7f6d5d"/><stop offset="1" stop-color="#3e342d"/></linearGradient><linearGradient x1="224.38993" y1="149.50012" x2="223.72272" y2="167.6347" gradientUnits="userSpaceOnUse" id="color-21"><stop offset="0" stop-color="#000000"/><stop offset="1" stop-color="#5f302c"/></linearGradient><linearGradient x1="285.43261" y1="148.15577" x2="284.60278" y2="170.71025" gradientUnits="userSpaceOnUse" id="color-22"><stop offset="0" stop-color="#000000"/><stop offset="1" stop-color="#5f302c"/></linearGradient><linearGradient x1="263.10344" y1="167.88617" x2="262.24845" y2="191.1243" gradientUnits="userSpaceOnUse" id="color-23"><stop offset="0" stop-color="#553f34"/><stop offset="1" stop-color="#4a2722"/></linearGradient><linearGradient x1="256.45224" y1="160.98863" x2="255.46312" y2="187.87222" gradientUnits="userSpaceOnUse" id="color-24"><stop offset="0" stop-color="#7f6d5d"/><stop offset="1" stop-color="#3e342d"/></linearGradient><linearGradient x1="252.66527" y1="168.50038" x2="251.95015" y2="187.93702" gradientUnits="userSpaceOnUse" id="color-25"><stop offset="0" stop-color="#5d2f2b"/><stop offset="1" stop-color="#000000"/></linearGradient><linearGradient x1="268.09617" y1="106.28252" x2="263.94039" y2="219.23532" gradientUnits="userSpaceOnUse" id="color-26"><stop offset="0" stop-color="#221c21"/><stop offset="1" stop-color="#4d404c"/></linearGradient><radialGradient cx="331.16434" cy="139.4166" r="15.88689" gradientUnits="userSpaceOnUse" id="color-27"><stop offset="0" stop-color="#3c2d3b"/><stop offset="1" stop-color="#191319"/></radialGradient><radialGradient cx="328.59396" cy="207.51079" r="13.83682" gradientUnits="userSpaceOnUse" id="color-28"><stop offset="0" stop-color="#000000" stop-opacity="0"/><stop offset="1" stop-color="#000000" stop-opacity="0.19657"/></radialGradient><radialGradient cx="330.14859" cy="174.39643" r="23.91791" gradientUnits="userSpaceOnUse" id="color-29"><stop offset="0" stop-color="#605460"/><stop offset="1" stop-color="#332a32"/></radialGradient><linearGradient x1="331.028" y1="150.49475" x2="329.26919" y2="198.29822" gradientUnits="userSpaceOnUse" id="color-30"><stop offset="0" stop-color="#806a7f"/><stop offset="1" stop-color="#5d4d5c"/></linearGradient><linearGradient x1="250.20414" y1="204.90523" x2="249.74676" y2="217.33727" gradientUnits="userSpaceOnUse" id="color-31"><stop offset="0" stop-color="#000000"/><stop offset="1" stop-color="#630000"/></linearGradient><radialGradient cx="200.80522" cy="214.56343" r="1.57732" gradientUnits="userSpaceOnUse" id="color-32"><stop offset="0" stop-color="#000000"/><stop offset="1" stop-color="#630000"/></radialGradient><linearGradient x1="331.028" y1="150.49475" x2="329.26919" y2="198.29822" gradientUnits="userSpaceOnUse" id="color-33"><stop offset="0" stop-color="#322931"/><stop offset="1" stop-color="#453944"/></linearGradient></defs><g transform="translate(-180.1931,-46.84207)"><g data-paper-data="{&quot;isPaintingLayer&quot;:true}" fill-rule="nonzero" stroke-linejoin="miter" stroke-miterlimit="10" stroke-dasharray="" stroke-dashoffset="0" style="mix-blend-mode: normal"><path d="M180.1931,314.06708v-267.22501h123.18203v267.22501z" fill-opacity="0.01" fill="#000000" stroke="none" stroke-width="0" stroke-linecap="butt"/><path d="M221.65255,184.96096l38.26309,-0.15789l11.57983,111.19652c-1.79994,-0.81338 -3.51553,-1.59229 -4.85732,-2.45196c-1.18727,-0.76067 -1.43337,-8.87639 -1.83874,-10.18216c-1.8957,-6.10631 -7.55414,-3.04021 -11.03343,-5.32934c-1.6778,-1.10388 -2.57948,-3.08938 -4.59716,-3.61621c-1.68197,-0.43918 -3.5478,-1.90359 -5.09504,-1.11803c-2.7486,1.39551 -5.58247,3.18991 -8.29501,5.0623c-2.27706,1.57179 -0.23206,6.53578 -3.70594,8.08028c-5.65423,2.51389 -5.53911,-2.86544 -8.47262,-4.52071c-5.15365,-2.90801 -9.87069,-1.30998 -13.46001,2.01324z" fill="url(#color-1)" stroke="#000000" stroke-width="0" stroke-linecap="butt"/><path d="M246.03368,304.29044v-27.64684h6.04775v27.64684z" fill="url(#color-2)" stroke="none" stroke-width="0" stroke-linecap="butt"/><path d="M245.70968,269.56989c8.70806,0 15.76734,2.94942 15.76734,6.58772c0,3.6383 -7.05928,6.58772 -15.76734,6.58772c-8.70806,0 -15.76734,-2.94942 -15.76734,-6.58772c0,-3.6383 7.05928,-6.58772 15.76734,-6.58772z" fill="url(#color-3)" stroke="none" stroke-width="0" stroke-linecap="butt"/><path d="M233.83019,267.84191c7.03802,0 12.74347,-1.15441 12.74347,2.4839c0,3.6383 -5.92144,13.28344 -12.95946,13.28344c-11.57383,0 -12.52747,-5.54131 -12.52747,-9.17962c0,-3.6383 5.70544,-6.58772 12.74347,-6.58772z" fill="url(#color-4)" stroke="none" stroke-width="0" stroke-linecap="butt"/><path d="M230.15834,266.33002c8.70806,0 15.76734,2.94943 15.76734,6.58772c0,3.63829 -7.05928,6.58772 -15.76734,6.58772c-8.70806,0 -15.76734,-2.94943 -15.76734,-6.58772c0,-3.63829 7.05928,-6.58772 15.76734,-6.58772z" fill="url(#color-5)" stroke="none" stroke-width="0" stroke-linecap="butt"/><path d="M233.07421,262.65819c6.61133,0 11.97088,2.75602 11.97088,6.15574c0,3.39973 -5.35955,6.15574 -11.97088,6.15574c-6.61134,0 -11.97089,-2.75602 -11.97089,-6.15574c0,-3.39972 5.35956,-6.15574 11.97089,-6.15574z" fill="url(#color-6)" stroke="none" stroke-width="0" stroke-linecap="butt"/><path d="M252.94539,247.10687c7.21696,0 13.06745,6.91423 13.06745,15.44335c0,8.52913 -5.85049,15.44335 -13.06745,15.44335c-7.21696,0 -13.06745,-6.91423 -13.06745,-15.44335c0,-8.52913 5.85049,-15.44335 13.06745,-15.44335z" fill="url(#color-7)" stroke="none" stroke-width="0" stroke-linecap="butt"/><path d="M296.59783,196.52946c0,0 -0.33942,7.5719 -3.88961,8.89054c-3.55019,1.31864 -5.83441,-5.27875 -5.83441,-5.27875l-3.33395,4.16744v5.00092l-1.9448,1.66698c0,0 2.34568,9.2973 -0.58088,8.46114c-2.92656,-0.83616 -3.30873,-9.57246 -3.30873,-9.57246c0,0 2.17241,9.97794 -2.07107,12.22449c-4.24348,2.24654 -7.37512,-7.22356 -7.37512,-7.22356l0.55566,23.61548l-31.11688,12.22449l-22.22633,-10.27968l-2.22264,-2.77829l0.83349,-23.33766c0,0 -3.53924,8.70391 -6.94573,6.94573c-3.40649,-1.75818 -1.66698,-11.391 -1.66698,-11.391c0,0 0.02799,8.80427 -3.61178,8.61271c-3.63977,-0.19156 -1.66698,-8.89053 -1.66698,-8.89053l-1.66697,-1.38914v-5.00093l-3.05612,-3.05612c0,0 -2.88219,5.52811 -5.83441,5.00092c-2.95222,-0.52719 -1.94481,-6.39007 -1.94481,-6.39007l12.22448,-15.28061z" fill="url(#color-8)" stroke="#000000" stroke-width="0" stroke-linecap="round"/><path d="M221.89291,175.65799l37.78325,-0.15789l11.43462,111.19652c-1.77737,-0.81337 -3.47144,-1.5923 -4.7964,-2.45196c-1.17238,-0.76067 -1.4154,-8.87639 -1.81569,-10.18216c-1.87193,-6.10631 -7.4594,-3.0402 -10.89506,-5.32934c-1.65676,-1.10388 -2.54713,-3.08938 -4.53951,-3.61621c-1.66088,-0.43918 -3.50331,-1.90359 -5.03115,-1.11803c-2.71413,1.3955 -5.51246,3.18992 -8.19098,5.06231c-2.2485,1.57179 -0.22915,6.53577 -3.65947,8.08028c-5.58333,2.51389 -5.46965,-2.86544 -8.36637,-4.52071c-5.08902,-2.90801 -9.7469,-1.30998 -13.29121,2.01325z" fill="url(#color-9)" stroke="#000000" stroke-width="0" stroke-linecap="butt"/><path d="M186.51054,205.15188l3.0116,-81.85374l128.72593,4.73612l-3.01159,81.85374z" fill="url(#color-10)" stroke="none" stroke-width="0" stroke-linecap="butt"/><path d="M233.76029,419.55096c0,0 -0.28483,-36.20281 -0.02387,-72.15242c0.08799,-12.12082 0.86954,-24.63388 0.89684,-35.15544c0.00754,-2.90811 -0.93352,-7.82757 -0.92296,-10.45149c0.03131,-7.78053 0.76251,-14.62955 0.76251,-18.76319c0,-9.9535 -0.71252,-20.75109 -0.71252,-20.75109h10c0,0 -0.47502,11.60541 -0.47502,21.93863c0,2.46206 0.71684,6.39707 0.72465,10.21264c0.01165,5.69044 -0.93656,15.05748 -0.94177,22.80137c-0.00549,8.16664 0.73047,18.02775 0.77166,27.07476c0.16828,36.96355 -0.07953,75.24624 -0.07953,75.24624z" fill="url(#color-11)" stroke="#000000" stroke-width="0" stroke-linecap="butt"/><path d="M210.73705,274.43584l2.3217,-18.57364c0,0 -0.01784,8.18509 8.21526,8.03667c7.51718,-0.13551 11.07275,-9.10823 11.07275,-9.10823c0,0 -0.15395,6.04961 8.57245,5.71497c8.00637,-0.30703 6.25074,-7.3223 6.25074,-7.3223c0,0 1.50582,10.01365 11.07275,10.17978c8.85171,0.15371 9.46541,-9.28682 9.46541,-9.28682l3.21467,32.50387l-5.0006,-2.5003c0,0 -0.11912,-6.91945 -3.57185,-11.07275c-3.45274,-4.15329 -5.45718,-2.45393 -8.75104,-3.75045c-3.29386,-1.29652 -4.69432,-5.11246 -8.57245,-5.0006c-3.87813,0.11187 -5.82939,2.41788 -8.92963,5.71497c-3.10025,3.29709 -0.82867,3.96142 -2.3217,6.25074c-1.49304,2.28933 -2.26912,1.58717 -4.10763,1.78593c-1.83851,0.19876 -2.5003,-1.07156 -2.5003,-1.07156c0,0 -4.59741,-5.11007 -8.57245,-5.71497c-3.97504,-0.6049 -7.85808,3.21467 -7.85808,3.21467z" fill="#000000" stroke="#000000" stroke-width="0.5" stroke-linecap="round"/><path d="M240.4738,236.64493c0,-1.09517 0.88781,-1.98299 1.98299,-1.98299c1.09517,0 1.98299,0.88781 1.98299,1.98299c0,1.09517 -0.88781,1.98299 -1.98299,1.98299c-1.09517,0 -1.98299,-0.88781 -1.98299,-1.98299z" fill="url(#color-12)" stroke="url(#color-13)" stroke-width="0" stroke-linecap="butt"/><path d="M249.09548,231.64431c0,-0.61901 0.50181,-1.12082 1.12082,-1.12082c0.61901,0 1.12082,0.50181 1.12082,1.12082c0,0.61901 -0.50181,1.12082 -1.12082,1.12082c-0.61901,0 -1.12082,-0.50181 -1.12082,-1.12082z" fill="url(#color-14)" stroke="none" stroke-width="0" stroke-linecap="butt"/><path d="M224.78234,223.97104c0,-0.95232 0.77201,-1.72434 1.72434,-1.72434c0.95232,0 1.72434,0.77201 1.72434,1.72434c0,0.95232 -0.77201,1.72434 -1.72434,1.72434c-0.95232,0 -1.72434,-0.77201 -1.72434,-1.72434z" fill="url(#color-15)" stroke="none" stroke-width="0" stroke-linecap="butt"/><path d="M222.36826,243.54223c0,-0.71424 0.57901,-1.29325 1.29325,-1.29325c0.71424,0 1.29325,0.57901 1.29325,1.29325c0,0.71424 -0.57901,1.29325 -1.29325,1.29325c-0.71424,0 -1.29325,-0.57901 -1.29325,-1.29325z" fill="url(#color-16)" stroke="none" stroke-width="0" stroke-linecap="butt"/><path d="M250.64738,219.83262c1.25028,-0.37955 3.7596,-1.92718 6.38004,-2.24164c2.62044,-0.31445 2.35313,0.03636 2.24164,1.20704c-0.11149,1.17067 -2.07597,1.08669 -2.5865,2.41407c-0.51053,1.32738 1.13063,1.14875 0.86217,2.0692c-0.26847,0.92046 -1.33343,1.17348 -2.0692,2.0692c-0.73577,0.89572 -0.69331,2.24838 -1.89677,2.75894c-1.20346,0.51056 -2.34183,-0.75964 -3.79354,-0.34487c-1.45171,0.41478 -2.53901,2.66691 -4.65571,2.75894c-2.1167,0.09203 1.48611,-1.39195 0.68973,-2.5865c-0.79637,-1.19456 -1.89384,0.2757 -2.75894,-0.5173c-0.86509,-0.793 0.84577,-0.63831 0.68973,-1.37947c-0.15603,-0.74116 -1.76708,-1.05695 -1.37947,-1.89677c0.38761,-0.83982 2.07594,-1.59246 3.44867,-2.5865c1.37273,-0.99405 0.86572,-0.78954 1.5519,-1.0346c0.68618,-0.24506 2.02596,-0.31018 3.27624,-0.68973z" fill="url(#color-17)" stroke="#000000" stroke-width="0" stroke-linecap="round"/><path d="M216.16067,228.4543c0,0 3.11089,-1.65756 3.96597,-1.67935c0.85508,-0.02179 0.71982,-0.63789 1.0346,1.5519c0.31478,2.18979 -0.46368,4.01506 0,5.64532c0.46367,1.63026 2.29474,2.28163 2.5865,3.44867c0.29176,1.16705 0.35902,1.54514 -1.0346,2.75894c-1.39362,1.2138 -3.53754,1.09373 -4.31084,1.89677c-0.7733,0.80304 0.57555,1.74696 -0.17243,2.75894c-0.74799,1.01198 -1.75742,1.89558 -2.75894,1.20704c-1.00152,-0.68855 0.21802,-2.42249 0,-3.10381c-0.21802,-0.68132 -1.37947,-1.20704 -1.37947,-1.20704l2.0692,-13.27739z" fill="url(#color-18)" stroke="#000000" stroke-width="0" stroke-linecap="round"/><path d="M218.37485,248.74504c0,-0.71807 0.58211,-1.30017 1.30017,-1.30017c0.71807,0 1.30017,0.58211 1.30017,1.30017c0,0.71807 -0.58211,1.30017 -1.30017,1.30017c-0.71807,0 -1.30017,-0.58211 -1.30017,-1.30017z" fill="#000000" stroke="none" stroke-width="0" stroke-linecap="butt"/><path d="M262.58074,255.94597c0,-0.71807 0.58211,-1.30017 1.30017,-1.30017c0.71807,0 1.30017,0.58211 1.30017,1.30017c0,0.71807 -0.58211,1.30017 -1.30017,1.30017c-0.71807,0 -1.30017,-0.58211 -1.30017,-1.30017z" fill="#000000" stroke="none" stroke-width="0" stroke-linecap="butt"/><g stroke-width="0"><path d="M229.1948,160.07523l98.16151,-2.14326l4.774,20.67437c-1.54512,-0.15955 -3.34555,-0.04472 -5.47715,0.38098c-0.93198,0.18613 -1.29376,1.21293 -1.72594,2.17729l-2.13133,-14.89327l-43.1912,-2.58996l-14.09235,8.98952l-4.74922,-6.93044l-23.26574,-0.10536l-4.94063,5.07265l-2.98929,-0.36021l-1.32457,-4.80273z" fill="url(#color-19)" stroke="#57372f" stroke-linecap="butt"/><path d="M310.95076,168.58791l-4.83031,2.07419l-0.42456,4.73837l-5.30248,1.30617l2.36837,-3.16561l-3.1564,-2.61824l0.11951,-3.24835l-6.42314,-2.23801l2.32406,4.83952l-4.78434,0.82482l-3.06447,-5.11696l-2.21209,-1.08224l-5.95853,5.53563l-4.33224,-4.66319l-14.16919,-2.523l-5.05096,8.07112l-3.28512,0.87998l0.30338,-8.2458l-8.85586,2.67669l0.87998,3.28511l3.18399,1.86863l-4.66319,4.33224l-2.7486,-0.10112l-0.64849,-2.77618l-1.95301,-1.32292l0.53486,-7.73686l-4.92389,-2.18283l-7.68925,4.97154l-3.47817,6.12729l-2.00819,0.17633l-5.06512,-11.94628l3.04773,12.37245l-7.4594,-1.27529l-2.34409,-11.0955l-3.06282,1.63879l-0.07355,1.99897l1.1942,1.5452l-4.96821,5.82226l0.73712,-13.23404l-6.92125,4.49936l0.29748,5.51558l1.91625,2.32242l-2.10012,2.67505l-4.65564,-2.6734l7.41601,-24.74824l121.68962,11.23295l8.76614,30.42894c-0.24276,-0.07329 -0.47395,-0.16316 -0.68775,-0.27852c-1.34352,-0.72485 -2.43581,-2.29135 -3.77799,-3.02533c-1.50515,-0.82309 -3.28437,-1.31737 -5.13828,-1.4764z" fill="url(#color-20)" stroke="#57372f" stroke-linecap="butt"/><path d="M193.42113,166.10441c-4.33874,-1.40038 -2.56669,-8.98311 -2.47716,-11.41657c0.08954,-2.43348 3.00533,-30.76499 3.00533,-30.76499l65.88478,0.49174c0,0 -1.77493,32.99077 -2.71398,35.60523c-0.93905,2.61445 -1.34242,3.83244 -4.1583,5.64142c-2.81588,1.80897 -6.77263,2.0908 -8.25058,2.33026c-1.47795,0.23946 -0.84983,0.85292 -3.6727,-0.3985c-2.82286,-1.25143 -5.43569,-3.81404 -6.69353,-4.197c-1.25784,-0.38298 1.50997,0.88932 -2.16227,1.50075c-3.67222,0.61143 -6.31697,1.00103 -9.49796,0.4407c-3.181,-0.56034 -5.55559,-3.02948 -7.51163,-3.43696c-1.95602,-0.40746 -1.29906,1.82701 -4.77318,0.87791c-3.4741,-0.94908 -2.55527,-5.19126 -7.4826,-4.22604c-4.92732,0.96524 -5.15748,8.95243 -9.49624,7.55207z" fill="url(#color-21)" stroke="#61352d" stroke-linecap="round"/><path d="M317.71456,124.75973c0,0 -2.53121,41.22995 -5.64933,45.18309c-3.11813,3.95313 -11.64153,-0.52289 -12.87859,-0.73722c-1.23709,-0.21433 -1.91329,-1.62499 -2.56252,-1.93796c-0.64923,-0.31298 0.80868,0.02974 -1.57816,-0.05806c-2.38682,-0.08782 -2.1987,0.7757 -6.0496,-0.22257c-3.8509,-0.99827 -5.70369,-3.85092 -9.34314,-3.76772c-3.63945,0.0832 -5.7964,3.55021 -8.31834,4.17144c-2.52193,0.62125 -3.15766,0.68748 -6.56597,-0.50495c-3.40831,-1.19244 -6.0655,-0.96495 -7.73593,-4.49874c-1.67045,-3.53379 -0.35327,-38.22725 -0.35327,-38.22725z" fill="url(#color-22)" stroke="#61352d" stroke-linecap="round"/></g><g stroke-width="0"><path d="M315.14087,193.07033l-86.10492,-5.92033l-34.8827,-10.79142l12.14853,-10.5623l1.92543,2.07253l-6.56858,8.51571l39.36034,4.70091l9.97487,-5.88828l4.4977,0.16548l0.74209,7.03322l57.1473,4.10427l14.28873,-15.7429c1.21533,0.92749 2.52861,1.70033 3.88315,2.26892z" fill="url(#color-23)" stroke="#57372f" stroke-linecap="butt"/><path d="M194.56138,167.91899l2.96763,-4.49453l-1.45204,-4.05666l3.62011,-0.4673l1.25951,3.84941l-1.86387,7.13725l-3.13077,3.48774l11.83168,4.83889l0.33963,-3.79058l6.66129,-6.96075l6.60377,0.04281l-0.08825,2.3987l-5.51475,2.99968l3.02175,4.91506l2.95424,1.30965l3.63348,-6.2715l3.01309,-0.28947l0.26004,3.81264l-0.11032,2.99836l12.08777,-7.56175l4.92507,7.5872l14.08198,3.52054l1.0202,-5.96732l3.73043,-3.46567l6.81233,5.25469l6.79499,-5.15437l2.13262,1.87993l-1.42866,0.74808l1.45938,3.85678l4.56808,0.96872l4.43305,-6.24207l6.6198,5.04745l5.28543,-2.20748l-1.89596,-2.87201l2.94557,-3.89487l2.56918,0.89518l0.67454,3.42756l0.53217,-3.58333l3.61276,-0.2674l0.30418,2.6133l-1.75357,4.13889l10.80999,-8.30587c-0.07713,2.28183 0.35572,4.38279 2.0534,5.94437c0.31025,0.28537 0.61846,0.55423 0.9246,0.80704l-13.36229,13.27771l-112.0641,-7.62607l-6.52592,-6.24516z" fill="url(#color-24)" stroke="#57372f" stroke-linecap="butt"/><path d="M314.45329,175.53615c0.22801,1.68365 -3.10918,37.28833 -3.10918,37.28833l-122.70907,-5.76586c0,0 -0.15156,-32.15199 1.87125,-37.64665c2.02281,-5.49465 2.77671,-2.31592 5.35598,-1.05405c2.57928,1.26187 4.16853,6.45115 8.47009,7.81826c4.30156,1.36713 8.45284,-1.75987 13.78954,-0.74376c5.33669,1.01612 2.07206,3.14072 4.53592,4.23298c2.46386,1.09227 2.81559,-0.35084 4.6968,-0.13997c1.88121,0.2109 4.67496,1.6254 7.76288,1.53673c3.08791,-0.08865 6.8343,-2.17568 11.33667,-2.08511c4.50238,0.09056 4.36584,1.92663 7.41604,2.4623c3.0502,0.53566 6.48255,1.16457 10.60854,0.7031c4.12599,-0.46148 6.18071,-3.00824 10.4341,-3.05665c4.25338,-0.04841 9.43526,3.6644 15.53724,2.7611c6.10199,-0.90331 11.8443,-5.87765 20.00006,-8.0219c8.15579,-2.14425 3.77514,0.02752 4.00314,1.71118z" fill="url(#color-25)" stroke="#61352d" stroke-linecap="round"/></g><g><path d="M205.63871,105.66958c0,0 1.00306,13.89721 -1.73677,17.47462c-0.96125,1.2551 -7.02628,0.10965 -9.24646,0.8211c-4.57182,1.46502 -6.10075,4.01107 -6.10075,4.01107c0,0 -0.69459,-7.97204 -0.27226,-9.60118c0.42233,-1.62914 2.06744,-1.09972 3.43113,-2.5843c1.36369,-1.4846 1.55278,-3.0514 2.86777,-4.27306c1.31499,-1.22167 2.65862,-0.90269 4.04049,-2.14488c1.38185,-1.2422 1.13401,-3.06721 2.6442,-3.86429c1.51021,-0.79708 4.37265,0.16088 4.37265,0.16088z" fill="#44221f" stroke="#a87469" stroke-width="0" stroke-linecap="round"/><path d="M184.01349,216.29462c0,0 2.49178,-67.72556 3.2895,-89.40681c0.02902,-0.78881 -2.84262,-2.07716 -2.84262,-2.07716c0,0 5.21774,-2.31413 5.86059,-3.71424c0.76085,-1.65702 -0.06358,-3.81799 -0.06358,-3.81799c0,0 3.97251,0.9474 5.37574,1.28124c1.20985,0.28783 0.4283,-6.46971 0.4283,-6.46971c0,0 5.81049,2.36807 6.91846,1.77588c2.17495,-1.16248 2.69948,-9.87978 2.69948,-9.87978c0,0 1.60807,3.18672 2.61323,3.22369c29.92173,1.10089 142.53068,5.24404 142.53068,5.24404l-4.04091,109.82948zM191.9754,203.85555l117.75724,3.544l1.69537,-78.26475l-116.54294,-4.29055z" fill="url(#color-26)" stroke="#725771" stroke-width="0" stroke-linecap="butt"/><path d="M315.09551,144.06964c0.0699,-1.89994 0.28522,-7.75197 0.40165,-10.91685c0.04607,-1.25195 1.24044,-2.04058 2.49137,-1.99456c3.62069,0.13321 21.45767,0.78947 27.40434,1.00829c1.21468,0.04469 1.87408,1.67897 1.82568,2.99429c-0.06795,1.84711 -0.25609,6.96041 -0.37075,10.07708c-0.05488,1.49165 -1.12569,2.48795 -2.80916,2.426c-6.66626,-0.24527 -23.53552,-0.86592 -26.88237,-0.98908c-1.13078,-0.04161 -2.10379,-1.43642 -2.06079,-2.60519z" fill="url(#color-27)" stroke="#725771" stroke-width="0" stroke-linecap="butt"/><path d="M314.63018,210.70745c0.09325,-2.53466 0.23145,-6.2905 0.28209,-7.66724c0.03711,-1.00871 1.14241,-2.18196 2.27103,-2.14043c3.16205,0.11635 18.31416,0.67382 23.62308,0.86916c1.15367,0.04244 1.78483,1.63563 1.74064,2.83643c-0.0512,1.39128 -0.17542,4.76765 -0.26195,7.11959c-0.05252,1.42736 -0.96431,2.4453 -1.93367,2.40963c-2.76531,-0.10175 -16.30978,-0.60007 -22.59597,-0.83136c-1.9616,-0.07218 -3.17805,-1.16158 -3.12527,-2.59577z" fill="url(#color-28)" stroke="#332733" stroke-width="0" stroke-linecap="butt"/><path d="M315.31073,195.97406c0.28659,-7.78941 1.40976,-38.31645 1.59659,-43.39456c0.05145,-1.39844 1.21947,-2.55942 2.40349,-2.51586c3.14915,0.11586 17.60814,0.64784 23.36629,0.8597c1.47239,0.05418 2.33648,1.15792 2.28964,2.43141c-0.17619,4.78873 -1.27095,34.54387 -1.58714,43.13778c-0.05412,1.47074 -0.83221,2.29423 -1.69099,2.26262c-2.84668,-0.10474 -18.68531,-0.68749 -24.39341,-0.8975c-1.28037,-0.04711 -2.02692,-0.73031 -1.9845,-1.8836z" fill="url(#color-29)" stroke="url(#color-30)" stroke-width="2" stroke-linecap="butt"/><path d="M341.75552,217.90231c0.0287,-0.77998 0.68425,-1.38899 1.46421,-1.36028c0.77997,0.0287 1.38898,0.68424 1.36028,1.46421c-0.0287,0.77998 -0.68425,1.38899 -1.46422,1.36028c-0.77997,-0.0287 -1.38897,-0.68424 -1.36027,-1.46421z" fill="#2e232e" stroke="none" stroke-width="0" stroke-linecap="butt"/><path d="M187.99822,211.21672c0.03913,-1.06358 0.93306,-1.89407 1.99664,-1.85495c1.06358,0.03913 1.89408,0.93305 1.85494,1.99666c-0.03913,1.06358 -0.93305,1.89408 -1.99666,1.85494c-1.06358,-0.03913 -1.89408,-0.93305 -1.85494,-1.99665z" fill="#2e232e" stroke="none" stroke-width="0" stroke-linecap="butt"/><path d="M345.52726,115.49862c0.03479,-0.94545 0.82942,-1.68369 1.7749,-1.64892c0.94545,0.03479 1.68369,0.82941 1.64892,1.77489c-0.03479,0.94545 -0.82942,1.68372 -1.77489,1.64894c-0.94545,-0.03479 -1.6837,-0.82944 -1.64893,-1.77491z" fill="#2e232e" stroke="none" stroke-width="0" stroke-linecap="butt"/><path d="M329.01438,196.92479l1.69108,-45.96228" fill="none" stroke-opacity="0.16069" stroke="#40303f" stroke-width="2" stroke-linecap="round"/><path d="M342.55383,185.33827l-26.19079,-0.96361" fill="none" stroke-opacity="0.16069" stroke="#40303f" stroke-width="2" stroke-linecap="round"/><path d="M317.02603,173.34286l26.70433,0.98253" fill="none" stroke-opacity="0.16069" stroke="#40303f" stroke-width="2" stroke-linecap="round"/><path d="M343.8893,163.01796l-26.96111,-0.99196" fill="none" stroke-opacity="0.16069" stroke="#40303f" stroke-width="2" stroke-linecap="round"/><path d="M317.4721,111.76173c0,0 -7.88358,4.38353 -11.72675,4.98032c-2.94508,0.45733 -9.36361,-1.70528 -9.36361,-1.70528l7.30552,-4.25881" fill="#44221f" stroke="#725771" stroke-width="0" stroke-linecap="round"/><path d="M309.37883,207.0824l-0.42173,7.87894l-2.59188,1.67579l-3.76231,-0.89749l-3.94993,-2.67557l-13.10983,5.59021l-7.60069,-6.6052l-4.77303,-0.93467l-1.49749,-0.56113l-3.03218,-0.11156l-2.28341,0.16901l-10.60328,-0.64315l-2.46173,-1.86173l-6.84098,0.25435l-2.04933,0.68367l-5.06806,-0.18645l-0.77337,3.77773l-2.58064,1.17379l-2.83913,-0.42165l-3.01603,-4.23435l-3.40062,6.21854l-2.82748,-0.73841l-1.43227,-4.17607l-3.69615,-2.99064l-7.27369,-0.5848l-2.26389,1.18545l-5.70157,-0.20978l-2.92073,1.79564l-2.1823,-1.03185l-4.75132,-0.17481l-2.80417,-1.37191l0.13985,-3.80104z" fill="url(#color-31)" stroke="#9e4138" stroke-width="0" stroke-linecap="round"/><path d="M199.22896,214.50544c0.03203,-0.87055 0.7637,-1.55029 1.63426,-1.51826c0.87055,0.03203 1.55029,0.7637 1.51826,1.63426c-0.03203,0.87055 -0.7637,1.55029 -1.63426,1.51826c-0.87055,-0.03203 -1.55029,-0.7637 -1.51826,-1.63426z" fill="url(#color-32)" stroke="none" stroke-width="0" stroke-linecap="butt"/><path d="M315.31073,195.97406c0.28659,-7.78941 1.40976,-38.31645 1.59659,-43.39456c0.05145,-1.39844 1.21947,-2.55942 2.40349,-2.51586c3.14915,0.11586 17.60814,0.64784 23.36629,0.8597c1.47239,0.05418 2.33648,1.15792 2.28964,2.43141c-0.17619,4.78873 -1.27095,34.54387 -1.58714,43.13778c-0.05412,1.47074 -0.83221,2.29423 -1.69099,2.26262c-2.84668,-0.10474 -18.68531,-0.68749 -24.39341,-0.8975c-1.28037,-0.04711 -2.02692,-0.73031 -1.9845,-1.8836z" fill="none" stroke="url(#color-33)" stroke-width="2.5" stroke-linecap="butt"/></g></g></g></svg>