<svg version="1.1" xmlns="http://www.w3.org/2000/svg" xmlns:xlink="http://www.w3.org/1999/xlink" width="35.13327" height="35.13309" viewBox="0,0,35.13327,35.13309"><g transform="translate(-222.41346,-162.41346)"><g data-paper-data="{&quot;isPaintingLayer&quot;:true}" stroke-linecap="round" stroke-miterlimit="10" stroke-dasharray="" stroke-dashoffset="0" style="mix-blend-mode: normal"><path d="M257.54672,169.81609v20.49804c0,4.00745 -3.22497,7.23243 -7.23242,7.23243h-20.5c-3.66107,0 -6.66147,-2.69385 -7.1543,-6.21484c0.7952,3.03475 3.54108,5.26367 6.83204,5.26367h20.0332c3.9166,0 7.07032,-3.15372 7.07032,-7.07031v-20.03321c0,-3.2976 -2.23906,-6.0451 -5.28321,-6.83398c3.52994,0.48496 6.23438,3.49081 6.23438,7.15821z" fill-opacity="0.29839" fill="#000000" fill-rule="evenodd" stroke="none" stroke-width="4.54219" stroke-linejoin="round"/><path d="M229.48313,162.41347h20.03379c3.9166,0 7.06966,3.15307 7.06966,7.06966v20.03379c0,3.91659 -3.15306,7.06966 -7.06966,7.06966h-20.03379c-3.91659,0 -7.06966,-3.15307 -7.06966,-7.06966v-20.03379c0,-3.91659 3.15307,-7.06966 7.06966,-7.06966z" fill="#34e4f6" fill-rule="evenodd" stroke="none" stroke-width="4.43922" stroke-linejoin="round"/><path d="M241.43158,172.97482h4.15533v2.85679l-15.45264,10.90775v-5.45387z" fill="#ffffff" fill-rule="nonzero" stroke="#ffffff" stroke-width="0.5" stroke-linejoin="miter"/><path d="M245.58691,177.13015v2.85679l-12.07643,8.44052h-3.50606z" fill="#ffffff" fill-rule="nonzero" stroke="#ffffff" stroke-width="0.5" stroke-linejoin="miter"/><path d="M232.99106,168.81949h17.2706l-4.15533,2.8568h-16.62133v17.5303h16.75118l0.51942,-0.90897l0.38956,-16.36162l3.66838,-2.59709v16.52394l-4.31765,4.31765h-17.72509l-0.58434,-0.58435v-18.43928z" fill="#001aff" fill-rule="nonzero" stroke="#001aff" stroke-width="0.5" stroke-linejoin="miter"/></g></g></svg>