<svg version="1.1" xmlns="http://www.w3.org/2000/svg" xmlns:xlink="http://www.w3.org/1999/xlink" width="319.66137" height="295.01663" viewBox="0,0,319.66137,295.01663"><defs><linearGradient x1="240.00008" y1="175.50004" x2="240.00008" y2="307.50004" gradientUnits="userSpaceOnUse" id="color-1"><stop offset="0" stop-color="#12201e"/><stop offset="1" stop-color="#345756"/></linearGradient><linearGradient x1="240.42698" y1="196.10053" x2="240.42698" y2="228.83089" gradientUnits="userSpaceOnUse" id="color-2"><stop offset="0" stop-color="#203535"/><stop offset="1" stop-color="#274746"/></linearGradient><linearGradient x1="239.57316" y1="184.43144" x2="239.57316" y2="207.485" gradientUnits="userSpaceOnUse" id="color-3"><stop offset="0" stop-color="#203535"/><stop offset="1" stop-color="#274746"/></linearGradient><linearGradient x1="330.86373" y1="75.78606" x2="330.86373" y2="119.80425" gradientUnits="userSpaceOnUse" id="color-4"><stop offset="0" stop-color="#1d1c17"/><stop offset="1" stop-color="#616051"/></linearGradient><linearGradient x1="316.30674" y1="58.70848" x2="316.30674" y2="139.14363" gradientUnits="userSpaceOnUse" id="color-5"><stop offset="0" stop-color="#0e1411"/><stop offset="1" stop-color="#244343"/></linearGradient><radialGradient cx="237.91714" cy="170.90122" r="71.31656" gradientUnits="userSpaceOnUse" id="color-6"><stop offset="0" stop-color="#000000"/><stop offset="1" stop-color="#345756"/></radialGradient><linearGradient x1="240.07701" y1="76.54787" x2="240.07701" y2="197.14453" gradientUnits="userSpaceOnUse" id="color-7"><stop offset="0" stop-color="#0f1b1b"/><stop offset="1" stop-color="#345756"/></linearGradient><linearGradient x1="212.87086" y1="113.54502" x2="212.87086" y2="160.50632" gradientUnits="userSpaceOnUse" id="color-8"><stop offset="0" stop-color="#784752"/><stop offset="1" stop-color="#4c1e20"/></linearGradient><linearGradient x1="267.12926" y1="113.545" x2="267.12926" y2="160.5063" gradientUnits="userSpaceOnUse" id="color-9"><stop offset="0" stop-color="#190505"/><stop offset="1" stop-color="#000000"/></linearGradient><linearGradient x1="235.25354" y1="82.37859" x2="235.25354" y2="114.3441" gradientUnits="userSpaceOnUse" id="color-10"><stop offset="0" stop-color="#141e20"/><stop offset="1" stop-color="#0e1717"/></linearGradient><linearGradient x1="281.30758" y1="55.01994" x2="281.30758" y2="71.48802" gradientUnits="userSpaceOnUse" id="color-11"><stop offset="0" stop-color="#3b5456"/><stop offset="1" stop-color="#253e3d"/></linearGradient><linearGradient x1="331.19056" y1="18.59588" x2="331.19056" y2="30.08524" gradientUnits="userSpaceOnUse" id="color-12"><stop offset="0" stop-color="#3b5456"/><stop offset="1" stop-color="#253e3d"/></linearGradient><linearGradient x1="276.23311" y1="66.10652" x2="276.23311" y2="75.10652" gradientUnits="userSpaceOnUse" id="color-13"><stop offset="0" stop-color="#3b5456"/><stop offset="1" stop-color="#253e3d"/></linearGradient><linearGradient x1="342.29695" y1="77.04121" x2="342.29695" y2="85.84973" gradientUnits="userSpaceOnUse" id="color-14"><stop offset="0" stop-color="#3b5456"/><stop offset="1" stop-color="#253e3d"/></linearGradient><linearGradient x1="303.82696" y1="28.74483" x2="303.82696" y2="105.78406" gradientUnits="userSpaceOnUse" id="color-15"><stop offset="0" stop-color="#404135"/><stop offset="1" stop-color="#1b1816"/></linearGradient><radialGradient cx="228.14405" cy="194.61467" r="2.15987" gradientUnits="userSpaceOnUse" id="color-16"><stop offset="0" stop-color="#000000"/><stop offset="1" stop-color="#350604"/></radialGradient><radialGradient cx="249.49469" cy="195.12775" r="4.21522" gradientUnits="userSpaceOnUse" id="color-17"><stop offset="0" stop-color="#000000"/><stop offset="1" stop-color="#350604"/></radialGradient><radialGradient cx="209.67958" cy="176.93161" r="16.49954" gradientUnits="userSpaceOnUse" id="color-18"><stop offset="0" stop-color="#000000"/><stop offset="1" stop-color="#350604"/></radialGradient><linearGradient x1="244.56556" y1="129.52604" x2="244.56556" y2="139.89211" gradientUnits="userSpaceOnUse" id="color-19"><stop offset="0" stop-color="#3b5456"/><stop offset="1" stop-color="#253e3d"/></linearGradient><linearGradient x1="271.48708" y1="103.97301" x2="269.52888" y2="160.98637" gradientUnits="userSpaceOnUse" id="color-20"><stop offset="0" stop-color="#1b1816"/><stop offset="1" stop-color="#404135"/></linearGradient><linearGradient x1="286.73953" y1="128.70457" x2="286.73953" y2="149.09724" gradientUnits="userSpaceOnUse" id="color-21"><stop offset="0" stop-color="#3b5456"/><stop offset="1" stop-color="#253e3d"/></linearGradient><linearGradient x1="277.63116" y1="132.65341" x2="277.63116" y2="149.07878" gradientUnits="userSpaceOnUse" id="color-22"><stop offset="0" stop-color="#3b5456"/><stop offset="1" stop-color="#253e3d"/></linearGradient><linearGradient x1="199.4163" y1="41.65657" x2="199.4163" y2="53.14594" gradientUnits="userSpaceOnUse" id="color-23"><stop offset="0" stop-color="#3b5456"/><stop offset="1" stop-color="#253e3d"/></linearGradient><linearGradient x1="190.79886" y1="57.80576" x2="306.39158" y2="57.80576" gradientUnits="userSpaceOnUse" id="color-24"><stop offset="0" stop-color="#213331"/><stop offset="1" stop-color="#172322"/></linearGradient><linearGradient x1="213.91741" y1="67.52047" x2="292.86478" y2="67.52047" gradientUnits="userSpaceOnUse" id="color-25"><stop offset="0" stop-color="#213331"/><stop offset="1" stop-color="#121b1b"/></linearGradient><linearGradient x1="188.37108" y1="48.26226" x2="188.37108" y2="105.39337" gradientUnits="userSpaceOnUse" id="color-26"><stop offset="0" stop-color="#404135"/><stop offset="1" stop-color="#1b1816"/></linearGradient></defs><g transform="translate(-31.44409,-18.59587)"><g data-paper-data="{&quot;isPaintingLayer&quot;:true}" fill-rule="nonzero" stroke-linejoin="miter" stroke-miterlimit="10" stroke-dasharray="" stroke-dashoffset="0" style="mix-blend-mode: normal"><path d="M178.40899,313.61251c0,0 0,-155.77569 0,-204.37924c0,-26.95179 0,-62.84577 0,-62.84577h123.18203v267.22501z" fill-opacity="0.01" fill="#000000" stroke="none" stroke-width="0" stroke-linecap="butt"/><g stroke="#000000" stroke-width="0"><path d="M206.75009,307.50003l15.14285,-131.8421l37.78325,-0.15789l13.57389,132z" fill="url(#color-1)" stroke-linecap="butt"/><g stroke-linecap="round"><path d="M262.4844,196.10053l6.54607,27.89196l-29.31501,4.8384l-27.89196,-4.8384l4.8384,-21.91511z" fill="url(#color-2)"/><path d="M266.46897,184.43144l1.70767,17.07671l-29.0304,5.97685l-25.89967,-5.12301l-2.27689,-15.08443z" fill="url(#color-3)"/></g></g><path d="M31.4441,61.27491l2.64784,3.53045" fill="none" stroke="none" stroke-width="0" stroke-linecap="round"/><g><path d="M332.33645,75.78606l10.30909,8.83637l3.27273,3.76363l0.65455,13.25455l-4.09091,11.29091l-10.8,6.87273l-11.61818,-6.87273l-4.90909,-12.76364l1.96364,-11.78181l4.58182,-7.2z" fill="url(#color-4)" stroke="#000000" stroke-width="0" stroke-linecap="round"/><path d="M291.16512,50.7988c0,0 7.56826,8.53596 9.23291,5.43857c4.52296,-8.4158 2.99859,-23.34277 2.99859,-23.34277l6.00109,-0.81833c0,0 -1.47056,26.70251 -4.50515,30.29906c-3.03459,3.59655 -16.18243,-2.02934 -16.18243,-2.02934z" fill="#101b1b" stroke="#000000" stroke-width="0" stroke-linecap="round"/><path d="M301.03343,85.50377c0,0 14.11792,47.80066 19.13638,43.75068c5.15982,-4.16408 11.41024,-68.40235 11.41024,-68.40235l6.96678,-2.14362c0,0 -7.9136,79.7075 -18.01718,80.42926c-8.90725,0.6363 -26.463,-50.41854 -26.463,-50.41854z" fill="url(#color-5)" stroke="#000000" stroke-width="0" stroke-linecap="round"/><path d="M299.36777,154.97479l9.86592,18.32244l-25.08764,0.56377l15.78548,15.5036l-59.75932,-8.45651l-65.397,7.61086l13.53041,-15.5036l-21.70504,0.28188l12.121,-20.85939z" fill="url(#color-6)" stroke="#000000" stroke-width="0" stroke-linecap="round"/><path d="M175.83999,136.8462c0,-33.30185 28.7599,-60.29833 64.23702,-60.29833c35.47712,0 64.23702,26.99649 64.23702,60.29833c0,33.30185 -28.7599,60.29833 -64.23702,60.29833c-35.47712,0 -64.23702,-26.99649 -64.23702,-60.29833z" fill="url(#color-7)" stroke="#000000" stroke-width="0" stroke-linecap="butt"/><path d="M189.39021,137.02567c0,-12.968 10.51265,-23.48065 23.48065,-23.48065c12.968,0 23.48065,10.51265 23.48065,23.48065c0,12.968 -10.51265,23.48065 -23.48065,23.48065c-12.968,0 -23.48065,-10.51265 -23.48065,-23.48065z" fill="url(#color-8)" stroke="#000000" stroke-width="0" stroke-linecap="butt"/><path d="M196.45559,121.99318c0,-3.50751 2.44178,-3.93776 4.38312,-5.24918c3.11088,-2.10147 6.95278,-3.77759 12.57334,-3.77759c5.42971,0 8.3817,1.67869 11.27178,3.57084c1.96853,1.28881 4.82743,1.75757 4.82743,5.45593c0,9.12808 -7.39977,16.52784 -16.52784,16.52784c-9.12808,0 -16.52783,-7.39977 -16.52783,-16.52784z" fill="#000000" stroke="none" stroke-width="0" stroke-linecap="butt"/><path d="M267.12926,160.5063c-12.968,0 -23.48065,-10.51265 -23.48065,-23.48065c0,-12.968 10.51265,-23.48065 23.48065,-23.48065c12.968,0 23.48065,10.51265 23.48065,23.48065c0,12.968 -10.51265,23.48065 -23.48065,23.48065z" data-paper-data="{&quot;index&quot;:null}" fill="url(#color-9)" stroke="#000000" stroke-width="0" stroke-linecap="butt"/><path d="M248.75354,83.93031l-10.86207,30.41379l-4.03448,-21.41379l-12.10345,3.72414l6.51724,-14.27586" fill="url(#color-10)" stroke="#000000" stroke-width="0" stroke-linecap="round"/><path d="M277.38204,66.31781l-1.53191,-11.29787l9.38298,5.74468l-0.19149,10.72341z" fill="url(#color-11)" stroke="#000000" stroke-width="0" stroke-linecap="round"/><path d="M323.72247,30.08524l5.55319,-9l9.38298,-2.48936l-5.55319,11.10638z" fill="url(#color-12)" stroke="#000000" stroke-width="0" stroke-linecap="round"/><path d="M285.34077,70.5946l-8.5332,4.51192l-9,-5.17021l9.57447,-3.82979z" fill="url(#color-13)" stroke="#000000" stroke-width="0" stroke-linecap="round"/><path d="M344.40333,77.23272l6.70213,6.89361l-9.57447,1.7234l-8.04255,-8.80851z" fill="url(#color-14)" stroke="#000000" stroke-width="0" stroke-linecap="round"/><path d="M300.74125,80.43054l-13.88572,-9.25714l3.6,-22.11429l5.14285,19.28572l19.02857,5.91428l12.34286,-9.25714l-2.05714,-16.2l-12.6,-14.4l-9.25714,2.57143l4.37142,-8.22857l15.94286,1.54285l15.94286,17.63925v17.74285l-6.17142,10.8l-49.62858,29.31428l-10.54286,-6.68571l-4.62857,-12.08572z" fill="url(#color-15)" stroke="#000000" stroke-width="0" stroke-linecap="round"/><g stroke="#000000" stroke-width="0" stroke-linecap="round"><path d="M220.2683,186.76815c0,0 -1.53908,7.55242 19.29205,7.53409c14.90815,-0.01312 19.61332,-4.40188 19.61332,-4.40188c0,0 0.09625,-14.99376 -19.2756,-15.63878c-17.01837,-0.56665 -19.62977,12.50657 -19.62977,12.50657z" fill="#000000"/><path d="M223.23565,188.41668l-0.3297,1.15398c0,0 1.43341,2.22416 3.13801,2.78489c4.68523,1.54119 8.60321,1.47996 12.52814,1.55138c4.05808,0.07385 8.12359,0.23262 13.0522,-1.07654c1.86957,-0.4966 5.73599,-1.94091 5.73599,-1.94091l-0.16485,-2.30795c0,0 -3.91771,1.54555 -5.62593,2.07569c-4.38503,1.36087 -7.87202,1.44281 -11.51546,1.40372c-3.87011,-0.04153 -7.89558,-0.28308 -12.61532,-1.51151c-1.81456,-0.47228 -4.20307,-2.13275 -4.20307,-2.13275z" fill="#9d9d9d"/></g><path d="M227.5642,192.94809c1.22582,-0.35724 2.69041,2.34247 2.25524,3.23055c-0.4668,0.95263 -2.3435,0.61126 -2.97824,0.02894c-0.81664,-0.74918 -0.27387,-2.31961 -0.27684,-3.25278c0,0 0,-0.5 0.5,-0.5c0.46576,0 0.49765,0.43386 0.49984,0.49328z" fill="url(#color-16)" stroke="none" stroke-width="0.5" stroke-linecap="butt"/><path d="M247.43493,194.50425l0.75608,-0.07391c1.23593,2.47683 2.48331,0.59794 3.20695,-1.03259v-0.47471c0,-0.27614 0.22386,-0.5 0.5,-0.5c0.1996,0 0.37189,0.11696 0.45206,0.28608l0.22594,0.45189l-0.02509,0.01254l0.05082,0.04879c0.30457,1.47112 1.87158,2.09114 0.64691,3.276c-2.0244,0.3374 -3.65805,1.30965 -5.85098,1.30965c-0.66197,0 -1.94841,0.2442 -2.11425,-0.81074c-0.08192,-0.52112 1.15648,-1.75033 1.15268,-2.5741c0,0 0,-0.5 0.5,-0.5c0.5,0 0.5,0.5 0.5,0.5c-0.0001,0.026 -0.00047,0.05307 -0.00111,0.08109z" fill="url(#color-17)" stroke="none" stroke-width="0.5" stroke-linecap="butt"/><path d="M212.14477,157.23899c1.70593,0.31552 2.73303,3.54763 1.53764,4.84176c-0.58867,0.63729 -1.68393,0.87013 -2.44072,1.23408c-0.62851,0.01263 -1.25277,0.01263 -1.88128,0l-0.49505,-0.2363c-0.50481,0.13395 -1.10727,0.14156 -1.79083,-0.02933c-2.48018,-0.0224 -3.95968,-3.76637 -2.23363,-5.65176c1.2199,-1.33252 3.30484,-0.29262 4.19885,0.98149c0.78825,-0.78896 1.96016,-1.3517 3.10501,-1.13995z" fill="#350604" stroke="none" stroke-width="0.5" stroke-linecap="butt"/><path d="M211.76435,189.31588c-0.1294,-0.32679 -0.39861,-0.70197 -0.39889,-1.02662c-0.00164,-1.92678 0,-3.85357 0,-5.78035c0,-6.81652 0.41288,-13.60778 0.41288,-20.36884c0,0 0,-1 1,-1c1,0 1,1 1,1c0,6.76118 -0.41288,13.55107 -0.41288,20.36884c0,2.27056 0.05693,4.54941 -0.00194,6.81922c-0.00223,0.08603 0.02454,0.29371 0.04507,0.54328c1.55034,0.63035 2.7551,1.58421 1.21058,3.20738c-1.0086,1.05996 -2.9641,-0.48873 -3.77982,-1.77659c-0.1544,-0.07179 -0.30509,-0.14534 -0.44964,-0.2167c-1.00537,0.2906 -2.74605,-0.32322 -3.95933,-1.28961c-0.75802,-0.60376 -0.70848,-3.88614 -1.01848,-5.10131c-1.07276,-4.29102 -1.40349,-8.09605 -1.38877,-12.55699c0.58688,-2.9344 1.015,-6.23587 1.08765,-9.24624c-0.27252,-0.27105 -0.04272,-0.61575 -0.04272,-0.61575l0.05311,-0.07815c0.00036,-0.06517 0.00054,-0.13018 0.00054,-0.19501c0,0 0,-0.44433 0.41887,-0.49526c1.77094,-2.849 4.06707,0.58765 3.45638,3.09382c-0.78787,3.05521 -0.89451,8.58134 -0.12645,11.65359c0.01556,2.54056 0.27105,5.33981 0.82049,7.8113c0.3103,1.39581 1.00335,2.66512 0.95904,4.1085c0.17028,0.34055 0.29675,0.64765 0.38428,0.92341c0.21962,0.0677 0.46728,0.13978 0.73002,0.21809z" fill="url(#color-18)" stroke="none" stroke-width="0.5" stroke-linecap="butt"/><g stroke="#000000" stroke-width="0" stroke-linecap="round"><path d="M254.47607,131.05131l-6.62238,8.8408l-13.19863,-1.98411l9.93113,-8.38196z" fill="url(#color-19)"/><path d="M271.40302,161.05074c0,0 6.42637,-1.88069 8.78713,-3.97379c3.99678,-3.54363 7.45424,-6.72272 7.45424,-6.72272l-15.48847,-5.47351l-2.61438,-15.89067l8.29011,-17.09621l10.04763,0.74013l0.23793,-1.1769l-8.24581,-7.19609l-14.78152,4.82509l-11.3848,20.94013l3.76417,16.91771l9.47768,11.58364z" fill="url(#color-20)"/><path d="M281.79172,138.66682l7.73058,-9.96225l2.16504,12.9336l-8.85225,7.80799z" fill="url(#color-21)"/><path d="M283.07756,149.07878l-8.55082,-4.27731l-2.34196,-12.14805l9.77182,5.8533z" fill="url(#color-22)"/></g><path d="M192.56058,49.7779l8.30886,-10.83711l10.91391,-0.03988l-5.55319,9.57545z" fill="url(#color-23)" stroke="#000000" stroke-width="0" stroke-linecap="round"/><path d="M306.39158,36.53178c0,0 -23.03796,13.7137 -46.8291,24.74038c-16.72741,7.7528 -34.20024,13.05802 -42.68446,16.18094c-10.27819,3.78324 -26.07916,1.62664 -26.07916,1.62664" fill="none" stroke="url(#color-24)" stroke-width="2.5" stroke-linecap="round"/><path d="M213.91741,85.47423c0,0 13.01515,-2.36462 21.97921,-6.44173c7.33023,-3.334 21.49615,-13.4973 33.98952,-20.07545c12.29543,-6.47393 22.97864,-9.39035 22.97864,-9.39035" fill="none" stroke="url(#color-25)" stroke-width="2.5" stroke-linecap="round"/><path d="M161.51326,83.81507l38.42992,21.5783c0,0 10.06336,-2.90885 11.88602,-6.35242c5.01555,-9.47593 3.73255,-13.58181 3.73255,-13.58181l-30.00411,-6.57624l11.30292,-5.13769l1.02754,-3.49363l-4.31566,-21.98931l-5.13769,17.67365l-18.29018,5.54871l3.08262,3.08261l-5.95972,1.23305l0.61652,2.05508l-3.28813,-0.82203l0.82203,2.46609l-3.28812,-0.61652c0,0 -0.52358,-0.21721 -1.03386,2.9277c-0.26894,1.65752 0.41734,2.00449 0.41734,2.00449z" fill="url(#color-26)" stroke="#000000" stroke-width="0" stroke-linecap="round"/></g></g></g></svg>