<svg version="1.1" xmlns="http://www.w3.org/2000/svg" xmlns:xlink="http://www.w3.org/1999/xlink" width="207.69106" height="249.04642" viewBox="0,0,207.69106,249.04642"><g transform="translate(-106.48618,-59.0339)"><g data-paper-data="{&quot;isPaintingLayer&quot;:true}" fill-rule="nonzero" stroke-linejoin="miter" stroke-miterlimit="10" stroke-dasharray="" stroke-dashoffset="0" style="mix-blend-mode: normal"><g stroke-width="2"><path d="M218.89412,187.72072l41.41765,0.2301l11.35535,119.12951h-66.95856z" fill="#1700ff" stroke="#000000" stroke-linecap="round"/><path d="M224.98107,208.01619c0,0 8.59931,-2.75209 13.15649,-2.72677c4.92858,0.02738 15.38818,2.88535 15.38818,2.88535c0,0 5.58598,21.88621 6.76513,34.2567c1.39353,14.61968 1.06086,47.84628 1.06086,47.84628c0,0 -15.49885,2.79985 -23.21318,2.79985c-7.66781,0 -22.93404,-2.79985 -22.93404,-2.79985c0,0 0.14928,-30.704 1.84788,-44.99643c1.54583,-13.00673 7.92867,-37.26512 7.92867,-37.26512z" fill="#fddfbd" stroke="#000000" stroke-linecap="round"/><g data-paper-data="{&quot;index&quot;:null}"><path d="M272.4027,306.75354l-14.08066,0.16331l-13.87186,-116.74087l14.04726,-0.84509l1.68723,8.3627l11.21659,90.17129z" data-paper-data="{&quot;index&quot;:null}" fill="#ef2a2e" stroke="#000000" stroke-linecap="round"/><path d="M253.39258,253.46184l-1.23923,-11.83468l13.92315,-1.45792l1.23923,11.83468z" fill="#ffffff" stroke="none" stroke-linecap="butt"/><path d="M259.38973,306.90173l-14.34371,-111.07183l3.47099,-0.44824l14.34371,111.07183z" fill="#ffffff" stroke="none" stroke-linecap="butt"/></g><path d="M207.65709,287.61555l11.21659,-90.17129l1.07154,-8.36271l14.66295,0.8451l-13.87187,116.74088l-14.08066,-0.16331z" data-paper-data="{&quot;index&quot;:null}" fill="#ef2a2e" stroke="#000000" stroke-linecap="round"/><path d="M212.35831,249.90754l1.23922,-11.83468l13.92316,1.45792l-1.23923,11.83468z" fill="#ffffff" stroke="none" stroke-linecap="butt"/><path d="M215.58192,305.28067l14.34371,-111.07182l3.47099,0.44824l-14.34372,111.07182z" fill="#ffffff" stroke="none" stroke-linecap="butt"/><path d="M230.00205,210.50741c-0.43413,3.26352 -3.06035,5.60658 -5.86584,5.23338c-2.80548,-0.3732 -4.72786,-3.32133 -4.29372,-6.58485c0.43413,-3.26352 3.06034,-5.60659 5.86585,-5.2334c2.80548,0.3732 4.72783,3.32134 4.29371,6.58486z" fill="none" stroke="#ffea00" stroke-linecap="butt"/></g><g stroke="#000000"><path d="M142.05411,245.0551c0,0 -9.28582,-55.18295 0.25459,-86.52144c4.4468,-14.60692 84.29754,-76.1259 84.29754,-76.1259l-0.47683,114.55128c0,0 -23.09256,-9.21676 -41.14314,9.42857c-12.65292,13.06983 -42.93217,38.66749 -42.93217,38.66749z" data-paper-data="{&quot;index&quot;:null}" fill="#1700ff" stroke-width="2" stroke-linecap="butt"/><path d="M107.48618,191.80952c0,0 15.71022,-53.70822 37.96289,-77.7486c10.37201,-11.20525 109.05844,-31.7409 109.05844,-31.7409l-50.38727,102.87539c0,0 -16.76111,-18.3652 -41.13622,-9.45871c-17.08623,6.24319 -55.49784,16.07281 -55.49784,16.07281z" data-paper-data="{&quot;index&quot;:null}" fill="#1700ff" stroke-width="2" stroke-linecap="butt"/><path d="M110.69386,104.94708c0,0 42.37324,-36.54987 74.11728,-44.63916c14.79595,-3.77043 108.79984,32.61629 108.79984,32.61629l-98.20106,58.98113c0,0 -4.09095,-24.52508 -29.39304,-30.29365c-17.73601,-4.0436 -55.32302,-16.66461 -55.32302,-16.66461z" data-paper-data="{&quot;index&quot;:null}" fill="#1700ff" stroke-width="2" stroke-linecap="butt"/><g stroke-width="2" stroke-linecap="round"><g><path d="M184.88678,111.43256l-16.73652,-46.34728l46.34726,20.59879z" fill="#1700ff"/><path d="M188.75636,107.54183l-11.62259,-32.18561l32.18562,14.30473z" fill="#ffebb5"/></g><g data-paper-data="{&quot;index&quot;:null}"><path d="M266.0928,85.7015l46.34726,-20.5988l-16.73652,46.34727z" fill="#1700ff"/><path d="M271.27092,89.67842l32.18559,-14.30472l-11.62257,32.18561z" fill="#ffebb5"/></g></g><path d="M175.76299,136.84616c0,-33.30185 28.7599,-60.29833 64.23702,-60.29833c35.47712,0 64.23702,26.99649 64.23702,60.29833c0,33.30185 -28.7599,60.29833 -64.23702,60.29833c-35.47712,0 -64.23702,-26.99649 -64.23702,-60.29833z" fill="#1700ff" stroke-width="2" stroke-linecap="butt"/><path d="M176.48606,136.89998c0,-0.72799 5.20666,55.91939 63.36046,56.93429c55.56352,0.9697 63.51358,-57.95314 63.51358,-56.93429c0,32.80479 -28.40173,59.39833 -63.43702,59.39833c-35.03529,0 -63.43702,-26.59354 -63.43702,-59.39833z" fill="#0f00b5" stroke-width="0" stroke-linecap="butt"/><path d="M296,166c0,11.59798 -27.76376,30 -56.66667,30c-28.9029,0 -56.66667,-17.73535 -56.66667,-29.33333c0,-8.69465 19.83465,-4.15515 38.60464,-7.34549c6.26771,-1.06532 10.82674,-5.32117 18.06203,-5.32117c10.96773,0 19.14745,4.02052 27.55789,6.33448c13.75333,3.78393 29.10878,-1.53139 29.10878,5.66552z" fill="#fddfbd" stroke-width="2" stroke-linecap="butt"/></g><path d="M189.3132,137.27561c0,-12.968 10.51265,-23.48065 23.48065,-23.48065c12.968,0 23.48065,10.51265 23.48065,23.48065c0,12.968 -10.51265,23.48065 -23.48065,23.48065c-12.968,0 -23.48065,-10.51265 -23.48065,-23.48065z" fill="#ffffff" stroke="#000000" stroke-width="2" stroke-linecap="butt"/><path d="M196.37859,137c0,-9.12808 7.39976,-16.52784 16.52783,-16.52784c9.12808,0 16.52784,7.39977 16.52784,16.52784c0,9.12808 -7.39977,16.52784 -16.52784,16.52784c-9.12808,0 -16.52783,-7.39977 -16.52783,-16.52784z" fill="#000000" stroke="none" stroke-width="0" stroke-linecap="butt"/><path d="M267.05231,160.75627c-12.968,0 -23.48065,-10.51265 -23.48065,-23.48065c0,-12.968 10.51265,-23.48065 23.48065,-23.48065c12.968,0 23.48065,10.51265 23.48065,23.48065c0,12.968 -10.51265,23.48065 -23.48065,23.48065z" data-paper-data="{&quot;index&quot;:null}" fill="#ffffff" stroke="#000000" stroke-width="2" stroke-linecap="butt"/><path d="M266.93973,153.52784c-9.12807,0 -16.52783,-7.39977 -16.52783,-16.52784c0,-9.12808 7.39977,-16.52784 16.52783,-16.52784c9.12807,0 16.52783,7.39977 16.52783,16.52784c0,9.12808 -7.39977,16.52784 -16.52783,16.52784z" data-paper-data="{&quot;index&quot;:null}" fill="#000000" stroke="none" stroke-width="0" stroke-linecap="butt"/><path d="M201.95088,108.46716c0,0 6.70895,-5.16922 11.79721,-6.36355c5.08827,-1.19433 12.33413,0.69937 12.33413,0.69937c0,0 -8.03812,-0.06028 -11.96762,0.86207c-4.10648,0.96389 -12.16372,4.80211 -12.16372,4.80211z" fill="#000000" stroke="none" stroke-width="0" stroke-linecap="butt"/><path d="M265.88541,103.66506c-3.9295,-0.92235 -11.96762,-0.86207 -11.96762,-0.86207c0,0 7.24586,-1.8937 12.33413,-0.69937c5.08826,1.19433 11.79721,6.36355 11.79721,6.36355c0,0 -8.05724,-3.83822 -12.16372,-4.80211z" data-paper-data="{&quot;index&quot;:null}" fill="#000000" stroke="none" stroke-width="0" stroke-linecap="butt"/><path d="M244.5,155.66668c0,2.20914 -1.79086,4 -4,4c-2.20914,0 -4,-1.79086 -4,-4c0,-2.20914 1.79086,-4 4,-4c2.20914,0 4,1.79086 4,4z" fill="#000000" stroke="#000000" stroke-width="2" stroke-linecap="butt"/><path d="M223.27036,182.57423c0,0 -22.79773,-3.5564 -27.71443,-5.99273c-3.92913,-1.94696 0.50706,-7.48907 0.50706,-7.48907" fill="none" stroke="#000000" stroke-width="2" stroke-linecap="round"/><path d="M189.3132,137.27561c0,-12.968 10.51265,-23.48065 23.48065,-23.48065c12.968,0 23.48065,10.51265 23.48065,23.48065c0,0 -46.96131,1.23155 -46.96131,0z" fill="#1700ff" stroke="#000000" stroke-width="2" stroke-linecap="butt"/><path d="M243.57166,137.27561c0,-12.968 10.51265,-23.48065 23.48065,-23.48065c12.968,0 23.48065,10.51265 23.48065,23.48065c0,1.2138 -46.96131,0 -46.96131,0z" data-paper-data="{&quot;index&quot;:null}" fill="#1700ff" stroke="#000000" stroke-width="2" stroke-linecap="butt"/></g></g></svg>