<svg version="1.1" xmlns="http://www.w3.org/2000/svg" xmlns:xlink="http://www.w3.org/1999/xlink" width="34.17311" height="34.17311" viewBox="0,0,34.17311,34.17311"><g transform="translate(-222.91345,-162.91345)"><g data-paper-data="{&quot;isPaintingLayer&quot;:true}" stroke-linecap="round" stroke-miterlimit="10" stroke-dasharray="" stroke-dashoffset="0" style="mix-blend-mode: normal"><path d="M229.98312,162.91346h20.03379c3.9166,0 7.06966,3.15307 7.06966,7.06966v20.03379c0,3.91659 -3.15306,7.06966 -7.06966,7.06966h-20.03379c-3.91659,0 -7.06966,-3.15307 -7.06966,-7.06966v-20.03379c0,-3.91659 3.15307,-7.06966 7.06966,-7.06966z" fill="#34e4f6" fill-rule="evenodd" stroke="none" stroke-width="4.43922" stroke-linejoin="round"/><path d="M241.93157,173.47481h4.15533v2.85679l-15.45264,10.90775v-5.45387z" fill="#ffffff" fill-rule="nonzero" stroke="#ffffff" stroke-width="0.5" stroke-linejoin="miter"/><path d="M246.0869,177.63014v2.85679l-12.07643,8.44052h-3.50606z" fill="#ffffff" fill-rule="nonzero" stroke="#ffffff" stroke-width="0.5" stroke-linejoin="miter"/><path d="M233.49105,169.31948h17.2706l-4.15533,2.8568h-16.62133v17.5303h16.75118l0.51942,-0.90897l0.38956,-16.36162l3.66838,-2.59709v16.52394l-4.31765,4.31765h-17.72509l-0.58434,-0.58435v-18.43928z" fill="#001aff" fill-rule="nonzero" stroke="#001aff" stroke-width="0.5" stroke-linejoin="miter"/></g></g></svg>