<svg version="1.1" xmlns="http://www.w3.org/2000/svg" xmlns:xlink="http://www.w3.org/1999/xlink" width="128.77413" height="267.22501" viewBox="0,0,128.77413,267.22501"><defs><linearGradient x1="240.00013" y1="175.50005" x2="240.00013" y2="307.50005" gradientUnits="userSpaceOnUse" id="color-1"><stop offset="0" stop-color="#1a1a1a"/><stop offset="1" stop-color="#b7b7b7"/></linearGradient><linearGradient x1="244.29462" y1="76.54788" x2="244.29462" y2="197.14454" gradientUnits="userSpaceOnUse" id="color-2"><stop offset="0" stop-color="#1a1a1a"/><stop offset="1" stop-color="#000000"/></linearGradient><radialGradient cx="244.38421" cy="141.44201" r="45" gradientUnits="userSpaceOnUse" id="color-3"><stop offset="0" stop-color="#c7c7c7" stop-opacity="0"/><stop offset="1" stop-color="#c7c7c7"/></radialGradient></defs><g transform="translate(-179.7575,-46.32696)"><g data-paper-data="{&quot;isPaintingLayer&quot;:true}" fill-rule="nonzero" stroke-linejoin="miter" stroke-miterlimit="10" stroke-dasharray="" stroke-dashoffset="0" style="mix-blend-mode: normal"><path d="M179.7575,313.55197v-267.22501h123.18203v267.22501z" fill-opacity="0.01" fill="#000000" stroke="none" stroke-width="0" stroke-linecap="butt"/><path d="M206.75014,307.50004l15.14285,-131.8421l37.78325,-0.15789l3.15646,30.69516l-14.20019,13.8515l12.65505,6.61153l-6.92997,6.53781l10.54035,5.24649l8.35219,69.05752z" fill="url(#color-1)" stroke="#000000" stroke-width="0" stroke-linecap="butt"/><path d="M180.0576,136.84621c0,-33.30185 28.7599,-60.29833 64.23702,-60.29833c35.47712,0 64.23702,26.99649 64.23702,60.29833c0,33.30185 -28.7599,60.29833 -64.23702,60.29833c-35.47712,0 -64.23702,-26.99649 -64.23702,-60.29833z" fill="url(#color-2)" stroke="#000000" stroke-width="0" stroke-linecap="butt"/><path d="M199.71755,140.10868c0,0 23.74117,-30 43.66667,-30c19.9255,0 46.33333,30 46.33333,30c0,0 -24.15535,32.33333 -45.66667,32.33333c-21.51132,0 -44.33333,-32.33333 -44.33333,-32.33333z" fill="url(#color-3)" stroke="#ffffff" stroke-width="1.5" stroke-linecap="round"/><g stroke="#ffffff" stroke-width="0" stroke-linecap="butt"><path d="M271.9346,140.92686c0,9.29679 -4.02375,16.83333 -8.98729,16.83333c-4.96354,0 -8.98729,-7.53654 -8.98729,-16.83333c0,-9.29679 4.02375,-16.83333 8.98729,-16.83333c4.96354,0 8.98729,7.53654 8.98729,16.83333z" fill="#ffffff"/><path d="M266.82463,140.82404c0,3.71955 -1.60986,6.73485 -3.59572,6.73485c-1.98586,0 -3.59572,-3.01529 -3.59572,-6.73485c0,-3.71955 1.60986,-6.73485 3.59572,-6.73485c1.98586,0 3.59572,3.01529 3.59572,6.73485z" fill="#000000"/></g></g></g></svg>