<svg version="1.1" xmlns="http://www.w3.org/2000/svg" xmlns:xlink="http://www.w3.org/1999/xlink" width="318.01461" height="311.76897" viewBox="0,0,318.01461,311.76897"><defs><linearGradient x1="257.81436" y1="102.43918" x2="257.81436" y2="188.13301" gradientUnits="userSpaceOnUse" id="color-1"><stop offset="0" stop-color="#0d0500"/><stop offset="1" stop-color="#270f03"/></linearGradient></defs><g transform="translate(-22.92403,-9.96048)"><g data-paper-data="{&quot;isPaintingLayer&quot;:true}" fill-rule="nonzero" stroke-linejoin="miter" stroke-miterlimit="10" stroke-dasharray="" stroke-dashoffset="0" style="mix-blend-mode: normal"><path d="M196.75864,104.9627l-15.67883,-92.74413l65.34727,95.21546l16.12302,5.82125l6.86156,-8.05245l-21.49858,-95.24234l73.6597,95.41474l-22.54638,78.20769l3.03285,104.3584l-14.19935,-18.92897l-0.1119,23.7097l-46.85871,-36.49301l-16.7855,36.02986l-0.70328,-24.04617l-19.88638,26.73925l15.14036,-138.41029z" fill="#584941" stroke="#000000" stroke-width="0" stroke-linecap="round"/><path d="M238.04967,315.34398l-215.12563,6.38548c0,0 49.94512,-14.02173 58.75151,-15.04867c1.75387,-0.20452 17.01155,-11.91523 17.01155,-11.91523l126.75703,9.77467z" fill="#584941" stroke="#000000" stroke-width="0" stroke-linecap="round"/><path d="M244.44636,170.84003l25.81032,0.60024l15.60624,150.06003l-72.02881,-0.60024c0,0 4.64487,-24.05008 7.82984,-40.54117c4.985,-25.8112 19.18096,-99.31478 19.18096,-99.31478z" fill="#a3948c" stroke="#000000" stroke-width="0" stroke-linecap="round"/><path d="" fill="#c8b8b2" stroke="#000000" stroke-width="2" stroke-linecap="butt"/><g stroke-width="0"><path d="M198.68174,171.3628l111.64466,-6.0024l30.61225,64.82593l-22.20889,7.80312l-10.80432,-57.62305l-100.84034,-2.40096l-14.40576,61.22449l-21.60864,-5.40216l24.0096,-49.81993z" fill="#c8b8b2" stroke="#000000" stroke-linecap="round"/><path d="M321.77424,106.165l-2.48387,81.96801h-124.81492l-0.62097,-85.69383z" fill="url(#color-1)" stroke="#000000" stroke-linecap="round"/><path d="M321.77424,106.165l-2.48387,81.96801h-124.81492l-0.62097,-85.69383c0,0 14.8862,0.43358 26.61781,0.77527c22.88654,0.6666 101.30195,2.95055 101.30195,2.95055zM224.50352,118.21397c-1.37389,-0.66995 -2.34959,-1.70303 -3.50571,-2.55777c-3.01653,-2.23018 -6.68612,-3.0397 -10.41652,-3.0397c-5.30012,0 -9.63242,4.64567 -9.63242,9.95858c0,5.69926 -0.65231,10.93352 -0.65231,16.63405c0.01129,3.1336 1.94892,4.80673 2.62263,7.61651c0.75544,3.15061 1.29126,5.66619 1.29126,9.03907c0.04408,5.75714 -4.89236,10.14983 -4.89236,15.96021c0.0176,1.99652 1.11395,2.64971 2.43132,3.63417c2.94323,2.19946 7.92982,3.64459 11.76731,3.71514c2.54384,0 5.52553,0.43589 8.02453,-0.008c1.28956,-0.22906 1.31225,-0.84719 1.7876,-1.44307c0.2551,-0.31979 0.84773,-0.0428 1.20204,-0.24725c2.39184,-1.38022 3.82686,-2.20539 6.64803,-2.21804c3.66974,-0.72524 8.25251,-0.65388 11.93299,-0.08709c1.98524,0.30572 4.0104,-0.18681 5.95627,0.34325c3.0852,0.22706 5.33223,0.2471 7.79357,-1.66587c0.38693,-0.30072 0.25858,-1.0455 0.67298,-1.30707c2.82958,-1.78595 3.49679,-3.17755 3.43534,-6.70189c-0.81359,-1.62718 -0.30424,-3.80018 -1.00316,-5.29499c-0.67394,-1.44138 -2.02147,-3.10869 -2.99856,-4.35031c-0.58438,-0.74259 -0.52654,-1.89901 -0.95194,-2.57053c-0.50863,-0.80289 -1.29058,-1.07996 -1.22996,-2.36792c0,-2.33311 -0.24036,-4.82478 -0.00256,-7.14644c0.36265,-3.54063 1.63335,-6.46947 1.63335,-10.1184c0,-3.88333 0.6927,-8.58877 -1.01654,-11.93302c-1.14817,-2.24649 -0.36945,-3.82979 -2.73749,-5.72568c-3.18261,-3.17126 -6.81779,-3.7154 -11.11845,-3.7154c-2.08471,0 -4.56369,-0.11171 -6.13867,1.39686c-1.61117,0.83385 -4.34816,0.97394 -5.84436,1.93939c-1.16564,0.75214 -3.12419,1.93803 -4.91291,2.37075c-0.07227,-0.07303 -0.1453,-0.10953 -0.1453,-0.10953z" fill="#c8b8b2" stroke="#000000" stroke-linecap="round"/><path d="M262.43628,142.68596c0,-17.24219 10.83532,-31.21975 24.20136,-31.21975c4.33867,0 11.93201,4.05194 11.93201,4.05194l15.96851,-4.52294l-7.86346,14.17629c0,0 4.16429,11.02301 4.16429,17.51445c0,17.24219 -10.83531,31.21975 -24.20135,31.21975c-13.36604,0 -24.20136,-13.97756 -24.20136,-31.21975z" fill="#000000" stroke="none" stroke-linecap="butt"/><g fill="#b16a70" stroke="none" stroke-linecap="butt"><path d="M212.5163,117.79207c1.49581,2.30181 1.32272,3.95429 1.74912,6.61759c0.09948,0.62135 0.64568,1.25445 1.02352,1.89438c-0.03948,-1.33689 -0.03084,-2.66676 0.14844,-3.9182c0.40578,-2.83256 0.71193,-3.92239 -1.38773,-6.02205c-0.52355,-1.04711 -1.24519,-2.92244 -1.01171,-4.41058c1.09782,0.05911 2.18937,0.28885 3.27892,0.8409c1.2656,0.62577 2.90371,0.63718 4.06007,1.47231c1.1213,0.8098 1.94438,1.48651 2.73552,1.9663c0.19181,4.04847 1.21598,7.14384 6.21422,7.22225c0.80403,0.382 2.3087,0.74388 2.92138,1.34149c1.34499,1.31189 2.16407,3.43032 4.21093,3.82328c1.02976,0.1977 1.90592,-0.01815 2.83643,-0.0248v-0.23451h0.73783c0.27614,0 0.5,0.22386 0.5,0.5c0,0.1996 -0.11696,0.37189 -0.28608,0.45206l-0.3678,0.18389c-0.71918,1.6653 -3.00925,4.10179 -1.21417,5.89687c0.77989,0.77989 2.17189,0.71063 3.0673,1.13605c0.90396,0.45198 2.07627,0.35013 2.83531,1.07743c1.44669,1.3862 1.71059,4.4812 4.2839,4.5277c0.41174,0.00744 1.49692,-0.7858 1.88811,-0.97165c1.29894,0 3.72705,-2.16264 4.96715,-0.76c0.19592,0.2216 -0.37065,1.79966 -0.43058,2.09933c-0.73159,3.65795 -2.33163,3.58237 -5.89735,3.58237c-1.30253,0 -2.10539,0.52506 -3.32831,0.72445c-3.93223,0.6411 -7.50057,-0.79212 -10.91399,-2.49883c-1.76666,-0.88333 -3.77445,-2.19313 -5.04879,-3.53685c-1.79711,-1.89496 -4.30291,-1.16877 -5.75032,-3.81908c-0.01251,-0.02633 -0.02488,-0.05372 -0.03711,-0.08211c0.00037,0.0347 0.00055,0.06952 0.00055,0.10445c0,2.23899 0.12172,4.7705 -0.2524,6.96647c-0.47083,2.7636 -1.24715,5.26623 -0.26514,8.12382c0.79766,2.45191 1.71307,5.21096 1.24891,7.86241c-0.40506,2.31382 -2.73897,4.09133 -2.71228,6.42928c-0.63322,1.26645 -0.23256,3.38747 -0.23256,4.80396c0,3.58004 0.02868,7.16149 -0.00646,10.74136c0.70598,2.06381 1.78418,4.35539 2.84778,6.16172c1.07215,1.82085 2.77761,3.56414 2.81534,5.96953c0,2.87559 -0.84628,5.18295 -1.23617,7.95023c-0.33539,2.38045 0.04482,5.01996 -0.00691,7.42924c0.49276,0.91417 2.24214,2.11428 2.44714,2.90807c0.21476,0.83157 -0.70252,1.34029 -1.10456,1.74138c-1.76918,1.76506 -5.5123,2.06942 -7.89767,2.84535c-3.51046,0.02771 -13.28347,1.0288 -13.36907,-4.42861c0,-3.72083 0.78758,-7.8923 3.36634,-10.45846c0.81671,-0.81272 0.95972,-2.15689 1.96753,-2.70536c1.37126,-2.0231 -0.01752,-5.71107 -1.30442,-7.44889c-0.20023,-0.27039 -0.34562,-0.64048 -0.49281,-1.01774c-0.24458,0.04354 -0.4389,-0.15077 -0.4389,-0.15077l-0.39238,-0.5995c0,-0.20433 -0.01085,-0.43323 -0.02756,-0.67903c-0.05865,-0.04057 -0.12111,-0.07535 -0.18793,-0.10347c0,0 -0.44721,-0.2236 -0.22361,-0.67082c0.0878,-0.17559 0.21008,-0.24777 0.32621,-0.27067c-0.10581,-1.25014 -0.19637,-2.6378 0.18757,-3.45772c0.87012,-1.85823 2.90019,-4.22226 2.87662,-6.62351c0,-2.04101 0.39662,-4.52934 0.01338,-6.52556c-0.13163,-0.68562 -0.86092,-1.26873 -0.98377,-1.96753c-0.38036,-2.16359 0.92397,-3.57477 2.72244,-4.49716c4.44943,-2.22472 1.10674,-7.13035 -0.26301,-10.01341c-0.04355,-2.77644 -0.2376,-7.63066 1.85467,-9.81423c0.90137,-0.94072 1.95553,-1.26807 2.59697,-2.54315c0.59122,-1.77366 1.08277,-3.67105 0.71314,-5.59638c-0.48018,-2.50115 -3.40973,-3.76938 -3.45656,-6.75531c0,-0.75657 -0.03009,-1.53817 -0.06428,-2.32965c-0.22665,0.27504 -0.55588,0.31902 -1.00325,0.48136c-0.63963,0.00698 -1.66298,0.18361 -2.27067,-0.015c-3.65063,-1.19308 -0.49671,-6.50414 -3.32099,-8.52827c-0.366,-1.01817 -1.26685,-1.61765 -1.45998,-2.78051c-0.22994,-1.38454 -0.17923,-3.25113 0.20475,-5.0357c1.68944,-0.1349 3.34898,-0.44932 4.99295,-0.43692c-0.33729,1.90763 -0.66805,3.76505 0.00685,5.85475zM223.39367,132.79794c-0.46739,-2.38827 -1.12039,-4.89947 -2.54624,-5.33819c0.74997,1.93198 1.80106,3.56324 2.54624,5.33819z"/><path d="M235.39812,114.30705c-0.29883,0.24561 -0.72782,0.28878 -1.03634,0.5221c-1.0469,0.79173 -1.17467,2.94274 -1.5463,4.05584c-0.51402,0.984 0.25526,3.88815 -1.0155,4.38328c-0.71368,0.27808 -1.54696,-1.15133 -2.02441,-1.3851c-1.4096,-0.69014 -3.11936,-3.03911 -3.92091,-4.86468c0.6408,-0.0077 1.37992,-0.11886 2.28236,-0.34908c1.63049,-0.80618 3.33339,-2.13036 5.15092,-2.45526c0.79264,-0.14169 1.60171,-0.23686 2.41393,-0.32908c-0.09576,0.15876 -0.21196,0.34655 -0.30374,0.42198z"/><path d="M244.64027,114.95582c-0.87988,0.91405 -2.57311,1.16929 -3.76303,1.16929c-1.16977,-0.01277 -4.9879,-0.6698 -5.01037,-2.25876c1.75988,-0.19929 3.53026,-0.39854 5.17611,-1.04019c1.54439,-0.30978 2.88376,-0.59235 4.18325,-0.66461c0.27832,0.91245 -0.00586,2.19163 -0.58596,2.79426z"/><path d="M255.55886,124.44028c-1.95921,0.9446 -5.05022,1.15465 -7.24186,0.88668c-0.27987,-0.03422 -2.64149,-0.71916 -2.64562,-0.71621c-0.54651,0.3892 -0.93504,1.29077 -1.15778,1.88725c-0.6021,0.42401 -0.89821,1.10198 -1.61625,1.36837c-2.72593,1.01134 -8.23215,0.49881 -9.31341,-2.53659c-1.32506,-3.97518 1.78386,-10.33237 6.47273,-9.13907c3.91852,2.75878 4.97507,-2.36784 7.18782,-3.94547c0.85228,0.12825 1.72425,0.38728 2.66217,0.82838c0.93282,0.4387 1.88808,2.06773 2.63983,2.81643c2.8346,2.03907 3.53128,4.99563 4.14712,8.09387c-0.43973,0.19701 -0.83191,0.35354 -1.13474,0.45636z"/><path d="M256.21989,139.30957c-2.56652,0 -4.85725,0.70938 -7.25029,1.01639c-0.68263,0.08757 -1.27282,0.04342 -1.71425,-0.59856c-0.42063,-0.61173 -0.45661,-2.36942 -0.72111,-3.16466c-0.59658,-3.21195 -7.85084,-0.34088 -6.10616,-3.76895c0.31765,-0.62413 0.67513,-0.84249 1.05598,-1.42147c0.40109,-0.60974 0.88701,-1.07132 1.40209,-1.58451c0.61826,-0.82663 1.08152,-1.82028 1.72891,-2.41259c1.96088,-1.79404 6.24858,-0.99882 8.70678,-0.99882c0.84645,0.00704 2.83352,0.12983 3.60553,-0.14902c0.06959,-0.02514 0.13835,-0.0516 0.2063,-0.07932c0.06248,0.28331 0.12822,0.56632 0.19875,0.84843c-0.03069,4.01031 -0.00618,8.02172 -0.00391,12.03223c-0.27348,0.173 -0.63017,0.27564 -1.10861,0.28086z"/></g></g><path d="M244.24426,200.98891l10.5397,-26.34395l16.60881,7.99219l-4.83438,18.35176z" fill="#000000" stroke="#000000" stroke-width="0" stroke-linecap="butt"/></g></g></svg>