<svg viewBox="0,0,92.25259,240.43934" height="240.43934" width="92.25259" xmlns:xlink="http://www.w3.org/1999/xlink" xmlns="http://www.w3.org/2000/svg" version="1.1"><defs><radialGradient id="color-1" gradientUnits="userSpaceOnUse" r="20.58333" cy="215" cx="236.50002"><stop stop-color="#b4c6fe" offset="0"></stop><stop stop-color="#6993fe" offset="1"></stop></radialGradient></defs><g transform="translate(-194.37372,-65.06051)"><g style="mix-blend-mode: normal" stroke-dashoffset="0" stroke-dasharray="" stroke-miterlimit="10" stroke-linejoin="miter" fill-rule="nonzero" data-paper-data="{&quot;isPaintingLayer&quot;:true}"><g stroke-linecap="round" stroke-width="1.5" stroke="#98e4ff" fill="none"><path d="M272.30001,206.4v39.2"></path><path d="M278.30001,239c0,0 0,-13.82144 0,-19.75c0,-4.85594 0,-13.25 0,-13.25"></path></g><g stroke-linecap="round" stroke-width="1.5" stroke="#98e4ff" fill="none"><path d="M209.30002,248.6v-42.4"></path><path d="M202.50002,240.6v-34.8"></path></g><path stroke-linecap="butt" stroke-width="1.5" stroke="#000000" fill="#9a9a9a" d="M243.95573,83.22886c0,-6.28224 5.59644,-11.375 12.5,-11.375c6.90356,0 12.5,5.09276 12.5,11.375c0,6.28224 -5.59644,11.375 -12.5,11.375c-6.90356,0 -12.5,-5.09276 -12.5,-11.375z"></path><path stroke-linecap="butt" stroke-width="1.5" stroke="#000000" fill="#9a9a9a" d="M214.70573,83.85385c0,-6.28224 5.59644,-11.375 12.5,-11.375c6.90356,0 12.5,5.09276 12.5,11.375c0,6.28224 -5.59644,11.375 -12.5,11.375c-6.90356,0 -12.5,-5.09276 -12.5,-11.375z"></path><path stroke-linecap="butt" stroke-width="1.5" stroke="none" fill="#000000" data-paper-data="{&quot;index&quot;:null}" d="M263.28283,66.74803c0,0 1.52429,0.31807 4.2558,1.11029c2.49492,0.72361 4.44935,1.74403 4.44935,1.74403l0.1951,1.17035c0,0 -7.24963,-3.12997 -15.1158,-2.4706c-6.2896,0.52724 -9.96319,2.8124 -9.96319,2.8124l0.04575,-4.17683c0,0 3.12748,-1.70421 7.86366,-1.85557c4.90428,-0.15672 8.09084,0.59125 8.09084,0.59125z"></path><path stroke-linecap="butt" stroke-width="1.4" stroke="#000000" fill="#ffffff" d="M217.72329,81.38814c0.07093,-4.89188 4.83834,-8.93609 10.21137,-8.8582c5.37302,0.0779 9.02724,4.2484 8.95632,9.14029c-0.07093,4.89188 -4.12352,8.79439 -9.49655,8.7165c-5.37302,-0.0779 -9.74207,-4.1067 -9.67114,-8.99859z"></path><path stroke-linecap="butt" stroke-width="1.5" stroke="none" fill="#000000" d="M222.16093,81.50609c0.03999,-2.75843 2.30855,-4.96213 5.06696,-4.92214c2.75843,0.03999 4.96213,2.30855 4.92214,5.06696c-0.03999,2.75843 -2.30854,4.96213 -5.06696,4.92214c-2.75843,-0.03999 -4.96213,-2.30855 -4.92214,-5.06696z"></path><path stroke-linecap="butt" stroke-width="1.4" stroke="#000000" fill="#ffffff" d="M246.77957,81.38888c0.20353,-4.88817 4.45264,-8.85847 9.77048,-8.85847c5.31783,0 9.27453,3.96607 9.27453,8.85847c0,4.8924 -3.88585,9.07104 -9.69964,9.14188c-5.52997,0.06739 -9.55792,-4.03692 -9.34537,-9.14188z"></path><path stroke-linecap="butt" stroke-width="1.5" stroke="none" fill="#000000" d="M251.38232,81.47443c0,-2.81845 2.2848,-5.10325 5.10325,-5.10325c2.81845,0 5.10325,2.2848 5.10325,5.10325c0,2.81845 -2.28479,5.10325 -5.10325,5.10325c-2.81845,0 -5.10325,-2.2848 -5.10325,-5.10325z"></path><path stroke-linecap="butt" stroke-width="1.5" stroke="none" fill="#000000" d="M221.1847,70.84431c0,0 3.36963,-1.819 8.03244,-2.28178c5.16698,-0.51283 7.76823,-0.06628 7.76823,-0.06628l0.29508,4.13747c0,0 -3.83554,-0.68065 -8.01795,-0.52113c-5.59346,0.21333 -6.64488,1.43293 -10.89774,1.89119c-3.64408,0.39266 -6.73723,0.15884 -6.73723,0.15884l-0.02589,-1.23155c0,0 3.59517,0.07398 5.23371,-0.06836c1.35239,-0.11749 3.9757,-0.93808 3.9757,-0.93808z"></path><path stroke-linecap="butt" stroke-width="1.15" stroke="#000000" fill="#dd6448" data-paper-data="{&quot;index&quot;:null}" d="M265.40002,85.06692c0,0 0.21116,6.1952 -9.57878,5.96267c-8.30949,-0.21843 -8.16621,-6.32232 -8.16621,-6.32232z"></path><path stroke-linecap="butt" stroke-width="1.15" stroke="#000000" fill="#dd6448" data-paper-data="{&quot;index&quot;:null}" d="M236.40002,85.71465c0,0 0.21117,5.86889 -9.57877,5.64861c-8.3095,-0.20693 -8.16622,-5.98933 -8.16622,-5.98933z"></path><g><path stroke-linecap="butt" stroke-width="0" stroke="none" fill="#ffffff" d="M268.75444,114.28969c0,2.44129 -12.28813,11.1982 -25.50054,11.1982c-13.21241,0 -25.32528,-6.69409 -25.32528,-9.13538c0,-2.44129 -10.84638,-6.63051 2.36603,-6.63051c13.21241,0 48.4598,2.1264 48.4598,4.56769z"></path><g stroke="#000000"><path stroke-linecap="round" stroke-width="1" fill="none" d="M265.5365,114.50694c0,0 -14.10201,2.33593 -21.65308,2.01279c-8.14418,-0.34852 -25.56737,-4.03352 -25.56737,-4.03352"></path><path stroke-linecap="butt" stroke-width="1.4" fill="#edb35b" d="M253.85787,107.74077c0.79975,0.24973 4.32345,1.64958 8.44599,3.05989c4.15538,1.42155 10.11416,2.70282 10.08682,2.90033c-0.01985,0.14332 -9.6264,0.37288 -17.85063,0.25475c-6.1599,-0.08848 -11.54434,-0.51986 -11.54434,-0.51986c0,0 -12.48519,-0.57369 -17.58712,-1.06365c-5.63435,-0.5411 -14.78053,-2.04477 -14.78053,-2.04477c0,0 5.42378,-0.83776 9.56811,-1.64398c1.60659,-0.58538 7.62697,-1.75061 7.62697,-1.75061c0,0 6.94856,-0.32729 10.66748,0.6825c3.98479,1.08199 3.97558,2.88272 4.32279,2.91042c0,0 1.66058,-2.06203 3.32136,-2.48083c1.66079,-0.41879 7.1257,-0.49075 7.72311,-0.30421z"></path><path stroke-linecap="butt" stroke-width="1.9" fill="#edb35b" d="M272.05226,114.45119c0.06068,0.42962 -12.66256,15.20637 -29.65155,14.67217c-19.30616,-0.51368 -32.05825,-17.8412 -32.0052,-18.04056c0.03563,-0.13389 4.50748,1.04934 13.8104,4.16835c4.54951,1.52532 12.24423,3.75879 16.72549,4.00361c7.04211,0.38472 16.34688,-1.32191 22.34603,-3.22661c5.62465,-1.7858 8.77483,-1.57695 8.77483,-1.57695z"></path></g></g><path stroke-linecap="butt" stroke-width="0" stroke="none" fill="url(#color-1)" d="M220.43321,223.03593c0,-11.36786 9.21547,-20.58333 20.58334,-20.58333c11.36786,0 20.58333,9.21547 20.58333,20.58333c0,11.36786 -9.21547,20.58334 -20.58333,20.58334c-11.36786,0 -20.58334,-9.21547 -20.58334,-20.58334z"></path><g><g stroke-linecap="butt" stroke-width="2" stroke="#000000"><path fill="#dfb85c" d="M200.37371,206.75253c-0.05797,-8.63205 -0.10618,-15.81752 -0.13664,-20.37296c-0.05451,-8.15261 8.18688,-36.76129 40.20201,-36.9211c31.60235,-0.15775 39.85672,29.48704 39.84884,36.89673c-0.01085,6.54727 0.01166,20.89938 0.01166,20.89938l-9.98982,-0.00398l-0.02303,-17.65589c0,0 0.07549,-3.0993 -2.81625,-3.15415c-3.43441,-0.06514 -2.94538,3.11562 -2.94538,3.11562l0.04724,22.07268c-2.96672,-10.49496 -12.61524,-13.85191 -24.05991,-13.85191c-11.67162,0 -21.47512,3.66497 -24.22848,14.47951l-0.07241,-22.99119c0,0 0.27949,-2.919 -2.8856,-2.93443c-3.11083,-0.01515 -2.81569,2.90899 -2.81569,2.90899c0,0 0.02858,9.3128 0.05374,17.51381z"></path><path fill="#dfb85c" d="M264.73055,304.42614l-48.21366,0.07222l-0.19984,-71.23888c2.79811,10.74923 12.57007,14.51747 24.19534,14.51747c11.47602,0 21.14603,-3.56581 24.08414,-14.10488z"></path><path fill="#4b1c09" d="M259.93318,159.23769c0,5.03597 -8.61852,9.11842 -19.25,9.11842c-10.63148,0 -19.25,-4.08246 -19.25,-9.11842c0,-5.03597 8.61852,-9.11842 19.25,-9.11842c10.63148,0 19.25,4.08245 19.25,9.11842z"></path></g><g><path stroke-linecap="round" stroke-width="1.5" stroke="#000000" fill="#edb35b" d="M195.25002,229.75h3.625v9.375h5v-5.75h3.25v14h3.5v-11.5h3.75v66.25h-19.25z"></path><path stroke-linecap="butt" stroke-width="0" stroke="none" fill="#7299fe" d="M209.83336,258.66667c0,4.60237 -2.23857,8.33333 -5,8.33333c-2.76143,0 -5,-3.73096 -5,-8.33333c0,-4.60237 2.23857,-8.33333 5,-8.33333c2.76143,0 5,3.73096 5,8.33333z"></path></g><g><path stroke-linecap="round" stroke-width="1.5" stroke="#000000" fill="#edb35b" data-paper-data="{&quot;index&quot;:null}" d="M285.87502,301.625h-19.25v-66.25h3.75v11.5h3.5v-14h3.25v5.75h5v-9.375h3.625z"></path><path stroke-linecap="butt" stroke-width="0" stroke="none" fill="#7299fe" d="M281.50002,258.33333c0,4.60237 -2.23858,8.33333 -5,8.33333c-2.76142,0 -5,-3.73096 -5,-8.33333c0,-4.60237 2.23858,-8.33333 5,-8.33333c2.76142,0 5,3.73096 5,8.33333z"></path></g></g><path stroke-linecap="round" stroke-width="1.5" stroke="#7a5a15" fill="none" d="M216.76521,194.6427l24.2,-21.2l22.8,21.7"></path><path stroke-linecap="round" stroke-width="1.5" stroke="#7a5a15" fill="none" d="M229.76521,166.8427l-29,26.8"></path><path stroke-linecap="round" stroke-width="1.5" stroke="#7a5a15" fill="none" d="M251.96521,166.3427l27.5,25.4"></path><path stroke-linecap="round" stroke-width="1.5" stroke="#7a5a15" fill="none" d="M264.16521,252.4427l-25.2,14.5l-22.6,-16.2"></path><path stroke-linecap="round" stroke-width="1.5" stroke="#7a5a15" fill="none" d="M264.06521,268.5427l-25.5,14.9l-22.1,-17.1"></path><g stroke-linecap="butt"><g stroke-width="2" stroke="#000000"><path fill="none" d="M200.37371,206.75253c-0.05797,-8.63205 -0.10618,-15.81752 -0.13664,-20.37296c-0.05451,-8.15261 8.18688,-36.76129 40.20201,-36.9211c31.60235,-0.15775 39.85672,29.48704 39.84884,36.89673c-0.01085,6.54727 0.01166,20.89938 0.01166,20.89938l-9.98982,-0.00398l-0.02303,-17.65589c0,0 0.07549,-3.0993 -2.81625,-3.15415c-3.43441,-0.06514 -2.94538,3.11562 -2.94538,3.11562l0.04724,22.07268c-2.96672,-10.49496 -12.61524,-13.85191 -24.05991,-13.85191c-11.67162,0 -21.47512,3.66497 -24.22848,14.47951l-0.07241,-22.99119c0,0 0.27949,-2.919 -2.8856,-2.93443c-3.11083,-0.01515 -2.81569,2.90899 -2.81569,2.90899c0,0 0.02858,9.3128 0.05374,17.51381z"></path><path fill="none" d="M264.73055,304.42614l-48.21366,0.07222l-0.19984,-71.23888c2.79811,10.74923 12.57007,14.51747 24.19534,14.51747c11.47602,0 21.14603,-3.56581 24.08414,-14.10488z"></path><path fill="#4b1c09" d="M259.93318,159.23769c0,5.03597 -8.61852,9.11842 -19.25,9.11842c-10.63148,0 -19.25,-4.08246 -19.25,-9.11842c0,-5.03597 8.61852,-9.11842 19.25,-9.11842c10.63148,0 19.25,4.08245 19.25,9.11842z"></path></g><g text-anchor="start" font-size="12" font-weight="normal" font-family="sans-serif" stroke-width="1" stroke="none" fill="none"></g><g text-anchor="start" font-size="12" font-weight="normal" font-family="sans-serif" stroke-width="1" stroke="none" fill="none"></g></g><path stroke-linecap="butt" stroke-width="1.5" stroke="#000000" fill="#aca9ca" d="M230.58986,143.15722v-7.66667h19.66667v7.66667z"></path><path stroke-linecap="butt" stroke-width="1.5" stroke="#000000" fill="#aca9ca" d="M230.58987,155.15722v-7.66666h19.66667v7.66666z"></path></g></g></svg>