<svg version="1.1" xmlns="http://www.w3.org/2000/svg" xmlns:xlink="http://www.w3.org/1999/xlink" width="171.07883" height="307.86402" viewBox="0,0,171.07883,307.86402"><g transform="translate(-155.62764,-0.69209)"><g data-paper-data="{&quot;isPaintingLayer&quot;:true}" fill-rule="nonzero" stroke-linejoin="miter" stroke-miterlimit="10" stroke-dasharray="" stroke-dashoffset="0" style="mix-blend-mode: normal"><g fill="#302b87" stroke-linecap="butt"><path d="M301.22905,171.09369c0.93064,-0.49464 0.61664,7.84684 -6.43359,9.41733c-2.49427,12.24401 9.97403,19.40005 14.8417,22.07737c2.06358,1.13502 -9.74513,2.4351 -13.34019,0.90092c-1.07952,-0.46069 -5.45612,-5.59971 -5.62686,-5.55314c-0.47547,0.02218 -1.00489,1.77191 -0.65221,3.19406c0.44491,1.79407 1.83235,3.34417 1.35023,3.34514c-14.91798,0.0302 -5.27218,-84.52659 -5.42871,-84.56687c-0.91677,-0.23597 -5.7591,50.16544 15.28962,51.18517z" data-paper-data="{&quot;index&quot;:null}" stroke="none" stroke-width="0"/><path d="M193.99661,113.90318c-0.15652,0.04028 9.48927,84.59707 -5.42871,84.56687c-0.48212,-0.00098 0.90532,-1.55107 1.35023,-3.34514c0.35268,-1.42215 -0.17674,-3.1719 -0.65221,-3.19406c-0.17074,-0.04657 -4.54734,5.09245 -5.62687,5.55314c-3.59505,1.53418 -15.40377,0.2341 -13.34019,-0.90092c4.86768,-2.67733 17.33597,-9.83336 14.8417,-22.07737c-7.05023,-1.57049 -7.36423,-9.91197 -6.43359,-9.41733c21.04872,-1.01973 16.20638,-51.42113 15.28962,-51.18517z" data-paper-data="{&quot;index&quot;:null}" stroke="none" stroke-width="0"/><path d="M271.74021,135.00532c-0.15652,0.04028 9.48928,84.59707 -5.42871,84.56687c-0.48212,-0.00098 0.90532,-1.55107 1.35023,-3.34514c0.35268,-1.42215 -0.17674,-3.1719 -0.6522,-3.19406c-0.17074,-0.04657 -4.54734,5.09245 -5.62687,5.55314c-3.59505,1.53418 -15.40377,0.2341 -13.34019,-0.90092c4.86768,-2.67733 17.33597,-9.83336 14.8417,-22.07737c-7.05023,-1.57049 -7.36423,-9.91197 -6.43359,-9.41732c21.04872,-1.01973 16.20638,-51.42113 15.28962,-51.18518z" data-paper-data="{&quot;index&quot;:null}" stroke="none" stroke-width="0"/><path d="M289.49132,176.5531c0.93064,-0.49464 0.61664,7.84684 -6.43359,9.41733c-2.49427,12.24401 9.97403,19.40005 14.8417,22.07737c2.06358,1.13502 -9.74513,2.4351 -13.34019,0.90092c-1.07952,-0.46069 -5.45613,-5.59971 -5.62687,-5.55314c-0.47546,0.02218 -1.00488,1.77191 -0.65221,3.19406c0.44491,1.79407 1.83235,3.34417 1.35023,3.34514c-14.91799,0.0302 -5.27218,-84.52659 -5.42871,-84.56687c-0.91676,-0.23597 -5.7591,50.16544 15.28962,51.18517z" data-paper-data="{&quot;index&quot;:null}" stroke="none" stroke-width="0"/><path d="M222.75333,183.46081c0.93064,-0.49464 0.61664,7.84683 -6.43359,9.41732c-2.49427,12.24401 9.97404,19.40005 14.8417,22.07737c2.06358,1.13502 -9.74513,2.4351 -13.34019,0.90092c-1.07953,-0.46069 -5.45612,-5.59971 -5.62687,-5.55314c-0.47546,0.02218 -1.00488,1.77191 -0.6522,3.19406c0.44491,1.79407 1.83235,3.34417 1.35023,3.34514c-14.91798,0.0302 -5.27218,-84.52659 -5.42871,-84.56687c-0.91677,-0.23597 -5.7591,50.16545 15.28962,51.18518z" data-paper-data="{&quot;index&quot;:null}" stroke="none" stroke-width="0"/><path d="M205.4903,120.45447c-0.15652,0.04028 9.48927,84.59707 -5.42871,84.56687c-0.48212,-0.00098 0.90532,-1.55107 1.35023,-3.34514c0.35268,-1.42215 -0.17674,-3.1719 -0.6522,-3.19406c-0.17074,-0.04657 -4.54734,5.09245 -5.62687,5.55314c-3.59505,1.53418 -15.40377,0.2341 -13.34019,-0.90092c4.86768,-2.67733 17.33597,-9.83336 14.8417,-22.07737c-7.05023,-1.57049 -7.36423,-9.91197 -6.43359,-9.41733c21.04872,-1.01973 16.20639,-51.42113 15.28962,-51.18517z" data-paper-data="{&quot;index&quot;:null}" stroke="none" stroke-width="0"/><path d="M197.82865,168.7204c0.93064,-0.49464 0.61664,7.84683 -6.43359,9.41732c-2.49427,12.24401 9.97404,19.40005 14.8417,22.07737c2.06358,1.13502 -9.74513,2.4351 -13.34019,0.90092c-1.07953,-0.46069 -5.45612,-5.59971 -5.62686,-5.55314c-0.47546,0.02218 -1.00489,1.77191 -0.65221,3.19406c0.44491,1.79407 1.83235,3.34417 1.35023,3.34514c-14.91798,0.0302 -5.27218,-84.52659 -5.42871,-84.56687c-0.91677,-0.23597 -5.7591,50.16545 15.28962,51.18518z" data-paper-data="{&quot;index&quot;:null}" stroke="none" stroke-width="0"/><path d="M296.90891,117.53521c-0.15652,0.04028 9.48928,84.59707 -5.42871,84.56687c-0.48212,-0.00098 0.90532,-1.55107 1.35023,-3.34514c0.35268,-1.42215 -0.17674,-3.1719 -0.65221,-3.19406c-0.17074,-0.04657 -4.54734,5.09245 -5.62687,5.55314c-3.59505,1.53418 -15.40377,0.2341 -13.34019,-0.90092c4.86768,-2.67733 17.33596,-9.83336 14.8417,-22.07737c-7.05023,-1.57049 -7.36423,-9.91197 -6.43359,-9.41732c21.04872,-1.01973 16.20639,-51.42113 15.28962,-51.18518z" data-paper-data="{&quot;index&quot;:null}" stroke="none" stroke-width="0"/><path d="M314.66002,159.08299c0.93064,-0.49464 0.61664,7.84684 -6.43359,9.41733c-2.49427,12.24401 9.97404,19.40005 14.8417,22.07737c2.06358,1.13502 -9.74513,2.4351 -13.34019,0.90092c-1.07952,-0.46069 -5.45613,-5.59971 -5.62687,-5.55314c-0.47546,0.02218 -1.00488,1.77191 -0.6522,3.19406c0.44491,1.79407 1.83235,3.34417 1.35023,3.34514c-14.91799,0.0302 -5.27218,-84.52659 -5.42871,-84.56687c-0.91676,-0.23597 -5.7591,50.16544 15.28962,51.18517z" data-paper-data="{&quot;index&quot;:null}" stroke="#000000" stroke-width="2"/><path d="M180.56563,105.71406c-0.15652,0.04028 9.48927,84.59707 -5.42871,84.56687c-0.48212,-0.00098 0.90532,-1.55107 1.35023,-3.34514c0.35268,-1.42215 -0.17674,-3.1719 -0.65221,-3.19406c-0.17074,-0.04657 -4.54734,5.09245 -5.62687,5.55314c-3.59505,1.53418 -15.40377,0.2341 -13.34019,-0.90092c4.86768,-2.67733 17.33597,-9.83336 14.8417,-22.07737c-7.05023,-1.57049 -7.36423,-9.91197 -6.43359,-9.41733c21.04872,-1.01973 16.20638,-51.42113 15.28962,-51.18517z" data-paper-data="{&quot;index&quot;:null}" stroke="#000000" stroke-width="2"/></g><path d="M160.02343,119.9865c0,0 11.19584,12.62254 13.35214,-3.21771c4.67523,-20.23318 7.34823,-34.03227 28.06475,-43.32359c6.17414,-2.76909 9.95134,-6.7433 29.6321,-3.35764c0.24144,0.04154 0.35692,0.05342 0.36286,0.03777c0.06961,-0.18337 -14.88819,-4.14551 -18.46139,-8.50348c-3.91011,-4.76888 -5.41845,-10.51999 -4.61095,-13.84526c6.53248,-18.81072 34.14034,-19.08391 36.01807,-19.48342c19.30974,-2.10832 45.48468,17.06325 4.92227,27.1663c-2.05566,0.51201 27.50938,-11.40873 -11.40892,-14.0594c-19.78575,2.60711 -27.68716,8.81808 -4.274,22.39772c6.74771,-0.59946 15.65379,-0.92751 16.56562,-1.61709c22.08812,2.63953 24.51248,6.58172 32.18506,11.3592c6.17518,3.8451 14.06649,10.52308 18.44144,19.63532c3.37192,7.0231 2.06955,16.50787 5.69805,23.52708c6.92091,13.38824 15.05593,2.03251 15.05593,2.03251c0,0 1.44682,8.76553 -1.41643,14.63621c-2.05695,4.21747 -7.30611,6.21507 -12.39886,5.78189c-0.11182,0.59282 -0.36027,10.08548 4.33635,12.21282c3.96083,1.79406 12.64871,-1.42264 12.64871,-1.42264c0,0 -14.65164,6.37914 -15.62705,10.57541c-1.7558,7.55362 19.13588,-1.13314 16.3392,1.26495c-1.37818,1.18175 -7.26428,5.56839 -12.77969,6.82385c-5.31453,1.20974 -10.28488,-0.70231 -10.54628,-0.03679c-3.49395,8.89536 -10.36285,18.18124 -10.36285,18.18124c0,0 -2.29192,-5.28642 -3.77673,-3.14158c-6.07718,8.77862 -11.2964,15.30957 -11.2964,15.30957c0,0 -2.40974,-4.97718 -4.47106,-3.86765c-9.32569,5.01966 -20.06286,7.91078 -31.65348,7.91078c-12.60656,0 -24.772,-3.56633 -35.27102,-9.52744c-2.72845,-1.54916 -0.82623,4.38789 -0.82623,4.38789c0,0 -7.93843,-5.19677 -13.15685,-11.00681c-6.08759,-6.77777 -9.73663,-14.57056 -12.13914,-18.68944c-0.34082,-0.58431 -4.01999,1.58785 -5.934,2.01254c-2.96082,0.65696 -4.48364,-0.08182 -4.48364,-0.08182c0,0 2.67098,-3.37669 3.55098,-5.15497c0.94364,-1.90688 1.93325,-5.92746 1.93325,-5.92746c0,0 -2.66402,1.90888 -4.05965,2.38502c-1.48595,0.50696 -4.60208,0.57008 -4.60208,0.57008c0,0 4.39229,-5.64339 5.74307,-11.5602c0.39327,-1.72262 4.12301,-9.97893 -0.21176,-9.96905c-17.00132,0.5205 -11.08139,-20.4147 -11.08139,-20.4147z" fill="#4e45f0" stroke="#000000" stroke-width="2" stroke-linecap="butt"/><g stroke="#000000"><path d="M206.71803,307.55609l15.14285,-131.8421l37.78325,-0.15789l13.57389,132z" fill="#ffffff" stroke-width="2" stroke-linecap="butt"/><path d="M219.66826,204.16875l3.12142,-26.32765l35.83075,-0.14203l2.76735,26.1059c0,0 -7.51543,4.19603 -21.55904,4.50964c-12.48458,0.27879 -20.16049,-4.14586 -20.16049,-4.14586z" fill="#e6e6e6" stroke-width="0" stroke-linecap="butt"/><path d="M254.79495,219.05612l3,-28" fill="none" stroke-width="2" stroke-linecap="round"/><path d="M206.71803,307.55609l15.14285,-131.8421c0,0 5.99728,36.24339 22.93006,36.88329c28.90943,1.0925 18.35318,-21.04117 18.35318,-21.04117l10.07389,116z" fill="#94869a" stroke-width="2" stroke-linecap="butt"/><path d="M262.54495,219.05611c0,0 -13.46231,2.23056 -18.94179,0.78011c-5.83188,-1.54373 -16.55821,-8.78011 -16.55821,-8.78011" fill="none" stroke-width="0.5" stroke-linecap="round"/><path d="M254.04495,224.55611c0,0 -4.70146,1.09587 -6.9358,0.66619c-2.08924,-0.40177 -6.0642,-3.16619 -6.0642,-3.16619" fill="none" stroke-width="1" stroke-linecap="round"/><path d="M246.04495,254.05611c0,0 -11.53456,-5.08122 -15.43624,-7.19463c-0.81083,-0.4392 -11.56376,-14.30537 -11.56376,-14.30537" fill="none" stroke-width="0.5" stroke-linecap="round"/><path d="M239.04495,255.05611c0,0 -8.40896,-2.62721 -11.78907,-4.40177c-3.28377,-1.72398 -8.21093,-6.09823 -8.21093,-6.09823" fill="none" stroke-width="1" stroke-linecap="round"/><path d="M211.54495,302.55611l55.5,0.5" fill="none" stroke-width="1" stroke-linecap="round"/><path d="M265.54495,275.05611c0,0 -8.1762,1.73819 -11.98388,1.58887c-4.55699,-0.1787 -13.51612,-2.58887 -13.51612,-2.58887" fill="none" stroke-width="0.5" stroke-linecap="round"/><path d="M258.04495,256.55611l9.5,-2" fill="none" stroke-width="1" stroke-linecap="round"/><path d="M225.04495,268.55611h5.5" fill="none" stroke-width="1" stroke-linecap="round"/><path d="M253.04495,296.05611c0,0 -15.2639,-4.18633 -21.85382,-7.86642c-6.22229,-3.47479 -16.64618,-13.63358 -16.64618,-13.63358" fill="none" stroke-width="1" stroke-linecap="round"/><path d="M256.04495,284.55611c0,0 -12.443,-0.2942 -18.02819,-1.90206c-5.40917,-1.55718 -14.97181,-7.59794 -14.97181,-7.59794" fill="none" stroke-width="1" stroke-linecap="round"/><path d="M224.04495,297.05611c0,0 -3.69928,-1.61165 -4.92301,-3.06483c-1.41506,-1.68037 -3.07699,-6.43517 -3.07699,-6.43517" fill="none" stroke-width="1" stroke-linecap="round"/></g><path d="M175.80793,134.40979c0,-33.30185 28.7599,-60.29833 64.23702,-60.29833c35.47712,0 64.23702,26.99649 64.23702,60.29833c0,33.30185 -28.7599,60.29833 -64.23702,60.29833c-35.47712,0 -64.23702,-26.99649 -64.23702,-60.29833z" fill="#ffffff" stroke="#000000" stroke-width="2" stroke-linecap="butt"/><path d="M176.53099,134.4636c0,-0.72799 5.20666,52.91639 63.36046,53.93129c55.56352,0.9697 63.51358,-54.95014 63.51358,-53.93129c0,32.80479 -28.40173,59.39833 -63.43702,59.39833c-35.03529,0 -63.43702,-26.59354 -63.43702,-59.39833z" fill="#e6e6e6" stroke="#000000" stroke-width="0" stroke-linecap="butt"/><path d="M189.35814,127.33176c0,-12.968 10.51265,-23.48065 23.48065,-23.48065c12.968,0 23.48065,10.51265 23.48065,23.48065c0,12.968 -10.51265,23.48065 -23.48065,23.48065c-12.968,0 -23.48065,-10.51265 -23.48065,-23.48065z" fill="#ffffff" stroke="#000000" stroke-width="2" stroke-linecap="butt"/><path d="M196.42353,124.56061c0,-9.12808 7.39976,-16.52784 16.52783,-16.52784c9.12808,0 16.52784,7.39977 16.52784,16.52784c0,9.12808 -7.39977,16.52784 -16.52784,16.52784c-9.12808,0 -16.52783,-7.39977 -16.52783,-16.52784z" fill="#005a00" stroke="none" stroke-width="0" stroke-linecap="butt"/><path d="M267.09725,150.81238c-12.968,0 -23.48065,-10.51265 -23.48065,-23.48065c0,-12.968 10.51265,-23.48065 23.48065,-23.48065c12.968,0 23.48065,10.51265 23.48065,23.48065c0,12.968 -10.51265,23.48065 -23.48065,23.48065z" data-paper-data="{&quot;index&quot;:null}" fill="#ffffff" stroke="#000000" stroke-width="2" stroke-linecap="butt"/><path d="M266.98465,141.08846c-9.12807,0 -16.52783,-7.39977 -16.52783,-16.52784c0,-9.12808 7.39977,-16.52784 16.52783,-16.52784c9.12807,0 16.52783,7.39977 16.52783,16.52784c0,9.12808 -7.39977,16.52784 -16.52783,16.52784z" data-paper-data="{&quot;index&quot;:null}" fill="#005a00" stroke="none" stroke-width="0" stroke-linecap="butt"/><path d="M189.35815,127.33176c0,-12.968 10.51265,-23.48065 23.48065,-23.48065c12.968,0 23.48065,10.51265 23.48065,23.48065c0,0 -12.6372,-14.16859 -24.80058,-14.02153c-11.28426,0.13644 -22.16073,14.61421 -22.16073,14.02153z" fill="#000000" stroke="#000000" stroke-width="2" stroke-linecap="butt"/><path d="M243.61659,127.33611c0,-12.968 10.51265,-23.48065 23.48065,-23.48065c12.968,0 23.48065,10.51265 23.48065,23.48065c0,0 -10.80946,-14.21652 -22.05629,-14.05758c-12.19537,0.17235 -24.90502,14.69827 -24.90502,14.05758z" fill="#000000" stroke="#000000" stroke-width="2" stroke-linecap="butt"/><path d="M201.99581,98.52329c0,0 6.70895,-5.16922 11.79721,-6.36355c5.08827,-1.19433 12.33413,0.69937 12.33413,0.69937c0,0 -8.03812,-0.06028 -11.96762,0.86207c-4.10648,0.96389 -12.16372,4.80211 -12.16372,4.80211z" fill="#000000" stroke="none" stroke-width="0" stroke-linecap="butt"/><path d="M265.93035,93.72119c-3.9295,-0.92235 -11.96762,-0.86207 -11.96762,-0.86207c0,0 7.24586,-1.8937 12.33413,-0.69937c5.08826,1.19433 11.79721,6.36355 11.79721,6.36355c0,0 -8.05724,-3.83822 -12.16372,-4.80211z" data-paper-data="{&quot;index&quot;:null}" fill="#000000" stroke="none" stroke-width="0" stroke-linecap="butt"/><g fill="none" stroke="#000000" stroke-width="2" stroke-linecap="round"><path d="M189.34495,128.70227l-3.6,-2.6"/><path d="M290.14493,128.50227l4.2,-3.4"/></g><path d="" fill="#4e45f0" stroke="#4e45f0" stroke-width="3" stroke-linecap="butt"/><g stroke-linecap="butt"><path d="M293.43379,94.60476c1.4959,3.34507 10.36325,21.90565 10.87876,29.06651c1.3055,18.13456 -2.47754,27.98941 -3.31715,28.19333c-0.14335,0.03481 7.19076,37.64589 -6.47188,37.61981c-0.44155,-0.00085 0.82914,-1.34031 1.23661,-2.8906c0.323,-1.22892 -0.16187,-2.74088 -0.59733,-2.76005c-0.15637,-0.04024 -4.16468,4.40047 -5.15337,4.79856c-3.29253,1.32571 -14.10754,0.20229 -12.21761,-0.77851c4.45806,-2.31353 15.87714,-8.49718 13.59277,-19.07745c-6.45695,-1.35709 -6.74453,-8.5651 -5.8922,-8.13767c19.27747,-0.88117 8.01888,-38.09792 5.70114,-42.10377c-0.37946,-0.65583 1.5761,-23.33645 2.24026,-23.93017z" data-paper-data="{&quot;index&quot;:null}" fill="#4e45f0" stroke="#000000" stroke-width="2"/><path d="M180.34725,102.60696c11.42496,-21.44594 31.40973,-31.26872 60.56473,-31.06188c24.16321,0.17141 39.14424,8.76951 47.64651,16.29671c16.95139,14.55189 2.38278,31.93244 2.38278,31.93244c0,0 -1.39549,-9.11987 -12.29994,-17.68233c-14.08553,-11.06031 -14.04993,-9.89794 -14.04993,-9.89794c0,0 4.52448,1.81831 -5.04548,19.26601c-3.18352,5.20757 -14.90293,12.96319 -19.935,13.91128c-1.14365,-4.41371 5.20699,-20.79711 -20.82215,-33.74278c-8.3093,11.45733 -21.13836,8.25369 -31.11009,25.48823c-4.31775,13.46076 -12.07633,53.04124 12.20114,38.32181c0.85233,-0.42744 -0.93525,11.98079 -12.3922,11.91963c-0.11292,0.52298 -0.19235,1.03521 -0.2408,1.53676c-0.93171,9.64535 9.59588,15.34152 13.83357,17.54069c1.88993,0.9808 -8.92508,2.10422 -12.21761,0.77851c-0.98869,-0.39808 -4.99699,-4.8388 -5.15337,-4.79856c-0.43545,0.01915 -0.92032,1.53113 -0.59732,2.76005c0.40747,1.55029 1.67816,2.88975 1.23661,2.8906c-13.66263,0.02609 -6.32853,-37.58498 -6.47188,-37.61981c-0.83962,-0.2039 -4.62265,-10.05876 -3.31715,-28.19333c0.70354,-9.7729 5.78759,-19.64608 5.78759,-19.64608z" fill="#4e45f0" stroke="#000000" stroke-width="2"/><path d="M180.34725,102.60696c11.42496,-21.44594 31.40973,-31.26872 60.56473,-31.06188c24.16321,0.17141 39.14424,8.76951 47.64651,16.29671c1.48878,1.27804 3.10958,3.44492 4.74043,6.13294c-2.70669,1.389 -5.31348,2.86802 -7.88509,4.255l-0.67624,-0.38364l-0.67074,-0.54358l-0.0219,-0.02549l-0.07637,-0.05415l-0.45149,-0.36589l-0.1935,-0.09148l-0.15584,-0.11051l-0.11239,-0.53131l-1.08403,-0.65222l-0.83621,-0.9224l-0.76349,-0.04011l-1.51956,-0.91428l-0.23857,-0.16918l-0.5361,-0.50689l-0.02203,-0.10414l-0.24231,-0.1458l-0.19703,-0.18629l-1.97029,-1.11773l-1.9385,-1.16635l-0.26434,-0.08331l-0.29716,-0.16858l-0.24583,-0.1479l-1.26479,-1.39514l-0.49813,-0.02617l-0.6199,-0.50237l-0.41641,-0.19685l-0.05572,-0.09222l-0.27864,-0.06586l-0.24922,-0.11782l-2.24302,-0.47128l-1.17239,-0.27712l-0.39445,-0.23734l-1.5,-0.47275l-1.60277,-0.11657l-1.0684,-0.25254l-0.32883,-0.10364l-0.15832,-0.0115l-0.00395,-0.00094h-0.00889l-0.45887,-0.03337l-0.57108,-0.25576l-2.5,-0.47275l-0.90866,0.04091l-0.09134,-0.04091l-0.92194,-0.17434l-0.03922,-0.00928h-0.00981l-1.52903,-0.28914l-0.99488,0.0448l-0.96628,-0.2284h-11.5098l-1.52903,-0.28914l-0.99488,0.0448l-0.96628,-0.2284h-18.84752l-0.09346,-0.0589l-0.28037,0.0589h-0.27864l-2.22912,0.5269l-1.22834,0.25808l-0.19419,-0.05009l-0.25442,0.14433l-0.56606,0.11893l-0.24922,0.11782l-0.27864,0.06586l-0.05573,0.09222l-0.41641,0.19685l-1.22051,0.98912l-0.64104,0.36365l-0.13845,0.06545l-0.05384,0.04363l-0.54509,0.30923l-0.16621,0.15715l-0.35289,0.01853l-1.29004,1.423l-0.56826,0.46054l-0.1417,0.00744l-0.36696,0.40478l-0.42812,0.34695l-0.00787,0.13398l-0.88059,0.97136l-1.74016,1.80983l0.01055,0.14458l-0.29513,0.5581c-1.2038,0.626 -2.29917,1.24659 -3.17367,1.72031c-2.26415,1.22646 -13.99782,12.02717 -14.84836,13.13974c-3.47858,4.55016 -4.32324,7.03338 -7.34534,12.3084c-0.60444,1.05504 -2.17777,3.8687 -3.56112,6.80309c0.03888,-1.57853 0.11712,-3.23367 0.2417,-4.96421c0.70354,-9.7729 5.78759,-19.64608 5.78759,-19.64608z" fill="#4e45f0" stroke="#4e45f0" stroke-width="4"/><path d="M246.04495,66.28776l6.43886,10.43828l17.04179,2.06275l-12.34913,9.0316l4.11084,13.6803l-15.24236,-7.67665l-15.24235,7.67665l4.11083,-13.6803l-12.34913,-9.0316l17.04179,-2.06275z" fill="#ffe938" stroke="#000000" stroke-width="2"/></g><path d="M254.5228,163.07994c0,0 -4.74929,16.96641 -14.96735,17.14268c-8.42331,0.14532 -14.14224,-17.14268 -14.14224,-17.14268z" fill="#2a2580" stroke="#000000" stroke-width="2" stroke-linecap="round"/><g stroke-width="0" stroke-linecap="butt"><path d="M259.53424,15.45609l4.19625,11.8525l-8.16156,6.21503l-6.07539,-7.73323l-0.40412,18.01188l-12.36589,1.35569l-0.31757,-19.30415l-7.85505,8.25007l-7.84302,-6.5308l1.72257,-7.6859l16.75398,-16.9734l6.60819,-0.36506z" data-paper-data="{&quot;index&quot;:null}" fill="#ffffff" stroke="none"/><path d="M261.67228,24.28455c0.88565,1.95651 -0.84249,3.40051 -2.11464,4.45181c-1.31682,1.08821 -4.94211,2.96792 -4.94211,2.96792c0,0 -3.48572,-7.72522 -5.20166,-6.91896c-0.84889,0.39887 -0.79081,9.71799 -1.09463,15.68094c-0.08565,1.68099 -3.72899,2.98765 -5.35798,3.06191c-4.12766,0.1882 -5.37286,-0.70487 -5.66474,-2.73974c-0.35204,-2.45433 1.17477,-16.13779 -0.14465,-16.92594c-0.81027,-0.48401 -8.35389,8.55131 -8.35389,8.55131c0,0 -3.5069,-3.10942 -4.62641,-4.46206c-0.87662,-1.05918 -1.71361,-2.64172 -1.29777,-3.56077c0.62426,-1.37963 11.55011,-20.00374 20.21396,-19.81245c8.49098,0.18746 17.87646,18.14189 18.58451,19.70605z" data-paper-data="{&quot;index&quot;:null}" fill="#12fa05" stroke="#ffffff"/><path d="M265.9996,25.20874c1.0791,2.40966 -2.78559,4.36157 -4.33595,5.65649c-1.6048,1.3404 -6.38902,4.97831 -7.69007,3.51873c-2.32923,-2.61303 -3.23822,-3.72296 -3.23822,-3.72296c0,0 0.29519,4.48707 0.17241,11.83338c-0.06086,3.64138 -4.76819,4.86149 -6.74753,5.03831c-5.55626,0.49638 -9.00828,-0.54575 -9.65551,-2.98926c-0.74416,-2.80945 -0.37381,-14.62617 -0.37381,-14.62617c0,0 -2.64735,3.68322 -5.23932,5.22538c-2.41718,1.43819 -7.26975,-3.99184 -8.63387,-5.65772c-1.06816,-1.30445 -2.08517,-3.68175 -1.57834,-4.81371c0.76085,-1.69929 13.80539,-24.21216 24.36314,-23.9773c10.34713,0.23017 22.09431,22.58838 22.95703,24.51481zM243.06853,3.57735c-9.72242,-0.0252 -21.75769,20.13759 -21.71415,21.48221c0.08253,2.54836 6.4639,7.64441 6.4639,7.64441c0,0 7.88629,-9.45715 8.6556,-8.34466c1.18906,1.71947 0.25338,15.92713 0.55445,18.47211c0.32137,2.71654 9.99145,1.75268 11.16902,-0.13703c0.80976,-1.29947 -0.09371,-17.37671 0.99274,-18.21671c1.57336,-1.21646 6.23793,8.13512 6.23793,8.13512c0,0 7.23289,-4.72617 7.70138,-6.52097c0.51014,-1.95442 -10.8314,-22.4906 -20.06086,-22.51452z" data-paper-data="{&quot;index&quot;:null}" fill="#0a4447" stroke="#1542b7"/></g></g></g></svg>