<svg version="1.1" xmlns="http://www.w3.org/2000/svg" xmlns:xlink="http://www.w3.org/1999/xlink" width="34.67311" height="34.67311" viewBox="0,0,34.67311,34.67311"><defs><linearGradient x1="238.46567" y1="170.14054" x2="238.46567" y2="188.34184" gradientUnits="userSpaceOnUse" id="color-1"><stop offset="0" stop-color="#0e081f"/><stop offset="1" stop-color="#180f38"/></linearGradient><linearGradient x1="238.86582" y1="180.41597" x2="238.86582" y2="184.33607" gradientUnits="userSpaceOnUse" id="color-2"><stop offset="0" stop-color="#141219"/><stop offset="1" stop-color="#675980"/></linearGradient><linearGradient x1="238.81223" y1="180.41598" x2="238.81223" y2="183.42209" gradientUnits="userSpaceOnUse" id="color-3"><stop offset="0" stop-color="#0f002a"/><stop offset="1" stop-color="#290077"/></linearGradient><linearGradient x1="240.26175" y1="181.0492" x2="240.26175" y2="182.49189" gradientUnits="userSpaceOnUse" id="color-4"><stop offset="0" stop-color="#191919"/><stop offset="1" stop-color="#414141"/></linearGradient></defs><g transform="translate(-222.66347,-162.66346)"><g data-paper-data="{&quot;isPaintingLayer&quot;:true}" stroke-miterlimit="10" stroke-dasharray="" stroke-dashoffset="0" style="mix-blend-mode: normal"><path d="M229.98313,162.91346h20.03379c3.9166,0 7.06966,3.15307 7.06966,7.06966v20.03379c0,3.91659 -3.15306,7.06966 -7.06966,7.06966h-20.03379c-3.91659,0 -7.06966,-3.15307 -7.06966,-7.06966v-20.03379c0,-3.91659 3.15307,-7.06966 7.06966,-7.06966z" fill="#000000" fill-rule="evenodd" stroke="#270a59" stroke-width="0.5" stroke-linecap="round" stroke-linejoin="round"/><path d="M229.01029,184.82606c-0.62941,-0.86587 -2.6531,-2.17215 -2.6531,-2.17215l2.21348,-2.64949l-3.10234,-2.53799l6.79407,-0.14322l1.88618,-2.01512l-4.09123,-5.16755l6.29103,2.24091c0.02876,0.12878 0.07254,0.25371 0.1362,0.37307c0.91206,1.71012 1.78592,2.17539 3.71504,1.7467c0.09086,-0.02019 0.17685,-0.04271 0.25857,-0.06733c-0.31225,0.75443 -0.61104,1.60835 -0.25101,2.2834c1.00176,1.8783 2.87056,1.86372 4.84587,1.60445c0.47027,-0.06173 0.84661,-0.38745 1.33326,-0.44449c0.88021,-0.10317 1.8468,-0.39365 2.63311,-0.88852c1.34184,1.24401 2.54347,2.82266 2.12511,4.24764c-0.00555,0.85018 0.72752,6.2085 -0.01226,6.79558c-1.79034,1.42078 -1.43942,-2.48885 -1.90224,-2.76614c-0.15427,-0.09243 -1.31388,-2.44175 -1.50394,-2.4526c-1.74551,-0.09965 -2.65195,-0.95573 -5.31416,-0.74807c-4.85843,0.37898 -5.17329,1.88988 -7.82166,1.48141c-1.00156,-0.15448 -5.04721,2.0388 -5.57846,1.30797z" data-paper-data="{&quot;index&quot;:null}" fill="url(#color-1)" fill-rule="nonzero" stroke="#000000" stroke-width="0" stroke-linecap="butt" stroke-linejoin="miter"/><path d="M227.54149,184.33607l-1.70988,-1.84011l0.59877,-0.80554l25.19284,-1.27444l0.27681,2.48726z" data-paper-data="{&quot;origPos&quot;:null}" fill="url(#color-2)" fill-rule="nonzero" stroke="#000000" stroke-width="0" stroke-linecap="butt" stroke-linejoin="miter"/><path d="M226.74701,183.42209l-0.91503,-0.93584l0.62239,-0.79704l25.16883,-1.27322l0.16927,1.63225z" data-paper-data="{&quot;origPos&quot;:null}" fill="url(#color-3)" fill-rule="nonzero" stroke="#000000" stroke-width="0" stroke-linecap="butt" stroke-linejoin="miter"/><path d="M241.43182,181.70475c0.02097,0.3967 -0.48588,0.74775 -1.1321,0.78408c-0.64621,0.03634 -1.18707,-0.2558 -1.20804,-0.6525c-0.02097,-0.3967 0.48588,-0.74775 1.1321,-0.78408c0.64622,-0.03634 1.18707,0.2558 1.20804,0.6525z" data-paper-data="{&quot;origPos&quot;:null}" fill="url(#color-4)" fill-rule="nonzero" stroke="#000000" stroke-width="0" stroke-linecap="butt" stroke-linejoin="miter"/><text transform="translate(239.66028,181.92518) rotate(-3.22784) scale(0.01092,0.01005) skewX(-0.18821)" font-size="40" xml:space="preserve" fill="#ff0000" fill-rule="nonzero" stroke="#000000" stroke-width="0" stroke-linecap="butt" stroke-linejoin="miter" stroke-miterlimit="10" stroke-dasharray="" stroke-dashoffset="0" font-family="Sans Serif" font-weight="normal" text-anchor="start" style="mix-blend-mode: normal"><tspan x="0" dy="0">RUN </tspan><tspan x="0" dy="48px"> </tspan></text></g></g></svg>