<svg version="1.1" xmlns="http://www.w3.org/2000/svg" xmlns:xlink="http://www.w3.org/1999/xlink" width="236.43827" height="473.58111" viewBox="0,0,236.43827,473.58111"><defs><linearGradient x1="206.00864" y1="168.51815" x2="243.53923" y2="356.78207" gradientUnits="userSpaceOnUse" id="color-1"><stop offset="0" stop-color="#0e0000"/><stop offset="1" stop-color="#000000"/></linearGradient><linearGradient x1="206.26944" y1="167.97372" x2="236.67157" y2="320.47932" gradientUnits="userSpaceOnUse" id="color-2"><stop offset="0" stop-color="#710000"/><stop offset="1" stop-color="#0d0000"/></linearGradient><linearGradient x1="203.51165" y1="155.99255" x2="206.53298" y2="171.14839" gradientUnits="userSpaceOnUse" id="color-3"><stop offset="0" stop-color="#0e0000"/><stop offset="1" stop-color="#000000"/></linearGradient><linearGradient x1="189.27285" y1="73.73456" x2="187.16451" y2="172.47314" gradientUnits="userSpaceOnUse" id="color-4"><stop offset="0" stop-color="#0e0000"/><stop offset="1" stop-color="#000000"/></linearGradient><linearGradient x1="189.95751" y1="94.90665" x2="194.05562" y2="-97.01795" gradientUnits="userSpaceOnUse" id="color-5"><stop offset="0" stop-color="#0e0000"/><stop offset="1" stop-color="#000000"/></linearGradient><linearGradient x1="190.30933" y1="95.39721" x2="193.62906" y2="-60.07378" gradientUnits="userSpaceOnUse" id="color-6"><stop offset="0" stop-color="#710000"/><stop offset="1" stop-color="#0d0000"/></linearGradient><linearGradient x1="174.86122" y1="106.45971" x2="83.31855" y2="-62.27614" gradientUnits="userSpaceOnUse" id="color-7"><stop offset="0" stop-color="#0e0000"/><stop offset="1" stop-color="#000000"/></linearGradient><linearGradient x1="175.40988" y1="106.71148" x2="101.25456" y2="-29.97516" gradientUnits="userSpaceOnUse" id="color-8"><stop offset="0" stop-color="#710000"/><stop offset="1" stop-color="#0d0000"/></linearGradient><linearGradient x1="202.50945" y1="106.9792" x2="301.17133" y2="-57.69526" gradientUnits="userSpaceOnUse" id="color-9"><stop offset="0" stop-color="#0e0000"/><stop offset="1" stop-color="#000000"/></linearGradient><linearGradient x1="201.95054" y1="107.20732" x2="281.87287" y2="-26.18934" gradientUnits="userSpaceOnUse" id="color-10"><stop offset="0" stop-color="#710000"/><stop offset="1" stop-color="#0d0000"/></linearGradient></defs><g transform="translate(-79.24107,106.18587)"><g data-paper-data="{&quot;isPaintingLayer&quot;:true}" fill-rule="nonzero" stroke-width="4" stroke-linejoin="miter" stroke-miterlimit="10" stroke-dasharray="" stroke-dashoffset="0" style="mix-blend-mode: normal"><path d="M163.97487,176.89762l84.16195,-16.28532l-4.716,196.19337z" fill="url(#color-1)" stroke="url(#color-2)" stroke-linecap="round"/><path d="M164.16876,177.8702c0,0 -8.3542,5.8777 -9.11674,3.56867c-0.6767,-2.04909 4.7682,-16.73639 4.7682,-16.73639l87.38287,-17.41986c0,0 7.80609,11.1298 7.85187,13.41159c0.04607,2.29594 -7.5763,0.32185 -7.5763,0.32185z" fill="url(#color-3)" stroke="#710000" stroke-linecap="butt"/><path d="M138.8494,122.04968c0.5822,-27.26589 23.15755,-48.89731 50.42345,-48.31511c27.2659,0.5822 48.89732,23.15755 48.31512,50.42345c-0.5822,27.2659 -17.13541,48.8064 -50.42346,48.31512c-33.32709,-0.49185 -48.89731,-23.15756 -48.31511,-50.42346z" fill="url(#color-4)" stroke="#710000" stroke-linecap="butt"/><path d="M193.93492,-97.02052l38.88399,192.35934l-85.71249,-1.34715z" data-paper-data="{&quot;index&quot;:null}" fill="url(#color-5)" stroke="url(#color-6)" stroke-linecap="round"/><path d="M83.21244,-62.21856l62.9665,88.16735l42.74886,68.56797l-51.74032,32.38173l-32.5241,-88.8608z" data-paper-data="{&quot;index&quot;:null}" fill="url(#color-7)" stroke="url(#color-8)" stroke-linecap="round"/><path d="M275.56397,41.61601l-36.28757,87.39148l-48.85727,-34.77128c0,0 18.0905,-28.27452 26.27401,-40.25394c6.60632,-9.67066 17.90913,-26.21626 17.90913,-26.21626l66.67262,-85.3992z" data-paper-data="{&quot;index&quot;:null}" fill="url(#color-9)" stroke="url(#color-10)" stroke-linecap="round"/><g fill="#060000" stroke="#710000"><path d="M151.79047,349.70051c-2.63013,-11.28927 3.94241,-22.56603 14.68016,-25.18735c10.73776,-2.62131 21.57457,4.40547 24.2047,15.69473c2.63013,11.28927 -1.3822,20.98824 -14.68016,25.18735c-12.37713,3.90834 -21.57457,-4.40547 -24.2047,-15.69473z" stroke-linecap="butt"/><path d="M173.54262,283.0993c6.78542,18.61759 16.42558,52.49336 16.42558,52.49336l-39.56708,9.37498c0,0 -3.3481,-34.32844 -4.11301,-53.95048c-0.9217,-23.64443 -1.03503,-78.11219 -1.03503,-78.11219c0,0 20.35149,48.41422 28.28954,70.19432z" stroke-linecap="round"/></g><g data-paper-data="{&quot;index&quot;:null}" fill="#060000" stroke="#710000"><path d="M294.02498,281.85069c-13.9347,-0.54091 -20.36434,-8.83721 -20.80669,-20.42037c-0.44234,-11.58316 8.15594,-21.22066 19.20481,-21.52597c11.04887,-0.30531 20.36434,8.83721 20.80669,20.42037c0.44234,11.58316 -6.23503,22.02943 -19.20481,21.52597z" stroke-linecap="butt"/><path d="M283.43514,126.65336c0,0 14.2647,52.56679 19.61543,75.61627c4.44046,19.1283 10.27031,53.12336 10.27031,53.12336l-40.63849,1.3991c0,0 0.35862,-35.21892 1.99032,-54.96718c1.90888,-23.10285 8.76242,-75.17154 8.76242,-75.17154z" stroke-linecap="round"/></g><path d="M167.43553,142.11225c0.0224,-1.0491 0.89103,-1.88141 1.94013,-1.85901c1.0491,0.0224 1.88141,0.89103 1.85901,1.94013c-0.0224,1.0491 -0.89103,1.88141 -1.94013,1.85901c-1.0491,-0.0224 -1.88141,-0.89103 -1.85901,-1.94013z" fill="#710000" stroke="#710000" stroke-linecap="butt"/><path d="M209.57306,132.98599c0.0224,-1.0491 0.89103,-1.88141 1.94013,-1.85901c1.0491,0.0224 1.88141,0.89103 1.85901,1.94013c-0.0224,1.0491 -0.89103,1.88141 -1.94013,1.85901c-1.0491,-0.0224 -1.88141,-0.89103 -1.85901,-1.94013z" fill="#710000" stroke="#710000" stroke-linecap="butt"/></g></g></svg>