<svg version="1.1" xmlns="http://www.w3.org/2000/svg" xmlns:xlink="http://www.w3.org/1999/xlink" width="553" height="462" viewBox="0,0,553,462"><g transform="translate(36.5,51)"><g data-paper-data="{&quot;isPaintingLayer&quot;:true}" fill-rule="nonzero" stroke-linejoin="miter" stroke-miterlimit="10" stroke-dasharray="" stroke-dashoffset="0" style="mix-blend-mode: normal"><path d="M-35.5,410v-460h551v460z" fill="#0064ff" stroke="#000000" stroke-width="2" stroke-linecap="butt"/><text transform="translate(69.45385,96.52611) scale(1.93319,1.93319)" font-size="40" xml:space="preserve" fill="#00ceff" fill-rule="nonzero" stroke="#0008ff" stroke-width="2" stroke-linecap="butt" stroke-linejoin="miter" stroke-miterlimit="10" stroke-dasharray="" stroke-dashoffset="0" font-family="Marker" font-weight="normal" text-anchor="start" style="mix-blend-mode: normal"><tspan x="0" dy="0">Pencilbox</tspan></text><path d="M300.55265,190.77882c0,33.34994 -26.68551,60.38544 -59.60375,60.38544c-32.91824,0 -59.60375,-27.03549 -59.60375,-60.38544c0,-33.34994 26.68551,-60.38542 59.60375,-60.38542c32.91824,0 59.60375,27.03548 59.60375,60.38544z" fill="#ffffff" stroke="#003fff" stroke-width="4.5" stroke-linecap="butt"/><path d="M214.56692,165.56937l-0.39085,27.74993" fill="none" stroke="#003fff" stroke-width="4.5" stroke-linecap="round"/><path d="M256.81732,192.53763l-0.39083,-31.65839" fill="none" stroke="#003fff" stroke-width="4.5" stroke-linecap="round"/><path d="M272.70627,210.94189c0,0 -1.54467,2.62395 -9.0316,6.88123c-7.48693,4.25728 -10.10977,5.99437 -20.85871,6.66617c-10.74894,0.6718 -20.78254,-1.42351 -27.30985,-3.65565c-6.52732,-2.23213 -10.75191,-7.09626 -10.75191,-7.09626" fill="none" stroke="#003fff" stroke-width="4.5" stroke-linecap="round"/><path d="M188.24635,290.7899l-4.29999,-12.28569l3.99284,-23.03566l13.20711,-17.81425l25.49279,12.92062l19.34995,1.53572l9.82855,-3.07142l12.59282,-3.99284h3.68571l16.89281,22.42137l2.45714,12.28569l-4.91427,11.6714l-11.97854,9.82855l-34.39992,3.99284l-35.32134,-1.22857z" fill="#99b2ff" stroke="#003fff" stroke-width="4.5" stroke-linecap="round"/><path d="M285.30328,261.01776l26.10708,24.57137l-7.06426,2.14999" fill="none" stroke="#003fff" stroke-width="4.5" stroke-linecap="round"/><path d="M175.03924,300.63909l-8.59998,-3.37857l17.81425,-30.40707" fill="none" stroke="#003fff" stroke-width="4.5" stroke-linecap="round"/><path d="M163.67499,290.81054l3.37857,7.06426l-3.99284,5.83571" fill="none" stroke="#003fff" stroke-width="4.5" stroke-linecap="round"/><path d="M312.63893,290.19626l-2.14999,-3.37857l6.44998,-0.61428" fill="none" stroke="#003fff" stroke-width="4.5" stroke-linecap="round"/><path d="M262.26761,306.92218l4.29999,37.1642" fill="none" stroke="#003fff" stroke-width="4.5" stroke-linecap="round"/><path d="M215.58201,344.39351l-3.07142,-36.54991" fill="none" stroke="#003fff" stroke-width="4.5" stroke-linecap="round"/></g></g></svg>