<svg version="1.1" xmlns="http://www.w3.org/2000/svg" xmlns:xlink="http://www.w3.org/1999/xlink" width="34.1731" height="34.1731" viewBox="0,0,34.1731,34.1731"><g transform="translate(-222.91345,-162.91345)"><g data-paper-data="{&quot;isPaintingLayer&quot;:true}" stroke-miterlimit="10" stroke-dasharray="" stroke-dashoffset="0" style="mix-blend-mode: normal"><path d="M229.98316,162.91346h20.0338c3.9166,0 7.0696,3.1531 7.0696,7.0697v20.0338c0,3.9165 -3.153,7.0696 -7.0696,7.0696h-20.0338c-3.9166,0 -7.0697,-3.1531 -7.0697,-7.0696v-20.0338c0,-3.9166 3.1531,-7.0697 7.0697,-7.0697z" fill-opacity="0.09677" fill="#191919" fill-rule="evenodd" stroke="none" stroke-width="4.43922" stroke-linecap="round" stroke-linejoin="round"/><path d="M227.46279,179.90563c0,-6.18084 4.47268,-11.31702 10.35801,-12.3485c0.54816,0.80446 1.47167,1.3327 2.51856,1.3327c0.3603,0 0.70598,-0.06256 1.02678,-0.17743c1.0256,1.91799 3.04782,3.22291 5.37481,3.22291c0.2241,0 0.44537,-0.0121 0.6632,-0.03569c0.44189,1.1367 1.54664,1.94239 2.83957,1.94239c0.23683,0 0.46734,-0.02703 0.68863,-0.07817c1.02193,1.81512 1.60488,3.91038 1.60488,6.1418c0,6.92412 -5.61311,12.53723 -12.53723,12.53723c-3.02011,0 -5.7908,-1.06787 -7.95508,-2.84662c0.02202,-0.10306 0.0336,-0.20999 0.0336,-0.31963c0,-0.84098 -0.68176,-1.52274 -1.52274,-1.52274c-0.10555,0 -0.20858,0.01074 -0.30808,0.03118c-1.74172,-2.15303 -2.78493,-4.8944 -2.78493,-7.87942z" fill="#000000" fill-rule="nonzero" stroke="#ffffff" stroke-width="0.5" stroke-linecap="butt" stroke-linejoin="miter"/></g></g></svg>