<svg version="1.1" xmlns="http://www.w3.org/2000/svg" xmlns:xlink="http://www.w3.org/1999/xlink" width="35.56576" height="35.45423" viewBox="0,0,35.56576,35.45423"><defs><linearGradient x1="239.42866" y1="162.39789" x2="239.42866" y2="196.57099" gradientUnits="userSpaceOnUse" id="color-1"><stop offset="0" stop-color="#000000"/><stop offset="1" stop-color="#7e7e7e"/></linearGradient></defs><g transform="translate(-222.09212,-162.14788)"><g data-paper-data="{&quot;isPaintingLayer&quot;:true}" stroke-miterlimit="10" stroke-dasharray="" stroke-dashoffset="0" style="mix-blend-mode: normal"><path d="M257.65787,169.87165v20.49804c0,4.00745 -3.22497,7.23243 -7.23242,7.23243h-20.5c-3.66107,0 -6.66147,-2.69385 -7.1543,-6.21484c0.7952,3.03475 3.54108,5.26367 6.83204,5.26367h20.0332c3.9166,0 7.07032,-3.15372 7.07032,-7.07031v-20.03321c0,-3.2976 -2.23906,-6.0451 -5.28321,-6.83398c3.52994,0.48496 6.23438,3.49081 6.23438,7.15821z" fill-opacity="0.29839" fill="#000000" fill-rule="evenodd" stroke="none" stroke-width="4.54219" stroke-linecap="round" stroke-linejoin="round"/><path d="M229.41179,162.39789h20.03378c3.9166,0 7.06966,3.15307 7.06966,7.06966v20.03379c0,3.91659 -3.15306,7.06966 -7.06966,7.06966h-20.03378c-3.91659,0 -7.06967,-3.15307 -7.06967,-7.06966v-20.03379c0,-3.91659 3.15308,-7.06966 7.06967,-7.06966z" fill="url(#color-1)" fill-rule="evenodd" stroke="#7f7f7f" stroke-width="0.5" stroke-linecap="round" stroke-linejoin="round"/><path d="M252.01359,186.55322c-1.28331,4.45092 -6.51663,1.86212 -13.32686,-0.10143c-6.81024,-1.96355 -12.61849,-2.55831 -11.33518,-7.00923c1.28331,-4.45092 4.13749,-12.72616 15.98244,-9.10897c11.54481,3.52554 9.96291,11.76871 8.6796,16.21962z" fill="#3b383b" fill-rule="nonzero" stroke="none" stroke-width="0" stroke-linecap="butt" stroke-linejoin="miter"/><path d="M254.00171,188.30782c-0.54516,1.8908 -7.51167,1.54241 -15.56013,-0.77815c-8.04846,-2.32056 -14.13109,-5.73455 -13.58592,-7.62535c0.54516,-1.8908 7.51167,-1.54241 15.56013,0.77815c8.04846,2.32056 14.13109,5.73455 13.58592,7.62535z" fill="#222023" fill-rule="nonzero" stroke="none" stroke-width="0" stroke-linecap="butt" stroke-linejoin="miter"/><path d="M251.57792,187.60898c-0.36195,1.25538 -6.09478,0.70475 -12.80462,-1.22986c-6.70984,-1.93461 -11.85582,-4.5206 -11.49386,-5.77597c0.36195,-1.25538 6.09478,-0.70475 12.80462,1.22986c6.70984,1.93461 11.85582,4.5206 11.49386,5.77597z" fill="#000000" fill-rule="nonzero" stroke="none" stroke-width="0" stroke-linecap="butt" stroke-linejoin="miter"/></g></g></svg>