<svg version="1.1" xmlns="http://www.w3.org/2000/svg" xmlns:xlink="http://www.w3.org/1999/xlink" width="34.67311" height="34.67311" viewBox="0,0,34.67311,34.67311"><defs><linearGradient x1="240" y1="162.91345" x2="240" y2="197.08656" gradientUnits="userSpaceOnUse" id="color-1"><stop offset="0" stop-color="#000000"/><stop offset="1" stop-color="#172626"/></linearGradient><linearGradient x1="238.85093" y1="168.84114" x2="238.85093" y2="191.15882" gradientUnits="userSpaceOnUse" id="color-2"><stop offset="0" stop-color="#233a39"/><stop offset="1" stop-color="#345756"/></linearGradient><linearGradient x1="238.85093" y1="168.84114" x2="238.85093" y2="191.15882" gradientUnits="userSpaceOnUse" id="color-3"><stop offset="0" stop-color="#000000"/><stop offset="1" stop-color="#345756"/></linearGradient></defs><g transform="translate(-222.66345,-162.66344)"><g data-paper-data="{&quot;isPaintingLayer&quot;:true}" stroke-linecap="round" stroke-miterlimit="10" stroke-dasharray="" stroke-dashoffset="0" style="mix-blend-mode: normal"><path d="M229.98312,162.91345h20.03379c3.9166,0 7.06966,3.15307 7.06966,7.06966v20.03379c0,3.91659 -3.15306,7.06966 -7.06966,7.06966h-20.03379c-3.91659,0 -7.06966,-3.15307 -7.06966,-7.06966v-20.03379c0,-3.91659 3.15307,-7.06966 7.06966,-7.06966z" fill="url(#color-1)" fill-rule="evenodd" stroke="#5d9999" stroke-width="0.5" stroke-linejoin="round"/><path d="M239.5976,168.84114l5.22682,4.48013l1.65931,1.9082l0.33186,6.72019l-2.07413,5.72461l-5.47571,3.48455l-5.89054,-3.48455l-2.48896,-6.4713l0.99559,-5.9735l2.32303,-3.65048z" fill="url(#color-2)" fill-rule="nonzero" stroke="url(#color-3)" stroke-width="0" stroke-linejoin="miter"/></g></g></svg>