<svg version="1.1" xmlns="http://www.w3.org/2000/svg" xmlns:xlink="http://www.w3.org/1999/xlink" width="130.47404" height="267.22501" viewBox="0,0,130.47404,267.22501"><g transform="translate(-177.073,-46.3875)"><g data-paper-data="{&quot;isPaintingLayer&quot;:true}" fill-rule="nonzero" stroke-linejoin="miter" stroke-miterlimit="10" stroke-dasharray="" stroke-dashoffset="0" style="mix-blend-mode: normal"><path d="M206.75007,307.50002l15.14285,-131.8421l37.78325,-0.15789l13.57389,132z" fill="#f55959" stroke="#000000" stroke-width="2" stroke-linecap="butt"/><path d="M219.70029,204.11267l3.12142,-26.32765l35.83075,-0.14203l2.76735,26.1059c0,0 -7.51543,4.19603 -21.55904,4.50964c-12.48458,0.27879 -20.16049,-4.14586 -20.16049,-4.14586z" fill="#c14646" stroke="#000000" stroke-width="0" stroke-linecap="butt"/><path d="M178.073,136.8462c0,-33.30185 28.7599,-60.29833 64.23702,-60.29833c35.47712,0 64.23702,26.99649 64.23702,60.29833c0,33.30185 -28.7599,60.29833 -64.23702,60.29833c-35.47712,0 -64.23702,-26.99649 -64.23702,-60.29833z" fill="#f55959" stroke="#000000" stroke-width="2" stroke-linecap="butt"/><path d="M178.79606,136.90004c0,-0.72799 5.20666,55.91939 63.36046,56.93429c55.56352,0.9697 63.51358,-57.95314 63.51358,-56.93429c0,32.80479 -28.40173,59.39833 -63.43702,59.39833c-35.03529,0 -63.43702,-26.59354 -63.43702,-59.39833z" fill="#c14646" stroke="#000000" stroke-width="0" stroke-linecap="butt"/><path d="M191.62322,137.02567c0,-12.968 10.51265,-23.48065 23.48065,-23.48065c12.968,0 23.48065,10.51265 23.48065,23.48065c0,12.968 -10.51265,23.48065 -23.48065,23.48065c-12.968,0 -23.48065,-10.51265 -23.48065,-23.48065z" fill="#ffffff" stroke="#000000" stroke-width="2" stroke-linecap="butt"/><path d="M271.95495,169.81436c0,0 -12.63835,14.46969 -31.51076,14.7815c-18.54375,-0.78947 -22.89921,-11.39639 -22.89921,-11.39639z" fill="#000000" stroke="#000000" stroke-width="2" stroke-linecap="round"/><path d="M269.36229,160.5063c-12.968,0 -23.48065,-10.51265 -23.48065,-23.48065c0,-12.968 10.51265,-23.48065 23.48065,-23.48065c12.968,0 23.48065,10.51265 23.48065,23.48065c0,12.968 -10.51265,23.48065 -23.48065,23.48065z" data-paper-data="{&quot;index&quot;:null}" fill="#ffffff" stroke="#000000" stroke-width="2" stroke-linecap="butt"/><path d="M240.79679,85.68553c0,0 3.86882,-4.72553 6.08029,-6.23704c1.70089,-1.16253 6.06353,-2.06307 6.06353,-2.06307c0,0 1.47014,-11.86352 6.22683,-14.09261c3.27983,-1.537 9.0471,1.15253 15.65038,0.78649c6.91203,-0.38316 14.59392,-3.78507 14.59392,-3.78507c0,0 -9.79718,7.47839 -14.26964,10.8021c-2.101,1.56136 -7.82464,5.53951 -11.83861,6.64231c-5.78144,1.58839 -10.70353,0.16342 -10.70353,0.16342c0,0 -3.21017,0.8512 -5.00277,1.75891c-2.4498,1.2405 -6.80041,6.02456 -6.80041,6.02456z" fill="#71f17b" stroke="#000000" stroke-width="2" stroke-linecap="round"/><path d="M193.71325,140.73553c0,-9.12808 7.39976,-16.52784 16.52783,-16.52784c9.12808,0 16.52784,7.39977 16.52784,16.52784c0,9.12808 -7.39977,16.52784 -16.52784,16.52784c-9.12808,0 -16.52783,-7.39977 -16.52783,-16.52784z" fill="#000000" stroke="none" stroke-width="0" stroke-linecap="butt"/><path d="M273.73546,148.82727c-9.12807,0 -16.52783,-7.39977 -16.52783,-16.52784c0,-9.12808 7.39977,-16.52784 16.52783,-16.52784c9.12807,0 16.52783,7.39977 16.52783,16.52784c0,9.12808 -7.39977,16.52784 -16.52783,16.52784z" data-paper-data="{&quot;index&quot;:null}" fill="#000000" stroke="none" stroke-width="0" stroke-linecap="butt"/><path d="M178.40899,313.61251v-267.22501h123.18203v267.22501z" fill-opacity="0.01" fill="#000000" stroke="none" stroke-width="0" stroke-linecap="butt"/></g></g></svg>