<svg version="1.1" xmlns="http://www.w3.org/2000/svg" xmlns:xlink="http://www.w3.org/1999/xlink" width="168" height="258.16221" viewBox="0,0,168,258.16221"><defs><linearGradient x1="319.92305" y1="175.45919" x2="319.92305" y2="307.45913" gradientUnits="userSpaceOnUse" id="color-1"><stop offset="0" stop-color="#4c7b64"/><stop offset="1" stop-color="#2b2b2b"/></linearGradient><linearGradient x1="320.08155" y1="221.49564" x2="320.08155" y2="308.14565" gradientUnits="userSpaceOnUse" id="color-2"><stop offset="0" stop-color="#6b6dd3"/><stop offset="1" stop-color="#000000"/></linearGradient><linearGradient x1="355.96012" y1="194.55739" x2="355.96012" y2="302.11987" gradientUnits="userSpaceOnUse" id="color-3"><stop offset="0" stop-color="#4b7b64"/><stop offset="1" stop-color="#000000"/></linearGradient><linearGradient x1="284.13221" y1="194.46851" x2="284.13221" y2="302.02621" gradientUnits="userSpaceOnUse" id="color-4"><stop offset="0" stop-color="#4b7b64"/><stop offset="1" stop-color="#000000"/></linearGradient><linearGradient x1="320.00014" y1="76.99005" x2="320.00014" y2="197.10367" gradientUnits="userSpaceOnUse" id="color-5"><stop offset="0" stop-color="#000000"/><stop offset="1" stop-color="#ffdac9"/></linearGradient><linearGradient x1="319.92305" y1="136.84609" x2="319.92305" y2="196.25755" gradientUnits="userSpaceOnUse" id="color-6"><stop offset="0" stop-color="#000000"/><stop offset="1" stop-color="#7e647b"/></linearGradient><linearGradient x1="302.99388" y1="113.75418" x2="302.99388" y2="160.71545" gradientUnits="userSpaceOnUse" id="color-7"><stop offset="0" stop-color="#1a1a1a"/><stop offset="1" stop-color="#ffffff"/></linearGradient><linearGradient x1="336.75243" y1="113.75414" x2="336.75243" y2="160.71536" gradientUnits="userSpaceOnUse" id="color-8"><stop offset="0" stop-color="#1a1a1a"/><stop offset="1" stop-color="#ffffff"/></linearGradient><linearGradient x1="319.46461" y1="50.98963" x2="319.46461" y2="110.33915" gradientUnits="userSpaceOnUse" id="color-9"><stop offset="0" stop-color="#4c7b64"/><stop offset="1" stop-color="#000000"/></linearGradient><linearGradient x1="319.45887" y1="55.3163" x2="319.45887" y2="88.41538" gradientUnits="userSpaceOnUse" id="color-10"><stop offset="0" stop-color="#daffed"/><stop offset="1" stop-color="#161a18"/></linearGradient><linearGradient x1="320.08099" y1="60.32456" x2="320.08099" y2="80.96068" gradientUnits="userSpaceOnUse" id="color-11"><stop offset="0" stop-color="#49705e"/><stop offset="1" stop-color="#13160e"/></linearGradient><linearGradient x1="319.47355" y1="146.06582" x2="319.47355" y2="181.77496" gradientUnits="userSpaceOnUse" id="color-12"><stop offset="0" stop-color="#000000"/><stop offset="1" stop-color="#ffdac9"/></linearGradient></defs><g transform="translate(-236.5,-50.48963)"><g data-paper-data="{&quot;isPaintingLayer&quot;:true}" stroke-linecap="butt" stroke-linejoin="miter" stroke-miterlimit="10" stroke-dasharray="" stroke-dashoffset="0" style="mix-blend-mode: normal"><path d="M286.67305,307.45913l15.14285,-131.8421l37.78325,-0.15789l13.57389,132z" fill="url(#color-1)" fill-rule="nonzero" stroke="#000000" stroke-width="2"/><path d="M299.53999,204.07183l3.12142,-26.32765l35.83075,-0.14203l2.76735,26.1059c0,0 -7.51543,4.19603 -21.55904,4.50964c-12.48458,0.27879 -20.16049,-4.14586 -20.16049,-4.14586z" fill="#2f4b3d" fill-rule="nonzero" stroke="#000000" stroke-width="0"/><path d="M286.20349,307.39565l9.625,-85.15c0,0 16.14032,5.36651 24.41538,5.23987c8.05433,-0.12327 24.59071,-5.98987 24.59071,-5.98987l9.125,86.65z" fill="url(#color-2)" fill-rule="nonzero" stroke="#000000" stroke-width="1"/><path d="M330.77702,225.84333l-2.72223,-31.57302l7.33053,-1.11111l3.5,30.46191c0,0 1.97994,9.94622 -2.77415,10.47275c-4.71963,0.52271 -5.33415,-8.25053 -5.33415,-8.25053z" data-paper-data="{&quot;index&quot;:null}" fill="#6b6dd3" fill-rule="nonzero" stroke="#000000" stroke-width="1"/><path d="M301.66589,224.12113l3.5,-30.4619l8.21942,0.55556l-2.61111,32.12857c0,0 -1.38805,9.70344 -6.18894,8.77837c-5.22617,-1.00701 -2.91937,-11.0006 -2.91937,-11.0006z" fill="#6b6dd3" fill-rule="nonzero" stroke="#000000" stroke-width="1"/><path d="M338.78521,228.05327c0,1.99603 -1.54283,3.61412 -3.44602,3.61412c-1.90319,0 -3.44603,-1.6181 -3.44603,-3.61412c0,-1.99603 1.54284,-3.61412 3.44603,-3.61412c1.90319,0 3.44602,1.61809 3.44602,3.61412z" fill="#c6a438" fill-rule="nonzero" stroke="none" stroke-width="0"/><path d="M309.37397,228.76995c0,1.99603 -1.54283,3.61412 -3.44602,3.61412c-1.90319,0 -3.44603,-1.6181 -3.44603,-3.61412c0,-1.99603 1.54284,-3.61412 3.44603,-3.61412c1.90319,0 3.44602,1.61809 3.44602,3.61412z" fill="#c6a438" fill-rule="nonzero" stroke="none" stroke-width="0"/><path d="M308.84899,229.41994c0,1.99602 -1.54284,3.61412 -3.44602,3.61412c-1.90319,0 -3.44602,-1.6181 -3.44602,-3.61412c0,-1.99602 1.54284,-3.61412 3.44602,-3.61412c1.90319,0 3.44602,1.6181 3.44602,3.61412z" fill="#edd459" fill-rule="nonzero" stroke="none" stroke-width="0"/><path d="M338.53662,228.70119c0,1.87521 -1.44945,3.39537 -3.23744,3.39537c-1.78799,0 -3.23745,-1.52016 -3.23745,-3.39537c0,-1.87521 1.44946,-3.39537 3.23745,-3.39537c1.78799,0 3.23744,1.52016 3.23744,3.39537z" fill="#edd459" fill-rule="nonzero" stroke="none" stroke-width="0"/><path d="M341.61097,194.55739c0.90641,1.442 13.27591,-0.94411 14.53458,0.88889c0.31862,-0.594 9.30076,33.378 9.72787,35c-0.5926,-0.963 17.35783,5.83333 17.35783,5.83333c0,0 -7.02286,8.50966 -7.96566,8.66666c0.27195,-8.0053 -17.62543,1.95041 -21.75467,-4.74509c-3.93035,-6.373 -8.75024,-12.20349 -12.35773,-17.58824c2.25366,-15.345 -5.00951,-26.28055 0.45778,-28.05555z" fill="url(#color-3)" fill-rule="evenodd" stroke="none" stroke-width="1"/><path d="M341.52131,194.59509c0.91572,1.34757 13.41232,-0.88229 14.68393,0.83068c0.10385,-0.17908 1.11865,3.00386 2.46032,7.4491c-6.17155,-0.51975 -13.01437,-2.82677 -18.35267,1.21834c-0.00693,0.00525 -0.01384,0.01053 -0.02073,0.01584c-0.98219,-5.21007 -1.76061,-8.6161 1.22914,-9.51396z" fill="#2f4b3d" fill-rule="nonzero" stroke="none" stroke-width="1"/><path d="M387.45587,301.10947c0.01927,0.00566 0.03664,0.01141 0.05206,0.01725c-0.01724,0.01347 -0.0346,0.00734 -0.05206,-0.01725z" fill="#2f4b3d" fill-rule="nonzero" stroke="none" stroke-width="1"/><path d="M298.93917,222.52407c-1.97286,2.94481 -4.43067,12.47491 -7.69768,13.79847c-8.98311,3.63931 -20.80396,-3.92308 -20.41472,7.53486c-0.9428,-0.157 -14.24335,-16.32333 -15.13122,-15.83333c0.40788,0.464 16.86599,-3.12966 16.27339,-2.16666c0.42711,-1.622 11.65925,-31.094 11.97787,-30.5c1.25867,-1.833 13.62817,0.55311 14.53458,-0.88889c5.46729,1.775 -1.79588,12.71055 0.45778,28.05555z" data-paper-data="{&quot;index&quot;:null}" fill="url(#color-4)" fill-rule="evenodd" stroke="none" stroke-width="1"/><path d="M298.57106,194.5062c2.98975,0.89786 2.21133,4.30389 1.22914,9.51396c-0.00689,-0.00531 -0.0138,-0.01059 -0.02073,-0.01584c-5.3383,-4.04511 -12.18112,-1.73809 -18.35267,-1.21834c1.34167,-4.44524 2.35647,-7.62818 2.46032,-7.4491c1.27161,-1.71297 13.76821,0.51689 14.68393,-0.83068z" data-paper-data="{&quot;index&quot;:null}" fill="#2f4b3d" fill-rule="nonzero" stroke="none" stroke-width="1"/><g><path d="M261.69795,104.84055c0.37225,-1.95627 0.79829,-15.31507 14.96087,-28.03661c7.64679,-6.86874 16.3225,-16.66898 37.90299,-17.32053c32.05868,-0.51111 43.95019,11.08935 52.16133,19.80672c11.26206,11.95638 11.89977,22.71882 14.37822,27.96833c0.25164,0.53297 -119.41455,-2.35933 -119.40341,-2.4179z" fill="#a8530c" fill-rule="nonzero" stroke="none" stroke-width="1.5"/><path d="M255.76313,136.80526c0,-21.15086 11.60129,-39.75822 29.15655,-50.52104c1.08536,-1.75458 19.78544,-9.18722 33.30904,-9.29157c13.5236,-0.10435 26.06266,2.90177 35.96422,8.75705c18.0508,10.67434 30.04423,29.55022 30.04423,51.05556c0,33.30185 -28.7599,60.29833 -64.23702,60.29833c-35.47712,0 -64.23702,-26.99649 -64.23702,-60.29833z" fill="url(#color-5)" fill-rule="nonzero" stroke="#000000" stroke-width="2"/><path d="M256.486,136.85916c0,-0.72799 5.20666,55.91939 63.36046,56.93429c55.56352,0.9697 63.51358,-57.95314 63.51358,-56.93429c0,32.80479 -28.40173,59.39833 -63.43702,59.39833c-35.03529,0 -63.43702,-26.59354 -63.43702,-59.39833z" fill="url(#color-6)" fill-rule="nonzero" stroke="#000000" stroke-width="0"/><path d="M259.42026,148.51371c0,0 -3.17497,-7.83911 -3.17497,-11.77764c0,-6.02949 9.41909,-42.46903 9.41909,-42.46903h9.52492c0,0 -3.70913,8.16542 -4.33994,12.81431c-0.56023,4.12878 0.74163,13.70427 0.74163,13.70427l-2.07085,2.75646l-3.0049,-1.80454z" fill="#3a2f2b" fill-rule="nonzero" stroke="#000000" stroke-width="0"/><path d="M289.71317,137.23479c0,-12.968 5.94595,-23.48065 13.28065,-23.48065c7.3347,0 13.28065,10.51265 13.28065,23.48065c0,12.968 -5.94595,23.48065 -13.28065,23.48065c-7.3347,0 -13.28065,-10.51265 -13.28065,-23.48065z" fill="url(#color-7)" fill-rule="nonzero" stroke="#000000" stroke-width="2"/><path d="M258.52306,144.00198c0,0 -3,-7.4071 -3,-11.12857c0,-5.6972 8.9,-40.12857 8.9,-40.12857h9c0,0 -3.50472,7.71542 -4.10076,12.10811c-0.52936,3.90124 0.70076,12.94903 0.70076,12.94903l-1.95673,2.60455l-2.8393,-1.70509z" fill="#766058" fill-rule="nonzero" stroke="#000000" stroke-width="1.5"/><path d="M336.75243,160.71536c-7.27947,0 -13.18065,-10.51265 -13.18065,-23.48065c0,-12.968 5.90118,-23.48065 13.18065,-23.48065c7.27947,0 13.18065,10.51265 13.18065,23.48065c0,12.968 -5.90118,23.48065 -13.18065,23.48065z" data-paper-data="{&quot;index&quot;:null}" fill="url(#color-8)" fill-rule="nonzero" stroke="#000000" stroke-width="2"/><path d="M279.70187,109.81344c0,0 11.49953,-4.26418 16.5281,-2.83931c5.02858,1.42488 11.69518,5.97183 11.69518,5.97183c0,0 -8.24902,-3.32832 -12.13243,-4.4287c-4.05831,-1.14994 -16.09085,1.29618 -16.09085,1.29618z" fill="#000000" fill-rule="nonzero" stroke="none" stroke-width="0"/><path d="M343.17753,108.87055c-3.85442,1.19798 -10.7515,5.32659 -10.7515,5.32659c0,0 5.28441,-5.30693 10.27546,-6.85819c4.99104,-1.55125 13.39479,-0.49871 13.39479,-0.49871c0,0 -8.89074,0.77838 -12.91875,2.03032z" data-paper-data="{&quot;index&quot;:null}" fill="#000000" fill-rule="nonzero" stroke="none" stroke-width="0"/><path d="M372.11944,122.73765l-3.0049,1.80454l-2.07085,-2.75646c0,0 1.30186,-9.57549 0.74163,-13.70427c-0.63081,-4.64889 -4.33994,-12.81431 -4.33994,-12.81431h9.52492c0,0 9.41909,36.43954 9.41909,42.46903c0,3.93853 -3.17497,11.77764 -3.17497,11.77764z" data-paper-data="{&quot;index&quot;:null}" fill="#3a2f2b" fill-rule="nonzero" stroke="#000000" stroke-width="0"/><path d="M373.71917,121.03488l-2.8393,1.70509l-1.95673,-2.60455c0,0 1.23012,-9.04779 0.70076,-12.94903c-0.59604,-4.39269 -4.10076,-12.10811 -4.10076,-12.10811h9c0,0 8.9,34.43137 8.9,40.12857c0,3.72147 -3,11.12857 -3,11.12857z" data-paper-data="{&quot;index&quot;:null}" fill="#766058" fill-rule="nonzero" stroke="#000000" stroke-width="1.5"/><path d="M258.29805,92.23963c16.52144,-23.64275 37.27087,-41.25 60.25,-41.25c22.93746,0 43.93743,11.90491 59.75,35.25c2.19899,3.24651 5.88227,22.83784 3.89123,23.94724c-2.97694,1.65874 -55.28548,-10.78057 -63.39123,-10.78057c-8.43856,0 -57.31213,11.19019 -60.9229,10.52524c-2.6,-0.4788 -2.04397,-14.16171 0.42291,-17.69191z" fill="url(#color-9)" fill-rule="nonzero" stroke="#000000" stroke-width="1"/><path d="M337.87557,71.86581c0,9.14006 -8.24543,16.54954 -18.41667,16.54954c-10.17124,0 -18.41667,-7.40948 -18.41667,-16.54954c0,-9.14006 8.24543,-16.54954 18.41667,-16.54954c10.17124,0 18.41667,7.40948 18.41667,16.54954z" fill="url(#color-10)" fill-rule="nonzero" stroke="none" stroke-width="0"/><path d="M270.57187,107.23896l2.83334,-8.78572c0,0 8.38245,-3.22377 9.03638,-3.40847c4.87995,-1.37836 25.70344,-8.21057 37.13028,-8.21057c11.03631,0 32.30917,6.51103 38.01657,8.0849c0.95074,0.26217 7.62628,4.74844 7.62628,4.74844l1.82143,8.83333c0,0 -8.71824,-2.99878 -9.5178,-2.99654c-1.88852,0.0053 -5.82465,-0.9574 -10.94539,-2.09485c-7.41256,-1.64651 -17.47406,3.50751 -27.23352,3.53491c-9.94581,0.02792 -19.58437,-5.30103 -26.47853,-3.80424c-4.75314,1.03195 -8.12256,1.90186 -9.20032,1.90488c-0.72784,0.00204 -13.08872,2.19393 -13.08872,2.19393z" fill="#141d18" fill-rule="nonzero" stroke="#000000" stroke-width="0"/><path d="M329.40612,80.96068l-18.24951,-0.72108l-0.40074,-19.91504l5.4799,0.05106l-0.23111,13.48928l13.12073,0.23107z" data-paper-data="{&quot;index&quot;:null}" fill="url(#color-11)" fill-rule="evenodd" stroke="none" stroke-width="1"/><path d="M321.58806,168.62073c0,0 -25.15395,22.08602 -40.05509,15.24439c-14.90114,-6.84162 -14.22695,-40.16713 -14.22695,-40.16713c0,0 14.33284,15.22937 23.38537,19.38569c9.04147,4.15125 30.89668,5.53705 30.89668,5.53705z" fill="#000000" fill-rule="nonzero" stroke="none" stroke-width="0"/><path d="M350.09954,162.9966c8.93403,-4.10191 23.07925,-19.13193 23.07925,-19.13193c0,0 0.66537,32.88928 -14.04072,39.64135c-14.70608,6.75207 -39.53078,-15.04484 -39.53078,-15.04484c0,0 21.56913,-1.36767 30.49224,-5.46458z" data-paper-data="{&quot;index&quot;:null}" fill="#000000" fill-rule="nonzero" stroke="none" stroke-width="0"/><path d="M306.08961,172.46586c-3.03893,-9.31228 9.44444,-26.4 9.44444,-26.4c0,0 2.91771,0.38215 4.39081,0.43071c1.55573,0.05129 4.48697,-0.35293 4.48697,-0.35293c0,0 10.6936,19.54451 8.66667,26.1c-4.78824,15.48611 -23.94996,9.5345 -26.98889,0.22222z" fill="url(#color-12)" fill-rule="nonzero" stroke="#000000" stroke-width="2"/><g stroke="none" stroke-width="1"><path d="M327.79616,151.12259c1.52338,-0.83587 3.18137,-1.20669 4.97595,-1.11349c-0.74533,0.78516 -1.7337,1.30778 -2.9651,1.56786c0.03756,0.03471 0.0751,0.0692 0.11263,0.10348c-0.42771,0.09392 -0.84493,0.21511 -1.24981,0.36165c-0.29017,-0.29495 -0.5814,-0.60144 -0.87367,-0.91949z" fill="#2f2d2e" fill-rule="nonzero"/><path d="M335.22533,125.94709c-0.66683,0.01517 -0.99216,0.35597 -0.97699,1.02249c-1.35246,-1.4114 -3.03319,-2.04003 -5.0442,-1.88574c-0.35566,-0.99216 -1.03766,-1.64352 -2.04498,-1.95398c0.10231,-0.13988 0.20532,-0.27743 0.30903,-0.41266c0.94609,0.27093 1.94853,0.40567 2.98416,0.3821c0.22853,-0.0052 0.45511,-0.01804 0.67948,-0.03824c1.63049,0.56687 2.99498,1.5289 4.0935,2.88603z" fill="#7c82e2" fill-rule="nonzero"/><path d="M329.20421,125.08384c2.01101,-0.15429 3.69174,0.47434 5.0442,1.88574c1.91692,3.05148 2.49262,6.37264 1.7271,9.96329c-1.34428,-4.39275 -4.22962,-6.66101 -8.65704,-6.80482c-0.42991,-2.18878 0.19901,-3.87013 1.88574,-5.0442z" fill="#4c4ebf" fill-rule="evenodd"/><path d="M327.15918,123.12986c1.00732,0.31046 1.68932,0.96182 2.04498,1.95398c-1.68673,1.17408 -2.31564,2.85542 -1.88574,5.0442c4.42742,0.14381 7.31276,2.41207 8.65704,6.80482c0.76551,-3.59064 0.18981,-6.91181 -1.7271,-9.96329c-0.01517,-0.66652 0.31017,-1.00732 0.97699,-1.02249c2.9023,4.55165 3.84983,9.53138 2.84059,14.93924c-0.2331,3.99834 -1.99738,7.03926 -5.29384,9.12279c-1.79458,-0.0932 -3.45258,0.27762 -4.97595,1.11349c-5.49643,-9.27536 -5.70876,-18.60665 -0.63698,-27.99276z" fill="#0e0e12" fill-rule="evenodd"/><path d="M328.91677,134.68984c3.65664,-0.23325 4.6905,1.24362 3.10159,4.43059c-1.28152,0.51929 -2.61138,0.71659 -3.98759,0.59087c-0.17473,-1.78849 0.12028,-3.46163 0.886,-5.02146z" fill="#fbf9f9" fill-rule="evenodd"/></g><g data-paper-data="{&quot;index&quot;:null}" stroke="none" stroke-width="1"><path d="M310.74816,152.3494c-0.40442,-0.1478 -0.82126,-0.27029 -1.24867,-0.36554c0.03764,-0.03416 0.07527,-0.06853 0.11294,-0.10312c-1.23059,-0.26392 -2.21731,-0.78962 -2.96019,-1.5771c1.79487,-0.0876 3.4517,0.28839 4.97246,1.129c-0.29326,0.31714 -0.58544,0.62272 -0.87653,0.91676z" fill="#2f2d2e" fill-rule="nonzero"/><path d="M304.27405,126.23411c1.10275,-1.3537 2.47024,-2.31147 4.10249,-2.87324c0.22431,0.0209 0.45084,0.03444 0.67935,0.04036c1.03555,0.0268 2.33253,-0.22247 3.27946,-0.49045c0.10329,0.13556 0.32352,0.62637 0.42539,0.76657c-1.00829,0.30732 -2.10407,0.72125 -2.46283,1.7123c-2.01052,-0.16056 -3.69321,0.46282 -5.05006,1.86999c0.01725,-0.66648 -0.30703,-1.00827 -0.9738,-1.02553z" fill="#7c82e2" fill-rule="nonzero"/><path d="M312.16787,130.43966c-4.42784,0.13001 -7.32025,2.38925 -8.67822,6.77779c-0.75432,-3.59302 -0.16825,-6.91237 1.75817,-9.95785c1.35685,-1.40717 3.03954,-2.03055 5.05006,-1.86999c1.68306,1.17933 2.30672,2.86263 1.86999,5.05006z" fill="#4c4ebf" fill-rule="evenodd"/><path d="M311.62469,151.43266c-1.52076,-0.84062 -3.17759,-1.21661 -4.97246,-1.129c-3.28994,-2.0938 -5.04472,-5.14021 -5.26535,-9.13926c-0.99237,-5.41098 -0.02931,-10.38773 2.88717,-14.93031c0.66677,0.01726 0.99105,0.35905 0.9738,1.02553c-1.92642,3.04549 -2.51249,6.36484 -1.75817,9.95785c1.35798,-4.38854 4.25038,-6.64778 8.67822,-6.77779c0.43673,-2.18743 -0.18694,-3.87073 -1.86999,-5.05006c0.35876,-0.99105 1.34278,-1.64028 2.35107,-1.9476c5.04248,9.40188 4.50105,18.73246 -1.02428,27.99063z" fill="#0e0e12" fill-rule="evenodd"/><path d="M311.42573,140.02069c-1.3766,0.12143 -2.70583,-0.08002 -3.98573,-0.60331c-1.57896,-3.19191 -0.5405,-4.66554 3.1154,-4.42089c0.76085,1.56221 1.05063,3.23626 0.87033,5.02419z" fill="#fbf9f9" fill-rule="evenodd"/></g><path d="M315.96137,147.1807l1.26667,-4.92821l5.46667,0.2l1.12308,4.84103c0,0 -2.83871,0.7961 -4.25828,0.75031c-1.33016,-0.04291 -3.59813,-0.86313 -3.59813,-0.86313z" fill="#907b72" fill-rule="nonzero" stroke="#000000" stroke-width="0"/></g><g fill-rule="evenodd" stroke="none" stroke-width="1"><path d="M362.5,200.51001c1.21324,0 2.42676,0 3.64,0c1.64696,0.64249 3.0002,1.5577 4.06,2.74562c1.9194,2.8336 3.41264,5.79043 4.48,8.87046c1.14576,2.25779 2.68576,4.3346 4.62,6.23045c2.26016,0.03235 4.50016,-0.14365 6.72,-0.528c4.26076,0.43286 6.54724,2.26328 6.86,5.49124c1.92752,0.65663 3.60752,1.57176 5.04,2.74562c0.86044,1.41949 0.9072,2.86263 0.14,4.32963c0.16184,0.38249 0.30184,0.76983 0.42,1.1616c1.30676,0.84481 2.61324,1.68961 3.92,2.53442c0.868,1.00299 0.91476,2.02394 0.14,3.06242c0.76748,0.70562 1.42072,1.44483 1.96,2.21762c0,0.07033 0,0.14087 0,0.2112c-0.65912,0.8541 -0.65912,1.69891 0,2.53442c0,0.77448 0,1.54874 0,2.32322c-1.55008,2.36208 -3.79008,4.29816 -6.72,5.80804c-4.04572,2.15975 -8.43248,3.74376 -13.16,4.75204c-1.58676,0 -3.17324,0 -4.76,0c-1.35268,-0.49505 -2.61268,-1.12866 -3.78,-1.90081c-0.7672,-0.90352 -1.28044,-1.88899 -1.54,-2.95682c-1.91212,-0.63297 -3.31212,-1.65371 -4.2,-3.06242c-2.65944,-0.66613 -4.75944,-1.89806 -6.3,-3.69603c-1.5638,-1.63787 -2.4038,-3.46835 -2.52,-5.49124c-3.60752,-3.55896 -4.16752,-7.36058 -1.68,-11.40488c0.94332,-0.73477 1.9698,-1.22772 3.08,-1.47841c0.51772,-0.53518 0.9842,-1.09825 1.4,-1.68961c0.43204,-0.39664 0.94528,-0.71344 1.54,-0.95041c-1.88412,-1.63216 -4.03088,-3.04017 -6.44,-4.22403c-0.98,-0.73921 -1.96,-1.47841 -2.94,-2.21762c-2.47828,-4.58445 -1.91828,-8.94926 1.68,-13.0945c1.15556,-1.11895 2.60232,-1.89335 4.34,-2.32322z" fill="#040404" opacity="0.971"/><path d="M260.3,255c-1.02668,0 -2.05332,0 -3.08,0c-6.89251,-1.42138 -12.91251,-4.02614 -18.06,-7.81446c-0.89355,-1.06952 -1.78022,-2.12553 -2.66,-3.16802c0,-0.77448 0,-1.54874 0,-2.32322c0.39133,-0.2697 0.578,-0.62156 0.56,-1.05601c-0.62256,-1.46637 -0.20256,-2.73359 1.26,-3.80163c0.15483,-0.60382 0.10817,-1.20216 -0.14,-1.79522c0.08289,-0.39874 0.22289,-0.78609 0.42,-1.1616c1.49332,-0.98568 2.98668,-1.97114 4.48,-2.95682c0.13065,-1.09297 0.08397,-2.18424 -0.14,-3.27363c0.00565,-1.34578 0.75233,-2.40179 2.24,-3.16802c1.17989,-0.42747 2.34657,-0.88514 3.5,-1.37281c0.3171,-3.23119 2.60377,-5.0616 6.86,-5.49124c2.32705,0.3519 4.66038,0.59829 7,0.73921c2.04543,-2.13346 3.77216,-4.42146 5.18,-6.86405c1.1116,-2.87229 2.60484,-5.61792 4.48,-8.23686c2.0762,-2.37602 4.92268,-3.11523 8.54,-2.21762c1.05784,0.44605 2.03784,0.97406 2.94,1.58401c3.87184,4.23391 4.52508,8.73957 1.96,13.5169c-2.76052,1.97241 -5.70052,3.76762 -8.82,5.38564c-0.24528,0.33497 -0.52528,0.65177 -0.84,0.95041c0.791,0.63255 1.53776,1.30142 2.24,2.00641c-0.1974,0.32884 -0.01092,0.5751 0.56,0.73921c3.11696,1.0577 4.6102,2.99378 4.48,5.80804c-0.06188,2.67529 -1.22864,5.03356 -3.5,7.07525c-0.51128,3.34079 -2.51776,6.05134 -6.02,8.13126c-0.99344,0.40994 -2.01992,0.7618 -3.08,1.05601c-1.07492,1.45856 -2.66168,2.40897 -4.76,2.85122c0.0574,1.70883 -0.87612,3.01131 -2.8,3.90723c-0.95009,0.34215 -1.88342,0.65895 -2.8,0.95041z" fill="#040404" opacity="0.971"/><path d="M364.18,216.56132c-0.18676,0.4224 -0.37324,0.84481 -0.56,1.26721c-5.27184,-2.60038 -6.90536,-6.19081 -4.9,-10.77128c0.8218,-1.56207 2.0818,-2.86448 3.78,-3.90723c2.0454,-0.47053 3.67864,-0.01292 4.9,1.37281c0.46676,0.6336 0.93324,1.26721 1.4,1.90081c1.02788,2.50179 2.19436,4.96581 3.5,7.39205c-1.11552,-0.09708 -2.23552,0.00851 -3.36,0.31681c-1.62988,0.77369 -3.21664,1.5833 -4.76,2.42882z" fill="#fbfbfb"/><path d="M277.38,203.04442c1.83876,-0.02806 3.28524,0.53515 4.34,1.68961c2.61128,3.12752 3.07804,6.43634 1.4,9.92647c-1.5358,1.45868 -3.30904,2.7259 -5.32,3.80163c0.11816,-0.54864 0.11816,-1.11185 0,-1.68961c-1.75056,-0.96984 -3.57056,-1.84983 -5.46,-2.64002c-0.98056,-0.05956 -1.9138,-0.09476 -2.8,-0.1056c1.55148,-2.98251 3.18472,-5.93933 4.9,-8.87046c0.76664,-0.8956 1.74664,-1.5996 2.94,-2.11201z" fill="#fbfbfb"/><path d="M372.86,215.08291c1.10152,1.48314 2.31476,2.92634 3.64,4.32963c-2.82856,0.676 -5.62856,1.41519 -8.4,2.21762c-0.85596,-1.17468 -1.97596,-2.19548 -3.36,-3.06242c2.408,-1.01331 4.928,-1.85811 7.56,-2.53442c0.21476,-0.31057 0.40124,-0.62737 0.56,-0.95041z" fill="#fafafa"/><path d="M268.7,215.08291c0.4956,0.28637 0.86884,0.67356 1.12,1.1616c2.55444,0.6656 4.9812,1.51041 7.28,2.53442c-1.38628,0.86831 -2.50628,1.88911 -3.36,3.06242c-2.72552,-0.83773 -5.47876,-1.61213 -8.26,-2.32322c1.19952,-1.38404 2.27276,-2.86245 3.22,-4.43523z" fill="#f8f8f8"/><path d="M364.18,216.56132c0.08624,0.51195 -0.00728,1.00476 -0.28,1.47841c-0.16996,-0.02611 -0.2632,-0.0965 -0.28,-0.2112c0.18676,-0.4224 0.37324,-0.84481 0.56,-1.26721z" fill="#6d6d6d"/><path d="M275.7,234.51345c-0.8708,0.12419 -1.7108,0.26506 -2.52,0.4224c-1.26364,0.91915 -2.38364,1.93988 -3.36,3.06242c-1.41204,0.02492 -1.92556,0.55293 -1.54,1.58401c2.14312,0.77342 3.91636,0.42135 5.32,-1.05601c0.85232,-1.04798 1.45908,-2.17453 1.82,-3.37923c0.18676,0 0.37324,0 0.56,0c1.52292,3.28165 0.49616,6.06254 -3.08,8.34246c-0.48076,0.32926 -1.04076,0.5052 -1.68,0.528c0.01204,-0.72019 -0.12796,-1.42413 -0.42,-2.11201c-0.4284,-0.60256 -1.03516,-0.74343 -1.82,-0.4224c-0.7266,-1.6856 -1.94012,-3.12874 -3.64,-4.32963c-2.34859,-1.02665 -4.77526,-1.94179 -7.28,-2.74562c-1.41095,-0.7447 -2.71763,-1.5895 -3.92,-2.53442c-1.99758,-0.80996 -2.7909,-0.35228 -2.38,1.37281c0.0334,0.93056 0.54676,1.66976 1.54,2.21762c3.91026,1.40661 7.83025,2.81447 11.76,4.22403c0.74676,0.4224 1.49324,0.84481 2.24,1.26721c-0.40068,0.09821 -0.72716,0.27435 -0.98,0.528c-0.56,0.98568 -1.12,1.97114 -1.68,2.95682c-1.02211,0.54933 -1.25543,1.25348 -0.7,2.11201c1.28772,-0.13939 2.50096,-0.38586 3.64,-0.73921c-0.79492,0.86424 -1.82168,1.53311 -3.08,2.00641c-1.13369,-0.25618 -1.97369,-0.78419 -2.52,-1.58401c-0.70263,-0.30012 -1.35599,-0.65219 -1.96,-1.05601c-2.00261,-0.64987 -3.96261,-1.3538 -5.88,-2.11201c-0.88667,-0.80954 -1.77332,-1.61928 -2.66,-2.42882c-1.41868,-1.24334 -2.39867,-1.10268 -2.94,0.4224c0.23366,1.79775 1.35366,3.17055 3.36,4.11843c3.32548,1.15295 6.68548,2.24402 10.08,3.27363c1.46656,2.55596 0.34655,3.82317 -3.36,3.80163c-1.35483,0.02619 -2.66149,-0.14995 -3.92,-0.528c0.74668,-0.4224 1.49332,-0.84481 2.24,-1.26721c-6.3716,-0.00549 -11.92492,-1.5895 -16.66,-4.75204c-0.09332,-0.70394 -0.18668,-1.40808 -0.28,-2.11201c-1.08358,-1.25961 -1.27025,-2.59715 -0.56,-4.01283c0.75768,-0.50076 1.41103,-1.06382 1.96,-1.68961c0.09332,-1.12633 0.18668,-2.25289 0.28,-3.37923c1.76131,-0.83551 3.25463,-1.89152 4.48,-3.16802c0.26824,-0.54384 0.40824,-1.10691 0.42,-1.68961c-0.23324,-1.05368 -0.27989,-2.10969 -0.14,-3.16802c1.47837,-0.60742 3.01837,-1.13542 4.62,-1.58401c0.32667,-0.24647 0.65332,-0.49273 0.98,-0.73921c0.32497,-1.03826 0.51162,-2.09427 0.56,-3.16802c0.44221,-0.3255 0.95556,-0.57189 1.54,-0.73921c6.80588,0.4035 13.3392,1.67082 19.6,3.80163c1.12252,1.09381 2.52252,1.93862 4.2,2.53442c-0.44856,0.40867 -0.77532,0.86614 -0.98,1.37281c0.00924,1.52867 -0.64428,2.86643 -1.96,4.01283c-3.49552,-1.93524 -7.27552,-3.51925 -11.34,-4.75204c-1.68,-0.84481 -3.36,-1.68961 -5.04,-2.53442c-1.6345,-0.31258 -2.42782,0.1451 -2.38,1.37281c0.33538,0.89676 1.03538,1.56564 2.1,2.00641c3.46374,1.55275 7.1036,2.81996 10.92,3.80163c2.25344,0.7787 4.4002,1.65856 6.44,2.64002z" fill="#fbfbfb"/><path d="M365.86,234.72465c-0.18788,-0.28449 -0.18788,-0.53096 0,-0.73921c3.69068,-1.4442 7.51744,-2.64107 11.48,-3.59042c2.44636,-0.86973 4.82636,-1.82014 7.14,-2.85122c0.28,-0.4224 0.56,-0.84481 0.84,-1.26721c0.21364,-1.38401 -0.5796,-1.84147 -2.38,-1.37281c-4.23332,2.08963 -8.71332,3.84957 -13.44,5.28004c-1.06512,0.48682 -2.0916,1.01483 -3.08,1.58401c-1.29388,-1.22539 -1.90064,-2.63348 -1.82,-4.22403c-0.23324,-0.35208 -0.46676,-0.70394 -0.7,-1.05601c1.59572,-0.67648 2.99572,-1.55656 4.2,-2.64002c6.19052,-2.00916 12.63052,-3.13564 19.32,-3.37923c0.58436,0.16731 1.09788,0.4137 1.54,0.73921c0.04844,1.07375 0.23492,2.12975 0.56,3.16802c0.42,0.31681 0.84,0.6336 1.26,0.95041c1.4854,0.48956 2.93216,1.01757 4.34,1.58401c0.04788,0.98314 0.00112,1.96882 -0.14,2.95682c-0.01344,1.72087 0.92008,3.09368 2.8,4.11843c0.63112,0.29082 1.2376,0.60763 1.82,0.95041c-0.68684,1.99839 -0.0336,3.68801 1.96,5.06883c0.69412,1.41294 0.50736,2.75069 -0.56,4.01283c-0.09324,0.70394 -0.18676,1.40808 -0.28,2.11201c-1.8508,1.42054 -4.04404,2.44149 -6.58,3.06242c-3.22784,1.00785 -6.58784,1.5008 -10.08,1.47841c0.60116,0.47245 1.2544,0.89486 1.96,1.26721c-1.47756,0.24499 -2.97108,0.42093 -4.48,0.528c-3.10296,-0.38312 -4.12972,-1.72087 -3.08,-4.01283c4.30948,-0.954 8.41596,-2.25648 12.32,-3.90723c1.34764,-1.21737 1.8144,-2.59018 1.4,-4.11843c-0.53788,-0.24098 -1.09788,-0.27625 -1.68,-0.1056c-1.14828,1.02581 -2.36152,2.01149 -3.64,2.95682c-2.04372,0.70245 -4.09696,1.40639 -6.16,2.11201c-1.12504,0.63804 -2.15152,1.34197 -3.08,2.11201c-0.38416,0.0849 -0.7574,0.1905 -1.12,0.31681c-1.52936,-0.43887 -2.50936,-1.21314 -2.94,-2.32322c0.99008,0.67225 2.15684,1.02433 3.5,1.05601c0.55552,-0.85854 0.322,-1.56268 -0.7,-2.11201c-0.38892,-0.93858 -0.85568,-1.85372 -1.4,-2.74562c-0.33992,-0.32715 -0.75992,-0.57341 -1.26,-0.73921c1.23144,-0.71682 2.5382,-1.35043 3.92,-1.90081c3.5322,-1.0049 6.98544,-2.13123 10.36,-3.37923c1.3972,-1.00976 1.91044,-2.24169 1.54,-3.69603c-0.57344,-0.48302 -1.1802,-0.51829 -1.82,-0.1056c-1.31908,0.92507 -2.71908,1.76987 -4.2,2.53442c-2.56284,0.86107 -5.08284,1.7762 -7.56,2.74562c-1.7164,1.21631 -2.9764,2.65945 -3.78,4.32963c-0.4774,-0.26675 -0.94416,-0.33729 -1.4,-0.2112c-0.61544,0.86466 -1.03544,1.7798 -1.26,2.74562c-3.50896,-1.84379 -5.1422,-4.37821 -4.9,-7.60326c0.34636,-0.62262 0.76636,-1.1859 1.26,-1.68961z" fill="#fbfbfb"/><path d="M361.66,228.1774c0.18564,0.84861 0.5124,1.69342 0.98,2.53442c1.00156,0.60678 2.07508,1.13479 3.22,1.58401c-0.89012,0.96963 -1.91688,1.84971 -3.08,2.64002c-1.34568,-2.15214 -1.71892,-4.40503 -1.12,-6.75845z" fill="#f1f1f1"/><path d="M279.62,228.38861c0.80836,2.37897 0.4816,4.70219 -0.98,6.96965c-0.91644,-0.96477 -1.89644,-1.88012 -2.94,-2.74562c1.08724,-0.53455 2.16076,-1.09761 3.22,-1.68961c0.55692,-0.79264 0.79016,-1.63745 0.7,-2.53442z" fill="#f1f1f1"/><path d="M253.86,233.66865c0.31545,0.13137 0.59545,0.3073 0.84,0.528c-0.55703,0.10961 -0.83703,-0.06631 -0.84,-0.528z" fill="#b0b0b0"/><path d="M387.14,233.87984c0.20692,-0.02767 0.39368,0.0076 0.56,0.1056c-0.35448,0.41881 -0.82096,0.63002 -1.4,0.6336c0.3388,-0.21944 0.6188,-0.46591 0.84,-0.73921z" fill="#9f9f9f"/><path d="M275.7,234.51345c0.01596,0.23423 0.1092,0.44542 0.28,0.6336c-0.18676,0 -0.37324,0 -0.56,0c-0.68544,-0.2055 -1.4322,-0.27583 -2.24,-0.2112c0.8092,-0.15735 1.6492,-0.29822 2.52,-0.4224z" fill="#7b7b7b"/><path d="M365.86,234.72465c0.97384,-0.06674 1.90736,0.03886 2.8,0.31681c0.95928,1.0239 1.98576,2.00958 3.08,2.95682c0.427,0.2131 0.89376,0.3187 1.4,0.31681c0,0.4224 0,0.84481 0,1.26721c-3.04192,0.6655 -5.14192,-0.10877 -6.3,-2.32322c-0.41356,-0.83002 -0.74032,-1.67483 -0.98,-2.53442z" fill="#080808"/><path d="M273.18,234.93585c0.8078,-0.06462 1.55456,0.0057 2.24,0.2112c-0.36092,1.2047 -0.96768,2.33125 -1.82,3.37923c-1.40364,1.47735 -3.17688,1.82943 -5.32,1.05601c-0.38556,-1.03108 0.12796,-1.55909 1.54,-1.58401c0.97636,-1.12253 2.09636,-2.14327 3.36,-3.06242z" fill="#060606"/><path d="M249.94,251.40957c0.37767,-0.27393 0.75099,-0.23866 1.12,0.1056c-0.39998,0.12228 -0.7733,0.08701 -1.12,-0.1056z" fill="#8c8c8c"/></g></g></g></svg>