<svg version="1.1" xmlns="http://www.w3.org/2000/svg" xmlns:xlink="http://www.w3.org/1999/xlink" width="150.04303" height="270.68923" viewBox="0,0,150.04303,270.68923"><defs><linearGradient x1="238.44" y1="181.40539" x2="238.44" y2="313.40539" gradientUnits="userSpaceOnUse" id="color-1"><stop offset="0" stop-color="#000000"/><stop offset="1" stop-color="#666666"/></linearGradient><linearGradient x1="238.94332" y1="209.34461" x2="238.94332" y2="315.34461" gradientUnits="userSpaceOnUse" id="color-2"><stop offset="0" stop-color="#241f4d"/><stop offset="1" stop-color="#302966"/></linearGradient><linearGradient x1="238.95151" y1="209.34461" x2="238.95151" y2="302.76158" gradientUnits="userSpaceOnUse" id="color-3"><stop offset="0" stop-color="#352f66"/><stop offset="1" stop-color="#433b80"/></linearGradient><linearGradient x1="238.51694" y1="82.45321" x2="238.51694" y2="203.04987" gradientUnits="userSpaceOnUse" id="color-4"><stop offset="0" stop-color="#1a1a1a"/><stop offset="1" stop-color="#808080"/></linearGradient><linearGradient x1="238.43996" y1="44.65538" x2="238.43996" y2="168.98415" gradientUnits="userSpaceOnUse" id="color-5"><stop offset="0" stop-color="#3b3666"/><stop offset="1" stop-color="#4a4480"/></linearGradient><linearGradient x1="237.31837" y1="108.40537" x2="237.31837" y2="168.98415" gradientUnits="userSpaceOnUse" id="color-6"><stop offset="0" stop-color="#231d4d"/><stop offset="1" stop-color="#2e2766"/></linearGradient><linearGradient x1="244.76048" y1="108.40538" x2="244.76048" y2="168.98415" gradientUnits="userSpaceOnUse" id="color-7"><stop offset="0" stop-color="#151133"/><stop offset="1" stop-color="#1f194d"/></linearGradient><linearGradient x1="273.09735" y1="70.15538" x2="273.09735" y2="168.98415" gradientUnits="userSpaceOnUse" id="color-8"><stop offset="0" stop-color="#231d4d"/><stop offset="1" stop-color="#2e2766"/></linearGradient><linearGradient x1="203.65116" y1="70.15538" x2="203.65116" y2="168.51549" gradientUnits="userSpaceOnUse" id="color-9"><stop offset="0" stop-color="#151133"/><stop offset="1" stop-color="#1f194d"/></linearGradient></defs><g transform="translate(-164.97848,-44.65538)"><g data-paper-data="{&quot;isPaintingLayer&quot;:true}" fill-rule="nonzero" stroke-linejoin="miter" stroke-miterlimit="10" stroke-dasharray="" stroke-dashoffset="0" style="mix-blend-mode: normal"><path d="M170.77992,144.25157c0,-1.65654 -5.80143,-1.9233 -5.80143,-1.9233c0,0 6.69584,-8.87746 7.35214,-11.71771c6.65986,-28.82218 23.99043,-56.21969 66.68631,-56.74538c45.68643,-0.56252 68.23702,35.01087 68.23702,70.3864c0,0.66795 3.07779,7.31159 4.43041,10.36634c2.27861,5.14598 3.33715,7.45866 3.33715,7.45866c0,0 -2.64733,-1.66693 -4.82385,-3.56682c-2.14071,-1.86864 -3.80963,-3.97893 -3.99144,-3.01508c-0.43459,2.30399 -0.59561,10.92242 -4.12876,19.9176c-3.49395,8.89536 -10.36285,18.18124 -10.36285,18.18124c0,0 -2.29192,-5.28642 -3.77673,-3.14158c-6.07718,8.77862 -11.2964,15.30957 -11.2964,15.30957c0,0 -2.40974,-4.97718 -4.47106,-3.86765c-9.32569,5.01966 -20.06286,7.91078 -31.65348,7.91078c-12.60656,0 -24.772,-3.56633 -35.27102,-9.52744c-2.72845,-1.54916 -0.82623,4.38789 -0.82623,4.38789c0,0 -7.93843,-5.19677 -13.15685,-11.00681c-6.08759,-6.77777 -9.73663,-14.57056 -12.13914,-18.68944c-0.34082,-0.58431 -4.01999,1.58785 -5.934,2.01254c-2.96082,0.65696 -4.48364,-0.08182 -4.48364,-0.08182c0,0 2.67098,-3.37669 3.55098,-5.15497c0.94364,-1.90688 1.93325,-5.92746 1.93325,-5.92746c0,0 -2.66402,1.90888 -4.05965,2.38502c-1.48595,0.50696 -4.60208,0.57008 -4.60208,0.57008c0,0 4.39229,-5.64339 5.74307,-11.5602c1.27257,-5.57422 -0.4917,-11.39111 -0.4917,-12.96047z" fill="#000000" stroke="#000000" stroke-width="0" stroke-linecap="butt"/><path d="M205.19001,313.40538l15.14285,-131.8421l37.78325,-0.15789l13.57389,132z" fill="url(#color-1)" stroke="#000000" stroke-width="0" stroke-linecap="butt"/><path d="M205.19001,313.40538l6.36434,-55.41148l54.34234,-0.92591l5.79332,56.3374z" fill="#000000" stroke="#000000" stroke-width="0" stroke-linecap="butt"/><path d="M227.10663,271.90538v-42.66667c0,0 3.16507,-1 11.82407,-1c7.83092,0 10.8426,1 10.8426,1v42.66667z" fill="#271b6a" stroke="none" stroke-width="0" stroke-linecap="butt"/><path d="M210.28718,240.34461c0,0 -1.09706,-1.42674 0.8958,-14.85835c1.98897,-13.40541 4.33753,-16.14165 4.33753,-16.14165c0,0 13.18237,19.14659 16.87378,26.94574c4.01831,8.48982 1.51188,25.244 6.33871,25.5972c3.81845,0.27941 1.90999,-17.02905 5.93949,-25.5343c3.66507,-7.73604 17.24801,-26.90864 17.24801,-26.90864c0,0 2.36329,3.05882 4.47842,16.09379c2.27018,13.9905 1.32158,15.13954 1.32158,15.13954l-1.96817,1.08978c0,0 1.7491,4.0686 2.54232,12.3352c0.86496,9.01426 0.23952,11.11595 0.23952,11.11595c0,0 -8.22969,13.23838 -11.05293,21.1049c-3.13143,8.72525 -6.90706,28.93781 -6.90706,28.93781l-23.98702,0.08303c0,0 -2.60434,-18.96889 -5.6069,-27.74434c-2.64998,-7.74499 -11.48319,-22.20413 -11.48319,-22.20413c0,0 -0.93896,-3.07124 0.20248,-12.35878c0.93166,-7.58059 2.32712,-11.39875 2.32712,-11.39875z" fill="url(#color-2)" stroke="none" stroke-width="0" stroke-linecap="butt"/><path d="M210.28718,240.34461c0,0 -1.09706,-1.42674 0.8958,-14.85835c1.98897,-13.40541 4.33753,-16.14165 4.33753,-16.14165c0,0 13.18237,19.14659 16.87378,26.94574c4.01831,8.48982 1.51188,25.244 6.33871,25.5972c3.81845,0.27941 1.90999,-17.02905 5.93949,-25.5343c3.66507,-7.73604 17.24801,-26.90864 17.24801,-26.90864c0,0 2.36329,3.05882 4.47842,16.09379c2.27018,13.9905 1.32158,15.13954 1.32158,15.13954l-1.96817,1.08978c0,0 -8.85625,15.88696 -12.83856,24.82416c-4.88956,10.97327 -14.33959,36.16971 -14.33959,36.16971c0,0 -9.31557,-25.70418 -14.14778,-36.82985c-3.72631,-8.57946 -12.39972,-24.29313 -12.39972,-24.29313z" fill="url(#color-3)" stroke="none" stroke-width="0" stroke-linecap="butt"/><path d="M174.27992,142.75154c0,-33.30185 28.7599,-60.29833 64.23702,-60.29833c35.47712,0 64.23702,26.99649 64.23702,60.29833c0,33.30185 -28.7599,60.29833 -64.23702,60.29833c-35.47712,0 -64.23702,-26.99649 -64.23702,-60.29833z" fill="url(#color-4)" stroke="#000000" stroke-width="0" stroke-linecap="butt"/><path d="M225.94701,182.56181h25.10959" fill="none" stroke="#000000" stroke-width="2" stroke-linecap="round"/><path d="M238.28719,44.65538l69.65278,25.5v64l-56.29141,34.82877c0,0 -9.96013,-5.82877 -13.86138,-5.82877c-7.75782,0 -14.88423,5.36011 -14.88423,5.36011l-53.96299,-34.36011v-64z" fill="url(#color-5)" stroke="none" stroke-width="0" stroke-linecap="butt"/><path d="M222.90295,168.5155c0,0 1.4232,-60.13822 15.75923,-60.11011c14.95243,0.02491 12.98638,60.57876 12.98638,60.57876c0,0 -9.96013,-5.82877 -13.86138,-5.82877c-7.75782,0 -14.88423,5.36011 -14.88423,5.36011z" fill="url(#color-6)" stroke="none" stroke-width="0" stroke-linecap="butt"/><path d="M206.15273,150.91536c-2.29169,6.36553 -11.83723,8.75811 -21.32058,5.34396c-9.48335,-3.41414 -15.31333,-11.34214 -13.02165,-17.70767c2.29169,-6.36553 11.83724,-8.75811 21.32058,-5.34396c9.48334,3.41414 15.31333,11.34214 13.02165,17.70767z" fill="#130f33" stroke="none" stroke-width="0" stroke-linecap="butt"/><path d="M283.83215,132.70768c9.48334,-3.41415 19.02889,-1.02157 21.32058,5.34396c2.29168,6.36553 -3.5383,14.29353 -13.02164,17.70767c-9.48334,3.41414 -19.0289,1.02157 -21.32058,-5.34396c-2.29168,-6.36553 3.5383,-14.29353 13.02165,-17.70767z" data-paper-data="{&quot;index&quot;:null}" fill="#130f33" stroke="none" stroke-width="0" stroke-linecap="butt"/><path d="M237.78718,163.15539c0,0 0.60252,-54.75053 0.875,-54.75c14.95243,0.02491 12.98638,60.57876 12.98638,60.57876c0,0 -9.96013,-5.82877 -13.86138,-5.82877z" fill="url(#color-7)" stroke="none" stroke-width="0" stroke-linecap="butt"/><path d="M238.31905,51.61208l55.12091,18.92978l-55.51659,21.15681l-54.48341,-21.15681z" fill="#808080" stroke="none" stroke-width="0" stroke-linecap="butt"/><path d="M238.30504,108.58395c-0.10157,0 -0.01785,-9.92857 -0.01785,-9.92857l69.65278,-28.5v64l-56.29141,34.82877c0,0 -0.77561,-60.4002 -13.34353,-60.4002z" fill="url(#color-8)" stroke="none" stroke-width="0" stroke-linecap="butt"/><path d="M238.28718,98.65538c0,0 0.13647,10.01075 0.04166,10c-11.75782,-1.33333 -15.42589,59.86011 -15.42589,59.86011l-53.96299,-34.36011v-64z" fill="url(#color-9)" stroke="none" stroke-width="0" stroke-linecap="butt"/><path d="M213.06495,234.3585c0,-1.31168 1.06332,-2.375 2.375,-2.375c1.31168,0 2.375,1.06332 2.375,2.375c0,1.31168 -1.06332,2.375 -2.375,2.375c-1.31168,0 -2.375,-1.06332 -2.375,-2.375z" fill="#808080" stroke="none" stroke-width="0" stroke-linecap="butt"/><path d="M260.06495,234.3585c0,-1.31168 1.06332,-2.375 2.375,-2.375c1.31168,0 2.375,1.06332 2.375,2.375c0,1.31168 -1.06332,2.375 -2.375,2.375c-1.31168,0 -2.375,-1.06332 -2.375,-2.375z" fill="#808080" stroke="none" stroke-width="0" stroke-linecap="butt"/></g></g></svg>