<svg version="1.1" xmlns="http://www.w3.org/2000/svg" xmlns:xlink="http://www.w3.org/1999/xlink" width="34.1731" height="34.1731" viewBox="0,0,34.1731,34.1731"><g transform="translate(-222.91344,-162.91344)"><g data-paper-data="{&quot;isPaintingLayer&quot;:true}" stroke-miterlimit="10" stroke-dasharray="" stroke-dashoffset="0" style="mix-blend-mode: normal"><path d="M229.98315,162.91345h20.0338c3.9166,0 7.0696,3.1531 7.0696,7.0697v20.0338c0,3.9165 -3.153,7.0696 -7.0696,7.0696h-20.0338c-3.9166,0 -7.0697,-3.1531 -7.0697,-7.0696v-20.0338c0,-3.9166 3.1531,-7.0697 7.0697,-7.0697z" fill="#5e5e5e" fill-rule="evenodd" stroke="none" stroke-width="4.43922" stroke-linecap="round" stroke-linejoin="round"/><g fill-rule="nonzero" stroke-width="2" stroke-linejoin="miter"><path d="M248.44405,181.08675c-0.7218,7.1929 -5.0747,12.6458 -9.7224,12.1794c-4.6478,-0.4664 -7.8303,-6.6755 -7.1085,-13.8684c0.3014,-3.0033 2.3288,-5.5936 3.6534,-7.686c1.8478,-2.9189 3.3619,-4.7651 6.0691,-4.4934c2.694,0.2703 3.9775,2.8195 5.212,6.022c0.8952,2.3225 2.1999,4.8228 1.8964,7.8464z" fill="#fffff3" stroke-opacity="0.47451" stroke="#ffdb57" stroke-linecap="butt"/><path d="M244.30995,167.17075l4.1413,5.5782l-15.3822,-1.1449l4.733,-4.8981z" fill="#a0aeb1" stroke="#474e4f" stroke-linecap="round"/></g></g></g></svg>