<svg version="1.1" xmlns="http://www.w3.org/2000/svg" xmlns:xlink="http://www.w3.org/1999/xlink" width="130.47404" height="267.22501" viewBox="0,0,130.47404,267.22501"><defs><linearGradient x1="255.07838" y1="236.82818" x2="224.92171" y2="264.85076" gradientUnits="userSpaceOnUse" id="color-1"><stop offset="0" stop-color="#2b2d33"/><stop offset="1" stop-color="#aeb0b9"/></linearGradient><radialGradient cx="239.95423" cy="251.7053" r="1.87123" gradientUnits="userSpaceOnUse" id="color-2"><stop offset="0" stop-color="#ffffff"/><stop offset="1" stop-color="#969696"/></radialGradient><radialGradient cx="253.54004" cy="228.38488" r="1.87123" gradientUnits="userSpaceOnUse" id="color-3"><stop offset="0" stop-color="#56585a"/><stop offset="1" stop-color="#4f5052"/></radialGradient><radialGradient cx="253.54004" cy="228.38488" r="1.87123" gradientUnits="userSpaceOnUse" id="color-4"><stop offset="0" stop-color="#acaeb4"/><stop offset="1" stop-color="#696a6e"/></radialGradient><radialGradient cx="254.37948" cy="257.46146" r="4.91667" gradientUnits="userSpaceOnUse" id="color-5"><stop offset="0" stop-color="#acaeb4"/><stop offset="1" stop-color="#696a6e"/></radialGradient></defs><g transform="translate(-174.42848,-46.38752)"><g data-paper-data="{&quot;isPaintingLayer&quot;:true}" fill-rule="nonzero" stroke-linejoin="miter" stroke-miterlimit="10" stroke-dasharray="" stroke-dashoffset="0" style="mix-blend-mode: normal"><path d="M178.40899,313.61253v-267.22501h123.18203v267.22501z" fill-opacity="0.01" fill="#000000" stroke="none" stroke-width="0" stroke-linecap="butt"/><path d="M230.57774,198.49539v-7.66667h19.66667v7.66667z" fill="#8f95cd" stroke="#000000" stroke-width="1.5" stroke-linecap="butt"/><path d="M205.87532,307.50005l14.14285,-102.8421l39.28325,-0.15789l13.07389,103z" fill="#ff7e52" stroke="#000000" stroke-width="2" stroke-linecap="butt"/><path d="M250.85397,208.09084c0.34203,19.95645 -23.38153,17.88935 -23.46096,0.13765z" fill="#8b8b8b" stroke="#000000" stroke-width="0" stroke-linecap="butt"/><path d="M260.5064,207.00041c0,3.31371 -9.21547,6 -20.58334,6c-11.36786,0 -20.58333,-2.68629 -20.58333,-6c0,-3.31371 9.21547,-6 20.58333,-6c11.36786,0 20.58334,2.68629 20.58334,6z" fill="#751d00" stroke="#000000" stroke-width="1.5" stroke-linecap="butt"/><path d="M230.46509,208.33368v-7.66667h19.66667v7.66667z" fill="#8f95cd" stroke="#000000" stroke-width="1.5" stroke-linecap="butt"/><g stroke-linecap="butt"><path d="M255.07838,236.82818c7.73824,8.32755 7.2605,21.35143 -1.06705,29.08967c-8.32755,7.73824 -21.35143,7.2605 -29.08967,-1.06705c-7.73824,-8.32755 -7.26051,-21.35144 1.06704,-29.08967c8.32755,-7.73824 21.35144,-7.26051 29.08968,1.06704z" fill="url(#color-1)" stroke="#b43307" stroke-width="1"/><path d="M247.20345,244.14583c3.69681,3.97834 3.46858,10.20028 -0.50975,13.89708c-3.97834,3.69681 -10.20028,3.46859 -13.8971,-0.50976c-3.69681,-3.97834 -3.46859,-10.20028 0.50977,-13.89711c3.97834,-3.69681 10.20028,-3.46858 13.89708,0.50977z" fill="#f65c52" stroke="#000000" stroke-width="1"/><path d="M241.37079,249.56572c0.70348,0.75706 0.66004,1.94106 -0.09701,2.64454c-0.75706,0.70348 -1.94106,0.66004 -2.64454,-0.09701c-0.70348,-0.75706 -0.66004,-1.94106 0.09701,-2.64454c0.75706,-0.70348 1.94106,-0.66004 2.64454,0.09701z" fill="url(#color-2)" stroke="#000000" stroke-width="0"/><path d="M245.77967,245.46885c2.96612,3.19201 2.78299,8.18416 -0.409,11.15028c-3.19201,2.96612 -8.18416,2.78299 -11.15028,-0.409c-2.96612,-3.19201 -2.78299,-8.18416 0.409,-11.15028c3.19201,-2.96612 8.18416,-2.78299 11.15028,0.409z" fill="none" stroke="#c44b40" stroke-width="1"/><text transform="translate(245.54649,249.48001) rotate(137.1029) scale(0.06663,0.06663)" font-size="40" xml:space="preserve" fill="#fbff00" fill-rule="nonzero" stroke="none" stroke-width="1" stroke-linecap="butt" stroke-linejoin="miter" stroke-miterlimit="10" stroke-dasharray="" stroke-dashoffset="0" font-family="Sans Serif" font-weight="normal" text-anchor="start" style="mix-blend-mode: normal"><tspan x="0" dy="0">Sprunki</tspan></text></g><path d="M254.37948,230.21173l4.66667,12.16667l-3.83333,12.5" fill="none" stroke="#a9abb2" stroke-width="1.5" stroke-linecap="round"/><path d="M251.66881,228.38488c0,-1.03345 0.83778,-1.87123 1.87123,-1.87123c1.03345,0 1.87123,0.83778 1.87123,1.87123c0,1.03345 -0.83778,1.87123 -1.87123,1.87123c-1.03345,0 -1.87123,-0.83778 -1.87123,-1.87123z" fill="url(#color-3)" stroke="url(#color-4)" stroke-width="0.5" stroke-linecap="butt"/><path d="M251.1538,261.60024l2.95406,-9.37913l3.4973,1.10151l-2.95406,9.37913z" fill="#ffc772" stroke="url(#color-5)" stroke-width="0" stroke-linecap="butt"/><g stroke="#000000" stroke-linecap="butt"><path d="M175.42848,169.25041c0,-14.03446 28.7599,-25.41163 64.23702,-25.41163c35.47712,0 64.23702,11.37718 64.23702,25.41163c0,14.03446 -28.7599,25.41163 -64.23702,25.41163c-35.47712,0 -64.23702,-11.37718 -64.23702,-25.41163z" fill="#ff7e52" stroke-width="2"/><path d="M176.15155,169.27307c0,-0.3068 5.20666,23.56621 63.36046,23.99392c55.56352,0.40866 63.51358,-24.42329 63.51358,-23.99392c0,13.82498 -28.40173,25.03234 -63.43702,25.03234c-35.03529,0 -63.43702,-11.20736 -63.43702,-25.03234z" fill="#bd5b3a" stroke-width="0"/><path d="M239.77885,143.95478c0,-14.03446 11.68289,-25.41163 26.09447,-25.41163c14.41158,0 26.09447,11.37717 26.09447,25.41163c0,14.03446 -11.68289,25.41163 -26.09447,25.41163c-14.41158,0 -26.09447,-11.37717 -26.09447,-25.41163z" fill="#9c8686" stroke-width="1.5"/><path d="M185.76766,143.92416c0,-14.03446 11.68289,-25.41163 26.09447,-25.41163c14.41158,0 26.09447,11.37717 26.09447,25.41163c0,14.03446 -11.68289,25.41163 -26.09447,25.41163c-14.41158,0 -26.09447,-11.37717 -26.09447,-25.41163z" fill="#9c8686" stroke-width="1.5"/></g><path d="M199.49222,112.97855c0,0 6.91046,-4.89656 12.04245,-5.88629c5.13199,-0.98972 12.29626,1.19246 12.29626,1.19246c0,0 -8.02927,-0.38195 -11.99254,0.38239c-4.14177,0.79876 -12.34617,4.31143 -12.34617,4.31143z" fill="#ffde00" stroke="#000000" stroke-width="0.5" stroke-linecap="butt"/><path d="M264.35807,109.51248c-3.94876,-0.83603 -11.98364,-0.59966 -11.98364,-0.59966c0,0 7.20263,-2.05199 12.31585,-0.96943c5.1132,1.08256 11.9338,6.10355 11.9338,6.10355c0,0 -8.1394,-3.66078 -12.26601,-4.53446z" data-paper-data="{&quot;index&quot;:null}" fill="#ffde00" stroke="#000000" stroke-width="0.5" stroke-linecap="butt"/><path d="M188.18091,139.57647c0,-12.968 10.51265,-23.48065 23.48065,-23.48065c12.968,0 23.48065,10.51265 23.48065,23.48065c0,12.968 -10.51265,23.48065 -23.48065,23.48065c-12.968,0 -23.48065,-10.51265 -23.48065,-23.48065z" fill="#ffffff" stroke="#000000" stroke-width="2" stroke-linecap="butt"/><path d="M194.959,139.30077c0,-9.12808 7.39976,-16.52784 16.52783,-16.52784c9.12808,0 16.52784,7.39977 16.52784,16.52784c0,9.12808 -7.39977,16.52784 -16.52784,16.52784c-9.12808,0 -16.52783,-7.39977 -16.52783,-16.52784z" fill="#000000" stroke="none" stroke-width="0" stroke-linecap="butt"/><path d="M265.92001,163.05709c-12.968,0 -23.48065,-10.51265 -23.48065,-23.48065c0,-12.968 10.51265,-23.48065 23.48065,-23.48065c12.968,0 23.48065,10.51265 23.48065,23.48065c0,12.968 -10.51265,23.48065 -23.48065,23.48065z" data-paper-data="{&quot;index&quot;:null}" fill="#ffffff" stroke="#000000" stroke-width="2" stroke-linecap="butt"/><path d="M265.52012,155.82862c-9.12807,0 -16.52783,-7.39977 -16.52783,-16.52784c0,-9.12808 7.39977,-16.52784 16.52783,-16.52784c9.12807,0 16.52783,7.39977 16.52783,16.52784c0,9.12808 -7.39977,16.52784 -16.52783,16.52784z" data-paper-data="{&quot;index&quot;:null}" fill="#000000" stroke="none" stroke-width="0" stroke-linecap="butt"/><g fill="#6e9be9" stroke="#000000" stroke-width="2" stroke-linecap="butt"><path d="M188.1868,139.57642c0,-12.968 10.51265,-23.48065 23.48065,-23.48065c12.968,0 23.48065,10.51265 23.48065,23.48065c0,0 -46.96131,1.23155 -46.96131,0z"/><path d="M242.44526,139.57642c0,-12.968 10.51265,-23.48065 23.48065,-23.48065c12.968,0 23.48065,10.51265 23.48065,23.48065c0,1.2138 -46.96131,0 -46.96131,0z" data-paper-data="{&quot;index&quot;:null}"/></g><g stroke="#000000" stroke-linecap="round"><path d="M264.31905,175.96342c0,0 -7.93541,6.5219 -25.00838,6.75481c-14.0742,0.19202 -23.62974,-6.75481 -23.62974,-6.75481z" fill="#ffffff" stroke-width="2"/><path d="M257.04685,178.96818c0,0 -10.6649,0.22206 -16.33057,0.22206c-6.14777,0 -19.22794,-0.22206 -19.22794,-0.22206" fill="none" stroke-width="1"/></g></g></g></svg>