<svg version="1.1" xmlns="http://www.w3.org/2000/svg" xmlns:xlink="http://www.w3.org/1999/xlink" width="138.69457" height="258.16221" viewBox="0,0,138.69457,258.16221"><defs><linearGradient x1="319.92305" y1="175.45922" x2="319.92305" y2="307.45912" gradientUnits="userSpaceOnUse" id="color-1"><stop offset="0" stop-color="#4c7b64"/><stop offset="1" stop-color="#2b2b2b"/></linearGradient><linearGradient x1="320.08155" y1="221.49566" x2="320.08155" y2="308.14563" gradientUnits="userSpaceOnUse" id="color-2"><stop offset="0" stop-color="#6b6dd3"/><stop offset="1" stop-color="#000000"/></linearGradient><linearGradient x1="355.96012" y1="194.55737" x2="355.96012" y2="302.11987" gradientUnits="userSpaceOnUse" id="color-3"><stop offset="0" stop-color="#4b7b64"/><stop offset="1" stop-color="#000000"/></linearGradient><linearGradient x1="284.13221" y1="194.46853" x2="284.13221" y2="302.02621" gradientUnits="userSpaceOnUse" id="color-4"><stop offset="0" stop-color="#4b7b64"/><stop offset="1" stop-color="#000000"/></linearGradient><linearGradient x1="320.00014" y1="76.99004" x2="320.00014" y2="197.10365" gradientUnits="userSpaceOnUse" id="color-5"><stop offset="0" stop-color="#000000"/><stop offset="1" stop-color="#ffdac9"/></linearGradient><linearGradient x1="319.92305" y1="136.84608" x2="319.92305" y2="196.25757" gradientUnits="userSpaceOnUse" id="color-6"><stop offset="0" stop-color="#000000"/><stop offset="1" stop-color="#7e647b"/></linearGradient><linearGradient x1="302.99388" y1="113.75416" x2="302.99388" y2="160.71544" gradientUnits="userSpaceOnUse" id="color-7"><stop offset="0" stop-color="#1a1a1a"/><stop offset="1" stop-color="#ffffff"/></linearGradient><linearGradient x1="336.75242" y1="113.75412" x2="336.75242" y2="160.71535" gradientUnits="userSpaceOnUse" id="color-8"><stop offset="0" stop-color="#1a1a1a"/><stop offset="1" stop-color="#ffffff"/></linearGradient><linearGradient x1="319.46461" y1="50.98961" x2="319.46461" y2="110.33913" gradientUnits="userSpaceOnUse" id="color-9"><stop offset="0" stop-color="#4c7b64"/><stop offset="1" stop-color="#000000"/></linearGradient><linearGradient x1="319.45887" y1="55.31628" x2="319.45887" y2="88.41537" gradientUnits="userSpaceOnUse" id="color-10"><stop offset="0" stop-color="#daffed"/><stop offset="1" stop-color="#161a18"/></linearGradient><linearGradient x1="320.08099" y1="60.32454" x2="320.08099" y2="80.96067" gradientUnits="userSpaceOnUse" id="color-11"><stop offset="0" stop-color="#49705e"/><stop offset="1" stop-color="#13160e"/></linearGradient><linearGradient x1="319.47355" y1="146.06581" x2="319.47355" y2="181.77494" gradientUnits="userSpaceOnUse" id="color-12"><stop offset="0" stop-color="#000000"/><stop offset="1" stop-color="#ffdac9"/></linearGradient></defs><g transform="translate(-248.81335,-50.48961)"><g data-paper-data="{&quot;isPaintingLayer&quot;:true}" stroke-linecap="butt" stroke-linejoin="miter" stroke-miterlimit="10" stroke-dasharray="" stroke-dashoffset="0" style="mix-blend-mode: normal"><path d="M286.67305,307.45912l15.14285,-131.8421l37.78325,-0.15789l13.57389,132z" fill="url(#color-1)" fill-rule="nonzero" stroke="#000000" stroke-width="2"/><path d="M299.53999,204.07186l3.12142,-26.32765l35.83075,-0.14203l2.76735,26.1059c0,0 -7.51543,4.19603 -21.55904,4.50964c-12.48458,0.27879 -20.16049,-4.14586 -20.16049,-4.14586z" fill="#2f4b3d" fill-rule="nonzero" stroke="#000000" stroke-width="0"/><path d="M286.20349,307.39563l9.625,-85.15c0,0 16.14032,5.36651 24.41538,5.23987c8.05433,-0.12327 24.59071,-5.98987 24.59071,-5.98987l9.125,86.65z" fill="url(#color-2)" fill-rule="nonzero" stroke="#000000" stroke-width="1"/><path d="M330.77702,225.84335l-2.72223,-31.57302l7.33053,-1.11111l3.5,30.46191c0,0 1.97994,9.94622 -2.77415,10.47275c-4.71963,0.52271 -5.33415,-8.25053 -5.33415,-8.25053z" data-paper-data="{&quot;index&quot;:null}" fill="#6b6dd3" fill-rule="nonzero" stroke="#000000" stroke-width="1"/><path d="M301.66589,224.12111l3.5,-30.4619l8.21942,0.55556l-2.61111,32.12857c0,0 -1.38805,9.70344 -6.18894,8.77837c-5.22617,-1.00701 -2.91937,-11.0006 -2.91937,-11.0006z" fill="#6b6dd3" fill-rule="nonzero" stroke="#000000" stroke-width="1"/><path d="M338.7852,228.05325c0,1.99603 -1.54283,3.61412 -3.44602,3.61412c-1.90319,0 -3.44603,-1.6181 -3.44603,-3.61412c0,-1.99603 1.54284,-3.61412 3.44603,-3.61412c1.90319,0 3.44602,1.61809 3.44602,3.61412z" fill="#c6a438" fill-rule="nonzero" stroke="none" stroke-width="0"/><path d="M309.37397,228.76993c0,1.99603 -1.54283,3.61412 -3.44602,3.61412c-1.90319,0 -3.44603,-1.6181 -3.44603,-3.61412c0,-1.99603 1.54284,-3.61412 3.44603,-3.61412c1.90319,0 3.44602,1.61809 3.44602,3.61412z" fill="#c6a438" fill-rule="nonzero" stroke="none" stroke-width="0"/><path d="M308.84898,229.41992c0,1.99602 -1.54284,3.61412 -3.44602,3.61412c-1.90319,0 -3.44602,-1.6181 -3.44602,-3.61412c0,-1.99602 1.54284,-3.61412 3.44602,-3.61412c1.90319,0 3.44602,1.6181 3.44602,3.61412z" fill="#edd459" fill-rule="nonzero" stroke="none" stroke-width="0"/><path d="M338.53662,228.70117c0,1.87521 -1.44945,3.39537 -3.23744,3.39537c-1.78799,0 -3.23745,-1.52016 -3.23745,-3.39537c0,-1.87521 1.44946,-3.39537 3.23745,-3.39537c1.78799,0 3.23744,1.52016 3.23744,3.39537z" fill="#edd459" fill-rule="nonzero" stroke="none" stroke-width="0"/><path d="M341.61097,194.55737c0.90641,1.442 13.27591,-0.94411 14.53458,0.88889c0.31862,-0.594 9.30076,33.378 9.72787,35c-0.5926,-0.963 5.60783,49.33333 5.60783,49.33333c0,0 0.50768,22.79733 0.91556,22.33333c-0.88787,-0.49 -11.18842,-0.32367 -12.13122,-0.16667c0.5308,-15.625 -11.71487,-68.29133 -19.1124,-79.33333c2.25366,-15.345 -5.00951,-26.28055 0.45778,-28.05555z" fill="url(#color-3)" fill-rule="evenodd" stroke="none" stroke-width="1"/><path d="M341.52131,194.59507c0.91572,1.34757 13.41232,-0.88229 14.68393,0.83068c0.10385,-0.17908 1.11865,3.00386 2.46032,7.4491c-6.17155,-0.51975 -13.01437,-2.82677 -18.35267,1.21834c-0.00693,0.00525 -0.01384,0.01053 -0.02073,0.01584c-0.98219,-5.21007 -1.76061,-8.6161 1.22914,-9.51396z" fill="#2f4b3d" fill-rule="nonzero" stroke="none" stroke-width="1"/><path d="M387.45586,301.10947c0.01927,0.00566 0.03664,0.01141 0.05206,0.01725c-0.01724,0.01347 -0.0346,0.00734 -0.05206,-0.01725z" fill="#2f4b3d" fill-rule="nonzero" stroke="none" stroke-width="1"/><path d="M298.93917,222.52405c-7.39753,11.042 -13.8932,11.70833 -13.3624,27.33333c-0.9428,-0.157 -10.99335,-5.57333 -11.88122,-5.08333c0.40788,0.464 1.11599,-15.37966 0.52339,-14.41666c0.42711,-1.622 9.40925,-35.594 9.72787,-35c1.25867,-1.833 13.62817,0.55311 14.53458,-0.88889c5.46729,1.775 -1.79588,12.71055 0.45778,28.05555z" data-paper-data="{&quot;index&quot;:null}" fill="url(#color-4)" fill-rule="evenodd" stroke="none" stroke-width="1"/><path d="M298.57106,194.50623c2.98975,0.89786 2.21133,4.30389 1.22914,9.51396c-0.00689,-0.00531 -0.0138,-0.01059 -0.02073,-0.01584c-5.3383,-4.04511 -12.18112,-1.73809 -18.35267,-1.21834c1.34167,-4.44524 2.35647,-7.62818 2.46032,-7.4491c1.27161,-1.71297 13.76821,0.51689 14.68393,-0.83068z" data-paper-data="{&quot;index&quot;:null}" fill="#2f4b3d" fill-rule="nonzero" stroke="none" stroke-width="1"/><g><path d="M261.69795,104.84053c0.37225,-1.95627 0.79829,-15.31507 14.96087,-28.03661c7.64679,-6.86874 16.3225,-16.66898 37.90299,-17.32053c32.05868,-0.51111 43.95019,11.08935 52.16133,19.80672c11.26206,11.95638 11.89977,22.71882 14.37822,27.96833c0.25164,0.53297 -119.41455,-2.35933 -119.40341,-2.4179z" fill="#a8530c" fill-rule="nonzero" stroke="none" stroke-width="1.5"/><path d="M255.76312,136.80525c0,-21.15086 11.60129,-39.75822 29.15655,-50.52104c1.08536,-1.75458 19.78544,-9.18722 33.30904,-9.29157c13.5236,-0.10435 26.06266,2.90177 35.96422,8.75705c18.0508,10.67434 30.04423,29.55022 30.04423,51.05556c0,33.30185 -28.7599,60.29833 -64.23702,60.29833c-35.47712,0 -64.23702,-26.99649 -64.23702,-60.29833z" fill="url(#color-5)" fill-rule="nonzero" stroke="#000000" stroke-width="2"/><path d="M256.486,136.85915c0,-0.72799 5.20666,55.91939 63.36046,56.93429c55.56352,0.9697 63.51358,-57.95314 63.51358,-56.93429c0,32.80479 -28.40173,59.39833 -63.43702,59.39833c-35.03529,0 -63.43702,-26.59354 -63.43702,-59.39833z" fill="url(#color-6)" fill-rule="nonzero" stroke="#000000" stroke-width="0"/><path d="M259.42026,148.5137c0,0 -3.17497,-7.83911 -3.17497,-11.77764c0,-6.02949 9.41909,-42.46903 9.41909,-42.46903h9.52492c0,0 -3.70913,8.16542 -4.33994,12.81431c-0.56023,4.12878 0.74163,13.70427 0.74163,13.70427l-2.07085,2.75646l-3.0049,-1.80454z" fill="#3a2f2b" fill-rule="nonzero" stroke="#000000" stroke-width="0"/><path d="M289.71317,137.23478c0,-12.968 5.94595,-23.48065 13.28065,-23.48065c7.3347,0 13.28065,10.51265 13.28065,23.48065c0,12.968 -5.94595,23.48065 -13.28065,23.48065c-7.3347,0 -13.28065,-10.51265 -13.28065,-23.48065z" fill="url(#color-7)" fill-rule="nonzero" stroke="#000000" stroke-width="2"/><path d="M258.52306,144.00197c0,0 -3,-7.4071 -3,-11.12857c0,-5.6972 8.9,-40.12857 8.9,-40.12857h9c0,0 -3.50472,7.71542 -4.10076,12.10811c-0.52936,3.90124 0.70076,12.94903 0.70076,12.94903l-1.95673,2.60455l-2.8393,-1.70509z" fill="#766058" fill-rule="nonzero" stroke="#000000" stroke-width="1.5"/><path d="M336.75242,160.71535c-7.27947,0 -13.18065,-10.51265 -13.18065,-23.48065c0,-12.968 5.90118,-23.48065 13.18065,-23.48065c7.27947,0 13.18065,10.51265 13.18065,23.48065c0,12.968 -5.90118,23.48065 -13.18065,23.48065z" data-paper-data="{&quot;index&quot;:null}" fill="url(#color-8)" fill-rule="nonzero" stroke="#000000" stroke-width="2"/><path d="M279.70187,109.81342c0,0 11.49953,-4.26418 16.5281,-2.83931c5.02858,1.42488 11.69518,5.97183 11.69518,5.97183c0,0 -8.24902,-3.32832 -12.13243,-4.4287c-4.05831,-1.14994 -16.09085,1.29618 -16.09085,1.29618z" fill="#000000" fill-rule="nonzero" stroke="none" stroke-width="0"/><path d="M343.17753,108.87053c-3.85442,1.19798 -10.7515,5.32659 -10.7515,5.32659c0,0 5.28441,-5.30693 10.27546,-6.85819c4.99104,-1.55125 13.39479,-0.49871 13.39479,-0.49871c0,0 -8.89074,0.77838 -12.91875,2.03032z" data-paper-data="{&quot;index&quot;:null}" fill="#000000" fill-rule="nonzero" stroke="none" stroke-width="0"/><path d="M372.11944,122.73763l-3.0049,1.80454l-2.07085,-2.75646c0,0 1.30186,-9.57549 0.74163,-13.70427c-0.63081,-4.64889 -4.33994,-12.81431 -4.33994,-12.81431h9.52492c0,0 9.41909,36.43954 9.41909,42.46903c0,3.93853 -3.17497,11.77764 -3.17497,11.77764z" data-paper-data="{&quot;index&quot;:null}" fill="#3a2f2b" fill-rule="nonzero" stroke="#000000" stroke-width="0"/><path d="M373.71917,121.03486l-2.8393,1.70509l-1.95673,-2.60455c0,0 1.23012,-9.04779 0.70076,-12.94903c-0.59604,-4.39269 -4.10076,-12.10811 -4.10076,-12.10811h9c0,0 8.9,34.43137 8.9,40.12857c0,3.72147 -3,11.12857 -3,11.12857z" data-paper-data="{&quot;index&quot;:null}" fill="#766058" fill-rule="nonzero" stroke="#000000" stroke-width="1.5"/><path d="M258.29805,92.23961c16.52144,-23.64275 37.27087,-41.25 60.25,-41.25c22.93746,0 43.93743,11.90491 59.75,35.25c2.19899,3.24651 5.88227,22.83784 3.89123,23.94724c-2.97694,1.65874 -55.28548,-10.78057 -63.39123,-10.78057c-8.43856,0 -57.31213,11.19019 -60.9229,10.52524c-2.6,-0.4788 -2.04397,-14.16171 0.42291,-17.69191z" fill="url(#color-9)" fill-rule="nonzero" stroke="#000000" stroke-width="1"/><path d="M337.87557,71.8658c0,9.14006 -8.24543,16.54954 -18.41667,16.54954c-10.17124,0 -18.41667,-7.40948 -18.41667,-16.54954c0,-9.14006 8.24543,-16.54954 18.41667,-16.54954c10.17124,0 18.41667,7.40948 18.41667,16.54954z" fill="url(#color-10)" fill-rule="nonzero" stroke="none" stroke-width="0"/><path d="M270.57187,107.23894l2.83334,-8.78572c0,0 8.38245,-3.22377 9.03638,-3.40847c4.87995,-1.37836 25.70344,-8.21057 37.13028,-8.21057c11.03631,0 32.30917,6.51103 38.01657,8.0849c0.95074,0.26217 7.62628,4.74844 7.62628,4.74844l1.82143,8.83333c0,0 -8.71824,-2.99878 -9.5178,-2.99654c-1.88852,0.0053 -5.82465,-0.9574 -10.94539,-2.09485c-7.41256,-1.64651 -17.47406,3.50751 -27.23352,3.53491c-9.94581,0.02792 -19.58437,-5.30103 -26.47853,-3.80424c-4.75314,1.03195 -8.12256,1.90186 -9.20032,1.90488c-0.72784,0.00204 -13.08872,2.19393 -13.08872,2.19393z" fill="#141d18" fill-rule="nonzero" stroke="#000000" stroke-width="0"/><path d="M329.40612,80.96067l-18.24951,-0.72108l-0.40074,-19.91504l5.4799,0.05106l-0.23111,13.48928l13.12073,0.23107z" data-paper-data="{&quot;index&quot;:null}" fill="url(#color-11)" fill-rule="evenodd" stroke="none" stroke-width="1"/><path d="M321.58806,168.62075c0,0 -25.15395,22.08602 -40.05509,15.24439c-14.90114,-6.84162 -14.22695,-40.16713 -14.22695,-40.16713c0,0 14.33284,15.22937 23.38537,19.38569c9.04147,4.15125 30.89668,5.53705 30.89668,5.53705z" fill="#000000" fill-rule="nonzero" stroke="none" stroke-width="0"/><path d="M350.09954,162.99658c8.93403,-4.10191 23.07925,-19.13193 23.07925,-19.13193c0,0 0.66537,32.88928 -14.04072,39.64135c-14.70608,6.75207 -39.53078,-15.04484 -39.53078,-15.04484c0,0 21.56913,-1.36767 30.49224,-5.46458z" data-paper-data="{&quot;index&quot;:null}" fill="#000000" fill-rule="nonzero" stroke="none" stroke-width="0"/><path d="M306.08961,172.46584c-3.03893,-9.31228 9.44444,-26.4 9.44444,-26.4c0,0 2.91771,0.38215 4.39081,0.43071c1.55573,0.05129 4.48697,-0.35293 4.48697,-0.35293c0,0 10.6936,19.54451 8.66667,26.1c-4.78824,15.48611 -23.94996,9.5345 -26.98889,0.22222z" fill="url(#color-12)" fill-rule="nonzero" stroke="#000000" stroke-width="2"/><g stroke="none" stroke-width="1"><path d="M327.79616,151.12257c1.52338,-0.83587 3.18137,-1.20669 4.97595,-1.11349c-0.74533,0.78516 -1.7337,1.30778 -2.9651,1.56786c0.03756,0.03471 0.0751,0.0692 0.11263,0.10348c-0.42771,0.09392 -0.84493,0.21511 -1.24981,0.36165c-0.29017,-0.29495 -0.5814,-0.60144 -0.87367,-0.91949z" fill="#2f2d2e" fill-rule="nonzero"/><path d="M335.22533,125.94707c-0.66683,0.01517 -0.99216,0.35597 -0.97699,1.02249c-1.35246,-1.4114 -3.03319,-2.04003 -5.0442,-1.88574c-0.35566,-0.99216 -1.03766,-1.64352 -2.04498,-1.95398c0.10231,-0.13988 0.20532,-0.27743 0.30903,-0.41266c0.94609,0.27093 1.94853,0.40567 2.98416,0.3821c0.22853,-0.0052 0.45511,-0.01804 0.67948,-0.03824c1.63049,0.56687 2.99498,1.5289 4.0935,2.88603z" fill="#7c82e2" fill-rule="nonzero"/><path d="M329.20421,125.08382c2.01101,-0.15429 3.69174,0.47434 5.0442,1.88574c1.91692,3.05148 2.49262,6.37264 1.7271,9.96329c-1.34428,-4.39275 -4.22962,-6.66101 -8.65704,-6.80482c-0.42991,-2.18878 0.19901,-3.87013 1.88574,-5.0442z" fill="#4c4ebf" fill-rule="evenodd"/><path d="M327.15918,123.12984c1.00732,0.31046 1.68932,0.96182 2.04498,1.95398c-1.68673,1.17408 -2.31564,2.85542 -1.88574,5.0442c4.42742,0.14381 7.31276,2.41207 8.65704,6.80482c0.76551,-3.59064 0.18981,-6.91181 -1.7271,-9.96329c-0.01517,-0.66652 0.31017,-1.00732 0.97699,-1.02249c2.9023,4.55165 3.84983,9.53138 2.84059,14.93924c-0.2331,3.99834 -1.99738,7.03926 -5.29384,9.12279c-1.79458,-0.0932 -3.45258,0.27762 -4.97595,1.11349c-5.49643,-9.27536 -5.70876,-18.60665 -0.63698,-27.99276z" fill="#0e0e12" fill-rule="evenodd"/><path d="M328.91677,134.68983c3.65664,-0.23325 4.6905,1.24362 3.10159,4.43059c-1.28152,0.51929 -2.61138,0.71659 -3.98759,0.59087c-0.17473,-1.78849 0.12028,-3.46163 0.886,-5.02146z" fill="#fbf9f9" fill-rule="evenodd"/></g><g data-paper-data="{&quot;index&quot;:null}" stroke="none" stroke-width="1"><path d="M310.74816,152.34939c-0.40442,-0.1478 -0.82126,-0.27029 -1.24867,-0.36554c0.03764,-0.03416 0.07527,-0.06853 0.11294,-0.10312c-1.23059,-0.26392 -2.21731,-0.78962 -2.96019,-1.5771c1.79487,-0.0876 3.4517,0.28839 4.97246,1.129c-0.29326,0.31714 -0.58544,0.62272 -0.87653,0.91676z" fill="#2f2d2e" fill-rule="nonzero"/><path d="M304.27405,126.23409c1.10275,-1.3537 2.47024,-2.31147 4.10249,-2.87324c0.22431,0.0209 0.45084,0.03444 0.67935,0.04036c1.03555,0.0268 2.33253,-0.22247 3.27946,-0.49045c0.10329,0.13556 0.32352,0.62637 0.42539,0.76657c-1.00829,0.30732 -2.10407,0.72125 -2.46283,1.7123c-2.01052,-0.16056 -3.69321,0.46282 -5.05006,1.86999c0.01725,-0.66648 -0.30703,-1.00827 -0.9738,-1.02553z" fill="#7c82e2" fill-rule="nonzero"/><path d="M312.16787,130.43965c-4.42784,0.13001 -7.32025,2.38925 -8.67822,6.77779c-0.75432,-3.59302 -0.16825,-6.91237 1.75817,-9.95785c1.35685,-1.40717 3.03954,-2.03055 5.05006,-1.86999c1.68306,1.17933 2.30672,2.86263 1.86999,5.05006z" fill="#4c4ebf" fill-rule="evenodd"/><path d="M311.62469,151.43264c-1.52076,-0.84062 -3.17759,-1.21661 -4.97246,-1.129c-3.28994,-2.0938 -5.04472,-5.14021 -5.26535,-9.13926c-0.99237,-5.41098 -0.02931,-10.38773 2.88717,-14.93031c0.66677,0.01726 0.99105,0.35905 0.9738,1.02553c-1.92642,3.04549 -2.51249,6.36484 -1.75817,9.95785c1.35798,-4.38854 4.25038,-6.64778 8.67822,-6.77779c0.43673,-2.18743 -0.18694,-3.87073 -1.86999,-5.05006c0.35876,-0.99105 1.34278,-1.64028 2.35107,-1.9476c5.04248,9.40188 4.50105,18.73246 -1.02428,27.99063z" fill="#0e0e12" fill-rule="evenodd"/><path d="M311.42573,140.02068c-1.3766,0.12143 -2.70583,-0.08002 -3.98573,-0.60331c-1.57896,-3.19191 -0.5405,-4.66554 3.1154,-4.42089c0.76085,1.56221 1.05063,3.23626 0.87033,5.02419z" fill="#fbf9f9" fill-rule="evenodd"/></g><path d="M315.96137,147.18068l1.26667,-4.92821l5.46667,0.2l1.12308,4.84103c0,0 -2.83871,0.7961 -4.25828,0.75031c-1.33016,-0.04291 -3.59813,-0.86313 -3.59813,-0.86313z" fill="#907b72" fill-rule="nonzero" stroke="#000000" stroke-width="0"/></g><g fill-rule="evenodd" stroke="none" stroke-width="1"><path d="M323.40263,220.25735c-0.55587,0.58435 -0.63458,1.21364 -0.2365,1.88752c-1.1202,1.2277 -1.64089,2.63716 -1.56215,4.22847c0.07217,1.03809 -0.10355,2.04836 -0.52726,3.03086c-0.55587,0.58435 -0.63458,1.21364 -0.2365,1.88752c-0.07524,1.57259 -0.46305,3.09697 -1.16295,4.57342c-0.55587,0.58435 -0.63458,1.21364 -0.2365,1.88752c-0.83458,4.80747 -0.54876,9.58692 0.85784,14.33866c0.44045,3.45306 0.50323,6.87759 0.1875,10.27289c-0.55587,0.58435 -0.63458,1.21364 -0.2365,1.88752c-0.55587,0.58435 -0.63458,1.21364 -0.2365,1.88752c0.11896,0.80965 -0.07511,1.57165 -0.58147,2.2867c-2.29035,3.34271 -4.8022,6.51812 -7.53504,9.52644c-1.83081,0.25946 -3.68254,0.51897 -5.55409,0.77878c-0.9541,-0.65016 -1.9645,-0.82603 -3.03086,-0.52726c-0.4256,0.21655 -0.8067,0.12012 -1.14336,-0.29074c-0.95908,-1.16 -2.10243,-1.45075 -3.43008,-0.87222c-2.2867,-0.58147 -4.5192,-0.4188 -6.69744,0.48805c-1.43392,-0.2692 -2.78931,-0.04585 -4.06578,0.67034c-0.2301,0.26626 -0.4779,0.28433 -0.74416,0.05423c-2.52025,-0.9632 -4.74632,-2.42177 -6.67786,-4.37611c-0.47586,-1.7563 -1.09837,-3.45666 -1.86792,-5.10067c-0.58435,-0.55587 -1.21364,-0.63458 -1.88752,-0.2365c-1.85073,-0.72143 -3.60212,-1.65336 -5.25356,-2.79664c-1.21671,0.78109 -2.47831,1.43411 -3.78483,1.95906c-1.25258,-0.40256 -2.5108,-0.56036 -3.77503,-0.47303c-0.42549,0.21665 -0.80686,0.12 -1.14336,-0.29074c-2.12902,-1.83982 -4.25809,-3.67965 -6.3871,-5.51947c-0.89203,-0.95704 -1.59338,-2.02819 -2.10442,-3.21316c0.13769,-1.0755 -0.29753,-1.91669 -1.30603,-2.52323c-3.63495,-7.93163 -4.92691,-16.25398 -3.87663,-24.9663c1.65586,-7.38713 6.23094,-11.33654 13.72483,-11.84777c3.81162,-5.59365 8.91229,-7.46157 15.30202,-5.60375c5.06371,-5.10082 11.05062,-6.78392 17.9608,-5.04938c1.65986,0.70718 3.16299,1.65744 4.50939,2.85087c3.82585,-3.70605 8.29406,-4.84207 13.4047,-3.40819c4.32051,1.97414 7.41715,5.11498 9.28992,9.42255c0.1423,1.07911 0.15722,2.13795 0.04444,3.17625z" fill="#1a1a1a"/><path d="M314.45768,210.27458c6.84793,5.01768 9.12215,11.99322 3.60184,18.34984c-2.76278,3.64295 -15.72705,0.65292 -15.52796,-2.76675c0.0259,-0.44489 -0.71097,-4.84666 -0.59133,-5.13249c-0.48208,-0.76071 -1.08991,-1.40221 -1.82349,-1.92444c-1.24732,1.786 -1.91342,3.76717 -1.99825,5.9435c2.53668,10.85075 3.0838,21.78305 1.64185,32.7973c-1.45462,5.504 -4.92498,7.50263 -10.41075,5.99544c-1.02849,-0.42368 -1.82688,-1.1136 -2.39516,-2.06981c-2.31591,-8.67168 -3.27235,-17.5168 -2.86885,-26.53597c-0.46513,-1.33242 -1.36046,-1.64123 -2.68589,-0.92645c-0.31979,9.30733 0.59709,18.46726 2.75058,27.47973c-2.1843,3.72778 -5.2974,4.6405 -9.33892,2.73785c-1.02849,-0.42368 -1.82688,-1.1136 -2.39516,-2.06981c-1.629,-2.84763 -2.72316,-5.88506 -3.28241,-9.11222c-0.97777,-5.71978 -1.33616,-11.49142 -1.07475,-17.3153c-1.11128,-0.36344 -2.03686,-0.23379 -2.77706,0.3894c-0.43834,9.45453 0.85059,18.5873 3.86683,27.39839c-1.81848,1.00855 -3.68778,1.01998 -5.60833,0.03463c-3.15518,-2.18477 -5.60457,-4.99873 -7.34818,-8.44189c-2.87565,-6.59492 -4.25021,-13.47687 -4.12294,-20.64672c0.16693,-4.19224 1.65026,-7.79152 4.44994,-10.79784c5.41858,-1.02147 9.96889,-3.5974 13.65101,-7.72777c1.09817,-0.32936 2.19633,-0.65882 3.2945,-0.98819c2.22369,0.60615 4.48328,0.81555 6.77878,0.62819c6.12247,-6.80508 12.81087,-7.41717 20.06523,-1.83622c0.79092,0.05416 1.52609,-0.12407 2.20536,-0.53477c3.3711,-3.54712 7.35225,-4.52298 11.9435,-2.92764z" fill="#fbfbfb"/><path d="M323.40263,220.25735c0.39807,0.67389 0.31936,1.30317 -0.2365,1.88752c-0.39807,-0.67389 -0.31936,-1.30317 0.2365,-1.88752z" fill="#b7b7b7" opacity="0.745"/><path d="M323.16613,222.14488c-0.08515,1.52434 -0.60584,2.93382 -1.56215,4.22847c-0.07873,-1.59129 0.44195,-3.00076 1.56215,-4.22847z" fill="#777777"/><path d="M321.07673,229.40422c0.39807,0.67389 0.31936,1.30317 -0.2365,1.88752c-0.39807,-0.67389 -0.31936,-1.30317 0.2365,-1.88752z" fill="#d1d1d1" opacity="0.416"/><path d="M315.36583,269.09626c-1.37987,1.59678 -2.75973,3.19355 -4.13961,4.79033c-1.13194,1.1953 -2.52689,1.7331 -4.18403,1.61409c-6.22511,-2.31064 -12.53804,-2.53626 -18.93919,-0.6772c-4.88104,-0.58507 -6.37763,-3.1565 -4.4898,-7.71503c1.03825,-0.56643 1.91874,-1.3166 2.64148,-2.2498c3.90633,3.06539 7.97773,3.32942 12.21463,0.79317c1.76098,-1.38179 2.94126,-3.15105 3.5408,-5.30777c2.47639,0.01984 4.30316,1.13357 5.48028,3.3412c1.2925,0.52967 2.07623,0.16097 2.35075,-1.10644c-1.60089,-2.78395 -3.92065,-4.67235 -6.95878,-5.66483c1.15616,-0.90942 2.40857,-1.68656 3.75772,-2.33114c1.6966,-1.22658 2.82855,-2.80517 3.39544,-4.7361c-0.62918,-0.07882 -1.25833,-0.15768 -1.88752,-0.2365c-1.25512,1.43146 -2.73755,2.47477 -4.44764,3.12953c0.16117,-6.34568 -0.49769,-7.84866 -1.33283,-14.1719c5.32049,2.60395 9.13637,2.96082 13.70168,-0.86244c-0.9698,3.81007 -0.17507,1.86296 -0.51423,5.75421c1.51642,7.12124 2.04076,14.31494 1.5726,21.58066c-0.4422,1.42835 -1.02954,2.78021 -1.76175,4.05598z" fill="#f9f9f9"/><path d="M319.67726,235.86512c0.39807,0.67389 0.31936,1.30317 -0.2365,1.88752c-0.39807,-0.67389 -0.31936,-1.30317 0.2365,-1.88752z" fill="#acacac" opacity="0.804"/><path d="M320.48609,262.36423c0.39807,0.67389 0.31936,1.30317 -0.2365,1.88752c-0.39807,-0.67389 -0.31936,-1.30317 0.2365,-1.88752z" fill="#8a8a8a" opacity="0.945"/><path d="M320.24959,264.25176c0.39807,0.67389 0.31936,1.30317 -0.2365,1.88752c-0.39807,-0.67389 -0.31936,-1.30317 0.2365,-1.88752z" fill="#c6c6c6" opacity="0.592"/><path d="M319.43159,268.42595c-1.24439,4.19644 -3.75623,7.37181 -7.53504,9.52644c2.73284,-3.0083 5.24469,-6.18372 7.53504,-9.52644z" fill="#959595"/><path d="M315.36583,269.09626c-0.40767,1.98793 -1.47301,3.62423 -3.19583,4.90858c-0.34469,0.08982 -0.65918,0.05028 -0.94375,-0.11825c1.37987,-1.59678 2.75973,-3.19355 4.13961,-4.79033z" fill="#aeaeae" opacity="0.682"/><path d="M311.89655,277.95237c-1.72703,1.24727 -3.57802,1.5067 -5.55409,0.77878c1.87155,-0.25982 3.72329,-0.51932 5.55409,-0.77878z" fill="#d8d8d8" opacity="0.678"/><path d="M306.34247,278.73116c-1.06636,0.29878 -2.07679,0.1229 -3.03086,-0.52726c1.06636,-0.29878 2.07679,-0.1229 3.03086,0.52726z" fill="#c5c5c5" opacity="0.973"/><path d="M302.16823,277.91316c-1.19126,0.0221 -2.33461,-0.26864 -3.43008,-0.87222c1.32764,-0.57853 2.471,-0.28779 3.43008,0.87222z" fill="#d0d0d0" opacity="0.835"/><path d="M298.73817,277.04094c-2.21443,0.41049 -4.44691,0.57317 -6.69744,0.48805c2.17826,-0.90684 4.41074,-1.06953 6.69744,-0.48805z" fill="#e3e3e3" opacity="0.059"/><path d="M292.04072,277.529c-1.2974,0.71623 -2.65279,0.93955 -4.06578,0.67034c1.27647,-0.71619 2.63184,-0.93952 4.06578,-0.67034z" fill="#dddddd" opacity="0.086"/><path d="M278.68502,268.77676c-0.67389,0.39807 -1.30317,0.31936 -1.88752,-0.2365c0.67389,-0.39807 1.30317,-0.31936 1.88752,0.2365z" fill="#e2e2e2" opacity="0.349"/><path d="M276.79751,268.54027c-0.25704,0.20811 -0.56257,0.29274 -0.91664,0.25383c-1.48495,-0.70238 -2.97022,-1.40434 -4.45517,-2.10672c-1.09746,0.92108 -2.31965,1.25952 -3.66658,1.01531c1.30652,-0.52496 2.56813,-1.17797 3.78483,-1.95906c1.65144,1.14329 3.40282,2.07523 5.25356,2.79664z" fill="#d5d5d5" opacity="0.698"/><path d="M287.23078,278.25354c-3.23985,0.03897 -5.46593,-1.41961 -6.67786,-4.37611c1.93154,1.95433 4.15758,3.41291 6.67786,4.37611z" fill="#c3c3c3" opacity="0.294"/><path d="M253.04315,255.68306c1.00851,0.60654 1.44372,1.44773 1.30603,2.52323c-0.85332,-0.66906 -1.28856,-1.51029 -1.30603,-2.52323z" fill="#a2a2a2"/><path d="M267.75911,267.70265c-1.32036,0.58972 -2.57893,0.4323 -3.77503,-0.47303c1.26422,-0.08733 2.52246,0.07046 3.77503,0.47303z" fill="#e9e9e9" opacity="0.369"/><path d="M256.45362,261.41946c2.12902,1.83982 4.25809,3.67965 6.3871,5.51947c-2.99959,-0.82238 -5.12862,-2.66219 -6.3871,-5.51947z" fill="#b5b5b5"/></g></g></g></svg>