<svg version="1.1" xmlns="http://www.w3.org/2000/svg" xmlns:xlink="http://www.w3.org/1999/xlink" width="128.47404" height="226.31185" viewBox="0,0,128.47404,226.31185"><defs><linearGradient x1="240.00005" y1="148.47532" x2="240.00005" y2="221.52469" gradientUnits="userSpaceOnUse" id="color-1"><stop offset="0" stop-color="#4d0321"/><stop offset="1" stop-color="#780632"/></linearGradient><linearGradient x1="241.25856" y1="222.41478" x2="241.25856" y2="300.41478" gradientUnits="userSpaceOnUse" id="color-2"><stop offset="0" stop-color="#330000"/><stop offset="1" stop-color="#8e0000"/></linearGradient><linearGradient x1="228.12996" y1="242.45009" x2="228.12996" y2="253.30255" gradientUnits="userSpaceOnUse" id="color-3"><stop offset="0" stop-color="#3c3c3c"/><stop offset="1" stop-color="#8f8f8f"/></linearGradient><linearGradient x1="225.55575" y1="259.67018" x2="225.55575" y2="270.29659" gradientUnits="userSpaceOnUse" id="color-4"><stop offset="0" stop-color="#3c3c3c"/><stop offset="1" stop-color="#8f8f8f"/></linearGradient><linearGradient x1="223.93754" y1="276.09023" x2="223.93754" y2="283.69659" gradientUnits="userSpaceOnUse" id="color-5"><stop offset="0" stop-color="#3c3c3c"/><stop offset="1" stop-color="#8f8f8f"/></linearGradient><linearGradient x1="240.00014" y1="175.50001" x2="240.00014" y2="307.50001" gradientUnits="userSpaceOnUse" id="color-6"><stop offset="0" stop-color="#4d0321"/><stop offset="1" stop-color="#780632"/></linearGradient><linearGradient x1="235.61485" y1="91.13969" x2="235.61485" y2="200.63969" gradientUnits="userSpaceOnUse" id="color-7"><stop offset="0" stop-color="#8e0000"/><stop offset="1" stop-color="#330000"/></linearGradient><linearGradient x1="236.29267" y1="93.93752" x2="236.29267" y2="197.93752" gradientUnits="userSpaceOnUse" id="color-8"><stop offset="0" stop-color="#3f3f3f"/><stop offset="1" stop-color="#8a8a8a"/></linearGradient><linearGradient x1="240.07706" y1="81.88116" x2="240.07706" y2="202.47782" gradientUnits="userSpaceOnUse" id="color-9"><stop offset="0" stop-color="#4d0321"/><stop offset="1" stop-color="#780632"/></linearGradient><radialGradient cx="212.87093" cy="142.27563" r="23.48065" gradientUnits="userSpaceOnUse" id="color-10"><stop offset="0" stop-color="#a7a7a7"/><stop offset="1" stop-color="#8a4242"/></radialGradient><radialGradient cx="267.12933" cy="142.27561" r="23.48065" gradientUnits="userSpaceOnUse" id="color-11"><stop offset="0" stop-color="#a7a7a7"/><stop offset="1" stop-color="#8b4343"/></radialGradient><linearGradient x1="240.07322" y1="81.18815" x2="240.07322" y2="124.92756" gradientUnits="userSpaceOnUse" id="color-12"><stop offset="0" stop-color="#4d0321"/><stop offset="1" stop-color="#780632"/></linearGradient><linearGradient x1="198.30771" y1="165.4459" x2="198.30771" y2="193.23491" gradientUnits="userSpaceOnUse" id="color-13"><stop offset="0" stop-color="#380000"/><stop offset="1" stop-color="#680000"/></linearGradient></defs><g transform="translate(-175.84004,-81.18815)"><g data-paper-data="{&quot;isPaintingLayer&quot;:true}" fill-rule="nonzero" stroke-linejoin="miter" stroke-miterlimit="10" stroke-dasharray="" stroke-dashoffset="0" style="mix-blend-mode: normal"><path d="M176.00005,221.22425v-72.74893h128v72.22555l-3.33303,0.01561l-2.00387,-9.40666l-1.98358,9.74314l-113.04346,0.47173l-1.63605,-9.98287l-2.29125,9.64241z" fill="url(#color-1)" stroke="#000000" stroke-width="0" stroke-linecap="butt"/><path d="M210.75856,298.21477l8,-75.8h45v78z" fill="url(#color-2)" stroke="none" stroke-width="0" stroke-linecap="butt"/><path d="M241.65855,250.59659c0,2.5 -2.5,2.5 -2.5,2.5h-0.8c-4.72669,0 -10.46453,0.79251 -15.00064,-0.73167c-2.94639,-0.99002 -5.50821,-3.51053 -7.81422,-5.45986c0,0 -1.90847,-1.61486 -0.29361,-3.52332c1.61486,-1.90847 3.52332,-0.29361 3.52332,-0.29361c1.72371,1.46003 3.93185,3.79834 6.18578,4.54014c3.95595,1.30196 9.27803,0.46833 13.39936,0.46833h0.8c0,0 2.5,0 2.5,2.5z" fill="url(#color-3)" stroke="none" stroke-width="0.5" stroke-linecap="butt"/><path d="M234.99678,265.29365c0.52687,-0.20396 2.25767,-0.69545 3.19785,1.18491c1.11803,2.23607 -1.11803,3.3541 -1.11803,3.3541l-1.51803,0.46393c-8.18022,0 -14.61944,-1.72963 -21.68624,-5.95627c0,0 -2.14373,-1.28624 -0.85749,-3.42997c1.28624,-2.14373 3.42997,-0.85749 3.42997,-0.85749c6.12979,3.69067 11.55208,5.1668 18.55198,5.24079z" fill="url(#color-4)" stroke="none" stroke-width="0.5" stroke-linecap="butt"/><path d="M236.05854,281.19659c0,2.5 -2.5,2.5 -2.5,2.5l-0.53041,-0.02193c-4.6797,-0.62585 -9.79666,0.2564 -14.35988,-0.62662c-0.30177,-0.05839 -4.75914,-1.93038 -5.27125,-2.14376c0,0 -2.30769,-0.96154 -1.34615,-3.26923c0.96154,-2.30769 3.26923,-1.34615 3.26923,-1.34615c1.44922,0.60384 2.78652,1.56235 4.32875,1.85624c4.42419,0.84309 9.48081,-0.03277 14.04012,0.57338l-0.13041,-0.02193c0,0 2.5,0 2.5,2.5z" fill="url(#color-5)" stroke="none" stroke-width="0.5" stroke-linecap="butt"/><path d="M206.75014,307.5l1.61011,-14.0185c1.23968,-0.28803 2.35793,-0.69494 3.24289,-1.19842c2.70952,-1.55181 7.07083,-1.91957 9.29056,-4.14281c1.48714,-1.48949 -0.35568,-3.96251 0.7952,-4.99516c2.60458,-2.33699 9.53055,-1.99375 6.53588,-7.5779c-0.65574,-1.14884 -3.46877,-4.0061 -2.56977,-5.48176c1.3455,-2.20857 4.63788,-3.82425 4.85054,-6.60332c0.15071,-1.96956 -1.16456,-3.23219 -2.13604,-4.7024c-1.41458,-2.1408 -1.53128,-3.99769 -1.14967,-6.41106c2.04675,-1.97204 6.1474,-0.48105 8.42502,-2.3829c1.14994,-0.96022 0.86516,-2.29711 0.86372,-3.571c-0.00539,-4.77421 -3.64115,-7.27192 -7.90279,-8.70809c-4.42251,-1.61501 -8.91812,-2.58935 -13.47453,-3.17729l6.76174,-58.8715l37.78325,-0.15789l13.57389,132z" fill="url(#color-6)" stroke="#000000" stroke-width="0" stroke-linecap="butt"/><path d="M293.11485,145.88969c0,30.23759 -25.74362,54.75 -57.5,54.75c-31.75637,0 -57.5,-24.51241 -57.5,-54.75c0,-30.23759 25.74363,-54.75 57.5,-54.75c31.75638,0 57.5,24.51241 57.5,54.75z" fill="url(#color-7)" stroke="none" stroke-width="0" stroke-linecap="butt"/><path d="M193.44821,175.47302c-1.72214,-0.19668 -4.09115,-0.2538 -5.76874,0.18161c0.85014,-0.24871 1.73137,-1.85933 2.19359,-3.55152c0.17453,0.45331 0.39548,0.8395 0.65284,0.84985c0.88382,0.03555 1.37199,-1.89675 2.17343,-1.52244c0.64726,0.3023 0.59591,3.118 1.03155,4.05139c-0.09936,0.002 -0.19531,0.00109 -0.28267,-0.00889z" fill-opacity="0.01" fill="#000000" stroke="none" stroke-width="0" stroke-linecap="butt"/><path d="M291.79265,145.93752c0,28.71881 -24.8482,52 -55.5,52c-30.6518,0 -55.5,-23.28119 -55.5,-52c0,-28.71881 24.8482,-52 55.5,-52c30.6518,0 55.5,23.28119 55.5,52z" fill="url(#color-8)" stroke="none" stroke-width="0" stroke-linecap="butt"/><path d="M194.32508,178.06126c-0.13243,0.00457 0.32983,-0.04918 0.35478,-0.17931c0.09266,-0.48327 0.25484,-1.01487 0.24097,-1.50693c1.14581,0.12505 2.00753,-1.69702 2.94198,-0.98118c0.76507,0.58609 0.36776,1.64289 0.47616,2.42011c-1.21123,-0.19882 -3.08423,0.21518 -4.01389,0.24731z" fill-opacity="0.01" fill="#000000" stroke="none" stroke-width="0" stroke-linecap="butt"/><path d="M185.94821,167.97302c-2.03206,0 -4.01358,-0.35423 -5.99487,-0.64105c0.98005,-0.69845 2.01191,-1.39597 3.15443,-1.62612c0.52514,-0.10578 1.2655,0.05588 1.63398,-0.37248c-0.11271,0.22306 -0.25375,0.53907 -0.27115,0.70774c-0.05927,0.57444 -0.44693,1.33055 -0.03198,1.7322c0.28131,0.27229 1.09395,-0.06825 1.56871,-0.39226c-0.01436,0.16412 -0.01201,0.3659 0.00449,0.591c-0.02326,0.00063 -0.04451,0.00096 -0.06361,0.00096z" fill-opacity="0.01" fill="#000000" stroke="none" stroke-width="0" stroke-linecap="butt"/><path d="M187.67181,170.00713c-0.02661,0.24812 0.01283,-0.12421 0.02788,-0.53685c0.0224,0.00043 0.04467,0.00088 0.06677,0.00135c-0.04075,0.15359 -0.07274,0.33126 -0.09465,0.53549z" fill-opacity="0.01" fill="#000000" stroke="none" stroke-width="0" stroke-linecap="butt"/><path d="M175.84004,142.17949c0,-33.30185 28.7599,-60.29833 64.23702,-60.29833c35.47712,0 64.23702,26.99649 64.23702,60.29833c0,33.30185 -28.7599,60.29833 -64.23702,60.29833c-8.25421,0 -16.14481,-1.46138 -23.39418,-4.12354c-0.08614,-3.98422 -0.50525,-7.88251 -0.48467,-11.88127c-0.02664,-1.00767 0.18336,-1.73649 -0.89611,-2.41126c-0.35208,-0.22008 -1.17763,0.20829 -1.50786,-0.29399c-0.38957,-0.59252 -0.3658,-2.71837 -0.8157,-3.07508c-0.95763,-0.75928 -2.6347,-0.11935 -3.44635,0.40629c-0.13186,0.08539 -0.35649,0.25964 -0.52258,0.42036c0.00215,-0.6615 -0.33363,-2.04973 -0.39058,-2.13173c-0.93884,-1.35187 -1.53298,-1.35148 -2.75034,-0.83832c-0.29686,0.12514 -1.3719,1.40304 -0.9621,0.67736c-1.10841,-3.04742 -2.49619,-3.40564 -4.97919,-1.50334c-0.15464,0.11847 0.03427,-0.39039 0.01472,-0.5842c-0.12385,-1.22744 -0.22953,-2.33785 -1.4085,-3.08691c-1.14909,-0.73007 -2.4454,0.51775 -3.31757,0.92103c-0.32925,0.15224 -0.22481,-0.68997 -0.324,-1.03889c-0.29264,-1.02944 -0.53187,-3.44774 -1.69495,-3.91881c-1.24451,-0.50405 -2.08758,0.57366 -2.32657,1.47756c-0.12319,0.46592 0.07,-0.98284 -0.06953,-1.44413c-0.16614,-0.16757 -0.3804,-0.37764 -0.61903,-0.58458c-0.05909,-0.63461 -0.25504,-1.14199 -0.62986,-1.4026c-0.30362,-0.2111 -1.18927,-0.21706 -2.0203,-0.17955c-0.1513,-0.93062 -0.40061,-2.15799 -0.86625,-2.37701c-0.12539,-0.05898 -0.29676,-0.02109 -0.47525,0.07028c-0.05807,-0.74699 -0.41335,-1.62412 -0.65535,-1.77261c-1.13246,-0.6949 -3.16502,0.25132 -4.88909,1.30238c-3.09751,-7.06769 -4.80582,-14.80946 -4.80582,-22.92575z" fill="url(#color-9)" stroke="#000000" stroke-width="0" stroke-linecap="butt"/><path d="M189.33897,141.97572l-3.6,-2.6" fill="#840000" stroke="#000000" stroke-width="2" stroke-linecap="round"/><path d="M294.33894,138.3757l-4.2,3.4" fill="#840000" stroke="#000000" stroke-width="2" stroke-linecap="round"/><path d="M189.39027,142.27563c0,-12.968 10.51265,-23.48065 23.48065,-23.48065c12.968,0 23.48065,10.51265 23.48065,23.48065c0,12.968 -10.51265,23.48065 -23.48065,23.48065c-12.968,0 -23.48065,-10.51265 -23.48065,-23.48065z" fill="url(#color-10)" stroke="#000000" stroke-width="0" stroke-linecap="butt"/><path d="M196.45564,142c0,-9.12808 7.39976,-16.52784 16.52783,-16.52784c9.12808,0 16.52784,7.39977 16.52784,16.52784c0,9.12808 -7.39977,16.52784 -16.52784,16.52784c-9.12808,0 -16.52783,-7.39977 -16.52783,-16.52784z" fill="#000000" stroke="none" stroke-width="0" stroke-linecap="butt"/><path d="M267.12933,165.75627c-12.968,0 -23.48065,-10.51265 -23.48065,-23.48065c0,-12.968 10.51265,-23.48065 23.48065,-23.48065c12.968,0 23.48065,10.51265 23.48065,23.48065c0,12.968 -10.51265,23.48065 -23.48065,23.48065z" data-paper-data="{&quot;index&quot;:null}" fill="url(#color-11)" stroke="#000000" stroke-width="0" stroke-linecap="butt"/><path d="M267.01671,158.52784c-9.12807,0 -16.52783,-7.39977 -16.52783,-16.52784c0,-9.12808 7.39977,-16.52784 16.52783,-16.52784c9.12807,0 16.52783,7.39977 16.52783,16.52784c0,9.12808 -7.39977,16.52784 -16.52783,16.52784z" data-paper-data="{&quot;index&quot;:null}" fill="#000000" stroke="none" stroke-width="0" stroke-linecap="butt"/><path d="M202.0279,113.46716c0,0 6.70895,-5.16922 11.79722,-6.36355c5.08827,-1.19433 12.33413,0.69937 12.33413,0.69937c0,0 -8.03812,-0.06028 -11.96762,0.86207c-4.10648,0.96388 -12.16372,4.80211 -12.16372,4.80211z" fill="#000000" stroke="none" stroke-width="0" stroke-linecap="butt"/><path d="M265.96236,108.66506c-3.9295,-0.92235 -11.96762,-0.86207 -11.96762,-0.86207c0,0 7.24586,-1.8937 12.33413,-0.69937c5.08826,1.19433 11.79721,6.36355 11.79721,6.36355c0,0 -8.05724,-3.83822 -12.16372,-4.80211z" data-paper-data="{&quot;index&quot;:null}" fill="#000000" stroke="none" stroke-width="0" stroke-linecap="butt"/><path d="M185.73902,139.37572l3.6,2.6" fill="none" stroke="#000000" stroke-width="0" stroke-linecap="round"/><path d="M294.33894,138.3757l-4.2,3.4" fill="none" stroke="#000000" stroke-width="0" stroke-linecap="round"/><path d="M178.19822,124.92756c0,0 3.37529,-8.2927 8.79336,-16.47464c3.92095,-5.9211 9.26894,-11.7842 13.47046,-14.40439c0.4621,-0.28818 6.42225,-4.55857 6.88039,-4.81212c11.69001,-6.4696 25.5739,-7.97251 33.60124,-8.04718c3.83172,-0.03564 13.12217,0.79398 23.22364,4.57099c6.66572,2.49236 13.82572,6.69154 19.50091,11.26481c12.82325,10.33344 18.28,27.90253 18.28,27.90253l-21.75137,-1.29257l-5.2677,-17.45201l-0.21445,16.94212l-18.81757,0.70583l1.2988,-15.72055l-6.91764,15.30009l-49.5637,0.38577l-2.01636,-10.36868l-2.10892,10.54556l-18.39108,0.95444z" fill="url(#color-12)" stroke="#000000" stroke-width="0" stroke-linecap="butt"/><path d="M184.60999,168.46569c-0.00105,-0.00976 -0.00207,-0.01957 -0.00306,-0.02942c-0.24876,-2.48759 2.23883,-2.73635 2.23883,-2.73635c1.34849,0.03339 2.92599,-0.65235 4.04547,0.10018c1.7786,1.19559 2.63271,5.35676 2.45327,7.39868c-0.01715,0.1951 -0.23039,0.36706 -0.42606,0.52709c0.14098,0.13989 0.28869,0.28728 0.44385,0.44388c0.00791,0.00799 0.01582,0.01598 0.02371,0.02397c0.21471,-0.10261 0.43796,-0.21592 0.6372,-0.21917c2.01383,-0.03287 4.43819,-0.59958 6.00556,0.6653c1.21685,0.98201 1.50693,2.75897 2.00318,4.2418c0.05066,0.15137 -0.27812,2.55202 0.68934,2.82418c3.68394,1.03636 5.78618,-1.00243 8.05265,3.50687c1.84748,3.67569 2.29546,6.63341 -3.23717,7.96741c-2.52844,0.60965 -7.00447,-4.0365 -8.52721,-5.55924c-3.85142,-2.58429 -5.72048,-6.32653 -8.79377,-9.52089c-0.75965,-0.29005 -1.36921,-0.62167 -1.66597,-0.974c-0.17538,-0.20823 -0.26059,-0.5708 -0.29207,-1.0228c-1.47496,-1.58694 -2.48905,-3.03127 -3.48441,-5.48719l-0.17881,-1.92848c0,0 0,-0.08425 0.01547,-0.22182zM197.12996,178.71684c0.05367,0.06911 0.10741,0.13813 0.16125,0.20704c-0.01909,-0.07536 -0.05931,-0.13989 -0.13093,-0.18869c-0.01005,-0.00685 -0.02016,-0.01295 -0.03032,-0.01835z" fill="url(#color-13)" stroke="none" stroke-width="0.5" stroke-linecap="butt"/><path d="M245.29878,184.23959c0,3.86599 -2.38781,7 -5.33333,7c-2.94552,0 -5.33333,-3.13401 -5.33333,-7c0,-3.86599 2.38781,-7 5.33333,-7c2.94552,0 5.33333,3.13401 5.33333,7z" fill="#000000" stroke="#000000" stroke-width="2" stroke-linecap="butt"/></g></g></svg>