<svg version="1.1" xmlns="http://www.w3.org/2000/svg" xmlns:xlink="http://www.w3.org/1999/xlink" width="141.32805" height="267.22501" viewBox="0,0,141.32805,267.22501"><defs><radialGradient cx="235.4835" cy="242.80325" r="20.58333" gradientUnits="userSpaceOnUse" id="color-1"><stop offset="0" stop-color="#b4c6fe"/><stop offset="1" stop-color="#6993fe"/></radialGradient></defs><g transform="translate(-160.263,-46.38752)"><g data-paper-data="{&quot;isPaintingLayer&quot;:true}" fill-rule="nonzero" stroke-linejoin="miter" stroke-miterlimit="10" stroke-dasharray="" stroke-dashoffset="0" style="mix-blend-mode: normal"><path d="M178.40902,313.61253v-267.22501h123.18203v267.22501z" fill-opacity="0.01" fill="#000000" stroke="none" stroke-width="0" stroke-linecap="butt"/><path d="M223.87531,197.02796v-7.66667h19.66667v7.66667z" fill="#aca9ca" stroke="#000000" stroke-width="1.5" stroke-linecap="butt"/><g stroke="#000000" stroke-linecap="butt"><path d="M161.263,165.78295c0,-14.03446 28.7599,-25.41163 64.23702,-25.41163c35.47712,0 64.23702,11.37718 64.23702,25.41163c0,14.03446 -28.7599,25.41163 -64.23702,25.41163c-35.47712,0 -64.23702,-11.37718 -64.23702,-25.41163z" fill="#edb35b" stroke-width="2"/><path d="M161.98607,165.80567c0,-0.3068 5.20666,23.56621 63.36046,23.99392c55.56352,0.40866 63.51358,-24.42329 63.51358,-23.99392c0,13.82498 -28.40173,25.03234 -63.43702,25.03234c-35.03529,0 -63.43702,-11.20736 -63.43702,-25.03234z" fill="#b68944" stroke-width="0"/></g><path d="M205.87533,307.50005l14.14285,-102.8421l39.28325,-0.15789l13.07389,103zM239.75025,276.00005c13.80712,0 25,-11.19288 25,-25c0,-13.80712 -11.19288,-25 -25,-25c-13.80712,0 -25,11.19288 -25,25c0,13.80712 11.19288,25 25,25z" fill="#dfb85c" stroke="#000000" stroke-width="2" stroke-linecap="butt"/><g fill="#9a9a9a" stroke="#000000" stroke-width="1.5" stroke-linecap="butt"><path d="M225.61337,140.48738c0,-14.03446 11.68289,-25.41163 26.09447,-25.41163c14.41158,0 26.09447,11.37717 26.09447,25.41163c0,14.03446 -11.68289,25.41163 -26.09447,25.41163c-14.41158,0 -26.09447,-11.37717 -26.09447,-25.41163z"/><path d="M171.60218,140.45675c0,-14.03446 11.68289,-25.41163 26.09447,-25.41163c14.41158,0 26.09447,11.37717 26.09447,25.41163c0,14.03446 -11.68289,25.41163 -26.09447,25.41163c-14.41158,0 -26.09447,-11.37717 -26.09447,-25.41163z"/></g><path d="M219.4167,250.83916c0,-11.36786 9.21547,-20.58333 20.58334,-20.58333c11.36786,0 20.58333,9.21547 20.58333,20.58333c0,11.36786 -9.21547,20.58334 -20.58333,20.58334c-11.36786,0 -20.58334,-9.21547 -20.58334,-20.58334z" fill="url(#color-1)" stroke="none" stroke-width="0" stroke-linecap="butt"/><path d="M260.5064,207.00014c0,3.31371 -9.21547,6 -20.58334,6c-11.36786,0 -20.58333,-2.68629 -20.58333,-6c0,-3.31371 9.21547,-6 20.58333,-6c11.36786,0 20.58334,2.68629 20.58334,6z" fill="#6d4726" stroke="#000000" stroke-width="1.5" stroke-linecap="butt"/><path d="M230.4651,208.33342v-7.66667h19.66667v7.66667z" fill="#aca9ca" stroke="#000000" stroke-width="1.5" stroke-linecap="butt"/><path d="M217.62525,226.66678l21.66666,-9.33333l22,9.66666" fill="none" stroke="#7a5a15" stroke-width="2" stroke-linecap="round"/><path d="M266.25455,274.33342l-27.32338,12.00572l-26.90938,-11.59173" data-paper-data="{&quot;index&quot;:null}" fill="none" stroke="#7a5a15" stroke-width="2" stroke-linecap="round"/><g stroke-linecap="butt"><path d="M174.01544,136.10905c0,-12.968 10.51265,-23.48065 23.48065,-23.48065c12.968,0 23.48065,10.51265 23.48065,23.48065c0,12.968 -10.51265,23.48065 -23.48065,23.48065c-12.968,0 -23.48065,-10.51265 -23.48065,-23.48065z" fill="#ffffff" stroke="#000000" stroke-width="2"/><path d="M181.08083,135.83341c0,-9.12808 7.39976,-16.52784 16.52783,-16.52784c9.12808,0 16.52784,7.39977 16.52784,16.52784c0,9.12808 -7.39977,16.52784 -16.52784,16.52784c-9.12808,0 -16.52783,-7.39977 -16.52783,-16.52784z" fill="#000000" stroke="none" stroke-width="0"/><path d="M251.75453,159.58968c-12.968,0 -23.48065,-10.51265 -23.48065,-23.48065c0,-12.968 10.51265,-23.48065 23.48065,-23.48065c12.968,0 23.48065,10.51265 23.48065,23.48065c0,12.968 -10.51265,23.48065 -23.48065,23.48065z" data-paper-data="{&quot;index&quot;:null}" fill="#ffffff" stroke="#000000" stroke-width="2"/><path d="M251.64195,152.36126c-9.12807,0 -16.52783,-7.39977 -16.52783,-16.52784c0,-9.12808 7.39977,-16.52784 16.52783,-16.52784c9.12807,0 16.52783,7.39977 16.52783,16.52784c0,9.12808 -7.39977,16.52784 -16.52783,16.52784z" data-paper-data="{&quot;index&quot;:null}" fill="#000000" stroke="none" stroke-width="0"/></g><g fill="#00ffff" stroke="#000000" stroke-width="0.5" stroke-linecap="butt"><path d="M194.11833,104.9352c0,0 8.46934,0.03558 13.21978,2.21504c4.75045,2.17947 9.30947,8.12118 9.30947,8.12118c0,0 -6.30966,-4.98028 -9.97828,-6.66341c-3.83385,-1.75893 -12.55097,-3.67281 -12.55097,-3.67281z"/><path d="M242.67076,109.53298c-3.82587,1.28624 -10.62624,5.57225 -10.62624,5.57225c0,0 5.16107,-5.42697 10.11514,-7.09252c4.95407,-1.66554 13.37978,-0.8064 13.37978,-0.8064c0,0 -8.8705,0.98249 -12.86868,2.32666z" data-paper-data="{&quot;index&quot;:null}"/></g><path d="M234.01037,172.75004c0,2.66938 -4.20184,4.83333 -9.38508,4.83333c-5.18324,0 -9.38508,-2.16395 -9.38508,-4.83333c0,-2.66938 4.20184,-4.83333 9.38508,-4.83333c5.18324,0 9.38508,2.16395 9.38508,4.83333z" fill="#000000" stroke="#000000" stroke-width="2" stroke-linecap="butt"/><g fill="#dd6448" stroke="#000000" stroke-width="2" stroke-linecap="butt"><path d="M174.01543,135.9423c0,-12.968 10.51265,-23.48064 23.48064,-23.48064c12.968,0 23.48064,10.51265 23.48064,23.48064c0,0 -46.9613,1.23155 -46.9613,0z"/><path d="M228.27388,135.9423c0,-12.968 10.51265,-23.48064 23.48064,-23.48064c12.968,0 23.48064,10.51265 23.48064,23.48064c0,1.2138 -46.9613,0 -46.9613,0z" data-paper-data="{&quot;index&quot;:null}"/></g></g></g></svg>