<svg version="1.1" xmlns="http://www.w3.org/2000/svg" xmlns:xlink="http://www.w3.org/1999/xlink" width="186.94524" height="296.57993" viewBox="0,0,186.94524,296.57993"><defs><linearGradient x1="254.25196" y1="17.03264" x2="258.16256" y2="81.88969" gradientUnits="userSpaceOnUse" id="color-1"><stop offset="0" stop-color="#000000"/><stop offset="1" stop-color="#4f5763"/></linearGradient><linearGradient x1="284.55651" y1="41.83711" x2="285.48613" y2="57.25483" gradientUnits="userSpaceOnUse" id="color-2"><stop offset="0" stop-color="#9ad4d4"/><stop offset="1" stop-color="#46bdb7"/></linearGradient><linearGradient x1="240" y1="88.98777" x2="240" y2="271.01232" gradientUnits="userSpaceOnUse" id="color-3"><stop offset="0" stop-color="#000000"/><stop offset="1" stop-color="#17b2c5"/></linearGradient><linearGradient x1="240.00004" y1="175.50008" x2="240.00004" y2="307.50005" gradientUnits="userSpaceOnUse" id="color-4"><stop offset="0" stop-color="#0c070c"/><stop offset="1" stop-color="#3dcadc"/></linearGradient><linearGradient x1="240.46918" y1="175.50008" x2="240.46918" y2="224.13935" gradientUnits="userSpaceOnUse" id="color-5"><stop offset="0" stop-color="#000000"/><stop offset="1" stop-color="#0c070c" stop-opacity="0.14012"/></linearGradient><linearGradient x1="229.21557" y1="78.833" x2="236.47385" y2="199.21109" gradientUnits="userSpaceOnUse" id="color-6"><stop offset="0" stop-color="#070b0d"/><stop offset="1" stop-color="#15b3c1"/></linearGradient><linearGradient x1="205.27024" y1="118.54628" x2="208.09667" y2="165.42244" gradientUnits="userSpaceOnUse" id="color-7"><stop offset="0" stop-color="#666968"/><stop offset="1" stop-color="#d0d0d7"/></linearGradient><linearGradient x1="211.76442" y1="204.54975" x2="215.12097" y2="204.34736" gradientUnits="userSpaceOnUse" id="color-8"><stop offset="0" stop-color="#ffffff"/><stop offset="1" stop-color="#ffffff" stop-opacity="0.16069"/></linearGradient><linearGradient x1="263.8438" y1="197.34172" x2="267.54864" y2="197.11834" gradientUnits="userSpaceOnUse" id="color-9"><stop offset="0" stop-color="#ffffff" stop-opacity="0.08004"/><stop offset="1" stop-color="#ffffff"/></linearGradient></defs><g transform="translate(-146.52738,-17.03258)"><g data-paper-data="{&quot;isPaintingLayer&quot;:true}" fill-rule="nonzero" stroke-linejoin="miter" stroke-miterlimit="10" stroke-dasharray="" stroke-dashoffset="0" style="mix-blend-mode: normal"><path d="M178.40899,313.61251v-267.22501c0,0 47.08901,0 68.65763,0c19.22089,0 54.5244,0 54.5244,0v267.22501z" fill-opacity="0.01" fill="#000000" stroke="none" stroke-width="0" stroke-linecap="butt"/><g stroke-linecap="round"><path d="M223.38459,79.04287l11.10201,-48.18444l18.9444,-13.77632l35.89595,7.72315l-3.67867,16.42635l-34.46166,-6.71102l-9.16991,48.34259z" fill="url(#color-1)" stroke="#000000" stroke-width="0"/><path d="M228.90603,56.73771c0,0 6.09993,2.83008 9.06585,3.66929c2.90046,0.82069 8.53764,1.31168 8.53764,1.31168l-2.01486,8.78056c0,0 -7.37487,0.20178 -10.35648,-0.95503c-2.711,-1.05182 -7.45722,-4.15809 -7.45722,-4.15809z" fill="#2d1723" stroke="#000000" stroke-width="0"/><path d="M232.79236,39.20022c0,0 5.77362,1.04832 8.44715,1.63012c2.90714,0.63264 8.35362,2.02598 8.35362,2.02598l-1.5361,6.40964c0,0 -6.0553,0.06204 -8.78062,-0.49901c-2.77725,-0.57173 -7.72999,-2.89994 -7.72999,-2.89994z" fill="#2d1723" stroke="#000000" stroke-width="0"/><path d="M269.03637,20.81032c0,0 -0.87925,6.37329 -1.65647,9.21914c-0.71796,2.62888 -2.84317,7.25672 -2.84317,7.25672l-8.27396,-1.77075c0,0 1.12259,-5.81864 2.02004,-8.63062c0.84916,-2.66071 3.2278,-7.8126 3.2278,-7.8126z" fill="#2d1723" stroke="#000000" stroke-width="0"/><path d="M283.48112,23.50986c0,0 -1.20785,5.77104 -1.97341,8.57419c-0.7329,2.68359 -2.52624,7.90167 -2.52624,7.90167l-7.26362,-2.03392c0,0 0.89821,-5.07245 1.52879,-7.59702c0.62304,-2.4944 2.23237,-7.46104 2.23237,-7.46104z" fill="#2d1723" stroke="#000000" stroke-width="0"/><path d="M254.25196,17.03258l-3.04885,17.76165l-15.93259,-4.53102z" fill="#0b090b" stroke="#000000" stroke-width="0"/><path d="M223.38459,79.04287l11.10201,-48.18444l18.9444,-13.77632l35.89595,7.72315l-3.67867,16.42635l-34.46166,-6.71102l-9.16991,48.34259z" fill="none" stroke="#000000" stroke-width="0"/><path d="M289.31088,24.58583l-3.66677,17.72095l3.64202,-18.13123" fill="none" stroke="#9ad4d4" stroke-width="1"/><path d="M283.47746,47.20747l0.12177,-5.31264l2.36424,0.01051l0.05644,15.3173" fill="none" stroke="url(#color-2)" stroke-width="1"/></g><g stroke-linecap="round"><path d="M302.42136,119.02461l22.87988,23.28845l-19.61133,22.47131l-1.22571,67.00536l29.00842,13.07422l-21.65417,4.49426l12.66565,21.65417c0,0 -85.41974,0 -116.59013,0c-20.86918,0 -52.26225,0 -52.26225,0l13.35304,-21.18123l-22.45738,-6.06956l27.91998,-11.53216v-64.94431l-20.02956,-24.27824l22.45738,-22.45738l71.01387,-31.56172z" fill="url(#color-3)" stroke="#000000" stroke-width="0"/><path d="M202.8477,270.96889c0,0 4.95381,-38.48853 5.68043,-54.39498c0.55345,-12.11557 -1.69707,-32.80545 -1.69707,-32.80545l70.85492,-5.03762c0,0 -3.54934,23.03061 -3.82275,33.09039c-0.44305,16.30151 1.41807,59.33696 1.41807,59.33696l-0.49499,0.0008" fill="#0f7784" stroke="#004c5d" stroke-width="1.5"/><path d="M164.08365,151.72081l-1.29333,7.50129l-2.58665,-10.34661l-3.62132,8.79462l-1.03466,-12.93327" fill="#083d44" stroke="#004c5d" stroke-width="0"/><path d="M325.48774,141.86576l-0.51733,14.48526l-2.32799,-11.38127h-2.58665l-1.29332,13.45059l-3.10399,-6.98396" fill="#083d44" stroke="#004c5d" stroke-width="0"/><path d="M151.25175,243.08682l-3.08915,9.70873l-0.4413,-9.26743" fill="#1499a9" stroke="#004c5d" stroke-width="0"/><path d="M157.29449,244.09258l-2.60927,7.50163l-0.65231,-7.50163" fill="#1499a9" stroke="#004c5d" stroke-width="0"/><path d="M181.88618,269.08549l-4.12603,6.0015l-1.12528,-5.6264l-3.37584,-0.37509l-0.90646,5.67987l-1.95695,13.04631l-1.63079,-10.11089l-1.63079,3.14643l-1.20048,-12.60505" fill="#17b0c3" stroke="#004c5d" stroke-width="0"/><path d="M200.18095,268.35992l-2.64784,15.00441l-2.20654,-14.5631" fill="#17b0c3" stroke="#004c5d" stroke-width="0"/><path d="M322.42277,245.85332l-2.64783,9.70873l-1.32392,-11.47396" fill="#1499a9" stroke="#004c5d" stroke-width="0"/><path d="M332.13151,244.5294l-2.20653,7.5022l-1.32392,-6.61959" fill="#1499a9" stroke="#004c5d" stroke-width="0"/><path d="M322.86408,270.56647l-1.32392,11.03265l-2.64784,-11.91527l-2.20653,4.85437l-0.88261,-5.29567" fill="#17b0c3" stroke="#004c5d" stroke-width="0"/><path d="M306.97706,269.24253l-1.76522,17.65225l-3.08915,-18.09355" fill="#17b0c3" stroke="#004c5d" stroke-width="0"/><path d="M329.4003,244.59045l-24.73642,-10.9489" fill="none" stroke="#ffffff" stroke-width="1"/><path d="M311.41161,252.16486l10.13788,15.40957" fill="none" stroke="#ffffff" stroke-width="1"/><path d="M150.90238,243.75723l23.51987,-9.32684" fill="none" stroke="#ffffff" stroke-width="1"/><path d="M158.15108,269.39158l11.61665,-16.45692" fill="none" stroke="#ffffff" stroke-width="1"/><path d="M193.95377,269.36866l-10.27538,-0.20551" fill="none" stroke="#ffffff" stroke-width="1"/><path d="M173.5663,162.55211l-6.77638,-8.22846" fill="none" stroke="#ffffff" stroke-width="1"/><path d="M158.97753,150.44099l-2.47088,6.00071l-0.88246,-10.2365" fill="none" stroke="#ffffff" stroke-width="1"/><path d="M163.60643,154.91896l-0.91474,3.65898l-0.54885,-4.39078" fill="none" stroke="#ffffff" stroke-width="1"/><path d="M306.95874,160.95532l6.73607,-7.65463" fill="none" stroke="#ffffff" stroke-width="1"/><path d="M319.13201,152.19464v5.1733" fill="none" stroke="#ffffff" stroke-width="1"/><path d="M325.62025,153.18078v-7.70479" fill="none" stroke="#ffffff" stroke-width="1"/><path d="M319.40583,146.73084l1.87522,-1.36379" fill="none" stroke="#ffffff" stroke-width="1"/></g><g><path d="M261.4104,218.91841c0,0 17.96897,-5.32978 23.45881,-4.36443c7.75629,1.36389 19.36716,16.09383 19.36716,16.09383c0,0 -17.06641,3.00055 -22.64048,3.00055c-5.57407,0 -20.18549,-14.72995 -20.18549,-14.72995z" fill="#000000" stroke="none" stroke-width="0" stroke-linecap="butt"/><path d="M270.41204,233.92113l0.54555,-7.63775" fill="none" stroke="#000000" stroke-width="1" stroke-linecap="round"/><path d="M275.86758,229.82948l0.27278,3.81888" fill="none" stroke="#000000" stroke-width="1" stroke-linecap="round"/><path d="M287.59699,236.6489l0.54555,-3.00054" fill="none" stroke="#000000" stroke-width="1" stroke-linecap="round"/><path d="M291.14308,232.83003l-0.54556,14.72995" fill="none" stroke="#000000" stroke-width="1" stroke-linecap="round"/><path d="M268.86508,221.43343c0,-1.04408 0.84639,-1.89047 1.89047,-1.89047c1.04408,0 1.89047,0.84639 1.89047,1.89047c0,1.04408 -0.84639,1.89048 -1.89047,1.89048c-1.04408,0 -1.89047,-0.8464 -1.89047,-1.89048z" fill="none" stroke="#ffffff" stroke-width="1" stroke-linecap="butt"/></g><g><path d="M264.13767,208.0236c0,0 10.65045,-15.42265 15.53138,-18.11464c6.89598,-3.80336 25.17838,0.38448 25.17838,0.38448c0,0 -11.40869,13.04252 -15.74965,16.53914c-4.34096,3.49662 -24.96011,1.19102 -24.96011,1.19102z" fill="#000000" stroke="none" stroke-width="0" stroke-linecap="butt"/><path d="M277.94836,208.40868l-0.10226,3.73686" fill="none" stroke="#000000" stroke-width="1" stroke-linecap="round"/><path d="M281.92193,207.2923l0.05455,2.80294" fill="none" stroke="#000000" stroke-width="1" stroke-linecap="round"/><path d="M294.53639,207.63912l-0.34024,-4.91326" fill="none" stroke="#000000" stroke-width="1" stroke-linecap="round"/><path d="M296.65793,199.24877l0.03771,14.20745" fill="none" stroke="#000000" stroke-width="1" stroke-linecap="round"/><path d="M270.16183,204.66015c-0.65495,-0.81311 -0.52674,-2.00319 0.28637,-2.65814c0.8131,-0.65495 2.0032,-0.52675 2.65814,0.28636c0.65495,0.81311 0.52675,2.0032 -0.28636,2.65815c-0.8131,0.65495 -2.0032,0.52674 -2.65815,-0.28637z" fill="none" stroke="#ffffff" stroke-width="1" stroke-linecap="butt"/></g><g><path d="M175.53202,189.40995c0,0 18.27841,-4.14613 23.69357,-2.82469c7.65078,1.867 18.27594,17.32305 18.27594,17.32305c0,0 -17.2258,1.88074 -22.788,1.51709c-5.5622,-0.36365 -19.18152,-16.01546 -19.18152,-16.01546z" fill="#000000" stroke="none" stroke-width="0" stroke-linecap="butt"/><path d="M179.34405,190.13249l-0.49458,8.30773" fill="none" stroke="#000000" stroke-width="1" stroke-linecap="round"/><path d="M191.69813,201.61069l-0.45032,10.07043" fill="none" stroke="#000000" stroke-width="1" stroke-linecap="round"/><path d="" fill="none" stroke="#000000" stroke-width="1" stroke-linecap="round"/><path d="M194.39443,203.31789l-0.21096,3.45261" fill="none" stroke="#000000" stroke-width="1" stroke-linecap="round"/><path d="M180.32769,191.88307c0.06812,-1.04185 0.96792,-1.83122 2.00978,-1.76311c1.04185,0.06812 1.83122,0.96792 1.76311,2.00977c-0.06811,1.04185 -0.96793,1.83124 -2.00978,1.76312c-1.04185,-0.06812 -1.83122,-0.96793 -1.7631,-2.00978z" fill="none" stroke="#ffffff" stroke-width="1" stroke-linecap="butt"/></g><g><path d="M175.15267,228.57682c0,0 12.63221,-13.84622 17.83146,-15.85569c7.34574,-2.83908 24.89674,3.77499 24.89674,3.77499c0,0 -13.06268,11.3856 -17.83536,14.26515c-4.77268,2.87955 -24.89285,-2.18445 -24.89285,-2.18445z" fill="#000000" stroke="none" stroke-width="0" stroke-linecap="butt"/><path d="M181.74139,228.86707l-0.11305,13.66428" fill="none" stroke="#000000" stroke-width="1" stroke-linecap="round"/><path d="M186.24915,229.5878l0.22716,3.36505" fill="none" stroke="#000000" stroke-width="1" stroke-linecap="round"/><path d="" fill="none" stroke="#000000" stroke-width="1" stroke-linecap="round"/><path d="M208.8936,222.6504l0.62747,3.89175" fill="none" stroke="#000000" stroke-width="1" stroke-linecap="round"/><path d="M180.16467,227.11916c-0.53937,-0.89397 -0.25191,-2.05592 0.64206,-2.59528c0.89397,-0.53937 2.05592,-0.25192 2.59529,0.64206c0.53937,0.89397 0.25191,2.05593 -0.64206,2.5953c-0.89397,0.53937 -2.05592,0.2519 -2.59528,-0.64207z" fill="none" stroke="#ffffff" stroke-width="1" stroke-linecap="butt"/></g><g><path d="M206.75005,307.50005l15.14285,-131.8421l37.78325,-0.15789l13.57389,132z" fill="url(#color-4)" stroke="#000000" stroke-width="0" stroke-linecap="butt"/><path d="M211.85284,263.0723c2.78578,-24.25449 10.04006,-87.41435 10.04006,-87.41435l37.78325,-0.15789c0,0 6.61373,64.31555 9.11464,88.63585c0.10917,1.0617 -14.40378,-4.06526 -28.80287,-4.33219c-14.1849,-0.26295 -28.2593,4.35014 -28.13508,3.26858z" fill-opacity="0.14012" fill="#0c070c" stroke="#000000" stroke-width="0" stroke-linecap="butt"/><path d="M217.07677,217.58987c2.51065,-21.85917 4.81613,-41.9319 4.81613,-41.9319l37.78325,-0.15789c0,0 1.98225,19.27649 4.18669,40.71367c0.24136,2.34717 -11.32567,7.51272 -23.01786,7.90066c-11.96137,0.39687 -24.05372,-4.03865 -23.7682,-6.52454z" fill="url(#color-5)" stroke="#000000" stroke-width="0" stroke-linecap="butt"/><path d="M215.00769,252.05266l-5.73698,52.07414" fill="none" stroke="#ffffff" stroke-width="1" stroke-linecap="round"/><path d="M270.43333,303.31577l-5.29568,-51.19153" fill="none" stroke="#ffffff" stroke-width="1" stroke-linecap="round"/></g><g><path d="M168.72414,142.88821c-2.00432,-33.24148 25.07863,-61.91997 60.49143,-64.05521c35.41281,-2.13524 65.74539,23.08136 67.74971,56.32283c2.00432,33.24148 -25.07863,61.91997 -60.49143,64.05521c-35.41281,2.13524 -65.74539,-23.08136 -67.74971,-56.32283z" fill="url(#color-6)" stroke="#000000" stroke-width="0" stroke-linecap="butt"/><path d="M223.91787,150.36846l-0.798,-13.23486l17.76258,-1.07101l0.798,13.23486z" fill="#29353c" stroke="none" stroke-width="0" stroke-linecap="butt"/><path d="M171.30163,154.53958c0,0 -2.59484,-4.0015 -2.64013,-14.07772c-0.10135,-22.54747 9.7193,-59.4917 61.85992,-61.60791c44.80477,-1.76597 60.92314,26.82619 65.16783,48.95738c2.68369,13.99242 0.78265,21.1447 0.78265,21.1447c0,0 -23.10961,6.9853 -61.41428,9.63328c-34.31426,2.37212 -63.75597,-4.04972 -63.75597,-4.04972z" fill-opacity="0.20144" fill="#000000" stroke="none" stroke-width="0" stroke-linecap="butt"/><path d="M183.45538,146.88043c-0.7805,-12.94449 9.08038,-24.0708 22.02487,-24.8513c12.94449,-0.7805 24.0708,9.08038 24.8513,22.02487c0.7805,12.94449 -9.08038,24.0708 -22.02487,24.8513c-12.94449,0.7805 -24.0708,-9.08038 -24.8513,-22.02487z" fill="#5a5e6b" stroke="#000000" stroke-width="0" stroke-linecap="butt"/><path d="M261.49701,164.74348c-12.94449,0.7805 -24.0708,-9.08038 -24.8513,-22.02487c-0.7805,-12.94449 9.08038,-24.0708 22.02487,-24.8513c12.94449,-0.7805 24.0708,9.08038 24.8513,22.02487c0.7805,12.94449 -9.08038,24.0708 -22.02487,24.8513z" data-paper-data="{&quot;index&quot;:null}" fill="#5a5e6b" stroke="#000000" stroke-width="0" stroke-linecap="butt"/><path d="M183.24537,143.39758c-0.7805,-12.94449 9.08038,-24.0708 22.02487,-24.8513c12.94449,-0.7805 24.0708,9.08038 24.8513,22.02487c0.7805,12.94449 -9.08038,24.0708 -22.02487,24.8513c-12.94449,0.7805 -24.0708,-9.08038 -24.8513,-22.02487z" fill="url(#color-7)" stroke="#000000" stroke-width="0" stroke-linecap="butt"/><path d="M261.28701,161.2606c-12.94449,0.7805 -24.0708,-9.08038 -24.8513,-22.02487c-0.7805,-12.94449 9.08038,-24.0708 22.02487,-24.8513c12.94449,-0.7805 24.0708,9.08038 24.8513,22.02487c0.7805,12.94449 -9.08038,24.0708 -22.02487,24.8513z" data-paper-data="{&quot;index&quot;:null}" fill="#000004" stroke="#000000" stroke-width="0" stroke-linecap="butt"/><path d="M183.55709,137.88997c1.84205,-10.45515 10.65176,-18.67677 21.71316,-19.34372c8.92403,-0.53808 16.98391,3.9815 21.38545,11.08234c0.4652,0.75049 -10.25607,1.99853 -20.83752,3.94356c-11.2173,2.06191 -22.34448,4.79108 -22.26109,4.31782z" fill="#000000" stroke="#000000" stroke-width="0" stroke-linecap="butt"/><path d="M168.09431,139.95919c0,0 -0.24697,-10.60204 4.4204,-22.63107c6.60888,-17.03287 22.50098,-37.43209 57.97445,-39.00909c55.8792,-2.48414 65.70276,48.92512 65.70276,48.92512c0,0 -32.55275,-6.57177 -63.89717,-4.50361c-34.93802,2.30528 -64.20044,17.21865 -64.20044,17.21865z" fill-opacity="0.20144" fill="#000000" stroke="none" stroke-width="0" stroke-linecap="butt"/><path d="M237.45147,130.52293l-1.14817,-1.58488l-3.29622,0.19875l-3.20435,-3.26537" fill="none" stroke="#000000" stroke-width="1" stroke-linecap="round"/><path d="M233.02515,129.43645l-1.51261,2.3468" fill="none" stroke="#000000" stroke-width="1" stroke-linecap="round"/><path d="M246.52181,118.8484l0.75068,-5.00758l1.97641,-4.63037l1.16999,4.44065l1.51107,2.61561l15.99022,0.84034l0.64073,-1.84311l0.29591,-2.57419l0.89368,2.35209l-0.56846,3.04175l1.68425,0.49994l1.16777,-3.07787l2.23686,4.67707l2.69691,-0.16261l2.43494,-4.50764l3.98588,1.26339l-3.72765,0.52551l-1.13164,3.6772l-3.50555,1.71511l7.36717,4.96923l1.26716,-1.42976l5.09263,4.65525l-5.09263,-4.65525l-0.23268,3.62299l-1.44408,0.98931l-2.04271,13.50639l3.75475,-0.07602l2.83617,4.64093l-6.06542,-0.83727l-2.61561,1.51107l1.25284,0.82669l0.48937,3.12833l7.13756,-1.3326l-6.81081,1.76403l2.4876,1.35373l0.4713,2.82867l-0.48034,-2.9785l-3.2548,-1.60823l-4.53099,-0.32829l-10.42101,4.2373l-0.63698,4.39923l3.91736,2.62089l-4.37587,-2.74362l-1.79419,2.66454l2.35055,4.06871l-2.39572,-4.81786l1.39891,-1.73846l-2.80532,-1.63533l-2.84299,2.72776l0.77096,2.8106l-0.73482,-2.21129l2.49816,-3.45885l-0.09034,-1.49828l-7.54563,-0.44727l-4.05594,5.0565l1.7001,-6.71893l-5.12502,-2.69845l-1.10829,1.57055l-3.97156,-3.51986l5.29667,5.5452l0.70772,1.7618l-1.58113,3.7043l-4.04537,0.24392l-0.54511,0.93511l0.6859,-1.09398l3.90458,-0.08506l1.71288,-4.01298l-6.13615,-6.9983l0.04142,-1.80698l1.56681,-1.44784l-1.81976,-2.74737l-0.78153,2.00198l-0.5775,2.89191l-2.63367,1.21141l-0.32301,2.1247l0.47284,-2.13374l2.77448,-1.37028l-0.43892,-4.78548l-3.3956,-1.44937l2.22561,-2.99129l-0.09937,-1.64812l-2.40629,-0.00528l0.07381,-3.76379l5.00383,-1.80545z" fill="#000000" stroke="#000000" stroke-width="1" stroke-linecap="round"/><path d="M216.1958,193.92058l-4.14937,19.64644l-1.10701,-18.35969l-3.66128,3.6151l-2.28218,-5.68126" fill="#14a8b5" stroke="#004c5d" stroke-width="0" stroke-linecap="round"/><path d="M277.91033,180.01643l-4.0158,13.81951l-1.57806,-10.08788l-2.27009,2.56141l-4.71992,18.22613l-2.74829,-13.41166" fill="#14a8b5" stroke="#004c5d" stroke-width="0" stroke-linecap="round"/><path d="M207.4867,198.07016l-1.20404,-2.77789" fill="none" stroke="#ffffff" stroke-width="1" stroke-linecap="round"/><path d="M214.84075,199.69982l-2.41336,11.54745l-1.06774,-13.41064" fill="none" stroke="url(#color-8)" stroke-width="1" stroke-linecap="round"/><path d="M267.29485,192.90918l-1.77889,9.17698l-1.96325,-9.57215" fill="none" stroke="url(#color-9)" stroke-width="1" stroke-linecap="round"/><path d="M276.15401,185.11923l-1.67637,6.57945" fill="none" stroke="#ffffff" stroke-width="1" stroke-linecap="round"/></g><path d="M183.03318,144.4847c-0.64691,-10.72893 7.52616,-19.95086 18.25509,-20.59777c10.72893,-0.64691 19.95086,7.52618 20.59777,18.25511c0.64691,10.72893 -7.52618,19.95086 -18.25511,20.59777c-10.72893,0.64691 -19.95084,-7.52619 -20.59775,-18.25511z" fill="#000000" stroke="none" stroke-width="0" stroke-linecap="butt"/><path d="M257.98676,137.93632c-0.06284,-1.04219 0.73108,-1.93798 1.77326,-2.00082c1.04219,-0.06284 1.93798,0.73108 2.00082,1.77326c0.06284,1.04219 -0.73107,1.93799 -1.77326,2.00083c-1.04219,0.06284 -1.93798,-0.73109 -2.00082,-1.77327z" fill="none" stroke="#ffffff" stroke-width="1" stroke-linecap="butt"/></g></g></svg>