<svg version="1.1" xmlns="http://www.w3.org/2000/svg" xmlns:xlink="http://www.w3.org/1999/xlink" width="225.38851" height="247.62063" viewBox="0,0,225.38851,247.62063"><defs><linearGradient x1="239.62567" y1="186.70345" x2="239.62567" y2="303.61003" gradientUnits="userSpaceOnUse" id="color-1"><stop offset="0" stop-color="#000000"/><stop offset="1" stop-color="#0f175d"/></linearGradient><linearGradient x1="239.73111" y1="203.9109" x2="239.73111" y2="289.89504" gradientUnits="userSpaceOnUse" id="color-2"><stop offset="0" stop-color="#000000"/><stop offset="1" stop-color="#e6caad"/></linearGradient><radialGradient cx="238.42693" cy="236.17769" r="8.50413" gradientUnits="userSpaceOnUse" id="color-3"><stop offset="0" stop-color="#5f0000"/><stop offset="1" stop-color="#5f0000" stop-opacity="0"/></radialGradient><radialGradient cx="240.00107" cy="223.00461" r="17.22688" gradientUnits="userSpaceOnUse" id="color-4"><stop offset="0" stop-color="#5f0000"/><stop offset="1" stop-color="#5f0000" stop-opacity="0"/></radialGradient><radialGradient cx="247.17123" cy="237.51168" r="20.39802" gradientUnits="userSpaceOnUse" id="color-5"><stop offset="0" stop-color="#5f0000"/><stop offset="1" stop-color="#5f0000" stop-opacity="0"/></radialGradient><radialGradient cx="240.83481" cy="255.52045" r="20.39802" gradientUnits="userSpaceOnUse" id="color-6"><stop offset="0" stop-color="#5f0000"/><stop offset="1" stop-color="#5f0000" stop-opacity="0"/></radialGradient><radialGradient cx="246.96988" cy="234.60836" r="8.50414" gradientUnits="userSpaceOnUse" id="color-7"><stop offset="0" stop-color="#5f0000"/><stop offset="1" stop-color="#5f0000" stop-opacity="0"/></radialGradient><radialGradient cx="239.06386" cy="230.64139" r="20.39802" gradientUnits="userSpaceOnUse" id="color-8"><stop offset="0" stop-color="#5f0000"/><stop offset="1" stop-color="#5f0000" stop-opacity="0"/></radialGradient><radialGradient cx="233.82239" cy="248.99877" r="20.39802" gradientUnits="userSpaceOnUse" id="color-9"><stop offset="0" stop-color="#5f0000"/><stop offset="1" stop-color="#5f0000" stop-opacity="0"/></radialGradient><linearGradient x1="259.44835" y1="190.08966" x2="259.44835" y2="305.25903" gradientUnits="userSpaceOnUse" id="color-10"><stop offset="0" stop-color="#000000"/><stop offset="1" stop-color="#6b6d91"/></linearGradient><linearGradient x1="260.12655" y1="238.07409" x2="260.12655" y2="251.09349" gradientUnits="userSpaceOnUse" id="color-11"><stop offset="0" stop-color="#000000"/><stop offset="1" stop-color="#919191"/></linearGradient><linearGradient x1="255.06725" y1="193.60392" x2="255.06725" y2="304.33963" gradientUnits="userSpaceOnUse" id="color-12"><stop offset="0" stop-color="#000000"/><stop offset="1" stop-color="#919191"/></linearGradient><linearGradient x1="222.43057" y1="188.03631" x2="222.43057" y2="303.20569" gradientUnits="userSpaceOnUse" id="color-13"><stop offset="0" stop-color="#000000"/><stop offset="1" stop-color="#6b6d91"/></linearGradient><linearGradient x1="221.75238" y1="236.02077" x2="221.75238" y2="249.04018" gradientUnits="userSpaceOnUse" id="color-14"><stop offset="0" stop-color="#000000"/><stop offset="1" stop-color="#919191"/></linearGradient><linearGradient x1="226.20865" y1="193.0582" x2="226.20865" y2="302.28632" gradientUnits="userSpaceOnUse" id="color-15"><stop offset="0" stop-color="#000000"/><stop offset="1" stop-color="#919191"/></linearGradient><linearGradient x1="175.14467" y1="92.23029" x2="209.61181" y2="252.26231" gradientUnits="userSpaceOnUse" id="color-16"><stop offset="0" stop-color="#000000"/><stop offset="1" stop-color="#0f175d"/></linearGradient><linearGradient x1="175.74259" y1="96.43356" x2="198.94488" y2="204.16251" gradientUnits="userSpaceOnUse" id="color-17"><stop offset="0" stop-color="#000000"/><stop offset="1" stop-color="#0f175d"/></linearGradient><linearGradient x1="197.35589" y1="68.64053" x2="216.82468" y2="159.03469" gradientUnits="userSpaceOnUse" id="color-18"><stop offset="0" stop-color="#000000"/><stop offset="1" stop-color="#0f175d"/></linearGradient><linearGradient x1="211.66715" y1="63.02377" x2="206.982" y2="109.13364" gradientUnits="userSpaceOnUse" id="color-19"><stop offset="0" stop-color="#000000"/><stop offset="1" stop-color="#0f175d"/></linearGradient><linearGradient x1="212.52183" y1="73.43444" x2="209.26825" y2="105.45518" gradientUnits="userSpaceOnUse" id="color-20"><stop offset="0" stop-color="#000000"/><stop offset="1" stop-color="#e6caad"/></linearGradient><linearGradient x1="309.10622" y1="72.94191" x2="304.42107" y2="119.05177" gradientUnits="userSpaceOnUse" id="color-21"><stop offset="0" stop-color="#000000"/><stop offset="1" stop-color="#0f175d"/></linearGradient><linearGradient x1="306.17498" y1="82.96796" x2="302.92141" y2="114.9887" gradientUnits="userSpaceOnUse" id="color-22"><stop offset="0" stop-color="#000000"/><stop offset="1" stop-color="#e6caad"/></linearGradient><linearGradient x1="258.9352" y1="79.34818" x2="246.74434" y2="199.32708" gradientUnits="userSpaceOnUse" id="color-23"><stop offset="0" stop-color="#000000"/><stop offset="1" stop-color="#0f175d"/></linearGradient><linearGradient x1="250.44246" y1="156.3362" x2="246.19676" y2="198.12106" gradientUnits="userSpaceOnUse" id="color-24"><stop offset="0" stop-color="#000000"/><stop offset="1" stop-color="#e6caad"/></linearGradient><radialGradient cx="279.56474" cy="144.96413" r="3.95041" gradientUnits="userSpaceOnUse" id="color-25"><stop offset="0" stop-color="#c71c1b"/><stop offset="1" stop-color="#c71c1b" stop-opacity="0"/></radialGradient><radialGradient cx="279.57537" cy="145.17099" r="1.01373" gradientUnits="userSpaceOnUse" id="color-26"><stop offset="0" stop-color="#ffffff"/><stop offset="1" stop-color="#ffffff" stop-opacity="0"/></radialGradient><radialGradient cx="229.66329" cy="140.85568" r="3.95041" gradientUnits="userSpaceOnUse" id="color-27"><stop offset="0" stop-color="#c71c1b"/><stop offset="1" stop-color="#c71c1b" stop-opacity="0"/></radialGradient><radialGradient cx="229.67391" cy="141.06254" r="1.01373" gradientUnits="userSpaceOnUse" id="color-28"><stop offset="0" stop-color="#ffffff"/><stop offset="1" stop-color="#ffffff" stop-opacity="0"/></radialGradient></defs><g transform="translate(-108.68959,-58.64875)"><g data-paper-data="{&quot;isPaintingLayer&quot;:true}" fill-rule="nonzero" stroke-linejoin="miter" stroke-miterlimit="10" stroke-dasharray="" stroke-dashoffset="0" style="mix-blend-mode: normal"><g stroke-width="2"><path d="M220.72848,186.70345l40.56644,0.22537l11.12198,116.68122h-65.58245z" fill="url(#color-1)" stroke="#000000" stroke-linecap="round"/><path d="M226.69035,206.58181c0,0 8.42256,-2.69554 12.88609,-2.67074c4.82728,0.02681 15.07191,2.82604 15.07191,2.82604c0,0 5.4712,21.43641 6.62611,33.55266c1.36489,14.31922 1.03905,46.86297 1.03905,46.86297c0,0 -15.18032,2.74232 -22.73611,2.74232c-7.51022,0 -22.46271,-2.74232 -22.46271,-2.74232c0,0 0.14621,-30.07298 1.8099,-44.07168c1.51406,-12.73943 7.76572,-36.49925 7.76572,-36.49925z" fill="url(#color-2)" stroke="#000000" stroke-linecap="round"/><g stroke="none" stroke-linecap="butt"><path d="M246.26409,236.17769c0,4.6967 -3.50881,8.50414 -7.83716,8.50414c-4.32834,0 -7.83716,-3.80744 -7.83716,-8.50414c0,-4.6967 3.50881,-8.50414 7.83716,-8.50414c4.32834,0 7.83716,3.80744 7.83716,8.50414z" fill="url(#color-3)"/><path d="M244.76833,207.86154c3.79266,1.19398 4.73283,8.94168 2.09994,17.30497c-2.63288,8.36329 -7.84182,14.17517 -11.63447,12.98119c-3.79266,-1.19398 -4.73283,-8.94169 -2.09995,-17.30498c2.63288,-8.36329 7.84182,-14.17516 11.63448,-12.98117z" fill="url(#color-4)"/><path d="M235.60542,238.33676c-1.37539,-10.29042 2.6878,-19.00189 9.07541,-19.45757c6.3876,-0.45568 12.68078,7.51699 14.05619,17.80741c1.37539,10.29042 -2.6878,19.0019 -9.0754,19.45757c-6.3876,0.45567 -12.68079,-7.51698 -14.05618,-17.80742z" data-paper-data="{&quot;index&quot;:null}" fill="url(#color-5)"/><path d="M243.32519,236.88796c6.3876,0.45567 10.45081,9.16714 9.07541,19.45757c-1.37539,10.29044 -7.66859,18.26308 -14.05618,17.80741c-6.3876,-0.45567 -10.45082,-9.16714 -9.0754,-19.45757c1.37539,-10.29044 7.66858,-18.26308 14.05619,-17.80741z" data-paper-data="{&quot;index&quot;:null}" fill="url(#color-6)"/><path d="M251.88647,227.6695c3.53164,2.5024 4.1934,7.63759 1.47805,11.46982c-2.71535,3.83221 -7.77956,4.91029 -11.31121,2.40789c-3.53164,-2.50239 -4.1934,-7.63761 -1.47805,-11.46982c2.71535,-3.83221 7.77957,-4.91028 11.31121,-2.40789z" data-paper-data="{&quot;index&quot;:null}" fill="url(#color-7)"/><path d="M226.25968,244.40456c-4.94843,-4.06472 -3.22733,-13.52182 3.84421,-21.12301c7.07155,-7.60118 16.81569,-10.46805 21.76414,-6.40333c4.94845,4.06472 3.22735,13.52184 -3.84421,21.12302c-7.07155,7.60119 -16.81571,10.46804 -21.76416,6.40332z" data-paper-data="{&quot;index&quot;:null}" fill="url(#color-8)"/><path d="M243.73639,255.01218c-4.82704,9.19153 -13.17882,13.95047 -18.65415,10.62934c-5.47533,-3.32113 -6.00087,-13.46466 -1.17382,-22.65619c4.82704,-9.19153 13.17882,-13.95045 18.65417,-10.62933c5.47533,3.32111 6.00086,13.46464 1.1738,22.65617z" data-paper-data="{&quot;index&quot;:null}" fill="url(#color-9)"/></g><g data-paper-data="{&quot;index&quot;:null}"><path d="M273.13737,305.09904l-13.79128,0.15999l-13.58676,-114.34165l14.36159,-0.82773l1.04955,8.19084l10.98607,88.31813z" data-paper-data="{&quot;index&quot;:null}" fill="url(#color-10)" stroke="#000000" stroke-linecap="round"/><path d="M253.91491,251.09349l-1.21375,-11.59145l13.63702,-1.42795l1.21376,11.59144z" fill="url(#color-11)" stroke="none" stroke-linecap="butt"/><path d="M260.39186,304.33963l-14.04892,-110.29671l3.39966,-0.43901l14.04894,110.59821z" fill="url(#color-12)" stroke="none" stroke-linecap="butt"/></g><path d="M209.72239,284.54526l10.98608,-88.31812l3.16016,-8.19084l12.25098,0.82773l-13.58679,114.34166l-13.79128,-0.15994z" data-paper-data="{&quot;index&quot;:null}" fill="url(#color-13)" stroke="#000000" stroke-linecap="round"/><path d="M214.327,247.61222l1.21376,-11.59145l13.63701,1.42795l-1.21375,11.59146z" fill="url(#color-14)" stroke="none" stroke-linecap="butt"/><path d="M217.48436,301.84731l14.04894,-108.78911l3.39964,0.43902l-14.04892,108.78911z" fill="url(#color-15)" stroke="none" stroke-linecap="butt"/><path d="M220.06709,223.02872l6.7999,-8.33246" fill="none" stroke="#ff0000" stroke-linecap="round"/><path d="M225.97414,223.44174l-4.05542,-10.1436" fill="none" stroke="#ff0000" stroke-linecap="round"/></g><path d="M166.37199,248.96193c0,0 -21.47584,-52.59612 -18.06686,-85.1768c1.58893,-15.1859 73.50837,-79.66313 73.50837,-79.66313l23.77265,112.7966c0,0 -38.94768,5.57094 -54.67982,16.40454c-16.09944,11.08653 -24.53435,35.63878 -24.53435,35.63878z" data-paper-data="{&quot;index&quot;:null}" fill="url(#color-16)" stroke="#000000" stroke-width="2" stroke-linecap="butt"/><path d="M120.66748,206.94959c0,0 5.16792,-55.71992 23.51476,-83.44646c8.5515,-12.92338 108.99768,-40.52361 108.99768,-40.52361l-31.2781,110.44315c0,0 -21.46926,-34.71447 -45.25899,-21.49002c-16.67589,9.26995 -55.97535,35.01693 -55.97535,35.01693z" data-paper-data="{&quot;index&quot;:null}" fill="url(#color-17)" stroke="#000000" stroke-width="2" stroke-linecap="butt"/><path d="M109.68959,118.90344c0,0 37.73133,-33.05042 69.45679,-46.81948c14.78729,-6.41778 122.65365,19.98966 122.65365,19.98966l-92.078,68.19508c0,0 0.0453,-41.6507 -27.83077,-42.69569c-19.54029,-0.73251 -72.20165,1.33041 -72.20165,1.33041z" data-paper-data="{&quot;index&quot;:null}" fill="url(#color-18)" stroke="#000000" stroke-width="2" stroke-linecap="butt"/><g stroke="#000000" stroke-width="2" stroke-linecap="round"><g><path d="M200.57786,108.48292l-11.96563,-47.80173l44.02755,25.17842z" fill="url(#color-19)"/><path d="M204.82093,105.00329l-8.30948,-33.19564l30.57471,17.48504z" fill="url(#color-20)"/></g><g data-paper-data="{&quot;index&quot;:null}"><path d="M283.96901,91.09262l48.19214,-15.80813l-21.33594,44.418z" fill="url(#color-21)"/><path d="M288.71858,95.57262l33.46675,-10.97787l-14.81661,30.84584z" fill="url(#color-22)"/></g></g><path d="M188.9318,132.84404c3.36642,-33.13126 34.70801,-57.08218 70.0034,-53.49586c35.29539,3.58631 61.17895,33.35179 57.81253,66.48304c-3.36642,33.13126 -34.70801,57.08217 -70.0034,53.49586c-35.29539,-3.58631 -61.17895,-33.35179 -57.81253,-66.48304z" fill="url(#color-23)" stroke="#000000" stroke-width="2" stroke-linecap="butt"/><path d="M305.60579,174.00305c-1.17242,11.53857 -30.65418,27.03974 -59.40904,24.11801c-28.75485,-2.92174 -54.58357,-23.37282 -53.41115,-34.91139c0.87893,-8.65011 20.15309,-2.12882 39.14943,-3.4054c6.34329,-0.42627 11.30918,-4.19946 18.50741,-3.46806c10.91155,1.1087 18.64294,5.9355 26.77638,9.0878c13.30037,5.15484 29.11447,1.419 28.38695,8.57905z" fill="url(#color-24)" stroke="#000000" stroke-width="2" stroke-linecap="butt"/><path d="M255.41418,158.51663c-0.22332,2.19782 -2.18604,3.79848 -4.38386,3.57516c-2.19782,-0.22332 -3.79848,-2.18604 -3.57516,-4.38386c0.22332,-2.19782 2.18604,-3.79848 4.38386,-3.57516c2.19782,0.22332 3.79848,2.18604 3.57516,4.38386z" fill="#000000" stroke="#000000" stroke-width="2" stroke-linecap="butt"/><g stroke-width="2"><g data-paper-data="{&quot;index&quot;:null}" fill="#000000" stroke="#000000" stroke-linecap="butt"><path d="M258.33147,139.36352c0.75754,-12.79782 11.64558,-22.56435 24.31913,-21.81416c12.67356,0.75019 22.33338,11.73304 21.57585,24.53082c-0.75754,12.7978 -11.64559,22.56434 -24.31914,21.81415c-12.67357,-0.7502 -22.33337,-11.73303 -21.57583,-24.53083z"/><path d="M266.88719,139.75707c0.45967,-7.76566 7.22834,-13.68234 15.11826,-13.21531c7.88992,0.46703 13.91331,7.1409 13.45363,14.90657c-0.45967,7.76563 -7.22832,13.68239 -15.11825,13.21535c-7.88992,-0.46703 -13.91333,-7.14094 -13.45365,-14.90661z"/></g><path d="M289.89993,168.71242l-0.29142,-6.36476" data-paper-data="{&quot;index&quot;:null}" fill="none" stroke="#000000" stroke-linecap="round"/><path d="M282.36231,163.18189l-0.08091,7.01089" data-paper-data="{&quot;index&quot;:null}" fill="none" stroke="#000000" stroke-linecap="round"/><path d="M267.9097,159.75954l-0.65241,16.66536" data-paper-data="{&quot;index&quot;:null}" fill="none" stroke="#000000" stroke-linecap="round"/><path d="M274.84112,170.02846l0.33501,-5.65953" data-paper-data="{&quot;index&quot;:null}" fill="none" stroke="#000000" stroke-linecap="round"/><g stroke="none" stroke-linecap="butt"><path d="M275.65003,144.43412c0.29273,-2.16205 2.28268,-3.67741 4.44471,-3.38467c2.16205,0.29273 3.67741,2.28267 3.38467,4.44472c-0.29273,2.16205 -2.28269,3.67742 -4.44473,3.38468c-2.16205,-0.29273 -3.67738,-2.28269 -3.38466,-4.44474z" fill="url(#color-25)"/><path d="M281.10413,145.37184c-0.11709,0.86481 -0.91307,1.47097 -1.77789,1.35389c-0.86481,-0.11709 -1.47098,-0.91309 -1.35389,-1.77791c0.11709,-0.86481 0.91309,-1.47095 1.77791,-1.35386c0.86481,0.11709 1.47094,0.91307 1.35386,1.77788z" fill="#c71c1b"/><path d="M278.57079,145.03498c0.07512,-0.55482 0.58579,-0.94366 1.14059,-0.86855c0.55482,0.07512 0.94365,0.58578 0.86855,1.14058c-0.07512,0.55482 -0.58577,0.94366 -1.14058,0.86854c-0.55482,-0.07512 -0.94367,-0.58578 -0.86856,-1.14056z" fill="url(#color-26)"/></g></g><g data-paper-data="{&quot;index&quot;:null}" fill="none" stroke="none" stroke-width="1" stroke-linecap="butt" font-family="sans-serif" font-weight="normal" font-size="12" text-anchor="start"><g/><g data-paper-data="{&quot;index&quot;:null}"/></g><g data-paper-data="{&quot;index&quot;:null}" stroke-width="2" stroke-linecap="round"><path d="M286.72024,183.35195l10.78359,-7.28485c0,0 13.7912,23.59362 4.25152,24.68056c-15.32456,1.74607 -89.6315,-15.85395 -89.6315,-15.85395z" fill="#7d714d" stroke="#000000"/><path d="M296.7078,178.46038l3.18954,18.1268l-15.65658,-10.776l-5.47101,10.40474l-16.81434,-10.11023l-10.13046,5.82568l-16.09752,-6.71168l-5.18898,2.80252" fill="none" stroke="#4e4528"/></g><g stroke-width="2"><path d="M206.56398,135.23894c0.75754,-12.79782 11.6456,-22.56435 24.31915,-21.81417c12.67355,0.75019 22.33337,11.73303 21.57585,24.53081c-0.75753,12.79781 -11.64559,22.56433 -24.31915,21.81414c-12.67355,-0.75019 -22.3334,-11.733 -21.57584,-24.5308z" data-paper-data="{&quot;index&quot;:null}" fill="#000000" stroke="#000000" stroke-linecap="butt"/><path d="M212.05894,158.75452l0.98112,-5.2872" data-paper-data="{&quot;index&quot;:null}" fill="none" stroke="#000000" stroke-linecap="round"/><path d="M219.31963,158.36657l-1.45199,7.59789" data-paper-data="{&quot;index&quot;:null}" fill="none" stroke="#000000" stroke-linecap="round"/><path d="M229.46592,160.63622l-0.35471,5.99244" data-paper-data="{&quot;index&quot;:null}" fill="none" stroke="#000000" stroke-linecap="round"/><path d="M238.03788,169.51638l1.88552,-14.92196" data-paper-data="{&quot;index&quot;:null}" fill="none" stroke="#000000" stroke-linecap="round"/><g stroke="none" stroke-linecap="butt"><path d="M225.74858,140.32566c0.29273,-2.16205 2.28268,-3.67741 4.44471,-3.38467c2.16205,0.29273 3.67741,2.28268 3.38467,4.44473c-0.29273,2.16205 -2.28269,3.67741 -4.44473,3.38468c-2.16205,-0.29273 -3.67738,-2.28269 -3.38466,-4.44474z" fill="url(#color-27)"/><path d="M231.20267,141.26339c-0.11709,0.86481 -0.91307,1.47096 -1.77789,1.35388c-0.86481,-0.11709 -1.47098,-0.91309 -1.35389,-1.77791c0.11709,-0.86481 0.91308,-1.47095 1.7779,-1.35386c0.86481,0.11709 1.47095,0.91308 1.35387,1.77788z" fill="#c71c1b"/><path d="M228.66934,140.92653c0.07512,-0.55482 0.58579,-0.94366 1.14059,-0.86855c0.55482,0.07512 0.94365,0.58578 0.86855,1.14058c-0.07512,0.55482 -0.58577,0.94366 -1.14058,0.86854c-0.55482,-0.07512 -0.94367,-0.58578 -0.86856,-1.14056z" fill="url(#color-28)"/></g></g></g></g></svg>