<svg version="1.1" xmlns="http://www.w3.org/2000/svg" xmlns:xlink="http://www.w3.org/1999/xlink" width="148.03773" height="267.22501" viewBox="0,0,148.03773,267.22501"><defs><linearGradient x1="240.00004" y1="175.50001" x2="240.00004" y2="307.50001" gradientUnits="userSpaceOnUse" id="color-1"><stop offset="0" stop-color="#1a110e"/><stop offset="1" stop-color="#5d3d27"/></linearGradient><linearGradient x1="242.35598" y1="81.21301" x2="251.196" y2="213.85831" gradientUnits="userSpaceOnUse" id="color-2"><stop offset="0" stop-color="#19110c"/><stop offset="1" stop-color="#714a2f"/></linearGradient><radialGradient cx="311.1047" cy="152.97103" r="11.49366" gradientUnits="userSpaceOnUse" id="color-3"><stop offset="0" stop-color="#ffe902"/><stop offset="1" stop-color="#6a6101"/></radialGradient></defs><g transform="translate(-174.72746,-46.38751)"><g data-paper-data="{&quot;isPaintingLayer&quot;:true}" fill-rule="nonzero" stroke-linejoin="miter" stroke-miterlimit="10" stroke-dasharray="" stroke-dashoffset="0" style="mix-blend-mode: normal"><path d="M179.28374,313.61252v-267.22501h123.18203v267.22501z" fill-opacity="0.01" fill="#000000" stroke="none" stroke-width="0" stroke-linecap="butt"/><path d="M206.75005,307.5l15.14285,-131.8421l37.78325,-0.15789l13.57389,132z" fill="url(#color-1)" stroke="#000000" stroke-width="0" stroke-linecap="butt"/><g><g><path d="M176.12114,152.24438c-2.44111,-36.62899 27.21326,-68.43081 66.23483,-71.03137c39.02158,-2.60056 72.63375,24.98495 75.07485,61.61392c2.44111,36.62899 -27.21326,68.43081 -66.23483,71.03137c-39.02158,2.60056 -72.63375,-24.98495 -75.07485,-61.61392z" fill="url(#color-2)" stroke="#000000" stroke-width="0" stroke-linecap="butt"/><path d="M204.25643,121.79318c0,0 5.21098,-1.67421 10.81519,-3.0538c7.62333,-1.87665 11.8375,-0.91776 11.8375,-0.91776l7.38676,62.69631c0,0 -5.4755,2.00618 -8.5612,2.21182c-3.98361,0.26549 -13.79853,-0.72169 -13.79853,-0.72169z" fill="none" stroke="#36251c" stroke-width="2.5" stroke-linecap="round"/><path d="M276.10218,113.37881c6.13559,0.10839 7.87427,1.04995 7.87427,1.04995l3.14375,60.92749c0,0 -7.15658,1.29758 -10.44093,1.51646c-2.90549,0.19364 -8.26823,-0.26962 -8.26823,-0.26962l-0.99828,-63.12205c0,0 4.57817,-0.17487 8.68941,-0.10225z" fill="none" stroke="#36251c" stroke-width="2.5" stroke-linecap="round"/><path d="M183.05486,129.0201l-0.40522,2.78388" fill="none" stroke="#000000" stroke-width="1.5" stroke-linecap="round"/><path d="M183.15938,130.5885l3.34583,2.92772" fill="none" stroke="#000000" stroke-width="1.5" stroke-linecap="round"/><path d="M180.49296,137.85529l2.53558,-0.36591l1.64679,1.07177" fill="none" stroke="#000000" stroke-width="1.5" stroke-linecap="round"/><path d="M177.39518,147.51387l2.60096,-2.33945l-0.39217,2.97992l1.18936,0.11765l0.18291,2.74468l2.18267,0.24837" fill="none" stroke="#000000" stroke-width="1.5" stroke-linecap="round"/><path d="M177.86553,154.57162l1.5292,-0.69267l1.92123,2.235" fill="none" stroke="#000000" stroke-width="1.5" stroke-linecap="round"/><path d="M179.6951,164.29566l-0.22225,2.57477l-1.3462,0.48355" fill="none" stroke="#000000" stroke-width="1.5" stroke-linecap="round"/><path d="M180.19159,171.74553l1.72523,-0.70574l1.28082,1.48999" fill="none" stroke="#000000" stroke-width="1.5" stroke-linecap="round"/><path d="M190.16369,182.50228l-1.45075,-1.08484l-4.15621,-0.31378l1.84289,-1.89508l0.65353,-2.01275l0.01314,-2.75774l-0.14373,-2.15653l2.74474,-3.13672" fill="none" stroke="#000000" stroke-width="1.5" stroke-linecap="round"/><path d="M186.53021,184.12286l0.84958,-2.02582" fill="none" stroke="#000000" stroke-width="1.5" stroke-linecap="round"/><path d="M299.80288,156.63944c-0.4221,-6.33371 4.3702,-11.8104 10.70393,-12.2325c6.33372,-0.4221 11.8104,4.3702 12.2325,10.70393c0.4221,6.33371 -4.3702,11.8104 -10.70393,12.2325c-6.33372,0.4221 -11.8104,-4.3702 -12.2325,-10.70393z" fill="url(#color-3)" stroke="#f6c002" stroke-width="0" stroke-linecap="butt"/><path d="M184.48442,175.33581c0,0 1.6275,3.28931 2.59107,4.68878c0.79351,1.1525 2.77982,3.1118 2.77982,3.1118l-3.38073,2.20981c0,0 -1.98253,-2.67389 -2.70848,-3.97868c-0.69197,-1.24368 -1.55015,-3.67553 -1.55015,-3.67553z" fill="#b4b3b4" stroke="#b6b4b2" stroke-width="0.5" stroke-linecap="round"/><path d="M179.15735,171.50131c0,0 -1.36027,-2.89185 -1.79125,-4.31867c-0.41735,-1.38167 -0.75506,-4.11116 -0.75506,-4.11116l3.7861,-0.85134c0,0 0.08416,2.94091 0.42362,4.36062c0.33002,1.38024 1.58559,4.04254 1.58559,4.04254z" fill="#b4b3b4" stroke="#b6b4b2" stroke-width="0.5" stroke-linecap="round"/><path d="M178.45441,144.20605c0,0 -0.25757,3.32929 -0.19065,4.9153c0.05881,1.39427 0.57096,4.09989 0.57096,4.09989l-3.51241,0.23408c0,0 -0.23,-0.16254 -0.5243,-4.83177c-0.19827,-3.14563 0.15861,-3.96389 0.15861,-3.96389z" fill="#b4b3b4" stroke="#b6b4b2" stroke-width="0.5" stroke-linecap="round"/><path d="M237.05602,88.82177c1.18964,-0.61139 3.30431,-2.99559 4.65993,-3.13932c1.7036,-0.9193 3.63743,-2.52208 5.03253,-3.50745c0.10454,-0.11948 0.19546,-0.25105 0.2767,-0.38815c0.00515,-0.21132 0.22479,-0.22597 0.22479,-0.22597c1.15,-0.07664 3.74891,-0.36744 4.51529,0.71733c0.01917,0.01771 0.03325,0.03693 0.04338,0.05667l0.08262,0.05772c0,0 0.18111,0.15846 0.02263,0.33957c-0.07667,0.0876 -0.15862,0.09575 -0.22282,0.0808c-0.87169,1.81301 -2.33266,2.33111 -4.02821,3.32501c-1.2504,0.70271 -5.30769,1.69039 -5.9022,3.03578c-1.9152,0.86426 -3.65514,2.94866 -5.42841,3.23051c-0.37281,0.01349 -0.62815,0.24665 -0.8638,0.52074c0.72225,0.76165 3.8933,0.93576 4.83678,0.87288c2.00817,-0.09359 5.23958,0.00689 7.0997,0.74939c2.41212,0.62653 5.35472,-0.14728 7.64398,0.81663c1.49405,-0.11815 6.58457,0.04806 6.73643,1.92655c0.08265,1.77323 -4.58149,2.69555 -5.90488,2.77234c-0.68003,0.27818 -1.69111,0.36566 -2.46211,0.43071c-0.03864,0.09388 -0.1385,0.13473 -0.1385,0.13473c-1.77944,0.72481 -3.68782,1.69126 -5.3309,2.63575c-1.57678,0.10508 -3.13314,1.81559 -4.47534,2.5609c-0.38272,0.21251 -0.40705,0.78961 -0.97456,0.70677c-0.0886,0.33961 -1.92005,2.04519 -0.88302,2.3686l0.12276,0.19444c1.66523,-0.01566 3.50816,0.99091 5.10769,1.40567c2.5038,0.6569 4.52325,1.26103 7.14526,1.12345c0.47959,0.20114 1.10519,-0.01933 1.41049,0.58361c0.5981,1.18126 -0.78112,1.24833 -0.78375,2.01769c-0.00379,1.11052 0.9381,2.0599 -0.6807,2.89185c-0.74807,1.78374 -2.14602,3.2966 -2.95198,5.21835c-0.86805,2.06986 -1.20843,4.17037 -1.99822,6.15405c-0.22512,0.49934 -0.30137,1.56884 0.00339,2.0586l0.02523,0.14566c0.72075,1.24941 1.36799,4.40334 1.42802,5.21725c0.08175,1.22659 1.24292,3.91439 0.26056,4.96988c-0.56286,0.60477 -1.1372,0.39601 -1.51858,1.30539c-2.05889,1.24522 -3.77482,-0.61437 -5.95508,-0.46907c-0.18049,0.01203 -0.36099,0.02406 -0.54147,0.03609c0.44116,0.28074 1.03697,0.95057 1.48648,1.30517c0.19175,-0.09069 0.30332,0.09966 0.30332,0.09966c0.01281,0.03811 0.02799,0.07567 0.04542,0.11276c0.05643,0.01842 0.10634,0.02239 0.14834,0.00861l0.31656,0.18335c0,0 0.18111,0.15846 0.02263,0.33957c-0.01003,0.01147 -0.02016,0.02158 -0.03033,0.03045c1.05146,0.90958 3.29602,1.57985 3.95939,2.71155c1.74545,0.62064 3.85246,2.63688 3.98617,4.64321c-1.17322,2.69306 -4.96379,0.46881 -5.83946,-1.23506c-0.12712,-0.05331 -0.21729,-0.11104 -0.28906,-0.17929c0.49111,1.25389 1.90858,2.24132 2.02849,4.04054c0.05302,0.79561 0.97282,2.11475 0.68291,2.75722c-0.96311,2.13449 -2.78597,-1.08794 -3.08899,-1.60489c-0.16554,-2.11035 -2.54652,-3.33308 -2.66246,-5.82048c0.30285,-0.76064 1.03136,-1.19519 0.79776,-2.0831c-0.31461,-1.19582 -2.25857,-1.4576 -2.73315,-2.47785c-1.46157,0.09741 -4.35401,-3.76127 -3.68584,-5.11518c2.37883,-0.37809 4.76084,-0.62089 7.166,-0.78119c0.58461,-0.03896 1.16923,-0.07792 1.75385,-0.11688c-0.01854,-0.10971 0.06138,-0.20105 0.06138,-0.20105l0.06531,0.03239c-0.09173,-1.37646 -0.18347,-2.75291 -0.2752,-4.12937c-0.15589,-2.33917 0.37619,-4.892 0.19606,-7.14297c0.62133,-2.42388 0.16441,-4.89718 1.14562,-7.23684c0.28154,-0.62446 2.18941,-4.39338 1.01368,-4.26823c-0.00754,0.00109 -0.01194,0.00141 -0.01194,0.00141c-1.31764,0.08781 -1.81057,-0.59526 -2.91506,-0.74877c-0.84513,-0.11746 -1.32247,0.62333 -2.11865,0.67639c-0.20057,0.05825 0.56264,2.1691 0.48625,2.59802c-0.20337,1.14208 -0.94488,2.72363 -0.81708,3.80078c-0.51809,1.30123 0.23361,3.22556 -0.54838,4.40368c-0.71244,1.07335 -1.6505,1.33668 -2.29016,0.20081c-0.18084,-2.23693 0.36826,-5.0908 1.15382,-7.06383c1.01686,-2.42467 -0.88419,-4.02087 1.07467,-6.25946c0.0563,-0.13888 -4.53477,-1.55134 -5.53857,-1.82686c-0.86262,-0.74207 -2.56954,-2.11036 -1.92045,-3.5489c0.26559,-0.58861 1.79616,-0.86895 2.29334,-1.17834c1.94998,-1.14302 2.88434,-2.41 4.81708,-3.5121c0.59488,-0.67984 2.04739,-1.53842 2.92493,-1.7004c1.37953,-0.72886 2.90772,-1.30279 4.34434,-2.14904c0.43247,-0.25256 0.72385,-0.62915 1.14559,-0.87914c0.00911,-0.0054 0.01908,-0.01134 0.0298,-0.01775c-0.50799,0.07647 -1.21629,0.04828 -1.41982,0.02658c-0.94692,-0.10094 -1.93543,-0.80851 -2.88811,-0.74502c-2.32576,-0.9339 -4.94797,-0.25697 -7.17531,-1.26117c-2.14616,0.16175 -4.26498,-1.43026 -6.37607,-1.31443c-3.37489,-1.34372 -0.84499,-3.5307 0.97476,-4.66314c0.81743,-0.47917 1.65827,-0.86515 2.47723,-1.31927c-0.11454,-0.20409 0.08923,-0.32354 0.08923,-0.32354z" fill="#000000" stroke="none" stroke-width="0.5" stroke-linecap="butt"/><path d="M175.76063,136.66805c0,0 0.54874,-5.4605 2.54669,-8.10775c1.99793,-2.64724 2.15151,-0.78418 3.93682,-0.48286c1.78531,0.30132 0.96056,0.51067 0.74636,1.27326c-0.2142,0.76259 -3.77606,9.51268 -3.77606,9.51268z" fill="#b4b3b4" stroke="#b6b4b2" stroke-width="0.5" stroke-linecap="round"/><path d="M256.04278,80.58831c0.0176,-0.03386 0.03392,-0.06722 0.0488,-0.09996c0.0015,0.02949 -0.01603,0.06312 -0.0488,0.09996z" fill-opacity="0.43044" fill="#9966ff" stroke="none" stroke-width="0.5" stroke-linecap="butt"/></g><path d="M191.03217,151.35686c-0.95059,-14.26361 9.84177,-26.59717 24.10538,-27.54775c14.26361,-0.95059 26.59717,9.84177 27.54775,24.10538c0.95059,14.26361 -9.84177,26.59717 -24.10538,27.54775c-14.26361,0.95059 -26.59717,-9.84177 -27.54775,-24.10538z" fill="#b6b6b6" stroke="#000000" stroke-width="0" stroke-linecap="butt"/><path d="M278.25926,171.48496c-14.26361,0.95059 -26.59717,-9.84177 -27.54775,-24.10538c-0.95059,-14.26361 9.84177,-26.59717 24.10538,-27.54775c14.26361,-0.95059 26.59717,9.84177 27.54775,24.10538c0.95059,14.26361 -9.84177,26.59717 -24.10538,27.54775z" data-paper-data="{&quot;index&quot;:null}" fill="#b6b6b6" stroke="#000000" stroke-width="0" stroke-linecap="butt"/><path d="M205.79388,150.37308c-0.40726,-6.11095 4.21648,-11.395 10.32744,-11.80226c6.11095,-0.40726 11.39501,4.21649 11.80227,10.32745c0.40726,6.11095 -4.21649,11.39501 -10.32745,11.80226c-6.11095,0.40726 -11.395,-4.21649 -11.80226,-10.32745z" fill="none" stroke="#ffffff" stroke-width="2" stroke-linecap="butt"/><path d="M277.2755,156.72325c-6.11095,0.40726 -11.39501,-4.21649 -11.80227,-10.32745c-0.40726,-6.11095 4.2165,-11.39501 10.32745,-11.80226c6.11095,-0.40726 11.395,4.21649 11.80226,10.32745c0.40726,6.11095 -4.2165,11.39501 -10.32744,11.80226z" data-paper-data="{&quot;index&quot;:null}" fill="none" stroke="#ffffff" stroke-width="2" stroke-linecap="butt"/><path d="M250.99619,207.18616c9.81055,-0.85801 9.34055,3.57846 9.34055,3.57846l-18.82069,1.25428c0,0 -0.67194,-3.94485 9.48014,-4.83275z" fill="#000000" stroke="#000000" stroke-width="1.5" stroke-linecap="round"/></g></g></g></svg>