<svg version="1.1" xmlns="http://www.w3.org/2000/svg" xmlns:xlink="http://www.w3.org/1999/xlink" width="233.44084" height="298.22468" viewBox="0,0,233.44084,298.22468"><g transform="translate(-117.256,-15.38783)"><g data-paper-data="{&quot;isPaintingLayer&quot;:true}" fill-rule="nonzero" stroke-linejoin="miter" stroke-miterlimit="10" stroke-dasharray="" stroke-dashoffset="0" style="mix-blend-mode: normal"><path d="M178.409,313.61251v-267.22501h123.18203v267.22501z" fill-opacity="0.01" fill="#000000" stroke="none" stroke-width="0" stroke-linecap="butt"/><g stroke="#000000" stroke-width="2"><path d="M206.75009,307.50002l15.14285,-131.8421l37.78325,-0.15789l13.57389,132z" fill="#345756" stroke-linecap="butt"/><g fill="#274746" stroke-linecap="round"><path d="M262.4844,196.10052l6.54607,27.89196l-29.31501,4.8384l-27.89196,-4.8384l4.8384,-21.91511z"/><path d="M266.46897,184.43143l1.70767,17.07671l-29.0304,5.97685l-25.89967,-5.12301l-2.27689,-15.08443z"/></g></g><path d="M188.80196,47.32359c0,0 25.31312,17.51158 43.68377,15.07658c11.42022,-1.11219 12.39032,-11.46573 25.21427,-18.02834c21.03848,-10.76637 44.14022,-12.76257 44.14022,-12.76257l0.84137,5.6135c0,0 -21.58138,3.11821 -42.35668,14.04613c-13.69735,7.2049 -8.62745,15.22702 -28.92741,16.9692c-17.49639,2.26343 -44.7667,-16.00241 -44.7667,-16.00241z" fill="#355656" stroke="#000000" stroke-width="2" stroke-linecap="round"/><path d="M288.09266,44.18596c0,0 6.97744,13.80774 6.94244,7.52612c-0.03686,-6.6147 -0.78445,-14.71916 -0.78445,-14.71916l5.98702,-0.91558c0,0 1.71997,19.83697 -1.25588,23.48227c-2.97584,3.64531 -13.18892,-5.78789 -13.18892,-5.78789z" fill="#244343" stroke="#000000" stroke-width="2" stroke-linecap="round"/><path d="M170.9193,31.85772c0,0 26.27067,20.00265 49.21753,22.47544c19.97249,-0.9803 25.65318,-13.09393 37.9891,-17.09273c15.08112,-4.88868 30.79464,7.33332 30.79464,7.33332l-0.66489,5.26279c0,0 -14.43038,-10.56051 -28.75256,-5.55023c-13.25731,4.63775 -16.93881,14.57503 -38.08669,15.8105c-24.94691,-2.7742 -56.80594,-24.01014 -56.80594,-24.01014z" fill="#2b4f4b" stroke="#000000" stroke-width="2" stroke-linecap="round"/><g><path d="M146.2038,72.46402c0,0 3.30201,-5.35608 6.37082,3.15085c3.93443,10.90652 4.36303,34.12372 6.9736,33.97874c4.81762,-0.26755 8.5347,-76.07487 8.5347,-76.07487l4.33885,3.14546c0,0 -2.62322,84.30237 -12.41998,83.93229c-7.62476,-0.28803 -13.79798,-48.13248 -13.79798,-48.13248z" fill="#244343" stroke="#000000" stroke-width="2" stroke-linecap="round"/><path d="M298.61574,84.4625c0,0 14.89152,47.56534 19.84362,43.43448c5.09159,-4.24724 10.29906,-68.57845 10.29906,-68.57845l6.93109,-2.25636c0,0 -6.61948,79.82539 -16.71003,80.71096c-8.89576,0.78072 -27.27744,-49.9826 -27.27744,-49.9826z" fill="#244343" stroke="#000000" stroke-width="2" stroke-linecap="round"/><path d="M298.07731,153.95139l10.16186,18.15998l-25.07519,0.97069l16.03491,15.24548l-59.88864,-7.48594l-65.26492,8.67078l13.27712,-15.72106l-21.69761,0.63396l11.78101,-21.05328z" fill="#345756" stroke="#000000" stroke-width="2" stroke-linecap="round"/><path d="M174.27169,137.82915c-0.54025,-33.29747 27.77791,-60.75696 63.25036,-61.3325c35.47245,-0.57554 64.66652,25.95084 65.20677,59.24829c0.54025,33.29747 -27.77791,60.75696 -63.25036,61.3325c-35.47245,0.57554 -64.66652,-25.95084 -65.20677,-59.24829z" fill="#345756" stroke="#000000" stroke-width="2" stroke-linecap="butt"/><path d="M187.82304,137.78877c-0.21038,-12.96629 10.13035,-23.6481 23.09664,-23.85848c12.96629,-0.21038 23.6481,10.13035 23.85848,23.09664c0.21038,12.96629 -10.13035,23.6481 -23.09664,23.85848c-12.96629,0.21038 -23.6481,-10.13035 -23.85848,-23.09664z" fill="#ffffff" stroke="#000000" stroke-width="2" stroke-linecap="butt"/><path d="M194.77714,130.87302c-0.14808,-9.12688 7.13066,-16.64571 16.25753,-16.79379c9.12688,-0.14808 16.64571,7.13067 16.79379,16.25754c0.14808,9.12688 -7.13067,16.64571 -16.25754,16.79379c-9.12688,0.14808 -16.6457,-7.13067 -16.79378,-16.25754z" fill="#000000" stroke="none" stroke-width="0" stroke-linecap="butt"/><path d="M226.57781,176.796l25.10629,-0.40735" fill="none" stroke="#000000" stroke-width="2" stroke-linecap="round"/><path d="M265.93277,160.00517c-12.96629,0.21038 -23.6481,-10.13035 -23.85848,-23.09664c-0.21038,-12.96629 10.13035,-23.6481 23.09664,-23.85848c12.96629,-0.21038 23.6481,10.13035 23.85848,23.09664c0.21038,12.96629 -10.13035,23.6481 -23.09664,23.85848z" data-paper-data="{&quot;index&quot;:null}" fill="#ffffff" stroke="#000000" stroke-width="2" stroke-linecap="butt"/><path d="M265.59709,146.25401c-9.12687,0.14808 -16.6457,-7.13067 -16.79378,-16.25754c-0.14808,-9.12688 7.13067,-16.64571 16.25753,-16.79379c9.12687,-0.14808 16.6457,7.13067 16.79378,16.25754c0.14808,9.12688 -7.13067,16.64571 -16.25753,16.79379z" data-paper-data="{&quot;index&quot;:null}" fill="#000000" stroke="none" stroke-width="0" stroke-linecap="butt"/><path d="M187.74524,138.13251c-0.21038,-12.9663 10.13035,-23.6481 23.09665,-23.85848c12.9663,-0.21038 23.6481,10.13034 23.85848,23.09664c0,0 -12.47604,-13.06353 -24.46502,-12.73424c-11.47294,0.31512 -22.48133,14.03639 -22.4901,13.49608z" fill="#345756" stroke="#000000" stroke-width="2" stroke-linecap="butt"/><path d="M242.07826,137.15095c-0.21038,-12.9663 10.13034,-23.6481 23.09664,-23.85848c12.9663,-0.21038 23.64811,10.13034 23.85849,23.09664c0.00491,0.3026 -11.92302,-13.05802 -23.64764,-12.94326c-11.75535,0.11506 -23.30749,13.7051 -23.30749,13.7051z" data-paper-data="{&quot;index&quot;:null}" fill="#345756" stroke="#000000" stroke-width="2" stroke-linecap="butt"/><path d="M246.3172,83.73737l-10.36725,30.586l-4.38134,-21.34552l-12.04144,3.92l6.28479,-14.37971" fill="#345756" stroke="#000000" stroke-width="2" stroke-linecap="round"/><path d="M284.12182,70.68006l-9.46562,-5.01731l-1.71499,-11.27153l9.47494,5.59171l-0.0175,10.72511z" fill="#3b5456" stroke="#000000" stroke-width="2" stroke-linecap="round"/><path d="M320.40274,28.68318l5.40645,-9.0889l9.34136,-2.64125l-5.37228,11.19501z" fill="#3b5456" stroke="#000000" stroke-width="2" stroke-linecap="round"/><path d="M282.01229,70.50297l-7.78791,3.95665l-9.08269,-5.02352l9.51108,-3.98461z" fill="#3b5456" stroke="#000000" stroke-width="2" stroke-linecap="round"/><path d="M192.32727,72.16943l-0.36543,-10.71889l9.28855,-5.89614l-1.34843,11.32124l-9.29787,5.32175z" fill="#3b5456" stroke="#000000" stroke-width="2" stroke-linecap="round"/><path d="M136.83346,49.17541l-8.50816,5.61394l-9.06371,-2.68783l6.60744,-5.89047z" fill="#3b5456" stroke="#000000" stroke-width="2" stroke-linecap="round"/><path d="M199.89854,66.66436l9.63534,3.67396l-8.91494,5.31553l-7.91217,-3.70192z" fill="#3b5456" stroke="#000000" stroke-width="2" stroke-linecap="round"/><path d="M341.84575,75.48896l6.81308,6.78398l-9.54525,1.8785l-8.18439,-8.67688z" fill="#3b5456" stroke="#000000" stroke-width="2" stroke-linecap="round"/><path d="M329.75699,74.23825l10.45108,8.66797l3.33336,3.71004l0.86949,13.24219l-3.9072,11.35579l-10.68708,7.04703l-11.72815,-6.68335l-5.11551,-12.68232l1.77225,-11.81212l4.46441,-7.27338z" fill="#616051" stroke="#000000" stroke-width="2" stroke-linecap="round"/><path d="M339.31859,108.77858l-25.0297,-19.56016l18.13903,-11.75035" fill="none" stroke="#000000" stroke-width="2" stroke-linecap="round"/><path d="M320.02505,79.63319l24.05067,19.7397l-18.41051,15.19158" fill="none" stroke="#000000" stroke-width="2" stroke-linecap="round"/><path d="M333.51603,114.27345l-19.72236,-15.22751l21.6191,-19.17142" fill="none" stroke="#000000" stroke-width="2" stroke-linecap="round"/><path d="M324.891,76.93573l18.35503,11.64921l-25.01784,21.51778" fill="none" stroke="#000000" stroke-width="2" stroke-linecap="round"/><path d="M155.35627,68.81062l1.47897,-10.90203l7.78666,8.32807l-1.67779,7.93793z" fill="#3b5456" stroke="#000000" stroke-width="2" stroke-linecap="round"/><path d="M164.45815,66.10309l9.01943,-4.99876l-1.68208,10.24215l-8.52113,2.8072z" fill="#3b5456" stroke="#000000" stroke-width="2" stroke-linecap="round"/><path d="M209.27734,87.42106l-4.4319,12.15922l-10.43301,6.85586l-50.0976,-28.50531l-6.34581,-10.69846l-0.28784,-17.74052l15.65459,-17.89557l15.91573,-1.80128l4.50433,8.15657l-9.29764,-2.42092l-12.36473,14.60251l-1.79406,16.23124l12.49141,9.05569l18.93012,-6.2222l4.82931,-19.36661l3.95828,22.05298l-13.73371,9.48119z" fill="#404135" stroke="#000000" stroke-width="2" stroke-linecap="round"/><path d="M298.2413,79.39467l-14.03407,-9.03066l3.24077,-22.16978l5.45504,19.19975l19.12201,5.60481l12.19106,-9.45616l-2.31968,-16.1645l-12.83195,-14.1937l-9.21421,2.72127l4.23735,-8.2984l15.96579,1.28401l16.22692,17.37829l0.28784,17.74052l-5.9954,10.8987l-49.14649,30.11553l-10.64993,-6.5138l-4.82402,-12.00904z" fill="#404135" stroke="#000000" stroke-width="2" stroke-linecap="round"/></g><path d="M186.3829,50.00448l6.03411,-8.86667l10.97792,0.72589l-7.77297,8.34084z" fill="#3b5456" stroke="#000000" stroke-width="2" stroke-linecap="round"/></g></g></svg>