<svg version="1.1" xmlns="http://www.w3.org/2000/svg" xmlns:xlink="http://www.w3.org/1999/xlink" width="34.17311" height="34.17311" viewBox="0,0,34.17311,34.17311"><g transform="translate(-222.91346,-162.91347)"><g data-paper-data="{&quot;isPaintingLayer&quot;:true}" stroke-miterlimit="10" stroke-dasharray="" stroke-dashoffset="0" style="mix-blend-mode: normal"><path d="M229.98314,162.91348h20.03378c3.9166,0 7.06966,3.15307 7.06966,7.06966v20.03379c0,3.91659 -3.15306,7.06966 -7.06966,7.06966h-20.03378c-3.91659,0 -7.06967,-3.15307 -7.06967,-7.06966v-20.03379c0,-3.91659 3.15308,-7.06966 7.06967,-7.06966z" fill-opacity="0.09677" fill="#191919" fill-rule="evenodd" stroke="none" stroke-width="4.43922" stroke-linecap="round" stroke-linejoin="round"/><path d="M247.93352,185.86318l3.35156,3.35156l-2.01901,2.01901l-3.35156,-3.35156z" fill="#717071" fill-rule="nonzero" stroke="none" stroke-width="0" stroke-linecap="butt" stroke-linejoin="miter"/><path d="M251.49447,187.22864l1.53445,1.53445l-4.21451,4.21451l-1.53446,-1.53445z" fill="#ffffff" fill-rule="nonzero" stroke="none" stroke-width="0" stroke-linecap="butt" stroke-linejoin="miter"/><path d="M249.35919,178.40995h4.73982v2.85532h-4.73982z" fill="#717071" fill-rule="nonzero" stroke="none" stroke-width="0" stroke-linecap="butt" stroke-linejoin="miter"/><path d="M252.84267,176.8575l2.17004,-0.00001v5.96021h-2.17004z" fill="#ffffff" fill-rule="nonzero" stroke="none" stroke-width="0" stroke-linecap="butt" stroke-linejoin="miter"/><path d="M241.43882,189.53683v4.73982h-2.85532v-4.73982z" fill="#717071" fill-rule="nonzero" stroke="none" stroke-width="0" stroke-linecap="butt" stroke-linejoin="miter"/><path d="M242.99127,193.0203v2.17004h-5.96021v-2.17004z" fill="#ffffff" fill-rule="nonzero" stroke="none" stroke-width="0" stroke-linecap="butt" stroke-linejoin="miter"/><path d="M233.49022,187.80721l-3.35156,3.35156l-2.01901,-2.01901l3.35156,-3.35156z" fill="#717071" fill-rule="nonzero" stroke="none" stroke-width="0" stroke-linecap="butt" stroke-linejoin="miter"/><path d="M232.12478,191.36815l-1.53445,1.53445l-4.21451,-4.21451l1.53445,-1.53445z" fill="#ffffff" fill-rule="nonzero" stroke="none" stroke-width="0" stroke-linecap="butt" stroke-linejoin="miter"/><path d="M232.3167,174.01173l-3.35156,-3.35156l2.01901,-2.01902l3.35156,3.35157z" fill="#717071" fill-rule="nonzero" stroke="none" stroke-width="0" stroke-linecap="butt" stroke-linejoin="miter"/><path d="M228.75576,172.64627l-1.53445,-1.53445l4.21451,-4.21451l1.53445,1.53445z" fill="#ffffff" fill-rule="nonzero" stroke="none" stroke-width="0" stroke-linecap="butt" stroke-linejoin="miter"/><path d="M244.85792,171.61737l3.35156,-3.35156l2.01901,2.01901l-3.35156,3.35156z" fill="#717071" fill-rule="nonzero" stroke="none" stroke-width="0" stroke-linecap="butt" stroke-linejoin="miter"/><path d="M246.22337,168.05644l1.53446,-1.53445l4.21451,4.21451l-1.53445,1.53445z" fill="#ffffff" fill-rule="nonzero" stroke="none" stroke-width="0" stroke-linecap="butt" stroke-linejoin="miter"/><path d="M230.64081,181.59008h-4.73982v-2.85532h4.73982z" fill="#717071" fill-rule="nonzero" stroke="none" stroke-width="0" stroke-linecap="butt" stroke-linejoin="miter"/><path d="M227.15733,183.14251l-2.17004,0.00001v-5.96021h2.17004z" fill="#ffffff" fill-rule="nonzero" stroke="none" stroke-width="0" stroke-linecap="butt" stroke-linejoin="miter"/><path d="M238.56118,170.4632v-4.73982h2.85532v4.73982z" fill="#717071" fill-rule="nonzero" stroke="none" stroke-width="0" stroke-linecap="butt" stroke-linejoin="miter"/><path d="M237.00873,166.97968v-2.17004h5.96021v2.17004z" fill="#ffffff" fill-rule="nonzero" stroke="none" stroke-width="0" stroke-linecap="butt" stroke-linejoin="miter"/><path d="M230.08382,180.22919c0,-5.56018 4.50742,-10.06761 10.06761,-10.06761c5.56018,0 10.06761,4.50743 10.06761,10.06761c0,5.56018 -4.50743,10.06761 -10.06761,10.06761c-5.56018,0 -10.06761,-4.50742 -10.06761,-10.06761z" fill="#707070" fill-rule="nonzero" stroke="#ffffff" stroke-width="3" stroke-linecap="butt" stroke-linejoin="miter"/></g></g></svg>