<svg version="1.1" xmlns="http://www.w3.org/2000/svg" xmlns:xlink="http://www.w3.org/1999/xlink" width="165.16887" height="267.22501" viewBox="0,0,165.16887,267.22501"><defs><linearGradient x1="242.91876" y1="112.31757" x2="242.91876" y2="192.17573" gradientUnits="userSpaceOnUse" id="color-1"><stop offset="0" stop-color="#ffffff" stop-opacity="0.06754"/><stop offset="1" stop-color="#666666" stop-opacity="0.33367"/></linearGradient></defs><g transform="translate(-175.48349,-46.3875)"><g data-paper-data="{&quot;isPaintingLayer&quot;:true}" fill-rule="nonzero" stroke-linejoin="miter" stroke-miterlimit="10" stroke-dasharray="" stroke-dashoffset="0" style="mix-blend-mode: normal"><g><path d="M179.14715,313.61251v-267.22501h123.18203v267.22501z" fill-opacity="0.01" fill="#000000" stroke="none" stroke-width="0" stroke-linecap="butt"/><path d="M179.15132,143.85048l138.8386,11.10891c0,0 -10.09411,42.39996 -11.87995,46.26928c-1.78584,3.86932 -10.62943,2.50104 -10.62943,2.50104c0,0 1.22278,10.99558 -0.62526,15.00625c-1.84804,4.01068 -5.17444,5.97702 -9.17043,6.25261c-3.996,0.27559 -8.96213,-5.00208 -8.96213,-5.00208l-8.75365,10.62943l-53.14714,0.62526l-10.00417,-10.62943l-3.1263,3.1263c0,0 -3.08747,4.306 -8.545,1.66748c-3.77966,-1.82733 -4.58548,-7.92008 -4.58548,-7.92008l-0.62526,-14.38099c0,0 -8.14888,-0.39257 -10.62943,-2.50104c-2.48055,-2.10847 1.43843,-9.23313 1.43843,-9.23313z" fill="#874e8b" stroke="#000000" stroke-width="2" stroke-linecap="round"/><path d="M206.75006,307.50001l15.14285,-131.8421l37.78325,-0.15789l13.57389,132z" fill="#d477dc" stroke="#000000" stroke-width="2" stroke-linecap="butt"/><path d="M219.70029,204.11264l3.12142,-26.32765l35.83075,-0.14203l2.76735,26.1059c0,0 -7.51543,4.19603 -21.55904,4.50964c-12.48458,0.27879 -20.16049,-4.14586 -20.16049,-4.14586z" fill="#9c58a0" stroke="#000000" stroke-width="0" stroke-linecap="butt"/></g><path d="M177.09209,132.19627c2.17754,-11.63966 7.62715,-22.22156 15.4257,-30.87918c12.80749,-14.21833 29.91152,4.61726 51.30078,4.61726c22.37868,0 44.33713,-17.98101 57.11468,-2.6112c9.23945,11.11392 14.74448,25.09682 14.74448,40.28664c0,25.08895 -15.01824,46.88527 -37.07635,57.89982c-1.38497,-0.86352 -2.64848,-1.57477 -3.66508,-2.07319c-5.39982,-2.64747 -11.40075,-4.19172 -17.64756,-4.23816c-6.66787,-0.04957 -13.3363,-0.04957 -20.00417,0c-6.1331,0.04559 -12.65476,1.8131 -18.7347,2.50052c-3.43298,0.38814 -6.87382,0.72934 -10.30498,1.13718c-13.91261,-8.36639 -24.4553,-20.92677 -29.29163,-36.11095c-1.89713,-5.95623 3.31358,-11.64529 3.31358,-18.18074z" fill="#d477dc" stroke="#000000" stroke-width="2" stroke-linecap="butt"/><path d="M314.72459,143.30602c0,25.01363 -15.19243,46.70479 -37.40869,57.42494c-0.8203,-0.48162 -1.57576,-0.89434 -2.23445,-1.22277c34.00422,-15.47512 39.64314,-57.09676 39.64314,-56.20218z" fill="#9c58a0" stroke="#000000" stroke-width="0" stroke-linecap="butt"/><path d="M176.82297,143.30602c0,-0.6321 3.61152,38.5333 37.2881,54.87724c-1.30995,0.14057 -2.61995,0.28143 -3.92902,0.42887c-19.99226,-11.30402 -33.35908,-31.84346 -33.35908,-55.30611z" fill="#9c58a0" stroke="#000000" stroke-width="0" stroke-linecap="butt"/><path d="M190.76501,143.71427c0,-14.09515 11.42638,-25.52153 25.52153,-25.52153c14.09515,0 25.52153,11.42638 25.52153,25.52153c0,14.09515 -11.42638,25.52153 -25.52153,25.52153c-14.09515,0 -25.52153,-11.42638 -25.52153,-25.52153z" fill="#ffffff" stroke="#000000" stroke-width="2" stroke-linecap="butt"/><path d="M275.261,169.23582c-14.09515,0 -25.52153,-11.42638 -25.52153,-25.52153c0,-14.09515 11.42638,-25.52153 25.52153,-25.52153c14.09515,0 25.52153,11.42638 25.52153,25.52153c0,14.09515 -11.42638,25.52153 -25.52153,25.52153z" data-paper-data="{&quot;index&quot;:null}" fill="#ffffff" stroke="#000000" stroke-width="2" stroke-linecap="butt"/><path d="M212.86468,144.71329c0,-6.66024 5.39919,-12.05943 12.05942,-12.05943c6.66024,0 12.05943,5.3992 12.05943,12.05943c0,6.66024 -5.3992,12.05943 -12.05943,12.05943c-6.66024,0 -12.05942,-5.3992 -12.05942,-12.05943z" fill="#000000" stroke="none" stroke-width="0" stroke-linecap="butt"/><path d="M283.28271,157.43007c-6.66023,0 -12.05942,-5.3992 -12.05942,-12.05943c0,-6.66024 5.39919,-12.05943 12.05942,-12.05943c6.66023,0 12.05942,5.3992 12.05942,12.05943c0,6.66024 -5.3992,12.05943 -12.05942,12.05943z" data-paper-data="{&quot;index&quot;:null}" fill="#000000" stroke="none" stroke-width="0" stroke-linecap="butt"/><path d="M178.78162,108.12589l130.06797,-2.47102c0,0 4.93659,14.25522 -1.30941,17.79131c-6.246,3.5361 -12.61181,-6.91884 -17.89526,-6.91884c-5.28345,0 -1.39976,4.96759 -12.65762,3.95363c-11.25786,-1.01397 -14.8969,-7.6129 -25.75171,-7.41305c-10.85481,0.19984 -6.97367,6.09407 -20.07761,6.91884c-7.45395,0.46915 -25.31524,-1.48261 -25.31524,-1.48261c0,0 -7.14076,6.25888 -21.82348,5.93044c-3.78138,-0.08459 -5.67411,-8.89566 -5.67411,-8.89566z" fill="#874d8a" stroke="#000000" stroke-width="2" stroke-linecap="round"/><g><path d="M176.77336,204.7154v-109.90379h162.879v109.90379zM184.27254,191.99199l117.80791,-0.78804l-1.18338,-78.27416l-116.62189,-0.00264z" fill="#9d829c" stroke="#725771" stroke-width="2" stroke-linecap="butt"/><path d="M305.11122,127.98284c0,-1.90123 0,-7.75722 0,-10.92423c0,-1.25279 1.16457,-2.08481 2.41635,-2.08481c3.62314,0 21.47219,0 27.42288,0c1.21549,0 1.93455,1.60893 1.93455,2.92514c0,1.84835 0,6.96511 0,10.0839c0,1.49267 -1.03347,2.52766 -2.71806,2.52766c-6.67077,0 -23.55146,0 -26.90054,0c-1.13155,0 -2.15518,-1.35809 -2.15518,-2.52766z" fill="#725771" stroke="#725771" stroke-width="0" stroke-linecap="butt"/><path d="M307.09631,194.32956c0,-2.53638 0,-6.29476 0,-7.67244c0,-1.00937 1.06141,-2.22248 2.1908,-2.22248c3.16421,0 18.32653,0 23.63906,0c1.15444,0 1.84376,1.5689 1.84376,2.77051c0,1.39223 0,4.77089 0,7.12441c0,1.42833 -0.87375,2.4791 -1.84376,2.4791c-2.76718,0 -16.32082,0 -22.61127,0c-1.96292,0 -3.2186,-1.04392 -3.2186,-2.4791z" fill="none" stroke="#725771" stroke-width="2" stroke-linecap="butt"/><path d="M307.2347,179.58109c0,-7.79469 0,-38.34237 0,-43.42392c0,-1.39936 1.12454,-2.60253 2.30936,-2.60253c3.15128,0 17.62006,0 23.38211,0c1.47339,0 2.37749,1.07124 2.37749,2.34559c0,4.79198 0,34.56725 0,43.16697c0,1.47173 -0.7473,2.32327 -1.60665,2.32327c-2.84862,0 -18.69794,0 -24.40989,0c-1.28123,0 -2.05241,-0.65529 -2.05241,-1.80937z" fill="#ffdeff" stroke="#725771" stroke-width="2" stroke-linecap="butt"/><path d="M334.46785,200.52226c0,-0.78049 0.63271,-1.41321 1.41321,-1.41321c0.78049,0 1.41321,0.63271 1.41321,1.41321c0,0.78049 -0.63271,1.41321 -1.41321,1.41321c-0.78049,0 -1.41321,-0.63271 -1.41321,-1.41321z" fill="#725771" stroke="none" stroke-width="0" stroke-linecap="butt"/><path d="M180.5687,199.49448c0,-1.06431 0.86279,-1.9271 1.92709,-1.9271c1.06431,0 1.9271,0.86279 1.9271,1.9271c0,1.06431 -0.86279,1.92709 -1.9271,1.92709c-1.06431,0 -1.92709,-0.86278 -1.92709,-1.92709z" fill="#725771" stroke="none" stroke-width="0" stroke-linecap="butt"/><path d="M178.77008,98.89998c0,-0.70954 0.5752,-1.28473 1.28473,-1.28473c0.70954,0 1.28473,0.5752 1.28473,1.28473c0,0.70954 -0.5752,1.28473 -1.28473,1.28473c-0.70954,0 -1.28473,-0.5752 -1.28473,-1.28473z" fill="#725771" stroke="none" stroke-width="0" stroke-linecap="butt"/><path d="M334.47192,98.04911c0,-0.9461 0.76696,-1.71306 1.71306,-1.71306c0.9461,0 1.71306,0.76696 1.71306,1.71306c0,0.9461 -0.76696,1.71307 -1.71306,1.71307c-0.9461,0 -1.71306,-0.76697 -1.71306,-1.71307z" fill="#725771" stroke="none" stroke-width="0" stroke-linecap="butt"/><path d="M320.96406,180.02736v-45.99338" fill="none" stroke="#725771" stroke-width="2" stroke-linecap="round"/><path d="M334.06833,167.95089h-26.20852" fill="none" stroke="#725771" stroke-width="2" stroke-linecap="round"/><path d="M308.11676,156.90218h26.7224" fill="none" stroke="#725771" stroke-width="2" stroke-linecap="round"/><path d="M307.60286,145.59653h26.97935" fill="none" stroke="#725771" stroke-width="2" stroke-linecap="round"/></g><path d="M232.20601,186.05369c0,0 2.45076,-1.821 6.33802,-2.23105c3.88726,-0.41005 8.5915,0.65619 8.5915,0.65619c0,0 4.02164,-1.37227 6.88511,-1.16802c2.86347,0.20425 6.36221,2.11294 6.36221,2.11294" fill="none" stroke="#000000" stroke-width="2" stroke-linecap="round"/><g stroke-linecap="butt"><path d="M183.97775,192.17573v-79.85815h117.88201v79.85815z" fill="url(#color-1)" stroke="#725771" stroke-width="2"/><path d="M205.90199,190.93783l-19.79339,-77.72948h15.64317l19.7934,77.72948z" fill-opacity="0.11593" fill="#ffffff" stroke="none" stroke-width="0"/><path d="M236.23059,190.93783l-19.7934,-77.72948h15.64318l19.79339,77.72948z" fill-opacity="0.11593" fill="#ffffff" stroke="none" stroke-width="0"/></g></g></g></svg>