<svg version="1.1" xmlns="http://www.w3.org/2000/svg" xmlns:xlink="http://www.w3.org/1999/xlink" width="135.29544" height="267.22501" viewBox="0,0,135.29544,267.22501"><defs><linearGradient x1="240.00004" y1="175.50001" x2="240.00004" y2="307.50001" gradientUnits="userSpaceOnUse" id="color-1"><stop offset="0" stop-color="#1a110e"/><stop offset="1" stop-color="#5d3d27"/></linearGradient><linearGradient x1="242.76106" y1="84.68135" x2="235.78615" y2="207.42756" gradientUnits="userSpaceOnUse" id="color-2"><stop offset="0" stop-color="#19110c"/><stop offset="1" stop-color="#714a2f"/></linearGradient><radialGradient cx="297.69568" cy="158.36027" r="10.62949" gradientUnits="userSpaceOnUse" id="color-3"><stop offset="0" stop-color="#ffe902"/><stop offset="1" stop-color="#6a6101"/></radialGradient></defs><g transform="translate(-172.85241,-46.38751)"><g data-paper-data="{&quot;isPaintingLayer&quot;:true}" fill-rule="nonzero" stroke-linejoin="miter" stroke-miterlimit="10" stroke-dasharray="" stroke-dashoffset="0" style="mix-blend-mode: normal"><path d="M179.28374,313.61252v-267.22501h123.18203v267.22501z" fill-opacity="0.01" fill="#000000" stroke="none" stroke-width="0" stroke-linecap="butt"/><path d="M206.75005,307.5l15.14285,-131.8421l37.78325,-0.15789l13.57389,132z" fill="url(#color-1)" stroke="#000000" stroke-width="0" stroke-linecap="butt"/><g><g><path d="M173.8916,142.33921c1.92607,-33.89543 32.75996,-59.70973 68.86944,-57.65786c36.10949,2.05187 63.82062,31.19293 61.89455,65.08835c-1.92607,33.89543 -32.75996,59.70973 -68.86945,57.65786c-36.10949,-2.05187 -63.82062,-31.19293 -61.89455,-65.08835z" fill="url(#color-2)" stroke="#000000" stroke-width="0" stroke-linecap="butt"/><path d="M203.1777,117.59171c0,0 4.97304,-0.94384 10.27346,-1.57253c7.21009,-0.85523 10.96875,0.50418 10.96875,0.50418l-0.35209,58.38235c0,0 -5.25358,1.21842 -8.10898,1.05616c-3.68631,-0.20947 -12.58207,-2.23191 -12.58207,-2.23191z" fill="none" stroke="#36251c" stroke-width="2.5" stroke-linecap="round"/><path d="M270.07421,118.0414c5.61886,0.79739 7.10751,1.85931 7.10751,1.85931l-4.0451,56.27631c0,0 -6.71585,0.37686 -9.75507,0.20416c-2.68867,-0.15277 -7.55784,-1.18795 -7.55784,-1.18795l6.26382,-58.04641c0,0 4.22169,0.36026 7.98668,0.89457z" fill="none" stroke="#36251c" stroke-width="2.5" stroke-linecap="round"/><path d="M182.20845,124.32179l0.68858,-2.50893" fill="none" stroke="#000000" stroke-width="1.5" stroke-linecap="round"/><path d="M185.5523,126.33185l-2.73774,-3.06762" fill="none" stroke="#000000" stroke-width="1.5" stroke-linecap="round"/><path d="M179.54076,129.63032l2.36875,-0.04742l1.38949,1.17098" fill="none" stroke="#000000" stroke-width="1.5" stroke-linecap="round"/><path d="M175.59899,138.1425l2.65324,-1.85128l-0.69888,2.69034l1.0782,0.24326l-0.14431,2.53986l1.97499,0.47622" fill="none" stroke="#000000" stroke-width="1.5" stroke-linecap="round"/><path d="M175.22787,144.67355l1.48227,-0.46179l1.50906,2.26979" fill="none" stroke="#000000" stroke-width="1.5" stroke-linecap="round"/><path d="M175.80093,153.80631l-0.49686,2.33781l-1.29053,0.29067" fill="none" stroke="#000000" stroke-width="1.5" stroke-linecap="round"/><path d="M175.40921,160.70019l1.66367,-0.45148l1.00605,1.51319" fill="none" stroke="#000000" stroke-width="1.5" stroke-linecap="round"/><path d="M183.33794,171.70695l-1.20807,-1.16067l-3.77885,-0.76075l1.90697,-1.52966l0.82876,-1.77294l0.32574,-2.52954l0.11341,-1.9956l2.8759,-2.56664" fill="none" stroke="#000000" stroke-width="1.5" stroke-linecap="round"/><path d="M179.81883,172.781l1.01018,-1.76263" fill="none" stroke="#000000" stroke-width="1.5" stroke-linecap="round"/><path d="M286.90569,160.44155c0.33304,-5.86104 5.35434,-10.34238 11.2154,-10.00933c5.86105,0.33305 10.34238,5.35435 10.00933,11.2154c-0.33305,5.86104 -5.35434,10.34238 -11.2154,10.00933c-5.86105,-0.33305 -10.34238,-5.35434 -10.00933,-11.2154z" fill="url(#color-3)" stroke="#f6c002" stroke-width="0" stroke-linecap="butt"/><path d="M178.94073,164.48362c0,0 1.11955,3.20403 1.84472,4.59805c0.59719,1.14801 2.19733,3.17219 2.19733,3.17219l-3.35418,1.6436c0,0 -1.5154,-2.6796 -2.03326,-3.95969c-0.49362,-1.22017 -1.00462,-3.54969 -1.00462,-3.54969z" fill="#b4b3b4" stroke="#b6b4b2" stroke-width="0.5" stroke-linecap="round"/><path d="M174.48778,160.3584c0,0 -0.9195,-2.80884 -1.15275,-4.1674c-0.22587,-1.31554 -0.22535,-3.85907 -0.22535,-3.85907l3.57168,-0.35068c0,0 -0.25728,2.7087 -0.10722,4.05032c0.14588,1.3043 0.9954,3.89057 0.9954,3.89057l-3.08177,0.43626z" fill="#b4b3b4" stroke="#b6b4b2" stroke-width="0.5" stroke-linecap="round"/><path d="M176.94741,135.2271c0,0 -0.61509,3.0263 -0.73409,4.48953c-0.1046,1.28635 0.05767,3.82779 0.05767,3.82779l-3.25029,-0.18469c0,0 -0.1926,-0.17535 0.06842,-4.4942c0.17585,-2.90958 0.59646,-3.61998 0.59646,-3.61998z" fill="#b4b3b4" stroke="#b6b4b2" stroke-width="0.5" stroke-linecap="round"/><path d="M237.03131,91.06173c1.16138,-0.4258 3.37341,-2.37346 4.63393,-2.35117c1.66812,-0.64994 3.62528,-1.90099 5.01779,-2.64668c0.10953,-0.09776 0.20795,-0.20817 0.29811,-0.32477c0.02877,-0.19336 0.23202,-0.18182 0.23202,-0.18182c1.06418,0.06047 3.48251,0.08919 4.06249,1.17197c0.01559,0.01843 0.02632,0.03767 0.03338,0.05694l0.06925,0.06236c0,0 0.14819,0.16603 -0.01786,0.31422c-0.08033,0.07167 -0.15646,0.06983 -0.21368,0.04881c-1.00626,1.56481 -2.40605,1.87414 -4.07527,2.59346c-1.22754,0.50271 -5.06363,0.94767 -5.7623,2.11484c-1.85607,0.57535 -3.69006,2.29048 -5.34961,2.34745c-0.34368,-0.03002 -0.60456,0.15491 -0.85201,0.37967c0.57624,0.78119 3.46679,1.30168 4.33987,1.3513c1.85373,0.14252 4.80806,0.60231 6.43081,1.49536c2.14255,0.84939 4.93125,0.47391 6.92268,1.61898c1.38465,0.0615 6.03779,0.79309 5.9635,2.53444c-0.12586,1.63685 -4.51147,1.95281 -5.73478,1.87276c-0.65576,0.17797 -1.59369,0.14324 -2.30869,0.11524c-0.04612,0.08176 -0.14245,0.1079 -0.14245,0.1079c-1.7156,0.46282 -3.57701,1.13275 -5.19248,1.81269c-1.45911,-0.08291 -3.08208,1.30995 -4.39872,1.8413c-0.37543,0.15151 -0.4634,0.6784 -0.97484,0.53782c-0.11994,0.30161 -1.99484,1.65864 -1.07985,2.07343l0.09056,0.19243c1.5301,0.17504 3.10703,1.3085 4.52791,1.8711c2.22324,0.88769 4.00797,1.67188 6.43008,1.84385c0.41728,0.23914 1.01653,0.10797 1.22814,0.69608c0.41457,1.15217 -0.8589,1.05687 -0.94883,1.76266c-0.1298,1.01879 0.62667,1.99727 -0.95369,2.57668c-0.88947,1.55199 -2.34458,2.78149 -3.30287,4.45358c-1.03214,1.80095 -1.58346,3.69007 -2.53396,5.42084c-0.26342,0.43268 -0.45505,1.4056 -0.23105,1.88977l0.00658,0.13655c0.51938,1.22868 0.75465,4.19693 0.71717,4.95078c-0.06449,1.13505 0.69549,3.73397 -0.32616,4.59094c-0.58537,0.49103 -1.08875,0.23411 -1.54223,1.02534c-2.03126,0.90866 -3.39462,-0.99324 -5.41217,-1.10788c-0.16702,-0.00949 -0.33405,-0.01899 -0.50106,-0.02848c0.37296,0.30784 0.84359,0.99038 1.21581,1.36697c0.1863,-0.06142 0.26705,0.12598 0.26705,0.12598c0.00741,0.03642 0.01709,0.07263 0.02886,0.10864c0.04969,0.02332 0.09505,0.03265 0.13515,0.02478l0.26968,0.20427c0,0 0.14819,0.16604 -0.01786,0.31423c-0.0105,0.00939 -0.02096,0.01752 -0.0313,0.02449c0.86155,0.9544 2.84535,1.82488 3.32546,2.939c1.53136,0.76817 3.2358,2.85832 3.13031,4.71492c-1.38311,2.33821 -4.60906,-0.13434 -5.21892,-1.79777c-0.1106,-0.06339 -0.1868,-0.12663 -0.24491,-0.19744c0.30811,1.20667 1.49673,2.27416 1.40212,3.93911c-0.04184,0.73624 0.6523,2.05155 0.31315,2.60823c-1.12673,1.84947 -2.4332,-1.3154 -2.6525,-1.82431c0.08811,-1.95569 -1.95804,-3.34874 -1.7815,-5.64483c0.36449,-0.66365 1.08253,-0.97962 0.96912,-1.82111c-0.15272,-1.13331 -1.9071,-1.59466 -2.22661,-2.58504c-1.35251,-0.07685 -3.56823,-3.94732 -2.80098,-5.11393c2.22628,-0.07643 4.44008,-0.0283 6.66575,0.09816c0.54097,0.03073 1.08199,0.06147 1.62295,0.09223c-0.00454,-0.1028 0.07922,-0.17754 0.07922,-0.17754l0.05624,0.03717c0.07237,-1.27373 0.14476,-2.54747 0.21714,-3.8212c0.123,-2.1646 0.90171,-4.44704 0.99245,-6.53344c0.84597,-2.15394 0.70793,-4.47589 1.87462,-6.51158c0.32942,-0.5411 2.50917,-3.78317 1.41585,-3.80203c-0.00705,0.00016 -0.01112,-0.00008 -0.01112,-0.00008c-1.2193,-0.06928 -1.59401,-0.75228 -2.59024,-1.01879c-0.76229,-0.20395 -1.28464,0.42167 -2.02141,0.37979c-0.1907,0.03065 0.26965,2.05477 0.15076,2.43975c-0.31656,1.02508 -1.17703,2.39223 -1.18224,3.39538c-0.6235,1.13532 -0.1525,2.98696 -1.0042,3.97928c-0.77597,0.90408 -1.66687,1.03906 -2.12474,-0.0762c0.08847,-2.07361 0.91707,-4.63041 1.86246,-6.35188c1.20907,-2.10967 -0.35413,-3.7909 1.69832,-5.62263c0.06746,-0.12106 -3.98551,-1.93963 -4.87546,-2.30667c-0.7073,-0.77919 -2.11824,-2.22913 -1.35888,-3.47559c0.3107,-0.51002 1.74734,-0.5932 2.23884,-0.82061c1.91969,-0.82725 2.92135,-1.88379 4.82057,-2.67544c0.62332,-0.55628 2.05408,-1.17906 2.87788,-1.22792c1.34903,-0.51201 2.81686,-0.86493 4.23164,-1.47821c0.42564,-0.1826 0.73591,-0.49508 1.15141,-0.67656c0.00897,-0.00392 0.0188,-0.00824 0.02936,-0.0129c-0.47493,0.0124 -1.12178,-0.09404 -1.30613,-0.1371c-0.85759,-0.20035 -1.68436,-0.9622 -2.56594,-1.01229c-2.02834,-1.12167 -4.51197,-0.79867 -6.44197,-1.97367c-1.98813,-0.09567 -3.75166,-1.79781 -5.70239,-1.93165c-2.9446,-1.61714 -0.37391,-3.33656 1.42505,-4.16891c0.80473,-0.34679 1.62036,-0.6054 2.42364,-0.92904c-0.08191,-0.20034 0.1187,-0.28678 0.1187,-0.28678z" fill="#000000" stroke="none" stroke-width="0.5" stroke-linecap="butt"/><path d="M175.3325,128.00237c0,0 1.12476,-4.94918 3.25956,-7.15154c2.1348,-2.20236 2.06383,-0.47499 3.6681,0.00464c1.60427,0.47962 0.82351,0.57796 0.54017,1.25348c-0.28332,0.67553 -4.54767,8.30114 -4.54767,8.30114z" fill="#b4b3b4" stroke="#b6b4b2" stroke-width="0.5" stroke-linecap="round"/><path d="M255.39373,85.66485c0.02002,-0.02907 0.03877,-0.05783 0.05615,-0.0862c-0.00197,0.02724 -0.02189,0.05612 -0.05615,0.0862z" fill-opacity="0.43044" fill="#9966ff" stroke="none" stroke-width="0.5" stroke-linecap="butt"/></g><path d="M187.67777,143.22076c0.75002,-13.19914 12.05806,-23.29115 25.25721,-22.54113c13.19914,0.75002 23.29116,12.05806 22.54114,25.25721c-0.75002,13.19914 -12.05806,23.29115 -25.25721,22.54114c-13.19914,-0.75002 -23.29115,-12.05806 -22.54113,-25.25721z" fill="#b6b6b6" stroke="#000000" stroke-width="0" stroke-linecap="butt"/><path d="M265.44449,171.61608c-13.19914,-0.75002 -23.29115,-12.05806 -22.54114,-25.25721c0.75002,-13.19914 12.05806,-23.29115 25.25721,-22.54113c13.19914,0.75002 23.29116,12.05807 22.54114,25.25722c-0.75002,13.19914 -12.05807,23.29115 -25.25721,22.54113z" data-paper-data="{&quot;index&quot;:null}" fill="#b6b6b6" stroke="#000000" stroke-width="0" stroke-linecap="butt"/><path d="M201.33785,143.99698c0.32134,-5.6549 5.16602,-9.97861 10.82092,-9.65727c5.6549,0.32134 9.97862,5.16603 9.65729,10.82093c-0.32134,5.6549 -5.16603,9.97861 -10.82093,9.65727c-5.6549,-0.32134 -9.97861,-5.16603 -9.65728,-10.82093z" fill="none" stroke="#ffffff" stroke-width="2" stroke-linecap="butt"/><path d="M266.2207,157.95601c-5.6549,-0.32134 -9.97862,-5.16602 -9.65729,-10.82092c0.32133,-5.6549 5.16604,-9.97861 10.82093,-9.65727c5.6549,0.32134 9.97861,5.16602 9.65728,10.82092c-0.32133,5.6549 -5.16603,9.97861 -10.82092,9.65727z" data-paper-data="{&quot;index&quot;:null}" fill="none" stroke="#ffffff" stroke-width="2" stroke-linecap="butt"/><path d="M227.11121,204.6383c0,0 -0.16797,-3.69699 9.25052,-3.3571c9.10164,0.32844 8.16563,4.34674 8.16563,4.34674l-17.41613,-0.98964z" fill="#000000" stroke="#000000" stroke-width="1.5" stroke-linecap="round"/></g></g></g></svg>