<svg version="1.1" xmlns="http://www.w3.org/2000/svg" xmlns:xlink="http://www.w3.org/1999/xlink" width="34.67311" height="34.67311" viewBox="0,0,34.67311,34.67311"><defs><linearGradient x1="240.00001" y1="162.91345" x2="240.00001" y2="197.08656" gradientUnits="userSpaceOnUse" id="color-1"><stop offset="0" stop-color="#000000"/><stop offset="1" stop-color="#68442d"/></linearGradient><linearGradient x1="231.9052" y1="167.94327" x2="231.9052" y2="191.28547" gradientUnits="userSpaceOnUse" id="color-2"><stop offset="0" stop-color="#090604"/><stop offset="1" stop-color="#4f3422"/></linearGradient><linearGradient x1="245.71274" y1="167.94327" x2="245.71274" y2="191.28547" gradientUnits="userSpaceOnUse" id="color-3"><stop offset="0" stop-color="#090604"/><stop offset="1" stop-color="#4f3422"/></linearGradient><radialGradient cx="250.35608" cy="184.21953" r="2.66356" gradientUnits="userSpaceOnUse" id="color-4"><stop offset="0" stop-color="#ffe600"/><stop offset="1" stop-color="#685c00"/></radialGradient></defs><g transform="translate(-222.66345,-162.66344)"><g data-paper-data="{&quot;isPaintingLayer&quot;:true}" stroke-miterlimit="10" stroke-dasharray="" stroke-dashoffset="0" style="mix-blend-mode: normal"><path d="M229.98312,162.91345h20.03379c3.9166,0 7.06966,3.15307 7.06966,7.06966v20.03379c0,3.91659 -3.15306,7.06966 -7.06966,7.06966h-20.03379c-3.91659,0 -7.06966,-3.15307 -7.06966,-7.06966v-20.03379c0,-3.91659 3.15307,-7.06966 7.06966,-7.06966z" fill="url(#color-1)" fill-rule="evenodd" stroke="#b2764d" stroke-width="0.5" stroke-linecap="round" stroke-linejoin="round"/><path d="M227.26185,191.28547v-23.3422h9.28669v23.3422z" fill="none" fill-rule="nonzero" stroke="url(#color-2)" stroke-width="1" stroke-linecap="butt" stroke-linejoin="miter"/><path d="M241.0694,191.28547v-23.3422h9.28669v23.3422z" fill="none" fill-rule="nonzero" stroke="url(#color-3)" stroke-width="1" stroke-linecap="butt" stroke-linejoin="miter"/><g fill-rule="nonzero" stroke-linecap="butt" stroke-linejoin="miter"><path d="M247.69252,184.21953c0,-1.47105 1.19252,-2.66357 2.66356,-2.66357c1.47105,0 2.66356,1.19252 2.66356,2.66357c0,1.47105 -1.19251,2.66356 -2.66356,2.66356c-1.47105,0 -2.66356,-1.19251 -2.66356,-2.66356z" fill="url(#color-4)" stroke="#f6c002" stroke-width="0"/><path d="M249.79955,184.31375c0.00124,-0.13176 -0.16952,-0.2747 -0.27172,-0.32911c-0.01434,-0.00785 -0.02771,-0.01987 -0.03528,-0.03466l-0.01806,-0.00927c-0.00485,-0.00236 -0.0082,-0.00743 -0.0082,-0.01331c0,-0.00588 0.00335,-0.01094 0.0082,-0.0133l0.0061,-0.00314c0.00714,-0.01011 0.01361,-0.02089 0.0233,-0.02815c0.0368,-0.02754 0.08199,-0.02167 0.11697,-0.054c0.03145,-0.02908 0.01613,-0.09675 0.05387,-0.13258c0.04106,-0.03899 0.12649,-0.02045 0.17572,-0.04691c0.04291,-0.02157 0.02777,-0.03988 0.04797,-0.07184c0.04584,-0.07251 0.12715,-0.1812 0.21269,-0.20516c0.05796,-0.01624 0.10886,-0.04108 0.14557,0.0297c0.05102,0.10478 0.0204,0.21374 0.04413,0.32332c0.00387,0.01789 0.07932,0.08281 0.09211,0.05084c0.00663,-0.01658 -0.00203,-0.03582 -0.00191,-0.05375c0.01283,-0.03526 0.01168,-0.07245 0.02166,-0.10752c0.00943,-0.03315 0.03755,-0.02713 0.04299,-0.05515c0.01243,-0.064 0.01531,-0.12284 0.03195,-0.18694c0.0085,-0.03273 -0.01284,-0.07991 0.00162,-0.11098c0.00677,-0.01453 0.03816,-0.04708 0.0481,-0.06445c0.01436,-0.00081 0.06952,-0.00342 0.08068,-0.00975c0.01859,-0.01056 0.01204,-0.04207 0.02154,-0.06158c0.0215,-0.04415 0.05227,-0.12329 0.09128,-0.14944c0.06164,-0.04132 0.18226,0.00218 0.18311,0.07506c-0.00107,0.01687 -0.01553,0.02982 -0.02364,0.04453c-0.02498,0.04536 0.00815,0.11231 -0.0343,0.15721c-0.02606,0.02756 -0.0736,0.07106 -0.08219,0.1144c-0.01191,0.06011 -0.01037,0.12143 -0.01037,0.18427c0,0.06114 0.00324,0.15178 0.04955,0.19933c0.06232,0.064 0.17799,0.08087 0.25428,0.11867c0.03969,0.02039 0.15524,0.01415 0.17779,0.04958c0.0057,0.00895 -0.00241,0.02204 0.00125,0.03206c0.01728,0.0473 0.0946,0.19569 0.02634,0.24208c-0.02052,0.01395 -0.05838,0.03004 -0.08713,0.0448c-0.07202,0.03698 -0.04074,0.10241 -0.02471,0.17111c0.02055,0.0881 0.08636,0.17856 0.08639,0.2867c0,0.10847 -0.13122,0.12331 -0.21386,0.08327c-0.07781,-0.0377 -0.08294,-0.14148 -0.13283,-0.19033c-0.00865,-0.00847 -0.02459,-0.00928 -0.02993,-0.02024c-0.03634,0.0038 -0.15981,-0.05582 -0.1824,0.00325c-0.03776,0.0987 0.04346,0.0603 0.08387,0.12c0.01191,0.01761 0.02162,0.06635 0.03287,0.08946c0.01878,0.03996 0.01226,0.08411 0.01226,0.128c0,0.13705 -0.03322,0.32457 -0.17415,0.37531c-0.05632,0.05128 -0.15023,0.12843 -0.22948,0.11388c-0.11605,-0.02131 -0.12077,-0.18562 -0.06417,-0.26416c0.02326,-0.07206 0.04562,-0.13593 0.06327,-0.20632c0.00974,-0.03884 0.03949,-0.0681 0.00382,-0.10764c-0.0278,-0.03081 -0.1308,-0.01704 -0.1694,-0.01996c-0.01614,-0.02926 -0.03687,-0.03013 -0.04891,-0.06261c-0.01961,-0.05288 -0.01008,-0.12624 -0.05044,-0.17131c-0.0604,-0.06744 -0.17207,0.08908 -0.19212,0.12877c-0.02987,0.05758 -0.06767,0.1151 -0.02227,0.18391c0.01608,0.02437 0.05239,0.0319 0.0734,0.05286c0.04425,0.04413 0.0764,0.12825 0.04568,0.1936c-0.01945,0.03752 -0.10148,0.08138 -0.14499,0.06159c-0.04389,-0.01996 -0.07267,-0.08107 -0.10371,-0.11295c-0.04565,-0.04687 -0.11497,-0.08045 -0.14037,-0.15244c-0.05819,-0.06697 -0.12864,-0.13388 -0.21829,-0.15273c-0.01527,-0.00321 -0.03117,-0.00628 -0.04737,-0.00946c-0.00091,0.00301 -0.00304,0.00604 -0.00743,0.0083c-0.01281,0.00658 -0.01923,-0.00658 -0.01923,-0.00658c-0.00123,-0.00252 -0.00242,-0.00512 -0.00356,-0.00778c-0.00226,-0.00047 -0.00452,-0.00095 -0.00679,-0.00143c0.00465,-0.03547 0.00122,-0.07005 -0.01308,-0.10127c-0.00006,-0.06181 0.0204,-0.12413 0.07171,-0.15147c0.02247,-0.01197 0.06135,0.01051 0.08068,0.00128c0.01187,-0.00566 -0.00171,-0.02685 -0.00147,-0.04028c0.00037,-0.02142 0.01172,-0.04288 0.02609,-0.05841c0.08701,-0.04775 0.18651,-0.02993 0.27284,-0.06918l0.01311,-0.00095c0.00007,-0.00127 0.00009,-0.00268 0.00008,-0.0042c-0.01113,-0.00201 -0.01113,-0.01444 -0.01113,-0.01444z" fill="#000000" stroke="none" stroke-width="0.5"/><path d="M247.69252,184.22544c0,-0.01471 0.01432,-0.01471 0.01432,-0.01471h0.00359c0.08638,0 0.09142,-0.04649 0.12335,-0.11329c0.01445,-0.03024 0.01955,-0.07478 0.03288,-0.1005c0.00947,-0.01826 0.03261,-0.03231 0.04198,-0.05765c0.01693,-0.04581 0.02599,-0.09704 0.06766,-0.12203c0.01306,-0.03115 0.02654,-0.06434 0.04079,-0.08511c0.02866,-0.04175 0.12224,-0.06269 0.16216,-0.02488c0.06241,0.05913 0.10379,0.16526 0.14356,0.24988c0.00129,0.09828 0.03616,0.16434 0.07413,0.23964c0.01103,0.02189 0.02997,0.06972 0.04846,0.08237c0.03911,0.02675 0.11029,0.01988 0.15731,0.01988c0.00683,0 0.05533,-0.00129 0.06029,0.00431c0.00533,0.00602 0.0042,0.05626 0.0042,0.0656c0,0.03795 0.01604,0.12944 -0.00214,0.16227c-0.01388,0.02507 -0.06464,0.02893 -0.08744,0.02905c-0.07643,0.00041 -0.14864,-0.00902 -0.22253,-0.01323c-0.0397,-0.07117 -0.10049,-0.0858 -0.11414,-0.17965c-0.01174,-0.0807 0.03946,-0.26446 -0.01895,-0.321c-0.01689,-0.04607 -0.07908,0.00297 -0.09909,0.01495c-0.01375,0.00823 -0.0083,0.03433 -0.02117,0.04394c-0.08436,0.06296 -0.12754,0.14481 -0.178,0.24861c-0.01329,0.0291 -0.0429,0.15086 -0.07259,0.16147c-0.05026,0.01799 -0.05883,-0.05549 -0.07047,-0.07245c-0.03712,-0.05406 -0.06664,-0.11749 -0.06664,-0.19539c0,0 0,-0.00372 0.00182,-0.00742c-0.00178,0.00003 -0.00357,0.00006 -0.0054,0.00006h-0.00359c0,0 -0.01432,0 -0.01432,-0.01471z" fill="#000000" stroke="none" stroke-width="0.5"/><path d="M248.01553,185.29795c-0.00194,0.00116 -0.00444,0.0019 -0.00767,0.0019c-0.01433,0 -0.01433,-0.01471 -0.01433,-0.01471v-0.00368c0.00117,-0.02044 0.0121,-0.04318 0.02928,-0.05356c0.09907,-0.05274 0.19225,-0.10104 0.28927,-0.16501c0.01566,-0.01032 0.04521,-0.00282 0.0619,-0.01996c0.0316,-0.03244 0.00514,-0.05526 0.04985,-0.08119c0.05326,-0.00073 0.16712,0.0072 0.20693,0.04807c0.01813,0.01862 0.01494,0.08526 0.01494,0.10975c0,0.08095 0,0.1619 0,0.24285c-0.0045,0.05744 -0.07783,0.05796 -0.12512,0.04744c-0.06538,-0.01456 -0.06922,-0.08599 -0.12044,-0.11111c-0.0776,-0.03806 -0.12518,0.06935 -0.16464,0.09638c0.0021,0.04137 -0.03491,0.15775 -0.09542,0.12332c-0.06008,-0.0342 -0.11855,-0.14201 -0.12455,-0.22049z" fill="#000000" stroke="none" stroke-width="0.5"/><path d="M248.39568,182.45561l0.00675,-0.00932c0.03952,0.00065 0.0434,-0.0354 0.08588,-0.0455c0.08388,-0.01993 0.14578,0.05301 0.17849,0.12133c0.0003,0.0226 -0.01122,0.08699 -0.00176,0.10603c0.00675,0.01359 0.0601,0.03796 0.07319,0.05253c0.05442,0.06056 0.01123,0.20645 -0.08217,0.14434c-0.0311,-0.02068 -0.03958,-0.07158 -0.07375,-0.08748c-0.01772,-0.00805 -0.06363,-0.02244 -0.08059,-0.00294c-0.01644,0.01889 -0.03573,0.05723 -0.07142,0.03523c-0.02291,-0.01413 -0.02417,-0.05601 -0.02872,-0.0778c-0.01452,-0.06958 -0.02034,-0.13539 -0.02101,-0.20728c-0.00036,-0.00181 -0.0003,-0.00357 -0.00004,-0.00514c-0.00002,-0.00308 -0.00002,-0.00619 -0.00002,-0.0093c0,0 0,-0.01471 0.01433,-0.01471c0.00028,0 0.00055,0.00001 0.00082,0.00002z" fill="#000000" stroke="none" stroke-width="0.5"/><path d="M248.81984,182.08141c0.00786,-0.0068 0.01623,-0.0133 0.02714,-0.0189c0.02351,-0.0532 0.0808,-0.11345 0.14667,-0.07939c0.01675,0.00867 0.03193,0.04095 0.06442,0.03132c0.06813,-0.02021 0.12721,-0.10754 0.15788,-0.16751c0.03555,-0.0547 0.14948,-0.11111 0.21142,-0.04469c0.02102,0.02254 0.01381,0.06649 0.01381,0.09405c0,0.08016 0.01177,0.17153 -0.0109,0.24867c0.00044,0.0788 -0.01517,0.14329 -0.03249,0.21833c-0.00409,0.01772 0.00873,0.04382 -0.00198,0.05991c-0.02143,0.03218 -0.08047,0.0219 -0.10034,-0.00443c-0.03461,-0.04585 -0.01196,-0.17207 -0.01196,-0.22813c0,-0.04576 0.01497,-0.12056 0.0042,-0.16252c-0.00306,-0.01191 -0.01369,0.02024 -0.0206,0.03032c-0.00711,0.01036 -0.04563,0.04738 -0.05589,0.058c-0.04907,0.05078 -0.11817,0.09896 -0.15033,0.16517c-0.01038,0.01064 -0.04886,0.05227 -0.06089,0.05817c-0.06626,0.03252 -0.19653,-0.00741 -0.22101,-0.08193c-0.01065,-0.03241 -0.00376,-0.06902 0.00535,-0.10415c-0.00078,0.0001 -0.00161,0.00017 -0.0025,0.00017c-0.01433,0 -0.01433,-0.01471 -0.01433,-0.01471l0.00793,-0.0242c0.00903,-0.00464 0.01637,-0.0097 0.02295,-0.01493c0.0006,-0.00267 0.00115,-0.00531 0.00166,-0.00791c0,0 0.0028,-0.01443 0.01686,-0.01154c0.00107,0.00022 0.00204,0.0005 0.00293,0.00085z" fill="#000000" stroke="none" stroke-width="0.5"/><path d="M250.06282,181.64955c0.01164,-0.0493 0.04341,-0.06748 0.10352,-0.08789c0.03161,-0.00022 0.11128,-0.01393 0.13883,0.00201c0.01879,0.01087 0.04257,0.08029 0.05047,0.10056c0.02907,0.07464 0.11413,0.278 0.028,0.32405c-0.05464,-0.02651 -0.08131,-0.08748 -0.1098,-0.12848c-0.01023,-0.01474 -0.03546,-0.00787 -0.04969,-0.01855c-0.04389,-0.03296 -0.10234,-0.07455 -0.14259,-0.1213c-0.00212,0.00197 -0.00519,0.00341 -0.00966,0.00341c-0.01433,0 -0.01433,-0.01471 -0.01433,-0.01471v-0.00369c0,-0.00583 0.00012,-0.01138 0.00036,-0.01667c-0.00356,-0.00568 -0.00678,-0.01142 -0.0096,-0.01721c0,0 -0.0064,-0.01316 0.00641,-0.01974c0.00306,-0.00158 0.00576,-0.00202 0.0081,-0.00178z" fill="#000000" stroke="none" stroke-width="0.5"/><path d="M251.28864,181.72705h0.00875c0.03078,0 0.08838,-0.00247 0.1149,0.01315c0.01801,0.0106 0.03117,0.0535 0.04584,0.06854c0.08839,0.09067 0.19155,0.12682 0.25001,0.24695c0.0204,0.05016 0.03571,0.19946 -0.04854,0.18609c-0.0644,-0.01022 -0.08476,-0.09968 -0.14502,-0.12194c-0.05355,-0.01978 -0.11911,-0.03141 -0.17382,-0.05706c-0.0598,-0.0205 -0.13626,-0.07311 -0.16591,-0.13367c-0.04705,-0.09609 -0.01215,-0.22414 0.10103,-0.22414c0,0 0.01433,0 0.01433,0.01471c0,0.00304 -0.00061,0.00545 -0.00158,0.00736z" fill="#000000" stroke="none" stroke-width="0.5"/><path d="M252.447,182.51383c0.07833,0.03942 0.11482,0.07585 0.0786,0.175c-0.00677,0.01853 -0.01487,0.03995 -0.03165,0.04968c-0.02521,-0.00263 -0.02509,0.01838 -0.05063,0.03196c-0.02736,0.01454 -0.0607,0.0309 -0.08227,0.05244c-0.0594,0.05929 0.01217,0.14867 0.02531,0.20699c0.00962,0.04271 0.00417,0.10883 -0.01457,0.14624c-0.07608,0.04015 -0.12627,-0.00832 -0.14242,-0.0884c-0.00266,-0.01317 0.00571,-0.03254 -0.00684,-0.04406c-0.08957,-0.08219 -0.12359,-0.15866 -0.12206,-0.28975c0.00994,-0.02115 0.01413,-0.06574 0.02326,-0.08163c0.02259,-0.03931 0.09359,-0.05063 0.12291,-0.07101c0.03555,-0.02472 0.08552,-0.05599 0.13326,-0.08326c-0.00021,-0.00114 -0.00033,-0.00239 -0.0003,-0.00376c0.00018,-0.01471 0.01451,-0.01452 0.01451,-0.01452l0.01773,0.00046c0.00636,-0.00345 0.0126,-0.00678 0.01868,-0.00995c0,0 0.01282,-0.00659 0.01923,0.00657c0.00402,0.00825 0.00048,0.01392 -0.00272,0.01699z" fill="#000000" stroke="none" stroke-width="0.5"/><path d="M252.9507,183.90176c0.0118,-0.00242 0.01581,0.00994 0.01581,0.00994c0.03856,0.12319 0.09692,0.3622 0.00072,0.46196c-0.00463,0.08748 -0.08636,0.14245 -0.17198,0.14245c-0.01568,0 -0.08209,0.00731 -0.09103,-0.00698c-0.00517,-0.00825 0.01604,-0.04863 0.02088,-0.05848c0.02647,-0.05385 0.04022,-0.08141 0.04128,-0.14657c0.00077,-0.1304 0.0065,-0.22608 -0.08688,-0.32469c-0.04651,-0.04911 -0.13729,-0.0714 -0.16821,-0.13171c-0.08811,-0.08921 -0.23732,-0.24341 -0.05995,-0.32985c0.04675,-0.02278 0.11481,0.00869 0.16087,0.00888c0.10324,0.05116 0.19826,0.02919 0.30775,0.0551c0.04824,0.01141 0.06733,0.09591 0.04559,0.13909c-0.01859,0.03692 -0.07619,0.03094 -0.1065,0.04427c-0.03813,-0.00222 -0.06575,0.06418 -0.03545,0.09691c0.0341,0.03684 0.09706,0.01609 0.12711,0.03965z" fill="#000000" stroke="none" stroke-width="0.5"/><path d="M252.18074,186.14261c0.00269,0.00045 0.00458,0.00141 0.00458,0.00141l0.02728,0.01647c0.0049,0.09255 -0.08451,0.14964 -0.15666,0.18666c-0.07064,0.03028 -0.15607,0.00784 -0.20966,-0.04709c-0.0191,-0.01958 -0.01765,-0.04705 -0.04125,-0.0647c-0.04911,-0.03675 -0.1277,-0.03876 -0.18145,-0.06599c-0.01311,-0.00664 -0.02492,-0.02037 -0.03951,-0.01953c-0.04873,-0.0006 -0.13521,0.00217 -0.1826,-0.01147c-0.05819,-0.01675 -0.10013,-0.08498 -0.13569,-0.1253c-0.01647,-0.01868 -0.05337,-0.00485 -0.07451,-0.02137c-0.02421,-0.01892 -0.0534,-0.03388 -0.07723,-0.05717c-0.06133,-0.06713 0.01971,-0.1206 0.07105,-0.15663c0.07621,-0.05349 0.17318,-0.02522 0.25994,-0.04354c0.03625,-0.00765 0.06913,-0.02211 0.10709,-0.02199c0.05664,-0.02752 0.01963,-0.1234 0.05749,-0.17229c0.02557,-0.03301 0.04198,-0.02679 0.07839,-0.02679c0.1176,0 0.17468,0.04676 0.20414,0.16746c0.00028,0.07285 -0.03086,0.15237 -0.09269,0.19094c-0.02799,0.01745 -0.12247,-0.0125 -0.12224,0.05267c0.00015,0.04122 0.11856,0.00841 0.1398,0.00841c0.02938,0 0.08428,-0.01048 0.11098,0.00254c0.08694,0.04237 0.19975,0.12369 0.25276,0.20732z" fill="#000000" stroke="none" stroke-width="0.5"/><path d="M249.74623,186.7879v0.00268c0,0.02543 0.00048,0.0453 -0.00469,0.06806c0.00042,0.00144 0.00066,0.00311 0.00066,0.00502c0,0.00652 -0.0028,0.01014 -0.00593,0.01216c-0.00222,0.00382 -0.00729,0.00955 -0.01672,0.00632c-0.00325,-0.00111 -0.00547,-0.00276 -0.00695,-0.00462l-0.01263,-0.0007c-0.03464,-0.01862 -0.07661,-0.05628 -0.11514,-0.06507c-0.10491,-0.02395 -0.23335,-0.03903 -0.29956,-0.13977c-0.07454,-0.18234 0.14877,-0.33447 0.14877,-0.50375c0,-0.01737 -0.00811,-0.07174 0.00237,-0.08537c0.03193,-0.04153 0.10614,-0.01365 0.12215,0.02876c0.01216,0.03219 -0.0034,0.07477 -0.01024,0.10414c-0.01823,0.07819 0.00038,0.18435 0.00038,0.26524c0,0.07663 0.09535,0.13037 0.1463,0.1846c0.01182,0.01259 0.03625,0.00978 0.04506,0.02475c0.01019,0.0173 0.00807,0.05768 0.00532,0.09262c0.00084,0.00272 0.00084,0.00494 0.00084,0.00494z" fill="#000000" stroke="none" stroke-width="0.5"/></g><path d="M240.80948,163.83095l-0.86658,1.86209l2.567,1.73391c0,0 -1.87566,1.61733 -1.90252,2.41629c-0.04244,1.26256 -0.11079,3.29608 -0.11079,3.29608l-2.13429,2.17517l1.8886,2.87539l-0.50248,4.92592l-1.03946,1.296l0.14498,1.00831l-0.95054,-0.93395l1.1163,-1.3998l-1.35011,-5.13115l-1.31033,-2.40488l1.8689,-2.25456l-0.16918,-5.16421l-3.01448,-1.77539l1.13559,-1.53689l-0.68968,-1.3012z" fill="#000000" fill-rule="nonzero" stroke="#000000" stroke-width="0.5" stroke-linecap="round" stroke-linejoin="miter"/></g></g></svg>