<svg version="1.1" xmlns="http://www.w3.org/2000/svg" xmlns:xlink="http://www.w3.org/1999/xlink" width="34.67311" height="34.67311" viewBox="0,0,34.67311,34.67311"><g transform="translate(-222.66348,-162.66348)"><g data-paper-data="{&quot;isPaintingLayer&quot;:true}" stroke-miterlimit="10" stroke-dasharray="" stroke-dashoffset="0" style="mix-blend-mode: normal"><path d="M229.98315,162.91349h20.03378c3.9166,0 7.06966,3.15307 7.06966,7.06966v20.03379c0,3.91659 -3.15306,7.06966 -7.06966,7.06966h-20.03378c-3.91659,0 -7.06967,-3.15307 -7.06967,-7.06966v-20.03379c0,-3.91659 3.15308,-7.06966 7.06967,-7.06966z" fill="#000000" fill-rule="evenodd" stroke="#808080" stroke-width="0.5" stroke-linecap="round" stroke-linejoin="round"/><g fill="#ffffff" fill-rule="nonzero" stroke="none" stroke-width="0" stroke-linecap="butt" stroke-linejoin="miter"><path d="M250.83108,179.09758c0,0 -4.97966,1.63603 -11.30983,0.07003c-6.16125,-1.52422 -10.35228,-5.24971 -10.35228,-5.24971c0,0 2.6644,0.28589 11.10018,2.38755c6.86049,1.70921 10.56193,2.79214 10.56193,2.79214z"/><path d="M246.62425,184.50973c0,0 -2.36069,2.64243 -8.69086,1.07642c-6.49908,-1.60779 -7.18656,-5.0043 -7.18656,-5.0043c0,0 2.82891,1.77531 7.72553,2.98668c5.16589,1.27798 8.15189,0.9412 8.15189,0.9412z"/></g></g></g></svg>