<svg version="1.1" xmlns="http://www.w3.org/2000/svg" xmlns:xlink="http://www.w3.org/1999/xlink" width="130.47404" height="267.22501" viewBox="0,0,130.47404,267.22501"><defs><linearGradient x1="234.76278" y1="270.74541" x2="245.23722" y2="230.93359" gradientUnits="userSpaceOnUse" id="color-1"><stop offset="0" stop-color="#2b2d33"/><stop offset="1" stop-color="#aeb0b9"/></linearGradient><radialGradient cx="239.57529" cy="250.08362" r="1.87123" gradientUnits="userSpaceOnUse" id="color-2"><stop offset="0" stop-color="#ffffff"/><stop offset="1" stop-color="#969696"/></radialGradient><radialGradient cx="253.54002" cy="228.3849" r="1.87123" gradientUnits="userSpaceOnUse" id="color-3"><stop offset="0" stop-color="#56585a"/><stop offset="1" stop-color="#4f5052"/></radialGradient><radialGradient cx="253.54002" cy="228.3849" r="1.87123" gradientUnits="userSpaceOnUse" id="color-4"><stop offset="0" stop-color="#acaeb4"/><stop offset="1" stop-color="#696a6e"/></radialGradient><radialGradient cx="254.37946" cy="257.46146" r="4.91667" gradientUnits="userSpaceOnUse" id="color-5"><stop offset="0" stop-color="#acaeb4"/><stop offset="1" stop-color="#696a6e"/></radialGradient></defs><g transform="translate(-172.2148,-46.38752)"><g data-paper-data="{&quot;isPaintingLayer&quot;:true}" fill-rule="nonzero" stroke-linejoin="miter" stroke-miterlimit="10" stroke-dasharray="" stroke-dashoffset="0" style="mix-blend-mode: normal"><path d="M178.40899,313.61253v-267.22501h123.18203v267.22501z" fill-opacity="0.01" fill="#000000" stroke="none" stroke-width="0" stroke-linecap="butt"/><path d="M227.61849,198.82394v-7.66667h19.66667v7.66667z" fill="#8f95cd" stroke="#000000" stroke-width="1.5" stroke-linecap="butt"/><g stroke="#000000" stroke-linecap="butt"><path d="M173.2148,169.579c0,-14.03446 28.7599,-25.41163 64.23702,-25.41163c35.47712,0 64.23702,11.37718 64.23702,25.41163c0,14.03446 -28.7599,25.41163 -64.23702,25.41163c-35.47712,0 -64.23702,-11.37718 -64.23702,-25.41163z" fill="#ff7e52" stroke-width="2"/><path d="M173.93787,169.60166c0,-0.3068 5.20666,23.56621 63.36046,23.99392c55.56352,0.40866 63.51358,-24.42329 63.51358,-23.99392c0,13.82498 -28.40173,25.03234 -63.43702,25.03234c-35.03529,0 -63.43702,-11.20736 -63.43702,-25.03234z" fill="#bd5b3a" stroke-width="0"/><path d="M237.56517,144.28339c0,-14.03446 11.68289,-25.41163 26.09447,-25.41163c14.41158,0 26.09447,11.37717 26.09447,25.41163c0,14.03446 -11.68289,25.41163 -26.09447,25.41163c-14.41158,0 -26.09447,-11.37717 -26.09447,-25.41163z" fill="#9c8686" stroke-width="1.5"/><path d="M183.55398,144.25277c0,-14.03446 11.68289,-25.41163 26.09447,-25.41163c14.41158,0 26.09447,11.37717 26.09447,25.41163c0,14.03446 -11.68289,25.41163 -26.09447,25.41163c-14.41158,0 -26.09447,-11.37717 -26.09447,-25.41163z" fill="#9c8686" stroke-width="1.5"/></g><path d="M205.8753,307.50005l14.14285,-102.8421l39.28325,-0.15789l13.07389,103z" fill="#ff7e52" stroke="#000000" stroke-width="2" stroke-linecap="butt"/><path d="M250.85395,208.09084c0.34203,19.95645 -23.38153,17.88935 -23.46096,0.13765z" fill="#8b8b8b" stroke="#000000" stroke-width="0" stroke-linecap="butt"/><path d="M260.5064,207.00042c0,3.31371 -9.21547,6 -20.58334,6c-11.36786,0 -20.58333,-2.68629 -20.58333,-6c0,-3.31371 9.21547,-6 20.58333,-6c11.36786,0 20.58334,2.68629 20.58334,6z" fill="#751d00" stroke="#000000" stroke-width="1.5" stroke-linecap="butt"/><path d="M197.94763,111.09662c0,0 6.70895,-5.16922 11.79721,-6.36355c5.08827,-1.19433 12.33413,0.69937 12.33413,0.69937c0,0 -8.03812,-0.06028 -11.96762,0.86207c-4.10648,0.96389 -12.16372,4.80211 -12.16372,4.80211z" fill="#ffde00" stroke="#000000" stroke-width="0.5" stroke-linecap="butt"/><path d="M262.86803,106.2945c-3.9295,-0.92235 -11.96762,-0.86207 -11.96762,-0.86207c0,0 7.24586,-1.8937 12.33413,-0.69937c5.08826,1.19433 11.79721,6.36355 11.79721,6.36355c0,0 -8.05724,-3.83822 -12.16372,-4.80211z" data-paper-data="{&quot;index&quot;:null}" fill="#ffde00" stroke="#000000" stroke-width="0.5" stroke-linecap="butt"/><path d="M230.46507,208.33368v-7.66667h19.66667v7.66667z" fill="#8f95cd" stroke="#000000" stroke-width="1.5" stroke-linecap="butt"/><g stroke-linecap="butt"><path d="M234.76278,270.74541c-10.99373,-2.89244 -17.56112,-14.1494 -14.66868,-25.14313c2.89244,-10.99373 14.1494,-17.56112 25.14312,-14.66868c10.99373,2.89244 17.56113,14.1494 14.66869,25.14313c-2.89244,10.99373 -14.1494,17.56113 -25.14314,14.66869z" fill="url(#color-1)" stroke="#b43307" stroke-width="1"/><path d="M237.49801,260.3492c-5.25206,-1.38181 -8.38952,-6.75963 -7.00771,-12.01169c1.38181,-5.25206 6.75963,-8.38953 12.0117,-7.00772c5.25206,1.38181 8.38953,6.75963 7.00772,12.01171c-1.38181,5.25206 -6.75963,8.38952 -12.0117,7.00771z" fill="#f65c52" stroke="#000000" stroke-width="1"/><path d="M239.52389,252.64914c-0.99944,-0.26295 -1.59648,-1.28632 -1.33353,-2.28576c0.26295,-0.99944 1.28632,-1.59648 2.28576,-1.33353c0.99944,0.26295 1.59648,1.28632 1.33353,2.28576c-0.26295,0.99944 -1.28632,1.59648 -2.28576,1.33353z" fill="url(#color-2)" stroke="#000000" stroke-width="0"/><path d="M237.99254,258.46958c-4.21397,-1.10869 -6.7313,-5.42357 -5.62261,-9.63754c1.10869,-4.21397 5.42357,-6.7313 9.63754,-5.62261c4.21397,1.10869 6.7313,5.42357 5.62261,9.63754c-1.10869,4.21397 -5.42357,6.7313 -9.63754,5.62261z" fill="none" stroke="#c44b40" stroke-width="1"/><text transform="translate(236.04258,254.95654) rotate(-75.2596) scale(0.06663,0.06663)" font-size="40" xml:space="preserve" fill="#fbff00" fill-rule="nonzero" stroke="none" stroke-width="1" stroke-linecap="butt" stroke-linejoin="miter" stroke-miterlimit="10" stroke-dasharray="" stroke-dashoffset="0" font-family="Sans Serif" font-weight="normal" text-anchor="start" style="mix-blend-mode: normal"><tspan x="0" dy="0">Sprunki</tspan></text></g><path d="M254.37946,230.21174l4.66667,12.16667l-3.83333,12.5" fill="none" stroke="#a9abb2" stroke-width="1.5" stroke-linecap="round"/><path d="M251.66879,228.3849c0,-1.03345 0.83778,-1.87123 1.87123,-1.87123c1.03345,0 1.87123,0.83778 1.87123,1.87123c0,1.03345 -0.83778,1.87123 -1.87123,1.87123c-1.03345,0 -1.87123,-0.83778 -1.87123,-1.87123z" fill="url(#color-3)" stroke="url(#color-4)" stroke-width="0.5" stroke-linecap="butt"/><path d="M251.15378,261.60024l2.95406,-9.37913l3.4973,1.10151l-2.95406,9.37913z" fill="#ffc772" stroke="url(#color-5)" stroke-width="0" stroke-linecap="butt"/><g stroke-linecap="butt"><path d="M185.96724,139.90508c0,-12.968 10.51265,-23.48065 23.48065,-23.48065c12.968,0 23.48065,10.51265 23.48065,23.48065c0,12.968 -10.51265,23.48065 -23.48065,23.48065c-12.968,0 -23.48065,-10.51265 -23.48065,-23.48065z" fill="#ffffff" stroke="#000000" stroke-width="2"/><path d="M193.03263,139.62938c0,-9.12808 7.39976,-16.52784 16.52783,-16.52784c9.12808,0 16.52784,7.39977 16.52784,16.52784c0,9.12808 -7.39977,16.52784 -16.52784,16.52784c-9.12808,0 -16.52783,-7.39977 -16.52783,-16.52784z" fill="#000000" stroke="none" stroke-width="0"/><path d="M263.70633,163.38564c-12.968,0 -23.48065,-10.51265 -23.48065,-23.48065c0,-12.968 10.51265,-23.48065 23.48065,-23.48065c12.968,0 23.48065,10.51265 23.48065,23.48065c0,12.968 -10.51265,23.48065 -23.48065,23.48065z" data-paper-data="{&quot;index&quot;:null}" fill="#ffffff" stroke="#000000" stroke-width="2"/><path d="M263.59374,156.15722c-9.12807,0 -16.52783,-7.39977 -16.52783,-16.52784c0,-9.12808 7.39977,-16.52784 16.52783,-16.52784c9.12807,0 16.52783,7.39977 16.52783,16.52784c0,9.12808 -7.39977,16.52784 -16.52783,16.52784z" data-paper-data="{&quot;index&quot;:null}" fill="#000000" stroke="none" stroke-width="0"/></g><g fill="#6e9be9" stroke="#000000" stroke-width="2" stroke-linecap="butt"><path d="M185.96724,139.90507c0,-12.968 10.51265,-23.48065 23.48065,-23.48065c12.968,0 23.48065,10.51265 23.48065,23.48065c0,0 -46.96131,1.23155 -46.96131,0z"/><path d="M240.2257,139.90507c0,-12.968 10.51265,-23.48065 23.48065,-23.48065c12.968,0 23.48065,10.51265 23.48065,23.48065c0,1.2138 -46.96131,0 -46.96131,0z" data-paper-data="{&quot;index&quot;:null}"/></g><g><path d="M236.73631,186.15156c-19.05035,0 -24.77262,-12 -24.77262,-12c0,0 16.33092,0.53644 24.57701,0.53644c8.16201,0 24.64983,-0.53644 24.64983,-0.53644c0,0 -5.40388,12 -24.45423,12z" fill="#ffffff" stroke="#000000" stroke-width="2" stroke-linecap="round"/><path d="M219.20812,181.29473l-5.29554,-4.09361c0,0 12.59293,0.58155 22.94255,0.58155c10.21943,0 22.38648,-0.80425 22.38648,-0.80425l-5.95749,4.60968c0,0 -5.67699,0.5142 -15.96234,0.5142c-10.28535,0 -18.11366,-0.80757 -18.11366,-0.80757z" fill="#000000" stroke="none" stroke-width="0" stroke-linecap="butt"/></g></g></g></svg>