<svg version="1.1" xmlns="http://www.w3.org/2000/svg" xmlns:xlink="http://www.w3.org/1999/xlink" width="130.38083" height="267.22501" viewBox="0,0,130.38083,267.22501"><defs><linearGradient x1="240.00003" y1="175.50001" x2="240.00003" y2="307.50001" gradientUnits="userSpaceOnUse" id="color-1"><stop offset="0" stop-color="#1a110e"/><stop offset="1" stop-color="#5d3d27"/></linearGradient><radialGradient cx="269.32203" cy="139.97184" r="17.5665" gradientUnits="userSpaceOnUse" id="color-2"><stop offset="0" stop-color="#808080"/><stop offset="1" stop-color="#404040"/></radialGradient><radialGradient cx="214.49223" cy="139.67385" r="17.5665" gradientUnits="userSpaceOnUse" id="color-3"><stop offset="0" stop-color="#808080"/><stop offset="1" stop-color="#404040"/></radialGradient><linearGradient x1="205.58098" y1="76.38374" x2="205.58098" y2="196.9804" gradientUnits="userSpaceOnUse" id="color-4"><stop offset="0" stop-color="#19110c"/><stop offset="1" stop-color="#714a2f"/></linearGradient><radialGradient cx="232.85484" cy="145.48235" r="4.91151" gradientUnits="userSpaceOnUse" id="color-5"><stop offset="0" stop-color="#ffe902"/><stop offset="1" stop-color="#6a6101"/></radialGradient></defs><g transform="translate(-174.61028,-46.38751)"><g data-paper-data="{&quot;isPaintingLayer&quot;:true}" fill-rule="nonzero" stroke-linejoin="miter" stroke-miterlimit="10" stroke-dasharray="" stroke-dashoffset="0" style="mix-blend-mode: normal"><path d="M179.28373,313.61252v-267.22501h123.18203v267.22501z" fill-opacity="0.01" fill="#000000" stroke="none" stroke-width="0" stroke-linecap="butt"/><path d="M206.75004,307.5l15.14285,-131.8421l37.78325,-0.15789l13.57389,132z" fill="url(#color-1)" stroke="#000000" stroke-width="0" stroke-linecap="butt"/><path d="M175.75385,136.68207c0,-33.30185 28.93074,-60.29833 64.61863,-60.29833c35.68788,0 64.61863,26.99648 64.61863,60.29833c0,33.30185 -28.93074,60.29833 -64.61863,60.29833c-35.68788,0 -64.61863,-26.99648 -64.61863,-60.29833z" fill="#000000" stroke="none" stroke-width="NaN" stroke-linecap="butt"/><g stroke-width="0" stroke-linecap="butt"><g><path d="M251.75554,139.97184c0,0 7.86478,-10.97906 17.56649,-10.97906c9.70171,0 17.5665,10.97906 17.5665,10.97906c0,0 -7.86479,10.97906 -17.5665,10.97906c-9.70171,0 -17.56649,-10.97906 -17.56649,-10.97906z" fill="url(#color-2)" stroke="#000000"/><g stroke="none"><path d="M260.1186,140.10528c0,-5.06645 4.10717,-9.17361 9.17361,-9.17361c5.06645,0 9.17361,4.10716 9.17361,9.17361c0,5.06645 -4.10717,9.17362 -9.17361,9.17362c-5.06645,0 -9.17361,-4.10717 -9.17361,-9.17362z" fill="#000000"/><path d="M264.98774,136.66868c0,0.76446 -0.17514,1.38417 -0.39118,1.38417c-0.21604,0 -0.39118,-0.61971 -0.39118,-1.38417c0,-0.76446 0.17514,-1.38417 0.39118,-1.38417c0.21604,0 0.39118,0.61971 0.39118,1.38417z" fill="#808080"/><path d="M267.83872,136.78579c0,1.04672 -0.2398,1.89526 -0.53562,1.89526c-0.29581,0 -0.53562,-0.84854 -0.53562,-1.89526c0,-1.04672 0.2398,-1.89525 0.53562,-1.89525c0.29581,0 0.53562,0.84853 0.53562,1.89525z" fill="#808080"/><path d="M274.40859,136.55158c0,0.76446 -0.17513,1.38417 -0.39117,1.38417c-0.21604,0 -0.39118,-0.61971 -0.39118,-1.38417c0,-0.76446 0.17514,-1.38418 0.39118,-1.38418c0.21604,0 0.39117,0.61972 0.39117,1.38418z" fill="#808080"/></g></g><g><path d="M196.92573,139.67385c0,0 7.86479,-10.97906 17.5665,-10.97906c9.70171,0 17.5665,10.97906 17.5665,10.97906c0,0 -7.86479,10.97906 -17.5665,10.97906c-9.70171,0 -17.5665,-10.97906 -17.5665,-10.97906z" fill="url(#color-3)" stroke="#000000"/><g stroke="none"><path d="M205.28879,139.80729c0,-5.06645 4.10716,-9.17361 9.17361,-9.17361c5.06645,0 9.17362,4.10716 9.17362,9.17361c0,5.06645 -4.10717,9.17362 -9.17362,9.17362c-5.06645,0 -9.17361,-4.10717 -9.17361,-9.17362z" fill="#000000"/><path d="M210.15794,136.37069c0,0.76446 -0.17514,1.38417 -0.39118,1.38417c-0.21604,0 -0.39118,-0.61971 -0.39118,-1.38417c0,-0.76446 0.17514,-1.38417 0.39118,-1.38417c0.21604,0 0.39118,0.61971 0.39118,1.38417z" fill="#808080"/><path d="M213.00892,136.4878c0,1.04672 -0.23981,1.89526 -0.53562,1.89526c-0.29581,0 -0.53562,-0.84854 -0.53562,-1.89526c0,-1.04672 0.23981,-1.89525 0.53562,-1.89525c0.29581,0 0.53562,0.84853 0.53562,1.89525z" fill="#808080"/><path d="M219.57879,136.25358c0,0.76446 -0.17514,1.38417 -0.39118,1.38417c-0.21604,0 -0.39118,-0.61971 -0.39118,-1.38417c0,-0.76446 0.17514,-1.38417 0.39118,-1.38417c0.21604,0 0.39118,0.61971 0.39118,1.38417z" fill="#808080"/></g></g></g><g><g><path d="M175.32155,136.68207c0,-33.30185 13.54761,-60.29833 30.25943,-60.29833c16.71182,0 30.25943,26.99649 30.25943,60.29833c0,33.30185 -13.54761,60.29833 -30.25943,60.29833c-16.71182,0 -30.25943,-26.99649 -30.25943,-60.29833z" fill="url(#color-4)" stroke="#000000" stroke-width="0" stroke-linecap="butt"/><path d="M188.18309,110.81647c0,0 2.26942,-1.20107 4.69813,-2.11173c3.30374,-1.23878 5.07332,-0.11664 5.07332,-0.11664l1.368,57.19493c0,0 -2.39163,1.48559 -3.71315,1.48559c-1.70606,0 -5.86287,-1.48559 -5.86287,-1.48559z" fill="none" stroke="#36251c" stroke-width="2.5" stroke-linecap="round"/><path d="M219.05559,107.53415c2.61299,0.46823 3.32758,1.42535 3.32758,1.42535l-0.39086,55.33794c0,0 -3.08827,0.7428 -4.49487,0.7428c-1.24434,0 -3.51772,-0.7428 -3.51772,-0.7428l1.368,-57.19492c0,0 1.957,0.11788 3.70787,0.43162z" fill="none" stroke="#36251c" stroke-width="2.5" stroke-linecap="round"/><path d="M178.68597,118.57433l0.25188,-2.49537" fill="none" stroke="#000000" stroke-width="1.5" stroke-linecap="round"/><path d="M178.93786,117.50489l1.34339,2.85185" fill="none" stroke="#000000" stroke-width="1.5" stroke-linecap="round"/><path d="M177.59447,123.92156l1.09151,-0.17825l0.6717,1.06945" fill="none" stroke="#000000" stroke-width="1.5" stroke-linecap="round"/><path d="M175.99919,132.47712l1.17547,-1.96065l-0.25188,2.67361l0.50377,0.17824v2.49537l0.92358,0.35648" fill="none" stroke="#000000" stroke-width="1.5" stroke-linecap="round"/><path d="M175.99919,138.89379l0.6717,-0.53472l0.75566,2.13889" fill="none" stroke="#000000" stroke-width="1.5" stroke-linecap="round"/><path d="M176.50296,147.80584l-0.16793,2.31713l-0.58773,0.35648" fill="none" stroke="#000000" stroke-width="1.5" stroke-linecap="round"/><path d="M176.50296,154.579l0.75566,-0.53473l0.50377,1.42593" fill="none" stroke="#000000" stroke-width="1.5" stroke-linecap="round"/><path d="M180.44918,164.91698l-0.58774,-1.06945l-1.7632,-0.53473l0.83962,-1.60416l0.33585,-1.78241l0.08396,-2.49537v-1.96065l1.25943,-2.67362" fill="none" stroke="#000000" stroke-width="1.5" stroke-linecap="round"/><path d="M179.27371,164.38224l-0.41981,1.78241" fill="none" stroke="#000000" stroke-width="1.5" stroke-linecap="round"/><path d="M227.93176,148.12105c0,-5.7584 2.19895,-10.42652 4.91151,-10.42652c2.71256,0 4.91151,4.66811 4.91151,10.42652c0,5.7584 -2.19895,10.42652 -4.91151,10.42652c-2.71256,0 -4.91151,-4.66811 -4.91151,-10.42652z" fill="url(#color-5)" stroke="#f6c002" stroke-width="0" stroke-linecap="butt"/><path d="M178.2313,158.08768c0,0 0.60046,3.07549 0.97154,4.40033c0.30559,1.09105 1.09683,2.98433 1.09683,2.98433l-1.50426,1.79627c0,0 -0.76932,-2.53986 -1.04178,-3.76467c-0.2597,-1.16746 -0.55651,-3.4204 -0.55651,-3.4204z" fill="#b4b3b4" stroke="#b6b4b2" stroke-width="0.5" stroke-linecap="round"/><path d="M176.06893,154.29556c0,0 -0.49782,-2.6996 -0.64103,-4.01709c-0.13869,-1.27578 -0.20511,-3.76675 -0.20511,-3.76675l1.6385,-0.5422c0,0 -0.04768,2.66703 0.05671,3.97255c0.10149,1.26922 0.56118,3.75473 0.56118,3.75473l-1.41025,0.59875z" fill="#b4b3b4" stroke="#b6b4b2" stroke-width="0.5" stroke-linecap="round"/><path d="M176.54482,129.54695c0,0 -0.20442,2.99796 -0.22096,4.43757c-0.01454,1.26557 0.12694,3.74544 0.12694,3.74544h-1.50427c0,0 -0.09345,-0.161 -0.08625,-4.40509c0.00485,-2.85922 0.18027,-3.57833 0.18027,-3.57833z" fill="#b4b3b4" stroke="#b6b4b2" stroke-width="0.5" stroke-linecap="round"/><path d="M203.10498,82.95107c0.52461,-0.48163 1.494,-2.51212 2.07609,-2.56044c0.7525,-0.72933 1.62258,-2.06343 2.24543,-2.87118c0.04796,-0.10183 0.09047,-0.21545 0.12901,-0.33465c0.0082,-0.19097 0.10227,-0.19097 0.10227,-0.19097c0.49252,0 1.6089,-0.10645 1.90483,0.92166c0.00767,0.01718 0.01313,0.03543 0.01689,0.05391l0.03359,0.05722c0,0 0.07272,0.15436 0,0.30873c-0.03518,0.07467 -0.07035,0.0771 -0.0973,0.0597c-0.42319,1.58845 -1.06083,1.96929 -1.81202,2.76663c-0.55311,0.56063 -2.31111,1.20988 -2.60282,2.39179c-0.84115,0.66675 -1.64225,2.44847 -2.40635,2.59662c-0.15934,-0.01028 -0.27484,0.18536 -0.3831,0.41924c0.28631,0.73297 1.63342,1.08185 2.03749,1.08185c0.8589,0.03642 2.23385,0.3223 3.00586,1.10658c1.01067,0.7126 2.28731,0.1897 3.23601,1.20028c0.64039,-0.01682 2.80615,0.4407 2.81752,2.15017c-0.01514,1.61001 -2.03004,2.1635 -2.59648,2.15318c-0.29786,0.21077 -0.73144,0.22897 -1.06203,0.24133c-0.01914,0.08264 -0.06289,0.1136 -0.06289,0.1136c-0.77931,0.54872 -1.62046,1.30838 -2.34787,2.06417c-0.67529,0 -1.38749,1.45438 -1.98095,2.04802c-0.16922,0.16927 -0.196,0.69016 -0.43561,0.58094c-0.04743,0.30205 -0.87678,1.73537 -0.44381,2.09066l0.04681,0.18341c0.71046,0.08628 1.46764,1.10854 2.13786,1.58044c1.0489,0.74563 1.89278,1.41428 3.01466,1.44791c0.19877,0.21098 0.47178,0.04917 0.58481,0.61334c0.22145,1.10529 -0.36852,1.08281 -0.3915,1.77903c-0.03318,1.00496 0.34145,1.9211 -0.37241,2.57649c-0.36964,1.56941 -1.00869,2.85446 -1.40694,4.5453c-0.42894,1.82116 -0.63375,3.7019 -1.02687,5.44978c-0.11018,0.43839 -0.17308,1.40185 -0.05705,1.86355l0.00662,0.13336c0.2718,1.17437 0.45816,4.06818 0.46062,4.80852c0,1.11518 0.41872,3.61807 -0.03012,4.51418c-0.25717,0.51345 -0.49613,0.28985 -0.68458,1.08996c-0.91324,1.00291 -1.59204,-0.7838 -2.52578,-0.7838c-0.0773,0 -0.1546,0 -0.2319,0c0.18012,0.28072 0.41513,0.92296 0.59672,1.27104c0.08433,-0.07052 0.12649,0.10851 0.12649,0.10851c0.00438,0.03526 0.00978,0.07018 0.01616,0.1048c0.02353,0.02008 0.0447,0.02668 0.063,0.01674l0.12976,0.18505c0,0 0.07272,0.15436 0,0.30873c-0.0046,0.00977 -0.00921,0.01832 -0.01379,0.02573c0.42248,0.88673 1.36046,1.62882 1.61114,2.69319c0.72658,0.66707 1.56767,2.61915 1.56767,4.44324c-0.57676,2.36684 -2.12977,0.12492 -2.45472,-1.47017c-0.05269,-0.05592 -0.08949,-0.11361 -0.11815,-0.17972c0.17376,1.16457 0.75008,2.14385 0.75008,3.77964c0,0.72335 0.35469,1.97284 0.21283,2.53689c-0.4713,1.87393 -1.15696,-1.1528 -1.27147,-1.63899c-0.01061,-1.92016 -0.99107,-3.17054 -0.96981,-5.42899c0.15075,-0.67022 0.47371,-1.01961 0.39934,-1.83738c-0.10017,-1.10137 -0.92158,-1.45558 -1.09495,-2.40769c-0.62595,0 -1.74957,-3.66714 -1.42621,-4.85233c1.02502,-0.19873 2.04756,-0.27481 3.07761,-0.27481c0.25038,0 0.50075,0 0.75113,0c-0.00479,-0.10042 0.03189,-0.17828 0.03189,-0.17828l0.02693,0.03326c0,-1.25143 0,-2.50286 0,-3.75429c0,-2.1267 0.29941,-4.40528 0.28657,-6.4536c0.3338,-2.15649 0.20926,-4.42275 0.69411,-6.48129c0.13779,-0.54825 1.05835,-3.84459 0.55349,-3.80222c-0.00325,0.00054 -0.00513,0.00055 -0.00513,0.00055c-0.56431,0 -0.75507,-0.64802 -1.22163,-0.85359c-0.35701,-0.1573 -0.58158,0.48443 -0.92256,0.48443c-0.08717,0.04062 0.17826,1.99729 0.1335,2.38092c-0.11917,1.02149 -0.48027,2.40828 -0.45638,3.39097c-0.25787,1.14655 0.00795,2.9337 -0.35895,3.95289c-0.33427,0.92857 -0.74172,1.11033 -0.98218,0.04361c-0.01355,-2.03566 0.30167,-4.58571 0.69268,-6.3242c0.50247,-2.13335 -0.26274,-3.69281 0.63609,-5.6009c0.02795,-0.12231 -1.88944,-1.67774 -2.30961,-1.98767c-0.34672,-0.72372 -1.03563,-2.06518 -0.71799,-3.32812c0.12996,-0.51676 0.79053,-0.67818 1.01131,-0.92823c0.86391,-0.91698 1.2983,-2.00741 2.15369,-2.88839c0.27296,-0.57947 0.91668,-1.26899 1.29544,-1.36267c0.60891,-0.5765 1.2768,-1.00381 1.91339,-1.68314c0.19157,-0.20251 0.32651,-0.5258 0.51344,-0.72664c0.00404,-0.00434 0.00846,-0.00912 0.01321,-0.01427c-0.21877,0.03857 -0.51997,-0.02968 -0.60613,-0.06159c-0.40087,-0.14849 -0.80225,-0.84857 -1.21025,-0.84857c-0.96512,-0.98561 -2.1024,-0.53107 -3.02355,-1.57438c-0.91967,0.01694 -1.77785,-1.55187 -2.68126,-1.57438c-1.40079,-1.41984 -0.25996,-3.24677 0.54812,-4.16202c0.36215,-0.38441 0.73163,-0.68306 1.09372,-1.0447c-0.04303,-0.19164 0.04723,-0.28746 0.04723,-0.28746z" fill="#000000" stroke="none" stroke-width="0.5" stroke-linecap="butt"/><path d="M175.61044,122.56146c0,0 0.38914,-4.90945 1.31624,-7.18508c0.9271,-2.27563 0.93964,-0.58001 1.69229,-0.19958c0.75265,0.38043 0.39505,0.52018 0.28205,1.19751c-0.113,0.67733 -1.88033,8.38259 -1.88033,8.38259z" fill="#b4b3b4" stroke="#b6b4b2" stroke-width="0.5" stroke-linecap="round"/><path d="M211.43447,76.64391c0.00847,-0.02958 0.01638,-0.05879 0.02364,-0.08754c-0.0002,0.02678 -0.00863,0.05617 -0.02364,0.08754z" fill-opacity="0.43044" fill="#9966ff" stroke="none" stroke-width="0.5" stroke-linecap="butt"/></g><path d="M181.70449,136.77821c0,-12.968 4.95208,-23.48065 11.06077,-23.48065c6.1087,0 11.06077,10.51265 11.06077,23.48065c0,12.968 -4.95208,23.48065 -11.06077,23.48065c-6.1087,0 -11.06077,-10.51265 -11.06077,-23.48065z" fill="#b6b6b6" stroke="#000000" stroke-width="0" stroke-linecap="butt"/><path d="M218.3242,160.25885c-6.1087,0 -11.06077,-10.51265 -11.06077,-23.48065c0,-12.968 4.95208,-23.48065 11.06077,-23.48065c6.1087,0 11.06077,10.51265 11.06077,23.48065c0,12.968 -4.95208,23.48065 -11.06077,23.48065z" data-paper-data="{&quot;index&quot;:null}" fill="#b6b6b6" stroke="#000000" stroke-width="0" stroke-linecap="butt"/><path d="M189.7893,136.77821c0,-3.48911 1.33238,-6.3176 2.97597,-6.3176c1.64358,0 2.97597,2.82849 2.97597,6.3176c0,3.48911 -1.33239,6.3176 -2.97597,6.3176c-1.64358,0 -2.97597,-2.82849 -2.97597,-6.3176z" fill="none" stroke="#ffffff" stroke-width="2" stroke-linecap="butt"/><path d="M218.3242,143.0958c-1.64358,0 -2.97597,-2.82849 -2.97597,-6.3176c0,-3.48911 1.33239,-6.3176 2.97597,-6.3176c1.64358,0 2.97597,2.82849 2.97597,6.3176c0,3.48911 -1.33239,6.3176 -2.97597,6.3176z" data-paper-data="{&quot;index&quot;:null}" fill="none" stroke="#ffffff" stroke-width="2" stroke-linecap="butt"/><path d="M200.24046,190.13747c0,0 4.40773,-3.293 6.57422,-3.60938c3.51827,-0.51379 5.55409,0.72188 5.55409,0.72188l-0.4534,6.25626c0,0 -3.33843,-0.91499 -5.55409,-0.9625c-2.21565,-0.0475 -5.66744,0.72188 -5.66744,0.72188z" fill="#000000" stroke="#000000" stroke-width="1.5" stroke-linecap="round"/><path d="M187.3187,160.7812l-1.02014,-1.20313" fill="none" stroke="#ffffff" stroke-width="2" stroke-linecap="round"/></g></g></g></svg>