<svg version="1.1" xmlns="http://www.w3.org/2000/svg" xmlns:xlink="http://www.w3.org/1999/xlink" width="128.47404" height="230.95218" viewBox="0,0,128.47404,230.95218"><defs><linearGradient x1="231.02887" y1="206.73333" x2="231.02887" y2="291.31114" gradientUnits="userSpaceOnUse" id="color-1"><stop offset="0" stop-color="#000000"/><stop offset="1" stop-color="#1f0707"/></linearGradient><linearGradient x1="240.45564" y1="210.25688" x2="240.45564" y2="243.57636" gradientUnits="userSpaceOnUse" id="color-2"><stop offset="0" stop-color="#3b0202"/><stop offset="1" stop-color="#a10505"/></linearGradient><linearGradient x1="240.00012" y1="175.50001" x2="240.00012" y2="307.50001" gradientUnits="userSpaceOnUse" id="color-3"><stop offset="0" stop-color="#300b0b"/><stop offset="1" stop-color="#b42b2b"/></linearGradient><linearGradient x1="240.07705" y1="76.54783" x2="240.07705" y2="197.14449" gradientUnits="userSpaceOnUse" id="color-4"><stop offset="0" stop-color="#270909"/><stop offset="1" stop-color="#b72c2c"/></linearGradient><linearGradient x1="240.42966" y1="105.66223" x2="240.42966" y2="176.43146" gradientUnits="userSpaceOnUse" id="color-5"><stop offset="0" stop-color="#000000"/><stop offset="1" stop-color="#942424"/></linearGradient><linearGradient x1="240.42967" y1="111.04685" x2="240.42967" y2="170.66223" gradientUnits="userSpaceOnUse" id="color-6"><stop offset="0" stop-color="#000000"/><stop offset="1" stop-color="#0a0a0a"/></linearGradient><linearGradient x1="187.03043" y1="140.80373" x2="207.20748" y2="140.80373" gradientUnits="userSpaceOnUse" id="color-7"><stop offset="0" stop-color="#000000"/><stop offset="1" stop-color="#000000" stop-opacity="0"/></linearGradient><linearGradient x1="294.06227" y1="140.45643" x2="273.88522" y2="140.45643" gradientUnits="userSpaceOnUse" id="color-8"><stop offset="0" stop-color="#000000"/><stop offset="1" stop-color="#000000" stop-opacity="0"/></linearGradient></defs><g transform="translate(-175.84002,-76.54783)"><g data-paper-data="{&quot;isPaintingLayer&quot;:true}" fill-rule="nonzero" stroke-linejoin="miter" stroke-miterlimit="10" stroke-dasharray="" stroke-dashoffset="0" style="mix-blend-mode: normal"><path d="M248.00975,206.73333l-0.65311,74.78115l-33.30864,9.79666l8.49044,-81.96537z" fill="url(#color-1)" stroke="#000000" stroke-width="0.5" stroke-linecap="round"/><path d="M250.61625,210.25687l-1.46459,33.31949l-16.11052,-9.886l-2.74611,-19.772z" fill="url(#color-2)" stroke="#000000" stroke-width="0.5" stroke-linecap="round"/><path d="M206.75013,307.5l3.1471,-17.87644l17.66562,-8.998l0.98203,-23.02131l12.86076,-8.13192l1.60245,-32.35158l-25.54742,-2.87273l4.43231,-38.59012l37.78325,-0.15789l13.57389,132z" fill="url(#color-3)" stroke="#000000" stroke-width="0" stroke-linecap="butt"/><path d="M175.84003,136.84616c0,-33.30185 28.7599,-60.29833 64.23702,-60.29833c35.47712,0 64.23702,26.99649 64.23702,60.29833c0,33.30185 -28.7599,60.29833 -64.23702,60.29833c-35.47712,0 -64.23702,-26.99649 -64.23702,-60.29833z" fill="url(#color-4)" stroke="#000000" stroke-width="0" stroke-linecap="butt"/><path d="M181.77582,176.43146v-70.76923h117.30769v70.76923z" fill="url(#color-5)" stroke="#000000" stroke-width="0" stroke-linecap="butt"/><path d="M187.16043,170.66223v-59.61538h106.53846v59.61538z" fill="url(#color-6)" stroke="#000000" stroke-width="0" stroke-linecap="butt"/><path d="M189.81463,144.82359l24.25808,0.2241l11.97966,-28.63252l8.66431,47.7254l9.8181,-20.63298l46.06025,-0.08949" fill="none" stroke-opacity="0.90317" stroke="#00ff09" stroke-width="3.5" stroke-linecap="round"/><path d="M187.03043,170.81248v-60.01751h20.17705v60.01751z" fill="url(#color-7)" stroke-opacity="0.90317" stroke="#00ff09" stroke-width="0" stroke-linecap="butt"/><path d="M273.88522,170.46519v-60.01751h20.17705v60.01751z" data-paper-data="{&quot;index&quot;:null}" fill="url(#color-8)" stroke-opacity="0.90317" stroke="#00ff09" stroke-width="0" stroke-linecap="butt"/></g></g></svg>