<svg version="1.1" xmlns="http://www.w3.org/2000/svg" xmlns:xlink="http://www.w3.org/1999/xlink" width="132.94858" height="267.22501" viewBox="0,0,132.94858,267.22501"><g transform="translate(-170.53607,-46.38751)"><g data-paper-data="{&quot;isPaintingLayer&quot;:true}" fill-rule="nonzero" stroke-linejoin="miter" stroke-miterlimit="10" stroke-dasharray="" stroke-dashoffset="0" style="mix-blend-mode: normal"><path d="M179.28373,313.61252v-267.22501h123.18203v267.22501z" fill-opacity="0.01" fill="#000000" stroke="none" stroke-width="0" stroke-linecap="butt"/><g stroke="#000000" stroke-linecap="butt"><path d="M206.75004,307.5l15.14285,-131.8421l37.78325,-0.15789l13.57389,132z" fill="#b2764d" stroke-width="2"/><path d="M219.70027,204.11263l3.12142,-26.32765l35.83075,-0.14203l2.76735,26.1059c0,0 -7.51543,4.19603 -21.55904,4.50964c-12.48458,0.27879 -20.16049,-4.14586 -20.16049,-4.14586z" fill="#a06138" stroke-width="0"/></g><path d="M171.53608,137.17949c0,-33.30185 28.7599,-60.29833 64.23702,-60.29833c35.47712,0 64.23702,26.99649 64.23702,60.29833c0,33.30185 -28.7599,60.29833 -64.23702,60.29833c-35.47712,0 -64.23702,-26.99649 -64.23702,-60.29833z" fill="#000000" stroke="#000000" stroke-width="2" stroke-linecap="butt"/><g><path d="M171.53608,137.17949c0,-33.30185 27.84473,-60.29833 62.19293,-60.29833c34.3482,0 62.19293,26.99649 62.19293,60.29833c0,33.30185 -27.84473,60.29833 -62.19293,60.29833c-34.3482,0 -62.19293,-26.99649 -62.19293,-60.29833z" fill="#b2764d" stroke="#000000" stroke-width="2" stroke-linecap="butt"/><path d="M172.23613,136.9c0,-0.72799 5.04098,55.91939 61.34427,56.93429c53.79543,0.9697 61.49251,-57.95314 61.49251,-56.93429c0,32.80479 -27.49796,59.39833 -61.41839,59.39833c-33.92043,0 -61.41839,-26.59354 -61.41839,-59.39833z" fill="#a06138" stroke="#000000" stroke-width="0" stroke-linecap="butt"/><path d="M197.9707,111.74865c0,0 4.66439,-1.34167 9.65618,-2.35894c6.79026,-1.38379 10.42732,-0.13029 10.42732,-0.13029l2.81169,63.89022c0,0 -4.91559,1.65949 -7.63173,1.65949c-3.50651,0 -12.0501,-1.65949 -12.0501,-1.65949z" fill="none" stroke="#9d6138" stroke-width="2.5" stroke-linecap="round"/><path d="M261.42369,108.08209c5.37055,0.52304 6.83925,1.59221 6.83925,1.59221l-0.80335,61.81586c0,0 -6.34741,0.82975 -9.2384,0.82975c-2.55752,0 -7.23006,-0.82975 -7.23006,-0.82975l2.81169,-63.89022c0,0 4.02226,0.13168 7.62088,0.48215z" fill="none" stroke="#9d6138" stroke-width="2.5" stroke-linecap="round"/><path d="M196.89062,108.46716c0,0 6.49546,-5.16922 11.42182,-6.36355c4.92636,-1.19433 11.94165,0.69937 11.94165,0.69937c0,0 -7.78234,-0.06028 -11.5868,0.86207c-3.97581,0.96388 -11.77666,4.80211 -11.77666,4.80211z" fill="#000000" stroke="none" stroke-width="0" stroke-linecap="butt"/><path d="M258.79071,103.66506c-3.80446,-0.92235 -11.5868,-0.86207 -11.5868,-0.86207c0,0 7.01529,-1.8937 11.94165,-0.69937c4.92635,1.19433 11.42181,6.36355 11.42181,6.36355c0,0 -7.80085,-3.83822 -11.77666,-4.80211z" data-paper-data="{&quot;index&quot;:null}" fill="#000000" stroke="none" stroke-width="0" stroke-linecap="butt"/></g><path d="M184.6551,137.27563c0,-12.968 10.17813,-23.48065 22.73347,-23.48065c12.55535,0 22.73347,10.51265 22.73347,23.48065c0,12.968 -10.17813,23.48065 -22.73347,23.48065c-12.55535,0 -22.73347,-10.51265 -22.73347,-23.48065z" fill="#b2764d" stroke="#000000" stroke-width="2" stroke-linecap="butt"/><path d="M221.55907,176.65643h24.31058" fill="none" stroke="#000000" stroke-width="2" stroke-linecap="round"/><path d="M259.92048,160.75627c-12.55535,0 -22.73347,-10.51265 -22.73347,-23.48065c0,-12.968 10.17813,-23.48065 22.73347,-23.48065c12.55535,0 22.73347,10.51265 22.73347,23.48065c0,12.968 -10.17813,23.48065 -22.73347,23.48065z" data-paper-data="{&quot;index&quot;:null}" fill="#b2764d" stroke="#000000" stroke-width="2" stroke-linecap="butt"/><g stroke-linecap="butt"><path d="M283.17121,152.69016c0,-5.50854 4.32346,-9.97411 9.65672,-9.97411c5.33326,0 9.65672,4.46556 9.65672,9.97411c0,5.50854 -4.32346,9.97411 -9.65672,9.97411c-5.33326,0 -9.65672,-4.46556 -9.65672,-9.97411z" fill="#ffe902" stroke="#f6c002" stroke-width="2"/><path d="M298.41017,149.21675c1.012,2.07517 0.97661,4.3818 -0.07904,5.15199c-1.05565,0.7702 -2.73182,-0.28769 -3.74382,-2.36286c-1.012,-2.07517 -0.9766,-4.3818 0.07905,-5.15199c1.05565,-0.7702 2.73181,0.28769 3.74381,2.36286z" fill="#fff26a" stroke="none" stroke-width="0"/></g><g fill="#b4b3b4" stroke="#b6b4b2" stroke-width="0.5" stroke-linecap="round"><path d="M177.71312,158.5851c0,0 1.27471,3.07549 2.06246,4.40033c0.64873,1.09105 2.32843,2.98433 2.32843,2.98433l-3.19336,1.79627c0,0 -1.63318,-2.53986 -2.21157,-3.76467c-0.55131,-1.16746 -1.18139,-3.4204 -1.18139,-3.4204z"/><path d="M173.12267,154.79298c0,0 -1.0568,-2.6996 -1.36083,-4.01709c-0.29441,-1.27578 -0.43544,-3.76675 -0.43544,-3.76675l3.47833,-0.5422c0,0 -0.10123,2.66703 0.12039,3.97255c0.21545,1.26922 1.19133,3.75473 1.19133,3.75473l-2.99378,0.59875z"/><path d="M174.13292,130.04437c0,0 -0.43396,2.99796 -0.46907,4.43757c-0.03087,1.26557 0.26948,3.74544 0.26948,3.74544h-3.19337c0,0 -0.19838,-0.161 -0.1831,-4.40509c0.01029,-2.85922 0.38268,-3.57833 0.38268,-3.57833z"/><path d="M172.14936,123.05888c0,0 0.82609,-4.90945 2.7942,-7.18508c1.96811,-2.27563 1.99474,-0.58001 3.59253,-0.19958c1.59779,0.38043 0.83864,0.52018 0.59876,1.19751c-0.23988,0.67733 -3.99171,8.38259 -3.99171,8.38259z"/></g></g></g></svg>