<svg version="1.1" xmlns="http://www.w3.org/2000/svg" xmlns:xlink="http://www.w3.org/1999/xlink" width="155.63498" height="293.94314" viewBox="0,0,155.63498,293.94314"><defs><linearGradient x1="233.6665" y1="26.49817" x2="233.6665" y2="129.62926" gradientUnits="userSpaceOnUse" id="color-1"><stop offset="0" stop-color="#000000"/><stop offset="1" stop-color="#6122e0"/></linearGradient><linearGradient x1="240.2522" y1="178.08772" x2="240.2522" y2="310.08767" gradientUnits="userSpaceOnUse" id="color-2"><stop offset="0" stop-color="#000000"/><stop offset="1" stop-color="#fff1a4"/></linearGradient><linearGradient x1="311.20965" y1="17.79401" x2="308.96486" y2="126.56895" gradientUnits="userSpaceOnUse" id="color-3"><stop offset="0" stop-color="#000000"/><stop offset="1" stop-color="#cabf81"/></linearGradient><linearGradient x1="308.83708" y1="28.2473" x2="306.59226" y2="137.02217" gradientUnits="userSpaceOnUse" id="color-4"><stop offset="0" stop-color="#000000"/><stop offset="1" stop-color="#caaa81"/></linearGradient><linearGradient x1="343.46416" y1="122.05648" x2="342.67052" y2="160.51374" gradientUnits="userSpaceOnUse" id="color-5"><stop offset="0" stop-color="#000000"/><stop offset="1" stop-color="#d6ca89"/></linearGradient><linearGradient x1="206.00794" y1="119.95244" x2="205.21428" y2="158.40969" gradientUnits="userSpaceOnUse" id="color-6"><stop offset="0" stop-color="#000000"/><stop offset="1" stop-color="#000000"/></linearGradient><linearGradient x1="245.70115" y1="16.57535" x2="243.45634" y2="125.35027" gradientUnits="userSpaceOnUse" id="color-7"><stop offset="0" stop-color="#242217"/><stop offset="1" stop-color="#1e1c13"/></linearGradient><linearGradient x1="247.64042" y1="27.11761" x2="245.39563" y2="135.8925" gradientUnits="userSpaceOnUse" id="color-8"><stop offset="0" stop-color="#242217"/><stop offset="1" stop-color="#1e1c13"/></linearGradient><linearGradient x1="276.97668" y1="79.35587" x2="274.48843" y2="199.9269" gradientUnits="userSpaceOnUse" id="color-9"><stop offset="0" stop-color="#191710"/><stop offset="1" stop-color="#ded28e"/></linearGradient><linearGradient x1="249.21909" y1="136.25796" x2="249.00375" y2="146.69279" gradientUnits="userSpaceOnUse" id="color-10"><stop offset="0" stop-color="#9e9e9e"/><stop offset="1" stop-color="#090909"/></linearGradient></defs><g transform="translate(-196.10241,-16.14454)"><g data-paper-data="{&quot;isPaintingLayer&quot;:true}" fill-rule="nonzero" stroke-linecap="butt" stroke-linejoin="miter" stroke-miterlimit="10" stroke-dasharray="" stroke-dashoffset="0" style="mix-blend-mode: normal"><path d="" data-paper-data="{&quot;index&quot;:null}" fill="url(#color-1)" stroke="#000000" stroke-width="0"/><path d="M207.0022,310.08768l40.89605,-125.14359l41.49787,-0.19636l-15.89393,125.33994z" data-paper-data="{&quot;index&quot;:null}" fill="url(#color-2)" stroke="#000000" stroke-width="0"/><path d="M197.22741,60.45846c0.62132,0 1.125,0.11193 1.125,0.25c0,0.13807 -0.50368,0.25 -1.125,0.25c-0.62132,0 -1.125,-0.11193 -1.125,-0.25c0,-0.13807 0.50368,-0.25 1.125,-0.25z" fill="#000000" stroke="none" stroke-width="0.5"/><path d="M332.08529,18.22482c0,0 -0.25781,50.53869 0.95875,70.62232c0.84521,13.95292 5.64137,38.3351 5.64137,38.3351c-7.43508,-1.55482 -58.54923,-44.44568 -58.54923,-44.44568c0,0 16.23222,-27.36029 25.30872,-38.63173c8.13698,-10.10476 26.64042,-25.88005 26.64042,-25.88005z" data-paper-data="{&quot;index&quot;:null}" fill="url(#color-3)" stroke="#000000" stroke-width="0"/><path d="M328.33027,28.64963c0,0 -0.30978,50.53762 0.79881,70.61901c0.7702,13.95137 5.21557,38.32631 5.21557,38.32631c-6.94079,-1.54462 -54.61285,-44.36444 -54.61285,-44.36444c0,0 15.1951,-27.38169 23.68618,-38.66521c7.61215,-10.11559 24.91231,-25.91571 24.91231,-25.91571z" data-paper-data="{&quot;index&quot;:null}" fill="url(#color-4)" stroke="#000000" stroke-width="0"/><path d="M334.64664,121.87451l17.09075,26.7336l-16.44626,11.75339z" data-paper-data="{&quot;index&quot;:null}" fill="url(#color-5)" stroke="#000000" stroke-width="0"/><path d="M212.59363,158.56198l-15.94735,-12.42189l18.17913,-26.00572c0,0 -1.08639,18.70589 -1.49755,25.78544c-0.28789,4.95713 -0.73423,12.64217 -0.73423,12.64217z" data-paper-data="{&quot;index&quot;:null}" fill="url(#color-6)" stroke="#000000" stroke-width="0"/><path d="M224.82544,16.14454c0,0 17.83685,16.52524 25.55001,26.9571c8.60375,11.63631 23.69336,39.64299 23.69336,39.64299c0,0 -52.84016,40.74555 -60.33306,41.9923c0,0 5.79799,-24.16356 7.21814,-38.06971c2.04411,-20.01634 3.87157,-70.52262 3.87157,-70.52262z" data-paper-data="{&quot;index&quot;:null}" fill="url(#color-7)" stroke="#000000" stroke-width="0"/><path d="M228.14717,26.71533c0,0 16.63356,16.50041 23.82191,26.92144c8.01833,11.62422 22.07082,39.6095 22.07082,39.6095c0,0 -49.39806,40.81659 -56.39667,42.07353c0,0 5.4472,-24.1708 6.79234,-38.0785c1.93614,-20.01856 3.71164,-70.52592 3.71164,-70.52592z" data-paper-data="{&quot;index&quot;:null}" fill="url(#color-8)" stroke="#000000" stroke-width="0"/><path d="M211.50923,138.31592c0.68711,-33.29476 29.99789,-59.6921 65.46746,-58.96011c35.46957,0.73199 63.66634,28.31612 62.97923,61.61087c-0.68711,33.29476 -29.99789,59.6921 -65.46746,58.96011c-35.46957,-0.73199 -63.66634,-28.31612 -62.97923,-61.61087z" data-paper-data="{&quot;index&quot;:null}" fill="url(#color-9)" stroke="#000000" stroke-width="0"/><path d="M225.98038,139.03173c0.26756,-12.96524 10.99488,-23.25875 23.96012,-22.99118c12.96524,0.26756 23.25875,10.99488 22.99118,23.96012c-0.26756,12.96524 -10.99488,23.25875 -23.96012,22.99118c-12.96524,-0.26756 -23.25875,-10.99488 -22.99118,-23.96012z" fill="#000000" stroke="#000000" stroke-width="0"/><path d="M305.17266,164.11135c-12.96524,-0.26756 -23.25875,-10.99488 -22.99118,-23.96012c0.26756,-12.96524 10.99488,-23.25875 23.96012,-22.99118c12.96524,0.26756 23.25875,10.99488 22.99118,23.96012c-0.26756,12.96524 -10.99488,23.25875 -23.96012,22.99118z" data-paper-data="{&quot;index&quot;:null}" fill="#bfbfbf" stroke="#000000" stroke-width="0"/><path d="M300.67305,145.17607c-0.8094,-0.0167 -1.42733,-1.88205 -1.38019,-4.16636c0.04714,-2.28431 0.7415,-4.12258 1.55091,-4.10587c0.8094,0.0167 1.42733,1.88205 1.38019,4.16636c-0.04714,2.28431 -0.7415,4.12258 -1.55091,4.10587z" data-paper-data="{&quot;index&quot;:null}" fill="#bfbfbf" stroke="#000000" stroke-width="2"/><path d="M309.04568,98.72545c-3.90963,-1.00323 -11.94729,-1.10881 -11.94729,-1.10881c0,0 7.28339,-1.7438 12.34593,-0.44474c5.06253,1.29906 11.6634,6.6056 11.6634,6.6056c0,0 -7.97633,-4.00365 -12.06205,-5.05206z" data-paper-data="{&quot;index&quot;:null}" fill="#000000" stroke="none" stroke-width="0"/><path d="M221.01148,171.03812c-1.471,-2.0432 -2.01885,13.64968 -3.13446,11.45381c-0.93618,-1.84269 -2.49229,-21.54795 -3.1814,-23.52975c-1.56029,-4.48725 -4.86791,-1.91412 -5.1859,-7.3558c-0.12457,-2.13178 0.71483,-16.37159 0.92642,-18.23358c0.06176,-0.54353 -1.99136,-4.503 0.33662,-11.7531c0.45406,-1.41412 3.81301,-6.10473 4.3898,-7.47042c0.79377,-1.87942 -1.70336,-3.19469 -0.55687,-4.76374c2.22524,-3.0454 8.15255,-5.71572 8.26682,-5.99517c2.86489,-7.00586 13.87429,-18.59918 26.35911,-23.23837c0.34826,-0.12941 8.79385,2.70125 9.16584,2.58456c10.17358,-3.19118 20.21807,-4.69809 20.21807,-4.69809c0,0 -6.70401,3.62468 -4.32854,5.10823c1.66385,1.03912 5.3089,0.51982 5.47186,2.15715c0.3038,3.05242 -6.99526,7.42768 -7.15798,10.1166c-0.20983,3.4677 -2.81258,3.68771 -3.69722,5.80872c-0.60185,1.443 0.49328,4.70565 0.16508,6.80833c-0.70985,4.5477 -1.4774,0.86504 -2.71503,4.95241c-0.96598,3.19021 -2.20191,-0.0683 -3.54973,1.44539c-0.75684,0.84997 -1.46884,6.43528 -2.38344,7.63507c-13.38833,17.56303 -36.26004,18.79458 -35.82577,18.77506c3.63343,-0.16343 38.33338,9.97597 40.22371,15.1766c0.00998,0.02744 -0.38073,1.84207 -1.25546,3.73057c-0.87029,1.8789 -2.22401,3.83085 -2.45822,4.20326c-0.6022,0.95754 -0.51233,-4.32658 -1.49623,-2.67448c-0.94699,1.59013 -2.08753,2.67624 -2.9558,4.457c-1.70723,3.50141 -1.75097,6.29016 -3.28279,7.33512c-0.25751,0.17566 -0.54398,-2.45525 -1.08616,-5.03796c-0.98219,-4.67867 1.57765,-8.91385 1.24448,-8.39066c-0.66221,1.03988 -2.24826,4.15474 -3.12919,4.62057c-0.82526,0.43641 -0.96437,-1.79682 -1.08276,-0.31625c-0.33282,4.16229 1.87293,12.00378 -0.05467,11.9657c-0.55955,-0.01106 -2.42036,-10.16169 -3.96035,-13.1567c-0.6016,-1.17 -1.30458,7.08851 -1.79952,7.64933c-0.63782,0.7227 -1.04009,-6.00958 -1.58986,-6.19835c-3.61278,-1.24047 -1.7948,9.54197 -3.01289,7.63972c-1.70048,-2.65557 0.14609,-7.14182 -1.21709,-9.76003c-1.01518,-1.94982 -2.34914,-1.03492 -3.2722,-1.94574c-0.77563,-0.76535 -1.24655,-3.52678 -1.13801,-3.40217c2.15747,2.47666 -0.59686,0.09967 -0.27237,4.72618c0.15639,2.22973 7.12245,10.04906 8.73344,13.2101c1.46691,2.87831 -2.43384,1.17054 -1.83154,2.00715c3.88022,5.3896 -6.16084,-4.94277 -5.04757,-0.9409c0.50685,1.82199 8.2136,8.51718 12.59925,13.40235c3.01062,3.35354 3.28425,5.68298 3.28425,5.68298c0,0 5.50269,3.83283 2.98933,2.45941c-1.39013,-0.75964 -4.99479,-2.58171 -7.24875,-2.1864c-1.43724,0.25206 0.35229,2.73998 -1.41356,1.81645c-1.72708,-0.90325 -8.06494,-8.08268 -8.76497,-8.61522c-3.77618,-2.87264 -4.76393,7.1236 -8.22767,3.33263c-0.86466,-0.94635 -0.99337,-6.76095 -2.56799,-12.00306c-1.23626,-4.11563 -3.98579,-7.89123 -4.49211,-8.5945z" fill="#000000" stroke="#000000" stroke-width="0"/><path d="M262.31802,141.7479c0,0 -6.54581,4.82964 -13.8396,4.67912c-7.2938,-0.15052 -12.57356,-5.22421 -12.57356,-5.22421c0,0 5.79313,-8.33639 13.08692,-8.18586c7.2938,0.15052 13.32623,8.73095 13.32623,8.73095z" fill="url(#color-10)" stroke="none" stroke-width="0"/><path d="M246.70439,140.70811c-0.04998,-4.76319 1.19196,-8.63798 2.77393,-8.65458c1.58198,-0.01659 2.90493,3.83128 2.9549,8.59448c0.01277,1.2172 -0.05882,2.37639 -0.1989,3.42801c-0.40807,3.06359 -1.39732,5.21422 -2.57504,5.22658c-1.58197,0.0166 -2.90493,-3.83127 -2.95491,-8.59447z" fill="#000000" stroke="none" stroke-width="0"/><path d="M267.11278,191.32174c-4.0289,-0.24416 -5.03443,-18.70144 -5.03443,-18.70144c0,0 6.82096,-3.09244 12.03794,-2.77631c1.03591,0.06277 2.16129,0.2692 3.29979,0.55974c4.59523,1.1727 9.40405,3.71588 9.40405,3.71588c0,0 -15.68933,17.45727 -19.89969,17.20212z" data-paper-data="{&quot;index&quot;:null}" fill="#000000" stroke="none" stroke-width="0"/><path d="M307.69133,146.23668c0,0 -1.85742,2.89208 -3.63864,4.04376c-1.78123,1.15167 -4.80891,1.41811 -4.80891,1.41811c0,0 3.07991,-1.07531 4.4555,-1.96471c1.43753,-0.92946 3.99206,-3.49716 3.99206,-3.49716z" data-paper-data="{&quot;index&quot;:null}" fill="#000000" stroke="none" stroke-width="0"/></g></g></svg>