<svg version="1.1" xmlns="http://www.w3.org/2000/svg" xmlns:xlink="http://www.w3.org/1999/xlink" width="269.76455" height="273.21455" viewBox="0,0,269.76455,273.21455"><defs><linearGradient x1="250.7996" y1="197.7855" x2="250.85402" y2="8.41014" gradientUnits="userSpaceOnUse" id="color-1"><stop offset="0" stop-color="#0e0000"/><stop offset="1" stop-color="#000000"/></linearGradient><linearGradient x1="250.4323" y1="198.27727" x2="250.47638" y2="44.87132" gradientUnits="userSpaceOnUse" id="color-2"><stop offset="0" stop-color="#710000"/><stop offset="1" stop-color="#0d0000"/></linearGradient><linearGradient x1="255.34705" y1="210.54258" x2="251.59628" y2="195.5506" gradientUnits="userSpaceOnUse" id="color-3"><stop offset="0" stop-color="#0e0000"/><stop offset="1" stop-color="#000000"/></linearGradient><linearGradient x1="277.0029" y1="161.62079" x2="251.54734" y2="257.04492" gradientUnits="userSpaceOnUse" id="color-4"><stop offset="0" stop-color="#0e0000"/><stop offset="1" stop-color="#000000"/></linearGradient><linearGradient x1="272.64891" y1="182.35165" x2="322.12854" y2="-3.13047" gradientUnits="userSpaceOnUse" id="color-5"><stop offset="0" stop-color="#0e0000"/><stop offset="1" stop-color="#000000"/></linearGradient><linearGradient x1="272.87441" y1="182.91162" x2="312.95601" y2="32.65946" gradientUnits="userSpaceOnUse" id="color-6"><stop offset="0" stop-color="#710000"/><stop offset="1" stop-color="#0d0000"/></linearGradient><linearGradient x1="255.24414" y1="189.9966" x2="206.31211" y2="4.36927" gradientUnits="userSpaceOnUse" id="color-7"><stop offset="0" stop-color="#0e0000"/><stop offset="1" stop-color="#000000"/></linearGradient><linearGradient x1="255.71747" y1="190.37127" x2="216.07945" y2="40.00146" gradientUnits="userSpaceOnUse" id="color-8"><stop offset="0" stop-color="#710000"/><stop offset="1" stop-color="#0d0000"/></linearGradient><linearGradient x1="281.98108" y1="197.05567" x2="416.86884" y2="60.46453" gradientUnits="userSpaceOnUse" id="color-9"><stop offset="0" stop-color="#0e0000"/><stop offset="1" stop-color="#000000"/></linearGradient><linearGradient x1="281.38403" y1="197.14479" x2="390.65159" y2="86.49738" gradientUnits="userSpaceOnUse" id="color-10"><stop offset="0" stop-color="#710000"/><stop offset="1" stop-color="#0d0000"/></linearGradient></defs><g transform="translate(-153.51009,12.02115)"><g data-paper-data="{&quot;isPaintingLayer&quot;:true}" fill-rule="nonzero" stroke-width="4" stroke-linejoin="miter" stroke-miterlimit="10" stroke-dasharray="" stroke-dashoffset="0" style="mix-blend-mode: normal"><g data-paper-data="{&quot;index&quot;:null}" fill="#060000" stroke="#710000"><path d="M358.97091,62.81254c-1.28103,11.52061 -11.23487,19.96363 -22.23252,18.85802c-10.99765,-1.10561 -18.87453,-11.34117 -17.5935,-22.86177c1.28103,-11.52061 8.29528,-19.32888 22.23252,-18.85802c12.97215,0.43824 18.87453,11.34117 17.5935,22.86177z" stroke-linecap="butt"/><path d="M319.56274,193.97179c0,0 -3.06022,-52.42857 -3.28899,-75.60902c-0.19555,-19.81459 2.00035,-54.96681 2.00035,-54.96681l40.43008,4.34194c0,0 -8.27934,33.48289 -14.09503,52.23888c-7.00787,22.60085 -25.04642,73.99501 -25.04642,73.99501z" stroke-linecap="round"/></g><path d="M294.24784,195.96888l-86.89634,3.15682l43.62492,-190.72068z" fill="url(#color-1)" stroke="url(#color-2)" stroke-linecap="round"/><path d="M293.58585,186.7878c0,0 8.06015,-6.27486 8.93348,-4.00541c0.77501,2.01397 -3.9532,16.94741 -3.9532,16.94741l-86.43814,21.62558c0,0 -8.33522,-10.73925 -8.49131,-13.01615c-0.15706,-2.29102 7.55187,-0.68789 7.55187,-0.68789z" fill="url(#color-3)" stroke="#710000" stroke-linecap="butt"/><path d="M216.56305,196.60508c7.02936,-26.35064 34.0892,-42.01364 60.43983,-34.98428c26.35065,7.02936 42.01365,34.0892 34.98429,60.43984c-7.02936,26.35065 -28.21717,43.35295 -60.43985,34.98429c-32.26048,-8.37847 -42.01364,-34.0892 -34.98428,-60.43984z" fill="url(#color-4)" stroke="#710000" stroke-linecap="butt"/><path d="M322.01189,-3.16158l-7.82582,196.09395l-82.94983,-21.62805z" data-paper-data="{&quot;index&quot;:null}" fill="url(#color-5)" stroke="url(#color-6)" stroke-linecap="round"/><path d="M206.19537,4.40005l40.27032,100.58113l25.2753,76.74758l-57.94195,19.19292l-10.53132,-94.03803z" data-paper-data="{&quot;index&quot;:null}" fill="url(#color-7)" stroke="url(#color-8)" stroke-linecap="round"/><path d="M368.44836,150.87428l-55.9705,76.29785l-39.22155,-45.36238c0,0 24.27768,-23.17993 35.06779,-32.87785c8.71057,-7.82887 23.61354,-21.22334 23.61354,-21.22334l85.0171,-67.15918z" data-paper-data="{&quot;index&quot;:null}" fill="url(#color-9)" stroke="url(#color-10)" stroke-linecap="round"/><g data-paper-data="{&quot;index&quot;:null}" fill="#060000" stroke="#710000"><path d="M176.09422,43.41907c13.9035,1.07766 20.00856,9.61564 20.00408,21.20723c-0.00448,11.5916 -8.96787,20.8905 -20.0203,20.76968c-11.05243,-0.12083 -20.00856,-9.61564 -20.00408,-21.20723c0.00448,-11.5916 7.07958,-21.77271 20.0203,-20.76968z" stroke-linecap="butt"/><path d="M180.69378,198.90927c0,0 -12.22781,-53.07758 -16.68607,-76.31618c-3.69982,-19.28525 -8.21493,-53.47977 -8.21493,-53.47977l40.66221,0.16843c0,0 -1.71593,35.17892 -4.10767,54.84962c-2.79801,23.0121 -11.65356,74.77791 -11.65356,74.77791z" stroke-linecap="round"/></g><path d="M237.69123,229.61482c0.27047,-1.01388 1.31164,-1.61655 2.32553,-1.34608c1.01388,0.27047 1.61655,1.31164 1.34608,2.32553c-0.27047,1.01388 -1.31164,1.61655 -2.32553,1.34608c-1.01388,-0.27047 -1.61655,-1.31164 -1.34608,-2.32553z" fill="#710000" stroke="#710000" stroke-linecap="butt"/><path d="M284.0322,225.83131c0.27047,-1.01388 1.31164,-1.61655 2.32553,-1.34608c1.01388,0.27047 1.61655,1.31164 1.34608,2.32553c-0.27047,1.01388 -1.31164,1.61655 -2.32553,1.34608c-1.01388,-0.27047 -1.61655,-1.31164 -1.34608,-2.32553z" fill="#710000" stroke="#710000" stroke-linecap="butt"/></g></g></svg>