<svg version="1.1" xmlns="http://www.w3.org/2000/svg" xmlns:xlink="http://www.w3.org/1999/xlink" width="130.47404" height="258.1622" viewBox="0,0,130.47404,258.1622"><g transform="translate(-254.76299,-50.48951)"><g data-paper-data="{&quot;isPaintingLayer&quot;:true}" stroke-linejoin="miter" stroke-miterlimit="10" stroke-dasharray="" stroke-dashoffset="0" style="mix-blend-mode: normal"><path d="M286.67301,307.45908l15.14285,-131.8421l37.78325,-0.15789l13.57389,132z" fill="#eb160f" fill-rule="nonzero" stroke="#000000" stroke-width="2" stroke-linecap="butt"/><path d="M299.62327,204.07173l3.12142,-26.32765l35.83075,-0.14203l2.76735,26.1059c0,0 -7.51543,4.19603 -21.55904,4.50964c-12.48458,0.27879 -20.16049,-4.14586 -20.16049,-4.14586z" fill="#9e0a01" fill-rule="nonzero" stroke="#000000" stroke-width="0" stroke-linecap="butt"/><path d="M286.20345,307.39552l9.625,-85.15c0,0 16.14032,5.36651 24.41538,5.23987c8.05433,-0.12327 24.59071,-5.98987 24.59071,-5.98987l9.125,86.65z" fill="#2841ac" fill-rule="nonzero" stroke="#000000" stroke-width="1" stroke-linecap="butt"/><path d="M330.77698,225.84323l-2.72223,-31.57302l7.33053,-1.11111l3.5,30.46191c0,0 1.97994,9.94622 -2.77415,10.47275c-4.71963,0.52271 -5.33415,-8.25053 -5.33415,-8.25053z" data-paper-data="{&quot;index&quot;:null}" fill="#263996" fill-rule="nonzero" stroke="#000000" stroke-width="1" stroke-linecap="butt"/><path d="M301.66585,224.121l3.5,-30.4619l8.21942,0.55556l-2.61111,32.12857c0,0 -1.38805,9.70344 -6.18894,8.77837c-5.22617,-1.00701 -2.91937,-11.0006 -2.91937,-11.0006z" fill="#263996" fill-rule="nonzero" stroke="#000000" stroke-width="1" stroke-linecap="butt"/><path d="M261.69791,104.84044c0.37225,-1.95627 0.79829,-15.31507 14.96087,-28.03661c7.64679,-6.86874 16.3225,-16.66898 37.90299,-17.32053c32.05868,-0.51111 43.95019,11.08935 52.16133,19.80672c11.26206,11.95638 11.89977,22.71882 14.37822,27.96833c0.25164,0.53297 -119.41455,-2.35933 -119.40341,-2.4179z" fill="#a8530c" fill-rule="nonzero" stroke="none" stroke-width="1.5" stroke-linecap="butt"/><path d="M255.76299,136.80526c0,-21.15086 11.60129,-39.75822 29.15655,-50.52104c1.08536,-1.75458 19.78544,-9.18722 33.30904,-9.29157c13.5236,-0.10435 26.06266,2.90177 35.96422,8.75705c18.0508,10.67434 30.04423,29.55022 30.04423,51.05556c0,33.30185 -28.7599,60.29833 -64.23702,60.29833c-35.47712,0 -64.23702,-26.99649 -64.23702,-60.29833z" fill="#ffdac9" fill-rule="nonzero" stroke="#000000" stroke-width="2" stroke-linecap="butt"/><path d="M256.48596,136.85909c0,-0.72799 5.20666,55.91939 63.36046,56.93429c55.56352,0.9697 63.51358,-57.95314 63.51358,-56.93429c0,32.80479 -28.40173,59.39833 -63.43702,59.39833c-35.03529,0 -63.43702,-26.59354 -63.43702,-59.39833z" fill="#d8b9ab" fill-rule="nonzero" stroke="#000000" stroke-width="0" stroke-linecap="butt"/><path d="M259.4202,148.5137c0,0 -3.17497,-7.83911 -3.17497,-11.77764c0,-6.02949 9.41909,-42.46903 9.41909,-42.46903h9.52492c0,0 -3.70913,8.16542 -4.33994,12.81431c-0.56023,4.12878 0.74163,13.70427 0.74163,13.70427l-2.07085,2.75646l-3.0049,-1.80454z" fill="#5c2d06" fill-rule="nonzero" stroke="#000000" stroke-width="0" stroke-linecap="butt"/><path d="M269.31314,137.23473c0,-12.968 10.51265,-23.48065 23.48065,-23.48065c12.968,0 23.48065,10.51265 23.48065,23.48065c0,12.968 -10.51265,23.48065 -23.48065,23.48065c-12.968,0 -23.48065,-10.51265 -23.48065,-23.48065z" fill="#ffffff" fill-rule="nonzero" stroke="#000000" stroke-width="2" stroke-linecap="butt"/><path d="M258.52301,144.00195c0,0 -3,-7.4071 -3,-11.12857c0,-5.6972 8.9,-40.12857 8.9,-40.12857h9c0,0 -3.50472,7.71542 -4.10076,12.10811c-0.52936,3.90124 0.70076,12.94903 0.70076,12.94903l-1.95673,2.60455l-2.8393,-1.70509z" fill="#a8530c" fill-rule="nonzero" stroke="#000000" stroke-width="1.5" stroke-linecap="butt"/><path d="M279.04524,140.62577c0,-6.91894 6.20586,-12.52783 13.86117,-12.52783c7.65532,0 13.86118,5.6089 13.86118,12.52783c0,6.91894 -6.20587,12.52784 -13.86118,12.52784c-7.65532,0 -13.86116,-5.60891 -13.86116,-12.52784z" fill="#000000" fill-rule="nonzero" stroke="none" stroke-width="0" stroke-linecap="butt"/><path d="M347.0523,160.71536c-12.968,0 -23.48065,-10.51265 -23.48065,-23.48065c0,-12.968 10.51265,-23.48065 23.48065,-23.48065c12.968,0 23.48065,10.51265 23.48065,23.48065c0,12.968 -10.51265,23.48065 -23.48065,23.48065z" data-paper-data="{&quot;index&quot;:null}" fill="#ffffff" fill-rule="nonzero" stroke="#000000" stroke-width="2" stroke-linecap="butt"/><path d="M346.93973,152.15361c-7.28712,0 -13.19449,-5.31043 -13.19449,-11.86117c0,-6.55075 5.90738,-11.86117 13.19449,-11.86117c7.28712,0 13.1945,5.31043 13.1945,11.86117c0,6.55075 -5.90738,11.86117 -13.1945,11.86117z" data-paper-data="{&quot;index&quot;:null}" fill="#000000" fill-rule="nonzero" stroke="none" stroke-width="0" stroke-linecap="butt"/><path d="M279.7018,109.81333c0,0 11.49953,-4.26418 16.5281,-2.83931c5.02858,1.42488 11.69518,5.97183 11.69518,5.97183c0,0 -8.24902,-3.32832 -12.13243,-4.4287c-4.05831,-1.14994 -16.09085,1.29618 -16.09085,1.29618z" fill="#000000" fill-rule="nonzero" stroke="none" stroke-width="0" stroke-linecap="butt"/><path d="M343.17738,108.87044c-3.85442,1.19798 -10.7515,5.32659 -10.7515,5.32659c0,0 5.28441,-5.30693 10.27546,-6.85819c4.99104,-1.55125 13.39479,-0.49871 13.39479,-0.49871c0,0 -8.89074,0.77838 -12.91875,2.03032z" data-paper-data="{&quot;index&quot;:null}" fill="#000000" fill-rule="nonzero" stroke="none" stroke-width="0" stroke-linecap="butt"/><path d="M372.11929,122.73754l-3.0049,1.80454l-2.07085,-2.75646c0,0 1.30186,-9.57549 0.74163,-13.70427c-0.63081,-4.64889 -4.33994,-12.81431 -4.33994,-12.81431h9.52492c0,0 9.41909,36.43954 9.41909,42.46903c0,3.93853 -3.17497,11.77764 -3.17497,11.77764z" data-paper-data="{&quot;index&quot;:null}" fill="#5c2d06" fill-rule="nonzero" stroke="#000000" stroke-width="0" stroke-linecap="butt"/><path d="M373.71905,121.03476l-2.8393,1.70509l-1.95673,-2.60455c0,0 1.23012,-9.04779 0.70076,-12.94903c-0.59604,-4.39269 -4.10076,-12.10811 -4.10076,-12.10811h9c0,0 8.9,34.43137 8.9,40.12857c0,3.72147 -3,11.12857 -3,11.12857z" data-paper-data="{&quot;index&quot;:null}" fill="#a8530c" fill-rule="nonzero" stroke="#000000" stroke-width="1.5" stroke-linecap="butt"/><path d="M269.05823,137.20091c0,-12.96801 10.51265,-23.48065 23.48066,-23.48065c12.96801,0 23.48065,10.51264 23.48065,23.48065c0,0 -9.31888,-14.62498 -23.43307,-15.13879c-14.72884,-0.53619 -23.52823,15.7554 -23.52823,15.13879z" fill="#ffdac9" fill-rule="nonzero" stroke="#000000" stroke-width="2" stroke-linecap="butt"/><path d="M323.36983,137.22716c0,-12.96801 10.51264,-23.48065 23.48065,-23.48065c12.96801,0 23.48066,10.51264 23.48066,23.48065c0,0.60606 -7.37231,-15.02482 -22.92496,-15.131c-15.95251,-0.10891 -24.03635,15.131 -24.03635,15.131z" data-paper-data="{&quot;index&quot;:null}" fill="#ffdac9" fill-rule="nonzero" stroke="#000000" stroke-width="2" stroke-linecap="butt"/><path d="M258.29801,92.23952c16.52144,-23.64275 37.27087,-41.25 60.25,-41.25c22.93746,0 43.93743,11.90491 59.75,35.25c2.19899,3.24651 5.88227,22.83784 3.89123,23.94724c-2.97694,1.65874 -55.28548,-10.78057 -63.39123,-10.78057c-8.43856,0 -57.31213,11.19019 -60.9229,10.52524c-2.6,-0.4788 -2.04397,-14.16171 0.42291,-17.69191z" fill="#d60000" fill-rule="nonzero" stroke="#000000" stroke-width="1" stroke-linecap="butt"/><path d="M337.87542,71.86579c0,9.14006 -8.24543,16.54954 -18.41667,16.54954c-10.17124,0 -18.41667,-7.40948 -18.41667,-16.54954c0,-9.14006 8.24543,-16.54954 18.41667,-16.54954c10.17124,0 18.41667,7.40948 18.41667,16.54954z" fill="#ffffff" fill-rule="nonzero" stroke="none" stroke-width="0" stroke-linecap="butt"/><path d="M338.78508,228.05316c0,1.99603 -1.54283,3.61412 -3.44602,3.61412c-1.90319,0 -3.44603,-1.6181 -3.44603,-3.61412c0,-1.99603 1.54284,-3.61412 3.44603,-3.61412c1.90319,0 3.44602,1.61809 3.44602,3.61412z" fill="#c6a438" fill-rule="nonzero" stroke="none" stroke-width="0" stroke-linecap="butt"/><path d="M309.37395,228.76983c0,1.99603 -1.54283,3.61412 -3.44602,3.61412c-1.90319,0 -3.44603,-1.6181 -3.44603,-3.61412c0,-1.99603 1.54284,-3.61412 3.44603,-3.61412c1.90319,0 3.44602,1.61809 3.44602,3.61412z" fill="#c6a438" fill-rule="nonzero" stroke="none" stroke-width="0" stroke-linecap="butt"/><path d="M270.57182,107.23887l2.83334,-8.78572c0,0 8.38245,-3.22377 9.03638,-3.40847c4.87995,-1.37836 25.70344,-8.21057 37.13028,-8.21057c11.03631,0 32.30917,6.51103 38.01657,8.0849c0.95074,0.26217 7.62628,4.74844 7.62628,4.74844l1.82143,8.83333c0,0 -8.71824,-2.99878 -9.5178,-2.99654c-1.88852,0.0053 -5.82465,-0.9574 -10.94539,-2.09485c-7.41256,-1.64651 -17.47406,3.50751 -27.23352,3.53491c-9.94581,0.02792 -19.58437,-5.30103 -26.47853,-3.80424c-4.75314,1.03195 -8.12256,1.90186 -9.20032,1.90488c-0.72784,0.00204 -13.08872,2.19393 -13.08872,2.19393z" fill="#9f0000" fill-rule="nonzero" stroke="#000000" stroke-width="0" stroke-linecap="butt"/><path d="M329.68519,77.80507l-4.41641,-0.77921l-1.57239,-6.96531c0,0 -1.93399,4.19778 -3.84401,6.10917c-1.34833,-1.94606 -2.9247,-4.315 -4.11262,-6.18214c-1.02645,2.63276 -1.87441,6.8971 -1.87441,6.8971l-4.10954,-0.1091c0,0 2.25797,-9.37217 4.04346,-13.91239c2.06588,2.63121 4.19098,5.11268 6.37602,7.44507c1.40758,-1.91392 5.1823,-8.04874 5.43947,-7.92489c0.40016,0.19271 3.53727,11.22528 4.07044,15.42167z" fill="#d9130c" fill-rule="evenodd" stroke="none" stroke-width="1" stroke-linecap="butt"/><path d="M308.84889,229.41983c0,1.99602 -1.54284,3.61412 -3.44602,3.61412c-1.90319,0 -3.44602,-1.6181 -3.44602,-3.61412c0,-1.99602 1.54284,-3.61412 3.44602,-3.61412c1.90319,0 3.44602,1.6181 3.44602,3.61412z" fill="#edd459" fill-rule="nonzero" stroke="none" stroke-width="0" stroke-linecap="butt"/><path d="M338.53647,228.70108c0,1.87521 -1.44945,3.39537 -3.23744,3.39537c-1.78799,0 -3.23745,-1.52016 -3.23745,-3.39537c0,-1.87521 1.44946,-3.39537 3.23745,-3.39537c1.78799,0 3.23744,1.52016 3.23744,3.39537z" fill="#edd459" fill-rule="nonzero" stroke="none" stroke-width="0" stroke-linecap="butt"/><path d="M286.92015,306.92575l9.41111,-84.23333l0.02222,43.93333l-0.13333,40.23333z" fill="#142779" fill-rule="nonzero" stroke="none" stroke-width="0" stroke-linecap="butt"/><path d="M344.05351,307.44638l-0.13333,-40.23333l0.45079,-44.8619l8.98254,85.1619z" data-paper-data="{&quot;index&quot;:null}" fill="#142779" fill-rule="nonzero" stroke="none" stroke-width="0" stroke-linecap="butt"/><path d="M311.57707,184.76994c-5.30563,-0.2 -5.23184,-7.55 -5.23184,-7.55c0,0 10.4676,-2 14.63184,-2c4.20523,0 12.67775,1.4 12.67775,1.4c0,0 -12.97858,8.493 -22.07775,8.15z" fill="#ffffff" fill-rule="nonzero" stroke="#000000" stroke-width="2" stroke-linecap="round"/><path d="M273.83889,166.77415c0,0 -3.25526,-3.95564 -4.6654,-5.66917c-1.16962,-1.42126 -1.02778,-6.53651 -1.02778,-6.53651c0,0 0.91308,4.21158 5.7985,5.33129c2.17825,0.49924 2.15691,0.6181 4.93146,1.20336c0.78447,0.16547 4.14371,-0.00062 4.96399,0.16741c11.3526,2.32554 25.88472,4.80481 36.66895,4.91425c11.06147,0.11226 25.56781,-2.57185 36.58061,-5.06719c0.81498,-0.18466 3.83304,0.07615 4.60694,-0.10523c3.738,-0.8761 2.74184,-0.47763 5.1391,-1.11273c2.82887,-0.74944 5.04909,-5.17554 5.04909,-5.17554c0,0 -0.65781,5.6783 -1.67908,7.32482c-0.97675,1.57474 -2.86638,4.62124 -2.86638,4.62124c0,0 -30.59675,9.2096 -47.21564,8.73392c-17.27256,-0.49439 -46.28436,-8.6299 -46.28436,-8.6299z" fill="#191100" fill-rule="nonzero" stroke="none" stroke-width="0" stroke-linecap="butt"/><path d="M303.40018,171.61173c-1.20401,3.15176 -6.87726,4.70301 -12.67156,3.46482c-5.79429,-1.23819 -9.51545,-4.79694 -8.31144,-7.9487c1.20401,-3.15176 6.87725,-4.70301 12.67155,-3.46482c5.79429,1.23819 9.51546,4.79695 8.31145,7.9487z" fill="#191100" fill-rule="nonzero" stroke="none" stroke-width="0" stroke-linecap="butt"/><path d="M331.24363,173.07298c-0.13209,3.41003 -5.12211,6.0598 -11.14553,5.91842c-6.02342,-0.14138 -10.79929,-3.02036 -10.6672,-6.43039c0.13209,-3.41003 5.12211,-6.0598 11.14553,-5.91842c6.02342,0.14138 10.79929,3.02036 10.66721,6.4304z" fill="#191100" fill-rule="nonzero" stroke="none" stroke-width="0" stroke-linecap="butt"/><path d="M357.9453,167.37972c1.02614,3.04254 -2.89139,6.32575 -8.75005,7.33327c-5.85865,1.00751 -11.43988,-0.6422 -12.46602,-3.68474c-1.02614,-3.04254 2.89139,-6.32576 8.75004,-7.33328c5.85865,-1.00751 11.43989,0.64221 12.46603,3.68475z" fill="#191100" fill-rule="nonzero" stroke="none" stroke-width="0" stroke-linecap="butt"/></g></g></svg>