<svg version="1.1" xmlns="http://www.w3.org/2000/svg" xmlns:xlink="http://www.w3.org/1999/xlink" width="133.09066" height="267.22501" viewBox="0,0,133.09066,267.22501"><g transform="translate(-179.48378,-46.3875)"><g data-paper-data="{&quot;isPaintingLayer&quot;:true}" fill-rule="nonzero" stroke-linejoin="miter" stroke-miterlimit="10" stroke-dasharray="" stroke-dashoffset="0" style="mix-blend-mode: normal"><path d="M206.7501,307.5l15.14285,-131.8421l37.78325,-0.15789l13.57389,132z" fill="#ff3c3c" stroke="#000000" stroke-width="2" stroke-linecap="butt"/><path d="M219.70032,204.11263l3.12142,-26.32765l35.83075,-0.14203l2.76735,26.1059c0,0 -7.51543,4.19603 -21.55904,4.50964c-12.48458,0.27879 -20.16049,-4.14586 -20.16049,-4.14586z" fill="#b52b2b" stroke="#000000" stroke-width="0" stroke-linecap="butt"/><g stroke="#000000" stroke-linecap="butt"><path d="M183.1004,136.84616c0,-33.30185 28.7599,-60.29833 64.23702,-60.29833c35.47712,0 64.23702,26.99649 64.23702,60.29833c0,33.30185 -28.7599,60.29833 -64.23702,60.29833c-35.47712,0 -64.23702,-26.99649 -64.23702,-60.29833z" fill="#ff3c3c" stroke-width="2"/><path d="M183.82346,136.9c0,-0.72799 5.20666,55.91939 63.36046,56.93429c55.56352,0.9697 63.51358,-57.95314 63.51358,-56.93429c0,32.80479 -28.40173,59.39833 -63.43702,59.39833c-35.03529,0 -63.43702,-26.59354 -63.43702,-59.39833z" fill="#b52b2b" stroke-width="0"/><path d="M189.03619,176.43146v-70.76923h117.30769v70.76923z" fill="#b52b2b" stroke-width="2"/><path d="M194.42081,170.66223v-59.61538h106.53846v59.61538z" fill="#0a0a0a" stroke-width="2"/></g><path d="M228.1758,114.72118l43.5223,24.91277l-43.22215,26.41354z" fill="none" stroke="#0fff00" stroke-width="3.5" stroke-linecap="round"/><path d="M179.48379,313.61251v-267.22501h123.18203v267.22501z" fill-opacity="0.01" fill="#000000" stroke="none" stroke-width="0" stroke-linecap="butt"/></g></g></svg>